<svg width="800" height="150" viewBox="0 0 800 150" xmlns="http://www.w3.org/2000/svg">
    <defs>
        <pattern id="cfDash" width="10" height="10" patternUnits="userSpaceOnUse">
            <rect width="10" height="10" fill="#050505"/>
            <path d="M0,0 L5,5 L10,0 L5,-5 Z M5,5 L10,10 L15,5 L10,0 Z M-5,5 L0,10 L5,5 L0,0 Z M0,10 L5,15 L10,10 L5,5 Z" fill="#0d0d0d"/>
        </pattern>
        <linearGradient id="topBar" x1="0%" y1="0%" x2="100%" y2="0%">
            <stop offset="0%" stop-color="#39FF14" stop-opacity="0.1"/>
            <stop offset="50%" stop-color="#39FF14" stop-opacity="0.8"/>
            <stop offset="100%" stop-color="#39FF14" stop-opacity="0.1"/>
        </linearGradient>
        <filter id="textGlow">
            <feGaussianBlur stdDeviation="1.2" result="blur"/>
            <feMerge>
                <feMergeNode in="blur"/>
                <feMergeNode in="SourceGraphic"/>
            </feMerge>
        </filter>
    </defs>

    <!-- Background -->
    <rect width="800" height="150" fill="url(#cfDash)" rx="6" stroke="#39FF14" stroke-opacity="0.3" stroke-width="1"/>
    <rect width="800" height="150" fill="#000000" opacity="0.5" rx="6"/>

    <!-- Top accent bar -->
    <rect width="800" height="3" fill="url(#topBar)" rx="2"/>

    <!-- Title -->
    <text x="30" y="35" font-family="'Consolas','Fira Code',monospace" font-size="12" fill="#888888" font-weight="600" letter-spacing="2">SYSTEM TELEMETRY</text>
    <text x="770" y="35" font-family="'Consolas','Fira Code',monospace" font-size="10" fill="#666666" text-anchor="end">2026-05-13 06:58:20 UTC</text>

    <!-- Separator -->
    <line x1="30" y1="45" x2="770" y2="45" stroke="#39FF14" stroke-opacity="0.2" stroke-width="1"/>

    <!-- Metrics Section -->
    <g transform="translate(30, 70)">

        <!-- Uptime -->
        <g transform="translate(0, 0)">
            <text x="0" y="0" font-family="'Consolas','Fira Code',monospace" font-size="11" fill="#888888" letter-spacing="1">CONTINUITY</text>
            <text x="0" y="30" font-family="'JetBrains Mono','Fira Code',monospace" font-size="28" fill="#ffffff" font-weight="500" filter="url(#textGlow)">319<tspan font-size="14" fill="#39FF14">d</tspan></text>
            <rect x="0" y="45" width="150" height="2" fill="#141414" rx="1"/>
            <rect x="0" y="45" width="130" height="2" fill="#39FF14" rx="1"/>
        </g>

        <!-- Active Agents -->
        <g transform="translate(250, 0)">
            <text x="0" y="0" font-family="'Consolas','Fira Code',monospace" font-size="11" fill="#888888" letter-spacing="1">ACTIVE ENTITIES</text>
            <text x="0" y="30" font-family="'JetBrains Mono','Fira Code',monospace" font-size="28" fill="#ffffff" font-weight="500" filter="url(#textGlow)">225</text>
            <rect x="0" y="45" width="150" height="2" fill="#141414" rx="1"/>
            <rect x="0" y="45" width="90" height="2" fill="#7FFF50" rx="1"/>
        </g>

        <!-- Network Payload -->
        <g transform="translate(500, 0)">
            <text x="0" y="0" font-family="'Consolas','Fira Code',monospace" font-size="11" fill="#888888" letter-spacing="1">NETWORK LOAD</text>
            <text x="0" y="30" font-family="'JetBrains Mono','Fira Code',monospace" font-size="28" fill="#ffffff" font-weight="500" filter="url(#textGlow)">7779</text>
            <rect x="0" y="45" width="150" height="2" fill="#141414" rx="1"/>
            <rect x="0" y="45" width="110" height="2" fill="#39FF14" rx="1"/>
        </g>

    </g>

    <!-- Status Indicator -->
    <circle cx="760" cy="95" r="4" fill="#39FF14">
        <animate attributeName="opacity" values="1;0.2;1" dur="2s" repeatCount="indefinite"/>
    </circle>
    <text x="745" y="99" font-family="'Consolas','Fira Code',monospace" font-size="10" fill="#888888" text-anchor="end" letter-spacing="1">ALL SYSTEMS NORMAL</text>

</svg>