<svg width="720" height="462" viewBox="0 0 720 462" xmlns="http://www.w3.org/2000/svg">
  <defs>
    <pattern id="cfFeed" width="10" height="10" patternUnits="userSpaceOnUse">
      <rect width="10" height="10" fill="#050505"/>
      <path d="M0,0 L5,5 L10,0 L5,-5 Z M5,5 L10,10 L15,5 L10,0 Z M-5,5 L0,10 L5,5 L0,0 Z M0,10 L5,15 L10,10 L5,5 Z" fill="#0a0a0a"/>
    </pattern>
    <linearGradient id="topBarFeed" x1="0%" y1="0%" x2="100%" y2="0%">
      <stop offset="0%" stop-color="#39FF14" stop-opacity="0.1"/>
      <stop offset="50%" stop-color="#39FF14" stop-opacity="0.9"/>
      <stop offset="100%" stop-color="#39FF14" stop-opacity="0.1"/>
    </linearGradient>
  </defs>

  <rect width="720" height="462" fill="url(#cfFeed)" rx="10"
        stroke="#39FF14" stroke-opacity="0.3" stroke-width="1"/>
  <rect width="720" height="462" fill="#000000" opacity="0.45" rx="10"/>
  <rect width="720" height="3" fill="url(#topBarFeed)" rx="2"/>

  <text x="30" y="40" font-family="'Consolas','Fira Code',monospace" font-size="11"
        fill="#888888" letter-spacing="3">// LIVE EVENT STREAM</text>
  <text x="30" y="68" font-family="'Consolas','Fira Code',monospace" font-size="22"
        fill="#ffffff" font-weight="600" letter-spacing="2">RECENT WORK FEED</text>
  <circle cx="690" cy="38" r="4" fill="#39FF14">
    <animate attributeName="opacity" values="1;0.2;1" dur="1.8s" repeatCount="indefinite"/>
  </circle>
  <text x="678" y="42" font-family="'Consolas',monospace" font-size="10"
        fill="#aaaaaa" text-anchor="end" letter-spacing="1">LIVE</text>
  <line x1="30" y1="82" x2="690" y2="82" stroke="#39FF14" stroke-opacity="0.25" stroke-width="1"/>

  
  <g transform="translate(30, 90)">
    <rect width="660" height="48" rx="6" fill="#0a0a0a"
          stroke="#39FF14" stroke-opacity="0.35" stroke-width="1"/>
    <rect width="3" height="48" rx="2" fill="#39FF14"/>
    <text x="22" y="22" font-family="'Consolas',monospace" font-size="18" fill="#39FF14">↥</text>
    <text x="48" y="22" font-family="'Consolas',monospace" font-size="9" fill="#39FF14"
          letter-spacing="2">PUSH</text>
    <text x="92" y="22" font-family="'Consolas',monospace" font-size="12" fill="#ffffff"
          font-weight="600">Moeabdelaziz007/moeabdelaziz007</text>
    <text x="22" y="40" font-family="'Consolas',monospace" font-size="10" fill="#aaaaaa">0 commit pushed</text>
    <text x="650" y="22" font-family="'Consolas',monospace" font-size="10"
          fill="#666666" text-anchor="end">15s ago</text>
  </g>

  <g transform="translate(30, 146)">
    <rect width="660" height="48" rx="6" fill="#0a0a0a"
          stroke="#7FFF50" stroke-opacity="0.35" stroke-width="1"/>
    <rect width="3" height="48" rx="2" fill="#7FFF50"/>
    <text x="22" y="22" font-family="'Consolas',monospace" font-size="18" fill="#7FFF50">⌥</text>
    <text x="48" y="22" font-family="'Consolas',monospace" font-size="9" fill="#7FFF50"
          letter-spacing="2">PR</text>
    <text x="92" y="22" font-family="'Consolas',monospace" font-size="12" fill="#ffffff"
          font-weight="600">Moeabdelaziz007/moeabdelaziz007</text>
    <text x="22" y="40" font-family="'Consolas',monospace" font-size="10" fill="#aaaaaa">PR merged · </text>
    <text x="650" y="22" font-family="'Consolas',monospace" font-size="10"
          fill="#666666" text-anchor="end">16s ago</text>
  </g>

  <g transform="translate(30, 202)">
    <rect width="660" height="48" rx="6" fill="#0a0a0a"
          stroke="#7FFF50" stroke-opacity="0.35" stroke-width="1"/>
    <rect width="3" height="48" rx="2" fill="#7FFF50"/>
    <text x="22" y="22" font-family="'Consolas',monospace" font-size="18" fill="#7FFF50">⌥</text>
    <text x="48" y="22" font-family="'Consolas',monospace" font-size="9" fill="#7FFF50"
          letter-spacing="2">PR</text>
    <text x="92" y="22" font-family="'Consolas',monospace" font-size="12" fill="#ffffff"
          font-weight="600">Moeabdelaziz007/moeabdelaziz007</text>
    <text x="22" y="40" font-family="'Consolas',monospace" font-size="10" fill="#aaaaaa">PR opened · </text>
    <text x="650" y="22" font-family="'Consolas',monospace" font-size="10"
          fill="#666666" text-anchor="end">41s ago</text>
  </g>

  <g transform="translate(30, 258)">
    <rect width="660" height="48" rx="6" fill="#0a0a0a"
          stroke="#7FFF50" stroke-opacity="0.35" stroke-width="1"/>
    <rect width="3" height="48" rx="2" fill="#7FFF50"/>
    <text x="22" y="22" font-family="'Consolas',monospace" font-size="18" fill="#7FFF50">⌥</text>
    <text x="48" y="22" font-family="'Consolas',monospace" font-size="9" fill="#7FFF50"
          letter-spacing="2">PR</text>
    <text x="92" y="22" font-family="'Consolas',monospace" font-size="12" fill="#ffffff"
          font-weight="600">Moeabdelaziz007/iqra</text>
    <text x="22" y="40" font-family="'Consolas',monospace" font-size="10" fill="#aaaaaa">PR opened · </text>
    <text x="650" y="22" font-family="'Consolas',monospace" font-size="10"
          fill="#666666" text-anchor="end">1m ago</text>
  </g>

  <g transform="translate(30, 314)">
    <rect width="660" height="48" rx="6" fill="#0a0a0a"
          stroke="#39FFC4" stroke-opacity="0.35" stroke-width="1"/>
    <rect width="3" height="48" rx="2" fill="#39FFC4"/>
    <text x="22" y="22" font-family="'Consolas',monospace" font-size="18" fill="#39FFC4">✚</text>
    <text x="48" y="22" font-family="'Consolas',monospace" font-size="9" fill="#39FFC4"
          letter-spacing="2">CREATE</text>
    <text x="92" y="22" font-family="'Consolas',monospace" font-size="12" fill="#ffffff"
          font-weight="600">Moeabdelaziz007/iqra</text>
    <text x="22" y="40" font-family="'Consolas',monospace" font-size="10" fill="#aaaaaa">branch created · fix/page-tsx-jsx-syntax</text>
    <text x="650" y="22" font-family="'Consolas',monospace" font-size="10"
          fill="#666666" text-anchor="end">1m ago</text>
  </g>

  <g transform="translate(30, 370)">
    <rect width="660" height="48" rx="6" fill="#0a0a0a"
          stroke="#39FF14" stroke-opacity="0.35" stroke-width="1"/>
    <rect width="3" height="48" rx="2" fill="#39FF14"/>
    <text x="22" y="22" font-family="'Consolas',monospace" font-size="18" fill="#39FF14">↥</text>
    <text x="48" y="22" font-family="'Consolas',monospace" font-size="9" fill="#39FF14"
          letter-spacing="2">PUSH</text>
    <text x="92" y="22" font-family="'Consolas',monospace" font-size="12" fill="#ffffff"
          font-weight="600">Moeabdelaziz007/moeabdelaziz007</text>
    <text x="22" y="40" font-family="'Consolas',monospace" font-size="10" fill="#aaaaaa">0 commit pushed</text>
    <text x="650" y="22" font-family="'Consolas',monospace" font-size="10"
          fill="#666666" text-anchor="end">1m ago</text>
  </g>


  <text x="30" y="448" font-family="'Consolas',monospace" font-size="9"
        fill="#444444" letter-spacing="2">// SOURCE: GITHUB EVENTS API · UPDATED EVERY 3H</text>
</svg>