<svg width="720" height="450" viewBox="0 0 720 450" xmlns="http://www.w3.org/2000/svg">
  <defs>
    <pattern id="cfStack" width="10" height="10" patternUnits="userSpaceOnUse">
      <rect width="10" height="10" fill="#050505"/>
      <path d="M0,0 L5,5 L10,0 L5,-5 Z M5,5 L10,10 L15,5 L10,0 Z M-5,5 L0,10 L5,5 L0,0 Z M0,10 L5,15 L10,10 L5,5 Z" fill="#0a0a0a"/>
    </pattern>
    <linearGradient id="topBarStack" x1="0%" y1="0%" x2="100%" y2="0%">
      <stop offset="0%" stop-color="#39FF14" stop-opacity="0.1"/>
      <stop offset="50%" stop-color="#39FF14" stop-opacity="0.9"/>
      <stop offset="100%" stop-color="#39FF14" stop-opacity="0.1"/>
    </linearGradient>
  </defs>

  <rect width="720" height="450" fill="url(#cfStack)" rx="10" stroke="#39FF14" stroke-opacity="0.3" stroke-width="1"/>
  <rect width="720" height="450" fill="#000000" opacity="0.45" rx="10"/>
  <rect width="720" height="3" fill="url(#topBarStack)" rx="2"/>

  <text x="40" y="40" font-family="'Consolas','Fira Code',monospace" font-size="11"
        fill="#888888" letter-spacing="3">// STACK ANALYSIS</text>
  <text x="40" y="68" font-family="'Consolas','Fira Code',monospace" font-size="22"
        fill="#ffffff" font-weight="600" letter-spacing="2">CORE LANGUAGES</text>
  <text x="680" y="40" font-family="'Consolas',monospace" font-size="11"
        fill="#666666" text-anchor="end" letter-spacing="1">13 REPOSITORIES SCANNED</text>
  <line x1="40" y1="82" x2="680" y2="82" stroke="#39FF14" stroke-opacity="0.25" stroke-width="1"/>

  <g transform="translate(40, 100)"><text x="0" y="14" font-family="'Consolas',monospace" font-size="12" fill="#aaaaaa" letter-spacing="1">TypeScript</text><rect x="170" y="2" width="360" height="16" rx="3" fill="#141414"/><rect x="170" y="2" width="254" height="16" rx="3" fill="#3178C6"/><rect x="170" y="2" width="254" height="16" rx="3" fill="#39FF14" opacity="0.18"/><text x="542" y="14" font-family="'JetBrains Mono',monospace" font-size="12" fill="#ffffff">70.7%</text></g><g transform="translate(40, 132)"><text x="0" y="14" font-family="'Consolas',monospace" font-size="12" fill="#aaaaaa" letter-spacing="1">Python</text><rect x="170" y="2" width="360" height="16" rx="3" fill="#141414"/><rect x="170" y="2" width="47" height="16" rx="3" fill="#3572A5"/><rect x="170" y="2" width="47" height="16" rx="3" fill="#39FF14" opacity="0.18"/><text x="542" y="14" font-family="'JetBrains Mono',monospace" font-size="12" fill="#ffffff">13.1%</text></g><g transform="translate(40, 164)"><text x="0" y="14" font-family="'Consolas',monospace" font-size="12" fill="#aaaaaa" letter-spacing="1">JavaScript</text><rect x="170" y="2" width="360" height="16" rx="3" fill="#141414"/><rect x="170" y="2" width="20" height="16" rx="3" fill="#F1E05A"/><rect x="170" y="2" width="20" height="16" rx="3" fill="#39FF14" opacity="0.18"/><text x="542" y="14" font-family="'JetBrains Mono',monospace" font-size="12" fill="#ffffff">5.6%</text></g><g transform="translate(40, 196)"><text x="0" y="14" font-family="'Consolas',monospace" font-size="12" fill="#aaaaaa" letter-spacing="1">Solidity</text><rect x="170" y="2" width="360" height="16" rx="3" fill="#141414"/><rect x="170" y="2" width="15" height="16" rx="3" fill="#AA6746"/><rect x="170" y="2" width="15" height="16" rx="3" fill="#39FF14" opacity="0.18"/><text x="542" y="14" font-family="'JetBrains Mono',monospace" font-size="12" fill="#ffffff">4.3%</text></g><g transform="translate(40, 228)"><text x="0" y="14" font-family="'Consolas',monospace" font-size="12" fill="#aaaaaa" letter-spacing="1">Go</text><rect x="170" y="2" width="360" height="16" rx="3" fill="#141414"/><rect x="170" y="2" width="10" height="16" rx="3" fill="#00ADD8"/><rect x="170" y="2" width="10" height="16" rx="3" fill="#39FF14" opacity="0.18"/><text x="542" y="14" font-family="'JetBrains Mono',monospace" font-size="12" fill="#ffffff">2.9%</text></g><g transform="translate(40, 260)"><text x="0" y="14" font-family="'Consolas',monospace" font-size="12" fill="#aaaaaa" letter-spacing="1">Shell</text><rect x="170" y="2" width="360" height="16" rx="3" fill="#141414"/><rect x="170" y="2" width="5" height="16" rx="3" fill="#89E051"/><rect x="170" y="2" width="5" height="16" rx="3" fill="#39FF14" opacity="0.18"/><text x="542" y="14" font-family="'JetBrains Mono',monospace" font-size="12" fill="#ffffff">1.5%</text></g><g transform="translate(40, 292)"><text x="0" y="14" font-family="'Consolas',monospace" font-size="12" fill="#aaaaaa" letter-spacing="1">Rust</text><rect x="170" y="2" width="360" height="16" rx="3" fill="#141414"/><rect x="170" y="2" width="4" height="16" rx="3" fill="#DEA584"/><rect x="170" y="2" width="4" height="16" rx="3" fill="#39FF14" opacity="0.18"/><text x="542" y="14" font-family="'JetBrains Mono',monospace" font-size="12" fill="#ffffff">0.8%</text></g><g transform="translate(40, 324)"><text x="0" y="14" font-family="'Consolas',monospace" font-size="12" fill="#aaaaaa" letter-spacing="1">CSS</text><rect x="170" y="2" width="360" height="16" rx="3" fill="#141414"/><rect x="170" y="2" width="4" height="16" rx="3" fill="#563D7C"/><rect x="170" y="2" width="4" height="16" rx="3" fill="#39FF14" opacity="0.18"/><text x="542" y="14" font-family="'JetBrains Mono',monospace" font-size="12" fill="#ffffff">0.6%</text></g><g transform="translate(40, 356)"><text x="0" y="14" font-family="'Consolas',monospace" font-size="12" fill="#aaaaaa" letter-spacing="1">HTML</text><rect x="170" y="2" width="360" height="16" rx="3" fill="#141414"/><rect x="170" y="2" width="4" height="16" rx="3" fill="#E34C26"/><rect x="170" y="2" width="4" height="16" rx="3" fill="#39FF14" opacity="0.18"/><text x="542" y="14" font-family="'JetBrains Mono',monospace" font-size="12" fill="#ffffff">0.4%</text></g><g transform="translate(40, 388)"><text x="0" y="14" font-family="'Consolas',monospace" font-size="12" fill="#aaaaaa" letter-spacing="1">HCL</text><rect x="170" y="2" width="360" height="16" rx="3" fill="#141414"/><rect x="170" y="2" width="4" height="16" rx="3" fill="#888888"/><rect x="170" y="2" width="4" height="16" rx="3" fill="#39FF14" opacity="0.18"/><text x="542" y="14" font-family="'JetBrains Mono',monospace" font-size="12" fill="#ffffff">0.0%</text></g>

  <text x="40" y="436" font-family="'Consolas',monospace" font-size="9"
        fill="#444444" letter-spacing="2">// SOURCE: GITHUB REST API · LANGUAGES ENDPOINT</text>
  <circle cx="680" cy="432" r="3" fill="#39FF14">
    <animate attributeName="opacity" values="1;0.2;1" dur="2s" repeatCount="indefinite"/>
  </circle>
</svg>