<svg width="850" height="200" viewBox="0 0 850 200" xmlns="http://www.w3.org/2000/svg">
  <defs>
    <!-- Carbon Fiber Pattern -->
    <pattern id="carbonFiber" width="10" height="10" patternUnits="userSpaceOnUse">
        <rect width="10" height="10" fill="#050505"/>
        <path d="M0,0 L5,5 L10,0 L5,-5 Z M5,5 L10,10 L15,5 L10,0 Z M-5,5 L0,10 L5,5 L0,0 Z M0,10 L5,15 L10,10 L5,5 Z" fill="#0d0d0d"/>
    </pattern>
    <filter id="glassmorphism">
      <feGaussianBlur stdDeviation="3" result="blur" />
      <feColorMatrix type="matrix" values="1 0 0 0 0  0 1 0 0 0  0 0 1 0 0  0 0 0 18 -7" result="glow" />
      <feBlend in="SourceGraphic" in2="glow" mode="normal" />
    </filter>
    <filter id="textGlow">
      <feGaussianBlur stdDeviation="2" result="blur" />
      <feMerge>
        <feMergeNode in="blur"/>
        <feMergeNode in="SourceGraphic"/>
      </feMerge>
    </filter>
    <linearGradient id="neonBar" x1="0%" y1="0%" x2="100%" y2="0%">
        <stop offset="0%" stop-color="#111111"/>
        <stop offset="100%" stop-color="#39FF14"/>
    </linearGradient>
  </defs>

  <rect width="100%" height="100%" fill="url(#carbonFiber)" rx="12" stroke="#39FF14" stroke-width="1" stroke-opacity="0.3"/>
  <rect width="100%" height="100%" fill="#000000" opacity="0.6" rx="12" />
  <g><polygon points="164,59 172.6,64 172.6,74 164,79 155.4,74 155.4,64" fill="none" stroke="#39FF14" stroke-width="1" opacity="0.04933731277308257"/>
<polygon points="52,126 60.6,131 60.6,141 52,146 43.4,141 43.4,131" fill="none" stroke="#39FF14" stroke-width="1" opacity="0.023104832984357913"/>
<polygon points="22,111 30.6,116 30.6,126 22,131 13.4,126 13.4,116" fill="none" stroke="#39FF14" stroke-width="1" opacity="0.031395952101489696"/>
<polygon points="536,-3 544.6,2 544.6,12 536,17 527.4,12 527.4,2" fill="none" stroke="#39FF14" stroke-width="1" opacity="0.06414029881210469"/>
<polygon points="513,47 521.6,52 521.6,62 513,67 504.4,62 504.4,52" fill="none" stroke="#39FF14" stroke-width="1" opacity="0.04382146156751208"/>
<polygon points="777,80 785.6,85 785.6,95 777,100 768.4,95 768.4,85" fill="none" stroke="#39FF14" stroke-width="1" opacity="0.04342721131985786"/>
<polygon points="56,143 64.6,148 64.6,158 56,163 47.4,158 47.4,148" fill="none" stroke="#39FF14" stroke-width="1" opacity="0.029496867783719082"/>
<polygon points="731,29 739.6,34 739.6,44 731,49 722.4,44 722.4,34" fill="none" stroke="#39FF14" stroke-width="1" opacity="0.07335981859621508"/>
<polygon points="162,124 170.6,129 170.6,139 162,144 153.4,139 153.4,129" fill="none" stroke="#39FF14" stroke-width="1" opacity="0.028723021606086356"/>
<polygon points="145,70 153.6,75 153.6,85 145,90 136.4,85 136.4,75" fill="none" stroke="#39FF14" stroke-width="1" opacity="0.061026740291748635"/>
<polygon points="261,120 269.6,125 269.6,135 261,140 252.4,135 252.4,125" fill="none" stroke="#39FF14" stroke-width="1" opacity="0.025670975411055147"/>
<polygon points="714,97 722.6,102 722.6,112 714,117 705.4,112 705.4,102" fill="none" stroke="#39FF14" stroke-width="1" opacity="0.04263532414523233"/>
<polygon points="250,5 258.6,10 258.6,20 250,25 241.4,20 241.4,10" fill="none" stroke="#39FF14" stroke-width="1" opacity="0.04967456695042156"/>
<polygon points="666,39 674.6,44 674.6,54 666,59 657.4,54 657.4,44" fill="none" stroke="#39FF14" stroke-width="1" opacity="0.07625406145703152"/>
<polygon points="330,153 338.6,158 338.6,168 330,173 321.4,168 321.4,158" fill="none" stroke="#39FF14" stroke-width="1" opacity="0.034059159238108816"/>
<polygon points="313,1 321.6,6 321.6,16 313,21 304.4,16 304.4,6" fill="none" stroke="#39FF14" stroke-width="1" opacity="0.05276122596442083"/>
<polygon points="265,25 273.6,30 273.6,40 265,45 256.4,40 256.4,30" fill="none" stroke="#39FF14" stroke-width="1" opacity="0.07250360854464881"/>
<polygon points="457,61 465.6,66 465.6,76 457,81 448.4,76 448.4,66" fill="none" stroke="#39FF14" stroke-width="1" opacity="0.03929944912317198"/>
<polygon points="430,162 438.6,167 438.6,177 430,182 421.4,177 421.4,167" fill="none" stroke="#39FF14" stroke-width="1" opacity="0.03428916794855426"/>
<polygon points="748,64 756.6,69 756.6,79 748,84 739.4,79 739.4,69" fill="none" stroke="#39FF14" stroke-width="1" opacity="0.06124527134772202"/>
<polygon points="137,41 145.6,46 145.6,56 137,61 128.4,56 128.4,46" fill="none" stroke="#39FF14" stroke-width="1" opacity="0.038826611954823745"/>
<polygon points="94,-9 102.6,-4 102.6,6 94,11 85.4,6 85.4,-4" fill="none" stroke="#39FF14" stroke-width="1" opacity="0.05849331995671159"/>
<polygon points="512,116 520.6,121 520.6,131 512,136 503.4,131 503.4,121" fill="none" stroke="#39FF14" stroke-width="1" opacity="0.07883404873893476"/>
<polygon points="676,108 684.6,113 684.6,123 676,128 667.4,123 667.4,113" fill="none" stroke="#39FF14" stroke-width="1" opacity="0.0381670208393025"/>
<polygon points="87,95 95.6,100 95.6,110 87,115 78.4,110 78.4,100" fill="none" stroke="#39FF14" stroke-width="1" opacity="0.04414608809176215"/>
<polygon points="174,81 182.6,86 182.6,96 174,101 165.4,96 165.4,86" fill="none" stroke="#39FF14" stroke-width="1" opacity="0.044508545158334946"/>
<polygon points="676,35 684.6,40 684.6,50 676,55 667.4,50 667.4,40" fill="none" stroke="#39FF14" stroke-width="1" opacity="0.051637155676381094"/>
<polygon points="313,185 321.6,190 321.6,200 313,205 304.4,200 304.4,190" fill="none" stroke="#39FF14" stroke-width="1" opacity="0.053972339060557525"/>
<polygon points="820,104 828.6,109 828.6,119 820,124 811.4,119 811.4,109" fill="none" stroke="#39FF14" stroke-width="1" opacity="0.05693510100769977"/>
<polygon points="846,125 854.6,130 854.6,140 846,145 837.4,140 837.4,130" fill="none" stroke="#39FF14" stroke-width="1" opacity="0.04596089403454107"/>
</g>

  <!-- HUD Decorative elements -->
  <path d="M 20 20 L 40 20 L 50 30" fill="none" stroke="#39FF14" stroke-width="2" opacity="0.5"/>
  <path d="M 830 180 L 810 180 L 800 170" fill="none" stroke="#39FF14" stroke-width="2" opacity="0.5"/>
  <rect x="20" y="100" width="2" height="40" fill="#ffffff" opacity="0.4"/>
  <rect x="828" y="60" width="2" height="40" fill="#39FF14" opacity="0.6"/>

  <g font-family="'Consolas', 'Fira Code', monospace" text-anchor="middle">

    <!-- SYSTEM STATUS -->
    <g transform="translate(130, 100)">
        <circle cx="0" cy="0" r="45" fill="none" stroke="#111111" stroke-width="8" />
        <circle cx="0" cy="0" r="45" fill="none" stroke="#39FF14" stroke-width="2" stroke-dasharray="10 5">
            <animateTransform attributeName="transform" type="rotate" from="0" to="360" dur="10s" repeatCount="indefinite"/>
        </circle>
        <circle cx="0" cy="0" r="35" fill="#0d0d0d" />
        <circle cx="0" cy="0" r="6" fill="#39FF14" filter="url(#textGlow)">
            <animate attributeName="opacity" values="1;0.3;1" dur="2s" repeatCount="indefinite"/>
        </circle>
        <text x="0" y="-60" font-size="12" fill="#aaaaaa" letter-spacing="2">SYS.CORE</text>
        <text x="0" y="70" font-size="14" fill="#ffffff" font-weight="bold">ONLINE</text>
    </g>

    <!-- LIVE TRAFFIC -->
    <g transform="translate(330, 100)">
        <rect x="-60" y="-45" width="120" height="90" fill="#0a0a0a" rx="8" stroke="#39FF14" stroke-opacity="0.4" stroke-width="1"/>
        <text x="0" y="-20" font-size="12" fill="#aaaaaa">NETWORK LOAD</text>
        <text x="0" y="15" font-size="28" fill="#ffffff" font-weight="bold" filter="url(#textGlow)">4465</text>
        <text x="0" y="35" font-size="10" fill="#777777">ACTIVE SESSIONS</text>
    </g>

    <!-- ACTIVE AGENTS -->
    <g transform="translate(530, 100)">
        <rect x="-60" y="-45" width="120" height="90" fill="#0a0a0a" rx="8" stroke="#39FF14" stroke-opacity="0.4" stroke-width="1"/>
        <text x="0" y="-20" font-size="12" fill="#aaaaaa">SWARM ENTITIES</text>
        <text x="0" y="15" font-size="28" fill="#ffffff" font-weight="bold" filter="url(#textGlow)">142</text>
        <text x="0" y="35" font-size="10" fill="#777777">AUTONOMOUS</text>
    </g>

    <!-- UPTIME -->
    <g transform="translate(730, 100)">
        <path d="M -40 -35 L 40 -35 L 50 -25 L 50 35 L -40 35 L -50 25 Z" fill="#0a0a0a" stroke="#39FF14" stroke-opacity="0.4" stroke-width="1"/>
        <text x="0" y="-15" font-size="12" fill="#aaaaaa">CONTINUITY</text>
        <text x="0" y="15" font-size="24" fill="#ffffff" font-weight="bold">257<tspan font-size="14" fill="#777777">d</tspan></text>
        <rect x="-35" y="25" width="70" height="4" fill="url(#neonBar)" rx="2"/>
    </g>
  </g>

  <text x="425" y="185" font-family="'Consolas', 'Fira Code', monospace" font-size="10" fill="#aaaaaa" opacity="0.6" text-anchor="middle">LAST TELEMETRY PING: 2026-04-30 12:40:00 UTC // ENCRYPTED_TUNNEL</text>
</svg>