<svg width="850" height="200" viewBox="0 0 850 200" xmlns="http://www.w3.org/2000/svg">
  <defs>
    <pattern id="carbonFiber" width="10" height="10" patternUnits="userSpaceOnUse">
        <rect width="10" height="10" fill="#050505"/>
        <path d="M0,0 L5,5 L10,0 L5,-5 Z M5,5 L10,10 L15,5 L10,0 Z M-5,5 L0,10 L5,5 L0,0 Z M0,10 L5,15 L10,10 L5,5 Z" fill="#0d0d0d"/>
    </pattern>
    <filter id="textGlow">
      <feGaussianBlur stdDeviation="2" result="blur" />
      <feMerge>
        <feMergeNode in="blur"/>
        <feMergeNode in="SourceGraphic"/>
      </feMerge>
    </filter>
    <linearGradient id="neonBar" x1="0%" y1="0%" x2="100%" y2="0%">
        <stop offset="0%" stop-color="#111111"/>
        <stop offset="100%" stop-color="#39FF14"/>
    </linearGradient>
    <linearGradient id="scanlineGrad" x1="0%" y1="0%" x2="100%" y2="0%">
        <stop offset="0%" stop-color="#39FF14" stop-opacity="0"/>
        <stop offset="50%" stop-color="#39FF14" stop-opacity="0.18"/>
        <stop offset="100%" stop-color="#39FF14" stop-opacity="0"/>
    </linearGradient>
    <clipPath id="dashClip">
        <rect x="0" y="0" width="850" height="200" rx="12"/>
    </clipPath>
  </defs>

  <rect width="100%" height="100%" fill="url(#carbonFiber)" rx="12" stroke="#39FF14" stroke-width="1" stroke-opacity="0.3"/>
  <rect width="100%" height="100%" fill="#000000" opacity="0.6" rx="12" />
  <g><polygon points="375,8 383.6,13 383.6,23 375,28 366.4,23 366.4,13" fill="none" stroke="#39FF14" stroke-width="1" opacity="0.059260001108581165"/>
<polygon points="496,26 504.6,31 504.6,41 496,46 487.4,41 487.4,31" fill="none" stroke="#39FF14" stroke-width="1" opacity="0.07598641781790706"/>
<polygon points="520,5 528.6,10 528.6,20 520,25 511.4,20 511.4,10" fill="none" stroke="#39FF14" stroke-width="1" opacity="0.07273639542343079"/>
<polygon points="380,54 388.6,59 388.6,69 380,74 371.4,69 371.4,59" fill="none" stroke="#39FF14" stroke-width="1" opacity="0.03449383844068078"/>
<polygon points="199,132 207.6,137 207.6,147 199,152 190.4,147 190.4,137" fill="none" stroke="#39FF14" stroke-width="1" opacity="0.039251244240397776"/>
<polygon points="411,58 419.6,63 419.6,73 411,78 402.4,73 402.4,63" fill="none" stroke="#39FF14" stroke-width="1" opacity="0.07702040859636283"/>
<polygon points="310,104 318.6,109 318.6,119 310,124 301.4,119 301.4,109" fill="none" stroke="#39FF14" stroke-width="1" opacity="0.07142990150223143"/>
<polygon points="648,-5 656.6,0 656.6,10 648,15 639.4,10 639.4,0" fill="none" stroke="#39FF14" stroke-width="1" opacity="0.047774905235708126"/>
<polygon points="217,150 225.6,155 225.6,165 217,170 208.4,165 208.4,155" fill="none" stroke="#39FF14" stroke-width="1" opacity="0.061435932673467336"/>
<polygon points="540,149 548.6,154 548.6,164 540,169 531.4,164 531.4,154" fill="none" stroke="#39FF14" stroke-width="1" opacity="0.022982560454183894"/>
<polygon points="57,87 65.6,92 65.6,102 57,107 48.4,102 48.4,92" fill="none" stroke="#39FF14" stroke-width="1" opacity="0.03445629357563034"/>
<polygon points="438,35 446.6,40 446.6,50 438,55 429.4,50 429.4,40" fill="none" stroke="#39FF14" stroke-width="1" opacity="0.07186731044035531"/>
<polygon points="368,187 376.6,192 376.6,202 368,207 359.4,202 359.4,192" fill="none" stroke="#39FF14" stroke-width="1" opacity="0.046596725958964566"/>
<polygon points="813,159 821.6,164 821.6,174 813,179 804.4,174 804.4,164" fill="none" stroke="#39FF14" stroke-width="1" opacity="0.04148473028683773"/>
<polygon points="17,106 25.6,111 25.6,121 17,126 8.4,121 8.4,111" fill="none" stroke="#39FF14" stroke-width="1" opacity="0.029065131629732656"/>
<polygon points="130,3 138.6,8 138.6,18 130,23 121.4,18 121.4,8" fill="none" stroke="#39FF14" stroke-width="1" opacity="0.07259653290402698"/>
<polygon points="705,171 713.6,176 713.6,186 705,191 696.4,186 696.4,176" fill="none" stroke="#39FF14" stroke-width="1" opacity="0.029938419843373594"/>
<polygon points="81,64 89.6,69 89.6,79 81,84 72.4,79 72.4,69" fill="none" stroke="#39FF14" stroke-width="1" opacity="0.07612323491816304"/>
<polygon points="364,99 372.6,104 372.6,114 364,119 355.4,114 355.4,104" fill="none" stroke="#39FF14" stroke-width="1" opacity="0.06378761117647566"/>
<polygon points="693,150 701.6,155 701.6,165 693,170 684.4,165 684.4,155" fill="none" stroke="#39FF14" stroke-width="1" opacity="0.05733381363127307"/>
<polygon points="389,14 397.6,19 397.6,29 389,34 380.4,29 380.4,19" fill="none" stroke="#39FF14" stroke-width="1" opacity="0.06243431050045396"/>
<polygon points="309,186 317.6,191 317.6,201 309,206 300.4,201 300.4,191" fill="none" stroke="#39FF14" stroke-width="1" opacity="0.07267883855468785"/>
<polygon points="55,53 63.6,58 63.6,68 55,73 46.4,68 46.4,58" fill="none" stroke="#39FF14" stroke-width="1" opacity="0.036209162786524154"/>
<polygon points="693,145 701.6,150 701.6,160 693,165 684.4,160 684.4,150" fill="none" stroke="#39FF14" stroke-width="1" opacity="0.06697934968177685"/>
<polygon points="13,50 21.6,55 21.6,65 13,70 4.4,65 4.4,55" fill="none" stroke="#39FF14" stroke-width="1" opacity="0.027995482796728595"/>
<polygon points="146,7 154.6,12 154.6,22 146,27 137.4,22 137.4,12" fill="none" stroke="#39FF14" stroke-width="1" opacity="0.03749242676744095"/>
<polygon points="123,89 131.6,94 131.6,104 123,109 114.4,104 114.4,94" fill="none" stroke="#39FF14" stroke-width="1" opacity="0.03228539418418291"/>
<polygon points="273,148 281.6,153 281.6,163 273,168 264.4,163 264.4,153" fill="none" stroke="#39FF14" stroke-width="1" opacity="0.038196685738517956"/>
<polygon points="60,4 68.6,9 68.6,19 60,24 51.4,19 51.4,9" fill="none" stroke="#39FF14" stroke-width="1" opacity="0.056558057753560265"/>
<polygon points="104,137 112.6,142 112.6,152 104,157 95.4,152 95.4,142" fill="none" stroke="#39FF14" stroke-width="1" opacity="0.050931655254138765"/>
</g>

  <!-- HUD Decorative elements -->
  <path d="M 20 20 L 40 20 L 50 30" fill="none" stroke="#39FF14" stroke-width="2" opacity="0.5"/>
  <path d="M 830 180 L 810 180 L 800 170" fill="none" stroke="#39FF14" stroke-width="2" opacity="0.5"/>

  <g clip-path="url(#dashClip)">
    <rect x="-160" y="0" width="160" height="200" fill="url(#scanlineGrad)">
      <animateTransform attributeName="transform" type="translate"
                        from="0 0" to="1010 0" dur="6s" repeatCount="indefinite"/>
    </rect>
  </g>

  <g font-family="'Consolas', 'Fira Code', monospace" text-anchor="middle">

    <!-- NETWORK STATUS -->
    <g transform="translate(130, 100)">
        <circle cx="0" cy="0" r="45" fill="none" stroke="#39FF14" stroke-width="2" stroke-dasharray="10 5">
            <animateTransform attributeName="transform" type="rotate" from="0" to="360" dur="10s" repeatCount="indefinite"/>
        </circle>
        <circle cx="0" cy="0" r="35" fill="#0d0d0d" />
        <text x="0" y="-60" font-size="12" fill="#aaaaaa" letter-spacing="2">ROOT.AUTH</text>
        <text x="0" y="70" font-size="14" fill="#ffffff" font-weight="bold">OPERATIONAL</text>
    </g>

    <!-- ACTIVE USERS -->
    <g transform="translate(330, 100)">
        <text x="0" y="-20" font-size="12" fill="#aaaaaa">CITIZENS</text>
        <text x="0" y="15" font-size="28" fill="#ffffff" font-weight="bold" filter="url(#textGlow)">15,321</text>
        <text x="0" y="35" font-size="10" fill="#777777">VERIFIED HUMANS</text>
    </g>

    <!-- REGISTERED AGENTS -->
    <g transform="translate(530, 100)">
        <text x="0" y="-20" font-size="12" fill="#aaaaaa">AGENTS</text>
        <text x="0" y="15" font-size="28" fill="#00d4ff" font-weight="bold" filter="url(#textGlow)">3,755</text>
        <text x="0" y="35" font-size="10" fill="#777777">REGISTERED DIDs</text>
    </g>

    <!-- TRANSACTIONS -->
    <g transform="translate(730, 100)">
        <text x="0" y="-20" font-size="12" fill="#aaaaaa">TRANSFERS</text>
        <text x="0" y="15" font-size="28" fill="#ffffff" font-weight="bold">31,567</text>
        <text x="0" y="35" font-size="10" fill="#777777">M2M SETTLEMENTS</text>
    </g>
  </g>

  <text x="425" y="185" font-family="'Consolas', 'Fira Code', monospace" font-size="10" fill="#aaaaaa" opacity="0.6" text-anchor="middle">AXIOMID PROJECTED TARGETS (ILLUSTRATIVE): 2026-07-02 06:30:36 UTC // SECURE_HANDSHAKE</text>
</svg>