<svg width="850" height="200" viewBox="0 0 850 200" xmlns="http://www.w3.org/2000/svg">
  <defs>
    <!-- Carbon Fiber Pattern -->
    <pattern id="carbonFiber" width="10" height="10" patternUnits="userSpaceOnUse">
        <rect width="10" height="10" fill="#050505"/>
        <path d="M0,0 L5,5 L10,0 L5,-5 Z M5,5 L10,10 L15,5 L10,0 Z M-5,5 L0,10 L5,5 L0,0 Z M0,10 L5,15 L10,10 L5,5 Z" fill="#0d0d0d"/>
    </pattern>
    <filter id="glassmorphism">
      <feGaussianBlur stdDeviation="3" result="blur" />
      <feColorMatrix type="matrix" values="1 0 0 0 0  0 1 0 0 0  0 0 1 0 0  0 0 0 18 -7" result="glow" />
      <feBlend in="SourceGraphic" in2="glow" mode="normal" />
    </filter>
    <filter id="textGlow">
      <feGaussianBlur stdDeviation="2" result="blur" />
      <feMerge>
        <feMergeNode in="blur"/>
        <feMergeNode in="SourceGraphic"/>
      </feMerge>
    </filter>
    <linearGradient id="neonBar" x1="0%" y1="0%" x2="100%" y2="0%">
        <stop offset="0%" stop-color="#111111"/>
        <stop offset="100%" stop-color="#39FF14"/>
    </linearGradient>
  </defs>

  <rect width="100%" height="100%" fill="url(#carbonFiber)" rx="12" stroke="#39FF14" stroke-width="1" stroke-opacity="0.3"/>
  <rect width="100%" height="100%" fill="#000000" opacity="0.6" rx="12" />
  <g><polygon points="439,97 447.6,102 447.6,112 439,117 430.4,112 430.4,102" fill="none" stroke="#39FF14" stroke-width="1" opacity="0.04996233403467255"/>
<polygon points="87,65 95.6,70 95.6,80 87,85 78.4,80 78.4,70" fill="none" stroke="#39FF14" stroke-width="1" opacity="0.033387066888751274"/>
<polygon points="120,34 128.6,39 128.6,49 120,54 111.4,49 111.4,39" fill="none" stroke="#39FF14" stroke-width="1" opacity="0.034363337817143125"/>
<polygon points="133,17 141.6,22 141.6,32 133,37 124.4,32 124.4,22" fill="none" stroke="#39FF14" stroke-width="1" opacity="0.061084564387209675"/>
<polygon points="232,187 240.6,192 240.6,202 232,207 223.4,202 223.4,192" fill="none" stroke="#39FF14" stroke-width="1" opacity="0.039771731732440016"/>
<polygon points="789,69 797.6,74 797.6,84 789,89 780.4,84 780.4,74" fill="none" stroke="#39FF14" stroke-width="1" opacity="0.04330021077096312"/>
<polygon points="197,75 205.6,80 205.6,90 197,95 188.4,90 188.4,80" fill="none" stroke="#39FF14" stroke-width="1" opacity="0.06899510048212767"/>
<polygon points="313,131 321.6,136 321.6,146 313,151 304.4,146 304.4,136" fill="none" stroke="#39FF14" stroke-width="1" opacity="0.07304792511212332"/>
<polygon points="704,124 712.6,129 712.6,139 704,144 695.4,139 695.4,129" fill="none" stroke="#39FF14" stroke-width="1" opacity="0.02405643179943544"/>
<polygon points="6,17 14.6,22 14.6,32 6,37 -2.5999999999999996,32 -2.5999999999999996,22" fill="none" stroke="#39FF14" stroke-width="1" opacity="0.0643416455181014"/>
<polygon points="510,4 518.6,9 518.6,19 510,24 501.4,19 501.4,9" fill="none" stroke="#39FF14" stroke-width="1" opacity="0.04868187991542704"/>
<polygon points="502,158 510.6,163 510.6,173 502,178 493.4,173 493.4,163" fill="none" stroke="#39FF14" stroke-width="1" opacity="0.024405557111408592"/>
<polygon points="446,7 454.6,12 454.6,22 446,27 437.4,22 437.4,12" fill="none" stroke="#39FF14" stroke-width="1" opacity="0.0439890521872158"/>
<polygon points="615,0 623.6,5 623.6,15 615,20 606.4,15 606.4,5" fill="none" stroke="#39FF14" stroke-width="1" opacity="0.02415169576740601"/>
<polygon points="172,38 180.6,43 180.6,53 172,58 163.4,53 163.4,43" fill="none" stroke="#39FF14" stroke-width="1" opacity="0.04369049990592683"/>
<polygon points="352,55 360.6,60 360.6,70 352,75 343.4,70 343.4,60" fill="none" stroke="#39FF14" stroke-width="1" opacity="0.050118652956299026"/>
<polygon points="232,100 240.6,105 240.6,115 232,120 223.4,115 223.4,105" fill="none" stroke="#39FF14" stroke-width="1" opacity="0.04899791052842081"/>
<polygon points="780,73 788.6,78 788.6,88 780,93 771.4,88 771.4,78" fill="none" stroke="#39FF14" stroke-width="1" opacity="0.05681092697102974"/>
<polygon points="102,71 110.6,76 110.6,86 102,91 93.4,86 93.4,76" fill="none" stroke="#39FF14" stroke-width="1" opacity="0.023737476945519528"/>
<polygon points="191,8 199.6,13 199.6,23 191,28 182.4,23 182.4,13" fill="none" stroke="#39FF14" stroke-width="1" opacity="0.0324556941081653"/>
<polygon points="67,176 75.6,181 75.6,191 67,196 58.4,191 58.4,181" fill="none" stroke="#39FF14" stroke-width="1" opacity="0.024246248291222194"/>
<polygon points="829,1 837.6,6 837.6,16 829,21 820.4,16 820.4,6" fill="none" stroke="#39FF14" stroke-width="1" opacity="0.04319584352342651"/>
<polygon points="75,120 83.6,125 83.6,135 75,140 66.4,135 66.4,125" fill="none" stroke="#39FF14" stroke-width="1" opacity="0.0204931240706343"/>
<polygon points="73,122 81.6,127 81.6,137 73,142 64.4,137 64.4,127" fill="none" stroke="#39FF14" stroke-width="1" opacity="0.04190746140078833"/>
<polygon points="491,156 499.6,161 499.6,171 491,176 482.4,171 482.4,161" fill="none" stroke="#39FF14" stroke-width="1" opacity="0.03761284346460082"/>
<polygon points="461,59 469.6,64 469.6,74 461,79 452.4,74 452.4,64" fill="none" stroke="#39FF14" stroke-width="1" opacity="0.07621668483846054"/>
<polygon points="20,70 28.6,75 28.6,85 20,90 11.4,85 11.4,75" fill="none" stroke="#39FF14" stroke-width="1" opacity="0.07774778716428213"/>
<polygon points="223,60 231.6,65 231.6,75 223,80 214.4,75 214.4,65" fill="none" stroke="#39FF14" stroke-width="1" opacity="0.021325933758953114"/>
<polygon points="200,-10 208.6,-5 208.6,5 200,10 191.4,5 191.4,-5" fill="none" stroke="#39FF14" stroke-width="1" opacity="0.041100458442406444"/>
<polygon points="731,102 739.6,107 739.6,117 731,122 722.4,117 722.4,107" fill="none" stroke="#39FF14" stroke-width="1" opacity="0.05344463156783226"/>
</g>

  <!-- HUD Decorative elements -->
  <path d="M 20 20 L 40 20 L 50 30" fill="none" stroke="#39FF14" stroke-width="2" opacity="0.5"/>
  <path d="M 830 180 L 810 180 L 800 170" fill="none" stroke="#39FF14" stroke-width="2" opacity="0.5"/>
  <rect x="20" y="100" width="2" height="40" fill="#ffffff" opacity="0.4"/>
  <rect x="828" y="60" width="2" height="40" fill="#39FF14" opacity="0.6"/>

  <g font-family="'Consolas', 'Fira Code', monospace" text-anchor="middle">

    <!-- SYSTEM STATUS -->
    <g transform="translate(130, 100)">
        <circle cx="0" cy="0" r="45" fill="none" stroke="#111111" stroke-width="8" />
        <circle cx="0" cy="0" r="45" fill="none" stroke="#39FF14" stroke-width="2" stroke-dasharray="10 5">
            <animateTransform attributeName="transform" type="rotate" from="0" to="360" dur="10s" repeatCount="indefinite"/>
        </circle>
        <circle cx="0" cy="0" r="35" fill="#0d0d0d" />
        <circle cx="0" cy="0" r="6" fill="#39FF14" filter="url(#textGlow)">
            <animate attributeName="opacity" values="1;0.3;1" dur="2s" repeatCount="indefinite"/>
        </circle>
        <text x="0" y="-60" font-size="12" fill="#aaaaaa" letter-spacing="2">SYS.CORE</text>
        <text x="0" y="70" font-size="14" fill="#ffffff" font-weight="bold">ONLINE</text>
    </g>

    <!-- LIVE TRAFFIC -->
    <g transform="translate(330, 100)">
        <rect x="-60" y="-45" width="120" height="90" fill="#0a0a0a" rx="8" stroke="#39FF14" stroke-opacity="0.4" stroke-width="1"/>
        <text x="0" y="-20" font-size="12" fill="#aaaaaa">NETWORK LOAD</text>
        <text x="0" y="15" font-size="28" fill="#ffffff" font-weight="bold" filter="url(#textGlow)">7583</text>
        <text x="0" y="35" font-size="10" fill="#777777">ACTIVE SESSIONS</text>
    </g>

    <!-- ACTIVE AGENTS -->
    <g transform="translate(530, 100)">
        <rect x="-60" y="-45" width="120" height="90" fill="#0a0a0a" rx="8" stroke="#39FF14" stroke-opacity="0.4" stroke-width="1"/>
        <text x="0" y="-20" font-size="12" fill="#aaaaaa">SWARM ENTITIES</text>
        <text x="0" y="15" font-size="28" fill="#ffffff" font-weight="bold" filter="url(#textGlow)">133</text>
        <text x="0" y="35" font-size="10" fill="#777777">AUTONOMOUS</text>
    </g>

    <!-- UPTIME -->
    <g transform="translate(730, 100)">
        <path d="M -40 -35 L 40 -35 L 50 -25 L 50 35 L -40 35 L -50 25 Z" fill="#0a0a0a" stroke="#39FF14" stroke-opacity="0.4" stroke-width="1"/>
        <text x="0" y="-15" font-size="12" fill="#aaaaaa">CONTINUITY</text>
        <text x="0" y="15" font-size="24" fill="#ffffff" font-weight="bold">239<tspan font-size="14" fill="#777777">d</tspan></text>
        <rect x="-35" y="25" width="70" height="4" fill="url(#neonBar)" rx="2"/>
    </g>
  </g>

  <text x="425" y="185" font-family="'Consolas', 'Fira Code', monospace" font-size="10" fill="#aaaaaa" opacity="0.6" text-anchor="middle">LAST TELEMETRY PING: 2026-05-03 12:23:49 UTC // ENCRYPTED_TUNNEL</text>
</svg>