<svg width="850" height="200" viewBox="0 0 850 200" xmlns="http://www.w3.org/2000/svg">
  <defs>
    <pattern id="carbonFiber" width="10" height="10" patternUnits="userSpaceOnUse">
        <rect width="10" height="10" fill="#050505"/>
        <path d="M0,0 L5,5 L10,0 L5,-5 Z M5,5 L10,10 L15,5 L10,0 Z M-5,5 L0,10 L5,5 L0,0 Z M0,10 L5,15 L10,10 L5,5 Z" fill="#0d0d0d"/>
    </pattern>
    <filter id="textGlow">
      <feGaussianBlur stdDeviation="2" result="blur" />
      <feMerge>
        <feMergeNode in="blur"/>
        <feMergeNode in="SourceGraphic"/>
      </feMerge>
    </filter>
    <linearGradient id="neonBar" x1="0%" y1="0%" x2="100%" y2="0%">
        <stop offset="0%" stop-color="#111111"/>
        <stop offset="100%" stop-color="#39FF14"/>
    </linearGradient>
    <linearGradient id="scanlineGrad" x1="0%" y1="0%" x2="100%" y2="0%">
        <stop offset="0%" stop-color="#39FF14" stop-opacity="0"/>
        <stop offset="50%" stop-color="#39FF14" stop-opacity="0.18"/>
        <stop offset="100%" stop-color="#39FF14" stop-opacity="0"/>
    </linearGradient>
    <clipPath id="dashClip">
        <rect x="0" y="0" width="850" height="200" rx="12"/>
    </clipPath>
  </defs>

  <rect width="100%" height="100%" fill="url(#carbonFiber)" rx="12" stroke="#39FF14" stroke-width="1" stroke-opacity="0.3"/>
  <rect width="100%" height="100%" fill="#000000" opacity="0.6" rx="12" />
  <g><polygon points="292,164 300.6,169 300.6,179 292,184 283.4,179 283.4,169" fill="none" stroke="#39FF14" stroke-width="1" opacity="0.03148429857915287"/>
<polygon points="4,73 12.6,78 12.6,88 4,93 -4.6,88 -4.6,78" fill="none" stroke="#39FF14" stroke-width="1" opacity="0.0580860475568081"/>
<polygon points="364,179 372.6,184 372.6,194 364,199 355.4,194 355.4,184" fill="none" stroke="#39FF14" stroke-width="1" opacity="0.022861527368522344"/>
<polygon points="576,55 584.6,60 584.6,70 576,75 567.4,70 567.4,60" fill="none" stroke="#39FF14" stroke-width="1" opacity="0.05832368929193105"/>
<polygon points="264,94 272.6,99 272.6,109 264,114 255.4,109 255.4,99" fill="none" stroke="#39FF14" stroke-width="1" opacity="0.034964525875434485"/>
<polygon points="674,15 682.6,20 682.6,30 674,35 665.4,30 665.4,20" fill="none" stroke="#39FF14" stroke-width="1" opacity="0.07896085800219468"/>
<polygon points="231,166 239.6,171 239.6,181 231,186 222.4,181 222.4,171" fill="none" stroke="#39FF14" stroke-width="1" opacity="0.04869527573254212"/>
<polygon points="622,138 630.6,143 630.6,153 622,158 613.4,153 613.4,143" fill="none" stroke="#39FF14" stroke-width="1" opacity="0.06663965136883108"/>
<polygon points="1,72 9.6,77 9.6,87 1,92 -7.6,87 -7.6,77" fill="none" stroke="#39FF14" stroke-width="1" opacity="0.06965814984833708"/>
<polygon points="10,122 18.6,127 18.6,137 10,142 1.4000000000000004,137 1.4000000000000004,127" fill="none" stroke="#39FF14" stroke-width="1" opacity="0.022716472065370887"/>
<polygon points="621,55 629.6,60 629.6,70 621,75 612.4,70 612.4,60" fill="none" stroke="#39FF14" stroke-width="1" opacity="0.06927397340209229"/>
<polygon points="513,80 521.6,85 521.6,95 513,100 504.4,95 504.4,85" fill="none" stroke="#39FF14" stroke-width="1" opacity="0.04650628721187214"/>
<polygon points="395,111 403.6,116 403.6,126 395,131 386.4,126 386.4,116" fill="none" stroke="#39FF14" stroke-width="1" opacity="0.06586570544910247"/>
<polygon points="125,19 133.6,24 133.6,34 125,39 116.4,34 116.4,24" fill="none" stroke="#39FF14" stroke-width="1" opacity="0.02486186348903564"/>
<polygon points="496,137 504.6,142 504.6,152 496,157 487.4,152 487.4,142" fill="none" stroke="#39FF14" stroke-width="1" opacity="0.02827007244818741"/>
<polygon points="792,41 800.6,46 800.6,56 792,61 783.4,56 783.4,46" fill="none" stroke="#39FF14" stroke-width="1" opacity="0.07869033836171452"/>
<polygon points="710,126 718.6,131 718.6,141 710,146 701.4,141 701.4,131" fill="none" stroke="#39FF14" stroke-width="1" opacity="0.029165262154699865"/>
<polygon points="378,142 386.6,147 386.6,157 378,162 369.4,157 369.4,147" fill="none" stroke="#39FF14" stroke-width="1" opacity="0.047204439489232954"/>
<polygon points="468,147 476.6,152 476.6,162 468,167 459.4,162 459.4,152" fill="none" stroke="#39FF14" stroke-width="1" opacity="0.06960860391516618"/>
<polygon points="711,91 719.6,96 719.6,106 711,111 702.4,106 702.4,96" fill="none" stroke="#39FF14" stroke-width="1" opacity="0.03923584990972123"/>
<polygon points="793,86 801.6,91 801.6,101 793,106 784.4,101 784.4,91" fill="none" stroke="#39FF14" stroke-width="1" opacity="0.07475302358732562"/>
<polygon points="45,71 53.6,76 53.6,86 45,91 36.4,86 36.4,76" fill="none" stroke="#39FF14" stroke-width="1" opacity="0.022643451111132824"/>
<polygon points="744,-4 752.6,1 752.6,11 744,16 735.4,11 735.4,1" fill="none" stroke="#39FF14" stroke-width="1" opacity="0.0618515370038101"/>
<polygon points="102,189 110.6,194 110.6,204 102,209 93.4,204 93.4,194" fill="none" stroke="#39FF14" stroke-width="1" opacity="0.04028015452924122"/>
<polygon points="47,122 55.6,127 55.6,137 47,142 38.4,137 38.4,127" fill="none" stroke="#39FF14" stroke-width="1" opacity="0.07046976364811966"/>
<polygon points="652,80 660.6,85 660.6,95 652,100 643.4,95 643.4,85" fill="none" stroke="#39FF14" stroke-width="1" opacity="0.04249604259512778"/>
<polygon points="161,58 169.6,63 169.6,73 161,78 152.4,73 152.4,63" fill="none" stroke="#39FF14" stroke-width="1" opacity="0.07174191213174887"/>
<polygon points="82,98 90.6,103 90.6,113 82,118 73.4,113 73.4,103" fill="none" stroke="#39FF14" stroke-width="1" opacity="0.07914482735978977"/>
<polygon points="269,61 277.6,66 277.6,76 269,81 260.4,76 260.4,66" fill="none" stroke="#39FF14" stroke-width="1" opacity="0.04781603526801411"/>
<polygon points="547,77 555.6,82 555.6,92 547,97 538.4,92 538.4,82" fill="none" stroke="#39FF14" stroke-width="1" opacity="0.03277448309814066"/>
</g>

  <!-- HUD Decorative elements -->
  <path d="M 20 20 L 40 20 L 50 30" fill="none" stroke="#39FF14" stroke-width="2" opacity="0.5"/>
  <path d="M 830 180 L 810 180 L 800 170" fill="none" stroke="#39FF14" stroke-width="2" opacity="0.5"/>

  <g clip-path="url(#dashClip)">
    <rect x="-160" y="0" width="160" height="200" fill="url(#scanlineGrad)">
      <animateTransform attributeName="transform" type="translate"
                        from="0 0" to="1010 0" dur="6s" repeatCount="indefinite"/>
    </rect>
  </g>

  <g font-family="'Consolas', 'Fira Code', monospace" text-anchor="middle">

    <!-- NETWORK STATUS -->
    <g transform="translate(130, 100)">
        <circle cx="0" cy="0" r="45" fill="none" stroke="#39FF14" stroke-width="2" stroke-dasharray="10 5">
            <animateTransform attributeName="transform" type="rotate" from="0" to="360" dur="10s" repeatCount="indefinite"/>
        </circle>
        <circle cx="0" cy="0" r="35" fill="#0d0d0d" />
        <text x="0" y="-60" font-size="12" fill="#aaaaaa" letter-spacing="2">ROOT.AUTH</text>
        <text x="0" y="70" font-size="14" fill="#ffffff" font-weight="bold">OPERATIONAL</text>
    </g>

    <!-- ACTIVE USERS -->
    <g transform="translate(330, 100)">
        <text x="0" y="-20" font-size="12" fill="#aaaaaa">CITIZENS</text>
        <text x="0" y="15" font-size="28" fill="#ffffff" font-weight="bold" filter="url(#textGlow)">13,594</text>
        <text x="0" y="35" font-size="10" fill="#777777">VERIFIED HUMANS</text>
    </g>

    <!-- REGISTERED AGENTS -->
    <g transform="translate(530, 100)">
        <text x="0" y="-20" font-size="12" fill="#aaaaaa">AGENTS</text>
        <text x="0" y="15" font-size="28" fill="#00d4ff" font-weight="bold" filter="url(#textGlow)">4,583</text>
        <text x="0" y="35" font-size="10" fill="#777777">REGISTERED DIDs</text>
    </g>

    <!-- TRANSACTIONS -->
    <g transform="translate(730, 100)">
        <text x="0" y="-20" font-size="12" fill="#aaaaaa">TRANSFERS</text>
        <text x="0" y="15" font-size="28" fill="#ffffff" font-weight="bold">35,323</text>
        <text x="0" y="35" font-size="10" fill="#777777">M2M SETTLEMENTS</text>
    </g>
  </g>

  <text x="425" y="185" font-family="'Consolas', 'Fira Code', monospace" font-size="10" fill="#aaaaaa" opacity="0.6" text-anchor="middle">AXIOMID PROJECTED TARGETS (ILLUSTRATIVE): 2026-06-21 18:28:48 UTC // SECURE_HANDSHAKE</text>
</svg>