<svg width="850" height="200" viewBox="0 0 850 200" xmlns="http://www.w3.org/2000/svg">
  <defs>
    <!-- Carbon Fiber Pattern -->
    <pattern id="carbonFiber" width="10" height="10" patternUnits="userSpaceOnUse">
        <rect width="10" height="10" fill="#050505"/>
        <path d="M0,0 L5,5 L10,0 L5,-5 Z M5,5 L10,10 L15,5 L10,0 Z M-5,5 L0,10 L5,5 L0,0 Z M0,10 L5,15 L10,10 L5,5 Z" fill="#0d0d0d"/>
    </pattern>
    <filter id="glassmorphism">
      <feGaussianBlur stdDeviation="3" result="blur" />
      <feColorMatrix type="matrix" values="1 0 0 0 0  0 1 0 0 0  0 0 1 0 0  0 0 0 18 -7" result="glow" />
      <feBlend in="SourceGraphic" in2="glow" mode="normal" />
    </filter>
    <filter id="textGlow">
      <feGaussianBlur stdDeviation="2" result="blur" />
      <feMerge>
        <feMergeNode in="blur"/>
        <feMergeNode in="SourceGraphic"/>
      </feMerge>
    </filter>
    <linearGradient id="neonBar" x1="0%" y1="0%" x2="100%" y2="0%">
        <stop offset="0%" stop-color="#111111"/>
        <stop offset="100%" stop-color="#39FF14"/>
    </linearGradient>
  </defs>

  <rect width="100%" height="100%" fill="url(#carbonFiber)" rx="12" stroke="#39FF14" stroke-width="1" stroke-opacity="0.3"/>
  <rect width="100%" height="100%" fill="#000000" opacity="0.6" rx="12" />
  <g><polygon points="669,-4 677.6,1 677.6,11 669,16 660.4,11 660.4,1" fill="none" stroke="#39FF14" stroke-width="1" opacity="0.04103221799234866"/>
<polygon points="816,72 824.6,77 824.6,87 816,92 807.4,87 807.4,77" fill="none" stroke="#39FF14" stroke-width="1" opacity="0.054906212901600485"/>
<polygon points="682,78 690.6,83 690.6,93 682,98 673.4,93 673.4,83" fill="none" stroke="#39FF14" stroke-width="1" opacity="0.028070582729605532"/>
<polygon points="371,88 379.6,93 379.6,103 371,108 362.4,103 362.4,93" fill="none" stroke="#39FF14" stroke-width="1" opacity="0.021149988660237283"/>
<polygon points="164,157 172.6,162 172.6,172 164,177 155.4,172 155.4,162" fill="none" stroke="#39FF14" stroke-width="1" opacity="0.050561580827781324"/>
<polygon points="250,110 258.6,115 258.6,125 250,130 241.4,125 241.4,115" fill="none" stroke="#39FF14" stroke-width="1" opacity="0.05816633648082101"/>
<polygon points="756,183 764.6,188 764.6,198 756,203 747.4,198 747.4,188" fill="none" stroke="#39FF14" stroke-width="1" opacity="0.03144012314690877"/>
<polygon points="478,54 486.6,59 486.6,69 478,74 469.4,69 469.4,59" fill="none" stroke="#39FF14" stroke-width="1" opacity="0.07754657982350605"/>
<polygon points="10,145 18.6,150 18.6,160 10,165 1.4000000000000004,160 1.4000000000000004,150" fill="none" stroke="#39FF14" stroke-width="1" opacity="0.06754610093094868"/>
<polygon points="418,114 426.6,119 426.6,129 418,134 409.4,129 409.4,119" fill="none" stroke="#39FF14" stroke-width="1" opacity="0.02842945301122559"/>
<polygon points="272,148 280.6,153 280.6,163 272,168 263.4,163 263.4,153" fill="none" stroke="#39FF14" stroke-width="1" opacity="0.07440282120697723"/>
<polygon points="390,140 398.6,145 398.6,155 390,160 381.4,155 381.4,145" fill="none" stroke="#39FF14" stroke-width="1" opacity="0.07585911863729142"/>
<polygon points="587,94 595.6,99 595.6,109 587,114 578.4,109 578.4,99" fill="none" stroke="#39FF14" stroke-width="1" opacity="0.03798388548135079"/>
<polygon points="131,127 139.6,132 139.6,142 131,147 122.4,142 122.4,132" fill="none" stroke="#39FF14" stroke-width="1" opacity="0.0521148978531986"/>
<polygon points="45,79 53.6,84 53.6,94 45,99 36.4,94 36.4,84" fill="none" stroke="#39FF14" stroke-width="1" opacity="0.06999885079058762"/>
<polygon points="540,112 548.6,117 548.6,127 540,132 531.4,127 531.4,117" fill="none" stroke="#39FF14" stroke-width="1" opacity="0.06129707693486698"/>
<polygon points="500,98 508.6,103 508.6,113 500,118 491.4,113 491.4,103" fill="none" stroke="#39FF14" stroke-width="1" opacity="0.02217094811510255"/>
<polygon points="526,118 534.6,123 534.6,133 526,138 517.4,133 517.4,123" fill="none" stroke="#39FF14" stroke-width="1" opacity="0.06851028498158498"/>
<polygon points="471,20 479.6,25 479.6,35 471,40 462.4,35 462.4,25" fill="none" stroke="#39FF14" stroke-width="1" opacity="0.05646438254549553"/>
<polygon points="39,31 47.6,36 47.6,46 39,51 30.4,46 30.4,36" fill="none" stroke="#39FF14" stroke-width="1" opacity="0.0769899794515567"/>
<polygon points="793,21 801.6,26 801.6,36 793,41 784.4,36 784.4,26" fill="none" stroke="#39FF14" stroke-width="1" opacity="0.03081046957569658"/>
<polygon points="483,52 491.6,57 491.6,67 483,72 474.4,67 474.4,57" fill="none" stroke="#39FF14" stroke-width="1" opacity="0.04953198686165704"/>
<polygon points="414,100 422.6,105 422.6,115 414,120 405.4,115 405.4,105" fill="none" stroke="#39FF14" stroke-width="1" opacity="0.03831151495287395"/>
<polygon points="403,122 411.6,127 411.6,137 403,142 394.4,137 394.4,127" fill="none" stroke="#39FF14" stroke-width="1" opacity="0.04653982724856939"/>
<polygon points="229,18 237.6,23 237.6,33 229,38 220.4,33 220.4,23" fill="none" stroke="#39FF14" stroke-width="1" opacity="0.04063158110852848"/>
<polygon points="590,112 598.6,117 598.6,127 590,132 581.4,127 581.4,117" fill="none" stroke="#39FF14" stroke-width="1" opacity="0.05721120290778654"/>
<polygon points="581,95 589.6,100 589.6,110 581,115 572.4,110 572.4,100" fill="none" stroke="#39FF14" stroke-width="1" opacity="0.04166162952310094"/>
<polygon points="326,12 334.6,17 334.6,27 326,32 317.4,27 317.4,17" fill="none" stroke="#39FF14" stroke-width="1" opacity="0.05079334643458008"/>
<polygon points="143,147 151.6,152 151.6,162 143,167 134.4,162 134.4,152" fill="none" stroke="#39FF14" stroke-width="1" opacity="0.04754982255506068"/>
<polygon points="497,59 505.6,64 505.6,74 497,79 488.4,74 488.4,64" fill="none" stroke="#39FF14" stroke-width="1" opacity="0.02590040537428284"/>
</g>

  <!-- HUD Decorative elements -->
  <path d="M 20 20 L 40 20 L 50 30" fill="none" stroke="#39FF14" stroke-width="2" opacity="0.5"/>
  <path d="M 830 180 L 810 180 L 800 170" fill="none" stroke="#39FF14" stroke-width="2" opacity="0.5"/>
  <rect x="20" y="100" width="2" height="40" fill="#ffffff" opacity="0.4"/>
  <rect x="828" y="60" width="2" height="40" fill="#39FF14" opacity="0.6"/>

  <g font-family="'Consolas', 'Fira Code', monospace" text-anchor="middle">

    <!-- SYSTEM STATUS -->
    <g transform="translate(130, 100)">
        <circle cx="0" cy="0" r="45" fill="none" stroke="#111111" stroke-width="8" />
        <circle cx="0" cy="0" r="45" fill="none" stroke="#39FF14" stroke-width="2" stroke-dasharray="10 5">
            <animateTransform attributeName="transform" type="rotate" from="0" to="360" dur="10s" repeatCount="indefinite"/>
        </circle>
        <circle cx="0" cy="0" r="35" fill="#0d0d0d" />
        <circle cx="0" cy="0" r="6" fill="#39FF14" filter="url(#textGlow)">
            <animate attributeName="opacity" values="1;0.3;1" dur="2s" repeatCount="indefinite"/>
        </circle>
        <text x="0" y="-60" font-size="12" fill="#aaaaaa" letter-spacing="2">SYS.CORE</text>
        <text x="0" y="70" font-size="14" fill="#ffffff" font-weight="bold">ONLINE</text>
    </g>

    <!-- LIVE TRAFFIC -->
    <g transform="translate(330, 100)">
        <rect x="-60" y="-45" width="120" height="90" fill="#0a0a0a" rx="8" stroke="#39FF14" stroke-opacity="0.4" stroke-width="1"/>
        <text x="0" y="-20" font-size="12" fill="#aaaaaa">NETWORK LOAD</text>
        <text x="0" y="15" font-size="28" fill="#ffffff" font-weight="bold" filter="url(#textGlow)">6848</text>
        <text x="0" y="35" font-size="10" fill="#777777">ACTIVE SESSIONS</text>
    </g>

    <!-- ACTIVE AGENTS -->
    <g transform="translate(530, 100)">
        <rect x="-60" y="-45" width="120" height="90" fill="#0a0a0a" rx="8" stroke="#39FF14" stroke-opacity="0.4" stroke-width="1"/>
        <text x="0" y="-20" font-size="12" fill="#aaaaaa">SWARM ENTITIES</text>
        <text x="0" y="15" font-size="28" fill="#ffffff" font-weight="bold" filter="url(#textGlow)">168</text>
        <text x="0" y="35" font-size="10" fill="#777777">AUTONOMOUS</text>
    </g>

    <!-- UPTIME -->
    <g transform="translate(730, 100)">
        <path d="M -40 -35 L 40 -35 L 50 -25 L 50 35 L -40 35 L -50 25 Z" fill="#0a0a0a" stroke="#39FF14" stroke-opacity="0.4" stroke-width="1"/>
        <text x="0" y="-15" font-size="12" fill="#aaaaaa">CONTINUITY</text>
        <text x="0" y="15" font-size="24" fill="#ffffff" font-weight="bold">289<tspan font-size="14" fill="#777777">d</tspan></text>
        <rect x="-35" y="25" width="70" height="4" fill="url(#neonBar)" rx="2"/>
    </g>
  </g>

  <text x="425" y="185" font-family="'Consolas', 'Fira Code', monospace" font-size="10" fill="#aaaaaa" opacity="0.6" text-anchor="middle">LAST TELEMETRY PING: 2026-05-10 18:24:41 UTC // ENCRYPTED_TUNNEL</text>
</svg>