<svg width="850" height="200" viewBox="0 0 850 200" xmlns="http://www.w3.org/2000/svg">
  <defs>
    <pattern id="carbonFiber" width="10" height="10" patternUnits="userSpaceOnUse">
        <rect width="10" height="10" fill="#050505"/>
        <path d="M0,0 L5,5 L10,0 L5,-5 Z M5,5 L10,10 L15,5 L10,0 Z M-5,5 L0,10 L5,5 L0,0 Z M0,10 L5,15 L10,10 L5,5 Z" fill="#0d0d0d"/>
    </pattern>
    <filter id="textGlow">
      <feGaussianBlur stdDeviation="2" result="blur" />
      <feMerge>
        <feMergeNode in="blur"/>
        <feMergeNode in="SourceGraphic"/>
      </feMerge>
    </filter>
    <linearGradient id="neonBar" x1="0%" y1="0%" x2="100%" y2="0%">
        <stop offset="0%" stop-color="#111111"/>
        <stop offset="100%" stop-color="#39FF14"/>
    </linearGradient>
    <linearGradient id="scanlineGrad" x1="0%" y1="0%" x2="100%" y2="0%">
        <stop offset="0%" stop-color="#39FF14" stop-opacity="0"/>
        <stop offset="50%" stop-color="#39FF14" stop-opacity="0.18"/>
        <stop offset="100%" stop-color="#39FF14" stop-opacity="0"/>
    </linearGradient>
    <clipPath id="dashClip">
        <rect x="0" y="0" width="850" height="200" rx="12"/>
    </clipPath>
  </defs>

  <rect width="100%" height="100%" fill="url(#carbonFiber)" rx="12" stroke="#39FF14" stroke-width="1" stroke-opacity="0.3"/>
  <rect width="100%" height="100%" fill="#000000" opacity="0.6" rx="12" />
  <g><polygon points="217,154 225.6,159 225.6,169 217,174 208.4,169 208.4,159" fill="none" stroke="#39FF14" stroke-width="1" opacity="0.055244130748068276"/>
<polygon points="351,147 359.6,152 359.6,162 351,167 342.4,162 342.4,152" fill="none" stroke="#39FF14" stroke-width="1" opacity="0.06214998893665612"/>
<polygon points="400,112 408.6,117 408.6,127 400,132 391.4,127 391.4,117" fill="none" stroke="#39FF14" stroke-width="1" opacity="0.06619589860078559"/>
<polygon points="798,118 806.6,123 806.6,133 798,138 789.4,133 789.4,123" fill="none" stroke="#39FF14" stroke-width="1" opacity="0.03166242115296772"/>
<polygon points="84,31 92.6,36 92.6,46 84,51 75.4,46 75.4,36" fill="none" stroke="#39FF14" stroke-width="1" opacity="0.03749213917727935"/>
<polygon points="507,189 515.6,194 515.6,204 507,209 498.4,204 498.4,194" fill="none" stroke="#39FF14" stroke-width="1" opacity="0.04916172894692152"/>
<polygon points="271,104 279.6,109 279.6,119 271,124 262.4,119 262.4,109" fill="none" stroke="#39FF14" stroke-width="1" opacity="0.05270534478868008"/>
<polygon points="97,125 105.6,130 105.6,140 97,145 88.4,140 88.4,130" fill="none" stroke="#39FF14" stroke-width="1" opacity="0.04055900513812759"/>
<polygon points="164,46 172.6,51 172.6,61 164,66 155.4,61 155.4,51" fill="none" stroke="#39FF14" stroke-width="1" opacity="0.07045122724594932"/>
<polygon points="479,54 487.6,59 487.6,69 479,74 470.4,69 470.4,59" fill="none" stroke="#39FF14" stroke-width="1" opacity="0.040722112057416285"/>
<polygon points="617,45 625.6,50 625.6,60 617,65 608.4,60 608.4,50" fill="none" stroke="#39FF14" stroke-width="1" opacity="0.06290075649676358"/>
<polygon points="180,150 188.6,155 188.6,165 180,170 171.4,165 171.4,155" fill="none" stroke="#39FF14" stroke-width="1" opacity="0.024829035884066125"/>
<polygon points="62,39 70.6,44 70.6,54 62,59 53.4,54 53.4,44" fill="none" stroke="#39FF14" stroke-width="1" opacity="0.07085420825299486"/>
<polygon points="580,120 588.6,125 588.6,135 580,140 571.4,135 571.4,125" fill="none" stroke="#39FF14" stroke-width="1" opacity="0.06446023978362388"/>
<polygon points="713,9 721.6,14 721.6,24 713,29 704.4,24 704.4,14" fill="none" stroke="#39FF14" stroke-width="1" opacity="0.0590733420806043"/>
<polygon points="739,144 747.6,149 747.6,159 739,164 730.4,159 730.4,149" fill="none" stroke="#39FF14" stroke-width="1" opacity="0.06363813174021087"/>
<polygon points="403,101 411.6,106 411.6,116 403,121 394.4,116 394.4,106" fill="none" stroke="#39FF14" stroke-width="1" opacity="0.040467329016889785"/>
<polygon points="154,180 162.6,185 162.6,195 154,200 145.4,195 145.4,185" fill="none" stroke="#39FF14" stroke-width="1" opacity="0.026154274649202794"/>
<polygon points="846,180 854.6,185 854.6,195 846,200 837.4,195 837.4,185" fill="none" stroke="#39FF14" stroke-width="1" opacity="0.05946566783520829"/>
<polygon points="78,3 86.6,8 86.6,18 78,23 69.4,18 69.4,8" fill="none" stroke="#39FF14" stroke-width="1" opacity="0.04026322165483419"/>
<polygon points="677,21 685.6,26 685.6,36 677,41 668.4,36 668.4,26" fill="none" stroke="#39FF14" stroke-width="1" opacity="0.062245333114125875"/>
<polygon points="327,184 335.6,189 335.6,199 327,204 318.4,199 318.4,189" fill="none" stroke="#39FF14" stroke-width="1" opacity="0.03642164471284829"/>
<polygon points="511,109 519.6,114 519.6,124 511,129 502.4,124 502.4,114" fill="none" stroke="#39FF14" stroke-width="1" opacity="0.06314209963243943"/>
<polygon points="712,40 720.6,45 720.6,55 712,60 703.4,55 703.4,45" fill="none" stroke="#39FF14" stroke-width="1" opacity="0.04245119833418544"/>
<polygon points="286,121 294.6,126 294.6,136 286,141 277.4,136 277.4,126" fill="none" stroke="#39FF14" stroke-width="1" opacity="0.04465777964525175"/>
<polygon points="495,66 503.6,71 503.6,81 495,86 486.4,81 486.4,71" fill="none" stroke="#39FF14" stroke-width="1" opacity="0.041301306193001305"/>
<polygon points="119,113 127.6,118 127.6,128 119,133 110.4,128 110.4,118" fill="none" stroke="#39FF14" stroke-width="1" opacity="0.07722953098735337"/>
<polygon points="182,129 190.6,134 190.6,144 182,149 173.4,144 173.4,134" fill="none" stroke="#39FF14" stroke-width="1" opacity="0.027875680048820448"/>
<polygon points="474,87 482.6,92 482.6,102 474,107 465.4,102 465.4,92" fill="none" stroke="#39FF14" stroke-width="1" opacity="0.03315038071791251"/>
<polygon points="242,94 250.6,99 250.6,109 242,114 233.4,109 233.4,99" fill="none" stroke="#39FF14" stroke-width="1" opacity="0.04300614468946241"/>
</g>

  <!-- HUD Decorative elements -->
  <path d="M 20 20 L 40 20 L 50 30" fill="none" stroke="#39FF14" stroke-width="2" opacity="0.5"/>
  <path d="M 830 180 L 810 180 L 800 170" fill="none" stroke="#39FF14" stroke-width="2" opacity="0.5"/>

  <g clip-path="url(#dashClip)">
    <rect x="-160" y="0" width="160" height="200" fill="url(#scanlineGrad)">
      <animateTransform attributeName="transform" type="translate"
                        from="0 0" to="1010 0" dur="6s" repeatCount="indefinite"/>
    </rect>
  </g>

  <g font-family="'Consolas', 'Fira Code', monospace" text-anchor="middle">

    <!-- NETWORK STATUS -->
    <g transform="translate(130, 100)">
        <circle cx="0" cy="0" r="45" fill="none" stroke="#39FF14" stroke-width="2" stroke-dasharray="10 5">
            <animateTransform attributeName="transform" type="rotate" from="0" to="360" dur="10s" repeatCount="indefinite"/>
        </circle>
        <circle cx="0" cy="0" r="35" fill="#0d0d0d" />
        <text x="0" y="-60" font-size="12" fill="#aaaaaa" letter-spacing="2">ROOT.AUTH</text>
        <text x="0" y="70" font-size="14" fill="#ffffff" font-weight="bold">OPERATIONAL</text>
    </g>

    <!-- ACTIVE USERS -->
    <g transform="translate(330, 100)">
        <text x="0" y="-20" font-size="12" fill="#aaaaaa">CITIZENS</text>
        <text x="0" y="15" font-size="28" fill="#ffffff" font-weight="bold" filter="url(#textGlow)">15,262</text>
        <text x="0" y="35" font-size="10" fill="#777777">VERIFIED HUMANS</text>
    </g>

    <!-- REGISTERED AGENTS -->
    <g transform="translate(530, 100)">
        <text x="0" y="-20" font-size="12" fill="#aaaaaa">AGENTS</text>
        <text x="0" y="15" font-size="28" fill="#00d4ff" font-weight="bold" filter="url(#textGlow)">4,401</text>
        <text x="0" y="35" font-size="10" fill="#777777">REGISTERED DIDs</text>
    </g>

    <!-- TRANSACTIONS -->
    <g transform="translate(730, 100)">
        <text x="0" y="-20" font-size="12" fill="#aaaaaa">TRANSFERS</text>
        <text x="0" y="15" font-size="28" fill="#ffffff" font-weight="bold">33,115</text>
        <text x="0" y="35" font-size="10" fill="#777777">M2M SETTLEMENTS</text>
    </g>
  </g>

  <text x="425" y="185" font-family="'Consolas', 'Fira Code', monospace" font-size="10" fill="#aaaaaa" opacity="0.6" text-anchor="middle">AXIOMID PROJECTED TARGETS (ILLUSTRATIVE): 2026-07-09 01:58:52 UTC // SECURE_HANDSHAKE</text>
</svg>