<svg width="850" height="200" viewBox="0 0 850 200" xmlns="http://www.w3.org/2000/svg">
  <defs>
    <!-- Carbon Fiber Pattern -->
    <pattern id="carbonFiber" width="10" height="10" patternUnits="userSpaceOnUse">
        <rect width="10" height="10" fill="#050505"/>
        <path d="M0,0 L5,5 L10,0 L5,-5 Z M5,5 L10,10 L15,5 L10,0 Z M-5,5 L0,10 L5,5 L0,0 Z M0,10 L5,15 L10,10 L5,5 Z" fill="#0d0d0d"/>
    </pattern>
    <filter id="glassmorphism">
      <feGaussianBlur stdDeviation="3" result="blur" />
      <feColorMatrix type="matrix" values="1 0 0 0 0  0 1 0 0 0  0 0 1 0 0  0 0 0 18 -7" result="glow" />
      <feBlend in="SourceGraphic" in2="glow" mode="normal" />
    </filter>
    <filter id="textGlow">
      <feGaussianBlur stdDeviation="2" result="blur" />
      <feMerge>
        <feMergeNode in="blur"/>
        <feMergeNode in="SourceGraphic"/>
      </feMerge>
    </filter>
    <linearGradient id="neonBar" x1="0%" y1="0%" x2="100%" y2="0%">
        <stop offset="0%" stop-color="#111111"/>
        <stop offset="100%" stop-color="#39FF14"/>
    </linearGradient>
  </defs>

  <rect width="100%" height="100%" fill="url(#carbonFiber)" rx="12" stroke="#39FF14" stroke-width="1" stroke-opacity="0.3"/>
  <rect width="100%" height="100%" fill="#000000" opacity="0.6" rx="12" />
  <g><polygon points="296,22 304.6,27 304.6,37 296,42 287.4,37 287.4,27" fill="none" stroke="#39FF14" stroke-width="1" opacity="0.05498350959290349"/>
<polygon points="144,-8 152.6,-3 152.6,7 144,12 135.4,7 135.4,-3" fill="none" stroke="#39FF14" stroke-width="1" opacity="0.05903628636774465"/>
<polygon points="249,130 257.6,135 257.6,145 249,150 240.4,145 240.4,135" fill="none" stroke="#39FF14" stroke-width="1" opacity="0.06667934258481036"/>
<polygon points="48,182 56.6,187 56.6,197 48,202 39.4,197 39.4,187" fill="none" stroke="#39FF14" stroke-width="1" opacity="0.07924901070024766"/>
<polygon points="812,36 820.6,41 820.6,51 812,56 803.4,51 803.4,41" fill="none" stroke="#39FF14" stroke-width="1" opacity="0.05438035279226938"/>
<polygon points="229,125 237.6,130 237.6,140 229,145 220.4,140 220.4,130" fill="none" stroke="#39FF14" stroke-width="1" opacity="0.06829932292262011"/>
<polygon points="3,123 11.6,128 11.6,138 3,143 -5.6,138 -5.6,128" fill="none" stroke="#39FF14" stroke-width="1" opacity="0.06066106229374302"/>
<polygon points="70,77 78.6,82 78.6,92 70,97 61.4,92 61.4,82" fill="none" stroke="#39FF14" stroke-width="1" opacity="0.05582096611125199"/>
<polygon points="830,37 838.6,42 838.6,52 830,57 821.4,52 821.4,42" fill="none" stroke="#39FF14" stroke-width="1" opacity="0.029419627238164305"/>
<polygon points="410,74 418.6,79 418.6,89 410,94 401.4,89 401.4,79" fill="none" stroke="#39FF14" stroke-width="1" opacity="0.048247295083492875"/>
<polygon points="365,159 373.6,164 373.6,174 365,179 356.4,174 356.4,164" fill="none" stroke="#39FF14" stroke-width="1" opacity="0.028710647202083692"/>
<polygon points="537,22 545.6,27 545.6,37 537,42 528.4,37 528.4,27" fill="none" stroke="#39FF14" stroke-width="1" opacity="0.03113762118340905"/>
<polygon points="251,93 259.6,98 259.6,108 251,113 242.4,108 242.4,98" fill="none" stroke="#39FF14" stroke-width="1" opacity="0.05144447095497075"/>
<polygon points="362,66 370.6,71 370.6,81 362,86 353.4,81 353.4,71" fill="none" stroke="#39FF14" stroke-width="1" opacity="0.050363681392009335"/>
<polygon points="535,180 543.6,185 543.6,195 535,200 526.4,195 526.4,185" fill="none" stroke="#39FF14" stroke-width="1" opacity="0.045514598325329184"/>
<polygon points="557,137 565.6,142 565.6,152 557,157 548.4,152 548.4,142" fill="none" stroke="#39FF14" stroke-width="1" opacity="0.06300969152331719"/>
<polygon points="122,0 130.6,5 130.6,15 122,20 113.4,15 113.4,5" fill="none" stroke="#39FF14" stroke-width="1" opacity="0.028882786861010784"/>
<polygon points="677,20 685.6,25 685.6,35 677,40 668.4,35 668.4,25" fill="none" stroke="#39FF14" stroke-width="1" opacity="0.07895215600098866"/>
<polygon points="310,150 318.6,155 318.6,165 310,170 301.4,165 301.4,155" fill="none" stroke="#39FF14" stroke-width="1" opacity="0.031882079906465306"/>
<polygon points="682,179 690.6,184 690.6,194 682,199 673.4,194 673.4,184" fill="none" stroke="#39FF14" stroke-width="1" opacity="0.06993684396559778"/>
<polygon points="730,29 738.6,34 738.6,44 730,49 721.4,44 721.4,34" fill="none" stroke="#39FF14" stroke-width="1" opacity="0.027888595011114785"/>
<polygon points="427,29 435.6,34 435.6,44 427,49 418.4,44 418.4,34" fill="none" stroke="#39FF14" stroke-width="1" opacity="0.026004535391285985"/>
<polygon points="367,41 375.6,46 375.6,56 367,61 358.4,56 358.4,46" fill="none" stroke="#39FF14" stroke-width="1" opacity="0.039121922438782486"/>
<polygon points="89,57 97.6,62 97.6,72 89,77 80.4,72 80.4,62" fill="none" stroke="#39FF14" stroke-width="1" opacity="0.052553611873619246"/>
<polygon points="805,181 813.6,186 813.6,196 805,201 796.4,196 796.4,186" fill="none" stroke="#39FF14" stroke-width="1" opacity="0.039692283331745355"/>
<polygon points="771,151 779.6,156 779.6,166 771,171 762.4,166 762.4,156" fill="none" stroke="#39FF14" stroke-width="1" opacity="0.07908619118637117"/>
<polygon points="341,183 349.6,188 349.6,198 341,203 332.4,198 332.4,188" fill="none" stroke="#39FF14" stroke-width="1" opacity="0.05485964571395047"/>
<polygon points="350,107 358.6,112 358.6,122 350,127 341.4,122 341.4,112" fill="none" stroke="#39FF14" stroke-width="1" opacity="0.05659095271059171"/>
<polygon points="658,8 666.6,13 666.6,23 658,28 649.4,23 649.4,13" fill="none" stroke="#39FF14" stroke-width="1" opacity="0.07960331068838725"/>
<polygon points="835,135 843.6,140 843.6,150 835,155 826.4,150 826.4,140" fill="none" stroke="#39FF14" stroke-width="1" opacity="0.021275031840399704"/>
</g>

  <!-- HUD Decorative elements -->
  <path d="M 20 20 L 40 20 L 50 30" fill="none" stroke="#39FF14" stroke-width="2" opacity="0.5"/>
  <path d="M 830 180 L 810 180 L 800 170" fill="none" stroke="#39FF14" stroke-width="2" opacity="0.5"/>
  <rect x="20" y="100" width="2" height="40" fill="#ffffff" opacity="0.4"/>
  <rect x="828" y="60" width="2" height="40" fill="#39FF14" opacity="0.6"/>

  <g font-family="'Consolas', 'Fira Code', monospace" text-anchor="middle">

    <!-- SYSTEM STATUS -->
    <g transform="translate(130, 100)">
        <circle cx="0" cy="0" r="45" fill="none" stroke="#111111" stroke-width="8" />
        <circle cx="0" cy="0" r="45" fill="none" stroke="#39FF14" stroke-width="2" stroke-dasharray="10 5">
            <animateTransform attributeName="transform" type="rotate" from="0" to="360" dur="10s" repeatCount="indefinite"/>
        </circle>
        <circle cx="0" cy="0" r="35" fill="#0d0d0d" />
        <circle cx="0" cy="0" r="6" fill="#39FF14" filter="url(#textGlow)">
            <animate attributeName="opacity" values="1;0.3;1" dur="2s" repeatCount="indefinite"/>
        </circle>
        <text x="0" y="-60" font-size="12" fill="#aaaaaa" letter-spacing="2">SYS.CORE</text>
        <text x="0" y="70" font-size="14" fill="#ffffff" font-weight="bold">ONLINE</text>
    </g>

    <!-- LIVE TRAFFIC -->
    <g transform="translate(330, 100)">
        <rect x="-60" y="-45" width="120" height="90" fill="#0a0a0a" rx="8" stroke="#39FF14" stroke-opacity="0.4" stroke-width="1"/>
        <text x="0" y="-20" font-size="12" fill="#aaaaaa">NETWORK LOAD</text>
        <text x="0" y="15" font-size="28" fill="#ffffff" font-weight="bold" filter="url(#textGlow)">6268</text>
        <text x="0" y="35" font-size="10" fill="#777777">ACTIVE SESSIONS</text>
    </g>

    <!-- ACTIVE AGENTS -->
    <g transform="translate(530, 100)">
        <rect x="-60" y="-45" width="120" height="90" fill="#0a0a0a" rx="8" stroke="#39FF14" stroke-opacity="0.4" stroke-width="1"/>
        <text x="0" y="-20" font-size="12" fill="#aaaaaa">SWARM ENTITIES</text>
        <text x="0" y="15" font-size="28" fill="#ffffff" font-weight="bold" filter="url(#textGlow)">131</text>
        <text x="0" y="35" font-size="10" fill="#777777">AUTONOMOUS</text>
    </g>

    <!-- UPTIME -->
    <g transform="translate(730, 100)">
        <path d="M -40 -35 L 40 -35 L 50 -25 L 50 35 L -40 35 L -50 25 Z" fill="#0a0a0a" stroke="#39FF14" stroke-opacity="0.4" stroke-width="1"/>
        <text x="0" y="-15" font-size="12" fill="#aaaaaa">CONTINUITY</text>
        <text x="0" y="15" font-size="24" fill="#ffffff" font-weight="bold">341<tspan font-size="14" fill="#777777">d</tspan></text>
        <rect x="-35" y="25" width="70" height="4" fill="url(#neonBar)" rx="2"/>
    </g>
  </g>

  <text x="425" y="185" font-family="'Consolas', 'Fira Code', monospace" font-size="10" fill="#aaaaaa" opacity="0.6" text-anchor="middle">LAST TELEMETRY PING: 2026-05-10 13:03:49 UTC // ENCRYPTED_TUNNEL</text>
</svg>