<svg width="850" height="200" viewBox="0 0 850 200" xmlns="http://www.w3.org/2000/svg">
  <defs>
    <!-- Carbon Fiber Pattern -->
    <pattern id="carbonFiber" width="10" height="10" patternUnits="userSpaceOnUse">
        <rect width="10" height="10" fill="#050505"/>
        <path d="M0,0 L5,5 L10,0 L5,-5 Z M5,5 L10,10 L15,5 L10,0 Z M-5,5 L0,10 L5,5 L0,0 Z M0,10 L5,15 L10,10 L5,5 Z" fill="#0d0d0d"/>
    </pattern>
    <filter id="glassmorphism">
      <feGaussianBlur stdDeviation="3" result="blur" />
      <feColorMatrix type="matrix" values="1 0 0 0 0  0 1 0 0 0  0 0 1 0 0  0 0 0 18 -7" result="glow" />
      <feBlend in="SourceGraphic" in2="glow" mode="normal" />
    </filter>
    <filter id="textGlow">
      <feGaussianBlur stdDeviation="2" result="blur" />
      <feMerge>
        <feMergeNode in="blur"/>
        <feMergeNode in="SourceGraphic"/>
      </feMerge>
    </filter>
    <linearGradient id="neonBar" x1="0%" y1="0%" x2="100%" y2="0%">
        <stop offset="0%" stop-color="#111111"/>
        <stop offset="100%" stop-color="#39FF14"/>
    </linearGradient>
  </defs>

  <rect width="100%" height="100%" fill="url(#carbonFiber)" rx="12" stroke="#39FF14" stroke-width="1" stroke-opacity="0.3"/>
  <rect width="100%" height="100%" fill="#000000" opacity="0.6" rx="12" />
  <g><polygon points="280,188 288.6,193 288.6,203 280,208 271.4,203 271.4,193" fill="none" stroke="#39FF14" stroke-width="1" opacity="0.06832825187234565"/>
<polygon points="486,13 494.6,18 494.6,28 486,33 477.4,28 477.4,18" fill="none" stroke="#39FF14" stroke-width="1" opacity="0.03999486885820466"/>
<polygon points="406,15 414.6,20 414.6,30 406,35 397.4,30 397.4,20" fill="none" stroke="#39FF14" stroke-width="1" opacity="0.020096250669144805"/>
<polygon points="717,52 725.6,57 725.6,67 717,72 708.4,67 708.4,57" fill="none" stroke="#39FF14" stroke-width="1" opacity="0.06946277249355799"/>
<polygon points="636,34 644.6,39 644.6,49 636,54 627.4,49 627.4,39" fill="none" stroke="#39FF14" stroke-width="1" opacity="0.07983425295430739"/>
<polygon points="803,14 811.6,19 811.6,29 803,34 794.4,29 794.4,19" fill="none" stroke="#39FF14" stroke-width="1" opacity="0.030741553286562348"/>
<polygon points="333,183 341.6,188 341.6,198 333,203 324.4,198 324.4,188" fill="none" stroke="#39FF14" stroke-width="1" opacity="0.05040295427207159"/>
<polygon points="279,138 287.6,143 287.6,153 279,158 270.4,153 270.4,143" fill="none" stroke="#39FF14" stroke-width="1" opacity="0.06919568488587909"/>
<polygon points="566,173 574.6,178 574.6,188 566,193 557.4,188 557.4,178" fill="none" stroke="#39FF14" stroke-width="1" opacity="0.037310408394509414"/>
<polygon points="194,80 202.6,85 202.6,95 194,100 185.4,95 185.4,85" fill="none" stroke="#39FF14" stroke-width="1" opacity="0.07304801151184333"/>
<polygon points="161,62 169.6,67 169.6,77 161,82 152.4,77 152.4,67" fill="none" stroke="#39FF14" stroke-width="1" opacity="0.0690623949696896"/>
<polygon points="758,20 766.6,25 766.6,35 758,40 749.4,35 749.4,25" fill="none" stroke="#39FF14" stroke-width="1" opacity="0.06670650786353952"/>
<polygon points="48,17 56.6,22 56.6,32 48,37 39.4,32 39.4,22" fill="none" stroke="#39FF14" stroke-width="1" opacity="0.0789558527444556"/>
<polygon points="803,138 811.6,143 811.6,153 803,158 794.4,153 794.4,143" fill="none" stroke="#39FF14" stroke-width="1" opacity="0.06421053935300103"/>
<polygon points="823,134 831.6,139 831.6,149 823,154 814.4,149 814.4,139" fill="none" stroke="#39FF14" stroke-width="1" opacity="0.04717753735933032"/>
<polygon points="427,114 435.6,119 435.6,129 427,134 418.4,129 418.4,119" fill="none" stroke="#39FF14" stroke-width="1" opacity="0.04084158707584987"/>
<polygon points="672,147 680.6,152 680.6,162 672,167 663.4,162 663.4,152" fill="none" stroke="#39FF14" stroke-width="1" opacity="0.020847181637019832"/>
<polygon points="209,158 217.6,163 217.6,173 209,178 200.4,173 200.4,163" fill="none" stroke="#39FF14" stroke-width="1" opacity="0.07414541103802333"/>
<polygon points="388,99 396.6,104 396.6,114 388,119 379.4,114 379.4,104" fill="none" stroke="#39FF14" stroke-width="1" opacity="0.07912448914811432"/>
<polygon points="231,24 239.6,29 239.6,39 231,44 222.4,39 222.4,29" fill="none" stroke="#39FF14" stroke-width="1" opacity="0.044242352859014095"/>
<polygon points="107,72 115.6,77 115.6,87 107,92 98.4,87 98.4,77" fill="none" stroke="#39FF14" stroke-width="1" opacity="0.05180259031565554"/>
<polygon points="55,149 63.6,154 63.6,164 55,169 46.4,164 46.4,154" fill="none" stroke="#39FF14" stroke-width="1" opacity="0.06906278952265213"/>
<polygon points="215,69 223.6,74 223.6,84 215,89 206.4,84 206.4,74" fill="none" stroke="#39FF14" stroke-width="1" opacity="0.03433020339969156"/>
<polygon points="212,173 220.6,178 220.6,188 212,193 203.4,188 203.4,178" fill="none" stroke="#39FF14" stroke-width="1" opacity="0.020942291727745924"/>
<polygon points="279,138 287.6,143 287.6,153 279,158 270.4,153 270.4,143" fill="none" stroke="#39FF14" stroke-width="1" opacity="0.050688863920834694"/>
<polygon points="596,50 604.6,55 604.6,65 596,70 587.4,65 587.4,55" fill="none" stroke="#39FF14" stroke-width="1" opacity="0.06478096604083085"/>
<polygon points="346,97 354.6,102 354.6,112 346,117 337.4,112 337.4,102" fill="none" stroke="#39FF14" stroke-width="1" opacity="0.03838920698248291"/>
<polygon points="34,-4 42.6,1 42.6,11 34,16 25.4,11 25.4,1" fill="none" stroke="#39FF14" stroke-width="1" opacity="0.062034419598038223"/>
<polygon points="467,-2 475.6,3 475.6,13 467,18 458.4,13 458.4,3" fill="none" stroke="#39FF14" stroke-width="1" opacity="0.07452767892546656"/>
<polygon points="478,112 486.6,117 486.6,127 478,132 469.4,127 469.4,117" fill="none" stroke="#39FF14" stroke-width="1" opacity="0.060453729811540985"/>
</g>

  <!-- HUD Decorative elements -->
  <path d="M 20 20 L 40 20 L 50 30" fill="none" stroke="#39FF14" stroke-width="2" opacity="0.5"/>
  <path d="M 830 180 L 810 180 L 800 170" fill="none" stroke="#39FF14" stroke-width="2" opacity="0.5"/>
  <rect x="20" y="100" width="2" height="40" fill="#ffffff" opacity="0.4"/>
  <rect x="828" y="60" width="2" height="40" fill="#39FF14" opacity="0.6"/>

  <g font-family="'Consolas', 'Fira Code', monospace" text-anchor="middle">

    <!-- SYSTEM STATUS -->
    <g transform="translate(130, 100)">
        <circle cx="0" cy="0" r="45" fill="none" stroke="#111111" stroke-width="8" />
        <circle cx="0" cy="0" r="45" fill="none" stroke="#39FF14" stroke-width="2" stroke-dasharray="10 5">
            <animateTransform attributeName="transform" type="rotate" from="0" to="360" dur="10s" repeatCount="indefinite"/>
        </circle>
        <circle cx="0" cy="0" r="35" fill="#0d0d0d" />
        <circle cx="0" cy="0" r="6" fill="#39FF14" filter="url(#textGlow)">
            <animate attributeName="opacity" values="1;0.3;1" dur="2s" repeatCount="indefinite"/>
        </circle>
        <text x="0" y="-60" font-size="12" fill="#aaaaaa" letter-spacing="2">SYS.CORE</text>
        <text x="0" y="70" font-size="14" fill="#ffffff" font-weight="bold">ONLINE</text>
    </g>

    <!-- LIVE TRAFFIC -->
    <g transform="translate(330, 100)">
        <rect x="-60" y="-45" width="120" height="90" fill="#0a0a0a" rx="8" stroke="#39FF14" stroke-opacity="0.4" stroke-width="1"/>
        <text x="0" y="-20" font-size="12" fill="#aaaaaa">NETWORK LOAD</text>
        <text x="0" y="15" font-size="28" fill="#ffffff" font-weight="bold" filter="url(#textGlow)">4659</text>
        <text x="0" y="35" font-size="10" fill="#777777">ACTIVE SESSIONS</text>
    </g>

    <!-- ACTIVE AGENTS -->
    <g transform="translate(530, 100)">
        <rect x="-60" y="-45" width="120" height="90" fill="#0a0a0a" rx="8" stroke="#39FF14" stroke-opacity="0.4" stroke-width="1"/>
        <text x="0" y="-20" font-size="12" fill="#aaaaaa">SWARM ENTITIES</text>
        <text x="0" y="15" font-size="28" fill="#ffffff" font-weight="bold" filter="url(#textGlow)">137</text>
        <text x="0" y="35" font-size="10" fill="#777777">AUTONOMOUS</text>
    </g>

    <!-- UPTIME -->
    <g transform="translate(730, 100)">
        <path d="M -40 -35 L 40 -35 L 50 -25 L 50 35 L -40 35 L -50 25 Z" fill="#0a0a0a" stroke="#39FF14" stroke-opacity="0.4" stroke-width="1"/>
        <text x="0" y="-15" font-size="12" fill="#aaaaaa">CONTINUITY</text>
        <text x="0" y="15" font-size="24" fill="#ffffff" font-weight="bold">374<tspan font-size="14" fill="#777777">d</tspan></text>
        <rect x="-35" y="25" width="70" height="4" fill="url(#neonBar)" rx="2"/>
    </g>
  </g>

  <text x="425" y="185" font-family="'Consolas', 'Fira Code', monospace" font-size="10" fill="#aaaaaa" opacity="0.6" text-anchor="middle">LAST TELEMETRY PING: 2026-05-12 07:07:03 UTC // ENCRYPTED_TUNNEL</text>
</svg>