<svg width="850" height="200" viewBox="0 0 850 200" xmlns="http://www.w3.org/2000/svg">
  <defs>
    <pattern id="carbonFiber" width="10" height="10" patternUnits="userSpaceOnUse">
        <rect width="10" height="10" fill="#050505"/>
        <path d="M0,0 L5,5 L10,0 L5,-5 Z M5,5 L10,10 L15,5 L10,0 Z M-5,5 L0,10 L5,5 L0,0 Z M0,10 L5,15 L10,10 L5,5 Z" fill="#0d0d0d"/>
    </pattern>
    <filter id="textGlow">
      <feGaussianBlur stdDeviation="2" result="blur" />
      <feMerge>
        <feMergeNode in="blur"/>
        <feMergeNode in="SourceGraphic"/>
      </feMerge>
    </filter>
    <linearGradient id="neonBar" x1="0%" y1="0%" x2="100%" y2="0%">
        <stop offset="0%" stop-color="#111111"/>
        <stop offset="100%" stop-color="#39FF14"/>
    </linearGradient>
    <linearGradient id="scanlineGrad" x1="0%" y1="0%" x2="100%" y2="0%">
        <stop offset="0%" stop-color="#39FF14" stop-opacity="0"/>
        <stop offset="50%" stop-color="#39FF14" stop-opacity="0.18"/>
        <stop offset="100%" stop-color="#39FF14" stop-opacity="0"/>
    </linearGradient>
    <clipPath id="dashClip">
        <rect x="0" y="0" width="850" height="200" rx="12"/>
    </clipPath>
  </defs>

  <rect width="100%" height="100%" fill="url(#carbonFiber)" rx="12" stroke="#39FF14" stroke-width="1" stroke-opacity="0.3"/>
  <rect width="100%" height="100%" fill="#000000" opacity="0.6" rx="12" />
  <g><polygon points="818,162 826.6,167 826.6,177 818,182 809.4,177 809.4,167" fill="none" stroke="#39FF14" stroke-width="1" opacity="0.07849167159734724"/>
<polygon points="459,115 467.6,120 467.6,130 459,135 450.4,130 450.4,120" fill="none" stroke="#39FF14" stroke-width="1" opacity="0.050753053792326724"/>
<polygon points="757,1 765.6,6 765.6,16 757,21 748.4,16 748.4,6" fill="none" stroke="#39FF14" stroke-width="1" opacity="0.07135203368014649"/>
<polygon points="6,156 14.6,161 14.6,171 6,176 -2.5999999999999996,171 -2.5999999999999996,161" fill="none" stroke="#39FF14" stroke-width="1" opacity="0.053200221318433646"/>
<polygon points="399,88 407.6,93 407.6,103 399,108 390.4,103 390.4,93" fill="none" stroke="#39FF14" stroke-width="1" opacity="0.043499919842114"/>
<polygon points="291,125 299.6,130 299.6,140 291,145 282.4,140 282.4,130" fill="none" stroke="#39FF14" stroke-width="1" opacity="0.03447141739763597"/>
<polygon points="829,66 837.6,71 837.6,81 829,86 820.4,81 820.4,71" fill="none" stroke="#39FF14" stroke-width="1" opacity="0.05264228423010121"/>
<polygon points="569,135 577.6,140 577.6,150 569,155 560.4,150 560.4,140" fill="none" stroke="#39FF14" stroke-width="1" opacity="0.04314631390776103"/>
<polygon points="120,7 128.6,12 128.6,22 120,27 111.4,22 111.4,12" fill="none" stroke="#39FF14" stroke-width="1" opacity="0.034581925010930215"/>
<polygon points="709,10 717.6,15 717.6,25 709,30 700.4,25 700.4,15" fill="none" stroke="#39FF14" stroke-width="1" opacity="0.03659219253927834"/>
<polygon points="849,91 857.6,96 857.6,106 849,111 840.4,106 840.4,96" fill="none" stroke="#39FF14" stroke-width="1" opacity="0.06353325136865688"/>
<polygon points="595,17 603.6,22 603.6,32 595,37 586.4,32 586.4,22" fill="none" stroke="#39FF14" stroke-width="1" opacity="0.04744510541682347"/>
<polygon points="31,105 39.6,110 39.6,120 31,125 22.4,120 22.4,110" fill="none" stroke="#39FF14" stroke-width="1" opacity="0.06386417423152996"/>
<polygon points="602,92 610.6,97 610.6,107 602,112 593.4,107 593.4,97" fill="none" stroke="#39FF14" stroke-width="1" opacity="0.04698486298116915"/>
<polygon points="643,18 651.6,23 651.6,33 643,38 634.4,33 634.4,23" fill="none" stroke="#39FF14" stroke-width="1" opacity="0.022484402639427633"/>
<polygon points="284,56 292.6,61 292.6,71 284,76 275.4,71 275.4,61" fill="none" stroke="#39FF14" stroke-width="1" opacity="0.0677926026039154"/>
<polygon points="553,78 561.6,83 561.6,93 553,98 544.4,93 544.4,83" fill="none" stroke="#39FF14" stroke-width="1" opacity="0.05315816228018823"/>
<polygon points="106,129 114.6,134 114.6,144 106,149 97.4,144 97.4,134" fill="none" stroke="#39FF14" stroke-width="1" opacity="0.07355131206455502"/>
<polygon points="254,18 262.6,23 262.6,33 254,38 245.4,33 245.4,23" fill="none" stroke="#39FF14" stroke-width="1" opacity="0.026112507914217285"/>
<polygon points="251,190 259.6,195 259.6,205 251,210 242.4,205 242.4,195" fill="none" stroke="#39FF14" stroke-width="1" opacity="0.04182172114148784"/>
<polygon points="720,-5 728.6,0 728.6,10 720,15 711.4,10 711.4,0" fill="none" stroke="#39FF14" stroke-width="1" opacity="0.0664842083172972"/>
<polygon points="692,34 700.6,39 700.6,49 692,54 683.4,49 683.4,39" fill="none" stroke="#39FF14" stroke-width="1" opacity="0.04504728812615231"/>
<polygon points="483,147 491.6,152 491.6,162 483,167 474.4,162 474.4,152" fill="none" stroke="#39FF14" stroke-width="1" opacity="0.03158462004761524"/>
<polygon points="706,68 714.6,73 714.6,83 706,88 697.4,83 697.4,73" fill="none" stroke="#39FF14" stroke-width="1" opacity="0.07061988972091722"/>
<polygon points="364,128 372.6,133 372.6,143 364,148 355.4,143 355.4,133" fill="none" stroke="#39FF14" stroke-width="1" opacity="0.0332472675941886"/>
<polygon points="358,39 366.6,44 366.6,54 358,59 349.4,54 349.4,44" fill="none" stroke="#39FF14" stroke-width="1" opacity="0.023952027120582146"/>
<polygon points="453,88 461.6,93 461.6,103 453,108 444.4,103 444.4,93" fill="none" stroke="#39FF14" stroke-width="1" opacity="0.06646736112755171"/>
<polygon points="211,186 219.6,191 219.6,201 211,206 202.4,201 202.4,191" fill="none" stroke="#39FF14" stroke-width="1" opacity="0.07316858463664891"/>
<polygon points="344,24 352.6,29 352.6,39 344,44 335.4,39 335.4,29" fill="none" stroke="#39FF14" stroke-width="1" opacity="0.03782269781383856"/>
<polygon points="721,4 729.6,9 729.6,19 721,24 712.4,19 712.4,9" fill="none" stroke="#39FF14" stroke-width="1" opacity="0.02384079516333324"/>
</g>

  <!-- HUD Decorative elements -->
  <path d="M 20 20 L 40 20 L 50 30" fill="none" stroke="#39FF14" stroke-width="2" opacity="0.5"/>
  <path d="M 830 180 L 810 180 L 800 170" fill="none" stroke="#39FF14" stroke-width="2" opacity="0.5"/>

  <g clip-path="url(#dashClip)">
    <rect x="-160" y="0" width="160" height="200" fill="url(#scanlineGrad)">
      <animateTransform attributeName="transform" type="translate"
                        from="0 0" to="1010 0" dur="6s" repeatCount="indefinite"/>
    </rect>
  </g>

  <g font-family="'Consolas', 'Fira Code', monospace" text-anchor="middle">

    <!-- NETWORK STATUS -->
    <g transform="translate(130, 100)">
        <circle cx="0" cy="0" r="45" fill="none" stroke="#39FF14" stroke-width="2" stroke-dasharray="10 5">
            <animateTransform attributeName="transform" type="rotate" from="0" to="360" dur="10s" repeatCount="indefinite"/>
        </circle>
        <circle cx="0" cy="0" r="35" fill="#0d0d0d" />
        <text x="0" y="-60" font-size="12" fill="#aaaaaa" letter-spacing="2">ROOT.AUTH</text>
        <text x="0" y="70" font-size="14" fill="#ffffff" font-weight="bold">OPERATIONAL</text>
    </g>

    <!-- ACTIVE USERS -->
    <g transform="translate(330, 100)">
        <text x="0" y="-20" font-size="12" fill="#aaaaaa">CITIZENS</text>
        <text x="0" y="15" font-size="28" fill="#ffffff" font-weight="bold" filter="url(#textGlow)">12,559</text>
        <text x="0" y="35" font-size="10" fill="#777777">VERIFIED HUMANS</text>
    </g>

    <!-- REGISTERED AGENTS -->
    <g transform="translate(530, 100)">
        <text x="0" y="-20" font-size="12" fill="#aaaaaa">AGENTS</text>
        <text x="0" y="15" font-size="28" fill="#00d4ff" font-weight="bold" filter="url(#textGlow)">3,374</text>
        <text x="0" y="35" font-size="10" fill="#777777">REGISTERED DIDs</text>
    </g>

    <!-- TRANSACTIONS -->
    <g transform="translate(730, 100)">
        <text x="0" y="-20" font-size="12" fill="#aaaaaa">TRANSFERS</text>
        <text x="0" y="15" font-size="28" fill="#ffffff" font-weight="bold">33,214</text>
        <text x="0" y="35" font-size="10" fill="#777777">M2M SETTLEMENTS</text>
    </g>
  </g>

  <text x="425" y="185" font-family="'Consolas', 'Fira Code', monospace" font-size="10" fill="#aaaaaa" opacity="0.6" text-anchor="middle">AXIOMID PROJECTED TARGETS (ILLUSTRATIVE): 2026-06-30 10:12:11 UTC // SECURE_HANDSHAKE</text>
</svg>