<svg width="850" height="200" viewBox="0 0 850 200" xmlns="http://www.w3.org/2000/svg">
  <defs>
    <!-- Carbon Fiber Pattern -->
    <pattern id="carbonFiber" width="10" height="10" patternUnits="userSpaceOnUse">
        <rect width="10" height="10" fill="#050505"/>
        <path d="M0,0 L5,5 L10,0 L5,-5 Z M5,5 L10,10 L15,5 L10,0 Z M-5,5 L0,10 L5,5 L0,0 Z M0,10 L5,15 L10,10 L5,5 Z" fill="#0d0d0d"/>
    </pattern>
    <filter id="glassmorphism">
      <feGaussianBlur stdDeviation="3" result="blur" />
      <feColorMatrix type="matrix" values="1 0 0 0 0  0 1 0 0 0  0 0 1 0 0  0 0 0 18 -7" result="glow" />
      <feBlend in="SourceGraphic" in2="glow" mode="normal" />
    </filter>
    <filter id="textGlow">
      <feGaussianBlur stdDeviation="2" result="blur" />
      <feMerge>
        <feMergeNode in="blur"/>
        <feMergeNode in="SourceGraphic"/>
      </feMerge>
    </filter>
    <linearGradient id="neonBar" x1="0%" y1="0%" x2="100%" y2="0%">
        <stop offset="0%" stop-color="#111111"/>
        <stop offset="100%" stop-color="#39FF14"/>
    </linearGradient>
  </defs>

  <rect width="100%" height="100%" fill="url(#carbonFiber)" rx="12" stroke="#39FF14" stroke-width="1" stroke-opacity="0.3"/>
  <rect width="100%" height="100%" fill="#000000" opacity="0.6" rx="12" />
  <g><polygon points="279,8 287.6,13 287.6,23 279,28 270.4,23 270.4,13" fill="none" stroke="#39FF14" stroke-width="1" opacity="0.020584224997104144"/>
<polygon points="484,172 492.6,177 492.6,187 484,192 475.4,187 475.4,177" fill="none" stroke="#39FF14" stroke-width="1" opacity="0.05536476036254069"/>
<polygon points="310,-2 318.6,3 318.6,13 310,18 301.4,13 301.4,3" fill="none" stroke="#39FF14" stroke-width="1" opacity="0.06813096313993212"/>
<polygon points="845,54 853.6,59 853.6,69 845,74 836.4,69 836.4,59" fill="none" stroke="#39FF14" stroke-width="1" opacity="0.04218238950438995"/>
<polygon points="533,183 541.6,188 541.6,198 533,203 524.4,198 524.4,188" fill="none" stroke="#39FF14" stroke-width="1" opacity="0.06207316719460715"/>
<polygon points="486,42 494.6,47 494.6,57 486,62 477.4,57 477.4,47" fill="none" stroke="#39FF14" stroke-width="1" opacity="0.038868803881443634"/>
<polygon points="420,177 428.6,182 428.6,192 420,197 411.4,192 411.4,182" fill="none" stroke="#39FF14" stroke-width="1" opacity="0.024675765428886873"/>
<polygon points="417,163 425.6,168 425.6,178 417,183 408.4,178 408.4,168" fill="none" stroke="#39FF14" stroke-width="1" opacity="0.0640820062924559"/>
<polygon points="332,150 340.6,155 340.6,165 332,170 323.4,165 323.4,155" fill="none" stroke="#39FF14" stroke-width="1" opacity="0.04817024633020383"/>
<polygon points="205,33 213.6,38 213.6,48 205,53 196.4,48 196.4,38" fill="none" stroke="#39FF14" stroke-width="1" opacity="0.042766984869499855"/>
<polygon points="291,181 299.6,186 299.6,196 291,201 282.4,196 282.4,186" fill="none" stroke="#39FF14" stroke-width="1" opacity="0.04541197509493282"/>
<polygon points="173,180 181.6,185 181.6,195 173,200 164.4,195 164.4,185" fill="none" stroke="#39FF14" stroke-width="1" opacity="0.03152202190733454"/>
<polygon points="597,144 605.6,149 605.6,159 597,164 588.4,159 588.4,149" fill="none" stroke="#39FF14" stroke-width="1" opacity="0.05939188236747085"/>
<polygon points="643,186 651.6,191 651.6,201 643,206 634.4,201 634.4,191" fill="none" stroke="#39FF14" stroke-width="1" opacity="0.02666136517491987"/>
<polygon points="813,146 821.6,151 821.6,161 813,166 804.4,161 804.4,151" fill="none" stroke="#39FF14" stroke-width="1" opacity="0.046621940571283854"/>
<polygon points="249,143 257.6,148 257.6,158 249,163 240.4,158 240.4,148" fill="none" stroke="#39FF14" stroke-width="1" opacity="0.0634365322923989"/>
<polygon points="509,88 517.6,93 517.6,103 509,108 500.4,103 500.4,93" fill="none" stroke="#39FF14" stroke-width="1" opacity="0.05543319473507097"/>
<polygon points="439,137 447.6,142 447.6,152 439,157 430.4,152 430.4,142" fill="none" stroke="#39FF14" stroke-width="1" opacity="0.05220828012960113"/>
<polygon points="502,46 510.6,51 510.6,61 502,66 493.4,61 493.4,51" fill="none" stroke="#39FF14" stroke-width="1" opacity="0.07712011778887203"/>
<polygon points="423,150 431.6,155 431.6,165 423,170 414.4,165 414.4,155" fill="none" stroke="#39FF14" stroke-width="1" opacity="0.03334490613227535"/>
<polygon points="414,17 422.6,22 422.6,32 414,37 405.4,32 405.4,22" fill="none" stroke="#39FF14" stroke-width="1" opacity="0.06918134610054151"/>
<polygon points="466,91 474.6,96 474.6,106 466,111 457.4,106 457.4,96" fill="none" stroke="#39FF14" stroke-width="1" opacity="0.06748590414538112"/>
<polygon points="760,140 768.6,145 768.6,155 760,160 751.4,155 751.4,145" fill="none" stroke="#39FF14" stroke-width="1" opacity="0.06308046519560734"/>
<polygon points="288,175 296.6,180 296.6,190 288,195 279.4,190 279.4,180" fill="none" stroke="#39FF14" stroke-width="1" opacity="0.05179565330137048"/>
<polygon points="731,46 739.6,51 739.6,61 731,66 722.4,61 722.4,51" fill="none" stroke="#39FF14" stroke-width="1" opacity="0.05475824341356951"/>
<polygon points="385,73 393.6,78 393.6,88 385,93 376.4,88 376.4,78" fill="none" stroke="#39FF14" stroke-width="1" opacity="0.0327668755439441"/>
<polygon points="191,155 199.6,160 199.6,170 191,175 182.4,170 182.4,160" fill="none" stroke="#39FF14" stroke-width="1" opacity="0.020577298146802276"/>
<polygon points="174,71 182.6,76 182.6,86 174,91 165.4,86 165.4,76" fill="none" stroke="#39FF14" stroke-width="1" opacity="0.02361684641142543"/>
<polygon points="454,35 462.6,40 462.6,50 454,55 445.4,50 445.4,40" fill="none" stroke="#39FF14" stroke-width="1" opacity="0.065356302058034"/>
<polygon points="712,178 720.6,183 720.6,193 712,198 703.4,193 703.4,183" fill="none" stroke="#39FF14" stroke-width="1" opacity="0.0676950625930155"/>
</g>

  <!-- HUD Decorative elements -->
  <path d="M 20 20 L 40 20 L 50 30" fill="none" stroke="#39FF14" stroke-width="2" opacity="0.5"/>
  <path d="M 830 180 L 810 180 L 800 170" fill="none" stroke="#39FF14" stroke-width="2" opacity="0.5"/>
  <rect x="20" y="100" width="2" height="40" fill="#ffffff" opacity="0.4"/>
  <rect x="828" y="60" width="2" height="40" fill="#39FF14" opacity="0.6"/>

  <g font-family="'Consolas', 'Fira Code', monospace" text-anchor="middle">

    <!-- SYSTEM STATUS -->
    <g transform="translate(130, 100)">
        <circle cx="0" cy="0" r="45" fill="none" stroke="#111111" stroke-width="8" />
        <circle cx="0" cy="0" r="45" fill="none" stroke="#39FF14" stroke-width="2" stroke-dasharray="10 5">
            <animateTransform attributeName="transform" type="rotate" from="0" to="360" dur="10s" repeatCount="indefinite"/>
        </circle>
        <circle cx="0" cy="0" r="35" fill="#0d0d0d" />
        <circle cx="0" cy="0" r="6" fill="#39FF14" filter="url(#textGlow)">
            <animate attributeName="opacity" values="1;0.3;1" dur="2s" repeatCount="indefinite"/>
        </circle>
        <text x="0" y="-60" font-size="12" fill="#aaaaaa" letter-spacing="2">SYS.CORE</text>
        <text x="0" y="70" font-size="14" fill="#ffffff" font-weight="bold">ONLINE</text>
    </g>

    <!-- LIVE TRAFFIC -->
    <g transform="translate(330, 100)">
        <rect x="-60" y="-45" width="120" height="90" fill="#0a0a0a" rx="8" stroke="#39FF14" stroke-opacity="0.4" stroke-width="1"/>
        <text x="0" y="-20" font-size="12" fill="#aaaaaa">NETWORK LOAD</text>
        <text x="0" y="15" font-size="28" fill="#ffffff" font-weight="bold" filter="url(#textGlow)">6892</text>
        <text x="0" y="35" font-size="10" fill="#777777">ACTIVE SESSIONS</text>
    </g>

    <!-- ACTIVE AGENTS -->
    <g transform="translate(530, 100)">
        <rect x="-60" y="-45" width="120" height="90" fill="#0a0a0a" rx="8" stroke="#39FF14" stroke-opacity="0.4" stroke-width="1"/>
        <text x="0" y="-20" font-size="12" fill="#aaaaaa">SWARM ENTITIES</text>
        <text x="0" y="15" font-size="28" fill="#ffffff" font-weight="bold" filter="url(#textGlow)">182</text>
        <text x="0" y="35" font-size="10" fill="#777777">AUTONOMOUS</text>
    </g>

    <!-- UPTIME -->
    <g transform="translate(730, 100)">
        <path d="M -40 -35 L 40 -35 L 50 -25 L 50 35 L -40 35 L -50 25 Z" fill="#0a0a0a" stroke="#39FF14" stroke-opacity="0.4" stroke-width="1"/>
        <text x="0" y="-15" font-size="12" fill="#aaaaaa">CONTINUITY</text>
        <text x="0" y="15" font-size="24" fill="#ffffff" font-weight="bold">202<tspan font-size="14" fill="#777777">d</tspan></text>
        <rect x="-35" y="25" width="70" height="4" fill="url(#neonBar)" rx="2"/>
    </g>
  </g>

  <text x="425" y="185" font-family="'Consolas', 'Fira Code', monospace" font-size="10" fill="#aaaaaa" opacity="0.6" text-anchor="middle">LAST TELEMETRY PING: 2026-04-30 18:36:23 UTC // ENCRYPTED_TUNNEL</text>
</svg>