<svg width="850" height="200" viewBox="0 0 850 200" xmlns="http://www.w3.org/2000/svg">
  <defs>
    <pattern id="carbonFiber" width="10" height="10" patternUnits="userSpaceOnUse">
        <rect width="10" height="10" fill="#050505"/>
        <path d="M0,0 L5,5 L10,0 L5,-5 Z M5,5 L10,10 L15,5 L10,0 Z M-5,5 L0,10 L5,5 L0,0 Z M0,10 L5,15 L10,10 L5,5 Z" fill="#0d0d0d"/>
    </pattern>
    <filter id="textGlow">
      <feGaussianBlur stdDeviation="2" result="blur" />
      <feMerge>
        <feMergeNode in="blur"/>
        <feMergeNode in="SourceGraphic"/>
      </feMerge>
    </filter>
    <linearGradient id="neonBar" x1="0%" y1="0%" x2="100%" y2="0%">
        <stop offset="0%" stop-color="#111111"/>
        <stop offset="100%" stop-color="#39FF14"/>
    </linearGradient>
    <linearGradient id="scanlineGrad" x1="0%" y1="0%" x2="100%" y2="0%">
        <stop offset="0%" stop-color="#39FF14" stop-opacity="0"/>
        <stop offset="50%" stop-color="#39FF14" stop-opacity="0.18"/>
        <stop offset="100%" stop-color="#39FF14" stop-opacity="0"/>
    </linearGradient>
    <clipPath id="dashClip">
        <rect x="0" y="0" width="850" height="200" rx="12"/>
    </clipPath>
  </defs>

  <rect width="100%" height="100%" fill="url(#carbonFiber)" rx="12" stroke="#39FF14" stroke-width="1" stroke-opacity="0.3"/>
  <rect width="100%" height="100%" fill="#000000" opacity="0.6" rx="12" />
  <g><polygon points="201,87 209.6,92 209.6,102 201,107 192.4,102 192.4,92" fill="none" stroke="#39FF14" stroke-width="1" opacity="0.025830971163554338"/>
<polygon points="393,2 401.6,7 401.6,17 393,22 384.4,17 384.4,7" fill="none" stroke="#39FF14" stroke-width="1" opacity="0.05394028344203357"/>
<polygon points="326,42 334.6,47 334.6,57 326,62 317.4,57 317.4,47" fill="none" stroke="#39FF14" stroke-width="1" opacity="0.06706550423946617"/>
<polygon points="708,80 716.6,85 716.6,95 708,100 699.4,95 699.4,85" fill="none" stroke="#39FF14" stroke-width="1" opacity="0.023920170889710296"/>
<polygon points="448,164 456.6,169 456.6,179 448,184 439.4,179 439.4,169" fill="none" stroke="#39FF14" stroke-width="1" opacity="0.05155112351694807"/>
<polygon points="390,65 398.6,70 398.6,80 390,85 381.4,80 381.4,70" fill="none" stroke="#39FF14" stroke-width="1" opacity="0.0514294534518072"/>
<polygon points="732,131 740.6,136 740.6,146 732,151 723.4,146 723.4,136" fill="none" stroke="#39FF14" stroke-width="1" opacity="0.04363542519403047"/>
<polygon points="217,150 225.6,155 225.6,165 217,170 208.4,165 208.4,155" fill="none" stroke="#39FF14" stroke-width="1" opacity="0.02185826791473023"/>
<polygon points="776,54 784.6,59 784.6,69 776,74 767.4,69 767.4,59" fill="none" stroke="#39FF14" stroke-width="1" opacity="0.042446703863110016"/>
<polygon points="139,44 147.6,49 147.6,59 139,64 130.4,59 130.4,49" fill="none" stroke="#39FF14" stroke-width="1" opacity="0.022996302937526688"/>
<polygon points="381,153 389.6,158 389.6,168 381,173 372.4,168 372.4,158" fill="none" stroke="#39FF14" stroke-width="1" opacity="0.05540945310374858"/>
<polygon points="537,-9 545.6,-4 545.6,6 537,11 528.4,6 528.4,-4" fill="none" stroke="#39FF14" stroke-width="1" opacity="0.0734677716224762"/>
<polygon points="684,-9 692.6,-4 692.6,6 684,11 675.4,6 675.4,-4" fill="none" stroke="#39FF14" stroke-width="1" opacity="0.07032823830348126"/>
<polygon points="315,79 323.6,84 323.6,94 315,99 306.4,94 306.4,84" fill="none" stroke="#39FF14" stroke-width="1" opacity="0.06249271720212839"/>
<polygon points="8,-6 16.6,-1 16.6,9 8,14 -0.5999999999999996,9 -0.5999999999999996,-1" fill="none" stroke="#39FF14" stroke-width="1" opacity="0.043100489397766784"/>
<polygon points="134,37 142.6,42 142.6,52 134,57 125.4,52 125.4,42" fill="none" stroke="#39FF14" stroke-width="1" opacity="0.05799624575994643"/>
<polygon points="207,181 215.6,186 215.6,196 207,201 198.4,196 198.4,186" fill="none" stroke="#39FF14" stroke-width="1" opacity="0.029032238302294688"/>
<polygon points="395,14 403.6,19 403.6,29 395,34 386.4,29 386.4,19" fill="none" stroke="#39FF14" stroke-width="1" opacity="0.07415419652979172"/>
<polygon points="243,22 251.6,27 251.6,37 243,42 234.4,37 234.4,27" fill="none" stroke="#39FF14" stroke-width="1" opacity="0.03265601326841377"/>
<polygon points="196,43 204.6,48 204.6,58 196,63 187.4,58 187.4,48" fill="none" stroke="#39FF14" stroke-width="1" opacity="0.06007129025491709"/>
<polygon points="585,34 593.6,39 593.6,49 585,54 576.4,49 576.4,39" fill="none" stroke="#39FF14" stroke-width="1" opacity="0.029824146972045003"/>
<polygon points="671,121 679.6,126 679.6,136 671,141 662.4,136 662.4,126" fill="none" stroke="#39FF14" stroke-width="1" opacity="0.03378016689777277"/>
<polygon points="661,165 669.6,170 669.6,180 661,185 652.4,180 652.4,170" fill="none" stroke="#39FF14" stroke-width="1" opacity="0.058563269647928864"/>
<polygon points="162,160 170.6,165 170.6,175 162,180 153.4,175 153.4,165" fill="none" stroke="#39FF14" stroke-width="1" opacity="0.035835986340859105"/>
<polygon points="589,76 597.6,81 597.6,91 589,96 580.4,91 580.4,81" fill="none" stroke="#39FF14" stroke-width="1" opacity="0.041370332937147376"/>
<polygon points="536,168 544.6,173 544.6,183 536,188 527.4,183 527.4,173" fill="none" stroke="#39FF14" stroke-width="1" opacity="0.055381075945321365"/>
<polygon points="844,141 852.6,146 852.6,156 844,161 835.4,156 835.4,146" fill="none" stroke="#39FF14" stroke-width="1" opacity="0.028812989195761737"/>
<polygon points="4,18 12.6,23 12.6,33 4,38 -4.6,33 -4.6,23" fill="none" stroke="#39FF14" stroke-width="1" opacity="0.06954205342496335"/>
<polygon points="657,109 665.6,114 665.6,124 657,129 648.4,124 648.4,114" fill="none" stroke="#39FF14" stroke-width="1" opacity="0.0262464725365651"/>
<polygon points="481,29 489.6,34 489.6,44 481,49 472.4,44 472.4,34" fill="none" stroke="#39FF14" stroke-width="1" opacity="0.04128526540284587"/>
</g>

  <!-- HUD Decorative elements -->
  <path d="M 20 20 L 40 20 L 50 30" fill="none" stroke="#39FF14" stroke-width="2" opacity="0.5"/>
  <path d="M 830 180 L 810 180 L 800 170" fill="none" stroke="#39FF14" stroke-width="2" opacity="0.5"/>

  <g clip-path="url(#dashClip)">
    <rect x="-160" y="0" width="160" height="200" fill="url(#scanlineGrad)">
      <animateTransform attributeName="transform" type="translate"
                        from="0 0" to="1010 0" dur="6s" repeatCount="indefinite"/>
    </rect>
  </g>

  <g font-family="'Consolas', 'Fira Code', monospace" text-anchor="middle">

    <!-- NETWORK STATUS -->
    <g transform="translate(130, 100)">
        <circle cx="0" cy="0" r="45" fill="none" stroke="#39FF14" stroke-width="2" stroke-dasharray="10 5">
            <animateTransform attributeName="transform" type="rotate" from="0" to="360" dur="10s" repeatCount="indefinite"/>
        </circle>
        <circle cx="0" cy="0" r="35" fill="#0d0d0d" />
        <text x="0" y="-60" font-size="12" fill="#aaaaaa" letter-spacing="2">ROOT.AUTH</text>
        <text x="0" y="70" font-size="14" fill="#ffffff" font-weight="bold">OPERATIONAL</text>
    </g>

    <!-- ACTIVE USERS -->
    <g transform="translate(330, 100)">
        <text x="0" y="-20" font-size="12" fill="#aaaaaa">CITIZENS</text>
        <text x="0" y="15" font-size="28" fill="#ffffff" font-weight="bold" filter="url(#textGlow)">12,409</text>
        <text x="0" y="35" font-size="10" fill="#777777">VERIFIED HUMANS</text>
    </g>

    <!-- REGISTERED AGENTS -->
    <g transform="translate(530, 100)">
        <text x="0" y="-20" font-size="12" fill="#aaaaaa">AGENTS</text>
        <text x="0" y="15" font-size="28" fill="#00d4ff" font-weight="bold" filter="url(#textGlow)">4,479</text>
        <text x="0" y="35" font-size="10" fill="#777777">REGISTERED DIDs</text>
    </g>

    <!-- TRANSACTIONS -->
    <g transform="translate(730, 100)">
        <text x="0" y="-20" font-size="12" fill="#aaaaaa">TRANSFERS</text>
        <text x="0" y="15" font-size="28" fill="#ffffff" font-weight="bold">28,191</text>
        <text x="0" y="35" font-size="10" fill="#777777">M2M SETTLEMENTS</text>
    </g>
  </g>

  <text x="425" y="185" font-family="'Consolas', 'Fira Code', monospace" font-size="10" fill="#aaaaaa" opacity="0.6" text-anchor="middle">AXIOMID PROJECTED TARGETS (ILLUSTRATIVE): 2026-07-11 01:45:47 UTC // SECURE_HANDSHAKE</text>
</svg>