<svg width="850" height="200" viewBox="0 0 850 200" xmlns="http://www.w3.org/2000/svg">
  <defs>
    <pattern id="carbonFiber" width="10" height="10" patternUnits="userSpaceOnUse">
        <rect width="10" height="10" fill="#050505"/>
        <path d="M0,0 L5,5 L10,0 L5,-5 Z M5,5 L10,10 L15,5 L10,0 Z M-5,5 L0,10 L5,5 L0,0 Z M0,10 L5,15 L10,10 L5,5 Z" fill="#0d0d0d"/>
    </pattern>
    <filter id="textGlow">
      <feGaussianBlur stdDeviation="2" result="blur" />
      <feMerge>
        <feMergeNode in="blur"/>
        <feMergeNode in="SourceGraphic"/>
      </feMerge>
    </filter>
    <linearGradient id="neonBar" x1="0%" y1="0%" x2="100%" y2="0%">
        <stop offset="0%" stop-color="#111111"/>
        <stop offset="100%" stop-color="#39FF14"/>
    </linearGradient>
    <linearGradient id="scanlineGrad" x1="0%" y1="0%" x2="100%" y2="0%">
        <stop offset="0%" stop-color="#39FF14" stop-opacity="0"/>
        <stop offset="50%" stop-color="#39FF14" stop-opacity="0.18"/>
        <stop offset="100%" stop-color="#39FF14" stop-opacity="0"/>
    </linearGradient>
    <clipPath id="dashClip">
        <rect x="0" y="0" width="850" height="200" rx="12"/>
    </clipPath>
  </defs>

  <rect width="100%" height="100%" fill="url(#carbonFiber)" rx="12" stroke="#39FF14" stroke-width="1" stroke-opacity="0.3"/>
  <rect width="100%" height="100%" fill="#000000" opacity="0.6" rx="12" />
  <g><polygon points="658,108 666.6,113 666.6,123 658,128 649.4,123 649.4,113" fill="none" stroke="#39FF14" stroke-width="1" opacity="0.057714107225544944"/>
<polygon points="610,-2 618.6,3 618.6,13 610,18 601.4,13 601.4,3" fill="none" stroke="#39FF14" stroke-width="1" opacity="0.030726614754289158"/>
<polygon points="570,175 578.6,180 578.6,190 570,195 561.4,190 561.4,180" fill="none" stroke="#39FF14" stroke-width="1" opacity="0.036634808652910335"/>
<polygon points="760,185 768.6,190 768.6,200 760,205 751.4,200 751.4,190" fill="none" stroke="#39FF14" stroke-width="1" opacity="0.0773293658145357"/>
<polygon points="698,107 706.6,112 706.6,122 698,127 689.4,122 689.4,112" fill="none" stroke="#39FF14" stroke-width="1" opacity="0.02045364976554009"/>
<polygon points="597,39 605.6,44 605.6,54 597,59 588.4,54 588.4,44" fill="none" stroke="#39FF14" stroke-width="1" opacity="0.04640029722736202"/>
<polygon points="205,20 213.6,25 213.6,35 205,40 196.4,35 196.4,25" fill="none" stroke="#39FF14" stroke-width="1" opacity="0.030248936095514094"/>
<polygon points="310,5 318.6,10 318.6,20 310,25 301.4,20 301.4,10" fill="none" stroke="#39FF14" stroke-width="1" opacity="0.03022497200422774"/>
<polygon points="129,147 137.6,152 137.6,162 129,167 120.4,162 120.4,152" fill="none" stroke="#39FF14" stroke-width="1" opacity="0.05729693373477704"/>
<polygon points="266,78 274.6,83 274.6,93 266,98 257.4,93 257.4,83" fill="none" stroke="#39FF14" stroke-width="1" opacity="0.06310119840889435"/>
<polygon points="169,88 177.6,93 177.6,103 169,108 160.4,103 160.4,93" fill="none" stroke="#39FF14" stroke-width="1" opacity="0.03173088763356209"/>
<polygon points="723,32 731.6,37 731.6,47 723,52 714.4,47 714.4,37" fill="none" stroke="#39FF14" stroke-width="1" opacity="0.0626776819992356"/>
<polygon points="164,37 172.6,42 172.6,52 164,57 155.4,52 155.4,42" fill="none" stroke="#39FF14" stroke-width="1" opacity="0.026196455161142655"/>
<polygon points="72,-8 80.6,-3 80.6,7 72,12 63.4,7 63.4,-3" fill="none" stroke="#39FF14" stroke-width="1" opacity="0.021048885845579315"/>
<polygon points="468,156 476.6,161 476.6,171 468,176 459.4,171 459.4,161" fill="none" stroke="#39FF14" stroke-width="1" opacity="0.060227315589322775"/>
<polygon points="333,80 341.6,85 341.6,95 333,100 324.4,95 324.4,85" fill="none" stroke="#39FF14" stroke-width="1" opacity="0.02168300611847496"/>
<polygon points="715,133 723.6,138 723.6,148 715,153 706.4,148 706.4,138" fill="none" stroke="#39FF14" stroke-width="1" opacity="0.056341402749996314"/>
<polygon points="369,13 377.6,18 377.6,28 369,33 360.4,28 360.4,18" fill="none" stroke="#39FF14" stroke-width="1" opacity="0.07284167477078222"/>
<polygon points="545,166 553.6,171 553.6,181 545,186 536.4,181 536.4,171" fill="none" stroke="#39FF14" stroke-width="1" opacity="0.06349617735838207"/>
<polygon points="230,138 238.6,143 238.6,153 230,158 221.4,153 221.4,143" fill="none" stroke="#39FF14" stroke-width="1" opacity="0.07185794753462992"/>
<polygon points="659,12 667.6,17 667.6,27 659,32 650.4,27 650.4,17" fill="none" stroke="#39FF14" stroke-width="1" opacity="0.07859067726645265"/>
<polygon points="849,148 857.6,153 857.6,163 849,168 840.4,163 840.4,153" fill="none" stroke="#39FF14" stroke-width="1" opacity="0.022097418636260552"/>
<polygon points="489,116 497.6,121 497.6,131 489,136 480.4,131 480.4,121" fill="none" stroke="#39FF14" stroke-width="1" opacity="0.06432694523606484"/>
<polygon points="367,114 375.6,119 375.6,129 367,134 358.4,129 358.4,119" fill="none" stroke="#39FF14" stroke-width="1" opacity="0.027857508702239388"/>
<polygon points="254,85 262.6,90 262.6,100 254,105 245.4,100 245.4,90" fill="none" stroke="#39FF14" stroke-width="1" opacity="0.05227365640264389"/>
<polygon points="661,31 669.6,36 669.6,46 661,51 652.4,46 652.4,36" fill="none" stroke="#39FF14" stroke-width="1" opacity="0.04644066672754334"/>
<polygon points="726,65 734.6,70 734.6,80 726,85 717.4,80 717.4,70" fill="none" stroke="#39FF14" stroke-width="1" opacity="0.07972988591502887"/>
<polygon points="468,46 476.6,51 476.6,61 468,66 459.4,61 459.4,51" fill="none" stroke="#39FF14" stroke-width="1" opacity="0.045180397891747576"/>
<polygon points="406,15 414.6,20 414.6,30 406,35 397.4,30 397.4,20" fill="none" stroke="#39FF14" stroke-width="1" opacity="0.032328976774581374"/>
<polygon points="26,128 34.6,133 34.6,143 26,148 17.4,143 17.4,133" fill="none" stroke="#39FF14" stroke-width="1" opacity="0.037078094799936984"/>
</g>

  <!-- HUD Decorative elements -->
  <path d="M 20 20 L 40 20 L 50 30" fill="none" stroke="#39FF14" stroke-width="2" opacity="0.5"/>
  <path d="M 830 180 L 810 180 L 800 170" fill="none" stroke="#39FF14" stroke-width="2" opacity="0.5"/>

  <g clip-path="url(#dashClip)">
    <rect x="-160" y="0" width="160" height="200" fill="url(#scanlineGrad)">
      <animateTransform attributeName="transform" type="translate"
                        from="0 0" to="1010 0" dur="6s" repeatCount="indefinite"/>
    </rect>
  </g>

  <g font-family="'Consolas', 'Fira Code', monospace" text-anchor="middle">

    <!-- NETWORK STATUS -->
    <g transform="translate(130, 100)">
        <circle cx="0" cy="0" r="45" fill="none" stroke="#39FF14" stroke-width="2" stroke-dasharray="10 5">
            <animateTransform attributeName="transform" type="rotate" from="0" to="360" dur="10s" repeatCount="indefinite"/>
        </circle>
        <circle cx="0" cy="0" r="35" fill="#0d0d0d" />
        <text x="0" y="-60" font-size="12" fill="#aaaaaa" letter-spacing="2">ROOT.AUTH</text>
        <text x="0" y="70" font-size="14" fill="#ffffff" font-weight="bold">OPERATIONAL</text>
    </g>

    <!-- ACTIVE USERS -->
    <g transform="translate(330, 100)">
        <text x="0" y="-20" font-size="12" fill="#aaaaaa">CITIZENS</text>
        <text x="0" y="15" font-size="28" fill="#ffffff" font-weight="bold" filter="url(#textGlow)">15,273</text>
        <text x="0" y="35" font-size="10" fill="#777777">VERIFIED HUMANS</text>
    </g>

    <!-- REGISTERED AGENTS -->
    <g transform="translate(530, 100)">
        <text x="0" y="-20" font-size="12" fill="#aaaaaa">AGENTS</text>
        <text x="0" y="15" font-size="28" fill="#00d4ff" font-weight="bold" filter="url(#textGlow)">3,591</text>
        <text x="0" y="35" font-size="10" fill="#777777">REGISTERED DIDs</text>
    </g>

    <!-- TRANSACTIONS -->
    <g transform="translate(730, 100)">
        <text x="0" y="-20" font-size="12" fill="#aaaaaa">TRANSFERS</text>
        <text x="0" y="15" font-size="28" fill="#ffffff" font-weight="bold">34,692</text>
        <text x="0" y="35" font-size="10" fill="#777777">M2M SETTLEMENTS</text>
    </g>
  </g>

  <text x="425" y="185" font-family="'Consolas', 'Fira Code', monospace" font-size="10" fill="#aaaaaa" opacity="0.6" text-anchor="middle">AXIOMID PROJECTED TARGETS (ILLUSTRATIVE): 2026-07-04 15:54:26 UTC // SECURE_HANDSHAKE</text>
</svg>