<svg width="850" height="200" viewBox="0 0 850 200" xmlns="http://www.w3.org/2000/svg">
  <defs>
    <pattern id="carbonFiber" width="10" height="10" patternUnits="userSpaceOnUse">
        <rect width="10" height="10" fill="#050505"/>
        <path d="M0,0 L5,5 L10,0 L5,-5 Z M5,5 L10,10 L15,5 L10,0 Z M-5,5 L0,10 L5,5 L0,0 Z M0,10 L5,15 L10,10 L5,5 Z" fill="#0d0d0d"/>
    </pattern>
    <filter id="textGlow">
      <feGaussianBlur stdDeviation="2" result="blur" />
      <feMerge>
        <feMergeNode in="blur"/>
        <feMergeNode in="SourceGraphic"/>
      </feMerge>
    </filter>
    <linearGradient id="neonBar" x1="0%" y1="0%" x2="100%" y2="0%">
        <stop offset="0%" stop-color="#111111"/>
        <stop offset="100%" stop-color="#39FF14"/>
    </linearGradient>
    <linearGradient id="scanlineGrad" x1="0%" y1="0%" x2="100%" y2="0%">
        <stop offset="0%" stop-color="#39FF14" stop-opacity="0"/>
        <stop offset="50%" stop-color="#39FF14" stop-opacity="0.18"/>
        <stop offset="100%" stop-color="#39FF14" stop-opacity="0"/>
    </linearGradient>
    <clipPath id="dashClip">
        <rect x="0" y="0" width="850" height="200" rx="12"/>
    </clipPath>
  </defs>

  <rect width="100%" height="100%" fill="url(#carbonFiber)" rx="12" stroke="#39FF14" stroke-width="1" stroke-opacity="0.3"/>
  <rect width="100%" height="100%" fill="#000000" opacity="0.6" rx="12" />
  <g><polygon points="281,-5 289.6,0 289.6,10 281,15 272.4,10 272.4,0" fill="none" stroke="#39FF14" stroke-width="1" opacity="0.05525067995764711"/>
<polygon points="662,16 670.6,21 670.6,31 662,36 653.4,31 653.4,21" fill="none" stroke="#39FF14" stroke-width="1" opacity="0.04806651244183911"/>
<polygon points="15,86 23.6,91 23.6,101 15,106 6.4,101 6.4,91" fill="none" stroke="#39FF14" stroke-width="1" opacity="0.06400384451284322"/>
<polygon points="621,130 629.6,135 629.6,145 621,150 612.4,145 612.4,135" fill="none" stroke="#39FF14" stroke-width="1" opacity="0.07081855770610261"/>
<polygon points="410,91 418.6,96 418.6,106 410,111 401.4,106 401.4,96" fill="none" stroke="#39FF14" stroke-width="1" opacity="0.02805166712541147"/>
<polygon points="272,160 280.6,165 280.6,175 272,180 263.4,175 263.4,165" fill="none" stroke="#39FF14" stroke-width="1" opacity="0.03178821252695018"/>
<polygon points="705,147 713.6,152 713.6,162 705,167 696.4,162 696.4,152" fill="none" stroke="#39FF14" stroke-width="1" opacity="0.04411537193675477"/>
<polygon points="563,187 571.6,192 571.6,202 563,207 554.4,202 554.4,192" fill="none" stroke="#39FF14" stroke-width="1" opacity="0.03937563944557736"/>
<polygon points="532,161 540.6,166 540.6,176 532,181 523.4,176 523.4,166" fill="none" stroke="#39FF14" stroke-width="1" opacity="0.03354291240254683"/>
<polygon points="680,62 688.6,67 688.6,77 680,82 671.4,77 671.4,67" fill="none" stroke="#39FF14" stroke-width="1" opacity="0.07356338109228885"/>
<polygon points="154,41 162.6,46 162.6,56 154,61 145.4,56 145.4,46" fill="none" stroke="#39FF14" stroke-width="1" opacity="0.056037256832935325"/>
<polygon points="385,179 393.6,184 393.6,194 385,199 376.4,194 376.4,184" fill="none" stroke="#39FF14" stroke-width="1" opacity="0.040573961729212474"/>
<polygon points="137,148 145.6,153 145.6,163 137,168 128.4,163 128.4,153" fill="none" stroke="#39FF14" stroke-width="1" opacity="0.054020590887532624"/>
<polygon points="450,12 458.6,17 458.6,27 450,32 441.4,27 441.4,17" fill="none" stroke="#39FF14" stroke-width="1" opacity="0.07127880073921054"/>
<polygon points="721,172 729.6,177 729.6,187 721,192 712.4,187 712.4,177" fill="none" stroke="#39FF14" stroke-width="1" opacity="0.05665244323605062"/>
<polygon points="594,124 602.6,129 602.6,139 594,144 585.4,139 585.4,129" fill="none" stroke="#39FF14" stroke-width="1" opacity="0.04108300432138729"/>
<polygon points="202,76 210.6,81 210.6,91 202,96 193.4,91 193.4,81" fill="none" stroke="#39FF14" stroke-width="1" opacity="0.07236026923991341"/>
<polygon points="460,34 468.6,39 468.6,49 460,54 451.4,49 451.4,39" fill="none" stroke="#39FF14" stroke-width="1" opacity="0.028267979665853704"/>
<polygon points="45,14 53.6,19 53.6,29 45,34 36.4,29 36.4,19" fill="none" stroke="#39FF14" stroke-width="1" opacity="0.053869597013952664"/>
<polygon points="278,155 286.6,160 286.6,170 278,175 269.4,170 269.4,160" fill="none" stroke="#39FF14" stroke-width="1" opacity="0.02467549776335007"/>
<polygon points="190,101 198.6,106 198.6,116 190,121 181.4,116 181.4,106" fill="none" stroke="#39FF14" stroke-width="1" opacity="0.029707741094492684"/>
<polygon points="47,12 55.6,17 55.6,27 47,32 38.4,27 38.4,17" fill="none" stroke="#39FF14" stroke-width="1" opacity="0.06665193304164055"/>
<polygon points="844,116 852.6,121 852.6,131 844,136 835.4,131 835.4,121" fill="none" stroke="#39FF14" stroke-width="1" opacity="0.06728487946418416"/>
<polygon points="840,89 848.6,94 848.6,104 840,109 831.4,104 831.4,94" fill="none" stroke="#39FF14" stroke-width="1" opacity="0.053918636052904215"/>
<polygon points="26,183 34.6,188 34.6,198 26,203 17.4,198 17.4,188" fill="none" stroke="#39FF14" stroke-width="1" opacity="0.022946459427231208"/>
<polygon points="302,91 310.6,96 310.6,106 302,111 293.4,106 293.4,96" fill="none" stroke="#39FF14" stroke-width="1" opacity="0.03177549391213977"/>
<polygon points="796,179 804.6,184 804.6,194 796,199 787.4,194 787.4,184" fill="none" stroke="#39FF14" stroke-width="1" opacity="0.02719999868675925"/>
<polygon points="572,21 580.6,26 580.6,36 572,41 563.4,36 563.4,26" fill="none" stroke="#39FF14" stroke-width="1" opacity="0.07655224134569392"/>
<polygon points="749,57 757.6,62 757.6,72 749,77 740.4,72 740.4,62" fill="none" stroke="#39FF14" stroke-width="1" opacity="0.03031101255136918"/>
<polygon points="667,140 675.6,145 675.6,155 667,160 658.4,155 658.4,145" fill="none" stroke="#39FF14" stroke-width="1" opacity="0.03332106864998163"/>
</g>

  <!-- HUD Decorative elements -->
  <path d="M 20 20 L 40 20 L 50 30" fill="none" stroke="#39FF14" stroke-width="2" opacity="0.5"/>
  <path d="M 830 180 L 810 180 L 800 170" fill="none" stroke="#39FF14" stroke-width="2" opacity="0.5"/>

  <g clip-path="url(#dashClip)">
    <rect x="-160" y="0" width="160" height="200" fill="url(#scanlineGrad)">
      <animateTransform attributeName="transform" type="translate"
                        from="0 0" to="1010 0" dur="6s" repeatCount="indefinite"/>
    </rect>
  </g>

  <g font-family="'Consolas', 'Fira Code', monospace" text-anchor="middle">

    <!-- NETWORK STATUS -->
    <g transform="translate(130, 100)">
        <circle cx="0" cy="0" r="45" fill="none" stroke="#39FF14" stroke-width="2" stroke-dasharray="10 5">
            <animateTransform attributeName="transform" type="rotate" from="0" to="360" dur="10s" repeatCount="indefinite"/>
        </circle>
        <circle cx="0" cy="0" r="35" fill="#0d0d0d" />
        <text x="0" y="-60" font-size="12" fill="#aaaaaa" letter-spacing="2">ROOT.AUTH</text>
        <text x="0" y="70" font-size="14" fill="#ffffff" font-weight="bold">OPERATIONAL</text>
    </g>

    <!-- ACTIVE USERS -->
    <g transform="translate(330, 100)">
        <text x="0" y="-20" font-size="12" fill="#aaaaaa">CITIZENS</text>
        <text x="0" y="15" font-size="28" fill="#ffffff" font-weight="bold" filter="url(#textGlow)">12,423</text>
        <text x="0" y="35" font-size="10" fill="#777777">VERIFIED HUMANS</text>
    </g>

    <!-- REGISTERED AGENTS -->
    <g transform="translate(530, 100)">
        <text x="0" y="-20" font-size="12" fill="#aaaaaa">AGENTS</text>
        <text x="0" y="15" font-size="28" fill="#00d4ff" font-weight="bold" filter="url(#textGlow)">3,410</text>
        <text x="0" y="35" font-size="10" fill="#777777">REGISTERED DIDs</text>
    </g>

    <!-- TRANSACTIONS -->
    <g transform="translate(730, 100)">
        <text x="0" y="-20" font-size="12" fill="#aaaaaa">TRANSFERS</text>
        <text x="0" y="15" font-size="28" fill="#ffffff" font-weight="bold">26,817</text>
        <text x="0" y="35" font-size="10" fill="#777777">M2M SETTLEMENTS</text>
    </g>
  </g>

  <text x="425" y="185" font-family="'Consolas', 'Fira Code', monospace" font-size="10" fill="#aaaaaa" opacity="0.6" text-anchor="middle">AXIOMID PROJECTED TARGETS (ILLUSTRATIVE): 2026-07-16 07:55:21 UTC // SECURE_HANDSHAKE</text>
</svg>