<svg width="850" height="200" viewBox="0 0 850 200" xmlns="http://www.w3.org/2000/svg">
  <defs>
    <pattern id="carbonFiber" width="10" height="10" patternUnits="userSpaceOnUse">
        <rect width="10" height="10" fill="#050505"/>
        <path d="M0,0 L5,5 L10,0 L5,-5 Z M5,5 L10,10 L15,5 L10,0 Z M-5,5 L0,10 L5,5 L0,0 Z M0,10 L5,15 L10,10 L5,5 Z" fill="#0d0d0d"/>
    </pattern>
    <filter id="textGlow">
      <feGaussianBlur stdDeviation="2" result="blur" />
      <feMerge>
        <feMergeNode in="blur"/>
        <feMergeNode in="SourceGraphic"/>
      </feMerge>
    </filter>
    <linearGradient id="neonBar" x1="0%" y1="0%" x2="100%" y2="0%">
        <stop offset="0%" stop-color="#111111"/>
        <stop offset="100%" stop-color="#39FF14"/>
    </linearGradient>
    <linearGradient id="scanlineGrad" x1="0%" y1="0%" x2="100%" y2="0%">
        <stop offset="0%" stop-color="#39FF14" stop-opacity="0"/>
        <stop offset="50%" stop-color="#39FF14" stop-opacity="0.18"/>
        <stop offset="100%" stop-color="#39FF14" stop-opacity="0"/>
    </linearGradient>
    <clipPath id="dashClip">
        <rect x="0" y="0" width="850" height="200" rx="12"/>
    </clipPath>
  </defs>

  <rect width="100%" height="100%" fill="url(#carbonFiber)" rx="12" stroke="#39FF14" stroke-width="1" stroke-opacity="0.3"/>
  <rect width="100%" height="100%" fill="#000000" opacity="0.6" rx="12" />
  <g><polygon points="695,142 703.6,147 703.6,157 695,162 686.4,157 686.4,147" fill="none" stroke="#39FF14" stroke-width="1" opacity="0.05643257250517532"/>
<polygon points="737,44 745.6,49 745.6,59 737,64 728.4,59 728.4,49" fill="none" stroke="#39FF14" stroke-width="1" opacity="0.06885329523066397"/>
<polygon points="412,41 420.6,46 420.6,56 412,61 403.4,56 403.4,46" fill="none" stroke="#39FF14" stroke-width="1" opacity="0.04277928691729967"/>
<polygon points="108,124 116.6,129 116.6,139 108,144 99.4,139 99.4,129" fill="none" stroke="#39FF14" stroke-width="1" opacity="0.0317909940196314"/>
<polygon points="394,-5 402.6,0 402.6,10 394,15 385.4,10 385.4,0" fill="none" stroke="#39FF14" stroke-width="1" opacity="0.05887091838286718"/>
<polygon points="755,55 763.6,60 763.6,70 755,75 746.4,70 746.4,60" fill="none" stroke="#39FF14" stroke-width="1" opacity="0.02950438798790425"/>
<polygon points="646,152 654.6,157 654.6,167 646,172 637.4,167 637.4,157" fill="none" stroke="#39FF14" stroke-width="1" opacity="0.05869585102938954"/>
<polygon points="766,125 774.6,130 774.6,140 766,145 757.4,140 757.4,130" fill="none" stroke="#39FF14" stroke-width="1" opacity="0.05328481172793077"/>
<polygon points="749,15 757.6,20 757.6,30 749,35 740.4,30 740.4,20" fill="none" stroke="#39FF14" stroke-width="1" opacity="0.06431777588317704"/>
<polygon points="318,87 326.6,92 326.6,102 318,107 309.4,102 309.4,92" fill="none" stroke="#39FF14" stroke-width="1" opacity="0.07072357064538973"/>
<polygon points="336,121 344.6,126 344.6,136 336,141 327.4,136 327.4,126" fill="none" stroke="#39FF14" stroke-width="1" opacity="0.07608459578764498"/>
<polygon points="311,131 319.6,136 319.6,146 311,151 302.4,146 302.4,136" fill="none" stroke="#39FF14" stroke-width="1" opacity="0.07561102838049857"/>
<polygon points="542,113 550.6,118 550.6,128 542,133 533.4,128 533.4,118" fill="none" stroke="#39FF14" stroke-width="1" opacity="0.06606360830532468"/>
<polygon points="195,70 203.6,75 203.6,85 195,90 186.4,85 186.4,75" fill="none" stroke="#39FF14" stroke-width="1" opacity="0.03156992287748323"/>
<polygon points="670,19 678.6,24 678.6,34 670,39 661.4,34 661.4,24" fill="none" stroke="#39FF14" stroke-width="1" opacity="0.06586584387954034"/>
<polygon points="163,16 171.6,21 171.6,31 163,36 154.4,31 154.4,21" fill="none" stroke="#39FF14" stroke-width="1" opacity="0.0652571413375064"/>
<polygon points="636,154 644.6,159 644.6,169 636,174 627.4,169 627.4,159" fill="none" stroke="#39FF14" stroke-width="1" opacity="0.04106819999838672"/>
<polygon points="7,21 15.6,26 15.6,36 7,41 -1.5999999999999996,36 -1.5999999999999996,26" fill="none" stroke="#39FF14" stroke-width="1" opacity="0.07627594137444887"/>
<polygon points="545,23 553.6,28 553.6,38 545,43 536.4,38 536.4,28" fill="none" stroke="#39FF14" stroke-width="1" opacity="0.06079238703426734"/>
<polygon points="765,122 773.6,127 773.6,137 765,142 756.4,137 756.4,127" fill="none" stroke="#39FF14" stroke-width="1" opacity="0.07304231986531845"/>
<polygon points="680,138 688.6,143 688.6,153 680,158 671.4,153 671.4,143" fill="none" stroke="#39FF14" stroke-width="1" opacity="0.03131837479473227"/>
<polygon points="43,164 51.6,169 51.6,179 43,184 34.4,179 34.4,169" fill="none" stroke="#39FF14" stroke-width="1" opacity="0.07420141325410315"/>
<polygon points="605,39 613.6,44 613.6,54 605,59 596.4,54 596.4,44" fill="none" stroke="#39FF14" stroke-width="1" opacity="0.0525030306930164"/>
<polygon points="106,136 114.6,141 114.6,151 106,156 97.4,151 97.4,141" fill="none" stroke="#39FF14" stroke-width="1" opacity="0.05655112293832862"/>
<polygon points="613,156 621.6,161 621.6,171 613,176 604.4,171 604.4,161" fill="none" stroke="#39FF14" stroke-width="1" opacity="0.07023326296651089"/>
<polygon points="171,166 179.6,171 179.6,181 171,186 162.4,181 162.4,171" fill="none" stroke="#39FF14" stroke-width="1" opacity="0.054472739004143816"/>
<polygon points="624,169 632.6,174 632.6,184 624,189 615.4,184 615.4,174" fill="none" stroke="#39FF14" stroke-width="1" opacity="0.06769942791503172"/>
<polygon points="461,7 469.6,12 469.6,22 461,27 452.4,22 452.4,12" fill="none" stroke="#39FF14" stroke-width="1" opacity="0.034715182085198845"/>
<polygon points="5,119 13.6,124 13.6,134 5,139 -3.5999999999999996,134 -3.5999999999999996,124" fill="none" stroke="#39FF14" stroke-width="1" opacity="0.03464002133630709"/>
<polygon points="652,132 660.6,137 660.6,147 652,152 643.4,147 643.4,137" fill="none" stroke="#39FF14" stroke-width="1" opacity="0.03563819019578421"/>
</g>

  <!-- HUD Decorative elements -->
  <path d="M 20 20 L 40 20 L 50 30" fill="none" stroke="#39FF14" stroke-width="2" opacity="0.5"/>
  <path d="M 830 180 L 810 180 L 800 170" fill="none" stroke="#39FF14" stroke-width="2" opacity="0.5"/>

  <g clip-path="url(#dashClip)">
    <rect x="-160" y="0" width="160" height="200" fill="url(#scanlineGrad)">
      <animateTransform attributeName="transform" type="translate"
                        from="0 0" to="1010 0" dur="6s" repeatCount="indefinite"/>
    </rect>
  </g>

  <g font-family="'Consolas', 'Fira Code', monospace" text-anchor="middle">

    <!-- NETWORK STATUS -->
    <g transform="translate(130, 100)">
        <circle cx="0" cy="0" r="45" fill="none" stroke="#39FF14" stroke-width="2" stroke-dasharray="10 5">
            <animateTransform attributeName="transform" type="rotate" from="0" to="360" dur="10s" repeatCount="indefinite"/>
        </circle>
        <circle cx="0" cy="0" r="35" fill="#0d0d0d" />
        <text x="0" y="-60" font-size="12" fill="#aaaaaa" letter-spacing="2">ROOT.AUTH</text>
        <text x="0" y="70" font-size="14" fill="#ffffff" font-weight="bold">OPERATIONAL</text>
    </g>

    <!-- ACTIVE USERS -->
    <g transform="translate(330, 100)">
        <text x="0" y="-20" font-size="12" fill="#aaaaaa">CITIZENS</text>
        <text x="0" y="15" font-size="28" fill="#ffffff" font-weight="bold" filter="url(#textGlow)">13,440</text>
        <text x="0" y="35" font-size="10" fill="#777777">VERIFIED HUMANS</text>
    </g>

    <!-- REGISTERED AGENTS -->
    <g transform="translate(530, 100)">
        <text x="0" y="-20" font-size="12" fill="#aaaaaa">AGENTS</text>
        <text x="0" y="15" font-size="28" fill="#00d4ff" font-weight="bold" filter="url(#textGlow)">3,392</text>
        <text x="0" y="35" font-size="10" fill="#777777">REGISTERED DIDs</text>
    </g>

    <!-- TRANSACTIONS -->
    <g transform="translate(730, 100)">
        <text x="0" y="-20" font-size="12" fill="#aaaaaa">TRANSFERS</text>
        <text x="0" y="15" font-size="28" fill="#ffffff" font-weight="bold">33,772</text>
        <text x="0" y="35" font-size="10" fill="#777777">M2M SETTLEMENTS</text>
    </g>
  </g>

  <text x="425" y="185" font-family="'Consolas', 'Fira Code', monospace" font-size="10" fill="#aaaaaa" opacity="0.6" text-anchor="middle">AXIOMID PROJECTED TARGETS (ILLUSTRATIVE): 2026-06-29 13:23:12 UTC // SECURE_HANDSHAKE</text>
</svg>