<svg width="850" height="200" viewBox="0 0 850 200" xmlns="http://www.w3.org/2000/svg">
  <defs>
    <!-- Carbon Fiber Pattern -->
    <pattern id="carbonFiber" width="10" height="10" patternUnits="userSpaceOnUse">
        <rect width="10" height="10" fill="#050505"/>
        <path d="M0,0 L5,5 L10,0 L5,-5 Z M5,5 L10,10 L15,5 L10,0 Z M-5,5 L0,10 L5,5 L0,0 Z M0,10 L5,15 L10,10 L5,5 Z" fill="#0d0d0d"/>
    </pattern>
    <filter id="glassmorphism">
      <feGaussianBlur stdDeviation="3" result="blur" />
      <feColorMatrix type="matrix" values="1 0 0 0 0  0 1 0 0 0  0 0 1 0 0  0 0 0 18 -7" result="glow" />
      <feBlend in="SourceGraphic" in2="glow" mode="normal" />
    </filter>
    <filter id="textGlow">
      <feGaussianBlur stdDeviation="2" result="blur" />
      <feMerge>
        <feMergeNode in="blur"/>
        <feMergeNode in="SourceGraphic"/>
      </feMerge>
    </filter>
    <linearGradient id="neonBar" x1="0%" y1="0%" x2="100%" y2="0%">
        <stop offset="0%" stop-color="#111111"/>
        <stop offset="100%" stop-color="#39FF14"/>
    </linearGradient>
  </defs>

  <rect width="100%" height="100%" fill="url(#carbonFiber)" rx="12" stroke="#39FF14" stroke-width="1" stroke-opacity="0.3"/>
  <rect width="100%" height="100%" fill="#000000" opacity="0.6" rx="12" />
  <g><polygon points="632,107 640.6,112 640.6,122 632,127 623.4,122 623.4,112" fill="none" stroke="#39FF14" stroke-width="1" opacity="0.06981060629263615"/>
<polygon points="274,9 282.6,14 282.6,24 274,29 265.4,24 265.4,14" fill="none" stroke="#39FF14" stroke-width="1" opacity="0.07727009312898989"/>
<polygon points="206,60 214.6,65 214.6,75 206,80 197.4,75 197.4,65" fill="none" stroke="#39FF14" stroke-width="1" opacity="0.0243318151772906"/>
<polygon points="105,44 113.6,49 113.6,59 105,64 96.4,59 96.4,49" fill="none" stroke="#39FF14" stroke-width="1" opacity="0.06839394232899457"/>
<polygon points="243,124 251.6,129 251.6,139 243,144 234.4,139 234.4,129" fill="none" stroke="#39FF14" stroke-width="1" opacity="0.03494634991994721"/>
<polygon points="607,151 615.6,156 615.6,166 607,171 598.4,166 598.4,156" fill="none" stroke="#39FF14" stroke-width="1" opacity="0.04760193272175812"/>
<polygon points="100,13 108.6,18 108.6,28 100,33 91.4,28 91.4,18" fill="none" stroke="#39FF14" stroke-width="1" opacity="0.07523803846455705"/>
<polygon points="308,28 316.6,33 316.6,43 308,48 299.4,43 299.4,33" fill="none" stroke="#39FF14" stroke-width="1" opacity="0.02033245602721699"/>
<polygon points="444,-7 452.6,-2 452.6,8 444,13 435.4,8 435.4,-2" fill="none" stroke="#39FF14" stroke-width="1" opacity="0.06859112164536484"/>
<polygon points="551,181 559.6,186 559.6,196 551,201 542.4,196 542.4,186" fill="none" stroke="#39FF14" stroke-width="1" opacity="0.07953423450783181"/>
<polygon points="293,92 301.6,97 301.6,107 293,112 284.4,107 284.4,97" fill="none" stroke="#39FF14" stroke-width="1" opacity="0.020408628901475594"/>
<polygon points="481,114 489.6,119 489.6,129 481,134 472.4,129 472.4,119" fill="none" stroke="#39FF14" stroke-width="1" opacity="0.028916296902330087"/>
<polygon points="150,157 158.6,162 158.6,172 150,177 141.4,172 141.4,162" fill="none" stroke="#39FF14" stroke-width="1" opacity="0.044070478024307275"/>
<polygon points="64,109 72.6,114 72.6,124 64,129 55.4,124 55.4,114" fill="none" stroke="#39FF14" stroke-width="1" opacity="0.024937060832068952"/>
<polygon points="48,150 56.6,155 56.6,165 48,170 39.4,165 39.4,155" fill="none" stroke="#39FF14" stroke-width="1" opacity="0.04871391477777837"/>
<polygon points="594,87 602.6,92 602.6,102 594,107 585.4,102 585.4,92" fill="none" stroke="#39FF14" stroke-width="1" opacity="0.05324303215251616"/>
<polygon points="819,82 827.6,87 827.6,97 819,102 810.4,97 810.4,87" fill="none" stroke="#39FF14" stroke-width="1" opacity="0.04989145538831372"/>
<polygon points="404,182 412.6,187 412.6,197 404,202 395.4,197 395.4,187" fill="none" stroke="#39FF14" stroke-width="1" opacity="0.040466548299217545"/>
<polygon points="698,133 706.6,138 706.6,148 698,153 689.4,148 689.4,138" fill="none" stroke="#39FF14" stroke-width="1" opacity="0.06862313211843046"/>
<polygon points="38,160 46.6,165 46.6,175 38,180 29.4,175 29.4,165" fill="none" stroke="#39FF14" stroke-width="1" opacity="0.03929835520264983"/>
<polygon points="29,186 37.6,191 37.6,201 29,206 20.4,201 20.4,191" fill="none" stroke="#39FF14" stroke-width="1" opacity="0.06903424351994332"/>
<polygon points="111,55 119.6,60 119.6,70 111,75 102.4,70 102.4,60" fill="none" stroke="#39FF14" stroke-width="1" opacity="0.0565997592825689"/>
<polygon points="379,167 387.6,172 387.6,182 379,187 370.4,182 370.4,172" fill="none" stroke="#39FF14" stroke-width="1" opacity="0.055056139110823424"/>
<polygon points="144,184 152.6,189 152.6,199 144,204 135.4,199 135.4,189" fill="none" stroke="#39FF14" stroke-width="1" opacity="0.05604828668385339"/>
<polygon points="41,122 49.6,127 49.6,137 41,142 32.4,137 32.4,127" fill="none" stroke="#39FF14" stroke-width="1" opacity="0.06938307737168165"/>
<polygon points="640,47 648.6,52 648.6,62 640,67 631.4,62 631.4,52" fill="none" stroke="#39FF14" stroke-width="1" opacity="0.07078273376501452"/>
<polygon points="304,89 312.6,94 312.6,104 304,109 295.4,104 295.4,94" fill="none" stroke="#39FF14" stroke-width="1" opacity="0.07792054049010506"/>
<polygon points="97,122 105.6,127 105.6,137 97,142 88.4,137 88.4,127" fill="none" stroke="#39FF14" stroke-width="1" opacity="0.06732522323084525"/>
<polygon points="194,83 202.6,88 202.6,98 194,103 185.4,98 185.4,88" fill="none" stroke="#39FF14" stroke-width="1" opacity="0.037216653558047194"/>
<polygon points="593,44 601.6,49 601.6,59 593,64 584.4,59 584.4,49" fill="none" stroke="#39FF14" stroke-width="1" opacity="0.06294321962728114"/>
</g>

  <!-- HUD Decorative elements -->
  <path d="M 20 20 L 40 20 L 50 30" fill="none" stroke="#39FF14" stroke-width="2" opacity="0.5"/>
  <path d="M 830 180 L 810 180 L 800 170" fill="none" stroke="#39FF14" stroke-width="2" opacity="0.5"/>
  <rect x="20" y="100" width="2" height="40" fill="#ffffff" opacity="0.4"/>
  <rect x="828" y="60" width="2" height="40" fill="#39FF14" opacity="0.6"/>

  <g font-family="'Consolas', 'Fira Code', monospace" text-anchor="middle">

    <!-- SYSTEM STATUS -->
    <g transform="translate(130, 100)">
        <circle cx="0" cy="0" r="45" fill="none" stroke="#111111" stroke-width="8" />
        <circle cx="0" cy="0" r="45" fill="none" stroke="#39FF14" stroke-width="2" stroke-dasharray="10 5">
            <animateTransform attributeName="transform" type="rotate" from="0" to="360" dur="10s" repeatCount="indefinite"/>
        </circle>
        <circle cx="0" cy="0" r="35" fill="#0d0d0d" />
        <circle cx="0" cy="0" r="6" fill="#39FF14" filter="url(#textGlow)">
            <animate attributeName="opacity" values="1;0.3;1" dur="2s" repeatCount="indefinite"/>
        </circle>
        <text x="0" y="-60" font-size="12" fill="#aaaaaa" letter-spacing="2">SYS.CORE</text>
        <text x="0" y="70" font-size="14" fill="#ffffff" font-weight="bold">ONLINE</text>
    </g>

    <!-- LIVE TRAFFIC -->
    <g transform="translate(330, 100)">
        <rect x="-60" y="-45" width="120" height="90" fill="#0a0a0a" rx="8" stroke="#39FF14" stroke-opacity="0.4" stroke-width="1"/>
        <text x="0" y="-20" font-size="12" fill="#aaaaaa">NETWORK LOAD</text>
        <text x="0" y="15" font-size="28" fill="#ffffff" font-weight="bold" filter="url(#textGlow)">3670</text>
        <text x="0" y="35" font-size="10" fill="#777777">ACTIVE SESSIONS</text>
    </g>

    <!-- ACTIVE AGENTS -->
    <g transform="translate(530, 100)">
        <rect x="-60" y="-45" width="120" height="90" fill="#0a0a0a" rx="8" stroke="#39FF14" stroke-opacity="0.4" stroke-width="1"/>
        <text x="0" y="-20" font-size="12" fill="#aaaaaa">SWARM ENTITIES</text>
        <text x="0" y="15" font-size="28" fill="#ffffff" font-weight="bold" filter="url(#textGlow)">146</text>
        <text x="0" y="35" font-size="10" fill="#777777">AUTONOMOUS</text>
    </g>

    <!-- UPTIME -->
    <g transform="translate(730, 100)">
        <path d="M -40 -35 L 40 -35 L 50 -25 L 50 35 L -40 35 L -50 25 Z" fill="#0a0a0a" stroke="#39FF14" stroke-opacity="0.4" stroke-width="1"/>
        <text x="0" y="-15" font-size="12" fill="#aaaaaa">CONTINUITY</text>
        <text x="0" y="15" font-size="24" fill="#ffffff" font-weight="bold">287<tspan font-size="14" fill="#777777">d</tspan></text>
        <rect x="-35" y="25" width="70" height="4" fill="url(#neonBar)" rx="2"/>
    </g>
  </g>

  <text x="425" y="185" font-family="'Consolas', 'Fira Code', monospace" font-size="10" fill="#aaaaaa" opacity="0.6" text-anchor="middle">LAST TELEMETRY PING: 2026-05-09 06:49:44 UTC // ENCRYPTED_TUNNEL</text>
</svg>