<svg width="850" height="200" viewBox="0 0 850 200" xmlns="http://www.w3.org/2000/svg">
  <defs>
    <!-- Carbon Fiber Pattern -->
    <pattern id="carbonFiber" width="10" height="10" patternUnits="userSpaceOnUse">
        <rect width="10" height="10" fill="#050505"/>
        <path d="M0,0 L5,5 L10,0 L5,-5 Z M5,5 L10,10 L15,5 L10,0 Z M-5,5 L0,10 L5,5 L0,0 Z M0,10 L5,15 L10,10 L5,5 Z" fill="#0d0d0d"/>
    </pattern>
    <filter id="glassmorphism">
      <feGaussianBlur stdDeviation="3" result="blur" />
      <feColorMatrix type="matrix" values="1 0 0 0 0  0 1 0 0 0  0 0 1 0 0  0 0 0 18 -7" result="glow" />
      <feBlend in="SourceGraphic" in2="glow" mode="normal" />
    </filter>
    <filter id="textGlow">
      <feGaussianBlur stdDeviation="2" result="blur" />
      <feMerge>
        <feMergeNode in="blur"/>
        <feMergeNode in="SourceGraphic"/>
      </feMerge>
    </filter>
    <linearGradient id="neonBar" x1="0%" y1="0%" x2="100%" y2="0%">
        <stop offset="0%" stop-color="#111111"/>
        <stop offset="100%" stop-color="#39FF14"/>
    </linearGradient>
  </defs>

  <rect width="100%" height="100%" fill="url(#carbonFiber)" rx="12" stroke="#39FF14" stroke-width="1" stroke-opacity="0.3"/>
  <rect width="100%" height="100%" fill="#000000" opacity="0.6" rx="12" />
  <g><polygon points="604,188 612.6,193 612.6,203 604,208 595.4,203 595.4,193" fill="none" stroke="#39FF14" stroke-width="1" opacity="0.040266792245639865"/>
<polygon points="718,-2 726.6,3 726.6,13 718,18 709.4,13 709.4,3" fill="none" stroke="#39FF14" stroke-width="1" opacity="0.07497849852059581"/>
<polygon points="148,47 156.6,52 156.6,62 148,67 139.4,62 139.4,52" fill="none" stroke="#39FF14" stroke-width="1" opacity="0.051454427634120406"/>
<polygon points="27,161 35.6,166 35.6,176 27,181 18.4,176 18.4,166" fill="none" stroke="#39FF14" stroke-width="1" opacity="0.03212240216868884"/>
<polygon points="808,-3 816.6,2 816.6,12 808,17 799.4,12 799.4,2" fill="none" stroke="#39FF14" stroke-width="1" opacity="0.04456759328716981"/>
<polygon points="848,15 856.6,20 856.6,30 848,35 839.4,30 839.4,20" fill="none" stroke="#39FF14" stroke-width="1" opacity="0.027164612528211323"/>
<polygon points="47,37 55.6,42 55.6,52 47,57 38.4,52 38.4,42" fill="none" stroke="#39FF14" stroke-width="1" opacity="0.04397347404419426"/>
<polygon points="534,173 542.6,178 542.6,188 534,193 525.4,188 525.4,178" fill="none" stroke="#39FF14" stroke-width="1" opacity="0.03840623379514253"/>
<polygon points="401,139 409.6,144 409.6,154 401,159 392.4,154 392.4,144" fill="none" stroke="#39FF14" stroke-width="1" opacity="0.05373904381143524"/>
<polygon points="102,188 110.6,193 110.6,203 102,208 93.4,203 93.4,193" fill="none" stroke="#39FF14" stroke-width="1" opacity="0.06703116725997908"/>
<polygon points="719,80 727.6,85 727.6,95 719,100 710.4,95 710.4,85" fill="none" stroke="#39FF14" stroke-width="1" opacity="0.07145000313133329"/>
<polygon points="432,147 440.6,152 440.6,162 432,167 423.4,162 423.4,152" fill="none" stroke="#39FF14" stroke-width="1" opacity="0.026301495613687095"/>
<polygon points="475,86 483.6,91 483.6,101 475,106 466.4,101 466.4,91" fill="none" stroke="#39FF14" stroke-width="1" opacity="0.026329812142338403"/>
<polygon points="262,147 270.6,152 270.6,162 262,167 253.4,162 253.4,152" fill="none" stroke="#39FF14" stroke-width="1" opacity="0.07549842326276365"/>
<polygon points="781,153 789.6,158 789.6,168 781,173 772.4,168 772.4,158" fill="none" stroke="#39FF14" stroke-width="1" opacity="0.030164086429193868"/>
<polygon points="446,134 454.6,139 454.6,149 446,154 437.4,149 437.4,139" fill="none" stroke="#39FF14" stroke-width="1" opacity="0.028193029230763472"/>
<polygon points="271,32 279.6,37 279.6,47 271,52 262.4,47 262.4,37" fill="none" stroke="#39FF14" stroke-width="1" opacity="0.047279218235823095"/>
<polygon points="537,15 545.6,20 545.6,30 537,35 528.4,30 528.4,20" fill="none" stroke="#39FF14" stroke-width="1" opacity="0.04798168228167814"/>
<polygon points="174,-8 182.6,-3 182.6,7 174,12 165.4,7 165.4,-3" fill="none" stroke="#39FF14" stroke-width="1" opacity="0.05876882659210321"/>
<polygon points="507,80 515.6,85 515.6,95 507,100 498.4,95 498.4,85" fill="none" stroke="#39FF14" stroke-width="1" opacity="0.06730619166516419"/>
<polygon points="301,143 309.6,148 309.6,158 301,163 292.4,158 292.4,148" fill="none" stroke="#39FF14" stroke-width="1" opacity="0.052622400333669064"/>
<polygon points="190,105 198.6,110 198.6,120 190,125 181.4,120 181.4,110" fill="none" stroke="#39FF14" stroke-width="1" opacity="0.05559490647402379"/>
<polygon points="770,66 778.6,71 778.6,81 770,86 761.4,81 761.4,71" fill="none" stroke="#39FF14" stroke-width="1" opacity="0.06174350808890275"/>
<polygon points="42,158 50.6,163 50.6,173 42,178 33.4,173 33.4,163" fill="none" stroke="#39FF14" stroke-width="1" opacity="0.03440140078449398"/>
<polygon points="711,9 719.6,14 719.6,24 711,29 702.4,24 702.4,14" fill="none" stroke="#39FF14" stroke-width="1" opacity="0.04341968754963853"/>
<polygon points="319,155 327.6,160 327.6,170 319,175 310.4,170 310.4,160" fill="none" stroke="#39FF14" stroke-width="1" opacity="0.074464313753144"/>
<polygon points="421,181 429.6,186 429.6,196 421,201 412.4,196 412.4,186" fill="none" stroke="#39FF14" stroke-width="1" opacity="0.031059514328790234"/>
<polygon points="737,31 745.6,36 745.6,46 737,51 728.4,46 728.4,36" fill="none" stroke="#39FF14" stroke-width="1" opacity="0.023909573280622935"/>
<polygon points="454,159 462.6,164 462.6,174 454,179 445.4,174 445.4,164" fill="none" stroke="#39FF14" stroke-width="1" opacity="0.07552198744713703"/>
<polygon points="680,16 688.6,21 688.6,31 680,36 671.4,31 671.4,21" fill="none" stroke="#39FF14" stroke-width="1" opacity="0.021832818342286914"/>
</g>

  <!-- HUD Decorative elements -->
  <path d="M 20 20 L 40 20 L 50 30" fill="none" stroke="#39FF14" stroke-width="2" opacity="0.5"/>
  <path d="M 830 180 L 810 180 L 800 170" fill="none" stroke="#39FF14" stroke-width="2" opacity="0.5"/>
  <rect x="20" y="100" width="2" height="40" fill="#ffffff" opacity="0.4"/>
  <rect x="828" y="60" width="2" height="40" fill="#39FF14" opacity="0.6"/>

  <g font-family="'Consolas', 'Fira Code', monospace" text-anchor="middle">

    <!-- SYSTEM STATUS -->
    <g transform="translate(130, 100)">
        <circle cx="0" cy="0" r="45" fill="none" stroke="#111111" stroke-width="8" />
        <circle cx="0" cy="0" r="45" fill="none" stroke="#39FF14" stroke-width="2" stroke-dasharray="10 5">
            <animateTransform attributeName="transform" type="rotate" from="0" to="360" dur="10s" repeatCount="indefinite"/>
        </circle>
        <circle cx="0" cy="0" r="35" fill="#0d0d0d" />
        <circle cx="0" cy="0" r="6" fill="#39FF14" filter="url(#textGlow)">
            <animate attributeName="opacity" values="1;0.3;1" dur="2s" repeatCount="indefinite"/>
        </circle>
        <text x="0" y="-60" font-size="12" fill="#aaaaaa" letter-spacing="2">SYS.CORE</text>
        <text x="0" y="70" font-size="14" fill="#ffffff" font-weight="bold">ONLINE</text>
    </g>

    <!-- LIVE TRAFFIC -->
    <g transform="translate(330, 100)">
        <rect x="-60" y="-45" width="120" height="90" fill="#0a0a0a" rx="8" stroke="#39FF14" stroke-opacity="0.4" stroke-width="1"/>
        <text x="0" y="-20" font-size="12" fill="#aaaaaa">NETWORK LOAD</text>
        <text x="0" y="15" font-size="28" fill="#ffffff" font-weight="bold" filter="url(#textGlow)">6945</text>
        <text x="0" y="35" font-size="10" fill="#777777">ACTIVE SESSIONS</text>
    </g>

    <!-- ACTIVE AGENTS -->
    <g transform="translate(530, 100)">
        <rect x="-60" y="-45" width="120" height="90" fill="#0a0a0a" rx="8" stroke="#39FF14" stroke-opacity="0.4" stroke-width="1"/>
        <text x="0" y="-20" font-size="12" fill="#aaaaaa">SWARM ENTITIES</text>
        <text x="0" y="15" font-size="28" fill="#ffffff" font-weight="bold" filter="url(#textGlow)">172</text>
        <text x="0" y="35" font-size="10" fill="#777777">AUTONOMOUS</text>
    </g>

    <!-- UPTIME -->
    <g transform="translate(730, 100)">
        <path d="M -40 -35 L 40 -35 L 50 -25 L 50 35 L -40 35 L -50 25 Z" fill="#0a0a0a" stroke="#39FF14" stroke-opacity="0.4" stroke-width="1"/>
        <text x="0" y="-15" font-size="12" fill="#aaaaaa">CONTINUITY</text>
        <text x="0" y="15" font-size="24" fill="#ffffff" font-weight="bold">396<tspan font-size="14" fill="#777777">d</tspan></text>
        <rect x="-35" y="25" width="70" height="4" fill="url(#neonBar)" rx="2"/>
    </g>
  </g>

  <text x="425" y="185" font-family="'Consolas', 'Fira Code', monospace" font-size="10" fill="#aaaaaa" opacity="0.6" text-anchor="middle">LAST TELEMETRY PING: 2026-05-05 18:37:23 UTC // ENCRYPTED_TUNNEL</text>
</svg>