<svg width="850" height="200" viewBox="0 0 850 200" xmlns="http://www.w3.org/2000/svg">
  <defs>
    <!-- Carbon Fiber Pattern -->
    <pattern id="carbonFiber" width="10" height="10" patternUnits="userSpaceOnUse">
        <rect width="10" height="10" fill="#050505"/>
        <path d="M0,0 L5,5 L10,0 L5,-5 Z M5,5 L10,10 L15,5 L10,0 Z M-5,5 L0,10 L5,5 L0,0 Z M0,10 L5,15 L10,10 L5,5 Z" fill="#0d0d0d"/>
    </pattern>
    <filter id="glassmorphism">
      <feGaussianBlur stdDeviation="3" result="blur" />
      <feColorMatrix type="matrix" values="1 0 0 0 0  0 1 0 0 0  0 0 1 0 0  0 0 0 18 -7" result="glow" />
      <feBlend in="SourceGraphic" in2="glow" mode="normal" />
    </filter>
    <filter id="textGlow">
      <feGaussianBlur stdDeviation="2" result="blur" />
      <feMerge>
        <feMergeNode in="blur"/>
        <feMergeNode in="SourceGraphic"/>
      </feMerge>
    </filter>
    <linearGradient id="neonBar" x1="0%" y1="0%" x2="100%" y2="0%">
        <stop offset="0%" stop-color="#111111"/>
        <stop offset="100%" stop-color="#39FF14"/>
    </linearGradient>
  </defs>

  <rect width="100%" height="100%" fill="url(#carbonFiber)" rx="12" stroke="#39FF14" stroke-width="1" stroke-opacity="0.3"/>
  <rect width="100%" height="100%" fill="#000000" opacity="0.6" rx="12" />
  <g><polygon points="324,157 332.6,162 332.6,172 324,177 315.4,172 315.4,162" fill="none" stroke="#39FF14" stroke-width="1" opacity="0.04453017616669004"/>
<polygon points="590,19 598.6,24 598.6,34 590,39 581.4,34 581.4,24" fill="none" stroke="#39FF14" stroke-width="1" opacity="0.04116654710150556"/>
<polygon points="797,55 805.6,60 805.6,70 797,75 788.4,70 788.4,60" fill="none" stroke="#39FF14" stroke-width="1" opacity="0.041581220341632"/>
<polygon points="67,87 75.6,92 75.6,102 67,107 58.4,102 58.4,92" fill="none" stroke="#39FF14" stroke-width="1" opacity="0.0361296578477436"/>
<polygon points="365,118 373.6,123 373.6,133 365,138 356.4,133 356.4,123" fill="none" stroke="#39FF14" stroke-width="1" opacity="0.05148115242702661"/>
<polygon points="186,19 194.6,24 194.6,34 186,39 177.4,34 177.4,24" fill="none" stroke="#39FF14" stroke-width="1" opacity="0.04199729627690131"/>
<polygon points="732,27 740.6,32 740.6,42 732,47 723.4,42 723.4,32" fill="none" stroke="#39FF14" stroke-width="1" opacity="0.06990902978623369"/>
<polygon points="646,165 654.6,170 654.6,180 646,185 637.4,180 637.4,170" fill="none" stroke="#39FF14" stroke-width="1" opacity="0.04260220925068045"/>
<polygon points="394,148 402.6,153 402.6,163 394,168 385.4,163 385.4,153" fill="none" stroke="#39FF14" stroke-width="1" opacity="0.021967121190076856"/>
<polygon points="584,108 592.6,113 592.6,123 584,128 575.4,123 575.4,113" fill="none" stroke="#39FF14" stroke-width="1" opacity="0.07444813010361279"/>
<polygon points="600,160 608.6,165 608.6,175 600,180 591.4,175 591.4,165" fill="none" stroke="#39FF14" stroke-width="1" opacity="0.03665030533797212"/>
<polygon points="522,50 530.6,55 530.6,65 522,70 513.4,65 513.4,55" fill="none" stroke="#39FF14" stroke-width="1" opacity="0.055646992174945994"/>
<polygon points="229,76 237.6,81 237.6,91 229,96 220.4,91 220.4,81" fill="none" stroke="#39FF14" stroke-width="1" opacity="0.06010618507419119"/>
<polygon points="775,45 783.6,50 783.6,60 775,65 766.4,60 766.4,50" fill="none" stroke="#39FF14" stroke-width="1" opacity="0.05341385832736255"/>
<polygon points="438,147 446.6,152 446.6,162 438,167 429.4,162 429.4,152" fill="none" stroke="#39FF14" stroke-width="1" opacity="0.04221870819770489"/>
<polygon points="298,-9 306.6,-4 306.6,6 298,11 289.4,6 289.4,-4" fill="none" stroke="#39FF14" stroke-width="1" opacity="0.054500334221891114"/>
<polygon points="655,157 663.6,162 663.6,172 655,177 646.4,172 646.4,162" fill="none" stroke="#39FF14" stroke-width="1" opacity="0.0448798183210233"/>
<polygon points="182,56 190.6,61 190.6,71 182,76 173.4,71 173.4,61" fill="none" stroke="#39FF14" stroke-width="1" opacity="0.07692322996368442"/>
<polygon points="155,150 163.6,155 163.6,165 155,170 146.4,165 146.4,155" fill="none" stroke="#39FF14" stroke-width="1" opacity="0.04527235600009322"/>
<polygon points="784,55 792.6,60 792.6,70 784,75 775.4,70 775.4,60" fill="none" stroke="#39FF14" stroke-width="1" opacity="0.022664027338879813"/>
<polygon points="602,155 610.6,160 610.6,170 602,175 593.4,170 593.4,160" fill="none" stroke="#39FF14" stroke-width="1" opacity="0.021410907732397434"/>
<polygon points="777,142 785.6,147 785.6,157 777,162 768.4,157 768.4,147" fill="none" stroke="#39FF14" stroke-width="1" opacity="0.05375564269471521"/>
<polygon points="802,131 810.6,136 810.6,146 802,151 793.4,146 793.4,136" fill="none" stroke="#39FF14" stroke-width="1" opacity="0.02333048943512271"/>
<polygon points="541,10 549.6,15 549.6,25 541,30 532.4,25 532.4,15" fill="none" stroke="#39FF14" stroke-width="1" opacity="0.04815682797198252"/>
<polygon points="328,78 336.6,83 336.6,93 328,98 319.4,93 319.4,83" fill="none" stroke="#39FF14" stroke-width="1" opacity="0.021062112750694556"/>
<polygon points="754,105 762.6,110 762.6,120 754,125 745.4,120 745.4,110" fill="none" stroke="#39FF14" stroke-width="1" opacity="0.0735506429463826"/>
<polygon points="443,-3 451.6,2 451.6,12 443,17 434.4,12 434.4,2" fill="none" stroke="#39FF14" stroke-width="1" opacity="0.07853518358306069"/>
<polygon points="714,50 722.6,55 722.6,65 714,70 705.4,65 705.4,55" fill="none" stroke="#39FF14" stroke-width="1" opacity="0.046556354486492355"/>
<polygon points="422,81 430.6,86 430.6,96 422,101 413.4,96 413.4,86" fill="none" stroke="#39FF14" stroke-width="1" opacity="0.03635714309545139"/>
<polygon points="76,80 84.6,85 84.6,95 76,100 67.4,95 67.4,85" fill="none" stroke="#39FF14" stroke-width="1" opacity="0.028233091952376187"/>
</g>

  <!-- HUD Decorative elements -->
  <path d="M 20 20 L 40 20 L 50 30" fill="none" stroke="#39FF14" stroke-width="2" opacity="0.5"/>
  <path d="M 830 180 L 810 180 L 800 170" fill="none" stroke="#39FF14" stroke-width="2" opacity="0.5"/>
  <rect x="20" y="100" width="2" height="40" fill="#ffffff" opacity="0.4"/>
  <rect x="828" y="60" width="2" height="40" fill="#39FF14" opacity="0.6"/>

  <g font-family="'Consolas', 'Fira Code', monospace" text-anchor="middle">

    <!-- SYSTEM STATUS -->
    <g transform="translate(130, 100)">
        <circle cx="0" cy="0" r="45" fill="none" stroke="#111111" stroke-width="8" />
        <circle cx="0" cy="0" r="45" fill="none" stroke="#39FF14" stroke-width="2" stroke-dasharray="10 5">
            <animateTransform attributeName="transform" type="rotate" from="0" to="360" dur="10s" repeatCount="indefinite"/>
        </circle>
        <circle cx="0" cy="0" r="35" fill="#0d0d0d" />
        <circle cx="0" cy="0" r="6" fill="#39FF14" filter="url(#textGlow)">
            <animate attributeName="opacity" values="1;0.3;1" dur="2s" repeatCount="indefinite"/>
        </circle>
        <text x="0" y="-60" font-size="12" fill="#aaaaaa" letter-spacing="2">SYS.CORE</text>
        <text x="0" y="70" font-size="14" fill="#ffffff" font-weight="bold">ONLINE</text>
    </g>

    <!-- LIVE TRAFFIC -->
    <g transform="translate(330, 100)">
        <rect x="-60" y="-45" width="120" height="90" fill="#0a0a0a" rx="8" stroke="#39FF14" stroke-opacity="0.4" stroke-width="1"/>
        <text x="0" y="-20" font-size="12" fill="#aaaaaa">NETWORK LOAD</text>
        <text x="0" y="15" font-size="28" fill="#ffffff" font-weight="bold" filter="url(#textGlow)">3959</text>
        <text x="0" y="35" font-size="10" fill="#777777">ACTIVE SESSIONS</text>
    </g>

    <!-- ACTIVE AGENTS -->
    <g transform="translate(530, 100)">
        <rect x="-60" y="-45" width="120" height="90" fill="#0a0a0a" rx="8" stroke="#39FF14" stroke-opacity="0.4" stroke-width="1"/>
        <text x="0" y="-20" font-size="12" fill="#aaaaaa">SWARM ENTITIES</text>
        <text x="0" y="15" font-size="28" fill="#ffffff" font-weight="bold" filter="url(#textGlow)">109</text>
        <text x="0" y="35" font-size="10" fill="#777777">AUTONOMOUS</text>
    </g>

    <!-- UPTIME -->
    <g transform="translate(730, 100)">
        <path d="M -40 -35 L 40 -35 L 50 -25 L 50 35 L -40 35 L -50 25 Z" fill="#0a0a0a" stroke="#39FF14" stroke-opacity="0.4" stroke-width="1"/>
        <text x="0" y="-15" font-size="12" fill="#aaaaaa">CONTINUITY</text>
        <text x="0" y="15" font-size="24" fill="#ffffff" font-weight="bold">252<tspan font-size="14" fill="#777777">d</tspan></text>
        <rect x="-35" y="25" width="70" height="4" fill="url(#neonBar)" rx="2"/>
    </g>
  </g>

  <text x="425" y="185" font-family="'Consolas', 'Fira Code', monospace" font-size="10" fill="#aaaaaa" opacity="0.6" text-anchor="middle">LAST TELEMETRY PING: 2026-05-11 18:44:09 UTC // ENCRYPTED_TUNNEL</text>
</svg>