<svg width="850" height="200" viewBox="0 0 850 200" xmlns="http://www.w3.org/2000/svg">
  <defs>
    <pattern id="carbonFiber" width="10" height="10" patternUnits="userSpaceOnUse">
        <rect width="10" height="10" fill="#050505"/>
        <path d="M0,0 L5,5 L10,0 L5,-5 Z M5,5 L10,10 L15,5 L10,0 Z M-5,5 L0,10 L5,5 L0,0 Z M0,10 L5,15 L10,10 L5,5 Z" fill="#0d0d0d"/>
    </pattern>
    <filter id="textGlow">
      <feGaussianBlur stdDeviation="2" result="blur" />
      <feMerge>
        <feMergeNode in="blur"/>
        <feMergeNode in="SourceGraphic"/>
      </feMerge>
    </filter>
    <linearGradient id="neonBar" x1="0%" y1="0%" x2="100%" y2="0%">
        <stop offset="0%" stop-color="#111111"/>
        <stop offset="100%" stop-color="#39FF14"/>
    </linearGradient>
    <linearGradient id="scanlineGrad" x1="0%" y1="0%" x2="100%" y2="0%">
        <stop offset="0%" stop-color="#39FF14" stop-opacity="0"/>
        <stop offset="50%" stop-color="#39FF14" stop-opacity="0.18"/>
        <stop offset="100%" stop-color="#39FF14" stop-opacity="0"/>
    </linearGradient>
    <clipPath id="dashClip">
        <rect x="0" y="0" width="850" height="200" rx="12"/>
    </clipPath>
  </defs>

  <rect width="100%" height="100%" fill="url(#carbonFiber)" rx="12" stroke="#39FF14" stroke-width="1" stroke-opacity="0.3"/>
  <rect width="100%" height="100%" fill="#000000" opacity="0.6" rx="12" />
  <g><polygon points="524,112 532.6,117 532.6,127 524,132 515.4,127 515.4,117" fill="none" stroke="#39FF14" stroke-width="1" opacity="0.07347027755947638"/>
<polygon points="55,57 63.6,62 63.6,72 55,77 46.4,72 46.4,62" fill="none" stroke="#39FF14" stroke-width="1" opacity="0.03944576018948446"/>
<polygon points="160,27 168.6,32 168.6,42 160,47 151.4,42 151.4,32" fill="none" stroke="#39FF14" stroke-width="1" opacity="0.03929506874035592"/>
<polygon points="674,94 682.6,99 682.6,109 674,114 665.4,109 665.4,99" fill="none" stroke="#39FF14" stroke-width="1" opacity="0.07944149341196274"/>
<polygon points="837,8 845.6,13 845.6,23 837,28 828.4,23 828.4,13" fill="none" stroke="#39FF14" stroke-width="1" opacity="0.021207533489769247"/>
<polygon points="13,157 21.6,162 21.6,172 13,177 4.4,172 4.4,162" fill="none" stroke="#39FF14" stroke-width="1" opacity="0.035793488112938934"/>
<polygon points="700,35 708.6,40 708.6,50 700,55 691.4,50 691.4,40" fill="none" stroke="#39FF14" stroke-width="1" opacity="0.05247795415841648"/>
<polygon points="637,187 645.6,192 645.6,202 637,207 628.4,202 628.4,192" fill="none" stroke="#39FF14" stroke-width="1" opacity="0.060330601332930514"/>
<polygon points="456,187 464.6,192 464.6,202 456,207 447.4,202 447.4,192" fill="none" stroke="#39FF14" stroke-width="1" opacity="0.0310444589420893"/>
<polygon points="44,20 52.6,25 52.6,35 44,40 35.4,35 35.4,25" fill="none" stroke="#39FF14" stroke-width="1" opacity="0.021935108378353153"/>
<polygon points="272,113 280.6,118 280.6,128 272,133 263.4,128 263.4,118" fill="none" stroke="#39FF14" stroke-width="1" opacity="0.06263876306450031"/>
<polygon points="428,141 436.6,146 436.6,156 428,161 419.4,156 419.4,146" fill="none" stroke="#39FF14" stroke-width="1" opacity="0.05683703467742926"/>
<polygon points="90,0 98.6,5 98.6,15 90,20 81.4,15 81.4,5" fill="none" stroke="#39FF14" stroke-width="1" opacity="0.03456220319201593"/>
<polygon points="566,31 574.6,36 574.6,46 566,51 557.4,46 557.4,36" fill="none" stroke="#39FF14" stroke-width="1" opacity="0.07213012600963405"/>
<polygon points="210,85 218.6,90 218.6,100 210,105 201.4,100 201.4,90" fill="none" stroke="#39FF14" stroke-width="1" opacity="0.04178832506855358"/>
<polygon points="692,-7 700.6,-2 700.6,8 692,13 683.4,8 683.4,-2" fill="none" stroke="#39FF14" stroke-width="1" opacity="0.036518074456575275"/>
<polygon points="577,153 585.6,158 585.6,168 577,173 568.4,168 568.4,158" fill="none" stroke="#39FF14" stroke-width="1" opacity="0.05715334189729493"/>
<polygon points="580,99 588.6,104 588.6,114 580,119 571.4,114 571.4,104" fill="none" stroke="#39FF14" stroke-width="1" opacity="0.07560192070911055"/>
<polygon points="785,3 793.6,8 793.6,18 785,23 776.4,18 776.4,8" fill="none" stroke="#39FF14" stroke-width="1" opacity="0.03826873290844526"/>
<polygon points="533,-2 541.6,3 541.6,13 533,18 524.4,13 524.4,3" fill="none" stroke="#39FF14" stroke-width="1" opacity="0.06196699632016846"/>
<polygon points="357,123 365.6,128 365.6,138 357,143 348.4,138 348.4,128" fill="none" stroke="#39FF14" stroke-width="1" opacity="0.0559380607969549"/>
<polygon points="774,157 782.6,162 782.6,172 774,177 765.4,172 765.4,162" fill="none" stroke="#39FF14" stroke-width="1" opacity="0.07584177601789936"/>
<polygon points="282,26 290.6,31 290.6,41 282,46 273.4,41 273.4,31" fill="none" stroke="#39FF14" stroke-width="1" opacity="0.04127822936983115"/>
<polygon points="430,134 438.6,139 438.6,149 430,154 421.4,149 421.4,139" fill="none" stroke="#39FF14" stroke-width="1" opacity="0.06670558972446845"/>
<polygon points="617,101 625.6,106 625.6,116 617,121 608.4,116 608.4,106" fill="none" stroke="#39FF14" stroke-width="1" opacity="0.05030970851537755"/>
<polygon points="421,31 429.6,36 429.6,46 421,51 412.4,46 412.4,36" fill="none" stroke="#39FF14" stroke-width="1" opacity="0.06222576048548664"/>
<polygon points="547,52 555.6,57 555.6,67 547,72 538.4,67 538.4,57" fill="none" stroke="#39FF14" stroke-width="1" opacity="0.07995340121311324"/>
<polygon points="267,-6 275.6,-1 275.6,9 267,14 258.4,9 258.4,-1" fill="none" stroke="#39FF14" stroke-width="1" opacity="0.07095220185435411"/>
<polygon points="177,182 185.6,187 185.6,197 177,202 168.4,197 168.4,187" fill="none" stroke="#39FF14" stroke-width="1" opacity="0.04600274846599552"/>
<polygon points="408,22 416.6,27 416.6,37 408,42 399.4,37 399.4,27" fill="none" stroke="#39FF14" stroke-width="1" opacity="0.07619802851972053"/>
</g>

  <!-- HUD Decorative elements -->
  <path d="M 20 20 L 40 20 L 50 30" fill="none" stroke="#39FF14" stroke-width="2" opacity="0.5"/>
  <path d="M 830 180 L 810 180 L 800 170" fill="none" stroke="#39FF14" stroke-width="2" opacity="0.5"/>

  <g clip-path="url(#dashClip)">
    <rect x="-160" y="0" width="160" height="200" fill="url(#scanlineGrad)">
      <animateTransform attributeName="transform" type="translate"
                        from="0 0" to="1010 0" dur="6s" repeatCount="indefinite"/>
    </rect>
  </g>

  <g font-family="'Consolas', 'Fira Code', monospace" text-anchor="middle">

    <!-- NETWORK STATUS -->
    <g transform="translate(130, 100)">
        <circle cx="0" cy="0" r="45" fill="none" stroke="#39FF14" stroke-width="2" stroke-dasharray="10 5">
            <animateTransform attributeName="transform" type="rotate" from="0" to="360" dur="10s" repeatCount="indefinite"/>
        </circle>
        <circle cx="0" cy="0" r="35" fill="#0d0d0d" />
        <text x="0" y="-60" font-size="12" fill="#aaaaaa" letter-spacing="2">ROOT.AUTH</text>
        <text x="0" y="70" font-size="14" fill="#ffffff" font-weight="bold">OPERATIONAL</text>
    </g>

    <!-- ACTIVE USERS -->
    <g transform="translate(330, 100)">
        <text x="0" y="-20" font-size="12" fill="#aaaaaa">CITIZENS</text>
        <text x="0" y="15" font-size="28" fill="#ffffff" font-weight="bold" filter="url(#textGlow)">15,363</text>
        <text x="0" y="35" font-size="10" fill="#777777">VERIFIED HUMANS</text>
    </g>

    <!-- REGISTERED AGENTS -->
    <g transform="translate(530, 100)">
        <text x="0" y="-20" font-size="12" fill="#aaaaaa">AGENTS</text>
        <text x="0" y="15" font-size="28" fill="#00d4ff" font-weight="bold" filter="url(#textGlow)">4,505</text>
        <text x="0" y="35" font-size="10" fill="#777777">REGISTERED DIDs</text>
    </g>

    <!-- TRANSACTIONS -->
    <g transform="translate(730, 100)">
        <text x="0" y="-20" font-size="12" fill="#aaaaaa">TRANSFERS</text>
        <text x="0" y="15" font-size="28" fill="#ffffff" font-weight="bold">30,027</text>
        <text x="0" y="35" font-size="10" fill="#777777">M2M SETTLEMENTS</text>
    </g>
  </g>

  <text x="425" y="185" font-family="'Consolas', 'Fira Code', monospace" font-size="10" fill="#aaaaaa" opacity="0.6" text-anchor="middle">AXIOMID PROJECTED TARGETS (ILLUSTRATIVE): 2026-07-08 10:54:04 UTC // SECURE_HANDSHAKE</text>
</svg>