<svg width="850" height="200" viewBox="0 0 850 200" xmlns="http://www.w3.org/2000/svg">
  <defs>
    <pattern id="carbonFiber" width="10" height="10" patternUnits="userSpaceOnUse">
        <rect width="10" height="10" fill="#050505"/>
        <path d="M0,0 L5,5 L10,0 L5,-5 Z M5,5 L10,10 L15,5 L10,0 Z M-5,5 L0,10 L5,5 L0,0 Z M0,10 L5,15 L10,10 L5,5 Z" fill="#0d0d0d"/>
    </pattern>
    <filter id="textGlow">
      <feGaussianBlur stdDeviation="2" result="blur" />
      <feMerge>
        <feMergeNode in="blur"/>
        <feMergeNode in="SourceGraphic"/>
      </feMerge>
    </filter>
    <linearGradient id="neonBar" x1="0%" y1="0%" x2="100%" y2="0%">
        <stop offset="0%" stop-color="#111111"/>
        <stop offset="100%" stop-color="#39FF14"/>
    </linearGradient>
    <linearGradient id="scanlineGrad" x1="0%" y1="0%" x2="100%" y2="0%">
        <stop offset="0%" stop-color="#39FF14" stop-opacity="0"/>
        <stop offset="50%" stop-color="#39FF14" stop-opacity="0.18"/>
        <stop offset="100%" stop-color="#39FF14" stop-opacity="0"/>
    </linearGradient>
    <clipPath id="dashClip">
        <rect x="0" y="0" width="850" height="200" rx="12"/>
    </clipPath>
  </defs>

  <rect width="100%" height="100%" fill="url(#carbonFiber)" rx="12" stroke="#39FF14" stroke-width="1" stroke-opacity="0.3"/>
  <rect width="100%" height="100%" fill="#000000" opacity="0.6" rx="12" />
  <g><polygon points="647,52 655.6,57 655.6,67 647,72 638.4,67 638.4,57" fill="none" stroke="#39FF14" stroke-width="1" opacity="0.021821958100809957"/>
<polygon points="749,152 757.6,157 757.6,167 749,172 740.4,167 740.4,157" fill="none" stroke="#39FF14" stroke-width="1" opacity="0.03618479988002632"/>
<polygon points="305,30 313.6,35 313.6,45 305,50 296.4,45 296.4,35" fill="none" stroke="#39FF14" stroke-width="1" opacity="0.056371098092280386"/>
<polygon points="244,-8 252.6,-3 252.6,7 244,12 235.4,7 235.4,-3" fill="none" stroke="#39FF14" stroke-width="1" opacity="0.05271836916917577"/>
<polygon points="820,68 828.6,73 828.6,83 820,88 811.4,83 811.4,73" fill="none" stroke="#39FF14" stroke-width="1" opacity="0.04823818500887922"/>
<polygon points="320,66 328.6,71 328.6,81 320,86 311.4,81 311.4,71" fill="none" stroke="#39FF14" stroke-width="1" opacity="0.06994314332250677"/>
<polygon points="738,33 746.6,38 746.6,48 738,53 729.4,48 729.4,38" fill="none" stroke="#39FF14" stroke-width="1" opacity="0.043404200862514515"/>
<polygon points="694,17 702.6,22 702.6,32 694,37 685.4,32 685.4,22" fill="none" stroke="#39FF14" stroke-width="1" opacity="0.029510776177572886"/>
<polygon points="543,35 551.6,40 551.6,50 543,55 534.4,50 534.4,40" fill="none" stroke="#39FF14" stroke-width="1" opacity="0.03272970421311238"/>
<polygon points="348,140 356.6,145 356.6,155 348,160 339.4,155 339.4,145" fill="none" stroke="#39FF14" stroke-width="1" opacity="0.056334810411438146"/>
<polygon points="50,11 58.6,16 58.6,26 50,31 41.4,26 41.4,16" fill="none" stroke="#39FF14" stroke-width="1" opacity="0.04457945208736797"/>
<polygon points="193,-1 201.6,4 201.6,14 193,19 184.4,14 184.4,4" fill="none" stroke="#39FF14" stroke-width="1" opacity="0.02331017425729782"/>
<polygon points="579,142 587.6,147 587.6,157 579,162 570.4,157 570.4,147" fill="none" stroke="#39FF14" stroke-width="1" opacity="0.0679301337857443"/>
<polygon points="760,188 768.6,193 768.6,203 760,208 751.4,203 751.4,193" fill="none" stroke="#39FF14" stroke-width="1" opacity="0.034422359115877814"/>
<polygon points="598,169 606.6,174 606.6,184 598,189 589.4,184 589.4,174" fill="none" stroke="#39FF14" stroke-width="1" opacity="0.05312036296807443"/>
<polygon points="730,106 738.6,111 738.6,121 730,126 721.4,121 721.4,111" fill="none" stroke="#39FF14" stroke-width="1" opacity="0.04845184611102257"/>
<polygon points="559,3 567.6,8 567.6,18 559,23 550.4,18 550.4,8" fill="none" stroke="#39FF14" stroke-width="1" opacity="0.05277933753235564"/>
<polygon points="13,127 21.6,132 21.6,142 13,147 4.4,142 4.4,132" fill="none" stroke="#39FF14" stroke-width="1" opacity="0.06671648722966479"/>
<polygon points="279,49 287.6,54 287.6,64 279,69 270.4,64 270.4,54" fill="none" stroke="#39FF14" stroke-width="1" opacity="0.033435708206927"/>
<polygon points="336,79 344.6,84 344.6,94 336,99 327.4,94 327.4,84" fill="none" stroke="#39FF14" stroke-width="1" opacity="0.05229661423556238"/>
<polygon points="785,94 793.6,99 793.6,109 785,114 776.4,109 776.4,99" fill="none" stroke="#39FF14" stroke-width="1" opacity="0.05477384505262524"/>
<polygon points="322,125 330.6,130 330.6,140 322,145 313.4,140 313.4,130" fill="none" stroke="#39FF14" stroke-width="1" opacity="0.06648455190156692"/>
<polygon points="690,67 698.6,72 698.6,82 690,87 681.4,82 681.4,72" fill="none" stroke="#39FF14" stroke-width="1" opacity="0.06483113598193746"/>
<polygon points="83,150 91.6,155 91.6,165 83,170 74.4,165 74.4,155" fill="none" stroke="#39FF14" stroke-width="1" opacity="0.03558160226373138"/>
<polygon points="38,186 46.6,191 46.6,201 38,206 29.4,201 29.4,191" fill="none" stroke="#39FF14" stroke-width="1" opacity="0.06144296375921775"/>
<polygon points="665,146 673.6,151 673.6,161 665,166 656.4,161 656.4,151" fill="none" stroke="#39FF14" stroke-width="1" opacity="0.06901433568381346"/>
<polygon points="652,114 660.6,119 660.6,129 652,134 643.4,129 643.4,119" fill="none" stroke="#39FF14" stroke-width="1" opacity="0.026412339309733655"/>
<polygon points="692,33 700.6,38 700.6,48 692,53 683.4,48 683.4,38" fill="none" stroke="#39FF14" stroke-width="1" opacity="0.023174525605202667"/>
<polygon points="526,66 534.6,71 534.6,81 526,86 517.4,81 517.4,71" fill="none" stroke="#39FF14" stroke-width="1" opacity="0.04223229548184822"/>
<polygon points="677,182 685.6,187 685.6,197 677,202 668.4,197 668.4,187" fill="none" stroke="#39FF14" stroke-width="1" opacity="0.06009453997150363"/>
</g>

  <!-- HUD Decorative elements -->
  <path d="M 20 20 L 40 20 L 50 30" fill="none" stroke="#39FF14" stroke-width="2" opacity="0.5"/>
  <path d="M 830 180 L 810 180 L 800 170" fill="none" stroke="#39FF14" stroke-width="2" opacity="0.5"/>

  <g clip-path="url(#dashClip)">
    <rect x="-160" y="0" width="160" height="200" fill="url(#scanlineGrad)">
      <animateTransform attributeName="transform" type="translate"
                        from="0 0" to="1010 0" dur="6s" repeatCount="indefinite"/>
    </rect>
  </g>

  <g font-family="'Consolas', 'Fira Code', monospace" text-anchor="middle">

    <!-- NETWORK STATUS -->
    <g transform="translate(130, 100)">
        <circle cx="0" cy="0" r="45" fill="none" stroke="#39FF14" stroke-width="2" stroke-dasharray="10 5">
            <animateTransform attributeName="transform" type="rotate" from="0" to="360" dur="10s" repeatCount="indefinite"/>
        </circle>
        <circle cx="0" cy="0" r="35" fill="#0d0d0d" />
        <text x="0" y="-60" font-size="12" fill="#aaaaaa" letter-spacing="2">ROOT.AUTH</text>
        <text x="0" y="70" font-size="14" fill="#ffffff" font-weight="bold">OPERATIONAL</text>
    </g>

    <!-- ACTIVE USERS -->
    <g transform="translate(330, 100)">
        <text x="0" y="-20" font-size="12" fill="#aaaaaa">CITIZENS</text>
        <text x="0" y="15" font-size="28" fill="#ffffff" font-weight="bold" filter="url(#textGlow)">14,517</text>
        <text x="0" y="35" font-size="10" fill="#777777">VERIFIED HUMANS</text>
    </g>

    <!-- REGISTERED AGENTS -->
    <g transform="translate(530, 100)">
        <text x="0" y="-20" font-size="12" fill="#aaaaaa">AGENTS</text>
        <text x="0" y="15" font-size="28" fill="#00d4ff" font-weight="bold" filter="url(#textGlow)">4,022</text>
        <text x="0" y="35" font-size="10" fill="#777777">REGISTERED DIDs</text>
    </g>

    <!-- TRANSACTIONS -->
    <g transform="translate(730, 100)">
        <text x="0" y="-20" font-size="12" fill="#aaaaaa">TRANSFERS</text>
        <text x="0" y="15" font-size="28" fill="#ffffff" font-weight="bold">41,683</text>
        <text x="0" y="35" font-size="10" fill="#777777">M2M SETTLEMENTS</text>
    </g>
  </g>

  <text x="425" y="185" font-family="'Consolas', 'Fira Code', monospace" font-size="10" fill="#aaaaaa" opacity="0.6" text-anchor="middle">AXIOMID PROJECTED TARGETS (ILLUSTRATIVE): 2026-06-22 13:58:54 UTC // SECURE_HANDSHAKE</text>
</svg>