<svg width="850" height="200" viewBox="0 0 850 200" xmlns="http://www.w3.org/2000/svg">
  <defs>
    <pattern id="carbonFiber" width="10" height="10" patternUnits="userSpaceOnUse">
        <rect width="10" height="10" fill="#050505"/>
        <path d="M0,0 L5,5 L10,0 L5,-5 Z M5,5 L10,10 L15,5 L10,0 Z M-5,5 L0,10 L5,5 L0,0 Z M0,10 L5,15 L10,10 L5,5 Z" fill="#0d0d0d"/>
    </pattern>
    <filter id="textGlow">
      <feGaussianBlur stdDeviation="2" result="blur" />
      <feMerge>
        <feMergeNode in="blur"/>
        <feMergeNode in="SourceGraphic"/>
      </feMerge>
    </filter>
    <linearGradient id="neonBar" x1="0%" y1="0%" x2="100%" y2="0%">
        <stop offset="0%" stop-color="#111111"/>
        <stop offset="100%" stop-color="#39FF14"/>
    </linearGradient>
    <linearGradient id="scanlineGrad" x1="0%" y1="0%" x2="100%" y2="0%">
        <stop offset="0%" stop-color="#39FF14" stop-opacity="0"/>
        <stop offset="50%" stop-color="#39FF14" stop-opacity="0.18"/>
        <stop offset="100%" stop-color="#39FF14" stop-opacity="0"/>
    </linearGradient>
    <clipPath id="dashClip">
        <rect x="0" y="0" width="850" height="200" rx="12"/>
    </clipPath>
  </defs>

  <rect width="100%" height="100%" fill="url(#carbonFiber)" rx="12" stroke="#39FF14" stroke-width="1" stroke-opacity="0.3"/>
  <rect width="100%" height="100%" fill="#000000" opacity="0.6" rx="12" />
  <g><polygon points="602,25 610.6,30 610.6,40 602,45 593.4,40 593.4,30" fill="none" stroke="#39FF14" stroke-width="1" opacity="0.035939704134352796"/>
<polygon points="692,53 700.6,58 700.6,68 692,73 683.4,68 683.4,58" fill="none" stroke="#39FF14" stroke-width="1" opacity="0.07689547689333072"/>
<polygon points="626,42 634.6,47 634.6,57 626,62 617.4,57 617.4,47" fill="none" stroke="#39FF14" stroke-width="1" opacity="0.04293696001630341"/>
<polygon points="533,82 541.6,87 541.6,97 533,102 524.4,97 524.4,87" fill="none" stroke="#39FF14" stroke-width="1" opacity="0.06209653450099693"/>
<polygon points="246,173 254.6,178 254.6,188 246,193 237.4,188 237.4,178" fill="none" stroke="#39FF14" stroke-width="1" opacity="0.07238399668600731"/>
<polygon points="685,102 693.6,107 693.6,117 685,122 676.4,117 676.4,107" fill="none" stroke="#39FF14" stroke-width="1" opacity="0.047364359766642244"/>
<polygon points="443,153 451.6,158 451.6,168 443,173 434.4,168 434.4,158" fill="none" stroke="#39FF14" stroke-width="1" opacity="0.06332900909237837"/>
<polygon points="734,63 742.6,68 742.6,78 734,83 725.4,78 725.4,68" fill="none" stroke="#39FF14" stroke-width="1" opacity="0.041036757581913344"/>
<polygon points="142,91 150.6,96 150.6,106 142,111 133.4,106 133.4,96" fill="none" stroke="#39FF14" stroke-width="1" opacity="0.07734179082143035"/>
<polygon points="575,52 583.6,57 583.6,67 575,72 566.4,67 566.4,57" fill="none" stroke="#39FF14" stroke-width="1" opacity="0.05426176295617753"/>
<polygon points="712,55 720.6,60 720.6,70 712,75 703.4,70 703.4,60" fill="none" stroke="#39FF14" stroke-width="1" opacity="0.060619791592925396"/>
<polygon points="489,50 497.6,55 497.6,65 489,70 480.4,65 480.4,55" fill="none" stroke="#39FF14" stroke-width="1" opacity="0.028550029343949672"/>
<polygon points="655,98 663.6,103 663.6,113 655,118 646.4,113 646.4,103" fill="none" stroke="#39FF14" stroke-width="1" opacity="0.028806259391939502"/>
<polygon points="416,162 424.6,167 424.6,177 416,182 407.4,177 407.4,167" fill="none" stroke="#39FF14" stroke-width="1" opacity="0.05447808653153609"/>
<polygon points="539,8 547.6,13 547.6,23 539,28 530.4,23 530.4,13" fill="none" stroke="#39FF14" stroke-width="1" opacity="0.06824587908280524"/>
<polygon points="243,139 251.6,144 251.6,154 243,159 234.4,154 234.4,144" fill="none" stroke="#39FF14" stroke-width="1" opacity="0.07109400423942418"/>
<polygon points="427,23 435.6,28 435.6,38 427,43 418.4,38 418.4,28" fill="none" stroke="#39FF14" stroke-width="1" opacity="0.04416010689331831"/>
<polygon points="465,44 473.6,49 473.6,59 465,64 456.4,59 456.4,49" fill="none" stroke="#39FF14" stroke-width="1" opacity="0.03254529377501257"/>
<polygon points="731,140 739.6,145 739.6,155 731,160 722.4,155 722.4,145" fill="none" stroke="#39FF14" stroke-width="1" opacity="0.07791384600121583"/>
<polygon points="2,92 10.6,97 10.6,107 2,112 -6.6,107 -6.6,97" fill="none" stroke="#39FF14" stroke-width="1" opacity="0.03176544844926381"/>
<polygon points="835,126 843.6,131 843.6,141 835,146 826.4,141 826.4,131" fill="none" stroke="#39FF14" stroke-width="1" opacity="0.04930414000383483"/>
<polygon points="231,95 239.6,100 239.6,110 231,115 222.4,110 222.4,100" fill="none" stroke="#39FF14" stroke-width="1" opacity="0.07547020752307396"/>
<polygon points="227,177 235.6,182 235.6,192 227,197 218.4,192 218.4,182" fill="none" stroke="#39FF14" stroke-width="1" opacity="0.06840865811535854"/>
<polygon points="829,113 837.6,118 837.6,128 829,133 820.4,128 820.4,118" fill="none" stroke="#39FF14" stroke-width="1" opacity="0.04858163742978601"/>
<polygon points="446,71 454.6,76 454.6,86 446,91 437.4,86 437.4,76" fill="none" stroke="#39FF14" stroke-width="1" opacity="0.06060664192161615"/>
<polygon points="848,85 856.6,90 856.6,100 848,105 839.4,100 839.4,90" fill="none" stroke="#39FF14" stroke-width="1" opacity="0.04598306981772126"/>
<polygon points="846,-1 854.6,4 854.6,14 846,19 837.4,14 837.4,4" fill="none" stroke="#39FF14" stroke-width="1" opacity="0.048253671810920724"/>
<polygon points="330,52 338.6,57 338.6,67 330,72 321.4,67 321.4,57" fill="none" stroke="#39FF14" stroke-width="1" opacity="0.07153631800963244"/>
<polygon points="792,123 800.6,128 800.6,138 792,143 783.4,138 783.4,128" fill="none" stroke="#39FF14" stroke-width="1" opacity="0.021303592091837728"/>
<polygon points="411,99 419.6,104 419.6,114 411,119 402.4,114 402.4,104" fill="none" stroke="#39FF14" stroke-width="1" opacity="0.07967371783400769"/>
</g>

  <!-- HUD Decorative elements -->
  <path d="M 20 20 L 40 20 L 50 30" fill="none" stroke="#39FF14" stroke-width="2" opacity="0.5"/>
  <path d="M 830 180 L 810 180 L 800 170" fill="none" stroke="#39FF14" stroke-width="2" opacity="0.5"/>

  <g clip-path="url(#dashClip)">
    <rect x="-160" y="0" width="160" height="200" fill="url(#scanlineGrad)">
      <animateTransform attributeName="transform" type="translate"
                        from="0 0" to="1010 0" dur="6s" repeatCount="indefinite"/>
    </rect>
  </g>

  <g font-family="'Consolas', 'Fira Code', monospace" text-anchor="middle">

    <!-- NETWORK STATUS -->
    <g transform="translate(130, 100)">
        <circle cx="0" cy="0" r="45" fill="none" stroke="#39FF14" stroke-width="2" stroke-dasharray="10 5">
            <animateTransform attributeName="transform" type="rotate" from="0" to="360" dur="10s" repeatCount="indefinite"/>
        </circle>
        <circle cx="0" cy="0" r="35" fill="#0d0d0d" />
        <text x="0" y="-60" font-size="12" fill="#aaaaaa" letter-spacing="2">ROOT.AUTH</text>
        <text x="0" y="70" font-size="14" fill="#ffffff" font-weight="bold">OPERATIONAL</text>
    </g>

    <!-- ACTIVE USERS -->
    <g transform="translate(330, 100)">
        <text x="0" y="-20" font-size="12" fill="#aaaaaa">CITIZENS</text>
        <text x="0" y="15" font-size="28" fill="#ffffff" font-weight="bold" filter="url(#textGlow)">14,286</text>
        <text x="0" y="35" font-size="10" fill="#777777">VERIFIED HUMANS</text>
    </g>

    <!-- REGISTERED AGENTS -->
    <g transform="translate(530, 100)">
        <text x="0" y="-20" font-size="12" fill="#aaaaaa">AGENTS</text>
        <text x="0" y="15" font-size="28" fill="#00d4ff" font-weight="bold" filter="url(#textGlow)">3,272</text>
        <text x="0" y="35" font-size="10" fill="#777777">REGISTERED DIDs</text>
    </g>

    <!-- TRANSACTIONS -->
    <g transform="translate(730, 100)">
        <text x="0" y="-20" font-size="12" fill="#aaaaaa">TRANSFERS</text>
        <text x="0" y="15" font-size="28" fill="#ffffff" font-weight="bold">40,811</text>
        <text x="0" y="35" font-size="10" fill="#777777">M2M SETTLEMENTS</text>
    </g>
  </g>

  <text x="425" y="185" font-family="'Consolas', 'Fira Code', monospace" font-size="10" fill="#aaaaaa" opacity="0.6" text-anchor="middle">AXIOMID PROJECTED TARGETS (ILLUSTRATIVE): 2026-07-07 06:36:40 UTC // SECURE_HANDSHAKE</text>
</svg>