<svg width="850" height="200" viewBox="0 0 850 200" xmlns="http://www.w3.org/2000/svg">
  <defs>
    <pattern id="carbonFiber" width="10" height="10" patternUnits="userSpaceOnUse">
        <rect width="10" height="10" fill="#050505"/>
        <path d="M0,0 L5,5 L10,0 L5,-5 Z M5,5 L10,10 L15,5 L10,0 Z M-5,5 L0,10 L5,5 L0,0 Z M0,10 L5,15 L10,10 L5,5 Z" fill="#0d0d0d"/>
    </pattern>
    <filter id="textGlow">
      <feGaussianBlur stdDeviation="2" result="blur" />
      <feMerge>
        <feMergeNode in="blur"/>
        <feMergeNode in="SourceGraphic"/>
      </feMerge>
    </filter>
    <linearGradient id="neonBar" x1="0%" y1="0%" x2="100%" y2="0%">
        <stop offset="0%" stop-color="#111111"/>
        <stop offset="100%" stop-color="#39FF14"/>
    </linearGradient>
    <linearGradient id="scanlineGrad" x1="0%" y1="0%" x2="100%" y2="0%">
        <stop offset="0%" stop-color="#39FF14" stop-opacity="0"/>
        <stop offset="50%" stop-color="#39FF14" stop-opacity="0.18"/>
        <stop offset="100%" stop-color="#39FF14" stop-opacity="0"/>
    </linearGradient>
    <clipPath id="dashClip">
        <rect x="0" y="0" width="850" height="200" rx="12"/>
    </clipPath>
  </defs>

  <rect width="100%" height="100%" fill="url(#carbonFiber)" rx="12" stroke="#39FF14" stroke-width="1" stroke-opacity="0.3"/>
  <rect width="100%" height="100%" fill="#000000" opacity="0.6" rx="12" />
  <g><polygon points="371,84 379.6,89 379.6,99 371,104 362.4,99 362.4,89" fill="none" stroke="#39FF14" stroke-width="1" opacity="0.04751164758361077"/>
<polygon points="604,186 612.6,191 612.6,201 604,206 595.4,201 595.4,191" fill="none" stroke="#39FF14" stroke-width="1" opacity="0.05994990384329095"/>
<polygon points="322,110 330.6,115 330.6,125 322,130 313.4,125 313.4,115" fill="none" stroke="#39FF14" stroke-width="1" opacity="0.034309186304301575"/>
<polygon points="50,122 58.6,127 58.6,137 50,142 41.4,137 41.4,127" fill="none" stroke="#39FF14" stroke-width="1" opacity="0.04105340042160705"/>
<polygon points="168,7 176.6,12 176.6,22 168,27 159.4,22 159.4,12" fill="none" stroke="#39FF14" stroke-width="1" opacity="0.05547740892792147"/>
<polygon points="32,126 40.6,131 40.6,141 32,146 23.4,141 23.4,131" fill="none" stroke="#39FF14" stroke-width="1" opacity="0.02314624627220728"/>
<polygon points="289,89 297.6,94 297.6,104 289,109 280.4,104 280.4,94" fill="none" stroke="#39FF14" stroke-width="1" opacity="0.04991737213257374"/>
<polygon points="508,77 516.6,82 516.6,92 508,97 499.4,92 499.4,82" fill="none" stroke="#39FF14" stroke-width="1" opacity="0.04546056625564228"/>
<polygon points="518,84 526.6,89 526.6,99 518,104 509.4,99 509.4,89" fill="none" stroke="#39FF14" stroke-width="1" opacity="0.026448654497671042"/>
<polygon points="426,41 434.6,46 434.6,56 426,61 417.4,56 417.4,46" fill="none" stroke="#39FF14" stroke-width="1" opacity="0.040649659460215926"/>
<polygon points="738,85 746.6,90 746.6,100 738,105 729.4,100 729.4,90" fill="none" stroke="#39FF14" stroke-width="1" opacity="0.07299079221937728"/>
<polygon points="254,54 262.6,59 262.6,69 254,74 245.4,69 245.4,59" fill="none" stroke="#39FF14" stroke-width="1" opacity="0.04781556191695879"/>
<polygon points="561,146 569.6,151 569.6,161 561,166 552.4,161 552.4,151" fill="none" stroke="#39FF14" stroke-width="1" opacity="0.07585798860323402"/>
<polygon points="675,0 683.6,5 683.6,15 675,20 666.4,15 666.4,5" fill="none" stroke="#39FF14" stroke-width="1" opacity="0.02910103779222264"/>
<polygon points="88,142 96.6,147 96.6,157 88,162 79.4,157 79.4,147" fill="none" stroke="#39FF14" stroke-width="1" opacity="0.06833891605104403"/>
<polygon points="188,110 196.6,115 196.6,125 188,130 179.4,125 179.4,115" fill="none" stroke="#39FF14" stroke-width="1" opacity="0.03315560747545875"/>
<polygon points="653,46 661.6,51 661.6,61 653,66 644.4,61 644.4,51" fill="none" stroke="#39FF14" stroke-width="1" opacity="0.05442400709280153"/>
<polygon points="243,174 251.6,179 251.6,189 243,194 234.4,189 234.4,179" fill="none" stroke="#39FF14" stroke-width="1" opacity="0.06022699544015517"/>
<polygon points="341,98 349.6,103 349.6,113 341,118 332.4,113 332.4,103" fill="none" stroke="#39FF14" stroke-width="1" opacity="0.026949944630188558"/>
<polygon points="278,1 286.6,6 286.6,16 278,21 269.4,16 269.4,6" fill="none" stroke="#39FF14" stroke-width="1" opacity="0.04633448092527785"/>
<polygon points="549,111 557.6,116 557.6,126 549,131 540.4,126 540.4,116" fill="none" stroke="#39FF14" stroke-width="1" opacity="0.0708979288637797"/>
<polygon points="830,68 838.6,73 838.6,83 830,88 821.4,83 821.4,73" fill="none" stroke="#39FF14" stroke-width="1" opacity="0.0742812183574581"/>
<polygon points="222,156 230.6,161 230.6,171 222,176 213.4,171 213.4,161" fill="none" stroke="#39FF14" stroke-width="1" opacity="0.07767107694614246"/>
<polygon points="485,174 493.6,179 493.6,189 485,194 476.4,189 476.4,179" fill="none" stroke="#39FF14" stroke-width="1" opacity="0.0434669433111117"/>
<polygon points="678,-6 686.6,-1 686.6,9 678,14 669.4,9 669.4,-1" fill="none" stroke="#39FF14" stroke-width="1" opacity="0.05940445752808518"/>
<polygon points="847,15 855.6,20 855.6,30 847,35 838.4,30 838.4,20" fill="none" stroke="#39FF14" stroke-width="1" opacity="0.06706519838921647"/>
<polygon points="24,166 32.6,171 32.6,181 24,186 15.4,181 15.4,171" fill="none" stroke="#39FF14" stroke-width="1" opacity="0.07887807204814394"/>
<polygon points="735,154 743.6,159 743.6,169 735,174 726.4,169 726.4,159" fill="none" stroke="#39FF14" stroke-width="1" opacity="0.02233952655219405"/>
<polygon points="404,96 412.6,101 412.6,111 404,116 395.4,111 395.4,101" fill="none" stroke="#39FF14" stroke-width="1" opacity="0.03394638524021475"/>
<polygon points="287,171 295.6,176 295.6,186 287,191 278.4,186 278.4,176" fill="none" stroke="#39FF14" stroke-width="1" opacity="0.06369528155729552"/>
</g>

  <!-- HUD Decorative elements -->
  <path d="M 20 20 L 40 20 L 50 30" fill="none" stroke="#39FF14" stroke-width="2" opacity="0.5"/>
  <path d="M 830 180 L 810 180 L 800 170" fill="none" stroke="#39FF14" stroke-width="2" opacity="0.5"/>

  <g clip-path="url(#dashClip)">
    <rect x="-160" y="0" width="160" height="200" fill="url(#scanlineGrad)">
      <animateTransform attributeName="transform" type="translate"
                        from="0 0" to="1010 0" dur="6s" repeatCount="indefinite"/>
    </rect>
  </g>

  <g font-family="'Consolas', 'Fira Code', monospace" text-anchor="middle">

    <!-- NETWORK STATUS -->
    <g transform="translate(130, 100)">
        <circle cx="0" cy="0" r="45" fill="none" stroke="#39FF14" stroke-width="2" stroke-dasharray="10 5">
            <animateTransform attributeName="transform" type="rotate" from="0" to="360" dur="10s" repeatCount="indefinite"/>
        </circle>
        <circle cx="0" cy="0" r="35" fill="#0d0d0d" />
        <text x="0" y="-60" font-size="12" fill="#aaaaaa" letter-spacing="2">ROOT.AUTH</text>
        <text x="0" y="70" font-size="14" fill="#ffffff" font-weight="bold">OPERATIONAL</text>
    </g>

    <!-- ACTIVE USERS -->
    <g transform="translate(330, 100)">
        <text x="0" y="-20" font-size="12" fill="#aaaaaa">CITIZENS</text>
        <text x="0" y="15" font-size="28" fill="#ffffff" font-weight="bold" filter="url(#textGlow)">14,374</text>
        <text x="0" y="35" font-size="10" fill="#777777">VERIFIED HUMANS</text>
    </g>

    <!-- REGISTERED AGENTS -->
    <g transform="translate(530, 100)">
        <text x="0" y="-20" font-size="12" fill="#aaaaaa">AGENTS</text>
        <text x="0" y="15" font-size="28" fill="#00d4ff" font-weight="bold" filter="url(#textGlow)">3,908</text>
        <text x="0" y="35" font-size="10" fill="#777777">REGISTERED DIDs</text>
    </g>

    <!-- TRANSACTIONS -->
    <g transform="translate(730, 100)">
        <text x="0" y="-20" font-size="12" fill="#aaaaaa">TRANSFERS</text>
        <text x="0" y="15" font-size="28" fill="#ffffff" font-weight="bold">29,526</text>
        <text x="0" y="35" font-size="10" fill="#777777">M2M SETTLEMENTS</text>
    </g>
  </g>

  <text x="425" y="185" font-family="'Consolas', 'Fira Code', monospace" font-size="10" fill="#aaaaaa" opacity="0.6" text-anchor="middle">AXIOMID PROJECTED TARGETS (ILLUSTRATIVE): 2026-07-02 11:26:11 UTC // SECURE_HANDSHAKE</text>
</svg>