<svg width="850" height="200" viewBox="0 0 850 200" xmlns="http://www.w3.org/2000/svg">
  <defs>
    <pattern id="carbonFiber" width="10" height="10" patternUnits="userSpaceOnUse">
        <rect width="10" height="10" fill="#050505"/>
        <path d="M0,0 L5,5 L10,0 L5,-5 Z M5,5 L10,10 L15,5 L10,0 Z M-5,5 L0,10 L5,5 L0,0 Z M0,10 L5,15 L10,10 L5,5 Z" fill="#0d0d0d"/>
    </pattern>
    <filter id="textGlow">
      <feGaussianBlur stdDeviation="2" result="blur" />
      <feMerge>
        <feMergeNode in="blur"/>
        <feMergeNode in="SourceGraphic"/>
      </feMerge>
    </filter>
    <linearGradient id="neonBar" x1="0%" y1="0%" x2="100%" y2="0%">
        <stop offset="0%" stop-color="#111111"/>
        <stop offset="100%" stop-color="#39FF14"/>
    </linearGradient>
    <linearGradient id="scanlineGrad" x1="0%" y1="0%" x2="100%" y2="0%">
        <stop offset="0%" stop-color="#39FF14" stop-opacity="0"/>
        <stop offset="50%" stop-color="#39FF14" stop-opacity="0.18"/>
        <stop offset="100%" stop-color="#39FF14" stop-opacity="0"/>
    </linearGradient>
    <clipPath id="dashClip">
        <rect x="0" y="0" width="850" height="200" rx="12"/>
    </clipPath>
  </defs>

  <rect width="100%" height="100%" fill="url(#carbonFiber)" rx="12" stroke="#39FF14" stroke-width="1" stroke-opacity="0.3"/>
  <rect width="100%" height="100%" fill="#000000" opacity="0.6" rx="12" />
  <g><polygon points="733,111 741.6,116 741.6,126 733,131 724.4,126 724.4,116" fill="none" stroke="#39FF14" stroke-width="1" opacity="0.06517536195608795"/>
<polygon points="143,56 151.6,61 151.6,71 143,76 134.4,71 134.4,61" fill="none" stroke="#39FF14" stroke-width="1" opacity="0.07092956412113076"/>
<polygon points="17,173 25.6,178 25.6,188 17,193 8.4,188 8.4,178" fill="none" stroke="#39FF14" stroke-width="1" opacity="0.07701895493942279"/>
<polygon points="821,56 829.6,61 829.6,71 821,76 812.4,71 812.4,61" fill="none" stroke="#39FF14" stroke-width="1" opacity="0.032077721469024476"/>
<polygon points="518,185 526.6,190 526.6,200 518,205 509.4,200 509.4,190" fill="none" stroke="#39FF14" stroke-width="1" opacity="0.04080010977320979"/>
<polygon points="69,-3 77.6,2 77.6,12 69,17 60.4,12 60.4,2" fill="none" stroke="#39FF14" stroke-width="1" opacity="0.07244988247545775"/>
<polygon points="842,45 850.6,50 850.6,60 842,65 833.4,60 833.4,50" fill="none" stroke="#39FF14" stroke-width="1" opacity="0.03976106880887153"/>
<polygon points="321,28 329.6,33 329.6,43 321,48 312.4,43 312.4,33" fill="none" stroke="#39FF14" stroke-width="1" opacity="0.06542345618434461"/>
<polygon points="167,0 175.6,5 175.6,15 167,20 158.4,15 158.4,5" fill="none" stroke="#39FF14" stroke-width="1" opacity="0.05206762947490867"/>
<polygon points="171,-1 179.6,4 179.6,14 171,19 162.4,14 162.4,4" fill="none" stroke="#39FF14" stroke-width="1" opacity="0.03793958276179916"/>
<polygon points="152,94 160.6,99 160.6,109 152,114 143.4,109 143.4,99" fill="none" stroke="#39FF14" stroke-width="1" opacity="0.07027629355494985"/>
<polygon points="282,110 290.6,115 290.6,125 282,130 273.4,125 273.4,115" fill="none" stroke="#39FF14" stroke-width="1" opacity="0.04626156522030129"/>
<polygon points="703,3 711.6,8 711.6,18 703,23 694.4,18 694.4,8" fill="none" stroke="#39FF14" stroke-width="1" opacity="0.027796752689663865"/>
<polygon points="622,148 630.6,153 630.6,163 622,168 613.4,163 613.4,153" fill="none" stroke="#39FF14" stroke-width="1" opacity="0.04433938604993185"/>
<polygon points="818,159 826.6,164 826.6,174 818,179 809.4,174 809.4,164" fill="none" stroke="#39FF14" stroke-width="1" opacity="0.027780624121759363"/>
<polygon points="76,3 84.6,8 84.6,18 76,23 67.4,18 67.4,8" fill="none" stroke="#39FF14" stroke-width="1" opacity="0.03786505562785894"/>
<polygon points="72,89 80.6,94 80.6,104 72,109 63.4,104 63.4,94" fill="none" stroke="#39FF14" stroke-width="1" opacity="0.028831079347577202"/>
<polygon points="685,86 693.6,91 693.6,101 685,106 676.4,101 676.4,91" fill="none" stroke="#39FF14" stroke-width="1" opacity="0.079374616487224"/>
<polygon points="407,17 415.6,22 415.6,32 407,37 398.4,32 398.4,22" fill="none" stroke="#39FF14" stroke-width="1" opacity="0.07180553524670708"/>
<polygon points="156,48 164.6,53 164.6,63 156,68 147.4,63 147.4,53" fill="none" stroke="#39FF14" stroke-width="1" opacity="0.07638367067020166"/>
<polygon points="251,168 259.6,173 259.6,183 251,188 242.4,183 242.4,173" fill="none" stroke="#39FF14" stroke-width="1" opacity="0.025011331261557305"/>
<polygon points="682,75 690.6,80 690.6,90 682,95 673.4,90 673.4,80" fill="none" stroke="#39FF14" stroke-width="1" opacity="0.050798645030674085"/>
<polygon points="623,135 631.6,140 631.6,150 623,155 614.4,150 614.4,140" fill="none" stroke="#39FF14" stroke-width="1" opacity="0.07127740793630442"/>
<polygon points="91,135 99.6,140 99.6,150 91,155 82.4,150 82.4,140" fill="none" stroke="#39FF14" stroke-width="1" opacity="0.04826190261425581"/>
<polygon points="539,-4 547.6,1 547.6,11 539,16 530.4,11 530.4,1" fill="none" stroke="#39FF14" stroke-width="1" opacity="0.03594408417030786"/>
<polygon points="623,108 631.6,113 631.6,123 623,128 614.4,123 614.4,113" fill="none" stroke="#39FF14" stroke-width="1" opacity="0.05525858544515436"/>
<polygon points="672,123 680.6,128 680.6,138 672,143 663.4,138 663.4,128" fill="none" stroke="#39FF14" stroke-width="1" opacity="0.0627600189314015"/>
<polygon points="91,86 99.6,91 99.6,101 91,106 82.4,101 82.4,91" fill="none" stroke="#39FF14" stroke-width="1" opacity="0.07558616670859628"/>
<polygon points="8,103 16.6,108 16.6,118 8,123 -0.5999999999999996,118 -0.5999999999999996,108" fill="none" stroke="#39FF14" stroke-width="1" opacity="0.04988884915297789"/>
<polygon points="580,-1 588.6,4 588.6,14 580,19 571.4,14 571.4,4" fill="none" stroke="#39FF14" stroke-width="1" opacity="0.05970134400008596"/>
</g>

  <!-- HUD Decorative elements -->
  <path d="M 20 20 L 40 20 L 50 30" fill="none" stroke="#39FF14" stroke-width="2" opacity="0.5"/>
  <path d="M 830 180 L 810 180 L 800 170" fill="none" stroke="#39FF14" stroke-width="2" opacity="0.5"/>

  <g clip-path="url(#dashClip)">
    <rect x="-160" y="0" width="160" height="200" fill="url(#scanlineGrad)">
      <animateTransform attributeName="transform" type="translate"
                        from="0 0" to="1010 0" dur="6s" repeatCount="indefinite"/>
    </rect>
  </g>

  <g font-family="'Consolas', 'Fira Code', monospace" text-anchor="middle">

    <!-- NETWORK STATUS -->
    <g transform="translate(130, 100)">
        <circle cx="0" cy="0" r="45" fill="none" stroke="#39FF14" stroke-width="2" stroke-dasharray="10 5">
            <animateTransform attributeName="transform" type="rotate" from="0" to="360" dur="10s" repeatCount="indefinite"/>
        </circle>
        <circle cx="0" cy="0" r="35" fill="#0d0d0d" />
        <text x="0" y="-60" font-size="12" fill="#aaaaaa" letter-spacing="2">ROOT.AUTH</text>
        <text x="0" y="70" font-size="14" fill="#ffffff" font-weight="bold">OPERATIONAL</text>
    </g>

    <!-- ACTIVE USERS -->
    <g transform="translate(330, 100)">
        <text x="0" y="-20" font-size="12" fill="#aaaaaa">CITIZENS</text>
        <text x="0" y="15" font-size="28" fill="#ffffff" font-weight="bold" filter="url(#textGlow)">14,541</text>
        <text x="0" y="35" font-size="10" fill="#777777">VERIFIED HUMANS</text>
    </g>

    <!-- REGISTERED AGENTS -->
    <g transform="translate(530, 100)">
        <text x="0" y="-20" font-size="12" fill="#aaaaaa">AGENTS</text>
        <text x="0" y="15" font-size="28" fill="#00d4ff" font-weight="bold" filter="url(#textGlow)">3,664</text>
        <text x="0" y="35" font-size="10" fill="#777777">REGISTERED DIDs</text>
    </g>

    <!-- TRANSACTIONS -->
    <g transform="translate(730, 100)">
        <text x="0" y="-20" font-size="12" fill="#aaaaaa">TRANSFERS</text>
        <text x="0" y="15" font-size="28" fill="#ffffff" font-weight="bold">29,800</text>
        <text x="0" y="35" font-size="10" fill="#777777">M2M SETTLEMENTS</text>
    </g>
  </g>

  <text x="425" y="185" font-family="'Consolas', 'Fira Code', monospace" font-size="10" fill="#aaaaaa" opacity="0.6" text-anchor="middle">AXIOMID PROJECTED TARGETS (ILLUSTRATIVE): 2026-06-24 00:26:38 UTC // SECURE_HANDSHAKE</text>
</svg>