<svg width="850" height="200" viewBox="0 0 850 200" xmlns="http://www.w3.org/2000/svg">
  <defs>
    <!-- Carbon Fiber Pattern -->
    <pattern id="carbonFiber" width="10" height="10" patternUnits="userSpaceOnUse">
        <rect width="10" height="10" fill="#050505"/>
        <path d="M0,0 L5,5 L10,0 L5,-5 Z M5,5 L10,10 L15,5 L10,0 Z M-5,5 L0,10 L5,5 L0,0 Z M0,10 L5,15 L10,10 L5,5 Z" fill="#0d0d0d"/>
    </pattern>
    <filter id="glassmorphism">
      <feGaussianBlur stdDeviation="3" result="blur" />
      <feColorMatrix type="matrix" values="1 0 0 0 0  0 1 0 0 0  0 0 1 0 0  0 0 0 18 -7" result="glow" />
      <feBlend in="SourceGraphic" in2="glow" mode="normal" />
    </filter>
    <filter id="textGlow">
      <feGaussianBlur stdDeviation="2" result="blur" />
      <feMerge>
        <feMergeNode in="blur"/>
        <feMergeNode in="SourceGraphic"/>
      </feMerge>
    </filter>
    <linearGradient id="neonBar" x1="0%" y1="0%" x2="100%" y2="0%">
        <stop offset="0%" stop-color="#111111"/>
        <stop offset="100%" stop-color="#39FF14"/>
    </linearGradient>
  </defs>

  <rect width="100%" height="100%" fill="url(#carbonFiber)" rx="12" stroke="#39FF14" stroke-width="1" stroke-opacity="0.3"/>
  <rect width="100%" height="100%" fill="#000000" opacity="0.6" rx="12" />
  <g><polygon points="110,186 118.6,191 118.6,201 110,206 101.4,201 101.4,191" fill="none" stroke="#39FF14" stroke-width="1" opacity="0.07323802988454044"/>
<polygon points="610,124 618.6,129 618.6,139 610,144 601.4,139 601.4,129" fill="none" stroke="#39FF14" stroke-width="1" opacity="0.021542515288243046"/>
<polygon points="82,133 90.6,138 90.6,148 82,153 73.4,148 73.4,138" fill="none" stroke="#39FF14" stroke-width="1" opacity="0.05589168844267646"/>
<polygon points="706,34 714.6,39 714.6,49 706,54 697.4,49 697.4,39" fill="none" stroke="#39FF14" stroke-width="1" opacity="0.03911993427502142"/>
<polygon points="29,187 37.6,192 37.6,202 29,207 20.4,202 20.4,192" fill="none" stroke="#39FF14" stroke-width="1" opacity="0.05795138458614753"/>
<polygon points="151,124 159.6,129 159.6,139 151,144 142.4,139 142.4,129" fill="none" stroke="#39FF14" stroke-width="1" opacity="0.07784256598788052"/>
<polygon points="671,147 679.6,152 679.6,162 671,167 662.4,162 662.4,152" fill="none" stroke="#39FF14" stroke-width="1" opacity="0.058389708609121974"/>
<polygon points="260,19 268.6,24 268.6,34 260,39 251.4,34 251.4,24" fill="none" stroke="#39FF14" stroke-width="1" opacity="0.06003401096460337"/>
<polygon points="722,47 730.6,52 730.6,62 722,67 713.4,62 713.4,52" fill="none" stroke="#39FF14" stroke-width="1" opacity="0.06425014423941632"/>
<polygon points="813,97 821.6,102 821.6,112 813,117 804.4,112 804.4,102" fill="none" stroke="#39FF14" stroke-width="1" opacity="0.07474521531643784"/>
<polygon points="76,35 84.6,40 84.6,50 76,55 67.4,50 67.4,40" fill="none" stroke="#39FF14" stroke-width="1" opacity="0.02817999681442928"/>
<polygon points="716,169 724.6,174 724.6,184 716,189 707.4,184 707.4,174" fill="none" stroke="#39FF14" stroke-width="1" opacity="0.057152061584728825"/>
<polygon points="831,117 839.6,122 839.6,132 831,137 822.4,132 822.4,122" fill="none" stroke="#39FF14" stroke-width="1" opacity="0.06909497569733791"/>
<polygon points="481,187 489.6,192 489.6,202 481,207 472.4,202 472.4,192" fill="none" stroke="#39FF14" stroke-width="1" opacity="0.03348603814631404"/>
<polygon points="468,178 476.6,183 476.6,193 468,198 459.4,193 459.4,183" fill="none" stroke="#39FF14" stroke-width="1" opacity="0.05349515210666764"/>
<polygon points="537,187 545.6,192 545.6,202 537,207 528.4,202 528.4,192" fill="none" stroke="#39FF14" stroke-width="1" opacity="0.07099731146550503"/>
<polygon points="607,17 615.6,22 615.6,32 607,37 598.4,32 598.4,22" fill="none" stroke="#39FF14" stroke-width="1" opacity="0.03690727543298965"/>
<polygon points="60,132 68.6,137 68.6,147 60,152 51.4,147 51.4,137" fill="none" stroke="#39FF14" stroke-width="1" opacity="0.057836933617215244"/>
<polygon points="13,123 21.6,128 21.6,138 13,143 4.4,138 4.4,128" fill="none" stroke="#39FF14" stroke-width="1" opacity="0.03798964671924898"/>
<polygon points="729,158 737.6,163 737.6,173 729,178 720.4,173 720.4,163" fill="none" stroke="#39FF14" stroke-width="1" opacity="0.038644575648534935"/>
<polygon points="498,82 506.6,87 506.6,97 498,102 489.4,97 489.4,87" fill="none" stroke="#39FF14" stroke-width="1" opacity="0.047231591270941856"/>
<polygon points="33,6 41.6,11 41.6,21 33,26 24.4,21 24.4,11" fill="none" stroke="#39FF14" stroke-width="1" opacity="0.05574830502762895"/>
<polygon points="470,103 478.6,108 478.6,118 470,123 461.4,118 461.4,108" fill="none" stroke="#39FF14" stroke-width="1" opacity="0.03717994080319785"/>
<polygon points="647,77 655.6,82 655.6,92 647,97 638.4,92 638.4,82" fill="none" stroke="#39FF14" stroke-width="1" opacity="0.06607936339934317"/>
<polygon points="173,62 181.6,67 181.6,77 173,82 164.4,77 164.4,67" fill="none" stroke="#39FF14" stroke-width="1" opacity="0.0480923175484349"/>
<polygon points="190,22 198.6,27 198.6,37 190,42 181.4,37 181.4,27" fill="none" stroke="#39FF14" stroke-width="1" opacity="0.04247736800538113"/>
<polygon points="618,20 626.6,25 626.6,35 618,40 609.4,35 609.4,25" fill="none" stroke="#39FF14" stroke-width="1" opacity="0.05131868739308168"/>
<polygon points="39,17 47.6,22 47.6,32 39,37 30.4,32 30.4,22" fill="none" stroke="#39FF14" stroke-width="1" opacity="0.06236813606035006"/>
<polygon points="151,81 159.6,86 159.6,96 151,101 142.4,96 142.4,86" fill="none" stroke="#39FF14" stroke-width="1" opacity="0.025504336312377415"/>
<polygon points="637,19 645.6,24 645.6,34 637,39 628.4,34 628.4,24" fill="none" stroke="#39FF14" stroke-width="1" opacity="0.07078125833876066"/>
</g>

  <!-- HUD Decorative elements -->
  <path d="M 20 20 L 40 20 L 50 30" fill="none" stroke="#39FF14" stroke-width="2" opacity="0.5"/>
  <path d="M 830 180 L 810 180 L 800 170" fill="none" stroke="#39FF14" stroke-width="2" opacity="0.5"/>
  <rect x="20" y="100" width="2" height="40" fill="#ffffff" opacity="0.4"/>
  <rect x="828" y="60" width="2" height="40" fill="#39FF14" opacity="0.6"/>

  <g font-family="'Consolas', 'Fira Code', monospace" text-anchor="middle">

    <!-- SYSTEM STATUS -->
    <g transform="translate(130, 100)">
        <circle cx="0" cy="0" r="45" fill="none" stroke="#111111" stroke-width="8" />
        <circle cx="0" cy="0" r="45" fill="none" stroke="#39FF14" stroke-width="2" stroke-dasharray="10 5">
            <animateTransform attributeName="transform" type="rotate" from="0" to="360" dur="10s" repeatCount="indefinite"/>
        </circle>
        <circle cx="0" cy="0" r="35" fill="#0d0d0d" />
        <circle cx="0" cy="0" r="6" fill="#39FF14" filter="url(#textGlow)">
            <animate attributeName="opacity" values="1;0.3;1" dur="2s" repeatCount="indefinite"/>
        </circle>
        <text x="0" y="-60" font-size="12" fill="#aaaaaa" letter-spacing="2">SYS.CORE</text>
        <text x="0" y="70" font-size="14" fill="#ffffff" font-weight="bold">ONLINE</text>
    </g>

    <!-- LIVE TRAFFIC -->
    <g transform="translate(330, 100)">
        <rect x="-60" y="-45" width="120" height="90" fill="#0a0a0a" rx="8" stroke="#39FF14" stroke-opacity="0.4" stroke-width="1"/>
        <text x="0" y="-20" font-size="12" fill="#aaaaaa">NETWORK LOAD</text>
        <text x="0" y="15" font-size="28" fill="#ffffff" font-weight="bold" filter="url(#textGlow)">5804</text>
        <text x="0" y="35" font-size="10" fill="#777777">ACTIVE SESSIONS</text>
    </g>

    <!-- ACTIVE AGENTS -->
    <g transform="translate(530, 100)">
        <rect x="-60" y="-45" width="120" height="90" fill="#0a0a0a" rx="8" stroke="#39FF14" stroke-opacity="0.4" stroke-width="1"/>
        <text x="0" y="-20" font-size="12" fill="#aaaaaa">SWARM ENTITIES</text>
        <text x="0" y="15" font-size="28" fill="#ffffff" font-weight="bold" filter="url(#textGlow)">183</text>
        <text x="0" y="35" font-size="10" fill="#777777">AUTONOMOUS</text>
    </g>

    <!-- UPTIME -->
    <g transform="translate(730, 100)">
        <path d="M -40 -35 L 40 -35 L 50 -25 L 50 35 L -40 35 L -50 25 Z" fill="#0a0a0a" stroke="#39FF14" stroke-opacity="0.4" stroke-width="1"/>
        <text x="0" y="-15" font-size="12" fill="#aaaaaa">CONTINUITY</text>
        <text x="0" y="15" font-size="24" fill="#ffffff" font-weight="bold">249<tspan font-size="14" fill="#777777">d</tspan></text>
        <rect x="-35" y="25" width="70" height="4" fill="url(#neonBar)" rx="2"/>
    </g>
  </g>

  <text x="425" y="185" font-family="'Consolas', 'Fira Code', monospace" font-size="10" fill="#aaaaaa" opacity="0.6" text-anchor="middle">LAST TELEMETRY PING: 2026-04-26 17:29:43 UTC // ENCRYPTED_TUNNEL</text>
</svg>