<svg width="850" height="200" viewBox="0 0 850 200" xmlns="http://www.w3.org/2000/svg">
  <defs>
    <pattern id="carbonFiber" width="10" height="10" patternUnits="userSpaceOnUse">
        <rect width="10" height="10" fill="#050505"/>
        <path d="M0,0 L5,5 L10,0 L5,-5 Z M5,5 L10,10 L15,5 L10,0 Z M-5,5 L0,10 L5,5 L0,0 Z M0,10 L5,15 L10,10 L5,5 Z" fill="#0d0d0d"/>
    </pattern>
    <filter id="textGlow">
      <feGaussianBlur stdDeviation="2" result="blur" />
      <feMerge>
        <feMergeNode in="blur"/>
        <feMergeNode in="SourceGraphic"/>
      </feMerge>
    </filter>
    <linearGradient id="neonBar" x1="0%" y1="0%" x2="100%" y2="0%">
        <stop offset="0%" stop-color="#111111"/>
        <stop offset="100%" stop-color="#39FF14"/>
    </linearGradient>
    <linearGradient id="scanlineGrad" x1="0%" y1="0%" x2="100%" y2="0%">
        <stop offset="0%" stop-color="#39FF14" stop-opacity="0"/>
        <stop offset="50%" stop-color="#39FF14" stop-opacity="0.18"/>
        <stop offset="100%" stop-color="#39FF14" stop-opacity="0"/>
    </linearGradient>
    <clipPath id="dashClip">
        <rect x="0" y="0" width="850" height="200" rx="12"/>
    </clipPath>
  </defs>

  <rect width="100%" height="100%" fill="url(#carbonFiber)" rx="12" stroke="#39FF14" stroke-width="1" stroke-opacity="0.3"/>
  <rect width="100%" height="100%" fill="#000000" opacity="0.6" rx="12" />
  <g><polygon points="427,34 435.6,39 435.6,49 427,54 418.4,49 418.4,39" fill="none" stroke="#39FF14" stroke-width="1" opacity="0.05369497496236934"/>
<polygon points="169,37 177.6,42 177.6,52 169,57 160.4,52 160.4,42" fill="none" stroke="#39FF14" stroke-width="1" opacity="0.050519163445294786"/>
<polygon points="431,58 439.6,63 439.6,73 431,78 422.4,73 422.4,63" fill="none" stroke="#39FF14" stroke-width="1" opacity="0.03334983718577743"/>
<polygon points="512,134 520.6,139 520.6,149 512,154 503.4,149 503.4,139" fill="none" stroke="#39FF14" stroke-width="1" opacity="0.029893049745969593"/>
<polygon points="489,168 497.6,173 497.6,183 489,188 480.4,183 480.4,173" fill="none" stroke="#39FF14" stroke-width="1" opacity="0.02452969799283388"/>
<polygon points="773,116 781.6,121 781.6,131 773,136 764.4,131 764.4,121" fill="none" stroke="#39FF14" stroke-width="1" opacity="0.026455389343126023"/>
<polygon points="231,150 239.6,155 239.6,165 231,170 222.4,165 222.4,155" fill="none" stroke="#39FF14" stroke-width="1" opacity="0.05364128030390325"/>
<polygon points="631,-2 639.6,3 639.6,13 631,18 622.4,13 622.4,3" fill="none" stroke="#39FF14" stroke-width="1" opacity="0.045905760442796706"/>
<polygon points="666,156 674.6,161 674.6,171 666,176 657.4,171 657.4,161" fill="none" stroke="#39FF14" stroke-width="1" opacity="0.06511850769837471"/>
<polygon points="606,44 614.6,49 614.6,59 606,64 597.4,59 597.4,49" fill="none" stroke="#39FF14" stroke-width="1" opacity="0.02749708055414544"/>
<polygon points="54,103 62.6,108 62.6,118 54,123 45.4,118 45.4,108" fill="none" stroke="#39FF14" stroke-width="1" opacity="0.05411323487794319"/>
<polygon points="639,177 647.6,182 647.6,192 639,197 630.4,192 630.4,182" fill="none" stroke="#39FF14" stroke-width="1" opacity="0.04561467593522848"/>
<polygon points="536,51 544.6,56 544.6,66 536,71 527.4,66 527.4,56" fill="none" stroke="#39FF14" stroke-width="1" opacity="0.033784269682455306"/>
<polygon points="493,85 501.6,90 501.6,100 493,105 484.4,100 484.4,90" fill="none" stroke="#39FF14" stroke-width="1" opacity="0.021193923896729996"/>
<polygon points="210,10 218.6,15 218.6,25 210,30 201.4,25 201.4,15" fill="none" stroke="#39FF14" stroke-width="1" opacity="0.04660781074452955"/>
<polygon points="368,65 376.6,70 376.6,80 368,85 359.4,80 359.4,70" fill="none" stroke="#39FF14" stroke-width="1" opacity="0.06747136925810626"/>
<polygon points="684,18 692.6,23 692.6,33 684,38 675.4,33 675.4,23" fill="none" stroke="#39FF14" stroke-width="1" opacity="0.059347338386906145"/>
<polygon points="162,94 170.6,99 170.6,109 162,114 153.4,109 153.4,99" fill="none" stroke="#39FF14" stroke-width="1" opacity="0.04031769621002361"/>
<polygon points="640,62 648.6,67 648.6,77 640,82 631.4,77 631.4,67" fill="none" stroke="#39FF14" stroke-width="1" opacity="0.030424154268927264"/>
<polygon points="553,72 561.6,77 561.6,87 553,92 544.4,87 544.4,77" fill="none" stroke="#39FF14" stroke-width="1" opacity="0.03944581073419372"/>
<polygon points="455,134 463.6,139 463.6,149 455,154 446.4,149 446.4,139" fill="none" stroke="#39FF14" stroke-width="1" opacity="0.05092229308030065"/>
<polygon points="365,30 373.6,35 373.6,45 365,50 356.4,45 356.4,35" fill="none" stroke="#39FF14" stroke-width="1" opacity="0.06421778314486967"/>
<polygon points="262,32 270.6,37 270.6,47 262,52 253.4,47 253.4,37" fill="none" stroke="#39FF14" stroke-width="1" opacity="0.07023840645885314"/>
<polygon points="426,17 434.6,22 434.6,32 426,37 417.4,32 417.4,22" fill="none" stroke="#39FF14" stroke-width="1" opacity="0.07998729790037071"/>
<polygon points="587,40 595.6,45 595.6,55 587,60 578.4,55 578.4,45" fill="none" stroke="#39FF14" stroke-width="1" opacity="0.05316794373821676"/>
<polygon points="337,182 345.6,187 345.6,197 337,202 328.4,197 328.4,187" fill="none" stroke="#39FF14" stroke-width="1" opacity="0.06611667395290532"/>
<polygon points="57,174 65.6,179 65.6,189 57,194 48.4,189 48.4,179" fill="none" stroke="#39FF14" stroke-width="1" opacity="0.041082651618132224"/>
<polygon points="86,86 94.6,91 94.6,101 86,106 77.4,101 77.4,91" fill="none" stroke="#39FF14" stroke-width="1" opacity="0.0763685890226922"/>
<polygon points="681,136 689.6,141 689.6,151 681,156 672.4,151 672.4,141" fill="none" stroke="#39FF14" stroke-width="1" opacity="0.03850554039652665"/>
<polygon points="702,115 710.6,120 710.6,130 702,135 693.4,130 693.4,120" fill="none" stroke="#39FF14" stroke-width="1" opacity="0.06909313191494545"/>
</g>

  <!-- HUD Decorative elements -->
  <path d="M 20 20 L 40 20 L 50 30" fill="none" stroke="#39FF14" stroke-width="2" opacity="0.5"/>
  <path d="M 830 180 L 810 180 L 800 170" fill="none" stroke="#39FF14" stroke-width="2" opacity="0.5"/>

  <g clip-path="url(#dashClip)">
    <rect x="-160" y="0" width="160" height="200" fill="url(#scanlineGrad)">
      <animateTransform attributeName="transform" type="translate"
                        from="0 0" to="1010 0" dur="6s" repeatCount="indefinite"/>
    </rect>
  </g>

  <g font-family="'Consolas', 'Fira Code', monospace" text-anchor="middle">

    <!-- NETWORK STATUS -->
    <g transform="translate(130, 100)">
        <circle cx="0" cy="0" r="45" fill="none" stroke="#39FF14" stroke-width="2" stroke-dasharray="10 5">
            <animateTransform attributeName="transform" type="rotate" from="0" to="360" dur="10s" repeatCount="indefinite"/>
        </circle>
        <circle cx="0" cy="0" r="35" fill="#0d0d0d" />
        <text x="0" y="-60" font-size="12" fill="#aaaaaa" letter-spacing="2">ROOT.AUTH</text>
        <text x="0" y="70" font-size="14" fill="#ffffff" font-weight="bold">OPERATIONAL</text>
    </g>

    <!-- ACTIVE USERS -->
    <g transform="translate(330, 100)">
        <text x="0" y="-20" font-size="12" fill="#aaaaaa">CITIZENS</text>
        <text x="0" y="15" font-size="28" fill="#ffffff" font-weight="bold" filter="url(#textGlow)">15,284</text>
        <text x="0" y="35" font-size="10" fill="#777777">VERIFIED HUMANS</text>
    </g>

    <!-- REGISTERED AGENTS -->
    <g transform="translate(530, 100)">
        <text x="0" y="-20" font-size="12" fill="#aaaaaa">AGENTS</text>
        <text x="0" y="15" font-size="28" fill="#00d4ff" font-weight="bold" filter="url(#textGlow)">4,582</text>
        <text x="0" y="35" font-size="10" fill="#777777">REGISTERED DIDs</text>
    </g>

    <!-- TRANSACTIONS -->
    <g transform="translate(730, 100)">
        <text x="0" y="-20" font-size="12" fill="#aaaaaa">TRANSFERS</text>
        <text x="0" y="15" font-size="28" fill="#ffffff" font-weight="bold">36,494</text>
        <text x="0" y="35" font-size="10" fill="#777777">M2M SETTLEMENTS</text>
    </g>
  </g>

  <text x="425" y="185" font-family="'Consolas', 'Fira Code', monospace" font-size="10" fill="#aaaaaa" opacity="0.6" text-anchor="middle">AXIOMID PROJECTED TARGETS (ILLUSTRATIVE): 2026-09-11 02:03:32 UTC // SECURE_HANDSHAKE</text>
</svg>