<svg width="850" height="200" viewBox="0 0 850 200" xmlns="http://www.w3.org/2000/svg">
  <defs>
    <pattern id="carbonFiber" width="10" height="10" patternUnits="userSpaceOnUse">
        <rect width="10" height="10" fill="#050505"/>
        <path d="M0,0 L5,5 L10,0 L5,-5 Z M5,5 L10,10 L15,5 L10,0 Z M-5,5 L0,10 L5,5 L0,0 Z M0,10 L5,15 L10,10 L5,5 Z" fill="#0d0d0d"/>
    </pattern>
    <filter id="textGlow">
      <feGaussianBlur stdDeviation="2" result="blur" />
      <feMerge>
        <feMergeNode in="blur"/>
        <feMergeNode in="SourceGraphic"/>
      </feMerge>
    </filter>
    <linearGradient id="neonBar" x1="0%" y1="0%" x2="100%" y2="0%">
        <stop offset="0%" stop-color="#111111"/>
        <stop offset="100%" stop-color="#39FF14"/>
    </linearGradient>
    <linearGradient id="scanlineGrad" x1="0%" y1="0%" x2="100%" y2="0%">
        <stop offset="0%" stop-color="#39FF14" stop-opacity="0"/>
        <stop offset="50%" stop-color="#39FF14" stop-opacity="0.18"/>
        <stop offset="100%" stop-color="#39FF14" stop-opacity="0"/>
    </linearGradient>
    <clipPath id="dashClip">
        <rect x="0" y="0" width="850" height="200" rx="12"/>
    </clipPath>
  </defs>

  <rect width="100%" height="100%" fill="url(#carbonFiber)" rx="12" stroke="#39FF14" stroke-width="1" stroke-opacity="0.3"/>
  <rect width="100%" height="100%" fill="#000000" opacity="0.6" rx="12" />
  <g><polygon points="308,-4 316.6,1 316.6,11 308,16 299.4,11 299.4,1" fill="none" stroke="#39FF14" stroke-width="1" opacity="0.06138126131738514"/>
<polygon points="301,70 309.6,75 309.6,85 301,90 292.4,85 292.4,75" fill="none" stroke="#39FF14" stroke-width="1" opacity="0.029858319123258672"/>
<polygon points="604,97 612.6,102 612.6,112 604,117 595.4,112 595.4,102" fill="none" stroke="#39FF14" stroke-width="1" opacity="0.03783973673253527"/>
<polygon points="312,110 320.6,115 320.6,125 312,130 303.4,125 303.4,115" fill="none" stroke="#39FF14" stroke-width="1" opacity="0.03752432548759067"/>
<polygon points="98,94 106.6,99 106.6,109 98,114 89.4,109 89.4,99" fill="none" stroke="#39FF14" stroke-width="1" opacity="0.07519012624311595"/>
<polygon points="225,0 233.6,5 233.6,15 225,20 216.4,15 216.4,5" fill="none" stroke="#39FF14" stroke-width="1" opacity="0.03726532435767159"/>
<polygon points="65,142 73.6,147 73.6,157 65,162 56.4,157 56.4,147" fill="none" stroke="#39FF14" stroke-width="1" opacity="0.043188670379628855"/>
<polygon points="692,117 700.6,122 700.6,132 692,137 683.4,132 683.4,122" fill="none" stroke="#39FF14" stroke-width="1" opacity="0.03149364053967461"/>
<polygon points="706,140 714.6,145 714.6,155 706,160 697.4,155 697.4,145" fill="none" stroke="#39FF14" stroke-width="1" opacity="0.06487154806385508"/>
<polygon points="384,151 392.6,156 392.6,166 384,171 375.4,166 375.4,156" fill="none" stroke="#39FF14" stroke-width="1" opacity="0.07163334085402413"/>
<polygon points="265,16 273.6,21 273.6,31 265,36 256.4,31 256.4,21" fill="none" stroke="#39FF14" stroke-width="1" opacity="0.0652521690902346"/>
<polygon points="349,76 357.6,81 357.6,91 349,96 340.4,91 340.4,81" fill="none" stroke="#39FF14" stroke-width="1" opacity="0.048321220630185804"/>
<polygon points="276,35 284.6,40 284.6,50 276,55 267.4,50 267.4,40" fill="none" stroke="#39FF14" stroke-width="1" opacity="0.04519970929396597"/>
<polygon points="513,70 521.6,75 521.6,85 513,90 504.4,85 504.4,75" fill="none" stroke="#39FF14" stroke-width="1" opacity="0.0671715083136519"/>
<polygon points="93,187 101.6,192 101.6,202 93,207 84.4,202 84.4,192" fill="none" stroke="#39FF14" stroke-width="1" opacity="0.05084872357563901"/>
<polygon points="27,95 35.6,100 35.6,110 27,115 18.4,110 18.4,100" fill="none" stroke="#39FF14" stroke-width="1" opacity="0.023381143479682735"/>
<polygon points="621,26 629.6,31 629.6,41 621,46 612.4,41 612.4,31" fill="none" stroke="#39FF14" stroke-width="1" opacity="0.02852196428517572"/>
<polygon points="366,149 374.6,154 374.6,164 366,169 357.4,164 357.4,154" fill="none" stroke="#39FF14" stroke-width="1" opacity="0.07198630853170451"/>
<polygon points="335,32 343.6,37 343.6,47 335,52 326.4,47 326.4,37" fill="none" stroke="#39FF14" stroke-width="1" opacity="0.044311539375437754"/>
<polygon points="432,14 440.6,19 440.6,29 432,34 423.4,29 423.4,19" fill="none" stroke="#39FF14" stroke-width="1" opacity="0.051338262227862516"/>
<polygon points="676,-10 684.6,-5 684.6,5 676,10 667.4,5 667.4,-5" fill="none" stroke="#39FF14" stroke-width="1" opacity="0.04295572161608187"/>
<polygon points="266,187 274.6,192 274.6,202 266,207 257.4,202 257.4,192" fill="none" stroke="#39FF14" stroke-width="1" opacity="0.058395138790113224"/>
<polygon points="327,10 335.6,15 335.6,25 327,30 318.4,25 318.4,15" fill="none" stroke="#39FF14" stroke-width="1" opacity="0.029794511952353258"/>
<polygon points="332,42 340.6,47 340.6,57 332,62 323.4,57 323.4,47" fill="none" stroke="#39FF14" stroke-width="1" opacity="0.04386893366255511"/>
<polygon points="709,131 717.6,136 717.6,146 709,151 700.4,146 700.4,136" fill="none" stroke="#39FF14" stroke-width="1" opacity="0.059451073558583506"/>
<polygon points="291,124 299.6,129 299.6,139 291,144 282.4,139 282.4,129" fill="none" stroke="#39FF14" stroke-width="1" opacity="0.07687124078040837"/>
<polygon points="522,169 530.6,174 530.6,184 522,189 513.4,184 513.4,174" fill="none" stroke="#39FF14" stroke-width="1" opacity="0.04812252040276917"/>
<polygon points="748,130 756.6,135 756.6,145 748,150 739.4,145 739.4,135" fill="none" stroke="#39FF14" stroke-width="1" opacity="0.04759226023349845"/>
<polygon points="584,103 592.6,108 592.6,118 584,123 575.4,118 575.4,108" fill="none" stroke="#39FF14" stroke-width="1" opacity="0.026672702278803397"/>
<polygon points="101,165 109.6,170 109.6,180 101,185 92.4,180 92.4,170" fill="none" stroke="#39FF14" stroke-width="1" opacity="0.05534220037683449"/>
</g>

  <!-- HUD Decorative elements -->
  <path d="M 20 20 L 40 20 L 50 30" fill="none" stroke="#39FF14" stroke-width="2" opacity="0.5"/>
  <path d="M 830 180 L 810 180 L 800 170" fill="none" stroke="#39FF14" stroke-width="2" opacity="0.5"/>

  <g clip-path="url(#dashClip)">
    <rect x="-160" y="0" width="160" height="200" fill="url(#scanlineGrad)">
      <animateTransform attributeName="transform" type="translate"
                        from="0 0" to="1010 0" dur="6s" repeatCount="indefinite"/>
    </rect>
  </g>

  <g font-family="'Consolas', 'Fira Code', monospace" text-anchor="middle">

    <!-- NETWORK STATUS -->
    <g transform="translate(130, 100)">
        <circle cx="0" cy="0" r="45" fill="none" stroke="#39FF14" stroke-width="2" stroke-dasharray="10 5">
            <animateTransform attributeName="transform" type="rotate" from="0" to="360" dur="10s" repeatCount="indefinite"/>
        </circle>
        <circle cx="0" cy="0" r="35" fill="#0d0d0d" />
        <text x="0" y="-60" font-size="12" fill="#aaaaaa" letter-spacing="2">ROOT.AUTH</text>
        <text x="0" y="70" font-size="14" fill="#ffffff" font-weight="bold">OPERATIONAL</text>
    </g>

    <!-- ACTIVE USERS -->
    <g transform="translate(330, 100)">
        <text x="0" y="-20" font-size="12" fill="#aaaaaa">CITIZENS</text>
        <text x="0" y="15" font-size="28" fill="#ffffff" font-weight="bold" filter="url(#textGlow)">13,619</text>
        <text x="0" y="35" font-size="10" fill="#777777">VERIFIED HUMANS</text>
    </g>

    <!-- REGISTERED AGENTS -->
    <g transform="translate(530, 100)">
        <text x="0" y="-20" font-size="12" fill="#aaaaaa">AGENTS</text>
        <text x="0" y="15" font-size="28" fill="#00d4ff" font-weight="bold" filter="url(#textGlow)">3,818</text>
        <text x="0" y="35" font-size="10" fill="#777777">REGISTERED DIDs</text>
    </g>

    <!-- TRANSACTIONS -->
    <g transform="translate(730, 100)">
        <text x="0" y="-20" font-size="12" fill="#aaaaaa">TRANSFERS</text>
        <text x="0" y="15" font-size="28" fill="#ffffff" font-weight="bold">38,126</text>
        <text x="0" y="35" font-size="10" fill="#777777">M2M SETTLEMENTS</text>
    </g>
  </g>

  <text x="425" y="185" font-family="'Consolas', 'Fira Code', monospace" font-size="10" fill="#aaaaaa" opacity="0.6" text-anchor="middle">AXIOMID PROJECTED TARGETS (ILLUSTRATIVE): 2026-07-06 19:42:25 UTC // SECURE_HANDSHAKE</text>
</svg>