<svg width="850" height="200" viewBox="0 0 850 200" xmlns="http://www.w3.org/2000/svg">
  <defs>
    <pattern id="carbonFiber" width="10" height="10" patternUnits="userSpaceOnUse">
        <rect width="10" height="10" fill="#050505"/>
        <path d="M0,0 L5,5 L10,0 L5,-5 Z M5,5 L10,10 L15,5 L10,0 Z M-5,5 L0,10 L5,5 L0,0 Z M0,10 L5,15 L10,10 L5,5 Z" fill="#0d0d0d"/>
    </pattern>
    <filter id="textGlow">
      <feGaussianBlur stdDeviation="2" result="blur" />
      <feMerge>
        <feMergeNode in="blur"/>
        <feMergeNode in="SourceGraphic"/>
      </feMerge>
    </filter>
    <linearGradient id="neonBar" x1="0%" y1="0%" x2="100%" y2="0%">
        <stop offset="0%" stop-color="#111111"/>
        <stop offset="100%" stop-color="#39FF14"/>
    </linearGradient>
    <linearGradient id="scanlineGrad" x1="0%" y1="0%" x2="100%" y2="0%">
        <stop offset="0%" stop-color="#39FF14" stop-opacity="0"/>
        <stop offset="50%" stop-color="#39FF14" stop-opacity="0.18"/>
        <stop offset="100%" stop-color="#39FF14" stop-opacity="0"/>
    </linearGradient>
    <clipPath id="dashClip">
        <rect x="0" y="0" width="850" height="200" rx="12"/>
    </clipPath>
  </defs>

  <rect width="100%" height="100%" fill="url(#carbonFiber)" rx="12" stroke="#39FF14" stroke-width="1" stroke-opacity="0.3"/>
  <rect width="100%" height="100%" fill="#000000" opacity="0.6" rx="12" />
  <g><polygon points="409,110 417.6,115 417.6,125 409,130 400.4,125 400.4,115" fill="none" stroke="#39FF14" stroke-width="1" opacity="0.07106486295036336"/>
<polygon points="543,81 551.6,86 551.6,96 543,101 534.4,96 534.4,86" fill="none" stroke="#39FF14" stroke-width="1" opacity="0.04036624042503997"/>
<polygon points="704,38 712.6,43 712.6,53 704,58 695.4,53 695.4,43" fill="none" stroke="#39FF14" stroke-width="1" opacity="0.03034439260384129"/>
<polygon points="813,34 821.6,39 821.6,49 813,54 804.4,49 804.4,39" fill="none" stroke="#39FF14" stroke-width="1" opacity="0.029305944404504236"/>
<polygon points="493,153 501.6,158 501.6,168 493,173 484.4,168 484.4,158" fill="none" stroke="#39FF14" stroke-width="1" opacity="0.07522344729864026"/>
<polygon points="233,-2 241.6,3 241.6,13 233,18 224.4,13 224.4,3" fill="none" stroke="#39FF14" stroke-width="1" opacity="0.07924327194238305"/>
<polygon points="556,17 564.6,22 564.6,32 556,37 547.4,32 547.4,22" fill="none" stroke="#39FF14" stroke-width="1" opacity="0.06992920208207849"/>
<polygon points="819,84 827.6,89 827.6,99 819,104 810.4,99 810.4,89" fill="none" stroke="#39FF14" stroke-width="1" opacity="0.05483654637528973"/>
<polygon points="471,46 479.6,51 479.6,61 471,66 462.4,61 462.4,51" fill="none" stroke="#39FF14" stroke-width="1" opacity="0.06864252707204783"/>
<polygon points="46,72 54.6,77 54.6,87 46,92 37.4,87 37.4,77" fill="none" stroke="#39FF14" stroke-width="1" opacity="0.03710682375471977"/>
<polygon points="99,100 107.6,105 107.6,115 99,120 90.4,115 90.4,105" fill="none" stroke="#39FF14" stroke-width="1" opacity="0.06911077767754115"/>
<polygon points="307,102 315.6,107 315.6,117 307,122 298.4,117 298.4,107" fill="none" stroke="#39FF14" stroke-width="1" opacity="0.07959283850448569"/>
<polygon points="211,19 219.6,24 219.6,34 211,39 202.4,34 202.4,24" fill="none" stroke="#39FF14" stroke-width="1" opacity="0.07219235066589687"/>
<polygon points="691,138 699.6,143 699.6,153 691,158 682.4,153 682.4,143" fill="none" stroke="#39FF14" stroke-width="1" opacity="0.06922434852114549"/>
<polygon points="556,16 564.6,21 564.6,31 556,36 547.4,31 547.4,21" fill="none" stroke="#39FF14" stroke-width="1" opacity="0.05445616112026326"/>
<polygon points="561,70 569.6,75 569.6,85 561,90 552.4,85 552.4,75" fill="none" stroke="#39FF14" stroke-width="1" opacity="0.05005122661648694"/>
<polygon points="413,16 421.6,21 421.6,31 413,36 404.4,31 404.4,21" fill="none" stroke="#39FF14" stroke-width="1" opacity="0.06341816933945232"/>
<polygon points="180,98 188.6,103 188.6,113 180,118 171.4,113 171.4,103" fill="none" stroke="#39FF14" stroke-width="1" opacity="0.07067284203684329"/>
<polygon points="338,9 346.6,14 346.6,24 338,29 329.4,24 329.4,14" fill="none" stroke="#39FF14" stroke-width="1" opacity="0.0299742709350104"/>
<polygon points="50,7 58.6,12 58.6,22 50,27 41.4,22 41.4,12" fill="none" stroke="#39FF14" stroke-width="1" opacity="0.02116915313912817"/>
<polygon points="199,157 207.6,162 207.6,172 199,177 190.4,172 190.4,162" fill="none" stroke="#39FF14" stroke-width="1" opacity="0.049418661120311194"/>
<polygon points="567,78 575.6,83 575.6,93 567,98 558.4,93 558.4,83" fill="none" stroke="#39FF14" stroke-width="1" opacity="0.041124602155050385"/>
<polygon points="248,141 256.6,146 256.6,156 248,161 239.4,156 239.4,146" fill="none" stroke="#39FF14" stroke-width="1" opacity="0.025436823825974827"/>
<polygon points="635,95 643.6,100 643.6,110 635,115 626.4,110 626.4,100" fill="none" stroke="#39FF14" stroke-width="1" opacity="0.029452253117243143"/>
<polygon points="190,5 198.6,10 198.6,20 190,25 181.4,20 181.4,10" fill="none" stroke="#39FF14" stroke-width="1" opacity="0.04591198129487375"/>
<polygon points="249,116 257.6,121 257.6,131 249,136 240.4,131 240.4,121" fill="none" stroke="#39FF14" stroke-width="1" opacity="0.03405104209462966"/>
<polygon points="419,184 427.6,189 427.6,199 419,204 410.4,199 410.4,189" fill="none" stroke="#39FF14" stroke-width="1" opacity="0.06903333267128144"/>
<polygon points="221,118 229.6,123 229.6,133 221,138 212.4,133 212.4,123" fill="none" stroke="#39FF14" stroke-width="1" opacity="0.0649346962742217"/>
<polygon points="275,20 283.6,25 283.6,35 275,40 266.4,35 266.4,25" fill="none" stroke="#39FF14" stroke-width="1" opacity="0.07721757924725986"/>
<polygon points="458,92 466.6,97 466.6,107 458,112 449.4,107 449.4,97" fill="none" stroke="#39FF14" stroke-width="1" opacity="0.07101162899467682"/>
</g>

  <!-- HUD Decorative elements -->
  <path d="M 20 20 L 40 20 L 50 30" fill="none" stroke="#39FF14" stroke-width="2" opacity="0.5"/>
  <path d="M 830 180 L 810 180 L 800 170" fill="none" stroke="#39FF14" stroke-width="2" opacity="0.5"/>

  <g clip-path="url(#dashClip)">
    <rect x="-160" y="0" width="160" height="200" fill="url(#scanlineGrad)">
      <animateTransform attributeName="transform" type="translate"
                        from="0 0" to="1010 0" dur="6s" repeatCount="indefinite"/>
    </rect>
  </g>

  <g font-family="'Consolas', 'Fira Code', monospace" text-anchor="middle">

    <!-- NETWORK STATUS -->
    <g transform="translate(130, 100)">
        <circle cx="0" cy="0" r="45" fill="none" stroke="#39FF14" stroke-width="2" stroke-dasharray="10 5">
            <animateTransform attributeName="transform" type="rotate" from="0" to="360" dur="10s" repeatCount="indefinite"/>
        </circle>
        <circle cx="0" cy="0" r="35" fill="#0d0d0d" />
        <text x="0" y="-60" font-size="12" fill="#aaaaaa" letter-spacing="2">ROOT.AUTH</text>
        <text x="0" y="70" font-size="14" fill="#ffffff" font-weight="bold">OPERATIONAL</text>
    </g>

    <!-- ACTIVE USERS -->
    <g transform="translate(330, 100)">
        <text x="0" y="-20" font-size="12" fill="#aaaaaa">CITIZENS</text>
        <text x="0" y="15" font-size="28" fill="#ffffff" font-weight="bold" filter="url(#textGlow)">15,178</text>
        <text x="0" y="35" font-size="10" fill="#777777">VERIFIED HUMANS</text>
    </g>

    <!-- REGISTERED AGENTS -->
    <g transform="translate(530, 100)">
        <text x="0" y="-20" font-size="12" fill="#aaaaaa">AGENTS</text>
        <text x="0" y="15" font-size="28" fill="#00d4ff" font-weight="bold" filter="url(#textGlow)">3,886</text>
        <text x="0" y="35" font-size="10" fill="#777777">REGISTERED DIDs</text>
    </g>

    <!-- TRANSACTIONS -->
    <g transform="translate(730, 100)">
        <text x="0" y="-20" font-size="12" fill="#aaaaaa">TRANSFERS</text>
        <text x="0" y="15" font-size="28" fill="#ffffff" font-weight="bold">30,807</text>
        <text x="0" y="35" font-size="10" fill="#777777">M2M SETTLEMENTS</text>
    </g>
  </g>

  <text x="425" y="185" font-family="'Consolas', 'Fira Code', monospace" font-size="10" fill="#aaaaaa" opacity="0.6" text-anchor="middle">AXIOMID PROJECTED TARGETS (ILLUSTRATIVE): 2026-06-23 15:58:26 UTC // SECURE_HANDSHAKE</text>
</svg>