<svg width="850" height="200" viewBox="0 0 850 200" xmlns="http://www.w3.org/2000/svg">
  <defs>
    <pattern id="carbonFiber" width="10" height="10" patternUnits="userSpaceOnUse">
        <rect width="10" height="10" fill="#050505"/>
        <path d="M0,0 L5,5 L10,0 L5,-5 Z M5,5 L10,10 L15,5 L10,0 Z M-5,5 L0,10 L5,5 L0,0 Z M0,10 L5,15 L10,10 L5,5 Z" fill="#0d0d0d"/>
    </pattern>
    <filter id="textGlow">
      <feGaussianBlur stdDeviation="2" result="blur" />
      <feMerge>
        <feMergeNode in="blur"/>
        <feMergeNode in="SourceGraphic"/>
      </feMerge>
    </filter>
    <linearGradient id="neonBar" x1="0%" y1="0%" x2="100%" y2="0%">
        <stop offset="0%" stop-color="#111111"/>
        <stop offset="100%" stop-color="#39FF14"/>
    </linearGradient>
    <linearGradient id="scanlineGrad" x1="0%" y1="0%" x2="100%" y2="0%">
        <stop offset="0%" stop-color="#39FF14" stop-opacity="0"/>
        <stop offset="50%" stop-color="#39FF14" stop-opacity="0.18"/>
        <stop offset="100%" stop-color="#39FF14" stop-opacity="0"/>
    </linearGradient>
    <clipPath id="dashClip">
        <rect x="0" y="0" width="850" height="200" rx="12"/>
    </clipPath>
  </defs>

  <rect width="100%" height="100%" fill="url(#carbonFiber)" rx="12" stroke="#39FF14" stroke-width="1" stroke-opacity="0.3"/>
  <rect width="100%" height="100%" fill="#000000" opacity="0.6" rx="12" />
  <g><polygon points="815,128 823.6,133 823.6,143 815,148 806.4,143 806.4,133" fill="none" stroke="#39FF14" stroke-width="1" opacity="0.04136350022692561"/>
<polygon points="613,33 621.6,38 621.6,48 613,53 604.4,48 604.4,38" fill="none" stroke="#39FF14" stroke-width="1" opacity="0.05781132295009764"/>
<polygon points="767,156 775.6,161 775.6,171 767,176 758.4,171 758.4,161" fill="none" stroke="#39FF14" stroke-width="1" opacity="0.049688451380477824"/>
<polygon points="537,75 545.6,80 545.6,90 537,95 528.4,90 528.4,80" fill="none" stroke="#39FF14" stroke-width="1" opacity="0.052073209018252506"/>
<polygon points="268,22 276.6,27 276.6,37 268,42 259.4,37 259.4,27" fill="none" stroke="#39FF14" stroke-width="1" opacity="0.06025426004340273"/>
<polygon points="444,130 452.6,135 452.6,145 444,150 435.4,145 435.4,135" fill="none" stroke="#39FF14" stroke-width="1" opacity="0.07373875516062574"/>
<polygon points="173,22 181.6,27 181.6,37 173,42 164.4,37 164.4,27" fill="none" stroke="#39FF14" stroke-width="1" opacity="0.0270071886560736"/>
<polygon points="528,157 536.6,162 536.6,172 528,177 519.4,172 519.4,162" fill="none" stroke="#39FF14" stroke-width="1" opacity="0.06117454645170037"/>
<polygon points="375,6 383.6,11 383.6,21 375,26 366.4,21 366.4,11" fill="none" stroke="#39FF14" stroke-width="1" opacity="0.06554465043705791"/>
<polygon points="597,20 605.6,25 605.6,35 597,40 588.4,35 588.4,25" fill="none" stroke="#39FF14" stroke-width="1" opacity="0.0212598524360853"/>
<polygon points="341,23 349.6,28 349.6,38 341,43 332.4,38 332.4,28" fill="none" stroke="#39FF14" stroke-width="1" opacity="0.046109976180053164"/>
<polygon points="597,110 605.6,115 605.6,125 597,130 588.4,125 588.4,115" fill="none" stroke="#39FF14" stroke-width="1" opacity="0.05978437527310135"/>
<polygon points="518,106 526.6,111 526.6,121 518,126 509.4,121 509.4,111" fill="none" stroke="#39FF14" stroke-width="1" opacity="0.06805376378835726"/>
<polygon points="304,21 312.6,26 312.6,36 304,41 295.4,36 295.4,26" fill="none" stroke="#39FF14" stroke-width="1" opacity="0.0365350681133683"/>
<polygon points="714,88 722.6,93 722.6,103 714,108 705.4,103 705.4,93" fill="none" stroke="#39FF14" stroke-width="1" opacity="0.035946695156279074"/>
<polygon points="518,62 526.6,67 526.6,77 518,82 509.4,77 509.4,67" fill="none" stroke="#39FF14" stroke-width="1" opacity="0.03350449414706442"/>
<polygon points="95,48 103.6,53 103.6,63 95,68 86.4,63 86.4,53" fill="none" stroke="#39FF14" stroke-width="1" opacity="0.06490203406062717"/>
<polygon points="153,6 161.6,11 161.6,21 153,26 144.4,21 144.4,11" fill="none" stroke="#39FF14" stroke-width="1" opacity="0.05830456459203019"/>
<polygon points="417,139 425.6,144 425.6,154 417,159 408.4,154 408.4,144" fill="none" stroke="#39FF14" stroke-width="1" opacity="0.06941203855592462"/>
<polygon points="788,7 796.6,12 796.6,22 788,27 779.4,22 779.4,12" fill="none" stroke="#39FF14" stroke-width="1" opacity="0.039695944075445515"/>
<polygon points="679,7 687.6,12 687.6,22 679,27 670.4,22 670.4,12" fill="none" stroke="#39FF14" stroke-width="1" opacity="0.06324347993075993"/>
<polygon points="781,64 789.6,69 789.6,79 781,84 772.4,79 772.4,69" fill="none" stroke="#39FF14" stroke-width="1" opacity="0.021715637439776628"/>
<polygon points="731,-3 739.6,2 739.6,12 731,17 722.4,12 722.4,2" fill="none" stroke="#39FF14" stroke-width="1" opacity="0.03658667339824477"/>
<polygon points="110,61 118.6,66 118.6,76 110,81 101.4,76 101.4,66" fill="none" stroke="#39FF14" stroke-width="1" opacity="0.034908466546831954"/>
<polygon points="548,156 556.6,161 556.6,171 548,176 539.4,171 539.4,161" fill="none" stroke="#39FF14" stroke-width="1" opacity="0.03914162226488052"/>
<polygon points="735,141 743.6,146 743.6,156 735,161 726.4,156 726.4,146" fill="none" stroke="#39FF14" stroke-width="1" opacity="0.033494702718974985"/>
<polygon points="543,167 551.6,172 551.6,182 543,187 534.4,182 534.4,172" fill="none" stroke="#39FF14" stroke-width="1" opacity="0.056134637898326595"/>
<polygon points="644,27 652.6,32 652.6,42 644,47 635.4,42 635.4,32" fill="none" stroke="#39FF14" stroke-width="1" opacity="0.03842636101249837"/>
<polygon points="115,59 123.6,64 123.6,74 115,79 106.4,74 106.4,64" fill="none" stroke="#39FF14" stroke-width="1" opacity="0.07704167219530131"/>
<polygon points="387,166 395.6,171 395.6,181 387,186 378.4,181 378.4,171" fill="none" stroke="#39FF14" stroke-width="1" opacity="0.040799906842568685"/>
</g>

  <!-- HUD Decorative elements -->
  <path d="M 20 20 L 40 20 L 50 30" fill="none" stroke="#39FF14" stroke-width="2" opacity="0.5"/>
  <path d="M 830 180 L 810 180 L 800 170" fill="none" stroke="#39FF14" stroke-width="2" opacity="0.5"/>

  <g clip-path="url(#dashClip)">
    <rect x="-160" y="0" width="160" height="200" fill="url(#scanlineGrad)">
      <animateTransform attributeName="transform" type="translate"
                        from="0 0" to="1010 0" dur="6s" repeatCount="indefinite"/>
    </rect>
  </g>

  <g font-family="'Consolas', 'Fira Code', monospace" text-anchor="middle">

    <!-- NETWORK STATUS -->
    <g transform="translate(130, 100)">
        <circle cx="0" cy="0" r="45" fill="none" stroke="#39FF14" stroke-width="2" stroke-dasharray="10 5">
            <animateTransform attributeName="transform" type="rotate" from="0" to="360" dur="10s" repeatCount="indefinite"/>
        </circle>
        <circle cx="0" cy="0" r="35" fill="#0d0d0d" />
        <text x="0" y="-60" font-size="12" fill="#aaaaaa" letter-spacing="2">ROOT.AUTH</text>
        <text x="0" y="70" font-size="14" fill="#ffffff" font-weight="bold">OPERATIONAL</text>
    </g>

    <!-- ACTIVE USERS -->
    <g transform="translate(330, 100)">
        <text x="0" y="-20" font-size="12" fill="#aaaaaa">CITIZENS</text>
        <text x="0" y="15" font-size="28" fill="#ffffff" font-weight="bold" filter="url(#textGlow)">15,403</text>
        <text x="0" y="35" font-size="10" fill="#777777">VERIFIED HUMANS</text>
    </g>

    <!-- REGISTERED AGENTS -->
    <g transform="translate(530, 100)">
        <text x="0" y="-20" font-size="12" fill="#aaaaaa">AGENTS</text>
        <text x="0" y="15" font-size="28" fill="#00d4ff" font-weight="bold" filter="url(#textGlow)">3,514</text>
        <text x="0" y="35" font-size="10" fill="#777777">REGISTERED DIDs</text>
    </g>

    <!-- TRANSACTIONS -->
    <g transform="translate(730, 100)">
        <text x="0" y="-20" font-size="12" fill="#aaaaaa">TRANSFERS</text>
        <text x="0" y="15" font-size="28" fill="#ffffff" font-weight="bold">31,627</text>
        <text x="0" y="35" font-size="10" fill="#777777">M2M SETTLEMENTS</text>
    </g>
  </g>

  <text x="425" y="185" font-family="'Consolas', 'Fira Code', monospace" font-size="10" fill="#aaaaaa" opacity="0.6" text-anchor="middle">AXIOMID PROJECTED TARGETS (ILLUSTRATIVE): 2026-07-22 10:41:43 UTC // SECURE_HANDSHAKE</text>
</svg>