<svg width="850" height="200" viewBox="0 0 850 200" xmlns="http://www.w3.org/2000/svg">
  <defs>
    <pattern id="carbonFiber" width="10" height="10" patternUnits="userSpaceOnUse">
        <rect width="10" height="10" fill="#050505"/>
        <path d="M0,0 L5,5 L10,0 L5,-5 Z M5,5 L10,10 L15,5 L10,0 Z M-5,5 L0,10 L5,5 L0,0 Z M0,10 L5,15 L10,10 L5,5 Z" fill="#0d0d0d"/>
    </pattern>
    <filter id="textGlow">
      <feGaussianBlur stdDeviation="2" result="blur" />
      <feMerge>
        <feMergeNode in="blur"/>
        <feMergeNode in="SourceGraphic"/>
      </feMerge>
    </filter>
    <linearGradient id="neonBar" x1="0%" y1="0%" x2="100%" y2="0%">
        <stop offset="0%" stop-color="#111111"/>
        <stop offset="100%" stop-color="#39FF14"/>
    </linearGradient>
    <linearGradient id="scanlineGrad" x1="0%" y1="0%" x2="100%" y2="0%">
        <stop offset="0%" stop-color="#39FF14" stop-opacity="0"/>
        <stop offset="50%" stop-color="#39FF14" stop-opacity="0.18"/>
        <stop offset="100%" stop-color="#39FF14" stop-opacity="0"/>
    </linearGradient>
    <clipPath id="dashClip">
        <rect x="0" y="0" width="850" height="200" rx="12"/>
    </clipPath>
  </defs>

  <rect width="100%" height="100%" fill="url(#carbonFiber)" rx="12" stroke="#39FF14" stroke-width="1" stroke-opacity="0.3"/>
  <rect width="100%" height="100%" fill="#000000" opacity="0.6" rx="12" />
  <g><polygon points="246,51 254.6,56 254.6,66 246,71 237.4,66 237.4,56" fill="none" stroke="#39FF14" stroke-width="1" opacity="0.04460805981792956"/>
<polygon points="390,128 398.6,133 398.6,143 390,148 381.4,143 381.4,133" fill="none" stroke="#39FF14" stroke-width="1" opacity="0.0593685543372353"/>
<polygon points="834,160 842.6,165 842.6,175 834,180 825.4,175 825.4,165" fill="none" stroke="#39FF14" stroke-width="1" opacity="0.07954511448329961"/>
<polygon points="22,24 30.6,29 30.6,39 22,44 13.4,39 13.4,29" fill="none" stroke="#39FF14" stroke-width="1" opacity="0.043393456523158236"/>
<polygon points="429,171 437.6,176 437.6,186 429,191 420.4,186 420.4,176" fill="none" stroke="#39FF14" stroke-width="1" opacity="0.02095103011037632"/>
<polygon points="452,122 460.6,127 460.6,137 452,142 443.4,137 443.4,127" fill="none" stroke="#39FF14" stroke-width="1" opacity="0.056815125825268833"/>
<polygon points="538,12 546.6,17 546.6,27 538,32 529.4,27 529.4,17" fill="none" stroke="#39FF14" stroke-width="1" opacity="0.03764527881120352"/>
<polygon points="92,144 100.6,149 100.6,159 92,164 83.4,159 83.4,149" fill="none" stroke="#39FF14" stroke-width="1" opacity="0.04908567733388769"/>
<polygon points="590,143 598.6,148 598.6,158 590,163 581.4,158 581.4,148" fill="none" stroke="#39FF14" stroke-width="1" opacity="0.042898251092560624"/>
<polygon points="609,40 617.6,45 617.6,55 609,60 600.4,55 600.4,45" fill="none" stroke="#39FF14" stroke-width="1" opacity="0.03814871778651294"/>
<polygon points="499,122 507.6,127 507.6,137 499,142 490.4,137 490.4,127" fill="none" stroke="#39FF14" stroke-width="1" opacity="0.04533394266622888"/>
<polygon points="613,16 621.6,21 621.6,31 613,36 604.4,31 604.4,21" fill="none" stroke="#39FF14" stroke-width="1" opacity="0.030568959879594786"/>
<polygon points="117,1 125.6,6 125.6,16 117,21 108.4,16 108.4,6" fill="none" stroke="#39FF14" stroke-width="1" opacity="0.055039168620047235"/>
<polygon points="788,163 796.6,168 796.6,178 788,183 779.4,178 779.4,168" fill="none" stroke="#39FF14" stroke-width="1" opacity="0.031222153227077387"/>
<polygon points="161,149 169.6,154 169.6,164 161,169 152.4,164 152.4,154" fill="none" stroke="#39FF14" stroke-width="1" opacity="0.05460714495247515"/>
<polygon points="311,40 319.6,45 319.6,55 311,60 302.4,55 302.4,45" fill="none" stroke="#39FF14" stroke-width="1" opacity="0.05305003520020968"/>
<polygon points="437,30 445.6,35 445.6,45 437,50 428.4,45 428.4,35" fill="none" stroke="#39FF14" stroke-width="1" opacity="0.0347012024863448"/>
<polygon points="823,17 831.6,22 831.6,32 823,37 814.4,32 814.4,22" fill="none" stroke="#39FF14" stroke-width="1" opacity="0.06327995473251691"/>
<polygon points="363,24 371.6,29 371.6,39 363,44 354.4,39 354.4,29" fill="none" stroke="#39FF14" stroke-width="1" opacity="0.07779250524969933"/>
<polygon points="612,-10 620.6,-5 620.6,5 612,10 603.4,5 603.4,-5" fill="none" stroke="#39FF14" stroke-width="1" opacity="0.031433024513207904"/>
<polygon points="35,174 43.6,179 43.6,189 35,194 26.4,189 26.4,179" fill="none" stroke="#39FF14" stroke-width="1" opacity="0.03777934700583225"/>
<polygon points="795,159 803.6,164 803.6,174 795,179 786.4,174 786.4,164" fill="none" stroke="#39FF14" stroke-width="1" opacity="0.04611344891821348"/>
<polygon points="60,23 68.6,28 68.6,38 60,43 51.4,38 51.4,28" fill="none" stroke="#39FF14" stroke-width="1" opacity="0.0613297796335692"/>
<polygon points="818,16 826.6,21 826.6,31 818,36 809.4,31 809.4,21" fill="none" stroke="#39FF14" stroke-width="1" opacity="0.026286555300891804"/>
<polygon points="230,111 238.6,116 238.6,126 230,131 221.4,126 221.4,116" fill="none" stroke="#39FF14" stroke-width="1" opacity="0.07476859960202194"/>
<polygon points="243,99 251.6,104 251.6,114 243,119 234.4,114 234.4,104" fill="none" stroke="#39FF14" stroke-width="1" opacity="0.040406678128912785"/>
<polygon points="731,170 739.6,175 739.6,185 731,190 722.4,185 722.4,175" fill="none" stroke="#39FF14" stroke-width="1" opacity="0.07575523376714016"/>
<polygon points="258,23 266.6,28 266.6,38 258,43 249.4,38 249.4,28" fill="none" stroke="#39FF14" stroke-width="1" opacity="0.02528200841950809"/>
<polygon points="426,162 434.6,167 434.6,177 426,182 417.4,177 417.4,167" fill="none" stroke="#39FF14" stroke-width="1" opacity="0.03863551546954838"/>
<polygon points="745,49 753.6,54 753.6,64 745,69 736.4,64 736.4,54" fill="none" stroke="#39FF14" stroke-width="1" opacity="0.06723691560220943"/>
</g>

  <!-- HUD Decorative elements -->
  <path d="M 20 20 L 40 20 L 50 30" fill="none" stroke="#39FF14" stroke-width="2" opacity="0.5"/>
  <path d="M 830 180 L 810 180 L 800 170" fill="none" stroke="#39FF14" stroke-width="2" opacity="0.5"/>

  <g clip-path="url(#dashClip)">
    <rect x="-160" y="0" width="160" height="200" fill="url(#scanlineGrad)">
      <animateTransform attributeName="transform" type="translate"
                        from="0 0" to="1010 0" dur="6s" repeatCount="indefinite"/>
    </rect>
  </g>

  <g font-family="'Consolas', 'Fira Code', monospace" text-anchor="middle">

    <!-- NETWORK STATUS -->
    <g transform="translate(130, 100)">
        <circle cx="0" cy="0" r="45" fill="none" stroke="#39FF14" stroke-width="2" stroke-dasharray="10 5">
            <animateTransform attributeName="transform" type="rotate" from="0" to="360" dur="10s" repeatCount="indefinite"/>
        </circle>
        <circle cx="0" cy="0" r="35" fill="#0d0d0d" />
        <text x="0" y="-60" font-size="12" fill="#aaaaaa" letter-spacing="2">ROOT.AUTH</text>
        <text x="0" y="70" font-size="14" fill="#ffffff" font-weight="bold">OPERATIONAL</text>
    </g>

    <!-- ACTIVE USERS -->
    <g transform="translate(330, 100)">
        <text x="0" y="-20" font-size="12" fill="#aaaaaa">CITIZENS</text>
        <text x="0" y="15" font-size="28" fill="#ffffff" font-weight="bold" filter="url(#textGlow)">14,431</text>
        <text x="0" y="35" font-size="10" fill="#777777">VERIFIED HUMANS</text>
    </g>

    <!-- REGISTERED AGENTS -->
    <g transform="translate(530, 100)">
        <text x="0" y="-20" font-size="12" fill="#aaaaaa">AGENTS</text>
        <text x="0" y="15" font-size="28" fill="#00d4ff" font-weight="bold" filter="url(#textGlow)">3,272</text>
        <text x="0" y="35" font-size="10" fill="#777777">REGISTERED DIDs</text>
    </g>

    <!-- TRANSACTIONS -->
    <g transform="translate(730, 100)">
        <text x="0" y="-20" font-size="12" fill="#aaaaaa">TRANSFERS</text>
        <text x="0" y="15" font-size="28" fill="#ffffff" font-weight="bold">37,682</text>
        <text x="0" y="35" font-size="10" fill="#777777">M2M SETTLEMENTS</text>
    </g>
  </g>

  <text x="425" y="185" font-family="'Consolas', 'Fira Code', monospace" font-size="10" fill="#aaaaaa" opacity="0.6" text-anchor="middle">AXIOMID PROJECTED TARGETS (ILLUSTRATIVE): 2026-07-03 06:21:06 UTC // SECURE_HANDSHAKE</text>
</svg>