<svg width="850" height="200" viewBox="0 0 850 200" xmlns="http://www.w3.org/2000/svg">
  <defs>
    <pattern id="carbonFiber" width="10" height="10" patternUnits="userSpaceOnUse">
        <rect width="10" height="10" fill="#050505"/>
        <path d="M0,0 L5,5 L10,0 L5,-5 Z M5,5 L10,10 L15,5 L10,0 Z M-5,5 L0,10 L5,5 L0,0 Z M0,10 L5,15 L10,10 L5,5 Z" fill="#0d0d0d"/>
    </pattern>
    <filter id="textGlow">
      <feGaussianBlur stdDeviation="2" result="blur" />
      <feMerge>
        <feMergeNode in="blur"/>
        <feMergeNode in="SourceGraphic"/>
      </feMerge>
    </filter>
    <linearGradient id="neonBar" x1="0%" y1="0%" x2="100%" y2="0%">
        <stop offset="0%" stop-color="#111111"/>
        <stop offset="100%" stop-color="#39FF14"/>
    </linearGradient>
    <linearGradient id="scanlineGrad" x1="0%" y1="0%" x2="100%" y2="0%">
        <stop offset="0%" stop-color="#39FF14" stop-opacity="0"/>
        <stop offset="50%" stop-color="#39FF14" stop-opacity="0.18"/>
        <stop offset="100%" stop-color="#39FF14" stop-opacity="0"/>
    </linearGradient>
    <clipPath id="dashClip">
        <rect x="0" y="0" width="850" height="200" rx="12"/>
    </clipPath>
  </defs>

  <rect width="100%" height="100%" fill="url(#carbonFiber)" rx="12" stroke="#39FF14" stroke-width="1" stroke-opacity="0.3"/>
  <rect width="100%" height="100%" fill="#000000" opacity="0.6" rx="12" />
  <g><polygon points="810,150 818.6,155 818.6,165 810,170 801.4,165 801.4,155" fill="none" stroke="#39FF14" stroke-width="1" opacity="0.060989471079230015"/>
<polygon points="349,45 357.6,50 357.6,60 349,65 340.4,60 340.4,50" fill="none" stroke="#39FF14" stroke-width="1" opacity="0.020096588269530792"/>
<polygon points="529,101 537.6,106 537.6,116 529,121 520.4,116 520.4,106" fill="none" stroke="#39FF14" stroke-width="1" opacity="0.06423648206616958"/>
<polygon points="463,164 471.6,169 471.6,179 463,184 454.4,179 454.4,169" fill="none" stroke="#39FF14" stroke-width="1" opacity="0.020964999976129967"/>
<polygon points="374,68 382.6,73 382.6,83 374,88 365.4,83 365.4,73" fill="none" stroke="#39FF14" stroke-width="1" opacity="0.0699874449045919"/>
<polygon points="138,7 146.6,12 146.6,22 138,27 129.4,22 129.4,12" fill="none" stroke="#39FF14" stroke-width="1" opacity="0.06497216125465122"/>
<polygon points="631,41 639.6,46 639.6,56 631,61 622.4,56 622.4,46" fill="none" stroke="#39FF14" stroke-width="1" opacity="0.044548267130119154"/>
<polygon points="158,125 166.6,130 166.6,140 158,145 149.4,140 149.4,130" fill="none" stroke="#39FF14" stroke-width="1" opacity="0.06683629295554544"/>
<polygon points="525,83 533.6,88 533.6,98 525,103 516.4,98 516.4,88" fill="none" stroke="#39FF14" stroke-width="1" opacity="0.06108185748956506"/>
<polygon points="308,131 316.6,136 316.6,146 308,151 299.4,146 299.4,136" fill="none" stroke="#39FF14" stroke-width="1" opacity="0.028208761511310545"/>
<polygon points="28,84 36.6,89 36.6,99 28,104 19.4,99 19.4,89" fill="none" stroke="#39FF14" stroke-width="1" opacity="0.03562912502890439"/>
<polygon points="402,87 410.6,92 410.6,102 402,107 393.4,102 393.4,92" fill="none" stroke="#39FF14" stroke-width="1" opacity="0.04879775074214024"/>
<polygon points="34,182 42.6,187 42.6,197 34,202 25.4,197 25.4,187" fill="none" stroke="#39FF14" stroke-width="1" opacity="0.030708079414464483"/>
<polygon points="674,179 682.6,184 682.6,194 674,199 665.4,194 665.4,184" fill="none" stroke="#39FF14" stroke-width="1" opacity="0.04317983614285119"/>
<polygon points="47,189 55.6,194 55.6,204 47,209 38.4,204 38.4,194" fill="none" stroke="#39FF14" stroke-width="1" opacity="0.0718329884040067"/>
<polygon points="276,142 284.6,147 284.6,157 276,162 267.4,157 267.4,147" fill="none" stroke="#39FF14" stroke-width="1" opacity="0.02620860616479572"/>
<polygon points="413,4 421.6,9 421.6,19 413,24 404.4,19 404.4,9" fill="none" stroke="#39FF14" stroke-width="1" opacity="0.05948507773233361"/>
<polygon points="388,14 396.6,19 396.6,29 388,34 379.4,29 379.4,19" fill="none" stroke="#39FF14" stroke-width="1" opacity="0.06553839896288885"/>
<polygon points="789,18 797.6,23 797.6,33 789,38 780.4,33 780.4,23" fill="none" stroke="#39FF14" stroke-width="1" opacity="0.05670163134515731"/>
<polygon points="203,16 211.6,21 211.6,31 203,36 194.4,31 194.4,21" fill="none" stroke="#39FF14" stroke-width="1" opacity="0.05238390099787417"/>
<polygon points="556,188 564.6,193 564.6,203 556,208 547.4,203 547.4,193" fill="none" stroke="#39FF14" stroke-width="1" opacity="0.03828989022073748"/>
<polygon points="352,-7 360.6,-2 360.6,8 352,13 343.4,8 343.4,-2" fill="none" stroke="#39FF14" stroke-width="1" opacity="0.0561672729279377"/>
<polygon points="317,61 325.6,66 325.6,76 317,81 308.4,76 308.4,66" fill="none" stroke="#39FF14" stroke-width="1" opacity="0.05963484973705417"/>
<polygon points="13,174 21.6,179 21.6,189 13,194 4.4,189 4.4,179" fill="none" stroke="#39FF14" stroke-width="1" opacity="0.07604622591158036"/>
<polygon points="30,36 38.6,41 38.6,51 30,56 21.4,51 21.4,41" fill="none" stroke="#39FF14" stroke-width="1" opacity="0.06041592326299057"/>
<polygon points="157,72 165.6,77 165.6,87 157,92 148.4,87 148.4,77" fill="none" stroke="#39FF14" stroke-width="1" opacity="0.026562338277866502"/>
<polygon points="102,150 110.6,155 110.6,165 102,170 93.4,165 93.4,155" fill="none" stroke="#39FF14" stroke-width="1" opacity="0.02218640027139296"/>
<polygon points="603,132 611.6,137 611.6,147 603,152 594.4,147 594.4,137" fill="none" stroke="#39FF14" stroke-width="1" opacity="0.06439443240678451"/>
<polygon points="448,152 456.6,157 456.6,167 448,172 439.4,167 439.4,157" fill="none" stroke="#39FF14" stroke-width="1" opacity="0.07408732128176679"/>
<polygon points="705,133 713.6,138 713.6,148 705,153 696.4,148 696.4,138" fill="none" stroke="#39FF14" stroke-width="1" opacity="0.05892881058233135"/>
</g>

  <!-- HUD Decorative elements -->
  <path d="M 20 20 L 40 20 L 50 30" fill="none" stroke="#39FF14" stroke-width="2" opacity="0.5"/>
  <path d="M 830 180 L 810 180 L 800 170" fill="none" stroke="#39FF14" stroke-width="2" opacity="0.5"/>

  <g clip-path="url(#dashClip)">
    <rect x="-160" y="0" width="160" height="200" fill="url(#scanlineGrad)">
      <animateTransform attributeName="transform" type="translate"
                        from="0 0" to="1010 0" dur="6s" repeatCount="indefinite"/>
    </rect>
  </g>

  <g font-family="'Consolas', 'Fira Code', monospace" text-anchor="middle">

    <!-- NETWORK STATUS -->
    <g transform="translate(130, 100)">
        <circle cx="0" cy="0" r="45" fill="none" stroke="#39FF14" stroke-width="2" stroke-dasharray="10 5">
            <animateTransform attributeName="transform" type="rotate" from="0" to="360" dur="10s" repeatCount="indefinite"/>
        </circle>
        <circle cx="0" cy="0" r="35" fill="#0d0d0d" />
        <text x="0" y="-60" font-size="12" fill="#aaaaaa" letter-spacing="2">ROOT.AUTH</text>
        <text x="0" y="70" font-size="14" fill="#ffffff" font-weight="bold">OPERATIONAL</text>
    </g>

    <!-- ACTIVE USERS -->
    <g transform="translate(330, 100)">
        <text x="0" y="-20" font-size="12" fill="#aaaaaa">CITIZENS</text>
        <text x="0" y="15" font-size="28" fill="#ffffff" font-weight="bold" filter="url(#textGlow)">13,207</text>
        <text x="0" y="35" font-size="10" fill="#777777">VERIFIED HUMANS</text>
    </g>

    <!-- REGISTERED AGENTS -->
    <g transform="translate(530, 100)">
        <text x="0" y="-20" font-size="12" fill="#aaaaaa">AGENTS</text>
        <text x="0" y="15" font-size="28" fill="#00d4ff" font-weight="bold" filter="url(#textGlow)">4,025</text>
        <text x="0" y="35" font-size="10" fill="#777777">REGISTERED DIDs</text>
    </g>

    <!-- TRANSACTIONS -->
    <g transform="translate(730, 100)">
        <text x="0" y="-20" font-size="12" fill="#aaaaaa">TRANSFERS</text>
        <text x="0" y="15" font-size="28" fill="#ffffff" font-weight="bold">40,440</text>
        <text x="0" y="35" font-size="10" fill="#777777">M2M SETTLEMENTS</text>
    </g>
  </g>

  <text x="425" y="185" font-family="'Consolas', 'Fira Code', monospace" font-size="10" fill="#aaaaaa" opacity="0.6" text-anchor="middle">AXIOMID PROJECTED TARGETS (ILLUSTRATIVE): 2026-07-08 01:46:54 UTC // SECURE_HANDSHAKE</text>
</svg>