<svg width="850" height="200" viewBox="0 0 850 200" xmlns="http://www.w3.org/2000/svg">
  <defs>
    <pattern id="carbonFiber" width="10" height="10" patternUnits="userSpaceOnUse">
        <rect width="10" height="10" fill="#050505"/>
        <path d="M0,0 L5,5 L10,0 L5,-5 Z M5,5 L10,10 L15,5 L10,0 Z M-5,5 L0,10 L5,5 L0,0 Z M0,10 L5,15 L10,10 L5,5 Z" fill="#0d0d0d"/>
    </pattern>
    <filter id="textGlow">
      <feGaussianBlur stdDeviation="2" result="blur" />
      <feMerge>
        <feMergeNode in="blur"/>
        <feMergeNode in="SourceGraphic"/>
      </feMerge>
    </filter>
    <linearGradient id="neonBar" x1="0%" y1="0%" x2="100%" y2="0%">
        <stop offset="0%" stop-color="#111111"/>
        <stop offset="100%" stop-color="#39FF14"/>
    </linearGradient>
    <linearGradient id="scanlineGrad" x1="0%" y1="0%" x2="100%" y2="0%">
        <stop offset="0%" stop-color="#39FF14" stop-opacity="0"/>
        <stop offset="50%" stop-color="#39FF14" stop-opacity="0.18"/>
        <stop offset="100%" stop-color="#39FF14" stop-opacity="0"/>
    </linearGradient>
    <clipPath id="dashClip">
        <rect x="0" y="0" width="850" height="200" rx="12"/>
    </clipPath>
  </defs>

  <rect width="100%" height="100%" fill="url(#carbonFiber)" rx="12" stroke="#39FF14" stroke-width="1" stroke-opacity="0.3"/>
  <rect width="100%" height="100%" fill="#000000" opacity="0.6" rx="12" />
  <g><polygon points="271,8 279.6,13 279.6,23 271,28 262.4,23 262.4,13" fill="none" stroke="#39FF14" stroke-width="1" opacity="0.027192260319451274"/>
<polygon points="738,2 746.6,7 746.6,17 738,22 729.4,17 729.4,7" fill="none" stroke="#39FF14" stroke-width="1" opacity="0.03317167760820544"/>
<polygon points="505,71 513.6,76 513.6,86 505,91 496.4,86 496.4,76" fill="none" stroke="#39FF14" stroke-width="1" opacity="0.07094808495111972"/>
<polygon points="356,134 364.6,139 364.6,149 356,154 347.4,149 347.4,139" fill="none" stroke="#39FF14" stroke-width="1" opacity="0.06914575961765297"/>
<polygon points="224,100 232.6,105 232.6,115 224,120 215.4,115 215.4,105" fill="none" stroke="#39FF14" stroke-width="1" opacity="0.02297261727635174"/>
<polygon points="108,38 116.6,43 116.6,53 108,58 99.4,53 99.4,43" fill="none" stroke="#39FF14" stroke-width="1" opacity="0.04038068437842689"/>
<polygon points="647,2 655.6,7 655.6,17 647,22 638.4,17 638.4,7" fill="none" stroke="#39FF14" stroke-width="1" opacity="0.04156363316093248"/>
<polygon points="263,50 271.6,55 271.6,65 263,70 254.4,65 254.4,55" fill="none" stroke="#39FF14" stroke-width="1" opacity="0.07824747792665043"/>
<polygon points="346,170 354.6,175 354.6,185 346,190 337.4,185 337.4,175" fill="none" stroke="#39FF14" stroke-width="1" opacity="0.024449877868547444"/>
<polygon points="575,37 583.6,42 583.6,52 575,57 566.4,52 566.4,42" fill="none" stroke="#39FF14" stroke-width="1" opacity="0.06899173358067641"/>
<polygon points="604,181 612.6,186 612.6,196 604,201 595.4,196 595.4,186" fill="none" stroke="#39FF14" stroke-width="1" opacity="0.02947143785729421"/>
<polygon points="752,79 760.6,84 760.6,94 752,99 743.4,94 743.4,84" fill="none" stroke="#39FF14" stroke-width="1" opacity="0.021778987224823528"/>
<polygon points="93,9 101.6,14 101.6,24 93,29 84.4,24 84.4,14" fill="none" stroke="#39FF14" stroke-width="1" opacity="0.02159418307243341"/>
<polygon points="64,27 72.6,32 72.6,42 64,47 55.4,42 55.4,32" fill="none" stroke="#39FF14" stroke-width="1" opacity="0.07743588110537175"/>
<polygon points="492,127 500.6,132 500.6,142 492,147 483.4,142 483.4,132" fill="none" stroke="#39FF14" stroke-width="1" opacity="0.04346625754769945"/>
<polygon points="121,20 129.6,25 129.6,35 121,40 112.4,35 112.4,25" fill="none" stroke="#39FF14" stroke-width="1" opacity="0.05745016241229538"/>
<polygon points="381,105 389.6,110 389.6,120 381,125 372.4,120 372.4,110" fill="none" stroke="#39FF14" stroke-width="1" opacity="0.07265046123482462"/>
<polygon points="718,183 726.6,188 726.6,198 718,203 709.4,198 709.4,188" fill="none" stroke="#39FF14" stroke-width="1" opacity="0.07693808077991254"/>
<polygon points="250,109 258.6,114 258.6,124 250,129 241.4,124 241.4,114" fill="none" stroke="#39FF14" stroke-width="1" opacity="0.0597021146227832"/>
<polygon points="122,104 130.6,109 130.6,119 122,124 113.4,119 113.4,109" fill="none" stroke="#39FF14" stroke-width="1" opacity="0.026275967558964112"/>
<polygon points="240,184 248.6,189 248.6,199 240,204 231.4,199 231.4,189" fill="none" stroke="#39FF14" stroke-width="1" opacity="0.03488116835792403"/>
<polygon points="41,7 49.6,12 49.6,22 41,27 32.4,22 32.4,12" fill="none" stroke="#39FF14" stroke-width="1" opacity="0.049526601120413655"/>
<polygon points="248,58 256.6,63 256.6,73 248,78 239.4,73 239.4,63" fill="none" stroke="#39FF14" stroke-width="1" opacity="0.07988751651784474"/>
<polygon points="550,155 558.6,160 558.6,170 550,175 541.4,170 541.4,160" fill="none" stroke="#39FF14" stroke-width="1" opacity="0.061142916346763665"/>
<polygon points="147,107 155.6,112 155.6,122 147,127 138.4,122 138.4,112" fill="none" stroke="#39FF14" stroke-width="1" opacity="0.060022785891391456"/>
<polygon points="547,101 555.6,106 555.6,116 547,121 538.4,116 538.4,106" fill="none" stroke="#39FF14" stroke-width="1" opacity="0.0548359972541973"/>
<polygon points="100,6 108.6,11 108.6,21 100,26 91.4,21 91.4,11" fill="none" stroke="#39FF14" stroke-width="1" opacity="0.049387861109545725"/>
<polygon points="684,94 692.6,99 692.6,109 684,114 675.4,109 675.4,99" fill="none" stroke="#39FF14" stroke-width="1" opacity="0.02095222017865609"/>
<polygon points="190,168 198.6,173 198.6,183 190,188 181.4,183 181.4,173" fill="none" stroke="#39FF14" stroke-width="1" opacity="0.05469461369850748"/>
<polygon points="765,162 773.6,167 773.6,177 765,182 756.4,177 756.4,167" fill="none" stroke="#39FF14" stroke-width="1" opacity="0.05160082210762851"/>
</g>

  <!-- HUD Decorative elements -->
  <path d="M 20 20 L 40 20 L 50 30" fill="none" stroke="#39FF14" stroke-width="2" opacity="0.5"/>
  <path d="M 830 180 L 810 180 L 800 170" fill="none" stroke="#39FF14" stroke-width="2" opacity="0.5"/>

  <g clip-path="url(#dashClip)">
    <rect x="-160" y="0" width="160" height="200" fill="url(#scanlineGrad)">
      <animateTransform attributeName="transform" type="translate"
                        from="0 0" to="1010 0" dur="6s" repeatCount="indefinite"/>
    </rect>
  </g>

  <g font-family="'Consolas', 'Fira Code', monospace" text-anchor="middle">

    <!-- NETWORK STATUS -->
    <g transform="translate(130, 100)">
        <circle cx="0" cy="0" r="45" fill="none" stroke="#39FF14" stroke-width="2" stroke-dasharray="10 5">
            <animateTransform attributeName="transform" type="rotate" from="0" to="360" dur="10s" repeatCount="indefinite"/>
        </circle>
        <circle cx="0" cy="0" r="35" fill="#0d0d0d" />
        <text x="0" y="-60" font-size="12" fill="#aaaaaa" letter-spacing="2">ROOT.AUTH</text>
        <text x="0" y="70" font-size="14" fill="#ffffff" font-weight="bold">OPERATIONAL</text>
    </g>

    <!-- ACTIVE USERS -->
    <g transform="translate(330, 100)">
        <text x="0" y="-20" font-size="12" fill="#aaaaaa">CITIZENS</text>
        <text x="0" y="15" font-size="28" fill="#ffffff" font-weight="bold" filter="url(#textGlow)">14,464</text>
        <text x="0" y="35" font-size="10" fill="#777777">VERIFIED HUMANS</text>
    </g>

    <!-- REGISTERED AGENTS -->
    <g transform="translate(530, 100)">
        <text x="0" y="-20" font-size="12" fill="#aaaaaa">AGENTS</text>
        <text x="0" y="15" font-size="28" fill="#00d4ff" font-weight="bold" filter="url(#textGlow)">3,956</text>
        <text x="0" y="35" font-size="10" fill="#777777">REGISTERED DIDs</text>
    </g>

    <!-- TRANSACTIONS -->
    <g transform="translate(730, 100)">
        <text x="0" y="-20" font-size="12" fill="#aaaaaa">TRANSFERS</text>
        <text x="0" y="15" font-size="28" fill="#ffffff" font-weight="bold">25,313</text>
        <text x="0" y="35" font-size="10" fill="#777777">M2M SETTLEMENTS</text>
    </g>
  </g>

  <text x="425" y="185" font-family="'Consolas', 'Fira Code', monospace" font-size="10" fill="#aaaaaa" opacity="0.6" text-anchor="middle">AXIOMID PROJECTED TARGETS (ILLUSTRATIVE): 2026-07-20 16:19:15 UTC // SECURE_HANDSHAKE</text>
</svg>