<svg width="850" height="200" viewBox="0 0 850 200" xmlns="http://www.w3.org/2000/svg">
  <defs>
    <pattern id="carbonFiber" width="10" height="10" patternUnits="userSpaceOnUse">
        <rect width="10" height="10" fill="#050505"/>
        <path d="M0,0 L5,5 L10,0 L5,-5 Z M5,5 L10,10 L15,5 L10,0 Z M-5,5 L0,10 L5,5 L0,0 Z M0,10 L5,15 L10,10 L5,5 Z" fill="#0d0d0d"/>
    </pattern>
    <filter id="textGlow">
      <feGaussianBlur stdDeviation="2" result="blur" />
      <feMerge>
        <feMergeNode in="blur"/>
        <feMergeNode in="SourceGraphic"/>
      </feMerge>
    </filter>
    <linearGradient id="neonBar" x1="0%" y1="0%" x2="100%" y2="0%">
        <stop offset="0%" stop-color="#111111"/>
        <stop offset="100%" stop-color="#39FF14"/>
    </linearGradient>
    <linearGradient id="scanlineGrad" x1="0%" y1="0%" x2="100%" y2="0%">
        <stop offset="0%" stop-color="#39FF14" stop-opacity="0"/>
        <stop offset="50%" stop-color="#39FF14" stop-opacity="0.18"/>
        <stop offset="100%" stop-color="#39FF14" stop-opacity="0"/>
    </linearGradient>
    <clipPath id="dashClip">
        <rect x="0" y="0" width="850" height="200" rx="12"/>
    </clipPath>
  </defs>

  <rect width="100%" height="100%" fill="url(#carbonFiber)" rx="12" stroke="#39FF14" stroke-width="1" stroke-opacity="0.3"/>
  <rect width="100%" height="100%" fill="#000000" opacity="0.6" rx="12" />
  <g><polygon points="632,104 640.6,109 640.6,119 632,124 623.4,119 623.4,109" fill="none" stroke="#39FF14" stroke-width="1" opacity="0.05089102457522507"/>
<polygon points="37,69 45.6,74 45.6,84 37,89 28.4,84 28.4,74" fill="none" stroke="#39FF14" stroke-width="1" opacity="0.03797691218268004"/>
<polygon points="671,176 679.6,181 679.6,191 671,196 662.4,191 662.4,181" fill="none" stroke="#39FF14" stroke-width="1" opacity="0.07170980191296823"/>
<polygon points="762,179 770.6,184 770.6,194 762,199 753.4,194 753.4,184" fill="none" stroke="#39FF14" stroke-width="1" opacity="0.07223038892763499"/>
<polygon points="245,147 253.6,152 253.6,162 245,167 236.4,162 236.4,152" fill="none" stroke="#39FF14" stroke-width="1" opacity="0.07514013456342485"/>
<polygon points="175,82 183.6,87 183.6,97 175,102 166.4,97 166.4,87" fill="none" stroke="#39FF14" stroke-width="1" opacity="0.03874846619939467"/>
<polygon points="395,160 403.6,165 403.6,175 395,180 386.4,175 386.4,165" fill="none" stroke="#39FF14" stroke-width="1" opacity="0.0585852169991862"/>
<polygon points="338,129 346.6,134 346.6,144 338,149 329.4,144 329.4,134" fill="none" stroke="#39FF14" stroke-width="1" opacity="0.055199554640538204"/>
<polygon points="795,103 803.6,108 803.6,118 795,123 786.4,118 786.4,108" fill="none" stroke="#39FF14" stroke-width="1" opacity="0.06597562809426423"/>
<polygon points="806,158 814.6,163 814.6,173 806,178 797.4,173 797.4,163" fill="none" stroke="#39FF14" stroke-width="1" opacity="0.06433399572358503"/>
<polygon points="824,172 832.6,177 832.6,187 824,192 815.4,187 815.4,177" fill="none" stroke="#39FF14" stroke-width="1" opacity="0.04415305690612015"/>
<polygon points="831,118 839.6,123 839.6,133 831,138 822.4,133 822.4,123" fill="none" stroke="#39FF14" stroke-width="1" opacity="0.02741289835271317"/>
<polygon points="831,38 839.6,43 839.6,53 831,58 822.4,53 822.4,43" fill="none" stroke="#39FF14" stroke-width="1" opacity="0.05295717068666489"/>
<polygon points="442,113 450.6,118 450.6,128 442,133 433.4,128 433.4,118" fill="none" stroke="#39FF14" stroke-width="1" opacity="0.07538995306281032"/>
<polygon points="1,171 9.6,176 9.6,186 1,191 -7.6,186 -7.6,176" fill="none" stroke="#39FF14" stroke-width="1" opacity="0.05925926806552827"/>
<polygon points="169,123 177.6,128 177.6,138 169,143 160.4,138 160.4,128" fill="none" stroke="#39FF14" stroke-width="1" opacity="0.05774598226672384"/>
<polygon points="180,122 188.6,127 188.6,137 180,142 171.4,137 171.4,127" fill="none" stroke="#39FF14" stroke-width="1" opacity="0.024095973511581558"/>
<polygon points="282,54 290.6,59 290.6,69 282,74 273.4,69 273.4,59" fill="none" stroke="#39FF14" stroke-width="1" opacity="0.03523093805445392"/>
<polygon points="521,133 529.6,138 529.6,148 521,153 512.4,148 512.4,138" fill="none" stroke="#39FF14" stroke-width="1" opacity="0.06572707871642214"/>
<polygon points="665,11 673.6,16 673.6,26 665,31 656.4,26 656.4,16" fill="none" stroke="#39FF14" stroke-width="1" opacity="0.045855116660968864"/>
<polygon points="761,100 769.6,105 769.6,115 761,120 752.4,115 752.4,105" fill="none" stroke="#39FF14" stroke-width="1" opacity="0.057715501388770366"/>
<polygon points="449,4 457.6,9 457.6,19 449,24 440.4,19 440.4,9" fill="none" stroke="#39FF14" stroke-width="1" opacity="0.07611133481335414"/>
<polygon points="727,165 735.6,170 735.6,180 727,185 718.4,180 718.4,170" fill="none" stroke="#39FF14" stroke-width="1" opacity="0.055789240731767"/>
<polygon points="319,21 327.6,26 327.6,36 319,41 310.4,36 310.4,26" fill="none" stroke="#39FF14" stroke-width="1" opacity="0.056904640328958284"/>
<polygon points="484,162 492.6,167 492.6,177 484,182 475.4,177 475.4,167" fill="none" stroke="#39FF14" stroke-width="1" opacity="0.07902932915735145"/>
<polygon points="346,25 354.6,30 354.6,40 346,45 337.4,40 337.4,30" fill="none" stroke="#39FF14" stroke-width="1" opacity="0.06581182893385192"/>
<polygon points="251,146 259.6,151 259.6,161 251,166 242.4,161 242.4,151" fill="none" stroke="#39FF14" stroke-width="1" opacity="0.051651924651748476"/>
<polygon points="85,115 93.6,120 93.6,130 85,135 76.4,130 76.4,120" fill="none" stroke="#39FF14" stroke-width="1" opacity="0.049598104584175934"/>
<polygon points="322,62 330.6,67 330.6,77 322,82 313.4,77 313.4,67" fill="none" stroke="#39FF14" stroke-width="1" opacity="0.032254362670924075"/>
<polygon points="809,132 817.6,137 817.6,147 809,152 800.4,147 800.4,137" fill="none" stroke="#39FF14" stroke-width="1" opacity="0.042494013825279245"/>
</g>

  <!-- HUD Decorative elements -->
  <path d="M 20 20 L 40 20 L 50 30" fill="none" stroke="#39FF14" stroke-width="2" opacity="0.5"/>
  <path d="M 830 180 L 810 180 L 800 170" fill="none" stroke="#39FF14" stroke-width="2" opacity="0.5"/>

  <g clip-path="url(#dashClip)">
    <rect x="-160" y="0" width="160" height="200" fill="url(#scanlineGrad)">
      <animateTransform attributeName="transform" type="translate"
                        from="0 0" to="1010 0" dur="6s" repeatCount="indefinite"/>
    </rect>
  </g>

  <g font-family="'Consolas', 'Fira Code', monospace" text-anchor="middle">

    <!-- NETWORK STATUS -->
    <g transform="translate(130, 100)">
        <circle cx="0" cy="0" r="45" fill="none" stroke="#39FF14" stroke-width="2" stroke-dasharray="10 5">
            <animateTransform attributeName="transform" type="rotate" from="0" to="360" dur="10s" repeatCount="indefinite"/>
        </circle>
        <circle cx="0" cy="0" r="35" fill="#0d0d0d" />
        <text x="0" y="-60" font-size="12" fill="#aaaaaa" letter-spacing="2">ROOT.AUTH</text>
        <text x="0" y="70" font-size="14" fill="#ffffff" font-weight="bold">OPERATIONAL</text>
    </g>

    <!-- ACTIVE USERS -->
    <g transform="translate(330, 100)">
        <text x="0" y="-20" font-size="12" fill="#aaaaaa">CITIZENS</text>
        <text x="0" y="15" font-size="28" fill="#ffffff" font-weight="bold" filter="url(#textGlow)">12,486</text>
        <text x="0" y="35" font-size="10" fill="#777777">VERIFIED HUMANS</text>
    </g>

    <!-- REGISTERED AGENTS -->
    <g transform="translate(530, 100)">
        <text x="0" y="-20" font-size="12" fill="#aaaaaa">AGENTS</text>
        <text x="0" y="15" font-size="28" fill="#00d4ff" font-weight="bold" filter="url(#textGlow)">4,131</text>
        <text x="0" y="35" font-size="10" fill="#777777">REGISTERED DIDs</text>
    </g>

    <!-- TRANSACTIONS -->
    <g transform="translate(730, 100)">
        <text x="0" y="-20" font-size="12" fill="#aaaaaa">TRANSFERS</text>
        <text x="0" y="15" font-size="28" fill="#ffffff" font-weight="bold">31,268</text>
        <text x="0" y="35" font-size="10" fill="#777777">M2M SETTLEMENTS</text>
    </g>
  </g>

  <text x="425" y="185" font-family="'Consolas', 'Fira Code', monospace" font-size="10" fill="#aaaaaa" opacity="0.6" text-anchor="middle">AXIOMID PROJECTED TARGETS (ILLUSTRATIVE): 2026-07-16 16:09:35 UTC // SECURE_HANDSHAKE</text>
</svg>