<svg width="850" height="200" viewBox="0 0 850 200" xmlns="http://www.w3.org/2000/svg">
  <defs>
    <pattern id="carbonFiber" width="10" height="10" patternUnits="userSpaceOnUse">
        <rect width="10" height="10" fill="#050505"/>
        <path d="M0,0 L5,5 L10,0 L5,-5 Z M5,5 L10,10 L15,5 L10,0 Z M-5,5 L0,10 L5,5 L0,0 Z M0,10 L5,15 L10,10 L5,5 Z" fill="#0d0d0d"/>
    </pattern>
    <filter id="textGlow">
      <feGaussianBlur stdDeviation="2" result="blur" />
      <feMerge>
        <feMergeNode in="blur"/>
        <feMergeNode in="SourceGraphic"/>
      </feMerge>
    </filter>
    <linearGradient id="neonBar" x1="0%" y1="0%" x2="100%" y2="0%">
        <stop offset="0%" stop-color="#111111"/>
        <stop offset="100%" stop-color="#39FF14"/>
    </linearGradient>
    <linearGradient id="scanlineGrad" x1="0%" y1="0%" x2="100%" y2="0%">
        <stop offset="0%" stop-color="#39FF14" stop-opacity="0"/>
        <stop offset="50%" stop-color="#39FF14" stop-opacity="0.18"/>
        <stop offset="100%" stop-color="#39FF14" stop-opacity="0"/>
    </linearGradient>
    <clipPath id="dashClip">
        <rect x="0" y="0" width="850" height="200" rx="12"/>
    </clipPath>
  </defs>

  <rect width="100%" height="100%" fill="url(#carbonFiber)" rx="12" stroke="#39FF14" stroke-width="1" stroke-opacity="0.3"/>
  <rect width="100%" height="100%" fill="#000000" opacity="0.6" rx="12" />
  <g><polygon points="341,3 349.6,8 349.6,18 341,23 332.4,18 332.4,8" fill="none" stroke="#39FF14" stroke-width="1" opacity="0.056766122892756066"/>
<polygon points="607,76 615.6,81 615.6,91 607,96 598.4,91 598.4,81" fill="none" stroke="#39FF14" stroke-width="1" opacity="0.07119215959038105"/>
<polygon points="635,182 643.6,187 643.6,197 635,202 626.4,197 626.4,187" fill="none" stroke="#39FF14" stroke-width="1" opacity="0.06533182581913302"/>
<polygon points="818,-8 826.6,-3 826.6,7 818,12 809.4,7 809.4,-3" fill="none" stroke="#39FF14" stroke-width="1" opacity="0.0407092062606767"/>
<polygon points="734,31 742.6,36 742.6,46 734,51 725.4,46 725.4,36" fill="none" stroke="#39FF14" stroke-width="1" opacity="0.045294496401616084"/>
<polygon points="116,71 124.6,76 124.6,86 116,91 107.4,86 107.4,76" fill="none" stroke="#39FF14" stroke-width="1" opacity="0.031702278848086005"/>
<polygon points="716,134 724.6,139 724.6,149 716,154 707.4,149 707.4,139" fill="none" stroke="#39FF14" stroke-width="1" opacity="0.042239046634229366"/>
<polygon points="53,110 61.6,115 61.6,125 53,130 44.4,125 44.4,115" fill="none" stroke="#39FF14" stroke-width="1" opacity="0.06009220781283242"/>
<polygon points="119,60 127.6,65 127.6,75 119,80 110.4,75 110.4,65" fill="none" stroke="#39FF14" stroke-width="1" opacity="0.0704705607400987"/>
<polygon points="496,181 504.6,186 504.6,196 496,201 487.4,196 487.4,186" fill="none" stroke="#39FF14" stroke-width="1" opacity="0.038883439256613334"/>
<polygon points="804,103 812.6,108 812.6,118 804,123 795.4,118 795.4,108" fill="none" stroke="#39FF14" stroke-width="1" opacity="0.07576925200637263"/>
<polygon points="785,71 793.6,76 793.6,86 785,91 776.4,86 776.4,76" fill="none" stroke="#39FF14" stroke-width="1" opacity="0.02670480831856308"/>
<polygon points="681,43 689.6,48 689.6,58 681,63 672.4,58 672.4,48" fill="none" stroke="#39FF14" stroke-width="1" opacity="0.027917954385932683"/>
<polygon points="670,103 678.6,108 678.6,118 670,123 661.4,118 661.4,108" fill="none" stroke="#39FF14" stroke-width="1" opacity="0.04207880068373612"/>
<polygon points="629,25 637.6,30 637.6,40 629,45 620.4,40 620.4,30" fill="none" stroke="#39FF14" stroke-width="1" opacity="0.04550101303188772"/>
<polygon points="754,11 762.6,16 762.6,26 754,31 745.4,26 745.4,16" fill="none" stroke="#39FF14" stroke-width="1" opacity="0.026574681448056144"/>
<polygon points="482,143 490.6,148 490.6,158 482,163 473.4,158 473.4,148" fill="none" stroke="#39FF14" stroke-width="1" opacity="0.023794073866131554"/>
<polygon points="687,117 695.6,122 695.6,132 687,137 678.4,132 678.4,122" fill="none" stroke="#39FF14" stroke-width="1" opacity="0.043440413802070185"/>
<polygon points="842,15 850.6,20 850.6,30 842,35 833.4,30 833.4,20" fill="none" stroke="#39FF14" stroke-width="1" opacity="0.057871006090620875"/>
<polygon points="227,16 235.6,21 235.6,31 227,36 218.4,31 218.4,21" fill="none" stroke="#39FF14" stroke-width="1" opacity="0.02894928983798911"/>
<polygon points="545,80 553.6,85 553.6,95 545,100 536.4,95 536.4,85" fill="none" stroke="#39FF14" stroke-width="1" opacity="0.030741170418529497"/>
<polygon points="9,79 17.6,84 17.6,94 9,99 0.40000000000000036,94 0.40000000000000036,84" fill="none" stroke="#39FF14" stroke-width="1" opacity="0.07996956176649288"/>
<polygon points="408,32 416.6,37 416.6,47 408,52 399.4,47 399.4,37" fill="none" stroke="#39FF14" stroke-width="1" opacity="0.07693040094763505"/>
<polygon points="167,141 175.6,146 175.6,156 167,161 158.4,156 158.4,146" fill="none" stroke="#39FF14" stroke-width="1" opacity="0.03569464940998133"/>
<polygon points="148,102 156.6,107 156.6,117 148,122 139.4,117 139.4,107" fill="none" stroke="#39FF14" stroke-width="1" opacity="0.042126015233164796"/>
<polygon points="242,190 250.6,195 250.6,205 242,210 233.4,205 233.4,195" fill="none" stroke="#39FF14" stroke-width="1" opacity="0.04613164135843873"/>
<polygon points="271,162 279.6,167 279.6,177 271,182 262.4,177 262.4,167" fill="none" stroke="#39FF14" stroke-width="1" opacity="0.07878064641643027"/>
<polygon points="425,139 433.6,144 433.6,154 425,159 416.4,154 416.4,144" fill="none" stroke="#39FF14" stroke-width="1" opacity="0.056324444256337536"/>
<polygon points="121,31 129.6,36 129.6,46 121,51 112.4,46 112.4,36" fill="none" stroke="#39FF14" stroke-width="1" opacity="0.053935600675225015"/>
<polygon points="119,174 127.6,179 127.6,189 119,194 110.4,189 110.4,179" fill="none" stroke="#39FF14" stroke-width="1" opacity="0.0312725565102079"/>
</g>

  <!-- HUD Decorative elements -->
  <path d="M 20 20 L 40 20 L 50 30" fill="none" stroke="#39FF14" stroke-width="2" opacity="0.5"/>
  <path d="M 830 180 L 810 180 L 800 170" fill="none" stroke="#39FF14" stroke-width="2" opacity="0.5"/>

  <g clip-path="url(#dashClip)">
    <rect x="-160" y="0" width="160" height="200" fill="url(#scanlineGrad)">
      <animateTransform attributeName="transform" type="translate"
                        from="0 0" to="1010 0" dur="6s" repeatCount="indefinite"/>
    </rect>
  </g>

  <g font-family="'Consolas', 'Fira Code', monospace" text-anchor="middle">

    <!-- NETWORK STATUS -->
    <g transform="translate(130, 100)">
        <circle cx="0" cy="0" r="45" fill="none" stroke="#39FF14" stroke-width="2" stroke-dasharray="10 5">
            <animateTransform attributeName="transform" type="rotate" from="0" to="360" dur="10s" repeatCount="indefinite"/>
        </circle>
        <circle cx="0" cy="0" r="35" fill="#0d0d0d" />
        <text x="0" y="-60" font-size="12" fill="#aaaaaa" letter-spacing="2">ROOT.AUTH</text>
        <text x="0" y="70" font-size="14" fill="#ffffff" font-weight="bold">OPERATIONAL</text>
    </g>

    <!-- ACTIVE USERS -->
    <g transform="translate(330, 100)">
        <text x="0" y="-20" font-size="12" fill="#aaaaaa">CITIZENS</text>
        <text x="0" y="15" font-size="28" fill="#ffffff" font-weight="bold" filter="url(#textGlow)">15,240</text>
        <text x="0" y="35" font-size="10" fill="#777777">VERIFIED HUMANS</text>
    </g>

    <!-- REGISTERED AGENTS -->
    <g transform="translate(530, 100)">
        <text x="0" y="-20" font-size="12" fill="#aaaaaa">AGENTS</text>
        <text x="0" y="15" font-size="28" fill="#00d4ff" font-weight="bold" filter="url(#textGlow)">4,387</text>
        <text x="0" y="35" font-size="10" fill="#777777">REGISTERED DIDs</text>
    </g>

    <!-- TRANSACTIONS -->
    <g transform="translate(730, 100)">
        <text x="0" y="-20" font-size="12" fill="#aaaaaa">TRANSFERS</text>
        <text x="0" y="15" font-size="28" fill="#ffffff" font-weight="bold">34,742</text>
        <text x="0" y="35" font-size="10" fill="#777777">M2M SETTLEMENTS</text>
    </g>
  </g>

  <text x="425" y="185" font-family="'Consolas', 'Fira Code', monospace" font-size="10" fill="#aaaaaa" opacity="0.6" text-anchor="middle">AXIOMID PROJECTED TARGETS (ILLUSTRATIVE): 2026-06-30 18:33:06 UTC // SECURE_HANDSHAKE</text>
</svg>