<svg width="850" height="200" viewBox="0 0 850 200" xmlns="http://www.w3.org/2000/svg">
  <defs>
    <pattern id="carbonFiber" width="10" height="10" patternUnits="userSpaceOnUse">
        <rect width="10" height="10" fill="#050505"/>
        <path d="M0,0 L5,5 L10,0 L5,-5 Z M5,5 L10,10 L15,5 L10,0 Z M-5,5 L0,10 L5,5 L0,0 Z M0,10 L5,15 L10,10 L5,5 Z" fill="#0d0d0d"/>
    </pattern>
    <filter id="textGlow">
      <feGaussianBlur stdDeviation="2" result="blur" />
      <feMerge>
        <feMergeNode in="blur"/>
        <feMergeNode in="SourceGraphic"/>
      </feMerge>
    </filter>
    <linearGradient id="neonBar" x1="0%" y1="0%" x2="100%" y2="0%">
        <stop offset="0%" stop-color="#111111"/>
        <stop offset="100%" stop-color="#39FF14"/>
    </linearGradient>
    <linearGradient id="scanlineGrad" x1="0%" y1="0%" x2="100%" y2="0%">
        <stop offset="0%" stop-color="#39FF14" stop-opacity="0"/>
        <stop offset="50%" stop-color="#39FF14" stop-opacity="0.18"/>
        <stop offset="100%" stop-color="#39FF14" stop-opacity="0"/>
    </linearGradient>
    <clipPath id="dashClip">
        <rect x="0" y="0" width="850" height="200" rx="12"/>
    </clipPath>
  </defs>

  <rect width="100%" height="100%" fill="url(#carbonFiber)" rx="12" stroke="#39FF14" stroke-width="1" stroke-opacity="0.3"/>
  <rect width="100%" height="100%" fill="#000000" opacity="0.6" rx="12" />
  <g><polygon points="474,116 482.6,121 482.6,131 474,136 465.4,131 465.4,121" fill="none" stroke="#39FF14" stroke-width="1" opacity="0.028400729507805297"/>
<polygon points="8,112 16.6,117 16.6,127 8,132 -0.5999999999999996,127 -0.5999999999999996,117" fill="none" stroke="#39FF14" stroke-width="1" opacity="0.07627503119161388"/>
<polygon points="221,112 229.6,117 229.6,127 221,132 212.4,127 212.4,117" fill="none" stroke="#39FF14" stroke-width="1" opacity="0.07932386405192136"/>
<polygon points="246,165 254.6,170 254.6,180 246,185 237.4,180 237.4,170" fill="none" stroke="#39FF14" stroke-width="1" opacity="0.07438683079065092"/>
<polygon points="395,168 403.6,173 403.6,183 395,188 386.4,183 386.4,173" fill="none" stroke="#39FF14" stroke-width="1" opacity="0.07918811930809917"/>
<polygon points="391,-8 399.6,-3 399.6,7 391,12 382.4,7 382.4,-3" fill="none" stroke="#39FF14" stroke-width="1" opacity="0.05434539202188167"/>
<polygon points="136,112 144.6,117 144.6,127 136,132 127.4,127 127.4,117" fill="none" stroke="#39FF14" stroke-width="1" opacity="0.05873087278268577"/>
<polygon points="329,63 337.6,68 337.6,78 329,83 320.4,78 320.4,68" fill="none" stroke="#39FF14" stroke-width="1" opacity="0.07602658764443665"/>
<polygon points="335,26 343.6,31 343.6,41 335,46 326.4,41 326.4,31" fill="none" stroke="#39FF14" stroke-width="1" opacity="0.02649207324403821"/>
<polygon points="16,29 24.6,34 24.6,44 16,49 7.4,44 7.4,34" fill="none" stroke="#39FF14" stroke-width="1" opacity="0.06577633238822196"/>
<polygon points="165,92 173.6,97 173.6,107 165,112 156.4,107 156.4,97" fill="none" stroke="#39FF14" stroke-width="1" opacity="0.023367775995604956"/>
<polygon points="610,134 618.6,139 618.6,149 610,154 601.4,149 601.4,139" fill="none" stroke="#39FF14" stroke-width="1" opacity="0.024285187634800937"/>
<polygon points="439,169 447.6,174 447.6,184 439,189 430.4,184 430.4,174" fill="none" stroke="#39FF14" stroke-width="1" opacity="0.06196218838292049"/>
<polygon points="850,-2 858.6,3 858.6,13 850,18 841.4,13 841.4,3" fill="none" stroke="#39FF14" stroke-width="1" opacity="0.06440197656972396"/>
<polygon points="798,158 806.6,163 806.6,173 798,178 789.4,173 789.4,163" fill="none" stroke="#39FF14" stroke-width="1" opacity="0.05840427363984857"/>
<polygon points="144,184 152.6,189 152.6,199 144,204 135.4,199 135.4,189" fill="none" stroke="#39FF14" stroke-width="1" opacity="0.06735689243198882"/>
<polygon points="763,73 771.6,78 771.6,88 763,93 754.4,88 754.4,78" fill="none" stroke="#39FF14" stroke-width="1" opacity="0.05464221564604929"/>
<polygon points="434,81 442.6,86 442.6,96 434,101 425.4,96 425.4,86" fill="none" stroke="#39FF14" stroke-width="1" opacity="0.05704063904050849"/>
<polygon points="712,5 720.6,10 720.6,20 712,25 703.4,20 703.4,10" fill="none" stroke="#39FF14" stroke-width="1" opacity="0.0751464480332649"/>
<polygon points="372,20 380.6,25 380.6,35 372,40 363.4,35 363.4,25" fill="none" stroke="#39FF14" stroke-width="1" opacity="0.027902248204540542"/>
<polygon points="31,30 39.6,35 39.6,45 31,50 22.4,45 22.4,35" fill="none" stroke="#39FF14" stroke-width="1" opacity="0.0376098040533163"/>
<polygon points="662,171 670.6,176 670.6,186 662,191 653.4,186 653.4,176" fill="none" stroke="#39FF14" stroke-width="1" opacity="0.06076111486350426"/>
<polygon points="182,50 190.6,55 190.6,65 182,70 173.4,65 173.4,55" fill="none" stroke="#39FF14" stroke-width="1" opacity="0.06270962339720208"/>
<polygon points="67,0 75.6,5 75.6,15 67,20 58.4,15 58.4,5" fill="none" stroke="#39FF14" stroke-width="1" opacity="0.06925538682507977"/>
<polygon points="98,70 106.6,75 106.6,85 98,90 89.4,85 89.4,75" fill="none" stroke="#39FF14" stroke-width="1" opacity="0.0323863635268101"/>
<polygon points="535,38 543.6,43 543.6,53 535,58 526.4,53 526.4,43" fill="none" stroke="#39FF14" stroke-width="1" opacity="0.07050748318490992"/>
<polygon points="432,101 440.6,106 440.6,116 432,121 423.4,116 423.4,106" fill="none" stroke="#39FF14" stroke-width="1" opacity="0.06230550565224974"/>
<polygon points="429,179 437.6,184 437.6,194 429,199 420.4,194 420.4,184" fill="none" stroke="#39FF14" stroke-width="1" opacity="0.05007539264506957"/>
<polygon points="495,100 503.6,105 503.6,115 495,120 486.4,115 486.4,105" fill="none" stroke="#39FF14" stroke-width="1" opacity="0.02764064776529511"/>
<polygon points="476,49 484.6,54 484.6,64 476,69 467.4,64 467.4,54" fill="none" stroke="#39FF14" stroke-width="1" opacity="0.05866749451639666"/>
</g>

  <!-- HUD Decorative elements -->
  <path d="M 20 20 L 40 20 L 50 30" fill="none" stroke="#39FF14" stroke-width="2" opacity="0.5"/>
  <path d="M 830 180 L 810 180 L 800 170" fill="none" stroke="#39FF14" stroke-width="2" opacity="0.5"/>

  <g clip-path="url(#dashClip)">
    <rect x="-160" y="0" width="160" height="200" fill="url(#scanlineGrad)">
      <animateTransform attributeName="transform" type="translate"
                        from="0 0" to="1010 0" dur="6s" repeatCount="indefinite"/>
    </rect>
  </g>

  <g font-family="'Consolas', 'Fira Code', monospace" text-anchor="middle">

    <!-- NETWORK STATUS -->
    <g transform="translate(130, 100)">
        <circle cx="0" cy="0" r="45" fill="none" stroke="#39FF14" stroke-width="2" stroke-dasharray="10 5">
            <animateTransform attributeName="transform" type="rotate" from="0" to="360" dur="10s" repeatCount="indefinite"/>
        </circle>
        <circle cx="0" cy="0" r="35" fill="#0d0d0d" />
        <text x="0" y="-60" font-size="12" fill="#aaaaaa" letter-spacing="2">ROOT.AUTH</text>
        <text x="0" y="70" font-size="14" fill="#ffffff" font-weight="bold">OPERATIONAL</text>
    </g>

    <!-- ACTIVE USERS -->
    <g transform="translate(330, 100)">
        <text x="0" y="-20" font-size="12" fill="#aaaaaa">CITIZENS</text>
        <text x="0" y="15" font-size="28" fill="#ffffff" font-weight="bold" filter="url(#textGlow)">13,684</text>
        <text x="0" y="35" font-size="10" fill="#777777">VERIFIED HUMANS</text>
    </g>

    <!-- REGISTERED AGENTS -->
    <g transform="translate(530, 100)">
        <text x="0" y="-20" font-size="12" fill="#aaaaaa">AGENTS</text>
        <text x="0" y="15" font-size="28" fill="#00d4ff" font-weight="bold" filter="url(#textGlow)">3,626</text>
        <text x="0" y="35" font-size="10" fill="#777777">REGISTERED DIDs</text>
    </g>

    <!-- TRANSACTIONS -->
    <g transform="translate(730, 100)">
        <text x="0" y="-20" font-size="12" fill="#aaaaaa">TRANSFERS</text>
        <text x="0" y="15" font-size="28" fill="#ffffff" font-weight="bold">38,783</text>
        <text x="0" y="35" font-size="10" fill="#777777">M2M SETTLEMENTS</text>
    </g>
  </g>

  <text x="425" y="185" font-family="'Consolas', 'Fira Code', monospace" font-size="10" fill="#aaaaaa" opacity="0.6" text-anchor="middle">AXIOMID PROJECTED TARGETS (ILLUSTRATIVE): 2026-06-24 10:04:08 UTC // SECURE_HANDSHAKE</text>
</svg>