<svg width="850" height="200" viewBox="0 0 850 200" xmlns="http://www.w3.org/2000/svg">
  <defs>
    <pattern id="carbonFiber" width="10" height="10" patternUnits="userSpaceOnUse">
        <rect width="10" height="10" fill="#050505"/>
        <path d="M0,0 L5,5 L10,0 L5,-5 Z M5,5 L10,10 L15,5 L10,0 Z M-5,5 L0,10 L5,5 L0,0 Z M0,10 L5,15 L10,10 L5,5 Z" fill="#0d0d0d"/>
    </pattern>
    <filter id="textGlow">
      <feGaussianBlur stdDeviation="2" result="blur" />
      <feMerge>
        <feMergeNode in="blur"/>
        <feMergeNode in="SourceGraphic"/>
      </feMerge>
    </filter>
    <linearGradient id="neonBar" x1="0%" y1="0%" x2="100%" y2="0%">
        <stop offset="0%" stop-color="#111111"/>
        <stop offset="100%" stop-color="#39FF14"/>
    </linearGradient>
    <linearGradient id="scanlineGrad" x1="0%" y1="0%" x2="100%" y2="0%">
        <stop offset="0%" stop-color="#39FF14" stop-opacity="0"/>
        <stop offset="50%" stop-color="#39FF14" stop-opacity="0.18"/>
        <stop offset="100%" stop-color="#39FF14" stop-opacity="0"/>
    </linearGradient>
    <clipPath id="dashClip">
        <rect x="0" y="0" width="850" height="200" rx="12"/>
    </clipPath>
  </defs>

  <rect width="100%" height="100%" fill="url(#carbonFiber)" rx="12" stroke="#39FF14" stroke-width="1" stroke-opacity="0.3"/>
  <rect width="100%" height="100%" fill="#000000" opacity="0.6" rx="12" />
  <g><polygon points="503,100 511.6,105 511.6,115 503,120 494.4,115 494.4,105" fill="none" stroke="#39FF14" stroke-width="1" opacity="0.05044639764420514"/>
<polygon points="729,116 737.6,121 737.6,131 729,136 720.4,131 720.4,121" fill="none" stroke="#39FF14" stroke-width="1" opacity="0.0367282778229147"/>
<polygon points="814,-3 822.6,2 822.6,12 814,17 805.4,12 805.4,2" fill="none" stroke="#39FF14" stroke-width="1" opacity="0.07790291972251882"/>
<polygon points="420,82 428.6,87 428.6,97 420,102 411.4,97 411.4,87" fill="none" stroke="#39FF14" stroke-width="1" opacity="0.04712987612301489"/>
<polygon points="681,85 689.6,90 689.6,100 681,105 672.4,100 672.4,90" fill="none" stroke="#39FF14" stroke-width="1" opacity="0.06062888488770937"/>
<polygon points="333,40 341.6,45 341.6,55 333,60 324.4,55 324.4,45" fill="none" stroke="#39FF14" stroke-width="1" opacity="0.05742134313464045"/>
<polygon points="226,174 234.6,179 234.6,189 226,194 217.4,189 217.4,179" fill="none" stroke="#39FF14" stroke-width="1" opacity="0.07794160871159288"/>
<polygon points="472,18 480.6,23 480.6,33 472,38 463.4,33 463.4,23" fill="none" stroke="#39FF14" stroke-width="1" opacity="0.030960741206515496"/>
<polygon points="848,173 856.6,178 856.6,188 848,193 839.4,188 839.4,178" fill="none" stroke="#39FF14" stroke-width="1" opacity="0.07695976961687355"/>
<polygon points="377,30 385.6,35 385.6,45 377,50 368.4,45 368.4,35" fill="none" stroke="#39FF14" stroke-width="1" opacity="0.07296575957101703"/>
<polygon points="374,139 382.6,144 382.6,154 374,159 365.4,154 365.4,144" fill="none" stroke="#39FF14" stroke-width="1" opacity="0.03453182451661916"/>
<polygon points="460,107 468.6,112 468.6,122 460,127 451.4,122 451.4,112" fill="none" stroke="#39FF14" stroke-width="1" opacity="0.05578162705413263"/>
<polygon points="614,98 622.6,103 622.6,113 614,118 605.4,113 605.4,103" fill="none" stroke="#39FF14" stroke-width="1" opacity="0.06552914145096221"/>
<polygon points="163,-10 171.6,-5 171.6,5 163,10 154.4,5 154.4,-5" fill="none" stroke="#39FF14" stroke-width="1" opacity="0.04434414520009728"/>
<polygon points="826,154 834.6,159 834.6,169 826,174 817.4,169 817.4,159" fill="none" stroke="#39FF14" stroke-width="1" opacity="0.021170439469933622"/>
<polygon points="45,71 53.6,76 53.6,86 45,91 36.4,86 36.4,76" fill="none" stroke="#39FF14" stroke-width="1" opacity="0.04020404631875403"/>
<polygon points="585,147 593.6,152 593.6,162 585,167 576.4,162 576.4,152" fill="none" stroke="#39FF14" stroke-width="1" opacity="0.05109169180257993"/>
<polygon points="82,67 90.6,72 90.6,82 82,87 73.4,82 73.4,72" fill="none" stroke="#39FF14" stroke-width="1" opacity="0.03526569464568347"/>
<polygon points="41,110 49.6,115 49.6,125 41,130 32.4,125 32.4,115" fill="none" stroke="#39FF14" stroke-width="1" opacity="0.06337692126804595"/>
<polygon points="244,148 252.6,153 252.6,163 244,168 235.4,163 235.4,153" fill="none" stroke="#39FF14" stroke-width="1" opacity="0.05645612802262401"/>
<polygon points="477,159 485.6,164 485.6,174 477,179 468.4,174 468.4,164" fill="none" stroke="#39FF14" stroke-width="1" opacity="0.05031060834201622"/>
<polygon points="283,173 291.6,178 291.6,188 283,193 274.4,188 274.4,178" fill="none" stroke="#39FF14" stroke-width="1" opacity="0.07483749004152247"/>
<polygon points="212,106 220.6,111 220.6,121 212,126 203.4,121 203.4,111" fill="none" stroke="#39FF14" stroke-width="1" opacity="0.05362067421670323"/>
<polygon points="401,166 409.6,171 409.6,181 401,186 392.4,181 392.4,171" fill="none" stroke="#39FF14" stroke-width="1" opacity="0.0489729876904421"/>
<polygon points="217,130 225.6,135 225.6,145 217,150 208.4,145 208.4,135" fill="none" stroke="#39FF14" stroke-width="1" opacity="0.03892686113208672"/>
<polygon points="748,139 756.6,144 756.6,154 748,159 739.4,154 739.4,144" fill="none" stroke="#39FF14" stroke-width="1" opacity="0.023536980962218765"/>
<polygon points="524,178 532.6,183 532.6,193 524,198 515.4,193 515.4,183" fill="none" stroke="#39FF14" stroke-width="1" opacity="0.07530435905210027"/>
<polygon points="415,23 423.6,28 423.6,38 415,43 406.4,38 406.4,28" fill="none" stroke="#39FF14" stroke-width="1" opacity="0.05488498442482284"/>
<polygon points="240,55 248.6,60 248.6,70 240,75 231.4,70 231.4,60" fill="none" stroke="#39FF14" stroke-width="1" opacity="0.04018105249263214"/>
<polygon points="782,50 790.6,55 790.6,65 782,70 773.4,65 773.4,55" fill="none" stroke="#39FF14" stroke-width="1" opacity="0.05958584845308687"/>
</g>

  <!-- HUD Decorative elements -->
  <path d="M 20 20 L 40 20 L 50 30" fill="none" stroke="#39FF14" stroke-width="2" opacity="0.5"/>
  <path d="M 830 180 L 810 180 L 800 170" fill="none" stroke="#39FF14" stroke-width="2" opacity="0.5"/>

  <g clip-path="url(#dashClip)">
    <rect x="-160" y="0" width="160" height="200" fill="url(#scanlineGrad)">
      <animateTransform attributeName="transform" type="translate"
                        from="0 0" to="1010 0" dur="6s" repeatCount="indefinite"/>
    </rect>
  </g>

  <g font-family="'Consolas', 'Fira Code', monospace" text-anchor="middle">

    <!-- NETWORK STATUS -->
    <g transform="translate(130, 100)">
        <circle cx="0" cy="0" r="45" fill="none" stroke="#39FF14" stroke-width="2" stroke-dasharray="10 5">
            <animateTransform attributeName="transform" type="rotate" from="0" to="360" dur="10s" repeatCount="indefinite"/>
        </circle>
        <circle cx="0" cy="0" r="35" fill="#0d0d0d" />
        <text x="0" y="-60" font-size="12" fill="#aaaaaa" letter-spacing="2">ROOT.AUTH</text>
        <text x="0" y="70" font-size="14" fill="#ffffff" font-weight="bold">OPERATIONAL</text>
    </g>

    <!-- ACTIVE USERS -->
    <g transform="translate(330, 100)">
        <text x="0" y="-20" font-size="12" fill="#aaaaaa">CITIZENS</text>
        <text x="0" y="15" font-size="28" fill="#ffffff" font-weight="bold" filter="url(#textGlow)">15,384</text>
        <text x="0" y="35" font-size="10" fill="#777777">VERIFIED HUMANS</text>
    </g>

    <!-- REGISTERED AGENTS -->
    <g transform="translate(530, 100)">
        <text x="0" y="-20" font-size="12" fill="#aaaaaa">AGENTS</text>
        <text x="0" y="15" font-size="28" fill="#00d4ff" font-weight="bold" filter="url(#textGlow)">3,877</text>
        <text x="0" y="35" font-size="10" fill="#777777">REGISTERED DIDs</text>
    </g>

    <!-- TRANSACTIONS -->
    <g transform="translate(730, 100)">
        <text x="0" y="-20" font-size="12" fill="#aaaaaa">TRANSFERS</text>
        <text x="0" y="15" font-size="28" fill="#ffffff" font-weight="bold">34,370</text>
        <text x="0" y="35" font-size="10" fill="#777777">M2M SETTLEMENTS</text>
    </g>
  </g>

  <text x="425" y="185" font-family="'Consolas', 'Fira Code', monospace" font-size="10" fill="#aaaaaa" opacity="0.6" text-anchor="middle">AXIOMID PROJECTED TARGETS (ILLUSTRATIVE): 2026-06-19 10:30:24 UTC // SECURE_HANDSHAKE</text>
</svg>