<svg width="850" height="200" viewBox="0 0 850 200" xmlns="http://www.w3.org/2000/svg">
  <defs>
    <!-- Carbon Fiber Pattern -->
    <pattern id="carbonFiber" width="10" height="10" patternUnits="userSpaceOnUse">
        <rect width="10" height="10" fill="#050505"/>
        <path d="M0,0 L5,5 L10,0 L5,-5 Z M5,5 L10,10 L15,5 L10,0 Z M-5,5 L0,10 L5,5 L0,0 Z M0,10 L5,15 L10,10 L5,5 Z" fill="#0d0d0d"/>
    </pattern>
    <filter id="glassmorphism">
      <feGaussianBlur stdDeviation="3" result="blur" />
      <feColorMatrix type="matrix" values="1 0 0 0 0  0 1 0 0 0  0 0 1 0 0  0 0 0 18 -7" result="glow" />
      <feBlend in="SourceGraphic" in2="glow" mode="normal" />
    </filter>
    <filter id="textGlow">
      <feGaussianBlur stdDeviation="2" result="blur" />
      <feMerge>
        <feMergeNode in="blur"/>
        <feMergeNode in="SourceGraphic"/>
      </feMerge>
    </filter>
    <linearGradient id="neonBar" x1="0%" y1="0%" x2="100%" y2="0%">
        <stop offset="0%" stop-color="#111111"/>
        <stop offset="100%" stop-color="#39FF14"/>
    </linearGradient>
  </defs>

  <rect width="100%" height="100%" fill="url(#carbonFiber)" rx="12" stroke="#39FF14" stroke-width="1" stroke-opacity="0.3"/>
  <rect width="100%" height="100%" fill="#000000" opacity="0.6" rx="12" />
  <g><polygon points="188,122 196.6,127 196.6,137 188,142 179.4,137 179.4,127" fill="none" stroke="#39FF14" stroke-width="1" opacity="0.024968997333902156"/>
<polygon points="406,113 414.6,118 414.6,128 406,133 397.4,128 397.4,118" fill="none" stroke="#39FF14" stroke-width="1" opacity="0.03044983436623086"/>
<polygon points="387,117 395.6,122 395.6,132 387,137 378.4,132 378.4,122" fill="none" stroke="#39FF14" stroke-width="1" opacity="0.056143858736723146"/>
<polygon points="765,144 773.6,149 773.6,159 765,164 756.4,159 756.4,149" fill="none" stroke="#39FF14" stroke-width="1" opacity="0.02806293787363587"/>
<polygon points="29,123 37.6,128 37.6,138 29,143 20.4,138 20.4,128" fill="none" stroke="#39FF14" stroke-width="1" opacity="0.04174941944635939"/>
<polygon points="661,66 669.6,71 669.6,81 661,86 652.4,81 652.4,71" fill="none" stroke="#39FF14" stroke-width="1" opacity="0.06090307205967682"/>
<polygon points="821,117 829.6,122 829.6,132 821,137 812.4,132 812.4,122" fill="none" stroke="#39FF14" stroke-width="1" opacity="0.03172619020065107"/>
<polygon points="389,11 397.6,16 397.6,26 389,31 380.4,26 380.4,16" fill="none" stroke="#39FF14" stroke-width="1" opacity="0.07444482762254319"/>
<polygon points="338,33 346.6,38 346.6,48 338,53 329.4,48 329.4,38" fill="none" stroke="#39FF14" stroke-width="1" opacity="0.03399340270875682"/>
<polygon points="548,28 556.6,33 556.6,43 548,48 539.4,43 539.4,33" fill="none" stroke="#39FF14" stroke-width="1" opacity="0.04797592475595337"/>
<polygon points="256,74 264.6,79 264.6,89 256,94 247.4,89 247.4,79" fill="none" stroke="#39FF14" stroke-width="1" opacity="0.0356372763325824"/>
<polygon points="602,165 610.6,170 610.6,180 602,185 593.4,180 593.4,170" fill="none" stroke="#39FF14" stroke-width="1" opacity="0.021270588570495335"/>
<polygon points="655,184 663.6,189 663.6,199 655,204 646.4,199 646.4,189" fill="none" stroke="#39FF14" stroke-width="1" opacity="0.04162781904125963"/>
<polygon points="511,3 519.6,8 519.6,18 511,23 502.4,18 502.4,8" fill="none" stroke="#39FF14" stroke-width="1" opacity="0.0537821447595319"/>
<polygon points="805,113 813.6,118 813.6,128 805,133 796.4,128 796.4,118" fill="none" stroke="#39FF14" stroke-width="1" opacity="0.07562946859184974"/>
<polygon points="344,179 352.6,184 352.6,194 344,199 335.4,194 335.4,184" fill="none" stroke="#39FF14" stroke-width="1" opacity="0.07158644236777079"/>
<polygon points="821,164 829.6,169 829.6,179 821,184 812.4,179 812.4,169" fill="none" stroke="#39FF14" stroke-width="1" opacity="0.02567419273660932"/>
<polygon points="759,138 767.6,143 767.6,153 759,158 750.4,153 750.4,143" fill="none" stroke="#39FF14" stroke-width="1" opacity="0.023670798431325073"/>
<polygon points="653,94 661.6,99 661.6,109 653,114 644.4,109 644.4,99" fill="none" stroke="#39FF14" stroke-width="1" opacity="0.02227822608925925"/>
<polygon points="61,58 69.6,63 69.6,73 61,78 52.4,73 52.4,63" fill="none" stroke="#39FF14" stroke-width="1" opacity="0.020770174665066313"/>
<polygon points="381,143 389.6,148 389.6,158 381,163 372.4,158 372.4,148" fill="none" stroke="#39FF14" stroke-width="1" opacity="0.021158388505675876"/>
<polygon points="721,10 729.6,15 729.6,25 721,30 712.4,25 712.4,15" fill="none" stroke="#39FF14" stroke-width="1" opacity="0.06316020752312877"/>
<polygon points="292,54 300.6,59 300.6,69 292,74 283.4,69 283.4,59" fill="none" stroke="#39FF14" stroke-width="1" opacity="0.05664407471409927"/>
<polygon points="690,17 698.6,22 698.6,32 690,37 681.4,32 681.4,22" fill="none" stroke="#39FF14" stroke-width="1" opacity="0.05731685752258345"/>
<polygon points="293,-1 301.6,4 301.6,14 293,19 284.4,14 284.4,4" fill="none" stroke="#39FF14" stroke-width="1" opacity="0.05943340807230271"/>
<polygon points="22,185 30.6,190 30.6,200 22,205 13.4,200 13.4,190" fill="none" stroke="#39FF14" stroke-width="1" opacity="0.027574227457710758"/>
<polygon points="336,67 344.6,72 344.6,82 336,87 327.4,82 327.4,72" fill="none" stroke="#39FF14" stroke-width="1" opacity="0.05620959593702342"/>
<polygon points="578,119 586.6,124 586.6,134 578,139 569.4,134 569.4,124" fill="none" stroke="#39FF14" stroke-width="1" opacity="0.047723616912326156"/>
<polygon points="271,-4 279.6,1 279.6,11 271,16 262.4,11 262.4,1" fill="none" stroke="#39FF14" stroke-width="1" opacity="0.046193687992607875"/>
<polygon points="426,14 434.6,19 434.6,29 426,34 417.4,29 417.4,19" fill="none" stroke="#39FF14" stroke-width="1" opacity="0.04522282935400081"/>
</g>

  <!-- HUD Decorative elements -->
  <path d="M 20 20 L 40 20 L 50 30" fill="none" stroke="#39FF14" stroke-width="2" opacity="0.5"/>
  <path d="M 830 180 L 810 180 L 800 170" fill="none" stroke="#39FF14" stroke-width="2" opacity="0.5"/>
  <rect x="20" y="100" width="2" height="40" fill="#ffffff" opacity="0.4"/>
  <rect x="828" y="60" width="2" height="40" fill="#39FF14" opacity="0.6"/>

  <g font-family="'Consolas', 'Fira Code', monospace" text-anchor="middle">

    <!-- SYSTEM STATUS -->
    <g transform="translate(130, 100)">
        <circle cx="0" cy="0" r="45" fill="none" stroke="#111111" stroke-width="8" />
        <circle cx="0" cy="0" r="45" fill="none" stroke="#39FF14" stroke-width="2" stroke-dasharray="10 5">
            <animateTransform attributeName="transform" type="rotate" from="0" to="360" dur="10s" repeatCount="indefinite"/>
        </circle>
        <circle cx="0" cy="0" r="35" fill="#0d0d0d" />
        <circle cx="0" cy="0" r="6" fill="#39FF14" filter="url(#textGlow)">
            <animate attributeName="opacity" values="1;0.3;1" dur="2s" repeatCount="indefinite"/>
        </circle>
        <text x="0" y="-60" font-size="12" fill="#aaaaaa" letter-spacing="2">SYS.CORE</text>
        <text x="0" y="70" font-size="14" fill="#ffffff" font-weight="bold">ONLINE</text>
    </g>

    <!-- LIVE TRAFFIC -->
    <g transform="translate(330, 100)">
        <rect x="-60" y="-45" width="120" height="90" fill="#0a0a0a" rx="8" stroke="#39FF14" stroke-opacity="0.4" stroke-width="1"/>
        <text x="0" y="-20" font-size="12" fill="#aaaaaa">NETWORK LOAD</text>
        <text x="0" y="15" font-size="28" fill="#ffffff" font-weight="bold" filter="url(#textGlow)">7307</text>
        <text x="0" y="35" font-size="10" fill="#777777">ACTIVE SESSIONS</text>
    </g>

    <!-- ACTIVE AGENTS -->
    <g transform="translate(530, 100)">
        <rect x="-60" y="-45" width="120" height="90" fill="#0a0a0a" rx="8" stroke="#39FF14" stroke-opacity="0.4" stroke-width="1"/>
        <text x="0" y="-20" font-size="12" fill="#aaaaaa">SWARM ENTITIES</text>
        <text x="0" y="15" font-size="28" fill="#ffffff" font-weight="bold" filter="url(#textGlow)">104</text>
        <text x="0" y="35" font-size="10" fill="#777777">AUTONOMOUS</text>
    </g>

    <!-- UPTIME -->
    <g transform="translate(730, 100)">
        <path d="M -40 -35 L 40 -35 L 50 -25 L 50 35 L -40 35 L -50 25 Z" fill="#0a0a0a" stroke="#39FF14" stroke-opacity="0.4" stroke-width="1"/>
        <text x="0" y="-15" font-size="12" fill="#aaaaaa">CONTINUITY</text>
        <text x="0" y="15" font-size="24" fill="#ffffff" font-weight="bold">341<tspan font-size="14" fill="#777777">d</tspan></text>
        <rect x="-35" y="25" width="70" height="4" fill="url(#neonBar)" rx="2"/>
    </g>
  </g>

  <text x="425" y="185" font-family="'Consolas', 'Fira Code', monospace" font-size="10" fill="#aaaaaa" opacity="0.6" text-anchor="middle">LAST TELEMETRY PING: 2026-04-26 14:02:15 UTC // ENCRYPTED_TUNNEL</text>
</svg>