<svg width="850" height="200" viewBox="0 0 850 200" xmlns="http://www.w3.org/2000/svg">
  <defs>
    <pattern id="carbonFiber" width="10" height="10" patternUnits="userSpaceOnUse">
        <rect width="10" height="10" fill="#050505"/>
        <path d="M0,0 L5,5 L10,0 L5,-5 Z M5,5 L10,10 L15,5 L10,0 Z M-5,5 L0,10 L5,5 L0,0 Z M0,10 L5,15 L10,10 L5,5 Z" fill="#0d0d0d"/>
    </pattern>
    <filter id="textGlow">
      <feGaussianBlur stdDeviation="2" result="blur" />
      <feMerge>
        <feMergeNode in="blur"/>
        <feMergeNode in="SourceGraphic"/>
      </feMerge>
    </filter>
    <linearGradient id="neonBar" x1="0%" y1="0%" x2="100%" y2="0%">
        <stop offset="0%" stop-color="#111111"/>
        <stop offset="100%" stop-color="#39FF14"/>
    </linearGradient>
    <linearGradient id="scanlineGrad" x1="0%" y1="0%" x2="100%" y2="0%">
        <stop offset="0%" stop-color="#39FF14" stop-opacity="0"/>
        <stop offset="50%" stop-color="#39FF14" stop-opacity="0.18"/>
        <stop offset="100%" stop-color="#39FF14" stop-opacity="0"/>
    </linearGradient>
    <clipPath id="dashClip">
        <rect x="0" y="0" width="850" height="200" rx="12"/>
    </clipPath>
  </defs>

  <rect width="100%" height="100%" fill="url(#carbonFiber)" rx="12" stroke="#39FF14" stroke-width="1" stroke-opacity="0.3"/>
  <rect width="100%" height="100%" fill="#000000" opacity="0.6" rx="12" />
  <g><polygon points="35,125 43.6,130 43.6,140 35,145 26.4,140 26.4,130" fill="none" stroke="#39FF14" stroke-width="1" opacity="0.032952449394268155"/>
<polygon points="298,100 306.6,105 306.6,115 298,120 289.4,115 289.4,105" fill="none" stroke="#39FF14" stroke-width="1" opacity="0.061179304674304255"/>
<polygon points="86,85 94.6,90 94.6,100 86,105 77.4,100 77.4,90" fill="none" stroke="#39FF14" stroke-width="1" opacity="0.04279694349450681"/>
<polygon points="524,25 532.6,30 532.6,40 524,45 515.4,40 515.4,30" fill="none" stroke="#39FF14" stroke-width="1" opacity="0.0647458919725341"/>
<polygon points="366,109 374.6,114 374.6,124 366,129 357.4,124 357.4,114" fill="none" stroke="#39FF14" stroke-width="1" opacity="0.0716165974269904"/>
<polygon points="71,133 79.6,138 79.6,148 71,153 62.4,148 62.4,138" fill="none" stroke="#39FF14" stroke-width="1" opacity="0.02480293285932818"/>
<polygon points="703,63 711.6,68 711.6,78 703,83 694.4,78 694.4,68" fill="none" stroke="#39FF14" stroke-width="1" opacity="0.03575050069275126"/>
<polygon points="314,-4 322.6,1 322.6,11 314,16 305.4,11 305.4,1" fill="none" stroke="#39FF14" stroke-width="1" opacity="0.03701891316512071"/>
<polygon points="14,54 22.6,59 22.6,69 14,74 5.4,69 5.4,59" fill="none" stroke="#39FF14" stroke-width="1" opacity="0.05253196731110793"/>
<polygon points="321,5 329.6,10 329.6,20 321,25 312.4,20 312.4,10" fill="none" stroke="#39FF14" stroke-width="1" opacity="0.06844981822005869"/>
<polygon points="173,75 181.6,80 181.6,90 173,95 164.4,90 164.4,80" fill="none" stroke="#39FF14" stroke-width="1" opacity="0.06837945699614975"/>
<polygon points="307,164 315.6,169 315.6,179 307,184 298.4,179 298.4,169" fill="none" stroke="#39FF14" stroke-width="1" opacity="0.07595277746916484"/>
<polygon points="672,92 680.6,97 680.6,107 672,112 663.4,107 663.4,97" fill="none" stroke="#39FF14" stroke-width="1" opacity="0.044201181027893124"/>
<polygon points="167,-10 175.6,-5 175.6,5 167,10 158.4,5 158.4,-5" fill="none" stroke="#39FF14" stroke-width="1" opacity="0.0480300181434313"/>
<polygon points="474,-6 482.6,-1 482.6,9 474,14 465.4,9 465.4,-1" fill="none" stroke="#39FF14" stroke-width="1" opacity="0.06326459801793109"/>
<polygon points="769,96 777.6,101 777.6,111 769,116 760.4,111 760.4,101" fill="none" stroke="#39FF14" stroke-width="1" opacity="0.06612663624813958"/>
<polygon points="818,169 826.6,174 826.6,184 818,189 809.4,184 809.4,174" fill="none" stroke="#39FF14" stroke-width="1" opacity="0.060705848707079096"/>
<polygon points="687,162 695.6,167 695.6,177 687,182 678.4,177 678.4,167" fill="none" stroke="#39FF14" stroke-width="1" opacity="0.03689311364586903"/>
<polygon points="734,75 742.6,80 742.6,90 734,95 725.4,90 725.4,80" fill="none" stroke="#39FF14" stroke-width="1" opacity="0.07704494594623945"/>
<polygon points="158,138 166.6,143 166.6,153 158,158 149.4,153 149.4,143" fill="none" stroke="#39FF14" stroke-width="1" opacity="0.05964916523406853"/>
<polygon points="53,187 61.6,192 61.6,202 53,207 44.4,202 44.4,192" fill="none" stroke="#39FF14" stroke-width="1" opacity="0.04056418921280737"/>
<polygon points="788,47 796.6,52 796.6,62 788,67 779.4,62 779.4,52" fill="none" stroke="#39FF14" stroke-width="1" opacity="0.07949764221380301"/>
<polygon points="125,133 133.6,138 133.6,148 125,153 116.4,148 116.4,138" fill="none" stroke="#39FF14" stroke-width="1" opacity="0.07256725513741168"/>
<polygon points="497,102 505.6,107 505.6,117 497,122 488.4,117 488.4,107" fill="none" stroke="#39FF14" stroke-width="1" opacity="0.05092181515604924"/>
<polygon points="96,143 104.6,148 104.6,158 96,163 87.4,158 87.4,148" fill="none" stroke="#39FF14" stroke-width="1" opacity="0.03699346921076217"/>
<polygon points="753,92 761.6,97 761.6,107 753,112 744.4,107 744.4,97" fill="none" stroke="#39FF14" stroke-width="1" opacity="0.04984499281257393"/>
<polygon points="733,135 741.6,140 741.6,150 733,155 724.4,150 724.4,140" fill="none" stroke="#39FF14" stroke-width="1" opacity="0.07974091402212992"/>
<polygon points="512,15 520.6,20 520.6,30 512,35 503.4,30 503.4,20" fill="none" stroke="#39FF14" stroke-width="1" opacity="0.04662032995390462"/>
<polygon points="380,153 388.6,158 388.6,168 380,173 371.4,168 371.4,158" fill="none" stroke="#39FF14" stroke-width="1" opacity="0.06907306233867558"/>
<polygon points="134,16 142.6,21 142.6,31 134,36 125.4,31 125.4,21" fill="none" stroke="#39FF14" stroke-width="1" opacity="0.07911303838348899"/>
</g>

  <!-- HUD Decorative elements -->
  <path d="M 20 20 L 40 20 L 50 30" fill="none" stroke="#39FF14" stroke-width="2" opacity="0.5"/>
  <path d="M 830 180 L 810 180 L 800 170" fill="none" stroke="#39FF14" stroke-width="2" opacity="0.5"/>

  <g clip-path="url(#dashClip)">
    <rect x="-160" y="0" width="160" height="200" fill="url(#scanlineGrad)">
      <animateTransform attributeName="transform" type="translate"
                        from="0 0" to="1010 0" dur="6s" repeatCount="indefinite"/>
    </rect>
  </g>

  <g font-family="'Consolas', 'Fira Code', monospace" text-anchor="middle">

    <!-- NETWORK STATUS -->
    <g transform="translate(130, 100)">
        <circle cx="0" cy="0" r="45" fill="none" stroke="#39FF14" stroke-width="2" stroke-dasharray="10 5">
            <animateTransform attributeName="transform" type="rotate" from="0" to="360" dur="10s" repeatCount="indefinite"/>
        </circle>
        <circle cx="0" cy="0" r="35" fill="#0d0d0d" />
        <text x="0" y="-60" font-size="12" fill="#aaaaaa" letter-spacing="2">ROOT.AUTH</text>
        <text x="0" y="70" font-size="14" fill="#ffffff" font-weight="bold">OPERATIONAL</text>
    </g>

    <!-- ACTIVE USERS -->
    <g transform="translate(330, 100)">
        <text x="0" y="-20" font-size="12" fill="#aaaaaa">CITIZENS</text>
        <text x="0" y="15" font-size="28" fill="#ffffff" font-weight="bold" filter="url(#textGlow)">15,276</text>
        <text x="0" y="35" font-size="10" fill="#777777">VERIFIED HUMANS</text>
    </g>

    <!-- REGISTERED AGENTS -->
    <g transform="translate(530, 100)">
        <text x="0" y="-20" font-size="12" fill="#aaaaaa">AGENTS</text>
        <text x="0" y="15" font-size="28" fill="#00d4ff" font-weight="bold" filter="url(#textGlow)">3,403</text>
        <text x="0" y="35" font-size="10" fill="#777777">REGISTERED DIDs</text>
    </g>

    <!-- TRANSACTIONS -->
    <g transform="translate(730, 100)">
        <text x="0" y="-20" font-size="12" fill="#aaaaaa">TRANSFERS</text>
        <text x="0" y="15" font-size="28" fill="#ffffff" font-weight="bold">37,692</text>
        <text x="0" y="35" font-size="10" fill="#777777">M2M SETTLEMENTS</text>
    </g>
  </g>

  <text x="425" y="185" font-family="'Consolas', 'Fira Code', monospace" font-size="10" fill="#aaaaaa" opacity="0.6" text-anchor="middle">AXIOMID PROJECTED TARGETS (ILLUSTRATIVE): 2026-07-22 10:58:03 UTC // SECURE_HANDSHAKE</text>
</svg>