<svg width="850" height="200" viewBox="0 0 850 200" xmlns="http://www.w3.org/2000/svg">
  <defs>
    <pattern id="carbonFiber" width="10" height="10" patternUnits="userSpaceOnUse">
        <rect width="10" height="10" fill="#050505"/>
        <path d="M0,0 L5,5 L10,0 L5,-5 Z M5,5 L10,10 L15,5 L10,0 Z M-5,5 L0,10 L5,5 L0,0 Z M0,10 L5,15 L10,10 L5,5 Z" fill="#0d0d0d"/>
    </pattern>
    <filter id="textGlow">
      <feGaussianBlur stdDeviation="2" result="blur" />
      <feMerge>
        <feMergeNode in="blur"/>
        <feMergeNode in="SourceGraphic"/>
      </feMerge>
    </filter>
    <linearGradient id="neonBar" x1="0%" y1="0%" x2="100%" y2="0%">
        <stop offset="0%" stop-color="#111111"/>
        <stop offset="100%" stop-color="#39FF14"/>
    </linearGradient>
    <linearGradient id="scanlineGrad" x1="0%" y1="0%" x2="100%" y2="0%">
        <stop offset="0%" stop-color="#39FF14" stop-opacity="0"/>
        <stop offset="50%" stop-color="#39FF14" stop-opacity="0.18"/>
        <stop offset="100%" stop-color="#39FF14" stop-opacity="0"/>
    </linearGradient>
    <clipPath id="dashClip">
        <rect x="0" y="0" width="850" height="200" rx="12"/>
    </clipPath>
  </defs>

  <rect width="100%" height="100%" fill="url(#carbonFiber)" rx="12" stroke="#39FF14" stroke-width="1" stroke-opacity="0.3"/>
  <rect width="100%" height="100%" fill="#000000" opacity="0.6" rx="12" />
  <g><polygon points="306,173 314.6,178 314.6,188 306,193 297.4,188 297.4,178" fill="none" stroke="#39FF14" stroke-width="1" opacity="0.03009057121246017"/>
<polygon points="504,17 512.6,22 512.6,32 504,37 495.4,32 495.4,22" fill="none" stroke="#39FF14" stroke-width="1" opacity="0.07651499501440445"/>
<polygon points="392,118 400.6,123 400.6,133 392,138 383.4,133 383.4,123" fill="none" stroke="#39FF14" stroke-width="1" opacity="0.04098410398528432"/>
<polygon points="63,-5 71.6,0 71.6,10 63,15 54.4,10 54.4,0" fill="none" stroke="#39FF14" stroke-width="1" opacity="0.035106242768614175"/>
<polygon points="431,44 439.6,49 439.6,59 431,64 422.4,59 422.4,49" fill="none" stroke="#39FF14" stroke-width="1" opacity="0.03819407190722042"/>
<polygon points="720,155 728.6,160 728.6,170 720,175 711.4,170 711.4,160" fill="none" stroke="#39FF14" stroke-width="1" opacity="0.03344383257730477"/>
<polygon points="76,54 84.6,59 84.6,69 76,74 67.4,69 67.4,59" fill="none" stroke="#39FF14" stroke-width="1" opacity="0.037191158020873846"/>
<polygon points="89,25 97.6,30 97.6,40 89,45 80.4,40 80.4,30" fill="none" stroke="#39FF14" stroke-width="1" opacity="0.07962105429633794"/>
<polygon points="395,89 403.6,94 403.6,104 395,109 386.4,104 386.4,94" fill="none" stroke="#39FF14" stroke-width="1" opacity="0.0708374173900352"/>
<polygon points="413,189 421.6,194 421.6,204 413,209 404.4,204 404.4,194" fill="none" stroke="#39FF14" stroke-width="1" opacity="0.059806154443784634"/>
<polygon points="180,128 188.6,133 188.6,143 180,148 171.4,143 171.4,133" fill="none" stroke="#39FF14" stroke-width="1" opacity="0.03358172342664017"/>
<polygon points="265,34 273.6,39 273.6,49 265,54 256.4,49 256.4,39" fill="none" stroke="#39FF14" stroke-width="1" opacity="0.04313157024038147"/>
<polygon points="119,26 127.6,31 127.6,41 119,46 110.4,41 110.4,31" fill="none" stroke="#39FF14" stroke-width="1" opacity="0.05812843335963837"/>
<polygon points="239,31 247.6,36 247.6,46 239,51 230.4,46 230.4,36" fill="none" stroke="#39FF14" stroke-width="1" opacity="0.05461469787237343"/>
<polygon points="183,166 191.6,171 191.6,181 183,186 174.4,181 174.4,171" fill="none" stroke="#39FF14" stroke-width="1" opacity="0.034286929724389355"/>
<polygon points="644,95 652.6,100 652.6,110 644,115 635.4,110 635.4,100" fill="none" stroke="#39FF14" stroke-width="1" opacity="0.027261451283170594"/>
<polygon points="466,106 474.6,111 474.6,121 466,126 457.4,121 457.4,111" fill="none" stroke="#39FF14" stroke-width="1" opacity="0.0373345884231492"/>
<polygon points="295,145 303.6,150 303.6,160 295,165 286.4,160 286.4,150" fill="none" stroke="#39FF14" stroke-width="1" opacity="0.04536700322516859"/>
<polygon points="781,131 789.6,136 789.6,146 781,151 772.4,146 772.4,136" fill="none" stroke="#39FF14" stroke-width="1" opacity="0.03537306224349873"/>
<polygon points="465,150 473.6,155 473.6,165 465,170 456.4,165 456.4,155" fill="none" stroke="#39FF14" stroke-width="1" opacity="0.04297085165571192"/>
<polygon points="366,47 374.6,52 374.6,62 366,67 357.4,62 357.4,52" fill="none" stroke="#39FF14" stroke-width="1" opacity="0.06602406551565297"/>
<polygon points="625,4 633.6,9 633.6,19 625,24 616.4,19 616.4,9" fill="none" stroke="#39FF14" stroke-width="1" opacity="0.07983145358324924"/>
<polygon points="642,158 650.6,163 650.6,173 642,178 633.4,173 633.4,163" fill="none" stroke="#39FF14" stroke-width="1" opacity="0.05187257996802219"/>
<polygon points="207,177 215.6,182 215.6,192 207,197 198.4,192 198.4,182" fill="none" stroke="#39FF14" stroke-width="1" opacity="0.07422895913706758"/>
<polygon points="95,113 103.6,118 103.6,128 95,133 86.4,128 86.4,118" fill="none" stroke="#39FF14" stroke-width="1" opacity="0.024750373472556843"/>
<polygon points="146,100 154.6,105 154.6,115 146,120 137.4,115 137.4,105" fill="none" stroke="#39FF14" stroke-width="1" opacity="0.03813743307418207"/>
<polygon points="818,69 826.6,74 826.6,84 818,89 809.4,84 809.4,74" fill="none" stroke="#39FF14" stroke-width="1" opacity="0.020655048578550265"/>
<polygon points="283,127 291.6,132 291.6,142 283,147 274.4,142 274.4,132" fill="none" stroke="#39FF14" stroke-width="1" opacity="0.056975909628685484"/>
<polygon points="757,35 765.6,40 765.6,50 757,55 748.4,50 748.4,40" fill="none" stroke="#39FF14" stroke-width="1" opacity="0.0685791537735853"/>
<polygon points="291,128 299.6,133 299.6,143 291,148 282.4,143 282.4,133" fill="none" stroke="#39FF14" stroke-width="1" opacity="0.0420292254418773"/>
</g>

  <!-- HUD Decorative elements -->
  <path d="M 20 20 L 40 20 L 50 30" fill="none" stroke="#39FF14" stroke-width="2" opacity="0.5"/>
  <path d="M 830 180 L 810 180 L 800 170" fill="none" stroke="#39FF14" stroke-width="2" opacity="0.5"/>

  <g clip-path="url(#dashClip)">
    <rect x="-160" y="0" width="160" height="200" fill="url(#scanlineGrad)">
      <animateTransform attributeName="transform" type="translate"
                        from="0 0" to="1010 0" dur="6s" repeatCount="indefinite"/>
    </rect>
  </g>

  <g font-family="'Consolas', 'Fira Code', monospace" text-anchor="middle">

    <!-- NETWORK STATUS -->
    <g transform="translate(130, 100)">
        <circle cx="0" cy="0" r="45" fill="none" stroke="#39FF14" stroke-width="2" stroke-dasharray="10 5">
            <animateTransform attributeName="transform" type="rotate" from="0" to="360" dur="10s" repeatCount="indefinite"/>
        </circle>
        <circle cx="0" cy="0" r="35" fill="#0d0d0d" />
        <text x="0" y="-60" font-size="12" fill="#aaaaaa" letter-spacing="2">ROOT.AUTH</text>
        <text x="0" y="70" font-size="14" fill="#ffffff" font-weight="bold">OPERATIONAL</text>
    </g>

    <!-- ACTIVE USERS -->
    <g transform="translate(330, 100)">
        <text x="0" y="-20" font-size="12" fill="#aaaaaa">CITIZENS</text>
        <text x="0" y="15" font-size="28" fill="#ffffff" font-weight="bold" filter="url(#textGlow)">15,204</text>
        <text x="0" y="35" font-size="10" fill="#777777">VERIFIED HUMANS</text>
    </g>

    <!-- REGISTERED AGENTS -->
    <g transform="translate(530, 100)">
        <text x="0" y="-20" font-size="12" fill="#aaaaaa">AGENTS</text>
        <text x="0" y="15" font-size="28" fill="#00d4ff" font-weight="bold" filter="url(#textGlow)">4,379</text>
        <text x="0" y="35" font-size="10" fill="#777777">REGISTERED DIDs</text>
    </g>

    <!-- TRANSACTIONS -->
    <g transform="translate(730, 100)">
        <text x="0" y="-20" font-size="12" fill="#aaaaaa">TRANSFERS</text>
        <text x="0" y="15" font-size="28" fill="#ffffff" font-weight="bold">41,362</text>
        <text x="0" y="35" font-size="10" fill="#777777">M2M SETTLEMENTS</text>
    </g>
  </g>

  <text x="425" y="185" font-family="'Consolas', 'Fira Code', monospace" font-size="10" fill="#aaaaaa" opacity="0.6" text-anchor="middle">AXIOMID PROJECTED TARGETS (ILLUSTRATIVE): 2026-07-11 10:08:48 UTC // SECURE_HANDSHAKE</text>
</svg>