<svg width="850" height="200" viewBox="0 0 850 200" xmlns="http://www.w3.org/2000/svg">
  <defs>
    <pattern id="carbonFiber" width="10" height="10" patternUnits="userSpaceOnUse">
        <rect width="10" height="10" fill="#050505"/>
        <path d="M0,0 L5,5 L10,0 L5,-5 Z M5,5 L10,10 L15,5 L10,0 Z M-5,5 L0,10 L5,5 L0,0 Z M0,10 L5,15 L10,10 L5,5 Z" fill="#0d0d0d"/>
    </pattern>
    <filter id="textGlow">
      <feGaussianBlur stdDeviation="2" result="blur" />
      <feMerge>
        <feMergeNode in="blur"/>
        <feMergeNode in="SourceGraphic"/>
      </feMerge>
    </filter>
    <linearGradient id="neonBar" x1="0%" y1="0%" x2="100%" y2="0%">
        <stop offset="0%" stop-color="#111111"/>
        <stop offset="100%" stop-color="#39FF14"/>
    </linearGradient>
    <linearGradient id="scanlineGrad" x1="0%" y1="0%" x2="100%" y2="0%">
        <stop offset="0%" stop-color="#39FF14" stop-opacity="0"/>
        <stop offset="50%" stop-color="#39FF14" stop-opacity="0.18"/>
        <stop offset="100%" stop-color="#39FF14" stop-opacity="0"/>
    </linearGradient>
    <clipPath id="dashClip">
        <rect x="0" y="0" width="850" height="200" rx="12"/>
    </clipPath>
  </defs>

  <rect width="100%" height="100%" fill="url(#carbonFiber)" rx="12" stroke="#39FF14" stroke-width="1" stroke-opacity="0.3"/>
  <rect width="100%" height="100%" fill="#000000" opacity="0.6" rx="12" />
  <g><polygon points="338,116 346.6,121 346.6,131 338,136 329.4,131 329.4,121" fill="none" stroke="#39FF14" stroke-width="1" opacity="0.045025485015186675"/>
<polygon points="742,65 750.6,70 750.6,80 742,85 733.4,80 733.4,70" fill="none" stroke="#39FF14" stroke-width="1" opacity="0.032272872864269796"/>
<polygon points="429,12 437.6,17 437.6,27 429,32 420.4,27 420.4,17" fill="none" stroke="#39FF14" stroke-width="1" opacity="0.03898684008407911"/>
<polygon points="841,43 849.6,48 849.6,58 841,63 832.4,58 832.4,48" fill="none" stroke="#39FF14" stroke-width="1" opacity="0.0715132910103007"/>
<polygon points="850,27 858.6,32 858.6,42 850,47 841.4,42 841.4,32" fill="none" stroke="#39FF14" stroke-width="1" opacity="0.07364694482963768"/>
<polygon points="151,57 159.6,62 159.6,72 151,77 142.4,72 142.4,62" fill="none" stroke="#39FF14" stroke-width="1" opacity="0.039601657003362836"/>
<polygon points="827,44 835.6,49 835.6,59 827,64 818.4,59 818.4,49" fill="none" stroke="#39FF14" stroke-width="1" opacity="0.05629977526183404"/>
<polygon points="76,17 84.6,22 84.6,32 76,37 67.4,32 67.4,22" fill="none" stroke="#39FF14" stroke-width="1" opacity="0.04224907949223124"/>
<polygon points="412,146 420.6,151 420.6,161 412,166 403.4,161 403.4,151" fill="none" stroke="#39FF14" stroke-width="1" opacity="0.039393129967570925"/>
<polygon points="595,121 603.6,126 603.6,136 595,141 586.4,136 586.4,126" fill="none" stroke="#39FF14" stroke-width="1" opacity="0.07559493287953341"/>
<polygon points="112,28 120.6,33 120.6,43 112,48 103.4,43 103.4,33" fill="none" stroke="#39FF14" stroke-width="1" opacity="0.05069531593264003"/>
<polygon points="239,82 247.6,87 247.6,97 239,102 230.4,97 230.4,87" fill="none" stroke="#39FF14" stroke-width="1" opacity="0.06994821244346823"/>
<polygon points="541,49 549.6,54 549.6,64 541,69 532.4,64 532.4,54" fill="none" stroke="#39FF14" stroke-width="1" opacity="0.05545536012484378"/>
<polygon points="825,129 833.6,134 833.6,144 825,149 816.4,144 816.4,134" fill="none" stroke="#39FF14" stroke-width="1" opacity="0.03647172072664842"/>
<polygon points="522,154 530.6,159 530.6,169 522,174 513.4,169 513.4,159" fill="none" stroke="#39FF14" stroke-width="1" opacity="0.07053632787222693"/>
<polygon points="322,20 330.6,25 330.6,35 322,40 313.4,35 313.4,25" fill="none" stroke="#39FF14" stroke-width="1" opacity="0.02079664317534389"/>
<polygon points="720,181 728.6,186 728.6,196 720,201 711.4,196 711.4,186" fill="none" stroke="#39FF14" stroke-width="1" opacity="0.06265898928750382"/>
<polygon points="406,82 414.6,87 414.6,97 406,102 397.4,97 397.4,87" fill="none" stroke="#39FF14" stroke-width="1" opacity="0.027621952351772318"/>
<polygon points="727,1 735.6,6 735.6,16 727,21 718.4,16 718.4,6" fill="none" stroke="#39FF14" stroke-width="1" opacity="0.05162085798287752"/>
<polygon points="118,179 126.6,184 126.6,194 118,199 109.4,194 109.4,184" fill="none" stroke="#39FF14" stroke-width="1" opacity="0.06758324047327428"/>
<polygon points="41,150 49.6,155 49.6,165 41,170 32.4,165 32.4,155" fill="none" stroke="#39FF14" stroke-width="1" opacity="0.0703163863743142"/>
<polygon points="209,6 217.6,11 217.6,21 209,26 200.4,21 200.4,11" fill="none" stroke="#39FF14" stroke-width="1" opacity="0.06355230256872091"/>
<polygon points="751,181 759.6,186 759.6,196 751,201 742.4,196 742.4,186" fill="none" stroke="#39FF14" stroke-width="1" opacity="0.07315707870390638"/>
<polygon points="595,55 603.6,60 603.6,70 595,75 586.4,70 586.4,60" fill="none" stroke="#39FF14" stroke-width="1" opacity="0.0525712542101472"/>
<polygon points="284,117 292.6,122 292.6,132 284,137 275.4,132 275.4,122" fill="none" stroke="#39FF14" stroke-width="1" opacity="0.07460297634865148"/>
<polygon points="720,84 728.6,89 728.6,99 720,104 711.4,99 711.4,89" fill="none" stroke="#39FF14" stroke-width="1" opacity="0.048892930707161594"/>
<polygon points="338,94 346.6,99 346.6,109 338,114 329.4,109 329.4,99" fill="none" stroke="#39FF14" stroke-width="1" opacity="0.06965047931510665"/>
<polygon points="452,142 460.6,147 460.6,157 452,162 443.4,157 443.4,147" fill="none" stroke="#39FF14" stroke-width="1" opacity="0.06901865440707351"/>
<polygon points="846,70 854.6,75 854.6,85 846,90 837.4,85 837.4,75" fill="none" stroke="#39FF14" stroke-width="1" opacity="0.06702369997830257"/>
<polygon points="259,-1 267.6,4 267.6,14 259,19 250.4,14 250.4,4" fill="none" stroke="#39FF14" stroke-width="1" opacity="0.030975111984950073"/>
</g>

  <!-- HUD Decorative elements -->
  <path d="M 20 20 L 40 20 L 50 30" fill="none" stroke="#39FF14" stroke-width="2" opacity="0.5"/>
  <path d="M 830 180 L 810 180 L 800 170" fill="none" stroke="#39FF14" stroke-width="2" opacity="0.5"/>

  <g clip-path="url(#dashClip)">
    <rect x="-160" y="0" width="160" height="200" fill="url(#scanlineGrad)">
      <animateTransform attributeName="transform" type="translate"
                        from="0 0" to="1010 0" dur="6s" repeatCount="indefinite"/>
    </rect>
  </g>

  <g font-family="'Consolas', 'Fira Code', monospace" text-anchor="middle">

    <!-- NETWORK STATUS -->
    <g transform="translate(130, 100)">
        <circle cx="0" cy="0" r="45" fill="none" stroke="#39FF14" stroke-width="2" stroke-dasharray="10 5">
            <animateTransform attributeName="transform" type="rotate" from="0" to="360" dur="10s" repeatCount="indefinite"/>
        </circle>
        <circle cx="0" cy="0" r="35" fill="#0d0d0d" />
        <text x="0" y="-60" font-size="12" fill="#aaaaaa" letter-spacing="2">ROOT.AUTH</text>
        <text x="0" y="70" font-size="14" fill="#ffffff" font-weight="bold">OPERATIONAL</text>
    </g>

    <!-- ACTIVE USERS -->
    <g transform="translate(330, 100)">
        <text x="0" y="-20" font-size="12" fill="#aaaaaa">CITIZENS</text>
        <text x="0" y="15" font-size="28" fill="#ffffff" font-weight="bold" filter="url(#textGlow)">12,817</text>
        <text x="0" y="35" font-size="10" fill="#777777">VERIFIED HUMANS</text>
    </g>

    <!-- REGISTERED AGENTS -->
    <g transform="translate(530, 100)">
        <text x="0" y="-20" font-size="12" fill="#aaaaaa">AGENTS</text>
        <text x="0" y="15" font-size="28" fill="#00d4ff" font-weight="bold" filter="url(#textGlow)">4,308</text>
        <text x="0" y="35" font-size="10" fill="#777777">REGISTERED DIDs</text>
    </g>

    <!-- TRANSACTIONS -->
    <g transform="translate(730, 100)">
        <text x="0" y="-20" font-size="12" fill="#aaaaaa">TRANSFERS</text>
        <text x="0" y="15" font-size="28" fill="#ffffff" font-weight="bold">31,932</text>
        <text x="0" y="35" font-size="10" fill="#777777">M2M SETTLEMENTS</text>
    </g>
  </g>

  <text x="425" y="185" font-family="'Consolas', 'Fira Code', monospace" font-size="10" fill="#aaaaaa" opacity="0.6" text-anchor="middle">AXIOMID PROJECTED TARGETS (ILLUSTRATIVE): 2026-07-23 06:40:18 UTC // SECURE_HANDSHAKE</text>
</svg>