<svg width="850" height="200" viewBox="0 0 850 200" xmlns="http://www.w3.org/2000/svg">
  <defs>
    <pattern id="carbonFiber" width="10" height="10" patternUnits="userSpaceOnUse">
        <rect width="10" height="10" fill="#050505"/>
        <path d="M0,0 L5,5 L10,0 L5,-5 Z M5,5 L10,10 L15,5 L10,0 Z M-5,5 L0,10 L5,5 L0,0 Z M0,10 L5,15 L10,10 L5,5 Z" fill="#0d0d0d"/>
    </pattern>
    <filter id="textGlow">
      <feGaussianBlur stdDeviation="2" result="blur" />
      <feMerge>
        <feMergeNode in="blur"/>
        <feMergeNode in="SourceGraphic"/>
      </feMerge>
    </filter>
    <linearGradient id="neonBar" x1="0%" y1="0%" x2="100%" y2="0%">
        <stop offset="0%" stop-color="#111111"/>
        <stop offset="100%" stop-color="#39FF14"/>
    </linearGradient>
    <linearGradient id="scanlineGrad" x1="0%" y1="0%" x2="100%" y2="0%">
        <stop offset="0%" stop-color="#39FF14" stop-opacity="0"/>
        <stop offset="50%" stop-color="#39FF14" stop-opacity="0.18"/>
        <stop offset="100%" stop-color="#39FF14" stop-opacity="0"/>
    </linearGradient>
    <clipPath id="dashClip">
        <rect x="0" y="0" width="850" height="200" rx="12"/>
    </clipPath>
  </defs>

  <rect width="100%" height="100%" fill="url(#carbonFiber)" rx="12" stroke="#39FF14" stroke-width="1" stroke-opacity="0.3"/>
  <rect width="100%" height="100%" fill="#000000" opacity="0.6" rx="12" />
  <g><polygon points="542,90 550.6,95 550.6,105 542,110 533.4,105 533.4,95" fill="none" stroke="#39FF14" stroke-width="1" opacity="0.0727054268629174"/>
<polygon points="209,170 217.6,175 217.6,185 209,190 200.4,185 200.4,175" fill="none" stroke="#39FF14" stroke-width="1" opacity="0.02081122519888517"/>
<polygon points="572,66 580.6,71 580.6,81 572,86 563.4,81 563.4,71" fill="none" stroke="#39FF14" stroke-width="1" opacity="0.06870205039943617"/>
<polygon points="511,-5 519.6,0 519.6,10 511,15 502.4,10 502.4,0" fill="none" stroke="#39FF14" stroke-width="1" opacity="0.03634083818531284"/>
<polygon points="518,157 526.6,162 526.6,172 518,177 509.4,172 509.4,162" fill="none" stroke="#39FF14" stroke-width="1" opacity="0.047000324570225314"/>
<polygon points="381,32 389.6,37 389.6,47 381,52 372.4,47 372.4,37" fill="none" stroke="#39FF14" stroke-width="1" opacity="0.0606441753942214"/>
<polygon points="581,31 589.6,36 589.6,46 581,51 572.4,46 572.4,36" fill="none" stroke="#39FF14" stroke-width="1" opacity="0.07408772530789502"/>
<polygon points="309,72 317.6,77 317.6,87 309,92 300.4,87 300.4,77" fill="none" stroke="#39FF14" stroke-width="1" opacity="0.032753783809686535"/>
<polygon points="200,122 208.6,127 208.6,137 200,142 191.4,137 191.4,127" fill="none" stroke="#39FF14" stroke-width="1" opacity="0.049737156779356195"/>
<polygon points="161,187 169.6,192 169.6,202 161,207 152.4,202 152.4,192" fill="none" stroke="#39FF14" stroke-width="1" opacity="0.037262743064746626"/>
<polygon points="464,132 472.6,137 472.6,147 464,152 455.4,147 455.4,137" fill="none" stroke="#39FF14" stroke-width="1" opacity="0.07401161657860025"/>
<polygon points="457,25 465.6,30 465.6,40 457,45 448.4,40 448.4,30" fill="none" stroke="#39FF14" stroke-width="1" opacity="0.05134865197922946"/>
<polygon points="258,178 266.6,183 266.6,193 258,198 249.4,193 249.4,183" fill="none" stroke="#39FF14" stroke-width="1" opacity="0.03512696073449597"/>
<polygon points="586,157 594.6,162 594.6,172 586,177 577.4,172 577.4,162" fill="none" stroke="#39FF14" stroke-width="1" opacity="0.050401296250803584"/>
<polygon points="294,47 302.6,52 302.6,62 294,67 285.4,62 285.4,52" fill="none" stroke="#39FF14" stroke-width="1" opacity="0.02993266522652486"/>
<polygon points="58,-4 66.6,1 66.6,11 58,16 49.4,11 49.4,1" fill="none" stroke="#39FF14" stroke-width="1" opacity="0.020630840818902388"/>
<polygon points="30,181 38.6,186 38.6,196 30,201 21.4,196 21.4,186" fill="none" stroke="#39FF14" stroke-width="1" opacity="0.0495584971375319"/>
<polygon points="239,75 247.6,80 247.6,90 239,95 230.4,90 230.4,80" fill="none" stroke="#39FF14" stroke-width="1" opacity="0.07027799332155588"/>
<polygon points="295,139 303.6,144 303.6,154 295,159 286.4,154 286.4,144" fill="none" stroke="#39FF14" stroke-width="1" opacity="0.05639111634735598"/>
<polygon points="399,17 407.6,22 407.6,32 399,37 390.4,32 390.4,22" fill="none" stroke="#39FF14" stroke-width="1" opacity="0.06210687008162037"/>
<polygon points="218,183 226.6,188 226.6,198 218,203 209.4,198 209.4,188" fill="none" stroke="#39FF14" stroke-width="1" opacity="0.061724734906402456"/>
<polygon points="294,70 302.6,75 302.6,85 294,90 285.4,85 285.4,75" fill="none" stroke="#39FF14" stroke-width="1" opacity="0.057562705244146584"/>
<polygon points="524,116 532.6,121 532.6,131 524,136 515.4,131 515.4,121" fill="none" stroke="#39FF14" stroke-width="1" opacity="0.021433684199196"/>
<polygon points="243,43 251.6,48 251.6,58 243,63 234.4,58 234.4,48" fill="none" stroke="#39FF14" stroke-width="1" opacity="0.07457804372188791"/>
<polygon points="59,66 67.6,71 67.6,81 59,86 50.4,81 50.4,71" fill="none" stroke="#39FF14" stroke-width="1" opacity="0.057436517977898394"/>
<polygon points="293,154 301.6,159 301.6,169 293,174 284.4,169 284.4,159" fill="none" stroke="#39FF14" stroke-width="1" opacity="0.06910982367338205"/>
<polygon points="749,3 757.6,8 757.6,18 749,23 740.4,18 740.4,8" fill="none" stroke="#39FF14" stroke-width="1" opacity="0.045366644966304055"/>
<polygon points="633,129 641.6,134 641.6,144 633,149 624.4,144 624.4,134" fill="none" stroke="#39FF14" stroke-width="1" opacity="0.03696827537112793"/>
<polygon points="116,56 124.6,61 124.6,71 116,76 107.4,71 107.4,61" fill="none" stroke="#39FF14" stroke-width="1" opacity="0.052967182530658935"/>
<polygon points="644,146 652.6,151 652.6,161 644,166 635.4,161 635.4,151" fill="none" stroke="#39FF14" stroke-width="1" opacity="0.04568385990953486"/>
</g>

  <!-- HUD Decorative elements -->
  <path d="M 20 20 L 40 20 L 50 30" fill="none" stroke="#39FF14" stroke-width="2" opacity="0.5"/>
  <path d="M 830 180 L 810 180 L 800 170" fill="none" stroke="#39FF14" stroke-width="2" opacity="0.5"/>

  <g clip-path="url(#dashClip)">
    <rect x="-160" y="0" width="160" height="200" fill="url(#scanlineGrad)">
      <animateTransform attributeName="transform" type="translate"
                        from="0 0" to="1010 0" dur="6s" repeatCount="indefinite"/>
    </rect>
  </g>

  <g font-family="'Consolas', 'Fira Code', monospace" text-anchor="middle">

    <!-- NETWORK STATUS -->
    <g transform="translate(130, 100)">
        <circle cx="0" cy="0" r="45" fill="none" stroke="#39FF14" stroke-width="2" stroke-dasharray="10 5">
            <animateTransform attributeName="transform" type="rotate" from="0" to="360" dur="10s" repeatCount="indefinite"/>
        </circle>
        <circle cx="0" cy="0" r="35" fill="#0d0d0d" />
        <text x="0" y="-60" font-size="12" fill="#aaaaaa" letter-spacing="2">ROOT.AUTH</text>
        <text x="0" y="70" font-size="14" fill="#ffffff" font-weight="bold">OPERATIONAL</text>
    </g>

    <!-- ACTIVE USERS -->
    <g transform="translate(330, 100)">
        <text x="0" y="-20" font-size="12" fill="#aaaaaa">CITIZENS</text>
        <text x="0" y="15" font-size="28" fill="#ffffff" font-weight="bold" filter="url(#textGlow)">14,294</text>
        <text x="0" y="35" font-size="10" fill="#777777">VERIFIED HUMANS</text>
    </g>

    <!-- REGISTERED AGENTS -->
    <g transform="translate(530, 100)">
        <text x="0" y="-20" font-size="12" fill="#aaaaaa">AGENTS</text>
        <text x="0" y="15" font-size="28" fill="#00d4ff" font-weight="bold" filter="url(#textGlow)">3,310</text>
        <text x="0" y="35" font-size="10" fill="#777777">REGISTERED DIDs</text>
    </g>

    <!-- TRANSACTIONS -->
    <g transform="translate(730, 100)">
        <text x="0" y="-20" font-size="12" fill="#aaaaaa">TRANSFERS</text>
        <text x="0" y="15" font-size="28" fill="#ffffff" font-weight="bold">39,820</text>
        <text x="0" y="35" font-size="10" fill="#777777">M2M SETTLEMENTS</text>
    </g>
  </g>

  <text x="425" y="185" font-family="'Consolas', 'Fira Code', monospace" font-size="10" fill="#aaaaaa" opacity="0.6" text-anchor="middle">AXIOMID PROJECTED TARGETS (ILLUSTRATIVE): 2026-07-15 13:12:14 UTC // SECURE_HANDSHAKE</text>
</svg>