<svg width="850" height="200" viewBox="0 0 850 200" xmlns="http://www.w3.org/2000/svg">
  <defs>
    <pattern id="carbonFiber" width="10" height="10" patternUnits="userSpaceOnUse">
        <rect width="10" height="10" fill="#050505"/>
        <path d="M0,0 L5,5 L10,0 L5,-5 Z M5,5 L10,10 L15,5 L10,0 Z M-5,5 L0,10 L5,5 L0,0 Z M0,10 L5,15 L10,10 L5,5 Z" fill="#0d0d0d"/>
    </pattern>
    <filter id="textGlow">
      <feGaussianBlur stdDeviation="2" result="blur" />
      <feMerge>
        <feMergeNode in="blur"/>
        <feMergeNode in="SourceGraphic"/>
      </feMerge>
    </filter>
    <linearGradient id="neonBar" x1="0%" y1="0%" x2="100%" y2="0%">
        <stop offset="0%" stop-color="#111111"/>
        <stop offset="100%" stop-color="#39FF14"/>
    </linearGradient>
    <linearGradient id="scanlineGrad" x1="0%" y1="0%" x2="100%" y2="0%">
        <stop offset="0%" stop-color="#39FF14" stop-opacity="0"/>
        <stop offset="50%" stop-color="#39FF14" stop-opacity="0.18"/>
        <stop offset="100%" stop-color="#39FF14" stop-opacity="0"/>
    </linearGradient>
    <clipPath id="dashClip">
        <rect x="0" y="0" width="850" height="200" rx="12"/>
    </clipPath>
  </defs>

  <rect width="100%" height="100%" fill="url(#carbonFiber)" rx="12" stroke="#39FF14" stroke-width="1" stroke-opacity="0.3"/>
  <rect width="100%" height="100%" fill="#000000" opacity="0.6" rx="12" />
  <g><polygon points="766,25 774.6,30 774.6,40 766,45 757.4,40 757.4,30" fill="none" stroke="#39FF14" stroke-width="1" opacity="0.04916942186216571"/>
<polygon points="59,48 67.6,53 67.6,63 59,68 50.4,63 50.4,53" fill="none" stroke="#39FF14" stroke-width="1" opacity="0.07110248251505945"/>
<polygon points="668,186 676.6,191 676.6,201 668,206 659.4,201 659.4,191" fill="none" stroke="#39FF14" stroke-width="1" opacity="0.05870070752455761"/>
<polygon points="123,144 131.6,149 131.6,159 123,164 114.4,159 114.4,149" fill="none" stroke="#39FF14" stroke-width="1" opacity="0.03828689861491784"/>
<polygon points="536,63 544.6,68 544.6,78 536,83 527.4,78 527.4,68" fill="none" stroke="#39FF14" stroke-width="1" opacity="0.02262285368103374"/>
<polygon points="554,58 562.6,63 562.6,73 554,78 545.4,73 545.4,63" fill="none" stroke="#39FF14" stroke-width="1" opacity="0.04826142275056197"/>
<polygon points="55,-2 63.6,3 63.6,13 55,18 46.4,13 46.4,3" fill="none" stroke="#39FF14" stroke-width="1" opacity="0.034374159396071524"/>
<polygon points="133,161 141.6,166 141.6,176 133,181 124.4,176 124.4,166" fill="none" stroke="#39FF14" stroke-width="1" opacity="0.02115735334177215"/>
<polygon points="411,105 419.6,110 419.6,120 411,125 402.4,120 402.4,110" fill="none" stroke="#39FF14" stroke-width="1" opacity="0.025349234295271587"/>
<polygon points="68,29 76.6,34 76.6,44 68,49 59.4,44 59.4,34" fill="none" stroke="#39FF14" stroke-width="1" opacity="0.03680070732566627"/>
<polygon points="534,167 542.6,172 542.6,182 534,187 525.4,182 525.4,172" fill="none" stroke="#39FF14" stroke-width="1" opacity="0.03758184341288172"/>
<polygon points="41,121 49.6,126 49.6,136 41,141 32.4,136 32.4,126" fill="none" stroke="#39FF14" stroke-width="1" opacity="0.06484110101025684"/>
<polygon points="538,-9 546.6,-4 546.6,6 538,11 529.4,6 529.4,-4" fill="none" stroke="#39FF14" stroke-width="1" opacity="0.04328151984426714"/>
<polygon points="614,72 622.6,77 622.6,87 614,92 605.4,87 605.4,77" fill="none" stroke="#39FF14" stroke-width="1" opacity="0.07886295858109452"/>
<polygon points="695,190 703.6,195 703.6,205 695,210 686.4,205 686.4,195" fill="none" stroke="#39FF14" stroke-width="1" opacity="0.07107223049954085"/>
<polygon points="424,66 432.6,71 432.6,81 424,86 415.4,81 415.4,71" fill="none" stroke="#39FF14" stroke-width="1" opacity="0.07818322767795913"/>
<polygon points="351,15 359.6,20 359.6,30 351,35 342.4,30 342.4,20" fill="none" stroke="#39FF14" stroke-width="1" opacity="0.026671631461767105"/>
<polygon points="76,155 84.6,160 84.6,170 76,175 67.4,170 67.4,160" fill="none" stroke="#39FF14" stroke-width="1" opacity="0.03421664306514713"/>
<polygon points="29,152 37.6,157 37.6,167 29,172 20.4,167 20.4,157" fill="none" stroke="#39FF14" stroke-width="1" opacity="0.056322860356668294"/>
<polygon points="212,76 220.6,81 220.6,91 212,96 203.4,91 203.4,81" fill="none" stroke="#39FF14" stroke-width="1" opacity="0.0333182094557123"/>
<polygon points="679,10 687.6,15 687.6,25 679,30 670.4,25 670.4,15" fill="none" stroke="#39FF14" stroke-width="1" opacity="0.06296492631590943"/>
<polygon points="344,142 352.6,147 352.6,157 344,162 335.4,157 335.4,147" fill="none" stroke="#39FF14" stroke-width="1" opacity="0.039750041388895416"/>
<polygon points="306,12 314.6,17 314.6,27 306,32 297.4,27 297.4,17" fill="none" stroke="#39FF14" stroke-width="1" opacity="0.042458118571288284"/>
<polygon points="47,157 55.6,162 55.6,172 47,177 38.4,172 38.4,162" fill="none" stroke="#39FF14" stroke-width="1" opacity="0.021323187497168352"/>
<polygon points="663,171 671.6,176 671.6,186 663,191 654.4,186 654.4,176" fill="none" stroke="#39FF14" stroke-width="1" opacity="0.042832679354831614"/>
<polygon points="39,61 47.6,66 47.6,76 39,81 30.4,76 30.4,66" fill="none" stroke="#39FF14" stroke-width="1" opacity="0.03665360802018671"/>
<polygon points="779,4 787.6,9 787.6,19 779,24 770.4,19 770.4,9" fill="none" stroke="#39FF14" stroke-width="1" opacity="0.07438508284596472"/>
<polygon points="249,15 257.6,20 257.6,30 249,35 240.4,30 240.4,20" fill="none" stroke="#39FF14" stroke-width="1" opacity="0.07621693654347067"/>
<polygon points="443,59 451.6,64 451.6,74 443,79 434.4,74 434.4,64" fill="none" stroke="#39FF14" stroke-width="1" opacity="0.04722357487482506"/>
<polygon points="303,28 311.6,33 311.6,43 303,48 294.4,43 294.4,33" fill="none" stroke="#39FF14" stroke-width="1" opacity="0.04482360428037517"/>
</g>

  <!-- HUD Decorative elements -->
  <path d="M 20 20 L 40 20 L 50 30" fill="none" stroke="#39FF14" stroke-width="2" opacity="0.5"/>
  <path d="M 830 180 L 810 180 L 800 170" fill="none" stroke="#39FF14" stroke-width="2" opacity="0.5"/>

  <g clip-path="url(#dashClip)">
    <rect x="-160" y="0" width="160" height="200" fill="url(#scanlineGrad)">
      <animateTransform attributeName="transform" type="translate"
                        from="0 0" to="1010 0" dur="6s" repeatCount="indefinite"/>
    </rect>
  </g>

  <g font-family="'Consolas', 'Fira Code', monospace" text-anchor="middle">

    <!-- NETWORK STATUS -->
    <g transform="translate(130, 100)">
        <circle cx="0" cy="0" r="45" fill="none" stroke="#39FF14" stroke-width="2" stroke-dasharray="10 5">
            <animateTransform attributeName="transform" type="rotate" from="0" to="360" dur="10s" repeatCount="indefinite"/>
        </circle>
        <circle cx="0" cy="0" r="35" fill="#0d0d0d" />
        <text x="0" y="-60" font-size="12" fill="#aaaaaa" letter-spacing="2">ROOT.AUTH</text>
        <text x="0" y="70" font-size="14" fill="#ffffff" font-weight="bold">OPERATIONAL</text>
    </g>

    <!-- ACTIVE USERS -->
    <g transform="translate(330, 100)">
        <text x="0" y="-20" font-size="12" fill="#aaaaaa">CITIZENS</text>
        <text x="0" y="15" font-size="28" fill="#ffffff" font-weight="bold" filter="url(#textGlow)">15,201</text>
        <text x="0" y="35" font-size="10" fill="#777777">VERIFIED HUMANS</text>
    </g>

    <!-- REGISTERED AGENTS -->
    <g transform="translate(530, 100)">
        <text x="0" y="-20" font-size="12" fill="#aaaaaa">AGENTS</text>
        <text x="0" y="15" font-size="28" fill="#00d4ff" font-weight="bold" filter="url(#textGlow)">4,508</text>
        <text x="0" y="35" font-size="10" fill="#777777">REGISTERED DIDs</text>
    </g>

    <!-- TRANSACTIONS -->
    <g transform="translate(730, 100)">
        <text x="0" y="-20" font-size="12" fill="#aaaaaa">TRANSFERS</text>
        <text x="0" y="15" font-size="28" fill="#ffffff" font-weight="bold">39,855</text>
        <text x="0" y="35" font-size="10" fill="#777777">M2M SETTLEMENTS</text>
    </g>
  </g>

  <text x="425" y="185" font-family="'Consolas', 'Fira Code', monospace" font-size="10" fill="#aaaaaa" opacity="0.6" text-anchor="middle">AXIOMID PROJECTED TARGETS (ILLUSTRATIVE): 2026-07-24 13:17:14 UTC // SECURE_HANDSHAKE</text>
</svg>