<svg width="850" height="200" viewBox="0 0 850 200" xmlns="http://www.w3.org/2000/svg">
  <defs>
    <pattern id="carbonFiber" width="10" height="10" patternUnits="userSpaceOnUse">
        <rect width="10" height="10" fill="#050505"/>
        <path d="M0,0 L5,5 L10,0 L5,-5 Z M5,5 L10,10 L15,5 L10,0 Z M-5,5 L0,10 L5,5 L0,0 Z M0,10 L5,15 L10,10 L5,5 Z" fill="#0d0d0d"/>
    </pattern>
    <filter id="textGlow">
      <feGaussianBlur stdDeviation="2" result="blur" />
      <feMerge>
        <feMergeNode in="blur"/>
        <feMergeNode in="SourceGraphic"/>
      </feMerge>
    </filter>
    <linearGradient id="neonBar" x1="0%" y1="0%" x2="100%" y2="0%">
        <stop offset="0%" stop-color="#111111"/>
        <stop offset="100%" stop-color="#39FF14"/>
    </linearGradient>
    <linearGradient id="scanlineGrad" x1="0%" y1="0%" x2="100%" y2="0%">
        <stop offset="0%" stop-color="#39FF14" stop-opacity="0"/>
        <stop offset="50%" stop-color="#39FF14" stop-opacity="0.18"/>
        <stop offset="100%" stop-color="#39FF14" stop-opacity="0"/>
    </linearGradient>
    <clipPath id="dashClip">
        <rect x="0" y="0" width="850" height="200" rx="12"/>
    </clipPath>
  </defs>

  <rect width="100%" height="100%" fill="url(#carbonFiber)" rx="12" stroke="#39FF14" stroke-width="1" stroke-opacity="0.3"/>
  <rect width="100%" height="100%" fill="#000000" opacity="0.6" rx="12" />
  <g><polygon points="523,152 531.6,157 531.6,167 523,172 514.4,167 514.4,157" fill="none" stroke="#39FF14" stroke-width="1" opacity="0.021365696431049904"/>
<polygon points="613,24 621.6,29 621.6,39 613,44 604.4,39 604.4,29" fill="none" stroke="#39FF14" stroke-width="1" opacity="0.07349766552947976"/>
<polygon points="448,152 456.6,157 456.6,167 448,172 439.4,167 439.4,157" fill="none" stroke="#39FF14" stroke-width="1" opacity="0.02135895092531694"/>
<polygon points="39,161 47.6,166 47.6,176 39,181 30.4,176 30.4,166" fill="none" stroke="#39FF14" stroke-width="1" opacity="0.05552501227731903"/>
<polygon points="75,77 83.6,82 83.6,92 75,97 66.4,92 66.4,82" fill="none" stroke="#39FF14" stroke-width="1" opacity="0.03733531912939628"/>
<polygon points="756,182 764.6,187 764.6,197 756,202 747.4,197 747.4,187" fill="none" stroke="#39FF14" stroke-width="1" opacity="0.07213906022145009"/>
<polygon points="625,23 633.6,28 633.6,38 625,43 616.4,38 616.4,28" fill="none" stroke="#39FF14" stroke-width="1" opacity="0.02161228556138037"/>
<polygon points="399,67 407.6,72 407.6,82 399,87 390.4,82 390.4,72" fill="none" stroke="#39FF14" stroke-width="1" opacity="0.07955715735681776"/>
<polygon points="680,96 688.6,101 688.6,111 680,116 671.4,111 671.4,101" fill="none" stroke="#39FF14" stroke-width="1" opacity="0.06512843260554926"/>
<polygon points="25,31 33.6,36 33.6,46 25,51 16.4,46 16.4,36" fill="none" stroke="#39FF14" stroke-width="1" opacity="0.04470179432376502"/>
<polygon points="574,50 582.6,55 582.6,65 574,70 565.4,65 565.4,55" fill="none" stroke="#39FF14" stroke-width="1" opacity="0.03301189702718588"/>
<polygon points="445,150 453.6,155 453.6,165 445,170 436.4,165 436.4,155" fill="none" stroke="#39FF14" stroke-width="1" opacity="0.0403976455642517"/>
<polygon points="631,29 639.6,34 639.6,44 631,49 622.4,44 622.4,34" fill="none" stroke="#39FF14" stroke-width="1" opacity="0.03406444510965419"/>
<polygon points="205,186 213.6,191 213.6,201 205,206 196.4,201 196.4,191" fill="none" stroke="#39FF14" stroke-width="1" opacity="0.06076401074670941"/>
<polygon points="187,142 195.6,147 195.6,157 187,162 178.4,157 178.4,147" fill="none" stroke="#39FF14" stroke-width="1" opacity="0.0726036731912558"/>
<polygon points="658,171 666.6,176 666.6,186 658,191 649.4,186 649.4,176" fill="none" stroke="#39FF14" stroke-width="1" opacity="0.061265864405038326"/>
<polygon points="735,75 743.6,80 743.6,90 735,95 726.4,90 726.4,80" fill="none" stroke="#39FF14" stroke-width="1" opacity="0.031846577589758084"/>
<polygon points="154,13 162.6,18 162.6,28 154,33 145.4,28 145.4,18" fill="none" stroke="#39FF14" stroke-width="1" opacity="0.020275010684990016"/>
<polygon points="26,68 34.6,73 34.6,83 26,88 17.4,83 17.4,73" fill="none" stroke="#39FF14" stroke-width="1" opacity="0.06973525010534908"/>
<polygon points="401,190 409.6,195 409.6,205 401,210 392.4,205 392.4,195" fill="none" stroke="#39FF14" stroke-width="1" opacity="0.07436914566643917"/>
<polygon points="826,150 834.6,155 834.6,165 826,170 817.4,165 817.4,155" fill="none" stroke="#39FF14" stroke-width="1" opacity="0.03505336250124334"/>
<polygon points="565,19 573.6,24 573.6,34 565,39 556.4,34 556.4,24" fill="none" stroke="#39FF14" stroke-width="1" opacity="0.05690330151100052"/>
<polygon points="190,46 198.6,51 198.6,61 190,66 181.4,61 181.4,51" fill="none" stroke="#39FF14" stroke-width="1" opacity="0.03258035687867178"/>
<polygon points="798,64 806.6,69 806.6,79 798,84 789.4,79 789.4,69" fill="none" stroke="#39FF14" stroke-width="1" opacity="0.03071055751576862"/>
<polygon points="590,80 598.6,85 598.6,95 590,100 581.4,95 581.4,85" fill="none" stroke="#39FF14" stroke-width="1" opacity="0.061527141471430555"/>
<polygon points="628,147 636.6,152 636.6,162 628,167 619.4,162 619.4,152" fill="none" stroke="#39FF14" stroke-width="1" opacity="0.07705030703203412"/>
<polygon points="533,99 541.6,104 541.6,114 533,119 524.4,114 524.4,104" fill="none" stroke="#39FF14" stroke-width="1" opacity="0.054423660857416456"/>
<polygon points="609,134 617.6,139 617.6,149 609,154 600.4,149 600.4,139" fill="none" stroke="#39FF14" stroke-width="1" opacity="0.023062767975284747"/>
<polygon points="387,113 395.6,118 395.6,128 387,133 378.4,128 378.4,118" fill="none" stroke="#39FF14" stroke-width="1" opacity="0.07954948238917162"/>
<polygon points="238,190 246.6,195 246.6,205 238,210 229.4,205 229.4,195" fill="none" stroke="#39FF14" stroke-width="1" opacity="0.044096534312641635"/>
</g>

  <!-- HUD Decorative elements -->
  <path d="M 20 20 L 40 20 L 50 30" fill="none" stroke="#39FF14" stroke-width="2" opacity="0.5"/>
  <path d="M 830 180 L 810 180 L 800 170" fill="none" stroke="#39FF14" stroke-width="2" opacity="0.5"/>

  <g clip-path="url(#dashClip)">
    <rect x="-160" y="0" width="160" height="200" fill="url(#scanlineGrad)">
      <animateTransform attributeName="transform" type="translate"
                        from="0 0" to="1010 0" dur="6s" repeatCount="indefinite"/>
    </rect>
  </g>

  <g font-family="'Consolas', 'Fira Code', monospace" text-anchor="middle">

    <!-- NETWORK STATUS -->
    <g transform="translate(130, 100)">
        <circle cx="0" cy="0" r="45" fill="none" stroke="#39FF14" stroke-width="2" stroke-dasharray="10 5">
            <animateTransform attributeName="transform" type="rotate" from="0" to="360" dur="10s" repeatCount="indefinite"/>
        </circle>
        <circle cx="0" cy="0" r="35" fill="#0d0d0d" />
        <text x="0" y="-60" font-size="12" fill="#aaaaaa" letter-spacing="2">ROOT.AUTH</text>
        <text x="0" y="70" font-size="14" fill="#ffffff" font-weight="bold">OPERATIONAL</text>
    </g>

    <!-- ACTIVE USERS -->
    <g transform="translate(330, 100)">
        <text x="0" y="-20" font-size="12" fill="#aaaaaa">CITIZENS</text>
        <text x="0" y="15" font-size="28" fill="#ffffff" font-weight="bold" filter="url(#textGlow)">12,400</text>
        <text x="0" y="35" font-size="10" fill="#777777">VERIFIED HUMANS</text>
    </g>

    <!-- REGISTERED AGENTS -->
    <g transform="translate(530, 100)">
        <text x="0" y="-20" font-size="12" fill="#aaaaaa">AGENTS</text>
        <text x="0" y="15" font-size="28" fill="#00d4ff" font-weight="bold" filter="url(#textGlow)">4,253</text>
        <text x="0" y="35" font-size="10" fill="#777777">REGISTERED DIDs</text>
    </g>

    <!-- TRANSACTIONS -->
    <g transform="translate(730, 100)">
        <text x="0" y="-20" font-size="12" fill="#aaaaaa">TRANSFERS</text>
        <text x="0" y="15" font-size="28" fill="#ffffff" font-weight="bold">32,523</text>
        <text x="0" y="35" font-size="10" fill="#777777">M2M SETTLEMENTS</text>
    </g>
  </g>

  <text x="425" y="185" font-family="'Consolas', 'Fira Code', monospace" font-size="10" fill="#aaaaaa" opacity="0.6" text-anchor="middle">AXIOMID PROJECTED TARGETS (ILLUSTRATIVE): 2026-06-22 07:52:52 UTC // SECURE_HANDSHAKE</text>
</svg>