<svg width="850" height="200" viewBox="0 0 850 200" xmlns="http://www.w3.org/2000/svg">
  <defs>
    <pattern id="carbonFiber" width="10" height="10" patternUnits="userSpaceOnUse">
        <rect width="10" height="10" fill="#050505"/>
        <path d="M0,0 L5,5 L10,0 L5,-5 Z M5,5 L10,10 L15,5 L10,0 Z M-5,5 L0,10 L5,5 L0,0 Z M0,10 L5,15 L10,10 L5,5 Z" fill="#0d0d0d"/>
    </pattern>
    <filter id="textGlow">
      <feGaussianBlur stdDeviation="2" result="blur" />
      <feMerge>
        <feMergeNode in="blur"/>
        <feMergeNode in="SourceGraphic"/>
      </feMerge>
    </filter>
    <linearGradient id="neonBar" x1="0%" y1="0%" x2="100%" y2="0%">
        <stop offset="0%" stop-color="#111111"/>
        <stop offset="100%" stop-color="#39FF14"/>
    </linearGradient>
    <linearGradient id="scanlineGrad" x1="0%" y1="0%" x2="100%" y2="0%">
        <stop offset="0%" stop-color="#39FF14" stop-opacity="0"/>
        <stop offset="50%" stop-color="#39FF14" stop-opacity="0.18"/>
        <stop offset="100%" stop-color="#39FF14" stop-opacity="0"/>
    </linearGradient>
    <clipPath id="dashClip">
        <rect x="0" y="0" width="850" height="200" rx="12"/>
    </clipPath>
  </defs>

  <rect width="100%" height="100%" fill="url(#carbonFiber)" rx="12" stroke="#39FF14" stroke-width="1" stroke-opacity="0.3"/>
  <rect width="100%" height="100%" fill="#000000" opacity="0.6" rx="12" />
  <g><polygon points="764,150 772.6,155 772.6,165 764,170 755.4,165 755.4,155" fill="none" stroke="#39FF14" stroke-width="1" opacity="0.05010324506927709"/>
<polygon points="522,75 530.6,80 530.6,90 522,95 513.4,90 513.4,80" fill="none" stroke="#39FF14" stroke-width="1" opacity="0.079475215942044"/>
<polygon points="403,32 411.6,37 411.6,47 403,52 394.4,47 394.4,37" fill="none" stroke="#39FF14" stroke-width="1" opacity="0.07877142824524583"/>
<polygon points="287,96 295.6,101 295.6,111 287,116 278.4,111 278.4,101" fill="none" stroke="#39FF14" stroke-width="1" opacity="0.07900661572404846"/>
<polygon points="18,18 26.6,23 26.6,33 18,38 9.4,33 9.4,23" fill="none" stroke="#39FF14" stroke-width="1" opacity="0.056785355486497505"/>
<polygon points="832,97 840.6,102 840.6,112 832,117 823.4,112 823.4,102" fill="none" stroke="#39FF14" stroke-width="1" opacity="0.06793530507352448"/>
<polygon points="113,95 121.6,100 121.6,110 113,115 104.4,110 104.4,100" fill="none" stroke="#39FF14" stroke-width="1" opacity="0.06295153054405206"/>
<polygon points="770,28 778.6,33 778.6,43 770,48 761.4,43 761.4,33" fill="none" stroke="#39FF14" stroke-width="1" opacity="0.060588673608984095"/>
<polygon points="808,55 816.6,60 816.6,70 808,75 799.4,70 799.4,60" fill="none" stroke="#39FF14" stroke-width="1" opacity="0.05405961674737611"/>
<polygon points="277,135 285.6,140 285.6,150 277,155 268.4,150 268.4,140" fill="none" stroke="#39FF14" stroke-width="1" opacity="0.07458407030480953"/>
<polygon points="194,114 202.6,119 202.6,129 194,134 185.4,129 185.4,119" fill="none" stroke="#39FF14" stroke-width="1" opacity="0.04934186501246661"/>
<polygon points="649,65 657.6,70 657.6,80 649,85 640.4,80 640.4,70" fill="none" stroke="#39FF14" stroke-width="1" opacity="0.05307554580327299"/>
<polygon points="164,76 172.6,81 172.6,91 164,96 155.4,91 155.4,81" fill="none" stroke="#39FF14" stroke-width="1" opacity="0.031138056377160897"/>
<polygon points="348,60 356.6,65 356.6,75 348,80 339.4,75 339.4,65" fill="none" stroke="#39FF14" stroke-width="1" opacity="0.07892629033451748"/>
<polygon points="25,20 33.6,25 33.6,35 25,40 16.4,35 16.4,25" fill="none" stroke="#39FF14" stroke-width="1" opacity="0.03373887594169846"/>
<polygon points="706,-7 714.6,-2 714.6,8 706,13 697.4,8 697.4,-2" fill="none" stroke="#39FF14" stroke-width="1" opacity="0.05852487433905958"/>
<polygon points="739,59 747.6,64 747.6,74 739,79 730.4,74 730.4,64" fill="none" stroke="#39FF14" stroke-width="1" opacity="0.04899688370573821"/>
<polygon points="744,108 752.6,113 752.6,123 744,128 735.4,123 735.4,113" fill="none" stroke="#39FF14" stroke-width="1" opacity="0.023839489987344302"/>
<polygon points="249,124 257.6,129 257.6,139 249,144 240.4,139 240.4,129" fill="none" stroke="#39FF14" stroke-width="1" opacity="0.05925404226668696"/>
<polygon points="498,86 506.6,91 506.6,101 498,106 489.4,101 489.4,91" fill="none" stroke="#39FF14" stroke-width="1" opacity="0.05053153896992006"/>
<polygon points="727,93 735.6,98 735.6,108 727,113 718.4,108 718.4,98" fill="none" stroke="#39FF14" stroke-width="1" opacity="0.07454627270727981"/>
<polygon points="724,23 732.6,28 732.6,38 724,43 715.4,38 715.4,28" fill="none" stroke="#39FF14" stroke-width="1" opacity="0.05518875740779279"/>
<polygon points="593,92 601.6,97 601.6,107 593,112 584.4,107 584.4,97" fill="none" stroke="#39FF14" stroke-width="1" opacity="0.07894628484843433"/>
<polygon points="781,137 789.6,142 789.6,152 781,157 772.4,152 772.4,142" fill="none" stroke="#39FF14" stroke-width="1" opacity="0.037437862640056094"/>
<polygon points="835,141 843.6,146 843.6,156 835,161 826.4,156 826.4,146" fill="none" stroke="#39FF14" stroke-width="1" opacity="0.047104573000722585"/>
<polygon points="83,109 91.6,114 91.6,124 83,129 74.4,124 74.4,114" fill="none" stroke="#39FF14" stroke-width="1" opacity="0.043629009014502514"/>
<polygon points="475,23 483.6,28 483.6,38 475,43 466.4,38 466.4,28" fill="none" stroke="#39FF14" stroke-width="1" opacity="0.0753667129440132"/>
<polygon points="800,46 808.6,51 808.6,61 800,66 791.4,61 791.4,51" fill="none" stroke="#39FF14" stroke-width="1" opacity="0.02835712692537231"/>
<polygon points="521,-3 529.6,2 529.6,12 521,17 512.4,12 512.4,2" fill="none" stroke="#39FF14" stroke-width="1" opacity="0.06595059519436795"/>
<polygon points="702,10 710.6,15 710.6,25 702,30 693.4,25 693.4,15" fill="none" stroke="#39FF14" stroke-width="1" opacity="0.034701576278277996"/>
</g>

  <!-- HUD Decorative elements -->
  <path d="M 20 20 L 40 20 L 50 30" fill="none" stroke="#39FF14" stroke-width="2" opacity="0.5"/>
  <path d="M 830 180 L 810 180 L 800 170" fill="none" stroke="#39FF14" stroke-width="2" opacity="0.5"/>

  <g clip-path="url(#dashClip)">
    <rect x="-160" y="0" width="160" height="200" fill="url(#scanlineGrad)">
      <animateTransform attributeName="transform" type="translate"
                        from="0 0" to="1010 0" dur="6s" repeatCount="indefinite"/>
    </rect>
  </g>

  <g font-family="'Consolas', 'Fira Code', monospace" text-anchor="middle">

    <!-- NETWORK STATUS -->
    <g transform="translate(130, 100)">
        <circle cx="0" cy="0" r="45" fill="none" stroke="#39FF14" stroke-width="2" stroke-dasharray="10 5">
            <animateTransform attributeName="transform" type="rotate" from="0" to="360" dur="10s" repeatCount="indefinite"/>
        </circle>
        <circle cx="0" cy="0" r="35" fill="#0d0d0d" />
        <text x="0" y="-60" font-size="12" fill="#aaaaaa" letter-spacing="2">ROOT.AUTH</text>
        <text x="0" y="70" font-size="14" fill="#ffffff" font-weight="bold">OPERATIONAL</text>
    </g>

    <!-- ACTIVE USERS -->
    <g transform="translate(330, 100)">
        <text x="0" y="-20" font-size="12" fill="#aaaaaa">CITIZENS</text>
        <text x="0" y="15" font-size="28" fill="#ffffff" font-weight="bold" filter="url(#textGlow)">12,418</text>
        <text x="0" y="35" font-size="10" fill="#777777">VERIFIED HUMANS</text>
    </g>

    <!-- REGISTERED AGENTS -->
    <g transform="translate(530, 100)">
        <text x="0" y="-20" font-size="12" fill="#aaaaaa">AGENTS</text>
        <text x="0" y="15" font-size="28" fill="#00d4ff" font-weight="bold" filter="url(#textGlow)">3,592</text>
        <text x="0" y="35" font-size="10" fill="#777777">REGISTERED DIDs</text>
    </g>

    <!-- TRANSACTIONS -->
    <g transform="translate(730, 100)">
        <text x="0" y="-20" font-size="12" fill="#aaaaaa">TRANSFERS</text>
        <text x="0" y="15" font-size="28" fill="#ffffff" font-weight="bold">28,499</text>
        <text x="0" y="35" font-size="10" fill="#777777">M2M SETTLEMENTS</text>
    </g>
  </g>

  <text x="425" y="185" font-family="'Consolas', 'Fira Code', monospace" font-size="10" fill="#aaaaaa" opacity="0.6" text-anchor="middle">AXIOMID PROJECTED TARGETS (ILLUSTRATIVE): 2026-07-19 10:18:33 UTC // SECURE_HANDSHAKE</text>
</svg>