<svg width="850" height="200" viewBox="0 0 850 200" xmlns="http://www.w3.org/2000/svg">
  <defs>
    <pattern id="carbonFiber" width="10" height="10" patternUnits="userSpaceOnUse">
        <rect width="10" height="10" fill="#050505"/>
        <path d="M0,0 L5,5 L10,0 L5,-5 Z M5,5 L10,10 L15,5 L10,0 Z M-5,5 L0,10 L5,5 L0,0 Z M0,10 L5,15 L10,10 L5,5 Z" fill="#0d0d0d"/>
    </pattern>
    <filter id="textGlow">
      <feGaussianBlur stdDeviation="2" result="blur" />
      <feMerge>
        <feMergeNode in="blur"/>
        <feMergeNode in="SourceGraphic"/>
      </feMerge>
    </filter>
    <linearGradient id="neonBar" x1="0%" y1="0%" x2="100%" y2="0%">
        <stop offset="0%" stop-color="#111111"/>
        <stop offset="100%" stop-color="#39FF14"/>
    </linearGradient>
    <linearGradient id="scanlineGrad" x1="0%" y1="0%" x2="100%" y2="0%">
        <stop offset="0%" stop-color="#39FF14" stop-opacity="0"/>
        <stop offset="50%" stop-color="#39FF14" stop-opacity="0.18"/>
        <stop offset="100%" stop-color="#39FF14" stop-opacity="0"/>
    </linearGradient>
    <clipPath id="dashClip">
        <rect x="0" y="0" width="850" height="200" rx="12"/>
    </clipPath>
  </defs>

  <rect width="100%" height="100%" fill="url(#carbonFiber)" rx="12" stroke="#39FF14" stroke-width="1" stroke-opacity="0.3"/>
  <rect width="100%" height="100%" fill="#000000" opacity="0.6" rx="12" />
  <g><polygon points="675,166 683.6,171 683.6,181 675,186 666.4,181 666.4,171" fill="none" stroke="#39FF14" stroke-width="1" opacity="0.040341763510563566"/>
<polygon points="620,188 628.6,193 628.6,203 620,208 611.4,203 611.4,193" fill="none" stroke="#39FF14" stroke-width="1" opacity="0.02520734439394812"/>
<polygon points="510,126 518.6,131 518.6,141 510,146 501.4,141 501.4,131" fill="none" stroke="#39FF14" stroke-width="1" opacity="0.021587551239242716"/>
<polygon points="44,124 52.6,129 52.6,139 44,144 35.4,139 35.4,129" fill="none" stroke="#39FF14" stroke-width="1" opacity="0.0541342039924802"/>
<polygon points="438,-10 446.6,-5 446.6,5 438,10 429.4,5 429.4,-5" fill="none" stroke="#39FF14" stroke-width="1" opacity="0.048196657368435036"/>
<polygon points="179,185 187.6,190 187.6,200 179,205 170.4,200 170.4,190" fill="none" stroke="#39FF14" stroke-width="1" opacity="0.02627963322275562"/>
<polygon points="782,99 790.6,104 790.6,114 782,119 773.4,114 773.4,104" fill="none" stroke="#39FF14" stroke-width="1" opacity="0.04629818537627523"/>
<polygon points="45,185 53.6,190 53.6,200 45,205 36.4,200 36.4,190" fill="none" stroke="#39FF14" stroke-width="1" opacity="0.06204597190854837"/>
<polygon points="845,109 853.6,114 853.6,124 845,129 836.4,124 836.4,114" fill="none" stroke="#39FF14" stroke-width="1" opacity="0.023522305155014748"/>
<polygon points="66,12 74.6,17 74.6,27 66,32 57.4,27 57.4,17" fill="none" stroke="#39FF14" stroke-width="1" opacity="0.028810725617208106"/>
<polygon points="63,33 71.6,38 71.6,48 63,53 54.4,48 54.4,38" fill="none" stroke="#39FF14" stroke-width="1" opacity="0.07346372080130809"/>
<polygon points="127,162 135.6,167 135.6,177 127,182 118.4,177 118.4,167" fill="none" stroke="#39FF14" stroke-width="1" opacity="0.07682962841269608"/>
<polygon points="781,14 789.6,19 789.6,29 781,34 772.4,29 772.4,19" fill="none" stroke="#39FF14" stroke-width="1" opacity="0.05962271300862032"/>
<polygon points="103,128 111.6,133 111.6,143 103,148 94.4,143 94.4,133" fill="none" stroke="#39FF14" stroke-width="1" opacity="0.0321877359394757"/>
<polygon points="417,49 425.6,54 425.6,64 417,69 408.4,64 408.4,54" fill="none" stroke="#39FF14" stroke-width="1" opacity="0.06966782883211832"/>
<polygon points="180,68 188.6,73 188.6,83 180,88 171.4,83 171.4,73" fill="none" stroke="#39FF14" stroke-width="1" opacity="0.029297376614708673"/>
<polygon points="178,6 186.6,11 186.6,21 178,26 169.4,21 169.4,11" fill="none" stroke="#39FF14" stroke-width="1" opacity="0.05396367643556586"/>
<polygon points="628,63 636.6,68 636.6,78 628,83 619.4,78 619.4,68" fill="none" stroke="#39FF14" stroke-width="1" opacity="0.07538233458448379"/>
<polygon points="739,101 747.6,106 747.6,116 739,121 730.4,116 730.4,106" fill="none" stroke="#39FF14" stroke-width="1" opacity="0.07885769224561269"/>
<polygon points="600,67 608.6,72 608.6,82 600,87 591.4,82 591.4,72" fill="none" stroke="#39FF14" stroke-width="1" opacity="0.060651090808844885"/>
<polygon points="553,73 561.6,78 561.6,88 553,93 544.4,88 544.4,78" fill="none" stroke="#39FF14" stroke-width="1" opacity="0.06448213431484329"/>
<polygon points="830,50 838.6,55 838.6,65 830,70 821.4,65 821.4,55" fill="none" stroke="#39FF14" stroke-width="1" opacity="0.03459167976540239"/>
<polygon points="596,26 604.6,31 604.6,41 596,46 587.4,41 587.4,31" fill="none" stroke="#39FF14" stroke-width="1" opacity="0.02506723494389626"/>
<polygon points="354,39 362.6,44 362.6,54 354,59 345.4,54 345.4,44" fill="none" stroke="#39FF14" stroke-width="1" opacity="0.023451183144028703"/>
<polygon points="308,75 316.6,80 316.6,90 308,95 299.4,90 299.4,80" fill="none" stroke="#39FF14" stroke-width="1" opacity="0.06815588337551436"/>
<polygon points="204,152 212.6,157 212.6,167 204,172 195.4,167 195.4,157" fill="none" stroke="#39FF14" stroke-width="1" opacity="0.040960166203750856"/>
<polygon points="495,65 503.6,70 503.6,80 495,85 486.4,80 486.4,70" fill="none" stroke="#39FF14" stroke-width="1" opacity="0.02536690057492526"/>
<polygon points="768,112 776.6,117 776.6,127 768,132 759.4,127 759.4,117" fill="none" stroke="#39FF14" stroke-width="1" opacity="0.07196451371134825"/>
<polygon points="686,187 694.6,192 694.6,202 686,207 677.4,202 677.4,192" fill="none" stroke="#39FF14" stroke-width="1" opacity="0.05311680664709521"/>
<polygon points="605,162 613.6,167 613.6,177 605,182 596.4,177 596.4,167" fill="none" stroke="#39FF14" stroke-width="1" opacity="0.05261252672639262"/>
</g>

  <!-- HUD Decorative elements -->
  <path d="M 20 20 L 40 20 L 50 30" fill="none" stroke="#39FF14" stroke-width="2" opacity="0.5"/>
  <path d="M 830 180 L 810 180 L 800 170" fill="none" stroke="#39FF14" stroke-width="2" opacity="0.5"/>

  <g clip-path="url(#dashClip)">
    <rect x="-160" y="0" width="160" height="200" fill="url(#scanlineGrad)">
      <animateTransform attributeName="transform" type="translate"
                        from="0 0" to="1010 0" dur="6s" repeatCount="indefinite"/>
    </rect>
  </g>

  <g font-family="'Consolas', 'Fira Code', monospace" text-anchor="middle">

    <!-- NETWORK STATUS -->
    <g transform="translate(130, 100)">
        <circle cx="0" cy="0" r="45" fill="none" stroke="#39FF14" stroke-width="2" stroke-dasharray="10 5">
            <animateTransform attributeName="transform" type="rotate" from="0" to="360" dur="10s" repeatCount="indefinite"/>
        </circle>
        <circle cx="0" cy="0" r="35" fill="#0d0d0d" />
        <text x="0" y="-60" font-size="12" fill="#aaaaaa" letter-spacing="2">ROOT.AUTH</text>
        <text x="0" y="70" font-size="14" fill="#ffffff" font-weight="bold">OPERATIONAL</text>
    </g>

    <!-- ACTIVE USERS -->
    <g transform="translate(330, 100)">
        <text x="0" y="-20" font-size="12" fill="#aaaaaa">CITIZENS</text>
        <text x="0" y="15" font-size="28" fill="#ffffff" font-weight="bold" filter="url(#textGlow)">13,171</text>
        <text x="0" y="35" font-size="10" fill="#777777">VERIFIED HUMANS</text>
    </g>

    <!-- REGISTERED AGENTS -->
    <g transform="translate(530, 100)">
        <text x="0" y="-20" font-size="12" fill="#aaaaaa">AGENTS</text>
        <text x="0" y="15" font-size="28" fill="#00d4ff" font-weight="bold" filter="url(#textGlow)">3,999</text>
        <text x="0" y="35" font-size="10" fill="#777777">REGISTERED DIDs</text>
    </g>

    <!-- TRANSACTIONS -->
    <g transform="translate(730, 100)">
        <text x="0" y="-20" font-size="12" fill="#aaaaaa">TRANSFERS</text>
        <text x="0" y="15" font-size="28" fill="#ffffff" font-weight="bold">39,269</text>
        <text x="0" y="35" font-size="10" fill="#777777">M2M SETTLEMENTS</text>
    </g>
  </g>

  <text x="425" y="185" font-family="'Consolas', 'Fira Code', monospace" font-size="10" fill="#aaaaaa" opacity="0.6" text-anchor="middle">AXIOMID PROJECTED TARGETS (ILLUSTRATIVE): 2026-07-17 05:32:21 UTC // SECURE_HANDSHAKE</text>
</svg>