<svg width="850" height="200" viewBox="0 0 850 200" xmlns="http://www.w3.org/2000/svg">
  <defs>
    <!-- Carbon Fiber Pattern -->
    <pattern id="carbonFiber" width="10" height="10" patternUnits="userSpaceOnUse">
        <rect width="10" height="10" fill="#050505"/>
        <path d="M0,0 L5,5 L10,0 L5,-5 Z M5,5 L10,10 L15,5 L10,0 Z M-5,5 L0,10 L5,5 L0,0 Z M0,10 L5,15 L10,10 L5,5 Z" fill="#0d0d0d"/>
    </pattern>
    <filter id="glassmorphism">
      <feGaussianBlur stdDeviation="3" result="blur" />
      <feColorMatrix type="matrix" values="1 0 0 0 0  0 1 0 0 0  0 0 1 0 0  0 0 0 18 -7" result="glow" />
      <feBlend in="SourceGraphic" in2="glow" mode="normal" />
    </filter>
    <filter id="textGlow">
      <feGaussianBlur stdDeviation="2" result="blur" />
      <feMerge>
        <feMergeNode in="blur"/>
        <feMergeNode in="SourceGraphic"/>
      </feMerge>
    </filter>
    <linearGradient id="neonBar" x1="0%" y1="0%" x2="100%" y2="0%">
        <stop offset="0%" stop-color="#111111"/>
        <stop offset="100%" stop-color="#39FF14"/>
    </linearGradient>
  </defs>

  <rect width="100%" height="100%" fill="url(#carbonFiber)" rx="12" stroke="#39FF14" stroke-width="1" stroke-opacity="0.3"/>
  <rect width="100%" height="100%" fill="#000000" opacity="0.6" rx="12" />
  <g><polygon points="387,62 395.6,67 395.6,77 387,82 378.4,77 378.4,67" fill="none" stroke="#39FF14" stroke-width="1" opacity="0.04782737116189345"/>
<polygon points="770,159 778.6,164 778.6,174 770,179 761.4,174 761.4,164" fill="none" stroke="#39FF14" stroke-width="1" opacity="0.05875431943091855"/>
<polygon points="92,56 100.6,61 100.6,71 92,76 83.4,71 83.4,61" fill="none" stroke="#39FF14" stroke-width="1" opacity="0.05568821379297688"/>
<polygon points="259,70 267.6,75 267.6,85 259,90 250.4,85 250.4,75" fill="none" stroke="#39FF14" stroke-width="1" opacity="0.07508596462203287"/>
<polygon points="541,168 549.6,173 549.6,183 541,188 532.4,183 532.4,173" fill="none" stroke="#39FF14" stroke-width="1" opacity="0.02331766635364351"/>
<polygon points="321,126 329.6,131 329.6,141 321,146 312.4,141 312.4,131" fill="none" stroke="#39FF14" stroke-width="1" opacity="0.06553493409664685"/>
<polygon points="132,105 140.6,110 140.6,120 132,125 123.4,120 123.4,110" fill="none" stroke="#39FF14" stroke-width="1" opacity="0.034897744855639914"/>
<polygon points="506,133 514.6,138 514.6,148 506,153 497.4,148 497.4,138" fill="none" stroke="#39FF14" stroke-width="1" opacity="0.04117861835061874"/>
<polygon points="695,45 703.6,50 703.6,60 695,65 686.4,60 686.4,50" fill="none" stroke="#39FF14" stroke-width="1" opacity="0.07103569396965385"/>
<polygon points="57,186 65.6,191 65.6,201 57,206 48.4,201 48.4,191" fill="none" stroke="#39FF14" stroke-width="1" opacity="0.022319962168049646"/>
<polygon points="578,120 586.6,125 586.6,135 578,140 569.4,135 569.4,125" fill="none" stroke="#39FF14" stroke-width="1" opacity="0.07402239414995707"/>
<polygon points="28,55 36.6,60 36.6,70 28,75 19.4,70 19.4,60" fill="none" stroke="#39FF14" stroke-width="1" opacity="0.04292766796174513"/>
<polygon points="309,43 317.6,48 317.6,58 309,63 300.4,58 300.4,48" fill="none" stroke="#39FF14" stroke-width="1" opacity="0.04260641247940959"/>
<polygon points="613,178 621.6,183 621.6,193 613,198 604.4,193 604.4,183" fill="none" stroke="#39FF14" stroke-width="1" opacity="0.06867147662214587"/>
<polygon points="686,125 694.6,130 694.6,140 686,145 677.4,140 677.4,130" fill="none" stroke="#39FF14" stroke-width="1" opacity="0.03712306650551129"/>
<polygon points="766,14 774.6,19 774.6,29 766,34 757.4,29 757.4,19" fill="none" stroke="#39FF14" stroke-width="1" opacity="0.05646212156152387"/>
<polygon points="621,54 629.6,59 629.6,69 621,74 612.4,69 612.4,59" fill="none" stroke="#39FF14" stroke-width="1" opacity="0.07607491318529562"/>
<polygon points="371,147 379.6,152 379.6,162 371,167 362.4,162 362.4,152" fill="none" stroke="#39FF14" stroke-width="1" opacity="0.04071200534804276"/>
<polygon points="384,18 392.6,23 392.6,33 384,38 375.4,33 375.4,23" fill="none" stroke="#39FF14" stroke-width="1" opacity="0.05666120741610452"/>
<polygon points="348,8 356.6,13 356.6,23 348,28 339.4,23 339.4,13" fill="none" stroke="#39FF14" stroke-width="1" opacity="0.03819950709733699"/>
<polygon points="348,135 356.6,140 356.6,150 348,155 339.4,150 339.4,140" fill="none" stroke="#39FF14" stroke-width="1" opacity="0.0507710458484366"/>
<polygon points="469,126 477.6,131 477.6,141 469,146 460.4,141 460.4,131" fill="none" stroke="#39FF14" stroke-width="1" opacity="0.02601144969883129"/>
<polygon points="380,43 388.6,48 388.6,58 380,63 371.4,58 371.4,48" fill="none" stroke="#39FF14" stroke-width="1" opacity="0.07353920740040953"/>
<polygon points="580,55 588.6,60 588.6,70 580,75 571.4,70 571.4,60" fill="none" stroke="#39FF14" stroke-width="1" opacity="0.05912702228335848"/>
<polygon points="483,142 491.6,147 491.6,157 483,162 474.4,157 474.4,147" fill="none" stroke="#39FF14" stroke-width="1" opacity="0.027886865863150555"/>
<polygon points="725,13 733.6,18 733.6,28 725,33 716.4,28 716.4,18" fill="none" stroke="#39FF14" stroke-width="1" opacity="0.07199734010178492"/>
<polygon points="307,157 315.6,162 315.6,172 307,177 298.4,172 298.4,162" fill="none" stroke="#39FF14" stroke-width="1" opacity="0.06921642542530033"/>
<polygon points="123,92 131.6,97 131.6,107 123,112 114.4,107 114.4,97" fill="none" stroke="#39FF14" stroke-width="1" opacity="0.06359626842175854"/>
<polygon points="322,12 330.6,17 330.6,27 322,32 313.4,27 313.4,17" fill="none" stroke="#39FF14" stroke-width="1" opacity="0.035028849301980684"/>
<polygon points="327,170 335.6,175 335.6,185 327,190 318.4,185 318.4,175" fill="none" stroke="#39FF14" stroke-width="1" opacity="0.07868569925934794"/>
</g>

  <!-- HUD Decorative elements -->
  <path d="M 20 20 L 40 20 L 50 30" fill="none" stroke="#39FF14" stroke-width="2" opacity="0.5"/>
  <path d="M 830 180 L 810 180 L 800 170" fill="none" stroke="#39FF14" stroke-width="2" opacity="0.5"/>
  <rect x="20" y="100" width="2" height="40" fill="#ffffff" opacity="0.4"/>
  <rect x="828" y="60" width="2" height="40" fill="#39FF14" opacity="0.6"/>

  <g font-family="'Consolas', 'Fira Code', monospace" text-anchor="middle">

    <!-- SYSTEM STATUS -->
    <g transform="translate(130, 100)">
        <circle cx="0" cy="0" r="45" fill="none" stroke="#111111" stroke-width="8" />
        <circle cx="0" cy="0" r="45" fill="none" stroke="#39FF14" stroke-width="2" stroke-dasharray="10 5">
            <animateTransform attributeName="transform" type="rotate" from="0" to="360" dur="10s" repeatCount="indefinite"/>
        </circle>
        <circle cx="0" cy="0" r="35" fill="#0d0d0d" />
        <circle cx="0" cy="0" r="6" fill="#39FF14" filter="url(#textGlow)">
            <animate attributeName="opacity" values="1;0.3;1" dur="2s" repeatCount="indefinite"/>
        </circle>
        <text x="0" y="-60" font-size="12" fill="#aaaaaa" letter-spacing="2">SYS.CORE</text>
        <text x="0" y="70" font-size="14" fill="#ffffff" font-weight="bold">ONLINE</text>
    </g>

    <!-- LIVE TRAFFIC -->
    <g transform="translate(330, 100)">
        <rect x="-60" y="-45" width="120" height="90" fill="#0a0a0a" rx="8" stroke="#39FF14" stroke-opacity="0.4" stroke-width="1"/>
        <text x="0" y="-20" font-size="12" fill="#aaaaaa">NETWORK LOAD</text>
        <text x="0" y="15" font-size="28" fill="#ffffff" font-weight="bold" filter="url(#textGlow)">7099</text>
        <text x="0" y="35" font-size="10" fill="#777777">ACTIVE SESSIONS</text>
    </g>

    <!-- ACTIVE AGENTS -->
    <g transform="translate(530, 100)">
        <rect x="-60" y="-45" width="120" height="90" fill="#0a0a0a" rx="8" stroke="#39FF14" stroke-opacity="0.4" stroke-width="1"/>
        <text x="0" y="-20" font-size="12" fill="#aaaaaa">SWARM ENTITIES</text>
        <text x="0" y="15" font-size="28" fill="#ffffff" font-weight="bold" filter="url(#textGlow)">148</text>
        <text x="0" y="35" font-size="10" fill="#777777">AUTONOMOUS</text>
    </g>

    <!-- UPTIME -->
    <g transform="translate(730, 100)">
        <path d="M -40 -35 L 40 -35 L 50 -25 L 50 35 L -40 35 L -50 25 Z" fill="#0a0a0a" stroke="#39FF14" stroke-opacity="0.4" stroke-width="1"/>
        <text x="0" y="-15" font-size="12" fill="#aaaaaa">CONTINUITY</text>
        <text x="0" y="15" font-size="24" fill="#ffffff" font-weight="bold">243<tspan font-size="14" fill="#777777">d</tspan></text>
        <rect x="-35" y="25" width="70" height="4" fill="url(#neonBar)" rx="2"/>
    </g>
  </g>

  <text x="425" y="185" font-family="'Consolas', 'Fira Code', monospace" font-size="10" fill="#aaaaaa" opacity="0.6" text-anchor="middle">LAST TELEMETRY PING: 2026-05-04 12:42:03 UTC // ENCRYPTED_TUNNEL</text>
</svg>