<svg width="850" height="200" viewBox="0 0 850 200" xmlns="http://www.w3.org/2000/svg">
  <defs>
    <pattern id="carbonFiber" width="10" height="10" patternUnits="userSpaceOnUse">
        <rect width="10" height="10" fill="#050505"/>
        <path d="M0,0 L5,5 L10,0 L5,-5 Z M5,5 L10,10 L15,5 L10,0 Z M-5,5 L0,10 L5,5 L0,0 Z M0,10 L5,15 L10,10 L5,5 Z" fill="#0d0d0d"/>
    </pattern>
    <filter id="textGlow">
      <feGaussianBlur stdDeviation="2" result="blur" />
      <feMerge>
        <feMergeNode in="blur"/>
        <feMergeNode in="SourceGraphic"/>
      </feMerge>
    </filter>
    <linearGradient id="neonBar" x1="0%" y1="0%" x2="100%" y2="0%">
        <stop offset="0%" stop-color="#111111"/>
        <stop offset="100%" stop-color="#39FF14"/>
    </linearGradient>
    <linearGradient id="scanlineGrad" x1="0%" y1="0%" x2="100%" y2="0%">
        <stop offset="0%" stop-color="#39FF14" stop-opacity="0"/>
        <stop offset="50%" stop-color="#39FF14" stop-opacity="0.18"/>
        <stop offset="100%" stop-color="#39FF14" stop-opacity="0"/>
    </linearGradient>
    <clipPath id="dashClip">
        <rect x="0" y="0" width="850" height="200" rx="12"/>
    </clipPath>
  </defs>

  <rect width="100%" height="100%" fill="url(#carbonFiber)" rx="12" stroke="#39FF14" stroke-width="1" stroke-opacity="0.3"/>
  <rect width="100%" height="100%" fill="#000000" opacity="0.6" rx="12" />
  <g><polygon points="247,147 255.6,152 255.6,162 247,167 238.4,162 238.4,152" fill="none" stroke="#39FF14" stroke-width="1" opacity="0.038602647026278566"/>
<polygon points="623,98 631.6,103 631.6,113 623,118 614.4,113 614.4,103" fill="none" stroke="#39FF14" stroke-width="1" opacity="0.056907875116777404"/>
<polygon points="495,151 503.6,156 503.6,166 495,171 486.4,166 486.4,156" fill="none" stroke="#39FF14" stroke-width="1" opacity="0.021975879069780765"/>
<polygon points="848,22 856.6,27 856.6,37 848,42 839.4,37 839.4,27" fill="none" stroke="#39FF14" stroke-width="1" opacity="0.037718127777644994"/>
<polygon points="425,122 433.6,127 433.6,137 425,142 416.4,137 416.4,127" fill="none" stroke="#39FF14" stroke-width="1" opacity="0.038694328691443486"/>
<polygon points="833,70 841.6,75 841.6,85 833,90 824.4,85 824.4,75" fill="none" stroke="#39FF14" stroke-width="1" opacity="0.06558861432863757"/>
<polygon points="715,63 723.6,68 723.6,78 715,83 706.4,78 706.4,68" fill="none" stroke="#39FF14" stroke-width="1" opacity="0.0733692546064869"/>
<polygon points="484,-2 492.6,3 492.6,13 484,18 475.4,13 475.4,3" fill="none" stroke="#39FF14" stroke-width="1" opacity="0.02912761913716122"/>
<polygon points="199,54 207.6,59 207.6,69 199,74 190.4,69 190.4,59" fill="none" stroke="#39FF14" stroke-width="1" opacity="0.03461820398361609"/>
<polygon points="520,172 528.6,177 528.6,187 520,192 511.4,187 511.4,177" fill="none" stroke="#39FF14" stroke-width="1" opacity="0.037455464254096967"/>
<polygon points="779,55 787.6,60 787.6,70 779,75 770.4,70 770.4,60" fill="none" stroke="#39FF14" stroke-width="1" opacity="0.059703027273767376"/>
<polygon points="343,31 351.6,36 351.6,46 343,51 334.4,46 334.4,36" fill="none" stroke="#39FF14" stroke-width="1" opacity="0.07234067704532132"/>
<polygon points="53,77 61.6,82 61.6,92 53,97 44.4,92 44.4,82" fill="none" stroke="#39FF14" stroke-width="1" opacity="0.0330079494619507"/>
<polygon points="512,3 520.6,8 520.6,18 512,23 503.4,18 503.4,8" fill="none" stroke="#39FF14" stroke-width="1" opacity="0.0432861698246059"/>
<polygon points="275,16 283.6,21 283.6,31 275,36 266.4,31 266.4,21" fill="none" stroke="#39FF14" stroke-width="1" opacity="0.04683758069264288"/>
<polygon points="822,94 830.6,99 830.6,109 822,114 813.4,109 813.4,99" fill="none" stroke="#39FF14" stroke-width="1" opacity="0.06817292888951107"/>
<polygon points="597,149 605.6,154 605.6,164 597,169 588.4,164 588.4,154" fill="none" stroke="#39FF14" stroke-width="1" opacity="0.05635242591512804"/>
<polygon points="756,138 764.6,143 764.6,153 756,158 747.4,153 747.4,143" fill="none" stroke="#39FF14" stroke-width="1" opacity="0.06977941636625325"/>
<polygon points="656,3 664.6,8 664.6,18 656,23 647.4,18 647.4,8" fill="none" stroke="#39FF14" stroke-width="1" opacity="0.04958987825823991"/>
<polygon points="730,181 738.6,186 738.6,196 730,201 721.4,196 721.4,186" fill="none" stroke="#39FF14" stroke-width="1" opacity="0.07537733353255402"/>
<polygon points="254,155 262.6,160 262.6,170 254,175 245.4,170 245.4,160" fill="none" stroke="#39FF14" stroke-width="1" opacity="0.06391162525407892"/>
<polygon points="63,61 71.6,66 71.6,76 63,81 54.4,76 54.4,66" fill="none" stroke="#39FF14" stroke-width="1" opacity="0.07460298140104014"/>
<polygon points="47,38 55.6,43 55.6,53 47,58 38.4,53 38.4,43" fill="none" stroke="#39FF14" stroke-width="1" opacity="0.076316011385563"/>
<polygon points="311,4 319.6,9 319.6,19 311,24 302.4,19 302.4,9" fill="none" stroke="#39FF14" stroke-width="1" opacity="0.07987765033803429"/>
<polygon points="689,1 697.6,6 697.6,16 689,21 680.4,16 680.4,6" fill="none" stroke="#39FF14" stroke-width="1" opacity="0.02433836321305955"/>
<polygon points="147,99 155.6,104 155.6,114 147,119 138.4,114 138.4,104" fill="none" stroke="#39FF14" stroke-width="1" opacity="0.07476596257802119"/>
<polygon points="320,86 328.6,91 328.6,101 320,106 311.4,101 311.4,91" fill="none" stroke="#39FF14" stroke-width="1" opacity="0.037463697625753654"/>
<polygon points="178,49 186.6,54 186.6,64 178,69 169.4,64 169.4,54" fill="none" stroke="#39FF14" stroke-width="1" opacity="0.03386269683900224"/>
<polygon points="808,127 816.6,132 816.6,142 808,147 799.4,142 799.4,132" fill="none" stroke="#39FF14" stroke-width="1" opacity="0.035465800865393124"/>
<polygon points="543,32 551.6,37 551.6,47 543,52 534.4,47 534.4,37" fill="none" stroke="#39FF14" stroke-width="1" opacity="0.026964089082807716"/>
</g>

  <!-- HUD Decorative elements -->
  <path d="M 20 20 L 40 20 L 50 30" fill="none" stroke="#39FF14" stroke-width="2" opacity="0.5"/>
  <path d="M 830 180 L 810 180 L 800 170" fill="none" stroke="#39FF14" stroke-width="2" opacity="0.5"/>

  <g clip-path="url(#dashClip)">
    <rect x="-160" y="0" width="160" height="200" fill="url(#scanlineGrad)">
      <animateTransform attributeName="transform" type="translate"
                        from="0 0" to="1010 0" dur="6s" repeatCount="indefinite"/>
    </rect>
  </g>

  <g font-family="'Consolas', 'Fira Code', monospace" text-anchor="middle">

    <!-- NETWORK STATUS -->
    <g transform="translate(130, 100)">
        <circle cx="0" cy="0" r="45" fill="none" stroke="#39FF14" stroke-width="2" stroke-dasharray="10 5">
            <animateTransform attributeName="transform" type="rotate" from="0" to="360" dur="10s" repeatCount="indefinite"/>
        </circle>
        <circle cx="0" cy="0" r="35" fill="#0d0d0d" />
        <text x="0" y="-60" font-size="12" fill="#aaaaaa" letter-spacing="2">ROOT.AUTH</text>
        <text x="0" y="70" font-size="14" fill="#ffffff" font-weight="bold">OPERATIONAL</text>
    </g>

    <!-- ACTIVE USERS -->
    <g transform="translate(330, 100)">
        <text x="0" y="-20" font-size="12" fill="#aaaaaa">CITIZENS</text>
        <text x="0" y="15" font-size="28" fill="#ffffff" font-weight="bold" filter="url(#textGlow)">12,664</text>
        <text x="0" y="35" font-size="10" fill="#777777">VERIFIED HUMANS</text>
    </g>

    <!-- REGISTERED AGENTS -->
    <g transform="translate(530, 100)">
        <text x="0" y="-20" font-size="12" fill="#aaaaaa">AGENTS</text>
        <text x="0" y="15" font-size="28" fill="#00d4ff" font-weight="bold" filter="url(#textGlow)">3,964</text>
        <text x="0" y="35" font-size="10" fill="#777777">REGISTERED DIDs</text>
    </g>

    <!-- TRANSACTIONS -->
    <g transform="translate(730, 100)">
        <text x="0" y="-20" font-size="12" fill="#aaaaaa">TRANSFERS</text>
        <text x="0" y="15" font-size="28" fill="#ffffff" font-weight="bold">30,510</text>
        <text x="0" y="35" font-size="10" fill="#777777">M2M SETTLEMENTS</text>
    </g>
  </g>

  <text x="425" y="185" font-family="'Consolas', 'Fira Code', monospace" font-size="10" fill="#aaaaaa" opacity="0.6" text-anchor="middle">AXIOMID PROJECTED TARGETS (ILLUSTRATIVE): 2026-06-27 04:20:47 UTC // SECURE_HANDSHAKE</text>
</svg>