<svg width="850" height="200" viewBox="0 0 850 200" xmlns="http://www.w3.org/2000/svg">
  <defs>
    <pattern id="carbonFiber" width="10" height="10" patternUnits="userSpaceOnUse">
        <rect width="10" height="10" fill="#050505"/>
        <path d="M0,0 L5,5 L10,0 L5,-5 Z M5,5 L10,10 L15,5 L10,0 Z M-5,5 L0,10 L5,5 L0,0 Z M0,10 L5,15 L10,10 L5,5 Z" fill="#0d0d0d"/>
    </pattern>
    <filter id="textGlow">
      <feGaussianBlur stdDeviation="2" result="blur" />
      <feMerge>
        <feMergeNode in="blur"/>
        <feMergeNode in="SourceGraphic"/>
      </feMerge>
    </filter>
    <linearGradient id="neonBar" x1="0%" y1="0%" x2="100%" y2="0%">
        <stop offset="0%" stop-color="#111111"/>
        <stop offset="100%" stop-color="#39FF14"/>
    </linearGradient>
    <linearGradient id="scanlineGrad" x1="0%" y1="0%" x2="100%" y2="0%">
        <stop offset="0%" stop-color="#39FF14" stop-opacity="0"/>
        <stop offset="50%" stop-color="#39FF14" stop-opacity="0.18"/>
        <stop offset="100%" stop-color="#39FF14" stop-opacity="0"/>
    </linearGradient>
    <clipPath id="dashClip">
        <rect x="0" y="0" width="850" height="200" rx="12"/>
    </clipPath>
  </defs>

  <rect width="100%" height="100%" fill="url(#carbonFiber)" rx="12" stroke="#39FF14" stroke-width="1" stroke-opacity="0.3"/>
  <rect width="100%" height="100%" fill="#000000" opacity="0.6" rx="12" />
  <g><polygon points="711,31 719.6,36 719.6,46 711,51 702.4,46 702.4,36" fill="none" stroke="#39FF14" stroke-width="1" opacity="0.04787995147762403"/>
<polygon points="526,187 534.6,192 534.6,202 526,207 517.4,202 517.4,192" fill="none" stroke="#39FF14" stroke-width="1" opacity="0.060805135148074674"/>
<polygon points="747,79 755.6,84 755.6,94 747,99 738.4,94 738.4,84" fill="none" stroke="#39FF14" stroke-width="1" opacity="0.06319448419203667"/>
<polygon points="811,79 819.6,84 819.6,94 811,99 802.4,94 802.4,84" fill="none" stroke="#39FF14" stroke-width="1" opacity="0.06651766467491677"/>
<polygon points="595,171 603.6,176 603.6,186 595,191 586.4,186 586.4,176" fill="none" stroke="#39FF14" stroke-width="1" opacity="0.05711470934303679"/>
<polygon points="27,150 35.6,155 35.6,165 27,170 18.4,165 18.4,155" fill="none" stroke="#39FF14" stroke-width="1" opacity="0.04369599536142607"/>
<polygon points="652,49 660.6,54 660.6,64 652,69 643.4,64 643.4,54" fill="none" stroke="#39FF14" stroke-width="1" opacity="0.031594656380930106"/>
<polygon points="651,57 659.6,62 659.6,72 651,77 642.4,72 642.4,62" fill="none" stroke="#39FF14" stroke-width="1" opacity="0.029034651708783478"/>
<polygon points="580,88 588.6,93 588.6,103 580,108 571.4,103 571.4,93" fill="none" stroke="#39FF14" stroke-width="1" opacity="0.05185866102358591"/>
<polygon points="433,26 441.6,31 441.6,41 433,46 424.4,41 424.4,31" fill="none" stroke="#39FF14" stroke-width="1" opacity="0.039924147261739734"/>
<polygon points="185,158 193.6,163 193.6,173 185,178 176.4,173 176.4,163" fill="none" stroke="#39FF14" stroke-width="1" opacity="0.04409730631884373"/>
<polygon points="150,-4 158.6,1 158.6,11 150,16 141.4,11 141.4,1" fill="none" stroke="#39FF14" stroke-width="1" opacity="0.05954406455704955"/>
<polygon points="128,74 136.6,79 136.6,89 128,94 119.4,89 119.4,79" fill="none" stroke="#39FF14" stroke-width="1" opacity="0.022080002414221735"/>
<polygon points="354,100 362.6,105 362.6,115 354,120 345.4,115 345.4,105" fill="none" stroke="#39FF14" stroke-width="1" opacity="0.03900490911888872"/>
<polygon points="224,130 232.6,135 232.6,145 224,150 215.4,145 215.4,135" fill="none" stroke="#39FF14" stroke-width="1" opacity="0.07787139088141294"/>
<polygon points="401,51 409.6,56 409.6,66 401,71 392.4,66 392.4,56" fill="none" stroke="#39FF14" stroke-width="1" opacity="0.06356337271934001"/>
<polygon points="471,48 479.6,53 479.6,63 471,68 462.4,63 462.4,53" fill="none" stroke="#39FF14" stroke-width="1" opacity="0.0514997080423988"/>
<polygon points="607,110 615.6,115 615.6,125 607,130 598.4,125 598.4,115" fill="none" stroke="#39FF14" stroke-width="1" opacity="0.04315587659064063"/>
<polygon points="176,176 184.6,181 184.6,191 176,196 167.4,191 167.4,181" fill="none" stroke="#39FF14" stroke-width="1" opacity="0.07751822526372928"/>
<polygon points="691,118 699.6,123 699.6,133 691,138 682.4,133 682.4,123" fill="none" stroke="#39FF14" stroke-width="1" opacity="0.04091996051177817"/>
<polygon points="167,171 175.6,176 175.6,186 167,191 158.4,186 158.4,176" fill="none" stroke="#39FF14" stroke-width="1" opacity="0.032184299028491965"/>
<polygon points="216,159 224.6,164 224.6,174 216,179 207.4,174 207.4,164" fill="none" stroke="#39FF14" stroke-width="1" opacity="0.03179966134880779"/>
<polygon points="257,99 265.6,104 265.6,114 257,119 248.4,114 248.4,104" fill="none" stroke="#39FF14" stroke-width="1" opacity="0.04550101329104628"/>
<polygon points="247,134 255.6,139 255.6,149 247,154 238.4,149 238.4,139" fill="none" stroke="#39FF14" stroke-width="1" opacity="0.06294410890637765"/>
<polygon points="393,-8 401.6,-3 401.6,7 393,12 384.4,7 384.4,-3" fill="none" stroke="#39FF14" stroke-width="1" opacity="0.07122254211816864"/>
<polygon points="850,177 858.6,182 858.6,192 850,197 841.4,192 841.4,182" fill="none" stroke="#39FF14" stroke-width="1" opacity="0.03693494329582696"/>
<polygon points="578,91 586.6,96 586.6,106 578,111 569.4,106 569.4,96" fill="none" stroke="#39FF14" stroke-width="1" opacity="0.0265030937846455"/>
<polygon points="236,113 244.6,118 244.6,128 236,133 227.4,128 227.4,118" fill="none" stroke="#39FF14" stroke-width="1" opacity="0.07777428332946779"/>
<polygon points="618,33 626.6,38 626.6,48 618,53 609.4,48 609.4,38" fill="none" stroke="#39FF14" stroke-width="1" opacity="0.07492438805729822"/>
<polygon points="784,176 792.6,181 792.6,191 784,196 775.4,191 775.4,181" fill="none" stroke="#39FF14" stroke-width="1" opacity="0.043323590636013466"/>
</g>

  <!-- HUD Decorative elements -->
  <path d="M 20 20 L 40 20 L 50 30" fill="none" stroke="#39FF14" stroke-width="2" opacity="0.5"/>
  <path d="M 830 180 L 810 180 L 800 170" fill="none" stroke="#39FF14" stroke-width="2" opacity="0.5"/>

  <g clip-path="url(#dashClip)">
    <rect x="-160" y="0" width="160" height="200" fill="url(#scanlineGrad)">
      <animateTransform attributeName="transform" type="translate"
                        from="0 0" to="1010 0" dur="6s" repeatCount="indefinite"/>
    </rect>
  </g>

  <g font-family="'Consolas', 'Fira Code', monospace" text-anchor="middle">

    <!-- NETWORK STATUS -->
    <g transform="translate(130, 100)">
        <circle cx="0" cy="0" r="45" fill="none" stroke="#39FF14" stroke-width="2" stroke-dasharray="10 5">
            <animateTransform attributeName="transform" type="rotate" from="0" to="360" dur="10s" repeatCount="indefinite"/>
        </circle>
        <circle cx="0" cy="0" r="35" fill="#0d0d0d" />
        <text x="0" y="-60" font-size="12" fill="#aaaaaa" letter-spacing="2">ROOT.AUTH</text>
        <text x="0" y="70" font-size="14" fill="#ffffff" font-weight="bold">OPERATIONAL</text>
    </g>

    <!-- ACTIVE USERS -->
    <g transform="translate(330, 100)">
        <text x="0" y="-20" font-size="12" fill="#aaaaaa">CITIZENS</text>
        <text x="0" y="15" font-size="28" fill="#ffffff" font-weight="bold" filter="url(#textGlow)">13,623</text>
        <text x="0" y="35" font-size="10" fill="#777777">VERIFIED HUMANS</text>
    </g>

    <!-- REGISTERED AGENTS -->
    <g transform="translate(530, 100)">
        <text x="0" y="-20" font-size="12" fill="#aaaaaa">AGENTS</text>
        <text x="0" y="15" font-size="28" fill="#00d4ff" font-weight="bold" filter="url(#textGlow)">3,371</text>
        <text x="0" y="35" font-size="10" fill="#777777">REGISTERED DIDs</text>
    </g>

    <!-- TRANSACTIONS -->
    <g transform="translate(730, 100)">
        <text x="0" y="-20" font-size="12" fill="#aaaaaa">TRANSFERS</text>
        <text x="0" y="15" font-size="28" fill="#ffffff" font-weight="bold">34,253</text>
        <text x="0" y="35" font-size="10" fill="#777777">M2M SETTLEMENTS</text>
    </g>
  </g>

  <text x="425" y="185" font-family="'Consolas', 'Fira Code', monospace" font-size="10" fill="#aaaaaa" opacity="0.6" text-anchor="middle">AXIOMID PROJECTED TARGETS (ILLUSTRATIVE): 2026-07-02 16:44:10 UTC // SECURE_HANDSHAKE</text>
</svg>