<svg width="850" height="200" viewBox="0 0 850 200" xmlns="http://www.w3.org/2000/svg">
  <defs>
    <!-- Carbon Fiber Pattern -->
    <pattern id="carbonFiber" width="10" height="10" patternUnits="userSpaceOnUse">
        <rect width="10" height="10" fill="#050505"/>
        <path d="M0,0 L5,5 L10,0 L5,-5 Z M5,5 L10,10 L15,5 L10,0 Z M-5,5 L0,10 L5,5 L0,0 Z M0,10 L5,15 L10,10 L5,5 Z" fill="#0d0d0d"/>
    </pattern>
    <filter id="glassmorphism">
      <feGaussianBlur stdDeviation="3" result="blur" />
      <feColorMatrix type="matrix" values="1 0 0 0 0  0 1 0 0 0  0 0 1 0 0  0 0 0 18 -7" result="glow" />
      <feBlend in="SourceGraphic" in2="glow" mode="normal" />
    </filter>
    <filter id="textGlow">
      <feGaussianBlur stdDeviation="2" result="blur" />
      <feMerge>
        <feMergeNode in="blur"/>
        <feMergeNode in="SourceGraphic"/>
      </feMerge>
    </filter>
    <linearGradient id="neonBar" x1="0%" y1="0%" x2="100%" y2="0%">
        <stop offset="0%" stop-color="#111111"/>
        <stop offset="100%" stop-color="#39FF14"/>
    </linearGradient>
  </defs>

  <rect width="100%" height="100%" fill="url(#carbonFiber)" rx="12" stroke="#39FF14" stroke-width="1" stroke-opacity="0.3"/>
  <rect width="100%" height="100%" fill="#000000" opacity="0.6" rx="12" />
  <g><polygon points="791,71 799.6,76 799.6,86 791,91 782.4,86 782.4,76" fill="none" stroke="#39FF14" stroke-width="1" opacity="0.07260667896814905"/>
<polygon points="111,52 119.6,57 119.6,67 111,72 102.4,67 102.4,57" fill="none" stroke="#39FF14" stroke-width="1" opacity="0.024765973734171724"/>
<polygon points="128,53 136.6,58 136.6,68 128,73 119.4,68 119.4,58" fill="none" stroke="#39FF14" stroke-width="1" opacity="0.04003236103638669"/>
<polygon points="192,114 200.6,119 200.6,129 192,134 183.4,129 183.4,119" fill="none" stroke="#39FF14" stroke-width="1" opacity="0.026314859748150517"/>
<polygon points="612,136 620.6,141 620.6,151 612,156 603.4,151 603.4,141" fill="none" stroke="#39FF14" stroke-width="1" opacity="0.07760045244926381"/>
<polygon points="779,137 787.6,142 787.6,152 779,157 770.4,152 770.4,142" fill="none" stroke="#39FF14" stroke-width="1" opacity="0.046383152901732436"/>
<polygon points="104,49 112.6,54 112.6,64 104,69 95.4,64 95.4,54" fill="none" stroke="#39FF14" stroke-width="1" opacity="0.03357663123789411"/>
<polygon points="701,127 709.6,132 709.6,142 701,147 692.4,142 692.4,132" fill="none" stroke="#39FF14" stroke-width="1" opacity="0.021616433382596698"/>
<polygon points="246,159 254.6,164 254.6,174 246,179 237.4,174 237.4,164" fill="none" stroke="#39FF14" stroke-width="1" opacity="0.04213838673548056"/>
<polygon points="425,-5 433.6,0 433.6,10 425,15 416.4,10 416.4,0" fill="none" stroke="#39FF14" stroke-width="1" opacity="0.07007239164376904"/>
<polygon points="377,164 385.6,169 385.6,179 377,184 368.4,179 368.4,169" fill="none" stroke="#39FF14" stroke-width="1" opacity="0.05312272531056905"/>
<polygon points="72,30 80.6,35 80.6,45 72,50 63.4,45 63.4,35" fill="none" stroke="#39FF14" stroke-width="1" opacity="0.051965030567363416"/>
<polygon points="60,34 68.6,39 68.6,49 60,54 51.4,49 51.4,39" fill="none" stroke="#39FF14" stroke-width="1" opacity="0.021204016154220982"/>
<polygon points="306,1 314.6,6 314.6,16 306,21 297.4,16 297.4,6" fill="none" stroke="#39FF14" stroke-width="1" opacity="0.02690730524023227"/>
<polygon points="471,8 479.6,13 479.6,23 471,28 462.4,23 462.4,13" fill="none" stroke="#39FF14" stroke-width="1" opacity="0.03143470730363515"/>
<polygon points="104,162 112.6,167 112.6,177 104,182 95.4,177 95.4,167" fill="none" stroke="#39FF14" stroke-width="1" opacity="0.020081535477222762"/>
<polygon points="722,171 730.6,176 730.6,186 722,191 713.4,186 713.4,176" fill="none" stroke="#39FF14" stroke-width="1" opacity="0.057157611979968215"/>
<polygon points="777,72 785.6,77 785.6,87 777,92 768.4,87 768.4,77" fill="none" stroke="#39FF14" stroke-width="1" opacity="0.05757368111267813"/>
<polygon points="803,171 811.6,176 811.6,186 803,191 794.4,186 794.4,176" fill="none" stroke="#39FF14" stroke-width="1" opacity="0.05550283951037682"/>
<polygon points="542,103 550.6,108 550.6,118 542,123 533.4,118 533.4,108" fill="none" stroke="#39FF14" stroke-width="1" opacity="0.04321933948566454"/>
<polygon points="576,19 584.6,24 584.6,34 576,39 567.4,34 567.4,24" fill="none" stroke="#39FF14" stroke-width="1" opacity="0.045406246160803757"/>
<polygon points="796,15 804.6,20 804.6,30 796,35 787.4,30 787.4,20" fill="none" stroke="#39FF14" stroke-width="1" opacity="0.050309025341757706"/>
<polygon points="101,39 109.6,44 109.6,54 101,59 92.4,54 92.4,44" fill="none" stroke="#39FF14" stroke-width="1" opacity="0.07753593562927918"/>
<polygon points="16,-2 24.6,3 24.6,13 16,18 7.4,13 7.4,3" fill="none" stroke="#39FF14" stroke-width="1" opacity="0.0388435491492659"/>
<polygon points="20,120 28.6,125 28.6,135 20,140 11.4,135 11.4,125" fill="none" stroke="#39FF14" stroke-width="1" opacity="0.06669127872530808"/>
<polygon points="376,11 384.6,16 384.6,26 376,31 367.4,26 367.4,16" fill="none" stroke="#39FF14" stroke-width="1" opacity="0.051915304477536894"/>
<polygon points="349,67 357.6,72 357.6,82 349,87 340.4,82 340.4,72" fill="none" stroke="#39FF14" stroke-width="1" opacity="0.0630422424440818"/>
<polygon points="7,102 15.6,107 15.6,117 7,122 -1.5999999999999996,117 -1.5999999999999996,107" fill="none" stroke="#39FF14" stroke-width="1" opacity="0.07906987384826976"/>
<polygon points="704,50 712.6,55 712.6,65 704,70 695.4,65 695.4,55" fill="none" stroke="#39FF14" stroke-width="1" opacity="0.02079485734101296"/>
<polygon points="709,37 717.6,42 717.6,52 709,57 700.4,52 700.4,42" fill="none" stroke="#39FF14" stroke-width="1" opacity="0.029296586351147257"/>
</g>

  <!-- HUD Decorative elements -->
  <path d="M 20 20 L 40 20 L 50 30" fill="none" stroke="#39FF14" stroke-width="2" opacity="0.5"/>
  <path d="M 830 180 L 810 180 L 800 170" fill="none" stroke="#39FF14" stroke-width="2" opacity="0.5"/>
  <rect x="20" y="100" width="2" height="40" fill="#ffffff" opacity="0.4"/>
  <rect x="828" y="60" width="2" height="40" fill="#39FF14" opacity="0.6"/>

  <g font-family="'Consolas', 'Fira Code', monospace" text-anchor="middle">

    <!-- SYSTEM STATUS -->
    <g transform="translate(130, 100)">
        <circle cx="0" cy="0" r="45" fill="none" stroke="#111111" stroke-width="8" />
        <circle cx="0" cy="0" r="45" fill="none" stroke="#39FF14" stroke-width="2" stroke-dasharray="10 5">
            <animateTransform attributeName="transform" type="rotate" from="0" to="360" dur="10s" repeatCount="indefinite"/>
        </circle>
        <circle cx="0" cy="0" r="35" fill="#0d0d0d" />
        <circle cx="0" cy="0" r="6" fill="#39FF14" filter="url(#textGlow)">
            <animate attributeName="opacity" values="1;0.3;1" dur="2s" repeatCount="indefinite"/>
        </circle>
        <text x="0" y="-60" font-size="12" fill="#aaaaaa" letter-spacing="2">SYS.CORE</text>
        <text x="0" y="70" font-size="14" fill="#ffffff" font-weight="bold">ONLINE</text>
    </g>

    <!-- LIVE TRAFFIC -->
    <g transform="translate(330, 100)">
        <rect x="-60" y="-45" width="120" height="90" fill="#0a0a0a" rx="8" stroke="#39FF14" stroke-opacity="0.4" stroke-width="1"/>
        <text x="0" y="-20" font-size="12" fill="#aaaaaa">NETWORK LOAD</text>
        <text x="0" y="15" font-size="28" fill="#ffffff" font-weight="bold" filter="url(#textGlow)">4490</text>
        <text x="0" y="35" font-size="10" fill="#777777">ACTIVE SESSIONS</text>
    </g>

    <!-- ACTIVE AGENTS -->
    <g transform="translate(530, 100)">
        <rect x="-60" y="-45" width="120" height="90" fill="#0a0a0a" rx="8" stroke="#39FF14" stroke-opacity="0.4" stroke-width="1"/>
        <text x="0" y="-20" font-size="12" fill="#aaaaaa">SWARM ENTITIES</text>
        <text x="0" y="15" font-size="28" fill="#ffffff" font-weight="bold" filter="url(#textGlow)">167</text>
        <text x="0" y="35" font-size="10" fill="#777777">AUTONOMOUS</text>
    </g>

    <!-- UPTIME -->
    <g transform="translate(730, 100)">
        <path d="M -40 -35 L 40 -35 L 50 -25 L 50 35 L -40 35 L -50 25 Z" fill="#0a0a0a" stroke="#39FF14" stroke-opacity="0.4" stroke-width="1"/>
        <text x="0" y="-15" font-size="12" fill="#aaaaaa">CONTINUITY</text>
        <text x="0" y="15" font-size="24" fill="#ffffff" font-weight="bold">301<tspan font-size="14" fill="#777777">d</tspan></text>
        <rect x="-35" y="25" width="70" height="4" fill="url(#neonBar)" rx="2"/>
    </g>
  </g>

  <text x="425" y="185" font-family="'Consolas', 'Fira Code', monospace" font-size="10" fill="#aaaaaa" opacity="0.6" text-anchor="middle">LAST TELEMETRY PING: 2026-05-07 18:40:33 UTC // ENCRYPTED_TUNNEL</text>
</svg>