<svg width="850" height="200" viewBox="0 0 850 200" xmlns="http://www.w3.org/2000/svg">
  <defs>
    <pattern id="carbonFiber" width="10" height="10" patternUnits="userSpaceOnUse">
        <rect width="10" height="10" fill="#050505"/>
        <path d="M0,0 L5,5 L10,0 L5,-5 Z M5,5 L10,10 L15,5 L10,0 Z M-5,5 L0,10 L5,5 L0,0 Z M0,10 L5,15 L10,10 L5,5 Z" fill="#0d0d0d"/>
    </pattern>
    <filter id="textGlow">
      <feGaussianBlur stdDeviation="2" result="blur" />
      <feMerge>
        <feMergeNode in="blur"/>
        <feMergeNode in="SourceGraphic"/>
      </feMerge>
    </filter>
    <linearGradient id="neonBar" x1="0%" y1="0%" x2="100%" y2="0%">
        <stop offset="0%" stop-color="#111111"/>
        <stop offset="100%" stop-color="#39FF14"/>
    </linearGradient>
    <linearGradient id="scanlineGrad" x1="0%" y1="0%" x2="100%" y2="0%">
        <stop offset="0%" stop-color="#39FF14" stop-opacity="0"/>
        <stop offset="50%" stop-color="#39FF14" stop-opacity="0.18"/>
        <stop offset="100%" stop-color="#39FF14" stop-opacity="0"/>
    </linearGradient>
    <clipPath id="dashClip">
        <rect x="0" y="0" width="850" height="200" rx="12"/>
    </clipPath>
  </defs>

  <rect width="100%" height="100%" fill="url(#carbonFiber)" rx="12" stroke="#39FF14" stroke-width="1" stroke-opacity="0.3"/>
  <rect width="100%" height="100%" fill="#000000" opacity="0.6" rx="12" />
  <g><polygon points="270,144 278.6,149 278.6,159 270,164 261.4,159 261.4,149" fill="none" stroke="#39FF14" stroke-width="1" opacity="0.056296285781695"/>
<polygon points="400,136 408.6,141 408.6,151 400,156 391.4,151 391.4,141" fill="none" stroke="#39FF14" stroke-width="1" opacity="0.04769851285160343"/>
<polygon points="324,6 332.6,11 332.6,21 324,26 315.4,21 315.4,11" fill="none" stroke="#39FF14" stroke-width="1" opacity="0.03744453215724616"/>
<polygon points="459,164 467.6,169 467.6,179 459,184 450.4,179 450.4,169" fill="none" stroke="#39FF14" stroke-width="1" opacity="0.03703952911694176"/>
<polygon points="208,95 216.6,100 216.6,110 208,115 199.4,110 199.4,100" fill="none" stroke="#39FF14" stroke-width="1" opacity="0.022590566161962408"/>
<polygon points="587,131 595.6,136 595.6,146 587,151 578.4,146 578.4,136" fill="none" stroke="#39FF14" stroke-width="1" opacity="0.07549712628317032"/>
<polygon points="214,-10 222.6,-5 222.6,5 214,10 205.4,5 205.4,-5" fill="none" stroke="#39FF14" stroke-width="1" opacity="0.024024770323052683"/>
<polygon points="848,173 856.6,178 856.6,188 848,193 839.4,188 839.4,178" fill="none" stroke="#39FF14" stroke-width="1" opacity="0.030342446626934208"/>
<polygon points="132,127 140.6,132 140.6,142 132,147 123.4,142 123.4,132" fill="none" stroke="#39FF14" stroke-width="1" opacity="0.07769144051765388"/>
<polygon points="671,120 679.6,125 679.6,135 671,140 662.4,135 662.4,125" fill="none" stroke="#39FF14" stroke-width="1" opacity="0.04727080345101617"/>
<polygon points="139,18 147.6,23 147.6,33 139,38 130.4,33 130.4,23" fill="none" stroke="#39FF14" stroke-width="1" opacity="0.06669123855564502"/>
<polygon points="726,190 734.6,195 734.6,205 726,210 717.4,205 717.4,195" fill="none" stroke="#39FF14" stroke-width="1" opacity="0.07721902105983754"/>
<polygon points="134,159 142.6,164 142.6,174 134,179 125.4,174 125.4,164" fill="none" stroke="#39FF14" stroke-width="1" opacity="0.05628223250369874"/>
<polygon points="52,92 60.6,97 60.6,107 52,112 43.4,107 43.4,97" fill="none" stroke="#39FF14" stroke-width="1" opacity="0.07957001125566368"/>
<polygon points="88,44 96.6,49 96.6,59 88,64 79.4,59 79.4,49" fill="none" stroke="#39FF14" stroke-width="1" opacity="0.04075450618789633"/>
<polygon points="485,86 493.6,91 493.6,101 485,106 476.4,101 476.4,91" fill="none" stroke="#39FF14" stroke-width="1" opacity="0.024449609253002796"/>
<polygon points="256,161 264.6,166 264.6,176 256,181 247.4,176 247.4,166" fill="none" stroke="#39FF14" stroke-width="1" opacity="0.026605853825643372"/>
<polygon points="12,109 20.6,114 20.6,124 12,129 3.4000000000000004,124 3.4000000000000004,114" fill="none" stroke="#39FF14" stroke-width="1" opacity="0.04761329436448797"/>
<polygon points="12,2 20.6,7 20.6,17 12,22 3.4000000000000004,17 3.4000000000000004,7" fill="none" stroke="#39FF14" stroke-width="1" opacity="0.021288729204350133"/>
<polygon points="379,62 387.6,67 387.6,77 379,82 370.4,77 370.4,67" fill="none" stroke="#39FF14" stroke-width="1" opacity="0.04643272188903736"/>
<polygon points="16,154 24.6,159 24.6,169 16,174 7.4,169 7.4,159" fill="none" stroke="#39FF14" stroke-width="1" opacity="0.06281736892263401"/>
<polygon points="228,43 236.6,48 236.6,58 228,63 219.4,58 219.4,48" fill="none" stroke="#39FF14" stroke-width="1" opacity="0.03799660909176032"/>
<polygon points="411,161 419.6,166 419.6,176 411,181 402.4,176 402.4,166" fill="none" stroke="#39FF14" stroke-width="1" opacity="0.020083865793860064"/>
<polygon points="677,134 685.6,139 685.6,149 677,154 668.4,149 668.4,139" fill="none" stroke="#39FF14" stroke-width="1" opacity="0.06065270387362613"/>
<polygon points="454,103 462.6,108 462.6,118 454,123 445.4,118 445.4,108" fill="none" stroke="#39FF14" stroke-width="1" opacity="0.04789441241281068"/>
<polygon points="421,101 429.6,106 429.6,116 421,121 412.4,116 412.4,106" fill="none" stroke="#39FF14" stroke-width="1" opacity="0.0419990115090552"/>
<polygon points="786,81 794.6,86 794.6,96 786,101 777.4,96 777.4,86" fill="none" stroke="#39FF14" stroke-width="1" opacity="0.05113447689502237"/>
<polygon points="561,166 569.6,171 569.6,181 561,186 552.4,181 552.4,171" fill="none" stroke="#39FF14" stroke-width="1" opacity="0.03172650997633012"/>
<polygon points="287,72 295.6,77 295.6,87 287,92 278.4,87 278.4,77" fill="none" stroke="#39FF14" stroke-width="1" opacity="0.030319625835362102"/>
<polygon points="206,101 214.6,106 214.6,116 206,121 197.4,116 197.4,106" fill="none" stroke="#39FF14" stroke-width="1" opacity="0.025358829913795823"/>
</g>

  <!-- HUD Decorative elements -->
  <path d="M 20 20 L 40 20 L 50 30" fill="none" stroke="#39FF14" stroke-width="2" opacity="0.5"/>
  <path d="M 830 180 L 810 180 L 800 170" fill="none" stroke="#39FF14" stroke-width="2" opacity="0.5"/>

  <g clip-path="url(#dashClip)">
    <rect x="-160" y="0" width="160" height="200" fill="url(#scanlineGrad)">
      <animateTransform attributeName="transform" type="translate"
                        from="0 0" to="1010 0" dur="6s" repeatCount="indefinite"/>
    </rect>
  </g>

  <g font-family="'Consolas', 'Fira Code', monospace" text-anchor="middle">

    <!-- NETWORK STATUS -->
    <g transform="translate(130, 100)">
        <circle cx="0" cy="0" r="45" fill="none" stroke="#39FF14" stroke-width="2" stroke-dasharray="10 5">
            <animateTransform attributeName="transform" type="rotate" from="0" to="360" dur="10s" repeatCount="indefinite"/>
        </circle>
        <circle cx="0" cy="0" r="35" fill="#0d0d0d" />
        <text x="0" y="-60" font-size="12" fill="#aaaaaa" letter-spacing="2">ROOT.AUTH</text>
        <text x="0" y="70" font-size="14" fill="#ffffff" font-weight="bold">OPERATIONAL</text>
    </g>

    <!-- ACTIVE USERS -->
    <g transform="translate(330, 100)">
        <text x="0" y="-20" font-size="12" fill="#aaaaaa">CITIZENS</text>
        <text x="0" y="15" font-size="28" fill="#ffffff" font-weight="bold" filter="url(#textGlow)">15,332</text>
        <text x="0" y="35" font-size="10" fill="#777777">VERIFIED HUMANS</text>
    </g>

    <!-- REGISTERED AGENTS -->
    <g transform="translate(530, 100)">
        <text x="0" y="-20" font-size="12" fill="#aaaaaa">AGENTS</text>
        <text x="0" y="15" font-size="28" fill="#00d4ff" font-weight="bold" filter="url(#textGlow)">3,939</text>
        <text x="0" y="35" font-size="10" fill="#777777">REGISTERED DIDs</text>
    </g>

    <!-- TRANSACTIONS -->
    <g transform="translate(730, 100)">
        <text x="0" y="-20" font-size="12" fill="#aaaaaa">TRANSFERS</text>
        <text x="0" y="15" font-size="28" fill="#ffffff" font-weight="bold">40,538</text>
        <text x="0" y="35" font-size="10" fill="#777777">M2M SETTLEMENTS</text>
    </g>
  </g>

  <text x="425" y="185" font-family="'Consolas', 'Fira Code', monospace" font-size="10" fill="#aaaaaa" opacity="0.6" text-anchor="middle">AXIOMID PROJECTED TARGETS (ILLUSTRATIVE): 2026-07-20 09:18:22 UTC // SECURE_HANDSHAKE</text>
</svg>