<svg width="850" height="200" viewBox="0 0 850 200" xmlns="http://www.w3.org/2000/svg">
  <defs>
    <pattern id="carbonFiber" width="10" height="10" patternUnits="userSpaceOnUse">
        <rect width="10" height="10" fill="#050505"/>
        <path d="M0,0 L5,5 L10,0 L5,-5 Z M5,5 L10,10 L15,5 L10,0 Z M-5,5 L0,10 L5,5 L0,0 Z M0,10 L5,15 L10,10 L5,5 Z" fill="#0d0d0d"/>
    </pattern>
    <filter id="textGlow">
      <feGaussianBlur stdDeviation="2" result="blur" />
      <feMerge>
        <feMergeNode in="blur"/>
        <feMergeNode in="SourceGraphic"/>
      </feMerge>
    </filter>
    <linearGradient id="neonBar" x1="0%" y1="0%" x2="100%" y2="0%">
        <stop offset="0%" stop-color="#111111"/>
        <stop offset="100%" stop-color="#39FF14"/>
    </linearGradient>
    <linearGradient id="scanlineGrad" x1="0%" y1="0%" x2="100%" y2="0%">
        <stop offset="0%" stop-color="#39FF14" stop-opacity="0"/>
        <stop offset="50%" stop-color="#39FF14" stop-opacity="0.18"/>
        <stop offset="100%" stop-color="#39FF14" stop-opacity="0"/>
    </linearGradient>
    <clipPath id="dashClip">
        <rect x="0" y="0" width="850" height="200" rx="12"/>
    </clipPath>
  </defs>

  <rect width="100%" height="100%" fill="url(#carbonFiber)" rx="12" stroke="#39FF14" stroke-width="1" stroke-opacity="0.3"/>
  <rect width="100%" height="100%" fill="#000000" opacity="0.6" rx="12" />
  <g><polygon points="696,26 704.6,31 704.6,41 696,46 687.4,41 687.4,31" fill="none" stroke="#39FF14" stroke-width="1" opacity="0.07612677396196961"/>
<polygon points="459,62 467.6,67 467.6,77 459,82 450.4,77 450.4,67" fill="none" stroke="#39FF14" stroke-width="1" opacity="0.07369244449926564"/>
<polygon points="143,25 151.6,30 151.6,40 143,45 134.4,40 134.4,30" fill="none" stroke="#39FF14" stroke-width="1" opacity="0.06857238650729278"/>
<polygon points="792,136 800.6,141 800.6,151 792,156 783.4,151 783.4,141" fill="none" stroke="#39FF14" stroke-width="1" opacity="0.05597547429500602"/>
<polygon points="850,145 858.6,150 858.6,160 850,165 841.4,160 841.4,150" fill="none" stroke="#39FF14" stroke-width="1" opacity="0.020236715876501787"/>
<polygon points="502,141 510.6,146 510.6,156 502,161 493.4,156 493.4,146" fill="none" stroke="#39FF14" stroke-width="1" opacity="0.05333861888183948"/>
<polygon points="545,131 553.6,136 553.6,146 545,151 536.4,146 536.4,136" fill="none" stroke="#39FF14" stroke-width="1" opacity="0.049341170706501514"/>
<polygon points="82,119 90.6,124 90.6,134 82,139 73.4,134 73.4,124" fill="none" stroke="#39FF14" stroke-width="1" opacity="0.03457970699449626"/>
<polygon points="550,164 558.6,169 558.6,179 550,184 541.4,179 541.4,169" fill="none" stroke="#39FF14" stroke-width="1" opacity="0.07849257231825539"/>
<polygon points="426,155 434.6,160 434.6,170 426,175 417.4,170 417.4,160" fill="none" stroke="#39FF14" stroke-width="1" opacity="0.05686905475262852"/>
<polygon points="117,123 125.6,128 125.6,138 117,143 108.4,138 108.4,128" fill="none" stroke="#39FF14" stroke-width="1" opacity="0.036213634471614256"/>
<polygon points="252,102 260.6,107 260.6,117 252,122 243.4,117 243.4,107" fill="none" stroke="#39FF14" stroke-width="1" opacity="0.07497371158140413"/>
<polygon points="723,12 731.6,17 731.6,27 723,32 714.4,27 714.4,17" fill="none" stroke="#39FF14" stroke-width="1" opacity="0.06915639618276359"/>
<polygon points="540,83 548.6,88 548.6,98 540,103 531.4,98 531.4,88" fill="none" stroke="#39FF14" stroke-width="1" opacity="0.0373989056985146"/>
<polygon points="452,13 460.6,18 460.6,28 452,33 443.4,28 443.4,18" fill="none" stroke="#39FF14" stroke-width="1" opacity="0.03598470440030423"/>
<polygon points="836,82 844.6,87 844.6,97 836,102 827.4,97 827.4,87" fill="none" stroke="#39FF14" stroke-width="1" opacity="0.07633775493256818"/>
<polygon points="213,183 221.6,188 221.6,198 213,203 204.4,198 204.4,188" fill="none" stroke="#39FF14" stroke-width="1" opacity="0.026362508461625748"/>
<polygon points="609,121 617.6,126 617.6,136 609,141 600.4,136 600.4,126" fill="none" stroke="#39FF14" stroke-width="1" opacity="0.025691736053648724"/>
<polygon points="208,163 216.6,168 216.6,178 208,183 199.4,178 199.4,168" fill="none" stroke="#39FF14" stroke-width="1" opacity="0.04287056499515142"/>
<polygon points="801,64 809.6,69 809.6,79 801,84 792.4,79 792.4,69" fill="none" stroke="#39FF14" stroke-width="1" opacity="0.029199178726220156"/>
<polygon points="152,165 160.6,170 160.6,180 152,185 143.4,180 143.4,170" fill="none" stroke="#39FF14" stroke-width="1" opacity="0.04951765695249652"/>
<polygon points="14,172 22.6,177 22.6,187 14,192 5.4,187 5.4,177" fill="none" stroke="#39FF14" stroke-width="1" opacity="0.07003294878967935"/>
<polygon points="687,133 695.6,138 695.6,148 687,153 678.4,148 678.4,138" fill="none" stroke="#39FF14" stroke-width="1" opacity="0.07417700501750692"/>
<polygon points="544,25 552.6,30 552.6,40 544,45 535.4,40 535.4,30" fill="none" stroke="#39FF14" stroke-width="1" opacity="0.07548418994663593"/>
<polygon points="695,138 703.6,143 703.6,153 695,158 686.4,153 686.4,143" fill="none" stroke="#39FF14" stroke-width="1" opacity="0.028466586726992472"/>
<polygon points="840,96 848.6,101 848.6,111 840,116 831.4,111 831.4,101" fill="none" stroke="#39FF14" stroke-width="1" opacity="0.04188849258338061"/>
<polygon points="42,43 50.6,48 50.6,58 42,63 33.4,58 33.4,48" fill="none" stroke="#39FF14" stroke-width="1" opacity="0.020311543289939976"/>
<polygon points="765,37 773.6,42 773.6,52 765,57 756.4,52 756.4,42" fill="none" stroke="#39FF14" stroke-width="1" opacity="0.03684875494593877"/>
<polygon points="616,159 624.6,164 624.6,174 616,179 607.4,174 607.4,164" fill="none" stroke="#39FF14" stroke-width="1" opacity="0.028569144841336852"/>
<polygon points="640,111 648.6,116 648.6,126 640,131 631.4,126 631.4,116" fill="none" stroke="#39FF14" stroke-width="1" opacity="0.057921657093679316"/>
</g>

  <!-- HUD Decorative elements -->
  <path d="M 20 20 L 40 20 L 50 30" fill="none" stroke="#39FF14" stroke-width="2" opacity="0.5"/>
  <path d="M 830 180 L 810 180 L 800 170" fill="none" stroke="#39FF14" stroke-width="2" opacity="0.5"/>

  <g clip-path="url(#dashClip)">
    <rect x="-160" y="0" width="160" height="200" fill="url(#scanlineGrad)">
      <animateTransform attributeName="transform" type="translate"
                        from="0 0" to="1010 0" dur="6s" repeatCount="indefinite"/>
    </rect>
  </g>

  <g font-family="'Consolas', 'Fira Code', monospace" text-anchor="middle">

    <!-- NETWORK STATUS -->
    <g transform="translate(130, 100)">
        <circle cx="0" cy="0" r="45" fill="none" stroke="#39FF14" stroke-width="2" stroke-dasharray="10 5">
            <animateTransform attributeName="transform" type="rotate" from="0" to="360" dur="10s" repeatCount="indefinite"/>
        </circle>
        <circle cx="0" cy="0" r="35" fill="#0d0d0d" />
        <text x="0" y="-60" font-size="12" fill="#aaaaaa" letter-spacing="2">ROOT.AUTH</text>
        <text x="0" y="70" font-size="14" fill="#ffffff" font-weight="bold">OPERATIONAL</text>
    </g>

    <!-- ACTIVE USERS -->
    <g transform="translate(330, 100)">
        <text x="0" y="-20" font-size="12" fill="#aaaaaa">CITIZENS</text>
        <text x="0" y="15" font-size="28" fill="#ffffff" font-weight="bold" filter="url(#textGlow)">15,330</text>
        <text x="0" y="35" font-size="10" fill="#777777">VERIFIED HUMANS</text>
    </g>

    <!-- REGISTERED AGENTS -->
    <g transform="translate(530, 100)">
        <text x="0" y="-20" font-size="12" fill="#aaaaaa">AGENTS</text>
        <text x="0" y="15" font-size="28" fill="#00d4ff" font-weight="bold" filter="url(#textGlow)">3,855</text>
        <text x="0" y="35" font-size="10" fill="#777777">REGISTERED DIDs</text>
    </g>

    <!-- TRANSACTIONS -->
    <g transform="translate(730, 100)">
        <text x="0" y="-20" font-size="12" fill="#aaaaaa">TRANSFERS</text>
        <text x="0" y="15" font-size="28" fill="#ffffff" font-weight="bold">35,817</text>
        <text x="0" y="35" font-size="10" fill="#777777">M2M SETTLEMENTS</text>
    </g>
  </g>

  <text x="425" y="185" font-family="'Consolas', 'Fira Code', monospace" font-size="10" fill="#aaaaaa" opacity="0.6" text-anchor="middle">AXIOMID PROJECTED TARGETS (ILLUSTRATIVE): 2026-07-17 16:07:34 UTC // SECURE_HANDSHAKE</text>
</svg>