<svg width="850" height="200" viewBox="0 0 850 200" xmlns="http://www.w3.org/2000/svg">
  <defs>
    <pattern id="carbonFiber" width="10" height="10" patternUnits="userSpaceOnUse">
        <rect width="10" height="10" fill="#050505"/>
        <path d="M0,0 L5,5 L10,0 L5,-5 Z M5,5 L10,10 L15,5 L10,0 Z M-5,5 L0,10 L5,5 L0,0 Z M0,10 L5,15 L10,10 L5,5 Z" fill="#0d0d0d"/>
    </pattern>
    <filter id="textGlow">
      <feGaussianBlur stdDeviation="2" result="blur" />
      <feMerge>
        <feMergeNode in="blur"/>
        <feMergeNode in="SourceGraphic"/>
      </feMerge>
    </filter>
    <linearGradient id="neonBar" x1="0%" y1="0%" x2="100%" y2="0%">
        <stop offset="0%" stop-color="#111111"/>
        <stop offset="100%" stop-color="#39FF14"/>
    </linearGradient>
    <linearGradient id="scanlineGrad" x1="0%" y1="0%" x2="100%" y2="0%">
        <stop offset="0%" stop-color="#39FF14" stop-opacity="0"/>
        <stop offset="50%" stop-color="#39FF14" stop-opacity="0.18"/>
        <stop offset="100%" stop-color="#39FF14" stop-opacity="0"/>
    </linearGradient>
    <clipPath id="dashClip">
        <rect x="0" y="0" width="850" height="200" rx="12"/>
    </clipPath>
  </defs>

  <rect width="100%" height="100%" fill="url(#carbonFiber)" rx="12" stroke="#39FF14" stroke-width="1" stroke-opacity="0.3"/>
  <rect width="100%" height="100%" fill="#000000" opacity="0.6" rx="12" />
  <g><polygon points="261,160 269.6,165 269.6,175 261,180 252.4,175 252.4,165" fill="none" stroke="#39FF14" stroke-width="1" opacity="0.029320547923304192"/>
<polygon points="91,64 99.6,69 99.6,79 91,84 82.4,79 82.4,69" fill="none" stroke="#39FF14" stroke-width="1" opacity="0.03214152330189346"/>
<polygon points="389,-1 397.6,4 397.6,14 389,19 380.4,14 380.4,4" fill="none" stroke="#39FF14" stroke-width="1" opacity="0.027865976832906456"/>
<polygon points="829,83 837.6,88 837.6,98 829,103 820.4,98 820.4,88" fill="none" stroke="#39FF14" stroke-width="1" opacity="0.020282748120952362"/>
<polygon points="626,47 634.6,52 634.6,62 626,67 617.4,62 617.4,52" fill="none" stroke="#39FF14" stroke-width="1" opacity="0.020832487442117752"/>
<polygon points="635,13 643.6,18 643.6,28 635,33 626.4,28 626.4,18" fill="none" stroke="#39FF14" stroke-width="1" opacity="0.02452569897198275"/>
<polygon points="437,43 445.6,48 445.6,58 437,63 428.4,58 428.4,48" fill="none" stroke="#39FF14" stroke-width="1" opacity="0.04386873108500472"/>
<polygon points="499,178 507.6,183 507.6,193 499,198 490.4,193 490.4,183" fill="none" stroke="#39FF14" stroke-width="1" opacity="0.02266570199698563"/>
<polygon points="32,36 40.6,41 40.6,51 32,56 23.4,51 23.4,41" fill="none" stroke="#39FF14" stroke-width="1" opacity="0.05715127090721059"/>
<polygon points="779,164 787.6,169 787.6,179 779,184 770.4,179 770.4,169" fill="none" stroke="#39FF14" stroke-width="1" opacity="0.03576377952567019"/>
<polygon points="65,74 73.6,79 73.6,89 65,94 56.4,89 56.4,79" fill="none" stroke="#39FF14" stroke-width="1" opacity="0.04153080815276988"/>
<polygon points="65,160 73.6,165 73.6,175 65,180 56.4,175 56.4,165" fill="none" stroke="#39FF14" stroke-width="1" opacity="0.062496011996179976"/>
<polygon points="574,19 582.6,24 582.6,34 574,39 565.4,34 565.4,24" fill="none" stroke="#39FF14" stroke-width="1" opacity="0.05386616012485855"/>
<polygon points="563,0 571.6,5 571.6,15 563,20 554.4,15 554.4,5" fill="none" stroke="#39FF14" stroke-width="1" opacity="0.04866457481248526"/>
<polygon points="18,80 26.6,85 26.6,95 18,100 9.4,95 9.4,85" fill="none" stroke="#39FF14" stroke-width="1" opacity="0.06000051559823093"/>
<polygon points="88,167 96.6,172 96.6,182 88,187 79.4,182 79.4,172" fill="none" stroke="#39FF14" stroke-width="1" opacity="0.05365539167548089"/>
<polygon points="226,121 234.6,126 234.6,136 226,141 217.4,136 217.4,126" fill="none" stroke="#39FF14" stroke-width="1" opacity="0.0747464911525414"/>
<polygon points="142,102 150.6,107 150.6,117 142,122 133.4,117 133.4,107" fill="none" stroke="#39FF14" stroke-width="1" opacity="0.03686798924092214"/>
<polygon points="323,188 331.6,193 331.6,203 323,208 314.4,203 314.4,193" fill="none" stroke="#39FF14" stroke-width="1" opacity="0.027194716040077727"/>
<polygon points="601,50 609.6,55 609.6,65 601,70 592.4,65 592.4,55" fill="none" stroke="#39FF14" stroke-width="1" opacity="0.04029406092045982"/>
<polygon points="104,156 112.6,161 112.6,171 104,176 95.4,171 95.4,161" fill="none" stroke="#39FF14" stroke-width="1" opacity="0.07683444648542592"/>
<polygon points="482,99 490.6,104 490.6,114 482,119 473.4,114 473.4,104" fill="none" stroke="#39FF14" stroke-width="1" opacity="0.03519430958557354"/>
<polygon points="237,175 245.6,180 245.6,190 237,195 228.4,190 228.4,180" fill="none" stroke="#39FF14" stroke-width="1" opacity="0.04543733088100056"/>
<polygon points="381,4 389.6,9 389.6,19 381,24 372.4,19 372.4,9" fill="none" stroke="#39FF14" stroke-width="1" opacity="0.029513427841197773"/>
<polygon points="640,87 648.6,92 648.6,102 640,107 631.4,102 631.4,92" fill="none" stroke="#39FF14" stroke-width="1" opacity="0.0202076063974051"/>
<polygon points="791,73 799.6,78 799.6,88 791,93 782.4,88 782.4,78" fill="none" stroke="#39FF14" stroke-width="1" opacity="0.055793110262953236"/>
<polygon points="735,174 743.6,179 743.6,189 735,194 726.4,189 726.4,179" fill="none" stroke="#39FF14" stroke-width="1" opacity="0.07967930405497775"/>
<polygon points="535,189 543.6,194 543.6,204 535,209 526.4,204 526.4,194" fill="none" stroke="#39FF14" stroke-width="1" opacity="0.059401644458790245"/>
<polygon points="304,111 312.6,116 312.6,126 304,131 295.4,126 295.4,116" fill="none" stroke="#39FF14" stroke-width="1" opacity="0.020050972651146633"/>
<polygon points="513,184 521.6,189 521.6,199 513,204 504.4,199 504.4,189" fill="none" stroke="#39FF14" stroke-width="1" opacity="0.040111325615285215"/>
</g>

  <!-- HUD Decorative elements -->
  <path d="M 20 20 L 40 20 L 50 30" fill="none" stroke="#39FF14" stroke-width="2" opacity="0.5"/>
  <path d="M 830 180 L 810 180 L 800 170" fill="none" stroke="#39FF14" stroke-width="2" opacity="0.5"/>

  <g clip-path="url(#dashClip)">
    <rect x="-160" y="0" width="160" height="200" fill="url(#scanlineGrad)">
      <animateTransform attributeName="transform" type="translate"
                        from="0 0" to="1010 0" dur="6s" repeatCount="indefinite"/>
    </rect>
  </g>

  <g font-family="'Consolas', 'Fira Code', monospace" text-anchor="middle">

    <!-- NETWORK STATUS -->
    <g transform="translate(130, 100)">
        <circle cx="0" cy="0" r="45" fill="none" stroke="#39FF14" stroke-width="2" stroke-dasharray="10 5">
            <animateTransform attributeName="transform" type="rotate" from="0" to="360" dur="10s" repeatCount="indefinite"/>
        </circle>
        <circle cx="0" cy="0" r="35" fill="#0d0d0d" />
        <text x="0" y="-60" font-size="12" fill="#aaaaaa" letter-spacing="2">ROOT.AUTH</text>
        <text x="0" y="70" font-size="14" fill="#ffffff" font-weight="bold">OPERATIONAL</text>
    </g>

    <!-- ACTIVE USERS -->
    <g transform="translate(330, 100)">
        <text x="0" y="-20" font-size="12" fill="#aaaaaa">CITIZENS</text>
        <text x="0" y="15" font-size="28" fill="#ffffff" font-weight="bold" filter="url(#textGlow)">14,379</text>
        <text x="0" y="35" font-size="10" fill="#777777">VERIFIED HUMANS</text>
    </g>

    <!-- REGISTERED AGENTS -->
    <g transform="translate(530, 100)">
        <text x="0" y="-20" font-size="12" fill="#aaaaaa">AGENTS</text>
        <text x="0" y="15" font-size="28" fill="#00d4ff" font-weight="bold" filter="url(#textGlow)">3,519</text>
        <text x="0" y="35" font-size="10" fill="#777777">REGISTERED DIDs</text>
    </g>

    <!-- TRANSACTIONS -->
    <g transform="translate(730, 100)">
        <text x="0" y="-20" font-size="12" fill="#aaaaaa">TRANSFERS</text>
        <text x="0" y="15" font-size="28" fill="#ffffff" font-weight="bold">28,018</text>
        <text x="0" y="35" font-size="10" fill="#777777">M2M SETTLEMENTS</text>
    </g>
  </g>

  <text x="425" y="185" font-family="'Consolas', 'Fira Code', monospace" font-size="10" fill="#aaaaaa" opacity="0.6" text-anchor="middle">AXIOMID PROJECTED TARGETS (ILLUSTRATIVE): 2026-06-25 12:43:56 UTC // SECURE_HANDSHAKE</text>
</svg>