<svg width="850" height="200" viewBox="0 0 850 200" xmlns="http://www.w3.org/2000/svg">
  <defs>
    <pattern id="carbonFiber" width="10" height="10" patternUnits="userSpaceOnUse">
        <rect width="10" height="10" fill="#050505"/>
        <path d="M0,0 L5,5 L10,0 L5,-5 Z M5,5 L10,10 L15,5 L10,0 Z M-5,5 L0,10 L5,5 L0,0 Z M0,10 L5,15 L10,10 L5,5 Z" fill="#0d0d0d"/>
    </pattern>
    <filter id="textGlow">
      <feGaussianBlur stdDeviation="2" result="blur" />
      <feMerge>
        <feMergeNode in="blur"/>
        <feMergeNode in="SourceGraphic"/>
      </feMerge>
    </filter>
    <linearGradient id="neonBar" x1="0%" y1="0%" x2="100%" y2="0%">
        <stop offset="0%" stop-color="#111111"/>
        <stop offset="100%" stop-color="#39FF14"/>
    </linearGradient>
    <linearGradient id="scanlineGrad" x1="0%" y1="0%" x2="100%" y2="0%">
        <stop offset="0%" stop-color="#39FF14" stop-opacity="0"/>
        <stop offset="50%" stop-color="#39FF14" stop-opacity="0.18"/>
        <stop offset="100%" stop-color="#39FF14" stop-opacity="0"/>
    </linearGradient>
    <clipPath id="dashClip">
        <rect x="0" y="0" width="850" height="200" rx="12"/>
    </clipPath>
  </defs>

  <rect width="100%" height="100%" fill="url(#carbonFiber)" rx="12" stroke="#39FF14" stroke-width="1" stroke-opacity="0.3"/>
  <rect width="100%" height="100%" fill="#000000" opacity="0.6" rx="12" />
  <g><polygon points="611,100 619.6,105 619.6,115 611,120 602.4,115 602.4,105" fill="none" stroke="#39FF14" stroke-width="1" opacity="0.05001133303594382"/>
<polygon points="214,25 222.6,30 222.6,40 214,45 205.4,40 205.4,30" fill="none" stroke="#39FF14" stroke-width="1" opacity="0.03545451441130662"/>
<polygon points="211,68 219.6,73 219.6,83 211,88 202.4,83 202.4,73" fill="none" stroke="#39FF14" stroke-width="1" opacity="0.04911055665705204"/>
<polygon points="652,36 660.6,41 660.6,51 652,56 643.4,51 643.4,41" fill="none" stroke="#39FF14" stroke-width="1" opacity="0.028798123143436577"/>
<polygon points="116,21 124.6,26 124.6,36 116,41 107.4,36 107.4,26" fill="none" stroke="#39FF14" stroke-width="1" opacity="0.04625632834326972"/>
<polygon points="664,118 672.6,123 672.6,133 664,138 655.4,133 655.4,123" fill="none" stroke="#39FF14" stroke-width="1" opacity="0.05723725301224114"/>
<polygon points="419,70 427.6,75 427.6,85 419,90 410.4,85 410.4,75" fill="none" stroke="#39FF14" stroke-width="1" opacity="0.06712465341012853"/>
<polygon points="514,15 522.6,20 522.6,30 514,35 505.4,30 505.4,20" fill="none" stroke="#39FF14" stroke-width="1" opacity="0.06828098021594921"/>
<polygon points="282,171 290.6,176 290.6,186 282,191 273.4,186 273.4,176" fill="none" stroke="#39FF14" stroke-width="1" opacity="0.0580855385337949"/>
<polygon points="223,96 231.6,101 231.6,111 223,116 214.4,111 214.4,101" fill="none" stroke="#39FF14" stroke-width="1" opacity="0.04052396137651203"/>
<polygon points="124,92 132.6,97 132.6,107 124,112 115.4,107 115.4,97" fill="none" stroke="#39FF14" stroke-width="1" opacity="0.049850740586087905"/>
<polygon points="272,41 280.6,46 280.6,56 272,61 263.4,56 263.4,46" fill="none" stroke="#39FF14" stroke-width="1" opacity="0.02242529237269494"/>
<polygon points="116,17 124.6,22 124.6,32 116,37 107.4,32 107.4,22" fill="none" stroke="#39FF14" stroke-width="1" opacity="0.050110457353977504"/>
<polygon points="197,121 205.6,126 205.6,136 197,141 188.4,136 188.4,126" fill="none" stroke="#39FF14" stroke-width="1" opacity="0.04079710039405674"/>
<polygon points="264,77 272.6,82 272.6,92 264,97 255.4,92 255.4,82" fill="none" stroke="#39FF14" stroke-width="1" opacity="0.05321137176634226"/>
<polygon points="558,160 566.6,165 566.6,175 558,180 549.4,175 549.4,165" fill="none" stroke="#39FF14" stroke-width="1" opacity="0.03632951262515651"/>
<polygon points="569,90 577.6,95 577.6,105 569,110 560.4,105 560.4,95" fill="none" stroke="#39FF14" stroke-width="1" opacity="0.0715800971009219"/>
<polygon points="540,145 548.6,150 548.6,160 540,165 531.4,160 531.4,150" fill="none" stroke="#39FF14" stroke-width="1" opacity="0.07194505879021505"/>
<polygon points="338,181 346.6,186 346.6,196 338,201 329.4,196 329.4,186" fill="none" stroke="#39FF14" stroke-width="1" opacity="0.07464360125333579"/>
<polygon points="341,13 349.6,18 349.6,28 341,33 332.4,28 332.4,18" fill="none" stroke="#39FF14" stroke-width="1" opacity="0.030688107134802058"/>
<polygon points="162,60 170.6,65 170.6,75 162,80 153.4,75 153.4,65" fill="none" stroke="#39FF14" stroke-width="1" opacity="0.038275881998168046"/>
<polygon points="342,99 350.6,104 350.6,114 342,119 333.4,114 333.4,104" fill="none" stroke="#39FF14" stroke-width="1" opacity="0.050055029709233964"/>
<polygon points="372,162 380.6,167 380.6,177 372,182 363.4,177 363.4,167" fill="none" stroke="#39FF14" stroke-width="1" opacity="0.02058435799666529"/>
<polygon points="65,179 73.6,184 73.6,194 65,199 56.4,194 56.4,184" fill="none" stroke="#39FF14" stroke-width="1" opacity="0.07061771811387425"/>
<polygon points="485,88 493.6,93 493.6,103 485,108 476.4,103 476.4,93" fill="none" stroke="#39FF14" stroke-width="1" opacity="0.06034843384796901"/>
<polygon points="428,13 436.6,18 436.6,28 428,33 419.4,28 419.4,18" fill="none" stroke="#39FF14" stroke-width="1" opacity="0.05718578520294264"/>
<polygon points="682,146 690.6,151 690.6,161 682,166 673.4,161 673.4,151" fill="none" stroke="#39FF14" stroke-width="1" opacity="0.038860919205670544"/>
<polygon points="230,162 238.6,167 238.6,177 230,182 221.4,177 221.4,167" fill="none" stroke="#39FF14" stroke-width="1" opacity="0.03082162250859498"/>
<polygon points="172,87 180.6,92 180.6,102 172,107 163.4,102 163.4,92" fill="none" stroke="#39FF14" stroke-width="1" opacity="0.05951783598960955"/>
<polygon points="733,26 741.6,31 741.6,41 733,46 724.4,41 724.4,31" fill="none" stroke="#39FF14" stroke-width="1" opacity="0.050004907811741856"/>
</g>

  <!-- HUD Decorative elements -->
  <path d="M 20 20 L 40 20 L 50 30" fill="none" stroke="#39FF14" stroke-width="2" opacity="0.5"/>
  <path d="M 830 180 L 810 180 L 800 170" fill="none" stroke="#39FF14" stroke-width="2" opacity="0.5"/>

  <g clip-path="url(#dashClip)">
    <rect x="-160" y="0" width="160" height="200" fill="url(#scanlineGrad)">
      <animateTransform attributeName="transform" type="translate"
                        from="0 0" to="1010 0" dur="6s" repeatCount="indefinite"/>
    </rect>
  </g>

  <g font-family="'Consolas', 'Fira Code', monospace" text-anchor="middle">

    <!-- NETWORK STATUS -->
    <g transform="translate(130, 100)">
        <circle cx="0" cy="0" r="45" fill="none" stroke="#39FF14" stroke-width="2" stroke-dasharray="10 5">
            <animateTransform attributeName="transform" type="rotate" from="0" to="360" dur="10s" repeatCount="indefinite"/>
        </circle>
        <circle cx="0" cy="0" r="35" fill="#0d0d0d" />
        <text x="0" y="-60" font-size="12" fill="#aaaaaa" letter-spacing="2">ROOT.AUTH</text>
        <text x="0" y="70" font-size="14" fill="#ffffff" font-weight="bold">OPERATIONAL</text>
    </g>

    <!-- ACTIVE USERS -->
    <g transform="translate(330, 100)">
        <text x="0" y="-20" font-size="12" fill="#aaaaaa">CITIZENS</text>
        <text x="0" y="15" font-size="28" fill="#ffffff" font-weight="bold" filter="url(#textGlow)">14,677</text>
        <text x="0" y="35" font-size="10" fill="#777777">VERIFIED HUMANS</text>
    </g>

    <!-- REGISTERED AGENTS -->
    <g transform="translate(530, 100)">
        <text x="0" y="-20" font-size="12" fill="#aaaaaa">AGENTS</text>
        <text x="0" y="15" font-size="28" fill="#00d4ff" font-weight="bold" filter="url(#textGlow)">4,508</text>
        <text x="0" y="35" font-size="10" fill="#777777">REGISTERED DIDs</text>
    </g>

    <!-- TRANSACTIONS -->
    <g transform="translate(730, 100)">
        <text x="0" y="-20" font-size="12" fill="#aaaaaa">TRANSFERS</text>
        <text x="0" y="15" font-size="28" fill="#ffffff" font-weight="bold">35,074</text>
        <text x="0" y="35" font-size="10" fill="#777777">M2M SETTLEMENTS</text>
    </g>
  </g>

  <text x="425" y="185" font-family="'Consolas', 'Fira Code', monospace" font-size="10" fill="#aaaaaa" opacity="0.6" text-anchor="middle">AXIOMID PROJECTED TARGETS (ILLUSTRATIVE): 2026-06-26 15:44:03 UTC // SECURE_HANDSHAKE</text>
</svg>