<svg width="850" height="200" viewBox="0 0 850 200" xmlns="http://www.w3.org/2000/svg">
  <defs>
    <pattern id="carbonFiber" width="10" height="10" patternUnits="userSpaceOnUse">
        <rect width="10" height="10" fill="#050505"/>
        <path d="M0,0 L5,5 L10,0 L5,-5 Z M5,5 L10,10 L15,5 L10,0 Z M-5,5 L0,10 L5,5 L0,0 Z M0,10 L5,15 L10,10 L5,5 Z" fill="#0d0d0d"/>
    </pattern>
    <filter id="textGlow">
      <feGaussianBlur stdDeviation="2" result="blur" />
      <feMerge>
        <feMergeNode in="blur"/>
        <feMergeNode in="SourceGraphic"/>
      </feMerge>
    </filter>
    <linearGradient id="neonBar" x1="0%" y1="0%" x2="100%" y2="0%">
        <stop offset="0%" stop-color="#111111"/>
        <stop offset="100%" stop-color="#39FF14"/>
    </linearGradient>
    <linearGradient id="scanlineGrad" x1="0%" y1="0%" x2="100%" y2="0%">
        <stop offset="0%" stop-color="#39FF14" stop-opacity="0"/>
        <stop offset="50%" stop-color="#39FF14" stop-opacity="0.18"/>
        <stop offset="100%" stop-color="#39FF14" stop-opacity="0"/>
    </linearGradient>
    <clipPath id="dashClip">
        <rect x="0" y="0" width="850" height="200" rx="12"/>
    </clipPath>
  </defs>

  <rect width="100%" height="100%" fill="url(#carbonFiber)" rx="12" stroke="#39FF14" stroke-width="1" stroke-opacity="0.3"/>
  <rect width="100%" height="100%" fill="#000000" opacity="0.6" rx="12" />
  <g><polygon points="155,19 163.6,24 163.6,34 155,39 146.4,34 146.4,24" fill="none" stroke="#39FF14" stroke-width="1" opacity="0.059920031788639416"/>
<polygon points="562,99 570.6,104 570.6,114 562,119 553.4,114 553.4,104" fill="none" stroke="#39FF14" stroke-width="1" opacity="0.05758561011571113"/>
<polygon points="324,95 332.6,100 332.6,110 324,115 315.4,110 315.4,100" fill="none" stroke="#39FF14" stroke-width="1" opacity="0.02439972694729233"/>
<polygon points="425,37 433.6,42 433.6,52 425,57 416.4,52 416.4,42" fill="none" stroke="#39FF14" stroke-width="1" opacity="0.031139927627489933"/>
<polygon points="117,178 125.6,183 125.6,193 117,198 108.4,193 108.4,183" fill="none" stroke="#39FF14" stroke-width="1" opacity="0.025680436890860123"/>
<polygon points="768,157 776.6,162 776.6,172 768,177 759.4,172 759.4,162" fill="none" stroke="#39FF14" stroke-width="1" opacity="0.0729008156956659"/>
<polygon points="58,112 66.6,117 66.6,127 58,132 49.4,127 49.4,117" fill="none" stroke="#39FF14" stroke-width="1" opacity="0.04059634917179114"/>
<polygon points="402,114 410.6,119 410.6,129 402,134 393.4,129 393.4,119" fill="none" stroke="#39FF14" stroke-width="1" opacity="0.07694111572833856"/>
<polygon points="430,80 438.6,85 438.6,95 430,100 421.4,95 421.4,85" fill="none" stroke="#39FF14" stroke-width="1" opacity="0.024846764701849277"/>
<polygon points="37,68 45.6,73 45.6,83 37,88 28.4,83 28.4,73" fill="none" stroke="#39FF14" stroke-width="1" opacity="0.02950439862243324"/>
<polygon points="437,97 445.6,102 445.6,112 437,117 428.4,112 428.4,102" fill="none" stroke="#39FF14" stroke-width="1" opacity="0.06594398798211723"/>
<polygon points="368,7 376.6,12 376.6,22 368,27 359.4,22 359.4,12" fill="none" stroke="#39FF14" stroke-width="1" opacity="0.0564782420302259"/>
<polygon points="589,81 597.6,86 597.6,96 589,101 580.4,96 580.4,86" fill="none" stroke="#39FF14" stroke-width="1" opacity="0.027320828530548163"/>
<polygon points="132,42 140.6,47 140.6,57 132,62 123.4,57 123.4,47" fill="none" stroke="#39FF14" stroke-width="1" opacity="0.02460480421928566"/>
<polygon points="212,62 220.6,67 220.6,77 212,82 203.4,77 203.4,67" fill="none" stroke="#39FF14" stroke-width="1" opacity="0.0525384746289642"/>
<polygon points="550,120 558.6,125 558.6,135 550,140 541.4,135 541.4,125" fill="none" stroke="#39FF14" stroke-width="1" opacity="0.07258721534217229"/>
<polygon points="113,14 121.6,19 121.6,29 113,34 104.4,29 104.4,19" fill="none" stroke="#39FF14" stroke-width="1" opacity="0.020792617301413293"/>
<polygon points="687,149 695.6,154 695.6,164 687,169 678.4,164 678.4,154" fill="none" stroke="#39FF14" stroke-width="1" opacity="0.05290649551326096"/>
<polygon points="316,12 324.6,17 324.6,27 316,32 307.4,27 307.4,17" fill="none" stroke="#39FF14" stroke-width="1" opacity="0.03457419243162033"/>
<polygon points="53,7 61.6,12 61.6,22 53,27 44.4,22 44.4,12" fill="none" stroke="#39FF14" stroke-width="1" opacity="0.045240381760813436"/>
<polygon points="152,39 160.6,44 160.6,54 152,59 143.4,54 143.4,44" fill="none" stroke="#39FF14" stroke-width="1" opacity="0.05963128970340627"/>
<polygon points="156,99 164.6,104 164.6,114 156,119 147.4,114 147.4,104" fill="none" stroke="#39FF14" stroke-width="1" opacity="0.071367485259567"/>
<polygon points="764,135 772.6,140 772.6,150 764,155 755.4,150 755.4,140" fill="none" stroke="#39FF14" stroke-width="1" opacity="0.06629408046606983"/>
<polygon points="124,180 132.6,185 132.6,195 124,200 115.4,195 115.4,185" fill="none" stroke="#39FF14" stroke-width="1" opacity="0.04202663535319303"/>
<polygon points="98,130 106.6,135 106.6,145 98,150 89.4,145 89.4,135" fill="none" stroke="#39FF14" stroke-width="1" opacity="0.03398180732207248"/>
<polygon points="49,123 57.6,128 57.6,138 49,143 40.4,138 40.4,128" fill="none" stroke="#39FF14" stroke-width="1" opacity="0.03646359015528022"/>
<polygon points="305,106 313.6,111 313.6,121 305,126 296.4,121 296.4,111" fill="none" stroke="#39FF14" stroke-width="1" opacity="0.03445869123488962"/>
<polygon points="315,73 323.6,78 323.6,88 315,93 306.4,88 306.4,78" fill="none" stroke="#39FF14" stroke-width="1" opacity="0.0252578981430061"/>
<polygon points="734,22 742.6,27 742.6,37 734,42 725.4,37 725.4,27" fill="none" stroke="#39FF14" stroke-width="1" opacity="0.0423986584853852"/>
<polygon points="722,-9 730.6,-4 730.6,6 722,11 713.4,6 713.4,-4" fill="none" stroke="#39FF14" stroke-width="1" opacity="0.04781295916456713"/>
</g>

  <!-- HUD Decorative elements -->
  <path d="M 20 20 L 40 20 L 50 30" fill="none" stroke="#39FF14" stroke-width="2" opacity="0.5"/>
  <path d="M 830 180 L 810 180 L 800 170" fill="none" stroke="#39FF14" stroke-width="2" opacity="0.5"/>

  <g clip-path="url(#dashClip)">
    <rect x="-160" y="0" width="160" height="200" fill="url(#scanlineGrad)">
      <animateTransform attributeName="transform" type="translate"
                        from="0 0" to="1010 0" dur="6s" repeatCount="indefinite"/>
    </rect>
  </g>

  <g font-family="'Consolas', 'Fira Code', monospace" text-anchor="middle">

    <!-- NETWORK STATUS -->
    <g transform="translate(130, 100)">
        <circle cx="0" cy="0" r="45" fill="none" stroke="#39FF14" stroke-width="2" stroke-dasharray="10 5">
            <animateTransform attributeName="transform" type="rotate" from="0" to="360" dur="10s" repeatCount="indefinite"/>
        </circle>
        <circle cx="0" cy="0" r="35" fill="#0d0d0d" />
        <text x="0" y="-60" font-size="12" fill="#aaaaaa" letter-spacing="2">ROOT.AUTH</text>
        <text x="0" y="70" font-size="14" fill="#ffffff" font-weight="bold">OPERATIONAL</text>
    </g>

    <!-- ACTIVE USERS -->
    <g transform="translate(330, 100)">
        <text x="0" y="-20" font-size="12" fill="#aaaaaa">CITIZENS</text>
        <text x="0" y="15" font-size="28" fill="#ffffff" font-weight="bold" filter="url(#textGlow)">13,234</text>
        <text x="0" y="35" font-size="10" fill="#777777">VERIFIED HUMANS</text>
    </g>

    <!-- REGISTERED AGENTS -->
    <g transform="translate(530, 100)">
        <text x="0" y="-20" font-size="12" fill="#aaaaaa">AGENTS</text>
        <text x="0" y="15" font-size="28" fill="#00d4ff" font-weight="bold" filter="url(#textGlow)">3,667</text>
        <text x="0" y="35" font-size="10" fill="#777777">REGISTERED DIDs</text>
    </g>

    <!-- TRANSACTIONS -->
    <g transform="translate(730, 100)">
        <text x="0" y="-20" font-size="12" fill="#aaaaaa">TRANSFERS</text>
        <text x="0" y="15" font-size="28" fill="#ffffff" font-weight="bold">31,850</text>
        <text x="0" y="35" font-size="10" fill="#777777">M2M SETTLEMENTS</text>
    </g>
  </g>

  <text x="425" y="185" font-family="'Consolas', 'Fira Code', monospace" font-size="10" fill="#aaaaaa" opacity="0.6" text-anchor="middle">AXIOMID PROJECTED TARGETS (ILLUSTRATIVE): 2026-07-23 11:00:05 UTC // SECURE_HANDSHAKE</text>
</svg>