<svg width="850" height="200" viewBox="0 0 850 200" xmlns="http://www.w3.org/2000/svg">
  <defs>
    <pattern id="carbonFiber" width="10" height="10" patternUnits="userSpaceOnUse">
        <rect width="10" height="10" fill="#050505"/>
        <path d="M0,0 L5,5 L10,0 L5,-5 Z M5,5 L10,10 L15,5 L10,0 Z M-5,5 L0,10 L5,5 L0,0 Z M0,10 L5,15 L10,10 L5,5 Z" fill="#0d0d0d"/>
    </pattern>
    <filter id="textGlow">
      <feGaussianBlur stdDeviation="2" result="blur" />
      <feMerge>
        <feMergeNode in="blur"/>
        <feMergeNode in="SourceGraphic"/>
      </feMerge>
    </filter>
    <linearGradient id="neonBar" x1="0%" y1="0%" x2="100%" y2="0%">
        <stop offset="0%" stop-color="#111111"/>
        <stop offset="100%" stop-color="#39FF14"/>
    </linearGradient>
    <linearGradient id="scanlineGrad" x1="0%" y1="0%" x2="100%" y2="0%">
        <stop offset="0%" stop-color="#39FF14" stop-opacity="0"/>
        <stop offset="50%" stop-color="#39FF14" stop-opacity="0.18"/>
        <stop offset="100%" stop-color="#39FF14" stop-opacity="0"/>
    </linearGradient>
    <clipPath id="dashClip">
        <rect x="0" y="0" width="850" height="200" rx="12"/>
    </clipPath>
  </defs>

  <rect width="100%" height="100%" fill="url(#carbonFiber)" rx="12" stroke="#39FF14" stroke-width="1" stroke-opacity="0.3"/>
  <rect width="100%" height="100%" fill="#000000" opacity="0.6" rx="12" />
  <g><polygon points="785,179 793.6,184 793.6,194 785,199 776.4,194 776.4,184" fill="none" stroke="#39FF14" stroke-width="1" opacity="0.05371098078811487"/>
<polygon points="397,51 405.6,56 405.6,66 397,71 388.4,66 388.4,56" fill="none" stroke="#39FF14" stroke-width="1" opacity="0.053921691701292726"/>
<polygon points="601,42 609.6,47 609.6,57 601,62 592.4,57 592.4,47" fill="none" stroke="#39FF14" stroke-width="1" opacity="0.03403400288097385"/>
<polygon points="125,33 133.6,38 133.6,48 125,53 116.4,48 116.4,38" fill="none" stroke="#39FF14" stroke-width="1" opacity="0.03314666742137401"/>
<polygon points="193,78 201.6,83 201.6,93 193,98 184.4,93 184.4,83" fill="none" stroke="#39FF14" stroke-width="1" opacity="0.03137893293389817"/>
<polygon points="45,86 53.6,91 53.6,101 45,106 36.4,101 36.4,91" fill="none" stroke="#39FF14" stroke-width="1" opacity="0.04762190649821804"/>
<polygon points="749,59 757.6,64 757.6,74 749,79 740.4,74 740.4,64" fill="none" stroke="#39FF14" stroke-width="1" opacity="0.07562437217353621"/>
<polygon points="594,183 602.6,188 602.6,198 594,203 585.4,198 585.4,188" fill="none" stroke="#39FF14" stroke-width="1" opacity="0.06704861370092871"/>
<polygon points="358,141 366.6,146 366.6,156 358,161 349.4,156 349.4,146" fill="none" stroke="#39FF14" stroke-width="1" opacity="0.05712979404858498"/>
<polygon points="92,98 100.6,103 100.6,113 92,118 83.4,113 83.4,103" fill="none" stroke="#39FF14" stroke-width="1" opacity="0.06949623969585522"/>
<polygon points="205,4 213.6,9 213.6,19 205,24 196.4,19 196.4,9" fill="none" stroke="#39FF14" stroke-width="1" opacity="0.06299621461313097"/>
<polygon points="152,140 160.6,145 160.6,155 152,160 143.4,155 143.4,145" fill="none" stroke="#39FF14" stroke-width="1" opacity="0.07657381845917266"/>
<polygon points="757,106 765.6,111 765.6,121 757,126 748.4,121 748.4,111" fill="none" stroke="#39FF14" stroke-width="1" opacity="0.04456770357713381"/>
<polygon points="638,151 646.6,156 646.6,166 638,171 629.4,166 629.4,156" fill="none" stroke="#39FF14" stroke-width="1" opacity="0.0560854629881454"/>
<polygon points="480,61 488.6,66 488.6,76 480,81 471.4,76 471.4,66" fill="none" stroke="#39FF14" stroke-width="1" opacity="0.061622352790162954"/>
<polygon points="86,82 94.6,87 94.6,97 86,102 77.4,97 77.4,87" fill="none" stroke="#39FF14" stroke-width="1" opacity="0.03537704422887032"/>
<polygon points="383,109 391.6,114 391.6,124 383,129 374.4,124 374.4,114" fill="none" stroke="#39FF14" stroke-width="1" opacity="0.03006432841496646"/>
<polygon points="325,95 333.6,100 333.6,110 325,115 316.4,110 316.4,100" fill="none" stroke="#39FF14" stroke-width="1" opacity="0.03257981085785408"/>
<polygon points="348,136 356.6,141 356.6,151 348,156 339.4,151 339.4,141" fill="none" stroke="#39FF14" stroke-width="1" opacity="0.054284706314493864"/>
<polygon points="741,164 749.6,169 749.6,179 741,184 732.4,179 732.4,169" fill="none" stroke="#39FF14" stroke-width="1" opacity="0.047343563494364846"/>
<polygon points="434,19 442.6,24 442.6,34 434,39 425.4,34 425.4,24" fill="none" stroke="#39FF14" stroke-width="1" opacity="0.044838062655342056"/>
<polygon points="825,80 833.6,85 833.6,95 825,100 816.4,95 816.4,85" fill="none" stroke="#39FF14" stroke-width="1" opacity="0.049482243523685666"/>
<polygon points="526,78 534.6,83 534.6,93 526,98 517.4,93 517.4,83" fill="none" stroke="#39FF14" stroke-width="1" opacity="0.03706204567502976"/>
<polygon points="752,160 760.6,165 760.6,175 752,180 743.4,175 743.4,165" fill="none" stroke="#39FF14" stroke-width="1" opacity="0.02390251341869674"/>
<polygon points="707,187 715.6,192 715.6,202 707,207 698.4,202 698.4,192" fill="none" stroke="#39FF14" stroke-width="1" opacity="0.07770686523487833"/>
<polygon points="314,60 322.6,65 322.6,75 314,80 305.4,75 305.4,65" fill="none" stroke="#39FF14" stroke-width="1" opacity="0.024062479968422333"/>
<polygon points="77,85 85.6,90 85.6,100 77,105 68.4,100 68.4,90" fill="none" stroke="#39FF14" stroke-width="1" opacity="0.027110255537976115"/>
<polygon points="694,68 702.6,73 702.6,83 694,88 685.4,83 685.4,73" fill="none" stroke="#39FF14" stroke-width="1" opacity="0.07731038658964808"/>
<polygon points="131,67 139.6,72 139.6,82 131,87 122.4,82 122.4,72" fill="none" stroke="#39FF14" stroke-width="1" opacity="0.022017551148625816"/>
<polygon points="514,68 522.6,73 522.6,83 514,88 505.4,83 505.4,73" fill="none" stroke="#39FF14" stroke-width="1" opacity="0.047308039650907824"/>
</g>

  <!-- HUD Decorative elements -->
  <path d="M 20 20 L 40 20 L 50 30" fill="none" stroke="#39FF14" stroke-width="2" opacity="0.5"/>
  <path d="M 830 180 L 810 180 L 800 170" fill="none" stroke="#39FF14" stroke-width="2" opacity="0.5"/>

  <g clip-path="url(#dashClip)">
    <rect x="-160" y="0" width="160" height="200" fill="url(#scanlineGrad)">
      <animateTransform attributeName="transform" type="translate"
                        from="0 0" to="1010 0" dur="6s" repeatCount="indefinite"/>
    </rect>
  </g>

  <g font-family="'Consolas', 'Fira Code', monospace" text-anchor="middle">

    <!-- NETWORK STATUS -->
    <g transform="translate(130, 100)">
        <circle cx="0" cy="0" r="45" fill="none" stroke="#39FF14" stroke-width="2" stroke-dasharray="10 5">
            <animateTransform attributeName="transform" type="rotate" from="0" to="360" dur="10s" repeatCount="indefinite"/>
        </circle>
        <circle cx="0" cy="0" r="35" fill="#0d0d0d" />
        <text x="0" y="-60" font-size="12" fill="#aaaaaa" letter-spacing="2">ROOT.AUTH</text>
        <text x="0" y="70" font-size="14" fill="#ffffff" font-weight="bold">OPERATIONAL</text>
    </g>

    <!-- ACTIVE USERS -->
    <g transform="translate(330, 100)">
        <text x="0" y="-20" font-size="12" fill="#aaaaaa">CITIZENS</text>
        <text x="0" y="15" font-size="28" fill="#ffffff" font-weight="bold" filter="url(#textGlow)">12,628</text>
        <text x="0" y="35" font-size="10" fill="#777777">VERIFIED HUMANS</text>
    </g>

    <!-- REGISTERED AGENTS -->
    <g transform="translate(530, 100)">
        <text x="0" y="-20" font-size="12" fill="#aaaaaa">AGENTS</text>
        <text x="0" y="15" font-size="28" fill="#00d4ff" font-weight="bold" filter="url(#textGlow)">4,449</text>
        <text x="0" y="35" font-size="10" fill="#777777">REGISTERED DIDs</text>
    </g>

    <!-- TRANSACTIONS -->
    <g transform="translate(730, 100)">
        <text x="0" y="-20" font-size="12" fill="#aaaaaa">TRANSFERS</text>
        <text x="0" y="15" font-size="28" fill="#ffffff" font-weight="bold">25,867</text>
        <text x="0" y="35" font-size="10" fill="#777777">M2M SETTLEMENTS</text>
    </g>
  </g>

  <text x="425" y="185" font-family="'Consolas', 'Fira Code', monospace" font-size="10" fill="#aaaaaa" opacity="0.6" text-anchor="middle">AXIOMID PROJECTED TARGETS (ILLUSTRATIVE): 2026-07-02 21:59:06 UTC // SECURE_HANDSHAKE</text>
</svg>