<svg width="850" height="200" viewBox="0 0 850 200" xmlns="http://www.w3.org/2000/svg">
  <defs>
    <pattern id="carbonFiber" width="10" height="10" patternUnits="userSpaceOnUse">
        <rect width="10" height="10" fill="#050505"/>
        <path d="M0,0 L5,5 L10,0 L5,-5 Z M5,5 L10,10 L15,5 L10,0 Z M-5,5 L0,10 L5,5 L0,0 Z M0,10 L5,15 L10,10 L5,5 Z" fill="#0d0d0d"/>
    </pattern>
    <filter id="textGlow">
      <feGaussianBlur stdDeviation="2" result="blur" />
      <feMerge>
        <feMergeNode in="blur"/>
        <feMergeNode in="SourceGraphic"/>
      </feMerge>
    </filter>
    <linearGradient id="neonBar" x1="0%" y1="0%" x2="100%" y2="0%">
        <stop offset="0%" stop-color="#111111"/>
        <stop offset="100%" stop-color="#39FF14"/>
    </linearGradient>
    <linearGradient id="scanlineGrad" x1="0%" y1="0%" x2="100%" y2="0%">
        <stop offset="0%" stop-color="#39FF14" stop-opacity="0"/>
        <stop offset="50%" stop-color="#39FF14" stop-opacity="0.18"/>
        <stop offset="100%" stop-color="#39FF14" stop-opacity="0"/>
    </linearGradient>
    <clipPath id="dashClip">
        <rect x="0" y="0" width="850" height="200" rx="12"/>
    </clipPath>
  </defs>

  <rect width="100%" height="100%" fill="url(#carbonFiber)" rx="12" stroke="#39FF14" stroke-width="1" stroke-opacity="0.3"/>
  <rect width="100%" height="100%" fill="#000000" opacity="0.6" rx="12" />
  <g><polygon points="720,157 728.6,162 728.6,172 720,177 711.4,172 711.4,162" fill="none" stroke="#39FF14" stroke-width="1" opacity="0.03562403860161256"/>
<polygon points="742,173 750.6,178 750.6,188 742,193 733.4,188 733.4,178" fill="none" stroke="#39FF14" stroke-width="1" opacity="0.049862501003272386"/>
<polygon points="556,125 564.6,130 564.6,140 556,145 547.4,140 547.4,130" fill="none" stroke="#39FF14" stroke-width="1" opacity="0.03382626303501297"/>
<polygon points="511,18 519.6,23 519.6,33 511,38 502.4,33 502.4,23" fill="none" stroke="#39FF14" stroke-width="1" opacity="0.0643881464886007"/>
<polygon points="759,70 767.6,75 767.6,85 759,90 750.4,85 750.4,75" fill="none" stroke="#39FF14" stroke-width="1" opacity="0.0627578487642204"/>
<polygon points="358,55 366.6,60 366.6,70 358,75 349.4,70 349.4,60" fill="none" stroke="#39FF14" stroke-width="1" opacity="0.05795341087978505"/>
<polygon points="373,48 381.6,53 381.6,63 373,68 364.4,63 364.4,53" fill="none" stroke="#39FF14" stroke-width="1" opacity="0.05700176189733043"/>
<polygon points="17,146 25.6,151 25.6,161 17,166 8.4,161 8.4,151" fill="none" stroke="#39FF14" stroke-width="1" opacity="0.04469783421672158"/>
<polygon points="290,97 298.6,102 298.6,112 290,117 281.4,112 281.4,102" fill="none" stroke="#39FF14" stroke-width="1" opacity="0.04545418815892441"/>
<polygon points="145,110 153.6,115 153.6,125 145,130 136.4,125 136.4,115" fill="none" stroke="#39FF14" stroke-width="1" opacity="0.02274994191169621"/>
<polygon points="317,158 325.6,163 325.6,173 317,178 308.4,173 308.4,163" fill="none" stroke="#39FF14" stroke-width="1" opacity="0.06599770688452647"/>
<polygon points="654,183 662.6,188 662.6,198 654,203 645.4,198 645.4,188" fill="none" stroke="#39FF14" stroke-width="1" opacity="0.02049662873976435"/>
<polygon points="272,152 280.6,157 280.6,167 272,172 263.4,167 263.4,157" fill="none" stroke="#39FF14" stroke-width="1" opacity="0.05159788192248764"/>
<polygon points="134,20 142.6,25 142.6,35 134,40 125.4,35 125.4,25" fill="none" stroke="#39FF14" stroke-width="1" opacity="0.021788648064437338"/>
<polygon points="588,-5 596.6,0 596.6,10 588,15 579.4,10 579.4,0" fill="none" stroke="#39FF14" stroke-width="1" opacity="0.04028948779939384"/>
<polygon points="406,36 414.6,41 414.6,51 406,56 397.4,51 397.4,41" fill="none" stroke="#39FF14" stroke-width="1" opacity="0.05135696168856635"/>
<polygon points="130,180 138.6,185 138.6,195 130,200 121.4,195 121.4,185" fill="none" stroke="#39FF14" stroke-width="1" opacity="0.06860458605565312"/>
<polygon points="226,39 234.6,44 234.6,54 226,59 217.4,54 217.4,44" fill="none" stroke="#39FF14" stroke-width="1" opacity="0.06109512334503972"/>
<polygon points="721,17 729.6,22 729.6,32 721,37 712.4,32 712.4,22" fill="none" stroke="#39FF14" stroke-width="1" opacity="0.027870383476324263"/>
<polygon points="13,10 21.6,15 21.6,25 13,30 4.4,25 4.4,15" fill="none" stroke="#39FF14" stroke-width="1" opacity="0.07938739546847894"/>
<polygon points="769,114 777.6,119 777.6,129 769,134 760.4,129 760.4,119" fill="none" stroke="#39FF14" stroke-width="1" opacity="0.02064447019484045"/>
<polygon points="591,104 599.6,109 599.6,119 591,124 582.4,119 582.4,109" fill="none" stroke="#39FF14" stroke-width="1" opacity="0.025632810450474556"/>
<polygon points="276,-1 284.6,4 284.6,14 276,19 267.4,14 267.4,4" fill="none" stroke="#39FF14" stroke-width="1" opacity="0.05192020865308393"/>
<polygon points="468,98 476.6,103 476.6,113 468,118 459.4,113 459.4,103" fill="none" stroke="#39FF14" stroke-width="1" opacity="0.038685011860042876"/>
<polygon points="516,143 524.6,148 524.6,158 516,163 507.4,158 507.4,148" fill="none" stroke="#39FF14" stroke-width="1" opacity="0.025154280986539976"/>
<polygon points="160,183 168.6,188 168.6,198 160,203 151.4,198 151.4,188" fill="none" stroke="#39FF14" stroke-width="1" opacity="0.05653821188938124"/>
<polygon points="31,55 39.6,60 39.6,70 31,75 22.4,70 22.4,60" fill="none" stroke="#39FF14" stroke-width="1" opacity="0.02596453510575806"/>
<polygon points="557,134 565.6,139 565.6,149 557,154 548.4,149 548.4,139" fill="none" stroke="#39FF14" stroke-width="1" opacity="0.07561987634490723"/>
<polygon points="254,108 262.6,113 262.6,123 254,128 245.4,123 245.4,113" fill="none" stroke="#39FF14" stroke-width="1" opacity="0.07996832854387836"/>
<polygon points="534,56 542.6,61 542.6,71 534,76 525.4,71 525.4,61" fill="none" stroke="#39FF14" stroke-width="1" opacity="0.0753428808233978"/>
</g>

  <!-- HUD Decorative elements -->
  <path d="M 20 20 L 40 20 L 50 30" fill="none" stroke="#39FF14" stroke-width="2" opacity="0.5"/>
  <path d="M 830 180 L 810 180 L 800 170" fill="none" stroke="#39FF14" stroke-width="2" opacity="0.5"/>

  <g clip-path="url(#dashClip)">
    <rect x="-160" y="0" width="160" height="200" fill="url(#scanlineGrad)">
      <animateTransform attributeName="transform" type="translate"
                        from="0 0" to="1010 0" dur="6s" repeatCount="indefinite"/>
    </rect>
  </g>

  <g font-family="'Consolas', 'Fira Code', monospace" text-anchor="middle">

    <!-- NETWORK STATUS -->
    <g transform="translate(130, 100)">
        <circle cx="0" cy="0" r="45" fill="none" stroke="#39FF14" stroke-width="2" stroke-dasharray="10 5">
            <animateTransform attributeName="transform" type="rotate" from="0" to="360" dur="10s" repeatCount="indefinite"/>
        </circle>
        <circle cx="0" cy="0" r="35" fill="#0d0d0d" />
        <text x="0" y="-60" font-size="12" fill="#aaaaaa" letter-spacing="2">ROOT.AUTH</text>
        <text x="0" y="70" font-size="14" fill="#ffffff" font-weight="bold">OPERATIONAL</text>
    </g>

    <!-- ACTIVE USERS -->
    <g transform="translate(330, 100)">
        <text x="0" y="-20" font-size="12" fill="#aaaaaa">CITIZENS</text>
        <text x="0" y="15" font-size="28" fill="#ffffff" font-weight="bold" filter="url(#textGlow)">12,622</text>
        <text x="0" y="35" font-size="10" fill="#777777">VERIFIED HUMANS</text>
    </g>

    <!-- REGISTERED AGENTS -->
    <g transform="translate(530, 100)">
        <text x="0" y="-20" font-size="12" fill="#aaaaaa">AGENTS</text>
        <text x="0" y="15" font-size="28" fill="#00d4ff" font-weight="bold" filter="url(#textGlow)">4,578</text>
        <text x="0" y="35" font-size="10" fill="#777777">REGISTERED DIDs</text>
    </g>

    <!-- TRANSACTIONS -->
    <g transform="translate(730, 100)">
        <text x="0" y="-20" font-size="12" fill="#aaaaaa">TRANSFERS</text>
        <text x="0" y="15" font-size="28" fill="#ffffff" font-weight="bold">38,272</text>
        <text x="0" y="35" font-size="10" fill="#777777">M2M SETTLEMENTS</text>
    </g>
  </g>

  <text x="425" y="185" font-family="'Consolas', 'Fira Code', monospace" font-size="10" fill="#aaaaaa" opacity="0.6" text-anchor="middle">AXIOMID PROJECTED TARGETS (ILLUSTRATIVE): 2026-07-05 10:58:11 UTC // SECURE_HANDSHAKE</text>
</svg>