<svg width="850" height="200" viewBox="0 0 850 200" xmlns="http://www.w3.org/2000/svg">
  <defs>
    <!-- Carbon Fiber Pattern -->
    <pattern id="carbonFiber" width="10" height="10" patternUnits="userSpaceOnUse">
        <rect width="10" height="10" fill="#050505"/>
        <path d="M0,0 L5,5 L10,0 L5,-5 Z M5,5 L10,10 L15,5 L10,0 Z M-5,5 L0,10 L5,5 L0,0 Z M0,10 L5,15 L10,10 L5,5 Z" fill="#0d0d0d"/>
    </pattern>
    <filter id="glassmorphism">
      <feGaussianBlur stdDeviation="3" result="blur" />
      <feColorMatrix type="matrix" values="1 0 0 0 0  0 1 0 0 0  0 0 1 0 0  0 0 0 18 -7" result="glow" />
      <feBlend in="SourceGraphic" in2="glow" mode="normal" />
    </filter>
    <filter id="textGlow">
      <feGaussianBlur stdDeviation="2" result="blur" />
      <feMerge>
        <feMergeNode in="blur"/>
        <feMergeNode in="SourceGraphic"/>
      </feMerge>
    </filter>
    <linearGradient id="neonBar" x1="0%" y1="0%" x2="100%" y2="0%">
        <stop offset="0%" stop-color="#111111"/>
        <stop offset="100%" stop-color="#39FF14"/>
    </linearGradient>
  </defs>

  <rect width="100%" height="100%" fill="url(#carbonFiber)" rx="12" stroke="#39FF14" stroke-width="1" stroke-opacity="0.3"/>
  <rect width="100%" height="100%" fill="#000000" opacity="0.6" rx="12" />
  <g><polygon points="718,132 726.6,137 726.6,147 718,152 709.4,147 709.4,137" fill="none" stroke="#39FF14" stroke-width="1" opacity="0.06190111459991597"/>
<polygon points="71,-5 79.6,0 79.6,10 71,15 62.4,10 62.4,0" fill="none" stroke="#39FF14" stroke-width="1" opacity="0.04042440748203005"/>
<polygon points="816,133 824.6,138 824.6,148 816,153 807.4,148 807.4,138" fill="none" stroke="#39FF14" stroke-width="1" opacity="0.049570994802874566"/>
<polygon points="137,68 145.6,73 145.6,83 137,88 128.4,83 128.4,73" fill="none" stroke="#39FF14" stroke-width="1" opacity="0.04464295644653561"/>
<polygon points="210,97 218.6,102 218.6,112 210,117 201.4,112 201.4,102" fill="none" stroke="#39FF14" stroke-width="1" opacity="0.042525159866109795"/>
<polygon points="203,34 211.6,39 211.6,49 203,54 194.4,49 194.4,39" fill="none" stroke="#39FF14" stroke-width="1" opacity="0.043234180268980536"/>
<polygon points="12,32 20.6,37 20.6,47 12,52 3.4000000000000004,47 3.4000000000000004,37" fill="none" stroke="#39FF14" stroke-width="1" opacity="0.07453587519248205"/>
<polygon points="74,178 82.6,183 82.6,193 74,198 65.4,193 65.4,183" fill="none" stroke="#39FF14" stroke-width="1" opacity="0.05616157482082072"/>
<polygon points="89,146 97.6,151 97.6,161 89,166 80.4,161 80.4,151" fill="none" stroke="#39FF14" stroke-width="1" opacity="0.02878324165718559"/>
<polygon points="430,178 438.6,183 438.6,193 430,198 421.4,193 421.4,183" fill="none" stroke="#39FF14" stroke-width="1" opacity="0.06591863466353137"/>
<polygon points="669,108 677.6,113 677.6,123 669,128 660.4,123 660.4,113" fill="none" stroke="#39FF14" stroke-width="1" opacity="0.07526319151068736"/>
<polygon points="136,150 144.6,155 144.6,165 136,170 127.4,165 127.4,155" fill="none" stroke="#39FF14" stroke-width="1" opacity="0.050120679208883655"/>
<polygon points="365,1 373.6,6 373.6,16 365,21 356.4,16 356.4,6" fill="none" stroke="#39FF14" stroke-width="1" opacity="0.030096714078015313"/>
<polygon points="47,165 55.6,170 55.6,180 47,185 38.4,180 38.4,170" fill="none" stroke="#39FF14" stroke-width="1" opacity="0.06217994125713318"/>
<polygon points="409,101 417.6,106 417.6,116 409,121 400.4,116 400.4,106" fill="none" stroke="#39FF14" stroke-width="1" opacity="0.020283772566087235"/>
<polygon points="503,45 511.6,50 511.6,60 503,65 494.4,60 494.4,50" fill="none" stroke="#39FF14" stroke-width="1" opacity="0.061778241286560925"/>
<polygon points="193,149 201.6,154 201.6,164 193,169 184.4,164 184.4,154" fill="none" stroke="#39FF14" stroke-width="1" opacity="0.023780612517786827"/>
<polygon points="13,127 21.6,132 21.6,142 13,147 4.4,142 4.4,132" fill="none" stroke="#39FF14" stroke-width="1" opacity="0.05800243058918318"/>
<polygon points="735,101 743.6,106 743.6,116 735,121 726.4,116 726.4,106" fill="none" stroke="#39FF14" stroke-width="1" opacity="0.07879923585314728"/>
<polygon points="254,138 262.6,143 262.6,153 254,158 245.4,153 245.4,143" fill="none" stroke="#39FF14" stroke-width="1" opacity="0.02271495117808408"/>
<polygon points="606,92 614.6,97 614.6,107 606,112 597.4,107 597.4,97" fill="none" stroke="#39FF14" stroke-width="1" opacity="0.023697483847494122"/>
<polygon points="756,166 764.6,171 764.6,181 756,186 747.4,181 747.4,171" fill="none" stroke="#39FF14" stroke-width="1" opacity="0.04483210754644269"/>
<polygon points="428,62 436.6,67 436.6,77 428,82 419.4,77 419.4,67" fill="none" stroke="#39FF14" stroke-width="1" opacity="0.03224033733721885"/>
<polygon points="375,20 383.6,25 383.6,35 375,40 366.4,35 366.4,25" fill="none" stroke="#39FF14" stroke-width="1" opacity="0.04097548146915247"/>
<polygon points="540,37 548.6,42 548.6,52 540,57 531.4,52 531.4,42" fill="none" stroke="#39FF14" stroke-width="1" opacity="0.02821503715908346"/>
<polygon points="815,75 823.6,80 823.6,90 815,95 806.4,90 806.4,80" fill="none" stroke="#39FF14" stroke-width="1" opacity="0.07840709281892472"/>
<polygon points="735,128 743.6,133 743.6,143 735,148 726.4,143 726.4,133" fill="none" stroke="#39FF14" stroke-width="1" opacity="0.03706946229979733"/>
<polygon points="446,183 454.6,188 454.6,198 446,203 437.4,198 437.4,188" fill="none" stroke="#39FF14" stroke-width="1" opacity="0.07173817266596538"/>
<polygon points="268,98 276.6,103 276.6,113 268,118 259.4,113 259.4,103" fill="none" stroke="#39FF14" stroke-width="1" opacity="0.0586300709270457"/>
<polygon points="372,52 380.6,57 380.6,67 372,72 363.4,67 363.4,57" fill="none" stroke="#39FF14" stroke-width="1" opacity="0.02644115964142614"/>
</g>

  <!-- HUD Decorative elements -->
  <path d="M 20 20 L 40 20 L 50 30" fill="none" stroke="#39FF14" stroke-width="2" opacity="0.5"/>
  <path d="M 830 180 L 810 180 L 800 170" fill="none" stroke="#39FF14" stroke-width="2" opacity="0.5"/>
  <rect x="20" y="100" width="2" height="40" fill="#ffffff" opacity="0.4"/>
  <rect x="828" y="60" width="2" height="40" fill="#39FF14" opacity="0.6"/>

  <g font-family="'Consolas', 'Fira Code', monospace" text-anchor="middle">

    <!-- SYSTEM STATUS -->
    <g transform="translate(130, 100)">
        <circle cx="0" cy="0" r="45" fill="none" stroke="#111111" stroke-width="8" />
        <circle cx="0" cy="0" r="45" fill="none" stroke="#39FF14" stroke-width="2" stroke-dasharray="10 5">
            <animateTransform attributeName="transform" type="rotate" from="0" to="360" dur="10s" repeatCount="indefinite"/>
        </circle>
        <circle cx="0" cy="0" r="35" fill="#0d0d0d" />
        <circle cx="0" cy="0" r="6" fill="#39FF14" filter="url(#textGlow)">
            <animate attributeName="opacity" values="1;0.3;1" dur="2s" repeatCount="indefinite"/>
        </circle>
        <text x="0" y="-60" font-size="12" fill="#aaaaaa" letter-spacing="2">SYS.CORE</text>
        <text x="0" y="70" font-size="14" fill="#ffffff" font-weight="bold">ONLINE</text>
    </g>

    <!-- LIVE TRAFFIC -->
    <g transform="translate(330, 100)">
        <rect x="-60" y="-45" width="120" height="90" fill="#0a0a0a" rx="8" stroke="#39FF14" stroke-opacity="0.4" stroke-width="1"/>
        <text x="0" y="-20" font-size="12" fill="#aaaaaa">NETWORK LOAD</text>
        <text x="0" y="15" font-size="28" fill="#ffffff" font-weight="bold" filter="url(#textGlow)">7826</text>
        <text x="0" y="35" font-size="10" fill="#777777">ACTIVE SESSIONS</text>
    </g>

    <!-- ACTIVE AGENTS -->
    <g transform="translate(530, 100)">
        <rect x="-60" y="-45" width="120" height="90" fill="#0a0a0a" rx="8" stroke="#39FF14" stroke-opacity="0.4" stroke-width="1"/>
        <text x="0" y="-20" font-size="12" fill="#aaaaaa">SWARM ENTITIES</text>
        <text x="0" y="15" font-size="28" fill="#ffffff" font-weight="bold" filter="url(#textGlow)">196</text>
        <text x="0" y="35" font-size="10" fill="#777777">AUTONOMOUS</text>
    </g>

    <!-- UPTIME -->
    <g transform="translate(730, 100)">
        <path d="M -40 -35 L 40 -35 L 50 -25 L 50 35 L -40 35 L -50 25 Z" fill="#0a0a0a" stroke="#39FF14" stroke-opacity="0.4" stroke-width="1"/>
        <text x="0" y="-15" font-size="12" fill="#aaaaaa">CONTINUITY</text>
        <text x="0" y="15" font-size="24" fill="#ffffff" font-weight="bold">316<tspan font-size="14" fill="#777777">d</tspan></text>
        <rect x="-35" y="25" width="70" height="4" fill="url(#neonBar)" rx="2"/>
    </g>
  </g>

  <text x="425" y="185" font-family="'Consolas', 'Fira Code', monospace" font-size="10" fill="#aaaaaa" opacity="0.6" text-anchor="middle">LAST TELEMETRY PING: 2026-04-28 18:38:38 UTC // ENCRYPTED_TUNNEL</text>
</svg>