<svg width="850" height="200" viewBox="0 0 850 200" xmlns="http://www.w3.org/2000/svg">
  <defs>
    <pattern id="carbonFiber" width="10" height="10" patternUnits="userSpaceOnUse">
        <rect width="10" height="10" fill="#050505"/>
        <path d="M0,0 L5,5 L10,0 L5,-5 Z M5,5 L10,10 L15,5 L10,0 Z M-5,5 L0,10 L5,5 L0,0 Z M0,10 L5,15 L10,10 L5,5 Z" fill="#0d0d0d"/>
    </pattern>
    <filter id="textGlow">
      <feGaussianBlur stdDeviation="2" result="blur" />
      <feMerge>
        <feMergeNode in="blur"/>
        <feMergeNode in="SourceGraphic"/>
      </feMerge>
    </filter>
    <linearGradient id="neonBar" x1="0%" y1="0%" x2="100%" y2="0%">
        <stop offset="0%" stop-color="#111111"/>
        <stop offset="100%" stop-color="#39FF14"/>
    </linearGradient>
    <linearGradient id="scanlineGrad" x1="0%" y1="0%" x2="100%" y2="0%">
        <stop offset="0%" stop-color="#39FF14" stop-opacity="0"/>
        <stop offset="50%" stop-color="#39FF14" stop-opacity="0.18"/>
        <stop offset="100%" stop-color="#39FF14" stop-opacity="0"/>
    </linearGradient>
    <clipPath id="dashClip">
        <rect x="0" y="0" width="850" height="200" rx="12"/>
    </clipPath>
  </defs>

  <rect width="100%" height="100%" fill="url(#carbonFiber)" rx="12" stroke="#39FF14" stroke-width="1" stroke-opacity="0.3"/>
  <rect width="100%" height="100%" fill="#000000" opacity="0.6" rx="12" />
  <g><polygon points="706,148 714.6,153 714.6,163 706,168 697.4,163 697.4,153" fill="none" stroke="#39FF14" stroke-width="1" opacity="0.034344107722375845"/>
<polygon points="152,80 160.6,85 160.6,95 152,100 143.4,95 143.4,85" fill="none" stroke="#39FF14" stroke-width="1" opacity="0.06375118422029814"/>
<polygon points="586,8 594.6,13 594.6,23 586,28 577.4,23 577.4,13" fill="none" stroke="#39FF14" stroke-width="1" opacity="0.07339678379988296"/>
<polygon points="128,128 136.6,133 136.6,143 128,148 119.4,143 119.4,133" fill="none" stroke="#39FF14" stroke-width="1" opacity="0.022180098772591226"/>
<polygon points="22,56 30.6,61 30.6,71 22,76 13.4,71 13.4,61" fill="none" stroke="#39FF14" stroke-width="1" opacity="0.07155168417781352"/>
<polygon points="765,149 773.6,154 773.6,164 765,169 756.4,164 756.4,154" fill="none" stroke="#39FF14" stroke-width="1" opacity="0.07854779499939528"/>
<polygon points="512,185 520.6,190 520.6,200 512,205 503.4,200 503.4,190" fill="none" stroke="#39FF14" stroke-width="1" opacity="0.07447823792331068"/>
<polygon points="315,145 323.6,150 323.6,160 315,165 306.4,160 306.4,150" fill="none" stroke="#39FF14" stroke-width="1" opacity="0.033972118853443506"/>
<polygon points="426,83 434.6,88 434.6,98 426,103 417.4,98 417.4,88" fill="none" stroke="#39FF14" stroke-width="1" opacity="0.027452933113903604"/>
<polygon points="580,97 588.6,102 588.6,112 580,117 571.4,112 571.4,102" fill="none" stroke="#39FF14" stroke-width="1" opacity="0.06707893359463747"/>
<polygon points="348,53 356.6,58 356.6,68 348,73 339.4,68 339.4,58" fill="none" stroke="#39FF14" stroke-width="1" opacity="0.07122575164348849"/>
<polygon points="133,50 141.6,55 141.6,65 133,70 124.4,65 124.4,55" fill="none" stroke="#39FF14" stroke-width="1" opacity="0.022523014897318856"/>
<polygon points="798,183 806.6,188 806.6,198 798,203 789.4,198 789.4,188" fill="none" stroke="#39FF14" stroke-width="1" opacity="0.0773539312676911"/>
<polygon points="835,118 843.6,123 843.6,133 835,138 826.4,133 826.4,123" fill="none" stroke="#39FF14" stroke-width="1" opacity="0.06346958952642895"/>
<polygon points="683,25 691.6,30 691.6,40 683,45 674.4,40 674.4,30" fill="none" stroke="#39FF14" stroke-width="1" opacity="0.030884225426685886"/>
<polygon points="518,181 526.6,186 526.6,196 518,201 509.4,196 509.4,186" fill="none" stroke="#39FF14" stroke-width="1" opacity="0.06525622336093446"/>
<polygon points="850,165 858.6,170 858.6,180 850,185 841.4,180 841.4,170" fill="none" stroke="#39FF14" stroke-width="1" opacity="0.06000114794339981"/>
<polygon points="806,57 814.6,62 814.6,72 806,77 797.4,72 797.4,62" fill="none" stroke="#39FF14" stroke-width="1" opacity="0.041342644834056225"/>
<polygon points="496,115 504.6,120 504.6,130 496,135 487.4,130 487.4,120" fill="none" stroke="#39FF14" stroke-width="1" opacity="0.06642421659205776"/>
<polygon points="486,29 494.6,34 494.6,44 486,49 477.4,44 477.4,34" fill="none" stroke="#39FF14" stroke-width="1" opacity="0.038731635164535205"/>
<polygon points="422,23 430.6,28 430.6,38 422,43 413.4,38 413.4,28" fill="none" stroke="#39FF14" stroke-width="1" opacity="0.02581126268756149"/>
<polygon points="252,2 260.6,7 260.6,17 252,22 243.4,17 243.4,7" fill="none" stroke="#39FF14" stroke-width="1" opacity="0.05523481197864559"/>
<polygon points="379,188 387.6,193 387.6,203 379,208 370.4,203 370.4,193" fill="none" stroke="#39FF14" stroke-width="1" opacity="0.077404431437195"/>
<polygon points="703,16 711.6,21 711.6,31 703,36 694.4,31 694.4,21" fill="none" stroke="#39FF14" stroke-width="1" opacity="0.03386581027590159"/>
<polygon points="8,49 16.6,54 16.6,64 8,69 -0.5999999999999996,64 -0.5999999999999996,54" fill="none" stroke="#39FF14" stroke-width="1" opacity="0.027084833980929476"/>
<polygon points="434,78 442.6,83 442.6,93 434,98 425.4,93 425.4,83" fill="none" stroke="#39FF14" stroke-width="1" opacity="0.0650042646400488"/>
<polygon points="247,107 255.6,112 255.6,122 247,127 238.4,122 238.4,112" fill="none" stroke="#39FF14" stroke-width="1" opacity="0.03725187212052668"/>
<polygon points="132,27 140.6,32 140.6,42 132,47 123.4,42 123.4,32" fill="none" stroke="#39FF14" stroke-width="1" opacity="0.04577208393186374"/>
<polygon points="390,67 398.6,72 398.6,82 390,87 381.4,82 381.4,72" fill="none" stroke="#39FF14" stroke-width="1" opacity="0.07092312015298789"/>
<polygon points="533,108 541.6,113 541.6,123 533,128 524.4,123 524.4,113" fill="none" stroke="#39FF14" stroke-width="1" opacity="0.03737394575627046"/>
</g>

  <!-- HUD Decorative elements -->
  <path d="M 20 20 L 40 20 L 50 30" fill="none" stroke="#39FF14" stroke-width="2" opacity="0.5"/>
  <path d="M 830 180 L 810 180 L 800 170" fill="none" stroke="#39FF14" stroke-width="2" opacity="0.5"/>

  <g clip-path="url(#dashClip)">
    <rect x="-160" y="0" width="160" height="200" fill="url(#scanlineGrad)">
      <animateTransform attributeName="transform" type="translate"
                        from="0 0" to="1010 0" dur="6s" repeatCount="indefinite"/>
    </rect>
  </g>

  <g font-family="'Consolas', 'Fira Code', monospace" text-anchor="middle">

    <!-- NETWORK STATUS -->
    <g transform="translate(130, 100)">
        <circle cx="0" cy="0" r="45" fill="none" stroke="#39FF14" stroke-width="2" stroke-dasharray="10 5">
            <animateTransform attributeName="transform" type="rotate" from="0" to="360" dur="10s" repeatCount="indefinite"/>
        </circle>
        <circle cx="0" cy="0" r="35" fill="#0d0d0d" />
        <text x="0" y="-60" font-size="12" fill="#aaaaaa" letter-spacing="2">ROOT.AUTH</text>
        <text x="0" y="70" font-size="14" fill="#ffffff" font-weight="bold">OPERATIONAL</text>
    </g>

    <!-- ACTIVE USERS -->
    <g transform="translate(330, 100)">
        <text x="0" y="-20" font-size="12" fill="#aaaaaa">CITIZENS</text>
        <text x="0" y="15" font-size="28" fill="#ffffff" font-weight="bold" filter="url(#textGlow)">13,615</text>
        <text x="0" y="35" font-size="10" fill="#777777">VERIFIED HUMANS</text>
    </g>

    <!-- REGISTERED AGENTS -->
    <g transform="translate(530, 100)">
        <text x="0" y="-20" font-size="12" fill="#aaaaaa">AGENTS</text>
        <text x="0" y="15" font-size="28" fill="#00d4ff" font-weight="bold" filter="url(#textGlow)">4,126</text>
        <text x="0" y="35" font-size="10" fill="#777777">REGISTERED DIDs</text>
    </g>

    <!-- TRANSACTIONS -->
    <g transform="translate(730, 100)">
        <text x="0" y="-20" font-size="12" fill="#aaaaaa">TRANSFERS</text>
        <text x="0" y="15" font-size="28" fill="#ffffff" font-weight="bold">33,582</text>
        <text x="0" y="35" font-size="10" fill="#777777">M2M SETTLEMENTS</text>
    </g>
  </g>

  <text x="425" y="185" font-family="'Consolas', 'Fira Code', monospace" font-size="10" fill="#aaaaaa" opacity="0.6" text-anchor="middle">AXIOMID PROJECTED TARGETS (ILLUSTRATIVE): 2026-07-23 06:33:41 UTC // SECURE_HANDSHAKE</text>
</svg>