<svg width="850" height="200" viewBox="0 0 850 200" xmlns="http://www.w3.org/2000/svg">
  <defs>
    <pattern id="carbonFiber" width="10" height="10" patternUnits="userSpaceOnUse">
        <rect width="10" height="10" fill="#050505"/>
        <path d="M0,0 L5,5 L10,0 L5,-5 Z M5,5 L10,10 L15,5 L10,0 Z M-5,5 L0,10 L5,5 L0,0 Z M0,10 L5,15 L10,10 L5,5 Z" fill="#0d0d0d"/>
    </pattern>
    <filter id="textGlow">
      <feGaussianBlur stdDeviation="2" result="blur" />
      <feMerge>
        <feMergeNode in="blur"/>
        <feMergeNode in="SourceGraphic"/>
      </feMerge>
    </filter>
    <linearGradient id="neonBar" x1="0%" y1="0%" x2="100%" y2="0%">
        <stop offset="0%" stop-color="#111111"/>
        <stop offset="100%" stop-color="#39FF14"/>
    </linearGradient>
    <linearGradient id="scanlineGrad" x1="0%" y1="0%" x2="100%" y2="0%">
        <stop offset="0%" stop-color="#39FF14" stop-opacity="0"/>
        <stop offset="50%" stop-color="#39FF14" stop-opacity="0.18"/>
        <stop offset="100%" stop-color="#39FF14" stop-opacity="0"/>
    </linearGradient>
    <clipPath id="dashClip">
        <rect x="0" y="0" width="850" height="200" rx="12"/>
    </clipPath>
  </defs>

  <rect width="100%" height="100%" fill="url(#carbonFiber)" rx="12" stroke="#39FF14" stroke-width="1" stroke-opacity="0.3"/>
  <rect width="100%" height="100%" fill="#000000" opacity="0.6" rx="12" />
  <g><polygon points="120,140 128.6,145 128.6,155 120,160 111.4,155 111.4,145" fill="none" stroke="#39FF14" stroke-width="1" opacity="0.04197480161442252"/>
<polygon points="56,8 64.6,13 64.6,23 56,28 47.4,23 47.4,13" fill="none" stroke="#39FF14" stroke-width="1" opacity="0.028593758263918745"/>
<polygon points="515,161 523.6,166 523.6,176 515,181 506.4,176 506.4,166" fill="none" stroke="#39FF14" stroke-width="1" opacity="0.06759428715023415"/>
<polygon points="623,42 631.6,47 631.6,57 623,62 614.4,57 614.4,47" fill="none" stroke="#39FF14" stroke-width="1" opacity="0.027189652745926753"/>
<polygon points="337,20 345.6,25 345.6,35 337,40 328.4,35 328.4,25" fill="none" stroke="#39FF14" stroke-width="1" opacity="0.0711118718369527"/>
<polygon points="157,-2 165.6,3 165.6,13 157,18 148.4,13 148.4,3" fill="none" stroke="#39FF14" stroke-width="1" opacity="0.025321513710440585"/>
<polygon points="240,95 248.6,100 248.6,110 240,115 231.4,110 231.4,100" fill="none" stroke="#39FF14" stroke-width="1" opacity="0.028313983396842542"/>
<polygon points="563,106 571.6,111 571.6,121 563,126 554.4,121 554.4,111" fill="none" stroke="#39FF14" stroke-width="1" opacity="0.06426812350810215"/>
<polygon points="644,142 652.6,147 652.6,157 644,162 635.4,157 635.4,147" fill="none" stroke="#39FF14" stroke-width="1" opacity="0.06669803023617053"/>
<polygon points="748,88 756.6,93 756.6,103 748,108 739.4,103 739.4,93" fill="none" stroke="#39FF14" stroke-width="1" opacity="0.024916610275281748"/>
<polygon points="733,159 741.6,164 741.6,174 733,179 724.4,174 724.4,164" fill="none" stroke="#39FF14" stroke-width="1" opacity="0.04524831916757659"/>
<polygon points="556,161 564.6,166 564.6,176 556,181 547.4,176 547.4,166" fill="none" stroke="#39FF14" stroke-width="1" opacity="0.0377816694777573"/>
<polygon points="388,139 396.6,144 396.6,154 388,159 379.4,154 379.4,144" fill="none" stroke="#39FF14" stroke-width="1" opacity="0.07877033163903965"/>
<polygon points="549,159 557.6,164 557.6,174 549,179 540.4,174 540.4,164" fill="none" stroke="#39FF14" stroke-width="1" opacity="0.059418687536226714"/>
<polygon points="693,81 701.6,86 701.6,96 693,101 684.4,96 684.4,86" fill="none" stroke="#39FF14" stroke-width="1" opacity="0.025808765047348574"/>
<polygon points="16,152 24.6,157 24.6,167 16,172 7.4,167 7.4,157" fill="none" stroke="#39FF14" stroke-width="1" opacity="0.0366807400687662"/>
<polygon points="727,169 735.6,174 735.6,184 727,189 718.4,184 718.4,174" fill="none" stroke="#39FF14" stroke-width="1" opacity="0.06871361291231584"/>
<polygon points="315,23 323.6,28 323.6,38 315,43 306.4,38 306.4,28" fill="none" stroke="#39FF14" stroke-width="1" opacity="0.0542974854180696"/>
<polygon points="812,42 820.6,47 820.6,57 812,62 803.4,57 803.4,47" fill="none" stroke="#39FF14" stroke-width="1" opacity="0.030028730045378163"/>
<polygon points="568,61 576.6,66 576.6,76 568,81 559.4,76 559.4,66" fill="none" stroke="#39FF14" stroke-width="1" opacity="0.04348931614681675"/>
<polygon points="368,38 376.6,43 376.6,53 368,58 359.4,53 359.4,43" fill="none" stroke="#39FF14" stroke-width="1" opacity="0.02313980948306231"/>
<polygon points="190,105 198.6,110 198.6,120 190,125 181.4,120 181.4,110" fill="none" stroke="#39FF14" stroke-width="1" opacity="0.02063771218140737"/>
<polygon points="817,71 825.6,76 825.6,86 817,91 808.4,86 808.4,76" fill="none" stroke="#39FF14" stroke-width="1" opacity="0.02010686789484973"/>
<polygon points="562,4 570.6,9 570.6,19 562,24 553.4,19 553.4,9" fill="none" stroke="#39FF14" stroke-width="1" opacity="0.05500986794595941"/>
<polygon points="845,3 853.6,8 853.6,18 845,23 836.4,18 836.4,8" fill="none" stroke="#39FF14" stroke-width="1" opacity="0.03419008991086395"/>
<polygon points="698,96 706.6,101 706.6,111 698,116 689.4,111 689.4,101" fill="none" stroke="#39FF14" stroke-width="1" opacity="0.04299071500642791"/>
<polygon points="733,151 741.6,156 741.6,166 733,171 724.4,166 724.4,156" fill="none" stroke="#39FF14" stroke-width="1" opacity="0.04365447372357627"/>
<polygon points="304,125 312.6,130 312.6,140 304,145 295.4,140 295.4,130" fill="none" stroke="#39FF14" stroke-width="1" opacity="0.025271041510840545"/>
<polygon points="355,-2 363.6,3 363.6,13 355,18 346.4,13 346.4,3" fill="none" stroke="#39FF14" stroke-width="1" opacity="0.020897267727444983"/>
<polygon points="533,85 541.6,90 541.6,100 533,105 524.4,100 524.4,90" fill="none" stroke="#39FF14" stroke-width="1" opacity="0.021655648712546733"/>
</g>

  <!-- HUD Decorative elements -->
  <path d="M 20 20 L 40 20 L 50 30" fill="none" stroke="#39FF14" stroke-width="2" opacity="0.5"/>
  <path d="M 830 180 L 810 180 L 800 170" fill="none" stroke="#39FF14" stroke-width="2" opacity="0.5"/>

  <g clip-path="url(#dashClip)">
    <rect x="-160" y="0" width="160" height="200" fill="url(#scanlineGrad)">
      <animateTransform attributeName="transform" type="translate"
                        from="0 0" to="1010 0" dur="6s" repeatCount="indefinite"/>
    </rect>
  </g>

  <g font-family="'Consolas', 'Fira Code', monospace" text-anchor="middle">

    <!-- NETWORK STATUS -->
    <g transform="translate(130, 100)">
        <circle cx="0" cy="0" r="45" fill="none" stroke="#39FF14" stroke-width="2" stroke-dasharray="10 5">
            <animateTransform attributeName="transform" type="rotate" from="0" to="360" dur="10s" repeatCount="indefinite"/>
        </circle>
        <circle cx="0" cy="0" r="35" fill="#0d0d0d" />
        <text x="0" y="-60" font-size="12" fill="#aaaaaa" letter-spacing="2">ROOT.AUTH</text>
        <text x="0" y="70" font-size="14" fill="#ffffff" font-weight="bold">OPERATIONAL</text>
    </g>

    <!-- ACTIVE USERS -->
    <g transform="translate(330, 100)">
        <text x="0" y="-20" font-size="12" fill="#aaaaaa">CITIZENS</text>
        <text x="0" y="15" font-size="28" fill="#ffffff" font-weight="bold" filter="url(#textGlow)">13,565</text>
        <text x="0" y="35" font-size="10" fill="#777777">VERIFIED HUMANS</text>
    </g>

    <!-- REGISTERED AGENTS -->
    <g transform="translate(530, 100)">
        <text x="0" y="-20" font-size="12" fill="#aaaaaa">AGENTS</text>
        <text x="0" y="15" font-size="28" fill="#00d4ff" font-weight="bold" filter="url(#textGlow)">4,584</text>
        <text x="0" y="35" font-size="10" fill="#777777">REGISTERED DIDs</text>
    </g>

    <!-- TRANSACTIONS -->
    <g transform="translate(730, 100)">
        <text x="0" y="-20" font-size="12" fill="#aaaaaa">TRANSFERS</text>
        <text x="0" y="15" font-size="28" fill="#ffffff" font-weight="bold">39,485</text>
        <text x="0" y="35" font-size="10" fill="#777777">M2M SETTLEMENTS</text>
    </g>
  </g>

  <text x="425" y="185" font-family="'Consolas', 'Fira Code', monospace" font-size="10" fill="#aaaaaa" opacity="0.6" text-anchor="middle">AXIOMID PROJECTED TARGETS (ILLUSTRATIVE): 2026-06-27 18:22:21 UTC // SECURE_HANDSHAKE</text>
</svg>