<svg width="850" height="200" viewBox="0 0 850 200" xmlns="http://www.w3.org/2000/svg">
  <defs>
    <pattern id="carbonFiber" width="10" height="10" patternUnits="userSpaceOnUse">
        <rect width="10" height="10" fill="#050505"/>
        <path d="M0,0 L5,5 L10,0 L5,-5 Z M5,5 L10,10 L15,5 L10,0 Z M-5,5 L0,10 L5,5 L0,0 Z M0,10 L5,15 L10,10 L5,5 Z" fill="#0d0d0d"/>
    </pattern>
    <filter id="textGlow">
      <feGaussianBlur stdDeviation="2" result="blur" />
      <feMerge>
        <feMergeNode in="blur"/>
        <feMergeNode in="SourceGraphic"/>
      </feMerge>
    </filter>
    <linearGradient id="neonBar" x1="0%" y1="0%" x2="100%" y2="0%">
        <stop offset="0%" stop-color="#111111"/>
        <stop offset="100%" stop-color="#39FF14"/>
    </linearGradient>
    <linearGradient id="scanlineGrad" x1="0%" y1="0%" x2="100%" y2="0%">
        <stop offset="0%" stop-color="#39FF14" stop-opacity="0"/>
        <stop offset="50%" stop-color="#39FF14" stop-opacity="0.18"/>
        <stop offset="100%" stop-color="#39FF14" stop-opacity="0"/>
    </linearGradient>
    <clipPath id="dashClip">
        <rect x="0" y="0" width="850" height="200" rx="12"/>
    </clipPath>
  </defs>

  <rect width="100%" height="100%" fill="url(#carbonFiber)" rx="12" stroke="#39FF14" stroke-width="1" stroke-opacity="0.3"/>
  <rect width="100%" height="100%" fill="#000000" opacity="0.6" rx="12" />
  <g><polygon points="571,16 579.6,21 579.6,31 571,36 562.4,31 562.4,21" fill="none" stroke="#39FF14" stroke-width="1" opacity="0.027363130401781687"/>
<polygon points="791,188 799.6,193 799.6,203 791,208 782.4,203 782.4,193" fill="none" stroke="#39FF14" stroke-width="1" opacity="0.02143868057605919"/>
<polygon points="750,-9 758.6,-4 758.6,6 750,11 741.4,6 741.4,-4" fill="none" stroke="#39FF14" stroke-width="1" opacity="0.07615588477809686"/>
<polygon points="175,96 183.6,101 183.6,111 175,116 166.4,111 166.4,101" fill="none" stroke="#39FF14" stroke-width="1" opacity="0.07398054171885579"/>
<polygon points="839,41 847.6,46 847.6,56 839,61 830.4,56 830.4,46" fill="none" stroke="#39FF14" stroke-width="1" opacity="0.054652138044495174"/>
<polygon points="313,63 321.6,68 321.6,78 313,83 304.4,78 304.4,68" fill="none" stroke="#39FF14" stroke-width="1" opacity="0.022003637984271657"/>
<polygon points="259,47 267.6,52 267.6,62 259,67 250.4,62 250.4,52" fill="none" stroke="#39FF14" stroke-width="1" opacity="0.06063726999609606"/>
<polygon points="671,119 679.6,124 679.6,134 671,139 662.4,134 662.4,124" fill="none" stroke="#39FF14" stroke-width="1" opacity="0.05812816339329101"/>
<polygon points="524,157 532.6,162 532.6,172 524,177 515.4,172 515.4,162" fill="none" stroke="#39FF14" stroke-width="1" opacity="0.037718396403391016"/>
<polygon points="60,69 68.6,74 68.6,84 60,89 51.4,84 51.4,74" fill="none" stroke="#39FF14" stroke-width="1" opacity="0.03463447147075968"/>
<polygon points="69,46 77.6,51 77.6,61 69,66 60.4,61 60.4,51" fill="none" stroke="#39FF14" stroke-width="1" opacity="0.050282094842879085"/>
<polygon points="477,66 485.6,71 485.6,81 477,86 468.4,81 468.4,71" fill="none" stroke="#39FF14" stroke-width="1" opacity="0.027021755996015744"/>
<polygon points="287,42 295.6,47 295.6,57 287,62 278.4,57 278.4,47" fill="none" stroke="#39FF14" stroke-width="1" opacity="0.04578214464461823"/>
<polygon points="390,156 398.6,161 398.6,171 390,176 381.4,171 381.4,161" fill="none" stroke="#39FF14" stroke-width="1" opacity="0.06930262014432188"/>
<polygon points="122,61 130.6,66 130.6,76 122,81 113.4,76 113.4,66" fill="none" stroke="#39FF14" stroke-width="1" opacity="0.07000692746797614"/>
<polygon points="22,87 30.6,92 30.6,102 22,107 13.4,102 13.4,92" fill="none" stroke="#39FF14" stroke-width="1" opacity="0.029146459025480378"/>
<polygon points="483,45 491.6,50 491.6,60 483,65 474.4,60 474.4,50" fill="none" stroke="#39FF14" stroke-width="1" opacity="0.04861532374511099"/>
<polygon points="544,38 552.6,43 552.6,53 544,58 535.4,53 535.4,43" fill="none" stroke="#39FF14" stroke-width="1" opacity="0.031037161259973287"/>
<polygon points="331,143 339.6,148 339.6,158 331,163 322.4,158 322.4,148" fill="none" stroke="#39FF14" stroke-width="1" opacity="0.07792599315203794"/>
<polygon points="708,180 716.6,185 716.6,195 708,200 699.4,195 699.4,185" fill="none" stroke="#39FF14" stroke-width="1" opacity="0.053934666627933336"/>
<polygon points="744,103 752.6,108 752.6,118 744,123 735.4,118 735.4,108" fill="none" stroke="#39FF14" stroke-width="1" opacity="0.04157726612899327"/>
<polygon points="159,63 167.6,68 167.6,78 159,83 150.4,78 150.4,68" fill="none" stroke="#39FF14" stroke-width="1" opacity="0.055713906696501045"/>
<polygon points="761,20 769.6,25 769.6,35 761,40 752.4,35 752.4,25" fill="none" stroke="#39FF14" stroke-width="1" opacity="0.05376418826050672"/>
<polygon points="539,100 547.6,105 547.6,115 539,120 530.4,115 530.4,105" fill="none" stroke="#39FF14" stroke-width="1" opacity="0.03585403726012483"/>
<polygon points="733,-5 741.6,0 741.6,10 733,15 724.4,10 724.4,0" fill="none" stroke="#39FF14" stroke-width="1" opacity="0.035761480049187014"/>
<polygon points="463,60 471.6,65 471.6,75 463,80 454.4,75 454.4,65" fill="none" stroke="#39FF14" stroke-width="1" opacity="0.05856563597951199"/>
<polygon points="29,186 37.6,191 37.6,201 29,206 20.4,201 20.4,191" fill="none" stroke="#39FF14" stroke-width="1" opacity="0.0620115040271219"/>
<polygon points="515,142 523.6,147 523.6,157 515,162 506.4,157 506.4,147" fill="none" stroke="#39FF14" stroke-width="1" opacity="0.034405398002476356"/>
<polygon points="609,48 617.6,53 617.6,63 609,68 600.4,63 600.4,53" fill="none" stroke="#39FF14" stroke-width="1" opacity="0.026220296417103477"/>
<polygon points="732,151 740.6,156 740.6,166 732,171 723.4,166 723.4,156" fill="none" stroke="#39FF14" stroke-width="1" opacity="0.056205210748191875"/>
</g>

  <!-- HUD Decorative elements -->
  <path d="M 20 20 L 40 20 L 50 30" fill="none" stroke="#39FF14" stroke-width="2" opacity="0.5"/>
  <path d="M 830 180 L 810 180 L 800 170" fill="none" stroke="#39FF14" stroke-width="2" opacity="0.5"/>

  <g clip-path="url(#dashClip)">
    <rect x="-160" y="0" width="160" height="200" fill="url(#scanlineGrad)">
      <animateTransform attributeName="transform" type="translate"
                        from="0 0" to="1010 0" dur="6s" repeatCount="indefinite"/>
    </rect>
  </g>

  <g font-family="'Consolas', 'Fira Code', monospace" text-anchor="middle">

    <!-- NETWORK STATUS -->
    <g transform="translate(130, 100)">
        <circle cx="0" cy="0" r="45" fill="none" stroke="#39FF14" stroke-width="2" stroke-dasharray="10 5">
            <animateTransform attributeName="transform" type="rotate" from="0" to="360" dur="10s" repeatCount="indefinite"/>
        </circle>
        <circle cx="0" cy="0" r="35" fill="#0d0d0d" />
        <text x="0" y="-60" font-size="12" fill="#aaaaaa" letter-spacing="2">ROOT.AUTH</text>
        <text x="0" y="70" font-size="14" fill="#ffffff" font-weight="bold">OPERATIONAL</text>
    </g>

    <!-- ACTIVE USERS -->
    <g transform="translate(330, 100)">
        <text x="0" y="-20" font-size="12" fill="#aaaaaa">CITIZENS</text>
        <text x="0" y="15" font-size="28" fill="#ffffff" font-weight="bold" filter="url(#textGlow)">14,689</text>
        <text x="0" y="35" font-size="10" fill="#777777">VERIFIED HUMANS</text>
    </g>

    <!-- REGISTERED AGENTS -->
    <g transform="translate(530, 100)">
        <text x="0" y="-20" font-size="12" fill="#aaaaaa">AGENTS</text>
        <text x="0" y="15" font-size="28" fill="#00d4ff" font-weight="bold" filter="url(#textGlow)">3,119</text>
        <text x="0" y="35" font-size="10" fill="#777777">REGISTERED DIDs</text>
    </g>

    <!-- TRANSACTIONS -->
    <g transform="translate(730, 100)">
        <text x="0" y="-20" font-size="12" fill="#aaaaaa">TRANSFERS</text>
        <text x="0" y="15" font-size="28" fill="#ffffff" font-weight="bold">38,445</text>
        <text x="0" y="35" font-size="10" fill="#777777">M2M SETTLEMENTS</text>
    </g>
  </g>

  <text x="425" y="185" font-family="'Consolas', 'Fira Code', monospace" font-size="10" fill="#aaaaaa" opacity="0.6" text-anchor="middle">AXIOMID PROJECTED TARGETS (ILLUSTRATIVE): 2026-07-06 22:05:15 UTC // SECURE_HANDSHAKE</text>
</svg>