<svg width="850" height="200" viewBox="0 0 850 200" xmlns="http://www.w3.org/2000/svg">
  <defs>
    <pattern id="carbonFiber" width="10" height="10" patternUnits="userSpaceOnUse">
        <rect width="10" height="10" fill="#050505"/>
        <path d="M0,0 L5,5 L10,0 L5,-5 Z M5,5 L10,10 L15,5 L10,0 Z M-5,5 L0,10 L5,5 L0,0 Z M0,10 L5,15 L10,10 L5,5 Z" fill="#0d0d0d"/>
    </pattern>
    <filter id="textGlow">
      <feGaussianBlur stdDeviation="2" result="blur" />
      <feMerge>
        <feMergeNode in="blur"/>
        <feMergeNode in="SourceGraphic"/>
      </feMerge>
    </filter>
    <linearGradient id="neonBar" x1="0%" y1="0%" x2="100%" y2="0%">
        <stop offset="0%" stop-color="#111111"/>
        <stop offset="100%" stop-color="#39FF14"/>
    </linearGradient>
    <linearGradient id="scanlineGrad" x1="0%" y1="0%" x2="100%" y2="0%">
        <stop offset="0%" stop-color="#39FF14" stop-opacity="0"/>
        <stop offset="50%" stop-color="#39FF14" stop-opacity="0.18"/>
        <stop offset="100%" stop-color="#39FF14" stop-opacity="0"/>
    </linearGradient>
    <clipPath id="dashClip">
        <rect x="0" y="0" width="850" height="200" rx="12"/>
    </clipPath>
  </defs>

  <rect width="100%" height="100%" fill="url(#carbonFiber)" rx="12" stroke="#39FF14" stroke-width="1" stroke-opacity="0.3"/>
  <rect width="100%" height="100%" fill="#000000" opacity="0.6" rx="12" />
  <g><polygon points="470,157 478.6,162 478.6,172 470,177 461.4,172 461.4,162" fill="none" stroke="#39FF14" stroke-width="1" opacity="0.021644413122676353"/>
<polygon points="755,51 763.6,56 763.6,66 755,71 746.4,66 746.4,56" fill="none" stroke="#39FF14" stroke-width="1" opacity="0.07680897395684903"/>
<polygon points="68,141 76.6,146 76.6,156 68,161 59.4,156 59.4,146" fill="none" stroke="#39FF14" stroke-width="1" opacity="0.03674910984099844"/>
<polygon points="561,79 569.6,84 569.6,94 561,99 552.4,94 552.4,84" fill="none" stroke="#39FF14" stroke-width="1" opacity="0.06273844709900406"/>
<polygon points="666,47 674.6,52 674.6,62 666,67 657.4,62 657.4,52" fill="none" stroke="#39FF14" stroke-width="1" opacity="0.04567403210529372"/>
<polygon points="134,121 142.6,126 142.6,136 134,141 125.4,136 125.4,126" fill="none" stroke="#39FF14" stroke-width="1" opacity="0.022915344654058797"/>
<polygon points="843,146 851.6,151 851.6,161 843,166 834.4,161 834.4,151" fill="none" stroke="#39FF14" stroke-width="1" opacity="0.050568602994702366"/>
<polygon points="766,160 774.6,165 774.6,175 766,180 757.4,175 757.4,165" fill="none" stroke="#39FF14" stroke-width="1" opacity="0.03966547813657902"/>
<polygon points="549,43 557.6,48 557.6,58 549,63 540.4,58 540.4,48" fill="none" stroke="#39FF14" stroke-width="1" opacity="0.05628932235209978"/>
<polygon points="356,22 364.6,27 364.6,37 356,42 347.4,37 347.4,27" fill="none" stroke="#39FF14" stroke-width="1" opacity="0.07153557405134597"/>
<polygon points="748,123 756.6,128 756.6,138 748,143 739.4,138 739.4,128" fill="none" stroke="#39FF14" stroke-width="1" opacity="0.029957817845165886"/>
<polygon points="261,167 269.6,172 269.6,182 261,187 252.4,182 252.4,172" fill="none" stroke="#39FF14" stroke-width="1" opacity="0.0682262879578271"/>
<polygon points="510,82 518.6,87 518.6,97 510,102 501.4,97 501.4,87" fill="none" stroke="#39FF14" stroke-width="1" opacity="0.024175488652161646"/>
<polygon points="189,115 197.6,120 197.6,130 189,135 180.4,130 180.4,120" fill="none" stroke="#39FF14" stroke-width="1" opacity="0.061335458145499996"/>
<polygon points="46,88 54.6,93 54.6,103 46,108 37.4,103 37.4,93" fill="none" stroke="#39FF14" stroke-width="1" opacity="0.023727947222678663"/>
<polygon points="798,141 806.6,146 806.6,156 798,161 789.4,156 789.4,146" fill="none" stroke="#39FF14" stroke-width="1" opacity="0.05959787452204354"/>
<polygon points="769,145 777.6,150 777.6,160 769,165 760.4,160 760.4,150" fill="none" stroke="#39FF14" stroke-width="1" opacity="0.042366289370576724"/>
<polygon points="229,-7 237.6,-2 237.6,8 229,13 220.4,8 220.4,-2" fill="none" stroke="#39FF14" stroke-width="1" opacity="0.027770259559568588"/>
<polygon points="291,111 299.6,116 299.6,126 291,131 282.4,126 282.4,116" fill="none" stroke="#39FF14" stroke-width="1" opacity="0.04548979731246404"/>
<polygon points="782,125 790.6,130 790.6,140 782,145 773.4,140 773.4,130" fill="none" stroke="#39FF14" stroke-width="1" opacity="0.06285315244457058"/>
<polygon points="88,126 96.6,131 96.6,141 88,146 79.4,141 79.4,131" fill="none" stroke="#39FF14" stroke-width="1" opacity="0.05992360547610989"/>
<polygon points="815,14 823.6,19 823.6,29 815,34 806.4,29 806.4,19" fill="none" stroke="#39FF14" stroke-width="1" opacity="0.059575588801277946"/>
<polygon points="488,95 496.6,100 496.6,110 488,115 479.4,110 479.4,100" fill="none" stroke="#39FF14" stroke-width="1" opacity="0.0673751442806429"/>
<polygon points="611,50 619.6,55 619.6,65 611,70 602.4,65 602.4,55" fill="none" stroke="#39FF14" stroke-width="1" opacity="0.06619578472337774"/>
<polygon points="553,-8 561.6,-3 561.6,7 553,12 544.4,7 544.4,-3" fill="none" stroke="#39FF14" stroke-width="1" opacity="0.05910486665251645"/>
<polygon points="207,100 215.6,105 215.6,115 207,120 198.4,115 198.4,105" fill="none" stroke="#39FF14" stroke-width="1" opacity="0.029034118230531463"/>
<polygon points="17,4 25.6,9 25.6,19 17,24 8.4,19 8.4,9" fill="none" stroke="#39FF14" stroke-width="1" opacity="0.06653777598836132"/>
<polygon points="27,31 35.6,36 35.6,46 27,51 18.4,46 18.4,36" fill="none" stroke="#39FF14" stroke-width="1" opacity="0.02439887438509599"/>
<polygon points="605,58 613.6,63 613.6,73 605,78 596.4,73 596.4,63" fill="none" stroke="#39FF14" stroke-width="1" opacity="0.07948217348345396"/>
<polygon points="156,63 164.6,68 164.6,78 156,83 147.4,78 147.4,68" fill="none" stroke="#39FF14" stroke-width="1" opacity="0.03579216646627417"/>
</g>

  <!-- HUD Decorative elements -->
  <path d="M 20 20 L 40 20 L 50 30" fill="none" stroke="#39FF14" stroke-width="2" opacity="0.5"/>
  <path d="M 830 180 L 810 180 L 800 170" fill="none" stroke="#39FF14" stroke-width="2" opacity="0.5"/>

  <g clip-path="url(#dashClip)">
    <rect x="-160" y="0" width="160" height="200" fill="url(#scanlineGrad)">
      <animateTransform attributeName="transform" type="translate"
                        from="0 0" to="1010 0" dur="6s" repeatCount="indefinite"/>
    </rect>
  </g>

  <g font-family="'Consolas', 'Fira Code', monospace" text-anchor="middle">

    <!-- NETWORK STATUS -->
    <g transform="translate(130, 100)">
        <circle cx="0" cy="0" r="45" fill="none" stroke="#39FF14" stroke-width="2" stroke-dasharray="10 5">
            <animateTransform attributeName="transform" type="rotate" from="0" to="360" dur="10s" repeatCount="indefinite"/>
        </circle>
        <circle cx="0" cy="0" r="35" fill="#0d0d0d" />
        <text x="0" y="-60" font-size="12" fill="#aaaaaa" letter-spacing="2">ROOT.AUTH</text>
        <text x="0" y="70" font-size="14" fill="#ffffff" font-weight="bold">OPERATIONAL</text>
    </g>

    <!-- ACTIVE USERS -->
    <g transform="translate(330, 100)">
        <text x="0" y="-20" font-size="12" fill="#aaaaaa">CITIZENS</text>
        <text x="0" y="15" font-size="28" fill="#ffffff" font-weight="bold" filter="url(#textGlow)">15,068</text>
        <text x="0" y="35" font-size="10" fill="#777777">VERIFIED HUMANS</text>
    </g>

    <!-- REGISTERED AGENTS -->
    <g transform="translate(530, 100)">
        <text x="0" y="-20" font-size="12" fill="#aaaaaa">AGENTS</text>
        <text x="0" y="15" font-size="28" fill="#00d4ff" font-weight="bold" filter="url(#textGlow)">3,839</text>
        <text x="0" y="35" font-size="10" fill="#777777">REGISTERED DIDs</text>
    </g>

    <!-- TRANSACTIONS -->
    <g transform="translate(730, 100)">
        <text x="0" y="-20" font-size="12" fill="#aaaaaa">TRANSFERS</text>
        <text x="0" y="15" font-size="28" fill="#ffffff" font-weight="bold">39,408</text>
        <text x="0" y="35" font-size="10" fill="#777777">M2M SETTLEMENTS</text>
    </g>
  </g>

  <text x="425" y="185" font-family="'Consolas', 'Fira Code', monospace" font-size="10" fill="#aaaaaa" opacity="0.6" text-anchor="middle">AXIOMID PROJECTED TARGETS (ILLUSTRATIVE): 2026-06-26 04:27:25 UTC // SECURE_HANDSHAKE</text>
</svg>