<svg width="850" height="200" viewBox="0 0 850 200" xmlns="http://www.w3.org/2000/svg">
  <defs>
    <pattern id="carbonFiber" width="10" height="10" patternUnits="userSpaceOnUse">
        <rect width="10" height="10" fill="#050505"/>
        <path d="M0,0 L5,5 L10,0 L5,-5 Z M5,5 L10,10 L15,5 L10,0 Z M-5,5 L0,10 L5,5 L0,0 Z M0,10 L5,15 L10,10 L5,5 Z" fill="#0d0d0d"/>
    </pattern>
    <filter id="textGlow">
      <feGaussianBlur stdDeviation="2" result="blur" />
      <feMerge>
        <feMergeNode in="blur"/>
        <feMergeNode in="SourceGraphic"/>
      </feMerge>
    </filter>
    <linearGradient id="neonBar" x1="0%" y1="0%" x2="100%" y2="0%">
        <stop offset="0%" stop-color="#111111"/>
        <stop offset="100%" stop-color="#39FF14"/>
    </linearGradient>
    <linearGradient id="scanlineGrad" x1="0%" y1="0%" x2="100%" y2="0%">
        <stop offset="0%" stop-color="#39FF14" stop-opacity="0"/>
        <stop offset="50%" stop-color="#39FF14" stop-opacity="0.18"/>
        <stop offset="100%" stop-color="#39FF14" stop-opacity="0"/>
    </linearGradient>
    <clipPath id="dashClip">
        <rect x="0" y="0" width="850" height="200" rx="12"/>
    </clipPath>
  </defs>

  <rect width="100%" height="100%" fill="url(#carbonFiber)" rx="12" stroke="#39FF14" stroke-width="1" stroke-opacity="0.3"/>
  <rect width="100%" height="100%" fill="#000000" opacity="0.6" rx="12" />
  <g><polygon points="187,80 195.6,85 195.6,95 187,100 178.4,95 178.4,85" fill="none" stroke="#39FF14" stroke-width="1" opacity="0.05668784072513394"/>
<polygon points="230,91 238.6,96 238.6,106 230,111 221.4,106 221.4,96" fill="none" stroke="#39FF14" stroke-width="1" opacity="0.0751627535362994"/>
<polygon points="527,45 535.6,50 535.6,60 527,65 518.4,60 518.4,50" fill="none" stroke="#39FF14" stroke-width="1" opacity="0.028817988926411502"/>
<polygon points="167,121 175.6,126 175.6,136 167,141 158.4,136 158.4,126" fill="none" stroke="#39FF14" stroke-width="1" opacity="0.05121696609393257"/>
<polygon points="161,2 169.6,7 169.6,17 161,22 152.4,17 152.4,7" fill="none" stroke="#39FF14" stroke-width="1" opacity="0.03234445838883222"/>
<polygon points="509,106 517.6,111 517.6,121 509,126 500.4,121 500.4,111" fill="none" stroke="#39FF14" stroke-width="1" opacity="0.041626329618967534"/>
<polygon points="391,40 399.6,45 399.6,55 391,60 382.4,55 382.4,45" fill="none" stroke="#39FF14" stroke-width="1" opacity="0.027149803964632666"/>
<polygon points="359,60 367.6,65 367.6,75 359,80 350.4,75 350.4,65" fill="none" stroke="#39FF14" stroke-width="1" opacity="0.026192804394254768"/>
<polygon points="754,111 762.6,116 762.6,126 754,131 745.4,126 745.4,116" fill="none" stroke="#39FF14" stroke-width="1" opacity="0.035457693659106525"/>
<polygon points="202,142 210.6,147 210.6,157 202,162 193.4,157 193.4,147" fill="none" stroke="#39FF14" stroke-width="1" opacity="0.07124869226442142"/>
<polygon points="644,-3 652.6,2 652.6,12 644,17 635.4,12 635.4,2" fill="none" stroke="#39FF14" stroke-width="1" opacity="0.07833992932627638"/>
<polygon points="448,106 456.6,111 456.6,121 448,126 439.4,121 439.4,111" fill="none" stroke="#39FF14" stroke-width="1" opacity="0.03294850447086353"/>
<polygon points="80,154 88.6,159 88.6,169 80,174 71.4,169 71.4,159" fill="none" stroke="#39FF14" stroke-width="1" opacity="0.06656315939880234"/>
<polygon points="442,92 450.6,97 450.6,107 442,112 433.4,107 433.4,97" fill="none" stroke="#39FF14" stroke-width="1" opacity="0.05687564633332863"/>
<polygon points="456,130 464.6,135 464.6,145 456,150 447.4,145 447.4,135" fill="none" stroke="#39FF14" stroke-width="1" opacity="0.03342768381808492"/>
<polygon points="719,101 727.6,106 727.6,116 719,121 710.4,116 710.4,106" fill="none" stroke="#39FF14" stroke-width="1" opacity="0.027757273623933397"/>
<polygon points="271,184 279.6,189 279.6,199 271,204 262.4,199 262.4,189" fill="none" stroke="#39FF14" stroke-width="1" opacity="0.05838017482626458"/>
<polygon points="118,9 126.6,14 126.6,24 118,29 109.4,24 109.4,14" fill="none" stroke="#39FF14" stroke-width="1" opacity="0.028322163242757135"/>
<polygon points="14,172 22.6,177 22.6,187 14,192 5.4,187 5.4,177" fill="none" stroke="#39FF14" stroke-width="1" opacity="0.07764482349600223"/>
<polygon points="812,190 820.6,195 820.6,205 812,210 803.4,205 803.4,195" fill="none" stroke="#39FF14" stroke-width="1" opacity="0.03342331741706853"/>
<polygon points="272,114 280.6,119 280.6,129 272,134 263.4,129 263.4,119" fill="none" stroke="#39FF14" stroke-width="1" opacity="0.07830478195504238"/>
<polygon points="267,174 275.6,179 275.6,189 267,194 258.4,189 258.4,179" fill="none" stroke="#39FF14" stroke-width="1" opacity="0.06676547118539226"/>
<polygon points="755,114 763.6,119 763.6,129 755,134 746.4,129 746.4,119" fill="none" stroke="#39FF14" stroke-width="1" opacity="0.0380821237222898"/>
<polygon points="43,118 51.6,123 51.6,133 43,138 34.4,133 34.4,123" fill="none" stroke="#39FF14" stroke-width="1" opacity="0.021866195565166502"/>
<polygon points="816,81 824.6,86 824.6,96 816,101 807.4,96 807.4,86" fill="none" stroke="#39FF14" stroke-width="1" opacity="0.046240962224756876"/>
<polygon points="465,31 473.6,36 473.6,46 465,51 456.4,46 456.4,36" fill="none" stroke="#39FF14" stroke-width="1" opacity="0.02739042962957508"/>
<polygon points="633,84 641.6,89 641.6,99 633,104 624.4,99 624.4,89" fill="none" stroke="#39FF14" stroke-width="1" opacity="0.04193356363759754"/>
<polygon points="42,1 50.6,6 50.6,16 42,21 33.4,16 33.4,6" fill="none" stroke="#39FF14" stroke-width="1" opacity="0.04037398898541185"/>
<polygon points="222,102 230.6,107 230.6,117 222,122 213.4,117 213.4,107" fill="none" stroke="#39FF14" stroke-width="1" opacity="0.05384501864015526"/>
<polygon points="2,63 10.6,68 10.6,78 2,83 -6.6,78 -6.6,68" fill="none" stroke="#39FF14" stroke-width="1" opacity="0.05049304881736247"/>
</g>

  <!-- HUD Decorative elements -->
  <path d="M 20 20 L 40 20 L 50 30" fill="none" stroke="#39FF14" stroke-width="2" opacity="0.5"/>
  <path d="M 830 180 L 810 180 L 800 170" fill="none" stroke="#39FF14" stroke-width="2" opacity="0.5"/>

  <g clip-path="url(#dashClip)">
    <rect x="-160" y="0" width="160" height="200" fill="url(#scanlineGrad)">
      <animateTransform attributeName="transform" type="translate"
                        from="0 0" to="1010 0" dur="6s" repeatCount="indefinite"/>
    </rect>
  </g>

  <g font-family="'Consolas', 'Fira Code', monospace" text-anchor="middle">

    <!-- NETWORK STATUS -->
    <g transform="translate(130, 100)">
        <circle cx="0" cy="0" r="45" fill="none" stroke="#39FF14" stroke-width="2" stroke-dasharray="10 5">
            <animateTransform attributeName="transform" type="rotate" from="0" to="360" dur="10s" repeatCount="indefinite"/>
        </circle>
        <circle cx="0" cy="0" r="35" fill="#0d0d0d" />
        <text x="0" y="-60" font-size="12" fill="#aaaaaa" letter-spacing="2">ROOT.AUTH</text>
        <text x="0" y="70" font-size="14" fill="#ffffff" font-weight="bold">OPERATIONAL</text>
    </g>

    <!-- ACTIVE USERS -->
    <g transform="translate(330, 100)">
        <text x="0" y="-20" font-size="12" fill="#aaaaaa">CITIZENS</text>
        <text x="0" y="15" font-size="28" fill="#ffffff" font-weight="bold" filter="url(#textGlow)">14,400</text>
        <text x="0" y="35" font-size="10" fill="#777777">VERIFIED HUMANS</text>
    </g>

    <!-- REGISTERED AGENTS -->
    <g transform="translate(530, 100)">
        <text x="0" y="-20" font-size="12" fill="#aaaaaa">AGENTS</text>
        <text x="0" y="15" font-size="28" fill="#00d4ff" font-weight="bold" filter="url(#textGlow)">3,642</text>
        <text x="0" y="35" font-size="10" fill="#777777">REGISTERED DIDs</text>
    </g>

    <!-- TRANSACTIONS -->
    <g transform="translate(730, 100)">
        <text x="0" y="-20" font-size="12" fill="#aaaaaa">TRANSFERS</text>
        <text x="0" y="15" font-size="28" fill="#ffffff" font-weight="bold">32,835</text>
        <text x="0" y="35" font-size="10" fill="#777777">M2M SETTLEMENTS</text>
    </g>
  </g>

  <text x="425" y="185" font-family="'Consolas', 'Fira Code', monospace" font-size="10" fill="#aaaaaa" opacity="0.6" text-anchor="middle">AXIOMID PROJECTED TARGETS (ILLUSTRATIVE): 2026-07-18 05:15:30 UTC // SECURE_HANDSHAKE</text>
</svg>