<svg width="850" height="200" viewBox="0 0 850 200" xmlns="http://www.w3.org/2000/svg">
  <defs>
    <pattern id="carbonFiber" width="10" height="10" patternUnits="userSpaceOnUse">
        <rect width="10" height="10" fill="#050505"/>
        <path d="M0,0 L5,5 L10,0 L5,-5 Z M5,5 L10,10 L15,5 L10,0 Z M-5,5 L0,10 L5,5 L0,0 Z M0,10 L5,15 L10,10 L5,5 Z" fill="#0d0d0d"/>
    </pattern>
    <filter id="textGlow">
      <feGaussianBlur stdDeviation="2" result="blur" />
      <feMerge>
        <feMergeNode in="blur"/>
        <feMergeNode in="SourceGraphic"/>
      </feMerge>
    </filter>
    <linearGradient id="neonBar" x1="0%" y1="0%" x2="100%" y2="0%">
        <stop offset="0%" stop-color="#111111"/>
        <stop offset="100%" stop-color="#39FF14"/>
    </linearGradient>
    <linearGradient id="scanlineGrad" x1="0%" y1="0%" x2="100%" y2="0%">
        <stop offset="0%" stop-color="#39FF14" stop-opacity="0"/>
        <stop offset="50%" stop-color="#39FF14" stop-opacity="0.18"/>
        <stop offset="100%" stop-color="#39FF14" stop-opacity="0"/>
    </linearGradient>
    <clipPath id="dashClip">
        <rect x="0" y="0" width="850" height="200" rx="12"/>
    </clipPath>
  </defs>

  <rect width="100%" height="100%" fill="url(#carbonFiber)" rx="12" stroke="#39FF14" stroke-width="1" stroke-opacity="0.3"/>
  <rect width="100%" height="100%" fill="#000000" opacity="0.6" rx="12" />
  <g><polygon points="261,1 269.6,6 269.6,16 261,21 252.4,16 252.4,6" fill="none" stroke="#39FF14" stroke-width="1" opacity="0.04107012129206902"/>
<polygon points="591,88 599.6,93 599.6,103 591,108 582.4,103 582.4,93" fill="none" stroke="#39FF14" stroke-width="1" opacity="0.02727671226643998"/>
<polygon points="263,28 271.6,33 271.6,43 263,48 254.4,43 254.4,33" fill="none" stroke="#39FF14" stroke-width="1" opacity="0.06818077828958571"/>
<polygon points="455,126 463.6,131 463.6,141 455,146 446.4,141 446.4,131" fill="none" stroke="#39FF14" stroke-width="1" opacity="0.051123376943346906"/>
<polygon points="648,111 656.6,116 656.6,126 648,131 639.4,126 639.4,116" fill="none" stroke="#39FF14" stroke-width="1" opacity="0.07939804636260747"/>
<polygon points="371,189 379.6,194 379.6,204 371,209 362.4,204 362.4,194" fill="none" stroke="#39FF14" stroke-width="1" opacity="0.054762197971515866"/>
<polygon points="81,121 89.6,126 89.6,136 81,141 72.4,136 72.4,126" fill="none" stroke="#39FF14" stroke-width="1" opacity="0.020788806617303004"/>
<polygon points="184,157 192.6,162 192.6,172 184,177 175.4,172 175.4,162" fill="none" stroke="#39FF14" stroke-width="1" opacity="0.03518993697018988"/>
<polygon points="154,75 162.6,80 162.6,90 154,95 145.4,90 145.4,80" fill="none" stroke="#39FF14" stroke-width="1" opacity="0.06925476058593125"/>
<polygon points="59,171 67.6,176 67.6,186 59,191 50.4,186 50.4,176" fill="none" stroke="#39FF14" stroke-width="1" opacity="0.04641873615777355"/>
<polygon points="315,40 323.6,45 323.6,55 315,60 306.4,55 306.4,45" fill="none" stroke="#39FF14" stroke-width="1" opacity="0.07952847467564948"/>
<polygon points="156,79 164.6,84 164.6,94 156,99 147.4,94 147.4,84" fill="none" stroke="#39FF14" stroke-width="1" opacity="0.03599631136726483"/>
<polygon points="171,20 179.6,25 179.6,35 171,40 162.4,35 162.4,25" fill="none" stroke="#39FF14" stroke-width="1" opacity="0.061891211060413995"/>
<polygon points="659,177 667.6,182 667.6,192 659,197 650.4,192 650.4,182" fill="none" stroke="#39FF14" stroke-width="1" opacity="0.027376464068458256"/>
<polygon points="153,90 161.6,95 161.6,105 153,110 144.4,105 144.4,95" fill="none" stroke="#39FF14" stroke-width="1" opacity="0.03452952350173105"/>
<polygon points="683,121 691.6,126 691.6,136 683,141 674.4,136 674.4,126" fill="none" stroke="#39FF14" stroke-width="1" opacity="0.06430676057777843"/>
<polygon points="388,62 396.6,67 396.6,77 388,82 379.4,77 379.4,67" fill="none" stroke="#39FF14" stroke-width="1" opacity="0.059445312645761125"/>
<polygon points="287,141 295.6,146 295.6,156 287,161 278.4,156 278.4,146" fill="none" stroke="#39FF14" stroke-width="1" opacity="0.0452314716246684"/>
<polygon points="749,174 757.6,179 757.6,189 749,194 740.4,189 740.4,179" fill="none" stroke="#39FF14" stroke-width="1" opacity="0.034717843222804204"/>
<polygon points="325,99 333.6,104 333.6,114 325,119 316.4,114 316.4,104" fill="none" stroke="#39FF14" stroke-width="1" opacity="0.06119595937636216"/>
<polygon points="820,183 828.6,188 828.6,198 820,203 811.4,198 811.4,188" fill="none" stroke="#39FF14" stroke-width="1" opacity="0.031752756287435846"/>
<polygon points="827,99 835.6,104 835.6,114 827,119 818.4,114 818.4,104" fill="none" stroke="#39FF14" stroke-width="1" opacity="0.062085173828601986"/>
<polygon points="408,101 416.6,106 416.6,116 408,121 399.4,116 399.4,106" fill="none" stroke="#39FF14" stroke-width="1" opacity="0.06085097679877455"/>
<polygon points="497,118 505.6,123 505.6,133 497,138 488.4,133 488.4,123" fill="none" stroke="#39FF14" stroke-width="1" opacity="0.031249475658514436"/>
<polygon points="26,16 34.6,21 34.6,31 26,36 17.4,31 17.4,21" fill="none" stroke="#39FF14" stroke-width="1" opacity="0.06656407065620255"/>
<polygon points="683,-10 691.6,-5 691.6,5 683,10 674.4,5 674.4,-5" fill="none" stroke="#39FF14" stroke-width="1" opacity="0.03271357247769068"/>
<polygon points="139,106 147.6,111 147.6,121 139,126 130.4,121 130.4,111" fill="none" stroke="#39FF14" stroke-width="1" opacity="0.056140259497396275"/>
<polygon points="535,170 543.6,175 543.6,185 535,190 526.4,185 526.4,175" fill="none" stroke="#39FF14" stroke-width="1" opacity="0.03318876405644362"/>
<polygon points="20,29 28.6,34 28.6,44 20,49 11.4,44 11.4,34" fill="none" stroke="#39FF14" stroke-width="1" opacity="0.04994120454114553"/>
<polygon points="656,86 664.6,91 664.6,101 656,106 647.4,101 647.4,91" fill="none" stroke="#39FF14" stroke-width="1" opacity="0.07852101402461335"/>
</g>

  <!-- HUD Decorative elements -->
  <path d="M 20 20 L 40 20 L 50 30" fill="none" stroke="#39FF14" stroke-width="2" opacity="0.5"/>
  <path d="M 830 180 L 810 180 L 800 170" fill="none" stroke="#39FF14" stroke-width="2" opacity="0.5"/>

  <g clip-path="url(#dashClip)">
    <rect x="-160" y="0" width="160" height="200" fill="url(#scanlineGrad)">
      <animateTransform attributeName="transform" type="translate"
                        from="0 0" to="1010 0" dur="6s" repeatCount="indefinite"/>
    </rect>
  </g>

  <g font-family="'Consolas', 'Fira Code', monospace" text-anchor="middle">

    <!-- NETWORK STATUS -->
    <g transform="translate(130, 100)">
        <circle cx="0" cy="0" r="45" fill="none" stroke="#39FF14" stroke-width="2" stroke-dasharray="10 5">
            <animateTransform attributeName="transform" type="rotate" from="0" to="360" dur="10s" repeatCount="indefinite"/>
        </circle>
        <circle cx="0" cy="0" r="35" fill="#0d0d0d" />
        <text x="0" y="-60" font-size="12" fill="#aaaaaa" letter-spacing="2">ROOT.AUTH</text>
        <text x="0" y="70" font-size="14" fill="#ffffff" font-weight="bold">OPERATIONAL</text>
    </g>

    <!-- ACTIVE USERS -->
    <g transform="translate(330, 100)">
        <text x="0" y="-20" font-size="12" fill="#aaaaaa">CITIZENS</text>
        <text x="0" y="15" font-size="28" fill="#ffffff" font-weight="bold" filter="url(#textGlow)">13,748</text>
        <text x="0" y="35" font-size="10" fill="#777777">VERIFIED HUMANS</text>
    </g>

    <!-- REGISTERED AGENTS -->
    <g transform="translate(530, 100)">
        <text x="0" y="-20" font-size="12" fill="#aaaaaa">AGENTS</text>
        <text x="0" y="15" font-size="28" fill="#00d4ff" font-weight="bold" filter="url(#textGlow)">4,137</text>
        <text x="0" y="35" font-size="10" fill="#777777">REGISTERED DIDs</text>
    </g>

    <!-- TRANSACTIONS -->
    <g transform="translate(730, 100)">
        <text x="0" y="-20" font-size="12" fill="#aaaaaa">TRANSFERS</text>
        <text x="0" y="15" font-size="28" fill="#ffffff" font-weight="bold">31,524</text>
        <text x="0" y="35" font-size="10" fill="#777777">M2M SETTLEMENTS</text>
    </g>
  </g>

  <text x="425" y="185" font-family="'Consolas', 'Fira Code', monospace" font-size="10" fill="#aaaaaa" opacity="0.6" text-anchor="middle">AXIOMID PROJECTED TARGETS (ILLUSTRATIVE): 2026-07-21 16:15:49 UTC // SECURE_HANDSHAKE</text>
</svg>