<svg width="850" height="200" viewBox="0 0 850 200" xmlns="http://www.w3.org/2000/svg">
  <defs>
    <pattern id="carbonFiber" width="10" height="10" patternUnits="userSpaceOnUse">
        <rect width="10" height="10" fill="#050505"/>
        <path d="M0,0 L5,5 L10,0 L5,-5 Z M5,5 L10,10 L15,5 L10,0 Z M-5,5 L0,10 L5,5 L0,0 Z M0,10 L5,15 L10,10 L5,5 Z" fill="#0d0d0d"/>
    </pattern>
    <filter id="textGlow">
      <feGaussianBlur stdDeviation="2" result="blur" />
      <feMerge>
        <feMergeNode in="blur"/>
        <feMergeNode in="SourceGraphic"/>
      </feMerge>
    </filter>
    <linearGradient id="neonBar" x1="0%" y1="0%" x2="100%" y2="0%">
        <stop offset="0%" stop-color="#111111"/>
        <stop offset="100%" stop-color="#39FF14"/>
    </linearGradient>
    <linearGradient id="scanlineGrad" x1="0%" y1="0%" x2="100%" y2="0%">
        <stop offset="0%" stop-color="#39FF14" stop-opacity="0"/>
        <stop offset="50%" stop-color="#39FF14" stop-opacity="0.18"/>
        <stop offset="100%" stop-color="#39FF14" stop-opacity="0"/>
    </linearGradient>
    <clipPath id="dashClip">
        <rect x="0" y="0" width="850" height="200" rx="12"/>
    </clipPath>
  </defs>

  <rect width="100%" height="100%" fill="url(#carbonFiber)" rx="12" stroke="#39FF14" stroke-width="1" stroke-opacity="0.3"/>
  <rect width="100%" height="100%" fill="#000000" opacity="0.6" rx="12" />
  <g><polygon points="261,117 269.6,122 269.6,132 261,137 252.4,132 252.4,122" fill="none" stroke="#39FF14" stroke-width="1" opacity="0.04454919772325083"/>
<polygon points="81,96 89.6,101 89.6,111 81,116 72.4,111 72.4,101" fill="none" stroke="#39FF14" stroke-width="1" opacity="0.04840319634819072"/>
<polygon points="176,136 184.6,141 184.6,151 176,156 167.4,151 167.4,141" fill="none" stroke="#39FF14" stroke-width="1" opacity="0.05569679282445947"/>
<polygon points="345,15 353.6,20 353.6,30 345,35 336.4,30 336.4,20" fill="none" stroke="#39FF14" stroke-width="1" opacity="0.06860249326002835"/>
<polygon points="427,151 435.6,156 435.6,166 427,171 418.4,166 418.4,156" fill="none" stroke="#39FF14" stroke-width="1" opacity="0.03596972096245826"/>
<polygon points="316,1 324.6,6 324.6,16 316,21 307.4,16 307.4,6" fill="none" stroke="#39FF14" stroke-width="1" opacity="0.07019626827633112"/>
<polygon points="80,12 88.6,17 88.6,27 80,32 71.4,27 71.4,17" fill="none" stroke="#39FF14" stroke-width="1" opacity="0.07299839231229642"/>
<polygon points="621,143 629.6,148 629.6,158 621,163 612.4,158 612.4,148" fill="none" stroke="#39FF14" stroke-width="1" opacity="0.022597059824557803"/>
<polygon points="226,120 234.6,125 234.6,135 226,140 217.4,135 217.4,125" fill="none" stroke="#39FF14" stroke-width="1" opacity="0.040319591591505013"/>
<polygon points="819,166 827.6,171 827.6,181 819,186 810.4,181 810.4,171" fill="none" stroke="#39FF14" stroke-width="1" opacity="0.0701524447125972"/>
<polygon points="717,180 725.6,185 725.6,195 717,200 708.4,195 708.4,185" fill="none" stroke="#39FF14" stroke-width="1" opacity="0.0369015497936568"/>
<polygon points="761,80 769.6,85 769.6,95 761,100 752.4,95 752.4,85" fill="none" stroke="#39FF14" stroke-width="1" opacity="0.040052000313015965"/>
<polygon points="275,50 283.6,55 283.6,65 275,70 266.4,65 266.4,55" fill="none" stroke="#39FF14" stroke-width="1" opacity="0.024210571176074214"/>
<polygon points="197,-9 205.6,-4 205.6,6 197,11 188.4,6 188.4,-4" fill="none" stroke="#39FF14" stroke-width="1" opacity="0.04521556647430805"/>
<polygon points="190,159 198.6,164 198.6,174 190,179 181.4,174 181.4,164" fill="none" stroke="#39FF14" stroke-width="1" opacity="0.060322080543291426"/>
<polygon points="569,122 577.6,127 577.6,137 569,142 560.4,137 560.4,127" fill="none" stroke="#39FF14" stroke-width="1" opacity="0.03652303815081612"/>
<polygon points="720,57 728.6,62 728.6,72 720,77 711.4,72 711.4,62" fill="none" stroke="#39FF14" stroke-width="1" opacity="0.020314767302105678"/>
<polygon points="520,59 528.6,64 528.6,74 520,79 511.4,74 511.4,64" fill="none" stroke="#39FF14" stroke-width="1" opacity="0.037011204316831955"/>
<polygon points="800,170 808.6,175 808.6,185 800,190 791.4,185 791.4,175" fill="none" stroke="#39FF14" stroke-width="1" opacity="0.06601977642873776"/>
<polygon points="530,184 538.6,189 538.6,199 530,204 521.4,199 521.4,189" fill="none" stroke="#39FF14" stroke-width="1" opacity="0.07554496280596772"/>
<polygon points="104,6 112.6,11 112.6,21 104,26 95.4,21 95.4,11" fill="none" stroke="#39FF14" stroke-width="1" opacity="0.022845576169721188"/>
<polygon points="668,113 676.6,118 676.6,128 668,133 659.4,128 659.4,118" fill="none" stroke="#39FF14" stroke-width="1" opacity="0.03909887895319162"/>
<polygon points="838,32 846.6,37 846.6,47 838,52 829.4,47 829.4,37" fill="none" stroke="#39FF14" stroke-width="1" opacity="0.02490001095065606"/>
<polygon points="635,33 643.6,38 643.6,48 635,53 626.4,48 626.4,38" fill="none" stroke="#39FF14" stroke-width="1" opacity="0.040945615143287185"/>
<polygon points="584,70 592.6,75 592.6,85 584,90 575.4,85 575.4,75" fill="none" stroke="#39FF14" stroke-width="1" opacity="0.07966445645980347"/>
<polygon points="126,186 134.6,191 134.6,201 126,206 117.4,201 117.4,191" fill="none" stroke="#39FF14" stroke-width="1" opacity="0.04952784412017217"/>
<polygon points="353,166 361.6,171 361.6,181 353,186 344.4,181 344.4,171" fill="none" stroke="#39FF14" stroke-width="1" opacity="0.04238085183191097"/>
<polygon points="475,66 483.6,71 483.6,81 475,86 466.4,81 466.4,71" fill="none" stroke="#39FF14" stroke-width="1" opacity="0.05816829646983655"/>
<polygon points="805,171 813.6,176 813.6,186 805,191 796.4,186 796.4,176" fill="none" stroke="#39FF14" stroke-width="1" opacity="0.03463670091392415"/>
<polygon points="30,41 38.6,46 38.6,56 30,61 21.4,56 21.4,46" fill="none" stroke="#39FF14" stroke-width="1" opacity="0.056749845399080553"/>
</g>

  <!-- HUD Decorative elements -->
  <path d="M 20 20 L 40 20 L 50 30" fill="none" stroke="#39FF14" stroke-width="2" opacity="0.5"/>
  <path d="M 830 180 L 810 180 L 800 170" fill="none" stroke="#39FF14" stroke-width="2" opacity="0.5"/>

  <g clip-path="url(#dashClip)">
    <rect x="-160" y="0" width="160" height="200" fill="url(#scanlineGrad)">
      <animateTransform attributeName="transform" type="translate"
                        from="0 0" to="1010 0" dur="6s" repeatCount="indefinite"/>
    </rect>
  </g>

  <g font-family="'Consolas', 'Fira Code', monospace" text-anchor="middle">

    <!-- NETWORK STATUS -->
    <g transform="translate(130, 100)">
        <circle cx="0" cy="0" r="45" fill="none" stroke="#39FF14" stroke-width="2" stroke-dasharray="10 5">
            <animateTransform attributeName="transform" type="rotate" from="0" to="360" dur="10s" repeatCount="indefinite"/>
        </circle>
        <circle cx="0" cy="0" r="35" fill="#0d0d0d" />
        <text x="0" y="-60" font-size="12" fill="#aaaaaa" letter-spacing="2">ROOT.AUTH</text>
        <text x="0" y="70" font-size="14" fill="#ffffff" font-weight="bold">OPERATIONAL</text>
    </g>

    <!-- ACTIVE USERS -->
    <g transform="translate(330, 100)">
        <text x="0" y="-20" font-size="12" fill="#aaaaaa">CITIZENS</text>
        <text x="0" y="15" font-size="28" fill="#ffffff" font-weight="bold" filter="url(#textGlow)">15,491</text>
        <text x="0" y="35" font-size="10" fill="#777777">VERIFIED HUMANS</text>
    </g>

    <!-- REGISTERED AGENTS -->
    <g transform="translate(530, 100)">
        <text x="0" y="-20" font-size="12" fill="#aaaaaa">AGENTS</text>
        <text x="0" y="15" font-size="28" fill="#00d4ff" font-weight="bold" filter="url(#textGlow)">4,501</text>
        <text x="0" y="35" font-size="10" fill="#777777">REGISTERED DIDs</text>
    </g>

    <!-- TRANSACTIONS -->
    <g transform="translate(730, 100)">
        <text x="0" y="-20" font-size="12" fill="#aaaaaa">TRANSFERS</text>
        <text x="0" y="15" font-size="28" fill="#ffffff" font-weight="bold">25,362</text>
        <text x="0" y="35" font-size="10" fill="#777777">M2M SETTLEMENTS</text>
    </g>
  </g>

  <text x="425" y="185" font-family="'Consolas', 'Fira Code', monospace" font-size="10" fill="#aaaaaa" opacity="0.6" text-anchor="middle">AXIOMID PROJECTED TARGETS (ILLUSTRATIVE): 2026-06-27 09:41:16 UTC // SECURE_HANDSHAKE</text>
</svg>