<svg width="850" height="200" viewBox="0 0 850 200" xmlns="http://www.w3.org/2000/svg">
  <defs>
    <pattern id="carbonFiber" width="10" height="10" patternUnits="userSpaceOnUse">
        <rect width="10" height="10" fill="#050505"/>
        <path d="M0,0 L5,5 L10,0 L5,-5 Z M5,5 L10,10 L15,5 L10,0 Z M-5,5 L0,10 L5,5 L0,0 Z M0,10 L5,15 L10,10 L5,5 Z" fill="#0d0d0d"/>
    </pattern>
    <filter id="textGlow">
      <feGaussianBlur stdDeviation="2" result="blur" />
      <feMerge>
        <feMergeNode in="blur"/>
        <feMergeNode in="SourceGraphic"/>
      </feMerge>
    </filter>
    <linearGradient id="neonBar" x1="0%" y1="0%" x2="100%" y2="0%">
        <stop offset="0%" stop-color="#111111"/>
        <stop offset="100%" stop-color="#39FF14"/>
    </linearGradient>
    <linearGradient id="scanlineGrad" x1="0%" y1="0%" x2="100%" y2="0%">
        <stop offset="0%" stop-color="#39FF14" stop-opacity="0"/>
        <stop offset="50%" stop-color="#39FF14" stop-opacity="0.18"/>
        <stop offset="100%" stop-color="#39FF14" stop-opacity="0"/>
    </linearGradient>
    <clipPath id="dashClip">
        <rect x="0" y="0" width="850" height="200" rx="12"/>
    </clipPath>
  </defs>

  <rect width="100%" height="100%" fill="url(#carbonFiber)" rx="12" stroke="#39FF14" stroke-width="1" stroke-opacity="0.3"/>
  <rect width="100%" height="100%" fill="#000000" opacity="0.6" rx="12" />
  <g><polygon points="385,184 393.6,189 393.6,199 385,204 376.4,199 376.4,189" fill="none" stroke="#39FF14" stroke-width="1" opacity="0.056215155290867194"/>
<polygon points="161,97 169.6,102 169.6,112 161,117 152.4,112 152.4,102" fill="none" stroke="#39FF14" stroke-width="1" opacity="0.041723606967992564"/>
<polygon points="73,77 81.6,82 81.6,92 73,97 64.4,92 64.4,82" fill="none" stroke="#39FF14" stroke-width="1" opacity="0.04681415979099668"/>
<polygon points="3,26 11.6,31 11.6,41 3,46 -5.6,41 -5.6,31" fill="none" stroke="#39FF14" stroke-width="1" opacity="0.049043199869163695"/>
<polygon points="584,58 592.6,63 592.6,73 584,78 575.4,73 575.4,63" fill="none" stroke="#39FF14" stroke-width="1" opacity="0.07851203940546068"/>
<polygon points="343,36 351.6,41 351.6,51 343,56 334.4,51 334.4,41" fill="none" stroke="#39FF14" stroke-width="1" opacity="0.03652623660206934"/>
<polygon points="496,126 504.6,131 504.6,141 496,146 487.4,141 487.4,131" fill="none" stroke="#39FF14" stroke-width="1" opacity="0.051043934661364095"/>
<polygon points="601,114 609.6,119 609.6,129 601,134 592.4,129 592.4,119" fill="none" stroke="#39FF14" stroke-width="1" opacity="0.03553837465114439"/>
<polygon points="453,112 461.6,117 461.6,127 453,132 444.4,127 444.4,117" fill="none" stroke="#39FF14" stroke-width="1" opacity="0.022945170794319625"/>
<polygon points="150,146 158.6,151 158.6,161 150,166 141.4,161 141.4,151" fill="none" stroke="#39FF14" stroke-width="1" opacity="0.03504141338955878"/>
<polygon points="3,168 11.6,173 11.6,183 3,188 -5.6,183 -5.6,173" fill="none" stroke="#39FF14" stroke-width="1" opacity="0.062277752761212044"/>
<polygon points="236,39 244.6,44 244.6,54 236,59 227.4,54 227.4,44" fill="none" stroke="#39FF14" stroke-width="1" opacity="0.031761900084215755"/>
<polygon points="287,120 295.6,125 295.6,135 287,140 278.4,135 278.4,125" fill="none" stroke="#39FF14" stroke-width="1" opacity="0.026282034431716693"/>
<polygon points="639,116 647.6,121 647.6,131 639,136 630.4,131 630.4,121" fill="none" stroke="#39FF14" stroke-width="1" opacity="0.020147034819683548"/>
<polygon points="235,95 243.6,100 243.6,110 235,115 226.4,110 226.4,100" fill="none" stroke="#39FF14" stroke-width="1" opacity="0.021959044628425926"/>
<polygon points="334,13 342.6,18 342.6,28 334,33 325.4,28 325.4,18" fill="none" stroke="#39FF14" stroke-width="1" opacity="0.06493406452211144"/>
<polygon points="588,121 596.6,126 596.6,136 588,141 579.4,136 579.4,126" fill="none" stroke="#39FF14" stroke-width="1" opacity="0.021414907014348165"/>
<polygon points="71,51 79.6,56 79.6,66 71,71 62.4,66 62.4,56" fill="none" stroke="#39FF14" stroke-width="1" opacity="0.07677459814833013"/>
<polygon points="293,65 301.6,70 301.6,80 293,85 284.4,80 284.4,70" fill="none" stroke="#39FF14" stroke-width="1" opacity="0.07554599696479337"/>
<polygon points="562,138 570.6,143 570.6,153 562,158 553.4,153 553.4,143" fill="none" stroke="#39FF14" stroke-width="1" opacity="0.05705189878437962"/>
<polygon points="290,110 298.6,115 298.6,125 290,130 281.4,125 281.4,115" fill="none" stroke="#39FF14" stroke-width="1" opacity="0.06134970490732804"/>
<polygon points="278,101 286.6,106 286.6,116 278,121 269.4,116 269.4,106" fill="none" stroke="#39FF14" stroke-width="1" opacity="0.030782737188858135"/>
<polygon points="153,89 161.6,94 161.6,104 153,109 144.4,104 144.4,94" fill="none" stroke="#39FF14" stroke-width="1" opacity="0.021847552132627134"/>
<polygon points="557,42 565.6,47 565.6,57 557,62 548.4,57 548.4,47" fill="none" stroke="#39FF14" stroke-width="1" opacity="0.06286481901049133"/>
<polygon points="679,181 687.6,186 687.6,196 679,201 670.4,196 670.4,186" fill="none" stroke="#39FF14" stroke-width="1" opacity="0.04248491635617697"/>
<polygon points="53,165 61.6,170 61.6,180 53,185 44.4,180 44.4,170" fill="none" stroke="#39FF14" stroke-width="1" opacity="0.05121564361662059"/>
<polygon points="800,26 808.6,31 808.6,41 800,46 791.4,41 791.4,31" fill="none" stroke="#39FF14" stroke-width="1" opacity="0.05277933427213287"/>
<polygon points="183,185 191.6,190 191.6,200 183,205 174.4,200 174.4,190" fill="none" stroke="#39FF14" stroke-width="1" opacity="0.04948120245447613"/>
<polygon points="642,181 650.6,186 650.6,196 642,201 633.4,196 633.4,186" fill="none" stroke="#39FF14" stroke-width="1" opacity="0.06646133899863045"/>
<polygon points="756,2 764.6,7 764.6,17 756,22 747.4,17 747.4,7" fill="none" stroke="#39FF14" stroke-width="1" opacity="0.03169144617962617"/>
</g>

  <!-- HUD Decorative elements -->
  <path d="M 20 20 L 40 20 L 50 30" fill="none" stroke="#39FF14" stroke-width="2" opacity="0.5"/>
  <path d="M 830 180 L 810 180 L 800 170" fill="none" stroke="#39FF14" stroke-width="2" opacity="0.5"/>

  <g clip-path="url(#dashClip)">
    <rect x="-160" y="0" width="160" height="200" fill="url(#scanlineGrad)">
      <animateTransform attributeName="transform" type="translate"
                        from="0 0" to="1010 0" dur="6s" repeatCount="indefinite"/>
    </rect>
  </g>

  <g font-family="'Consolas', 'Fira Code', monospace" text-anchor="middle">

    <!-- NETWORK STATUS -->
    <g transform="translate(130, 100)">
        <circle cx="0" cy="0" r="45" fill="none" stroke="#39FF14" stroke-width="2" stroke-dasharray="10 5">
            <animateTransform attributeName="transform" type="rotate" from="0" to="360" dur="10s" repeatCount="indefinite"/>
        </circle>
        <circle cx="0" cy="0" r="35" fill="#0d0d0d" />
        <text x="0" y="-60" font-size="12" fill="#aaaaaa" letter-spacing="2">ROOT.AUTH</text>
        <text x="0" y="70" font-size="14" fill="#ffffff" font-weight="bold">OPERATIONAL</text>
    </g>

    <!-- ACTIVE USERS -->
    <g transform="translate(330, 100)">
        <text x="0" y="-20" font-size="12" fill="#aaaaaa">CITIZENS</text>
        <text x="0" y="15" font-size="28" fill="#ffffff" font-weight="bold" filter="url(#textGlow)">14,131</text>
        <text x="0" y="35" font-size="10" fill="#777777">VERIFIED HUMANS</text>
    </g>

    <!-- REGISTERED AGENTS -->
    <g transform="translate(530, 100)">
        <text x="0" y="-20" font-size="12" fill="#aaaaaa">AGENTS</text>
        <text x="0" y="15" font-size="28" fill="#00d4ff" font-weight="bold" filter="url(#textGlow)">3,103</text>
        <text x="0" y="35" font-size="10" fill="#777777">REGISTERED DIDs</text>
    </g>

    <!-- TRANSACTIONS -->
    <g transform="translate(730, 100)">
        <text x="0" y="-20" font-size="12" fill="#aaaaaa">TRANSFERS</text>
        <text x="0" y="15" font-size="28" fill="#ffffff" font-weight="bold">29,054</text>
        <text x="0" y="35" font-size="10" fill="#777777">M2M SETTLEMENTS</text>
    </g>
  </g>

  <text x="425" y="185" font-family="'Consolas', 'Fira Code', monospace" font-size="10" fill="#aaaaaa" opacity="0.6" text-anchor="middle">AXIOMID PROJECTED TARGETS (ILLUSTRATIVE): 2026-07-05 18:32:51 UTC // SECURE_HANDSHAKE</text>
</svg>