<svg width="850" height="200" viewBox="0 0 850 200" xmlns="http://www.w3.org/2000/svg">
  <defs>
    <pattern id="carbonFiber" width="10" height="10" patternUnits="userSpaceOnUse">
        <rect width="10" height="10" fill="#050505"/>
        <path d="M0,0 L5,5 L10,0 L5,-5 Z M5,5 L10,10 L15,5 L10,0 Z M-5,5 L0,10 L5,5 L0,0 Z M0,10 L5,15 L10,10 L5,5 Z" fill="#0d0d0d"/>
    </pattern>
    <filter id="textGlow">
      <feGaussianBlur stdDeviation="2" result="blur" />
      <feMerge>
        <feMergeNode in="blur"/>
        <feMergeNode in="SourceGraphic"/>
      </feMerge>
    </filter>
    <linearGradient id="neonBar" x1="0%" y1="0%" x2="100%" y2="0%">
        <stop offset="0%" stop-color="#111111"/>
        <stop offset="100%" stop-color="#39FF14"/>
    </linearGradient>
    <linearGradient id="scanlineGrad" x1="0%" y1="0%" x2="100%" y2="0%">
        <stop offset="0%" stop-color="#39FF14" stop-opacity="0"/>
        <stop offset="50%" stop-color="#39FF14" stop-opacity="0.18"/>
        <stop offset="100%" stop-color="#39FF14" stop-opacity="0"/>
    </linearGradient>
    <clipPath id="dashClip">
        <rect x="0" y="0" width="850" height="200" rx="12"/>
    </clipPath>
  </defs>

  <rect width="100%" height="100%" fill="url(#carbonFiber)" rx="12" stroke="#39FF14" stroke-width="1" stroke-opacity="0.3"/>
  <rect width="100%" height="100%" fill="#000000" opacity="0.6" rx="12" />
  <g><polygon points="202,72 210.6,77 210.6,87 202,92 193.4,87 193.4,77" fill="none" stroke="#39FF14" stroke-width="1" opacity="0.061577219000240005"/>
<polygon points="694,153 702.6,158 702.6,168 694,173 685.4,168 685.4,158" fill="none" stroke="#39FF14" stroke-width="1" opacity="0.04267595539859492"/>
<polygon points="692,100 700.6,105 700.6,115 692,120 683.4,115 683.4,105" fill="none" stroke="#39FF14" stroke-width="1" opacity="0.07609363126144571"/>
<polygon points="262,5 270.6,10 270.6,20 262,25 253.4,20 253.4,10" fill="none" stroke="#39FF14" stroke-width="1" opacity="0.021422060084380787"/>
<polygon points="39,26 47.6,31 47.6,41 39,46 30.4,41 30.4,31" fill="none" stroke="#39FF14" stroke-width="1" opacity="0.02252063850435727"/>
<polygon points="431,-3 439.6,2 439.6,12 431,17 422.4,12 422.4,2" fill="none" stroke="#39FF14" stroke-width="1" opacity="0.05064025328352879"/>
<polygon points="196,153 204.6,158 204.6,168 196,173 187.4,168 187.4,158" fill="none" stroke="#39FF14" stroke-width="1" opacity="0.06156144007739266"/>
<polygon points="466,157 474.6,162 474.6,172 466,177 457.4,172 457.4,162" fill="none" stroke="#39FF14" stroke-width="1" opacity="0.04576979888274435"/>
<polygon points="620,35 628.6,40 628.6,50 620,55 611.4,50 611.4,40" fill="none" stroke="#39FF14" stroke-width="1" opacity="0.07168154703006878"/>
<polygon points="105,19 113.6,24 113.6,34 105,39 96.4,34 96.4,24" fill="none" stroke="#39FF14" stroke-width="1" opacity="0.04222918675696858"/>
<polygon points="607,123 615.6,128 615.6,138 607,143 598.4,138 598.4,128" fill="none" stroke="#39FF14" stroke-width="1" opacity="0.035895904292910466"/>
<polygon points="711,110 719.6,115 719.6,125 711,130 702.4,125 702.4,115" fill="none" stroke="#39FF14" stroke-width="1" opacity="0.036584189410374016"/>
<polygon points="92,142 100.6,147 100.6,157 92,162 83.4,157 83.4,147" fill="none" stroke="#39FF14" stroke-width="1" opacity="0.05458414825192283"/>
<polygon points="35,71 43.6,76 43.6,86 35,91 26.4,86 26.4,76" fill="none" stroke="#39FF14" stroke-width="1" opacity="0.04292572396404054"/>
<polygon points="295,4 303.6,9 303.6,19 295,24 286.4,19 286.4,9" fill="none" stroke="#39FF14" stroke-width="1" opacity="0.05931717983119865"/>
<polygon points="296,135 304.6,140 304.6,150 296,155 287.4,150 287.4,140" fill="none" stroke="#39FF14" stroke-width="1" opacity="0.07770092097257476"/>
<polygon points="818,123 826.6,128 826.6,138 818,143 809.4,138 809.4,128" fill="none" stroke="#39FF14" stroke-width="1" opacity="0.07301522761821315"/>
<polygon points="57,91 65.6,96 65.6,106 57,111 48.4,106 48.4,96" fill="none" stroke="#39FF14" stroke-width="1" opacity="0.07974100010208988"/>
<polygon points="440,156 448.6,161 448.6,171 440,176 431.4,171 431.4,161" fill="none" stroke="#39FF14" stroke-width="1" opacity="0.03207144360053354"/>
<polygon points="411,139 419.6,144 419.6,154 411,159 402.4,154 402.4,144" fill="none" stroke="#39FF14" stroke-width="1" opacity="0.02441899208350381"/>
<polygon points="579,42 587.6,47 587.6,57 579,62 570.4,57 570.4,47" fill="none" stroke="#39FF14" stroke-width="1" opacity="0.06329825034753556"/>
<polygon points="153,60 161.6,65 161.6,75 153,80 144.4,75 144.4,65" fill="none" stroke="#39FF14" stroke-width="1" opacity="0.06697220305837619"/>
<polygon points="72,73 80.6,78 80.6,88 72,93 63.4,88 63.4,78" fill="none" stroke="#39FF14" stroke-width="1" opacity="0.04914708373484933"/>
<polygon points="3,137 11.6,142 11.6,152 3,157 -5.6,152 -5.6,142" fill="none" stroke="#39FF14" stroke-width="1" opacity="0.04541455798193246"/>
<polygon points="595,11 603.6,16 603.6,26 595,31 586.4,26 586.4,16" fill="none" stroke="#39FF14" stroke-width="1" opacity="0.028000452029580524"/>
<polygon points="560,69 568.6,74 568.6,84 560,89 551.4,84 551.4,74" fill="none" stroke="#39FF14" stroke-width="1" opacity="0.021686985584795763"/>
<polygon points="392,62 400.6,67 400.6,77 392,82 383.4,77 383.4,67" fill="none" stroke="#39FF14" stroke-width="1" opacity="0.04375382482451002"/>
<polygon points="187,136 195.6,141 195.6,151 187,156 178.4,151 178.4,141" fill="none" stroke="#39FF14" stroke-width="1" opacity="0.057985680113079766"/>
<polygon points="330,137 338.6,142 338.6,152 330,157 321.4,152 321.4,142" fill="none" stroke="#39FF14" stroke-width="1" opacity="0.06710062040938485"/>
<polygon points="259,60 267.6,65 267.6,75 259,80 250.4,75 250.4,65" fill="none" stroke="#39FF14" stroke-width="1" opacity="0.0637829173478127"/>
</g>

  <!-- HUD Decorative elements -->
  <path d="M 20 20 L 40 20 L 50 30" fill="none" stroke="#39FF14" stroke-width="2" opacity="0.5"/>
  <path d="M 830 180 L 810 180 L 800 170" fill="none" stroke="#39FF14" stroke-width="2" opacity="0.5"/>

  <g clip-path="url(#dashClip)">
    <rect x="-160" y="0" width="160" height="200" fill="url(#scanlineGrad)">
      <animateTransform attributeName="transform" type="translate"
                        from="0 0" to="1010 0" dur="6s" repeatCount="indefinite"/>
    </rect>
  </g>

  <g font-family="'Consolas', 'Fira Code', monospace" text-anchor="middle">

    <!-- NETWORK STATUS -->
    <g transform="translate(130, 100)">
        <circle cx="0" cy="0" r="45" fill="none" stroke="#39FF14" stroke-width="2" stroke-dasharray="10 5">
            <animateTransform attributeName="transform" type="rotate" from="0" to="360" dur="10s" repeatCount="indefinite"/>
        </circle>
        <circle cx="0" cy="0" r="35" fill="#0d0d0d" />
        <text x="0" y="-60" font-size="12" fill="#aaaaaa" letter-spacing="2">ROOT.AUTH</text>
        <text x="0" y="70" font-size="14" fill="#ffffff" font-weight="bold">OPERATIONAL</text>
    </g>

    <!-- ACTIVE USERS -->
    <g transform="translate(330, 100)">
        <text x="0" y="-20" font-size="12" fill="#aaaaaa">CITIZENS</text>
        <text x="0" y="15" font-size="28" fill="#ffffff" font-weight="bold" filter="url(#textGlow)">15,158</text>
        <text x="0" y="35" font-size="10" fill="#777777">VERIFIED HUMANS</text>
    </g>

    <!-- REGISTERED AGENTS -->
    <g transform="translate(530, 100)">
        <text x="0" y="-20" font-size="12" fill="#aaaaaa">AGENTS</text>
        <text x="0" y="15" font-size="28" fill="#00d4ff" font-weight="bold" filter="url(#textGlow)">3,501</text>
        <text x="0" y="35" font-size="10" fill="#777777">REGISTERED DIDs</text>
    </g>

    <!-- TRANSACTIONS -->
    <g transform="translate(730, 100)">
        <text x="0" y="-20" font-size="12" fill="#aaaaaa">TRANSFERS</text>
        <text x="0" y="15" font-size="28" fill="#ffffff" font-weight="bold">33,873</text>
        <text x="0" y="35" font-size="10" fill="#777777">M2M SETTLEMENTS</text>
    </g>
  </g>

  <text x="425" y="185" font-family="'Consolas', 'Fira Code', monospace" font-size="10" fill="#aaaaaa" opacity="0.6" text-anchor="middle">AXIOMID PROJECTED TARGETS (ILLUSTRATIVE): 2026-06-29 00:31:14 UTC // SECURE_HANDSHAKE</text>
</svg>