<svg width="850" height="200" viewBox="0 0 850 200" xmlns="http://www.w3.org/2000/svg">
  <defs>
    <!-- Carbon Fiber Pattern -->
    <pattern id="carbonFiber" width="10" height="10" patternUnits="userSpaceOnUse">
        <rect width="10" height="10" fill="#050505"/>
        <path d="M0,0 L5,5 L10,0 L5,-5 Z M5,5 L10,10 L15,5 L10,0 Z M-5,5 L0,10 L5,5 L0,0 Z M0,10 L5,15 L10,10 L5,5 Z" fill="#0d0d0d"/>
    </pattern>
    <filter id="glassmorphism">
      <feGaussianBlur stdDeviation="3" result="blur" />
      <feColorMatrix type="matrix" values="1 0 0 0 0  0 1 0 0 0  0 0 1 0 0  0 0 0 18 -7" result="glow" />
      <feBlend in="SourceGraphic" in2="glow" mode="normal" />
    </filter>
    <filter id="textGlow">
      <feGaussianBlur stdDeviation="2" result="blur" />
      <feMerge>
        <feMergeNode in="blur"/>
        <feMergeNode in="SourceGraphic"/>
      </feMerge>
    </filter>
    <linearGradient id="neonBar" x1="0%" y1="0%" x2="100%" y2="0%">
        <stop offset="0%" stop-color="#111111"/>
        <stop offset="100%" stop-color="#39FF14"/>
    </linearGradient>
  </defs>

  <rect width="100%" height="100%" fill="url(#carbonFiber)" rx="12" stroke="#39FF14" stroke-width="1" stroke-opacity="0.3"/>
  <rect width="100%" height="100%" fill="#000000" opacity="0.6" rx="12" />
  <g><polygon points="783,35 791.6,40 791.6,50 783,55 774.4,50 774.4,40" fill="none" stroke="#39FF14" stroke-width="1" opacity="0.068163267314319"/>
<polygon points="198,85 206.6,90 206.6,100 198,105 189.4,100 189.4,90" fill="none" stroke="#39FF14" stroke-width="1" opacity="0.06121551424853963"/>
<polygon points="479,125 487.6,130 487.6,140 479,145 470.4,140 470.4,130" fill="none" stroke="#39FF14" stroke-width="1" opacity="0.06349486433676395"/>
<polygon points="43,22 51.6,27 51.6,37 43,42 34.4,37 34.4,27" fill="none" stroke="#39FF14" stroke-width="1" opacity="0.02180155959263192"/>
<polygon points="840,-1 848.6,4 848.6,14 840,19 831.4,14 831.4,4" fill="none" stroke="#39FF14" stroke-width="1" opacity="0.03015089426948693"/>
<polygon points="436,-4 444.6,1 444.6,11 436,16 427.4,11 427.4,1" fill="none" stroke="#39FF14" stroke-width="1" opacity="0.032528752640526674"/>
<polygon points="275,51 283.6,56 283.6,66 275,71 266.4,66 266.4,56" fill="none" stroke="#39FF14" stroke-width="1" opacity="0.07836684162670624"/>
<polygon points="143,78 151.6,83 151.6,93 143,98 134.4,93 134.4,83" fill="none" stroke="#39FF14" stroke-width="1" opacity="0.0490754157040213"/>
<polygon points="326,99 334.6,104 334.6,114 326,119 317.4,114 317.4,104" fill="none" stroke="#39FF14" stroke-width="1" opacity="0.03736578350576719"/>
<polygon points="465,29 473.6,34 473.6,44 465,49 456.4,44 456.4,34" fill="none" stroke="#39FF14" stroke-width="1" opacity="0.06118226821767739"/>
<polygon points="153,-6 161.6,-1 161.6,9 153,14 144.4,9 144.4,-1" fill="none" stroke="#39FF14" stroke-width="1" opacity="0.040425646597996384"/>
<polygon points="89,77 97.6,82 97.6,92 89,97 80.4,92 80.4,82" fill="none" stroke="#39FF14" stroke-width="1" opacity="0.054145746634646386"/>
<polygon points="458,-3 466.6,2 466.6,12 458,17 449.4,12 449.4,2" fill="none" stroke="#39FF14" stroke-width="1" opacity="0.030843557388081554"/>
<polygon points="555,58 563.6,63 563.6,73 555,78 546.4,73 546.4,63" fill="none" stroke="#39FF14" stroke-width="1" opacity="0.0621285342350783"/>
<polygon points="755,163 763.6,168 763.6,178 755,183 746.4,178 746.4,168" fill="none" stroke="#39FF14" stroke-width="1" opacity="0.06480987160606815"/>
<polygon points="677,126 685.6,131 685.6,141 677,146 668.4,141 668.4,131" fill="none" stroke="#39FF14" stroke-width="1" opacity="0.030795638502004993"/>
<polygon points="704,50 712.6,55 712.6,65 704,70 695.4,65 695.4,55" fill="none" stroke="#39FF14" stroke-width="1" opacity="0.03252539969237846"/>
<polygon points="838,71 846.6,76 846.6,86 838,91 829.4,86 829.4,76" fill="none" stroke="#39FF14" stroke-width="1" opacity="0.0241461308930788"/>
<polygon points="407,110 415.6,115 415.6,125 407,130 398.4,125 398.4,115" fill="none" stroke="#39FF14" stroke-width="1" opacity="0.06822305335258404"/>
<polygon points="758,29 766.6,34 766.6,44 758,49 749.4,44 749.4,34" fill="none" stroke="#39FF14" stroke-width="1" opacity="0.07753705506416385"/>
<polygon points="759,166 767.6,171 767.6,181 759,186 750.4,181 750.4,171" fill="none" stroke="#39FF14" stroke-width="1" opacity="0.06059459761113356"/>
<polygon points="464,122 472.6,127 472.6,137 464,142 455.4,137 455.4,127" fill="none" stroke="#39FF14" stroke-width="1" opacity="0.020822190036138295"/>
<polygon points="320,-3 328.6,2 328.6,12 320,17 311.4,12 311.4,2" fill="none" stroke="#39FF14" stroke-width="1" opacity="0.06426110635324599"/>
<polygon points="461,39 469.6,44 469.6,54 461,59 452.4,54 452.4,44" fill="none" stroke="#39FF14" stroke-width="1" opacity="0.07800525657834648"/>
<polygon points="128,120 136.6,125 136.6,135 128,140 119.4,135 119.4,125" fill="none" stroke="#39FF14" stroke-width="1" opacity="0.0510036746179348"/>
<polygon points="444,145 452.6,150 452.6,160 444,165 435.4,160 435.4,150" fill="none" stroke="#39FF14" stroke-width="1" opacity="0.06669200228439365"/>
<polygon points="45,39 53.6,44 53.6,54 45,59 36.4,54 36.4,44" fill="none" stroke="#39FF14" stroke-width="1" opacity="0.05648318891954335"/>
<polygon points="763,7 771.6,12 771.6,22 763,27 754.4,22 754.4,12" fill="none" stroke="#39FF14" stroke-width="1" opacity="0.07462063889024992"/>
<polygon points="49,114 57.6,119 57.6,129 49,134 40.4,129 40.4,119" fill="none" stroke="#39FF14" stroke-width="1" opacity="0.047082978938424114"/>
<polygon points="22,65 30.6,70 30.6,80 22,85 13.4,80 13.4,70" fill="none" stroke="#39FF14" stroke-width="1" opacity="0.02926026372154817"/>
</g>

  <!-- HUD Decorative elements -->
  <path d="M 20 20 L 40 20 L 50 30" fill="none" stroke="#39FF14" stroke-width="2" opacity="0.5"/>
  <path d="M 830 180 L 810 180 L 800 170" fill="none" stroke="#39FF14" stroke-width="2" opacity="0.5"/>
  <rect x="20" y="100" width="2" height="40" fill="#ffffff" opacity="0.4"/>
  <rect x="828" y="60" width="2" height="40" fill="#39FF14" opacity="0.6"/>

  <g font-family="'Consolas', 'Fira Code', monospace" text-anchor="middle">

    <!-- SYSTEM STATUS -->
    <g transform="translate(130, 100)">
        <circle cx="0" cy="0" r="45" fill="none" stroke="#111111" stroke-width="8" />
        <circle cx="0" cy="0" r="45" fill="none" stroke="#39FF14" stroke-width="2" stroke-dasharray="10 5">
            <animateTransform attributeName="transform" type="rotate" from="0" to="360" dur="10s" repeatCount="indefinite"/>
        </circle>
        <circle cx="0" cy="0" r="35" fill="#0d0d0d" />
        <circle cx="0" cy="0" r="6" fill="#39FF14" filter="url(#textGlow)">
            <animate attributeName="opacity" values="1;0.3;1" dur="2s" repeatCount="indefinite"/>
        </circle>
        <text x="0" y="-60" font-size="12" fill="#aaaaaa" letter-spacing="2">SYS.CORE</text>
        <text x="0" y="70" font-size="14" fill="#ffffff" font-weight="bold">ONLINE</text>
    </g>

    <!-- LIVE TRAFFIC -->
    <g transform="translate(330, 100)">
        <rect x="-60" y="-45" width="120" height="90" fill="#0a0a0a" rx="8" stroke="#39FF14" stroke-opacity="0.4" stroke-width="1"/>
        <text x="0" y="-20" font-size="12" fill="#aaaaaa">NETWORK LOAD</text>
        <text x="0" y="15" font-size="28" fill="#ffffff" font-weight="bold" filter="url(#textGlow)">7315</text>
        <text x="0" y="35" font-size="10" fill="#777777">ACTIVE SESSIONS</text>
    </g>

    <!-- ACTIVE AGENTS -->
    <g transform="translate(530, 100)">
        <rect x="-60" y="-45" width="120" height="90" fill="#0a0a0a" rx="8" stroke="#39FF14" stroke-opacity="0.4" stroke-width="1"/>
        <text x="0" y="-20" font-size="12" fill="#aaaaaa">SWARM ENTITIES</text>
        <text x="0" y="15" font-size="28" fill="#ffffff" font-weight="bold" filter="url(#textGlow)">131</text>
        <text x="0" y="35" font-size="10" fill="#777777">AUTONOMOUS</text>
    </g>

    <!-- UPTIME -->
    <g transform="translate(730, 100)">
        <path d="M -40 -35 L 40 -35 L 50 -25 L 50 35 L -40 35 L -50 25 Z" fill="#0a0a0a" stroke="#39FF14" stroke-opacity="0.4" stroke-width="1"/>
        <text x="0" y="-15" font-size="12" fill="#aaaaaa">CONTINUITY</text>
        <text x="0" y="15" font-size="24" fill="#ffffff" font-weight="bold">238<tspan font-size="14" fill="#777777">d</tspan></text>
        <rect x="-35" y="25" width="70" height="4" fill="url(#neonBar)" rx="2"/>
    </g>
  </g>

  <text x="425" y="185" font-family="'Consolas', 'Fira Code', monospace" font-size="10" fill="#aaaaaa" opacity="0.6" text-anchor="middle">LAST TELEMETRY PING: 2026-05-03 00:52:20 UTC // ENCRYPTED_TUNNEL</text>
</svg>