<svg width="850" height="200" viewBox="0 0 850 200" xmlns="http://www.w3.org/2000/svg">
  <defs>
    <pattern id="carbonFiber" width="10" height="10" patternUnits="userSpaceOnUse">
        <rect width="10" height="10" fill="#050505"/>
        <path d="M0,0 L5,5 L10,0 L5,-5 Z M5,5 L10,10 L15,5 L10,0 Z M-5,5 L0,10 L5,5 L0,0 Z M0,10 L5,15 L10,10 L5,5 Z" fill="#0d0d0d"/>
    </pattern>
    <filter id="textGlow">
      <feGaussianBlur stdDeviation="2" result="blur" />
      <feMerge>
        <feMergeNode in="blur"/>
        <feMergeNode in="SourceGraphic"/>
      </feMerge>
    </filter>
    <linearGradient id="neonBar" x1="0%" y1="0%" x2="100%" y2="0%">
        <stop offset="0%" stop-color="#111111"/>
        <stop offset="100%" stop-color="#39FF14"/>
    </linearGradient>
    <linearGradient id="scanlineGrad" x1="0%" y1="0%" x2="100%" y2="0%">
        <stop offset="0%" stop-color="#39FF14" stop-opacity="0"/>
        <stop offset="50%" stop-color="#39FF14" stop-opacity="0.18"/>
        <stop offset="100%" stop-color="#39FF14" stop-opacity="0"/>
    </linearGradient>
    <clipPath id="dashClip">
        <rect x="0" y="0" width="850" height="200" rx="12"/>
    </clipPath>
  </defs>

  <rect width="100%" height="100%" fill="url(#carbonFiber)" rx="12" stroke="#39FF14" stroke-width="1" stroke-opacity="0.3"/>
  <rect width="100%" height="100%" fill="#000000" opacity="0.6" rx="12" />
  <g><polygon points="683,3 691.6,8 691.6,18 683,23 674.4,18 674.4,8" fill="none" stroke="#39FF14" stroke-width="1" opacity="0.026835952251355107"/>
<polygon points="265,8 273.6,13 273.6,23 265,28 256.4,23 256.4,13" fill="none" stroke="#39FF14" stroke-width="1" opacity="0.0324311431097355"/>
<polygon points="72,-4 80.6,1 80.6,11 72,16 63.4,11 63.4,1" fill="none" stroke="#39FF14" stroke-width="1" opacity="0.053405278448080615"/>
<polygon points="602,2 610.6,7 610.6,17 602,22 593.4,17 593.4,7" fill="none" stroke="#39FF14" stroke-width="1" opacity="0.035064017302890986"/>
<polygon points="602,102 610.6,107 610.6,117 602,122 593.4,117 593.4,107" fill="none" stroke="#39FF14" stroke-width="1" opacity="0.06955772597731893"/>
<polygon points="661,75 669.6,80 669.6,90 661,95 652.4,90 652.4,80" fill="none" stroke="#39FF14" stroke-width="1" opacity="0.024068265703330097"/>
<polygon points="712,87 720.6,92 720.6,102 712,107 703.4,102 703.4,92" fill="none" stroke="#39FF14" stroke-width="1" opacity="0.0668407206497019"/>
<polygon points="735,180 743.6,185 743.6,195 735,200 726.4,195 726.4,185" fill="none" stroke="#39FF14" stroke-width="1" opacity="0.06778253252485786"/>
<polygon points="486,142 494.6,147 494.6,157 486,162 477.4,157 477.4,147" fill="none" stroke="#39FF14" stroke-width="1" opacity="0.07422568002946878"/>
<polygon points="683,72 691.6,77 691.6,87 683,92 674.4,87 674.4,77" fill="none" stroke="#39FF14" stroke-width="1" opacity="0.07141384704905114"/>
<polygon points="670,140 678.6,145 678.6,155 670,160 661.4,155 661.4,145" fill="none" stroke="#39FF14" stroke-width="1" opacity="0.041103793522455044"/>
<polygon points="373,189 381.6,194 381.6,204 373,209 364.4,204 364.4,194" fill="none" stroke="#39FF14" stroke-width="1" opacity="0.03867327504731932"/>
<polygon points="369,190 377.6,195 377.6,205 369,210 360.4,205 360.4,195" fill="none" stroke="#39FF14" stroke-width="1" opacity="0.02162344206678939"/>
<polygon points="802,143 810.6,148 810.6,158 802,163 793.4,158 793.4,148" fill="none" stroke="#39FF14" stroke-width="1" opacity="0.07449100690396104"/>
<polygon points="681,185 689.6,190 689.6,200 681,205 672.4,200 672.4,190" fill="none" stroke="#39FF14" stroke-width="1" opacity="0.050293790094650695"/>
<polygon points="452,2 460.6,7 460.6,17 452,22 443.4,17 443.4,7" fill="none" stroke="#39FF14" stroke-width="1" opacity="0.07366745960112507"/>
<polygon points="410,125 418.6,130 418.6,140 410,145 401.4,140 401.4,130" fill="none" stroke="#39FF14" stroke-width="1" opacity="0.06968767280375393"/>
<polygon points="756,181 764.6,186 764.6,196 756,201 747.4,196 747.4,186" fill="none" stroke="#39FF14" stroke-width="1" opacity="0.033612152364987095"/>
<polygon points="248,89 256.6,94 256.6,104 248,109 239.4,104 239.4,94" fill="none" stroke="#39FF14" stroke-width="1" opacity="0.06376862504504188"/>
<polygon points="563,108 571.6,113 571.6,123 563,128 554.4,123 554.4,113" fill="none" stroke="#39FF14" stroke-width="1" opacity="0.03776081903898375"/>
<polygon points="544,80 552.6,85 552.6,95 544,100 535.4,95 535.4,85" fill="none" stroke="#39FF14" stroke-width="1" opacity="0.06675653534354212"/>
<polygon points="822,166 830.6,171 830.6,181 822,186 813.4,181 813.4,171" fill="none" stroke="#39FF14" stroke-width="1" opacity="0.06034353284576456"/>
<polygon points="689,168 697.6,173 697.6,183 689,188 680.4,183 680.4,173" fill="none" stroke="#39FF14" stroke-width="1" opacity="0.0753101609489123"/>
<polygon points="744,151 752.6,156 752.6,166 744,171 735.4,166 735.4,156" fill="none" stroke="#39FF14" stroke-width="1" opacity="0.028401731778841345"/>
<polygon points="577,13 585.6,18 585.6,28 577,33 568.4,28 568.4,18" fill="none" stroke="#39FF14" stroke-width="1" opacity="0.028697827361824746"/>
<polygon points="86,80 94.6,85 94.6,95 86,100 77.4,95 77.4,85" fill="none" stroke="#39FF14" stroke-width="1" opacity="0.06953974932833534"/>
<polygon points="749,16 757.6,21 757.6,31 749,36 740.4,31 740.4,21" fill="none" stroke="#39FF14" stroke-width="1" opacity="0.05340466438590635"/>
<polygon points="592,67 600.6,72 600.6,82 592,87 583.4,82 583.4,72" fill="none" stroke="#39FF14" stroke-width="1" opacity="0.02518339847546219"/>
<polygon points="456,18 464.6,23 464.6,33 456,38 447.4,33 447.4,23" fill="none" stroke="#39FF14" stroke-width="1" opacity="0.028738063136608552"/>
<polygon points="333,85 341.6,90 341.6,100 333,105 324.4,100 324.4,90" fill="none" stroke="#39FF14" stroke-width="1" opacity="0.05675287466320071"/>
</g>

  <!-- HUD Decorative elements -->
  <path d="M 20 20 L 40 20 L 50 30" fill="none" stroke="#39FF14" stroke-width="2" opacity="0.5"/>
  <path d="M 830 180 L 810 180 L 800 170" fill="none" stroke="#39FF14" stroke-width="2" opacity="0.5"/>

  <g clip-path="url(#dashClip)">
    <rect x="-160" y="0" width="160" height="200" fill="url(#scanlineGrad)">
      <animateTransform attributeName="transform" type="translate"
                        from="0 0" to="1010 0" dur="6s" repeatCount="indefinite"/>
    </rect>
  </g>

  <g font-family="'Consolas', 'Fira Code', monospace" text-anchor="middle">

    <!-- NETWORK STATUS -->
    <g transform="translate(130, 100)">
        <circle cx="0" cy="0" r="45" fill="none" stroke="#39FF14" stroke-width="2" stroke-dasharray="10 5">
            <animateTransform attributeName="transform" type="rotate" from="0" to="360" dur="10s" repeatCount="indefinite"/>
        </circle>
        <circle cx="0" cy="0" r="35" fill="#0d0d0d" />
        <text x="0" y="-60" font-size="12" fill="#aaaaaa" letter-spacing="2">ROOT.AUTH</text>
        <text x="0" y="70" font-size="14" fill="#ffffff" font-weight="bold">OPERATIONAL</text>
    </g>

    <!-- ACTIVE USERS -->
    <g transform="translate(330, 100)">
        <text x="0" y="-20" font-size="12" fill="#aaaaaa">CITIZENS</text>
        <text x="0" y="15" font-size="28" fill="#ffffff" font-weight="bold" filter="url(#textGlow)">13,342</text>
        <text x="0" y="35" font-size="10" fill="#777777">VERIFIED HUMANS</text>
    </g>

    <!-- REGISTERED AGENTS -->
    <g transform="translate(530, 100)">
        <text x="0" y="-20" font-size="12" fill="#aaaaaa">AGENTS</text>
        <text x="0" y="15" font-size="28" fill="#00d4ff" font-weight="bold" filter="url(#textGlow)">3,153</text>
        <text x="0" y="35" font-size="10" fill="#777777">REGISTERED DIDs</text>
    </g>

    <!-- TRANSACTIONS -->
    <g transform="translate(730, 100)">
        <text x="0" y="-20" font-size="12" fill="#aaaaaa">TRANSFERS</text>
        <text x="0" y="15" font-size="28" fill="#ffffff" font-weight="bold">27,574</text>
        <text x="0" y="35" font-size="10" fill="#777777">M2M SETTLEMENTS</text>
    </g>
  </g>

  <text x="425" y="185" font-family="'Consolas', 'Fira Code', monospace" font-size="10" fill="#aaaaaa" opacity="0.6" text-anchor="middle">AXIOMID PROJECTED TARGETS (ILLUSTRATIVE): 2026-06-22 00:33:42 UTC // SECURE_HANDSHAKE</text>
</svg>