<svg width="850" height="200" viewBox="0 0 850 200" xmlns="http://www.w3.org/2000/svg">
  <defs>
    <pattern id="carbonFiber" width="10" height="10" patternUnits="userSpaceOnUse">
        <rect width="10" height="10" fill="#050505"/>
        <path d="M0,0 L5,5 L10,0 L5,-5 Z M5,5 L10,10 L15,5 L10,0 Z M-5,5 L0,10 L5,5 L0,0 Z M0,10 L5,15 L10,10 L5,5 Z" fill="#0d0d0d"/>
    </pattern>
    <filter id="textGlow">
      <feGaussianBlur stdDeviation="2" result="blur" />
      <feMerge>
        <feMergeNode in="blur"/>
        <feMergeNode in="SourceGraphic"/>
      </feMerge>
    </filter>
    <linearGradient id="neonBar" x1="0%" y1="0%" x2="100%" y2="0%">
        <stop offset="0%" stop-color="#111111"/>
        <stop offset="100%" stop-color="#39FF14"/>
    </linearGradient>
    <linearGradient id="scanlineGrad" x1="0%" y1="0%" x2="100%" y2="0%">
        <stop offset="0%" stop-color="#39FF14" stop-opacity="0"/>
        <stop offset="50%" stop-color="#39FF14" stop-opacity="0.18"/>
        <stop offset="100%" stop-color="#39FF14" stop-opacity="0"/>
    </linearGradient>
    <clipPath id="dashClip">
        <rect x="0" y="0" width="850" height="200" rx="12"/>
    </clipPath>
  </defs>

  <rect width="100%" height="100%" fill="url(#carbonFiber)" rx="12" stroke="#39FF14" stroke-width="1" stroke-opacity="0.3"/>
  <rect width="100%" height="100%" fill="#000000" opacity="0.6" rx="12" />
  <g><polygon points="433,131 441.6,136 441.6,146 433,151 424.4,146 424.4,136" fill="none" stroke="#39FF14" stroke-width="1" opacity="0.03682717120368237"/>
<polygon points="292,28 300.6,33 300.6,43 292,48 283.4,43 283.4,33" fill="none" stroke="#39FF14" stroke-width="1" opacity="0.05272169972408658"/>
<polygon points="69,18 77.6,23 77.6,33 69,38 60.4,33 60.4,23" fill="none" stroke="#39FF14" stroke-width="1" opacity="0.06020866962248393"/>
<polygon points="290,150 298.6,155 298.6,165 290,170 281.4,165 281.4,155" fill="none" stroke="#39FF14" stroke-width="1" opacity="0.04638411875161301"/>
<polygon points="242,36 250.6,41 250.6,51 242,56 233.4,51 233.4,41" fill="none" stroke="#39FF14" stroke-width="1" opacity="0.07800399752263919"/>
<polygon points="359,160 367.6,165 367.6,175 359,180 350.4,175 350.4,165" fill="none" stroke="#39FF14" stroke-width="1" opacity="0.07461152470766923"/>
<polygon points="509,7 517.6,12 517.6,22 509,27 500.4,22 500.4,12" fill="none" stroke="#39FF14" stroke-width="1" opacity="0.04941812486550204"/>
<polygon points="388,33 396.6,38 396.6,48 388,53 379.4,48 379.4,38" fill="none" stroke="#39FF14" stroke-width="1" opacity="0.03331043539283101"/>
<polygon points="249,29 257.6,34 257.6,44 249,49 240.4,44 240.4,34" fill="none" stroke="#39FF14" stroke-width="1" opacity="0.0287148922083899"/>
<polygon points="113,98 121.6,103 121.6,113 113,118 104.4,113 104.4,103" fill="none" stroke="#39FF14" stroke-width="1" opacity="0.044702352061359946"/>
<polygon points="48,71 56.6,76 56.6,86 48,91 39.4,86 39.4,76" fill="none" stroke="#39FF14" stroke-width="1" opacity="0.06566889930061712"/>
<polygon points="532,25 540.6,30 540.6,40 532,45 523.4,40 523.4,30" fill="none" stroke="#39FF14" stroke-width="1" opacity="0.054007516442586376"/>
<polygon points="588,49 596.6,54 596.6,64 588,69 579.4,64 579.4,54" fill="none" stroke="#39FF14" stroke-width="1" opacity="0.05741487797177998"/>
<polygon points="218,149 226.6,154 226.6,164 218,169 209.4,164 209.4,154" fill="none" stroke="#39FF14" stroke-width="1" opacity="0.03998261594822504"/>
<polygon points="341,70 349.6,75 349.6,85 341,90 332.4,85 332.4,75" fill="none" stroke="#39FF14" stroke-width="1" opacity="0.05701134238956318"/>
<polygon points="685,121 693.6,126 693.6,136 685,141 676.4,136 676.4,126" fill="none" stroke="#39FF14" stroke-width="1" opacity="0.048129264692379645"/>
<polygon points="770,62 778.6,67 778.6,77 770,82 761.4,77 761.4,67" fill="none" stroke="#39FF14" stroke-width="1" opacity="0.06997931967074239"/>
<polygon points="416,162 424.6,167 424.6,177 416,182 407.4,177 407.4,167" fill="none" stroke="#39FF14" stroke-width="1" opacity="0.025186653245120465"/>
<polygon points="551,64 559.6,69 559.6,79 551,84 542.4,79 542.4,69" fill="none" stroke="#39FF14" stroke-width="1" opacity="0.02383066207147207"/>
<polygon points="58,31 66.6,36 66.6,46 58,51 49.4,46 49.4,36" fill="none" stroke="#39FF14" stroke-width="1" opacity="0.07568922883466313"/>
<polygon points="16,74 24.6,79 24.6,89 16,94 7.4,89 7.4,79" fill="none" stroke="#39FF14" stroke-width="1" opacity="0.07101398075024455"/>
<polygon points="672,37 680.6,42 680.6,52 672,57 663.4,52 663.4,42" fill="none" stroke="#39FF14" stroke-width="1" opacity="0.06597104838918637"/>
<polygon points="109,155 117.6,160 117.6,170 109,175 100.4,170 100.4,160" fill="none" stroke="#39FF14" stroke-width="1" opacity="0.0712953671622424"/>
<polygon points="393,117 401.6,122 401.6,132 393,137 384.4,132 384.4,122" fill="none" stroke="#39FF14" stroke-width="1" opacity="0.05877689468799137"/>
<polygon points="712,111 720.6,116 720.6,126 712,131 703.4,126 703.4,116" fill="none" stroke="#39FF14" stroke-width="1" opacity="0.05892333138277875"/>
<polygon points="407,-10 415.6,-5 415.6,5 407,10 398.4,5 398.4,-5" fill="none" stroke="#39FF14" stroke-width="1" opacity="0.06229738803420738"/>
<polygon points="481,90 489.6,95 489.6,105 481,110 472.4,105 472.4,95" fill="none" stroke="#39FF14" stroke-width="1" opacity="0.06876948244515081"/>
<polygon points="470,76 478.6,81 478.6,91 470,96 461.4,91 461.4,81" fill="none" stroke="#39FF14" stroke-width="1" opacity="0.03263473030350128"/>
<polygon points="562,52 570.6,57 570.6,67 562,72 553.4,67 553.4,57" fill="none" stroke="#39FF14" stroke-width="1" opacity="0.02134711834523474"/>
<polygon points="638,136 646.6,141 646.6,151 638,156 629.4,151 629.4,141" fill="none" stroke="#39FF14" stroke-width="1" opacity="0.07124771973858929"/>
</g>

  <!-- HUD Decorative elements -->
  <path d="M 20 20 L 40 20 L 50 30" fill="none" stroke="#39FF14" stroke-width="2" opacity="0.5"/>
  <path d="M 830 180 L 810 180 L 800 170" fill="none" stroke="#39FF14" stroke-width="2" opacity="0.5"/>

  <g clip-path="url(#dashClip)">
    <rect x="-160" y="0" width="160" height="200" fill="url(#scanlineGrad)">
      <animateTransform attributeName="transform" type="translate"
                        from="0 0" to="1010 0" dur="6s" repeatCount="indefinite"/>
    </rect>
  </g>

  <g font-family="'Consolas', 'Fira Code', monospace" text-anchor="middle">

    <!-- NETWORK STATUS -->
    <g transform="translate(130, 100)">
        <circle cx="0" cy="0" r="45" fill="none" stroke="#39FF14" stroke-width="2" stroke-dasharray="10 5">
            <animateTransform attributeName="transform" type="rotate" from="0" to="360" dur="10s" repeatCount="indefinite"/>
        </circle>
        <circle cx="0" cy="0" r="35" fill="#0d0d0d" />
        <text x="0" y="-60" font-size="12" fill="#aaaaaa" letter-spacing="2">ROOT.AUTH</text>
        <text x="0" y="70" font-size="14" fill="#ffffff" font-weight="bold">OPERATIONAL</text>
    </g>

    <!-- ACTIVE USERS -->
    <g transform="translate(330, 100)">
        <text x="0" y="-20" font-size="12" fill="#aaaaaa">CITIZENS</text>
        <text x="0" y="15" font-size="28" fill="#ffffff" font-weight="bold" filter="url(#textGlow)">14,355</text>
        <text x="0" y="35" font-size="10" fill="#777777">VERIFIED HUMANS</text>
    </g>

    <!-- REGISTERED AGENTS -->
    <g transform="translate(530, 100)">
        <text x="0" y="-20" font-size="12" fill="#aaaaaa">AGENTS</text>
        <text x="0" y="15" font-size="28" fill="#00d4ff" font-weight="bold" filter="url(#textGlow)">3,825</text>
        <text x="0" y="35" font-size="10" fill="#777777">REGISTERED DIDs</text>
    </g>

    <!-- TRANSACTIONS -->
    <g transform="translate(730, 100)">
        <text x="0" y="-20" font-size="12" fill="#aaaaaa">TRANSFERS</text>
        <text x="0" y="15" font-size="28" fill="#ffffff" font-weight="bold">37,906</text>
        <text x="0" y="35" font-size="10" fill="#777777">M2M SETTLEMENTS</text>
    </g>
  </g>

  <text x="425" y="185" font-family="'Consolas', 'Fira Code', monospace" font-size="10" fill="#aaaaaa" opacity="0.6" text-anchor="middle">AXIOMID PROJECTED TARGETS (ILLUSTRATIVE): 2026-07-07 11:37:54 UTC // SECURE_HANDSHAKE</text>
</svg>