<svg width="850" height="200" viewBox="0 0 850 200" xmlns="http://www.w3.org/2000/svg">
  <defs>
    <!-- Carbon Fiber Pattern -->
    <pattern id="carbonFiber" width="10" height="10" patternUnits="userSpaceOnUse">
        <rect width="10" height="10" fill="#050505"/>
        <path d="M0,0 L5,5 L10,0 L5,-5 Z M5,5 L10,10 L15,5 L10,0 Z M-5,5 L0,10 L5,5 L0,0 Z M0,10 L5,15 L10,10 L5,5 Z" fill="#0d0d0d"/>
    </pattern>
    <filter id="glassmorphism">
      <feGaussianBlur stdDeviation="3" result="blur" />
      <feColorMatrix type="matrix" values="1 0 0 0 0  0 1 0 0 0  0 0 1 0 0  0 0 0 18 -7" result="glow" />
      <feBlend in="SourceGraphic" in2="glow" mode="normal" />
    </filter>
    <filter id="textGlow">
      <feGaussianBlur stdDeviation="2" result="blur" />
      <feMerge>
        <feMergeNode in="blur"/>
        <feMergeNode in="SourceGraphic"/>
      </feMerge>
    </filter>
    <linearGradient id="neonBar" x1="0%" y1="0%" x2="100%" y2="0%">
        <stop offset="0%" stop-color="#111111"/>
        <stop offset="100%" stop-color="#39FF14"/>
    </linearGradient>
  </defs>

  <rect width="100%" height="100%" fill="url(#carbonFiber)" rx="12" stroke="#39FF14" stroke-width="1" stroke-opacity="0.3"/>
  <rect width="100%" height="100%" fill="#000000" opacity="0.6" rx="12" />
  <g><polygon points="769,138 777.6,143 777.6,153 769,158 760.4,153 760.4,143" fill="none" stroke="#39FF14" stroke-width="1" opacity="0.05943079108882554"/>
<polygon points="236,33 244.6,38 244.6,48 236,53 227.4,48 227.4,38" fill="none" stroke="#39FF14" stroke-width="1" opacity="0.02086708511194639"/>
<polygon points="81,167 89.6,172 89.6,182 81,187 72.4,182 72.4,172" fill="none" stroke="#39FF14" stroke-width="1" opacity="0.07503381217243452"/>
<polygon points="233,117 241.6,122 241.6,132 233,137 224.4,132 224.4,122" fill="none" stroke="#39FF14" stroke-width="1" opacity="0.07217890840484895"/>
<polygon points="767,129 775.6,134 775.6,144 767,149 758.4,144 758.4,134" fill="none" stroke="#39FF14" stroke-width="1" opacity="0.05772666173816507"/>
<polygon points="600,89 608.6,94 608.6,104 600,109 591.4,104 591.4,94" fill="none" stroke="#39FF14" stroke-width="1" opacity="0.03942712787435731"/>
<polygon points="161,99 169.6,104 169.6,114 161,119 152.4,114 152.4,104" fill="none" stroke="#39FF14" stroke-width="1" opacity="0.051309769485925916"/>
<polygon points="450,-2 458.6,3 458.6,13 450,18 441.4,13 441.4,3" fill="none" stroke="#39FF14" stroke-width="1" opacity="0.038796410553442705"/>
<polygon points="650,132 658.6,137 658.6,147 650,152 641.4,147 641.4,137" fill="none" stroke="#39FF14" stroke-width="1" opacity="0.06068845100891947"/>
<polygon points="354,24 362.6,29 362.6,39 354,44 345.4,39 345.4,29" fill="none" stroke="#39FF14" stroke-width="1" opacity="0.04243318825145261"/>
<polygon points="709,152 717.6,157 717.6,167 709,172 700.4,167 700.4,157" fill="none" stroke="#39FF14" stroke-width="1" opacity="0.07992693745162475"/>
<polygon points="393,141 401.6,146 401.6,156 393,161 384.4,156 384.4,146" fill="none" stroke="#39FF14" stroke-width="1" opacity="0.06265715449854538"/>
<polygon points="793,140 801.6,145 801.6,155 793,160 784.4,155 784.4,145" fill="none" stroke="#39FF14" stroke-width="1" opacity="0.0246123210433153"/>
<polygon points="807,89 815.6,94 815.6,104 807,109 798.4,104 798.4,94" fill="none" stroke="#39FF14" stroke-width="1" opacity="0.044359613947139616"/>
<polygon points="248,69 256.6,74 256.6,84 248,89 239.4,84 239.4,74" fill="none" stroke="#39FF14" stroke-width="1" opacity="0.06646701757817017"/>
<polygon points="370,30 378.6,35 378.6,45 370,50 361.4,45 361.4,35" fill="none" stroke="#39FF14" stroke-width="1" opacity="0.04262767110630976"/>
<polygon points="311,131 319.6,136 319.6,146 311,151 302.4,146 302.4,136" fill="none" stroke="#39FF14" stroke-width="1" opacity="0.06413999490736692"/>
<polygon points="368,94 376.6,99 376.6,109 368,114 359.4,109 359.4,99" fill="none" stroke="#39FF14" stroke-width="1" opacity="0.03599824389662787"/>
<polygon points="230,10 238.6,15 238.6,25 230,30 221.4,25 221.4,15" fill="none" stroke="#39FF14" stroke-width="1" opacity="0.07250493518807753"/>
<polygon points="581,167 589.6,172 589.6,182 581,187 572.4,182 572.4,172" fill="none" stroke="#39FF14" stroke-width="1" opacity="0.06466717616484359"/>
<polygon points="467,176 475.6,181 475.6,191 467,196 458.4,191 458.4,181" fill="none" stroke="#39FF14" stroke-width="1" opacity="0.0493996992813098"/>
<polygon points="742,80 750.6,85 750.6,95 742,100 733.4,95 733.4,85" fill="none" stroke="#39FF14" stroke-width="1" opacity="0.07789131869541434"/>
<polygon points="532,25 540.6,30 540.6,40 532,45 523.4,40 523.4,30" fill="none" stroke="#39FF14" stroke-width="1" opacity="0.02011768381231925"/>
<polygon points="422,-6 430.6,-1 430.6,9 422,14 413.4,9 413.4,-1" fill="none" stroke="#39FF14" stroke-width="1" opacity="0.042999657456080295"/>
<polygon points="751,102 759.6,107 759.6,117 751,122 742.4,117 742.4,107" fill="none" stroke="#39FF14" stroke-width="1" opacity="0.04006714881523941"/>
<polygon points="450,171 458.6,176 458.6,186 450,191 441.4,186 441.4,176" fill="none" stroke="#39FF14" stroke-width="1" opacity="0.05741593628348346"/>
<polygon points="407,-7 415.6,-2 415.6,8 407,13 398.4,8 398.4,-2" fill="none" stroke="#39FF14" stroke-width="1" opacity="0.0663713117689399"/>
<polygon points="127,54 135.6,59 135.6,69 127,74 118.4,69 118.4,59" fill="none" stroke="#39FF14" stroke-width="1" opacity="0.07319086007952727"/>
<polygon points="497,110 505.6,115 505.6,125 497,130 488.4,125 488.4,115" fill="none" stroke="#39FF14" stroke-width="1" opacity="0.03247396515582534"/>
<polygon points="17,98 25.6,103 25.6,113 17,118 8.4,113 8.4,103" fill="none" stroke="#39FF14" stroke-width="1" opacity="0.02301091229817366"/>
</g>

  <!-- HUD Decorative elements -->
  <path d="M 20 20 L 40 20 L 50 30" fill="none" stroke="#39FF14" stroke-width="2" opacity="0.5"/>
  <path d="M 830 180 L 810 180 L 800 170" fill="none" stroke="#39FF14" stroke-width="2" opacity="0.5"/>
  <rect x="20" y="100" width="2" height="40" fill="#ffffff" opacity="0.4"/>
  <rect x="828" y="60" width="2" height="40" fill="#39FF14" opacity="0.6"/>

  <g font-family="'Consolas', 'Fira Code', monospace" text-anchor="middle">

    <!-- SYSTEM STATUS -->
    <g transform="translate(130, 100)">
        <circle cx="0" cy="0" r="45" fill="none" stroke="#111111" stroke-width="8" />
        <circle cx="0" cy="0" r="45" fill="none" stroke="#39FF14" stroke-width="2" stroke-dasharray="10 5">
            <animateTransform attributeName="transform" type="rotate" from="0" to="360" dur="10s" repeatCount="indefinite"/>
        </circle>
        <circle cx="0" cy="0" r="35" fill="#0d0d0d" />
        <circle cx="0" cy="0" r="6" fill="#39FF14" filter="url(#textGlow)">
            <animate attributeName="opacity" values="1;0.3;1" dur="2s" repeatCount="indefinite"/>
        </circle>
        <text x="0" y="-60" font-size="12" fill="#aaaaaa" letter-spacing="2">SYS.CORE</text>
        <text x="0" y="70" font-size="14" fill="#ffffff" font-weight="bold">ONLINE</text>
    </g>

    <!-- LIVE TRAFFIC -->
    <g transform="translate(330, 100)">
        <rect x="-60" y="-45" width="120" height="90" fill="#0a0a0a" rx="8" stroke="#39FF14" stroke-opacity="0.4" stroke-width="1"/>
        <text x="0" y="-20" font-size="12" fill="#aaaaaa">NETWORK LOAD</text>
        <text x="0" y="15" font-size="28" fill="#ffffff" font-weight="bold" filter="url(#textGlow)">3865</text>
        <text x="0" y="35" font-size="10" fill="#777777">ACTIVE SESSIONS</text>
    </g>

    <!-- ACTIVE AGENTS -->
    <g transform="translate(530, 100)">
        <rect x="-60" y="-45" width="120" height="90" fill="#0a0a0a" rx="8" stroke="#39FF14" stroke-opacity="0.4" stroke-width="1"/>
        <text x="0" y="-20" font-size="12" fill="#aaaaaa">SWARM ENTITIES</text>
        <text x="0" y="15" font-size="28" fill="#ffffff" font-weight="bold" filter="url(#textGlow)">97</text>
        <text x="0" y="35" font-size="10" fill="#777777">AUTONOMOUS</text>
    </g>

    <!-- UPTIME -->
    <g transform="translate(730, 100)">
        <path d="M -40 -35 L 40 -35 L 50 -25 L 50 35 L -40 35 L -50 25 Z" fill="#0a0a0a" stroke="#39FF14" stroke-opacity="0.4" stroke-width="1"/>
        <text x="0" y="-15" font-size="12" fill="#aaaaaa">CONTINUITY</text>
        <text x="0" y="15" font-size="24" fill="#ffffff" font-weight="bold">305<tspan font-size="14" fill="#777777">d</tspan></text>
        <rect x="-35" y="25" width="70" height="4" fill="url(#neonBar)" rx="2"/>
    </g>
  </g>

  <text x="425" y="185" font-family="'Consolas', 'Fira Code', monospace" font-size="10" fill="#aaaaaa" opacity="0.6" text-anchor="middle">LAST TELEMETRY PING: 2026-05-13 03:03:08 UTC // ENCRYPTED_TUNNEL</text>
</svg>