<svg width="850" height="200" viewBox="0 0 850 200" xmlns="http://www.w3.org/2000/svg">
  <defs>
    <pattern id="carbonFiber" width="10" height="10" patternUnits="userSpaceOnUse">
        <rect width="10" height="10" fill="#050505"/>
        <path d="M0,0 L5,5 L10,0 L5,-5 Z M5,5 L10,10 L15,5 L10,0 Z M-5,5 L0,10 L5,5 L0,0 Z M0,10 L5,15 L10,10 L5,5 Z" fill="#0d0d0d"/>
    </pattern>
    <filter id="textGlow">
      <feGaussianBlur stdDeviation="2" result="blur" />
      <feMerge>
        <feMergeNode in="blur"/>
        <feMergeNode in="SourceGraphic"/>
      </feMerge>
    </filter>
    <linearGradient id="neonBar" x1="0%" y1="0%" x2="100%" y2="0%">
        <stop offset="0%" stop-color="#111111"/>
        <stop offset="100%" stop-color="#39FF14"/>
    </linearGradient>
    <linearGradient id="scanlineGrad" x1="0%" y1="0%" x2="100%" y2="0%">
        <stop offset="0%" stop-color="#39FF14" stop-opacity="0"/>
        <stop offset="50%" stop-color="#39FF14" stop-opacity="0.18"/>
        <stop offset="100%" stop-color="#39FF14" stop-opacity="0"/>
    </linearGradient>
    <clipPath id="dashClip">
        <rect x="0" y="0" width="850" height="200" rx="12"/>
    </clipPath>
  </defs>

  <rect width="100%" height="100%" fill="url(#carbonFiber)" rx="12" stroke="#39FF14" stroke-width="1" stroke-opacity="0.3"/>
  <rect width="100%" height="100%" fill="#000000" opacity="0.6" rx="12" />
  <g><polygon points="507,140 515.6,145 515.6,155 507,160 498.4,155 498.4,145" fill="none" stroke="#39FF14" stroke-width="1" opacity="0.06840258603801254"/>
<polygon points="687,178 695.6,183 695.6,193 687,198 678.4,193 678.4,183" fill="none" stroke="#39FF14" stroke-width="1" opacity="0.031170829283693087"/>
<polygon points="417,54 425.6,59 425.6,69 417,74 408.4,69 408.4,59" fill="none" stroke="#39FF14" stroke-width="1" opacity="0.06227973806030415"/>
<polygon points="437,65 445.6,70 445.6,80 437,85 428.4,80 428.4,70" fill="none" stroke="#39FF14" stroke-width="1" opacity="0.05546115789507859"/>
<polygon points="39,139 47.6,144 47.6,154 39,159 30.4,154 30.4,144" fill="none" stroke="#39FF14" stroke-width="1" opacity="0.02619554513850956"/>
<polygon points="457,109 465.6,114 465.6,124 457,129 448.4,124 448.4,114" fill="none" stroke="#39FF14" stroke-width="1" opacity="0.03796636820832955"/>
<polygon points="552,166 560.6,171 560.6,181 552,186 543.4,181 543.4,171" fill="none" stroke="#39FF14" stroke-width="1" opacity="0.05609773415890684"/>
<polygon points="586,73 594.6,78 594.6,88 586,93 577.4,88 577.4,78" fill="none" stroke="#39FF14" stroke-width="1" opacity="0.03647571577810914"/>
<polygon points="370,124 378.6,129 378.6,139 370,144 361.4,139 361.4,129" fill="none" stroke="#39FF14" stroke-width="1" opacity="0.02306890964169667"/>
<polygon points="586,146 594.6,151 594.6,161 586,166 577.4,161 577.4,151" fill="none" stroke="#39FF14" stroke-width="1" opacity="0.06864213981216608"/>
<polygon points="663,142 671.6,147 671.6,157 663,162 654.4,157 654.4,147" fill="none" stroke="#39FF14" stroke-width="1" opacity="0.04685409340047697"/>
<polygon points="209,22 217.6,27 217.6,37 209,42 200.4,37 200.4,27" fill="none" stroke="#39FF14" stroke-width="1" opacity="0.06429682896347848"/>
<polygon points="36,184 44.6,189 44.6,199 36,204 27.4,199 27.4,189" fill="none" stroke="#39FF14" stroke-width="1" opacity="0.0674072812823597"/>
<polygon points="689,43 697.6,48 697.6,58 689,63 680.4,58 680.4,48" fill="none" stroke="#39FF14" stroke-width="1" opacity="0.024301885692923873"/>
<polygon points="602,145 610.6,150 610.6,160 602,165 593.4,160 593.4,150" fill="none" stroke="#39FF14" stroke-width="1" opacity="0.035068538818026976"/>
<polygon points="398,149 406.6,154 406.6,164 398,169 389.4,164 389.4,154" fill="none" stroke="#39FF14" stroke-width="1" opacity="0.05936369603942354"/>
<polygon points="751,181 759.6,186 759.6,196 751,201 742.4,196 742.4,186" fill="none" stroke="#39FF14" stroke-width="1" opacity="0.03236654237271995"/>
<polygon points="144,125 152.6,130 152.6,140 144,145 135.4,140 135.4,130" fill="none" stroke="#39FF14" stroke-width="1" opacity="0.04312618201841441"/>
<polygon points="43,50 51.6,55 51.6,65 43,70 34.4,65 34.4,55" fill="none" stroke="#39FF14" stroke-width="1" opacity="0.03230308363420263"/>
<polygon points="66,113 74.6,118 74.6,128 66,133 57.4,128 57.4,118" fill="none" stroke="#39FF14" stroke-width="1" opacity="0.06509003785753933"/>
<polygon points="293,169 301.6,174 301.6,184 293,189 284.4,184 284.4,174" fill="none" stroke="#39FF14" stroke-width="1" opacity="0.07176721233055597"/>
<polygon points="839,95 847.6,100 847.6,110 839,115 830.4,110 830.4,100" fill="none" stroke="#39FF14" stroke-width="1" opacity="0.0400950436898229"/>
<polygon points="205,1 213.6,6 213.6,16 205,21 196.4,16 196.4,6" fill="none" stroke="#39FF14" stroke-width="1" opacity="0.04570514027775099"/>
<polygon points="192,114 200.6,119 200.6,129 192,134 183.4,129 183.4,119" fill="none" stroke="#39FF14" stroke-width="1" opacity="0.058834096630866556"/>
<polygon points="456,158 464.6,163 464.6,173 456,178 447.4,173 447.4,163" fill="none" stroke="#39FF14" stroke-width="1" opacity="0.020295436617192054"/>
<polygon points="815,114 823.6,119 823.6,129 815,134 806.4,129 806.4,119" fill="none" stroke="#39FF14" stroke-width="1" opacity="0.06385719905139299"/>
<polygon points="479,84 487.6,89 487.6,99 479,104 470.4,99 470.4,89" fill="none" stroke="#39FF14" stroke-width="1" opacity="0.07880663028127151"/>
<polygon points="824,2 832.6,7 832.6,17 824,22 815.4,17 815.4,7" fill="none" stroke="#39FF14" stroke-width="1" opacity="0.07616256828044993"/>
<polygon points="146,35 154.6,40 154.6,50 146,55 137.4,50 137.4,40" fill="none" stroke="#39FF14" stroke-width="1" opacity="0.07599329738340417"/>
<polygon points="824,87 832.6,92 832.6,102 824,107 815.4,102 815.4,92" fill="none" stroke="#39FF14" stroke-width="1" opacity="0.03371023692126686"/>
</g>

  <!-- HUD Decorative elements -->
  <path d="M 20 20 L 40 20 L 50 30" fill="none" stroke="#39FF14" stroke-width="2" opacity="0.5"/>
  <path d="M 830 180 L 810 180 L 800 170" fill="none" stroke="#39FF14" stroke-width="2" opacity="0.5"/>

  <g clip-path="url(#dashClip)">
    <rect x="-160" y="0" width="160" height="200" fill="url(#scanlineGrad)">
      <animateTransform attributeName="transform" type="translate"
                        from="0 0" to="1010 0" dur="6s" repeatCount="indefinite"/>
    </rect>
  </g>

  <g font-family="'Consolas', 'Fira Code', monospace" text-anchor="middle">

    <!-- NETWORK STATUS -->
    <g transform="translate(130, 100)">
        <circle cx="0" cy="0" r="45" fill="none" stroke="#39FF14" stroke-width="2" stroke-dasharray="10 5">
            <animateTransform attributeName="transform" type="rotate" from="0" to="360" dur="10s" repeatCount="indefinite"/>
        </circle>
        <circle cx="0" cy="0" r="35" fill="#0d0d0d" />
        <text x="0" y="-60" font-size="12" fill="#aaaaaa" letter-spacing="2">ROOT.AUTH</text>
        <text x="0" y="70" font-size="14" fill="#ffffff" font-weight="bold">OPERATIONAL</text>
    </g>

    <!-- ACTIVE USERS -->
    <g transform="translate(330, 100)">
        <text x="0" y="-20" font-size="12" fill="#aaaaaa">CITIZENS</text>
        <text x="0" y="15" font-size="28" fill="#ffffff" font-weight="bold" filter="url(#textGlow)">12,705</text>
        <text x="0" y="35" font-size="10" fill="#777777">VERIFIED HUMANS</text>
    </g>

    <!-- REGISTERED AGENTS -->
    <g transform="translate(530, 100)">
        <text x="0" y="-20" font-size="12" fill="#aaaaaa">AGENTS</text>
        <text x="0" y="15" font-size="28" fill="#00d4ff" font-weight="bold" filter="url(#textGlow)">3,116</text>
        <text x="0" y="35" font-size="10" fill="#777777">REGISTERED DIDs</text>
    </g>

    <!-- TRANSACTIONS -->
    <g transform="translate(730, 100)">
        <text x="0" y="-20" font-size="12" fill="#aaaaaa">TRANSFERS</text>
        <text x="0" y="15" font-size="28" fill="#ffffff" font-weight="bold">37,913</text>
        <text x="0" y="35" font-size="10" fill="#777777">M2M SETTLEMENTS</text>
    </g>
  </g>

  <text x="425" y="185" font-family="'Consolas', 'Fira Code', monospace" font-size="10" fill="#aaaaaa" opacity="0.6" text-anchor="middle">AXIOMID PROJECTED TARGETS (ILLUSTRATIVE): 2026-08-04 11:14:53 UTC // SECURE_HANDSHAKE</text>
</svg>