<svg width="850" height="200" viewBox="0 0 850 200" xmlns="http://www.w3.org/2000/svg">
  <defs>
    <!-- Carbon Fiber Pattern -->
    <pattern id="carbonFiber" width="10" height="10" patternUnits="userSpaceOnUse">
        <rect width="10" height="10" fill="#050505"/>
        <path d="M0,0 L5,5 L10,0 L5,-5 Z M5,5 L10,10 L15,5 L10,0 Z M-5,5 L0,10 L5,5 L0,0 Z M0,10 L5,15 L10,10 L5,5 Z" fill="#0d0d0d"/>
    </pattern>
    <filter id="glassmorphism">
      <feGaussianBlur stdDeviation="3" result="blur" />
      <feColorMatrix type="matrix" values="1 0 0 0 0  0 1 0 0 0  0 0 1 0 0  0 0 0 18 -7" result="glow" />
      <feBlend in="SourceGraphic" in2="glow" mode="normal" />
    </filter>
    <filter id="textGlow">
      <feGaussianBlur stdDeviation="2" result="blur" />
      <feMerge>
        <feMergeNode in="blur"/>
        <feMergeNode in="SourceGraphic"/>
      </feMerge>
    </filter>
    <linearGradient id="neonBar" x1="0%" y1="0%" x2="100%" y2="0%">
        <stop offset="0%" stop-color="#111111"/>
        <stop offset="100%" stop-color="#39FF14"/>
    </linearGradient>
  </defs>

  <rect width="100%" height="100%" fill="url(#carbonFiber)" rx="12" stroke="#39FF14" stroke-width="1" stroke-opacity="0.3"/>
  <rect width="100%" height="100%" fill="#000000" opacity="0.6" rx="12" />
  <g><polygon points="723,177 731.6,182 731.6,192 723,197 714.4,192 714.4,182" fill="none" stroke="#39FF14" stroke-width="1" opacity="0.0434956073443799"/>
<polygon points="481,64 489.6,69 489.6,79 481,84 472.4,79 472.4,69" fill="none" stroke="#39FF14" stroke-width="1" opacity="0.02902374907757998"/>
<polygon points="220,177 228.6,182 228.6,192 220,197 211.4,192 211.4,182" fill="none" stroke="#39FF14" stroke-width="1" opacity="0.07378388057867374"/>
<polygon points="820,82 828.6,87 828.6,97 820,102 811.4,97 811.4,87" fill="none" stroke="#39FF14" stroke-width="1" opacity="0.057336033562481736"/>
<polygon points="244,97 252.6,102 252.6,112 244,117 235.4,112 235.4,102" fill="none" stroke="#39FF14" stroke-width="1" opacity="0.07461650773663735"/>
<polygon points="424,68 432.6,73 432.6,83 424,88 415.4,83 415.4,73" fill="none" stroke="#39FF14" stroke-width="1" opacity="0.07135524034345712"/>
<polygon points="113,-9 121.6,-4 121.6,6 113,11 104.4,6 104.4,-4" fill="none" stroke="#39FF14" stroke-width="1" opacity="0.035837928453867476"/>
<polygon points="612,153 620.6,158 620.6,168 612,173 603.4,168 603.4,158" fill="none" stroke="#39FF14" stroke-width="1" opacity="0.04310863647267445"/>
<polygon points="488,145 496.6,150 496.6,160 488,165 479.4,160 479.4,150" fill="none" stroke="#39FF14" stroke-width="1" opacity="0.03314765090200552"/>
<polygon points="161,43 169.6,48 169.6,58 161,63 152.4,58 152.4,48" fill="none" stroke="#39FF14" stroke-width="1" opacity="0.07361357628728053"/>
<polygon points="618,42 626.6,47 626.6,57 618,62 609.4,57 609.4,47" fill="none" stroke="#39FF14" stroke-width="1" opacity="0.04929428934980181"/>
<polygon points="381,158 389.6,163 389.6,173 381,178 372.4,173 372.4,163" fill="none" stroke="#39FF14" stroke-width="1" opacity="0.03204617283306802"/>
<polygon points="552,133 560.6,138 560.6,148 552,153 543.4,148 543.4,138" fill="none" stroke="#39FF14" stroke-width="1" opacity="0.047607261804037376"/>
<polygon points="504,104 512.6,109 512.6,119 504,124 495.4,119 495.4,109" fill="none" stroke="#39FF14" stroke-width="1" opacity="0.07176267928451542"/>
<polygon points="406,54 414.6,59 414.6,69 406,74 397.4,69 397.4,59" fill="none" stroke="#39FF14" stroke-width="1" opacity="0.06928870497165926"/>
<polygon points="845,157 853.6,162 853.6,172 845,177 836.4,172 836.4,162" fill="none" stroke="#39FF14" stroke-width="1" opacity="0.028278602051371764"/>
<polygon points="424,143 432.6,148 432.6,158 424,163 415.4,158 415.4,148" fill="none" stroke="#39FF14" stroke-width="1" opacity="0.0385774777950529"/>
<polygon points="41,185 49.6,190 49.6,200 41,205 32.4,200 32.4,190" fill="none" stroke="#39FF14" stroke-width="1" opacity="0.06046818392229274"/>
<polygon points="54,19 62.6,24 62.6,34 54,39 45.4,34 45.4,24" fill="none" stroke="#39FF14" stroke-width="1" opacity="0.05473199945746424"/>
<polygon points="217,12 225.6,17 225.6,27 217,32 208.4,27 208.4,17" fill="none" stroke="#39FF14" stroke-width="1" opacity="0.029912880845409398"/>
<polygon points="217,111 225.6,116 225.6,126 217,131 208.4,126 208.4,116" fill="none" stroke="#39FF14" stroke-width="1" opacity="0.057464713323489236"/>
<polygon points="372,184 380.6,189 380.6,199 372,204 363.4,199 363.4,189" fill="none" stroke="#39FF14" stroke-width="1" opacity="0.037612738138087805"/>
<polygon points="138,138 146.6,143 146.6,153 138,158 129.4,153 129.4,143" fill="none" stroke="#39FF14" stroke-width="1" opacity="0.03384107898761149"/>
<polygon points="829,114 837.6,119 837.6,129 829,134 820.4,129 820.4,119" fill="none" stroke="#39FF14" stroke-width="1" opacity="0.046791153258281946"/>
<polygon points="659,158 667.6,163 667.6,173 659,178 650.4,173 650.4,163" fill="none" stroke="#39FF14" stroke-width="1" opacity="0.034430202248697"/>
<polygon points="331,104 339.6,109 339.6,119 331,124 322.4,119 322.4,109" fill="none" stroke="#39FF14" stroke-width="1" opacity="0.028738966200127083"/>
<polygon points="434,60 442.6,65 442.6,75 434,80 425.4,75 425.4,65" fill="none" stroke="#39FF14" stroke-width="1" opacity="0.06907228635464091"/>
<polygon points="582,3 590.6,8 590.6,18 582,23 573.4,18 573.4,8" fill="none" stroke="#39FF14" stroke-width="1" opacity="0.061147577985237664"/>
<polygon points="153,141 161.6,146 161.6,156 153,161 144.4,156 144.4,146" fill="none" stroke="#39FF14" stroke-width="1" opacity="0.025600368466549214"/>
<polygon points="830,12 838.6,17 838.6,27 830,32 821.4,27 821.4,17" fill="none" stroke="#39FF14" stroke-width="1" opacity="0.06569028478261921"/>
</g>

  <!-- HUD Decorative elements -->
  <path d="M 20 20 L 40 20 L 50 30" fill="none" stroke="#39FF14" stroke-width="2" opacity="0.5"/>
  <path d="M 830 180 L 810 180 L 800 170" fill="none" stroke="#39FF14" stroke-width="2" opacity="0.5"/>
  <rect x="20" y="100" width="2" height="40" fill="#ffffff" opacity="0.4"/>
  <rect x="828" y="60" width="2" height="40" fill="#39FF14" opacity="0.6"/>

  <g font-family="'Consolas', 'Fira Code', monospace" text-anchor="middle">

    <!-- SYSTEM STATUS -->
    <g transform="translate(130, 100)">
        <circle cx="0" cy="0" r="45" fill="none" stroke="#111111" stroke-width="8" />
        <circle cx="0" cy="0" r="45" fill="none" stroke="#39FF14" stroke-width="2" stroke-dasharray="10 5">
            <animateTransform attributeName="transform" type="rotate" from="0" to="360" dur="10s" repeatCount="indefinite"/>
        </circle>
        <circle cx="0" cy="0" r="35" fill="#0d0d0d" />
        <circle cx="0" cy="0" r="6" fill="#39FF14" filter="url(#textGlow)">
            <animate attributeName="opacity" values="1;0.3;1" dur="2s" repeatCount="indefinite"/>
        </circle>
        <text x="0" y="-60" font-size="12" fill="#aaaaaa" letter-spacing="2">SYS.CORE</text>
        <text x="0" y="70" font-size="14" fill="#ffffff" font-weight="bold">ONLINE</text>
    </g>

    <!-- LIVE TRAFFIC -->
    <g transform="translate(330, 100)">
        <rect x="-60" y="-45" width="120" height="90" fill="#0a0a0a" rx="8" stroke="#39FF14" stroke-opacity="0.4" stroke-width="1"/>
        <text x="0" y="-20" font-size="12" fill="#aaaaaa">NETWORK LOAD</text>
        <text x="0" y="15" font-size="28" fill="#ffffff" font-weight="bold" filter="url(#textGlow)">4879</text>
        <text x="0" y="35" font-size="10" fill="#777777">ACTIVE SESSIONS</text>
    </g>

    <!-- ACTIVE AGENTS -->
    <g transform="translate(530, 100)">
        <rect x="-60" y="-45" width="120" height="90" fill="#0a0a0a" rx="8" stroke="#39FF14" stroke-opacity="0.4" stroke-width="1"/>
        <text x="0" y="-20" font-size="12" fill="#aaaaaa">SWARM ENTITIES</text>
        <text x="0" y="15" font-size="28" fill="#ffffff" font-weight="bold" filter="url(#textGlow)">198</text>
        <text x="0" y="35" font-size="10" fill="#777777">AUTONOMOUS</text>
    </g>

    <!-- UPTIME -->
    <g transform="translate(730, 100)">
        <path d="M -40 -35 L 40 -35 L 50 -25 L 50 35 L -40 35 L -50 25 Z" fill="#0a0a0a" stroke="#39FF14" stroke-opacity="0.4" stroke-width="1"/>
        <text x="0" y="-15" font-size="12" fill="#aaaaaa">CONTINUITY</text>
        <text x="0" y="15" font-size="24" fill="#ffffff" font-weight="bold">315<tspan font-size="14" fill="#777777">d</tspan></text>
        <rect x="-35" y="25" width="70" height="4" fill="url(#neonBar)" rx="2"/>
    </g>
  </g>

  <text x="425" y="185" font-family="'Consolas', 'Fira Code', monospace" font-size="10" fill="#aaaaaa" opacity="0.6" text-anchor="middle">LAST TELEMETRY PING: 2026-05-13 05:05:54 UTC // ENCRYPTED_TUNNEL</text>
</svg>