<svg width="850" height="200" viewBox="0 0 850 200" xmlns="http://www.w3.org/2000/svg">
  <defs>
    <!-- Carbon Fiber Pattern -->
    <pattern id="carbonFiber" width="10" height="10" patternUnits="userSpaceOnUse">
        <rect width="10" height="10" fill="#050505"/>
        <path d="M0,0 L5,5 L10,0 L5,-5 Z M5,5 L10,10 L15,5 L10,0 Z M-5,5 L0,10 L5,5 L0,0 Z M0,10 L5,15 L10,10 L5,5 Z" fill="#0d0d0d"/>
    </pattern>
    <filter id="glassmorphism">
      <feGaussianBlur stdDeviation="3" result="blur" />
      <feColorMatrix type="matrix" values="1 0 0 0 0  0 1 0 0 0  0 0 1 0 0  0 0 0 18 -7" result="glow" />
      <feBlend in="SourceGraphic" in2="glow" mode="normal" />
    </filter>
    <filter id="textGlow">
      <feGaussianBlur stdDeviation="2" result="blur" />
      <feMerge>
        <feMergeNode in="blur"/>
        <feMergeNode in="SourceGraphic"/>
      </feMerge>
    </filter>
    <linearGradient id="neonBar" x1="0%" y1="0%" x2="100%" y2="0%">
        <stop offset="0%" stop-color="#111111"/>
        <stop offset="100%" stop-color="#39FF14"/>
    </linearGradient>
  </defs>

  <rect width="100%" height="100%" fill="url(#carbonFiber)" rx="12" stroke="#39FF14" stroke-width="1" stroke-opacity="0.3"/>
  <rect width="100%" height="100%" fill="#000000" opacity="0.6" rx="12" />
  <g><polygon points="292,124 300.6,129 300.6,139 292,144 283.4,139 283.4,129" fill="none" stroke="#39FF14" stroke-width="1" opacity="0.0283693110773647"/>
<polygon points="15,13 23.6,18 23.6,28 15,33 6.4,28 6.4,18" fill="none" stroke="#39FF14" stroke-width="1" opacity="0.045838420742498415"/>
<polygon points="533,189 541.6,194 541.6,204 533,209 524.4,204 524.4,194" fill="none" stroke="#39FF14" stroke-width="1" opacity="0.05613372511792049"/>
<polygon points="611,63 619.6,68 619.6,78 611,83 602.4,78 602.4,68" fill="none" stroke="#39FF14" stroke-width="1" opacity="0.07257726275051644"/>
<polygon points="366,76 374.6,81 374.6,91 366,96 357.4,91 357.4,81" fill="none" stroke="#39FF14" stroke-width="1" opacity="0.06697100004457965"/>
<polygon points="601,11 609.6,16 609.6,26 601,31 592.4,26 592.4,16" fill="none" stroke="#39FF14" stroke-width="1" opacity="0.021472829921301888"/>
<polygon points="808,131 816.6,136 816.6,146 808,151 799.4,146 799.4,136" fill="none" stroke="#39FF14" stroke-width="1" opacity="0.023065102877226268"/>
<polygon points="445,92 453.6,97 453.6,107 445,112 436.4,107 436.4,97" fill="none" stroke="#39FF14" stroke-width="1" opacity="0.027676664406751764"/>
<polygon points="348,181 356.6,186 356.6,196 348,201 339.4,196 339.4,186" fill="none" stroke="#39FF14" stroke-width="1" opacity="0.05378913738751638"/>
<polygon points="522,169 530.6,174 530.6,184 522,189 513.4,184 513.4,174" fill="none" stroke="#39FF14" stroke-width="1" opacity="0.06869583095208893"/>
<polygon points="663,15 671.6,20 671.6,30 663,35 654.4,30 654.4,20" fill="none" stroke="#39FF14" stroke-width="1" opacity="0.03980732793392655"/>
<polygon points="811,27 819.6,32 819.6,42 811,47 802.4,42 802.4,32" fill="none" stroke="#39FF14" stroke-width="1" opacity="0.042302158270293974"/>
<polygon points="517,172 525.6,177 525.6,187 517,192 508.4,187 508.4,177" fill="none" stroke="#39FF14" stroke-width="1" opacity="0.035752056298675616"/>
<polygon points="740,15 748.6,20 748.6,30 740,35 731.4,30 731.4,20" fill="none" stroke="#39FF14" stroke-width="1" opacity="0.02614620429610247"/>
<polygon points="682,88 690.6,93 690.6,103 682,108 673.4,103 673.4,93" fill="none" stroke="#39FF14" stroke-width="1" opacity="0.028901942470504746"/>
<polygon points="350,134 358.6,139 358.6,149 350,154 341.4,149 341.4,139" fill="none" stroke="#39FF14" stroke-width="1" opacity="0.03711622364794197"/>
<polygon points="666,15 674.6,20 674.6,30 666,35 657.4,30 657.4,20" fill="none" stroke="#39FF14" stroke-width="1" opacity="0.05176528991956078"/>
<polygon points="583,22 591.6,27 591.6,37 583,42 574.4,37 574.4,27" fill="none" stroke="#39FF14" stroke-width="1" opacity="0.036876573135048885"/>
<polygon points="175,11 183.6,16 183.6,26 175,31 166.4,26 166.4,16" fill="none" stroke="#39FF14" stroke-width="1" opacity="0.0548238852736099"/>
<polygon points="83,1 91.6,6 91.6,16 83,21 74.4,16 74.4,6" fill="none" stroke="#39FF14" stroke-width="1" opacity="0.04365252361697248"/>
<polygon points="626,163 634.6,168 634.6,178 626,183 617.4,178 617.4,168" fill="none" stroke="#39FF14" stroke-width="1" opacity="0.07855664284938332"/>
<polygon points="296,117 304.6,122 304.6,132 296,137 287.4,132 287.4,122" fill="none" stroke="#39FF14" stroke-width="1" opacity="0.025999725205087892"/>
<polygon points="201,91 209.6,96 209.6,106 201,111 192.4,106 192.4,96" fill="none" stroke="#39FF14" stroke-width="1" opacity="0.06405519426715059"/>
<polygon points="635,119 643.6,124 643.6,134 635,139 626.4,134 626.4,124" fill="none" stroke="#39FF14" stroke-width="1" opacity="0.025453519364951743"/>
<polygon points="228,47 236.6,52 236.6,62 228,67 219.4,62 219.4,52" fill="none" stroke="#39FF14" stroke-width="1" opacity="0.04154058053120728"/>
<polygon points="405,179 413.6,184 413.6,194 405,199 396.4,194 396.4,184" fill="none" stroke="#39FF14" stroke-width="1" opacity="0.032503384315272346"/>
<polygon points="37,134 45.6,139 45.6,149 37,154 28.4,149 28.4,139" fill="none" stroke="#39FF14" stroke-width="1" opacity="0.06577336728148653"/>
<polygon points="103,97 111.6,102 111.6,112 103,117 94.4,112 94.4,102" fill="none" stroke="#39FF14" stroke-width="1" opacity="0.026411482323224687"/>
<polygon points="520,182 528.6,187 528.6,197 520,202 511.4,197 511.4,187" fill="none" stroke="#39FF14" stroke-width="1" opacity="0.0531055270125803"/>
<polygon points="739,183 747.6,188 747.6,198 739,203 730.4,198 730.4,188" fill="none" stroke="#39FF14" stroke-width="1" opacity="0.0765140379549562"/>
</g>

  <!-- HUD Decorative elements -->
  <path d="M 20 20 L 40 20 L 50 30" fill="none" stroke="#39FF14" stroke-width="2" opacity="0.5"/>
  <path d="M 830 180 L 810 180 L 800 170" fill="none" stroke="#39FF14" stroke-width="2" opacity="0.5"/>
  <rect x="20" y="100" width="2" height="40" fill="#ffffff" opacity="0.4"/>
  <rect x="828" y="60" width="2" height="40" fill="#39FF14" opacity="0.6"/>

  <g font-family="'Consolas', 'Fira Code', monospace" text-anchor="middle">

    <!-- SYSTEM STATUS -->
    <g transform="translate(130, 100)">
        <circle cx="0" cy="0" r="45" fill="none" stroke="#111111" stroke-width="8" />
        <circle cx="0" cy="0" r="45" fill="none" stroke="#39FF14" stroke-width="2" stroke-dasharray="10 5">
            <animateTransform attributeName="transform" type="rotate" from="0" to="360" dur="10s" repeatCount="indefinite"/>
        </circle>
        <circle cx="0" cy="0" r="35" fill="#0d0d0d" />
        <circle cx="0" cy="0" r="6" fill="#39FF14" filter="url(#textGlow)">
            <animate attributeName="opacity" values="1;0.3;1" dur="2s" repeatCount="indefinite"/>
        </circle>
        <text x="0" y="-60" font-size="12" fill="#aaaaaa" letter-spacing="2">SYS.CORE</text>
        <text x="0" y="70" font-size="14" fill="#ffffff" font-weight="bold">ONLINE</text>
    </g>

    <!-- LIVE TRAFFIC -->
    <g transform="translate(330, 100)">
        <rect x="-60" y="-45" width="120" height="90" fill="#0a0a0a" rx="8" stroke="#39FF14" stroke-opacity="0.4" stroke-width="1"/>
        <text x="0" y="-20" font-size="12" fill="#aaaaaa">NETWORK LOAD</text>
        <text x="0" y="15" font-size="28" fill="#ffffff" font-weight="bold" filter="url(#textGlow)">5075</text>
        <text x="0" y="35" font-size="10" fill="#777777">ACTIVE SESSIONS</text>
    </g>

    <!-- ACTIVE AGENTS -->
    <g transform="translate(530, 100)">
        <rect x="-60" y="-45" width="120" height="90" fill="#0a0a0a" rx="8" stroke="#39FF14" stroke-opacity="0.4" stroke-width="1"/>
        <text x="0" y="-20" font-size="12" fill="#aaaaaa">SWARM ENTITIES</text>
        <text x="0" y="15" font-size="28" fill="#ffffff" font-weight="bold" filter="url(#textGlow)">187</text>
        <text x="0" y="35" font-size="10" fill="#777777">AUTONOMOUS</text>
    </g>

    <!-- UPTIME -->
    <g transform="translate(730, 100)">
        <path d="M -40 -35 L 40 -35 L 50 -25 L 50 35 L -40 35 L -50 25 Z" fill="#0a0a0a" stroke="#39FF14" stroke-opacity="0.4" stroke-width="1"/>
        <text x="0" y="-15" font-size="12" fill="#aaaaaa">CONTINUITY</text>
        <text x="0" y="15" font-size="24" fill="#ffffff" font-weight="bold">299<tspan font-size="14" fill="#777777">d</tspan></text>
        <rect x="-35" y="25" width="70" height="4" fill="url(#neonBar)" rx="2"/>
    </g>
  </g>

  <text x="425" y="185" font-family="'Consolas', 'Fira Code', monospace" font-size="10" fill="#aaaaaa" opacity="0.6" text-anchor="middle">LAST TELEMETRY PING: 2026-05-09 12:26:03 UTC // ENCRYPTED_TUNNEL</text>
</svg>