<svg width="850" height="200" viewBox="0 0 850 200" xmlns="http://www.w3.org/2000/svg">
  <defs>
    <pattern id="carbonFiber" width="10" height="10" patternUnits="userSpaceOnUse">
        <rect width="10" height="10" fill="#050505"/>
        <path d="M0,0 L5,5 L10,0 L5,-5 Z M5,5 L10,10 L15,5 L10,0 Z M-5,5 L0,10 L5,5 L0,0 Z M0,10 L5,15 L10,10 L5,5 Z" fill="#0d0d0d"/>
    </pattern>
    <filter id="textGlow">
      <feGaussianBlur stdDeviation="2" result="blur" />
      <feMerge>
        <feMergeNode in="blur"/>
        <feMergeNode in="SourceGraphic"/>
      </feMerge>
    </filter>
    <linearGradient id="neonBar" x1="0%" y1="0%" x2="100%" y2="0%">
        <stop offset="0%" stop-color="#111111"/>
        <stop offset="100%" stop-color="#39FF14"/>
    </linearGradient>
    <linearGradient id="scanlineGrad" x1="0%" y1="0%" x2="100%" y2="0%">
        <stop offset="0%" stop-color="#39FF14" stop-opacity="0"/>
        <stop offset="50%" stop-color="#39FF14" stop-opacity="0.18"/>
        <stop offset="100%" stop-color="#39FF14" stop-opacity="0"/>
    </linearGradient>
    <clipPath id="dashClip">
        <rect x="0" y="0" width="850" height="200" rx="12"/>
    </clipPath>
  </defs>

  <rect width="100%" height="100%" fill="url(#carbonFiber)" rx="12" stroke="#39FF14" stroke-width="1" stroke-opacity="0.3"/>
  <rect width="100%" height="100%" fill="#000000" opacity="0.6" rx="12" />
  <g><polygon points="259,97 267.6,102 267.6,112 259,117 250.4,112 250.4,102" fill="none" stroke="#39FF14" stroke-width="1" opacity="0.02878419302973917"/>
<polygon points="108,24 116.6,29 116.6,39 108,44 99.4,39 99.4,29" fill="none" stroke="#39FF14" stroke-width="1" opacity="0.03527772646104185"/>
<polygon points="711,96 719.6,101 719.6,111 711,116 702.4,111 702.4,101" fill="none" stroke="#39FF14" stroke-width="1" opacity="0.02600879449809202"/>
<polygon points="659,178 667.6,183 667.6,193 659,198 650.4,193 650.4,183" fill="none" stroke="#39FF14" stroke-width="1" opacity="0.0328420051261319"/>
<polygon points="251,44 259.6,49 259.6,59 251,64 242.4,59 242.4,49" fill="none" stroke="#39FF14" stroke-width="1" opacity="0.05442574436142644"/>
<polygon points="30,144 38.6,149 38.6,159 30,164 21.4,159 21.4,149" fill="none" stroke="#39FF14" stroke-width="1" opacity="0.0722518589185781"/>
<polygon points="799,69 807.6,74 807.6,84 799,89 790.4,84 790.4,74" fill="none" stroke="#39FF14" stroke-width="1" opacity="0.03385821898584254"/>
<polygon points="773,173 781.6,178 781.6,188 773,193 764.4,188 764.4,178" fill="none" stroke="#39FF14" stroke-width="1" opacity="0.05901651996513156"/>
<polygon points="365,45 373.6,50 373.6,60 365,65 356.4,60 356.4,50" fill="none" stroke="#39FF14" stroke-width="1" opacity="0.06321155262707426"/>
<polygon points="202,190 210.6,195 210.6,205 202,210 193.4,205 193.4,195" fill="none" stroke="#39FF14" stroke-width="1" opacity="0.0547409978100553"/>
<polygon points="147,167 155.6,172 155.6,182 147,187 138.4,182 138.4,172" fill="none" stroke="#39FF14" stroke-width="1" opacity="0.07960862265437567"/>
<polygon points="354,102 362.6,107 362.6,117 354,122 345.4,117 345.4,107" fill="none" stroke="#39FF14" stroke-width="1" opacity="0.06463115963163066"/>
<polygon points="732,80 740.6,85 740.6,95 732,100 723.4,95 723.4,85" fill="none" stroke="#39FF14" stroke-width="1" opacity="0.03837960694354006"/>
<polygon points="527,179 535.6,184 535.6,194 527,199 518.4,194 518.4,184" fill="none" stroke="#39FF14" stroke-width="1" opacity="0.0578957042469279"/>
<polygon points="759,93 767.6,98 767.6,108 759,113 750.4,108 750.4,98" fill="none" stroke="#39FF14" stroke-width="1" opacity="0.03759441528260589"/>
<polygon points="542,37 550.6,42 550.6,52 542,57 533.4,52 533.4,42" fill="none" stroke="#39FF14" stroke-width="1" opacity="0.025975280018791975"/>
<polygon points="204,115 212.6,120 212.6,130 204,135 195.4,130 195.4,120" fill="none" stroke="#39FF14" stroke-width="1" opacity="0.04641575394594708"/>
<polygon points="310,107 318.6,112 318.6,122 310,127 301.4,122 301.4,112" fill="none" stroke="#39FF14" stroke-width="1" opacity="0.059345759506663764"/>
<polygon points="830,146 838.6,151 838.6,161 830,166 821.4,161 821.4,151" fill="none" stroke="#39FF14" stroke-width="1" opacity="0.030965845579958285"/>
<polygon points="8,164 16.6,169 16.6,179 8,184 -0.5999999999999996,179 -0.5999999999999996,169" fill="none" stroke="#39FF14" stroke-width="1" opacity="0.06750267117911776"/>
<polygon points="378,159 386.6,164 386.6,174 378,179 369.4,174 369.4,164" fill="none" stroke="#39FF14" stroke-width="1" opacity="0.05963627371898135"/>
<polygon points="735,137 743.6,142 743.6,152 735,157 726.4,152 726.4,142" fill="none" stroke="#39FF14" stroke-width="1" opacity="0.03966104861522937"/>
<polygon points="617,59 625.6,64 625.6,74 617,79 608.4,74 608.4,64" fill="none" stroke="#39FF14" stroke-width="1" opacity="0.0686616325499166"/>
<polygon points="316,65 324.6,70 324.6,80 316,85 307.4,80 307.4,70" fill="none" stroke="#39FF14" stroke-width="1" opacity="0.0347763037252907"/>
<polygon points="613,27 621.6,32 621.6,42 613,47 604.4,42 604.4,32" fill="none" stroke="#39FF14" stroke-width="1" opacity="0.07450609779390006"/>
<polygon points="802,143 810.6,148 810.6,158 802,163 793.4,158 793.4,148" fill="none" stroke="#39FF14" stroke-width="1" opacity="0.029417907064395836"/>
<polygon points="172,120 180.6,125 180.6,135 172,140 163.4,135 163.4,125" fill="none" stroke="#39FF14" stroke-width="1" opacity="0.07224397452246799"/>
<polygon points="192,151 200.6,156 200.6,166 192,171 183.4,166 183.4,156" fill="none" stroke="#39FF14" stroke-width="1" opacity="0.0668393036907855"/>
<polygon points="308,13 316.6,18 316.6,28 308,33 299.4,28 299.4,18" fill="none" stroke="#39FF14" stroke-width="1" opacity="0.07541713661384292"/>
<polygon points="423,-6 431.6,-1 431.6,9 423,14 414.4,9 414.4,-1" fill="none" stroke="#39FF14" stroke-width="1" opacity="0.029369911230898396"/>
</g>

  <!-- HUD Decorative elements -->
  <path d="M 20 20 L 40 20 L 50 30" fill="none" stroke="#39FF14" stroke-width="2" opacity="0.5"/>
  <path d="M 830 180 L 810 180 L 800 170" fill="none" stroke="#39FF14" stroke-width="2" opacity="0.5"/>

  <g clip-path="url(#dashClip)">
    <rect x="-160" y="0" width="160" height="200" fill="url(#scanlineGrad)">
      <animateTransform attributeName="transform" type="translate"
                        from="0 0" to="1010 0" dur="6s" repeatCount="indefinite"/>
    </rect>
  </g>

  <g font-family="'Consolas', 'Fira Code', monospace" text-anchor="middle">

    <!-- NETWORK STATUS -->
    <g transform="translate(130, 100)">
        <circle cx="0" cy="0" r="45" fill="none" stroke="#39FF14" stroke-width="2" stroke-dasharray="10 5">
            <animateTransform attributeName="transform" type="rotate" from="0" to="360" dur="10s" repeatCount="indefinite"/>
        </circle>
        <circle cx="0" cy="0" r="35" fill="#0d0d0d" />
        <text x="0" y="-60" font-size="12" fill="#aaaaaa" letter-spacing="2">ROOT.AUTH</text>
        <text x="0" y="70" font-size="14" fill="#ffffff" font-weight="bold">OPERATIONAL</text>
    </g>

    <!-- ACTIVE USERS -->
    <g transform="translate(330, 100)">
        <text x="0" y="-20" font-size="12" fill="#aaaaaa">CITIZENS</text>
        <text x="0" y="15" font-size="28" fill="#ffffff" font-weight="bold" filter="url(#textGlow)">14,305</text>
        <text x="0" y="35" font-size="10" fill="#777777">VERIFIED HUMANS</text>
    </g>

    <!-- REGISTERED AGENTS -->
    <g transform="translate(530, 100)">
        <text x="0" y="-20" font-size="12" fill="#aaaaaa">AGENTS</text>
        <text x="0" y="15" font-size="28" fill="#00d4ff" font-weight="bold" filter="url(#textGlow)">3,655</text>
        <text x="0" y="35" font-size="10" fill="#777777">REGISTERED DIDs</text>
    </g>

    <!-- TRANSACTIONS -->
    <g transform="translate(730, 100)">
        <text x="0" y="-20" font-size="12" fill="#aaaaaa">TRANSFERS</text>
        <text x="0" y="15" font-size="28" fill="#ffffff" font-weight="bold">27,659</text>
        <text x="0" y="35" font-size="10" fill="#777777">M2M SETTLEMENTS</text>
    </g>
  </g>

  <text x="425" y="185" font-family="'Consolas', 'Fira Code', monospace" font-size="10" fill="#aaaaaa" opacity="0.6" text-anchor="middle">AXIOMID PROJECTED TARGETS (ILLUSTRATIVE): 2026-07-01 04:29:24 UTC // SECURE_HANDSHAKE</text>
</svg>