<svg width="850" height="200" viewBox="0 0 850 200" xmlns="http://www.w3.org/2000/svg">
  <defs>
    <!-- Carbon Fiber Pattern -->
    <pattern id="carbonFiber" width="10" height="10" patternUnits="userSpaceOnUse">
        <rect width="10" height="10" fill="#050505"/>
        <path d="M0,0 L5,5 L10,0 L5,-5 Z M5,5 L10,10 L15,5 L10,0 Z M-5,5 L0,10 L5,5 L0,0 Z M0,10 L5,15 L10,10 L5,5 Z" fill="#0d0d0d"/>
    </pattern>
    <filter id="glassmorphism">
      <feGaussianBlur stdDeviation="3" result="blur" />
      <feColorMatrix type="matrix" values="1 0 0 0 0  0 1 0 0 0  0 0 1 0 0  0 0 0 18 -7" result="glow" />
      <feBlend in="SourceGraphic" in2="glow" mode="normal" />
    </filter>
    <filter id="textGlow">
      <feGaussianBlur stdDeviation="2" result="blur" />
      <feMerge>
        <feMergeNode in="blur"/>
        <feMergeNode in="SourceGraphic"/>
      </feMerge>
    </filter>
    <linearGradient id="neonBar" x1="0%" y1="0%" x2="100%" y2="0%">
        <stop offset="0%" stop-color="#111111"/>
        <stop offset="100%" stop-color="#39FF14"/>
    </linearGradient>
  </defs>

  <rect width="100%" height="100%" fill="url(#carbonFiber)" rx="12" stroke="#39FF14" stroke-width="1" stroke-opacity="0.3"/>
  <rect width="100%" height="100%" fill="#000000" opacity="0.6" rx="12" />
  <g><polygon points="308,26 316.6,31 316.6,41 308,46 299.4,41 299.4,31" fill="none" stroke="#39FF14" stroke-width="1" opacity="0.07551934677447812"/>
<polygon points="388,99 396.6,104 396.6,114 388,119 379.4,114 379.4,104" fill="none" stroke="#39FF14" stroke-width="1" opacity="0.02460664529814599"/>
<polygon points="46,74 54.6,79 54.6,89 46,94 37.4,89 37.4,79" fill="none" stroke="#39FF14" stroke-width="1" opacity="0.027177539010545346"/>
<polygon points="250,125 258.6,130 258.6,140 250,145 241.4,140 241.4,130" fill="none" stroke="#39FF14" stroke-width="1" opacity="0.046392278958713784"/>
<polygon points="615,20 623.6,25 623.6,35 615,40 606.4,35 606.4,25" fill="none" stroke="#39FF14" stroke-width="1" opacity="0.04907035985773847"/>
<polygon points="329,131 337.6,136 337.6,146 329,151 320.4,146 320.4,136" fill="none" stroke="#39FF14" stroke-width="1" opacity="0.059557203105930503"/>
<polygon points="671,111 679.6,116 679.6,126 671,131 662.4,126 662.4,116" fill="none" stroke="#39FF14" stroke-width="1" opacity="0.06833216802654643"/>
<polygon points="255,22 263.6,27 263.6,37 255,42 246.4,37 246.4,27" fill="none" stroke="#39FF14" stroke-width="1" opacity="0.02404223587695557"/>
<polygon points="10,176 18.6,181 18.6,191 10,196 1.4000000000000004,191 1.4000000000000004,181" fill="none" stroke="#39FF14" stroke-width="1" opacity="0.07477701547663759"/>
<polygon points="494,136 502.6,141 502.6,151 494,156 485.4,151 485.4,141" fill="none" stroke="#39FF14" stroke-width="1" opacity="0.06896684699993065"/>
<polygon points="519,137 527.6,142 527.6,152 519,157 510.4,152 510.4,142" fill="none" stroke="#39FF14" stroke-width="1" opacity="0.04187028972055414"/>
<polygon points="518,142 526.6,147 526.6,157 518,162 509.4,157 509.4,147" fill="none" stroke="#39FF14" stroke-width="1" opacity="0.031878341531130824"/>
<polygon points="716,189 724.6,194 724.6,204 716,209 707.4,204 707.4,194" fill="none" stroke="#39FF14" stroke-width="1" opacity="0.07636137799551287"/>
<polygon points="346,134 354.6,139 354.6,149 346,154 337.4,149 337.4,139" fill="none" stroke="#39FF14" stroke-width="1" opacity="0.039133029192377516"/>
<polygon points="752,64 760.6,69 760.6,79 752,84 743.4,79 743.4,69" fill="none" stroke="#39FF14" stroke-width="1" opacity="0.04285083861799988"/>
<polygon points="802,111 810.6,116 810.6,126 802,131 793.4,126 793.4,116" fill="none" stroke="#39FF14" stroke-width="1" opacity="0.0412258523901957"/>
<polygon points="333,145 341.6,150 341.6,160 333,165 324.4,160 324.4,150" fill="none" stroke="#39FF14" stroke-width="1" opacity="0.02865413610717361"/>
<polygon points="525,156 533.6,161 533.6,171 525,176 516.4,171 516.4,161" fill="none" stroke="#39FF14" stroke-width="1" opacity="0.053518810221590635"/>
<polygon points="565,12 573.6,17 573.6,27 565,32 556.4,27 556.4,17" fill="none" stroke="#39FF14" stroke-width="1" opacity="0.03335567589687628"/>
<polygon points="786,117 794.6,122 794.6,132 786,137 777.4,132 777.4,122" fill="none" stroke="#39FF14" stroke-width="1" opacity="0.02841125395966507"/>
<polygon points="116,46 124.6,51 124.6,61 116,66 107.4,61 107.4,51" fill="none" stroke="#39FF14" stroke-width="1" opacity="0.037904447348731045"/>
<polygon points="726,58 734.6,63 734.6,73 726,78 717.4,73 717.4,63" fill="none" stroke="#39FF14" stroke-width="1" opacity="0.0661953191248624"/>
<polygon points="450,63 458.6,68 458.6,78 450,83 441.4,78 441.4,68" fill="none" stroke="#39FF14" stroke-width="1" opacity="0.0638768820811028"/>
<polygon points="808,72 816.6,77 816.6,87 808,92 799.4,87 799.4,77" fill="none" stroke="#39FF14" stroke-width="1" opacity="0.05500553657657181"/>
<polygon points="397,126 405.6,131 405.6,141 397,146 388.4,141 388.4,131" fill="none" stroke="#39FF14" stroke-width="1" opacity="0.028560433552124464"/>
<polygon points="45,75 53.6,80 53.6,90 45,95 36.4,90 36.4,80" fill="none" stroke="#39FF14" stroke-width="1" opacity="0.06521223913094067"/>
<polygon points="758,37 766.6,42 766.6,52 758,57 749.4,52 749.4,42" fill="none" stroke="#39FF14" stroke-width="1" opacity="0.07905964270181386"/>
<polygon points="176,110 184.6,115 184.6,125 176,130 167.4,125 167.4,115" fill="none" stroke="#39FF14" stroke-width="1" opacity="0.04033062004783505"/>
<polygon points="397,128 405.6,133 405.6,143 397,148 388.4,143 388.4,133" fill="none" stroke="#39FF14" stroke-width="1" opacity="0.07858657852509443"/>
<polygon points="88,116 96.6,121 96.6,131 88,136 79.4,131 79.4,121" fill="none" stroke="#39FF14" stroke-width="1" opacity="0.040952582582034984"/>
</g>

  <!-- HUD Decorative elements -->
  <path d="M 20 20 L 40 20 L 50 30" fill="none" stroke="#39FF14" stroke-width="2" opacity="0.5"/>
  <path d="M 830 180 L 810 180 L 800 170" fill="none" stroke="#39FF14" stroke-width="2" opacity="0.5"/>
  <rect x="20" y="100" width="2" height="40" fill="#ffffff" opacity="0.4"/>
  <rect x="828" y="60" width="2" height="40" fill="#39FF14" opacity="0.6"/>

  <g font-family="'Consolas', 'Fira Code', monospace" text-anchor="middle">

    <!-- SYSTEM STATUS -->
    <g transform="translate(130, 100)">
        <circle cx="0" cy="0" r="45" fill="none" stroke="#111111" stroke-width="8" />
        <circle cx="0" cy="0" r="45" fill="none" stroke="#39FF14" stroke-width="2" stroke-dasharray="10 5">
            <animateTransform attributeName="transform" type="rotate" from="0" to="360" dur="10s" repeatCount="indefinite"/>
        </circle>
        <circle cx="0" cy="0" r="35" fill="#0d0d0d" />
        <circle cx="0" cy="0" r="6" fill="#39FF14" filter="url(#textGlow)">
            <animate attributeName="opacity" values="1;0.3;1" dur="2s" repeatCount="indefinite"/>
        </circle>
        <text x="0" y="-60" font-size="12" fill="#aaaaaa" letter-spacing="2">SYS.CORE</text>
        <text x="0" y="70" font-size="14" fill="#ffffff" font-weight="bold">ONLINE</text>
    </g>

    <!-- LIVE TRAFFIC -->
    <g transform="translate(330, 100)">
        <rect x="-60" y="-45" width="120" height="90" fill="#0a0a0a" rx="8" stroke="#39FF14" stroke-opacity="0.4" stroke-width="1"/>
        <text x="0" y="-20" font-size="12" fill="#aaaaaa">NETWORK LOAD</text>
        <text x="0" y="15" font-size="28" fill="#ffffff" font-weight="bold" filter="url(#textGlow)">7771</text>
        <text x="0" y="35" font-size="10" fill="#777777">ACTIVE SESSIONS</text>
    </g>

    <!-- ACTIVE AGENTS -->
    <g transform="translate(530, 100)">
        <rect x="-60" y="-45" width="120" height="90" fill="#0a0a0a" rx="8" stroke="#39FF14" stroke-opacity="0.4" stroke-width="1"/>
        <text x="0" y="-20" font-size="12" fill="#aaaaaa">SWARM ENTITIES</text>
        <text x="0" y="15" font-size="28" fill="#ffffff" font-weight="bold" filter="url(#textGlow)">129</text>
        <text x="0" y="35" font-size="10" fill="#777777">AUTONOMOUS</text>
    </g>

    <!-- UPTIME -->
    <g transform="translate(730, 100)">
        <path d="M -40 -35 L 40 -35 L 50 -25 L 50 35 L -40 35 L -50 25 Z" fill="#0a0a0a" stroke="#39FF14" stroke-opacity="0.4" stroke-width="1"/>
        <text x="0" y="-15" font-size="12" fill="#aaaaaa">CONTINUITY</text>
        <text x="0" y="15" font-size="24" fill="#ffffff" font-weight="bold">250<tspan font-size="14" fill="#777777">d</tspan></text>
        <rect x="-35" y="25" width="70" height="4" fill="url(#neonBar)" rx="2"/>
    </g>
  </g>

  <text x="425" y="185" font-family="'Consolas', 'Fira Code', monospace" font-size="10" fill="#aaaaaa" opacity="0.6" text-anchor="middle">LAST TELEMETRY PING: 2026-04-29 00:50:56 UTC // ENCRYPTED_TUNNEL</text>
</svg>