<svg width="850" height="200" viewBox="0 0 850 200" xmlns="http://www.w3.org/2000/svg">
  <defs>
    <pattern id="carbonFiber" width="10" height="10" patternUnits="userSpaceOnUse">
        <rect width="10" height="10" fill="#050505"/>
        <path d="M0,0 L5,5 L10,0 L5,-5 Z M5,5 L10,10 L15,5 L10,0 Z M-5,5 L0,10 L5,5 L0,0 Z M0,10 L5,15 L10,10 L5,5 Z" fill="#0d0d0d"/>
    </pattern>
    <filter id="textGlow">
      <feGaussianBlur stdDeviation="2" result="blur" />
      <feMerge>
        <feMergeNode in="blur"/>
        <feMergeNode in="SourceGraphic"/>
      </feMerge>
    </filter>
    <linearGradient id="neonBar" x1="0%" y1="0%" x2="100%" y2="0%">
        <stop offset="0%" stop-color="#111111"/>
        <stop offset="100%" stop-color="#39FF14"/>
    </linearGradient>
    <linearGradient id="scanlineGrad" x1="0%" y1="0%" x2="100%" y2="0%">
        <stop offset="0%" stop-color="#39FF14" stop-opacity="0"/>
        <stop offset="50%" stop-color="#39FF14" stop-opacity="0.18"/>
        <stop offset="100%" stop-color="#39FF14" stop-opacity="0"/>
    </linearGradient>
    <clipPath id="dashClip">
        <rect x="0" y="0" width="850" height="200" rx="12"/>
    </clipPath>
  </defs>

  <rect width="100%" height="100%" fill="url(#carbonFiber)" rx="12" stroke="#39FF14" stroke-width="1" stroke-opacity="0.3"/>
  <rect width="100%" height="100%" fill="#000000" opacity="0.6" rx="12" />
  <g><polygon points="390,73 398.6,78 398.6,88 390,93 381.4,88 381.4,78" fill="none" stroke="#39FF14" stroke-width="1" opacity="0.06044103376215698"/>
<polygon points="616,41 624.6,46 624.6,56 616,61 607.4,56 607.4,46" fill="none" stroke="#39FF14" stroke-width="1" opacity="0.05229700941674817"/>
<polygon points="544,40 552.6,45 552.6,55 544,60 535.4,55 535.4,45" fill="none" stroke="#39FF14" stroke-width="1" opacity="0.0729189766942032"/>
<polygon points="791,182 799.6,187 799.6,197 791,202 782.4,197 782.4,187" fill="none" stroke="#39FF14" stroke-width="1" opacity="0.07781410711681094"/>
<polygon points="622,121 630.6,126 630.6,136 622,141 613.4,136 613.4,126" fill="none" stroke="#39FF14" stroke-width="1" opacity="0.06483942363974289"/>
<polygon points="36,100 44.6,105 44.6,115 36,120 27.4,115 27.4,105" fill="none" stroke="#39FF14" stroke-width="1" opacity="0.06974078281200886"/>
<polygon points="334,39 342.6,44 342.6,54 334,59 325.4,54 325.4,44" fill="none" stroke="#39FF14" stroke-width="1" opacity="0.02674878136841216"/>
<polygon points="832,34 840.6,39 840.6,49 832,54 823.4,49 823.4,39" fill="none" stroke="#39FF14" stroke-width="1" opacity="0.028679520385739243"/>
<polygon points="607,176 615.6,181 615.6,191 607,196 598.4,191 598.4,181" fill="none" stroke="#39FF14" stroke-width="1" opacity="0.047266484401184264"/>
<polygon points="45,3 53.6,8 53.6,18 45,23 36.4,18 36.4,8" fill="none" stroke="#39FF14" stroke-width="1" opacity="0.02980155910257687"/>
<polygon points="40,6 48.6,11 48.6,21 40,26 31.4,21 31.4,11" fill="none" stroke="#39FF14" stroke-width="1" opacity="0.04418878626431117"/>
<polygon points="570,129 578.6,134 578.6,144 570,149 561.4,144 561.4,134" fill="none" stroke="#39FF14" stroke-width="1" opacity="0.03923986992144153"/>
<polygon points="513,186 521.6,191 521.6,201 513,206 504.4,201 504.4,191" fill="none" stroke="#39FF14" stroke-width="1" opacity="0.044422161809567706"/>
<polygon points="316,-4 324.6,1 324.6,11 316,16 307.4,11 307.4,1" fill="none" stroke="#39FF14" stroke-width="1" opacity="0.05263390556444787"/>
<polygon points="31,35 39.6,40 39.6,50 31,55 22.4,50 22.4,40" fill="none" stroke="#39FF14" stroke-width="1" opacity="0.07282809324073973"/>
<polygon points="371,130 379.6,135 379.6,145 371,150 362.4,145 362.4,135" fill="none" stroke="#39FF14" stroke-width="1" opacity="0.07174729714132923"/>
<polygon points="668,120 676.6,125 676.6,135 668,140 659.4,135 659.4,125" fill="none" stroke="#39FF14" stroke-width="1" opacity="0.057900724379504415"/>
<polygon points="675,4 683.6,9 683.6,19 675,24 666.4,19 666.4,9" fill="none" stroke="#39FF14" stroke-width="1" opacity="0.0749990431241517"/>
<polygon points="678,99 686.6,104 686.6,114 678,119 669.4,114 669.4,104" fill="none" stroke="#39FF14" stroke-width="1" opacity="0.028270570719473996"/>
<polygon points="23,84 31.6,89 31.6,99 23,104 14.4,99 14.4,89" fill="none" stroke="#39FF14" stroke-width="1" opacity="0.07286875142709077"/>
<polygon points="470,57 478.6,62 478.6,72 470,77 461.4,72 461.4,62" fill="none" stroke="#39FF14" stroke-width="1" opacity="0.060252456968184265"/>
<polygon points="427,26 435.6,31 435.6,41 427,46 418.4,41 418.4,31" fill="none" stroke="#39FF14" stroke-width="1" opacity="0.06750387255399533"/>
<polygon points="762,143 770.6,148 770.6,158 762,163 753.4,158 753.4,148" fill="none" stroke="#39FF14" stroke-width="1" opacity="0.04656521333946673"/>
<polygon points="759,3 767.6,8 767.6,18 759,23 750.4,18 750.4,8" fill="none" stroke="#39FF14" stroke-width="1" opacity="0.031895222294128535"/>
<polygon points="387,178 395.6,183 395.6,193 387,198 378.4,193 378.4,183" fill="none" stroke="#39FF14" stroke-width="1" opacity="0.06207348622291302"/>
<polygon points="141,128 149.6,133 149.6,143 141,148 132.4,143 132.4,133" fill="none" stroke="#39FF14" stroke-width="1" opacity="0.025043163984547544"/>
<polygon points="517,54 525.6,59 525.6,69 517,74 508.4,69 508.4,59" fill="none" stroke="#39FF14" stroke-width="1" opacity="0.0716316956419837"/>
<polygon points="620,49 628.6,54 628.6,64 620,69 611.4,64 611.4,54" fill="none" stroke="#39FF14" stroke-width="1" opacity="0.021117292234709827"/>
<polygon points="12,75 20.6,80 20.6,90 12,95 3.4000000000000004,90 3.4000000000000004,80" fill="none" stroke="#39FF14" stroke-width="1" opacity="0.04068161387414902"/>
<polygon points="725,92 733.6,97 733.6,107 725,112 716.4,107 716.4,97" fill="none" stroke="#39FF14" stroke-width="1" opacity="0.06654917597169237"/>
</g>

  <!-- HUD Decorative elements -->
  <path d="M 20 20 L 40 20 L 50 30" fill="none" stroke="#39FF14" stroke-width="2" opacity="0.5"/>
  <path d="M 830 180 L 810 180 L 800 170" fill="none" stroke="#39FF14" stroke-width="2" opacity="0.5"/>

  <g clip-path="url(#dashClip)">
    <rect x="-160" y="0" width="160" height="200" fill="url(#scanlineGrad)">
      <animateTransform attributeName="transform" type="translate"
                        from="0 0" to="1010 0" dur="6s" repeatCount="indefinite"/>
    </rect>
  </g>

  <g font-family="'Consolas', 'Fira Code', monospace" text-anchor="middle">

    <!-- NETWORK STATUS -->
    <g transform="translate(130, 100)">
        <circle cx="0" cy="0" r="45" fill="none" stroke="#39FF14" stroke-width="2" stroke-dasharray="10 5">
            <animateTransform attributeName="transform" type="rotate" from="0" to="360" dur="10s" repeatCount="indefinite"/>
        </circle>
        <circle cx="0" cy="0" r="35" fill="#0d0d0d" />
        <text x="0" y="-60" font-size="12" fill="#aaaaaa" letter-spacing="2">ROOT.AUTH</text>
        <text x="0" y="70" font-size="14" fill="#ffffff" font-weight="bold">OPERATIONAL</text>
    </g>

    <!-- ACTIVE USERS -->
    <g transform="translate(330, 100)">
        <text x="0" y="-20" font-size="12" fill="#aaaaaa">CITIZENS</text>
        <text x="0" y="15" font-size="28" fill="#ffffff" font-weight="bold" filter="url(#textGlow)">14,742</text>
        <text x="0" y="35" font-size="10" fill="#777777">VERIFIED HUMANS</text>
    </g>

    <!-- REGISTERED AGENTS -->
    <g transform="translate(530, 100)">
        <text x="0" y="-20" font-size="12" fill="#aaaaaa">AGENTS</text>
        <text x="0" y="15" font-size="28" fill="#00d4ff" font-weight="bold" filter="url(#textGlow)">3,876</text>
        <text x="0" y="35" font-size="10" fill="#777777">REGISTERED DIDs</text>
    </g>

    <!-- TRANSACTIONS -->
    <g transform="translate(730, 100)">
        <text x="0" y="-20" font-size="12" fill="#aaaaaa">TRANSFERS</text>
        <text x="0" y="15" font-size="28" fill="#ffffff" font-weight="bold">33,327</text>
        <text x="0" y="35" font-size="10" fill="#777777">M2M SETTLEMENTS</text>
    </g>
  </g>

  <text x="425" y="185" font-family="'Consolas', 'Fira Code', monospace" font-size="10" fill="#aaaaaa" opacity="0.6" text-anchor="middle">AXIOMID PROJECTED TARGETS (ILLUSTRATIVE): 2026-07-07 12:41:31 UTC // SECURE_HANDSHAKE</text>
</svg>