<svg width="850" height="200" viewBox="0 0 850 200" xmlns="http://www.w3.org/2000/svg">
  <defs>
    <pattern id="carbonFiber" width="10" height="10" patternUnits="userSpaceOnUse">
        <rect width="10" height="10" fill="#050505"/>
        <path d="M0,0 L5,5 L10,0 L5,-5 Z M5,5 L10,10 L15,5 L10,0 Z M-5,5 L0,10 L5,5 L0,0 Z M0,10 L5,15 L10,10 L5,5 Z" fill="#0d0d0d"/>
    </pattern>
    <filter id="textGlow">
      <feGaussianBlur stdDeviation="2" result="blur" />
      <feMerge>
        <feMergeNode in="blur"/>
        <feMergeNode in="SourceGraphic"/>
      </feMerge>
    </filter>
    <linearGradient id="neonBar" x1="0%" y1="0%" x2="100%" y2="0%">
        <stop offset="0%" stop-color="#111111"/>
        <stop offset="100%" stop-color="#39FF14"/>
    </linearGradient>
    <linearGradient id="scanlineGrad" x1="0%" y1="0%" x2="100%" y2="0%">
        <stop offset="0%" stop-color="#39FF14" stop-opacity="0"/>
        <stop offset="50%" stop-color="#39FF14" stop-opacity="0.18"/>
        <stop offset="100%" stop-color="#39FF14" stop-opacity="0"/>
    </linearGradient>
    <clipPath id="dashClip">
        <rect x="0" y="0" width="850" height="200" rx="12"/>
    </clipPath>
  </defs>

  <rect width="100%" height="100%" fill="url(#carbonFiber)" rx="12" stroke="#39FF14" stroke-width="1" stroke-opacity="0.3"/>
  <rect width="100%" height="100%" fill="#000000" opacity="0.6" rx="12" />
  <g><polygon points="635,139 643.6,144 643.6,154 635,159 626.4,154 626.4,144" fill="none" stroke="#39FF14" stroke-width="1" opacity="0.060464292342846324"/>
<polygon points="721,104 729.6,109 729.6,119 721,124 712.4,119 712.4,109" fill="none" stroke="#39FF14" stroke-width="1" opacity="0.06087318259329304"/>
<polygon points="5,76 13.6,81 13.6,91 5,96 -3.5999999999999996,91 -3.5999999999999996,81" fill="none" stroke="#39FF14" stroke-width="1" opacity="0.02396258847037853"/>
<polygon points="775,81 783.6,86 783.6,96 775,101 766.4,96 766.4,86" fill="none" stroke="#39FF14" stroke-width="1" opacity="0.05879347504747243"/>
<polygon points="829,126 837.6,131 837.6,141 829,146 820.4,141 820.4,131" fill="none" stroke="#39FF14" stroke-width="1" opacity="0.052307112794924865"/>
<polygon points="625,61 633.6,66 633.6,76 625,81 616.4,76 616.4,66" fill="none" stroke="#39FF14" stroke-width="1" opacity="0.05959216954743378"/>
<polygon points="25,106 33.6,111 33.6,121 25,126 16.4,121 16.4,111" fill="none" stroke="#39FF14" stroke-width="1" opacity="0.04663615338471962"/>
<polygon points="531,6 539.6,11 539.6,21 531,26 522.4,21 522.4,11" fill="none" stroke="#39FF14" stroke-width="1" opacity="0.025469834026708826"/>
<polygon points="747,21 755.6,26 755.6,36 747,41 738.4,36 738.4,26" fill="none" stroke="#39FF14" stroke-width="1" opacity="0.04323483555100685"/>
<polygon points="243,77 251.6,82 251.6,92 243,97 234.4,92 234.4,82" fill="none" stroke="#39FF14" stroke-width="1" opacity="0.07057079074335003"/>
<polygon points="268,120 276.6,125 276.6,135 268,140 259.4,135 259.4,125" fill="none" stroke="#39FF14" stroke-width="1" opacity="0.069256215330579"/>
<polygon points="763,76 771.6,81 771.6,91 763,96 754.4,91 754.4,81" fill="none" stroke="#39FF14" stroke-width="1" opacity="0.021560099048131397"/>
<polygon points="121,155 129.6,160 129.6,170 121,175 112.4,170 112.4,160" fill="none" stroke="#39FF14" stroke-width="1" opacity="0.057296970876587944"/>
<polygon points="244,80 252.6,85 252.6,95 244,100 235.4,95 235.4,85" fill="none" stroke="#39FF14" stroke-width="1" opacity="0.07885163486876505"/>
<polygon points="684,-9 692.6,-4 692.6,6 684,11 675.4,6 675.4,-4" fill="none" stroke="#39FF14" stroke-width="1" opacity="0.05522250258009033"/>
<polygon points="498,109 506.6,114 506.6,124 498,129 489.4,124 489.4,114" fill="none" stroke="#39FF14" stroke-width="1" opacity="0.07873745726903418"/>
<polygon points="183,88 191.6,93 191.6,103 183,108 174.4,103 174.4,93" fill="none" stroke="#39FF14" stroke-width="1" opacity="0.05456974047887099"/>
<polygon points="462,166 470.6,171 470.6,181 462,186 453.4,181 453.4,171" fill="none" stroke="#39FF14" stroke-width="1" opacity="0.05810551165976943"/>
<polygon points="343,84 351.6,89 351.6,99 343,104 334.4,99 334.4,89" fill="none" stroke="#39FF14" stroke-width="1" opacity="0.04391877648183316"/>
<polygon points="362,44 370.6,49 370.6,59 362,64 353.4,59 353.4,49" fill="none" stroke="#39FF14" stroke-width="1" opacity="0.058639739515251754"/>
<polygon points="563,142 571.6,147 571.6,157 563,162 554.4,157 554.4,147" fill="none" stroke="#39FF14" stroke-width="1" opacity="0.0585654769205311"/>
<polygon points="360,86 368.6,91 368.6,101 360,106 351.4,101 351.4,91" fill="none" stroke="#39FF14" stroke-width="1" opacity="0.03664328193094898"/>
<polygon points="185,9 193.6,14 193.6,24 185,29 176.4,24 176.4,14" fill="none" stroke="#39FF14" stroke-width="1" opacity="0.054939304813396095"/>
<polygon points="153,136 161.6,141 161.6,151 153,156 144.4,151 144.4,141" fill="none" stroke="#39FF14" stroke-width="1" opacity="0.07827709624735298"/>
<polygon points="194,160 202.6,165 202.6,175 194,180 185.4,175 185.4,165" fill="none" stroke="#39FF14" stroke-width="1" opacity="0.023710770945869496"/>
<polygon points="746,183 754.6,188 754.6,198 746,203 737.4,198 737.4,188" fill="none" stroke="#39FF14" stroke-width="1" opacity="0.048749928741174633"/>
<polygon points="572,1 580.6,6 580.6,16 572,21 563.4,16 563.4,6" fill="none" stroke="#39FF14" stroke-width="1" opacity="0.07148656413339667"/>
<polygon points="444,119 452.6,124 452.6,134 444,139 435.4,134 435.4,124" fill="none" stroke="#39FF14" stroke-width="1" opacity="0.029635256692938837"/>
<polygon points="65,75 73.6,80 73.6,90 65,95 56.4,90 56.4,80" fill="none" stroke="#39FF14" stroke-width="1" opacity="0.03778134107943829"/>
<polygon points="415,103 423.6,108 423.6,118 415,123 406.4,118 406.4,108" fill="none" stroke="#39FF14" stroke-width="1" opacity="0.07892755415603914"/>
</g>

  <!-- HUD Decorative elements -->
  <path d="M 20 20 L 40 20 L 50 30" fill="none" stroke="#39FF14" stroke-width="2" opacity="0.5"/>
  <path d="M 830 180 L 810 180 L 800 170" fill="none" stroke="#39FF14" stroke-width="2" opacity="0.5"/>

  <g clip-path="url(#dashClip)">
    <rect x="-160" y="0" width="160" height="200" fill="url(#scanlineGrad)">
      <animateTransform attributeName="transform" type="translate"
                        from="0 0" to="1010 0" dur="6s" repeatCount="indefinite"/>
    </rect>
  </g>

  <g font-family="'Consolas', 'Fira Code', monospace" text-anchor="middle">

    <!-- NETWORK STATUS -->
    <g transform="translate(130, 100)">
        <circle cx="0" cy="0" r="45" fill="none" stroke="#39FF14" stroke-width="2" stroke-dasharray="10 5">
            <animateTransform attributeName="transform" type="rotate" from="0" to="360" dur="10s" repeatCount="indefinite"/>
        </circle>
        <circle cx="0" cy="0" r="35" fill="#0d0d0d" />
        <text x="0" y="-60" font-size="12" fill="#aaaaaa" letter-spacing="2">ROOT.AUTH</text>
        <text x="0" y="70" font-size="14" fill="#ffffff" font-weight="bold">OPERATIONAL</text>
    </g>

    <!-- ACTIVE USERS -->
    <g transform="translate(330, 100)">
        <text x="0" y="-20" font-size="12" fill="#aaaaaa">CITIZENS</text>
        <text x="0" y="15" font-size="28" fill="#ffffff" font-weight="bold" filter="url(#textGlow)">13,214</text>
        <text x="0" y="35" font-size="10" fill="#777777">VERIFIED HUMANS</text>
    </g>

    <!-- REGISTERED AGENTS -->
    <g transform="translate(530, 100)">
        <text x="0" y="-20" font-size="12" fill="#aaaaaa">AGENTS</text>
        <text x="0" y="15" font-size="28" fill="#00d4ff" font-weight="bold" filter="url(#textGlow)">3,200</text>
        <text x="0" y="35" font-size="10" fill="#777777">REGISTERED DIDs</text>
    </g>

    <!-- TRANSACTIONS -->
    <g transform="translate(730, 100)">
        <text x="0" y="-20" font-size="12" fill="#aaaaaa">TRANSFERS</text>
        <text x="0" y="15" font-size="28" fill="#ffffff" font-weight="bold">28,610</text>
        <text x="0" y="35" font-size="10" fill="#777777">M2M SETTLEMENTS</text>
    </g>
  </g>

  <text x="425" y="185" font-family="'Consolas', 'Fira Code', monospace" font-size="10" fill="#aaaaaa" opacity="0.6" text-anchor="middle">AXIOMID PROJECTED TARGETS (ILLUSTRATIVE): 2026-06-21 21:27:28 UTC // SECURE_HANDSHAKE</text>
</svg>