<svg width="850" height="200" viewBox="0 0 850 200" xmlns="http://www.w3.org/2000/svg">
  <defs>
    <!-- Carbon Fiber Pattern -->
    <pattern id="carbonFiber" width="10" height="10" patternUnits="userSpaceOnUse">
        <rect width="10" height="10" fill="#050505"/>
        <path d="M0,0 L5,5 L10,0 L5,-5 Z M5,5 L10,10 L15,5 L10,0 Z M-5,5 L0,10 L5,5 L0,0 Z M0,10 L5,15 L10,10 L5,5 Z" fill="#0d0d0d"/>
    </pattern>
    <filter id="glassmorphism">
      <feGaussianBlur stdDeviation="3" result="blur" />
      <feColorMatrix type="matrix" values="1 0 0 0 0  0 1 0 0 0  0 0 1 0 0  0 0 0 18 -7" result="glow" />
      <feBlend in="SourceGraphic" in2="glow" mode="normal" />
    </filter>
    <filter id="textGlow">
      <feGaussianBlur stdDeviation="2" result="blur" />
      <feMerge>
        <feMergeNode in="blur"/>
        <feMergeNode in="SourceGraphic"/>
      </feMerge>
    </filter>
    <linearGradient id="neonBar" x1="0%" y1="0%" x2="100%" y2="0%">
        <stop offset="0%" stop-color="#111111"/>
        <stop offset="100%" stop-color="#39FF14"/>
    </linearGradient>
  </defs>

  <rect width="100%" height="100%" fill="url(#carbonFiber)" rx="12" stroke="#39FF14" stroke-width="1" stroke-opacity="0.3"/>
  <rect width="100%" height="100%" fill="#000000" opacity="0.6" rx="12" />
  <g><polygon points="801,167 809.6,172 809.6,182 801,187 792.4,182 792.4,172" fill="none" stroke="#39FF14" stroke-width="1" opacity="0.06601983271698447"/>
<polygon points="404,34 412.6,39 412.6,49 404,54 395.4,49 395.4,39" fill="none" stroke="#39FF14" stroke-width="1" opacity="0.07722255721034713"/>
<polygon points="178,53 186.6,58 186.6,68 178,73 169.4,68 169.4,58" fill="none" stroke="#39FF14" stroke-width="1" opacity="0.07979299218266322"/>
<polygon points="819,34 827.6,39 827.6,49 819,54 810.4,49 810.4,39" fill="none" stroke="#39FF14" stroke-width="1" opacity="0.06304752154959517"/>
<polygon points="30,83 38.6,88 38.6,98 30,103 21.4,98 21.4,88" fill="none" stroke="#39FF14" stroke-width="1" opacity="0.035696750700701774"/>
<polygon points="645,132 653.6,137 653.6,147 645,152 636.4,147 636.4,137" fill="none" stroke="#39FF14" stroke-width="1" opacity="0.03323839710107315"/>
<polygon points="257,110 265.6,115 265.6,125 257,130 248.4,125 248.4,115" fill="none" stroke="#39FF14" stroke-width="1" opacity="0.022812212905619324"/>
<polygon points="445,89 453.6,94 453.6,104 445,109 436.4,104 436.4,94" fill="none" stroke="#39FF14" stroke-width="1" opacity="0.04745408467638157"/>
<polygon points="522,-1 530.6,4 530.6,14 522,19 513.4,14 513.4,4" fill="none" stroke="#39FF14" stroke-width="1" opacity="0.04517936491334676"/>
<polygon points="493,42 501.6,47 501.6,57 493,62 484.4,57 484.4,47" fill="none" stroke="#39FF14" stroke-width="1" opacity="0.06442437412071385"/>
<polygon points="20,130 28.6,135 28.6,145 20,150 11.4,145 11.4,135" fill="none" stroke="#39FF14" stroke-width="1" opacity="0.020774009719412883"/>
<polygon points="401,46 409.6,51 409.6,61 401,66 392.4,61 392.4,51" fill="none" stroke="#39FF14" stroke-width="1" opacity="0.05829865538098719"/>
<polygon points="658,175 666.6,180 666.6,190 658,195 649.4,190 649.4,180" fill="none" stroke="#39FF14" stroke-width="1" opacity="0.07713573892788193"/>
<polygon points="238,110 246.6,115 246.6,125 238,130 229.4,125 229.4,115" fill="none" stroke="#39FF14" stroke-width="1" opacity="0.03692734558590714"/>
<polygon points="789,0 797.6,5 797.6,15 789,20 780.4,15 780.4,5" fill="none" stroke="#39FF14" stroke-width="1" opacity="0.060914191520627645"/>
<polygon points="28,106 36.6,111 36.6,121 28,126 19.4,121 19.4,111" fill="none" stroke="#39FF14" stroke-width="1" opacity="0.049617356356699185"/>
<polygon points="85,11 93.6,16 93.6,26 85,31 76.4,26 76.4,16" fill="none" stroke="#39FF14" stroke-width="1" opacity="0.047902980705841966"/>
<polygon points="289,88 297.6,93 297.6,103 289,108 280.4,103 280.4,93" fill="none" stroke="#39FF14" stroke-width="1" opacity="0.06353775629705094"/>
<polygon points="87,142 95.6,147 95.6,157 87,162 78.4,157 78.4,147" fill="none" stroke="#39FF14" stroke-width="1" opacity="0.029736586237945603"/>
<polygon points="180,28 188.6,33 188.6,43 180,48 171.4,43 171.4,33" fill="none" stroke="#39FF14" stroke-width="1" opacity="0.07960494044943833"/>
<polygon points="580,88 588.6,93 588.6,103 580,108 571.4,103 571.4,93" fill="none" stroke="#39FF14" stroke-width="1" opacity="0.02409789184021835"/>
<polygon points="494,12 502.6,17 502.6,27 494,32 485.4,27 485.4,17" fill="none" stroke="#39FF14" stroke-width="1" opacity="0.036406119229243875"/>
<polygon points="400,100 408.6,105 408.6,115 400,120 391.4,115 391.4,105" fill="none" stroke="#39FF14" stroke-width="1" opacity="0.022495535535478256"/>
<polygon points="513,98 521.6,103 521.6,113 513,118 504.4,113 504.4,103" fill="none" stroke="#39FF14" stroke-width="1" opacity="0.058630301465558504"/>
<polygon points="713,144 721.6,149 721.6,159 713,164 704.4,159 704.4,149" fill="none" stroke="#39FF14" stroke-width="1" opacity="0.03151959483097337"/>
<polygon points="421,158 429.6,163 429.6,173 421,178 412.4,173 412.4,163" fill="none" stroke="#39FF14" stroke-width="1" opacity="0.07691824075526614"/>
<polygon points="629,46 637.6,51 637.6,61 629,66 620.4,61 620.4,51" fill="none" stroke="#39FF14" stroke-width="1" opacity="0.05557702478738659"/>
<polygon points="559,122 567.6,127 567.6,137 559,142 550.4,137 550.4,127" fill="none" stroke="#39FF14" stroke-width="1" opacity="0.0333254783965072"/>
<polygon points="795,170 803.6,175 803.6,185 795,190 786.4,185 786.4,175" fill="none" stroke="#39FF14" stroke-width="1" opacity="0.054699983318982404"/>
<polygon points="662,155 670.6,160 670.6,170 662,175 653.4,170 653.4,160" fill="none" stroke="#39FF14" stroke-width="1" opacity="0.025262334319871713"/>
</g>

  <!-- HUD Decorative elements -->
  <path d="M 20 20 L 40 20 L 50 30" fill="none" stroke="#39FF14" stroke-width="2" opacity="0.5"/>
  <path d="M 830 180 L 810 180 L 800 170" fill="none" stroke="#39FF14" stroke-width="2" opacity="0.5"/>
  <rect x="20" y="100" width="2" height="40" fill="#ffffff" opacity="0.4"/>
  <rect x="828" y="60" width="2" height="40" fill="#39FF14" opacity="0.6"/>

  <g font-family="'Consolas', 'Fira Code', monospace" text-anchor="middle">

    <!-- SYSTEM STATUS -->
    <g transform="translate(130, 100)">
        <circle cx="0" cy="0" r="45" fill="none" stroke="#111111" stroke-width="8" />
        <circle cx="0" cy="0" r="45" fill="none" stroke="#39FF14" stroke-width="2" stroke-dasharray="10 5">
            <animateTransform attributeName="transform" type="rotate" from="0" to="360" dur="10s" repeatCount="indefinite"/>
        </circle>
        <circle cx="0" cy="0" r="35" fill="#0d0d0d" />
        <circle cx="0" cy="0" r="6" fill="#39FF14" filter="url(#textGlow)">
            <animate attributeName="opacity" values="1;0.3;1" dur="2s" repeatCount="indefinite"/>
        </circle>
        <text x="0" y="-60" font-size="12" fill="#aaaaaa" letter-spacing="2">SYS.CORE</text>
        <text x="0" y="70" font-size="14" fill="#ffffff" font-weight="bold">ONLINE</text>
    </g>

    <!-- LIVE TRAFFIC -->
    <g transform="translate(330, 100)">
        <rect x="-60" y="-45" width="120" height="90" fill="#0a0a0a" rx="8" stroke="#39FF14" stroke-opacity="0.4" stroke-width="1"/>
        <text x="0" y="-20" font-size="12" fill="#aaaaaa">NETWORK LOAD</text>
        <text x="0" y="15" font-size="28" fill="#ffffff" font-weight="bold" filter="url(#textGlow)">4072</text>
        <text x="0" y="35" font-size="10" fill="#777777">ACTIVE SESSIONS</text>
    </g>

    <!-- ACTIVE AGENTS -->
    <g transform="translate(530, 100)">
        <rect x="-60" y="-45" width="120" height="90" fill="#0a0a0a" rx="8" stroke="#39FF14" stroke-opacity="0.4" stroke-width="1"/>
        <text x="0" y="-20" font-size="12" fill="#aaaaaa">SWARM ENTITIES</text>
        <text x="0" y="15" font-size="28" fill="#ffffff" font-weight="bold" filter="url(#textGlow)">124</text>
        <text x="0" y="35" font-size="10" fill="#777777">AUTONOMOUS</text>
    </g>

    <!-- UPTIME -->
    <g transform="translate(730, 100)">
        <path d="M -40 -35 L 40 -35 L 50 -25 L 50 35 L -40 35 L -50 25 Z" fill="#0a0a0a" stroke="#39FF14" stroke-opacity="0.4" stroke-width="1"/>
        <text x="0" y="-15" font-size="12" fill="#aaaaaa">CONTINUITY</text>
        <text x="0" y="15" font-size="24" fill="#ffffff" font-weight="bold">246<tspan font-size="14" fill="#777777">d</tspan></text>
        <rect x="-35" y="25" width="70" height="4" fill="url(#neonBar)" rx="2"/>
    </g>
  </g>

  <text x="425" y="185" font-family="'Consolas', 'Fira Code', monospace" font-size="10" fill="#aaaaaa" opacity="0.6" text-anchor="middle">LAST TELEMETRY PING: 2026-05-13 02:02:13 UTC // ENCRYPTED_TUNNEL</text>
</svg>