<svg width="850" height="200" viewBox="0 0 850 200" xmlns="http://www.w3.org/2000/svg">
  <defs>
    <pattern id="carbonFiber" width="10" height="10" patternUnits="userSpaceOnUse">
        <rect width="10" height="10" fill="#050505"/>
        <path d="M0,0 L5,5 L10,0 L5,-5 Z M5,5 L10,10 L15,5 L10,0 Z M-5,5 L0,10 L5,5 L0,0 Z M0,10 L5,15 L10,10 L5,5 Z" fill="#0d0d0d"/>
    </pattern>
    <filter id="textGlow">
      <feGaussianBlur stdDeviation="2" result="blur" />
      <feMerge>
        <feMergeNode in="blur"/>
        <feMergeNode in="SourceGraphic"/>
      </feMerge>
    </filter>
    <linearGradient id="neonBar" x1="0%" y1="0%" x2="100%" y2="0%">
        <stop offset="0%" stop-color="#111111"/>
        <stop offset="100%" stop-color="#39FF14"/>
    </linearGradient>
    <linearGradient id="scanlineGrad" x1="0%" y1="0%" x2="100%" y2="0%">
        <stop offset="0%" stop-color="#39FF14" stop-opacity="0"/>
        <stop offset="50%" stop-color="#39FF14" stop-opacity="0.18"/>
        <stop offset="100%" stop-color="#39FF14" stop-opacity="0"/>
    </linearGradient>
    <clipPath id="dashClip">
        <rect x="0" y="0" width="850" height="200" rx="12"/>
    </clipPath>
  </defs>

  <rect width="100%" height="100%" fill="url(#carbonFiber)" rx="12" stroke="#39FF14" stroke-width="1" stroke-opacity="0.3"/>
  <rect width="100%" height="100%" fill="#000000" opacity="0.6" rx="12" />
  <g><polygon points="206,187 214.6,192 214.6,202 206,207 197.4,202 197.4,192" fill="none" stroke="#39FF14" stroke-width="1" opacity="0.051271638157943625"/>
<polygon points="211,0 219.6,5 219.6,15 211,20 202.4,15 202.4,5" fill="none" stroke="#39FF14" stroke-width="1" opacity="0.06850966352369112"/>
<polygon points="129,11 137.6,16 137.6,26 129,31 120.4,26 120.4,16" fill="none" stroke="#39FF14" stroke-width="1" opacity="0.02569443815069492"/>
<polygon points="202,74 210.6,79 210.6,89 202,94 193.4,89 193.4,79" fill="none" stroke="#39FF14" stroke-width="1" opacity="0.061488757905347594"/>
<polygon points="596,54 604.6,59 604.6,69 596,74 587.4,69 587.4,59" fill="none" stroke="#39FF14" stroke-width="1" opacity="0.022777055560705858"/>
<polygon points="131,53 139.6,58 139.6,68 131,73 122.4,68 122.4,58" fill="none" stroke="#39FF14" stroke-width="1" opacity="0.06073125022265802"/>
<polygon points="814,136 822.6,141 822.6,151 814,156 805.4,151 805.4,141" fill="none" stroke="#39FF14" stroke-width="1" opacity="0.05743305354287462"/>
<polygon points="794,123 802.6,128 802.6,138 794,143 785.4,138 785.4,128" fill="none" stroke="#39FF14" stroke-width="1" opacity="0.05473246768849534"/>
<polygon points="729,103 737.6,108 737.6,118 729,123 720.4,118 720.4,108" fill="none" stroke="#39FF14" stroke-width="1" opacity="0.07480811657200169"/>
<polygon points="92,63 100.6,68 100.6,78 92,83 83.4,78 83.4,68" fill="none" stroke="#39FF14" stroke-width="1" opacity="0.05904249335929165"/>
<polygon points="732,31 740.6,36 740.6,46 732,51 723.4,46 723.4,36" fill="none" stroke="#39FF14" stroke-width="1" opacity="0.05992585898636142"/>
<polygon points="141,24 149.6,29 149.6,39 141,44 132.4,39 132.4,29" fill="none" stroke="#39FF14" stroke-width="1" opacity="0.05274432095782931"/>
<polygon points="133,147 141.6,152 141.6,162 133,167 124.4,162 124.4,152" fill="none" stroke="#39FF14" stroke-width="1" opacity="0.03525989829001155"/>
<polygon points="307,133 315.6,138 315.6,148 307,153 298.4,148 298.4,138" fill="none" stroke="#39FF14" stroke-width="1" opacity="0.02143980736497047"/>
<polygon points="540,2 548.6,7 548.6,17 540,22 531.4,17 531.4,7" fill="none" stroke="#39FF14" stroke-width="1" opacity="0.06510544549682074"/>
<polygon points="761,73 769.6,78 769.6,88 761,93 752.4,88 752.4,78" fill="none" stroke="#39FF14" stroke-width="1" opacity="0.061363518224650346"/>
<polygon points="617,57 625.6,62 625.6,72 617,77 608.4,72 608.4,62" fill="none" stroke="#39FF14" stroke-width="1" opacity="0.024122502504502"/>
<polygon points="518,29 526.6,34 526.6,44 518,49 509.4,44 509.4,34" fill="none" stroke="#39FF14" stroke-width="1" opacity="0.06603989210186821"/>
<polygon points="773,171 781.6,176 781.6,186 773,191 764.4,186 764.4,176" fill="none" stroke="#39FF14" stroke-width="1" opacity="0.06266593966007644"/>
<polygon points="120,54 128.6,59 128.6,69 120,74 111.4,69 111.4,59" fill="none" stroke="#39FF14" stroke-width="1" opacity="0.029811818057092723"/>
<polygon points="553,19 561.6,24 561.6,34 553,39 544.4,34 544.4,24" fill="none" stroke="#39FF14" stroke-width="1" opacity="0.06796766746643909"/>
<polygon points="307,26 315.6,31 315.6,41 307,46 298.4,41 298.4,31" fill="none" stroke="#39FF14" stroke-width="1" opacity="0.022599559763166625"/>
<polygon points="784,38 792.6,43 792.6,53 784,58 775.4,53 775.4,43" fill="none" stroke="#39FF14" stroke-width="1" opacity="0.047994865319216526"/>
<polygon points="256,-6 264.6,-1 264.6,9 256,14 247.4,9 247.4,-1" fill="none" stroke="#39FF14" stroke-width="1" opacity="0.044749174532033496"/>
<polygon points="499,58 507.6,63 507.6,73 499,78 490.4,73 490.4,63" fill="none" stroke="#39FF14" stroke-width="1" opacity="0.05567800707183376"/>
<polygon points="468,71 476.6,76 476.6,86 468,91 459.4,86 459.4,76" fill="none" stroke="#39FF14" stroke-width="1" opacity="0.07682795166289047"/>
<polygon points="274,125 282.6,130 282.6,140 274,145 265.4,140 265.4,130" fill="none" stroke="#39FF14" stroke-width="1" opacity="0.04203264725216512"/>
<polygon points="726,75 734.6,80 734.6,90 726,95 717.4,90 717.4,80" fill="none" stroke="#39FF14" stroke-width="1" opacity="0.04260020978753322"/>
<polygon points="487,36 495.6,41 495.6,51 487,56 478.4,51 478.4,41" fill="none" stroke="#39FF14" stroke-width="1" opacity="0.028035152805025474"/>
<polygon points="34,156 42.6,161 42.6,171 34,176 25.4,171 25.4,161" fill="none" stroke="#39FF14" stroke-width="1" opacity="0.04424198504887453"/>
</g>

  <!-- HUD Decorative elements -->
  <path d="M 20 20 L 40 20 L 50 30" fill="none" stroke="#39FF14" stroke-width="2" opacity="0.5"/>
  <path d="M 830 180 L 810 180 L 800 170" fill="none" stroke="#39FF14" stroke-width="2" opacity="0.5"/>

  <g clip-path="url(#dashClip)">
    <rect x="-160" y="0" width="160" height="200" fill="url(#scanlineGrad)">
      <animateTransform attributeName="transform" type="translate"
                        from="0 0" to="1010 0" dur="6s" repeatCount="indefinite"/>
    </rect>
  </g>

  <g font-family="'Consolas', 'Fira Code', monospace" text-anchor="middle">

    <!-- NETWORK STATUS -->
    <g transform="translate(130, 100)">
        <circle cx="0" cy="0" r="45" fill="none" stroke="#39FF14" stroke-width="2" stroke-dasharray="10 5">
            <animateTransform attributeName="transform" type="rotate" from="0" to="360" dur="10s" repeatCount="indefinite"/>
        </circle>
        <circle cx="0" cy="0" r="35" fill="#0d0d0d" />
        <text x="0" y="-60" font-size="12" fill="#aaaaaa" letter-spacing="2">ROOT.AUTH</text>
        <text x="0" y="70" font-size="14" fill="#ffffff" font-weight="bold">OPERATIONAL</text>
    </g>

    <!-- ACTIVE USERS -->
    <g transform="translate(330, 100)">
        <text x="0" y="-20" font-size="12" fill="#aaaaaa">CITIZENS</text>
        <text x="0" y="15" font-size="28" fill="#ffffff" font-weight="bold" filter="url(#textGlow)">13,596</text>
        <text x="0" y="35" font-size="10" fill="#777777">VERIFIED HUMANS</text>
    </g>

    <!-- REGISTERED AGENTS -->
    <g transform="translate(530, 100)">
        <text x="0" y="-20" font-size="12" fill="#aaaaaa">AGENTS</text>
        <text x="0" y="15" font-size="28" fill="#00d4ff" font-weight="bold" filter="url(#textGlow)">4,292</text>
        <text x="0" y="35" font-size="10" fill="#777777">REGISTERED DIDs</text>
    </g>

    <!-- TRANSACTIONS -->
    <g transform="translate(730, 100)">
        <text x="0" y="-20" font-size="12" fill="#aaaaaa">TRANSFERS</text>
        <text x="0" y="15" font-size="28" fill="#ffffff" font-weight="bold">38,281</text>
        <text x="0" y="35" font-size="10" fill="#777777">M2M SETTLEMENTS</text>
    </g>
  </g>

  <text x="425" y="185" font-family="'Consolas', 'Fira Code', monospace" font-size="10" fill="#aaaaaa" opacity="0.6" text-anchor="middle">AXIOMID PROJECTED TARGETS (ILLUSTRATIVE): 2026-07-07 02:05:55 UTC // SECURE_HANDSHAKE</text>
</svg>