<svg width="850" height="200" viewBox="0 0 850 200" xmlns="http://www.w3.org/2000/svg">
  <defs>
    <pattern id="carbonFiber" width="10" height="10" patternUnits="userSpaceOnUse">
        <rect width="10" height="10" fill="#050505"/>
        <path d="M0,0 L5,5 L10,0 L5,-5 Z M5,5 L10,10 L15,5 L10,0 Z M-5,5 L0,10 L5,5 L0,0 Z M0,10 L5,15 L10,10 L5,5 Z" fill="#0d0d0d"/>
    </pattern>
    <filter id="textGlow">
      <feGaussianBlur stdDeviation="2" result="blur" />
      <feMerge>
        <feMergeNode in="blur"/>
        <feMergeNode in="SourceGraphic"/>
      </feMerge>
    </filter>
    <linearGradient id="neonBar" x1="0%" y1="0%" x2="100%" y2="0%">
        <stop offset="0%" stop-color="#111111"/>
        <stop offset="100%" stop-color="#39FF14"/>
    </linearGradient>
    <linearGradient id="scanlineGrad" x1="0%" y1="0%" x2="100%" y2="0%">
        <stop offset="0%" stop-color="#39FF14" stop-opacity="0"/>
        <stop offset="50%" stop-color="#39FF14" stop-opacity="0.18"/>
        <stop offset="100%" stop-color="#39FF14" stop-opacity="0"/>
    </linearGradient>
    <clipPath id="dashClip">
        <rect x="0" y="0" width="850" height="200" rx="12"/>
    </clipPath>
  </defs>

  <rect width="100%" height="100%" fill="url(#carbonFiber)" rx="12" stroke="#39FF14" stroke-width="1" stroke-opacity="0.3"/>
  <rect width="100%" height="100%" fill="#000000" opacity="0.6" rx="12" />
  <g><polygon points="324,26 332.6,31 332.6,41 324,46 315.4,41 315.4,31" fill="none" stroke="#39FF14" stroke-width="1" opacity="0.055545230189433095"/>
<polygon points="750,150 758.6,155 758.6,165 750,170 741.4,165 741.4,155" fill="none" stroke="#39FF14" stroke-width="1" opacity="0.05043411923563104"/>
<polygon points="740,24 748.6,29 748.6,39 740,44 731.4,39 731.4,29" fill="none" stroke="#39FF14" stroke-width="1" opacity="0.037321336552669136"/>
<polygon points="576,188 584.6,193 584.6,203 576,208 567.4,203 567.4,193" fill="none" stroke="#39FF14" stroke-width="1" opacity="0.03356132175410151"/>
<polygon points="391,46 399.6,51 399.6,61 391,66 382.4,61 382.4,51" fill="none" stroke="#39FF14" stroke-width="1" opacity="0.07523021517129706"/>
<polygon points="607,23 615.6,28 615.6,38 607,43 598.4,38 598.4,28" fill="none" stroke="#39FF14" stroke-width="1" opacity="0.024527903623466994"/>
<polygon points="570,85 578.6,90 578.6,100 570,105 561.4,100 561.4,90" fill="none" stroke="#39FF14" stroke-width="1" opacity="0.05942120941712471"/>
<polygon points="175,87 183.6,92 183.6,102 175,107 166.4,102 166.4,92" fill="none" stroke="#39FF14" stroke-width="1" opacity="0.06739086566852466"/>
<polygon points="19,3 27.6,8 27.6,18 19,23 10.4,18 10.4,8" fill="none" stroke="#39FF14" stroke-width="1" opacity="0.055529121043071866"/>
<polygon points="502,22 510.6,27 510.6,37 502,42 493.4,37 493.4,27" fill="none" stroke="#39FF14" stroke-width="1" opacity="0.026009115145136857"/>
<polygon points="540,184 548.6,189 548.6,199 540,204 531.4,199 531.4,189" fill="none" stroke="#39FF14" stroke-width="1" opacity="0.0752886293416229"/>
<polygon points="352,167 360.6,172 360.6,182 352,187 343.4,182 343.4,172" fill="none" stroke="#39FF14" stroke-width="1" opacity="0.0277500156257845"/>
<polygon points="7,135 15.6,140 15.6,150 7,155 -1.5999999999999996,150 -1.5999999999999996,140" fill="none" stroke="#39FF14" stroke-width="1" opacity="0.06013839913614406"/>
<polygon points="818,142 826.6,147 826.6,157 818,162 809.4,157 809.4,147" fill="none" stroke="#39FF14" stroke-width="1" opacity="0.07924788672971257"/>
<polygon points="573,23 581.6,28 581.6,38 573,43 564.4,38 564.4,28" fill="none" stroke="#39FF14" stroke-width="1" opacity="0.023977838590607523"/>
<polygon points="571,-2 579.6,3 579.6,13 571,18 562.4,13 562.4,3" fill="none" stroke="#39FF14" stroke-width="1" opacity="0.05153616838854014"/>
<polygon points="481,58 489.6,63 489.6,73 481,78 472.4,73 472.4,63" fill="none" stroke="#39FF14" stroke-width="1" opacity="0.07193280383574817"/>
<polygon points="799,27 807.6,32 807.6,42 799,47 790.4,42 790.4,32" fill="none" stroke="#39FF14" stroke-width="1" opacity="0.05389468933963318"/>
<polygon points="174,188 182.6,193 182.6,203 174,208 165.4,203 165.4,193" fill="none" stroke="#39FF14" stroke-width="1" opacity="0.04062151089731085"/>
<polygon points="433,57 441.6,62 441.6,72 433,77 424.4,72 424.4,62" fill="none" stroke="#39FF14" stroke-width="1" opacity="0.0643807643239567"/>
<polygon points="561,176 569.6,181 569.6,191 561,196 552.4,191 552.4,181" fill="none" stroke="#39FF14" stroke-width="1" opacity="0.0687826334139212"/>
<polygon points="226,155 234.6,160 234.6,170 226,175 217.4,170 217.4,160" fill="none" stroke="#39FF14" stroke-width="1" opacity="0.0366206860476496"/>
<polygon points="253,-2 261.6,3 261.6,13 253,18 244.4,13 244.4,3" fill="none" stroke="#39FF14" stroke-width="1" opacity="0.027601336245091812"/>
<polygon points="382,31 390.6,36 390.6,46 382,51 373.4,46 373.4,36" fill="none" stroke="#39FF14" stroke-width="1" opacity="0.0661874270300519"/>
<polygon points="500,9 508.6,14 508.6,24 500,29 491.4,24 491.4,14" fill="none" stroke="#39FF14" stroke-width="1" opacity="0.032236631004816885"/>
<polygon points="408,57 416.6,62 416.6,72 408,77 399.4,72 399.4,62" fill="none" stroke="#39FF14" stroke-width="1" opacity="0.07866540158897015"/>
<polygon points="206,7 214.6,12 214.6,22 206,27 197.4,22 197.4,12" fill="none" stroke="#39FF14" stroke-width="1" opacity="0.07897350679933919"/>
<polygon points="42,1 50.6,6 50.6,16 42,21 33.4,16 33.4,6" fill="none" stroke="#39FF14" stroke-width="1" opacity="0.06847412530072386"/>
<polygon points="682,158 690.6,163 690.6,173 682,178 673.4,173 673.4,163" fill="none" stroke="#39FF14" stroke-width="1" opacity="0.06608403513026516"/>
<polygon points="276,12 284.6,17 284.6,27 276,32 267.4,27 267.4,17" fill="none" stroke="#39FF14" stroke-width="1" opacity="0.030322340482898384"/>
</g>

  <!-- HUD Decorative elements -->
  <path d="M 20 20 L 40 20 L 50 30" fill="none" stroke="#39FF14" stroke-width="2" opacity="0.5"/>
  <path d="M 830 180 L 810 180 L 800 170" fill="none" stroke="#39FF14" stroke-width="2" opacity="0.5"/>

  <g clip-path="url(#dashClip)">
    <rect x="-160" y="0" width="160" height="200" fill="url(#scanlineGrad)">
      <animateTransform attributeName="transform" type="translate"
                        from="0 0" to="1010 0" dur="6s" repeatCount="indefinite"/>
    </rect>
  </g>

  <g font-family="'Consolas', 'Fira Code', monospace" text-anchor="middle">

    <!-- NETWORK STATUS -->
    <g transform="translate(130, 100)">
        <circle cx="0" cy="0" r="45" fill="none" stroke="#39FF14" stroke-width="2" stroke-dasharray="10 5">
            <animateTransform attributeName="transform" type="rotate" from="0" to="360" dur="10s" repeatCount="indefinite"/>
        </circle>
        <circle cx="0" cy="0" r="35" fill="#0d0d0d" />
        <text x="0" y="-60" font-size="12" fill="#aaaaaa" letter-spacing="2">ROOT.AUTH</text>
        <text x="0" y="70" font-size="14" fill="#ffffff" font-weight="bold">OPERATIONAL</text>
    </g>

    <!-- ACTIVE USERS -->
    <g transform="translate(330, 100)">
        <text x="0" y="-20" font-size="12" fill="#aaaaaa">CITIZENS</text>
        <text x="0" y="15" font-size="28" fill="#ffffff" font-weight="bold" filter="url(#textGlow)">15,163</text>
        <text x="0" y="35" font-size="10" fill="#777777">VERIFIED HUMANS</text>
    </g>

    <!-- REGISTERED AGENTS -->
    <g transform="translate(530, 100)">
        <text x="0" y="-20" font-size="12" fill="#aaaaaa">AGENTS</text>
        <text x="0" y="15" font-size="28" fill="#00d4ff" font-weight="bold" filter="url(#textGlow)">3,225</text>
        <text x="0" y="35" font-size="10" fill="#777777">REGISTERED DIDs</text>
    </g>

    <!-- TRANSACTIONS -->
    <g transform="translate(730, 100)">
        <text x="0" y="-20" font-size="12" fill="#aaaaaa">TRANSFERS</text>
        <text x="0" y="15" font-size="28" fill="#ffffff" font-weight="bold">33,736</text>
        <text x="0" y="35" font-size="10" fill="#777777">M2M SETTLEMENTS</text>
    </g>
  </g>

  <text x="425" y="185" font-family="'Consolas', 'Fira Code', monospace" font-size="10" fill="#aaaaaa" opacity="0.6" text-anchor="middle">AXIOMID PROJECTED TARGETS (ILLUSTRATIVE): 2026-07-06 07:02:05 UTC // SECURE_HANDSHAKE</text>
</svg>