<svg width="850" height="200" viewBox="0 0 850 200" xmlns="http://www.w3.org/2000/svg">
  <defs>
    <pattern id="carbonFiber" width="10" height="10" patternUnits="userSpaceOnUse">
        <rect width="10" height="10" fill="#050505"/>
        <path d="M0,0 L5,5 L10,0 L5,-5 Z M5,5 L10,10 L15,5 L10,0 Z M-5,5 L0,10 L5,5 L0,0 Z M0,10 L5,15 L10,10 L5,5 Z" fill="#0d0d0d"/>
    </pattern>
    <filter id="textGlow">
      <feGaussianBlur stdDeviation="2" result="blur" />
      <feMerge>
        <feMergeNode in="blur"/>
        <feMergeNode in="SourceGraphic"/>
      </feMerge>
    </filter>
    <linearGradient id="neonBar" x1="0%" y1="0%" x2="100%" y2="0%">
        <stop offset="0%" stop-color="#111111"/>
        <stop offset="100%" stop-color="#39FF14"/>
    </linearGradient>
    <linearGradient id="scanlineGrad" x1="0%" y1="0%" x2="100%" y2="0%">
        <stop offset="0%" stop-color="#39FF14" stop-opacity="0"/>
        <stop offset="50%" stop-color="#39FF14" stop-opacity="0.18"/>
        <stop offset="100%" stop-color="#39FF14" stop-opacity="0"/>
    </linearGradient>
    <clipPath id="dashClip">
        <rect x="0" y="0" width="850" height="200" rx="12"/>
    </clipPath>
  </defs>

  <rect width="100%" height="100%" fill="url(#carbonFiber)" rx="12" stroke="#39FF14" stroke-width="1" stroke-opacity="0.3"/>
  <rect width="100%" height="100%" fill="#000000" opacity="0.6" rx="12" />
  <g><polygon points="473,178 481.6,183 481.6,193 473,198 464.4,193 464.4,183" fill="none" stroke="#39FF14" stroke-width="1" opacity="0.02211745477052844"/>
<polygon points="656,163 664.6,168 664.6,178 656,183 647.4,178 647.4,168" fill="none" stroke="#39FF14" stroke-width="1" opacity="0.049727679370450105"/>
<polygon points="836,-4 844.6,1 844.6,11 836,16 827.4,11 827.4,1" fill="none" stroke="#39FF14" stroke-width="1" opacity="0.0657205326973592"/>
<polygon points="647,54 655.6,59 655.6,69 647,74 638.4,69 638.4,59" fill="none" stroke="#39FF14" stroke-width="1" opacity="0.061431783377370056"/>
<polygon points="12,125 20.6,130 20.6,140 12,145 3.4000000000000004,140 3.4000000000000004,130" fill="none" stroke="#39FF14" stroke-width="1" opacity="0.035316612700399"/>
<polygon points="310,75 318.6,80 318.6,90 310,95 301.4,90 301.4,80" fill="none" stroke="#39FF14" stroke-width="1" opacity="0.0636527503720283"/>
<polygon points="383,169 391.6,174 391.6,184 383,189 374.4,184 374.4,174" fill="none" stroke="#39FF14" stroke-width="1" opacity="0.021223481904940857"/>
<polygon points="340,-4 348.6,1 348.6,11 340,16 331.4,11 331.4,1" fill="none" stroke="#39FF14" stroke-width="1" opacity="0.025585388815526626"/>
<polygon points="204,178 212.6,183 212.6,193 204,198 195.4,193 195.4,183" fill="none" stroke="#39FF14" stroke-width="1" opacity="0.07431473157672909"/>
<polygon points="350,35 358.6,40 358.6,50 350,55 341.4,50 341.4,40" fill="none" stroke="#39FF14" stroke-width="1" opacity="0.03500819068788147"/>
<polygon points="497,56 505.6,61 505.6,71 497,76 488.4,71 488.4,61" fill="none" stroke="#39FF14" stroke-width="1" opacity="0.05518416441660927"/>
<polygon points="320,172 328.6,177 328.6,187 320,192 311.4,187 311.4,177" fill="none" stroke="#39FF14" stroke-width="1" opacity="0.049643676993691474"/>
<polygon points="34,42 42.6,47 42.6,57 34,62 25.4,57 25.4,47" fill="none" stroke="#39FF14" stroke-width="1" opacity="0.053610779705804676"/>
<polygon points="402,148 410.6,153 410.6,163 402,168 393.4,163 393.4,153" fill="none" stroke="#39FF14" stroke-width="1" opacity="0.059158435445137186"/>
<polygon points="27,90 35.6,95 35.6,105 27,110 18.4,105 18.4,95" fill="none" stroke="#39FF14" stroke-width="1" opacity="0.05149859278839643"/>
<polygon points="179,114 187.6,119 187.6,129 179,134 170.4,129 170.4,119" fill="none" stroke="#39FF14" stroke-width="1" opacity="0.047900404968581806"/>
<polygon points="142,135 150.6,140 150.6,150 142,155 133.4,150 133.4,140" fill="none" stroke="#39FF14" stroke-width="1" opacity="0.03941597572546694"/>
<polygon points="327,44 335.6,49 335.6,59 327,64 318.4,59 318.4,49" fill="none" stroke="#39FF14" stroke-width="1" opacity="0.03302462683353716"/>
<polygon points="312,23 320.6,28 320.6,38 312,43 303.4,38 303.4,28" fill="none" stroke="#39FF14" stroke-width="1" opacity="0.035160269450817475"/>
<polygon points="727,36 735.6,41 735.6,51 727,56 718.4,51 718.4,41" fill="none" stroke="#39FF14" stroke-width="1" opacity="0.02570209161943412"/>
<polygon points="314,13 322.6,18 322.6,28 314,33 305.4,28 305.4,18" fill="none" stroke="#39FF14" stroke-width="1" opacity="0.05852907994128727"/>
<polygon points="310,7 318.6,12 318.6,22 310,27 301.4,22 301.4,12" fill="none" stroke="#39FF14" stroke-width="1" opacity="0.0781734824745285"/>
<polygon points="281,158 289.6,163 289.6,173 281,178 272.4,173 272.4,163" fill="none" stroke="#39FF14" stroke-width="1" opacity="0.05593305070615846"/>
<polygon points="700,23 708.6,28 708.6,38 700,43 691.4,38 691.4,28" fill="none" stroke="#39FF14" stroke-width="1" opacity="0.07891305318854226"/>
<polygon points="735,6 743.6,11 743.6,21 735,26 726.4,21 726.4,11" fill="none" stroke="#39FF14" stroke-width="1" opacity="0.05255155012060764"/>
<polygon points="841,178 849.6,183 849.6,193 841,198 832.4,193 832.4,183" fill="none" stroke="#39FF14" stroke-width="1" opacity="0.06058804654969202"/>
<polygon points="357,1 365.6,6 365.6,16 357,21 348.4,16 348.4,6" fill="none" stroke="#39FF14" stroke-width="1" opacity="0.022936449605319206"/>
<polygon points="777,23 785.6,28 785.6,38 777,43 768.4,38 768.4,28" fill="none" stroke="#39FF14" stroke-width="1" opacity="0.03186730792351095"/>
<polygon points="122,28 130.6,33 130.6,43 122,48 113.4,43 113.4,33" fill="none" stroke="#39FF14" stroke-width="1" opacity="0.040012818009889886"/>
<polygon points="822,85 830.6,90 830.6,100 822,105 813.4,100 813.4,90" fill="none" stroke="#39FF14" stroke-width="1" opacity="0.03298459729944493"/>
</g>

  <!-- HUD Decorative elements -->
  <path d="M 20 20 L 40 20 L 50 30" fill="none" stroke="#39FF14" stroke-width="2" opacity="0.5"/>
  <path d="M 830 180 L 810 180 L 800 170" fill="none" stroke="#39FF14" stroke-width="2" opacity="0.5"/>

  <g clip-path="url(#dashClip)">
    <rect x="-160" y="0" width="160" height="200" fill="url(#scanlineGrad)">
      <animateTransform attributeName="transform" type="translate"
                        from="0 0" to="1010 0" dur="6s" repeatCount="indefinite"/>
    </rect>
  </g>

  <g font-family="'Consolas', 'Fira Code', monospace" text-anchor="middle">

    <!-- NETWORK STATUS -->
    <g transform="translate(130, 100)">
        <circle cx="0" cy="0" r="45" fill="none" stroke="#39FF14" stroke-width="2" stroke-dasharray="10 5">
            <animateTransform attributeName="transform" type="rotate" from="0" to="360" dur="10s" repeatCount="indefinite"/>
        </circle>
        <circle cx="0" cy="0" r="35" fill="#0d0d0d" />
        <text x="0" y="-60" font-size="12" fill="#aaaaaa" letter-spacing="2">ROOT.AUTH</text>
        <text x="0" y="70" font-size="14" fill="#ffffff" font-weight="bold">OPERATIONAL</text>
    </g>

    <!-- ACTIVE USERS -->
    <g transform="translate(330, 100)">
        <text x="0" y="-20" font-size="12" fill="#aaaaaa">CITIZENS</text>
        <text x="0" y="15" font-size="28" fill="#ffffff" font-weight="bold" filter="url(#textGlow)">14,663</text>
        <text x="0" y="35" font-size="10" fill="#777777">VERIFIED HUMANS</text>
    </g>

    <!-- REGISTERED AGENTS -->
    <g transform="translate(530, 100)">
        <text x="0" y="-20" font-size="12" fill="#aaaaaa">AGENTS</text>
        <text x="0" y="15" font-size="28" fill="#00d4ff" font-weight="bold" filter="url(#textGlow)">3,187</text>
        <text x="0" y="35" font-size="10" fill="#777777">REGISTERED DIDs</text>
    </g>

    <!-- TRANSACTIONS -->
    <g transform="translate(730, 100)">
        <text x="0" y="-20" font-size="12" fill="#aaaaaa">TRANSFERS</text>
        <text x="0" y="15" font-size="28" fill="#ffffff" font-weight="bold">34,285</text>
        <text x="0" y="35" font-size="10" fill="#777777">M2M SETTLEMENTS</text>
    </g>
  </g>

  <text x="425" y="185" font-family="'Consolas', 'Fira Code', monospace" font-size="10" fill="#aaaaaa" opacity="0.6" text-anchor="middle">AXIOMID PROJECTED TARGETS (ILLUSTRATIVE): 2026-06-30 00:30:32 UTC // SECURE_HANDSHAKE</text>
</svg>