<svg width="850" height="200" viewBox="0 0 850 200" xmlns="http://www.w3.org/2000/svg">
  <defs>
    <pattern id="carbonFiber" width="10" height="10" patternUnits="userSpaceOnUse">
        <rect width="10" height="10" fill="#050505"/>
        <path d="M0,0 L5,5 L10,0 L5,-5 Z M5,5 L10,10 L15,5 L10,0 Z M-5,5 L0,10 L5,5 L0,0 Z M0,10 L5,15 L10,10 L5,5 Z" fill="#0d0d0d"/>
    </pattern>
    <filter id="textGlow">
      <feGaussianBlur stdDeviation="2" result="blur" />
      <feMerge>
        <feMergeNode in="blur"/>
        <feMergeNode in="SourceGraphic"/>
      </feMerge>
    </filter>
    <linearGradient id="neonBar" x1="0%" y1="0%" x2="100%" y2="0%">
        <stop offset="0%" stop-color="#111111"/>
        <stop offset="100%" stop-color="#39FF14"/>
    </linearGradient>
    <linearGradient id="scanlineGrad" x1="0%" y1="0%" x2="100%" y2="0%">
        <stop offset="0%" stop-color="#39FF14" stop-opacity="0"/>
        <stop offset="50%" stop-color="#39FF14" stop-opacity="0.18"/>
        <stop offset="100%" stop-color="#39FF14" stop-opacity="0"/>
    </linearGradient>
    <clipPath id="dashClip">
        <rect x="0" y="0" width="850" height="200" rx="12"/>
    </clipPath>
  </defs>

  <rect width="100%" height="100%" fill="url(#carbonFiber)" rx="12" stroke="#39FF14" stroke-width="1" stroke-opacity="0.3"/>
  <rect width="100%" height="100%" fill="#000000" opacity="0.6" rx="12" />
  <g><polygon points="776,42 784.6,47 784.6,57 776,62 767.4,57 767.4,47" fill="none" stroke="#39FF14" stroke-width="1" opacity="0.07552271995361408"/>
<polygon points="621,24 629.6,29 629.6,39 621,44 612.4,39 612.4,29" fill="none" stroke="#39FF14" stroke-width="1" opacity="0.0613962753298842"/>
<polygon points="328,85 336.6,90 336.6,100 328,105 319.4,100 319.4,90" fill="none" stroke="#39FF14" stroke-width="1" opacity="0.04031447378299226"/>
<polygon points="97,186 105.6,191 105.6,201 97,206 88.4,201 88.4,191" fill="none" stroke="#39FF14" stroke-width="1" opacity="0.03886470597279236"/>
<polygon points="743,140 751.6,145 751.6,155 743,160 734.4,155 734.4,145" fill="none" stroke="#39FF14" stroke-width="1" opacity="0.06832142465164168"/>
<polygon points="186,115 194.6,120 194.6,130 186,135 177.4,130 177.4,120" fill="none" stroke="#39FF14" stroke-width="1" opacity="0.07341438742042905"/>
<polygon points="303,12 311.6,17 311.6,27 303,32 294.4,27 294.4,17" fill="none" stroke="#39FF14" stroke-width="1" opacity="0.033162375529114906"/>
<polygon points="342,168 350.6,173 350.6,183 342,188 333.4,183 333.4,173" fill="none" stroke="#39FF14" stroke-width="1" opacity="0.04488462257628592"/>
<polygon points="461,23 469.6,28 469.6,38 461,43 452.4,38 452.4,28" fill="none" stroke="#39FF14" stroke-width="1" opacity="0.0580621171720159"/>
<polygon points="431,79 439.6,84 439.6,94 431,99 422.4,94 422.4,84" fill="none" stroke="#39FF14" stroke-width="1" opacity="0.06507959803998306"/>
<polygon points="821,169 829.6,174 829.6,184 821,189 812.4,184 812.4,174" fill="none" stroke="#39FF14" stroke-width="1" opacity="0.02811515271609326"/>
<polygon points="518,108 526.6,113 526.6,123 518,128 509.4,123 509.4,113" fill="none" stroke="#39FF14" stroke-width="1" opacity="0.022669074621611524"/>
<polygon points="386,149 394.6,154 394.6,164 386,169 377.4,164 377.4,154" fill="none" stroke="#39FF14" stroke-width="1" opacity="0.04051344494475628"/>
<polygon points="320,87 328.6,92 328.6,102 320,107 311.4,102 311.4,92" fill="none" stroke="#39FF14" stroke-width="1" opacity="0.028472591888458902"/>
<polygon points="802,44 810.6,49 810.6,59 802,64 793.4,59 793.4,49" fill="none" stroke="#39FF14" stroke-width="1" opacity="0.06166794793454641"/>
<polygon points="31,18 39.6,23 39.6,33 31,38 22.4,33 22.4,23" fill="none" stroke="#39FF14" stroke-width="1" opacity="0.06572836581827415"/>
<polygon points="776,34 784.6,39 784.6,49 776,54 767.4,49 767.4,39" fill="none" stroke="#39FF14" stroke-width="1" opacity="0.06107578651015266"/>
<polygon points="231,183 239.6,188 239.6,198 231,203 222.4,198 222.4,188" fill="none" stroke="#39FF14" stroke-width="1" opacity="0.042491858431000715"/>
<polygon points="145,55 153.6,60 153.6,70 145,75 136.4,70 136.4,60" fill="none" stroke="#39FF14" stroke-width="1" opacity="0.035122794832773196"/>
<polygon points="116,124 124.6,129 124.6,139 116,144 107.4,139 107.4,129" fill="none" stroke="#39FF14" stroke-width="1" opacity="0.038339283575192895"/>
<polygon points="248,34 256.6,39 256.6,49 248,54 239.4,49 239.4,39" fill="none" stroke="#39FF14" stroke-width="1" opacity="0.07397818359845351"/>
<polygon points="252,18 260.6,23 260.6,33 252,38 243.4,33 243.4,23" fill="none" stroke="#39FF14" stroke-width="1" opacity="0.04402563572942926"/>
<polygon points="764,143 772.6,148 772.6,158 764,163 755.4,158 755.4,148" fill="none" stroke="#39FF14" stroke-width="1" opacity="0.044399742202373055"/>
<polygon points="106,27 114.6,32 114.6,42 106,47 97.4,42 97.4,32" fill="none" stroke="#39FF14" stroke-width="1" opacity="0.05755460105843252"/>
<polygon points="312,97 320.6,102 320.6,112 312,117 303.4,112 303.4,102" fill="none" stroke="#39FF14" stroke-width="1" opacity="0.07615599625732594"/>
<polygon points="613,171 621.6,176 621.6,186 613,191 604.4,186 604.4,176" fill="none" stroke="#39FF14" stroke-width="1" opacity="0.07179916791993518"/>
<polygon points="379,50 387.6,55 387.6,65 379,70 370.4,65 370.4,55" fill="none" stroke="#39FF14" stroke-width="1" opacity="0.04815352581777192"/>
<polygon points="586,86 594.6,91 594.6,101 586,106 577.4,101 577.4,91" fill="none" stroke="#39FF14" stroke-width="1" opacity="0.07373496471861989"/>
<polygon points="534,61 542.6,66 542.6,76 534,81 525.4,76 525.4,66" fill="none" stroke="#39FF14" stroke-width="1" opacity="0.05247765475173437"/>
<polygon points="825,100 833.6,105 833.6,115 825,120 816.4,115 816.4,105" fill="none" stroke="#39FF14" stroke-width="1" opacity="0.06991631551920278"/>
</g>

  <!-- HUD Decorative elements -->
  <path d="M 20 20 L 40 20 L 50 30" fill="none" stroke="#39FF14" stroke-width="2" opacity="0.5"/>
  <path d="M 830 180 L 810 180 L 800 170" fill="none" stroke="#39FF14" stroke-width="2" opacity="0.5"/>

  <g clip-path="url(#dashClip)">
    <rect x="-160" y="0" width="160" height="200" fill="url(#scanlineGrad)">
      <animateTransform attributeName="transform" type="translate"
                        from="0 0" to="1010 0" dur="6s" repeatCount="indefinite"/>
    </rect>
  </g>

  <g font-family="'Consolas', 'Fira Code', monospace" text-anchor="middle">

    <!-- NETWORK STATUS -->
    <g transform="translate(130, 100)">
        <circle cx="0" cy="0" r="45" fill="none" stroke="#39FF14" stroke-width="2" stroke-dasharray="10 5">
            <animateTransform attributeName="transform" type="rotate" from="0" to="360" dur="10s" repeatCount="indefinite"/>
        </circle>
        <circle cx="0" cy="0" r="35" fill="#0d0d0d" />
        <text x="0" y="-60" font-size="12" fill="#aaaaaa" letter-spacing="2">ROOT.AUTH</text>
        <text x="0" y="70" font-size="14" fill="#ffffff" font-weight="bold">OPERATIONAL</text>
    </g>

    <!-- ACTIVE USERS -->
    <g transform="translate(330, 100)">
        <text x="0" y="-20" font-size="12" fill="#aaaaaa">CITIZENS</text>
        <text x="0" y="15" font-size="28" fill="#ffffff" font-weight="bold" filter="url(#textGlow)">12,452</text>
        <text x="0" y="35" font-size="10" fill="#777777">VERIFIED HUMANS</text>
    </g>

    <!-- REGISTERED AGENTS -->
    <g transform="translate(530, 100)">
        <text x="0" y="-20" font-size="12" fill="#aaaaaa">AGENTS</text>
        <text x="0" y="15" font-size="28" fill="#00d4ff" font-weight="bold" filter="url(#textGlow)">3,507</text>
        <text x="0" y="35" font-size="10" fill="#777777">REGISTERED DIDs</text>
    </g>

    <!-- TRANSACTIONS -->
    <g transform="translate(730, 100)">
        <text x="0" y="-20" font-size="12" fill="#aaaaaa">TRANSFERS</text>
        <text x="0" y="15" font-size="28" fill="#ffffff" font-weight="bold">32,327</text>
        <text x="0" y="35" font-size="10" fill="#777777">M2M SETTLEMENTS</text>
    </g>
  </g>

  <text x="425" y="185" font-family="'Consolas', 'Fira Code', monospace" font-size="10" fill="#aaaaaa" opacity="0.6" text-anchor="middle">AXIOMID PROJECTED TARGETS (ILLUSTRATIVE): 2026-07-13 19:11:47 UTC // SECURE_HANDSHAKE</text>
</svg>