<svg width="850" height="200" viewBox="0 0 850 200" xmlns="http://www.w3.org/2000/svg">
  <defs>
    <pattern id="carbonFiber" width="10" height="10" patternUnits="userSpaceOnUse">
        <rect width="10" height="10" fill="#050505"/>
        <path d="M0,0 L5,5 L10,0 L5,-5 Z M5,5 L10,10 L15,5 L10,0 Z M-5,5 L0,10 L5,5 L0,0 Z M0,10 L5,15 L10,10 L5,5 Z" fill="#0d0d0d"/>
    </pattern>
    <filter id="textGlow">
      <feGaussianBlur stdDeviation="2" result="blur" />
      <feMerge>
        <feMergeNode in="blur"/>
        <feMergeNode in="SourceGraphic"/>
      </feMerge>
    </filter>
    <linearGradient id="neonBar" x1="0%" y1="0%" x2="100%" y2="0%">
        <stop offset="0%" stop-color="#111111"/>
        <stop offset="100%" stop-color="#39FF14"/>
    </linearGradient>
    <linearGradient id="scanlineGrad" x1="0%" y1="0%" x2="100%" y2="0%">
        <stop offset="0%" stop-color="#39FF14" stop-opacity="0"/>
        <stop offset="50%" stop-color="#39FF14" stop-opacity="0.18"/>
        <stop offset="100%" stop-color="#39FF14" stop-opacity="0"/>
    </linearGradient>
    <clipPath id="dashClip">
        <rect x="0" y="0" width="850" height="200" rx="12"/>
    </clipPath>
  </defs>

  <rect width="100%" height="100%" fill="url(#carbonFiber)" rx="12" stroke="#39FF14" stroke-width="1" stroke-opacity="0.3"/>
  <rect width="100%" height="100%" fill="#000000" opacity="0.6" rx="12" />
  <g><polygon points="64,137 72.6,142 72.6,152 64,157 55.4,152 55.4,142" fill="none" stroke="#39FF14" stroke-width="1" opacity="0.03178718280343794"/>
<polygon points="492,31 500.6,36 500.6,46 492,51 483.4,46 483.4,36" fill="none" stroke="#39FF14" stroke-width="1" opacity="0.058239195855216794"/>
<polygon points="501,70 509.6,75 509.6,85 501,90 492.4,85 492.4,75" fill="none" stroke="#39FF14" stroke-width="1" opacity="0.03735606476830214"/>
<polygon points="787,138 795.6,143 795.6,153 787,158 778.4,153 778.4,143" fill="none" stroke="#39FF14" stroke-width="1" opacity="0.067097840062665"/>
<polygon points="210,65 218.6,70 218.6,80 210,85 201.4,80 201.4,70" fill="none" stroke="#39FF14" stroke-width="1" opacity="0.03869637358999048"/>
<polygon points="689,152 697.6,157 697.6,167 689,172 680.4,167 680.4,157" fill="none" stroke="#39FF14" stroke-width="1" opacity="0.05694710879695912"/>
<polygon points="543,106 551.6,111 551.6,121 543,126 534.4,121 534.4,111" fill="none" stroke="#39FF14" stroke-width="1" opacity="0.042460092394317195"/>
<polygon points="595,66 603.6,71 603.6,81 595,86 586.4,81 586.4,71" fill="none" stroke="#39FF14" stroke-width="1" opacity="0.038959221117108055"/>
<polygon points="674,127 682.6,132 682.6,142 674,147 665.4,142 665.4,132" fill="none" stroke="#39FF14" stroke-width="1" opacity="0.07402624808195198"/>
<polygon points="292,139 300.6,144 300.6,154 292,159 283.4,154 283.4,144" fill="none" stroke="#39FF14" stroke-width="1" opacity="0.039611415181538594"/>
<polygon points="488,63 496.6,68 496.6,78 488,83 479.4,78 479.4,68" fill="none" stroke="#39FF14" stroke-width="1" opacity="0.021308578209607236"/>
<polygon points="23,91 31.6,96 31.6,106 23,111 14.4,106 14.4,96" fill="none" stroke="#39FF14" stroke-width="1" opacity="0.022350793138279142"/>
<polygon points="620,103 628.6,108 628.6,118 620,123 611.4,118 611.4,108" fill="none" stroke="#39FF14" stroke-width="1" opacity="0.027792521425373355"/>
<polygon points="78,137 86.6,142 86.6,152 78,157 69.4,152 69.4,142" fill="none" stroke="#39FF14" stroke-width="1" opacity="0.053564414805060606"/>
<polygon points="728,50 736.6,55 736.6,65 728,70 719.4,65 719.4,55" fill="none" stroke="#39FF14" stroke-width="1" opacity="0.0664403566160789"/>
<polygon points="648,104 656.6,109 656.6,119 648,124 639.4,119 639.4,109" fill="none" stroke="#39FF14" stroke-width="1" opacity="0.07586449747889938"/>
<polygon points="459,72 467.6,77 467.6,87 459,92 450.4,87 450.4,77" fill="none" stroke="#39FF14" stroke-width="1" opacity="0.04308869789800816"/>
<polygon points="583,47 591.6,52 591.6,62 583,67 574.4,62 574.4,52" fill="none" stroke="#39FF14" stroke-width="1" opacity="0.028925739059721962"/>
<polygon points="789,66 797.6,71 797.6,81 789,86 780.4,81 780.4,71" fill="none" stroke="#39FF14" stroke-width="1" opacity="0.040875517377348985"/>
<polygon points="120,123 128.6,128 128.6,138 120,143 111.4,138 111.4,128" fill="none" stroke="#39FF14" stroke-width="1" opacity="0.03371023124617688"/>
<polygon points="319,147 327.6,152 327.6,162 319,167 310.4,162 310.4,152" fill="none" stroke="#39FF14" stroke-width="1" opacity="0.05478354274471639"/>
<polygon points="331,169 339.6,174 339.6,184 331,189 322.4,184 322.4,174" fill="none" stroke="#39FF14" stroke-width="1" opacity="0.06596147639721393"/>
<polygon points="666,56 674.6,61 674.6,71 666,76 657.4,71 657.4,61" fill="none" stroke="#39FF14" stroke-width="1" opacity="0.030121930372804542"/>
<polygon points="813,176 821.6,181 821.6,191 813,196 804.4,191 804.4,181" fill="none" stroke="#39FF14" stroke-width="1" opacity="0.07822181382831797"/>
<polygon points="447,65 455.6,70 455.6,80 447,85 438.4,80 438.4,70" fill="none" stroke="#39FF14" stroke-width="1" opacity="0.051366316351452834"/>
<polygon points="252,83 260.6,88 260.6,98 252,103 243.4,98 243.4,88" fill="none" stroke="#39FF14" stroke-width="1" opacity="0.062292986272886514"/>
<polygon points="505,138 513.6,143 513.6,153 505,158 496.4,153 496.4,143" fill="none" stroke="#39FF14" stroke-width="1" opacity="0.05434780568543553"/>
<polygon points="683,170 691.6,175 691.6,185 683,190 674.4,185 674.4,175" fill="none" stroke="#39FF14" stroke-width="1" opacity="0.06894124640640942"/>
<polygon points="25,88 33.6,93 33.6,103 25,108 16.4,103 16.4,93" fill="none" stroke="#39FF14" stroke-width="1" opacity="0.060484932076840386"/>
<polygon points="482,181 490.6,186 490.6,196 482,201 473.4,196 473.4,186" fill="none" stroke="#39FF14" stroke-width="1" opacity="0.057507661407195654"/>
</g>

  <!-- HUD Decorative elements -->
  <path d="M 20 20 L 40 20 L 50 30" fill="none" stroke="#39FF14" stroke-width="2" opacity="0.5"/>
  <path d="M 830 180 L 810 180 L 800 170" fill="none" stroke="#39FF14" stroke-width="2" opacity="0.5"/>

  <g clip-path="url(#dashClip)">
    <rect x="-160" y="0" width="160" height="200" fill="url(#scanlineGrad)">
      <animateTransform attributeName="transform" type="translate"
                        from="0 0" to="1010 0" dur="6s" repeatCount="indefinite"/>
    </rect>
  </g>

  <g font-family="'Consolas', 'Fira Code', monospace" text-anchor="middle">

    <!-- NETWORK STATUS -->
    <g transform="translate(130, 100)">
        <circle cx="0" cy="0" r="45" fill="none" stroke="#39FF14" stroke-width="2" stroke-dasharray="10 5">
            <animateTransform attributeName="transform" type="rotate" from="0" to="360" dur="10s" repeatCount="indefinite"/>
        </circle>
        <circle cx="0" cy="0" r="35" fill="#0d0d0d" />
        <text x="0" y="-60" font-size="12" fill="#aaaaaa" letter-spacing="2">ROOT.AUTH</text>
        <text x="0" y="70" font-size="14" fill="#ffffff" font-weight="bold">OPERATIONAL</text>
    </g>

    <!-- ACTIVE USERS -->
    <g transform="translate(330, 100)">
        <text x="0" y="-20" font-size="12" fill="#aaaaaa">CITIZENS</text>
        <text x="0" y="15" font-size="28" fill="#ffffff" font-weight="bold" filter="url(#textGlow)">14,291</text>
        <text x="0" y="35" font-size="10" fill="#777777">VERIFIED HUMANS</text>
    </g>

    <!-- REGISTERED AGENTS -->
    <g transform="translate(530, 100)">
        <text x="0" y="-20" font-size="12" fill="#aaaaaa">AGENTS</text>
        <text x="0" y="15" font-size="28" fill="#00d4ff" font-weight="bold" filter="url(#textGlow)">3,112</text>
        <text x="0" y="35" font-size="10" fill="#777777">REGISTERED DIDs</text>
    </g>

    <!-- TRANSACTIONS -->
    <g transform="translate(730, 100)">
        <text x="0" y="-20" font-size="12" fill="#aaaaaa">TRANSFERS</text>
        <text x="0" y="15" font-size="28" fill="#ffffff" font-weight="bold">40,495</text>
        <text x="0" y="35" font-size="10" fill="#777777">M2M SETTLEMENTS</text>
    </g>
  </g>

  <text x="425" y="185" font-family="'Consolas', 'Fira Code', monospace" font-size="10" fill="#aaaaaa" opacity="0.6" text-anchor="middle">AXIOMID PROJECTED TARGETS (ILLUSTRATIVE): 2026-06-30 12:36:33 UTC // SECURE_HANDSHAKE</text>
</svg>