<svg width="850" height="200" viewBox="0 0 850 200" xmlns="http://www.w3.org/2000/svg">
  <defs>
    <pattern id="carbonFiber" width="10" height="10" patternUnits="userSpaceOnUse">
        <rect width="10" height="10" fill="#050505"/>
        <path d="M0,0 L5,5 L10,0 L5,-5 Z M5,5 L10,10 L15,5 L10,0 Z M-5,5 L0,10 L5,5 L0,0 Z M0,10 L5,15 L10,10 L5,5 Z" fill="#0d0d0d"/>
    </pattern>
    <filter id="textGlow">
      <feGaussianBlur stdDeviation="2" result="blur" />
      <feMerge>
        <feMergeNode in="blur"/>
        <feMergeNode in="SourceGraphic"/>
      </feMerge>
    </filter>
    <linearGradient id="neonBar" x1="0%" y1="0%" x2="100%" y2="0%">
        <stop offset="0%" stop-color="#111111"/>
        <stop offset="100%" stop-color="#39FF14"/>
    </linearGradient>
    <linearGradient id="scanlineGrad" x1="0%" y1="0%" x2="100%" y2="0%">
        <stop offset="0%" stop-color="#39FF14" stop-opacity="0"/>
        <stop offset="50%" stop-color="#39FF14" stop-opacity="0.18"/>
        <stop offset="100%" stop-color="#39FF14" stop-opacity="0"/>
    </linearGradient>
    <clipPath id="dashClip">
        <rect x="0" y="0" width="850" height="200" rx="12"/>
    </clipPath>
  </defs>

  <rect width="100%" height="100%" fill="url(#carbonFiber)" rx="12" stroke="#39FF14" stroke-width="1" stroke-opacity="0.3"/>
  <rect width="100%" height="100%" fill="#000000" opacity="0.6" rx="12" />
  <g><polygon points="24,147 32.6,152 32.6,162 24,167 15.4,162 15.4,152" fill="none" stroke="#39FF14" stroke-width="1" opacity="0.053950434980715514"/>
<polygon points="766,76 774.6,81 774.6,91 766,96 757.4,91 757.4,81" fill="none" stroke="#39FF14" stroke-width="1" opacity="0.024106471269209416"/>
<polygon points="119,61 127.6,66 127.6,76 119,81 110.4,76 110.4,66" fill="none" stroke="#39FF14" stroke-width="1" opacity="0.03769344806493351"/>
<polygon points="34,63 42.6,68 42.6,78 34,83 25.4,78 25.4,68" fill="none" stroke="#39FF14" stroke-width="1" opacity="0.07985895539391108"/>
<polygon points="418,62 426.6,67 426.6,77 418,82 409.4,77 409.4,67" fill="none" stroke="#39FF14" stroke-width="1" opacity="0.06239953349911509"/>
<polygon points="741,190 749.6,195 749.6,205 741,210 732.4,205 732.4,195" fill="none" stroke="#39FF14" stroke-width="1" opacity="0.02577427031814397"/>
<polygon points="60,-8 68.6,-3 68.6,7 60,12 51.4,7 51.4,-3" fill="none" stroke="#39FF14" stroke-width="1" opacity="0.022269009328202288"/>
<polygon points="222,13 230.6,18 230.6,28 222,33 213.4,28 213.4,18" fill="none" stroke="#39FF14" stroke-width="1" opacity="0.05526019013306188"/>
<polygon points="195,-9 203.6,-4 203.6,6 195,11 186.4,6 186.4,-4" fill="none" stroke="#39FF14" stroke-width="1" opacity="0.021752772145435584"/>
<polygon points="313,13 321.6,18 321.6,28 313,33 304.4,28 304.4,18" fill="none" stroke="#39FF14" stroke-width="1" opacity="0.0525414341982163"/>
<polygon points="169,7 177.6,12 177.6,22 169,27 160.4,22 160.4,12" fill="none" stroke="#39FF14" stroke-width="1" opacity="0.07365212029498114"/>
<polygon points="219,26 227.6,31 227.6,41 219,46 210.4,41 210.4,31" fill="none" stroke="#39FF14" stroke-width="1" opacity="0.04058808687970247"/>
<polygon points="602,115 610.6,120 610.6,130 602,135 593.4,130 593.4,120" fill="none" stroke="#39FF14" stroke-width="1" opacity="0.06163736261592109"/>
<polygon points="144,188 152.6,193 152.6,203 144,208 135.4,203 135.4,193" fill="none" stroke="#39FF14" stroke-width="1" opacity="0.07421825162924314"/>
<polygon points="380,-7 388.6,-2 388.6,8 380,13 371.4,8 371.4,-2" fill="none" stroke="#39FF14" stroke-width="1" opacity="0.021604585312016124"/>
<polygon points="763,57 771.6,62 771.6,72 763,77 754.4,72 754.4,62" fill="none" stroke="#39FF14" stroke-width="1" opacity="0.06123145937567315"/>
<polygon points="77,80 85.6,85 85.6,95 77,100 68.4,95 68.4,85" fill="none" stroke="#39FF14" stroke-width="1" opacity="0.07648784703149372"/>
<polygon points="120,-8 128.6,-3 128.6,7 120,12 111.4,7 111.4,-3" fill="none" stroke="#39FF14" stroke-width="1" opacity="0.04158466662329683"/>
<polygon points="163,64 171.6,69 171.6,79 163,84 154.4,79 154.4,69" fill="none" stroke="#39FF14" stroke-width="1" opacity="0.023760338284661828"/>
<polygon points="409,145 417.6,150 417.6,160 409,165 400.4,160 400.4,150" fill="none" stroke="#39FF14" stroke-width="1" opacity="0.06303663432405758"/>
<polygon points="500,79 508.6,84 508.6,94 500,99 491.4,94 491.4,84" fill="none" stroke="#39FF14" stroke-width="1" opacity="0.07881147097127744"/>
<polygon points="320,165 328.6,170 328.6,180 320,185 311.4,180 311.4,170" fill="none" stroke="#39FF14" stroke-width="1" opacity="0.05109164435849062"/>
<polygon points="370,13 378.6,18 378.6,28 370,33 361.4,28 361.4,18" fill="none" stroke="#39FF14" stroke-width="1" opacity="0.05557881886585242"/>
<polygon points="781,125 789.6,130 789.6,140 781,145 772.4,140 772.4,130" fill="none" stroke="#39FF14" stroke-width="1" opacity="0.027473260386890394"/>
<polygon points="433,-10 441.6,-5 441.6,5 433,10 424.4,5 424.4,-5" fill="none" stroke="#39FF14" stroke-width="1" opacity="0.022350667533059802"/>
<polygon points="376,107 384.6,112 384.6,122 376,127 367.4,122 367.4,112" fill="none" stroke="#39FF14" stroke-width="1" opacity="0.07792552258525669"/>
<polygon points="392,12 400.6,17 400.6,27 392,32 383.4,27 383.4,17" fill="none" stroke="#39FF14" stroke-width="1" opacity="0.06584062074458358"/>
<polygon points="565,18 573.6,23 573.6,33 565,38 556.4,33 556.4,23" fill="none" stroke="#39FF14" stroke-width="1" opacity="0.028802073682739047"/>
<polygon points="399,35 407.6,40 407.6,50 399,55 390.4,50 390.4,40" fill="none" stroke="#39FF14" stroke-width="1" opacity="0.022825542438841207"/>
<polygon points="849,23 857.6,28 857.6,38 849,43 840.4,38 840.4,28" fill="none" stroke="#39FF14" stroke-width="1" opacity="0.02336003098285833"/>
</g>

  <!-- HUD Decorative elements -->
  <path d="M 20 20 L 40 20 L 50 30" fill="none" stroke="#39FF14" stroke-width="2" opacity="0.5"/>
  <path d="M 830 180 L 810 180 L 800 170" fill="none" stroke="#39FF14" stroke-width="2" opacity="0.5"/>

  <g clip-path="url(#dashClip)">
    <rect x="-160" y="0" width="160" height="200" fill="url(#scanlineGrad)">
      <animateTransform attributeName="transform" type="translate"
                        from="0 0" to="1010 0" dur="6s" repeatCount="indefinite"/>
    </rect>
  </g>

  <g font-family="'Consolas', 'Fira Code', monospace" text-anchor="middle">

    <!-- NETWORK STATUS -->
    <g transform="translate(130, 100)">
        <circle cx="0" cy="0" r="45" fill="none" stroke="#39FF14" stroke-width="2" stroke-dasharray="10 5">
            <animateTransform attributeName="transform" type="rotate" from="0" to="360" dur="10s" repeatCount="indefinite"/>
        </circle>
        <circle cx="0" cy="0" r="35" fill="#0d0d0d" />
        <text x="0" y="-60" font-size="12" fill="#aaaaaa" letter-spacing="2">ROOT.AUTH</text>
        <text x="0" y="70" font-size="14" fill="#ffffff" font-weight="bold">OPERATIONAL</text>
    </g>

    <!-- ACTIVE USERS -->
    <g transform="translate(330, 100)">
        <text x="0" y="-20" font-size="12" fill="#aaaaaa">CITIZENS</text>
        <text x="0" y="15" font-size="28" fill="#ffffff" font-weight="bold" filter="url(#textGlow)">14,387</text>
        <text x="0" y="35" font-size="10" fill="#777777">VERIFIED HUMANS</text>
    </g>

    <!-- REGISTERED AGENTS -->
    <g transform="translate(530, 100)">
        <text x="0" y="-20" font-size="12" fill="#aaaaaa">AGENTS</text>
        <text x="0" y="15" font-size="28" fill="#00d4ff" font-weight="bold" filter="url(#textGlow)">3,788</text>
        <text x="0" y="35" font-size="10" fill="#777777">REGISTERED DIDs</text>
    </g>

    <!-- TRANSACTIONS -->
    <g transform="translate(730, 100)">
        <text x="0" y="-20" font-size="12" fill="#aaaaaa">TRANSFERS</text>
        <text x="0" y="15" font-size="28" fill="#ffffff" font-weight="bold">28,894</text>
        <text x="0" y="35" font-size="10" fill="#777777">M2M SETTLEMENTS</text>
    </g>
  </g>

  <text x="425" y="185" font-family="'Consolas', 'Fira Code', monospace" font-size="10" fill="#aaaaaa" opacity="0.6" text-anchor="middle">AXIOMID PROJECTED TARGETS (ILLUSTRATIVE): 2026-07-15 16:12:46 UTC // SECURE_HANDSHAKE</text>
</svg>