<svg width="850" height="200" viewBox="0 0 850 200" xmlns="http://www.w3.org/2000/svg">
  <defs>
    <pattern id="carbonFiber" width="10" height="10" patternUnits="userSpaceOnUse">
        <rect width="10" height="10" fill="#050505"/>
        <path d="M0,0 L5,5 L10,0 L5,-5 Z M5,5 L10,10 L15,5 L10,0 Z M-5,5 L0,10 L5,5 L0,0 Z M0,10 L5,15 L10,10 L5,5 Z" fill="#0d0d0d"/>
    </pattern>
    <filter id="textGlow">
      <feGaussianBlur stdDeviation="2" result="blur" />
      <feMerge>
        <feMergeNode in="blur"/>
        <feMergeNode in="SourceGraphic"/>
      </feMerge>
    </filter>
    <linearGradient id="neonBar" x1="0%" y1="0%" x2="100%" y2="0%">
        <stop offset="0%" stop-color="#111111"/>
        <stop offset="100%" stop-color="#39FF14"/>
    </linearGradient>
    <linearGradient id="scanlineGrad" x1="0%" y1="0%" x2="100%" y2="0%">
        <stop offset="0%" stop-color="#39FF14" stop-opacity="0"/>
        <stop offset="50%" stop-color="#39FF14" stop-opacity="0.18"/>
        <stop offset="100%" stop-color="#39FF14" stop-opacity="0"/>
    </linearGradient>
    <clipPath id="dashClip">
        <rect x="0" y="0" width="850" height="200" rx="12"/>
    </clipPath>
  </defs>

  <rect width="100%" height="100%" fill="url(#carbonFiber)" rx="12" stroke="#39FF14" stroke-width="1" stroke-opacity="0.3"/>
  <rect width="100%" height="100%" fill="#000000" opacity="0.6" rx="12" />
  <g><polygon points="834,132 842.6,137 842.6,147 834,152 825.4,147 825.4,137" fill="none" stroke="#39FF14" stroke-width="1" opacity="0.02949563939144495"/>
<polygon points="682,38 690.6,43 690.6,53 682,58 673.4,53 673.4,43" fill="none" stroke="#39FF14" stroke-width="1" opacity="0.07099782976863132"/>
<polygon points="49,90 57.6,95 57.6,105 49,110 40.4,105 40.4,95" fill="none" stroke="#39FF14" stroke-width="1" opacity="0.04245620706251255"/>
<polygon points="320,167 328.6,172 328.6,182 320,187 311.4,182 311.4,172" fill="none" stroke="#39FF14" stroke-width="1" opacity="0.06975334386725134"/>
<polygon points="163,97 171.6,102 171.6,112 163,117 154.4,112 154.4,102" fill="none" stroke="#39FF14" stroke-width="1" opacity="0.06746014071882324"/>
<polygon points="464,147 472.6,152 472.6,162 464,167 455.4,162 455.4,152" fill="none" stroke="#39FF14" stroke-width="1" opacity="0.07920088219991052"/>
<polygon points="400,103 408.6,108 408.6,118 400,123 391.4,118 391.4,108" fill="none" stroke="#39FF14" stroke-width="1" opacity="0.07404229209818868"/>
<polygon points="555,63 563.6,68 563.6,78 555,83 546.4,78 546.4,68" fill="none" stroke="#39FF14" stroke-width="1" opacity="0.04211193170659186"/>
<polygon points="55,-4 63.6,1 63.6,11 55,16 46.4,11 46.4,1" fill="none" stroke="#39FF14" stroke-width="1" opacity="0.028180151020411007"/>
<polygon points="528,9 536.6,14 536.6,24 528,29 519.4,24 519.4,14" fill="none" stroke="#39FF14" stroke-width="1" opacity="0.0486013411219074"/>
<polygon points="298,142 306.6,147 306.6,157 298,162 289.4,157 289.4,147" fill="none" stroke="#39FF14" stroke-width="1" opacity="0.024770687661691045"/>
<polygon points="280,169 288.6,174 288.6,184 280,189 271.4,184 271.4,174" fill="none" stroke="#39FF14" stroke-width="1" opacity="0.047497570502709814"/>
<polygon points="749,49 757.6,54 757.6,64 749,69 740.4,64 740.4,54" fill="none" stroke="#39FF14" stroke-width="1" opacity="0.05482084002727999"/>
<polygon points="357,124 365.6,129 365.6,139 357,144 348.4,139 348.4,129" fill="none" stroke="#39FF14" stroke-width="1" opacity="0.0637135773246282"/>
<polygon points="545,26 553.6,31 553.6,41 545,46 536.4,41 536.4,31" fill="none" stroke="#39FF14" stroke-width="1" opacity="0.025251635405694594"/>
<polygon points="240,112 248.6,117 248.6,127 240,132 231.4,127 231.4,117" fill="none" stroke="#39FF14" stroke-width="1" opacity="0.06969376936268237"/>
<polygon points="166,186 174.6,191 174.6,201 166,206 157.4,201 157.4,191" fill="none" stroke="#39FF14" stroke-width="1" opacity="0.07928756132828042"/>
<polygon points="118,156 126.6,161 126.6,171 118,176 109.4,171 109.4,161" fill="none" stroke="#39FF14" stroke-width="1" opacity="0.07988965267689606"/>
<polygon points="168,20 176.6,25 176.6,35 168,40 159.4,35 159.4,25" fill="none" stroke="#39FF14" stroke-width="1" opacity="0.06619599111710406"/>
<polygon points="410,63 418.6,68 418.6,78 410,83 401.4,78 401.4,68" fill="none" stroke="#39FF14" stroke-width="1" opacity="0.07468161170415245"/>
<polygon points="112,152 120.6,157 120.6,167 112,172 103.4,167 103.4,157" fill="none" stroke="#39FF14" stroke-width="1" opacity="0.029176796825468577"/>
<polygon points="121,13 129.6,18 129.6,28 121,33 112.4,28 112.4,18" fill="none" stroke="#39FF14" stroke-width="1" opacity="0.041889351581142646"/>
<polygon points="755,3 763.6,8 763.6,18 755,23 746.4,18 746.4,8" fill="none" stroke="#39FF14" stroke-width="1" opacity="0.044943445962322956"/>
<polygon points="729,84 737.6,89 737.6,99 729,104 720.4,99 720.4,89" fill="none" stroke="#39FF14" stroke-width="1" opacity="0.02373996792157649"/>
<polygon points="250,160 258.6,165 258.6,175 250,180 241.4,175 241.4,165" fill="none" stroke="#39FF14" stroke-width="1" opacity="0.04158515471333154"/>
<polygon points="39,38 47.6,43 47.6,53 39,58 30.4,53 30.4,43" fill="none" stroke="#39FF14" stroke-width="1" opacity="0.06645292773373325"/>
<polygon points="291,102 299.6,107 299.6,117 291,122 282.4,117 282.4,107" fill="none" stroke="#39FF14" stroke-width="1" opacity="0.02249950191242031"/>
<polygon points="764,27 772.6,32 772.6,42 764,47 755.4,42 755.4,32" fill="none" stroke="#39FF14" stroke-width="1" opacity="0.0245701408287292"/>
<polygon points="623,74 631.6,79 631.6,89 623,94 614.4,89 614.4,79" fill="none" stroke="#39FF14" stroke-width="1" opacity="0.0342671996863766"/>
<polygon points="761,37 769.6,42 769.6,52 761,57 752.4,52 752.4,42" fill="none" stroke="#39FF14" stroke-width="1" opacity="0.07408105709164911"/>
</g>

  <!-- HUD Decorative elements -->
  <path d="M 20 20 L 40 20 L 50 30" fill="none" stroke="#39FF14" stroke-width="2" opacity="0.5"/>
  <path d="M 830 180 L 810 180 L 800 170" fill="none" stroke="#39FF14" stroke-width="2" opacity="0.5"/>

  <g clip-path="url(#dashClip)">
    <rect x="-160" y="0" width="160" height="200" fill="url(#scanlineGrad)">
      <animateTransform attributeName="transform" type="translate"
                        from="0 0" to="1010 0" dur="6s" repeatCount="indefinite"/>
    </rect>
  </g>

  <g font-family="'Consolas', 'Fira Code', monospace" text-anchor="middle">

    <!-- NETWORK STATUS -->
    <g transform="translate(130, 100)">
        <circle cx="0" cy="0" r="45" fill="none" stroke="#39FF14" stroke-width="2" stroke-dasharray="10 5">
            <animateTransform attributeName="transform" type="rotate" from="0" to="360" dur="10s" repeatCount="indefinite"/>
        </circle>
        <circle cx="0" cy="0" r="35" fill="#0d0d0d" />
        <text x="0" y="-60" font-size="12" fill="#aaaaaa" letter-spacing="2">ROOT.AUTH</text>
        <text x="0" y="70" font-size="14" fill="#ffffff" font-weight="bold">OPERATIONAL</text>
    </g>

    <!-- ACTIVE USERS -->
    <g transform="translate(330, 100)">
        <text x="0" y="-20" font-size="12" fill="#aaaaaa">CITIZENS</text>
        <text x="0" y="15" font-size="28" fill="#ffffff" font-weight="bold" filter="url(#textGlow)">13,166</text>
        <text x="0" y="35" font-size="10" fill="#777777">VERIFIED HUMANS</text>
    </g>

    <!-- REGISTERED AGENTS -->
    <g transform="translate(530, 100)">
        <text x="0" y="-20" font-size="12" fill="#aaaaaa">AGENTS</text>
        <text x="0" y="15" font-size="28" fill="#00d4ff" font-weight="bold" filter="url(#textGlow)">4,709</text>
        <text x="0" y="35" font-size="10" fill="#777777">REGISTERED DIDs</text>
    </g>

    <!-- TRANSACTIONS -->
    <g transform="translate(730, 100)">
        <text x="0" y="-20" font-size="12" fill="#aaaaaa">TRANSFERS</text>
        <text x="0" y="15" font-size="28" fill="#ffffff" font-weight="bold">36,089</text>
        <text x="0" y="35" font-size="10" fill="#777777">M2M SETTLEMENTS</text>
    </g>
  </g>

  <text x="425" y="185" font-family="'Consolas', 'Fira Code', monospace" font-size="10" fill="#aaaaaa" opacity="0.6" text-anchor="middle">AXIOMID PROJECTED TARGETS (ILLUSTRATIVE): 2026-07-20 19:24:48 UTC // SECURE_HANDSHAKE</text>
</svg>