<svg width="850" height="200" viewBox="0 0 850 200" xmlns="http://www.w3.org/2000/svg">
  <defs>
    <!-- Carbon Fiber Pattern -->
    <pattern id="carbonFiber" width="10" height="10" patternUnits="userSpaceOnUse">
        <rect width="10" height="10" fill="#050505"/>
        <path d="M0,0 L5,5 L10,0 L5,-5 Z M5,5 L10,10 L15,5 L10,0 Z M-5,5 L0,10 L5,5 L0,0 Z M0,10 L5,15 L10,10 L5,5 Z" fill="#0d0d0d"/>
    </pattern>
    <filter id="glassmorphism">
      <feGaussianBlur stdDeviation="3" result="blur" />
      <feColorMatrix type="matrix" values="1 0 0 0 0  0 1 0 0 0  0 0 1 0 0  0 0 0 18 -7" result="glow" />
      <feBlend in="SourceGraphic" in2="glow" mode="normal" />
    </filter>
    <filter id="textGlow">
      <feGaussianBlur stdDeviation="2" result="blur" />
      <feMerge>
        <feMergeNode in="blur"/>
        <feMergeNode in="SourceGraphic"/>
      </feMerge>
    </filter>
    <linearGradient id="neonBar" x1="0%" y1="0%" x2="100%" y2="0%">
        <stop offset="0%" stop-color="#111111"/>
        <stop offset="100%" stop-color="#39FF14"/>
    </linearGradient>
  </defs>

  <rect width="100%" height="100%" fill="url(#carbonFiber)" rx="12" stroke="#39FF14" stroke-width="1" stroke-opacity="0.3"/>
  <rect width="100%" height="100%" fill="#000000" opacity="0.6" rx="12" />
  <g><polygon points="639,101 647.6,106 647.6,116 639,121 630.4,116 630.4,106" fill="none" stroke="#39FF14" stroke-width="1" opacity="0.03757564209043922"/>
<polygon points="546,122 554.6,127 554.6,137 546,142 537.4,137 537.4,127" fill="none" stroke="#39FF14" stroke-width="1" opacity="0.06866664225170291"/>
<polygon points="490,187 498.6,192 498.6,202 490,207 481.4,202 481.4,192" fill="none" stroke="#39FF14" stroke-width="1" opacity="0.06852017939951544"/>
<polygon points="757,154 765.6,159 765.6,169 757,174 748.4,169 748.4,159" fill="none" stroke="#39FF14" stroke-width="1" opacity="0.037158770544271344"/>
<polygon points="35,126 43.6,131 43.6,141 35,146 26.4,141 26.4,131" fill="none" stroke="#39FF14" stroke-width="1" opacity="0.043307395361117156"/>
<polygon points="44,28 52.6,33 52.6,43 44,48 35.4,43 35.4,33" fill="none" stroke="#39FF14" stroke-width="1" opacity="0.03437857356935154"/>
<polygon points="327,141 335.6,146 335.6,156 327,161 318.4,156 318.4,146" fill="none" stroke="#39FF14" stroke-width="1" opacity="0.05744694974207237"/>
<polygon points="788,13 796.6,18 796.6,28 788,33 779.4,28 779.4,18" fill="none" stroke="#39FF14" stroke-width="1" opacity="0.037018470303580034"/>
<polygon points="57,107 65.6,112 65.6,122 57,127 48.4,122 48.4,112" fill="none" stroke="#39FF14" stroke-width="1" opacity="0.04855911848693485"/>
<polygon points="130,138 138.6,143 138.6,153 130,158 121.4,153 121.4,143" fill="none" stroke="#39FF14" stroke-width="1" opacity="0.05081046586506444"/>
<polygon points="199,94 207.6,99 207.6,109 199,114 190.4,109 190.4,99" fill="none" stroke="#39FF14" stroke-width="1" opacity="0.03537225205977779"/>
<polygon points="32,114 40.6,119 40.6,129 32,134 23.4,129 23.4,119" fill="none" stroke="#39FF14" stroke-width="1" opacity="0.03586465875276483"/>
<polygon points="485,25 493.6,30 493.6,40 485,45 476.4,40 476.4,30" fill="none" stroke="#39FF14" stroke-width="1" opacity="0.07776317173385475"/>
<polygon points="725,101 733.6,106 733.6,116 725,121 716.4,116 716.4,106" fill="none" stroke="#39FF14" stroke-width="1" opacity="0.058166850584615126"/>
<polygon points="507,89 515.6,94 515.6,104 507,109 498.4,104 498.4,94" fill="none" stroke="#39FF14" stroke-width="1" opacity="0.07751612150737854"/>
<polygon points="48,43 56.6,48 56.6,58 48,63 39.4,58 39.4,48" fill="none" stroke="#39FF14" stroke-width="1" opacity="0.06814780876887734"/>
<polygon points="615,-3 623.6,2 623.6,12 615,17 606.4,12 606.4,2" fill="none" stroke="#39FF14" stroke-width="1" opacity="0.031349041276557604"/>
<polygon points="395,180 403.6,185 403.6,195 395,200 386.4,195 386.4,185" fill="none" stroke="#39FF14" stroke-width="1" opacity="0.06389059583311478"/>
<polygon points="340,1 348.6,6 348.6,16 340,21 331.4,16 331.4,6" fill="none" stroke="#39FF14" stroke-width="1" opacity="0.07152884961521665"/>
<polygon points="374,155 382.6,160 382.6,170 374,175 365.4,170 365.4,160" fill="none" stroke="#39FF14" stroke-width="1" opacity="0.07556641697448852"/>
<polygon points="776,81 784.6,86 784.6,96 776,101 767.4,96 767.4,86" fill="none" stroke="#39FF14" stroke-width="1" opacity="0.06583494366096392"/>
<polygon points="487,72 495.6,77 495.6,87 487,92 478.4,87 478.4,77" fill="none" stroke="#39FF14" stroke-width="1" opacity="0.05493159761368001"/>
<polygon points="548,1 556.6,6 556.6,16 548,21 539.4,16 539.4,6" fill="none" stroke="#39FF14" stroke-width="1" opacity="0.022038165211347403"/>
<polygon points="452,94 460.6,99 460.6,109 452,114 443.4,109 443.4,99" fill="none" stroke="#39FF14" stroke-width="1" opacity="0.02176412753607152"/>
<polygon points="344,14 352.6,19 352.6,29 344,34 335.4,29 335.4,19" fill="none" stroke="#39FF14" stroke-width="1" opacity="0.024459707196355093"/>
<polygon points="309,148 317.6,153 317.6,163 309,168 300.4,163 300.4,153" fill="none" stroke="#39FF14" stroke-width="1" opacity="0.040234585001608404"/>
<polygon points="73,72 81.6,77 81.6,87 73,92 64.4,87 64.4,77" fill="none" stroke="#39FF14" stroke-width="1" opacity="0.05280407175211976"/>
<polygon points="529,82 537.6,87 537.6,97 529,102 520.4,97 520.4,87" fill="none" stroke="#39FF14" stroke-width="1" opacity="0.0462198116065708"/>
<polygon points="275,141 283.6,146 283.6,156 275,161 266.4,156 266.4,146" fill="none" stroke="#39FF14" stroke-width="1" opacity="0.03554426136327282"/>
<polygon points="29,51 37.6,56 37.6,66 29,71 20.4,66 20.4,56" fill="none" stroke="#39FF14" stroke-width="1" opacity="0.02319206683004111"/>
</g>

  <!-- HUD Decorative elements -->
  <path d="M 20 20 L 40 20 L 50 30" fill="none" stroke="#39FF14" stroke-width="2" opacity="0.5"/>
  <path d="M 830 180 L 810 180 L 800 170" fill="none" stroke="#39FF14" stroke-width="2" opacity="0.5"/>
  <rect x="20" y="100" width="2" height="40" fill="#ffffff" opacity="0.4"/>
  <rect x="828" y="60" width="2" height="40" fill="#39FF14" opacity="0.6"/>

  <g font-family="'Consolas', 'Fira Code', monospace" text-anchor="middle">

    <!-- SYSTEM STATUS -->
    <g transform="translate(130, 100)">
        <circle cx="0" cy="0" r="45" fill="none" stroke="#111111" stroke-width="8" />
        <circle cx="0" cy="0" r="45" fill="none" stroke="#39FF14" stroke-width="2" stroke-dasharray="10 5">
            <animateTransform attributeName="transform" type="rotate" from="0" to="360" dur="10s" repeatCount="indefinite"/>
        </circle>
        <circle cx="0" cy="0" r="35" fill="#0d0d0d" />
        <circle cx="0" cy="0" r="6" fill="#39FF14" filter="url(#textGlow)">
            <animate attributeName="opacity" values="1;0.3;1" dur="2s" repeatCount="indefinite"/>
        </circle>
        <text x="0" y="-60" font-size="12" fill="#aaaaaa" letter-spacing="2">SYS.CORE</text>
        <text x="0" y="70" font-size="14" fill="#ffffff" font-weight="bold">ONLINE</text>
    </g>

    <!-- LIVE TRAFFIC -->
    <g transform="translate(330, 100)">
        <rect x="-60" y="-45" width="120" height="90" fill="#0a0a0a" rx="8" stroke="#39FF14" stroke-opacity="0.4" stroke-width="1"/>
        <text x="0" y="-20" font-size="12" fill="#aaaaaa">NETWORK LOAD</text>
        <text x="0" y="15" font-size="28" fill="#ffffff" font-weight="bold" filter="url(#textGlow)">5422</text>
        <text x="0" y="35" font-size="10" fill="#777777">ACTIVE SESSIONS</text>
    </g>

    <!-- ACTIVE AGENTS -->
    <g transform="translate(530, 100)">
        <rect x="-60" y="-45" width="120" height="90" fill="#0a0a0a" rx="8" stroke="#39FF14" stroke-opacity="0.4" stroke-width="1"/>
        <text x="0" y="-20" font-size="12" fill="#aaaaaa">SWARM ENTITIES</text>
        <text x="0" y="15" font-size="28" fill="#ffffff" font-weight="bold" filter="url(#textGlow)">86</text>
        <text x="0" y="35" font-size="10" fill="#777777">AUTONOMOUS</text>
    </g>

    <!-- UPTIME -->
    <g transform="translate(730, 100)">
        <path d="M -40 -35 L 40 -35 L 50 -25 L 50 35 L -40 35 L -50 25 Z" fill="#0a0a0a" stroke="#39FF14" stroke-opacity="0.4" stroke-width="1"/>
        <text x="0" y="-15" font-size="12" fill="#aaaaaa">CONTINUITY</text>
        <text x="0" y="15" font-size="24" fill="#ffffff" font-weight="bold">266<tspan font-size="14" fill="#777777">d</tspan></text>
        <rect x="-35" y="25" width="70" height="4" fill="url(#neonBar)" rx="2"/>
    </g>
  </g>

  <text x="425" y="185" font-family="'Consolas', 'Fira Code', monospace" font-size="10" fill="#aaaaaa" opacity="0.6" text-anchor="middle">LAST TELEMETRY PING: 2026-05-13 18:35:06 UTC // ENCRYPTED_TUNNEL</text>
</svg>