<svg width="850" height="200" viewBox="0 0 850 200" xmlns="http://www.w3.org/2000/svg">
  <defs>
    <pattern id="carbonFiber" width="10" height="10" patternUnits="userSpaceOnUse">
        <rect width="10" height="10" fill="#050505"/>
        <path d="M0,0 L5,5 L10,0 L5,-5 Z M5,5 L10,10 L15,5 L10,0 Z M-5,5 L0,10 L5,5 L0,0 Z M0,10 L5,15 L10,10 L5,5 Z" fill="#0d0d0d"/>
    </pattern>
    <filter id="textGlow">
      <feGaussianBlur stdDeviation="2" result="blur" />
      <feMerge>
        <feMergeNode in="blur"/>
        <feMergeNode in="SourceGraphic"/>
      </feMerge>
    </filter>
    <linearGradient id="neonBar" x1="0%" y1="0%" x2="100%" y2="0%">
        <stop offset="0%" stop-color="#111111"/>
        <stop offset="100%" stop-color="#39FF14"/>
    </linearGradient>
    <linearGradient id="scanlineGrad" x1="0%" y1="0%" x2="100%" y2="0%">
        <stop offset="0%" stop-color="#39FF14" stop-opacity="0"/>
        <stop offset="50%" stop-color="#39FF14" stop-opacity="0.18"/>
        <stop offset="100%" stop-color="#39FF14" stop-opacity="0"/>
    </linearGradient>
    <clipPath id="dashClip">
        <rect x="0" y="0" width="850" height="200" rx="12"/>
    </clipPath>
  </defs>

  <rect width="100%" height="100%" fill="url(#carbonFiber)" rx="12" stroke="#39FF14" stroke-width="1" stroke-opacity="0.3"/>
  <rect width="100%" height="100%" fill="#000000" opacity="0.6" rx="12" />
  <g><polygon points="299,23 307.6,28 307.6,38 299,43 290.4,38 290.4,28" fill="none" stroke="#39FF14" stroke-width="1" opacity="0.07839723807645131"/>
<polygon points="375,180 383.6,185 383.6,195 375,200 366.4,195 366.4,185" fill="none" stroke="#39FF14" stroke-width="1" opacity="0.04365158364183261"/>
<polygon points="624,107 632.6,112 632.6,122 624,127 615.4,122 615.4,112" fill="none" stroke="#39FF14" stroke-width="1" opacity="0.020749213482919346"/>
<polygon points="86,142 94.6,147 94.6,157 86,162 77.4,157 77.4,147" fill="none" stroke="#39FF14" stroke-width="1" opacity="0.05124640365009072"/>
<polygon points="242,161 250.6,166 250.6,176 242,181 233.4,176 233.4,166" fill="none" stroke="#39FF14" stroke-width="1" opacity="0.06276427159153855"/>
<polygon points="371,179 379.6,184 379.6,194 371,199 362.4,194 362.4,184" fill="none" stroke="#39FF14" stroke-width="1" opacity="0.03926539601251098"/>
<polygon points="306,117 314.6,122 314.6,132 306,137 297.4,132 297.4,122" fill="none" stroke="#39FF14" stroke-width="1" opacity="0.06863506077097586"/>
<polygon points="476,150 484.6,155 484.6,165 476,170 467.4,165 467.4,155" fill="none" stroke="#39FF14" stroke-width="1" opacity="0.04475722470107582"/>
<polygon points="360,143 368.6,148 368.6,158 360,163 351.4,158 351.4,148" fill="none" stroke="#39FF14" stroke-width="1" opacity="0.06786691583474186"/>
<polygon points="173,142 181.6,147 181.6,157 173,162 164.4,157 164.4,147" fill="none" stroke="#39FF14" stroke-width="1" opacity="0.03930925484572592"/>
<polygon points="554,92 562.6,97 562.6,107 554,112 545.4,107 545.4,97" fill="none" stroke="#39FF14" stroke-width="1" opacity="0.022795437297515053"/>
<polygon points="180,22 188.6,27 188.6,37 180,42 171.4,37 171.4,27" fill="none" stroke="#39FF14" stroke-width="1" opacity="0.03435392064912752"/>
<polygon points="775,19 783.6,24 783.6,34 775,39 766.4,34 766.4,24" fill="none" stroke="#39FF14" stroke-width="1" opacity="0.0651594736001845"/>
<polygon points="478,91 486.6,96 486.6,106 478,111 469.4,106 469.4,96" fill="none" stroke="#39FF14" stroke-width="1" opacity="0.026372242463549307"/>
<polygon points="80,59 88.6,64 88.6,74 80,79 71.4,74 71.4,64" fill="none" stroke="#39FF14" stroke-width="1" opacity="0.07837605774066232"/>
<polygon points="343,137 351.6,142 351.6,152 343,157 334.4,152 334.4,142" fill="none" stroke="#39FF14" stroke-width="1" opacity="0.07926459318166906"/>
<polygon points="174,183 182.6,188 182.6,198 174,203 165.4,198 165.4,188" fill="none" stroke="#39FF14" stroke-width="1" opacity="0.046481410496410774"/>
<polygon points="264,3 272.6,8 272.6,18 264,23 255.4,18 255.4,8" fill="none" stroke="#39FF14" stroke-width="1" opacity="0.06003713319459586"/>
<polygon points="297,13 305.6,18 305.6,28 297,33 288.4,28 288.4,18" fill="none" stroke="#39FF14" stroke-width="1" opacity="0.02650401017289403"/>
<polygon points="491,88 499.6,93 499.6,103 491,108 482.4,103 482.4,93" fill="none" stroke="#39FF14" stroke-width="1" opacity="0.048685797682787316"/>
<polygon points="641,103 649.6,108 649.6,118 641,123 632.4,118 632.4,108" fill="none" stroke="#39FF14" stroke-width="1" opacity="0.07935743776723805"/>
<polygon points="641,148 649.6,153 649.6,163 641,168 632.4,163 632.4,153" fill="none" stroke="#39FF14" stroke-width="1" opacity="0.05050679622981233"/>
<polygon points="186,131 194.6,136 194.6,146 186,151 177.4,146 177.4,136" fill="none" stroke="#39FF14" stroke-width="1" opacity="0.021228136520415403"/>
<polygon points="155,-8 163.6,-3 163.6,7 155,12 146.4,7 146.4,-3" fill="none" stroke="#39FF14" stroke-width="1" opacity="0.03082316699570882"/>
<polygon points="737,122 745.6,127 745.6,137 737,142 728.4,137 728.4,127" fill="none" stroke="#39FF14" stroke-width="1" opacity="0.04653691143607369"/>
<polygon points="180,-8 188.6,-3 188.6,7 180,12 171.4,7 171.4,-3" fill="none" stroke="#39FF14" stroke-width="1" opacity="0.054688787802823505"/>
<polygon points="644,33 652.6,38 652.6,48 644,53 635.4,48 635.4,38" fill="none" stroke="#39FF14" stroke-width="1" opacity="0.027167039148855376"/>
<polygon points="613,160 621.6,165 621.6,175 613,180 604.4,175 604.4,165" fill="none" stroke="#39FF14" stroke-width="1" opacity="0.0570450905966869"/>
<polygon points="42,2 50.6,7 50.6,17 42,22 33.4,17 33.4,7" fill="none" stroke="#39FF14" stroke-width="1" opacity="0.02838986706442282"/>
<polygon points="138,112 146.6,117 146.6,127 138,132 129.4,127 129.4,117" fill="none" stroke="#39FF14" stroke-width="1" opacity="0.07143513228464814"/>
</g>

  <!-- HUD Decorative elements -->
  <path d="M 20 20 L 40 20 L 50 30" fill="none" stroke="#39FF14" stroke-width="2" opacity="0.5"/>
  <path d="M 830 180 L 810 180 L 800 170" fill="none" stroke="#39FF14" stroke-width="2" opacity="0.5"/>

  <g clip-path="url(#dashClip)">
    <rect x="-160" y="0" width="160" height="200" fill="url(#scanlineGrad)">
      <animateTransform attributeName="transform" type="translate"
                        from="0 0" to="1010 0" dur="6s" repeatCount="indefinite"/>
    </rect>
  </g>

  <g font-family="'Consolas', 'Fira Code', monospace" text-anchor="middle">

    <!-- NETWORK STATUS -->
    <g transform="translate(130, 100)">
        <circle cx="0" cy="0" r="45" fill="none" stroke="#39FF14" stroke-width="2" stroke-dasharray="10 5">
            <animateTransform attributeName="transform" type="rotate" from="0" to="360" dur="10s" repeatCount="indefinite"/>
        </circle>
        <circle cx="0" cy="0" r="35" fill="#0d0d0d" />
        <text x="0" y="-60" font-size="12" fill="#aaaaaa" letter-spacing="2">ROOT.AUTH</text>
        <text x="0" y="70" font-size="14" fill="#ffffff" font-weight="bold">OPERATIONAL</text>
    </g>

    <!-- ACTIVE USERS -->
    <g transform="translate(330, 100)">
        <text x="0" y="-20" font-size="12" fill="#aaaaaa">CITIZENS</text>
        <text x="0" y="15" font-size="28" fill="#ffffff" font-weight="bold" filter="url(#textGlow)">12,656</text>
        <text x="0" y="35" font-size="10" fill="#777777">VERIFIED HUMANS</text>
    </g>

    <!-- REGISTERED AGENTS -->
    <g transform="translate(530, 100)">
        <text x="0" y="-20" font-size="12" fill="#aaaaaa">AGENTS</text>
        <text x="0" y="15" font-size="28" fill="#00d4ff" font-weight="bold" filter="url(#textGlow)">3,753</text>
        <text x="0" y="35" font-size="10" fill="#777777">REGISTERED DIDs</text>
    </g>

    <!-- TRANSACTIONS -->
    <g transform="translate(730, 100)">
        <text x="0" y="-20" font-size="12" fill="#aaaaaa">TRANSFERS</text>
        <text x="0" y="15" font-size="28" fill="#ffffff" font-weight="bold">37,834</text>
        <text x="0" y="35" font-size="10" fill="#777777">M2M SETTLEMENTS</text>
    </g>
  </g>

  <text x="425" y="185" font-family="'Consolas', 'Fira Code', monospace" font-size="10" fill="#aaaaaa" opacity="0.6" text-anchor="middle">AXIOMID PROJECTED TARGETS (ILLUSTRATIVE): 2026-06-30 04:24:28 UTC // SECURE_HANDSHAKE</text>
</svg>