<svg width="850" height="200" viewBox="0 0 850 200" xmlns="http://www.w3.org/2000/svg">
  <defs>
    <pattern id="carbonFiber" width="10" height="10" patternUnits="userSpaceOnUse">
        <rect width="10" height="10" fill="#050505"/>
        <path d="M0,0 L5,5 L10,0 L5,-5 Z M5,5 L10,10 L15,5 L10,0 Z M-5,5 L0,10 L5,5 L0,0 Z M0,10 L5,15 L10,10 L5,5 Z" fill="#0d0d0d"/>
    </pattern>
    <filter id="textGlow">
      <feGaussianBlur stdDeviation="2" result="blur" />
      <feMerge>
        <feMergeNode in="blur"/>
        <feMergeNode in="SourceGraphic"/>
      </feMerge>
    </filter>
    <linearGradient id="neonBar" x1="0%" y1="0%" x2="100%" y2="0%">
        <stop offset="0%" stop-color="#111111"/>
        <stop offset="100%" stop-color="#39FF14"/>
    </linearGradient>
    <linearGradient id="scanlineGrad" x1="0%" y1="0%" x2="100%" y2="0%">
        <stop offset="0%" stop-color="#39FF14" stop-opacity="0"/>
        <stop offset="50%" stop-color="#39FF14" stop-opacity="0.18"/>
        <stop offset="100%" stop-color="#39FF14" stop-opacity="0"/>
    </linearGradient>
    <clipPath id="dashClip">
        <rect x="0" y="0" width="850" height="200" rx="12"/>
    </clipPath>
  </defs>

  <rect width="100%" height="100%" fill="url(#carbonFiber)" rx="12" stroke="#39FF14" stroke-width="1" stroke-opacity="0.3"/>
  <rect width="100%" height="100%" fill="#000000" opacity="0.6" rx="12" />
  <g><polygon points="693,105 701.6,110 701.6,120 693,125 684.4,120 684.4,110" fill="none" stroke="#39FF14" stroke-width="1" opacity="0.06750630711664538"/>
<polygon points="328,80 336.6,85 336.6,95 328,100 319.4,95 319.4,85" fill="none" stroke="#39FF14" stroke-width="1" opacity="0.06692133205650597"/>
<polygon points="186,158 194.6,163 194.6,173 186,178 177.4,173 177.4,163" fill="none" stroke="#39FF14" stroke-width="1" opacity="0.03225212885712552"/>
<polygon points="700,20 708.6,25 708.6,35 700,40 691.4,35 691.4,25" fill="none" stroke="#39FF14" stroke-width="1" opacity="0.07547807667184955"/>
<polygon points="408,156 416.6,161 416.6,171 408,176 399.4,171 399.4,161" fill="none" stroke="#39FF14" stroke-width="1" opacity="0.038473132131766216"/>
<polygon points="660,0 668.6,5 668.6,15 660,20 651.4,15 651.4,5" fill="none" stroke="#39FF14" stroke-width="1" opacity="0.048022019033565566"/>
<polygon points="5,5 13.6,10 13.6,20 5,25 -3.5999999999999996,20 -3.5999999999999996,10" fill="none" stroke="#39FF14" stroke-width="1" opacity="0.030497938772802373"/>
<polygon points="326,158 334.6,163 334.6,173 326,178 317.4,173 317.4,163" fill="none" stroke="#39FF14" stroke-width="1" opacity="0.05790918166525609"/>
<polygon points="373,-6 381.6,-1 381.6,9 373,14 364.4,9 364.4,-1" fill="none" stroke="#39FF14" stroke-width="1" opacity="0.04033903584183392"/>
<polygon points="334,17 342.6,22 342.6,32 334,37 325.4,32 325.4,22" fill="none" stroke="#39FF14" stroke-width="1" opacity="0.0203435450145986"/>
<polygon points="787,145 795.6,150 795.6,160 787,165 778.4,160 778.4,150" fill="none" stroke="#39FF14" stroke-width="1" opacity="0.06158013502220391"/>
<polygon points="267,-8 275.6,-3 275.6,7 267,12 258.4,7 258.4,-3" fill="none" stroke="#39FF14" stroke-width="1" opacity="0.03378109754720922"/>
<polygon points="530,79 538.6,84 538.6,94 530,99 521.4,94 521.4,84" fill="none" stroke="#39FF14" stroke-width="1" opacity="0.021838623055050858"/>
<polygon points="418,114 426.6,119 426.6,129 418,134 409.4,129 409.4,119" fill="none" stroke="#39FF14" stroke-width="1" opacity="0.07708184917266615"/>
<polygon points="658,26 666.6,31 666.6,41 658,46 649.4,41 649.4,31" fill="none" stroke="#39FF14" stroke-width="1" opacity="0.056819421139783055"/>
<polygon points="514,88 522.6,93 522.6,103 514,108 505.4,103 505.4,93" fill="none" stroke="#39FF14" stroke-width="1" opacity="0.07432822237131122"/>
<polygon points="244,80 252.6,85 252.6,95 244,100 235.4,95 235.4,85" fill="none" stroke="#39FF14" stroke-width="1" opacity="0.07019807645513104"/>
<polygon points="361,49 369.6,54 369.6,64 361,69 352.4,64 352.4,54" fill="none" stroke="#39FF14" stroke-width="1" opacity="0.07801784210531355"/>
<polygon points="350,181 358.6,186 358.6,196 350,201 341.4,196 341.4,186" fill="none" stroke="#39FF14" stroke-width="1" opacity="0.07029004926949237"/>
<polygon points="426,128 434.6,133 434.6,143 426,148 417.4,143 417.4,133" fill="none" stroke="#39FF14" stroke-width="1" opacity="0.06448786590543451"/>
<polygon points="662,82 670.6,87 670.6,97 662,102 653.4,97 653.4,87" fill="none" stroke="#39FF14" stroke-width="1" opacity="0.02126023578410656"/>
<polygon points="214,72 222.6,77 222.6,87 214,92 205.4,87 205.4,77" fill="none" stroke="#39FF14" stroke-width="1" opacity="0.03586606188879454"/>
<polygon points="701,128 709.6,133 709.6,143 701,148 692.4,143 692.4,133" fill="none" stroke="#39FF14" stroke-width="1" opacity="0.0286507944329576"/>
<polygon points="466,167 474.6,172 474.6,182 466,187 457.4,182 457.4,172" fill="none" stroke="#39FF14" stroke-width="1" opacity="0.03790594122401882"/>
<polygon points="131,81 139.6,86 139.6,96 131,101 122.4,96 122.4,86" fill="none" stroke="#39FF14" stroke-width="1" opacity="0.03183123433970653"/>
<polygon points="359,177 367.6,182 367.6,192 359,197 350.4,192 350.4,182" fill="none" stroke="#39FF14" stroke-width="1" opacity="0.06670608010978471"/>
<polygon points="627,109 635.6,114 635.6,124 627,129 618.4,124 618.4,114" fill="none" stroke="#39FF14" stroke-width="1" opacity="0.0752703665057404"/>
<polygon points="616,148 624.6,153 624.6,163 616,168 607.4,163 607.4,153" fill="none" stroke="#39FF14" stroke-width="1" opacity="0.05774671952480294"/>
<polygon points="152,126 160.6,131 160.6,141 152,146 143.4,141 143.4,131" fill="none" stroke="#39FF14" stroke-width="1" opacity="0.04263832998101147"/>
<polygon points="30,76 38.6,81 38.6,91 30,96 21.4,91 21.4,81" fill="none" stroke="#39FF14" stroke-width="1" opacity="0.07457603562925233"/>
</g>

  <!-- HUD Decorative elements -->
  <path d="M 20 20 L 40 20 L 50 30" fill="none" stroke="#39FF14" stroke-width="2" opacity="0.5"/>
  <path d="M 830 180 L 810 180 L 800 170" fill="none" stroke="#39FF14" stroke-width="2" opacity="0.5"/>

  <g clip-path="url(#dashClip)">
    <rect x="-160" y="0" width="160" height="200" fill="url(#scanlineGrad)">
      <animateTransform attributeName="transform" type="translate"
                        from="0 0" to="1010 0" dur="6s" repeatCount="indefinite"/>
    </rect>
  </g>

  <g font-family="'Consolas', 'Fira Code', monospace" text-anchor="middle">

    <!-- NETWORK STATUS -->
    <g transform="translate(130, 100)">
        <circle cx="0" cy="0" r="45" fill="none" stroke="#39FF14" stroke-width="2" stroke-dasharray="10 5">
            <animateTransform attributeName="transform" type="rotate" from="0" to="360" dur="10s" repeatCount="indefinite"/>
        </circle>
        <circle cx="0" cy="0" r="35" fill="#0d0d0d" />
        <text x="0" y="-60" font-size="12" fill="#aaaaaa" letter-spacing="2">ROOT.AUTH</text>
        <text x="0" y="70" font-size="14" fill="#ffffff" font-weight="bold">OPERATIONAL</text>
    </g>

    <!-- ACTIVE USERS -->
    <g transform="translate(330, 100)">
        <text x="0" y="-20" font-size="12" fill="#aaaaaa">CITIZENS</text>
        <text x="0" y="15" font-size="28" fill="#ffffff" font-weight="bold" filter="url(#textGlow)">15,437</text>
        <text x="0" y="35" font-size="10" fill="#777777">VERIFIED HUMANS</text>
    </g>

    <!-- REGISTERED AGENTS -->
    <g transform="translate(530, 100)">
        <text x="0" y="-20" font-size="12" fill="#aaaaaa">AGENTS</text>
        <text x="0" y="15" font-size="28" fill="#00d4ff" font-weight="bold" filter="url(#textGlow)">4,543</text>
        <text x="0" y="35" font-size="10" fill="#777777">REGISTERED DIDs</text>
    </g>

    <!-- TRANSACTIONS -->
    <g transform="translate(730, 100)">
        <text x="0" y="-20" font-size="12" fill="#aaaaaa">TRANSFERS</text>
        <text x="0" y="15" font-size="28" fill="#ffffff" font-weight="bold">32,838</text>
        <text x="0" y="35" font-size="10" fill="#777777">M2M SETTLEMENTS</text>
    </g>
  </g>

  <text x="425" y="185" font-family="'Consolas', 'Fira Code', monospace" font-size="10" fill="#aaaaaa" opacity="0.6" text-anchor="middle">AXIOMID PROJECTED TARGETS (ILLUSTRATIVE): 2026-06-27 07:00:48 UTC // SECURE_HANDSHAKE</text>
</svg>