<svg width="850" height="200" viewBox="0 0 850 200" xmlns="http://www.w3.org/2000/svg">
  <defs>
    <!-- Carbon Fiber Pattern -->
    <pattern id="carbonFiber" width="10" height="10" patternUnits="userSpaceOnUse">
        <rect width="10" height="10" fill="#050505"/>
        <path d="M0,0 L5,5 L10,0 L5,-5 Z M5,5 L10,10 L15,5 L10,0 Z M-5,5 L0,10 L5,5 L0,0 Z M0,10 L5,15 L10,10 L5,5 Z" fill="#0d0d0d"/>
    </pattern>
    <filter id="glassmorphism">
      <feGaussianBlur stdDeviation="3" result="blur" />
      <feColorMatrix type="matrix" values="1 0 0 0 0  0 1 0 0 0  0 0 1 0 0  0 0 0 18 -7" result="glow" />
      <feBlend in="SourceGraphic" in2="glow" mode="normal" />
    </filter>
    <filter id="textGlow">
      <feGaussianBlur stdDeviation="2" result="blur" />
      <feMerge>
        <feMergeNode in="blur"/>
        <feMergeNode in="SourceGraphic"/>
      </feMerge>
    </filter>
    <linearGradient id="neonBar" x1="0%" y1="0%" x2="100%" y2="0%">
        <stop offset="0%" stop-color="#111111"/>
        <stop offset="100%" stop-color="#39FF14"/>
    </linearGradient>
  </defs>

  <rect width="100%" height="100%" fill="url(#carbonFiber)" rx="12" stroke="#39FF14" stroke-width="1" stroke-opacity="0.3"/>
  <rect width="100%" height="100%" fill="#000000" opacity="0.6" rx="12" />
  <g><polygon points="689,176 697.6,181 697.6,191 689,196 680.4,191 680.4,181" fill="none" stroke="#39FF14" stroke-width="1" opacity="0.0744275314595563"/>
<polygon points="370,159 378.6,164 378.6,174 370,179 361.4,174 361.4,164" fill="none" stroke="#39FF14" stroke-width="1" opacity="0.0473773661409209"/>
<polygon points="763,133 771.6,138 771.6,148 763,153 754.4,148 754.4,138" fill="none" stroke="#39FF14" stroke-width="1" opacity="0.036880076754871816"/>
<polygon points="45,161 53.6,166 53.6,176 45,181 36.4,176 36.4,166" fill="none" stroke="#39FF14" stroke-width="1" opacity="0.060812114104257756"/>
<polygon points="842,118 850.6,123 850.6,133 842,138 833.4,133 833.4,123" fill="none" stroke="#39FF14" stroke-width="1" opacity="0.07084311404159116"/>
<polygon points="52,14 60.6,19 60.6,29 52,34 43.4,29 43.4,19" fill="none" stroke="#39FF14" stroke-width="1" opacity="0.027685529888882045"/>
<polygon points="485,58 493.6,63 493.6,73 485,78 476.4,73 476.4,63" fill="none" stroke="#39FF14" stroke-width="1" opacity="0.07261714438244452"/>
<polygon points="695,32 703.6,37 703.6,47 695,52 686.4,47 686.4,37" fill="none" stroke="#39FF14" stroke-width="1" opacity="0.0719145173120541"/>
<polygon points="19,132 27.6,137 27.6,147 19,152 10.4,147 10.4,137" fill="none" stroke="#39FF14" stroke-width="1" opacity="0.05686998139958567"/>
<polygon points="583,49 591.6,54 591.6,64 583,69 574.4,64 574.4,54" fill="none" stroke="#39FF14" stroke-width="1" opacity="0.023151388631320453"/>
<polygon points="510,74 518.6,79 518.6,89 510,94 501.4,89 501.4,79" fill="none" stroke="#39FF14" stroke-width="1" opacity="0.021108207523133308"/>
<polygon points="166,-3 174.6,2 174.6,12 166,17 157.4,12 157.4,2" fill="none" stroke="#39FF14" stroke-width="1" opacity="0.07577878169874125"/>
<polygon points="547,4 555.6,9 555.6,19 547,24 538.4,19 538.4,9" fill="none" stroke="#39FF14" stroke-width="1" opacity="0.02124570703977909"/>
<polygon points="167,95 175.6,100 175.6,110 167,115 158.4,110 158.4,100" fill="none" stroke="#39FF14" stroke-width="1" opacity="0.07637491274536293"/>
<polygon points="429,18 437.6,23 437.6,33 429,38 420.4,33 420.4,23" fill="none" stroke="#39FF14" stroke-width="1" opacity="0.06411349810365674"/>
<polygon points="695,61 703.6,66 703.6,76 695,81 686.4,76 686.4,66" fill="none" stroke="#39FF14" stroke-width="1" opacity="0.06595521530926308"/>
<polygon points="615,-4 623.6,1 623.6,11 615,16 606.4,11 606.4,1" fill="none" stroke="#39FF14" stroke-width="1" opacity="0.026350785505845534"/>
<polygon points="597,31 605.6,36 605.6,46 597,51 588.4,46 588.4,36" fill="none" stroke="#39FF14" stroke-width="1" opacity="0.06165449975813368"/>
<polygon points="173,112 181.6,117 181.6,127 173,132 164.4,127 164.4,117" fill="none" stroke="#39FF14" stroke-width="1" opacity="0.044029064264966916"/>
<polygon points="784,17 792.6,22 792.6,32 784,37 775.4,32 775.4,22" fill="none" stroke="#39FF14" stroke-width="1" opacity="0.02662655114719663"/>
<polygon points="740,159 748.6,164 748.6,174 740,179 731.4,174 731.4,164" fill="none" stroke="#39FF14" stroke-width="1" opacity="0.032587407719371304"/>
<polygon points="107,75 115.6,80 115.6,90 107,95 98.4,90 98.4,80" fill="none" stroke="#39FF14" stroke-width="1" opacity="0.06296526680618784"/>
<polygon points="507,70 515.6,75 515.6,85 507,90 498.4,85 498.4,75" fill="none" stroke="#39FF14" stroke-width="1" opacity="0.04637804320913635"/>
<polygon points="84,103 92.6,108 92.6,118 84,123 75.4,118 75.4,108" fill="none" stroke="#39FF14" stroke-width="1" opacity="0.06371047763870884"/>
<polygon points="457,185 465.6,190 465.6,200 457,205 448.4,200 448.4,190" fill="none" stroke="#39FF14" stroke-width="1" opacity="0.05659000349106387"/>
<polygon points="103,57 111.6,62 111.6,72 103,77 94.4,72 94.4,62" fill="none" stroke="#39FF14" stroke-width="1" opacity="0.02468847057336679"/>
<polygon points="362,65 370.6,70 370.6,80 362,85 353.4,80 353.4,70" fill="none" stroke="#39FF14" stroke-width="1" opacity="0.0621452010001812"/>
<polygon points="846,189 854.6,194 854.6,204 846,209 837.4,204 837.4,194" fill="none" stroke="#39FF14" stroke-width="1" opacity="0.036545276841213406"/>
<polygon points="120,84 128.6,89 128.6,99 120,104 111.4,99 111.4,89" fill="none" stroke="#39FF14" stroke-width="1" opacity="0.07453877637216612"/>
<polygon points="158,123 166.6,128 166.6,138 158,143 149.4,138 149.4,128" fill="none" stroke="#39FF14" stroke-width="1" opacity="0.0410435808319698"/>
</g>

  <!-- HUD Decorative elements -->
  <path d="M 20 20 L 40 20 L 50 30" fill="none" stroke="#39FF14" stroke-width="2" opacity="0.5"/>
  <path d="M 830 180 L 810 180 L 800 170" fill="none" stroke="#39FF14" stroke-width="2" opacity="0.5"/>
  <rect x="20" y="100" width="2" height="40" fill="#ffffff" opacity="0.4"/>
  <rect x="828" y="60" width="2" height="40" fill="#39FF14" opacity="0.6"/>

  <g font-family="'Consolas', 'Fira Code', monospace" text-anchor="middle">

    <!-- SYSTEM STATUS -->
    <g transform="translate(130, 100)">
        <circle cx="0" cy="0" r="45" fill="none" stroke="#111111" stroke-width="8" />
        <circle cx="0" cy="0" r="45" fill="none" stroke="#39FF14" stroke-width="2" stroke-dasharray="10 5">
            <animateTransform attributeName="transform" type="rotate" from="0" to="360" dur="10s" repeatCount="indefinite"/>
        </circle>
        <circle cx="0" cy="0" r="35" fill="#0d0d0d" />
        <circle cx="0" cy="0" r="6" fill="#39FF14" filter="url(#textGlow)">
            <animate attributeName="opacity" values="1;0.3;1" dur="2s" repeatCount="indefinite"/>
        </circle>
        <text x="0" y="-60" font-size="12" fill="#aaaaaa" letter-spacing="2">SYS.CORE</text>
        <text x="0" y="70" font-size="14" fill="#ffffff" font-weight="bold">ONLINE</text>
    </g>

    <!-- LIVE TRAFFIC -->
    <g transform="translate(330, 100)">
        <rect x="-60" y="-45" width="120" height="90" fill="#0a0a0a" rx="8" stroke="#39FF14" stroke-opacity="0.4" stroke-width="1"/>
        <text x="0" y="-20" font-size="12" fill="#aaaaaa">NETWORK LOAD</text>
        <text x="0" y="15" font-size="28" fill="#ffffff" font-weight="bold" filter="url(#textGlow)">4577</text>
        <text x="0" y="35" font-size="10" fill="#777777">ACTIVE SESSIONS</text>
    </g>

    <!-- ACTIVE AGENTS -->
    <g transform="translate(530, 100)">
        <rect x="-60" y="-45" width="120" height="90" fill="#0a0a0a" rx="8" stroke="#39FF14" stroke-opacity="0.4" stroke-width="1"/>
        <text x="0" y="-20" font-size="12" fill="#aaaaaa">SWARM ENTITIES</text>
        <text x="0" y="15" font-size="28" fill="#ffffff" font-weight="bold" filter="url(#textGlow)">169</text>
        <text x="0" y="35" font-size="10" fill="#777777">AUTONOMOUS</text>
    </g>

    <!-- UPTIME -->
    <g transform="translate(730, 100)">
        <path d="M -40 -35 L 40 -35 L 50 -25 L 50 35 L -40 35 L -50 25 Z" fill="#0a0a0a" stroke="#39FF14" stroke-opacity="0.4" stroke-width="1"/>
        <text x="0" y="-15" font-size="12" fill="#aaaaaa">CONTINUITY</text>
        <text x="0" y="15" font-size="24" fill="#ffffff" font-weight="bold">321<tspan font-size="14" fill="#777777">d</tspan></text>
        <rect x="-35" y="25" width="70" height="4" fill="url(#neonBar)" rx="2"/>
    </g>
  </g>

  <text x="425" y="185" font-family="'Consolas', 'Fira Code', monospace" font-size="10" fill="#aaaaaa" opacity="0.6" text-anchor="middle">LAST TELEMETRY PING: 2026-05-10 00:53:56 UTC // ENCRYPTED_TUNNEL</text>
</svg>