<svg width="850" height="200" viewBox="0 0 850 200" xmlns="http://www.w3.org/2000/svg">
  <defs>
    <!-- Carbon Fiber Pattern -->
    <pattern id="carbonFiber" width="10" height="10" patternUnits="userSpaceOnUse">
        <rect width="10" height="10" fill="#050505"/>
        <path d="M0,0 L5,5 L10,0 L5,-5 Z M5,5 L10,10 L15,5 L10,0 Z M-5,5 L0,10 L5,5 L0,0 Z M0,10 L5,15 L10,10 L5,5 Z" fill="#0d0d0d"/>
    </pattern>
    <filter id="glassmorphism">
      <feGaussianBlur stdDeviation="3" result="blur" />
      <feColorMatrix type="matrix" values="1 0 0 0 0  0 1 0 0 0  0 0 1 0 0  0 0 0 18 -7" result="glow" />
      <feBlend in="SourceGraphic" in2="glow" mode="normal" />
    </filter>
    <filter id="textGlow">
      <feGaussianBlur stdDeviation="2" result="blur" />
      <feMerge>
        <feMergeNode in="blur"/>
        <feMergeNode in="SourceGraphic"/>
      </feMerge>
    </filter>
    <linearGradient id="neonBar" x1="0%" y1="0%" x2="100%" y2="0%">
        <stop offset="0%" stop-color="#111111"/>
        <stop offset="100%" stop-color="#39FF14"/>
    </linearGradient>
  </defs>

  <rect width="100%" height="100%" fill="url(#carbonFiber)" rx="12" stroke="#39FF14" stroke-width="1" stroke-opacity="0.3"/>
  <rect width="100%" height="100%" fill="#000000" opacity="0.6" rx="12" />
  <g><polygon points="6,63 14.6,68 14.6,78 6,83 -2.5999999999999996,78 -2.5999999999999996,68" fill="none" stroke="#39FF14" stroke-width="1" opacity="0.03693540200795575"/>
<polygon points="397,165 405.6,170 405.6,180 397,185 388.4,180 388.4,170" fill="none" stroke="#39FF14" stroke-width="1" opacity="0.03352664289396865"/>
<polygon points="158,36 166.6,41 166.6,51 158,56 149.4,51 149.4,41" fill="none" stroke="#39FF14" stroke-width="1" opacity="0.049918037486824954"/>
<polygon points="696,95 704.6,100 704.6,110 696,115 687.4,110 687.4,100" fill="none" stroke="#39FF14" stroke-width="1" opacity="0.046202719008329896"/>
<polygon points="431,12 439.6,17 439.6,27 431,32 422.4,27 422.4,17" fill="none" stroke="#39FF14" stroke-width="1" opacity="0.04477553046666197"/>
<polygon points="410,96 418.6,101 418.6,111 410,116 401.4,111 401.4,101" fill="none" stroke="#39FF14" stroke-width="1" opacity="0.03300547676054823"/>
<polygon points="601,143 609.6,148 609.6,158 601,163 592.4,158 592.4,148" fill="none" stroke="#39FF14" stroke-width="1" opacity="0.07986483963029685"/>
<polygon points="707,1 715.6,6 715.6,16 707,21 698.4,16 698.4,6" fill="none" stroke="#39FF14" stroke-width="1" opacity="0.028852821995711812"/>
<polygon points="542,29 550.6,34 550.6,44 542,49 533.4,44 533.4,34" fill="none" stroke="#39FF14" stroke-width="1" opacity="0.06451450875893291"/>
<polygon points="517,64 525.6,69 525.6,79 517,84 508.4,79 508.4,69" fill="none" stroke="#39FF14" stroke-width="1" opacity="0.026614213343708452"/>
<polygon points="262,117 270.6,122 270.6,132 262,137 253.4,132 253.4,122" fill="none" stroke="#39FF14" stroke-width="1" opacity="0.04696085018461148"/>
<polygon points="145,138 153.6,143 153.6,153 145,158 136.4,153 136.4,143" fill="none" stroke="#39FF14" stroke-width="1" opacity="0.02743384319536509"/>
<polygon points="798,22 806.6,27 806.6,37 798,42 789.4,37 789.4,27" fill="none" stroke="#39FF14" stroke-width="1" opacity="0.0533556666593963"/>
<polygon points="781,183 789.6,188 789.6,198 781,203 772.4,198 772.4,188" fill="none" stroke="#39FF14" stroke-width="1" opacity="0.059085293224948626"/>
<polygon points="42,76 50.6,81 50.6,91 42,96 33.4,91 33.4,81" fill="none" stroke="#39FF14" stroke-width="1" opacity="0.06928082280963549"/>
<polygon points="717,107 725.6,112 725.6,122 717,127 708.4,122 708.4,112" fill="none" stroke="#39FF14" stroke-width="1" opacity="0.03107134817607287"/>
<polygon points="688,77 696.6,82 696.6,92 688,97 679.4,92 679.4,82" fill="none" stroke="#39FF14" stroke-width="1" opacity="0.031816835870859"/>
<polygon points="104,98 112.6,103 112.6,113 104,118 95.4,113 95.4,103" fill="none" stroke="#39FF14" stroke-width="1" opacity="0.04523270465140336"/>
<polygon points="173,108 181.6,113 181.6,123 173,128 164.4,123 164.4,113" fill="none" stroke="#39FF14" stroke-width="1" opacity="0.03796601632080561"/>
<polygon points="227,72 235.6,77 235.6,87 227,92 218.4,87 218.4,77" fill="none" stroke="#39FF14" stroke-width="1" opacity="0.024633285183431344"/>
<polygon points="816,15 824.6,20 824.6,30 816,35 807.4,30 807.4,20" fill="none" stroke="#39FF14" stroke-width="1" opacity="0.020467103797425005"/>
<polygon points="260,145 268.6,150 268.6,160 260,165 251.4,160 251.4,150" fill="none" stroke="#39FF14" stroke-width="1" opacity="0.06750840501717308"/>
<polygon points="172,70 180.6,75 180.6,85 172,90 163.4,85 163.4,75" fill="none" stroke="#39FF14" stroke-width="1" opacity="0.04067909713392228"/>
<polygon points="495,166 503.6,171 503.6,181 495,186 486.4,181 486.4,171" fill="none" stroke="#39FF14" stroke-width="1" opacity="0.03189107927242613"/>
<polygon points="648,175 656.6,180 656.6,190 648,195 639.4,190 639.4,180" fill="none" stroke="#39FF14" stroke-width="1" opacity="0.04360804961652204"/>
<polygon points="401,50 409.6,55 409.6,65 401,70 392.4,65 392.4,55" fill="none" stroke="#39FF14" stroke-width="1" opacity="0.035058349834048805"/>
<polygon points="474,9 482.6,14 482.6,24 474,29 465.4,24 465.4,14" fill="none" stroke="#39FF14" stroke-width="1" opacity="0.07836583729466626"/>
<polygon points="201,134 209.6,139 209.6,149 201,154 192.4,149 192.4,139" fill="none" stroke="#39FF14" stroke-width="1" opacity="0.06401413219135446"/>
<polygon points="485,0 493.6,5 493.6,15 485,20 476.4,15 476.4,5" fill="none" stroke="#39FF14" stroke-width="1" opacity="0.051257612632039776"/>
<polygon points="809,39 817.6,44 817.6,54 809,59 800.4,54 800.4,44" fill="none" stroke="#39FF14" stroke-width="1" opacity="0.03399063013277994"/>
</g>

  <!-- HUD Decorative elements -->
  <path d="M 20 20 L 40 20 L 50 30" fill="none" stroke="#39FF14" stroke-width="2" opacity="0.5"/>
  <path d="M 830 180 L 810 180 L 800 170" fill="none" stroke="#39FF14" stroke-width="2" opacity="0.5"/>
  <rect x="20" y="100" width="2" height="40" fill="#ffffff" opacity="0.4"/>
  <rect x="828" y="60" width="2" height="40" fill="#39FF14" opacity="0.6"/>

  <g font-family="'Consolas', 'Fira Code', monospace" text-anchor="middle">

    <!-- SYSTEM STATUS -->
    <g transform="translate(130, 100)">
        <circle cx="0" cy="0" r="45" fill="none" stroke="#111111" stroke-width="8" />
        <circle cx="0" cy="0" r="45" fill="none" stroke="#39FF14" stroke-width="2" stroke-dasharray="10 5">
            <animateTransform attributeName="transform" type="rotate" from="0" to="360" dur="10s" repeatCount="indefinite"/>
        </circle>
        <circle cx="0" cy="0" r="35" fill="#0d0d0d" />
        <circle cx="0" cy="0" r="6" fill="#39FF14" filter="url(#textGlow)">
            <animate attributeName="opacity" values="1;0.3;1" dur="2s" repeatCount="indefinite"/>
        </circle>
        <text x="0" y="-60" font-size="12" fill="#aaaaaa" letter-spacing="2">SYS.CORE</text>
        <text x="0" y="70" font-size="14" fill="#ffffff" font-weight="bold">ONLINE</text>
    </g>

    <!-- LIVE TRAFFIC -->
    <g transform="translate(330, 100)">
        <rect x="-60" y="-45" width="120" height="90" fill="#0a0a0a" rx="8" stroke="#39FF14" stroke-opacity="0.4" stroke-width="1"/>
        <text x="0" y="-20" font-size="12" fill="#aaaaaa">NETWORK LOAD</text>
        <text x="0" y="15" font-size="28" fill="#ffffff" font-weight="bold" filter="url(#textGlow)">6879</text>
        <text x="0" y="35" font-size="10" fill="#777777">ACTIVE SESSIONS</text>
    </g>

    <!-- ACTIVE AGENTS -->
    <g transform="translate(530, 100)">
        <rect x="-60" y="-45" width="120" height="90" fill="#0a0a0a" rx="8" stroke="#39FF14" stroke-opacity="0.4" stroke-width="1"/>
        <text x="0" y="-20" font-size="12" fill="#aaaaaa">SWARM ENTITIES</text>
        <text x="0" y="15" font-size="28" fill="#ffffff" font-weight="bold" filter="url(#textGlow)">117</text>
        <text x="0" y="35" font-size="10" fill="#777777">AUTONOMOUS</text>
    </g>

    <!-- UPTIME -->
    <g transform="translate(730, 100)">
        <path d="M -40 -35 L 40 -35 L 50 -25 L 50 35 L -40 35 L -50 25 Z" fill="#0a0a0a" stroke="#39FF14" stroke-opacity="0.4" stroke-width="1"/>
        <text x="0" y="-15" font-size="12" fill="#aaaaaa">CONTINUITY</text>
        <text x="0" y="15" font-size="24" fill="#ffffff" font-weight="bold">335<tspan font-size="14" fill="#777777">d</tspan></text>
        <rect x="-35" y="25" width="70" height="4" fill="url(#neonBar)" rx="2"/>
    </g>
  </g>

  <text x="425" y="185" font-family="'Consolas', 'Fira Code', monospace" font-size="10" fill="#aaaaaa" opacity="0.6" text-anchor="middle">LAST TELEMETRY PING: 2026-04-29 18:36:52 UTC // ENCRYPTED_TUNNEL</text>
</svg>