<svg width="850" height="200" viewBox="0 0 850 200" xmlns="http://www.w3.org/2000/svg">
  <defs>
    <pattern id="carbonFiber" width="10" height="10" patternUnits="userSpaceOnUse">
        <rect width="10" height="10" fill="#050505"/>
        <path d="M0,0 L5,5 L10,0 L5,-5 Z M5,5 L10,10 L15,5 L10,0 Z M-5,5 L0,10 L5,5 L0,0 Z M0,10 L5,15 L10,10 L5,5 Z" fill="#0d0d0d"/>
    </pattern>
    <filter id="textGlow">
      <feGaussianBlur stdDeviation="2" result="blur" />
      <feMerge>
        <feMergeNode in="blur"/>
        <feMergeNode in="SourceGraphic"/>
      </feMerge>
    </filter>
    <linearGradient id="neonBar" x1="0%" y1="0%" x2="100%" y2="0%">
        <stop offset="0%" stop-color="#111111"/>
        <stop offset="100%" stop-color="#39FF14"/>
    </linearGradient>
    <linearGradient id="scanlineGrad" x1="0%" y1="0%" x2="100%" y2="0%">
        <stop offset="0%" stop-color="#39FF14" stop-opacity="0"/>
        <stop offset="50%" stop-color="#39FF14" stop-opacity="0.18"/>
        <stop offset="100%" stop-color="#39FF14" stop-opacity="0"/>
    </linearGradient>
    <clipPath id="dashClip">
        <rect x="0" y="0" width="850" height="200" rx="12"/>
    </clipPath>
  </defs>

  <rect width="100%" height="100%" fill="url(#carbonFiber)" rx="12" stroke="#39FF14" stroke-width="1" stroke-opacity="0.3"/>
  <rect width="100%" height="100%" fill="#000000" opacity="0.6" rx="12" />
  <g><polygon points="225,41 233.6,46 233.6,56 225,61 216.4,56 216.4,46" fill="none" stroke="#39FF14" stroke-width="1" opacity="0.06399444836055392"/>
<polygon points="177,20 185.6,25 185.6,35 177,40 168.4,35 168.4,25" fill="none" stroke="#39FF14" stroke-width="1" opacity="0.0799298164901557"/>
<polygon points="291,63 299.6,68 299.6,78 291,83 282.4,78 282.4,68" fill="none" stroke="#39FF14" stroke-width="1" opacity="0.050251213232745805"/>
<polygon points="301,4 309.6,9 309.6,19 301,24 292.4,19 292.4,9" fill="none" stroke="#39FF14" stroke-width="1" opacity="0.0771560061001215"/>
<polygon points="401,87 409.6,92 409.6,102 401,107 392.4,102 392.4,92" fill="none" stroke="#39FF14" stroke-width="1" opacity="0.0545159600401357"/>
<polygon points="471,152 479.6,157 479.6,167 471,172 462.4,167 462.4,157" fill="none" stroke="#39FF14" stroke-width="1" opacity="0.023394498425644936"/>
<polygon points="143,31 151.6,36 151.6,46 143,51 134.4,46 134.4,36" fill="none" stroke="#39FF14" stroke-width="1" opacity="0.026823700206372265"/>
<polygon points="576,164 584.6,169 584.6,179 576,184 567.4,179 567.4,169" fill="none" stroke="#39FF14" stroke-width="1" opacity="0.07722222401895422"/>
<polygon points="696,105 704.6,110 704.6,120 696,125 687.4,120 687.4,110" fill="none" stroke="#39FF14" stroke-width="1" opacity="0.03887915155468303"/>
<polygon points="818,61 826.6,66 826.6,76 818,81 809.4,76 809.4,66" fill="none" stroke="#39FF14" stroke-width="1" opacity="0.028945886920521288"/>
<polygon points="2,178 10.6,183 10.6,193 2,198 -6.6,193 -6.6,183" fill="none" stroke="#39FF14" stroke-width="1" opacity="0.042620832886637094"/>
<polygon points="97,35 105.6,40 105.6,50 97,55 88.4,50 88.4,40" fill="none" stroke="#39FF14" stroke-width="1" opacity="0.042221821753660974"/>
<polygon points="712,184 720.6,189 720.6,199 712,204 703.4,199 703.4,189" fill="none" stroke="#39FF14" stroke-width="1" opacity="0.06125176771356827"/>
<polygon points="104,84 112.6,89 112.6,99 104,104 95.4,99 95.4,89" fill="none" stroke="#39FF14" stroke-width="1" opacity="0.029577665837591145"/>
<polygon points="160,105 168.6,110 168.6,120 160,125 151.4,120 151.4,110" fill="none" stroke="#39FF14" stroke-width="1" opacity="0.0692162251605731"/>
<polygon points="833,-2 841.6,3 841.6,13 833,18 824.4,13 824.4,3" fill="none" stroke="#39FF14" stroke-width="1" opacity="0.03958598721733901"/>
<polygon points="227,153 235.6,158 235.6,168 227,173 218.4,168 218.4,158" fill="none" stroke="#39FF14" stroke-width="1" opacity="0.06714174252144839"/>
<polygon points="37,104 45.6,109 45.6,119 37,124 28.4,119 28.4,109" fill="none" stroke="#39FF14" stroke-width="1" opacity="0.04526691941805888"/>
<polygon points="754,126 762.6,131 762.6,141 754,146 745.4,141 745.4,131" fill="none" stroke="#39FF14" stroke-width="1" opacity="0.053022567258700026"/>
<polygon points="379,157 387.6,162 387.6,172 379,177 370.4,172 370.4,162" fill="none" stroke="#39FF14" stroke-width="1" opacity="0.07222916889356996"/>
<polygon points="785,166 793.6,171 793.6,181 785,186 776.4,181 776.4,171" fill="none" stroke="#39FF14" stroke-width="1" opacity="0.042163959264965994"/>
<polygon points="830,176 838.6,181 838.6,191 830,196 821.4,191 821.4,181" fill="none" stroke="#39FF14" stroke-width="1" opacity="0.03731537672604141"/>
<polygon points="695,185 703.6,190 703.6,200 695,205 686.4,200 686.4,190" fill="none" stroke="#39FF14" stroke-width="1" opacity="0.045366022455777505"/>
<polygon points="46,11 54.6,16 54.6,26 46,31 37.4,26 37.4,16" fill="none" stroke="#39FF14" stroke-width="1" opacity="0.05331371476599463"/>
<polygon points="185,100 193.6,105 193.6,115 185,120 176.4,115 176.4,105" fill="none" stroke="#39FF14" stroke-width="1" opacity="0.06869287042654405"/>
<polygon points="795,29 803.6,34 803.6,44 795,49 786.4,44 786.4,34" fill="none" stroke="#39FF14" stroke-width="1" opacity="0.07130693875335944"/>
<polygon points="264,48 272.6,53 272.6,63 264,68 255.4,63 255.4,53" fill="none" stroke="#39FF14" stroke-width="1" opacity="0.05650238526031383"/>
<polygon points="769,51 777.6,56 777.6,66 769,71 760.4,66 760.4,56" fill="none" stroke="#39FF14" stroke-width="1" opacity="0.07790493935639094"/>
<polygon points="315,112 323.6,117 323.6,127 315,132 306.4,127 306.4,117" fill="none" stroke="#39FF14" stroke-width="1" opacity="0.05215917643989257"/>
<polygon points="434,153 442.6,158 442.6,168 434,173 425.4,168 425.4,158" fill="none" stroke="#39FF14" stroke-width="1" opacity="0.040230027124605536"/>
</g>

  <!-- HUD Decorative elements -->
  <path d="M 20 20 L 40 20 L 50 30" fill="none" stroke="#39FF14" stroke-width="2" opacity="0.5"/>
  <path d="M 830 180 L 810 180 L 800 170" fill="none" stroke="#39FF14" stroke-width="2" opacity="0.5"/>

  <g clip-path="url(#dashClip)">
    <rect x="-160" y="0" width="160" height="200" fill="url(#scanlineGrad)">
      <animateTransform attributeName="transform" type="translate"
                        from="0 0" to="1010 0" dur="6s" repeatCount="indefinite"/>
    </rect>
  </g>

  <g font-family="'Consolas', 'Fira Code', monospace" text-anchor="middle">

    <!-- NETWORK STATUS -->
    <g transform="translate(130, 100)">
        <circle cx="0" cy="0" r="45" fill="none" stroke="#39FF14" stroke-width="2" stroke-dasharray="10 5">
            <animateTransform attributeName="transform" type="rotate" from="0" to="360" dur="10s" repeatCount="indefinite"/>
        </circle>
        <circle cx="0" cy="0" r="35" fill="#0d0d0d" />
        <text x="0" y="-60" font-size="12" fill="#aaaaaa" letter-spacing="2">ROOT.AUTH</text>
        <text x="0" y="70" font-size="14" fill="#ffffff" font-weight="bold">OPERATIONAL</text>
    </g>

    <!-- ACTIVE USERS -->
    <g transform="translate(330, 100)">
        <text x="0" y="-20" font-size="12" fill="#aaaaaa">CITIZENS</text>
        <text x="0" y="15" font-size="28" fill="#ffffff" font-weight="bold" filter="url(#textGlow)">15,314</text>
        <text x="0" y="35" font-size="10" fill="#777777">VERIFIED HUMANS</text>
    </g>

    <!-- REGISTERED AGENTS -->
    <g transform="translate(530, 100)">
        <text x="0" y="-20" font-size="12" fill="#aaaaaa">AGENTS</text>
        <text x="0" y="15" font-size="28" fill="#00d4ff" font-weight="bold" filter="url(#textGlow)">3,987</text>
        <text x="0" y="35" font-size="10" fill="#777777">REGISTERED DIDs</text>
    </g>

    <!-- TRANSACTIONS -->
    <g transform="translate(730, 100)">
        <text x="0" y="-20" font-size="12" fill="#aaaaaa">TRANSFERS</text>
        <text x="0" y="15" font-size="28" fill="#ffffff" font-weight="bold">34,700</text>
        <text x="0" y="35" font-size="10" fill="#777777">M2M SETTLEMENTS</text>
    </g>
  </g>

  <text x="425" y="185" font-family="'Consolas', 'Fira Code', monospace" font-size="10" fill="#aaaaaa" opacity="0.6" text-anchor="middle">AXIOMID PROJECTED TARGETS (ILLUSTRATIVE): 2026-07-09 14:30:32 UTC // SECURE_HANDSHAKE</text>
</svg>