<svg width="850" height="200" viewBox="0 0 850 200" xmlns="http://www.w3.org/2000/svg">
  <defs>
    <pattern id="carbonFiber" width="10" height="10" patternUnits="userSpaceOnUse">
        <rect width="10" height="10" fill="#050505"/>
        <path d="M0,0 L5,5 L10,0 L5,-5 Z M5,5 L10,10 L15,5 L10,0 Z M-5,5 L0,10 L5,5 L0,0 Z M0,10 L5,15 L10,10 L5,5 Z" fill="#0d0d0d"/>
    </pattern>
    <filter id="textGlow">
      <feGaussianBlur stdDeviation="2" result="blur" />
      <feMerge>
        <feMergeNode in="blur"/>
        <feMergeNode in="SourceGraphic"/>
      </feMerge>
    </filter>
    <linearGradient id="neonBar" x1="0%" y1="0%" x2="100%" y2="0%">
        <stop offset="0%" stop-color="#111111"/>
        <stop offset="100%" stop-color="#39FF14"/>
    </linearGradient>
    <linearGradient id="scanlineGrad" x1="0%" y1="0%" x2="100%" y2="0%">
        <stop offset="0%" stop-color="#39FF14" stop-opacity="0"/>
        <stop offset="50%" stop-color="#39FF14" stop-opacity="0.18"/>
        <stop offset="100%" stop-color="#39FF14" stop-opacity="0"/>
    </linearGradient>
    <clipPath id="dashClip">
        <rect x="0" y="0" width="850" height="200" rx="12"/>
    </clipPath>
  </defs>

  <rect width="100%" height="100%" fill="url(#carbonFiber)" rx="12" stroke="#39FF14" stroke-width="1" stroke-opacity="0.3"/>
  <rect width="100%" height="100%" fill="#000000" opacity="0.6" rx="12" />
  <g><polygon points="654,21 662.6,26 662.6,36 654,41 645.4,36 645.4,26" fill="none" stroke="#39FF14" stroke-width="1" opacity="0.0319150065191851"/>
<polygon points="475,146 483.6,151 483.6,161 475,166 466.4,161 466.4,151" fill="none" stroke="#39FF14" stroke-width="1" opacity="0.054419439415621745"/>
<polygon points="319,137 327.6,142 327.6,152 319,157 310.4,152 310.4,142" fill="none" stroke="#39FF14" stroke-width="1" opacity="0.07962674737094957"/>
<polygon points="45,62 53.6,67 53.6,77 45,82 36.4,77 36.4,67" fill="none" stroke="#39FF14" stroke-width="1" opacity="0.06926713855122993"/>
<polygon points="682,47 690.6,52 690.6,62 682,67 673.4,62 673.4,52" fill="none" stroke="#39FF14" stroke-width="1" opacity="0.07140763748128388"/>
<polygon points="590,57 598.6,62 598.6,72 590,77 581.4,72 581.4,62" fill="none" stroke="#39FF14" stroke-width="1" opacity="0.07360336622682749"/>
<polygon points="739,123 747.6,128 747.6,138 739,143 730.4,138 730.4,128" fill="none" stroke="#39FF14" stroke-width="1" opacity="0.034230169481699796"/>
<polygon points="163,83 171.6,88 171.6,98 163,103 154.4,98 154.4,88" fill="none" stroke="#39FF14" stroke-width="1" opacity="0.05091872369811577"/>
<polygon points="347,163 355.6,168 355.6,178 347,183 338.4,178 338.4,168" fill="none" stroke="#39FF14" stroke-width="1" opacity="0.07653836656397714"/>
<polygon points="786,62 794.6,67 794.6,77 786,82 777.4,77 777.4,67" fill="none" stroke="#39FF14" stroke-width="1" opacity="0.07805464853114358"/>
<polygon points="843,38 851.6,43 851.6,53 843,58 834.4,53 834.4,43" fill="none" stroke="#39FF14" stroke-width="1" opacity="0.03093136259652067"/>
<polygon points="109,152 117.6,157 117.6,167 109,172 100.4,167 100.4,157" fill="none" stroke="#39FF14" stroke-width="1" opacity="0.02844791582980247"/>
<polygon points="436,173 444.6,178 444.6,188 436,193 427.4,188 427.4,178" fill="none" stroke="#39FF14" stroke-width="1" opacity="0.028666904601021927"/>
<polygon points="38,18 46.6,23 46.6,33 38,38 29.4,33 29.4,23" fill="none" stroke="#39FF14" stroke-width="1" opacity="0.07413047290254104"/>
<polygon points="608,30 616.6,35 616.6,45 608,50 599.4,45 599.4,35" fill="none" stroke="#39FF14" stroke-width="1" opacity="0.07135317874379848"/>
<polygon points="118,100 126.6,105 126.6,115 118,120 109.4,115 109.4,105" fill="none" stroke="#39FF14" stroke-width="1" opacity="0.05996151981899961"/>
<polygon points="583,122 591.6,127 591.6,137 583,142 574.4,137 574.4,127" fill="none" stroke="#39FF14" stroke-width="1" opacity="0.02194195074766497"/>
<polygon points="93,147 101.6,152 101.6,162 93,167 84.4,162 84.4,152" fill="none" stroke="#39FF14" stroke-width="1" opacity="0.05315279187855969"/>
<polygon points="572,104 580.6,109 580.6,119 572,124 563.4,119 563.4,109" fill="none" stroke="#39FF14" stroke-width="1" opacity="0.03600347888351334"/>
<polygon points="305,95 313.6,100 313.6,110 305,115 296.4,110 296.4,100" fill="none" stroke="#39FF14" stroke-width="1" opacity="0.033421881471236474"/>
<polygon points="95,74 103.6,79 103.6,89 95,94 86.4,89 86.4,79" fill="none" stroke="#39FF14" stroke-width="1" opacity="0.05773392836174737"/>
<polygon points="760,102 768.6,107 768.6,117 760,122 751.4,117 751.4,107" fill="none" stroke="#39FF14" stroke-width="1" opacity="0.028879098179260782"/>
<polygon points="88,88 96.6,93 96.6,103 88,108 79.4,103 79.4,93" fill="none" stroke="#39FF14" stroke-width="1" opacity="0.05254388685267544"/>
<polygon points="354,28 362.6,33 362.6,43 354,48 345.4,43 345.4,33" fill="none" stroke="#39FF14" stroke-width="1" opacity="0.03061101182862424"/>
<polygon points="6,111 14.6,116 14.6,126 6,131 -2.5999999999999996,126 -2.5999999999999996,116" fill="none" stroke="#39FF14" stroke-width="1" opacity="0.07633588991454052"/>
<polygon points="26,31 34.6,36 34.6,46 26,51 17.4,46 17.4,36" fill="none" stroke="#39FF14" stroke-width="1" opacity="0.05322230399282615"/>
<polygon points="103,150 111.6,155 111.6,165 103,170 94.4,165 94.4,155" fill="none" stroke="#39FF14" stroke-width="1" opacity="0.021756808983815743"/>
<polygon points="504,45 512.6,50 512.6,60 504,65 495.4,60 495.4,50" fill="none" stroke="#39FF14" stroke-width="1" opacity="0.06374519026938319"/>
<polygon points="226,10 234.6,15 234.6,25 226,30 217.4,25 217.4,15" fill="none" stroke="#39FF14" stroke-width="1" opacity="0.07310543814214764"/>
<polygon points="148,180 156.6,185 156.6,195 148,200 139.4,195 139.4,185" fill="none" stroke="#39FF14" stroke-width="1" opacity="0.021765016934972643"/>
</g>

  <!-- HUD Decorative elements -->
  <path d="M 20 20 L 40 20 L 50 30" fill="none" stroke="#39FF14" stroke-width="2" opacity="0.5"/>
  <path d="M 830 180 L 810 180 L 800 170" fill="none" stroke="#39FF14" stroke-width="2" opacity="0.5"/>

  <g clip-path="url(#dashClip)">
    <rect x="-160" y="0" width="160" height="200" fill="url(#scanlineGrad)">
      <animateTransform attributeName="transform" type="translate"
                        from="0 0" to="1010 0" dur="6s" repeatCount="indefinite"/>
    </rect>
  </g>

  <g font-family="'Consolas', 'Fira Code', monospace" text-anchor="middle">

    <!-- NETWORK STATUS -->
    <g transform="translate(130, 100)">
        <circle cx="0" cy="0" r="45" fill="none" stroke="#39FF14" stroke-width="2" stroke-dasharray="10 5">
            <animateTransform attributeName="transform" type="rotate" from="0" to="360" dur="10s" repeatCount="indefinite"/>
        </circle>
        <circle cx="0" cy="0" r="35" fill="#0d0d0d" />
        <text x="0" y="-60" font-size="12" fill="#aaaaaa" letter-spacing="2">ROOT.AUTH</text>
        <text x="0" y="70" font-size="14" fill="#ffffff" font-weight="bold">OPERATIONAL</text>
    </g>

    <!-- ACTIVE USERS -->
    <g transform="translate(330, 100)">
        <text x="0" y="-20" font-size="12" fill="#aaaaaa">CITIZENS</text>
        <text x="0" y="15" font-size="28" fill="#ffffff" font-weight="bold" filter="url(#textGlow)">12,576</text>
        <text x="0" y="35" font-size="10" fill="#777777">VERIFIED HUMANS</text>
    </g>

    <!-- REGISTERED AGENTS -->
    <g transform="translate(530, 100)">
        <text x="0" y="-20" font-size="12" fill="#aaaaaa">AGENTS</text>
        <text x="0" y="15" font-size="28" fill="#00d4ff" font-weight="bold" filter="url(#textGlow)">4,731</text>
        <text x="0" y="35" font-size="10" fill="#777777">REGISTERED DIDs</text>
    </g>

    <!-- TRANSACTIONS -->
    <g transform="translate(730, 100)">
        <text x="0" y="-20" font-size="12" fill="#aaaaaa">TRANSFERS</text>
        <text x="0" y="15" font-size="28" fill="#ffffff" font-weight="bold">32,738</text>
        <text x="0" y="35" font-size="10" fill="#777777">M2M SETTLEMENTS</text>
    </g>
  </g>

  <text x="425" y="185" font-family="'Consolas', 'Fira Code', monospace" font-size="10" fill="#aaaaaa" opacity="0.6" text-anchor="middle">AXIOMID PROJECTED TARGETS (ILLUSTRATIVE): 2026-09-15 02:28:12 UTC // SECURE_HANDSHAKE</text>
</svg>