<svg width="850" height="200" viewBox="0 0 850 200" xmlns="http://www.w3.org/2000/svg">
  <defs>
    <pattern id="carbonFiber" width="10" height="10" patternUnits="userSpaceOnUse">
        <rect width="10" height="10" fill="#050505"/>
        <path d="M0,0 L5,5 L10,0 L5,-5 Z M5,5 L10,10 L15,5 L10,0 Z M-5,5 L0,10 L5,5 L0,0 Z M0,10 L5,15 L10,10 L5,5 Z" fill="#0d0d0d"/>
    </pattern>
    <filter id="textGlow">
      <feGaussianBlur stdDeviation="2" result="blur" />
      <feMerge>
        <feMergeNode in="blur"/>
        <feMergeNode in="SourceGraphic"/>
      </feMerge>
    </filter>
    <linearGradient id="neonBar" x1="0%" y1="0%" x2="100%" y2="0%">
        <stop offset="0%" stop-color="#111111"/>
        <stop offset="100%" stop-color="#39FF14"/>
    </linearGradient>
    <linearGradient id="scanlineGrad" x1="0%" y1="0%" x2="100%" y2="0%">
        <stop offset="0%" stop-color="#39FF14" stop-opacity="0"/>
        <stop offset="50%" stop-color="#39FF14" stop-opacity="0.18"/>
        <stop offset="100%" stop-color="#39FF14" stop-opacity="0"/>
    </linearGradient>
    <clipPath id="dashClip">
        <rect x="0" y="0" width="850" height="200" rx="12"/>
    </clipPath>
  </defs>

  <rect width="100%" height="100%" fill="url(#carbonFiber)" rx="12" stroke="#39FF14" stroke-width="1" stroke-opacity="0.3"/>
  <rect width="100%" height="100%" fill="#000000" opacity="0.6" rx="12" />
  <g><polygon points="714,123 722.6,128 722.6,138 714,143 705.4,138 705.4,128" fill="none" stroke="#39FF14" stroke-width="1" opacity="0.06636208497505816"/>
<polygon points="458,58 466.6,63 466.6,73 458,78 449.4,73 449.4,63" fill="none" stroke="#39FF14" stroke-width="1" opacity="0.046293946639063374"/>
<polygon points="185,22 193.6,27 193.6,37 185,42 176.4,37 176.4,27" fill="none" stroke="#39FF14" stroke-width="1" opacity="0.038432475232914584"/>
<polygon points="744,14 752.6,19 752.6,29 744,34 735.4,29 735.4,19" fill="none" stroke="#39FF14" stroke-width="1" opacity="0.04401808384142673"/>
<polygon points="13,57 21.6,62 21.6,72 13,77 4.4,72 4.4,62" fill="none" stroke="#39FF14" stroke-width="1" opacity="0.03879083975385682"/>
<polygon points="761,84 769.6,89 769.6,99 761,104 752.4,99 752.4,89" fill="none" stroke="#39FF14" stroke-width="1" opacity="0.06147099597187264"/>
<polygon points="461,166 469.6,171 469.6,181 461,186 452.4,181 452.4,171" fill="none" stroke="#39FF14" stroke-width="1" opacity="0.07625981251844278"/>
<polygon points="348,80 356.6,85 356.6,95 348,100 339.4,95 339.4,85" fill="none" stroke="#39FF14" stroke-width="1" opacity="0.0582255722379111"/>
<polygon points="463,169 471.6,174 471.6,184 463,189 454.4,184 454.4,174" fill="none" stroke="#39FF14" stroke-width="1" opacity="0.0291064197222016"/>
<polygon points="293,37 301.6,42 301.6,52 293,57 284.4,52 284.4,42" fill="none" stroke="#39FF14" stroke-width="1" opacity="0.058153304428479505"/>
<polygon points="77,111 85.6,116 85.6,126 77,131 68.4,126 68.4,116" fill="none" stroke="#39FF14" stroke-width="1" opacity="0.07999145981903427"/>
<polygon points="570,131 578.6,136 578.6,146 570,151 561.4,146 561.4,136" fill="none" stroke="#39FF14" stroke-width="1" opacity="0.025934591844095353"/>
<polygon points="699,173 707.6,178 707.6,188 699,193 690.4,188 690.4,178" fill="none" stroke="#39FF14" stroke-width="1" opacity="0.07556399850218551"/>
<polygon points="713,171 721.6,176 721.6,186 713,191 704.4,186 704.4,176" fill="none" stroke="#39FF14" stroke-width="1" opacity="0.056851877450118354"/>
<polygon points="793,42 801.6,47 801.6,57 793,62 784.4,57 784.4,47" fill="none" stroke="#39FF14" stroke-width="1" opacity="0.07722328748723563"/>
<polygon points="48,123 56.6,128 56.6,138 48,143 39.4,138 39.4,128" fill="none" stroke="#39FF14" stroke-width="1" opacity="0.06638722495300499"/>
<polygon points="149,34 157.6,39 157.6,49 149,54 140.4,49 140.4,39" fill="none" stroke="#39FF14" stroke-width="1" opacity="0.051481392440180046"/>
<polygon points="653,160 661.6,165 661.6,175 653,180 644.4,175 644.4,165" fill="none" stroke="#39FF14" stroke-width="1" opacity="0.04255361281898423"/>
<polygon points="595,77 603.6,82 603.6,92 595,97 586.4,92 586.4,82" fill="none" stroke="#39FF14" stroke-width="1" opacity="0.0741695535027332"/>
<polygon points="397,22 405.6,27 405.6,37 397,42 388.4,37 388.4,27" fill="none" stroke="#39FF14" stroke-width="1" opacity="0.06548806730040484"/>
<polygon points="241,87 249.6,92 249.6,102 241,107 232.4,102 232.4,92" fill="none" stroke="#39FF14" stroke-width="1" opacity="0.04805959044219173"/>
<polygon points="2,106 10.6,111 10.6,121 2,126 -6.6,121 -6.6,111" fill="none" stroke="#39FF14" stroke-width="1" opacity="0.07297950096971514"/>
<polygon points="258,-5 266.6,0 266.6,10 258,15 249.4,10 249.4,0" fill="none" stroke="#39FF14" stroke-width="1" opacity="0.03650402432050825"/>
<polygon points="86,123 94.6,128 94.6,138 86,143 77.4,138 77.4,128" fill="none" stroke="#39FF14" stroke-width="1" opacity="0.05021457191374444"/>
<polygon points="387,186 395.6,191 395.6,201 387,206 378.4,201 378.4,191" fill="none" stroke="#39FF14" stroke-width="1" opacity="0.05321599037271013"/>
<polygon points="102,22 110.6,27 110.6,37 102,42 93.4,37 93.4,27" fill="none" stroke="#39FF14" stroke-width="1" opacity="0.06156851985572517"/>
<polygon points="450,162 458.6,167 458.6,177 450,182 441.4,177 441.4,167" fill="none" stroke="#39FF14" stroke-width="1" opacity="0.07434814119396807"/>
<polygon points="797,21 805.6,26 805.6,36 797,41 788.4,36 788.4,26" fill="none" stroke="#39FF14" stroke-width="1" opacity="0.0347283644881987"/>
<polygon points="794,78 802.6,83 802.6,93 794,98 785.4,93 785.4,83" fill="none" stroke="#39FF14" stroke-width="1" opacity="0.04468182323197736"/>
<polygon points="133,150 141.6,155 141.6,165 133,170 124.4,165 124.4,155" fill="none" stroke="#39FF14" stroke-width="1" opacity="0.0738280769407268"/>
</g>

  <!-- HUD Decorative elements -->
  <path d="M 20 20 L 40 20 L 50 30" fill="none" stroke="#39FF14" stroke-width="2" opacity="0.5"/>
  <path d="M 830 180 L 810 180 L 800 170" fill="none" stroke="#39FF14" stroke-width="2" opacity="0.5"/>

  <g clip-path="url(#dashClip)">
    <rect x="-160" y="0" width="160" height="200" fill="url(#scanlineGrad)">
      <animateTransform attributeName="transform" type="translate"
                        from="0 0" to="1010 0" dur="6s" repeatCount="indefinite"/>
    </rect>
  </g>

  <g font-family="'Consolas', 'Fira Code', monospace" text-anchor="middle">

    <!-- NETWORK STATUS -->
    <g transform="translate(130, 100)">
        <circle cx="0" cy="0" r="45" fill="none" stroke="#39FF14" stroke-width="2" stroke-dasharray="10 5">
            <animateTransform attributeName="transform" type="rotate" from="0" to="360" dur="10s" repeatCount="indefinite"/>
        </circle>
        <circle cx="0" cy="0" r="35" fill="#0d0d0d" />
        <text x="0" y="-60" font-size="12" fill="#aaaaaa" letter-spacing="2">ROOT.AUTH</text>
        <text x="0" y="70" font-size="14" fill="#ffffff" font-weight="bold">OPERATIONAL</text>
    </g>

    <!-- ACTIVE USERS -->
    <g transform="translate(330, 100)">
        <text x="0" y="-20" font-size="12" fill="#aaaaaa">CITIZENS</text>
        <text x="0" y="15" font-size="28" fill="#ffffff" font-weight="bold" filter="url(#textGlow)">12,731</text>
        <text x="0" y="35" font-size="10" fill="#777777">VERIFIED HUMANS</text>
    </g>

    <!-- REGISTERED AGENTS -->
    <g transform="translate(530, 100)">
        <text x="0" y="-20" font-size="12" fill="#aaaaaa">AGENTS</text>
        <text x="0" y="15" font-size="28" fill="#00d4ff" font-weight="bold" filter="url(#textGlow)">3,609</text>
        <text x="0" y="35" font-size="10" fill="#777777">REGISTERED DIDs</text>
    </g>

    <!-- TRANSACTIONS -->
    <g transform="translate(730, 100)">
        <text x="0" y="-20" font-size="12" fill="#aaaaaa">TRANSFERS</text>
        <text x="0" y="15" font-size="28" fill="#ffffff" font-weight="bold">25,872</text>
        <text x="0" y="35" font-size="10" fill="#777777">M2M SETTLEMENTS</text>
    </g>
  </g>

  <text x="425" y="185" font-family="'Consolas', 'Fira Code', monospace" font-size="10" fill="#aaaaaa" opacity="0.6" text-anchor="middle">AXIOMID PROJECTED TARGETS (ILLUSTRATIVE): 2026-07-21 19:03:01 UTC // SECURE_HANDSHAKE</text>
</svg>