<svg width="850" height="200" viewBox="0 0 850 200" xmlns="http://www.w3.org/2000/svg">
  <defs>
    <pattern id="carbonFiber" width="10" height="10" patternUnits="userSpaceOnUse">
        <rect width="10" height="10" fill="#050505"/>
        <path d="M0,0 L5,5 L10,0 L5,-5 Z M5,5 L10,10 L15,5 L10,0 Z M-5,5 L0,10 L5,5 L0,0 Z M0,10 L5,15 L10,10 L5,5 Z" fill="#0d0d0d"/>
    </pattern>
    <filter id="textGlow">
      <feGaussianBlur stdDeviation="2" result="blur" />
      <feMerge>
        <feMergeNode in="blur"/>
        <feMergeNode in="SourceGraphic"/>
      </feMerge>
    </filter>
    <linearGradient id="neonBar" x1="0%" y1="0%" x2="100%" y2="0%">
        <stop offset="0%" stop-color="#111111"/>
        <stop offset="100%" stop-color="#39FF14"/>
    </linearGradient>
    <linearGradient id="scanlineGrad" x1="0%" y1="0%" x2="100%" y2="0%">
        <stop offset="0%" stop-color="#39FF14" stop-opacity="0"/>
        <stop offset="50%" stop-color="#39FF14" stop-opacity="0.18"/>
        <stop offset="100%" stop-color="#39FF14" stop-opacity="0"/>
    </linearGradient>
    <clipPath id="dashClip">
        <rect x="0" y="0" width="850" height="200" rx="12"/>
    </clipPath>
  </defs>

  <rect width="100%" height="100%" fill="url(#carbonFiber)" rx="12" stroke="#39FF14" stroke-width="1" stroke-opacity="0.3"/>
  <rect width="100%" height="100%" fill="#000000" opacity="0.6" rx="12" />
  <g><polygon points="548,48 556.6,53 556.6,63 548,68 539.4,63 539.4,53" fill="none" stroke="#39FF14" stroke-width="1" opacity="0.04465193989200408"/>
<polygon points="538,126 546.6,131 546.6,141 538,146 529.4,141 529.4,131" fill="none" stroke="#39FF14" stroke-width="1" opacity="0.05545499602359669"/>
<polygon points="674,137 682.6,142 682.6,152 674,157 665.4,152 665.4,142" fill="none" stroke="#39FF14" stroke-width="1" opacity="0.06836268690994683"/>
<polygon points="824,22 832.6,27 832.6,37 824,42 815.4,37 815.4,27" fill="none" stroke="#39FF14" stroke-width="1" opacity="0.07042276359530432"/>
<polygon points="23,173 31.6,178 31.6,188 23,193 14.4,188 14.4,178" fill="none" stroke="#39FF14" stroke-width="1" opacity="0.02341298420964768"/>
<polygon points="754,116 762.6,121 762.6,131 754,136 745.4,131 745.4,121" fill="none" stroke="#39FF14" stroke-width="1" opacity="0.03228249345081205"/>
<polygon points="54,56 62.6,61 62.6,71 54,76 45.4,71 45.4,61" fill="none" stroke="#39FF14" stroke-width="1" opacity="0.04759284415582968"/>
<polygon points="452,33 460.6,38 460.6,48 452,53 443.4,48 443.4,38" fill="none" stroke="#39FF14" stroke-width="1" opacity="0.06467625767892646"/>
<polygon points="593,95 601.6,100 601.6,110 593,115 584.4,110 584.4,100" fill="none" stroke="#39FF14" stroke-width="1" opacity="0.04070887260472789"/>
<polygon points="819,99 827.6,104 827.6,114 819,119 810.4,114 810.4,104" fill="none" stroke="#39FF14" stroke-width="1" opacity="0.056776259134726864"/>
<polygon points="198,10 206.6,15 206.6,25 198,30 189.4,25 189.4,15" fill="none" stroke="#39FF14" stroke-width="1" opacity="0.06792580246092078"/>
<polygon points="768,173 776.6,178 776.6,188 768,193 759.4,188 759.4,178" fill="none" stroke="#39FF14" stroke-width="1" opacity="0.0652897533355027"/>
<polygon points="446,67 454.6,72 454.6,82 446,87 437.4,82 437.4,72" fill="none" stroke="#39FF14" stroke-width="1" opacity="0.05747909125023898"/>
<polygon points="384,108 392.6,113 392.6,123 384,128 375.4,123 375.4,113" fill="none" stroke="#39FF14" stroke-width="1" opacity="0.055529687805331476"/>
<polygon points="220,123 228.6,128 228.6,138 220,143 211.4,138 211.4,128" fill="none" stroke="#39FF14" stroke-width="1" opacity="0.05621293798809464"/>
<polygon points="34,29 42.6,34 42.6,44 34,49 25.4,44 25.4,34" fill="none" stroke="#39FF14" stroke-width="1" opacity="0.027816003072006528"/>
<polygon points="367,49 375.6,54 375.6,64 367,69 358.4,64 358.4,54" fill="none" stroke="#39FF14" stroke-width="1" opacity="0.024761301411982184"/>
<polygon points="830,47 838.6,52 838.6,62 830,67 821.4,62 821.4,52" fill="none" stroke="#39FF14" stroke-width="1" opacity="0.04979274541552202"/>
<polygon points="642,135 650.6,140 650.6,150 642,155 633.4,150 633.4,140" fill="none" stroke="#39FF14" stroke-width="1" opacity="0.0704642625187819"/>
<polygon points="510,117 518.6,122 518.6,132 510,137 501.4,132 501.4,122" fill="none" stroke="#39FF14" stroke-width="1" opacity="0.0315076929713527"/>
<polygon points="73,-2 81.6,3 81.6,13 73,18 64.4,13 64.4,3" fill="none" stroke="#39FF14" stroke-width="1" opacity="0.05492651563462338"/>
<polygon points="410,33 418.6,38 418.6,48 410,53 401.4,48 401.4,38" fill="none" stroke="#39FF14" stroke-width="1" opacity="0.06994234970249724"/>
<polygon points="547,155 555.6,160 555.6,170 547,175 538.4,170 538.4,160" fill="none" stroke="#39FF14" stroke-width="1" opacity="0.030207657826327033"/>
<polygon points="95,91 103.6,96 103.6,106 95,111 86.4,106 86.4,96" fill="none" stroke="#39FF14" stroke-width="1" opacity="0.05773424256426256"/>
<polygon points="643,107 651.6,112 651.6,122 643,127 634.4,122 634.4,112" fill="none" stroke="#39FF14" stroke-width="1" opacity="0.06438256026383869"/>
<polygon points="122,91 130.6,96 130.6,106 122,111 113.4,106 113.4,96" fill="none" stroke="#39FF14" stroke-width="1" opacity="0.02171959137398731"/>
<polygon points="499,66 507.6,71 507.6,81 499,86 490.4,81 490.4,71" fill="none" stroke="#39FF14" stroke-width="1" opacity="0.06468387204777316"/>
<polygon points="469,97 477.6,102 477.6,112 469,117 460.4,112 460.4,102" fill="none" stroke="#39FF14" stroke-width="1" opacity="0.07851686809054234"/>
<polygon points="147,162 155.6,167 155.6,177 147,182 138.4,177 138.4,167" fill="none" stroke="#39FF14" stroke-width="1" opacity="0.06479380829128122"/>
<polygon points="838,98 846.6,103 846.6,113 838,118 829.4,113 829.4,103" fill="none" stroke="#39FF14" stroke-width="1" opacity="0.058727063234003535"/>
</g>

  <!-- HUD Decorative elements -->
  <path d="M 20 20 L 40 20 L 50 30" fill="none" stroke="#39FF14" stroke-width="2" opacity="0.5"/>
  <path d="M 830 180 L 810 180 L 800 170" fill="none" stroke="#39FF14" stroke-width="2" opacity="0.5"/>

  <g clip-path="url(#dashClip)">
    <rect x="-160" y="0" width="160" height="200" fill="url(#scanlineGrad)">
      <animateTransform attributeName="transform" type="translate"
                        from="0 0" to="1010 0" dur="6s" repeatCount="indefinite"/>
    </rect>
  </g>

  <g font-family="'Consolas', 'Fira Code', monospace" text-anchor="middle">

    <!-- NETWORK STATUS -->
    <g transform="translate(130, 100)">
        <circle cx="0" cy="0" r="45" fill="none" stroke="#39FF14" stroke-width="2" stroke-dasharray="10 5">
            <animateTransform attributeName="transform" type="rotate" from="0" to="360" dur="10s" repeatCount="indefinite"/>
        </circle>
        <circle cx="0" cy="0" r="35" fill="#0d0d0d" />
        <text x="0" y="-60" font-size="12" fill="#aaaaaa" letter-spacing="2">ROOT.AUTH</text>
        <text x="0" y="70" font-size="14" fill="#ffffff" font-weight="bold">OPERATIONAL</text>
    </g>

    <!-- ACTIVE USERS -->
    <g transform="translate(330, 100)">
        <text x="0" y="-20" font-size="12" fill="#aaaaaa">CITIZENS</text>
        <text x="0" y="15" font-size="28" fill="#ffffff" font-weight="bold" filter="url(#textGlow)">12,903</text>
        <text x="0" y="35" font-size="10" fill="#777777">VERIFIED HUMANS</text>
    </g>

    <!-- REGISTERED AGENTS -->
    <g transform="translate(530, 100)">
        <text x="0" y="-20" font-size="12" fill="#aaaaaa">AGENTS</text>
        <text x="0" y="15" font-size="28" fill="#00d4ff" font-weight="bold" filter="url(#textGlow)">3,835</text>
        <text x="0" y="35" font-size="10" fill="#777777">REGISTERED DIDs</text>
    </g>

    <!-- TRANSACTIONS -->
    <g transform="translate(730, 100)">
        <text x="0" y="-20" font-size="12" fill="#aaaaaa">TRANSFERS</text>
        <text x="0" y="15" font-size="28" fill="#ffffff" font-weight="bold">37,307</text>
        <text x="0" y="35" font-size="10" fill="#777777">M2M SETTLEMENTS</text>
    </g>
  </g>

  <text x="425" y="185" font-family="'Consolas', 'Fira Code', monospace" font-size="10" fill="#aaaaaa" opacity="0.6" text-anchor="middle">AXIOMID PROJECTED TARGETS (ILLUSTRATIVE): 2026-07-15 07:50:12 UTC // SECURE_HANDSHAKE</text>
</svg>