<svg width="850" height="200" viewBox="0 0 850 200" xmlns="http://www.w3.org/2000/svg">
  <defs>
    <!-- Carbon Fiber Pattern -->
    <pattern id="carbonFiber" width="10" height="10" patternUnits="userSpaceOnUse">
        <rect width="10" height="10" fill="#050505"/>
        <path d="M0,0 L5,5 L10,0 L5,-5 Z M5,5 L10,10 L15,5 L10,0 Z M-5,5 L0,10 L5,5 L0,0 Z M0,10 L5,15 L10,10 L5,5 Z" fill="#0d0d0d"/>
    </pattern>
    <filter id="glassmorphism">
      <feGaussianBlur stdDeviation="3" result="blur" />
      <feColorMatrix type="matrix" values="1 0 0 0 0  0 1 0 0 0  0 0 1 0 0  0 0 0 18 -7" result="glow" />
      <feBlend in="SourceGraphic" in2="glow" mode="normal" />
    </filter>
    <filter id="textGlow">
      <feGaussianBlur stdDeviation="2" result="blur" />
      <feMerge>
        <feMergeNode in="blur"/>
        <feMergeNode in="SourceGraphic"/>
      </feMerge>
    </filter>
    <linearGradient id="neonBar" x1="0%" y1="0%" x2="100%" y2="0%">
        <stop offset="0%" stop-color="#111111"/>
        <stop offset="100%" stop-color="#39FF14"/>
    </linearGradient>
  </defs>

  <rect width="100%" height="100%" fill="url(#carbonFiber)" rx="12" stroke="#39FF14" stroke-width="1" stroke-opacity="0.3"/>
  <rect width="100%" height="100%" fill="#000000" opacity="0.6" rx="12" />
  <g><polygon points="58,4 66.6,9 66.6,19 58,24 49.4,19 49.4,9" fill="none" stroke="#39FF14" stroke-width="1" opacity="0.07467156989459765"/>
<polygon points="731,171 739.6,176 739.6,186 731,191 722.4,186 722.4,176" fill="none" stroke="#39FF14" stroke-width="1" opacity="0.04455345863844584"/>
<polygon points="458,183 466.6,188 466.6,198 458,203 449.4,198 449.4,188" fill="none" stroke="#39FF14" stroke-width="1" opacity="0.027315918304745473"/>
<polygon points="764,133 772.6,138 772.6,148 764,153 755.4,148 755.4,138" fill="none" stroke="#39FF14" stroke-width="1" opacity="0.024073413581485292"/>
<polygon points="203,121 211.6,126 211.6,136 203,141 194.4,136 194.4,126" fill="none" stroke="#39FF14" stroke-width="1" opacity="0.03650590502901688"/>
<polygon points="392,67 400.6,72 400.6,82 392,87 383.4,82 383.4,72" fill="none" stroke="#39FF14" stroke-width="1" opacity="0.04250787485277152"/>
<polygon points="509,59 517.6,64 517.6,74 509,79 500.4,74 500.4,64" fill="none" stroke="#39FF14" stroke-width="1" opacity="0.06278293618678257"/>
<polygon points="426,156 434.6,161 434.6,171 426,176 417.4,171 417.4,161" fill="none" stroke="#39FF14" stroke-width="1" opacity="0.06290567933191207"/>
<polygon points="304,167 312.6,172 312.6,182 304,187 295.4,182 295.4,172" fill="none" stroke="#39FF14" stroke-width="1" opacity="0.0399950061889354"/>
<polygon points="794,63 802.6,68 802.6,78 794,83 785.4,78 785.4,68" fill="none" stroke="#39FF14" stroke-width="1" opacity="0.04232771718179473"/>
<polygon points="369,97 377.6,102 377.6,112 369,117 360.4,112 360.4,102" fill="none" stroke="#39FF14" stroke-width="1" opacity="0.0238170263236069"/>
<polygon points="805,107 813.6,112 813.6,122 805,127 796.4,122 796.4,112" fill="none" stroke="#39FF14" stroke-width="1" opacity="0.06730428197357888"/>
<polygon points="19,157 27.6,162 27.6,172 19,177 10.4,172 10.4,162" fill="none" stroke="#39FF14" stroke-width="1" opacity="0.0739953821021167"/>
<polygon points="527,107 535.6,112 535.6,122 527,127 518.4,122 518.4,112" fill="none" stroke="#39FF14" stroke-width="1" opacity="0.030939122965164004"/>
<polygon points="504,68 512.6,73 512.6,83 504,88 495.4,83 495.4,73" fill="none" stroke="#39FF14" stroke-width="1" opacity="0.03964379111689453"/>
<polygon points="774,165 782.6,170 782.6,180 774,185 765.4,180 765.4,170" fill="none" stroke="#39FF14" stroke-width="1" opacity="0.02402614187862128"/>
<polygon points="167,171 175.6,176 175.6,186 167,191 158.4,186 158.4,176" fill="none" stroke="#39FF14" stroke-width="1" opacity="0.03863341340170837"/>
<polygon points="114,153 122.6,158 122.6,168 114,173 105.4,168 105.4,158" fill="none" stroke="#39FF14" stroke-width="1" opacity="0.05524386998742219"/>
<polygon points="355,-2 363.6,3 363.6,13 355,18 346.4,13 346.4,3" fill="none" stroke="#39FF14" stroke-width="1" opacity="0.07675604001019481"/>
<polygon points="164,146 172.6,151 172.6,161 164,166 155.4,161 155.4,151" fill="none" stroke="#39FF14" stroke-width="1" opacity="0.023493773718822185"/>
<polygon points="550,97 558.6,102 558.6,112 550,117 541.4,112 541.4,102" fill="none" stroke="#39FF14" stroke-width="1" opacity="0.03768019969525645"/>
<polygon points="339,61 347.6,66 347.6,76 339,81 330.4,76 330.4,66" fill="none" stroke="#39FF14" stroke-width="1" opacity="0.026532288647438236"/>
<polygon points="669,125 677.6,130 677.6,140 669,145 660.4,140 660.4,130" fill="none" stroke="#39FF14" stroke-width="1" opacity="0.03138853854363801"/>
<polygon points="236,77 244.6,82 244.6,92 236,97 227.4,92 227.4,82" fill="none" stroke="#39FF14" stroke-width="1" opacity="0.07896822497054273"/>
<polygon points="673,85 681.6,90 681.6,100 673,105 664.4,100 664.4,90" fill="none" stroke="#39FF14" stroke-width="1" opacity="0.054565597158139814"/>
<polygon points="756,-10 764.6,-5 764.6,5 756,10 747.4,5 747.4,-5" fill="none" stroke="#39FF14" stroke-width="1" opacity="0.040744182991379774"/>
<polygon points="794,151 802.6,156 802.6,166 794,171 785.4,166 785.4,156" fill="none" stroke="#39FF14" stroke-width="1" opacity="0.07719646147552729"/>
<polygon points="136,60 144.6,65 144.6,75 136,80 127.4,75 127.4,65" fill="none" stroke="#39FF14" stroke-width="1" opacity="0.03954877223628828"/>
<polygon points="514,95 522.6,100 522.6,110 514,115 505.4,110 505.4,100" fill="none" stroke="#39FF14" stroke-width="1" opacity="0.079723861563919"/>
<polygon points="803,82 811.6,87 811.6,97 803,102 794.4,97 794.4,87" fill="none" stroke="#39FF14" stroke-width="1" opacity="0.03355558666203496"/>
</g>

  <!-- HUD Decorative elements -->
  <path d="M 20 20 L 40 20 L 50 30" fill="none" stroke="#39FF14" stroke-width="2" opacity="0.5"/>
  <path d="M 830 180 L 810 180 L 800 170" fill="none" stroke="#39FF14" stroke-width="2" opacity="0.5"/>
  <rect x="20" y="100" width="2" height="40" fill="#ffffff" opacity="0.4"/>
  <rect x="828" y="60" width="2" height="40" fill="#39FF14" opacity="0.6"/>

  <g font-family="'Consolas', 'Fira Code', monospace" text-anchor="middle">

    <!-- SYSTEM STATUS -->
    <g transform="translate(130, 100)">
        <circle cx="0" cy="0" r="45" fill="none" stroke="#111111" stroke-width="8" />
        <circle cx="0" cy="0" r="45" fill="none" stroke="#39FF14" stroke-width="2" stroke-dasharray="10 5">
            <animateTransform attributeName="transform" type="rotate" from="0" to="360" dur="10s" repeatCount="indefinite"/>
        </circle>
        <circle cx="0" cy="0" r="35" fill="#0d0d0d" />
        <circle cx="0" cy="0" r="6" fill="#39FF14" filter="url(#textGlow)">
            <animate attributeName="opacity" values="1;0.3;1" dur="2s" repeatCount="indefinite"/>
        </circle>
        <text x="0" y="-60" font-size="12" fill="#aaaaaa" letter-spacing="2">SYS.CORE</text>
        <text x="0" y="70" font-size="14" fill="#ffffff" font-weight="bold">ONLINE</text>
    </g>

    <!-- LIVE TRAFFIC -->
    <g transform="translate(330, 100)">
        <rect x="-60" y="-45" width="120" height="90" fill="#0a0a0a" rx="8" stroke="#39FF14" stroke-opacity="0.4" stroke-width="1"/>
        <text x="0" y="-20" font-size="12" fill="#aaaaaa">NETWORK LOAD</text>
        <text x="0" y="15" font-size="28" fill="#ffffff" font-weight="bold" filter="url(#textGlow)">3976</text>
        <text x="0" y="35" font-size="10" fill="#777777">ACTIVE SESSIONS</text>
    </g>

    <!-- ACTIVE AGENTS -->
    <g transform="translate(530, 100)">
        <rect x="-60" y="-45" width="120" height="90" fill="#0a0a0a" rx="8" stroke="#39FF14" stroke-opacity="0.4" stroke-width="1"/>
        <text x="0" y="-20" font-size="12" fill="#aaaaaa">SWARM ENTITIES</text>
        <text x="0" y="15" font-size="28" fill="#ffffff" font-weight="bold" filter="url(#textGlow)">84</text>
        <text x="0" y="35" font-size="10" fill="#777777">AUTONOMOUS</text>
    </g>

    <!-- UPTIME -->
    <g transform="translate(730, 100)">
        <path d="M -40 -35 L 40 -35 L 50 -25 L 50 35 L -40 35 L -50 25 Z" fill="#0a0a0a" stroke="#39FF14" stroke-opacity="0.4" stroke-width="1"/>
        <text x="0" y="-15" font-size="12" fill="#aaaaaa">CONTINUITY</text>
        <text x="0" y="15" font-size="24" fill="#ffffff" font-weight="bold">277<tspan font-size="14" fill="#777777">d</tspan></text>
        <rect x="-35" y="25" width="70" height="4" fill="url(#neonBar)" rx="2"/>
    </g>
  </g>

  <text x="425" y="185" font-family="'Consolas', 'Fira Code', monospace" font-size="10" fill="#aaaaaa" opacity="0.6" text-anchor="middle">LAST TELEMETRY PING: 2026-05-01 18:29:39 UTC // ENCRYPTED_TUNNEL</text>
</svg>