<svg width="850" height="200" viewBox="0 0 850 200" xmlns="http://www.w3.org/2000/svg">
  <defs>
    <pattern id="carbonFiber" width="10" height="10" patternUnits="userSpaceOnUse">
        <rect width="10" height="10" fill="#050505"/>
        <path d="M0,0 L5,5 L10,0 L5,-5 Z M5,5 L10,10 L15,5 L10,0 Z M-5,5 L0,10 L5,5 L0,0 Z M0,10 L5,15 L10,10 L5,5 Z" fill="#0d0d0d"/>
    </pattern>
    <filter id="textGlow">
      <feGaussianBlur stdDeviation="2" result="blur" />
      <feMerge>
        <feMergeNode in="blur"/>
        <feMergeNode in="SourceGraphic"/>
      </feMerge>
    </filter>
    <linearGradient id="neonBar" x1="0%" y1="0%" x2="100%" y2="0%">
        <stop offset="0%" stop-color="#111111"/>
        <stop offset="100%" stop-color="#39FF14"/>
    </linearGradient>
    <linearGradient id="scanlineGrad" x1="0%" y1="0%" x2="100%" y2="0%">
        <stop offset="0%" stop-color="#39FF14" stop-opacity="0"/>
        <stop offset="50%" stop-color="#39FF14" stop-opacity="0.18"/>
        <stop offset="100%" stop-color="#39FF14" stop-opacity="0"/>
    </linearGradient>
    <clipPath id="dashClip">
        <rect x="0" y="0" width="850" height="200" rx="12"/>
    </clipPath>
  </defs>

  <rect width="100%" height="100%" fill="url(#carbonFiber)" rx="12" stroke="#39FF14" stroke-width="1" stroke-opacity="0.3"/>
  <rect width="100%" height="100%" fill="#000000" opacity="0.6" rx="12" />
  <g><polygon points="104,126 112.6,131 112.6,141 104,146 95.4,141 95.4,131" fill="none" stroke="#39FF14" stroke-width="1" opacity="0.05129463568444623"/>
<polygon points="332,48 340.6,53 340.6,63 332,68 323.4,63 323.4,53" fill="none" stroke="#39FF14" stroke-width="1" opacity="0.05410615842655546"/>
<polygon points="838,125 846.6,130 846.6,140 838,145 829.4,140 829.4,130" fill="none" stroke="#39FF14" stroke-width="1" opacity="0.04882127441460965"/>
<polygon points="8,151 16.6,156 16.6,166 8,171 -0.5999999999999996,166 -0.5999999999999996,156" fill="none" stroke="#39FF14" stroke-width="1" opacity="0.07784321707329703"/>
<polygon points="539,57 547.6,62 547.6,72 539,77 530.4,72 530.4,62" fill="none" stroke="#39FF14" stroke-width="1" opacity="0.03984641476511351"/>
<polygon points="240,174 248.6,179 248.6,189 240,194 231.4,189 231.4,179" fill="none" stroke="#39FF14" stroke-width="1" opacity="0.06258948339385832"/>
<polygon points="125,114 133.6,119 133.6,129 125,134 116.4,129 116.4,119" fill="none" stroke="#39FF14" stroke-width="1" opacity="0.07399274070614707"/>
<polygon points="305,125 313.6,130 313.6,140 305,145 296.4,140 296.4,130" fill="none" stroke="#39FF14" stroke-width="1" opacity="0.045016897361731936"/>
<polygon points="243,113 251.6,118 251.6,128 243,133 234.4,128 234.4,118" fill="none" stroke="#39FF14" stroke-width="1" opacity="0.02869550134527115"/>
<polygon points="506,114 514.6,119 514.6,129 506,134 497.4,129 497.4,119" fill="none" stroke="#39FF14" stroke-width="1" opacity="0.07988377476358738"/>
<polygon points="357,98 365.6,103 365.6,113 357,118 348.4,113 348.4,103" fill="none" stroke="#39FF14" stroke-width="1" opacity="0.025294747464554974"/>
<polygon points="121,11 129.6,16 129.6,26 121,31 112.4,26 112.4,16" fill="none" stroke="#39FF14" stroke-width="1" opacity="0.025424555746029972"/>
<polygon points="598,62 606.6,67 606.6,77 598,82 589.4,77 589.4,67" fill="none" stroke="#39FF14" stroke-width="1" opacity="0.05766637453841607"/>
<polygon points="240,-3 248.6,2 248.6,12 240,17 231.4,12 231.4,2" fill="none" stroke="#39FF14" stroke-width="1" opacity="0.027130191703884615"/>
<polygon points="830,40 838.6,45 838.6,55 830,60 821.4,55 821.4,45" fill="none" stroke="#39FF14" stroke-width="1" opacity="0.04579605403035136"/>
<polygon points="16,30 24.6,35 24.6,45 16,50 7.4,45 7.4,35" fill="none" stroke="#39FF14" stroke-width="1" opacity="0.031355627510953686"/>
<polygon points="738,89 746.6,94 746.6,104 738,109 729.4,104 729.4,94" fill="none" stroke="#39FF14" stroke-width="1" opacity="0.03502102653360287"/>
<polygon points="417,173 425.6,178 425.6,188 417,193 408.4,188 408.4,178" fill="none" stroke="#39FF14" stroke-width="1" opacity="0.0739436667237868"/>
<polygon points="207,28 215.6,33 215.6,43 207,48 198.4,43 198.4,33" fill="none" stroke="#39FF14" stroke-width="1" opacity="0.03733079641979768"/>
<polygon points="748,13 756.6,18 756.6,28 748,33 739.4,28 739.4,18" fill="none" stroke="#39FF14" stroke-width="1" opacity="0.0769287787627518"/>
<polygon points="85,116 93.6,121 93.6,131 85,136 76.4,131 76.4,121" fill="none" stroke="#39FF14" stroke-width="1" opacity="0.025926992374053433"/>
<polygon points="137,100 145.6,105 145.6,115 137,120 128.4,115 128.4,105" fill="none" stroke="#39FF14" stroke-width="1" opacity="0.07313098988157155"/>
<polygon points="706,156 714.6,161 714.6,171 706,176 697.4,171 697.4,161" fill="none" stroke="#39FF14" stroke-width="1" opacity="0.05684023650670478"/>
<polygon points="180,127 188.6,132 188.6,142 180,147 171.4,142 171.4,132" fill="none" stroke="#39FF14" stroke-width="1" opacity="0.0331311802789281"/>
<polygon points="498,128 506.6,133 506.6,143 498,148 489.4,143 489.4,133" fill="none" stroke="#39FF14" stroke-width="1" opacity="0.05545208279325903"/>
<polygon points="743,0 751.6,5 751.6,15 743,20 734.4,15 734.4,5" fill="none" stroke="#39FF14" stroke-width="1" opacity="0.04878043984913065"/>
<polygon points="285,39 293.6,44 293.6,54 285,59 276.4,54 276.4,44" fill="none" stroke="#39FF14" stroke-width="1" opacity="0.031793815179911665"/>
<polygon points="266,104 274.6,109 274.6,119 266,124 257.4,119 257.4,109" fill="none" stroke="#39FF14" stroke-width="1" opacity="0.06612047977152023"/>
<polygon points="848,10 856.6,15 856.6,25 848,30 839.4,25 839.4,15" fill="none" stroke="#39FF14" stroke-width="1" opacity="0.031093896430358387"/>
<polygon points="760,148 768.6,153 768.6,163 760,168 751.4,163 751.4,153" fill="none" stroke="#39FF14" stroke-width="1" opacity="0.07482426566454899"/>
</g>

  <!-- HUD Decorative elements -->
  <path d="M 20 20 L 40 20 L 50 30" fill="none" stroke="#39FF14" stroke-width="2" opacity="0.5"/>
  <path d="M 830 180 L 810 180 L 800 170" fill="none" stroke="#39FF14" stroke-width="2" opacity="0.5"/>

  <g clip-path="url(#dashClip)">
    <rect x="-160" y="0" width="160" height="200" fill="url(#scanlineGrad)">
      <animateTransform attributeName="transform" type="translate"
                        from="0 0" to="1010 0" dur="6s" repeatCount="indefinite"/>
    </rect>
  </g>

  <g font-family="'Consolas', 'Fira Code', monospace" text-anchor="middle">

    <!-- NETWORK STATUS -->
    <g transform="translate(130, 100)">
        <circle cx="0" cy="0" r="45" fill="none" stroke="#39FF14" stroke-width="2" stroke-dasharray="10 5">
            <animateTransform attributeName="transform" type="rotate" from="0" to="360" dur="10s" repeatCount="indefinite"/>
        </circle>
        <circle cx="0" cy="0" r="35" fill="#0d0d0d" />
        <text x="0" y="-60" font-size="12" fill="#aaaaaa" letter-spacing="2">ROOT.AUTH</text>
        <text x="0" y="70" font-size="14" fill="#ffffff" font-weight="bold">OPERATIONAL</text>
    </g>

    <!-- ACTIVE USERS -->
    <g transform="translate(330, 100)">
        <text x="0" y="-20" font-size="12" fill="#aaaaaa">CITIZENS</text>
        <text x="0" y="15" font-size="28" fill="#ffffff" font-weight="bold" filter="url(#textGlow)">13,636</text>
        <text x="0" y="35" font-size="10" fill="#777777">VERIFIED HUMANS</text>
    </g>

    <!-- REGISTERED AGENTS -->
    <g transform="translate(530, 100)">
        <text x="0" y="-20" font-size="12" fill="#aaaaaa">AGENTS</text>
        <text x="0" y="15" font-size="28" fill="#00d4ff" font-weight="bold" filter="url(#textGlow)">4,143</text>
        <text x="0" y="35" font-size="10" fill="#777777">REGISTERED DIDs</text>
    </g>

    <!-- TRANSACTIONS -->
    <g transform="translate(730, 100)">
        <text x="0" y="-20" font-size="12" fill="#aaaaaa">TRANSFERS</text>
        <text x="0" y="15" font-size="28" fill="#ffffff" font-weight="bold">36,074</text>
        <text x="0" y="35" font-size="10" fill="#777777">M2M SETTLEMENTS</text>
    </g>
  </g>

  <text x="425" y="185" font-family="'Consolas', 'Fira Code', monospace" font-size="10" fill="#aaaaaa" opacity="0.6" text-anchor="middle">AXIOMID PROJECTED TARGETS (ILLUSTRATIVE): 2026-06-23 12:52:21 UTC // SECURE_HANDSHAKE</text>
</svg>