<svg width="850" height="200" viewBox="0 0 850 200" xmlns="http://www.w3.org/2000/svg">
  <defs>
    <pattern id="carbonFiber" width="10" height="10" patternUnits="userSpaceOnUse">
        <rect width="10" height="10" fill="#050505"/>
        <path d="M0,0 L5,5 L10,0 L5,-5 Z M5,5 L10,10 L15,5 L10,0 Z M-5,5 L0,10 L5,5 L0,0 Z M0,10 L5,15 L10,10 L5,5 Z" fill="#0d0d0d"/>
    </pattern>
    <filter id="textGlow">
      <feGaussianBlur stdDeviation="2" result="blur" />
      <feMerge>
        <feMergeNode in="blur"/>
        <feMergeNode in="SourceGraphic"/>
      </feMerge>
    </filter>
    <linearGradient id="neonBar" x1="0%" y1="0%" x2="100%" y2="0%">
        <stop offset="0%" stop-color="#111111"/>
        <stop offset="100%" stop-color="#39FF14"/>
    </linearGradient>
    <linearGradient id="scanlineGrad" x1="0%" y1="0%" x2="100%" y2="0%">
        <stop offset="0%" stop-color="#39FF14" stop-opacity="0"/>
        <stop offset="50%" stop-color="#39FF14" stop-opacity="0.18"/>
        <stop offset="100%" stop-color="#39FF14" stop-opacity="0"/>
    </linearGradient>
    <clipPath id="dashClip">
        <rect x="0" y="0" width="850" height="200" rx="12"/>
    </clipPath>
  </defs>

  <rect width="100%" height="100%" fill="url(#carbonFiber)" rx="12" stroke="#39FF14" stroke-width="1" stroke-opacity="0.3"/>
  <rect width="100%" height="100%" fill="#000000" opacity="0.6" rx="12" />
  <g><polygon points="816,9 824.6,14 824.6,24 816,29 807.4,24 807.4,14" fill="none" stroke="#39FF14" stroke-width="1" opacity="0.05461660129813743"/>
<polygon points="567,134 575.6,139 575.6,149 567,154 558.4,149 558.4,139" fill="none" stroke="#39FF14" stroke-width="1" opacity="0.05798774708133332"/>
<polygon points="63,65 71.6,70 71.6,80 63,85 54.4,80 54.4,70" fill="none" stroke="#39FF14" stroke-width="1" opacity="0.06174497346353501"/>
<polygon points="594,180 602.6,185 602.6,195 594,200 585.4,195 585.4,185" fill="none" stroke="#39FF14" stroke-width="1" opacity="0.03578662177647966"/>
<polygon points="742,153 750.6,158 750.6,168 742,173 733.4,168 733.4,158" fill="none" stroke="#39FF14" stroke-width="1" opacity="0.0522752757334079"/>
<polygon points="212,183 220.6,188 220.6,198 212,203 203.4,198 203.4,188" fill="none" stroke="#39FF14" stroke-width="1" opacity="0.03117351635746498"/>
<polygon points="479,101 487.6,106 487.6,116 479,121 470.4,116 470.4,106" fill="none" stroke="#39FF14" stroke-width="1" opacity="0.026115779148238847"/>
<polygon points="635,72 643.6,77 643.6,87 635,92 626.4,87 626.4,77" fill="none" stroke="#39FF14" stroke-width="1" opacity="0.030072230914990783"/>
<polygon points="266,104 274.6,109 274.6,119 266,124 257.4,119 257.4,109" fill="none" stroke="#39FF14" stroke-width="1" opacity="0.06587237796117555"/>
<polygon points="684,81 692.6,86 692.6,96 684,101 675.4,96 675.4,86" fill="none" stroke="#39FF14" stroke-width="1" opacity="0.05201273878986015"/>
<polygon points="699,152 707.6,157 707.6,167 699,172 690.4,167 690.4,157" fill="none" stroke="#39FF14" stroke-width="1" opacity="0.021862580497020535"/>
<polygon points="502,161 510.6,166 510.6,176 502,181 493.4,176 493.4,166" fill="none" stroke="#39FF14" stroke-width="1" opacity="0.05998515092228686"/>
<polygon points="438,32 446.6,37 446.6,47 438,52 429.4,47 429.4,37" fill="none" stroke="#39FF14" stroke-width="1" opacity="0.06286504731700313"/>
<polygon points="112,110 120.6,115 120.6,125 112,130 103.4,125 103.4,115" fill="none" stroke="#39FF14" stroke-width="1" opacity="0.03948423463603895"/>
<polygon points="812,162 820.6,167 820.6,177 812,182 803.4,177 803.4,167" fill="none" stroke="#39FF14" stroke-width="1" opacity="0.06930644704522314"/>
<polygon points="658,41 666.6,46 666.6,56 658,61 649.4,56 649.4,46" fill="none" stroke="#39FF14" stroke-width="1" opacity="0.054448912766520335"/>
<polygon points="161,7 169.6,12 169.6,22 161,27 152.4,22 152.4,12" fill="none" stroke="#39FF14" stroke-width="1" opacity="0.04510842422839632"/>
<polygon points="796,32 804.6,37 804.6,47 796,52 787.4,47 787.4,37" fill="none" stroke="#39FF14" stroke-width="1" opacity="0.07181378943609414"/>
<polygon points="72,115 80.6,120 80.6,130 72,135 63.4,130 63.4,120" fill="none" stroke="#39FF14" stroke-width="1" opacity="0.031046502655179203"/>
<polygon points="50,139 58.6,144 58.6,154 50,159 41.4,154 41.4,144" fill="none" stroke="#39FF14" stroke-width="1" opacity="0.05440771754180701"/>
<polygon points="772,54 780.6,59 780.6,69 772,74 763.4,69 763.4,59" fill="none" stroke="#39FF14" stroke-width="1" opacity="0.0767840346552737"/>
<polygon points="845,180 853.6,185 853.6,195 845,200 836.4,195 836.4,185" fill="none" stroke="#39FF14" stroke-width="1" opacity="0.05062953686993172"/>
<polygon points="185,12 193.6,17 193.6,27 185,32 176.4,27 176.4,17" fill="none" stroke="#39FF14" stroke-width="1" opacity="0.05754887158264263"/>
<polygon points="61,-5 69.6,0 69.6,10 61,15 52.4,10 52.4,0" fill="none" stroke="#39FF14" stroke-width="1" opacity="0.04488571749005926"/>
<polygon points="704,35 712.6,40 712.6,50 704,55 695.4,50 695.4,40" fill="none" stroke="#39FF14" stroke-width="1" opacity="0.025505469384860327"/>
<polygon points="518,178 526.6,183 526.6,193 518,198 509.4,193 509.4,183" fill="none" stroke="#39FF14" stroke-width="1" opacity="0.022945867927959544"/>
<polygon points="806,134 814.6,139 814.6,149 806,154 797.4,149 797.4,139" fill="none" stroke="#39FF14" stroke-width="1" opacity="0.03879098167600791"/>
<polygon points="65,17 73.6,22 73.6,32 65,37 56.4,32 56.4,22" fill="none" stroke="#39FF14" stroke-width="1" opacity="0.05932744977711071"/>
<polygon points="293,148 301.6,153 301.6,163 293,168 284.4,163 284.4,153" fill="none" stroke="#39FF14" stroke-width="1" opacity="0.061448116805496555"/>
<polygon points="722,70 730.6,75 730.6,85 722,90 713.4,85 713.4,75" fill="none" stroke="#39FF14" stroke-width="1" opacity="0.02303190496386703"/>
</g>

  <!-- HUD Decorative elements -->
  <path d="M 20 20 L 40 20 L 50 30" fill="none" stroke="#39FF14" stroke-width="2" opacity="0.5"/>
  <path d="M 830 180 L 810 180 L 800 170" fill="none" stroke="#39FF14" stroke-width="2" opacity="0.5"/>

  <g clip-path="url(#dashClip)">
    <rect x="-160" y="0" width="160" height="200" fill="url(#scanlineGrad)">
      <animateTransform attributeName="transform" type="translate"
                        from="0 0" to="1010 0" dur="6s" repeatCount="indefinite"/>
    </rect>
  </g>

  <g font-family="'Consolas', 'Fira Code', monospace" text-anchor="middle">

    <!-- NETWORK STATUS -->
    <g transform="translate(130, 100)">
        <circle cx="0" cy="0" r="45" fill="none" stroke="#39FF14" stroke-width="2" stroke-dasharray="10 5">
            <animateTransform attributeName="transform" type="rotate" from="0" to="360" dur="10s" repeatCount="indefinite"/>
        </circle>
        <circle cx="0" cy="0" r="35" fill="#0d0d0d" />
        <text x="0" y="-60" font-size="12" fill="#aaaaaa" letter-spacing="2">ROOT.AUTH</text>
        <text x="0" y="70" font-size="14" fill="#ffffff" font-weight="bold">OPERATIONAL</text>
    </g>

    <!-- ACTIVE USERS -->
    <g transform="translate(330, 100)">
        <text x="0" y="-20" font-size="12" fill="#aaaaaa">CITIZENS</text>
        <text x="0" y="15" font-size="28" fill="#ffffff" font-weight="bold" filter="url(#textGlow)">13,039</text>
        <text x="0" y="35" font-size="10" fill="#777777">VERIFIED HUMANS</text>
    </g>

    <!-- REGISTERED AGENTS -->
    <g transform="translate(530, 100)">
        <text x="0" y="-20" font-size="12" fill="#aaaaaa">AGENTS</text>
        <text x="0" y="15" font-size="28" fill="#00d4ff" font-weight="bold" filter="url(#textGlow)">4,784</text>
        <text x="0" y="35" font-size="10" fill="#777777">REGISTERED DIDs</text>
    </g>

    <!-- TRANSACTIONS -->
    <g transform="translate(730, 100)">
        <text x="0" y="-20" font-size="12" fill="#aaaaaa">TRANSFERS</text>
        <text x="0" y="15" font-size="28" fill="#ffffff" font-weight="bold">25,949</text>
        <text x="0" y="35" font-size="10" fill="#777777">M2M SETTLEMENTS</text>
    </g>
  </g>

  <text x="425" y="185" font-family="'Consolas', 'Fira Code', monospace" font-size="10" fill="#aaaaaa" opacity="0.6" text-anchor="middle">AXIOMID PROJECTED TARGETS (ILLUSTRATIVE): 2026-06-27 12:23:31 UTC // SECURE_HANDSHAKE</text>
</svg>