<svg width="850" height="200" viewBox="0 0 850 200" xmlns="http://www.w3.org/2000/svg">
  <defs>
    <pattern id="carbonFiber" width="10" height="10" patternUnits="userSpaceOnUse">
        <rect width="10" height="10" fill="#050505"/>
        <path d="M0,0 L5,5 L10,0 L5,-5 Z M5,5 L10,10 L15,5 L10,0 Z M-5,5 L0,10 L5,5 L0,0 Z M0,10 L5,15 L10,10 L5,5 Z" fill="#0d0d0d"/>
    </pattern>
    <filter id="textGlow">
      <feGaussianBlur stdDeviation="2" result="blur" />
      <feMerge>
        <feMergeNode in="blur"/>
        <feMergeNode in="SourceGraphic"/>
      </feMerge>
    </filter>
    <linearGradient id="neonBar" x1="0%" y1="0%" x2="100%" y2="0%">
        <stop offset="0%" stop-color="#111111"/>
        <stop offset="100%" stop-color="#39FF14"/>
    </linearGradient>
    <linearGradient id="scanlineGrad" x1="0%" y1="0%" x2="100%" y2="0%">
        <stop offset="0%" stop-color="#39FF14" stop-opacity="0"/>
        <stop offset="50%" stop-color="#39FF14" stop-opacity="0.18"/>
        <stop offset="100%" stop-color="#39FF14" stop-opacity="0"/>
    </linearGradient>
    <clipPath id="dashClip">
        <rect x="0" y="0" width="850" height="200" rx="12"/>
    </clipPath>
  </defs>

  <rect width="100%" height="100%" fill="url(#carbonFiber)" rx="12" stroke="#39FF14" stroke-width="1" stroke-opacity="0.3"/>
  <rect width="100%" height="100%" fill="#000000" opacity="0.6" rx="12" />
  <g><polygon points="570,102 578.6,107 578.6,117 570,122 561.4,117 561.4,107" fill="none" stroke="#39FF14" stroke-width="1" opacity="0.03114634472876414"/>
<polygon points="82,165 90.6,170 90.6,180 82,185 73.4,180 73.4,170" fill="none" stroke="#39FF14" stroke-width="1" opacity="0.07700434198517662"/>
<polygon points="451,53 459.6,58 459.6,68 451,73 442.4,68 442.4,58" fill="none" stroke="#39FF14" stroke-width="1" opacity="0.03896149692365955"/>
<polygon points="300,121 308.6,126 308.6,136 300,141 291.4,136 291.4,126" fill="none" stroke="#39FF14" stroke-width="1" opacity="0.07417452173259002"/>
<polygon points="370,111 378.6,116 378.6,126 370,131 361.4,126 361.4,116" fill="none" stroke="#39FF14" stroke-width="1" opacity="0.055310066635394034"/>
<polygon points="740,100 748.6,105 748.6,115 740,120 731.4,115 731.4,105" fill="none" stroke="#39FF14" stroke-width="1" opacity="0.03713978471112051"/>
<polygon points="473,149 481.6,154 481.6,164 473,169 464.4,164 464.4,154" fill="none" stroke="#39FF14" stroke-width="1" opacity="0.024701601849161984"/>
<polygon points="413,145 421.6,150 421.6,160 413,165 404.4,160 404.4,150" fill="none" stroke="#39FF14" stroke-width="1" opacity="0.03467860469246868"/>
<polygon points="490,120 498.6,125 498.6,135 490,140 481.4,135 481.4,125" fill="none" stroke="#39FF14" stroke-width="1" opacity="0.024524772063658187"/>
<polygon points="606,17 614.6,22 614.6,32 606,37 597.4,32 597.4,22" fill="none" stroke="#39FF14" stroke-width="1" opacity="0.06767223455944461"/>
<polygon points="435,17 443.6,22 443.6,32 435,37 426.4,32 426.4,22" fill="none" stroke="#39FF14" stroke-width="1" opacity="0.037079471178390444"/>
<polygon points="609,84 617.6,89 617.6,99 609,104 600.4,99 600.4,89" fill="none" stroke="#39FF14" stroke-width="1" opacity="0.05229578303219792"/>
<polygon points="98,110 106.6,115 106.6,125 98,130 89.4,125 89.4,115" fill="none" stroke="#39FF14" stroke-width="1" opacity="0.03602530375822412"/>
<polygon points="386,98 394.6,103 394.6,113 386,118 377.4,113 377.4,103" fill="none" stroke="#39FF14" stroke-width="1" opacity="0.05457288167552553"/>
<polygon points="797,149 805.6,154 805.6,164 797,169 788.4,164 788.4,154" fill="none" stroke="#39FF14" stroke-width="1" opacity="0.04322948772060184"/>
<polygon points="148,148 156.6,153 156.6,163 148,168 139.4,163 139.4,153" fill="none" stroke="#39FF14" stroke-width="1" opacity="0.03509473332149988"/>
<polygon points="512,57 520.6,62 520.6,72 512,77 503.4,72 503.4,62" fill="none" stroke="#39FF14" stroke-width="1" opacity="0.04054728649838306"/>
<polygon points="370,78 378.6,83 378.6,93 370,98 361.4,93 361.4,83" fill="none" stroke="#39FF14" stroke-width="1" opacity="0.029004524127461954"/>
<polygon points="750,161 758.6,166 758.6,176 750,181 741.4,176 741.4,166" fill="none" stroke="#39FF14" stroke-width="1" opacity="0.07806436200374839"/>
<polygon points="218,170 226.6,175 226.6,185 218,190 209.4,185 209.4,175" fill="none" stroke="#39FF14" stroke-width="1" opacity="0.03323915455368026"/>
<polygon points="191,140 199.6,145 199.6,155 191,160 182.4,155 182.4,145" fill="none" stroke="#39FF14" stroke-width="1" opacity="0.040832496838476506"/>
<polygon points="755,111 763.6,116 763.6,126 755,131 746.4,126 746.4,116" fill="none" stroke="#39FF14" stroke-width="1" opacity="0.05045563711643419"/>
<polygon points="128,99 136.6,104 136.6,114 128,119 119.4,114 119.4,104" fill="none" stroke="#39FF14" stroke-width="1" opacity="0.02737172850609953"/>
<polygon points="514,54 522.6,59 522.6,69 514,74 505.4,69 505.4,59" fill="none" stroke="#39FF14" stroke-width="1" opacity="0.06475910738105455"/>
<polygon points="635,117 643.6,122 643.6,132 635,137 626.4,132 626.4,122" fill="none" stroke="#39FF14" stroke-width="1" opacity="0.04875156980965965"/>
<polygon points="501,85 509.6,90 509.6,100 501,105 492.4,100 492.4,90" fill="none" stroke="#39FF14" stroke-width="1" opacity="0.047094598790090314"/>
<polygon points="533,111 541.6,116 541.6,126 533,131 524.4,126 524.4,116" fill="none" stroke="#39FF14" stroke-width="1" opacity="0.07535910037633034"/>
<polygon points="488,6 496.6,11 496.6,21 488,26 479.4,21 479.4,11" fill="none" stroke="#39FF14" stroke-width="1" opacity="0.0783102284287147"/>
<polygon points="60,41 68.6,46 68.6,56 60,61 51.4,56 51.4,46" fill="none" stroke="#39FF14" stroke-width="1" opacity="0.05274158072810513"/>
<polygon points="448,105 456.6,110 456.6,120 448,125 439.4,120 439.4,110" fill="none" stroke="#39FF14" stroke-width="1" opacity="0.07106043820575064"/>
</g>

  <!-- HUD Decorative elements -->
  <path d="M 20 20 L 40 20 L 50 30" fill="none" stroke="#39FF14" stroke-width="2" opacity="0.5"/>
  <path d="M 830 180 L 810 180 L 800 170" fill="none" stroke="#39FF14" stroke-width="2" opacity="0.5"/>

  <g clip-path="url(#dashClip)">
    <rect x="-160" y="0" width="160" height="200" fill="url(#scanlineGrad)">
      <animateTransform attributeName="transform" type="translate"
                        from="0 0" to="1010 0" dur="6s" repeatCount="indefinite"/>
    </rect>
  </g>

  <g font-family="'Consolas', 'Fira Code', monospace" text-anchor="middle">

    <!-- NETWORK STATUS -->
    <g transform="translate(130, 100)">
        <circle cx="0" cy="0" r="45" fill="none" stroke="#39FF14" stroke-width="2" stroke-dasharray="10 5">
            <animateTransform attributeName="transform" type="rotate" from="0" to="360" dur="10s" repeatCount="indefinite"/>
        </circle>
        <circle cx="0" cy="0" r="35" fill="#0d0d0d" />
        <text x="0" y="-60" font-size="12" fill="#aaaaaa" letter-spacing="2">ROOT.AUTH</text>
        <text x="0" y="70" font-size="14" fill="#ffffff" font-weight="bold">OPERATIONAL</text>
    </g>

    <!-- ACTIVE USERS -->
    <g transform="translate(330, 100)">
        <text x="0" y="-20" font-size="12" fill="#aaaaaa">CITIZENS</text>
        <text x="0" y="15" font-size="28" fill="#ffffff" font-weight="bold" filter="url(#textGlow)">12,409</text>
        <text x="0" y="35" font-size="10" fill="#777777">VERIFIED HUMANS</text>
    </g>

    <!-- REGISTERED AGENTS -->
    <g transform="translate(530, 100)">
        <text x="0" y="-20" font-size="12" fill="#aaaaaa">AGENTS</text>
        <text x="0" y="15" font-size="28" fill="#00d4ff" font-weight="bold" filter="url(#textGlow)">3,155</text>
        <text x="0" y="35" font-size="10" fill="#777777">REGISTERED DIDs</text>
    </g>

    <!-- TRANSACTIONS -->
    <g transform="translate(730, 100)">
        <text x="0" y="-20" font-size="12" fill="#aaaaaa">TRANSFERS</text>
        <text x="0" y="15" font-size="28" fill="#ffffff" font-weight="bold">33,640</text>
        <text x="0" y="35" font-size="10" fill="#777777">M2M SETTLEMENTS</text>
    </g>
  </g>

  <text x="425" y="185" font-family="'Consolas', 'Fira Code', monospace" font-size="10" fill="#aaaaaa" opacity="0.6" text-anchor="middle">AXIOMID PROJECTED TARGETS (ILLUSTRATIVE): 2026-07-20 15:42:26 UTC // SECURE_HANDSHAKE</text>
</svg>