<svg width="850" height="200" viewBox="0 0 850 200" xmlns="http://www.w3.org/2000/svg">
  <defs>
    <pattern id="carbonFiber" width="10" height="10" patternUnits="userSpaceOnUse">
        <rect width="10" height="10" fill="#050505"/>
        <path d="M0,0 L5,5 L10,0 L5,-5 Z M5,5 L10,10 L15,5 L10,0 Z M-5,5 L0,10 L5,5 L0,0 Z M0,10 L5,15 L10,10 L5,5 Z" fill="#0d0d0d"/>
    </pattern>
    <filter id="textGlow">
      <feGaussianBlur stdDeviation="2" result="blur" />
      <feMerge>
        <feMergeNode in="blur"/>
        <feMergeNode in="SourceGraphic"/>
      </feMerge>
    </filter>
    <linearGradient id="neonBar" x1="0%" y1="0%" x2="100%" y2="0%">
        <stop offset="0%" stop-color="#111111"/>
        <stop offset="100%" stop-color="#39FF14"/>
    </linearGradient>
    <linearGradient id="scanlineGrad" x1="0%" y1="0%" x2="100%" y2="0%">
        <stop offset="0%" stop-color="#39FF14" stop-opacity="0"/>
        <stop offset="50%" stop-color="#39FF14" stop-opacity="0.18"/>
        <stop offset="100%" stop-color="#39FF14" stop-opacity="0"/>
    </linearGradient>
    <clipPath id="dashClip">
        <rect x="0" y="0" width="850" height="200" rx="12"/>
    </clipPath>
  </defs>

  <rect width="100%" height="100%" fill="url(#carbonFiber)" rx="12" stroke="#39FF14" stroke-width="1" stroke-opacity="0.3"/>
  <rect width="100%" height="100%" fill="#000000" opacity="0.6" rx="12" />
  <g><polygon points="501,131 509.6,136 509.6,146 501,151 492.4,146 492.4,136" fill="none" stroke="#39FF14" stroke-width="1" opacity="0.06004323372281997"/>
<polygon points="563,40 571.6,45 571.6,55 563,60 554.4,55 554.4,45" fill="none" stroke="#39FF14" stroke-width="1" opacity="0.07159406052834123"/>
<polygon points="755,82 763.6,87 763.6,97 755,102 746.4,97 746.4,87" fill="none" stroke="#39FF14" stroke-width="1" opacity="0.0388516907796869"/>
<polygon points="428,30 436.6,35 436.6,45 428,50 419.4,45 419.4,35" fill="none" stroke="#39FF14" stroke-width="1" opacity="0.05996593775224736"/>
<polygon points="788,146 796.6,151 796.6,161 788,166 779.4,161 779.4,151" fill="none" stroke="#39FF14" stroke-width="1" opacity="0.03597105224589575"/>
<polygon points="516,175 524.6,180 524.6,190 516,195 507.4,190 507.4,180" fill="none" stroke="#39FF14" stroke-width="1" opacity="0.04312683829625347"/>
<polygon points="787,79 795.6,84 795.6,94 787,99 778.4,94 778.4,84" fill="none" stroke="#39FF14" stroke-width="1" opacity="0.06807720096277062"/>
<polygon points="123,32 131.6,37 131.6,47 123,52 114.4,47 114.4,37" fill="none" stroke="#39FF14" stroke-width="1" opacity="0.0537360307064407"/>
<polygon points="252,147 260.6,152 260.6,162 252,167 243.4,162 243.4,152" fill="none" stroke="#39FF14" stroke-width="1" opacity="0.06620891048489196"/>
<polygon points="456,122 464.6,127 464.6,137 456,142 447.4,137 447.4,127" fill="none" stroke="#39FF14" stroke-width="1" opacity="0.024622270627677204"/>
<polygon points="155,55 163.6,60 163.6,70 155,75 146.4,70 146.4,60" fill="none" stroke="#39FF14" stroke-width="1" opacity="0.07014718198658437"/>
<polygon points="525,98 533.6,103 533.6,113 525,118 516.4,113 516.4,103" fill="none" stroke="#39FF14" stroke-width="1" opacity="0.03990443603136893"/>
<polygon points="377,30 385.6,35 385.6,45 377,50 368.4,45 368.4,35" fill="none" stroke="#39FF14" stroke-width="1" opacity="0.07050413528683087"/>
<polygon points="449,81 457.6,86 457.6,96 449,101 440.4,96 440.4,86" fill="none" stroke="#39FF14" stroke-width="1" opacity="0.06137795351878271"/>
<polygon points="847,129 855.6,134 855.6,144 847,149 838.4,144 838.4,134" fill="none" stroke="#39FF14" stroke-width="1" opacity="0.07572592725710028"/>
<polygon points="199,169 207.6,174 207.6,184 199,189 190.4,184 190.4,174" fill="none" stroke="#39FF14" stroke-width="1" opacity="0.03125831662026854"/>
<polygon points="155,68 163.6,73 163.6,83 155,88 146.4,83 146.4,73" fill="none" stroke="#39FF14" stroke-width="1" opacity="0.07572011484823507"/>
<polygon points="263,71 271.6,76 271.6,86 263,91 254.4,86 254.4,76" fill="none" stroke="#39FF14" stroke-width="1" opacity="0.04398707659019392"/>
<polygon points="416,110 424.6,115 424.6,125 416,130 407.4,125 407.4,115" fill="none" stroke="#39FF14" stroke-width="1" opacity="0.029266294773349626"/>
<polygon points="426,157 434.6,162 434.6,172 426,177 417.4,172 417.4,162" fill="none" stroke="#39FF14" stroke-width="1" opacity="0.06291335973249894"/>
<polygon points="178,123 186.6,128 186.6,138 178,143 169.4,138 169.4,128" fill="none" stroke="#39FF14" stroke-width="1" opacity="0.029368579930650042"/>
<polygon points="341,160 349.6,165 349.6,175 341,180 332.4,175 332.4,165" fill="none" stroke="#39FF14" stroke-width="1" opacity="0.06429724319377775"/>
<polygon points="804,63 812.6,68 812.6,78 804,83 795.4,78 795.4,68" fill="none" stroke="#39FF14" stroke-width="1" opacity="0.0733987031129833"/>
<polygon points="254,156 262.6,161 262.6,171 254,176 245.4,171 245.4,161" fill="none" stroke="#39FF14" stroke-width="1" opacity="0.07195562334483915"/>
<polygon points="294,129 302.6,134 302.6,144 294,149 285.4,144 285.4,134" fill="none" stroke="#39FF14" stroke-width="1" opacity="0.02804629777075919"/>
<polygon points="683,69 691.6,74 691.6,84 683,89 674.4,84 674.4,74" fill="none" stroke="#39FF14" stroke-width="1" opacity="0.031021487074086668"/>
<polygon points="836,32 844.6,37 844.6,47 836,52 827.4,47 827.4,37" fill="none" stroke="#39FF14" stroke-width="1" opacity="0.07661962011051777"/>
<polygon points="555,27 563.6,32 563.6,42 555,47 546.4,42 546.4,32" fill="none" stroke="#39FF14" stroke-width="1" opacity="0.03710696341896313"/>
<polygon points="771,119 779.6,124 779.6,134 771,139 762.4,134 762.4,124" fill="none" stroke="#39FF14" stroke-width="1" opacity="0.02780837667190221"/>
<polygon points="181,33 189.6,38 189.6,48 181,53 172.4,48 172.4,38" fill="none" stroke="#39FF14" stroke-width="1" opacity="0.06688994109211162"/>
</g>

  <!-- HUD Decorative elements -->
  <path d="M 20 20 L 40 20 L 50 30" fill="none" stroke="#39FF14" stroke-width="2" opacity="0.5"/>
  <path d="M 830 180 L 810 180 L 800 170" fill="none" stroke="#39FF14" stroke-width="2" opacity="0.5"/>

  <g clip-path="url(#dashClip)">
    <rect x="-160" y="0" width="160" height="200" fill="url(#scanlineGrad)">
      <animateTransform attributeName="transform" type="translate"
                        from="0 0" to="1010 0" dur="6s" repeatCount="indefinite"/>
    </rect>
  </g>

  <g font-family="'Consolas', 'Fira Code', monospace" text-anchor="middle">

    <!-- NETWORK STATUS -->
    <g transform="translate(130, 100)">
        <circle cx="0" cy="0" r="45" fill="none" stroke="#39FF14" stroke-width="2" stroke-dasharray="10 5">
            <animateTransform attributeName="transform" type="rotate" from="0" to="360" dur="10s" repeatCount="indefinite"/>
        </circle>
        <circle cx="0" cy="0" r="35" fill="#0d0d0d" />
        <text x="0" y="-60" font-size="12" fill="#aaaaaa" letter-spacing="2">ROOT.AUTH</text>
        <text x="0" y="70" font-size="14" fill="#ffffff" font-weight="bold">OPERATIONAL</text>
    </g>

    <!-- ACTIVE USERS -->
    <g transform="translate(330, 100)">
        <text x="0" y="-20" font-size="12" fill="#aaaaaa">CITIZENS</text>
        <text x="0" y="15" font-size="28" fill="#ffffff" font-weight="bold" filter="url(#textGlow)">12,669</text>
        <text x="0" y="35" font-size="10" fill="#777777">VERIFIED HUMANS</text>
    </g>

    <!-- REGISTERED AGENTS -->
    <g transform="translate(530, 100)">
        <text x="0" y="-20" font-size="12" fill="#aaaaaa">AGENTS</text>
        <text x="0" y="15" font-size="28" fill="#00d4ff" font-weight="bold" filter="url(#textGlow)">3,284</text>
        <text x="0" y="35" font-size="10" fill="#777777">REGISTERED DIDs</text>
    </g>

    <!-- TRANSACTIONS -->
    <g transform="translate(730, 100)">
        <text x="0" y="-20" font-size="12" fill="#aaaaaa">TRANSFERS</text>
        <text x="0" y="15" font-size="28" fill="#ffffff" font-weight="bold">38,518</text>
        <text x="0" y="35" font-size="10" fill="#777777">M2M SETTLEMENTS</text>
    </g>
  </g>

  <text x="425" y="185" font-family="'Consolas', 'Fira Code', monospace" font-size="10" fill="#aaaaaa" opacity="0.6" text-anchor="middle">AXIOMID PROJECTED TARGETS (ILLUSTRATIVE): 2026-07-12 21:39:02 UTC // SECURE_HANDSHAKE</text>
</svg>