<svg width="850" height="200" viewBox="0 0 850 200" xmlns="http://www.w3.org/2000/svg">
  <defs>
    <pattern id="carbonFiber" width="10" height="10" patternUnits="userSpaceOnUse">
        <rect width="10" height="10" fill="#050505"/>
        <path d="M0,0 L5,5 L10,0 L5,-5 Z M5,5 L10,10 L15,5 L10,0 Z M-5,5 L0,10 L5,5 L0,0 Z M0,10 L5,15 L10,10 L5,5 Z" fill="#0d0d0d"/>
    </pattern>
    <filter id="textGlow">
      <feGaussianBlur stdDeviation="2" result="blur" />
      <feMerge>
        <feMergeNode in="blur"/>
        <feMergeNode in="SourceGraphic"/>
      </feMerge>
    </filter>
    <linearGradient id="neonBar" x1="0%" y1="0%" x2="100%" y2="0%">
        <stop offset="0%" stop-color="#111111"/>
        <stop offset="100%" stop-color="#39FF14"/>
    </linearGradient>
    <linearGradient id="scanlineGrad" x1="0%" y1="0%" x2="100%" y2="0%">
        <stop offset="0%" stop-color="#39FF14" stop-opacity="0"/>
        <stop offset="50%" stop-color="#39FF14" stop-opacity="0.18"/>
        <stop offset="100%" stop-color="#39FF14" stop-opacity="0"/>
    </linearGradient>
    <clipPath id="dashClip">
        <rect x="0" y="0" width="850" height="200" rx="12"/>
    </clipPath>
  </defs>

  <rect width="100%" height="100%" fill="url(#carbonFiber)" rx="12" stroke="#39FF14" stroke-width="1" stroke-opacity="0.3"/>
  <rect width="100%" height="100%" fill="#000000" opacity="0.6" rx="12" />
  <g><polygon points="123,-4 131.6,1 131.6,11 123,16 114.4,11 114.4,1" fill="none" stroke="#39FF14" stroke-width="1" opacity="0.02375530680100233"/>
<polygon points="218,20 226.6,25 226.6,35 218,40 209.4,35 209.4,25" fill="none" stroke="#39FF14" stroke-width="1" opacity="0.07109079957593234"/>
<polygon points="850,103 858.6,108 858.6,118 850,123 841.4,118 841.4,108" fill="none" stroke="#39FF14" stroke-width="1" opacity="0.04794080404023415"/>
<polygon points="216,137 224.6,142 224.6,152 216,157 207.4,152 207.4,142" fill="none" stroke="#39FF14" stroke-width="1" opacity="0.05109758288513188"/>
<polygon points="213,118 221.6,123 221.6,133 213,138 204.4,133 204.4,123" fill="none" stroke="#39FF14" stroke-width="1" opacity="0.037851010964968054"/>
<polygon points="94,144 102.6,149 102.6,159 94,164 85.4,159 85.4,149" fill="none" stroke="#39FF14" stroke-width="1" opacity="0.020761338867716975"/>
<polygon points="638,94 646.6,99 646.6,109 638,114 629.4,109 629.4,99" fill="none" stroke="#39FF14" stroke-width="1" opacity="0.049879872101196834"/>
<polygon points="573,131 581.6,136 581.6,146 573,151 564.4,146 564.4,136" fill="none" stroke="#39FF14" stroke-width="1" opacity="0.021519957694111132"/>
<polygon points="559,187 567.6,192 567.6,202 559,207 550.4,202 550.4,192" fill="none" stroke="#39FF14" stroke-width="1" opacity="0.04325172760098771"/>
<polygon points="727,-7 735.6,-2 735.6,8 727,13 718.4,8 718.4,-2" fill="none" stroke="#39FF14" stroke-width="1" opacity="0.05002967998348461"/>
<polygon points="582,146 590.6,151 590.6,161 582,166 573.4,161 573.4,151" fill="none" stroke="#39FF14" stroke-width="1" opacity="0.048130776179671805"/>
<polygon points="739,36 747.6,41 747.6,51 739,56 730.4,51 730.4,41" fill="none" stroke="#39FF14" stroke-width="1" opacity="0.047442121900087064"/>
<polygon points="482,130 490.6,135 490.6,145 482,150 473.4,145 473.4,135" fill="none" stroke="#39FF14" stroke-width="1" opacity="0.03637191701713671"/>
<polygon points="86,24 94.6,29 94.6,39 86,44 77.4,39 77.4,29" fill="none" stroke="#39FF14" stroke-width="1" opacity="0.041012782322361385"/>
<polygon points="252,54 260.6,59 260.6,69 252,74 243.4,69 243.4,59" fill="none" stroke="#39FF14" stroke-width="1" opacity="0.052566680352659725"/>
<polygon points="769,159 777.6,164 777.6,174 769,179 760.4,174 760.4,164" fill="none" stroke="#39FF14" stroke-width="1" opacity="0.04342457245133802"/>
<polygon points="436,64 444.6,69 444.6,79 436,84 427.4,79 427.4,69" fill="none" stroke="#39FF14" stroke-width="1" opacity="0.02352807440382776"/>
<polygon points="710,157 718.6,162 718.6,172 710,177 701.4,172 701.4,162" fill="none" stroke="#39FF14" stroke-width="1" opacity="0.02303018866249927"/>
<polygon points="296,151 304.6,156 304.6,166 296,171 287.4,166 287.4,156" fill="none" stroke="#39FF14" stroke-width="1" opacity="0.031932056210549536"/>
<polygon points="484,185 492.6,190 492.6,200 484,205 475.4,200 475.4,190" fill="none" stroke="#39FF14" stroke-width="1" opacity="0.022084799838577553"/>
<polygon points="172,120 180.6,125 180.6,135 172,140 163.4,135 163.4,125" fill="none" stroke="#39FF14" stroke-width="1" opacity="0.033485403828644775"/>
<polygon points="240,29 248.6,34 248.6,44 240,49 231.4,44 231.4,34" fill="none" stroke="#39FF14" stroke-width="1" opacity="0.0643581867128053"/>
<polygon points="387,146 395.6,151 395.6,161 387,166 378.4,161 378.4,151" fill="none" stroke="#39FF14" stroke-width="1" opacity="0.043226297979116333"/>
<polygon points="343,167 351.6,172 351.6,182 343,187 334.4,182 334.4,172" fill="none" stroke="#39FF14" stroke-width="1" opacity="0.051769137748715374"/>
<polygon points="242,8 250.6,13 250.6,23 242,28 233.4,23 233.4,13" fill="none" stroke="#39FF14" stroke-width="1" opacity="0.03169196312731139"/>
<polygon points="546,185 554.6,190 554.6,200 546,205 537.4,200 537.4,190" fill="none" stroke="#39FF14" stroke-width="1" opacity="0.032630585287631006"/>
<polygon points="555,96 563.6,101 563.6,111 555,116 546.4,111 546.4,101" fill="none" stroke="#39FF14" stroke-width="1" opacity="0.05890759792716127"/>
<polygon points="769,44 777.6,49 777.6,59 769,64 760.4,59 760.4,49" fill="none" stroke="#39FF14" stroke-width="1" opacity="0.07429933628683968"/>
<polygon points="654,163 662.6,168 662.6,178 654,183 645.4,178 645.4,168" fill="none" stroke="#39FF14" stroke-width="1" opacity="0.048565524374272806"/>
<polygon points="654,6 662.6,11 662.6,21 654,26 645.4,21 645.4,11" fill="none" stroke="#39FF14" stroke-width="1" opacity="0.061984678582436725"/>
</g>

  <!-- HUD Decorative elements -->
  <path d="M 20 20 L 40 20 L 50 30" fill="none" stroke="#39FF14" stroke-width="2" opacity="0.5"/>
  <path d="M 830 180 L 810 180 L 800 170" fill="none" stroke="#39FF14" stroke-width="2" opacity="0.5"/>

  <g clip-path="url(#dashClip)">
    <rect x="-160" y="0" width="160" height="200" fill="url(#scanlineGrad)">
      <animateTransform attributeName="transform" type="translate"
                        from="0 0" to="1010 0" dur="6s" repeatCount="indefinite"/>
    </rect>
  </g>

  <g font-family="'Consolas', 'Fira Code', monospace" text-anchor="middle">

    <!-- NETWORK STATUS -->
    <g transform="translate(130, 100)">
        <circle cx="0" cy="0" r="45" fill="none" stroke="#39FF14" stroke-width="2" stroke-dasharray="10 5">
            <animateTransform attributeName="transform" type="rotate" from="0" to="360" dur="10s" repeatCount="indefinite"/>
        </circle>
        <circle cx="0" cy="0" r="35" fill="#0d0d0d" />
        <text x="0" y="-60" font-size="12" fill="#aaaaaa" letter-spacing="2">ROOT.AUTH</text>
        <text x="0" y="70" font-size="14" fill="#ffffff" font-weight="bold">OPERATIONAL</text>
    </g>

    <!-- ACTIVE USERS -->
    <g transform="translate(330, 100)">
        <text x="0" y="-20" font-size="12" fill="#aaaaaa">CITIZENS</text>
        <text x="0" y="15" font-size="28" fill="#ffffff" font-weight="bold" filter="url(#textGlow)">13,545</text>
        <text x="0" y="35" font-size="10" fill="#777777">VERIFIED HUMANS</text>
    </g>

    <!-- REGISTERED AGENTS -->
    <g transform="translate(530, 100)">
        <text x="0" y="-20" font-size="12" fill="#aaaaaa">AGENTS</text>
        <text x="0" y="15" font-size="28" fill="#00d4ff" font-weight="bold" filter="url(#textGlow)">4,254</text>
        <text x="0" y="35" font-size="10" fill="#777777">REGISTERED DIDs</text>
    </g>

    <!-- TRANSACTIONS -->
    <g transform="translate(730, 100)">
        <text x="0" y="-20" font-size="12" fill="#aaaaaa">TRANSFERS</text>
        <text x="0" y="15" font-size="28" fill="#ffffff" font-weight="bold">38,306</text>
        <text x="0" y="35" font-size="10" fill="#777777">M2M SETTLEMENTS</text>
    </g>
  </g>

  <text x="425" y="185" font-family="'Consolas', 'Fira Code', monospace" font-size="10" fill="#aaaaaa" opacity="0.6" text-anchor="middle">AXIOMID PROJECTED TARGETS (ILLUSTRATIVE): 2026-07-23 05:44:09 UTC // SECURE_HANDSHAKE</text>
</svg>