<svg width="850" height="200" viewBox="0 0 850 200" xmlns="http://www.w3.org/2000/svg">
  <defs>
    <pattern id="carbonFiber" width="10" height="10" patternUnits="userSpaceOnUse">
        <rect width="10" height="10" fill="#050505"/>
        <path d="M0,0 L5,5 L10,0 L5,-5 Z M5,5 L10,10 L15,5 L10,0 Z M-5,5 L0,10 L5,5 L0,0 Z M0,10 L5,15 L10,10 L5,5 Z" fill="#0d0d0d"/>
    </pattern>
    <filter id="textGlow">
      <feGaussianBlur stdDeviation="2" result="blur" />
      <feMerge>
        <feMergeNode in="blur"/>
        <feMergeNode in="SourceGraphic"/>
      </feMerge>
    </filter>
    <linearGradient id="neonBar" x1="0%" y1="0%" x2="100%" y2="0%">
        <stop offset="0%" stop-color="#111111"/>
        <stop offset="100%" stop-color="#39FF14"/>
    </linearGradient>
    <linearGradient id="scanlineGrad" x1="0%" y1="0%" x2="100%" y2="0%">
        <stop offset="0%" stop-color="#39FF14" stop-opacity="0"/>
        <stop offset="50%" stop-color="#39FF14" stop-opacity="0.18"/>
        <stop offset="100%" stop-color="#39FF14" stop-opacity="0"/>
    </linearGradient>
    <clipPath id="dashClip">
        <rect x="0" y="0" width="850" height="200" rx="12"/>
    </clipPath>
  </defs>

  <rect width="100%" height="100%" fill="url(#carbonFiber)" rx="12" stroke="#39FF14" stroke-width="1" stroke-opacity="0.3"/>
  <rect width="100%" height="100%" fill="#000000" opacity="0.6" rx="12" />
  <g><polygon points="650,8 658.6,13 658.6,23 650,28 641.4,23 641.4,13" fill="none" stroke="#39FF14" stroke-width="1" opacity="0.043926115929474846"/>
<polygon points="442,4 450.6,9 450.6,19 442,24 433.4,19 433.4,9" fill="none" stroke="#39FF14" stroke-width="1" opacity="0.0689527671920985"/>
<polygon points="130,24 138.6,29 138.6,39 130,44 121.4,39 121.4,29" fill="none" stroke="#39FF14" stroke-width="1" opacity="0.048689451364362354"/>
<polygon points="844,134 852.6,139 852.6,149 844,154 835.4,149 835.4,139" fill="none" stroke="#39FF14" stroke-width="1" opacity="0.04706800524894058"/>
<polygon points="602,76 610.6,81 610.6,91 602,96 593.4,91 593.4,81" fill="none" stroke="#39FF14" stroke-width="1" opacity="0.03799433615758163"/>
<polygon points="104,104 112.6,109 112.6,119 104,124 95.4,119 95.4,109" fill="none" stroke="#39FF14" stroke-width="1" opacity="0.02233337847015219"/>
<polygon points="125,159 133.6,164 133.6,174 125,179 116.4,174 116.4,164" fill="none" stroke="#39FF14" stroke-width="1" opacity="0.06352985845619603"/>
<polygon points="244,3 252.6,8 252.6,18 244,23 235.4,18 235.4,8" fill="none" stroke="#39FF14" stroke-width="1" opacity="0.06820257848129806"/>
<polygon points="333,27 341.6,32 341.6,42 333,47 324.4,42 324.4,32" fill="none" stroke="#39FF14" stroke-width="1" opacity="0.027823850878156805"/>
<polygon points="287,17 295.6,22 295.6,32 287,37 278.4,32 278.4,22" fill="none" stroke="#39FF14" stroke-width="1" opacity="0.05609760624396409"/>
<polygon points="171,121 179.6,126 179.6,136 171,141 162.4,136 162.4,126" fill="none" stroke="#39FF14" stroke-width="1" opacity="0.02648756783480937"/>
<polygon points="741,182 749.6,187 749.6,197 741,202 732.4,197 732.4,187" fill="none" stroke="#39FF14" stroke-width="1" opacity="0.036483479641049366"/>
<polygon points="848,38 856.6,43 856.6,53 848,58 839.4,53 839.4,43" fill="none" stroke="#39FF14" stroke-width="1" opacity="0.06392647654546425"/>
<polygon points="237,55 245.6,60 245.6,70 237,75 228.4,70 228.4,60" fill="none" stroke="#39FF14" stroke-width="1" opacity="0.05691710572170214"/>
<polygon points="278,141 286.6,146 286.6,156 278,161 269.4,156 269.4,146" fill="none" stroke="#39FF14" stroke-width="1" opacity="0.04547578270399748"/>
<polygon points="571,112 579.6,117 579.6,127 571,132 562.4,127 562.4,117" fill="none" stroke="#39FF14" stroke-width="1" opacity="0.07699694782123641"/>
<polygon points="71,52 79.6,57 79.6,67 71,72 62.4,67 62.4,57" fill="none" stroke="#39FF14" stroke-width="1" opacity="0.07796219502439697"/>
<polygon points="277,66 285.6,71 285.6,81 277,86 268.4,81 268.4,71" fill="none" stroke="#39FF14" stroke-width="1" opacity="0.026452708378352844"/>
<polygon points="129,129 137.6,134 137.6,144 129,149 120.4,144 120.4,134" fill="none" stroke="#39FF14" stroke-width="1" opacity="0.03308470105568383"/>
<polygon points="136,-2 144.6,3 144.6,13 136,18 127.4,13 127.4,3" fill="none" stroke="#39FF14" stroke-width="1" opacity="0.051331364382672356"/>
<polygon points="589,20 597.6,25 597.6,35 589,40 580.4,35 580.4,25" fill="none" stroke="#39FF14" stroke-width="1" opacity="0.06748884432851528"/>
<polygon points="629,72 637.6,77 637.6,87 629,92 620.4,87 620.4,77" fill="none" stroke="#39FF14" stroke-width="1" opacity="0.03092491692528345"/>
<polygon points="266,170 274.6,175 274.6,185 266,190 257.4,185 257.4,175" fill="none" stroke="#39FF14" stroke-width="1" opacity="0.03447223313257053"/>
<polygon points="350,-4 358.6,1 358.6,11 350,16 341.4,11 341.4,1" fill="none" stroke="#39FF14" stroke-width="1" opacity="0.02027420696016999"/>
<polygon points="47,58 55.6,63 55.6,73 47,78 38.4,73 38.4,63" fill="none" stroke="#39FF14" stroke-width="1" opacity="0.047548097394635634"/>
<polygon points="44,84 52.6,89 52.6,99 44,104 35.4,99 35.4,89" fill="none" stroke="#39FF14" stroke-width="1" opacity="0.07474549523009102"/>
<polygon points="251,41 259.6,46 259.6,56 251,61 242.4,56 242.4,46" fill="none" stroke="#39FF14" stroke-width="1" opacity="0.06937511632886277"/>
<polygon points="398,188 406.6,193 406.6,203 398,208 389.4,203 389.4,193" fill="none" stroke="#39FF14" stroke-width="1" opacity="0.053733552865043485"/>
<polygon points="849,-6 857.6,-1 857.6,9 849,14 840.4,9 840.4,-1" fill="none" stroke="#39FF14" stroke-width="1" opacity="0.06982306571859184"/>
<polygon points="267,40 275.6,45 275.6,55 267,60 258.4,55 258.4,45" fill="none" stroke="#39FF14" stroke-width="1" opacity="0.045531503753824545"/>
</g>

  <!-- HUD Decorative elements -->
  <path d="M 20 20 L 40 20 L 50 30" fill="none" stroke="#39FF14" stroke-width="2" opacity="0.5"/>
  <path d="M 830 180 L 810 180 L 800 170" fill="none" stroke="#39FF14" stroke-width="2" opacity="0.5"/>

  <g clip-path="url(#dashClip)">
    <rect x="-160" y="0" width="160" height="200" fill="url(#scanlineGrad)">
      <animateTransform attributeName="transform" type="translate"
                        from="0 0" to="1010 0" dur="6s" repeatCount="indefinite"/>
    </rect>
  </g>

  <g font-family="'Consolas', 'Fira Code', monospace" text-anchor="middle">

    <!-- NETWORK STATUS -->
    <g transform="translate(130, 100)">
        <circle cx="0" cy="0" r="45" fill="none" stroke="#39FF14" stroke-width="2" stroke-dasharray="10 5">
            <animateTransform attributeName="transform" type="rotate" from="0" to="360" dur="10s" repeatCount="indefinite"/>
        </circle>
        <circle cx="0" cy="0" r="35" fill="#0d0d0d" />
        <text x="0" y="-60" font-size="12" fill="#aaaaaa" letter-spacing="2">ROOT.AUTH</text>
        <text x="0" y="70" font-size="14" fill="#ffffff" font-weight="bold">OPERATIONAL</text>
    </g>

    <!-- ACTIVE USERS -->
    <g transform="translate(330, 100)">
        <text x="0" y="-20" font-size="12" fill="#aaaaaa">CITIZENS</text>
        <text x="0" y="15" font-size="28" fill="#ffffff" font-weight="bold" filter="url(#textGlow)">13,226</text>
        <text x="0" y="35" font-size="10" fill="#777777">VERIFIED HUMANS</text>
    </g>

    <!-- REGISTERED AGENTS -->
    <g transform="translate(530, 100)">
        <text x="0" y="-20" font-size="12" fill="#aaaaaa">AGENTS</text>
        <text x="0" y="15" font-size="28" fill="#00d4ff" font-weight="bold" filter="url(#textGlow)">3,552</text>
        <text x="0" y="35" font-size="10" fill="#777777">REGISTERED DIDs</text>
    </g>

    <!-- TRANSACTIONS -->
    <g transform="translate(730, 100)">
        <text x="0" y="-20" font-size="12" fill="#aaaaaa">TRANSFERS</text>
        <text x="0" y="15" font-size="28" fill="#ffffff" font-weight="bold">37,776</text>
        <text x="0" y="35" font-size="10" fill="#777777">M2M SETTLEMENTS</text>
    </g>
  </g>

  <text x="425" y="185" font-family="'Consolas', 'Fira Code', monospace" font-size="10" fill="#aaaaaa" opacity="0.6" text-anchor="middle">AXIOMID PROJECTED TARGETS (ILLUSTRATIVE): 2026-07-08 13:40:32 UTC // SECURE_HANDSHAKE</text>
</svg>