<svg width="850" height="200" viewBox="0 0 850 200" xmlns="http://www.w3.org/2000/svg">
  <defs>
    <pattern id="carbonFiber" width="10" height="10" patternUnits="userSpaceOnUse">
        <rect width="10" height="10" fill="#050505"/>
        <path d="M0,0 L5,5 L10,0 L5,-5 Z M5,5 L10,10 L15,5 L10,0 Z M-5,5 L0,10 L5,5 L0,0 Z M0,10 L5,15 L10,10 L5,5 Z" fill="#0d0d0d"/>
    </pattern>
    <filter id="textGlow">
      <feGaussianBlur stdDeviation="2" result="blur" />
      <feMerge>
        <feMergeNode in="blur"/>
        <feMergeNode in="SourceGraphic"/>
      </feMerge>
    </filter>
    <linearGradient id="neonBar" x1="0%" y1="0%" x2="100%" y2="0%">
        <stop offset="0%" stop-color="#111111"/>
        <stop offset="100%" stop-color="#39FF14"/>
    </linearGradient>
    <linearGradient id="scanlineGrad" x1="0%" y1="0%" x2="100%" y2="0%">
        <stop offset="0%" stop-color="#39FF14" stop-opacity="0"/>
        <stop offset="50%" stop-color="#39FF14" stop-opacity="0.18"/>
        <stop offset="100%" stop-color="#39FF14" stop-opacity="0"/>
    </linearGradient>
    <clipPath id="dashClip">
        <rect x="0" y="0" width="850" height="200" rx="12"/>
    </clipPath>
  </defs>

  <rect width="100%" height="100%" fill="url(#carbonFiber)" rx="12" stroke="#39FF14" stroke-width="1" stroke-opacity="0.3"/>
  <rect width="100%" height="100%" fill="#000000" opacity="0.6" rx="12" />
  <g><polygon points="207,139 215.6,144 215.6,154 207,159 198.4,154 198.4,144" fill="none" stroke="#39FF14" stroke-width="1" opacity="0.07110426864654215"/>
<polygon points="396,188 404.6,193 404.6,203 396,208 387.4,203 387.4,193" fill="none" stroke="#39FF14" stroke-width="1" opacity="0.05259387454094655"/>
<polygon points="603,132 611.6,137 611.6,147 603,152 594.4,147 594.4,137" fill="none" stroke="#39FF14" stroke-width="1" opacity="0.04541180722634956"/>
<polygon points="651,98 659.6,103 659.6,113 651,118 642.4,113 642.4,103" fill="none" stroke="#39FF14" stroke-width="1" opacity="0.047428959428942215"/>
<polygon points="414,96 422.6,101 422.6,111 414,116 405.4,111 405.4,101" fill="none" stroke="#39FF14" stroke-width="1" opacity="0.07534003345133784"/>
<polygon points="68,90 76.6,95 76.6,105 68,110 59.4,105 59.4,95" fill="none" stroke="#39FF14" stroke-width="1" opacity="0.05153040171911434"/>
<polygon points="23,118 31.6,123 31.6,133 23,138 14.4,133 14.4,123" fill="none" stroke="#39FF14" stroke-width="1" opacity="0.032888577381241284"/>
<polygon points="804,127 812.6,132 812.6,142 804,147 795.4,142 795.4,132" fill="none" stroke="#39FF14" stroke-width="1" opacity="0.02384104752708756"/>
<polygon points="253,120 261.6,125 261.6,135 253,140 244.4,135 244.4,125" fill="none" stroke="#39FF14" stroke-width="1" opacity="0.07804773817795914"/>
<polygon points="393,92 401.6,97 401.6,107 393,112 384.4,107 384.4,97" fill="none" stroke="#39FF14" stroke-width="1" opacity="0.026101112592676855"/>
<polygon points="522,112 530.6,117 530.6,127 522,132 513.4,127 513.4,117" fill="none" stroke="#39FF14" stroke-width="1" opacity="0.05701120014765698"/>
<polygon points="326,68 334.6,73 334.6,83 326,88 317.4,83 317.4,73" fill="none" stroke="#39FF14" stroke-width="1" opacity="0.0727375840838386"/>
<polygon points="72,130 80.6,135 80.6,145 72,150 63.4,145 63.4,135" fill="none" stroke="#39FF14" stroke-width="1" opacity="0.0201714518476795"/>
<polygon points="85,4 93.6,9 93.6,19 85,24 76.4,19 76.4,9" fill="none" stroke="#39FF14" stroke-width="1" opacity="0.07097181452888761"/>
<polygon points="404,124 412.6,129 412.6,139 404,144 395.4,139 395.4,129" fill="none" stroke="#39FF14" stroke-width="1" opacity="0.05110408912096287"/>
<polygon points="662,133 670.6,138 670.6,148 662,153 653.4,148 653.4,138" fill="none" stroke="#39FF14" stroke-width="1" opacity="0.03913250248365756"/>
<polygon points="801,44 809.6,49 809.6,59 801,64 792.4,59 792.4,49" fill="none" stroke="#39FF14" stroke-width="1" opacity="0.05016660916708485"/>
<polygon points="626,86 634.6,91 634.6,101 626,106 617.4,101 617.4,91" fill="none" stroke="#39FF14" stroke-width="1" opacity="0.03430400546283654"/>
<polygon points="212,162 220.6,167 220.6,177 212,182 203.4,177 203.4,167" fill="none" stroke="#39FF14" stroke-width="1" opacity="0.07599675284853008"/>
<polygon points="423,58 431.6,63 431.6,73 423,78 414.4,73 414.4,63" fill="none" stroke="#39FF14" stroke-width="1" opacity="0.04170454680650499"/>
<polygon points="331,25 339.6,30 339.6,40 331,45 322.4,40 322.4,30" fill="none" stroke="#39FF14" stroke-width="1" opacity="0.07646508488097319"/>
<polygon points="111,179 119.6,184 119.6,194 111,199 102.4,194 102.4,184" fill="none" stroke="#39FF14" stroke-width="1" opacity="0.06750263371131168"/>
<polygon points="293,23 301.6,28 301.6,38 293,43 284.4,38 284.4,28" fill="none" stroke="#39FF14" stroke-width="1" opacity="0.031156020791489603"/>
<polygon points="798,127 806.6,132 806.6,142 798,147 789.4,142 789.4,132" fill="none" stroke="#39FF14" stroke-width="1" opacity="0.04358711606553224"/>
<polygon points="688,170 696.6,175 696.6,185 688,190 679.4,185 679.4,175" fill="none" stroke="#39FF14" stroke-width="1" opacity="0.05170557603855275"/>
<polygon points="840,48 848.6,53 848.6,63 840,68 831.4,63 831.4,53" fill="none" stroke="#39FF14" stroke-width="1" opacity="0.032074784740846324"/>
<polygon points="405,-6 413.6,-1 413.6,9 405,14 396.4,9 396.4,-1" fill="none" stroke="#39FF14" stroke-width="1" opacity="0.028414872021864677"/>
<polygon points="398,160 406.6,165 406.6,175 398,180 389.4,175 389.4,165" fill="none" stroke="#39FF14" stroke-width="1" opacity="0.04757982346656528"/>
<polygon points="158,179 166.6,184 166.6,194 158,199 149.4,194 149.4,184" fill="none" stroke="#39FF14" stroke-width="1" opacity="0.05036459397648413"/>
<polygon points="818,14 826.6,19 826.6,29 818,34 809.4,29 809.4,19" fill="none" stroke="#39FF14" stroke-width="1" opacity="0.058597930704468934"/>
</g>

  <!-- HUD Decorative elements -->
  <path d="M 20 20 L 40 20 L 50 30" fill="none" stroke="#39FF14" stroke-width="2" opacity="0.5"/>
  <path d="M 830 180 L 810 180 L 800 170" fill="none" stroke="#39FF14" stroke-width="2" opacity="0.5"/>

  <g clip-path="url(#dashClip)">
    <rect x="-160" y="0" width="160" height="200" fill="url(#scanlineGrad)">
      <animateTransform attributeName="transform" type="translate"
                        from="0 0" to="1010 0" dur="6s" repeatCount="indefinite"/>
    </rect>
  </g>

  <g font-family="'Consolas', 'Fira Code', monospace" text-anchor="middle">

    <!-- NETWORK STATUS -->
    <g transform="translate(130, 100)">
        <circle cx="0" cy="0" r="45" fill="none" stroke="#39FF14" stroke-width="2" stroke-dasharray="10 5">
            <animateTransform attributeName="transform" type="rotate" from="0" to="360" dur="10s" repeatCount="indefinite"/>
        </circle>
        <circle cx="0" cy="0" r="35" fill="#0d0d0d" />
        <text x="0" y="-60" font-size="12" fill="#aaaaaa" letter-spacing="2">ROOT.AUTH</text>
        <text x="0" y="70" font-size="14" fill="#ffffff" font-weight="bold">OPERATIONAL</text>
    </g>

    <!-- ACTIVE USERS -->
    <g transform="translate(330, 100)">
        <text x="0" y="-20" font-size="12" fill="#aaaaaa">CITIZENS</text>
        <text x="0" y="15" font-size="28" fill="#ffffff" font-weight="bold" filter="url(#textGlow)">13,970</text>
        <text x="0" y="35" font-size="10" fill="#777777">VERIFIED HUMANS</text>
    </g>

    <!-- REGISTERED AGENTS -->
    <g transform="translate(530, 100)">
        <text x="0" y="-20" font-size="12" fill="#aaaaaa">AGENTS</text>
        <text x="0" y="15" font-size="28" fill="#00d4ff" font-weight="bold" filter="url(#textGlow)">3,237</text>
        <text x="0" y="35" font-size="10" fill="#777777">REGISTERED DIDs</text>
    </g>

    <!-- TRANSACTIONS -->
    <g transform="translate(730, 100)">
        <text x="0" y="-20" font-size="12" fill="#aaaaaa">TRANSFERS</text>
        <text x="0" y="15" font-size="28" fill="#ffffff" font-weight="bold">34,178</text>
        <text x="0" y="35" font-size="10" fill="#777777">M2M SETTLEMENTS</text>
    </g>
  </g>

  <text x="425" y="185" font-family="'Consolas', 'Fira Code', monospace" font-size="10" fill="#aaaaaa" opacity="0.6" text-anchor="middle">AXIOMID PROJECTED TARGETS (ILLUSTRATIVE): 2026-08-26 09:30:26 UTC // SECURE_HANDSHAKE</text>
</svg>