<svg width="850" height="200" viewBox="0 0 850 200" xmlns="http://www.w3.org/2000/svg">
  <defs>
    <pattern id="carbonFiber" width="10" height="10" patternUnits="userSpaceOnUse">
        <rect width="10" height="10" fill="#050505"/>
        <path d="M0,0 L5,5 L10,0 L5,-5 Z M5,5 L10,10 L15,5 L10,0 Z M-5,5 L0,10 L5,5 L0,0 Z M0,10 L5,15 L10,10 L5,5 Z" fill="#0d0d0d"/>
    </pattern>
    <filter id="textGlow">
      <feGaussianBlur stdDeviation="2" result="blur" />
      <feMerge>
        <feMergeNode in="blur"/>
        <feMergeNode in="SourceGraphic"/>
      </feMerge>
    </filter>
    <linearGradient id="neonBar" x1="0%" y1="0%" x2="100%" y2="0%">
        <stop offset="0%" stop-color="#111111"/>
        <stop offset="100%" stop-color="#39FF14"/>
    </linearGradient>
    <linearGradient id="scanlineGrad" x1="0%" y1="0%" x2="100%" y2="0%">
        <stop offset="0%" stop-color="#39FF14" stop-opacity="0"/>
        <stop offset="50%" stop-color="#39FF14" stop-opacity="0.18"/>
        <stop offset="100%" stop-color="#39FF14" stop-opacity="0"/>
    </linearGradient>
    <clipPath id="dashClip">
        <rect x="0" y="0" width="850" height="200" rx="12"/>
    </clipPath>
  </defs>

  <rect width="100%" height="100%" fill="url(#carbonFiber)" rx="12" stroke="#39FF14" stroke-width="1" stroke-opacity="0.3"/>
  <rect width="100%" height="100%" fill="#000000" opacity="0.6" rx="12" />
  <g><polygon points="175,-6 183.6,-1 183.6,9 175,14 166.4,9 166.4,-1" fill="none" stroke="#39FF14" stroke-width="1" opacity="0.053032908358776235"/>
<polygon points="821,83 829.6,88 829.6,98 821,103 812.4,98 812.4,88" fill="none" stroke="#39FF14" stroke-width="1" opacity="0.043654467925359236"/>
<polygon points="291,52 299.6,57 299.6,67 291,72 282.4,67 282.4,57" fill="none" stroke="#39FF14" stroke-width="1" opacity="0.04021734477174847"/>
<polygon points="630,63 638.6,68 638.6,78 630,83 621.4,78 621.4,68" fill="none" stroke="#39FF14" stroke-width="1" opacity="0.07333121527226606"/>
<polygon points="571,173 579.6,178 579.6,188 571,193 562.4,188 562.4,178" fill="none" stroke="#39FF14" stroke-width="1" opacity="0.032692339802373106"/>
<polygon points="493,116 501.6,121 501.6,131 493,136 484.4,131 484.4,121" fill="none" stroke="#39FF14" stroke-width="1" opacity="0.06534805809623276"/>
<polygon points="650,186 658.6,191 658.6,201 650,206 641.4,201 641.4,191" fill="none" stroke="#39FF14" stroke-width="1" opacity="0.040114471132521"/>
<polygon points="201,108 209.6,113 209.6,123 201,128 192.4,123 192.4,113" fill="none" stroke="#39FF14" stroke-width="1" opacity="0.06969848510133587"/>
<polygon points="717,-6 725.6,-1 725.6,9 717,14 708.4,9 708.4,-1" fill="none" stroke="#39FF14" stroke-width="1" opacity="0.025867721322876916"/>
<polygon points="173,75 181.6,80 181.6,90 173,95 164.4,90 164.4,80" fill="none" stroke="#39FF14" stroke-width="1" opacity="0.07244540984158603"/>
<polygon points="680,161 688.6,166 688.6,176 680,181 671.4,176 671.4,166" fill="none" stroke="#39FF14" stroke-width="1" opacity="0.053840086532112405"/>
<polygon points="48,96 56.6,101 56.6,111 48,116 39.4,111 39.4,101" fill="none" stroke="#39FF14" stroke-width="1" opacity="0.048244451329286224"/>
<polygon points="460,74 468.6,79 468.6,89 460,94 451.4,89 451.4,79" fill="none" stroke="#39FF14" stroke-width="1" opacity="0.04856042288057703"/>
<polygon points="278,8 286.6,13 286.6,23 278,28 269.4,23 269.4,13" fill="none" stroke="#39FF14" stroke-width="1" opacity="0.04420256167499898"/>
<polygon points="385,101 393.6,106 393.6,116 385,121 376.4,116 376.4,106" fill="none" stroke="#39FF14" stroke-width="1" opacity="0.06656511266854598"/>
<polygon points="107,172 115.6,177 115.6,187 107,192 98.4,187 98.4,177" fill="none" stroke="#39FF14" stroke-width="1" opacity="0.07360069938449203"/>
<polygon points="431,118 439.6,123 439.6,133 431,138 422.4,133 422.4,123" fill="none" stroke="#39FF14" stroke-width="1" opacity="0.06761325505411313"/>
<polygon points="617,125 625.6,130 625.6,140 617,145 608.4,140 608.4,130" fill="none" stroke="#39FF14" stroke-width="1" opacity="0.07813596121064788"/>
<polygon points="612,61 620.6,66 620.6,76 612,81 603.4,76 603.4,66" fill="none" stroke="#39FF14" stroke-width="1" opacity="0.07313519477929256"/>
<polygon points="355,154 363.6,159 363.6,169 355,174 346.4,169 346.4,159" fill="none" stroke="#39FF14" stroke-width="1" opacity="0.0357758583221888"/>
<polygon points="668,5 676.6,10 676.6,20 668,25 659.4,20 659.4,10" fill="none" stroke="#39FF14" stroke-width="1" opacity="0.05843685293021553"/>
<polygon points="245,16 253.6,21 253.6,31 245,36 236.4,31 236.4,21" fill="none" stroke="#39FF14" stroke-width="1" opacity="0.04757940323765867"/>
<polygon points="636,123 644.6,128 644.6,138 636,143 627.4,138 627.4,128" fill="none" stroke="#39FF14" stroke-width="1" opacity="0.04850944549768711"/>
<polygon points="644,144 652.6,149 652.6,159 644,164 635.4,159 635.4,149" fill="none" stroke="#39FF14" stroke-width="1" opacity="0.05748039792447976"/>
<polygon points="377,165 385.6,170 385.6,180 377,185 368.4,180 368.4,170" fill="none" stroke="#39FF14" stroke-width="1" opacity="0.07169860892233644"/>
<polygon points="385,174 393.6,179 393.6,189 385,194 376.4,189 376.4,179" fill="none" stroke="#39FF14" stroke-width="1" opacity="0.051588522706526946"/>
<polygon points="545,176 553.6,181 553.6,191 545,196 536.4,191 536.4,181" fill="none" stroke="#39FF14" stroke-width="1" opacity="0.061395702809645875"/>
<polygon points="231,160 239.6,165 239.6,175 231,180 222.4,175 222.4,165" fill="none" stroke="#39FF14" stroke-width="1" opacity="0.039022515182305775"/>
<polygon points="240,132 248.6,137 248.6,147 240,152 231.4,147 231.4,137" fill="none" stroke="#39FF14" stroke-width="1" opacity="0.026346526648393535"/>
<polygon points="216,167 224.6,172 224.6,182 216,187 207.4,182 207.4,172" fill="none" stroke="#39FF14" stroke-width="1" opacity="0.05551301160929974"/>
</g>

  <!-- HUD Decorative elements -->
  <path d="M 20 20 L 40 20 L 50 30" fill="none" stroke="#39FF14" stroke-width="2" opacity="0.5"/>
  <path d="M 830 180 L 810 180 L 800 170" fill="none" stroke="#39FF14" stroke-width="2" opacity="0.5"/>

  <g clip-path="url(#dashClip)">
    <rect x="-160" y="0" width="160" height="200" fill="url(#scanlineGrad)">
      <animateTransform attributeName="transform" type="translate"
                        from="0 0" to="1010 0" dur="6s" repeatCount="indefinite"/>
    </rect>
  </g>

  <g font-family="'Consolas', 'Fira Code', monospace" text-anchor="middle">

    <!-- NETWORK STATUS -->
    <g transform="translate(130, 100)">
        <circle cx="0" cy="0" r="45" fill="none" stroke="#39FF14" stroke-width="2" stroke-dasharray="10 5">
            <animateTransform attributeName="transform" type="rotate" from="0" to="360" dur="10s" repeatCount="indefinite"/>
        </circle>
        <circle cx="0" cy="0" r="35" fill="#0d0d0d" />
        <text x="0" y="-60" font-size="12" fill="#aaaaaa" letter-spacing="2">ROOT.AUTH</text>
        <text x="0" y="70" font-size="14" fill="#ffffff" font-weight="bold">OPERATIONAL</text>
    </g>

    <!-- ACTIVE USERS -->
    <g transform="translate(330, 100)">
        <text x="0" y="-20" font-size="12" fill="#aaaaaa">CITIZENS</text>
        <text x="0" y="15" font-size="28" fill="#ffffff" font-weight="bold" filter="url(#textGlow)">12,721</text>
        <text x="0" y="35" font-size="10" fill="#777777">VERIFIED HUMANS</text>
    </g>

    <!-- REGISTERED AGENTS -->
    <g transform="translate(530, 100)">
        <text x="0" y="-20" font-size="12" fill="#aaaaaa">AGENTS</text>
        <text x="0" y="15" font-size="28" fill="#00d4ff" font-weight="bold" filter="url(#textGlow)">3,417</text>
        <text x="0" y="35" font-size="10" fill="#777777">REGISTERED DIDs</text>
    </g>

    <!-- TRANSACTIONS -->
    <g transform="translate(730, 100)">
        <text x="0" y="-20" font-size="12" fill="#aaaaaa">TRANSFERS</text>
        <text x="0" y="15" font-size="28" fill="#ffffff" font-weight="bold">28,168</text>
        <text x="0" y="35" font-size="10" fill="#777777">M2M SETTLEMENTS</text>
    </g>
  </g>

  <text x="425" y="185" font-family="'Consolas', 'Fira Code', monospace" font-size="10" fill="#aaaaaa" opacity="0.6" text-anchor="middle">AXIOMID PROJECTED TARGETS (ILLUSTRATIVE): 2026-06-25 18:41:26 UTC // SECURE_HANDSHAKE</text>
</svg>