<svg width="850" height="200" viewBox="0 0 850 200" xmlns="http://www.w3.org/2000/svg">
  <defs>
    <pattern id="carbonFiber" width="10" height="10" patternUnits="userSpaceOnUse">
        <rect width="10" height="10" fill="#050505"/>
        <path d="M0,0 L5,5 L10,0 L5,-5 Z M5,5 L10,10 L15,5 L10,0 Z M-5,5 L0,10 L5,5 L0,0 Z M0,10 L5,15 L10,10 L5,5 Z" fill="#0d0d0d"/>
    </pattern>
    <filter id="textGlow">
      <feGaussianBlur stdDeviation="2" result="blur" />
      <feMerge>
        <feMergeNode in="blur"/>
        <feMergeNode in="SourceGraphic"/>
      </feMerge>
    </filter>
    <linearGradient id="neonBar" x1="0%" y1="0%" x2="100%" y2="0%">
        <stop offset="0%" stop-color="#111111"/>
        <stop offset="100%" stop-color="#39FF14"/>
    </linearGradient>
    <linearGradient id="scanlineGrad" x1="0%" y1="0%" x2="100%" y2="0%">
        <stop offset="0%" stop-color="#39FF14" stop-opacity="0"/>
        <stop offset="50%" stop-color="#39FF14" stop-opacity="0.18"/>
        <stop offset="100%" stop-color="#39FF14" stop-opacity="0"/>
    </linearGradient>
    <clipPath id="dashClip">
        <rect x="0" y="0" width="850" height="200" rx="12"/>
    </clipPath>
  </defs>

  <rect width="100%" height="100%" fill="url(#carbonFiber)" rx="12" stroke="#39FF14" stroke-width="1" stroke-opacity="0.3"/>
  <rect width="100%" height="100%" fill="#000000" opacity="0.6" rx="12" />
  <g><polygon points="441,-6 449.6,-1 449.6,9 441,14 432.4,9 432.4,-1" fill="none" stroke="#39FF14" stroke-width="1" opacity="0.02889698661915506"/>
<polygon points="101,41 109.6,46 109.6,56 101,61 92.4,56 92.4,46" fill="none" stroke="#39FF14" stroke-width="1" opacity="0.07769880894553352"/>
<polygon points="630,106 638.6,111 638.6,121 630,126 621.4,121 621.4,111" fill="none" stroke="#39FF14" stroke-width="1" opacity="0.03806616356292019"/>
<polygon points="538,170 546.6,175 546.6,185 538,190 529.4,185 529.4,175" fill="none" stroke="#39FF14" stroke-width="1" opacity="0.036034709244419115"/>
<polygon points="606,112 614.6,117 614.6,127 606,132 597.4,127 597.4,117" fill="none" stroke="#39FF14" stroke-width="1" opacity="0.05472104084034163"/>
<polygon points="419,37 427.6,42 427.6,52 419,57 410.4,52 410.4,42" fill="none" stroke="#39FF14" stroke-width="1" opacity="0.053901099723401014"/>
<polygon points="615,89 623.6,94 623.6,104 615,109 606.4,104 606.4,94" fill="none" stroke="#39FF14" stroke-width="1" opacity="0.050962605726844495"/>
<polygon points="473,68 481.6,73 481.6,83 473,88 464.4,83 464.4,73" fill="none" stroke="#39FF14" stroke-width="1" opacity="0.02241286629853937"/>
<polygon points="20,170 28.6,175 28.6,185 20,190 11.4,185 11.4,175" fill="none" stroke="#39FF14" stroke-width="1" opacity="0.05653857996526801"/>
<polygon points="193,94 201.6,99 201.6,109 193,114 184.4,109 184.4,99" fill="none" stroke="#39FF14" stroke-width="1" opacity="0.06803868004255169"/>
<polygon points="407,-7 415.6,-2 415.6,8 407,13 398.4,8 398.4,-2" fill="none" stroke="#39FF14" stroke-width="1" opacity="0.0763766432938993"/>
<polygon points="153,111 161.6,116 161.6,126 153,131 144.4,126 144.4,116" fill="none" stroke="#39FF14" stroke-width="1" opacity="0.056294102638583796"/>
<polygon points="42,163 50.6,168 50.6,178 42,183 33.4,178 33.4,168" fill="none" stroke="#39FF14" stroke-width="1" opacity="0.057698558131373257"/>
<polygon points="566,98 574.6,103 574.6,113 566,118 557.4,113 557.4,103" fill="none" stroke="#39FF14" stroke-width="1" opacity="0.03277551628118258"/>
<polygon points="698,64 706.6,69 706.6,79 698,84 689.4,79 689.4,69" fill="none" stroke="#39FF14" stroke-width="1" opacity="0.05436512887300722"/>
<polygon points="59,10 67.6,15 67.6,25 59,30 50.4,25 50.4,15" fill="none" stroke="#39FF14" stroke-width="1" opacity="0.07230541986217716"/>
<polygon points="543,64 551.6,69 551.6,79 543,84 534.4,79 534.4,69" fill="none" stroke="#39FF14" stroke-width="1" opacity="0.049085905476223504"/>
<polygon points="85,146 93.6,151 93.6,161 85,166 76.4,161 76.4,151" fill="none" stroke="#39FF14" stroke-width="1" opacity="0.06725201260524306"/>
<polygon points="748,151 756.6,156 756.6,166 748,171 739.4,166 739.4,156" fill="none" stroke="#39FF14" stroke-width="1" opacity="0.02340995073013593"/>
<polygon points="301,16 309.6,21 309.6,31 301,36 292.4,31 292.4,21" fill="none" stroke="#39FF14" stroke-width="1" opacity="0.038530879109577934"/>
<polygon points="774,165 782.6,170 782.6,180 774,185 765.4,180 765.4,170" fill="none" stroke="#39FF14" stroke-width="1" opacity="0.02886542576057497"/>
<polygon points="203,148 211.6,153 211.6,163 203,168 194.4,163 194.4,153" fill="none" stroke="#39FF14" stroke-width="1" opacity="0.06437163250669417"/>
<polygon points="295,37 303.6,42 303.6,52 295,57 286.4,52 286.4,42" fill="none" stroke="#39FF14" stroke-width="1" opacity="0.04891675370679184"/>
<polygon points="289,66 297.6,71 297.6,81 289,86 280.4,81 280.4,71" fill="none" stroke="#39FF14" stroke-width="1" opacity="0.06657412250093846"/>
<polygon points="633,92 641.6,97 641.6,107 633,112 624.4,107 624.4,97" fill="none" stroke="#39FF14" stroke-width="1" opacity="0.07655288934795867"/>
<polygon points="448,109 456.6,114 456.6,124 448,129 439.4,124 439.4,114" fill="none" stroke="#39FF14" stroke-width="1" opacity="0.03382780361538092"/>
<polygon points="628,186 636.6,191 636.6,201 628,206 619.4,201 619.4,191" fill="none" stroke="#39FF14" stroke-width="1" opacity="0.03530510485155977"/>
<polygon points="237,128 245.6,133 245.6,143 237,148 228.4,143 228.4,133" fill="none" stroke="#39FF14" stroke-width="1" opacity="0.06644616418642732"/>
<polygon points="116,53 124.6,58 124.6,68 116,73 107.4,68 107.4,58" fill="none" stroke="#39FF14" stroke-width="1" opacity="0.02219776450241086"/>
<polygon points="430,58 438.6,63 438.6,73 430,78 421.4,73 421.4,63" fill="none" stroke="#39FF14" stroke-width="1" opacity="0.07450649132686417"/>
</g>

  <!-- HUD Decorative elements -->
  <path d="M 20 20 L 40 20 L 50 30" fill="none" stroke="#39FF14" stroke-width="2" opacity="0.5"/>
  <path d="M 830 180 L 810 180 L 800 170" fill="none" stroke="#39FF14" stroke-width="2" opacity="0.5"/>

  <g clip-path="url(#dashClip)">
    <rect x="-160" y="0" width="160" height="200" fill="url(#scanlineGrad)">
      <animateTransform attributeName="transform" type="translate"
                        from="0 0" to="1010 0" dur="6s" repeatCount="indefinite"/>
    </rect>
  </g>

  <g font-family="'Consolas', 'Fira Code', monospace" text-anchor="middle">

    <!-- NETWORK STATUS -->
    <g transform="translate(130, 100)">
        <circle cx="0" cy="0" r="45" fill="none" stroke="#39FF14" stroke-width="2" stroke-dasharray="10 5">
            <animateTransform attributeName="transform" type="rotate" from="0" to="360" dur="10s" repeatCount="indefinite"/>
        </circle>
        <circle cx="0" cy="0" r="35" fill="#0d0d0d" />
        <text x="0" y="-60" font-size="12" fill="#aaaaaa" letter-spacing="2">ROOT.AUTH</text>
        <text x="0" y="70" font-size="14" fill="#ffffff" font-weight="bold">OPERATIONAL</text>
    </g>

    <!-- ACTIVE USERS -->
    <g transform="translate(330, 100)">
        <text x="0" y="-20" font-size="12" fill="#aaaaaa">CITIZENS</text>
        <text x="0" y="15" font-size="28" fill="#ffffff" font-weight="bold" filter="url(#textGlow)">15,023</text>
        <text x="0" y="35" font-size="10" fill="#777777">VERIFIED HUMANS</text>
    </g>

    <!-- REGISTERED AGENTS -->
    <g transform="translate(530, 100)">
        <text x="0" y="-20" font-size="12" fill="#aaaaaa">AGENTS</text>
        <text x="0" y="15" font-size="28" fill="#00d4ff" font-weight="bold" filter="url(#textGlow)">3,664</text>
        <text x="0" y="35" font-size="10" fill="#777777">REGISTERED DIDs</text>
    </g>

    <!-- TRANSACTIONS -->
    <g transform="translate(730, 100)">
        <text x="0" y="-20" font-size="12" fill="#aaaaaa">TRANSFERS</text>
        <text x="0" y="15" font-size="28" fill="#ffffff" font-weight="bold">31,682</text>
        <text x="0" y="35" font-size="10" fill="#777777">M2M SETTLEMENTS</text>
    </g>
  </g>

  <text x="425" y="185" font-family="'Consolas', 'Fira Code', monospace" font-size="10" fill="#aaaaaa" opacity="0.6" text-anchor="middle">AXIOMID PROJECTED TARGETS (ILLUSTRATIVE): 2026-06-23 07:09:39 UTC // SECURE_HANDSHAKE</text>
</svg>