<svg width="850" height="200" viewBox="0 0 850 200" xmlns="http://www.w3.org/2000/svg">
  <defs>
    <pattern id="carbonFiber" width="10" height="10" patternUnits="userSpaceOnUse">
        <rect width="10" height="10" fill="#050505"/>
        <path d="M0,0 L5,5 L10,0 L5,-5 Z M5,5 L10,10 L15,5 L10,0 Z M-5,5 L0,10 L5,5 L0,0 Z M0,10 L5,15 L10,10 L5,5 Z" fill="#0d0d0d"/>
    </pattern>
    <filter id="textGlow">
      <feGaussianBlur stdDeviation="2" result="blur" />
      <feMerge>
        <feMergeNode in="blur"/>
        <feMergeNode in="SourceGraphic"/>
      </feMerge>
    </filter>
    <linearGradient id="neonBar" x1="0%" y1="0%" x2="100%" y2="0%">
        <stop offset="0%" stop-color="#111111"/>
        <stop offset="100%" stop-color="#39FF14"/>
    </linearGradient>
    <linearGradient id="scanlineGrad" x1="0%" y1="0%" x2="100%" y2="0%">
        <stop offset="0%" stop-color="#39FF14" stop-opacity="0"/>
        <stop offset="50%" stop-color="#39FF14" stop-opacity="0.18"/>
        <stop offset="100%" stop-color="#39FF14" stop-opacity="0"/>
    </linearGradient>
    <clipPath id="dashClip">
        <rect x="0" y="0" width="850" height="200" rx="12"/>
    </clipPath>
  </defs>

  <rect width="100%" height="100%" fill="url(#carbonFiber)" rx="12" stroke="#39FF14" stroke-width="1" stroke-opacity="0.3"/>
  <rect width="100%" height="100%" fill="#000000" opacity="0.6" rx="12" />
  <g><polygon points="646,99 654.6,104 654.6,114 646,119 637.4,114 637.4,104" fill="none" stroke="#39FF14" stroke-width="1" opacity="0.038809955899239995"/>
<polygon points="662,-10 670.6,-5 670.6,5 662,10 653.4,5 653.4,-5" fill="none" stroke="#39FF14" stroke-width="1" opacity="0.0704468840551449"/>
<polygon points="217,75 225.6,80 225.6,90 217,95 208.4,90 208.4,80" fill="none" stroke="#39FF14" stroke-width="1" opacity="0.051540660954734765"/>
<polygon points="234,133 242.6,138 242.6,148 234,153 225.4,148 225.4,138" fill="none" stroke="#39FF14" stroke-width="1" opacity="0.03054474939035518"/>
<polygon points="234,25 242.6,30 242.6,40 234,45 225.4,40 225.4,30" fill="none" stroke="#39FF14" stroke-width="1" opacity="0.07573118511104837"/>
<polygon points="274,190 282.6,195 282.6,205 274,210 265.4,205 265.4,195" fill="none" stroke="#39FF14" stroke-width="1" opacity="0.051487967564249254"/>
<polygon points="729,48 737.6,53 737.6,63 729,68 720.4,63 720.4,53" fill="none" stroke="#39FF14" stroke-width="1" opacity="0.07943953484825979"/>
<polygon points="297,73 305.6,78 305.6,88 297,93 288.4,88 288.4,78" fill="none" stroke="#39FF14" stroke-width="1" opacity="0.07324667432952217"/>
<polygon points="448,176 456.6,181 456.6,191 448,196 439.4,191 439.4,181" fill="none" stroke="#39FF14" stroke-width="1" opacity="0.03825388086874387"/>
<polygon points="574,154 582.6,159 582.6,169 574,174 565.4,169 565.4,159" fill="none" stroke="#39FF14" stroke-width="1" opacity="0.05073500843212923"/>
<polygon points="555,115 563.6,120 563.6,130 555,135 546.4,130 546.4,120" fill="none" stroke="#39FF14" stroke-width="1" opacity="0.058037709235288115"/>
<polygon points="728,72 736.6,77 736.6,87 728,92 719.4,87 719.4,77" fill="none" stroke="#39FF14" stroke-width="1" opacity="0.0633780399423227"/>
<polygon points="64,-1 72.6,4 72.6,14 64,19 55.4,14 55.4,4" fill="none" stroke="#39FF14" stroke-width="1" opacity="0.027413893518961802"/>
<polygon points="417,27 425.6,32 425.6,42 417,47 408.4,42 408.4,32" fill="none" stroke="#39FF14" stroke-width="1" opacity="0.023133664251948786"/>
<polygon points="236,166 244.6,171 244.6,181 236,186 227.4,181 227.4,171" fill="none" stroke="#39FF14" stroke-width="1" opacity="0.04540166542175395"/>
<polygon points="99,110 107.6,115 107.6,125 99,130 90.4,125 90.4,115" fill="none" stroke="#39FF14" stroke-width="1" opacity="0.049181458781647716"/>
<polygon points="140,122 148.6,127 148.6,137 140,142 131.4,137 131.4,127" fill="none" stroke="#39FF14" stroke-width="1" opacity="0.05553965053813309"/>
<polygon points="520,84 528.6,89 528.6,99 520,104 511.4,99 511.4,89" fill="none" stroke="#39FF14" stroke-width="1" opacity="0.06672206128873986"/>
<polygon points="499,68 507.6,73 507.6,83 499,88 490.4,83 490.4,73" fill="none" stroke="#39FF14" stroke-width="1" opacity="0.06749360287736876"/>
<polygon points="700,69 708.6,74 708.6,84 700,89 691.4,84 691.4,74" fill="none" stroke="#39FF14" stroke-width="1" opacity="0.07857162019537048"/>
<polygon points="672,86 680.6,91 680.6,101 672,106 663.4,101 663.4,91" fill="none" stroke="#39FF14" stroke-width="1" opacity="0.06301230790754107"/>
<polygon points="695,149 703.6,154 703.6,164 695,169 686.4,164 686.4,154" fill="none" stroke="#39FF14" stroke-width="1" opacity="0.04890970296746433"/>
<polygon points="342,90 350.6,95 350.6,105 342,110 333.4,105 333.4,95" fill="none" stroke="#39FF14" stroke-width="1" opacity="0.04667304663312085"/>
<polygon points="750,137 758.6,142 758.6,152 750,157 741.4,152 741.4,142" fill="none" stroke="#39FF14" stroke-width="1" opacity="0.07883959670094642"/>
<polygon points="760,116 768.6,121 768.6,131 760,136 751.4,131 751.4,121" fill="none" stroke="#39FF14" stroke-width="1" opacity="0.03077770593360276"/>
<polygon points="803,136 811.6,141 811.6,151 803,156 794.4,151 794.4,141" fill="none" stroke="#39FF14" stroke-width="1" opacity="0.07168352070018509"/>
<polygon points="71,9 79.6,14 79.6,24 71,29 62.4,24 62.4,14" fill="none" stroke="#39FF14" stroke-width="1" opacity="0.03085462113391236"/>
<polygon points="582,4 590.6,9 590.6,19 582,24 573.4,19 573.4,9" fill="none" stroke="#39FF14" stroke-width="1" opacity="0.02974804892788825"/>
<polygon points="793,38 801.6,43 801.6,53 793,58 784.4,53 784.4,43" fill="none" stroke="#39FF14" stroke-width="1" opacity="0.057121003000145096"/>
<polygon points="59,57 67.6,62 67.6,72 59,77 50.4,72 50.4,62" fill="none" stroke="#39FF14" stroke-width="1" opacity="0.06492102281745996"/>
</g>

  <!-- HUD Decorative elements -->
  <path d="M 20 20 L 40 20 L 50 30" fill="none" stroke="#39FF14" stroke-width="2" opacity="0.5"/>
  <path d="M 830 180 L 810 180 L 800 170" fill="none" stroke="#39FF14" stroke-width="2" opacity="0.5"/>

  <g clip-path="url(#dashClip)">
    <rect x="-160" y="0" width="160" height="200" fill="url(#scanlineGrad)">
      <animateTransform attributeName="transform" type="translate"
                        from="0 0" to="1010 0" dur="6s" repeatCount="indefinite"/>
    </rect>
  </g>

  <g font-family="'Consolas', 'Fira Code', monospace" text-anchor="middle">

    <!-- NETWORK STATUS -->
    <g transform="translate(130, 100)">
        <circle cx="0" cy="0" r="45" fill="none" stroke="#39FF14" stroke-width="2" stroke-dasharray="10 5">
            <animateTransform attributeName="transform" type="rotate" from="0" to="360" dur="10s" repeatCount="indefinite"/>
        </circle>
        <circle cx="0" cy="0" r="35" fill="#0d0d0d" />
        <text x="0" y="-60" font-size="12" fill="#aaaaaa" letter-spacing="2">ROOT.AUTH</text>
        <text x="0" y="70" font-size="14" fill="#ffffff" font-weight="bold">OPERATIONAL</text>
    </g>

    <!-- ACTIVE USERS -->
    <g transform="translate(330, 100)">
        <text x="0" y="-20" font-size="12" fill="#aaaaaa">CITIZENS</text>
        <text x="0" y="15" font-size="28" fill="#ffffff" font-weight="bold" filter="url(#textGlow)">13,438</text>
        <text x="0" y="35" font-size="10" fill="#777777">VERIFIED HUMANS</text>
    </g>

    <!-- REGISTERED AGENTS -->
    <g transform="translate(530, 100)">
        <text x="0" y="-20" font-size="12" fill="#aaaaaa">AGENTS</text>
        <text x="0" y="15" font-size="28" fill="#00d4ff" font-weight="bold" filter="url(#textGlow)">3,558</text>
        <text x="0" y="35" font-size="10" fill="#777777">REGISTERED DIDs</text>
    </g>

    <!-- TRANSACTIONS -->
    <g transform="translate(730, 100)">
        <text x="0" y="-20" font-size="12" fill="#aaaaaa">TRANSFERS</text>
        <text x="0" y="15" font-size="28" fill="#ffffff" font-weight="bold">30,545</text>
        <text x="0" y="35" font-size="10" fill="#777777">M2M SETTLEMENTS</text>
    </g>
  </g>

  <text x="425" y="185" font-family="'Consolas', 'Fira Code', monospace" font-size="10" fill="#aaaaaa" opacity="0.6" text-anchor="middle">AXIOMID PROJECTED TARGETS (ILLUSTRATIVE): 2026-06-18 18:45:12 UTC // SECURE_HANDSHAKE</text>
</svg>