<svg width="850" height="200" viewBox="0 0 850 200" xmlns="http://www.w3.org/2000/svg">
  <defs>
    <!-- Carbon Fiber Pattern -->
    <pattern id="carbonFiber" width="10" height="10" patternUnits="userSpaceOnUse">
        <rect width="10" height="10" fill="#050505"/>
        <path d="M0,0 L5,5 L10,0 L5,-5 Z M5,5 L10,10 L15,5 L10,0 Z M-5,5 L0,10 L5,5 L0,0 Z M0,10 L5,15 L10,10 L5,5 Z" fill="#0d0d0d"/>
    </pattern>
    <filter id="glassmorphism">
      <feGaussianBlur stdDeviation="3" result="blur" />
      <feColorMatrix type="matrix" values="1 0 0 0 0  0 1 0 0 0  0 0 1 0 0  0 0 0 18 -7" result="glow" />
      <feBlend in="SourceGraphic" in2="glow" mode="normal" />
    </filter>
    <filter id="textGlow">
      <feGaussianBlur stdDeviation="2" result="blur" />
      <feMerge>
        <feMergeNode in="blur"/>
        <feMergeNode in="SourceGraphic"/>
      </feMerge>
    </filter>
    <linearGradient id="neonBar" x1="0%" y1="0%" x2="100%" y2="0%">
        <stop offset="0%" stop-color="#111111"/>
        <stop offset="100%" stop-color="#39FF14"/>
    </linearGradient>
  </defs>

  <rect width="100%" height="100%" fill="url(#carbonFiber)" rx="12" stroke="#39FF14" stroke-width="1" stroke-opacity="0.3"/>
  <rect width="100%" height="100%" fill="#000000" opacity="0.6" rx="12" />
  <g><polygon points="307,52 315.6,57 315.6,67 307,72 298.4,67 298.4,57" fill="none" stroke="#39FF14" stroke-width="1" opacity="0.06300182941985197"/>
<polygon points="219,52 227.6,57 227.6,67 219,72 210.4,67 210.4,57" fill="none" stroke="#39FF14" stroke-width="1" opacity="0.03390813565130894"/>
<polygon points="572,33 580.6,38 580.6,48 572,53 563.4,48 563.4,38" fill="none" stroke="#39FF14" stroke-width="1" opacity="0.07358521211806414"/>
<polygon points="836,54 844.6,59 844.6,69 836,74 827.4,69 827.4,59" fill="none" stroke="#39FF14" stroke-width="1" opacity="0.037030218555451896"/>
<polygon points="315,170 323.6,175 323.6,185 315,190 306.4,185 306.4,175" fill="none" stroke="#39FF14" stroke-width="1" opacity="0.07369305393940614"/>
<polygon points="396,145 404.6,150 404.6,160 396,165 387.4,160 387.4,150" fill="none" stroke="#39FF14" stroke-width="1" opacity="0.07608371377853361"/>
<polygon points="397,176 405.6,181 405.6,191 397,196 388.4,191 388.4,181" fill="none" stroke="#39FF14" stroke-width="1" opacity="0.06213298598331837"/>
<polygon points="617,102 625.6,107 625.6,117 617,122 608.4,117 608.4,107" fill="none" stroke="#39FF14" stroke-width="1" opacity="0.04682717100713213"/>
<polygon points="563,188 571.6,193 571.6,203 563,208 554.4,203 554.4,193" fill="none" stroke="#39FF14" stroke-width="1" opacity="0.03302614225272139"/>
<polygon points="95,9 103.6,14 103.6,24 95,29 86.4,24 86.4,14" fill="none" stroke="#39FF14" stroke-width="1" opacity="0.04624953931390818"/>
<polygon points="824,112 832.6,117 832.6,127 824,132 815.4,127 815.4,117" fill="none" stroke="#39FF14" stroke-width="1" opacity="0.0386208512968427"/>
<polygon points="380,-2 388.6,3 388.6,13 380,18 371.4,13 371.4,3" fill="none" stroke="#39FF14" stroke-width="1" opacity="0.02104996700777023"/>
<polygon points="667,-8 675.6,-3 675.6,7 667,12 658.4,7 658.4,-3" fill="none" stroke="#39FF14" stroke-width="1" opacity="0.03712591987940528"/>
<polygon points="285,109 293.6,114 293.6,124 285,129 276.4,124 276.4,114" fill="none" stroke="#39FF14" stroke-width="1" opacity="0.060981240536730624"/>
<polygon points="606,179 614.6,184 614.6,194 606,199 597.4,194 597.4,184" fill="none" stroke="#39FF14" stroke-width="1" opacity="0.03681952030960722"/>
<polygon points="520,-4 528.6,1 528.6,11 520,16 511.4,11 511.4,1" fill="none" stroke="#39FF14" stroke-width="1" opacity="0.022015878546947223"/>
<polygon points="658,25 666.6,30 666.6,40 658,45 649.4,40 649.4,30" fill="none" stroke="#39FF14" stroke-width="1" opacity="0.023964080952803817"/>
<polygon points="839,-4 847.6,1 847.6,11 839,16 830.4,11 830.4,1" fill="none" stroke="#39FF14" stroke-width="1" opacity="0.07735184629146259"/>
<polygon points="4,35 12.6,40 12.6,50 4,55 -4.6,50 -4.6,40" fill="none" stroke="#39FF14" stroke-width="1" opacity="0.06933399449081283"/>
<polygon points="354,176 362.6,181 362.6,191 354,196 345.4,191 345.4,181" fill="none" stroke="#39FF14" stroke-width="1" opacity="0.07964580268237742"/>
<polygon points="715,72 723.6,77 723.6,87 715,92 706.4,87 706.4,77" fill="none" stroke="#39FF14" stroke-width="1" opacity="0.07187159450014453"/>
<polygon points="475,126 483.6,131 483.6,141 475,146 466.4,141 466.4,131" fill="none" stroke="#39FF14" stroke-width="1" opacity="0.07961967848367943"/>
<polygon points="805,44 813.6,49 813.6,59 805,64 796.4,59 796.4,49" fill="none" stroke="#39FF14" stroke-width="1" opacity="0.03144234835514187"/>
<polygon points="609,106 617.6,111 617.6,121 609,126 600.4,121 600.4,111" fill="none" stroke="#39FF14" stroke-width="1" opacity="0.04949747435347653"/>
<polygon points="522,184 530.6,189 530.6,199 522,204 513.4,199 513.4,189" fill="none" stroke="#39FF14" stroke-width="1" opacity="0.07768316150004641"/>
<polygon points="122,120 130.6,125 130.6,135 122,140 113.4,135 113.4,125" fill="none" stroke="#39FF14" stroke-width="1" opacity="0.07069325822511903"/>
<polygon points="489,24 497.6,29 497.6,39 489,44 480.4,39 480.4,29" fill="none" stroke="#39FF14" stroke-width="1" opacity="0.04684810809011617"/>
<polygon points="530,94 538.6,99 538.6,109 530,114 521.4,109 521.4,99" fill="none" stroke="#39FF14" stroke-width="1" opacity="0.05207905670529399"/>
<polygon points="446,103 454.6,108 454.6,118 446,123 437.4,118 437.4,108" fill="none" stroke="#39FF14" stroke-width="1" opacity="0.04402314969143094"/>
<polygon points="465,-1 473.6,4 473.6,14 465,19 456.4,14 456.4,4" fill="none" stroke="#39FF14" stroke-width="1" opacity="0.058882410650439504"/>
</g>

  <!-- HUD Decorative elements -->
  <path d="M 20 20 L 40 20 L 50 30" fill="none" stroke="#39FF14" stroke-width="2" opacity="0.5"/>
  <path d="M 830 180 L 810 180 L 800 170" fill="none" stroke="#39FF14" stroke-width="2" opacity="0.5"/>
  <rect x="20" y="100" width="2" height="40" fill="#ffffff" opacity="0.4"/>
  <rect x="828" y="60" width="2" height="40" fill="#39FF14" opacity="0.6"/>

  <g font-family="'Consolas', 'Fira Code', monospace" text-anchor="middle">

    <!-- SYSTEM STATUS -->
    <g transform="translate(130, 100)">
        <circle cx="0" cy="0" r="45" fill="none" stroke="#111111" stroke-width="8" />
        <circle cx="0" cy="0" r="45" fill="none" stroke="#39FF14" stroke-width="2" stroke-dasharray="10 5">
            <animateTransform attributeName="transform" type="rotate" from="0" to="360" dur="10s" repeatCount="indefinite"/>
        </circle>
        <circle cx="0" cy="0" r="35" fill="#0d0d0d" />
        <circle cx="0" cy="0" r="6" fill="#39FF14" filter="url(#textGlow)">
            <animate attributeName="opacity" values="1;0.3;1" dur="2s" repeatCount="indefinite"/>
        </circle>
        <text x="0" y="-60" font-size="12" fill="#aaaaaa" letter-spacing="2">SYS.CORE</text>
        <text x="0" y="70" font-size="14" fill="#ffffff" font-weight="bold">ONLINE</text>
    </g>

    <!-- LIVE TRAFFIC -->
    <g transform="translate(330, 100)">
        <rect x="-60" y="-45" width="120" height="90" fill="#0a0a0a" rx="8" stroke="#39FF14" stroke-opacity="0.4" stroke-width="1"/>
        <text x="0" y="-20" font-size="12" fill="#aaaaaa">NETWORK LOAD</text>
        <text x="0" y="15" font-size="28" fill="#ffffff" font-weight="bold" filter="url(#textGlow)">4319</text>
        <text x="0" y="35" font-size="10" fill="#777777">ACTIVE SESSIONS</text>
    </g>

    <!-- ACTIVE AGENTS -->
    <g transform="translate(530, 100)">
        <rect x="-60" y="-45" width="120" height="90" fill="#0a0a0a" rx="8" stroke="#39FF14" stroke-opacity="0.4" stroke-width="1"/>
        <text x="0" y="-20" font-size="12" fill="#aaaaaa">SWARM ENTITIES</text>
        <text x="0" y="15" font-size="28" fill="#ffffff" font-weight="bold" filter="url(#textGlow)">122</text>
        <text x="0" y="35" font-size="10" fill="#777777">AUTONOMOUS</text>
    </g>

    <!-- UPTIME -->
    <g transform="translate(730, 100)">
        <path d="M -40 -35 L 40 -35 L 50 -25 L 50 35 L -40 35 L -50 25 Z" fill="#0a0a0a" stroke="#39FF14" stroke-opacity="0.4" stroke-width="1"/>
        <text x="0" y="-15" font-size="12" fill="#aaaaaa">CONTINUITY</text>
        <text x="0" y="15" font-size="24" fill="#ffffff" font-weight="bold">361<tspan font-size="14" fill="#777777">d</tspan></text>
        <rect x="-35" y="25" width="70" height="4" fill="url(#neonBar)" rx="2"/>
    </g>
  </g>

  <text x="425" y="185" font-family="'Consolas', 'Fira Code', monospace" font-size="10" fill="#aaaaaa" opacity="0.6" text-anchor="middle">LAST TELEMETRY PING: 2026-04-26 15:10:47 UTC // ENCRYPTED_TUNNEL</text>
</svg>