<svg width="850" height="200" viewBox="0 0 850 200" xmlns="http://www.w3.org/2000/svg">
  <defs>
    <!-- Carbon Fiber Pattern -->
    <pattern id="carbonFiber" width="10" height="10" patternUnits="userSpaceOnUse">
        <rect width="10" height="10" fill="#050505"/>
        <path d="M0,0 L5,5 L10,0 L5,-5 Z M5,5 L10,10 L15,5 L10,0 Z M-5,5 L0,10 L5,5 L0,0 Z M0,10 L5,15 L10,10 L5,5 Z" fill="#0d0d0d"/>
    </pattern>
    <filter id="glassmorphism">
      <feGaussianBlur stdDeviation="3" result="blur" />
      <feColorMatrix type="matrix" values="1 0 0 0 0  0 1 0 0 0  0 0 1 0 0  0 0 0 18 -7" result="glow" />
      <feBlend in="SourceGraphic" in2="glow" mode="normal" />
    </filter>
    <filter id="textGlow">
      <feGaussianBlur stdDeviation="2" result="blur" />
      <feMerge>
        <feMergeNode in="blur"/>
        <feMergeNode in="SourceGraphic"/>
      </feMerge>
    </filter>
    <linearGradient id="neonBar" x1="0%" y1="0%" x2="100%" y2="0%">
        <stop offset="0%" stop-color="#111111"/>
        <stop offset="100%" stop-color="#39FF14"/>
    </linearGradient>
  </defs>

  <rect width="100%" height="100%" fill="url(#carbonFiber)" rx="12" stroke="#39FF14" stroke-width="1" stroke-opacity="0.3"/>
  <rect width="100%" height="100%" fill="#000000" opacity="0.6" rx="12" />
  <g><polygon points="321,115 329.6,120 329.6,130 321,135 312.4,130 312.4,120" fill="none" stroke="#39FF14" stroke-width="1" opacity="0.04805546518611215"/>
<polygon points="106,44 114.6,49 114.6,59 106,64 97.4,59 97.4,49" fill="none" stroke="#39FF14" stroke-width="1" opacity="0.026189160054693336"/>
<polygon points="374,79 382.6,84 382.6,94 374,99 365.4,94 365.4,84" fill="none" stroke="#39FF14" stroke-width="1" opacity="0.039077395067981364"/>
<polygon points="517,-4 525.6,1 525.6,11 517,16 508.4,11 508.4,1" fill="none" stroke="#39FF14" stroke-width="1" opacity="0.03158066429531598"/>
<polygon points="97,37 105.6,42 105.6,52 97,57 88.4,52 88.4,42" fill="none" stroke="#39FF14" stroke-width="1" opacity="0.07470700369116193"/>
<polygon points="12,55 20.6,60 20.6,70 12,75 3.4000000000000004,70 3.4000000000000004,60" fill="none" stroke="#39FF14" stroke-width="1" opacity="0.03543106213577879"/>
<polygon points="645,21 653.6,26 653.6,36 645,41 636.4,36 636.4,26" fill="none" stroke="#39FF14" stroke-width="1" opacity="0.07237509244344638"/>
<polygon points="804,86 812.6,91 812.6,101 804,106 795.4,101 795.4,91" fill="none" stroke="#39FF14" stroke-width="1" opacity="0.04449222083322506"/>
<polygon points="561,163 569.6,168 569.6,178 561,183 552.4,178 552.4,168" fill="none" stroke="#39FF14" stroke-width="1" opacity="0.04058398189413942"/>
<polygon points="386,137 394.6,142 394.6,152 386,157 377.4,152 377.4,142" fill="none" stroke="#39FF14" stroke-width="1" opacity="0.07765218385220608"/>
<polygon points="340,69 348.6,74 348.6,84 340,89 331.4,84 331.4,74" fill="none" stroke="#39FF14" stroke-width="1" opacity="0.04023876601276628"/>
<polygon points="798,-4 806.6,1 806.6,11 798,16 789.4,11 789.4,1" fill="none" stroke="#39FF14" stroke-width="1" opacity="0.06753452342928748"/>
<polygon points="836,87 844.6,92 844.6,102 836,107 827.4,102 827.4,92" fill="none" stroke="#39FF14" stroke-width="1" opacity="0.05472600408154722"/>
<polygon points="708,154 716.6,159 716.6,169 708,174 699.4,169 699.4,159" fill="none" stroke="#39FF14" stroke-width="1" opacity="0.02449695526260933"/>
<polygon points="451,30 459.6,35 459.6,45 451,50 442.4,45 442.4,35" fill="none" stroke="#39FF14" stroke-width="1" opacity="0.049873885728143795"/>
<polygon points="368,124 376.6,129 376.6,139 368,144 359.4,139 359.4,129" fill="none" stroke="#39FF14" stroke-width="1" opacity="0.03367531338540407"/>
<polygon points="157,152 165.6,157 165.6,167 157,172 148.4,167 148.4,157" fill="none" stroke="#39FF14" stroke-width="1" opacity="0.028770670904530584"/>
<polygon points="265,103 273.6,108 273.6,118 265,123 256.4,118 256.4,108" fill="none" stroke="#39FF14" stroke-width="1" opacity="0.025869436965355"/>
<polygon points="785,50 793.6,55 793.6,65 785,70 776.4,65 776.4,55" fill="none" stroke="#39FF14" stroke-width="1" opacity="0.03708479765009574"/>
<polygon points="221,110 229.6,115 229.6,125 221,130 212.4,125 212.4,115" fill="none" stroke="#39FF14" stroke-width="1" opacity="0.030165441123420185"/>
<polygon points="99,20 107.6,25 107.6,35 99,40 90.4,35 90.4,25" fill="none" stroke="#39FF14" stroke-width="1" opacity="0.032251820331606174"/>
<polygon points="750,159 758.6,164 758.6,174 750,179 741.4,174 741.4,164" fill="none" stroke="#39FF14" stroke-width="1" opacity="0.053400199570772786"/>
<polygon points="488,34 496.6,39 496.6,49 488,54 479.4,49 479.4,39" fill="none" stroke="#39FF14" stroke-width="1" opacity="0.0404801719810051"/>
<polygon points="574,26 582.6,31 582.6,41 574,46 565.4,41 565.4,31" fill="none" stroke="#39FF14" stroke-width="1" opacity="0.06849654085757305"/>
<polygon points="455,9 463.6,14 463.6,24 455,29 446.4,24 446.4,14" fill="none" stroke="#39FF14" stroke-width="1" opacity="0.059601934858756894"/>
<polygon points="704,170 712.6,175 712.6,185 704,190 695.4,185 695.4,175" fill="none" stroke="#39FF14" stroke-width="1" opacity="0.02620544834161054"/>
<polygon points="69,144 77.6,149 77.6,159 69,164 60.4,159 60.4,149" fill="none" stroke="#39FF14" stroke-width="1" opacity="0.047239107048644036"/>
<polygon points="699,14 707.6,19 707.6,29 699,34 690.4,29 690.4,19" fill="none" stroke="#39FF14" stroke-width="1" opacity="0.03822505205763157"/>
<polygon points="784,90 792.6,95 792.6,105 784,110 775.4,105 775.4,95" fill="none" stroke="#39FF14" stroke-width="1" opacity="0.07140014306835506"/>
<polygon points="512,-7 520.6,-2 520.6,8 512,13 503.4,8 503.4,-2" fill="none" stroke="#39FF14" stroke-width="1" opacity="0.0687668218059609"/>
</g>

  <!-- HUD Decorative elements -->
  <path d="M 20 20 L 40 20 L 50 30" fill="none" stroke="#39FF14" stroke-width="2" opacity="0.5"/>
  <path d="M 830 180 L 810 180 L 800 170" fill="none" stroke="#39FF14" stroke-width="2" opacity="0.5"/>
  <rect x="20" y="100" width="2" height="40" fill="#ffffff" opacity="0.4"/>
  <rect x="828" y="60" width="2" height="40" fill="#39FF14" opacity="0.6"/>

  <g font-family="'Consolas', 'Fira Code', monospace" text-anchor="middle">

    <!-- SYSTEM STATUS -->
    <g transform="translate(130, 100)">
        <circle cx="0" cy="0" r="45" fill="none" stroke="#111111" stroke-width="8" />
        <circle cx="0" cy="0" r="45" fill="none" stroke="#39FF14" stroke-width="2" stroke-dasharray="10 5">
            <animateTransform attributeName="transform" type="rotate" from="0" to="360" dur="10s" repeatCount="indefinite"/>
        </circle>
        <circle cx="0" cy="0" r="35" fill="#0d0d0d" />
        <circle cx="0" cy="0" r="6" fill="#39FF14" filter="url(#textGlow)">
            <animate attributeName="opacity" values="1;0.3;1" dur="2s" repeatCount="indefinite"/>
        </circle>
        <text x="0" y="-60" font-size="12" fill="#aaaaaa" letter-spacing="2">SYS.CORE</text>
        <text x="0" y="70" font-size="14" fill="#ffffff" font-weight="bold">ONLINE</text>
    </g>

    <!-- LIVE TRAFFIC -->
    <g transform="translate(330, 100)">
        <rect x="-60" y="-45" width="120" height="90" fill="#0a0a0a" rx="8" stroke="#39FF14" stroke-opacity="0.4" stroke-width="1"/>
        <text x="0" y="-20" font-size="12" fill="#aaaaaa">NETWORK LOAD</text>
        <text x="0" y="15" font-size="28" fill="#ffffff" font-weight="bold" filter="url(#textGlow)">5843</text>
        <text x="0" y="35" font-size="10" fill="#777777">ACTIVE SESSIONS</text>
    </g>

    <!-- ACTIVE AGENTS -->
    <g transform="translate(530, 100)">
        <rect x="-60" y="-45" width="120" height="90" fill="#0a0a0a" rx="8" stroke="#39FF14" stroke-opacity="0.4" stroke-width="1"/>
        <text x="0" y="-20" font-size="12" fill="#aaaaaa">SWARM ENTITIES</text>
        <text x="0" y="15" font-size="28" fill="#ffffff" font-weight="bold" filter="url(#textGlow)">116</text>
        <text x="0" y="35" font-size="10" fill="#777777">AUTONOMOUS</text>
    </g>

    <!-- UPTIME -->
    <g transform="translate(730, 100)">
        <path d="M -40 -35 L 40 -35 L 50 -25 L 50 35 L -40 35 L -50 25 Z" fill="#0a0a0a" stroke="#39FF14" stroke-opacity="0.4" stroke-width="1"/>
        <text x="0" y="-15" font-size="12" fill="#aaaaaa">CONTINUITY</text>
        <text x="0" y="15" font-size="24" fill="#ffffff" font-weight="bold">337<tspan font-size="14" fill="#777777">d</tspan></text>
        <rect x="-35" y="25" width="70" height="4" fill="url(#neonBar)" rx="2"/>
    </g>
  </g>

  <text x="425" y="185" font-family="'Consolas', 'Fira Code', monospace" font-size="10" fill="#aaaaaa" opacity="0.6" text-anchor="middle">LAST TELEMETRY PING: 2026-04-26 17:05:45 UTC // ENCRYPTED_TUNNEL</text>
</svg>