<svg width="850" height="200" viewBox="0 0 850 200" xmlns="http://www.w3.org/2000/svg">
  <defs>
    <pattern id="carbonFiber" width="10" height="10" patternUnits="userSpaceOnUse">
        <rect width="10" height="10" fill="#050505"/>
        <path d="M0,0 L5,5 L10,0 L5,-5 Z M5,5 L10,10 L15,5 L10,0 Z M-5,5 L0,10 L5,5 L0,0 Z M0,10 L5,15 L10,10 L5,5 Z" fill="#0d0d0d"/>
    </pattern>
    <filter id="textGlow">
      <feGaussianBlur stdDeviation="2" result="blur" />
      <feMerge>
        <feMergeNode in="blur"/>
        <feMergeNode in="SourceGraphic"/>
      </feMerge>
    </filter>
    <linearGradient id="neonBar" x1="0%" y1="0%" x2="100%" y2="0%">
        <stop offset="0%" stop-color="#111111"/>
        <stop offset="100%" stop-color="#39FF14"/>
    </linearGradient>
    <linearGradient id="scanlineGrad" x1="0%" y1="0%" x2="100%" y2="0%">
        <stop offset="0%" stop-color="#39FF14" stop-opacity="0"/>
        <stop offset="50%" stop-color="#39FF14" stop-opacity="0.18"/>
        <stop offset="100%" stop-color="#39FF14" stop-opacity="0"/>
    </linearGradient>
    <clipPath id="dashClip">
        <rect x="0" y="0" width="850" height="200" rx="12"/>
    </clipPath>
  </defs>

  <rect width="100%" height="100%" fill="url(#carbonFiber)" rx="12" stroke="#39FF14" stroke-width="1" stroke-opacity="0.3"/>
  <rect width="100%" height="100%" fill="#000000" opacity="0.6" rx="12" />
  <g><polygon points="507,-7 515.6,-2 515.6,8 507,13 498.4,8 498.4,-2" fill="none" stroke="#39FF14" stroke-width="1" opacity="0.03839753091578871"/>
<polygon points="780,80 788.6,85 788.6,95 780,100 771.4,95 771.4,85" fill="none" stroke="#39FF14" stroke-width="1" opacity="0.036855648003340236"/>
<polygon points="619,105 627.6,110 627.6,120 619,125 610.4,120 610.4,110" fill="none" stroke="#39FF14" stroke-width="1" opacity="0.0706687866888059"/>
<polygon points="92,183 100.6,188 100.6,198 92,203 83.4,198 83.4,188" fill="none" stroke="#39FF14" stroke-width="1" opacity="0.021121736966010014"/>
<polygon points="16,33 24.6,38 24.6,48 16,53 7.4,48 7.4,38" fill="none" stroke="#39FF14" stroke-width="1" opacity="0.06130460755469001"/>
<polygon points="147,182 155.6,187 155.6,197 147,202 138.4,197 138.4,187" fill="none" stroke="#39FF14" stroke-width="1" opacity="0.029981034181744002"/>
<polygon points="680,167 688.6,172 688.6,182 680,187 671.4,182 671.4,172" fill="none" stroke="#39FF14" stroke-width="1" opacity="0.027403924420686124"/>
<polygon points="565,154 573.6,159 573.6,169 565,174 556.4,169 556.4,159" fill="none" stroke="#39FF14" stroke-width="1" opacity="0.022552104808490514"/>
<polygon points="58,184 66.6,189 66.6,199 58,204 49.4,199 49.4,189" fill="none" stroke="#39FF14" stroke-width="1" opacity="0.0498830573088191"/>
<polygon points="481,67 489.6,72 489.6,82 481,87 472.4,82 472.4,72" fill="none" stroke="#39FF14" stroke-width="1" opacity="0.020517058431921097"/>
<polygon points="767,2 775.6,7 775.6,17 767,22 758.4,17 758.4,7" fill="none" stroke="#39FF14" stroke-width="1" opacity="0.04697856942721798"/>
<polygon points="503,177 511.6,182 511.6,192 503,197 494.4,192 494.4,182" fill="none" stroke="#39FF14" stroke-width="1" opacity="0.04241398956577522"/>
<polygon points="15,128 23.6,133 23.6,143 15,148 6.4,143 6.4,133" fill="none" stroke="#39FF14" stroke-width="1" opacity="0.046446118675692705"/>
<polygon points="551,45 559.6,50 559.6,60 551,65 542.4,60 542.4,50" fill="none" stroke="#39FF14" stroke-width="1" opacity="0.03941534574091057"/>
<polygon points="583,146 591.6,151 591.6,161 583,166 574.4,161 574.4,151" fill="none" stroke="#39FF14" stroke-width="1" opacity="0.053875840474938624"/>
<polygon points="697,40 705.6,45 705.6,55 697,60 688.4,55 688.4,45" fill="none" stroke="#39FF14" stroke-width="1" opacity="0.025585997548755363"/>
<polygon points="239,103 247.6,108 247.6,118 239,123 230.4,118 230.4,108" fill="none" stroke="#39FF14" stroke-width="1" opacity="0.024449157144800362"/>
<polygon points="205,92 213.6,97 213.6,107 205,112 196.4,107 196.4,97" fill="none" stroke="#39FF14" stroke-width="1" opacity="0.04648421270378336"/>
<polygon points="91,105 99.6,110 99.6,120 91,125 82.4,120 82.4,110" fill="none" stroke="#39FF14" stroke-width="1" opacity="0.038878190026205545"/>
<polygon points="246,156 254.6,161 254.6,171 246,176 237.4,171 237.4,161" fill="none" stroke="#39FF14" stroke-width="1" opacity="0.053538783243100976"/>
<polygon points="681,54 689.6,59 689.6,69 681,74 672.4,69 672.4,59" fill="none" stroke="#39FF14" stroke-width="1" opacity="0.06631743054855435"/>
<polygon points="644,134 652.6,139 652.6,149 644,154 635.4,149 635.4,139" fill="none" stroke="#39FF14" stroke-width="1" opacity="0.033702834749504314"/>
<polygon points="10,131 18.6,136 18.6,146 10,151 1.4000000000000004,146 1.4000000000000004,136" fill="none" stroke="#39FF14" stroke-width="1" opacity="0.03044613852820674"/>
<polygon points="444,147 452.6,152 452.6,162 444,167 435.4,162 435.4,152" fill="none" stroke="#39FF14" stroke-width="1" opacity="0.03819986083670484"/>
<polygon points="823,93 831.6,98 831.6,108 823,113 814.4,108 814.4,98" fill="none" stroke="#39FF14" stroke-width="1" opacity="0.06519685388165829"/>
<polygon points="4,45 12.6,50 12.6,60 4,65 -4.6,60 -4.6,50" fill="none" stroke="#39FF14" stroke-width="1" opacity="0.04132871411972441"/>
<polygon points="674,61 682.6,66 682.6,76 674,81 665.4,76 665.4,66" fill="none" stroke="#39FF14" stroke-width="1" opacity="0.077678269406747"/>
<polygon points="60,128 68.6,133 68.6,143 60,148 51.4,143 51.4,133" fill="none" stroke="#39FF14" stroke-width="1" opacity="0.04617432207570753"/>
<polygon points="51,-10 59.6,-5 59.6,5 51,10 42.4,5 42.4,-5" fill="none" stroke="#39FF14" stroke-width="1" opacity="0.05091769488973692"/>
<polygon points="500,138 508.6,143 508.6,153 500,158 491.4,153 491.4,143" fill="none" stroke="#39FF14" stroke-width="1" opacity="0.06381192888825814"/>
</g>

  <!-- HUD Decorative elements -->
  <path d="M 20 20 L 40 20 L 50 30" fill="none" stroke="#39FF14" stroke-width="2" opacity="0.5"/>
  <path d="M 830 180 L 810 180 L 800 170" fill="none" stroke="#39FF14" stroke-width="2" opacity="0.5"/>

  <g clip-path="url(#dashClip)">
    <rect x="-160" y="0" width="160" height="200" fill="url(#scanlineGrad)">
      <animateTransform attributeName="transform" type="translate"
                        from="0 0" to="1010 0" dur="6s" repeatCount="indefinite"/>
    </rect>
  </g>

  <g font-family="'Consolas', 'Fira Code', monospace" text-anchor="middle">

    <!-- NETWORK STATUS -->
    <g transform="translate(130, 100)">
        <circle cx="0" cy="0" r="45" fill="none" stroke="#39FF14" stroke-width="2" stroke-dasharray="10 5">
            <animateTransform attributeName="transform" type="rotate" from="0" to="360" dur="10s" repeatCount="indefinite"/>
        </circle>
        <circle cx="0" cy="0" r="35" fill="#0d0d0d" />
        <text x="0" y="-60" font-size="12" fill="#aaaaaa" letter-spacing="2">ROOT.AUTH</text>
        <text x="0" y="70" font-size="14" fill="#ffffff" font-weight="bold">OPERATIONAL</text>
    </g>

    <!-- ACTIVE USERS -->
    <g transform="translate(330, 100)">
        <text x="0" y="-20" font-size="12" fill="#aaaaaa">CITIZENS</text>
        <text x="0" y="15" font-size="28" fill="#ffffff" font-weight="bold" filter="url(#textGlow)">15,286</text>
        <text x="0" y="35" font-size="10" fill="#777777">VERIFIED HUMANS</text>
    </g>

    <!-- REGISTERED AGENTS -->
    <g transform="translate(530, 100)">
        <text x="0" y="-20" font-size="12" fill="#aaaaaa">AGENTS</text>
        <text x="0" y="15" font-size="28" fill="#00d4ff" font-weight="bold" filter="url(#textGlow)">4,067</text>
        <text x="0" y="35" font-size="10" fill="#777777">REGISTERED DIDs</text>
    </g>

    <!-- TRANSACTIONS -->
    <g transform="translate(730, 100)">
        <text x="0" y="-20" font-size="12" fill="#aaaaaa">TRANSFERS</text>
        <text x="0" y="15" font-size="28" fill="#ffffff" font-weight="bold">33,857</text>
        <text x="0" y="35" font-size="10" fill="#777777">M2M SETTLEMENTS</text>
    </g>
  </g>

  <text x="425" y="185" font-family="'Consolas', 'Fira Code', monospace" font-size="10" fill="#aaaaaa" opacity="0.6" text-anchor="middle">AXIOMID PROJECTED TARGETS (ILLUSTRATIVE): 2026-06-27 15:25:40 UTC // SECURE_HANDSHAKE</text>
</svg>