<svg width="850" height="200" viewBox="0 0 850 200" xmlns="http://www.w3.org/2000/svg">
  <defs>
    <!-- Carbon Fiber Pattern -->
    <pattern id="carbonFiber" width="10" height="10" patternUnits="userSpaceOnUse">
        <rect width="10" height="10" fill="#050505"/>
        <path d="M0,0 L5,5 L10,0 L5,-5 Z M5,5 L10,10 L15,5 L10,0 Z M-5,5 L0,10 L5,5 L0,0 Z M0,10 L5,15 L10,10 L5,5 Z" fill="#0d0d0d"/>
    </pattern>
    <filter id="glassmorphism">
      <feGaussianBlur stdDeviation="3" result="blur" />
      <feColorMatrix type="matrix" values="1 0 0 0 0  0 1 0 0 0  0 0 1 0 0  0 0 0 18 -7" result="glow" />
      <feBlend in="SourceGraphic" in2="glow" mode="normal" />
    </filter>
    <filter id="textGlow">
      <feGaussianBlur stdDeviation="2" result="blur" />
      <feMerge>
        <feMergeNode in="blur"/>
        <feMergeNode in="SourceGraphic"/>
      </feMerge>
    </filter>
    <linearGradient id="neonBar" x1="0%" y1="0%" x2="100%" y2="0%">
        <stop offset="0%" stop-color="#111111"/>
        <stop offset="100%" stop-color="#39FF14"/>
    </linearGradient>
  </defs>

  <rect width="100%" height="100%" fill="url(#carbonFiber)" rx="12" stroke="#39FF14" stroke-width="1" stroke-opacity="0.3"/>
  <rect width="100%" height="100%" fill="#000000" opacity="0.6" rx="12" />
  <g><polygon points="495,181 503.6,186 503.6,196 495,201 486.4,196 486.4,186" fill="none" stroke="#39FF14" stroke-width="1" opacity="0.05795320582424135"/>
<polygon points="77,5 85.6,10 85.6,20 77,25 68.4,20 68.4,10" fill="none" stroke="#39FF14" stroke-width="1" opacity="0.056428033013927376"/>
<polygon points="127,-10 135.6,-5 135.6,5 127,10 118.4,5 118.4,-5" fill="none" stroke="#39FF14" stroke-width="1" opacity="0.023854925903997737"/>
<polygon points="573,-4 581.6,1 581.6,11 573,16 564.4,11 564.4,1" fill="none" stroke="#39FF14" stroke-width="1" opacity="0.04234186886117531"/>
<polygon points="460,25 468.6,30 468.6,40 460,45 451.4,40 451.4,30" fill="none" stroke="#39FF14" stroke-width="1" opacity="0.04136538308387793"/>
<polygon points="48,-7 56.6,-2 56.6,8 48,13 39.4,8 39.4,-2" fill="none" stroke="#39FF14" stroke-width="1" opacity="0.036180303596749265"/>
<polygon points="561,30 569.6,35 569.6,45 561,50 552.4,45 552.4,35" fill="none" stroke="#39FF14" stroke-width="1" opacity="0.07752800878228397"/>
<polygon points="388,62 396.6,67 396.6,77 388,82 379.4,77 379.4,67" fill="none" stroke="#39FF14" stroke-width="1" opacity="0.0762195343595305"/>
<polygon points="441,188 449.6,193 449.6,203 441,208 432.4,203 432.4,193" fill="none" stroke="#39FF14" stroke-width="1" opacity="0.06737164676954965"/>
<polygon points="393,80 401.6,85 401.6,95 393,100 384.4,95 384.4,85" fill="none" stroke="#39FF14" stroke-width="1" opacity="0.05965697551787122"/>
<polygon points="168,146 176.6,151 176.6,161 168,166 159.4,161 159.4,151" fill="none" stroke="#39FF14" stroke-width="1" opacity="0.07698477324745989"/>
<polygon points="232,159 240.6,164 240.6,174 232,179 223.4,174 223.4,164" fill="none" stroke="#39FF14" stroke-width="1" opacity="0.021988792194271748"/>
<polygon points="218,9 226.6,14 226.6,24 218,29 209.4,24 209.4,14" fill="none" stroke="#39FF14" stroke-width="1" opacity="0.06562020517147937"/>
<polygon points="589,89 597.6,94 597.6,104 589,109 580.4,104 580.4,94" fill="none" stroke="#39FF14" stroke-width="1" opacity="0.07439630757466376"/>
<polygon points="691,189 699.6,194 699.6,204 691,209 682.4,204 682.4,194" fill="none" stroke="#39FF14" stroke-width="1" opacity="0.03522972622105538"/>
<polygon points="708,97 716.6,102 716.6,112 708,117 699.4,112 699.4,102" fill="none" stroke="#39FF14" stroke-width="1" opacity="0.03764543286559624"/>
<polygon points="724,115 732.6,120 732.6,130 724,135 715.4,130 715.4,120" fill="none" stroke="#39FF14" stroke-width="1" opacity="0.0476632307467017"/>
<polygon points="348,119 356.6,124 356.6,134 348,139 339.4,134 339.4,124" fill="none" stroke="#39FF14" stroke-width="1" opacity="0.025195265772295194"/>
<polygon points="714,64 722.6,69 722.6,79 714,84 705.4,79 705.4,69" fill="none" stroke="#39FF14" stroke-width="1" opacity="0.024774095335639283"/>
<polygon points="349,85 357.6,90 357.6,100 349,105 340.4,100 340.4,90" fill="none" stroke="#39FF14" stroke-width="1" opacity="0.03083222825333512"/>
<polygon points="672,104 680.6,109 680.6,119 672,124 663.4,119 663.4,109" fill="none" stroke="#39FF14" stroke-width="1" opacity="0.03241529447474287"/>
<polygon points="510,152 518.6,157 518.6,167 510,172 501.4,167 501.4,157" fill="none" stroke="#39FF14" stroke-width="1" opacity="0.05490404299049813"/>
<polygon points="461,168 469.6,173 469.6,183 461,188 452.4,183 452.4,173" fill="none" stroke="#39FF14" stroke-width="1" opacity="0.02675393481377692"/>
<polygon points="740,7 748.6,12 748.6,22 740,27 731.4,22 731.4,12" fill="none" stroke="#39FF14" stroke-width="1" opacity="0.06480349696133557"/>
<polygon points="622,118 630.6,123 630.6,133 622,138 613.4,133 613.4,123" fill="none" stroke="#39FF14" stroke-width="1" opacity="0.03641530456587451"/>
<polygon points="514,138 522.6,143 522.6,153 514,158 505.4,153 505.4,143" fill="none" stroke="#39FF14" stroke-width="1" opacity="0.06844972582622091"/>
<polygon points="602,-3 610.6,2 610.6,12 602,17 593.4,12 593.4,2" fill="none" stroke="#39FF14" stroke-width="1" opacity="0.025756268738009312"/>
<polygon points="687,128 695.6,133 695.6,143 687,148 678.4,143 678.4,133" fill="none" stroke="#39FF14" stroke-width="1" opacity="0.031727511291586165"/>
<polygon points="398,177 406.6,182 406.6,192 398,197 389.4,192 389.4,182" fill="none" stroke="#39FF14" stroke-width="1" opacity="0.02322946145515564"/>
<polygon points="75,182 83.6,187 83.6,197 75,202 66.4,197 66.4,187" fill="none" stroke="#39FF14" stroke-width="1" opacity="0.029470850622786406"/>
</g>

  <!-- HUD Decorative elements -->
  <path d="M 20 20 L 40 20 L 50 30" fill="none" stroke="#39FF14" stroke-width="2" opacity="0.5"/>
  <path d="M 830 180 L 810 180 L 800 170" fill="none" stroke="#39FF14" stroke-width="2" opacity="0.5"/>
  <rect x="20" y="100" width="2" height="40" fill="#ffffff" opacity="0.4"/>
  <rect x="828" y="60" width="2" height="40" fill="#39FF14" opacity="0.6"/>

  <g font-family="'Consolas', 'Fira Code', monospace" text-anchor="middle">

    <!-- SYSTEM STATUS -->
    <g transform="translate(130, 100)">
        <circle cx="0" cy="0" r="45" fill="none" stroke="#111111" stroke-width="8" />
        <circle cx="0" cy="0" r="45" fill="none" stroke="#39FF14" stroke-width="2" stroke-dasharray="10 5">
            <animateTransform attributeName="transform" type="rotate" from="0" to="360" dur="10s" repeatCount="indefinite"/>
        </circle>
        <circle cx="0" cy="0" r="35" fill="#0d0d0d" />
        <circle cx="0" cy="0" r="6" fill="#39FF14" filter="url(#textGlow)">
            <animate attributeName="opacity" values="1;0.3;1" dur="2s" repeatCount="indefinite"/>
        </circle>
        <text x="0" y="-60" font-size="12" fill="#aaaaaa" letter-spacing="2">SYS.CORE</text>
        <text x="0" y="70" font-size="14" fill="#ffffff" font-weight="bold">ONLINE</text>
    </g>

    <!-- LIVE TRAFFIC -->
    <g transform="translate(330, 100)">
        <rect x="-60" y="-45" width="120" height="90" fill="#0a0a0a" rx="8" stroke="#39FF14" stroke-opacity="0.4" stroke-width="1"/>
        <text x="0" y="-20" font-size="12" fill="#aaaaaa">NETWORK LOAD</text>
        <text x="0" y="15" font-size="28" fill="#ffffff" font-weight="bold" filter="url(#textGlow)">5214</text>
        <text x="0" y="35" font-size="10" fill="#777777">ACTIVE SESSIONS</text>
    </g>

    <!-- ACTIVE AGENTS -->
    <g transform="translate(530, 100)">
        <rect x="-60" y="-45" width="120" height="90" fill="#0a0a0a" rx="8" stroke="#39FF14" stroke-opacity="0.4" stroke-width="1"/>
        <text x="0" y="-20" font-size="12" fill="#aaaaaa">SWARM ENTITIES</text>
        <text x="0" y="15" font-size="28" fill="#ffffff" font-weight="bold" filter="url(#textGlow)">162</text>
        <text x="0" y="35" font-size="10" fill="#777777">AUTONOMOUS</text>
    </g>

    <!-- UPTIME -->
    <g transform="translate(730, 100)">
        <path d="M -40 -35 L 40 -35 L 50 -25 L 50 35 L -40 35 L -50 25 Z" fill="#0a0a0a" stroke="#39FF14" stroke-opacity="0.4" stroke-width="1"/>
        <text x="0" y="-15" font-size="12" fill="#aaaaaa">CONTINUITY</text>
        <text x="0" y="15" font-size="24" fill="#ffffff" font-weight="bold">206<tspan font-size="14" fill="#777777">d</tspan></text>
        <rect x="-35" y="25" width="70" height="4" fill="url(#neonBar)" rx="2"/>
    </g>
  </g>

  <text x="425" y="185" font-family="'Consolas', 'Fira Code', monospace" font-size="10" fill="#aaaaaa" opacity="0.6" text-anchor="middle">LAST TELEMETRY PING: 2026-05-13 15:51:48 UTC // ENCRYPTED_TUNNEL</text>
</svg>