<svg width="850" height="200" viewBox="0 0 850 200" xmlns="http://www.w3.org/2000/svg">
  <defs>
    <pattern id="carbonFiber" width="10" height="10" patternUnits="userSpaceOnUse">
        <rect width="10" height="10" fill="#050505"/>
        <path d="M0,0 L5,5 L10,0 L5,-5 Z M5,5 L10,10 L15,5 L10,0 Z M-5,5 L0,10 L5,5 L0,0 Z M0,10 L5,15 L10,10 L5,5 Z" fill="#0d0d0d"/>
    </pattern>
    <filter id="textGlow">
      <feGaussianBlur stdDeviation="2" result="blur" />
      <feMerge>
        <feMergeNode in="blur"/>
        <feMergeNode in="SourceGraphic"/>
      </feMerge>
    </filter>
    <linearGradient id="neonBar" x1="0%" y1="0%" x2="100%" y2="0%">
        <stop offset="0%" stop-color="#111111"/>
        <stop offset="100%" stop-color="#39FF14"/>
    </linearGradient>
    <linearGradient id="scanlineGrad" x1="0%" y1="0%" x2="100%" y2="0%">
        <stop offset="0%" stop-color="#39FF14" stop-opacity="0"/>
        <stop offset="50%" stop-color="#39FF14" stop-opacity="0.18"/>
        <stop offset="100%" stop-color="#39FF14" stop-opacity="0"/>
    </linearGradient>
    <clipPath id="dashClip">
        <rect x="0" y="0" width="850" height="200" rx="12"/>
    </clipPath>
  </defs>

  <rect width="100%" height="100%" fill="url(#carbonFiber)" rx="12" stroke="#39FF14" stroke-width="1" stroke-opacity="0.3"/>
  <rect width="100%" height="100%" fill="#000000" opacity="0.6" rx="12" />
  <g><polygon points="449,95 457.6,100 457.6,110 449,115 440.4,110 440.4,100" fill="none" stroke="#39FF14" stroke-width="1" opacity="0.06588055495778421"/>
<polygon points="239,170 247.6,175 247.6,185 239,190 230.4,185 230.4,175" fill="none" stroke="#39FF14" stroke-width="1" opacity="0.0499677694421347"/>
<polygon points="798,84 806.6,89 806.6,99 798,104 789.4,99 789.4,89" fill="none" stroke="#39FF14" stroke-width="1" opacity="0.057145418617399926"/>
<polygon points="358,76 366.6,81 366.6,91 358,96 349.4,91 349.4,81" fill="none" stroke="#39FF14" stroke-width="1" opacity="0.05718539178513321"/>
<polygon points="626,71 634.6,76 634.6,86 626,91 617.4,86 617.4,76" fill="none" stroke="#39FF14" stroke-width="1" opacity="0.05891038255258656"/>
<polygon points="324,65 332.6,70 332.6,80 324,85 315.4,80 315.4,70" fill="none" stroke="#39FF14" stroke-width="1" opacity="0.03361813085008615"/>
<polygon points="526,-2 534.6,3 534.6,13 526,18 517.4,13 517.4,3" fill="none" stroke="#39FF14" stroke-width="1" opacity="0.029724220041833643"/>
<polygon points="22,80 30.6,85 30.6,95 22,100 13.4,95 13.4,85" fill="none" stroke="#39FF14" stroke-width="1" opacity="0.06294928248284645"/>
<polygon points="91,-9 99.6,-4 99.6,6 91,11 82.4,6 82.4,-4" fill="none" stroke="#39FF14" stroke-width="1" opacity="0.02041808159589884"/>
<polygon points="33,17 41.6,22 41.6,32 33,37 24.4,32 24.4,22" fill="none" stroke="#39FF14" stroke-width="1" opacity="0.07909209386801008"/>
<polygon points="701,52 709.6,57 709.6,67 701,72 692.4,67 692.4,57" fill="none" stroke="#39FF14" stroke-width="1" opacity="0.05596861943668076"/>
<polygon points="187,1 195.6,6 195.6,16 187,21 178.4,16 178.4,6" fill="none" stroke="#39FF14" stroke-width="1" opacity="0.025570058636389816"/>
<polygon points="234,6 242.6,11 242.6,21 234,26 225.4,21 225.4,11" fill="none" stroke="#39FF14" stroke-width="1" opacity="0.07845765081017075"/>
<polygon points="435,64 443.6,69 443.6,79 435,84 426.4,79 426.4,69" fill="none" stroke="#39FF14" stroke-width="1" opacity="0.057407305459559216"/>
<polygon points="228,18 236.6,23 236.6,33 228,38 219.4,33 219.4,23" fill="none" stroke="#39FF14" stroke-width="1" opacity="0.06838082295056484"/>
<polygon points="703,148 711.6,153 711.6,163 703,168 694.4,163 694.4,153" fill="none" stroke="#39FF14" stroke-width="1" opacity="0.07953292982530243"/>
<polygon points="308,14 316.6,19 316.6,29 308,34 299.4,29 299.4,19" fill="none" stroke="#39FF14" stroke-width="1" opacity="0.056881403775585565"/>
<polygon points="15,28 23.6,33 23.6,43 15,48 6.4,43 6.4,33" fill="none" stroke="#39FF14" stroke-width="1" opacity="0.03847075162381583"/>
<polygon points="671,185 679.6,190 679.6,200 671,205 662.4,200 662.4,190" fill="none" stroke="#39FF14" stroke-width="1" opacity="0.03545840501314738"/>
<polygon points="679,-5 687.6,0 687.6,10 679,15 670.4,10 670.4,0" fill="none" stroke="#39FF14" stroke-width="1" opacity="0.0305680049953855"/>
<polygon points="43,80 51.6,85 51.6,95 43,100 34.4,95 34.4,85" fill="none" stroke="#39FF14" stroke-width="1" opacity="0.03301512676622737"/>
<polygon points="708,53 716.6,58 716.6,68 708,73 699.4,68 699.4,58" fill="none" stroke="#39FF14" stroke-width="1" opacity="0.03420419798667807"/>
<polygon points="428,45 436.6,50 436.6,60 428,65 419.4,60 419.4,50" fill="none" stroke="#39FF14" stroke-width="1" opacity="0.02894773976621995"/>
<polygon points="66,58 74.6,63 74.6,73 66,78 57.4,73 57.4,63" fill="none" stroke="#39FF14" stroke-width="1" opacity="0.05059475779763417"/>
<polygon points="520,159 528.6,164 528.6,174 520,179 511.4,174 511.4,164" fill="none" stroke="#39FF14" stroke-width="1" opacity="0.062340922487910636"/>
<polygon points="121,73 129.6,78 129.6,88 121,93 112.4,88 112.4,78" fill="none" stroke="#39FF14" stroke-width="1" opacity="0.02253620355420783"/>
<polygon points="630,96 638.6,101 638.6,111 630,116 621.4,111 621.4,101" fill="none" stroke="#39FF14" stroke-width="1" opacity="0.061487593913199426"/>
<polygon points="218,52 226.6,57 226.6,67 218,72 209.4,67 209.4,57" fill="none" stroke="#39FF14" stroke-width="1" opacity="0.06063024047602804"/>
<polygon points="280,88 288.6,93 288.6,103 280,108 271.4,103 271.4,93" fill="none" stroke="#39FF14" stroke-width="1" opacity="0.04754837696302297"/>
<polygon points="299,189 307.6,194 307.6,204 299,209 290.4,204 290.4,194" fill="none" stroke="#39FF14" stroke-width="1" opacity="0.07490353507780026"/>
</g>

  <!-- HUD Decorative elements -->
  <path d="M 20 20 L 40 20 L 50 30" fill="none" stroke="#39FF14" stroke-width="2" opacity="0.5"/>
  <path d="M 830 180 L 810 180 L 800 170" fill="none" stroke="#39FF14" stroke-width="2" opacity="0.5"/>

  <g clip-path="url(#dashClip)">
    <rect x="-160" y="0" width="160" height="200" fill="url(#scanlineGrad)">
      <animateTransform attributeName="transform" type="translate"
                        from="0 0" to="1010 0" dur="6s" repeatCount="indefinite"/>
    </rect>
  </g>

  <g font-family="'Consolas', 'Fira Code', monospace" text-anchor="middle">

    <!-- NETWORK STATUS -->
    <g transform="translate(130, 100)">
        <circle cx="0" cy="0" r="45" fill="none" stroke="#39FF14" stroke-width="2" stroke-dasharray="10 5">
            <animateTransform attributeName="transform" type="rotate" from="0" to="360" dur="10s" repeatCount="indefinite"/>
        </circle>
        <circle cx="0" cy="0" r="35" fill="#0d0d0d" />
        <text x="0" y="-60" font-size="12" fill="#aaaaaa" letter-spacing="2">ROOT.AUTH</text>
        <text x="0" y="70" font-size="14" fill="#ffffff" font-weight="bold">OPERATIONAL</text>
    </g>

    <!-- ACTIVE USERS -->
    <g transform="translate(330, 100)">
        <text x="0" y="-20" font-size="12" fill="#aaaaaa">CITIZENS</text>
        <text x="0" y="15" font-size="28" fill="#ffffff" font-weight="bold" filter="url(#textGlow)">15,113</text>
        <text x="0" y="35" font-size="10" fill="#777777">VERIFIED HUMANS</text>
    </g>

    <!-- REGISTERED AGENTS -->
    <g transform="translate(530, 100)">
        <text x="0" y="-20" font-size="12" fill="#aaaaaa">AGENTS</text>
        <text x="0" y="15" font-size="28" fill="#00d4ff" font-weight="bold" filter="url(#textGlow)">4,676</text>
        <text x="0" y="35" font-size="10" fill="#777777">REGISTERED DIDs</text>
    </g>

    <!-- TRANSACTIONS -->
    <g transform="translate(730, 100)">
        <text x="0" y="-20" font-size="12" fill="#aaaaaa">TRANSFERS</text>
        <text x="0" y="15" font-size="28" fill="#ffffff" font-weight="bold">39,984</text>
        <text x="0" y="35" font-size="10" fill="#777777">M2M SETTLEMENTS</text>
    </g>
  </g>

  <text x="425" y="185" font-family="'Consolas', 'Fira Code', monospace" font-size="10" fill="#aaaaaa" opacity="0.6" text-anchor="middle">AXIOMID PROJECTED TARGETS (ILLUSTRATIVE): 2026-07-10 21:51:09 UTC // SECURE_HANDSHAKE</text>
</svg>