<svg width="850" height="200" viewBox="0 0 850 200" xmlns="http://www.w3.org/2000/svg">
  <defs>
    <pattern id="carbonFiber" width="10" height="10" patternUnits="userSpaceOnUse">
        <rect width="10" height="10" fill="#050505"/>
        <path d="M0,0 L5,5 L10,0 L5,-5 Z M5,5 L10,10 L15,5 L10,0 Z M-5,5 L0,10 L5,5 L0,0 Z M0,10 L5,15 L10,10 L5,5 Z" fill="#0d0d0d"/>
    </pattern>
    <filter id="textGlow">
      <feGaussianBlur stdDeviation="2" result="blur" />
      <feMerge>
        <feMergeNode in="blur"/>
        <feMergeNode in="SourceGraphic"/>
      </feMerge>
    </filter>
    <linearGradient id="neonBar" x1="0%" y1="0%" x2="100%" y2="0%">
        <stop offset="0%" stop-color="#111111"/>
        <stop offset="100%" stop-color="#39FF14"/>
    </linearGradient>
    <linearGradient id="scanlineGrad" x1="0%" y1="0%" x2="100%" y2="0%">
        <stop offset="0%" stop-color="#39FF14" stop-opacity="0"/>
        <stop offset="50%" stop-color="#39FF14" stop-opacity="0.18"/>
        <stop offset="100%" stop-color="#39FF14" stop-opacity="0"/>
    </linearGradient>
    <clipPath id="dashClip">
        <rect x="0" y="0" width="850" height="200" rx="12"/>
    </clipPath>
  </defs>

  <rect width="100%" height="100%" fill="url(#carbonFiber)" rx="12" stroke="#39FF14" stroke-width="1" stroke-opacity="0.3"/>
  <rect width="100%" height="100%" fill="#000000" opacity="0.6" rx="12" />
  <g><polygon points="213,10 221.6,15 221.6,25 213,30 204.4,25 204.4,15" fill="none" stroke="#39FF14" stroke-width="1" opacity="0.06339509911949559"/>
<polygon points="577,50 585.6,55 585.6,65 577,70 568.4,65 568.4,55" fill="none" stroke="#39FF14" stroke-width="1" opacity="0.04484540204709468"/>
<polygon points="751,108 759.6,113 759.6,123 751,128 742.4,123 742.4,113" fill="none" stroke="#39FF14" stroke-width="1" opacity="0.021821704451333766"/>
<polygon points="707,125 715.6,130 715.6,140 707,145 698.4,140 698.4,130" fill="none" stroke="#39FF14" stroke-width="1" opacity="0.07940450336739033"/>
<polygon points="332,190 340.6,195 340.6,205 332,210 323.4,205 323.4,195" fill="none" stroke="#39FF14" stroke-width="1" opacity="0.0541698281251015"/>
<polygon points="813,78 821.6,83 821.6,93 813,98 804.4,93 804.4,83" fill="none" stroke="#39FF14" stroke-width="1" opacity="0.07200204156408359"/>
<polygon points="4,83 12.6,88 12.6,98 4,103 -4.6,98 -4.6,88" fill="none" stroke="#39FF14" stroke-width="1" opacity="0.05931388207309225"/>
<polygon points="434,71 442.6,76 442.6,86 434,91 425.4,86 425.4,76" fill="none" stroke="#39FF14" stroke-width="1" opacity="0.07262881190707872"/>
<polygon points="252,146 260.6,151 260.6,161 252,166 243.4,161 243.4,151" fill="none" stroke="#39FF14" stroke-width="1" opacity="0.07192120789162001"/>
<polygon points="161,6 169.6,11 169.6,21 161,26 152.4,21 152.4,11" fill="none" stroke="#39FF14" stroke-width="1" opacity="0.03611033736072486"/>
<polygon points="263,111 271.6,116 271.6,126 263,131 254.4,126 254.4,116" fill="none" stroke="#39FF14" stroke-width="1" opacity="0.06658256785931839"/>
<polygon points="262,5 270.6,10 270.6,20 262,25 253.4,20 253.4,10" fill="none" stroke="#39FF14" stroke-width="1" opacity="0.03874997541502958"/>
<polygon points="362,29 370.6,34 370.6,44 362,49 353.4,44 353.4,34" fill="none" stroke="#39FF14" stroke-width="1" opacity="0.04762460507850509"/>
<polygon points="836,39 844.6,44 844.6,54 836,59 827.4,54 827.4,44" fill="none" stroke="#39FF14" stroke-width="1" opacity="0.020053236896741596"/>
<polygon points="187,112 195.6,117 195.6,127 187,132 178.4,127 178.4,117" fill="none" stroke="#39FF14" stroke-width="1" opacity="0.028870407479068577"/>
<polygon points="773,82 781.6,87 781.6,97 773,102 764.4,97 764.4,87" fill="none" stroke="#39FF14" stroke-width="1" opacity="0.0792615192377579"/>
<polygon points="27,99 35.6,104 35.6,114 27,119 18.4,114 18.4,104" fill="none" stroke="#39FF14" stroke-width="1" opacity="0.025134780806121332"/>
<polygon points="258,133 266.6,138 266.6,148 258,153 249.4,148 249.4,138" fill="none" stroke="#39FF14" stroke-width="1" opacity="0.07966043486661553"/>
<polygon points="583,116 591.6,121 591.6,131 583,136 574.4,131 574.4,121" fill="none" stroke="#39FF14" stroke-width="1" opacity="0.029350876548324738"/>
<polygon points="754,126 762.6,131 762.6,141 754,146 745.4,141 745.4,131" fill="none" stroke="#39FF14" stroke-width="1" opacity="0.07747635832169207"/>
<polygon points="850,38 858.6,43 858.6,53 850,58 841.4,53 841.4,43" fill="none" stroke="#39FF14" stroke-width="1" opacity="0.07154678212939188"/>
<polygon points="403,167 411.6,172 411.6,182 403,187 394.4,182 394.4,172" fill="none" stroke="#39FF14" stroke-width="1" opacity="0.052894238242555375"/>
<polygon points="713,-3 721.6,2 721.6,12 713,17 704.4,12 704.4,2" fill="none" stroke="#39FF14" stroke-width="1" opacity="0.044610025397728126"/>
<polygon points="454,117 462.6,122 462.6,132 454,137 445.4,132 445.4,122" fill="none" stroke="#39FF14" stroke-width="1" opacity="0.025773275243828005"/>
<polygon points="642,52 650.6,57 650.6,67 642,72 633.4,67 633.4,57" fill="none" stroke="#39FF14" stroke-width="1" opacity="0.04776962694677653"/>
<polygon points="757,71 765.6,76 765.6,86 757,91 748.4,86 748.4,76" fill="none" stroke="#39FF14" stroke-width="1" opacity="0.0631558175347688"/>
<polygon points="204,120 212.6,125 212.6,135 204,140 195.4,135 195.4,125" fill="none" stroke="#39FF14" stroke-width="1" opacity="0.057911288786426415"/>
<polygon points="345,50 353.6,55 353.6,65 345,70 336.4,65 336.4,55" fill="none" stroke="#39FF14" stroke-width="1" opacity="0.06486437394986708"/>
<polygon points="577,39 585.6,44 585.6,54 577,59 568.4,54 568.4,44" fill="none" stroke="#39FF14" stroke-width="1" opacity="0.024300558420940168"/>
<polygon points="731,144 739.6,149 739.6,159 731,164 722.4,159 722.4,149" fill="none" stroke="#39FF14" stroke-width="1" opacity="0.03877345512510332"/>
</g>

  <!-- HUD Decorative elements -->
  <path d="M 20 20 L 40 20 L 50 30" fill="none" stroke="#39FF14" stroke-width="2" opacity="0.5"/>
  <path d="M 830 180 L 810 180 L 800 170" fill="none" stroke="#39FF14" stroke-width="2" opacity="0.5"/>

  <g clip-path="url(#dashClip)">
    <rect x="-160" y="0" width="160" height="200" fill="url(#scanlineGrad)">
      <animateTransform attributeName="transform" type="translate"
                        from="0 0" to="1010 0" dur="6s" repeatCount="indefinite"/>
    </rect>
  </g>

  <g font-family="'Consolas', 'Fira Code', monospace" text-anchor="middle">

    <!-- NETWORK STATUS -->
    <g transform="translate(130, 100)">
        <circle cx="0" cy="0" r="45" fill="none" stroke="#39FF14" stroke-width="2" stroke-dasharray="10 5">
            <animateTransform attributeName="transform" type="rotate" from="0" to="360" dur="10s" repeatCount="indefinite"/>
        </circle>
        <circle cx="0" cy="0" r="35" fill="#0d0d0d" />
        <text x="0" y="-60" font-size="12" fill="#aaaaaa" letter-spacing="2">ROOT.AUTH</text>
        <text x="0" y="70" font-size="14" fill="#ffffff" font-weight="bold">OPERATIONAL</text>
    </g>

    <!-- ACTIVE USERS -->
    <g transform="translate(330, 100)">
        <text x="0" y="-20" font-size="12" fill="#aaaaaa">CITIZENS</text>
        <text x="0" y="15" font-size="28" fill="#ffffff" font-weight="bold" filter="url(#textGlow)">13,110</text>
        <text x="0" y="35" font-size="10" fill="#777777">VERIFIED HUMANS</text>
    </g>

    <!-- REGISTERED AGENTS -->
    <g transform="translate(530, 100)">
        <text x="0" y="-20" font-size="12" fill="#aaaaaa">AGENTS</text>
        <text x="0" y="15" font-size="28" fill="#00d4ff" font-weight="bold" filter="url(#textGlow)">4,109</text>
        <text x="0" y="35" font-size="10" fill="#777777">REGISTERED DIDs</text>
    </g>

    <!-- TRANSACTIONS -->
    <g transform="translate(730, 100)">
        <text x="0" y="-20" font-size="12" fill="#aaaaaa">TRANSFERS</text>
        <text x="0" y="15" font-size="28" fill="#ffffff" font-weight="bold">40,544</text>
        <text x="0" y="35" font-size="10" fill="#777777">M2M SETTLEMENTS</text>
    </g>
  </g>

  <text x="425" y="185" font-family="'Consolas', 'Fira Code', monospace" font-size="10" fill="#aaaaaa" opacity="0.6" text-anchor="middle">AXIOMID PROJECTED TARGETS (ILLUSTRATIVE): 2026-06-20 04:27:55 UTC // SECURE_HANDSHAKE</text>
</svg>