<svg width="850" height="200" viewBox="0 0 850 200" xmlns="http://www.w3.org/2000/svg">
  <defs>
    <!-- Carbon Fiber Pattern -->
    <pattern id="carbonFiber" width="10" height="10" patternUnits="userSpaceOnUse">
        <rect width="10" height="10" fill="#050505"/>
        <path d="M0,0 L5,5 L10,0 L5,-5 Z M5,5 L10,10 L15,5 L10,0 Z M-5,5 L0,10 L5,5 L0,0 Z M0,10 L5,15 L10,10 L5,5 Z" fill="#0d0d0d"/>
    </pattern>
    <filter id="glassmorphism">
      <feGaussianBlur stdDeviation="3" result="blur" />
      <feColorMatrix type="matrix" values="1 0 0 0 0  0 1 0 0 0  0 0 1 0 0  0 0 0 18 -7" result="glow" />
      <feBlend in="SourceGraphic" in2="glow" mode="normal" />
    </filter>
    <filter id="textGlow">
      <feGaussianBlur stdDeviation="2" result="blur" />
      <feMerge>
        <feMergeNode in="blur"/>
        <feMergeNode in="SourceGraphic"/>
      </feMerge>
    </filter>
    <linearGradient id="neonBar" x1="0%" y1="0%" x2="100%" y2="0%">
        <stop offset="0%" stop-color="#111111"/>
        <stop offset="100%" stop-color="#39FF14"/>
    </linearGradient>
  </defs>

  <rect width="100%" height="100%" fill="url(#carbonFiber)" rx="12" stroke="#39FF14" stroke-width="1" stroke-opacity="0.3"/>
  <rect width="100%" height="100%" fill="#000000" opacity="0.6" rx="12" />
  <g><polygon points="651,186 659.6,191 659.6,201 651,206 642.4,201 642.4,191" fill="none" stroke="#39FF14" stroke-width="1" opacity="0.07192086776584106"/>
<polygon points="456,93 464.6,98 464.6,108 456,113 447.4,108 447.4,98" fill="none" stroke="#39FF14" stroke-width="1" opacity="0.031202081335884604"/>
<polygon points="839,65 847.6,70 847.6,80 839,85 830.4,80 830.4,70" fill="none" stroke="#39FF14" stroke-width="1" opacity="0.03609107115815828"/>
<polygon points="115,156 123.6,161 123.6,171 115,176 106.4,171 106.4,161" fill="none" stroke="#39FF14" stroke-width="1" opacity="0.04650679377464282"/>
<polygon points="680,179 688.6,184 688.6,194 680,199 671.4,194 671.4,184" fill="none" stroke="#39FF14" stroke-width="1" opacity="0.0347216063718857"/>
<polygon points="481,77 489.6,82 489.6,92 481,97 472.4,92 472.4,82" fill="none" stroke="#39FF14" stroke-width="1" opacity="0.03966329774067152"/>
<polygon points="454,51 462.6,56 462.6,66 454,71 445.4,66 445.4,56" fill="none" stroke="#39FF14" stroke-width="1" opacity="0.06628798866830136"/>
<polygon points="708,58 716.6,63 716.6,73 708,78 699.4,73 699.4,63" fill="none" stroke="#39FF14" stroke-width="1" opacity="0.0725001371144428"/>
<polygon points="543,36 551.6,41 551.6,51 543,56 534.4,51 534.4,41" fill="none" stroke="#39FF14" stroke-width="1" opacity="0.06471367710864101"/>
<polygon points="204,4 212.6,9 212.6,19 204,24 195.4,19 195.4,9" fill="none" stroke="#39FF14" stroke-width="1" opacity="0.07229195290217828"/>
<polygon points="224,177 232.6,182 232.6,192 224,197 215.4,192 215.4,182" fill="none" stroke="#39FF14" stroke-width="1" opacity="0.03906900276701658"/>
<polygon points="42,90 50.6,95 50.6,105 42,110 33.4,105 33.4,95" fill="none" stroke="#39FF14" stroke-width="1" opacity="0.05765598785546201"/>
<polygon points="601,101 609.6,106 609.6,116 601,121 592.4,116 592.4,106" fill="none" stroke="#39FF14" stroke-width="1" opacity="0.07877958605909945"/>
<polygon points="195,185 203.6,190 203.6,200 195,205 186.4,200 186.4,190" fill="none" stroke="#39FF14" stroke-width="1" opacity="0.06817032481739244"/>
<polygon points="728,44 736.6,49 736.6,59 728,64 719.4,59 719.4,49" fill="none" stroke="#39FF14" stroke-width="1" opacity="0.04189206043496145"/>
<polygon points="815,2 823.6,7 823.6,17 815,22 806.4,17 806.4,7" fill="none" stroke="#39FF14" stroke-width="1" opacity="0.07664424417680574"/>
<polygon points="615,42 623.6,47 623.6,57 615,62 606.4,57 606.4,47" fill="none" stroke="#39FF14" stroke-width="1" opacity="0.060894311898350206"/>
<polygon points="280,143 288.6,148 288.6,158 280,163 271.4,158 271.4,148" fill="none" stroke="#39FF14" stroke-width="1" opacity="0.0225797658593285"/>
<polygon points="682,159 690.6,164 690.6,174 682,179 673.4,174 673.4,164" fill="none" stroke="#39FF14" stroke-width="1" opacity="0.03528318983940782"/>
<polygon points="702,156 710.6,161 710.6,171 702,176 693.4,171 693.4,161" fill="none" stroke="#39FF14" stroke-width="1" opacity="0.034074849697927574"/>
<polygon points="358,186 366.6,191 366.6,201 358,206 349.4,201 349.4,191" fill="none" stroke="#39FF14" stroke-width="1" opacity="0.021283971497386648"/>
<polygon points="715,9 723.6,14 723.6,24 715,29 706.4,24 706.4,14" fill="none" stroke="#39FF14" stroke-width="1" opacity="0.035841247002648714"/>
<polygon points="256,109 264.6,114 264.6,124 256,129 247.4,124 247.4,114" fill="none" stroke="#39FF14" stroke-width="1" opacity="0.07368066168577271"/>
<polygon points="434,164 442.6,169 442.6,179 434,184 425.4,179 425.4,169" fill="none" stroke="#39FF14" stroke-width="1" opacity="0.0657534554666678"/>
<polygon points="617,175 625.6,180 625.6,190 617,195 608.4,190 608.4,180" fill="none" stroke="#39FF14" stroke-width="1" opacity="0.02400281354449048"/>
<polygon points="112,27 120.6,32 120.6,42 112,47 103.4,42 103.4,32" fill="none" stroke="#39FF14" stroke-width="1" opacity="0.05258960386053117"/>
<polygon points="188,32 196.6,37 196.6,47 188,52 179.4,47 179.4,37" fill="none" stroke="#39FF14" stroke-width="1" opacity="0.062247782877658545"/>
<polygon points="489,123 497.6,128 497.6,138 489,143 480.4,138 480.4,128" fill="none" stroke="#39FF14" stroke-width="1" opacity="0.06063607749503584"/>
<polygon points="395,7 403.6,12 403.6,22 395,27 386.4,22 386.4,12" fill="none" stroke="#39FF14" stroke-width="1" opacity="0.021550373183872613"/>
<polygon points="199,42 207.6,47 207.6,57 199,62 190.4,57 190.4,47" fill="none" stroke="#39FF14" stroke-width="1" opacity="0.05764093323661636"/>
</g>

  <!-- HUD Decorative elements -->
  <path d="M 20 20 L 40 20 L 50 30" fill="none" stroke="#39FF14" stroke-width="2" opacity="0.5"/>
  <path d="M 830 180 L 810 180 L 800 170" fill="none" stroke="#39FF14" stroke-width="2" opacity="0.5"/>
  <rect x="20" y="100" width="2" height="40" fill="#ffffff" opacity="0.4"/>
  <rect x="828" y="60" width="2" height="40" fill="#39FF14" opacity="0.6"/>

  <g font-family="'Consolas', 'Fira Code', monospace" text-anchor="middle">

    <!-- SYSTEM STATUS -->
    <g transform="translate(130, 100)">
        <circle cx="0" cy="0" r="45" fill="none" stroke="#111111" stroke-width="8" />
        <circle cx="0" cy="0" r="45" fill="none" stroke="#39FF14" stroke-width="2" stroke-dasharray="10 5">
            <animateTransform attributeName="transform" type="rotate" from="0" to="360" dur="10s" repeatCount="indefinite"/>
        </circle>
        <circle cx="0" cy="0" r="35" fill="#0d0d0d" />
        <circle cx="0" cy="0" r="6" fill="#39FF14" filter="url(#textGlow)">
            <animate attributeName="opacity" values="1;0.3;1" dur="2s" repeatCount="indefinite"/>
        </circle>
        <text x="0" y="-60" font-size="12" fill="#aaaaaa" letter-spacing="2">SYS.CORE</text>
        <text x="0" y="70" font-size="14" fill="#ffffff" font-weight="bold">ONLINE</text>
    </g>

    <!-- LIVE TRAFFIC -->
    <g transform="translate(330, 100)">
        <rect x="-60" y="-45" width="120" height="90" fill="#0a0a0a" rx="8" stroke="#39FF14" stroke-opacity="0.4" stroke-width="1"/>
        <text x="0" y="-20" font-size="12" fill="#aaaaaa">NETWORK LOAD</text>
        <text x="0" y="15" font-size="28" fill="#ffffff" font-weight="bold" filter="url(#textGlow)">5190</text>
        <text x="0" y="35" font-size="10" fill="#777777">ACTIVE SESSIONS</text>
    </g>

    <!-- ACTIVE AGENTS -->
    <g transform="translate(530, 100)">
        <rect x="-60" y="-45" width="120" height="90" fill="#0a0a0a" rx="8" stroke="#39FF14" stroke-opacity="0.4" stroke-width="1"/>
        <text x="0" y="-20" font-size="12" fill="#aaaaaa">SWARM ENTITIES</text>
        <text x="0" y="15" font-size="28" fill="#ffffff" font-weight="bold" filter="url(#textGlow)">93</text>
        <text x="0" y="35" font-size="10" fill="#777777">AUTONOMOUS</text>
    </g>

    <!-- UPTIME -->
    <g transform="translate(730, 100)">
        <path d="M -40 -35 L 40 -35 L 50 -25 L 50 35 L -40 35 L -50 25 Z" fill="#0a0a0a" stroke="#39FF14" stroke-opacity="0.4" stroke-width="1"/>
        <text x="0" y="-15" font-size="12" fill="#aaaaaa">CONTINUITY</text>
        <text x="0" y="15" font-size="24" fill="#ffffff" font-weight="bold">210<tspan font-size="14" fill="#777777">d</tspan></text>
        <rect x="-35" y="25" width="70" height="4" fill="url(#neonBar)" rx="2"/>
    </g>
  </g>

  <text x="425" y="185" font-family="'Consolas', 'Fira Code', monospace" font-size="10" fill="#aaaaaa" opacity="0.6" text-anchor="middle">LAST TELEMETRY PING: 2026-05-12 00:49:17 UTC // ENCRYPTED_TUNNEL</text>
</svg>