<svg width="850" height="200" viewBox="0 0 850 200" xmlns="http://www.w3.org/2000/svg">
  <defs>
    <pattern id="carbonFiber" width="10" height="10" patternUnits="userSpaceOnUse">
        <rect width="10" height="10" fill="#050505"/>
        <path d="M0,0 L5,5 L10,0 L5,-5 Z M5,5 L10,10 L15,5 L10,0 Z M-5,5 L0,10 L5,5 L0,0 Z M0,10 L5,15 L10,10 L5,5 Z" fill="#0d0d0d"/>
    </pattern>
    <filter id="textGlow">
      <feGaussianBlur stdDeviation="2" result="blur" />
      <feMerge>
        <feMergeNode in="blur"/>
        <feMergeNode in="SourceGraphic"/>
      </feMerge>
    </filter>
    <linearGradient id="neonBar" x1="0%" y1="0%" x2="100%" y2="0%">
        <stop offset="0%" stop-color="#111111"/>
        <stop offset="100%" stop-color="#39FF14"/>
    </linearGradient>
    <linearGradient id="scanlineGrad" x1="0%" y1="0%" x2="100%" y2="0%">
        <stop offset="0%" stop-color="#39FF14" stop-opacity="0"/>
        <stop offset="50%" stop-color="#39FF14" stop-opacity="0.18"/>
        <stop offset="100%" stop-color="#39FF14" stop-opacity="0"/>
    </linearGradient>
    <clipPath id="dashClip">
        <rect x="0" y="0" width="850" height="200" rx="12"/>
    </clipPath>
  </defs>

  <rect width="100%" height="100%" fill="url(#carbonFiber)" rx="12" stroke="#39FF14" stroke-width="1" stroke-opacity="0.3"/>
  <rect width="100%" height="100%" fill="#000000" opacity="0.6" rx="12" />
  <g><polygon points="847,-10 855.6,-5 855.6,5 847,10 838.4,5 838.4,-5" fill="none" stroke="#39FF14" stroke-width="1" opacity="0.03961540501603255"/>
<polygon points="43,133 51.6,138 51.6,148 43,153 34.4,148 34.4,138" fill="none" stroke="#39FF14" stroke-width="1" opacity="0.023344333277535014"/>
<polygon points="81,142 89.6,147 89.6,157 81,162 72.4,157 72.4,147" fill="none" stroke="#39FF14" stroke-width="1" opacity="0.03674778638910774"/>
<polygon points="842,163 850.6,168 850.6,178 842,183 833.4,178 833.4,168" fill="none" stroke="#39FF14" stroke-width="1" opacity="0.047629939805077515"/>
<polygon points="241,6 249.6,11 249.6,21 241,26 232.4,21 232.4,11" fill="none" stroke="#39FF14" stroke-width="1" opacity="0.023341540616254628"/>
<polygon points="523,184 531.6,189 531.6,199 523,204 514.4,199 514.4,189" fill="none" stroke="#39FF14" stroke-width="1" opacity="0.06685856233314921"/>
<polygon points="268,95 276.6,100 276.6,110 268,115 259.4,110 259.4,100" fill="none" stroke="#39FF14" stroke-width="1" opacity="0.07686342912266327"/>
<polygon points="98,153 106.6,158 106.6,168 98,173 89.4,168 89.4,158" fill="none" stroke="#39FF14" stroke-width="1" opacity="0.020946230298338142"/>
<polygon points="55,43 63.6,48 63.6,58 55,63 46.4,58 46.4,48" fill="none" stroke="#39FF14" stroke-width="1" opacity="0.07067915277078543"/>
<polygon points="161,-1 169.6,4 169.6,14 161,19 152.4,14 152.4,4" fill="none" stroke="#39FF14" stroke-width="1" opacity="0.06792597352148369"/>
<polygon points="271,170 279.6,175 279.6,185 271,190 262.4,185 262.4,175" fill="none" stroke="#39FF14" stroke-width="1" opacity="0.0376189874968481"/>
<polygon points="211,133 219.6,138 219.6,148 211,153 202.4,148 202.4,138" fill="none" stroke="#39FF14" stroke-width="1" opacity="0.055856618769685534"/>
<polygon points="500,73 508.6,78 508.6,88 500,93 491.4,88 491.4,78" fill="none" stroke="#39FF14" stroke-width="1" opacity="0.043375774533033234"/>
<polygon points="811,113 819.6,118 819.6,128 811,133 802.4,128 802.4,118" fill="none" stroke="#39FF14" stroke-width="1" opacity="0.050550473542597125"/>
<polygon points="44,74 52.6,79 52.6,89 44,94 35.4,89 35.4,79" fill="none" stroke="#39FF14" stroke-width="1" opacity="0.027431115166879683"/>
<polygon points="716,132 724.6,137 724.6,147 716,152 707.4,147 707.4,137" fill="none" stroke="#39FF14" stroke-width="1" opacity="0.05853132951522569"/>
<polygon points="722,52 730.6,57 730.6,67 722,72 713.4,67 713.4,57" fill="none" stroke="#39FF14" stroke-width="1" opacity="0.04681580859157085"/>
<polygon points="193,115 201.6,120 201.6,130 193,135 184.4,130 184.4,120" fill="none" stroke="#39FF14" stroke-width="1" opacity="0.07515120134951425"/>
<polygon points="622,69 630.6,74 630.6,84 622,89 613.4,84 613.4,74" fill="none" stroke="#39FF14" stroke-width="1" opacity="0.053331642048968717"/>
<polygon points="154,156 162.6,161 162.6,171 154,176 145.4,171 145.4,161" fill="none" stroke="#39FF14" stroke-width="1" opacity="0.07614671393304243"/>
<polygon points="476,17 484.6,22 484.6,32 476,37 467.4,32 467.4,22" fill="none" stroke="#39FF14" stroke-width="1" opacity="0.022311073389755253"/>
<polygon points="620,154 628.6,159 628.6,169 620,174 611.4,169 611.4,159" fill="none" stroke="#39FF14" stroke-width="1" opacity="0.06675630412935803"/>
<polygon points="540,101 548.6,106 548.6,116 540,121 531.4,116 531.4,106" fill="none" stroke="#39FF14" stroke-width="1" opacity="0.05556688035568734"/>
<polygon points="53,66 61.6,71 61.6,81 53,86 44.4,81 44.4,71" fill="none" stroke="#39FF14" stroke-width="1" opacity="0.021473467311155504"/>
<polygon points="520,-7 528.6,-2 528.6,8 520,13 511.4,8 511.4,-2" fill="none" stroke="#39FF14" stroke-width="1" opacity="0.0655511468924421"/>
<polygon points="294,50 302.6,55 302.6,65 294,70 285.4,65 285.4,55" fill="none" stroke="#39FF14" stroke-width="1" opacity="0.0395958171516872"/>
<polygon points="825,154 833.6,159 833.6,169 825,174 816.4,169 816.4,159" fill="none" stroke="#39FF14" stroke-width="1" opacity="0.07904390601304674"/>
<polygon points="217,69 225.6,74 225.6,84 217,89 208.4,84 208.4,74" fill="none" stroke="#39FF14" stroke-width="1" opacity="0.04115160735532196"/>
<polygon points="787,16 795.6,21 795.6,31 787,36 778.4,31 778.4,21" fill="none" stroke="#39FF14" stroke-width="1" opacity="0.0712671002946961"/>
<polygon points="747,73 755.6,78 755.6,88 747,93 738.4,88 738.4,78" fill="none" stroke="#39FF14" stroke-width="1" opacity="0.03364236713700607"/>
</g>

  <!-- HUD Decorative elements -->
  <path d="M 20 20 L 40 20 L 50 30" fill="none" stroke="#39FF14" stroke-width="2" opacity="0.5"/>
  <path d="M 830 180 L 810 180 L 800 170" fill="none" stroke="#39FF14" stroke-width="2" opacity="0.5"/>

  <g clip-path="url(#dashClip)">
    <rect x="-160" y="0" width="160" height="200" fill="url(#scanlineGrad)">
      <animateTransform attributeName="transform" type="translate"
                        from="0 0" to="1010 0" dur="6s" repeatCount="indefinite"/>
    </rect>
  </g>

  <g font-family="'Consolas', 'Fira Code', monospace" text-anchor="middle">

    <!-- NETWORK STATUS -->
    <g transform="translate(130, 100)">
        <circle cx="0" cy="0" r="45" fill="none" stroke="#39FF14" stroke-width="2" stroke-dasharray="10 5">
            <animateTransform attributeName="transform" type="rotate" from="0" to="360" dur="10s" repeatCount="indefinite"/>
        </circle>
        <circle cx="0" cy="0" r="35" fill="#0d0d0d" />
        <text x="0" y="-60" font-size="12" fill="#aaaaaa" letter-spacing="2">ROOT.AUTH</text>
        <text x="0" y="70" font-size="14" fill="#ffffff" font-weight="bold">OPERATIONAL</text>
    </g>

    <!-- ACTIVE USERS -->
    <g transform="translate(330, 100)">
        <text x="0" y="-20" font-size="12" fill="#aaaaaa">CITIZENS</text>
        <text x="0" y="15" font-size="28" fill="#ffffff" font-weight="bold" filter="url(#textGlow)">13,117</text>
        <text x="0" y="35" font-size="10" fill="#777777">VERIFIED HUMANS</text>
    </g>

    <!-- REGISTERED AGENTS -->
    <g transform="translate(530, 100)">
        <text x="0" y="-20" font-size="12" fill="#aaaaaa">AGENTS</text>
        <text x="0" y="15" font-size="28" fill="#00d4ff" font-weight="bold" filter="url(#textGlow)">4,453</text>
        <text x="0" y="35" font-size="10" fill="#777777">REGISTERED DIDs</text>
    </g>

    <!-- TRANSACTIONS -->
    <g transform="translate(730, 100)">
        <text x="0" y="-20" font-size="12" fill="#aaaaaa">TRANSFERS</text>
        <text x="0" y="15" font-size="28" fill="#ffffff" font-weight="bold">37,828</text>
        <text x="0" y="35" font-size="10" fill="#777777">M2M SETTLEMENTS</text>
    </g>
  </g>

  <text x="425" y="185" font-family="'Consolas', 'Fira Code', monospace" font-size="10" fill="#aaaaaa" opacity="0.6" text-anchor="middle">AXIOMID PROJECTED TARGETS (ILLUSTRATIVE): 2026-07-14 07:46:39 UTC // SECURE_HANDSHAKE</text>
</svg>