<svg width="850" height="200" viewBox="0 0 850 200" xmlns="http://www.w3.org/2000/svg">
  <defs>
    <!-- Carbon Fiber Pattern -->
    <pattern id="carbonFiber" width="10" height="10" patternUnits="userSpaceOnUse">
        <rect width="10" height="10" fill="#050505"/>
        <path d="M0,0 L5,5 L10,0 L5,-5 Z M5,5 L10,10 L15,5 L10,0 Z M-5,5 L0,10 L5,5 L0,0 Z M0,10 L5,15 L10,10 L5,5 Z" fill="#0d0d0d"/>
    </pattern>
    <filter id="glassmorphism">
      <feGaussianBlur stdDeviation="3" result="blur" />
      <feColorMatrix type="matrix" values="1 0 0 0 0  0 1 0 0 0  0 0 1 0 0  0 0 0 18 -7" result="glow" />
      <feBlend in="SourceGraphic" in2="glow" mode="normal" />
    </filter>
    <filter id="textGlow">
      <feGaussianBlur stdDeviation="2" result="blur" />
      <feMerge>
        <feMergeNode in="blur"/>
        <feMergeNode in="SourceGraphic"/>
      </feMerge>
    </filter>
    <linearGradient id="neonBar" x1="0%" y1="0%" x2="100%" y2="0%">
        <stop offset="0%" stop-color="#111111"/>
        <stop offset="100%" stop-color="#39FF14"/>
    </linearGradient>
  </defs>

  <rect width="100%" height="100%" fill="url(#carbonFiber)" rx="12" stroke="#39FF14" stroke-width="1" stroke-opacity="0.3"/>
  <rect width="100%" height="100%" fill="#000000" opacity="0.6" rx="12" />
  <g><polygon points="718,120 726.6,125 726.6,135 718,140 709.4,135 709.4,125" fill="none" stroke="#39FF14" stroke-width="1" opacity="0.0246284416791547"/>
<polygon points="340,92 348.6,97 348.6,107 340,112 331.4,107 331.4,97" fill="none" stroke="#39FF14" stroke-width="1" opacity="0.05450354096519987"/>
<polygon points="670,160 678.6,165 678.6,175 670,180 661.4,175 661.4,165" fill="none" stroke="#39FF14" stroke-width="1" opacity="0.04041719352177288"/>
<polygon points="317,123 325.6,128 325.6,138 317,143 308.4,138 308.4,128" fill="none" stroke="#39FF14" stroke-width="1" opacity="0.06967274155343764"/>
<polygon points="595,122 603.6,127 603.6,137 595,142 586.4,137 586.4,127" fill="none" stroke="#39FF14" stroke-width="1" opacity="0.06311011530176927"/>
<polygon points="494,107 502.6,112 502.6,122 494,127 485.4,122 485.4,112" fill="none" stroke="#39FF14" stroke-width="1" opacity="0.025983959875746535"/>
<polygon points="615,9 623.6,14 623.6,24 615,29 606.4,24 606.4,14" fill="none" stroke="#39FF14" stroke-width="1" opacity="0.06428148586616937"/>
<polygon points="146,156 154.6,161 154.6,171 146,176 137.4,171 137.4,161" fill="none" stroke="#39FF14" stroke-width="1" opacity="0.05663129828294189"/>
<polygon points="308,78 316.6,83 316.6,93 308,98 299.4,93 299.4,83" fill="none" stroke="#39FF14" stroke-width="1" opacity="0.04145811618857208"/>
<polygon points="311,-6 319.6,-1 319.6,9 311,14 302.4,9 302.4,-1" fill="none" stroke="#39FF14" stroke-width="1" opacity="0.030876790351790473"/>
<polygon points="84,59 92.6,64 92.6,74 84,79 75.4,74 75.4,64" fill="none" stroke="#39FF14" stroke-width="1" opacity="0.07647856947021175"/>
<polygon points="260,11 268.6,16 268.6,26 260,31 251.4,26 251.4,16" fill="none" stroke="#39FF14" stroke-width="1" opacity="0.04010602618853111"/>
<polygon points="688,31 696.6,36 696.6,46 688,51 679.4,46 679.4,36" fill="none" stroke="#39FF14" stroke-width="1" opacity="0.06892715722038471"/>
<polygon points="743,-9 751.6,-4 751.6,6 743,11 734.4,6 734.4,-4" fill="none" stroke="#39FF14" stroke-width="1" opacity="0.05167435803951971"/>
<polygon points="83,40 91.6,45 91.6,55 83,60 74.4,55 74.4,45" fill="none" stroke="#39FF14" stroke-width="1" opacity="0.028826232464273176"/>
<polygon points="652,18 660.6,23 660.6,33 652,38 643.4,33 643.4,23" fill="none" stroke="#39FF14" stroke-width="1" opacity="0.032676226552400545"/>
<polygon points="529,2 537.6,7 537.6,17 529,22 520.4,17 520.4,7" fill="none" stroke="#39FF14" stroke-width="1" opacity="0.02972865917260351"/>
<polygon points="477,20 485.6,25 485.6,35 477,40 468.4,35 468.4,25" fill="none" stroke="#39FF14" stroke-width="1" opacity="0.03511683791517024"/>
<polygon points="53,159 61.6,164 61.6,174 53,179 44.4,174 44.4,164" fill="none" stroke="#39FF14" stroke-width="1" opacity="0.052061233510775226"/>
<polygon points="828,-2 836.6,3 836.6,13 828,18 819.4,13 819.4,3" fill="none" stroke="#39FF14" stroke-width="1" opacity="0.07661286994903213"/>
<polygon points="133,122 141.6,127 141.6,137 133,142 124.4,137 124.4,127" fill="none" stroke="#39FF14" stroke-width="1" opacity="0.04759657823474445"/>
<polygon points="803,76 811.6,81 811.6,91 803,96 794.4,91 794.4,81" fill="none" stroke="#39FF14" stroke-width="1" opacity="0.07539574303299669"/>
<polygon points="339,146 347.6,151 347.6,161 339,166 330.4,161 330.4,151" fill="none" stroke="#39FF14" stroke-width="1" opacity="0.035620609100126994"/>
<polygon points="486,93 494.6,98 494.6,108 486,113 477.4,108 477.4,98" fill="none" stroke="#39FF14" stroke-width="1" opacity="0.048725798367268786"/>
<polygon points="433,38 441.6,43 441.6,53 433,58 424.4,53 424.4,43" fill="none" stroke="#39FF14" stroke-width="1" opacity="0.07461530939385946"/>
<polygon points="239,119 247.6,124 247.6,134 239,139 230.4,134 230.4,124" fill="none" stroke="#39FF14" stroke-width="1" opacity="0.028340837232508916"/>
<polygon points="522,97 530.6,102 530.6,112 522,117 513.4,112 513.4,102" fill="none" stroke="#39FF14" stroke-width="1" opacity="0.07605764196452353"/>
<polygon points="74,63 82.6,68 82.6,78 74,83 65.4,78 65.4,68" fill="none" stroke="#39FF14" stroke-width="1" opacity="0.05962470330371228"/>
<polygon points="493,160 501.6,165 501.6,175 493,180 484.4,175 484.4,165" fill="none" stroke="#39FF14" stroke-width="1" opacity="0.03920095735036025"/>
<polygon points="802,173 810.6,178 810.6,188 802,193 793.4,188 793.4,178" fill="none" stroke="#39FF14" stroke-width="1" opacity="0.06574452230963815"/>
</g>

  <!-- HUD Decorative elements -->
  <path d="M 20 20 L 40 20 L 50 30" fill="none" stroke="#39FF14" stroke-width="2" opacity="0.5"/>
  <path d="M 830 180 L 810 180 L 800 170" fill="none" stroke="#39FF14" stroke-width="2" opacity="0.5"/>
  <rect x="20" y="100" width="2" height="40" fill="#ffffff" opacity="0.4"/>
  <rect x="828" y="60" width="2" height="40" fill="#39FF14" opacity="0.6"/>

  <g font-family="'Consolas', 'Fira Code', monospace" text-anchor="middle">

    <!-- SYSTEM STATUS -->
    <g transform="translate(130, 100)">
        <circle cx="0" cy="0" r="45" fill="none" stroke="#111111" stroke-width="8" />
        <circle cx="0" cy="0" r="45" fill="none" stroke="#39FF14" stroke-width="2" stroke-dasharray="10 5">
            <animateTransform attributeName="transform" type="rotate" from="0" to="360" dur="10s" repeatCount="indefinite"/>
        </circle>
        <circle cx="0" cy="0" r="35" fill="#0d0d0d" />
        <circle cx="0" cy="0" r="6" fill="#39FF14" filter="url(#textGlow)">
            <animate attributeName="opacity" values="1;0.3;1" dur="2s" repeatCount="indefinite"/>
        </circle>
        <text x="0" y="-60" font-size="12" fill="#aaaaaa" letter-spacing="2">SYS.CORE</text>
        <text x="0" y="70" font-size="14" fill="#ffffff" font-weight="bold">ONLINE</text>
    </g>

    <!-- LIVE TRAFFIC -->
    <g transform="translate(330, 100)">
        <rect x="-60" y="-45" width="120" height="90" fill="#0a0a0a" rx="8" stroke="#39FF14" stroke-opacity="0.4" stroke-width="1"/>
        <text x="0" y="-20" font-size="12" fill="#aaaaaa">NETWORK LOAD</text>
        <text x="0" y="15" font-size="28" fill="#ffffff" font-weight="bold" filter="url(#textGlow)">4615</text>
        <text x="0" y="35" font-size="10" fill="#777777">ACTIVE SESSIONS</text>
    </g>

    <!-- ACTIVE AGENTS -->
    <g transform="translate(530, 100)">
        <rect x="-60" y="-45" width="120" height="90" fill="#0a0a0a" rx="8" stroke="#39FF14" stroke-opacity="0.4" stroke-width="1"/>
        <text x="0" y="-20" font-size="12" fill="#aaaaaa">SWARM ENTITIES</text>
        <text x="0" y="15" font-size="28" fill="#ffffff" font-weight="bold" filter="url(#textGlow)">192</text>
        <text x="0" y="35" font-size="10" fill="#777777">AUTONOMOUS</text>
    </g>

    <!-- UPTIME -->
    <g transform="translate(730, 100)">
        <path d="M -40 -35 L 40 -35 L 50 -25 L 50 35 L -40 35 L -50 25 Z" fill="#0a0a0a" stroke="#39FF14" stroke-opacity="0.4" stroke-width="1"/>
        <text x="0" y="-15" font-size="12" fill="#aaaaaa">CONTINUITY</text>
        <text x="0" y="15" font-size="24" fill="#ffffff" font-weight="bold">289<tspan font-size="14" fill="#777777">d</tspan></text>
        <rect x="-35" y="25" width="70" height="4" fill="url(#neonBar)" rx="2"/>
    </g>
  </g>

  <text x="425" y="185" font-family="'Consolas', 'Fira Code', monospace" font-size="10" fill="#aaaaaa" opacity="0.6" text-anchor="middle">LAST TELEMETRY PING: 2026-05-12 12:51:33 UTC // ENCRYPTED_TUNNEL</text>
</svg>