<svg width="850" height="200" viewBox="0 0 850 200" xmlns="http://www.w3.org/2000/svg">
  <defs>
    <!-- Carbon Fiber Pattern -->
    <pattern id="carbonFiber" width="10" height="10" patternUnits="userSpaceOnUse">
        <rect width="10" height="10" fill="#050505"/>
        <path d="M0,0 L5,5 L10,0 L5,-5 Z M5,5 L10,10 L15,5 L10,0 Z M-5,5 L0,10 L5,5 L0,0 Z M0,10 L5,15 L10,10 L5,5 Z" fill="#0d0d0d"/>
    </pattern>
    <filter id="glassmorphism">
      <feGaussianBlur stdDeviation="3" result="blur" />
      <feColorMatrix type="matrix" values="1 0 0 0 0  0 1 0 0 0  0 0 1 0 0  0 0 0 18 -7" result="glow" />
      <feBlend in="SourceGraphic" in2="glow" mode="normal" />
    </filter>
    <filter id="textGlow">
      <feGaussianBlur stdDeviation="2" result="blur" />
      <feMerge>
        <feMergeNode in="blur"/>
        <feMergeNode in="SourceGraphic"/>
      </feMerge>
    </filter>
    <linearGradient id="neonBar" x1="0%" y1="0%" x2="100%" y2="0%">
        <stop offset="0%" stop-color="#111111"/>
        <stop offset="100%" stop-color="#39FF14"/>
    </linearGradient>
  </defs>

  <rect width="100%" height="100%" fill="url(#carbonFiber)" rx="12" stroke="#39FF14" stroke-width="1" stroke-opacity="0.3"/>
  <rect width="100%" height="100%" fill="#000000" opacity="0.6" rx="12" />
  <g><polygon points="816,61 824.6,66 824.6,76 816,81 807.4,76 807.4,66" fill="none" stroke="#39FF14" stroke-width="1" opacity="0.06289323036971489"/>
<polygon points="788,76 796.6,81 796.6,91 788,96 779.4,91 779.4,81" fill="none" stroke="#39FF14" stroke-width="1" opacity="0.05957162952429382"/>
<polygon points="816,109 824.6,114 824.6,124 816,129 807.4,124 807.4,114" fill="none" stroke="#39FF14" stroke-width="1" opacity="0.053063832916902004"/>
<polygon points="353,48 361.6,53 361.6,63 353,68 344.4,63 344.4,53" fill="none" stroke="#39FF14" stroke-width="1" opacity="0.07503208454434343"/>
<polygon points="284,19 292.6,24 292.6,34 284,39 275.4,34 275.4,24" fill="none" stroke="#39FF14" stroke-width="1" opacity="0.04679868105363673"/>
<polygon points="35,144 43.6,149 43.6,159 35,164 26.4,159 26.4,149" fill="none" stroke="#39FF14" stroke-width="1" opacity="0.022545195130799053"/>
<polygon points="708,71 716.6,76 716.6,86 708,91 699.4,86 699.4,76" fill="none" stroke="#39FF14" stroke-width="1" opacity="0.028251354157202535"/>
<polygon points="679,168 687.6,173 687.6,183 679,188 670.4,183 670.4,173" fill="none" stroke="#39FF14" stroke-width="1" opacity="0.020347852699946507"/>
<polygon points="339,170 347.6,175 347.6,185 339,190 330.4,185 330.4,175" fill="none" stroke="#39FF14" stroke-width="1" opacity="0.0661776713822775"/>
<polygon points="544,140 552.6,145 552.6,155 544,160 535.4,155 535.4,145" fill="none" stroke="#39FF14" stroke-width="1" opacity="0.05996744694311151"/>
<polygon points="483,78 491.6,83 491.6,93 483,98 474.4,93 474.4,83" fill="none" stroke="#39FF14" stroke-width="1" opacity="0.0783544336969725"/>
<polygon points="803,189 811.6,194 811.6,204 803,209 794.4,204 794.4,194" fill="none" stroke="#39FF14" stroke-width="1" opacity="0.0793603306981488"/>
<polygon points="454,97 462.6,102 462.6,112 454,117 445.4,112 445.4,102" fill="none" stroke="#39FF14" stroke-width="1" opacity="0.06129960692117198"/>
<polygon points="313,144 321.6,149 321.6,159 313,164 304.4,159 304.4,149" fill="none" stroke="#39FF14" stroke-width="1" opacity="0.02661135043261058"/>
<polygon points="338,29 346.6,34 346.6,44 338,49 329.4,44 329.4,34" fill="none" stroke="#39FF14" stroke-width="1" opacity="0.024102438319271433"/>
<polygon points="214,161 222.6,166 222.6,176 214,181 205.4,176 205.4,166" fill="none" stroke="#39FF14" stroke-width="1" opacity="0.04386732251547941"/>
<polygon points="403,56 411.6,61 411.6,71 403,76 394.4,71 394.4,61" fill="none" stroke="#39FF14" stroke-width="1" opacity="0.05842440150002248"/>
<polygon points="625,68 633.6,73 633.6,83 625,88 616.4,83 616.4,73" fill="none" stroke="#39FF14" stroke-width="1" opacity="0.06542816525638674"/>
<polygon points="541,174 549.6,179 549.6,189 541,194 532.4,189 532.4,179" fill="none" stroke="#39FF14" stroke-width="1" opacity="0.047505154568436875"/>
<polygon points="695,18 703.6,23 703.6,33 695,38 686.4,33 686.4,23" fill="none" stroke="#39FF14" stroke-width="1" opacity="0.06525916604335423"/>
<polygon points="351,29 359.6,34 359.6,44 351,49 342.4,44 342.4,34" fill="none" stroke="#39FF14" stroke-width="1" opacity="0.05854725179198861"/>
<polygon points="390,37 398.6,42 398.6,52 390,57 381.4,52 381.4,42" fill="none" stroke="#39FF14" stroke-width="1" opacity="0.06193587910720434"/>
<polygon points="102,112 110.6,117 110.6,127 102,132 93.4,127 93.4,117" fill="none" stroke="#39FF14" stroke-width="1" opacity="0.042127858759864925"/>
<polygon points="59,107 67.6,112 67.6,122 59,127 50.4,122 50.4,112" fill="none" stroke="#39FF14" stroke-width="1" opacity="0.042481613498641366"/>
<polygon points="817,28 825.6,33 825.6,43 817,48 808.4,43 808.4,33" fill="none" stroke="#39FF14" stroke-width="1" opacity="0.05528026205090743"/>
<polygon points="649,54 657.6,59 657.6,69 649,74 640.4,69 640.4,59" fill="none" stroke="#39FF14" stroke-width="1" opacity="0.05064848428853904"/>
<polygon points="426,134 434.6,139 434.6,149 426,154 417.4,149 417.4,139" fill="none" stroke="#39FF14" stroke-width="1" opacity="0.06207410608907557"/>
<polygon points="463,108 471.6,113 471.6,123 463,128 454.4,123 454.4,113" fill="none" stroke="#39FF14" stroke-width="1" opacity="0.05912889274599814"/>
<polygon points="72,48 80.6,53 80.6,63 72,68 63.4,63 63.4,53" fill="none" stroke="#39FF14" stroke-width="1" opacity="0.03140150237070209"/>
<polygon points="447,148 455.6,153 455.6,163 447,168 438.4,163 438.4,153" fill="none" stroke="#39FF14" stroke-width="1" opacity="0.045542480445129645"/>
</g>

  <!-- HUD Decorative elements -->
  <path d="M 20 20 L 40 20 L 50 30" fill="none" stroke="#39FF14" stroke-width="2" opacity="0.5"/>
  <path d="M 830 180 L 810 180 L 800 170" fill="none" stroke="#39FF14" stroke-width="2" opacity="0.5"/>
  <rect x="20" y="100" width="2" height="40" fill="#ffffff" opacity="0.4"/>
  <rect x="828" y="60" width="2" height="40" fill="#39FF14" opacity="0.6"/>

  <g font-family="'Consolas', 'Fira Code', monospace" text-anchor="middle">

    <!-- SYSTEM STATUS -->
    <g transform="translate(130, 100)">
        <circle cx="0" cy="0" r="45" fill="none" stroke="#111111" stroke-width="8" />
        <circle cx="0" cy="0" r="45" fill="none" stroke="#39FF14" stroke-width="2" stroke-dasharray="10 5">
            <animateTransform attributeName="transform" type="rotate" from="0" to="360" dur="10s" repeatCount="indefinite"/>
        </circle>
        <circle cx="0" cy="0" r="35" fill="#0d0d0d" />
        <circle cx="0" cy="0" r="6" fill="#39FF14" filter="url(#textGlow)">
            <animate attributeName="opacity" values="1;0.3;1" dur="2s" repeatCount="indefinite"/>
        </circle>
        <text x="0" y="-60" font-size="12" fill="#aaaaaa" letter-spacing="2">SYS.CORE</text>
        <text x="0" y="70" font-size="14" fill="#ffffff" font-weight="bold">ONLINE</text>
    </g>

    <!-- LIVE TRAFFIC -->
    <g transform="translate(330, 100)">
        <rect x="-60" y="-45" width="120" height="90" fill="#0a0a0a" rx="8" stroke="#39FF14" stroke-opacity="0.4" stroke-width="1"/>
        <text x="0" y="-20" font-size="12" fill="#aaaaaa">NETWORK LOAD</text>
        <text x="0" y="15" font-size="28" fill="#ffffff" font-weight="bold" filter="url(#textGlow)">5576</text>
        <text x="0" y="35" font-size="10" fill="#777777">ACTIVE SESSIONS</text>
    </g>

    <!-- ACTIVE AGENTS -->
    <g transform="translate(530, 100)">
        <rect x="-60" y="-45" width="120" height="90" fill="#0a0a0a" rx="8" stroke="#39FF14" stroke-opacity="0.4" stroke-width="1"/>
        <text x="0" y="-20" font-size="12" fill="#aaaaaa">SWARM ENTITIES</text>
        <text x="0" y="15" font-size="28" fill="#ffffff" font-weight="bold" filter="url(#textGlow)">90</text>
        <text x="0" y="35" font-size="10" fill="#777777">AUTONOMOUS</text>
    </g>

    <!-- UPTIME -->
    <g transform="translate(730, 100)">
        <path d="M -40 -35 L 40 -35 L 50 -25 L 50 35 L -40 35 L -50 25 Z" fill="#0a0a0a" stroke="#39FF14" stroke-opacity="0.4" stroke-width="1"/>
        <text x="0" y="-15" font-size="12" fill="#aaaaaa">CONTINUITY</text>
        <text x="0" y="15" font-size="24" fill="#ffffff" font-weight="bold">391<tspan font-size="14" fill="#777777">d</tspan></text>
        <rect x="-35" y="25" width="70" height="4" fill="url(#neonBar)" rx="2"/>
    </g>
  </g>

  <text x="425" y="185" font-family="'Consolas', 'Fira Code', monospace" font-size="10" fill="#aaaaaa" opacity="0.6" text-anchor="middle">LAST TELEMETRY PING: 2026-05-13 01:43:36 UTC // ENCRYPTED_TUNNEL</text>
</svg>