<svg width="850" height="200" viewBox="0 0 850 200" xmlns="http://www.w3.org/2000/svg">
  <defs>
    <pattern id="carbonFiber" width="10" height="10" patternUnits="userSpaceOnUse">
        <rect width="10" height="10" fill="#050505"/>
        <path d="M0,0 L5,5 L10,0 L5,-5 Z M5,5 L10,10 L15,5 L10,0 Z M-5,5 L0,10 L5,5 L0,0 Z M0,10 L5,15 L10,10 L5,5 Z" fill="#0d0d0d"/>
    </pattern>
    <filter id="textGlow">
      <feGaussianBlur stdDeviation="2" result="blur" />
      <feMerge>
        <feMergeNode in="blur"/>
        <feMergeNode in="SourceGraphic"/>
      </feMerge>
    </filter>
    <linearGradient id="neonBar" x1="0%" y1="0%" x2="100%" y2="0%">
        <stop offset="0%" stop-color="#111111"/>
        <stop offset="100%" stop-color="#39FF14"/>
    </linearGradient>
    <linearGradient id="scanlineGrad" x1="0%" y1="0%" x2="100%" y2="0%">
        <stop offset="0%" stop-color="#39FF14" stop-opacity="0"/>
        <stop offset="50%" stop-color="#39FF14" stop-opacity="0.18"/>
        <stop offset="100%" stop-color="#39FF14" stop-opacity="0"/>
    </linearGradient>
    <clipPath id="dashClip">
        <rect x="0" y="0" width="850" height="200" rx="12"/>
    </clipPath>
  </defs>

  <rect width="100%" height="100%" fill="url(#carbonFiber)" rx="12" stroke="#39FF14" stroke-width="1" stroke-opacity="0.3"/>
  <rect width="100%" height="100%" fill="#000000" opacity="0.6" rx="12" />
  <g><polygon points="22,165 30.6,170 30.6,180 22,185 13.4,180 13.4,170" fill="none" stroke="#39FF14" stroke-width="1" opacity="0.042246309586611616"/>
<polygon points="26,86 34.6,91 34.6,101 26,106 17.4,101 17.4,91" fill="none" stroke="#39FF14" stroke-width="1" opacity="0.034524582463381574"/>
<polygon points="650,21 658.6,26 658.6,36 650,41 641.4,36 641.4,26" fill="none" stroke="#39FF14" stroke-width="1" opacity="0.05205408650608337"/>
<polygon points="175,124 183.6,129 183.6,139 175,144 166.4,139 166.4,129" fill="none" stroke="#39FF14" stroke-width="1" opacity="0.05182479580041077"/>
<polygon points="496,136 504.6,141 504.6,151 496,156 487.4,151 487.4,141" fill="none" stroke="#39FF14" stroke-width="1" opacity="0.03247081097566003"/>
<polygon points="539,178 547.6,183 547.6,193 539,198 530.4,193 530.4,183" fill="none" stroke="#39FF14" stroke-width="1" opacity="0.06295505130953269"/>
<polygon points="403,102 411.6,107 411.6,117 403,122 394.4,117 394.4,107" fill="none" stroke="#39FF14" stroke-width="1" opacity="0.07514535838400958"/>
<polygon points="119,16 127.6,21 127.6,31 119,36 110.4,31 110.4,21" fill="none" stroke="#39FF14" stroke-width="1" opacity="0.05668189423960068"/>
<polygon points="646,21 654.6,26 654.6,36 646,41 637.4,36 637.4,26" fill="none" stroke="#39FF14" stroke-width="1" opacity="0.053494554112154785"/>
<polygon points="634,50 642.6,55 642.6,65 634,70 625.4,65 625.4,55" fill="none" stroke="#39FF14" stroke-width="1" opacity="0.029772307129048964"/>
<polygon points="401,96 409.6,101 409.6,111 401,116 392.4,111 392.4,101" fill="none" stroke="#39FF14" stroke-width="1" opacity="0.057423790884492065"/>
<polygon points="251,158 259.6,163 259.6,173 251,178 242.4,173 242.4,163" fill="none" stroke="#39FF14" stroke-width="1" opacity="0.06271565152824574"/>
<polygon points="624,14 632.6,19 632.6,29 624,34 615.4,29 615.4,19" fill="none" stroke="#39FF14" stroke-width="1" opacity="0.07024634124246297"/>
<polygon points="338,62 346.6,67 346.6,77 338,82 329.4,77 329.4,67" fill="none" stroke="#39FF14" stroke-width="1" opacity="0.020150530161766586"/>
<polygon points="253,22 261.6,27 261.6,37 253,42 244.4,37 244.4,27" fill="none" stroke="#39FF14" stroke-width="1" opacity="0.06526653862117011"/>
<polygon points="60,39 68.6,44 68.6,54 60,59 51.4,54 51.4,44" fill="none" stroke="#39FF14" stroke-width="1" opacity="0.06534581558370516"/>
<polygon points="795,60 803.6,65 803.6,75 795,80 786.4,75 786.4,65" fill="none" stroke="#39FF14" stroke-width="1" opacity="0.026816590796339725"/>
<polygon points="531,75 539.6,80 539.6,90 531,95 522.4,90 522.4,80" fill="none" stroke="#39FF14" stroke-width="1" opacity="0.056238334515311086"/>
<polygon points="154,-5 162.6,0 162.6,10 154,15 145.4,10 145.4,0" fill="none" stroke="#39FF14" stroke-width="1" opacity="0.05997450038100413"/>
<polygon points="616,187 624.6,192 624.6,202 616,207 607.4,202 607.4,192" fill="none" stroke="#39FF14" stroke-width="1" opacity="0.058558153517818234"/>
<polygon points="144,119 152.6,124 152.6,134 144,139 135.4,134 135.4,124" fill="none" stroke="#39FF14" stroke-width="1" opacity="0.0645758680866889"/>
<polygon points="794,8 802.6,13 802.6,23 794,28 785.4,23 785.4,13" fill="none" stroke="#39FF14" stroke-width="1" opacity="0.0723444282570603"/>
<polygon points="35,129 43.6,134 43.6,144 35,149 26.4,144 26.4,134" fill="none" stroke="#39FF14" stroke-width="1" opacity="0.062174768343703266"/>
<polygon points="692,8 700.6,13 700.6,23 692,28 683.4,23 683.4,13" fill="none" stroke="#39FF14" stroke-width="1" opacity="0.05020951972597201"/>
<polygon points="537,89 545.6,94 545.6,104 537,109 528.4,104 528.4,94" fill="none" stroke="#39FF14" stroke-width="1" opacity="0.033558286779681354"/>
<polygon points="715,39 723.6,44 723.6,54 715,59 706.4,54 706.4,44" fill="none" stroke="#39FF14" stroke-width="1" opacity="0.07687373553953494"/>
<polygon points="133,147 141.6,152 141.6,162 133,167 124.4,162 124.4,152" fill="none" stroke="#39FF14" stroke-width="1" opacity="0.05661847809715548"/>
<polygon points="202,35 210.6,40 210.6,50 202,55 193.4,50 193.4,40" fill="none" stroke="#39FF14" stroke-width="1" opacity="0.07136056523838578"/>
<polygon points="475,-1 483.6,4 483.6,14 475,19 466.4,14 466.4,4" fill="none" stroke="#39FF14" stroke-width="1" opacity="0.02143902648640949"/>
<polygon points="760,73 768.6,78 768.6,88 760,93 751.4,88 751.4,78" fill="none" stroke="#39FF14" stroke-width="1" opacity="0.05184523095597561"/>
</g>

  <!-- HUD Decorative elements -->
  <path d="M 20 20 L 40 20 L 50 30" fill="none" stroke="#39FF14" stroke-width="2" opacity="0.5"/>
  <path d="M 830 180 L 810 180 L 800 170" fill="none" stroke="#39FF14" stroke-width="2" opacity="0.5"/>

  <g clip-path="url(#dashClip)">
    <rect x="-160" y="0" width="160" height="200" fill="url(#scanlineGrad)">
      <animateTransform attributeName="transform" type="translate"
                        from="0 0" to="1010 0" dur="6s" repeatCount="indefinite"/>
    </rect>
  </g>

  <g font-family="'Consolas', 'Fira Code', monospace" text-anchor="middle">

    <!-- NETWORK STATUS -->
    <g transform="translate(130, 100)">
        <circle cx="0" cy="0" r="45" fill="none" stroke="#39FF14" stroke-width="2" stroke-dasharray="10 5">
            <animateTransform attributeName="transform" type="rotate" from="0" to="360" dur="10s" repeatCount="indefinite"/>
        </circle>
        <circle cx="0" cy="0" r="35" fill="#0d0d0d" />
        <text x="0" y="-60" font-size="12" fill="#aaaaaa" letter-spacing="2">ROOT.AUTH</text>
        <text x="0" y="70" font-size="14" fill="#ffffff" font-weight="bold">OPERATIONAL</text>
    </g>

    <!-- ACTIVE USERS -->
    <g transform="translate(330, 100)">
        <text x="0" y="-20" font-size="12" fill="#aaaaaa">CITIZENS</text>
        <text x="0" y="15" font-size="28" fill="#ffffff" font-weight="bold" filter="url(#textGlow)">14,271</text>
        <text x="0" y="35" font-size="10" fill="#777777">VERIFIED HUMANS</text>
    </g>

    <!-- REGISTERED AGENTS -->
    <g transform="translate(530, 100)">
        <text x="0" y="-20" font-size="12" fill="#aaaaaa">AGENTS</text>
        <text x="0" y="15" font-size="28" fill="#00d4ff" font-weight="bold" filter="url(#textGlow)">3,380</text>
        <text x="0" y="35" font-size="10" fill="#777777">REGISTERED DIDs</text>
    </g>

    <!-- TRANSACTIONS -->
    <g transform="translate(730, 100)">
        <text x="0" y="-20" font-size="12" fill="#aaaaaa">TRANSFERS</text>
        <text x="0" y="15" font-size="28" fill="#ffffff" font-weight="bold">26,408</text>
        <text x="0" y="35" font-size="10" fill="#777777">M2M SETTLEMENTS</text>
    </g>
  </g>

  <text x="425" y="185" font-family="'Consolas', 'Fira Code', monospace" font-size="10" fill="#aaaaaa" opacity="0.6" text-anchor="middle">AXIOMID PROJECTED TARGETS (ILLUSTRATIVE): 2026-07-18 18:46:08 UTC // SECURE_HANDSHAKE</text>
</svg>