<svg width="850" height="200" viewBox="0 0 850 200" xmlns="http://www.w3.org/2000/svg">
  <defs>
    <pattern id="carbonFiber" width="10" height="10" patternUnits="userSpaceOnUse">
        <rect width="10" height="10" fill="#050505"/>
        <path d="M0,0 L5,5 L10,0 L5,-5 Z M5,5 L10,10 L15,5 L10,0 Z M-5,5 L0,10 L5,5 L0,0 Z M0,10 L5,15 L10,10 L5,5 Z" fill="#0d0d0d"/>
    </pattern>
    <filter id="textGlow">
      <feGaussianBlur stdDeviation="2" result="blur" />
      <feMerge>
        <feMergeNode in="blur"/>
        <feMergeNode in="SourceGraphic"/>
      </feMerge>
    </filter>
    <linearGradient id="neonBar" x1="0%" y1="0%" x2="100%" y2="0%">
        <stop offset="0%" stop-color="#111111"/>
        <stop offset="100%" stop-color="#39FF14"/>
    </linearGradient>
    <linearGradient id="scanlineGrad" x1="0%" y1="0%" x2="100%" y2="0%">
        <stop offset="0%" stop-color="#39FF14" stop-opacity="0"/>
        <stop offset="50%" stop-color="#39FF14" stop-opacity="0.18"/>
        <stop offset="100%" stop-color="#39FF14" stop-opacity="0"/>
    </linearGradient>
    <clipPath id="dashClip">
        <rect x="0" y="0" width="850" height="200" rx="12"/>
    </clipPath>
  </defs>

  <rect width="100%" height="100%" fill="url(#carbonFiber)" rx="12" stroke="#39FF14" stroke-width="1" stroke-opacity="0.3"/>
  <rect width="100%" height="100%" fill="#000000" opacity="0.6" rx="12" />
  <g><polygon points="591,186 599.6,191 599.6,201 591,206 582.4,201 582.4,191" fill="none" stroke="#39FF14" stroke-width="1" opacity="0.024033247337488933"/>
<polygon points="472,138 480.6,143 480.6,153 472,158 463.4,153 463.4,143" fill="none" stroke="#39FF14" stroke-width="1" opacity="0.021168214982803663"/>
<polygon points="56,138 64.6,143 64.6,153 56,158 47.4,153 47.4,143" fill="none" stroke="#39FF14" stroke-width="1" opacity="0.06759716115309386"/>
<polygon points="273,45 281.6,50 281.6,60 273,65 264.4,60 264.4,50" fill="none" stroke="#39FF14" stroke-width="1" opacity="0.07755511974769314"/>
<polygon points="668,163 676.6,168 676.6,178 668,183 659.4,178 659.4,168" fill="none" stroke="#39FF14" stroke-width="1" opacity="0.07446519975666015"/>
<polygon points="138,12 146.6,17 146.6,27 138,32 129.4,27 129.4,17" fill="none" stroke="#39FF14" stroke-width="1" opacity="0.03568591797523164"/>
<polygon points="450,155 458.6,160 458.6,170 450,175 441.4,170 441.4,160" fill="none" stroke="#39FF14" stroke-width="1" opacity="0.053571007461587244"/>
<polygon points="148,111 156.6,116 156.6,126 148,131 139.4,126 139.4,116" fill="none" stroke="#39FF14" stroke-width="1" opacity="0.02801757755437446"/>
<polygon points="109,188 117.6,193 117.6,203 109,208 100.4,203 100.4,193" fill="none" stroke="#39FF14" stroke-width="1" opacity="0.04207343457030658"/>
<polygon points="765,9 773.6,14 773.6,24 765,29 756.4,24 756.4,14" fill="none" stroke="#39FF14" stroke-width="1" opacity="0.02416157517818772"/>
<polygon points="447,119 455.6,124 455.6,134 447,139 438.4,134 438.4,124" fill="none" stroke="#39FF14" stroke-width="1" opacity="0.03944686619416139"/>
<polygon points="745,65 753.6,70 753.6,80 745,85 736.4,80 736.4,70" fill="none" stroke="#39FF14" stroke-width="1" opacity="0.029404919871903606"/>
<polygon points="8,142 16.6,147 16.6,157 8,162 -0.5999999999999996,157 -0.5999999999999996,147" fill="none" stroke="#39FF14" stroke-width="1" opacity="0.070661270383887"/>
<polygon points="457,112 465.6,117 465.6,127 457,132 448.4,127 448.4,117" fill="none" stroke="#39FF14" stroke-width="1" opacity="0.04353879929423783"/>
<polygon points="80,143 88.6,148 88.6,158 80,163 71.4,158 71.4,148" fill="none" stroke="#39FF14" stroke-width="1" opacity="0.06207241546499294"/>
<polygon points="533,35 541.6,40 541.6,50 533,55 524.4,50 524.4,40" fill="none" stroke="#39FF14" stroke-width="1" opacity="0.0417368726138932"/>
<polygon points="186,40 194.6,45 194.6,55 186,60 177.4,55 177.4,45" fill="none" stroke="#39FF14" stroke-width="1" opacity="0.07333999842351001"/>
<polygon points="638,15 646.6,20 646.6,30 638,35 629.4,30 629.4,20" fill="none" stroke="#39FF14" stroke-width="1" opacity="0.051818711413829946"/>
<polygon points="627,20 635.6,25 635.6,35 627,40 618.4,35 618.4,25" fill="none" stroke="#39FF14" stroke-width="1" opacity="0.06560282298555568"/>
<polygon points="284,107 292.6,112 292.6,122 284,127 275.4,122 275.4,112" fill="none" stroke="#39FF14" stroke-width="1" opacity="0.035419289221731765"/>
<polygon points="562,119 570.6,124 570.6,134 562,139 553.4,134 553.4,124" fill="none" stroke="#39FF14" stroke-width="1" opacity="0.028257780867632705"/>
<polygon points="415,137 423.6,142 423.6,152 415,157 406.4,152 406.4,142" fill="none" stroke="#39FF14" stroke-width="1" opacity="0.031635028024823944"/>
<polygon points="803,147 811.6,152 811.6,162 803,167 794.4,162 794.4,152" fill="none" stroke="#39FF14" stroke-width="1" opacity="0.046653188997801076"/>
<polygon points="140,179 148.6,184 148.6,194 140,199 131.4,194 131.4,184" fill="none" stroke="#39FF14" stroke-width="1" opacity="0.031065130290056094"/>
<polygon points="235,72 243.6,77 243.6,87 235,92 226.4,87 226.4,77" fill="none" stroke="#39FF14" stroke-width="1" opacity="0.07894102938902937"/>
<polygon points="142,166 150.6,171 150.6,181 142,186 133.4,181 133.4,171" fill="none" stroke="#39FF14" stroke-width="1" opacity="0.040448232936928466"/>
<polygon points="351,13 359.6,18 359.6,28 351,33 342.4,28 342.4,18" fill="none" stroke="#39FF14" stroke-width="1" opacity="0.04582644569314937"/>
<polygon points="708,115 716.6,120 716.6,130 708,135 699.4,130 699.4,120" fill="none" stroke="#39FF14" stroke-width="1" opacity="0.04101570095110088"/>
<polygon points="397,63 405.6,68 405.6,78 397,83 388.4,78 388.4,68" fill="none" stroke="#39FF14" stroke-width="1" opacity="0.032456483262700966"/>
<polygon points="712,144 720.6,149 720.6,159 712,164 703.4,159 703.4,149" fill="none" stroke="#39FF14" stroke-width="1" opacity="0.05108248884063038"/>
</g>

  <!-- HUD Decorative elements -->
  <path d="M 20 20 L 40 20 L 50 30" fill="none" stroke="#39FF14" stroke-width="2" opacity="0.5"/>
  <path d="M 830 180 L 810 180 L 800 170" fill="none" stroke="#39FF14" stroke-width="2" opacity="0.5"/>

  <g clip-path="url(#dashClip)">
    <rect x="-160" y="0" width="160" height="200" fill="url(#scanlineGrad)">
      <animateTransform attributeName="transform" type="translate"
                        from="0 0" to="1010 0" dur="6s" repeatCount="indefinite"/>
    </rect>
  </g>

  <g font-family="'Consolas', 'Fira Code', monospace" text-anchor="middle">

    <!-- NETWORK STATUS -->
    <g transform="translate(130, 100)">
        <circle cx="0" cy="0" r="45" fill="none" stroke="#39FF14" stroke-width="2" stroke-dasharray="10 5">
            <animateTransform attributeName="transform" type="rotate" from="0" to="360" dur="10s" repeatCount="indefinite"/>
        </circle>
        <circle cx="0" cy="0" r="35" fill="#0d0d0d" />
        <text x="0" y="-60" font-size="12" fill="#aaaaaa" letter-spacing="2">ROOT.AUTH</text>
        <text x="0" y="70" font-size="14" fill="#ffffff" font-weight="bold">OPERATIONAL</text>
    </g>

    <!-- ACTIVE USERS -->
    <g transform="translate(330, 100)">
        <text x="0" y="-20" font-size="12" fill="#aaaaaa">CITIZENS</text>
        <text x="0" y="15" font-size="28" fill="#ffffff" font-weight="bold" filter="url(#textGlow)">15,456</text>
        <text x="0" y="35" font-size="10" fill="#777777">VERIFIED HUMANS</text>
    </g>

    <!-- REGISTERED AGENTS -->
    <g transform="translate(530, 100)">
        <text x="0" y="-20" font-size="12" fill="#aaaaaa">AGENTS</text>
        <text x="0" y="15" font-size="28" fill="#00d4ff" font-weight="bold" filter="url(#textGlow)">4,572</text>
        <text x="0" y="35" font-size="10" fill="#777777">REGISTERED DIDs</text>
    </g>

    <!-- TRANSACTIONS -->
    <g transform="translate(730, 100)">
        <text x="0" y="-20" font-size="12" fill="#aaaaaa">TRANSFERS</text>
        <text x="0" y="15" font-size="28" fill="#ffffff" font-weight="bold">32,786</text>
        <text x="0" y="35" font-size="10" fill="#777777">M2M SETTLEMENTS</text>
    </g>
  </g>

  <text x="425" y="185" font-family="'Consolas', 'Fira Code', monospace" font-size="10" fill="#aaaaaa" opacity="0.6" text-anchor="middle">AXIOMID PROJECTED TARGETS (ILLUSTRATIVE): 2026-06-19 21:23:31 UTC // SECURE_HANDSHAKE</text>
</svg>