<svg width="850" height="200" viewBox="0 0 850 200" xmlns="http://www.w3.org/2000/svg">
  <defs>
    <!-- Carbon Fiber Pattern -->
    <pattern id="carbonFiber" width="10" height="10" patternUnits="userSpaceOnUse">
        <rect width="10" height="10" fill="#050505"/>
        <path d="M0,0 L5,5 L10,0 L5,-5 Z M5,5 L10,10 L15,5 L10,0 Z M-5,5 L0,10 L5,5 L0,0 Z M0,10 L5,15 L10,10 L5,5 Z" fill="#0d0d0d"/>
    </pattern>
    <filter id="glassmorphism">
      <feGaussianBlur stdDeviation="3" result="blur" />
      <feColorMatrix type="matrix" values="1 0 0 0 0  0 1 0 0 0  0 0 1 0 0  0 0 0 18 -7" result="glow" />
      <feBlend in="SourceGraphic" in2="glow" mode="normal" />
    </filter>
    <filter id="textGlow">
      <feGaussianBlur stdDeviation="2" result="blur" />
      <feMerge>
        <feMergeNode in="blur"/>
        <feMergeNode in="SourceGraphic"/>
      </feMerge>
    </filter>
    <linearGradient id="neonBar" x1="0%" y1="0%" x2="100%" y2="0%">
        <stop offset="0%" stop-color="#111111"/>
        <stop offset="100%" stop-color="#39FF14"/>
    </linearGradient>
  </defs>

  <rect width="100%" height="100%" fill="url(#carbonFiber)" rx="12" stroke="#39FF14" stroke-width="1" stroke-opacity="0.3"/>
  <rect width="100%" height="100%" fill="#000000" opacity="0.6" rx="12" />
  <g><polygon points="612,-4 620.6,1 620.6,11 612,16 603.4,11 603.4,1" fill="none" stroke="#39FF14" stroke-width="1" opacity="0.059157098014400444"/>
<polygon points="239,170 247.6,175 247.6,185 239,190 230.4,185 230.4,175" fill="none" stroke="#39FF14" stroke-width="1" opacity="0.054103807904713586"/>
<polygon points="128,59 136.6,64 136.6,74 128,79 119.4,74 119.4,64" fill="none" stroke="#39FF14" stroke-width="1" opacity="0.031765092151141386"/>
<polygon points="789,190 797.6,195 797.6,205 789,210 780.4,205 780.4,195" fill="none" stroke="#39FF14" stroke-width="1" opacity="0.056413370080664674"/>
<polygon points="317,0 325.6,5 325.6,15 317,20 308.4,15 308.4,5" fill="none" stroke="#39FF14" stroke-width="1" opacity="0.0547288313132553"/>
<polygon points="421,60 429.6,65 429.6,75 421,80 412.4,75 412.4,65" fill="none" stroke="#39FF14" stroke-width="1" opacity="0.057797052759200856"/>
<polygon points="631,163 639.6,168 639.6,178 631,183 622.4,178 622.4,168" fill="none" stroke="#39FF14" stroke-width="1" opacity="0.03878738553490868"/>
<polygon points="265,79 273.6,84 273.6,94 265,99 256.4,94 256.4,84" fill="none" stroke="#39FF14" stroke-width="1" opacity="0.07677282478217007"/>
<polygon points="522,76 530.6,81 530.6,91 522,96 513.4,91 513.4,81" fill="none" stroke="#39FF14" stroke-width="1" opacity="0.02667988426414801"/>
<polygon points="26,14 34.6,19 34.6,29 26,34 17.4,29 17.4,19" fill="none" stroke="#39FF14" stroke-width="1" opacity="0.02531984579939744"/>
<polygon points="182,172 190.6,177 190.6,187 182,192 173.4,187 173.4,177" fill="none" stroke="#39FF14" stroke-width="1" opacity="0.07216309606657234"/>
<polygon points="743,103 751.6,108 751.6,118 743,123 734.4,118 734.4,108" fill="none" stroke="#39FF14" stroke-width="1" opacity="0.07290617705418763"/>
<polygon points="427,159 435.6,164 435.6,174 427,179 418.4,174 418.4,164" fill="none" stroke="#39FF14" stroke-width="1" opacity="0.06166157168536797"/>
<polygon points="471,1 479.6,6 479.6,16 471,21 462.4,16 462.4,6" fill="none" stroke="#39FF14" stroke-width="1" opacity="0.06208302016766072"/>
<polygon points="158,60 166.6,65 166.6,75 158,80 149.4,75 149.4,65" fill="none" stroke="#39FF14" stroke-width="1" opacity="0.0782368295417147"/>
<polygon points="242,53 250.6,58 250.6,68 242,73 233.4,68 233.4,58" fill="none" stroke="#39FF14" stroke-width="1" opacity="0.02486312963613102"/>
<polygon points="792,40 800.6,45 800.6,55 792,60 783.4,55 783.4,45" fill="none" stroke="#39FF14" stroke-width="1" opacity="0.049611943049561"/>
<polygon points="791,69 799.6,74 799.6,84 791,89 782.4,84 782.4,74" fill="none" stroke="#39FF14" stroke-width="1" opacity="0.06612016174700737"/>
<polygon points="88,7 96.6,12 96.6,22 88,27 79.4,22 79.4,12" fill="none" stroke="#39FF14" stroke-width="1" opacity="0.07098041634215925"/>
<polygon points="637,0 645.6,5 645.6,15 637,20 628.4,15 628.4,5" fill="none" stroke="#39FF14" stroke-width="1" opacity="0.07380519694830978"/>
<polygon points="834,-2 842.6,3 842.6,13 834,18 825.4,13 825.4,3" fill="none" stroke="#39FF14" stroke-width="1" opacity="0.05209664716066434"/>
<polygon points="632,22 640.6,27 640.6,37 632,42 623.4,37 623.4,27" fill="none" stroke="#39FF14" stroke-width="1" opacity="0.06609671882345097"/>
<polygon points="488,33 496.6,38 496.6,48 488,53 479.4,48 479.4,38" fill="none" stroke="#39FF14" stroke-width="1" opacity="0.055924048788544026"/>
<polygon points="632,-3 640.6,2 640.6,12 632,17 623.4,12 623.4,2" fill="none" stroke="#39FF14" stroke-width="1" opacity="0.0581135103231501"/>
<polygon points="663,165 671.6,170 671.6,180 663,185 654.4,180 654.4,170" fill="none" stroke="#39FF14" stroke-width="1" opacity="0.03330020233993558"/>
<polygon points="756,25 764.6,30 764.6,40 756,45 747.4,40 747.4,30" fill="none" stroke="#39FF14" stroke-width="1" opacity="0.0278902675740604"/>
<polygon points="47,73 55.6,78 55.6,88 47,93 38.4,88 38.4,78" fill="none" stroke="#39FF14" stroke-width="1" opacity="0.03562739354269838"/>
<polygon points="423,163 431.6,168 431.6,178 423,183 414.4,178 414.4,168" fill="none" stroke="#39FF14" stroke-width="1" opacity="0.02822700266576294"/>
<polygon points="404,30 412.6,35 412.6,45 404,50 395.4,45 395.4,35" fill="none" stroke="#39FF14" stroke-width="1" opacity="0.03661450579692723"/>
<polygon points="755,26 763.6,31 763.6,41 755,46 746.4,41 746.4,31" fill="none" stroke="#39FF14" stroke-width="1" opacity="0.04473134198131927"/>
</g>

  <!-- HUD Decorative elements -->
  <path d="M 20 20 L 40 20 L 50 30" fill="none" stroke="#39FF14" stroke-width="2" opacity="0.5"/>
  <path d="M 830 180 L 810 180 L 800 170" fill="none" stroke="#39FF14" stroke-width="2" opacity="0.5"/>
  <rect x="20" y="100" width="2" height="40" fill="#ffffff" opacity="0.4"/>
  <rect x="828" y="60" width="2" height="40" fill="#39FF14" opacity="0.6"/>

  <g font-family="'Consolas', 'Fira Code', monospace" text-anchor="middle">

    <!-- SYSTEM STATUS -->
    <g transform="translate(130, 100)">
        <circle cx="0" cy="0" r="45" fill="none" stroke="#111111" stroke-width="8" />
        <circle cx="0" cy="0" r="45" fill="none" stroke="#39FF14" stroke-width="2" stroke-dasharray="10 5">
            <animateTransform attributeName="transform" type="rotate" from="0" to="360" dur="10s" repeatCount="indefinite"/>
        </circle>
        <circle cx="0" cy="0" r="35" fill="#0d0d0d" />
        <circle cx="0" cy="0" r="6" fill="#39FF14" filter="url(#textGlow)">
            <animate attributeName="opacity" values="1;0.3;1" dur="2s" repeatCount="indefinite"/>
        </circle>
        <text x="0" y="-60" font-size="12" fill="#aaaaaa" letter-spacing="2">SYS.CORE</text>
        <text x="0" y="70" font-size="14" fill="#ffffff" font-weight="bold">ONLINE</text>
    </g>

    <!-- LIVE TRAFFIC -->
    <g transform="translate(330, 100)">
        <rect x="-60" y="-45" width="120" height="90" fill="#0a0a0a" rx="8" stroke="#39FF14" stroke-opacity="0.4" stroke-width="1"/>
        <text x="0" y="-20" font-size="12" fill="#aaaaaa">NETWORK LOAD</text>
        <text x="0" y="15" font-size="28" fill="#ffffff" font-weight="bold" filter="url(#textGlow)">6799</text>
        <text x="0" y="35" font-size="10" fill="#777777">ACTIVE SESSIONS</text>
    </g>

    <!-- ACTIVE AGENTS -->
    <g transform="translate(530, 100)">
        <rect x="-60" y="-45" width="120" height="90" fill="#0a0a0a" rx="8" stroke="#39FF14" stroke-opacity="0.4" stroke-width="1"/>
        <text x="0" y="-20" font-size="12" fill="#aaaaaa">SWARM ENTITIES</text>
        <text x="0" y="15" font-size="28" fill="#ffffff" font-weight="bold" filter="url(#textGlow)">113</text>
        <text x="0" y="35" font-size="10" fill="#777777">AUTONOMOUS</text>
    </g>

    <!-- UPTIME -->
    <g transform="translate(730, 100)">
        <path d="M -40 -35 L 40 -35 L 50 -25 L 50 35 L -40 35 L -50 25 Z" fill="#0a0a0a" stroke="#39FF14" stroke-opacity="0.4" stroke-width="1"/>
        <text x="0" y="-15" font-size="12" fill="#aaaaaa">CONTINUITY</text>
        <text x="0" y="15" font-size="24" fill="#ffffff" font-weight="bold">260<tspan font-size="14" fill="#777777">d</tspan></text>
        <rect x="-35" y="25" width="70" height="4" fill="url(#neonBar)" rx="2"/>
    </g>
  </g>

  <text x="425" y="185" font-family="'Consolas', 'Fira Code', monospace" font-size="10" fill="#aaaaaa" opacity="0.6" text-anchor="middle">LAST TELEMETRY PING: 2026-04-29 12:40:30 UTC // ENCRYPTED_TUNNEL</text>
</svg>