<svg width="850" height="200" viewBox="0 0 850 200" xmlns="http://www.w3.org/2000/svg">
  <defs>
    <pattern id="carbonFiber" width="10" height="10" patternUnits="userSpaceOnUse">
        <rect width="10" height="10" fill="#050505"/>
        <path d="M0,0 L5,5 L10,0 L5,-5 Z M5,5 L10,10 L15,5 L10,0 Z M-5,5 L0,10 L5,5 L0,0 Z M0,10 L5,15 L10,10 L5,5 Z" fill="#0d0d0d"/>
    </pattern>
    <filter id="textGlow">
      <feGaussianBlur stdDeviation="2" result="blur" />
      <feMerge>
        <feMergeNode in="blur"/>
        <feMergeNode in="SourceGraphic"/>
      </feMerge>
    </filter>
    <linearGradient id="neonBar" x1="0%" y1="0%" x2="100%" y2="0%">
        <stop offset="0%" stop-color="#111111"/>
        <stop offset="100%" stop-color="#39FF14"/>
    </linearGradient>
    <linearGradient id="scanlineGrad" x1="0%" y1="0%" x2="100%" y2="0%">
        <stop offset="0%" stop-color="#39FF14" stop-opacity="0"/>
        <stop offset="50%" stop-color="#39FF14" stop-opacity="0.18"/>
        <stop offset="100%" stop-color="#39FF14" stop-opacity="0"/>
    </linearGradient>
    <clipPath id="dashClip">
        <rect x="0" y="0" width="850" height="200" rx="12"/>
    </clipPath>
  </defs>

  <rect width="100%" height="100%" fill="url(#carbonFiber)" rx="12" stroke="#39FF14" stroke-width="1" stroke-opacity="0.3"/>
  <rect width="100%" height="100%" fill="#000000" opacity="0.6" rx="12" />
  <g><polygon points="664,27 672.6,32 672.6,42 664,47 655.4,42 655.4,32" fill="none" stroke="#39FF14" stroke-width="1" opacity="0.07536988270814783"/>
<polygon points="409,-2 417.6,3 417.6,13 409,18 400.4,13 400.4,3" fill="none" stroke="#39FF14" stroke-width="1" opacity="0.04874709700922528"/>
<polygon points="723,182 731.6,187 731.6,197 723,202 714.4,197 714.4,187" fill="none" stroke="#39FF14" stroke-width="1" opacity="0.03784888636885945"/>
<polygon points="175,119 183.6,124 183.6,134 175,139 166.4,134 166.4,124" fill="none" stroke="#39FF14" stroke-width="1" opacity="0.03575722241746112"/>
<polygon points="809,44 817.6,49 817.6,59 809,64 800.4,59 800.4,49" fill="none" stroke="#39FF14" stroke-width="1" opacity="0.03551024375761526"/>
<polygon points="463,136 471.6,141 471.6,151 463,156 454.4,151 454.4,141" fill="none" stroke="#39FF14" stroke-width="1" opacity="0.03457805999524687"/>
<polygon points="580,-10 588.6,-5 588.6,5 580,10 571.4,5 571.4,-5" fill="none" stroke="#39FF14" stroke-width="1" opacity="0.020430283075191513"/>
<polygon points="676,84 684.6,89 684.6,99 676,104 667.4,99 667.4,89" fill="none" stroke="#39FF14" stroke-width="1" opacity="0.07073012257778517"/>
<polygon points="80,37 88.6,42 88.6,52 80,57 71.4,52 71.4,42" fill="none" stroke="#39FF14" stroke-width="1" opacity="0.06547543326644045"/>
<polygon points="41,124 49.6,129 49.6,139 41,144 32.4,139 32.4,129" fill="none" stroke="#39FF14" stroke-width="1" opacity="0.061556236817180074"/>
<polygon points="396,55 404.6,60 404.6,70 396,75 387.4,70 387.4,60" fill="none" stroke="#39FF14" stroke-width="1" opacity="0.05179736663474725"/>
<polygon points="26,186 34.6,191 34.6,201 26,206 17.4,201 17.4,191" fill="none" stroke="#39FF14" stroke-width="1" opacity="0.06561497881963264"/>
<polygon points="451,76 459.6,81 459.6,91 451,96 442.4,91 442.4,81" fill="none" stroke="#39FF14" stroke-width="1" opacity="0.05125071450336931"/>
<polygon points="442,157 450.6,162 450.6,172 442,177 433.4,172 433.4,162" fill="none" stroke="#39FF14" stroke-width="1" opacity="0.07689062623652905"/>
<polygon points="430,30 438.6,35 438.6,45 430,50 421.4,45 421.4,35" fill="none" stroke="#39FF14" stroke-width="1" opacity="0.04814390238393773"/>
<polygon points="266,30 274.6,35 274.6,45 266,50 257.4,45 257.4,35" fill="none" stroke="#39FF14" stroke-width="1" opacity="0.041455016936362166"/>
<polygon points="612,88 620.6,93 620.6,103 612,108 603.4,103 603.4,93" fill="none" stroke="#39FF14" stroke-width="1" opacity="0.057966402290916444"/>
<polygon points="123,63 131.6,68 131.6,78 123,83 114.4,78 114.4,68" fill="none" stroke="#39FF14" stroke-width="1" opacity="0.03184271696239157"/>
<polygon points="141,170 149.6,175 149.6,185 141,190 132.4,185 132.4,175" fill="none" stroke="#39FF14" stroke-width="1" opacity="0.04967564272302845"/>
<polygon points="329,171 337.6,176 337.6,186 329,191 320.4,186 320.4,176" fill="none" stroke="#39FF14" stroke-width="1" opacity="0.03085570374528751"/>
<polygon points="690,173 698.6,178 698.6,188 690,193 681.4,188 681.4,178" fill="none" stroke="#39FF14" stroke-width="1" opacity="0.023235469744975007"/>
<polygon points="635,115 643.6,120 643.6,130 635,135 626.4,130 626.4,120" fill="none" stroke="#39FF14" stroke-width="1" opacity="0.05072442636392291"/>
<polygon points="132,130 140.6,135 140.6,145 132,150 123.4,145 123.4,135" fill="none" stroke="#39FF14" stroke-width="1" opacity="0.03244130777932234"/>
<polygon points="61,82 69.6,87 69.6,97 61,102 52.4,97 52.4,87" fill="none" stroke="#39FF14" stroke-width="1" opacity="0.07961406355431752"/>
<polygon points="139,132 147.6,137 147.6,147 139,152 130.4,147 130.4,137" fill="none" stroke="#39FF14" stroke-width="1" opacity="0.040161273054529156"/>
<polygon points="656,99 664.6,104 664.6,114 656,119 647.4,114 647.4,104" fill="none" stroke="#39FF14" stroke-width="1" opacity="0.026323165093844816"/>
<polygon points="48,168 56.6,173 56.6,183 48,188 39.4,183 39.4,173" fill="none" stroke="#39FF14" stroke-width="1" opacity="0.031278738308452174"/>
<polygon points="107,122 115.6,127 115.6,137 107,142 98.4,137 98.4,127" fill="none" stroke="#39FF14" stroke-width="1" opacity="0.031473214168462785"/>
<polygon points="467,-2 475.6,3 475.6,13 467,18 458.4,13 458.4,3" fill="none" stroke="#39FF14" stroke-width="1" opacity="0.025502638586455427"/>
<polygon points="763,160 771.6,165 771.6,175 763,180 754.4,175 754.4,165" fill="none" stroke="#39FF14" stroke-width="1" opacity="0.07789624050889872"/>
</g>

  <!-- HUD Decorative elements -->
  <path d="M 20 20 L 40 20 L 50 30" fill="none" stroke="#39FF14" stroke-width="2" opacity="0.5"/>
  <path d="M 830 180 L 810 180 L 800 170" fill="none" stroke="#39FF14" stroke-width="2" opacity="0.5"/>

  <g clip-path="url(#dashClip)">
    <rect x="-160" y="0" width="160" height="200" fill="url(#scanlineGrad)">
      <animateTransform attributeName="transform" type="translate"
                        from="0 0" to="1010 0" dur="6s" repeatCount="indefinite"/>
    </rect>
  </g>

  <g font-family="'Consolas', 'Fira Code', monospace" text-anchor="middle">

    <!-- NETWORK STATUS -->
    <g transform="translate(130, 100)">
        <circle cx="0" cy="0" r="45" fill="none" stroke="#39FF14" stroke-width="2" stroke-dasharray="10 5">
            <animateTransform attributeName="transform" type="rotate" from="0" to="360" dur="10s" repeatCount="indefinite"/>
        </circle>
        <circle cx="0" cy="0" r="35" fill="#0d0d0d" />
        <text x="0" y="-60" font-size="12" fill="#aaaaaa" letter-spacing="2">ROOT.AUTH</text>
        <text x="0" y="70" font-size="14" fill="#ffffff" font-weight="bold">OPERATIONAL</text>
    </g>

    <!-- ACTIVE USERS -->
    <g transform="translate(330, 100)">
        <text x="0" y="-20" font-size="12" fill="#aaaaaa">CITIZENS</text>
        <text x="0" y="15" font-size="28" fill="#ffffff" font-weight="bold" filter="url(#textGlow)">13,567</text>
        <text x="0" y="35" font-size="10" fill="#777777">VERIFIED HUMANS</text>
    </g>

    <!-- REGISTERED AGENTS -->
    <g transform="translate(530, 100)">
        <text x="0" y="-20" font-size="12" fill="#aaaaaa">AGENTS</text>
        <text x="0" y="15" font-size="28" fill="#00d4ff" font-weight="bold" filter="url(#textGlow)">3,577</text>
        <text x="0" y="35" font-size="10" fill="#777777">REGISTERED DIDs</text>
    </g>

    <!-- TRANSACTIONS -->
    <g transform="translate(730, 100)">
        <text x="0" y="-20" font-size="12" fill="#aaaaaa">TRANSFERS</text>
        <text x="0" y="15" font-size="28" fill="#ffffff" font-weight="bold">33,562</text>
        <text x="0" y="35" font-size="10" fill="#777777">M2M SETTLEMENTS</text>
    </g>
  </g>

  <text x="425" y="185" font-family="'Consolas', 'Fira Code', monospace" font-size="10" fill="#aaaaaa" opacity="0.6" text-anchor="middle">AXIOMID PROJECTED TARGETS (ILLUSTRATIVE): 2026-06-26 07:13:21 UTC // SECURE_HANDSHAKE</text>
</svg>