<svg width="850" height="200" viewBox="0 0 850 200" xmlns="http://www.w3.org/2000/svg">
  <defs>
    <pattern id="carbonFiber" width="10" height="10" patternUnits="userSpaceOnUse">
        <rect width="10" height="10" fill="#050505"/>
        <path d="M0,0 L5,5 L10,0 L5,-5 Z M5,5 L10,10 L15,5 L10,0 Z M-5,5 L0,10 L5,5 L0,0 Z M0,10 L5,15 L10,10 L5,5 Z" fill="#0d0d0d"/>
    </pattern>
    <filter id="textGlow">
      <feGaussianBlur stdDeviation="2" result="blur" />
      <feMerge>
        <feMergeNode in="blur"/>
        <feMergeNode in="SourceGraphic"/>
      </feMerge>
    </filter>
    <linearGradient id="neonBar" x1="0%" y1="0%" x2="100%" y2="0%">
        <stop offset="0%" stop-color="#111111"/>
        <stop offset="100%" stop-color="#39FF14"/>
    </linearGradient>
    <linearGradient id="scanlineGrad" x1="0%" y1="0%" x2="100%" y2="0%">
        <stop offset="0%" stop-color="#39FF14" stop-opacity="0"/>
        <stop offset="50%" stop-color="#39FF14" stop-opacity="0.18"/>
        <stop offset="100%" stop-color="#39FF14" stop-opacity="0"/>
    </linearGradient>
    <clipPath id="dashClip">
        <rect x="0" y="0" width="850" height="200" rx="12"/>
    </clipPath>
  </defs>

  <rect width="100%" height="100%" fill="url(#carbonFiber)" rx="12" stroke="#39FF14" stroke-width="1" stroke-opacity="0.3"/>
  <rect width="100%" height="100%" fill="#000000" opacity="0.6" rx="12" />
  <g><polygon points="181,17 189.6,22 189.6,32 181,37 172.4,32 172.4,22" fill="none" stroke="#39FF14" stroke-width="1" opacity="0.052928384331453096"/>
<polygon points="439,144 447.6,149 447.6,159 439,164 430.4,159 430.4,149" fill="none" stroke="#39FF14" stroke-width="1" opacity="0.054074391039119846"/>
<polygon points="212,32 220.6,37 220.6,47 212,52 203.4,47 203.4,37" fill="none" stroke="#39FF14" stroke-width="1" opacity="0.06811403664275807"/>
<polygon points="215,139 223.6,144 223.6,154 215,159 206.4,154 206.4,144" fill="none" stroke="#39FF14" stroke-width="1" opacity="0.06127014668165923"/>
<polygon points="539,139 547.6,144 547.6,154 539,159 530.4,154 530.4,144" fill="none" stroke="#39FF14" stroke-width="1" opacity="0.031348120232149244"/>
<polygon points="386,55 394.6,60 394.6,70 386,75 377.4,70 377.4,60" fill="none" stroke="#39FF14" stroke-width="1" opacity="0.06250316307780003"/>
<polygon points="3,25 11.6,30 11.6,40 3,45 -5.6,40 -5.6,30" fill="none" stroke="#39FF14" stroke-width="1" opacity="0.04018468741532156"/>
<polygon points="499,40 507.6,45 507.6,55 499,60 490.4,55 490.4,45" fill="none" stroke="#39FF14" stroke-width="1" opacity="0.04806897209646542"/>
<polygon points="284,139 292.6,144 292.6,154 284,159 275.4,154 275.4,144" fill="none" stroke="#39FF14" stroke-width="1" opacity="0.05009003812649472"/>
<polygon points="234,163 242.6,168 242.6,178 234,183 225.4,178 225.4,168" fill="none" stroke="#39FF14" stroke-width="1" opacity="0.0629837713999363"/>
<polygon points="319,41 327.6,46 327.6,56 319,61 310.4,56 310.4,46" fill="none" stroke="#39FF14" stroke-width="1" opacity="0.02808094013845772"/>
<polygon points="291,22 299.6,27 299.6,37 291,42 282.4,37 282.4,27" fill="none" stroke="#39FF14" stroke-width="1" opacity="0.06732083311025021"/>
<polygon points="759,37 767.6,42 767.6,52 759,57 750.4,52 750.4,42" fill="none" stroke="#39FF14" stroke-width="1" opacity="0.031254385075835445"/>
<polygon points="412,169 420.6,174 420.6,184 412,189 403.4,184 403.4,174" fill="none" stroke="#39FF14" stroke-width="1" opacity="0.06771726133669816"/>
<polygon points="115,127 123.6,132 123.6,142 115,147 106.4,142 106.4,132" fill="none" stroke="#39FF14" stroke-width="1" opacity="0.04657212473538305"/>
<polygon points="41,178 49.6,183 49.6,193 41,198 32.4,193 32.4,183" fill="none" stroke="#39FF14" stroke-width="1" opacity="0.06061996201056448"/>
<polygon points="320,10 328.6,15 328.6,25 320,30 311.4,25 311.4,15" fill="none" stroke="#39FF14" stroke-width="1" opacity="0.03863536507924613"/>
<polygon points="67,121 75.6,126 75.6,136 67,141 58.4,136 58.4,126" fill="none" stroke="#39FF14" stroke-width="1" opacity="0.049975751312819214"/>
<polygon points="371,27 379.6,32 379.6,42 371,47 362.4,42 362.4,32" fill="none" stroke="#39FF14" stroke-width="1" opacity="0.06426227624481821"/>
<polygon points="204,127 212.6,132 212.6,142 204,147 195.4,142 195.4,132" fill="none" stroke="#39FF14" stroke-width="1" opacity="0.046961689149724734"/>
<polygon points="391,186 399.6,191 399.6,201 391,206 382.4,201 382.4,191" fill="none" stroke="#39FF14" stroke-width="1" opacity="0.022507942214051332"/>
<polygon points="188,114 196.6,119 196.6,129 188,134 179.4,129 179.4,119" fill="none" stroke="#39FF14" stroke-width="1" opacity="0.07058020773926686"/>
<polygon points="60,62 68.6,67 68.6,77 60,82 51.4,77 51.4,67" fill="none" stroke="#39FF14" stroke-width="1" opacity="0.07635839475130321"/>
<polygon points="295,-7 303.6,-2 303.6,8 295,13 286.4,8 286.4,-2" fill="none" stroke="#39FF14" stroke-width="1" opacity="0.033642222356168996"/>
<polygon points="404,86 412.6,91 412.6,101 404,106 395.4,101 395.4,91" fill="none" stroke="#39FF14" stroke-width="1" opacity="0.06433419204914746"/>
<polygon points="86,136 94.6,141 94.6,151 86,156 77.4,151 77.4,141" fill="none" stroke="#39FF14" stroke-width="1" opacity="0.0722945763863488"/>
<polygon points="543,40 551.6,45 551.6,55 543,60 534.4,55 534.4,45" fill="none" stroke="#39FF14" stroke-width="1" opacity="0.05978107818977216"/>
<polygon points="797,31 805.6,36 805.6,46 797,51 788.4,46 788.4,36" fill="none" stroke="#39FF14" stroke-width="1" opacity="0.059916476350052525"/>
<polygon points="84,77 92.6,82 92.6,92 84,97 75.4,92 75.4,82" fill="none" stroke="#39FF14" stroke-width="1" opacity="0.048369165174291434"/>
<polygon points="159,40 167.6,45 167.6,55 159,60 150.4,55 150.4,45" fill="none" stroke="#39FF14" stroke-width="1" opacity="0.06332941663099896"/>
</g>

  <!-- HUD Decorative elements -->
  <path d="M 20 20 L 40 20 L 50 30" fill="none" stroke="#39FF14" stroke-width="2" opacity="0.5"/>
  <path d="M 830 180 L 810 180 L 800 170" fill="none" stroke="#39FF14" stroke-width="2" opacity="0.5"/>

  <g clip-path="url(#dashClip)">
    <rect x="-160" y="0" width="160" height="200" fill="url(#scanlineGrad)">
      <animateTransform attributeName="transform" type="translate"
                        from="0 0" to="1010 0" dur="6s" repeatCount="indefinite"/>
    </rect>
  </g>

  <g font-family="'Consolas', 'Fira Code', monospace" text-anchor="middle">

    <!-- NETWORK STATUS -->
    <g transform="translate(130, 100)">
        <circle cx="0" cy="0" r="45" fill="none" stroke="#39FF14" stroke-width="2" stroke-dasharray="10 5">
            <animateTransform attributeName="transform" type="rotate" from="0" to="360" dur="10s" repeatCount="indefinite"/>
        </circle>
        <circle cx="0" cy="0" r="35" fill="#0d0d0d" />
        <text x="0" y="-60" font-size="12" fill="#aaaaaa" letter-spacing="2">ROOT.AUTH</text>
        <text x="0" y="70" font-size="14" fill="#ffffff" font-weight="bold">OPERATIONAL</text>
    </g>

    <!-- ACTIVE USERS -->
    <g transform="translate(330, 100)">
        <text x="0" y="-20" font-size="12" fill="#aaaaaa">CITIZENS</text>
        <text x="0" y="15" font-size="28" fill="#ffffff" font-weight="bold" filter="url(#textGlow)">14,207</text>
        <text x="0" y="35" font-size="10" fill="#777777">VERIFIED HUMANS</text>
    </g>

    <!-- REGISTERED AGENTS -->
    <g transform="translate(530, 100)">
        <text x="0" y="-20" font-size="12" fill="#aaaaaa">AGENTS</text>
        <text x="0" y="15" font-size="28" fill="#00d4ff" font-weight="bold" filter="url(#textGlow)">3,525</text>
        <text x="0" y="35" font-size="10" fill="#777777">REGISTERED DIDs</text>
    </g>

    <!-- TRANSACTIONS -->
    <g transform="translate(730, 100)">
        <text x="0" y="-20" font-size="12" fill="#aaaaaa">TRANSFERS</text>
        <text x="0" y="15" font-size="28" fill="#ffffff" font-weight="bold">31,654</text>
        <text x="0" y="35" font-size="10" fill="#777777">M2M SETTLEMENTS</text>
    </g>
  </g>

  <text x="425" y="185" font-family="'Consolas', 'Fira Code', monospace" font-size="10" fill="#aaaaaa" opacity="0.6" text-anchor="middle">AXIOMID PROJECTED TARGETS (ILLUSTRATIVE): 2026-07-25 10:20:14 UTC // SECURE_HANDSHAKE</text>
</svg>