<svg width="850" height="200" viewBox="0 0 850 200" xmlns="http://www.w3.org/2000/svg">
  <defs>
    <pattern id="carbonFiber" width="10" height="10" patternUnits="userSpaceOnUse">
        <rect width="10" height="10" fill="#050505"/>
        <path d="M0,0 L5,5 L10,0 L5,-5 Z M5,5 L10,10 L15,5 L10,0 Z M-5,5 L0,10 L5,5 L0,0 Z M0,10 L5,15 L10,10 L5,5 Z" fill="#0d0d0d"/>
    </pattern>
    <filter id="textGlow">
      <feGaussianBlur stdDeviation="2" result="blur" />
      <feMerge>
        <feMergeNode in="blur"/>
        <feMergeNode in="SourceGraphic"/>
      </feMerge>
    </filter>
    <linearGradient id="neonBar" x1="0%" y1="0%" x2="100%" y2="0%">
        <stop offset="0%" stop-color="#111111"/>
        <stop offset="100%" stop-color="#39FF14"/>
    </linearGradient>
    <linearGradient id="scanlineGrad" x1="0%" y1="0%" x2="100%" y2="0%">
        <stop offset="0%" stop-color="#39FF14" stop-opacity="0"/>
        <stop offset="50%" stop-color="#39FF14" stop-opacity="0.18"/>
        <stop offset="100%" stop-color="#39FF14" stop-opacity="0"/>
    </linearGradient>
    <clipPath id="dashClip">
        <rect x="0" y="0" width="850" height="200" rx="12"/>
    </clipPath>
  </defs>

  <rect width="100%" height="100%" fill="url(#carbonFiber)" rx="12" stroke="#39FF14" stroke-width="1" stroke-opacity="0.3"/>
  <rect width="100%" height="100%" fill="#000000" opacity="0.6" rx="12" />
  <g><polygon points="734,-5 742.6,0 742.6,10 734,15 725.4,10 725.4,0" fill="none" stroke="#39FF14" stroke-width="1" opacity="0.060448751292849615"/>
<polygon points="298,13 306.6,18 306.6,28 298,33 289.4,28 289.4,18" fill="none" stroke="#39FF14" stroke-width="1" opacity="0.034518563573078184"/>
<polygon points="93,-2 101.6,3 101.6,13 93,18 84.4,13 84.4,3" fill="none" stroke="#39FF14" stroke-width="1" opacity="0.06529916805321563"/>
<polygon points="293,178 301.6,183 301.6,193 293,198 284.4,193 284.4,183" fill="none" stroke="#39FF14" stroke-width="1" opacity="0.06749903243879007"/>
<polygon points="353,116 361.6,121 361.6,131 353,136 344.4,131 344.4,121" fill="none" stroke="#39FF14" stroke-width="1" opacity="0.020289071786140454"/>
<polygon points="478,29 486.6,34 486.6,44 478,49 469.4,44 469.4,34" fill="none" stroke="#39FF14" stroke-width="1" opacity="0.029477567844345787"/>
<polygon points="427,56 435.6,61 435.6,71 427,76 418.4,71 418.4,61" fill="none" stroke="#39FF14" stroke-width="1" opacity="0.03224506670533703"/>
<polygon points="510,138 518.6,143 518.6,153 510,158 501.4,153 501.4,143" fill="none" stroke="#39FF14" stroke-width="1" opacity="0.03088007637937186"/>
<polygon points="170,89 178.6,94 178.6,104 170,109 161.4,104 161.4,94" fill="none" stroke="#39FF14" stroke-width="1" opacity="0.04726461754246818"/>
<polygon points="121,32 129.6,37 129.6,47 121,52 112.4,47 112.4,37" fill="none" stroke="#39FF14" stroke-width="1" opacity="0.03114618625662482"/>
<polygon points="495,45 503.6,50 503.6,60 495,65 486.4,60 486.4,50" fill="none" stroke="#39FF14" stroke-width="1" opacity="0.05472819576926907"/>
<polygon points="153,167 161.6,172 161.6,182 153,187 144.4,182 144.4,172" fill="none" stroke="#39FF14" stroke-width="1" opacity="0.02525486855110586"/>
<polygon points="719,144 727.6,149 727.6,159 719,164 710.4,159 710.4,149" fill="none" stroke="#39FF14" stroke-width="1" opacity="0.0384494575853137"/>
<polygon points="747,76 755.6,81 755.6,91 747,96 738.4,91 738.4,81" fill="none" stroke="#39FF14" stroke-width="1" opacity="0.041881063887991586"/>
<polygon points="544,5 552.6,10 552.6,20 544,25 535.4,20 535.4,10" fill="none" stroke="#39FF14" stroke-width="1" opacity="0.03953444620229333"/>
<polygon points="565,-1 573.6,4 573.6,14 565,19 556.4,14 556.4,4" fill="none" stroke="#39FF14" stroke-width="1" opacity="0.0345127364234904"/>
<polygon points="710,82 718.6,87 718.6,97 710,102 701.4,97 701.4,87" fill="none" stroke="#39FF14" stroke-width="1" opacity="0.03142882840530948"/>
<polygon points="542,96 550.6,101 550.6,111 542,116 533.4,111 533.4,101" fill="none" stroke="#39FF14" stroke-width="1" opacity="0.05827611934206903"/>
<polygon points="507,8 515.6,13 515.6,23 507,28 498.4,23 498.4,13" fill="none" stroke="#39FF14" stroke-width="1" opacity="0.07310805275956633"/>
<polygon points="608,129 616.6,134 616.6,144 608,149 599.4,144 599.4,134" fill="none" stroke="#39FF14" stroke-width="1" opacity="0.057924255450185994"/>
<polygon points="396,-5 404.6,0 404.6,10 396,15 387.4,10 387.4,0" fill="none" stroke="#39FF14" stroke-width="1" opacity="0.07510846816169842"/>
<polygon points="219,58 227.6,63 227.6,73 219,78 210.4,73 210.4,63" fill="none" stroke="#39FF14" stroke-width="1" opacity="0.07617353010705442"/>
<polygon points="572,41 580.6,46 580.6,56 572,61 563.4,56 563.4,46" fill="none" stroke="#39FF14" stroke-width="1" opacity="0.06348569351422206"/>
<polygon points="20,63 28.6,68 28.6,78 20,83 11.4,78 11.4,68" fill="none" stroke="#39FF14" stroke-width="1" opacity="0.04772747542657396"/>
<polygon points="333,151 341.6,156 341.6,166 333,171 324.4,166 324.4,156" fill="none" stroke="#39FF14" stroke-width="1" opacity="0.04692963880008045"/>
<polygon points="60,125 68.6,130 68.6,140 60,145 51.4,140 51.4,130" fill="none" stroke="#39FF14" stroke-width="1" opacity="0.06302147678131642"/>
<polygon points="205,87 213.6,92 213.6,102 205,107 196.4,102 196.4,92" fill="none" stroke="#39FF14" stroke-width="1" opacity="0.03434486143977726"/>
<polygon points="337,99 345.6,104 345.6,114 337,119 328.4,114 328.4,104" fill="none" stroke="#39FF14" stroke-width="1" opacity="0.04771178253491543"/>
<polygon points="268,42 276.6,47 276.6,57 268,62 259.4,57 259.4,47" fill="none" stroke="#39FF14" stroke-width="1" opacity="0.05574434517038912"/>
<polygon points="747,98 755.6,103 755.6,113 747,118 738.4,113 738.4,103" fill="none" stroke="#39FF14" stroke-width="1" opacity="0.06417229524502614"/>
</g>

  <!-- HUD Decorative elements -->
  <path d="M 20 20 L 40 20 L 50 30" fill="none" stroke="#39FF14" stroke-width="2" opacity="0.5"/>
  <path d="M 830 180 L 810 180 L 800 170" fill="none" stroke="#39FF14" stroke-width="2" opacity="0.5"/>

  <g clip-path="url(#dashClip)">
    <rect x="-160" y="0" width="160" height="200" fill="url(#scanlineGrad)">
      <animateTransform attributeName="transform" type="translate"
                        from="0 0" to="1010 0" dur="6s" repeatCount="indefinite"/>
    </rect>
  </g>

  <g font-family="'Consolas', 'Fira Code', monospace" text-anchor="middle">

    <!-- NETWORK STATUS -->
    <g transform="translate(130, 100)">
        <circle cx="0" cy="0" r="45" fill="none" stroke="#39FF14" stroke-width="2" stroke-dasharray="10 5">
            <animateTransform attributeName="transform" type="rotate" from="0" to="360" dur="10s" repeatCount="indefinite"/>
        </circle>
        <circle cx="0" cy="0" r="35" fill="#0d0d0d" />
        <text x="0" y="-60" font-size="12" fill="#aaaaaa" letter-spacing="2">ROOT.AUTH</text>
        <text x="0" y="70" font-size="14" fill="#ffffff" font-weight="bold">OPERATIONAL</text>
    </g>

    <!-- ACTIVE USERS -->
    <g transform="translate(330, 100)">
        <text x="0" y="-20" font-size="12" fill="#aaaaaa">CITIZENS</text>
        <text x="0" y="15" font-size="28" fill="#ffffff" font-weight="bold" filter="url(#textGlow)">15,261</text>
        <text x="0" y="35" font-size="10" fill="#777777">VERIFIED HUMANS</text>
    </g>

    <!-- REGISTERED AGENTS -->
    <g transform="translate(530, 100)">
        <text x="0" y="-20" font-size="12" fill="#aaaaaa">AGENTS</text>
        <text x="0" y="15" font-size="28" fill="#00d4ff" font-weight="bold" filter="url(#textGlow)">4,746</text>
        <text x="0" y="35" font-size="10" fill="#777777">REGISTERED DIDs</text>
    </g>

    <!-- TRANSACTIONS -->
    <g transform="translate(730, 100)">
        <text x="0" y="-20" font-size="12" fill="#aaaaaa">TRANSFERS</text>
        <text x="0" y="15" font-size="28" fill="#ffffff" font-weight="bold">28,232</text>
        <text x="0" y="35" font-size="10" fill="#777777">M2M SETTLEMENTS</text>
    </g>
  </g>

  <text x="425" y="185" font-family="'Consolas', 'Fira Code', monospace" font-size="10" fill="#aaaaaa" opacity="0.6" text-anchor="middle">AXIOMID PROJECTED TARGETS (ILLUSTRATIVE): 2026-07-22 01:44:45 UTC // SECURE_HANDSHAKE</text>
</svg>