<svg width="850" height="200" viewBox="0 0 850 200" xmlns="http://www.w3.org/2000/svg">
  <defs>
    <pattern id="carbonFiber" width="10" height="10" patternUnits="userSpaceOnUse">
        <rect width="10" height="10" fill="#050505"/>
        <path d="M0,0 L5,5 L10,0 L5,-5 Z M5,5 L10,10 L15,5 L10,0 Z M-5,5 L0,10 L5,5 L0,0 Z M0,10 L5,15 L10,10 L5,5 Z" fill="#0d0d0d"/>
    </pattern>
    <filter id="textGlow">
      <feGaussianBlur stdDeviation="2" result="blur" />
      <feMerge>
        <feMergeNode in="blur"/>
        <feMergeNode in="SourceGraphic"/>
      </feMerge>
    </filter>
    <linearGradient id="neonBar" x1="0%" y1="0%" x2="100%" y2="0%">
        <stop offset="0%" stop-color="#111111"/>
        <stop offset="100%" stop-color="#39FF14"/>
    </linearGradient>
    <linearGradient id="scanlineGrad" x1="0%" y1="0%" x2="100%" y2="0%">
        <stop offset="0%" stop-color="#39FF14" stop-opacity="0"/>
        <stop offset="50%" stop-color="#39FF14" stop-opacity="0.18"/>
        <stop offset="100%" stop-color="#39FF14" stop-opacity="0"/>
    </linearGradient>
    <clipPath id="dashClip">
        <rect x="0" y="0" width="850" height="200" rx="12"/>
    </clipPath>
  </defs>

  <rect width="100%" height="100%" fill="url(#carbonFiber)" rx="12" stroke="#39FF14" stroke-width="1" stroke-opacity="0.3"/>
  <rect width="100%" height="100%" fill="#000000" opacity="0.6" rx="12" />
  <g><polygon points="129,142 137.6,147 137.6,157 129,162 120.4,157 120.4,147" fill="none" stroke="#39FF14" stroke-width="1" opacity="0.07508426575914666"/>
<polygon points="539,54 547.6,59 547.6,69 539,74 530.4,69 530.4,59" fill="none" stroke="#39FF14" stroke-width="1" opacity="0.0414198242651537"/>
<polygon points="295,40 303.6,45 303.6,55 295,60 286.4,55 286.4,45" fill="none" stroke="#39FF14" stroke-width="1" opacity="0.02804970760093286"/>
<polygon points="53,15 61.6,20 61.6,30 53,35 44.4,30 44.4,20" fill="none" stroke="#39FF14" stroke-width="1" opacity="0.022659996158881163"/>
<polygon points="528,149 536.6,154 536.6,164 528,169 519.4,164 519.4,154" fill="none" stroke="#39FF14" stroke-width="1" opacity="0.05846966483919816"/>
<polygon points="158,46 166.6,51 166.6,61 158,66 149.4,61 149.4,51" fill="none" stroke="#39FF14" stroke-width="1" opacity="0.05378483887782108"/>
<polygon points="362,3 370.6,8 370.6,18 362,23 353.4,18 353.4,8" fill="none" stroke="#39FF14" stroke-width="1" opacity="0.042155056600046495"/>
<polygon points="344,40 352.6,45 352.6,55 344,60 335.4,55 335.4,45" fill="none" stroke="#39FF14" stroke-width="1" opacity="0.0210963501325306"/>
<polygon points="38,105 46.6,110 46.6,120 38,125 29.4,120 29.4,110" fill="none" stroke="#39FF14" stroke-width="1" opacity="0.021978691495831697"/>
<polygon points="601,117 609.6,122 609.6,132 601,137 592.4,132 592.4,122" fill="none" stroke="#39FF14" stroke-width="1" opacity="0.06866260208535711"/>
<polygon points="296,123 304.6,128 304.6,138 296,143 287.4,138 287.4,128" fill="none" stroke="#39FF14" stroke-width="1" opacity="0.059266164259664855"/>
<polygon points="513,136 521.6,141 521.6,151 513,156 504.4,151 504.4,141" fill="none" stroke="#39FF14" stroke-width="1" opacity="0.05451860234909013"/>
<polygon points="356,1 364.6,6 364.6,16 356,21 347.4,16 347.4,6" fill="none" stroke="#39FF14" stroke-width="1" opacity="0.07999189618026217"/>
<polygon points="840,92 848.6,97 848.6,107 840,112 831.4,107 831.4,97" fill="none" stroke="#39FF14" stroke-width="1" opacity="0.07104338312331183"/>
<polygon points="228,149 236.6,154 236.6,164 228,169 219.4,164 219.4,154" fill="none" stroke="#39FF14" stroke-width="1" opacity="0.06239445274939405"/>
<polygon points="205,2 213.6,7 213.6,17 205,22 196.4,17 196.4,7" fill="none" stroke="#39FF14" stroke-width="1" opacity="0.0425621228256665"/>
<polygon points="49,6 57.6,11 57.6,21 49,26 40.4,21 40.4,11" fill="none" stroke="#39FF14" stroke-width="1" opacity="0.06269714879578764"/>
<polygon points="218,1 226.6,6 226.6,16 218,21 209.4,16 209.4,6" fill="none" stroke="#39FF14" stroke-width="1" opacity="0.03860684998805713"/>
<polygon points="180,45 188.6,50 188.6,60 180,65 171.4,60 171.4,50" fill="none" stroke="#39FF14" stroke-width="1" opacity="0.023970601152172925"/>
<polygon points="563,185 571.6,190 571.6,200 563,205 554.4,200 554.4,190" fill="none" stroke="#39FF14" stroke-width="1" opacity="0.059067090584018475"/>
<polygon points="268,114 276.6,119 276.6,129 268,134 259.4,129 259.4,119" fill="none" stroke="#39FF14" stroke-width="1" opacity="0.07585842794196368"/>
<polygon points="836,183 844.6,188 844.6,198 836,203 827.4,198 827.4,188" fill="none" stroke="#39FF14" stroke-width="1" opacity="0.07630283129174024"/>
<polygon points="243,62 251.6,67 251.6,77 243,82 234.4,77 234.4,67" fill="none" stroke="#39FF14" stroke-width="1" opacity="0.06201427909279038"/>
<polygon points="577,47 585.6,52 585.6,62 577,67 568.4,62 568.4,52" fill="none" stroke="#39FF14" stroke-width="1" opacity="0.06451332004018559"/>
<polygon points="629,16 637.6,21 637.6,31 629,36 620.4,31 620.4,21" fill="none" stroke="#39FF14" stroke-width="1" opacity="0.06070606259111633"/>
<polygon points="386,73 394.6,78 394.6,88 386,93 377.4,88 377.4,78" fill="none" stroke="#39FF14" stroke-width="1" opacity="0.049376816324039195"/>
<polygon points="751,31 759.6,36 759.6,46 751,51 742.4,46 742.4,36" fill="none" stroke="#39FF14" stroke-width="1" opacity="0.03385995898998485"/>
<polygon points="739,138 747.6,143 747.6,153 739,158 730.4,153 730.4,143" fill="none" stroke="#39FF14" stroke-width="1" opacity="0.024208377963295617"/>
<polygon points="817,65 825.6,70 825.6,80 817,85 808.4,80 808.4,70" fill="none" stroke="#39FF14" stroke-width="1" opacity="0.037107480057686236"/>
<polygon points="294,93 302.6,98 302.6,108 294,113 285.4,108 285.4,98" fill="none" stroke="#39FF14" stroke-width="1" opacity="0.03660334702440611"/>
</g>

  <!-- HUD Decorative elements -->
  <path d="M 20 20 L 40 20 L 50 30" fill="none" stroke="#39FF14" stroke-width="2" opacity="0.5"/>
  <path d="M 830 180 L 810 180 L 800 170" fill="none" stroke="#39FF14" stroke-width="2" opacity="0.5"/>

  <g clip-path="url(#dashClip)">
    <rect x="-160" y="0" width="160" height="200" fill="url(#scanlineGrad)">
      <animateTransform attributeName="transform" type="translate"
                        from="0 0" to="1010 0" dur="6s" repeatCount="indefinite"/>
    </rect>
  </g>

  <g font-family="'Consolas', 'Fira Code', monospace" text-anchor="middle">

    <!-- NETWORK STATUS -->
    <g transform="translate(130, 100)">
        <circle cx="0" cy="0" r="45" fill="none" stroke="#39FF14" stroke-width="2" stroke-dasharray="10 5">
            <animateTransform attributeName="transform" type="rotate" from="0" to="360" dur="10s" repeatCount="indefinite"/>
        </circle>
        <circle cx="0" cy="0" r="35" fill="#0d0d0d" />
        <text x="0" y="-60" font-size="12" fill="#aaaaaa" letter-spacing="2">ROOT.AUTH</text>
        <text x="0" y="70" font-size="14" fill="#ffffff" font-weight="bold">OPERATIONAL</text>
    </g>

    <!-- ACTIVE USERS -->
    <g transform="translate(330, 100)">
        <text x="0" y="-20" font-size="12" fill="#aaaaaa">CITIZENS</text>
        <text x="0" y="15" font-size="28" fill="#ffffff" font-weight="bold" filter="url(#textGlow)">12,710</text>
        <text x="0" y="35" font-size="10" fill="#777777">VERIFIED HUMANS</text>
    </g>

    <!-- REGISTERED AGENTS -->
    <g transform="translate(530, 100)">
        <text x="0" y="-20" font-size="12" fill="#aaaaaa">AGENTS</text>
        <text x="0" y="15" font-size="28" fill="#00d4ff" font-weight="bold" filter="url(#textGlow)">3,286</text>
        <text x="0" y="35" font-size="10" fill="#777777">REGISTERED DIDs</text>
    </g>

    <!-- TRANSACTIONS -->
    <g transform="translate(730, 100)">
        <text x="0" y="-20" font-size="12" fill="#aaaaaa">TRANSFERS</text>
        <text x="0" y="15" font-size="28" fill="#ffffff" font-weight="bold">35,794</text>
        <text x="0" y="35" font-size="10" fill="#777777">M2M SETTLEMENTS</text>
    </g>
  </g>

  <text x="425" y="185" font-family="'Consolas', 'Fira Code', monospace" font-size="10" fill="#aaaaaa" opacity="0.6" text-anchor="middle">AXIOMID PROJECTED TARGETS (ILLUSTRATIVE): 2026-06-20 18:26:47 UTC // SECURE_HANDSHAKE</text>
</svg>