<svg width="850" height="200" viewBox="0 0 850 200" xmlns="http://www.w3.org/2000/svg">
  <defs>
    <pattern id="carbonFiber" width="10" height="10" patternUnits="userSpaceOnUse">
        <rect width="10" height="10" fill="#050505"/>
        <path d="M0,0 L5,5 L10,0 L5,-5 Z M5,5 L10,10 L15,5 L10,0 Z M-5,5 L0,10 L5,5 L0,0 Z M0,10 L5,15 L10,10 L5,5 Z" fill="#0d0d0d"/>
    </pattern>
    <filter id="textGlow">
      <feGaussianBlur stdDeviation="2" result="blur" />
      <feMerge>
        <feMergeNode in="blur"/>
        <feMergeNode in="SourceGraphic"/>
      </feMerge>
    </filter>
    <linearGradient id="neonBar" x1="0%" y1="0%" x2="100%" y2="0%">
        <stop offset="0%" stop-color="#111111"/>
        <stop offset="100%" stop-color="#39FF14"/>
    </linearGradient>
    <linearGradient id="scanlineGrad" x1="0%" y1="0%" x2="100%" y2="0%">
        <stop offset="0%" stop-color="#39FF14" stop-opacity="0"/>
        <stop offset="50%" stop-color="#39FF14" stop-opacity="0.18"/>
        <stop offset="100%" stop-color="#39FF14" stop-opacity="0"/>
    </linearGradient>
    <clipPath id="dashClip">
        <rect x="0" y="0" width="850" height="200" rx="12"/>
    </clipPath>
  </defs>

  <rect width="100%" height="100%" fill="url(#carbonFiber)" rx="12" stroke="#39FF14" stroke-width="1" stroke-opacity="0.3"/>
  <rect width="100%" height="100%" fill="#000000" opacity="0.6" rx="12" />
  <g><polygon points="532,82 540.6,87 540.6,97 532,102 523.4,97 523.4,87" fill="none" stroke="#39FF14" stroke-width="1" opacity="0.031108848813163812"/>
<polygon points="615,173 623.6,178 623.6,188 615,193 606.4,188 606.4,178" fill="none" stroke="#39FF14" stroke-width="1" opacity="0.06166335036608436"/>
<polygon points="586,107 594.6,112 594.6,122 586,127 577.4,122 577.4,112" fill="none" stroke="#39FF14" stroke-width="1" opacity="0.057409232825023235"/>
<polygon points="207,162 215.6,167 215.6,177 207,182 198.4,177 198.4,167" fill="none" stroke="#39FF14" stroke-width="1" opacity="0.024404040496366634"/>
<polygon points="356,111 364.6,116 364.6,126 356,131 347.4,126 347.4,116" fill="none" stroke="#39FF14" stroke-width="1" opacity="0.024461716464582676"/>
<polygon points="818,30 826.6,35 826.6,45 818,50 809.4,45 809.4,35" fill="none" stroke="#39FF14" stroke-width="1" opacity="0.057917167753002236"/>
<polygon points="789,139 797.6,144 797.6,154 789,159 780.4,154 780.4,144" fill="none" stroke="#39FF14" stroke-width="1" opacity="0.06252745072697984"/>
<polygon points="721,108 729.6,113 729.6,123 721,128 712.4,123 712.4,113" fill="none" stroke="#39FF14" stroke-width="1" opacity="0.06088416334509353"/>
<polygon points="645,2 653.6,7 653.6,17 645,22 636.4,17 636.4,7" fill="none" stroke="#39FF14" stroke-width="1" opacity="0.026114090190776634"/>
<polygon points="471,116 479.6,121 479.6,131 471,136 462.4,131 462.4,121" fill="none" stroke="#39FF14" stroke-width="1" opacity="0.0246947618833654"/>
<polygon points="165,77 173.6,82 173.6,92 165,97 156.4,92 156.4,82" fill="none" stroke="#39FF14" stroke-width="1" opacity="0.020565141587039357"/>
<polygon points="308,75 316.6,80 316.6,90 308,95 299.4,90 299.4,80" fill="none" stroke="#39FF14" stroke-width="1" opacity="0.047003092647749004"/>
<polygon points="295,156 303.6,161 303.6,171 295,176 286.4,171 286.4,161" fill="none" stroke="#39FF14" stroke-width="1" opacity="0.039046467467819194"/>
<polygon points="728,83 736.6,88 736.6,98 728,103 719.4,98 719.4,88" fill="none" stroke="#39FF14" stroke-width="1" opacity="0.053011602261499466"/>
<polygon points="656,190 664.6,195 664.6,205 656,210 647.4,205 647.4,195" fill="none" stroke="#39FF14" stroke-width="1" opacity="0.0769501630585217"/>
<polygon points="391,-4 399.6,1 399.6,11 391,16 382.4,11 382.4,1" fill="none" stroke="#39FF14" stroke-width="1" opacity="0.04261042850585371"/>
<polygon points="67,170 75.6,175 75.6,185 67,190 58.4,185 58.4,175" fill="none" stroke="#39FF14" stroke-width="1" opacity="0.07801216095834647"/>
<polygon points="723,54 731.6,59 731.6,69 723,74 714.4,69 714.4,59" fill="none" stroke="#39FF14" stroke-width="1" opacity="0.06928474460124218"/>
<polygon points="834,63 842.6,68 842.6,78 834,83 825.4,78 825.4,68" fill="none" stroke="#39FF14" stroke-width="1" opacity="0.028509294505591525"/>
<polygon points="212,1 220.6,6 220.6,16 212,21 203.4,16 203.4,6" fill="none" stroke="#39FF14" stroke-width="1" opacity="0.02667935462336152"/>
<polygon points="154,98 162.6,103 162.6,113 154,118 145.4,113 145.4,103" fill="none" stroke="#39FF14" stroke-width="1" opacity="0.034942877611915835"/>
<polygon points="572,133 580.6,138 580.6,148 572,153 563.4,148 563.4,138" fill="none" stroke="#39FF14" stroke-width="1" opacity="0.04368388738843207"/>
<polygon points="167,175 175.6,180 175.6,190 167,195 158.4,190 158.4,180" fill="none" stroke="#39FF14" stroke-width="1" opacity="0.05639474675739366"/>
<polygon points="328,45 336.6,50 336.6,60 328,65 319.4,60 319.4,50" fill="none" stroke="#39FF14" stroke-width="1" opacity="0.07125527444535444"/>
<polygon points="816,158 824.6,163 824.6,173 816,178 807.4,173 807.4,163" fill="none" stroke="#39FF14" stroke-width="1" opacity="0.04174033033970053"/>
<polygon points="134,120 142.6,125 142.6,135 134,140 125.4,135 125.4,125" fill="none" stroke="#39FF14" stroke-width="1" opacity="0.052100015637665156"/>
<polygon points="203,140 211.6,145 211.6,155 203,160 194.4,155 194.4,145" fill="none" stroke="#39FF14" stroke-width="1" opacity="0.07157260609060485"/>
<polygon points="685,163 693.6,168 693.6,178 685,183 676.4,178 676.4,168" fill="none" stroke="#39FF14" stroke-width="1" opacity="0.05453983572697568"/>
<polygon points="335,8 343.6,13 343.6,23 335,28 326.4,23 326.4,13" fill="none" stroke="#39FF14" stroke-width="1" opacity="0.049725893962490476"/>
<polygon points="457,68 465.6,73 465.6,83 457,88 448.4,83 448.4,73" fill="none" stroke="#39FF14" stroke-width="1" opacity="0.03252965686261788"/>
</g>

  <!-- HUD Decorative elements -->
  <path d="M 20 20 L 40 20 L 50 30" fill="none" stroke="#39FF14" stroke-width="2" opacity="0.5"/>
  <path d="M 830 180 L 810 180 L 800 170" fill="none" stroke="#39FF14" stroke-width="2" opacity="0.5"/>

  <g clip-path="url(#dashClip)">
    <rect x="-160" y="0" width="160" height="200" fill="url(#scanlineGrad)">
      <animateTransform attributeName="transform" type="translate"
                        from="0 0" to="1010 0" dur="6s" repeatCount="indefinite"/>
    </rect>
  </g>

  <g font-family="'Consolas', 'Fira Code', monospace" text-anchor="middle">

    <!-- NETWORK STATUS -->
    <g transform="translate(130, 100)">
        <circle cx="0" cy="0" r="45" fill="none" stroke="#39FF14" stroke-width="2" stroke-dasharray="10 5">
            <animateTransform attributeName="transform" type="rotate" from="0" to="360" dur="10s" repeatCount="indefinite"/>
        </circle>
        <circle cx="0" cy="0" r="35" fill="#0d0d0d" />
        <text x="0" y="-60" font-size="12" fill="#aaaaaa" letter-spacing="2">ROOT.AUTH</text>
        <text x="0" y="70" font-size="14" fill="#ffffff" font-weight="bold">OPERATIONAL</text>
    </g>

    <!-- ACTIVE USERS -->
    <g transform="translate(330, 100)">
        <text x="0" y="-20" font-size="12" fill="#aaaaaa">CITIZENS</text>
        <text x="0" y="15" font-size="28" fill="#ffffff" font-weight="bold" filter="url(#textGlow)">13,067</text>
        <text x="0" y="35" font-size="10" fill="#777777">VERIFIED HUMANS</text>
    </g>

    <!-- REGISTERED AGENTS -->
    <g transform="translate(530, 100)">
        <text x="0" y="-20" font-size="12" fill="#aaaaaa">AGENTS</text>
        <text x="0" y="15" font-size="28" fill="#00d4ff" font-weight="bold" filter="url(#textGlow)">4,202</text>
        <text x="0" y="35" font-size="10" fill="#777777">REGISTERED DIDs</text>
    </g>

    <!-- TRANSACTIONS -->
    <g transform="translate(730, 100)">
        <text x="0" y="-20" font-size="12" fill="#aaaaaa">TRANSFERS</text>
        <text x="0" y="15" font-size="28" fill="#ffffff" font-weight="bold">27,743</text>
        <text x="0" y="35" font-size="10" fill="#777777">M2M SETTLEMENTS</text>
    </g>
  </g>

  <text x="425" y="185" font-family="'Consolas', 'Fira Code', monospace" font-size="10" fill="#aaaaaa" opacity="0.6" text-anchor="middle">AXIOMID PROJECTED TARGETS (ILLUSTRATIVE): 2026-07-18 10:09:19 UTC // SECURE_HANDSHAKE</text>
</svg>