<svg width="850" height="200" viewBox="0 0 850 200" xmlns="http://www.w3.org/2000/svg">
  <defs>
    <pattern id="carbonFiber" width="10" height="10" patternUnits="userSpaceOnUse">
        <rect width="10" height="10" fill="#050505"/>
        <path d="M0,0 L5,5 L10,0 L5,-5 Z M5,5 L10,10 L15,5 L10,0 Z M-5,5 L0,10 L5,5 L0,0 Z M0,10 L5,15 L10,10 L5,5 Z" fill="#0d0d0d"/>
    </pattern>
    <filter id="textGlow">
      <feGaussianBlur stdDeviation="2" result="blur" />
      <feMerge>
        <feMergeNode in="blur"/>
        <feMergeNode in="SourceGraphic"/>
      </feMerge>
    </filter>
    <linearGradient id="neonBar" x1="0%" y1="0%" x2="100%" y2="0%">
        <stop offset="0%" stop-color="#111111"/>
        <stop offset="100%" stop-color="#39FF14"/>
    </linearGradient>
    <linearGradient id="scanlineGrad" x1="0%" y1="0%" x2="100%" y2="0%">
        <stop offset="0%" stop-color="#39FF14" stop-opacity="0"/>
        <stop offset="50%" stop-color="#39FF14" stop-opacity="0.18"/>
        <stop offset="100%" stop-color="#39FF14" stop-opacity="0"/>
    </linearGradient>
    <clipPath id="dashClip">
        <rect x="0" y="0" width="850" height="200" rx="12"/>
    </clipPath>
  </defs>

  <rect width="100%" height="100%" fill="url(#carbonFiber)" rx="12" stroke="#39FF14" stroke-width="1" stroke-opacity="0.3"/>
  <rect width="100%" height="100%" fill="#000000" opacity="0.6" rx="12" />
  <g><polygon points="727,-1 735.6,4 735.6,14 727,19 718.4,14 718.4,4" fill="none" stroke="#39FF14" stroke-width="1" opacity="0.07409548394030087"/>
<polygon points="278,83 286.6,88 286.6,98 278,103 269.4,98 269.4,88" fill="none" stroke="#39FF14" stroke-width="1" opacity="0.0795092927067352"/>
<polygon points="629,39 637.6,44 637.6,54 629,59 620.4,54 620.4,44" fill="none" stroke="#39FF14" stroke-width="1" opacity="0.04286517429396962"/>
<polygon points="662,186 670.6,191 670.6,201 662,206 653.4,201 653.4,191" fill="none" stroke="#39FF14" stroke-width="1" opacity="0.051716616266426624"/>
<polygon points="318,165 326.6,170 326.6,180 318,185 309.4,180 309.4,170" fill="none" stroke="#39FF14" stroke-width="1" opacity="0.04874035630787393"/>
<polygon points="760,124 768.6,129 768.6,139 760,144 751.4,139 751.4,129" fill="none" stroke="#39FF14" stroke-width="1" opacity="0.072675343082007"/>
<polygon points="695,139 703.6,144 703.6,154 695,159 686.4,154 686.4,144" fill="none" stroke="#39FF14" stroke-width="1" opacity="0.06888988738316094"/>
<polygon points="166,7 174.6,12 174.6,22 166,27 157.4,22 157.4,12" fill="none" stroke="#39FF14" stroke-width="1" opacity="0.030074251339587972"/>
<polygon points="778,141 786.6,146 786.6,156 778,161 769.4,156 769.4,146" fill="none" stroke="#39FF14" stroke-width="1" opacity="0.07690426999568681"/>
<polygon points="633,79 641.6,84 641.6,94 633,99 624.4,94 624.4,84" fill="none" stroke="#39FF14" stroke-width="1" opacity="0.038376174905574184"/>
<polygon points="105,66 113.6,71 113.6,81 105,86 96.4,81 96.4,71" fill="none" stroke="#39FF14" stroke-width="1" opacity="0.06772259090990902"/>
<polygon points="324,90 332.6,95 332.6,105 324,110 315.4,105 315.4,95" fill="none" stroke="#39FF14" stroke-width="1" opacity="0.04808714497536306"/>
<polygon points="355,21 363.6,26 363.6,36 355,41 346.4,36 346.4,26" fill="none" stroke="#39FF14" stroke-width="1" opacity="0.03743359525817768"/>
<polygon points="607,46 615.6,51 615.6,61 607,66 598.4,61 598.4,51" fill="none" stroke="#39FF14" stroke-width="1" opacity="0.058502798968632905"/>
<polygon points="399,28 407.6,33 407.6,43 399,48 390.4,43 390.4,33" fill="none" stroke="#39FF14" stroke-width="1" opacity="0.03903901862191279"/>
<polygon points="718,143 726.6,148 726.6,158 718,163 709.4,158 709.4,148" fill="none" stroke="#39FF14" stroke-width="1" opacity="0.04439538158572627"/>
<polygon points="401,-4 409.6,1 409.6,11 401,16 392.4,11 392.4,1" fill="none" stroke="#39FF14" stroke-width="1" opacity="0.04313299596543552"/>
<polygon points="712,148 720.6,153 720.6,163 712,168 703.4,163 703.4,153" fill="none" stroke="#39FF14" stroke-width="1" opacity="0.03657853408752382"/>
<polygon points="168,21 176.6,26 176.6,36 168,41 159.4,36 159.4,26" fill="none" stroke="#39FF14" stroke-width="1" opacity="0.0228292782136324"/>
<polygon points="192,113 200.6,118 200.6,128 192,133 183.4,128 183.4,118" fill="none" stroke="#39FF14" stroke-width="1" opacity="0.03027491282223895"/>
<polygon points="714,129 722.6,134 722.6,144 714,149 705.4,144 705.4,134" fill="none" stroke="#39FF14" stroke-width="1" opacity="0.07463633261762181"/>
<polygon points="630,149 638.6,154 638.6,164 630,169 621.4,164 621.4,154" fill="none" stroke="#39FF14" stroke-width="1" opacity="0.05242981305668787"/>
<polygon points="379,-6 387.6,-1 387.6,9 379,14 370.4,9 370.4,-1" fill="none" stroke="#39FF14" stroke-width="1" opacity="0.07222494558463909"/>
<polygon points="600,156 608.6,161 608.6,171 600,176 591.4,171 591.4,161" fill="none" stroke="#39FF14" stroke-width="1" opacity="0.04660422238634051"/>
<polygon points="71,157 79.6,162 79.6,172 71,177 62.4,172 62.4,162" fill="none" stroke="#39FF14" stroke-width="1" opacity="0.023072780082833033"/>
<polygon points="430,85 438.6,90 438.6,100 430,105 421.4,100 421.4,90" fill="none" stroke="#39FF14" stroke-width="1" opacity="0.04430331210157691"/>
<polygon points="565,160 573.6,165 573.6,175 565,180 556.4,175 556.4,165" fill="none" stroke="#39FF14" stroke-width="1" opacity="0.037966479762638686"/>
<polygon points="24,88 32.6,93 32.6,103 24,108 15.4,103 15.4,93" fill="none" stroke="#39FF14" stroke-width="1" opacity="0.03484159281759339"/>
<polygon points="744,64 752.6,69 752.6,79 744,84 735.4,79 735.4,69" fill="none" stroke="#39FF14" stroke-width="1" opacity="0.06272558711723981"/>
<polygon points="710,92 718.6,97 718.6,107 710,112 701.4,107 701.4,97" fill="none" stroke="#39FF14" stroke-width="1" opacity="0.0740304539694675"/>
</g>

  <!-- HUD Decorative elements -->
  <path d="M 20 20 L 40 20 L 50 30" fill="none" stroke="#39FF14" stroke-width="2" opacity="0.5"/>
  <path d="M 830 180 L 810 180 L 800 170" fill="none" stroke="#39FF14" stroke-width="2" opacity="0.5"/>

  <g clip-path="url(#dashClip)">
    <rect x="-160" y="0" width="160" height="200" fill="url(#scanlineGrad)">
      <animateTransform attributeName="transform" type="translate"
                        from="0 0" to="1010 0" dur="6s" repeatCount="indefinite"/>
    </rect>
  </g>

  <g font-family="'Consolas', 'Fira Code', monospace" text-anchor="middle">

    <!-- NETWORK STATUS -->
    <g transform="translate(130, 100)">
        <circle cx="0" cy="0" r="45" fill="none" stroke="#39FF14" stroke-width="2" stroke-dasharray="10 5">
            <animateTransform attributeName="transform" type="rotate" from="0" to="360" dur="10s" repeatCount="indefinite"/>
        </circle>
        <circle cx="0" cy="0" r="35" fill="#0d0d0d" />
        <text x="0" y="-60" font-size="12" fill="#aaaaaa" letter-spacing="2">ROOT.AUTH</text>
        <text x="0" y="70" font-size="14" fill="#ffffff" font-weight="bold">OPERATIONAL</text>
    </g>

    <!-- ACTIVE USERS -->
    <g transform="translate(330, 100)">
        <text x="0" y="-20" font-size="12" fill="#aaaaaa">CITIZENS</text>
        <text x="0" y="15" font-size="28" fill="#ffffff" font-weight="bold" filter="url(#textGlow)">14,697</text>
        <text x="0" y="35" font-size="10" fill="#777777">VERIFIED HUMANS</text>
    </g>

    <!-- REGISTERED AGENTS -->
    <g transform="translate(530, 100)">
        <text x="0" y="-20" font-size="12" fill="#aaaaaa">AGENTS</text>
        <text x="0" y="15" font-size="28" fill="#00d4ff" font-weight="bold" filter="url(#textGlow)">3,576</text>
        <text x="0" y="35" font-size="10" fill="#777777">REGISTERED DIDs</text>
    </g>

    <!-- TRANSACTIONS -->
    <g transform="translate(730, 100)">
        <text x="0" y="-20" font-size="12" fill="#aaaaaa">TRANSFERS</text>
        <text x="0" y="15" font-size="28" fill="#ffffff" font-weight="bold">27,234</text>
        <text x="0" y="35" font-size="10" fill="#777777">M2M SETTLEMENTS</text>
    </g>
  </g>

  <text x="425" y="185" font-family="'Consolas', 'Fira Code', monospace" font-size="10" fill="#aaaaaa" opacity="0.6" text-anchor="middle">AXIOMID PROJECTED TARGETS (ILLUSTRATIVE): 2026-07-16 21:55:43 UTC // SECURE_HANDSHAKE</text>
</svg>