<svg width="850" height="200" viewBox="0 0 850 200" xmlns="http://www.w3.org/2000/svg">
  <defs>
    <pattern id="carbonFiber" width="10" height="10" patternUnits="userSpaceOnUse">
        <rect width="10" height="10" fill="#050505"/>
        <path d="M0,0 L5,5 L10,0 L5,-5 Z M5,5 L10,10 L15,5 L10,0 Z M-5,5 L0,10 L5,5 L0,0 Z M0,10 L5,15 L10,10 L5,5 Z" fill="#0d0d0d"/>
    </pattern>
    <filter id="textGlow">
      <feGaussianBlur stdDeviation="2" result="blur" />
      <feMerge>
        <feMergeNode in="blur"/>
        <feMergeNode in="SourceGraphic"/>
      </feMerge>
    </filter>
    <linearGradient id="neonBar" x1="0%" y1="0%" x2="100%" y2="0%">
        <stop offset="0%" stop-color="#111111"/>
        <stop offset="100%" stop-color="#39FF14"/>
    </linearGradient>
    <linearGradient id="scanlineGrad" x1="0%" y1="0%" x2="100%" y2="0%">
        <stop offset="0%" stop-color="#39FF14" stop-opacity="0"/>
        <stop offset="50%" stop-color="#39FF14" stop-opacity="0.18"/>
        <stop offset="100%" stop-color="#39FF14" stop-opacity="0"/>
    </linearGradient>
    <clipPath id="dashClip">
        <rect x="0" y="0" width="850" height="200" rx="12"/>
    </clipPath>
  </defs>

  <rect width="100%" height="100%" fill="url(#carbonFiber)" rx="12" stroke="#39FF14" stroke-width="1" stroke-opacity="0.3"/>
  <rect width="100%" height="100%" fill="#000000" opacity="0.6" rx="12" />
  <g><polygon points="843,177 851.6,182 851.6,192 843,197 834.4,192 834.4,182" fill="none" stroke="#39FF14" stroke-width="1" opacity="0.058424275230746475"/>
<polygon points="366,175 374.6,180 374.6,190 366,195 357.4,190 357.4,180" fill="none" stroke="#39FF14" stroke-width="1" opacity="0.03135715927992279"/>
<polygon points="162,94 170.6,99 170.6,109 162,114 153.4,109 153.4,99" fill="none" stroke="#39FF14" stroke-width="1" opacity="0.07280447086450909"/>
<polygon points="715,61 723.6,66 723.6,76 715,81 706.4,76 706.4,66" fill="none" stroke="#39FF14" stroke-width="1" opacity="0.07319451702153368"/>
<polygon points="727,118 735.6,123 735.6,133 727,138 718.4,133 718.4,123" fill="none" stroke="#39FF14" stroke-width="1" opacity="0.05031384686389079"/>
<polygon points="658,107 666.6,112 666.6,122 658,127 649.4,122 649.4,112" fill="none" stroke="#39FF14" stroke-width="1" opacity="0.04859034902730429"/>
<polygon points="24,11 32.6,16 32.6,26 24,31 15.4,26 15.4,16" fill="none" stroke="#39FF14" stroke-width="1" opacity="0.06288293831252012"/>
<polygon points="806,87 814.6,92 814.6,102 806,107 797.4,102 797.4,92" fill="none" stroke="#39FF14" stroke-width="1" opacity="0.04501431172180953"/>
<polygon points="395,186 403.6,191 403.6,201 395,206 386.4,201 386.4,191" fill="none" stroke="#39FF14" stroke-width="1" opacity="0.03594002962765006"/>
<polygon points="136,45 144.6,50 144.6,60 136,65 127.4,60 127.4,50" fill="none" stroke="#39FF14" stroke-width="1" opacity="0.06679181254002886"/>
<polygon points="800,174 808.6,179 808.6,189 800,194 791.4,189 791.4,179" fill="none" stroke="#39FF14" stroke-width="1" opacity="0.06831966024275102"/>
<polygon points="581,132 589.6,137 589.6,147 581,152 572.4,147 572.4,137" fill="none" stroke="#39FF14" stroke-width="1" opacity="0.03331901521000999"/>
<polygon points="515,92 523.6,97 523.6,107 515,112 506.4,107 506.4,97" fill="none" stroke="#39FF14" stroke-width="1" opacity="0.02429635691340022"/>
<polygon points="718,173 726.6,178 726.6,188 718,193 709.4,188 709.4,178" fill="none" stroke="#39FF14" stroke-width="1" opacity="0.02933334539560655"/>
<polygon points="485,-8 493.6,-3 493.6,7 485,12 476.4,7 476.4,-3" fill="none" stroke="#39FF14" stroke-width="1" opacity="0.026783032957621924"/>
<polygon points="592,151 600.6,156 600.6,166 592,171 583.4,166 583.4,156" fill="none" stroke="#39FF14" stroke-width="1" opacity="0.025274657278212195"/>
<polygon points="314,170 322.6,175 322.6,185 314,190 305.4,185 305.4,175" fill="none" stroke="#39FF14" stroke-width="1" opacity="0.05958608910770716"/>
<polygon points="60,2 68.6,7 68.6,17 60,22 51.4,17 51.4,7" fill="none" stroke="#39FF14" stroke-width="1" opacity="0.046407078319724654"/>
<polygon points="549,169 557.6,174 557.6,184 549,189 540.4,184 540.4,174" fill="none" stroke="#39FF14" stroke-width="1" opacity="0.03425552372269674"/>
<polygon points="302,58 310.6,63 310.6,73 302,78 293.4,73 293.4,63" fill="none" stroke="#39FF14" stroke-width="1" opacity="0.04514804918256223"/>
<polygon points="480,116 488.6,121 488.6,131 480,136 471.4,131 471.4,121" fill="none" stroke="#39FF14" stroke-width="1" opacity="0.02916194871467393"/>
<polygon points="327,99 335.6,104 335.6,114 327,119 318.4,114 318.4,104" fill="none" stroke="#39FF14" stroke-width="1" opacity="0.07015301197430987"/>
<polygon points="232,178 240.6,183 240.6,193 232,198 223.4,193 223.4,183" fill="none" stroke="#39FF14" stroke-width="1" opacity="0.051787462969162354"/>
<polygon points="106,101 114.6,106 114.6,116 106,121 97.4,116 97.4,106" fill="none" stroke="#39FF14" stroke-width="1" opacity="0.0657718605729911"/>
<polygon points="10,20 18.6,25 18.6,35 10,40 1.4000000000000004,35 1.4000000000000004,25" fill="none" stroke="#39FF14" stroke-width="1" opacity="0.04824615279516039"/>
<polygon points="645,43 653.6,48 653.6,58 645,63 636.4,58 636.4,48" fill="none" stroke="#39FF14" stroke-width="1" opacity="0.04418180665374877"/>
<polygon points="796,125 804.6,130 804.6,140 796,145 787.4,140 787.4,130" fill="none" stroke="#39FF14" stroke-width="1" opacity="0.0749792984012382"/>
<polygon points="680,109 688.6,114 688.6,124 680,129 671.4,124 671.4,114" fill="none" stroke="#39FF14" stroke-width="1" opacity="0.07870330072031782"/>
<polygon points="581,118 589.6,123 589.6,133 581,138 572.4,133 572.4,123" fill="none" stroke="#39FF14" stroke-width="1" opacity="0.027873352159337558"/>
<polygon points="625,2 633.6,7 633.6,17 625,22 616.4,17 616.4,7" fill="none" stroke="#39FF14" stroke-width="1" opacity="0.038546569826305783"/>
</g>

  <!-- HUD Decorative elements -->
  <path d="M 20 20 L 40 20 L 50 30" fill="none" stroke="#39FF14" stroke-width="2" opacity="0.5"/>
  <path d="M 830 180 L 810 180 L 800 170" fill="none" stroke="#39FF14" stroke-width="2" opacity="0.5"/>

  <g clip-path="url(#dashClip)">
    <rect x="-160" y="0" width="160" height="200" fill="url(#scanlineGrad)">
      <animateTransform attributeName="transform" type="translate"
                        from="0 0" to="1010 0" dur="6s" repeatCount="indefinite"/>
    </rect>
  </g>

  <g font-family="'Consolas', 'Fira Code', monospace" text-anchor="middle">

    <!-- NETWORK STATUS -->
    <g transform="translate(130, 100)">
        <circle cx="0" cy="0" r="45" fill="none" stroke="#39FF14" stroke-width="2" stroke-dasharray="10 5">
            <animateTransform attributeName="transform" type="rotate" from="0" to="360" dur="10s" repeatCount="indefinite"/>
        </circle>
        <circle cx="0" cy="0" r="35" fill="#0d0d0d" />
        <text x="0" y="-60" font-size="12" fill="#aaaaaa" letter-spacing="2">ROOT.AUTH</text>
        <text x="0" y="70" font-size="14" fill="#ffffff" font-weight="bold">OPERATIONAL</text>
    </g>

    <!-- ACTIVE USERS -->
    <g transform="translate(330, 100)">
        <text x="0" y="-20" font-size="12" fill="#aaaaaa">CITIZENS</text>
        <text x="0" y="15" font-size="28" fill="#ffffff" font-weight="bold" filter="url(#textGlow)">14,179</text>
        <text x="0" y="35" font-size="10" fill="#777777">VERIFIED HUMANS</text>
    </g>

    <!-- REGISTERED AGENTS -->
    <g transform="translate(530, 100)">
        <text x="0" y="-20" font-size="12" fill="#aaaaaa">AGENTS</text>
        <text x="0" y="15" font-size="28" fill="#00d4ff" font-weight="bold" filter="url(#textGlow)">3,895</text>
        <text x="0" y="35" font-size="10" fill="#777777">REGISTERED DIDs</text>
    </g>

    <!-- TRANSACTIONS -->
    <g transform="translate(730, 100)">
        <text x="0" y="-20" font-size="12" fill="#aaaaaa">TRANSFERS</text>
        <text x="0" y="15" font-size="28" fill="#ffffff" font-weight="bold">28,888</text>
        <text x="0" y="35" font-size="10" fill="#777777">M2M SETTLEMENTS</text>
    </g>
  </g>

  <text x="425" y="185" font-family="'Consolas', 'Fira Code', monospace" font-size="10" fill="#aaaaaa" opacity="0.6" text-anchor="middle">AXIOMID PROJECTED TARGETS (ILLUSTRATIVE): 2026-06-23 04:22:40 UTC // SECURE_HANDSHAKE</text>
</svg>