<svg width="850" height="200" viewBox="0 0 850 200" xmlns="http://www.w3.org/2000/svg">
  <defs>
    <pattern id="carbonFiber" width="10" height="10" patternUnits="userSpaceOnUse">
        <rect width="10" height="10" fill="#050505"/>
        <path d="M0,0 L5,5 L10,0 L5,-5 Z M5,5 L10,10 L15,5 L10,0 Z M-5,5 L0,10 L5,5 L0,0 Z M0,10 L5,15 L10,10 L5,5 Z" fill="#0d0d0d"/>
    </pattern>
    <filter id="textGlow">
      <feGaussianBlur stdDeviation="2" result="blur" />
      <feMerge>
        <feMergeNode in="blur"/>
        <feMergeNode in="SourceGraphic"/>
      </feMerge>
    </filter>
    <linearGradient id="neonBar" x1="0%" y1="0%" x2="100%" y2="0%">
        <stop offset="0%" stop-color="#111111"/>
        <stop offset="100%" stop-color="#39FF14"/>
    </linearGradient>
    <linearGradient id="scanlineGrad" x1="0%" y1="0%" x2="100%" y2="0%">
        <stop offset="0%" stop-color="#39FF14" stop-opacity="0"/>
        <stop offset="50%" stop-color="#39FF14" stop-opacity="0.18"/>
        <stop offset="100%" stop-color="#39FF14" stop-opacity="0"/>
    </linearGradient>
    <clipPath id="dashClip">
        <rect x="0" y="0" width="850" height="200" rx="12"/>
    </clipPath>
  </defs>

  <rect width="100%" height="100%" fill="url(#carbonFiber)" rx="12" stroke="#39FF14" stroke-width="1" stroke-opacity="0.3"/>
  <rect width="100%" height="100%" fill="#000000" opacity="0.6" rx="12" />
  <g><polygon points="82,147 90.6,152 90.6,162 82,167 73.4,162 73.4,152" fill="none" stroke="#39FF14" stroke-width="1" opacity="0.06718397877697345"/>
<polygon points="320,22 328.6,27 328.6,37 320,42 311.4,37 311.4,27" fill="none" stroke="#39FF14" stroke-width="1" opacity="0.06272193437660747"/>
<polygon points="795,34 803.6,39 803.6,49 795,54 786.4,49 786.4,39" fill="none" stroke="#39FF14" stroke-width="1" opacity="0.038263664484396914"/>
<polygon points="763,32 771.6,37 771.6,47 763,52 754.4,47 754.4,37" fill="none" stroke="#39FF14" stroke-width="1" opacity="0.024006195365746386"/>
<polygon points="238,182 246.6,187 246.6,197 238,202 229.4,197 229.4,187" fill="none" stroke="#39FF14" stroke-width="1" opacity="0.03027520115106348"/>
<polygon points="507,180 515.6,185 515.6,195 507,200 498.4,195 498.4,185" fill="none" stroke="#39FF14" stroke-width="1" opacity="0.07711016066124791"/>
<polygon points="366,34 374.6,39 374.6,49 366,54 357.4,49 357.4,39" fill="none" stroke="#39FF14" stroke-width="1" opacity="0.04977366378055119"/>
<polygon points="243,7 251.6,12 251.6,22 243,27 234.4,22 234.4,12" fill="none" stroke="#39FF14" stroke-width="1" opacity="0.06610465005499172"/>
<polygon points="208,162 216.6,167 216.6,177 208,182 199.4,177 199.4,167" fill="none" stroke="#39FF14" stroke-width="1" opacity="0.057708501987704774"/>
<polygon points="695,73 703.6,78 703.6,88 695,93 686.4,88 686.4,78" fill="none" stroke="#39FF14" stroke-width="1" opacity="0.05268933248402008"/>
<polygon points="674,143 682.6,148 682.6,158 674,163 665.4,158 665.4,148" fill="none" stroke="#39FF14" stroke-width="1" opacity="0.04683175012338994"/>
<polygon points="54,77 62.6,82 62.6,92 54,97 45.4,92 45.4,82" fill="none" stroke="#39FF14" stroke-width="1" opacity="0.058003949362934376"/>
<polygon points="532,157 540.6,162 540.6,172 532,177 523.4,172 523.4,162" fill="none" stroke="#39FF14" stroke-width="1" opacity="0.0531863566370034"/>
<polygon points="394,87 402.6,92 402.6,102 394,107 385.4,102 385.4,92" fill="none" stroke="#39FF14" stroke-width="1" opacity="0.06629006781004712"/>
<polygon points="249,37 257.6,42 257.6,52 249,57 240.4,52 240.4,42" fill="none" stroke="#39FF14" stroke-width="1" opacity="0.05361010992422201"/>
<polygon points="430,54 438.6,59 438.6,69 430,74 421.4,69 421.4,59" fill="none" stroke="#39FF14" stroke-width="1" opacity="0.06004332799816113"/>
<polygon points="207,5 215.6,10 215.6,20 207,25 198.4,20 198.4,10" fill="none" stroke="#39FF14" stroke-width="1" opacity="0.079692307535956"/>
<polygon points="61,141 69.6,146 69.6,156 61,161 52.4,156 52.4,146" fill="none" stroke="#39FF14" stroke-width="1" opacity="0.06131206878793277"/>
<polygon points="212,188 220.6,193 220.6,203 212,208 203.4,203 203.4,193" fill="none" stroke="#39FF14" stroke-width="1" opacity="0.023019865353624033"/>
<polygon points="98,103 106.6,108 106.6,118 98,123 89.4,118 89.4,108" fill="none" stroke="#39FF14" stroke-width="1" opacity="0.02594777025382468"/>
<polygon points="690,29 698.6,34 698.6,44 690,49 681.4,44 681.4,34" fill="none" stroke="#39FF14" stroke-width="1" opacity="0.07201740290387398"/>
<polygon points="205,22 213.6,27 213.6,37 205,42 196.4,37 196.4,27" fill="none" stroke="#39FF14" stroke-width="1" opacity="0.0553209806798971"/>
<polygon points="683,-9 691.6,-4 691.6,6 683,11 674.4,6 674.4,-4" fill="none" stroke="#39FF14" stroke-width="1" opacity="0.02356202316041185"/>
<polygon points="155,145 163.6,150 163.6,160 155,165 146.4,160 146.4,150" fill="none" stroke="#39FF14" stroke-width="1" opacity="0.031390222608199084"/>
<polygon points="1,80 9.6,85 9.6,95 1,100 -7.6,95 -7.6,85" fill="none" stroke="#39FF14" stroke-width="1" opacity="0.053440807374224464"/>
<polygon points="63,35 71.6,40 71.6,50 63,55 54.4,50 54.4,40" fill="none" stroke="#39FF14" stroke-width="1" opacity="0.021634496075128948"/>
<polygon points="34,137 42.6,142 42.6,152 34,157 25.4,152 25.4,142" fill="none" stroke="#39FF14" stroke-width="1" opacity="0.06576443659650219"/>
<polygon points="658,82 666.6,87 666.6,97 658,102 649.4,97 649.4,87" fill="none" stroke="#39FF14" stroke-width="1" opacity="0.02957884687493842"/>
<polygon points="57,52 65.6,57 65.6,67 57,72 48.4,67 48.4,57" fill="none" stroke="#39FF14" stroke-width="1" opacity="0.045823194183885564"/>
<polygon points="758,147 766.6,152 766.6,162 758,167 749.4,162 749.4,152" fill="none" stroke="#39FF14" stroke-width="1" opacity="0.02398571659303366"/>
</g>

  <!-- HUD Decorative elements -->
  <path d="M 20 20 L 40 20 L 50 30" fill="none" stroke="#39FF14" stroke-width="2" opacity="0.5"/>
  <path d="M 830 180 L 810 180 L 800 170" fill="none" stroke="#39FF14" stroke-width="2" opacity="0.5"/>

  <g clip-path="url(#dashClip)">
    <rect x="-160" y="0" width="160" height="200" fill="url(#scanlineGrad)">
      <animateTransform attributeName="transform" type="translate"
                        from="0 0" to="1010 0" dur="6s" repeatCount="indefinite"/>
    </rect>
  </g>

  <g font-family="'Consolas', 'Fira Code', monospace" text-anchor="middle">

    <!-- NETWORK STATUS -->
    <g transform="translate(130, 100)">
        <circle cx="0" cy="0" r="45" fill="none" stroke="#39FF14" stroke-width="2" stroke-dasharray="10 5">
            <animateTransform attributeName="transform" type="rotate" from="0" to="360" dur="10s" repeatCount="indefinite"/>
        </circle>
        <circle cx="0" cy="0" r="35" fill="#0d0d0d" />
        <text x="0" y="-60" font-size="12" fill="#aaaaaa" letter-spacing="2">ROOT.AUTH</text>
        <text x="0" y="70" font-size="14" fill="#ffffff" font-weight="bold">OPERATIONAL</text>
    </g>

    <!-- ACTIVE USERS -->
    <g transform="translate(330, 100)">
        <text x="0" y="-20" font-size="12" fill="#aaaaaa">CITIZENS</text>
        <text x="0" y="15" font-size="28" fill="#ffffff" font-weight="bold" filter="url(#textGlow)">12,963</text>
        <text x="0" y="35" font-size="10" fill="#777777">VERIFIED HUMANS</text>
    </g>

    <!-- REGISTERED AGENTS -->
    <g transform="translate(530, 100)">
        <text x="0" y="-20" font-size="12" fill="#aaaaaa">AGENTS</text>
        <text x="0" y="15" font-size="28" fill="#00d4ff" font-weight="bold" filter="url(#textGlow)">3,938</text>
        <text x="0" y="35" font-size="10" fill="#777777">REGISTERED DIDs</text>
    </g>

    <!-- TRANSACTIONS -->
    <g transform="translate(730, 100)">
        <text x="0" y="-20" font-size="12" fill="#aaaaaa">TRANSFERS</text>
        <text x="0" y="15" font-size="28" fill="#ffffff" font-weight="bold">32,266</text>
        <text x="0" y="35" font-size="10" fill="#777777">M2M SETTLEMENTS</text>
    </g>
  </g>

  <text x="425" y="185" font-family="'Consolas', 'Fira Code', monospace" font-size="10" fill="#aaaaaa" opacity="0.6" text-anchor="middle">AXIOMID PROJECTED TARGETS (ILLUSTRATIVE): 2026-07-15 18:54:54 UTC // SECURE_HANDSHAKE</text>
</svg>