<svg width="850" height="200" viewBox="0 0 850 200" xmlns="http://www.w3.org/2000/svg">
  <defs>
    <pattern id="carbonFiber" width="10" height="10" patternUnits="userSpaceOnUse">
        <rect width="10" height="10" fill="#050505"/>
        <path d="M0,0 L5,5 L10,0 L5,-5 Z M5,5 L10,10 L15,5 L10,0 Z M-5,5 L0,10 L5,5 L0,0 Z M0,10 L5,15 L10,10 L5,5 Z" fill="#0d0d0d"/>
    </pattern>
    <filter id="textGlow">
      <feGaussianBlur stdDeviation="2" result="blur" />
      <feMerge>
        <feMergeNode in="blur"/>
        <feMergeNode in="SourceGraphic"/>
      </feMerge>
    </filter>
    <linearGradient id="neonBar" x1="0%" y1="0%" x2="100%" y2="0%">
        <stop offset="0%" stop-color="#111111"/>
        <stop offset="100%" stop-color="#39FF14"/>
    </linearGradient>
    <linearGradient id="scanlineGrad" x1="0%" y1="0%" x2="100%" y2="0%">
        <stop offset="0%" stop-color="#39FF14" stop-opacity="0"/>
        <stop offset="50%" stop-color="#39FF14" stop-opacity="0.18"/>
        <stop offset="100%" stop-color="#39FF14" stop-opacity="0"/>
    </linearGradient>
    <clipPath id="dashClip">
        <rect x="0" y="0" width="850" height="200" rx="12"/>
    </clipPath>
  </defs>

  <rect width="100%" height="100%" fill="url(#carbonFiber)" rx="12" stroke="#39FF14" stroke-width="1" stroke-opacity="0.3"/>
  <rect width="100%" height="100%" fill="#000000" opacity="0.6" rx="12" />
  <g><polygon points="513,170 521.6,175 521.6,185 513,190 504.4,185 504.4,175" fill="none" stroke="#39FF14" stroke-width="1" opacity="0.059591154751970146"/>
<polygon points="790,167 798.6,172 798.6,182 790,187 781.4,182 781.4,172" fill="none" stroke="#39FF14" stroke-width="1" opacity="0.054384108786106694"/>
<polygon points="419,70 427.6,75 427.6,85 419,90 410.4,85 410.4,75" fill="none" stroke="#39FF14" stroke-width="1" opacity="0.02737787520013879"/>
<polygon points="150,152 158.6,157 158.6,167 150,172 141.4,167 141.4,157" fill="none" stroke="#39FF14" stroke-width="1" opacity="0.042320892448243816"/>
<polygon points="535,24 543.6,29 543.6,39 535,44 526.4,39 526.4,29" fill="none" stroke="#39FF14" stroke-width="1" opacity="0.037970621498864335"/>
<polygon points="577,83 585.6,88 585.6,98 577,103 568.4,98 568.4,88" fill="none" stroke="#39FF14" stroke-width="1" opacity="0.037954163345057954"/>
<polygon points="361,27 369.6,32 369.6,42 361,47 352.4,42 352.4,32" fill="none" stroke="#39FF14" stroke-width="1" opacity="0.028581603377419378"/>
<polygon points="206,81 214.6,86 214.6,96 206,101 197.4,96 197.4,86" fill="none" stroke="#39FF14" stroke-width="1" opacity="0.039801807359001996"/>
<polygon points="810,120 818.6,125 818.6,135 810,140 801.4,135 801.4,125" fill="none" stroke="#39FF14" stroke-width="1" opacity="0.058979037442187715"/>
<polygon points="567,62 575.6,67 575.6,77 567,82 558.4,77 558.4,67" fill="none" stroke="#39FF14" stroke-width="1" opacity="0.07304563975224294"/>
<polygon points="280,108 288.6,113 288.6,123 280,128 271.4,123 271.4,113" fill="none" stroke="#39FF14" stroke-width="1" opacity="0.027001104821076115"/>
<polygon points="686,45 694.6,50 694.6,60 686,65 677.4,60 677.4,50" fill="none" stroke="#39FF14" stroke-width="1" opacity="0.02246768235821169"/>
<polygon points="399,20 407.6,25 407.6,35 399,40 390.4,35 390.4,25" fill="none" stroke="#39FF14" stroke-width="1" opacity="0.04973368356513233"/>
<polygon points="509,134 517.6,139 517.6,149 509,154 500.4,149 500.4,139" fill="none" stroke="#39FF14" stroke-width="1" opacity="0.0693778689270191"/>
<polygon points="291,173 299.6,178 299.6,188 291,193 282.4,188 282.4,178" fill="none" stroke="#39FF14" stroke-width="1" opacity="0.06084030168824324"/>
<polygon points="519,67 527.6,72 527.6,82 519,87 510.4,82 510.4,72" fill="none" stroke="#39FF14" stroke-width="1" opacity="0.06724656153522536"/>
<polygon points="825,6 833.6,11 833.6,21 825,26 816.4,21 816.4,11" fill="none" stroke="#39FF14" stroke-width="1" opacity="0.037078133955024115"/>
<polygon points="663,12 671.6,17 671.6,27 663,32 654.4,27 654.4,17" fill="none" stroke="#39FF14" stroke-width="1" opacity="0.038011857384334935"/>
<polygon points="157,58 165.6,63 165.6,73 157,78 148.4,73 148.4,63" fill="none" stroke="#39FF14" stroke-width="1" opacity="0.07001099409786762"/>
<polygon points="143,138 151.6,143 151.6,153 143,158 134.4,153 134.4,143" fill="none" stroke="#39FF14" stroke-width="1" opacity="0.051748640973664495"/>
<polygon points="631,56 639.6,61 639.6,71 631,76 622.4,71 622.4,61" fill="none" stroke="#39FF14" stroke-width="1" opacity="0.05422911032621684"/>
<polygon points="503,66 511.6,71 511.6,81 503,86 494.4,81 494.4,71" fill="none" stroke="#39FF14" stroke-width="1" opacity="0.04375275035805645"/>
<polygon points="551,78 559.6,83 559.6,93 551,98 542.4,93 542.4,83" fill="none" stroke="#39FF14" stroke-width="1" opacity="0.0404567954331367"/>
<polygon points="232,86 240.6,91 240.6,101 232,106 223.4,101 223.4,91" fill="none" stroke="#39FF14" stroke-width="1" opacity="0.07552616451599986"/>
<polygon points="327,142 335.6,147 335.6,157 327,162 318.4,157 318.4,147" fill="none" stroke="#39FF14" stroke-width="1" opacity="0.06873943031912873"/>
<polygon points="560,162 568.6,167 568.6,177 560,182 551.4,177 551.4,167" fill="none" stroke="#39FF14" stroke-width="1" opacity="0.05973658541213468"/>
<polygon points="635,-6 643.6,-1 643.6,9 635,14 626.4,9 626.4,-1" fill="none" stroke="#39FF14" stroke-width="1" opacity="0.03161316546909772"/>
<polygon points="245,145 253.6,150 253.6,160 245,165 236.4,160 236.4,150" fill="none" stroke="#39FF14" stroke-width="1" opacity="0.07978225786556449"/>
<polygon points="771,131 779.6,136 779.6,146 771,151 762.4,146 762.4,136" fill="none" stroke="#39FF14" stroke-width="1" opacity="0.0678521778300376"/>
<polygon points="74,149 82.6,154 82.6,164 74,169 65.4,164 65.4,154" fill="none" stroke="#39FF14" stroke-width="1" opacity="0.05890550933772483"/>
</g>

  <!-- HUD Decorative elements -->
  <path d="M 20 20 L 40 20 L 50 30" fill="none" stroke="#39FF14" stroke-width="2" opacity="0.5"/>
  <path d="M 830 180 L 810 180 L 800 170" fill="none" stroke="#39FF14" stroke-width="2" opacity="0.5"/>

  <g clip-path="url(#dashClip)">
    <rect x="-160" y="0" width="160" height="200" fill="url(#scanlineGrad)">
      <animateTransform attributeName="transform" type="translate"
                        from="0 0" to="1010 0" dur="6s" repeatCount="indefinite"/>
    </rect>
  </g>

  <g font-family="'Consolas', 'Fira Code', monospace" text-anchor="middle">

    <!-- NETWORK STATUS -->
    <g transform="translate(130, 100)">
        <circle cx="0" cy="0" r="45" fill="none" stroke="#39FF14" stroke-width="2" stroke-dasharray="10 5">
            <animateTransform attributeName="transform" type="rotate" from="0" to="360" dur="10s" repeatCount="indefinite"/>
        </circle>
        <circle cx="0" cy="0" r="35" fill="#0d0d0d" />
        <text x="0" y="-60" font-size="12" fill="#aaaaaa" letter-spacing="2">ROOT.AUTH</text>
        <text x="0" y="70" font-size="14" fill="#ffffff" font-weight="bold">OPERATIONAL</text>
    </g>

    <!-- ACTIVE USERS -->
    <g transform="translate(330, 100)">
        <text x="0" y="-20" font-size="12" fill="#aaaaaa">CITIZENS</text>
        <text x="0" y="15" font-size="28" fill="#ffffff" font-weight="bold" filter="url(#textGlow)">13,187</text>
        <text x="0" y="35" font-size="10" fill="#777777">VERIFIED HUMANS</text>
    </g>

    <!-- REGISTERED AGENTS -->
    <g transform="translate(530, 100)">
        <text x="0" y="-20" font-size="12" fill="#aaaaaa">AGENTS</text>
        <text x="0" y="15" font-size="28" fill="#00d4ff" font-weight="bold" filter="url(#textGlow)">4,663</text>
        <text x="0" y="35" font-size="10" fill="#777777">REGISTERED DIDs</text>
    </g>

    <!-- TRANSACTIONS -->
    <g transform="translate(730, 100)">
        <text x="0" y="-20" font-size="12" fill="#aaaaaa">TRANSFERS</text>
        <text x="0" y="15" font-size="28" fill="#ffffff" font-weight="bold">34,960</text>
        <text x="0" y="35" font-size="10" fill="#777777">M2M SETTLEMENTS</text>
    </g>
  </g>

  <text x="425" y="185" font-family="'Consolas', 'Fira Code', monospace" font-size="10" fill="#aaaaaa" opacity="0.6" text-anchor="middle">AXIOMID PROJECTED TARGETS (ILLUSTRATIVE): 2026-06-27 21:22:12 UTC // SECURE_HANDSHAKE</text>
</svg>