<svg width="850" height="200" viewBox="0 0 850 200" xmlns="http://www.w3.org/2000/svg">
  <defs>
    <pattern id="carbonFiber" width="10" height="10" patternUnits="userSpaceOnUse">
        <rect width="10" height="10" fill="#050505"/>
        <path d="M0,0 L5,5 L10,0 L5,-5 Z M5,5 L10,10 L15,5 L10,0 Z M-5,5 L0,10 L5,5 L0,0 Z M0,10 L5,15 L10,10 L5,5 Z" fill="#0d0d0d"/>
    </pattern>
    <filter id="textGlow">
      <feGaussianBlur stdDeviation="2" result="blur" />
      <feMerge>
        <feMergeNode in="blur"/>
        <feMergeNode in="SourceGraphic"/>
      </feMerge>
    </filter>
    <linearGradient id="neonBar" x1="0%" y1="0%" x2="100%" y2="0%">
        <stop offset="0%" stop-color="#111111"/>
        <stop offset="100%" stop-color="#39FF14"/>
    </linearGradient>
    <linearGradient id="scanlineGrad" x1="0%" y1="0%" x2="100%" y2="0%">
        <stop offset="0%" stop-color="#39FF14" stop-opacity="0"/>
        <stop offset="50%" stop-color="#39FF14" stop-opacity="0.18"/>
        <stop offset="100%" stop-color="#39FF14" stop-opacity="0"/>
    </linearGradient>
    <clipPath id="dashClip">
        <rect x="0" y="0" width="850" height="200" rx="12"/>
    </clipPath>
  </defs>

  <rect width="100%" height="100%" fill="url(#carbonFiber)" rx="12" stroke="#39FF14" stroke-width="1" stroke-opacity="0.3"/>
  <rect width="100%" height="100%" fill="#000000" opacity="0.6" rx="12" />
  <g><polygon points="636,46 644.6,51 644.6,61 636,66 627.4,61 627.4,51" fill="none" stroke="#39FF14" stroke-width="1" opacity="0.057814894732107686"/>
<polygon points="372,158 380.6,163 380.6,173 372,178 363.4,173 363.4,163" fill="none" stroke="#39FF14" stroke-width="1" opacity="0.049312449786353706"/>
<polygon points="139,119 147.6,124 147.6,134 139,139 130.4,134 130.4,124" fill="none" stroke="#39FF14" stroke-width="1" opacity="0.03218518040377609"/>
<polygon points="606,189 614.6,194 614.6,204 606,209 597.4,204 597.4,194" fill="none" stroke="#39FF14" stroke-width="1" opacity="0.051127958993923216"/>
<polygon points="710,46 718.6,51 718.6,61 710,66 701.4,61 701.4,51" fill="none" stroke="#39FF14" stroke-width="1" opacity="0.04081459627908858"/>
<polygon points="637,140 645.6,145 645.6,155 637,160 628.4,155 628.4,145" fill="none" stroke="#39FF14" stroke-width="1" opacity="0.032662134293910586"/>
<polygon points="564,172 572.6,177 572.6,187 564,192 555.4,187 555.4,177" fill="none" stroke="#39FF14" stroke-width="1" opacity="0.055465913047590784"/>
<polygon points="174,83 182.6,88 182.6,98 174,103 165.4,98 165.4,88" fill="none" stroke="#39FF14" stroke-width="1" opacity="0.0797198474600084"/>
<polygon points="632,138 640.6,143 640.6,153 632,158 623.4,153 623.4,143" fill="none" stroke="#39FF14" stroke-width="1" opacity="0.07314621868021781"/>
<polygon points="633,87 641.6,92 641.6,102 633,107 624.4,102 624.4,92" fill="none" stroke="#39FF14" stroke-width="1" opacity="0.06197877542820532"/>
<polygon points="506,108 514.6,113 514.6,123 506,128 497.4,123 497.4,113" fill="none" stroke="#39FF14" stroke-width="1" opacity="0.07285680727563731"/>
<polygon points="134,5 142.6,10 142.6,20 134,25 125.4,20 125.4,10" fill="none" stroke="#39FF14" stroke-width="1" opacity="0.07961685665203252"/>
<polygon points="758,186 766.6,191 766.6,201 758,206 749.4,201 749.4,191" fill="none" stroke="#39FF14" stroke-width="1" opacity="0.04857080209402488"/>
<polygon points="440,49 448.6,54 448.6,64 440,69 431.4,64 431.4,54" fill="none" stroke="#39FF14" stroke-width="1" opacity="0.03376809864125063"/>
<polygon points="570,93 578.6,98 578.6,108 570,113 561.4,108 561.4,98" fill="none" stroke="#39FF14" stroke-width="1" opacity="0.037795544633020914"/>
<polygon points="731,50 739.6,55 739.6,65 731,70 722.4,65 722.4,55" fill="none" stroke="#39FF14" stroke-width="1" opacity="0.04341756707750735"/>
<polygon points="289,187 297.6,192 297.6,202 289,207 280.4,202 280.4,192" fill="none" stroke="#39FF14" stroke-width="1" opacity="0.036427590546757094"/>
<polygon points="482,56 490.6,61 490.6,71 482,76 473.4,71 473.4,61" fill="none" stroke="#39FF14" stroke-width="1" opacity="0.06316383080284384"/>
<polygon points="671,37 679.6,42 679.6,52 671,57 662.4,52 662.4,42" fill="none" stroke="#39FF14" stroke-width="1" opacity="0.0745315821919254"/>
<polygon points="726,72 734.6,77 734.6,87 726,92 717.4,87 717.4,77" fill="none" stroke="#39FF14" stroke-width="1" opacity="0.06486237441842038"/>
<polygon points="793,-8 801.6,-3 801.6,7 793,12 784.4,7 784.4,-3" fill="none" stroke="#39FF14" stroke-width="1" opacity="0.04705724012088695"/>
<polygon points="512,-2 520.6,3 520.6,13 512,18 503.4,13 503.4,3" fill="none" stroke="#39FF14" stroke-width="1" opacity="0.021405027862939588"/>
<polygon points="689,-6 697.6,-1 697.6,9 689,14 680.4,9 680.4,-1" fill="none" stroke="#39FF14" stroke-width="1" opacity="0.02879792573610681"/>
<polygon points="235,38 243.6,43 243.6,53 235,58 226.4,53 226.4,43" fill="none" stroke="#39FF14" stroke-width="1" opacity="0.0509542195012416"/>
<polygon points="332,116 340.6,121 340.6,131 332,136 323.4,131 323.4,121" fill="none" stroke="#39FF14" stroke-width="1" opacity="0.02560674421826654"/>
<polygon points="605,20 613.6,25 613.6,35 605,40 596.4,35 596.4,25" fill="none" stroke="#39FF14" stroke-width="1" opacity="0.03476400188042858"/>
<polygon points="86,0 94.6,5 94.6,15 86,20 77.4,15 77.4,5" fill="none" stroke="#39FF14" stroke-width="1" opacity="0.031250914339309765"/>
<polygon points="677,115 685.6,120 685.6,130 677,135 668.4,130 668.4,120" fill="none" stroke="#39FF14" stroke-width="1" opacity="0.07234688809815387"/>
<polygon points="578,158 586.6,163 586.6,173 578,178 569.4,173 569.4,163" fill="none" stroke="#39FF14" stroke-width="1" opacity="0.050589484771761034"/>
<polygon points="89,85 97.6,90 97.6,100 89,105 80.4,100 80.4,90" fill="none" stroke="#39FF14" stroke-width="1" opacity="0.06463802334396321"/>
</g>

  <!-- HUD Decorative elements -->
  <path d="M 20 20 L 40 20 L 50 30" fill="none" stroke="#39FF14" stroke-width="2" opacity="0.5"/>
  <path d="M 830 180 L 810 180 L 800 170" fill="none" stroke="#39FF14" stroke-width="2" opacity="0.5"/>

  <g clip-path="url(#dashClip)">
    <rect x="-160" y="0" width="160" height="200" fill="url(#scanlineGrad)">
      <animateTransform attributeName="transform" type="translate"
                        from="0 0" to="1010 0" dur="6s" repeatCount="indefinite"/>
    </rect>
  </g>

  <g font-family="'Consolas', 'Fira Code', monospace" text-anchor="middle">

    <!-- NETWORK STATUS -->
    <g transform="translate(130, 100)">
        <circle cx="0" cy="0" r="45" fill="none" stroke="#39FF14" stroke-width="2" stroke-dasharray="10 5">
            <animateTransform attributeName="transform" type="rotate" from="0" to="360" dur="10s" repeatCount="indefinite"/>
        </circle>
        <circle cx="0" cy="0" r="35" fill="#0d0d0d" />
        <text x="0" y="-60" font-size="12" fill="#aaaaaa" letter-spacing="2">ROOT.AUTH</text>
        <text x="0" y="70" font-size="14" fill="#ffffff" font-weight="bold">OPERATIONAL</text>
    </g>

    <!-- ACTIVE USERS -->
    <g transform="translate(330, 100)">
        <text x="0" y="-20" font-size="12" fill="#aaaaaa">CITIZENS</text>
        <text x="0" y="15" font-size="28" fill="#ffffff" font-weight="bold" filter="url(#textGlow)">14,178</text>
        <text x="0" y="35" font-size="10" fill="#777777">VERIFIED HUMANS</text>
    </g>

    <!-- REGISTERED AGENTS -->
    <g transform="translate(530, 100)">
        <text x="0" y="-20" font-size="12" fill="#aaaaaa">AGENTS</text>
        <text x="0" y="15" font-size="28" fill="#00d4ff" font-weight="bold" filter="url(#textGlow)">3,541</text>
        <text x="0" y="35" font-size="10" fill="#777777">REGISTERED DIDs</text>
    </g>

    <!-- TRANSACTIONS -->
    <g transform="translate(730, 100)">
        <text x="0" y="-20" font-size="12" fill="#aaaaaa">TRANSFERS</text>
        <text x="0" y="15" font-size="28" fill="#ffffff" font-weight="bold">30,419</text>
        <text x="0" y="35" font-size="10" fill="#777777">M2M SETTLEMENTS</text>
    </g>
  </g>

  <text x="425" y="185" font-family="'Consolas', 'Fira Code', monospace" font-size="10" fill="#aaaaaa" opacity="0.6" text-anchor="middle">AXIOMID PROJECTED TARGETS (ILLUSTRATIVE): 2026-07-10 13:59:14 UTC // SECURE_HANDSHAKE</text>
</svg>