<svg width="850" height="200" viewBox="0 0 850 200" xmlns="http://www.w3.org/2000/svg">
  <defs>
    <!-- Carbon Fiber Pattern -->
    <pattern id="carbonFiber" width="10" height="10" patternUnits="userSpaceOnUse">
        <rect width="10" height="10" fill="#050505"/>
        <path d="M0,0 L5,5 L10,0 L5,-5 Z M5,5 L10,10 L15,5 L10,0 Z M-5,5 L0,10 L5,5 L0,0 Z M0,10 L5,15 L10,10 L5,5 Z" fill="#0d0d0d"/>
    </pattern>
    <filter id="glassmorphism">
      <feGaussianBlur stdDeviation="3" result="blur" />
      <feColorMatrix type="matrix" values="1 0 0 0 0  0 1 0 0 0  0 0 1 0 0  0 0 0 18 -7" result="glow" />
      <feBlend in="SourceGraphic" in2="glow" mode="normal" />
    </filter>
    <filter id="textGlow">
      <feGaussianBlur stdDeviation="2" result="blur" />
      <feMerge>
        <feMergeNode in="blur"/>
        <feMergeNode in="SourceGraphic"/>
      </feMerge>
    </filter>
    <linearGradient id="neonBar" x1="0%" y1="0%" x2="100%" y2="0%">
        <stop offset="0%" stop-color="#111111"/>
        <stop offset="100%" stop-color="#39FF14"/>
    </linearGradient>
  </defs>

  <rect width="100%" height="100%" fill="url(#carbonFiber)" rx="12" stroke="#39FF14" stroke-width="1" stroke-opacity="0.3"/>
  <rect width="100%" height="100%" fill="#000000" opacity="0.6" rx="12" />
  <g><polygon points="752,65 760.6,70 760.6,80 752,85 743.4,80 743.4,70" fill="none" stroke="#39FF14" stroke-width="1" opacity="0.023627294768159182"/>
<polygon points="25,99 33.6,104 33.6,114 25,119 16.4,114 16.4,104" fill="none" stroke="#39FF14" stroke-width="1" opacity="0.022522445554303255"/>
<polygon points="705,81 713.6,86 713.6,96 705,101 696.4,96 696.4,86" fill="none" stroke="#39FF14" stroke-width="1" opacity="0.0492160683672391"/>
<polygon points="424,112 432.6,117 432.6,127 424,132 415.4,127 415.4,117" fill="none" stroke="#39FF14" stroke-width="1" opacity="0.05157829830878795"/>
<polygon points="335,13 343.6,18 343.6,28 335,33 326.4,28 326.4,18" fill="none" stroke="#39FF14" stroke-width="1" opacity="0.06527519544217542"/>
<polygon points="782,188 790.6,193 790.6,203 782,208 773.4,203 773.4,193" fill="none" stroke="#39FF14" stroke-width="1" opacity="0.06360319630082509"/>
<polygon points="339,185 347.6,190 347.6,200 339,205 330.4,200 330.4,190" fill="none" stroke="#39FF14" stroke-width="1" opacity="0.06192463702107984"/>
<polygon points="719,30 727.6,35 727.6,45 719,50 710.4,45 710.4,35" fill="none" stroke="#39FF14" stroke-width="1" opacity="0.04530559105350474"/>
<polygon points="815,66 823.6,71 823.6,81 815,86 806.4,81 806.4,71" fill="none" stroke="#39FF14" stroke-width="1" opacity="0.03669790491582936"/>
<polygon points="275,-8 283.6,-3 283.6,7 275,12 266.4,7 266.4,-3" fill="none" stroke="#39FF14" stroke-width="1" opacity="0.07555201893324699"/>
<polygon points="773,56 781.6,61 781.6,71 773,76 764.4,71 764.4,61" fill="none" stroke="#39FF14" stroke-width="1" opacity="0.04352761483255377"/>
<polygon points="670,54 678.6,59 678.6,69 670,74 661.4,69 661.4,59" fill="none" stroke="#39FF14" stroke-width="1" opacity="0.07819510166177839"/>
<polygon points="558,-6 566.6,-1 566.6,9 558,14 549.4,9 549.4,-1" fill="none" stroke="#39FF14" stroke-width="1" opacity="0.025600441948454875"/>
<polygon points="115,33 123.6,38 123.6,48 115,53 106.4,48 106.4,38" fill="none" stroke="#39FF14" stroke-width="1" opacity="0.07359991153867161"/>
<polygon points="311,66 319.6,71 319.6,81 311,86 302.4,81 302.4,71" fill="none" stroke="#39FF14" stroke-width="1" opacity="0.02220113841068927"/>
<polygon points="522,136 530.6,141 530.6,151 522,156 513.4,151 513.4,141" fill="none" stroke="#39FF14" stroke-width="1" opacity="0.06930324472530743"/>
<polygon points="792,24 800.6,29 800.6,39 792,44 783.4,39 783.4,29" fill="none" stroke="#39FF14" stroke-width="1" opacity="0.07531001983253421"/>
<polygon points="374,58 382.6,63 382.6,73 374,78 365.4,73 365.4,63" fill="none" stroke="#39FF14" stroke-width="1" opacity="0.05916198922197892"/>
<polygon points="411,98 419.6,103 419.6,113 411,118 402.4,113 402.4,103" fill="none" stroke="#39FF14" stroke-width="1" opacity="0.0725140453114401"/>
<polygon points="84,173 92.6,178 92.6,188 84,193 75.4,188 75.4,178" fill="none" stroke="#39FF14" stroke-width="1" opacity="0.04205384310925338"/>
<polygon points="678,129 686.6,134 686.6,144 678,149 669.4,144 669.4,134" fill="none" stroke="#39FF14" stroke-width="1" opacity="0.03211705697398463"/>
<polygon points="282,2 290.6,7 290.6,17 282,22 273.4,17 273.4,7" fill="none" stroke="#39FF14" stroke-width="1" opacity="0.04879234169321224"/>
<polygon points="73,89 81.6,94 81.6,104 73,109 64.4,104 64.4,94" fill="none" stroke="#39FF14" stroke-width="1" opacity="0.027476031869924863"/>
<polygon points="755,88 763.6,93 763.6,103 755,108 746.4,103 746.4,93" fill="none" stroke="#39FF14" stroke-width="1" opacity="0.029397337260742284"/>
<polygon points="298,124 306.6,129 306.6,139 298,144 289.4,139 289.4,129" fill="none" stroke="#39FF14" stroke-width="1" opacity="0.05166124775836381"/>
<polygon points="285,178 293.6,183 293.6,193 285,198 276.4,193 276.4,183" fill="none" stroke="#39FF14" stroke-width="1" opacity="0.02550425762323299"/>
<polygon points="663,25 671.6,30 671.6,40 663,45 654.4,40 654.4,30" fill="none" stroke="#39FF14" stroke-width="1" opacity="0.07317167572323294"/>
<polygon points="38,-3 46.6,2 46.6,12 38,17 29.4,12 29.4,2" fill="none" stroke="#39FF14" stroke-width="1" opacity="0.06546232214484686"/>
<polygon points="683,85 691.6,90 691.6,100 683,105 674.4,100 674.4,90" fill="none" stroke="#39FF14" stroke-width="1" opacity="0.07015021021731241"/>
<polygon points="362,60 370.6,65 370.6,75 362,80 353.4,75 353.4,65" fill="none" stroke="#39FF14" stroke-width="1" opacity="0.046475547319762556"/>
</g>

  <!-- HUD Decorative elements -->
  <path d="M 20 20 L 40 20 L 50 30" fill="none" stroke="#39FF14" stroke-width="2" opacity="0.5"/>
  <path d="M 830 180 L 810 180 L 800 170" fill="none" stroke="#39FF14" stroke-width="2" opacity="0.5"/>
  <rect x="20" y="100" width="2" height="40" fill="#ffffff" opacity="0.4"/>
  <rect x="828" y="60" width="2" height="40" fill="#39FF14" opacity="0.6"/>

  <g font-family="'Consolas', 'Fira Code', monospace" text-anchor="middle">

    <!-- SYSTEM STATUS -->
    <g transform="translate(130, 100)">
        <circle cx="0" cy="0" r="45" fill="none" stroke="#111111" stroke-width="8" />
        <circle cx="0" cy="0" r="45" fill="none" stroke="#39FF14" stroke-width="2" stroke-dasharray="10 5">
            <animateTransform attributeName="transform" type="rotate" from="0" to="360" dur="10s" repeatCount="indefinite"/>
        </circle>
        <circle cx="0" cy="0" r="35" fill="#0d0d0d" />
        <circle cx="0" cy="0" r="6" fill="#39FF14" filter="url(#textGlow)">
            <animate attributeName="opacity" values="1;0.3;1" dur="2s" repeatCount="indefinite"/>
        </circle>
        <text x="0" y="-60" font-size="12" fill="#aaaaaa" letter-spacing="2">SYS.CORE</text>
        <text x="0" y="70" font-size="14" fill="#ffffff" font-weight="bold">ONLINE</text>
    </g>

    <!-- LIVE TRAFFIC -->
    <g transform="translate(330, 100)">
        <rect x="-60" y="-45" width="120" height="90" fill="#0a0a0a" rx="8" stroke="#39FF14" stroke-opacity="0.4" stroke-width="1"/>
        <text x="0" y="-20" font-size="12" fill="#aaaaaa">NETWORK LOAD</text>
        <text x="0" y="15" font-size="28" fill="#ffffff" font-weight="bold" filter="url(#textGlow)">4998</text>
        <text x="0" y="35" font-size="10" fill="#777777">ACTIVE SESSIONS</text>
    </g>

    <!-- ACTIVE AGENTS -->
    <g transform="translate(530, 100)">
        <rect x="-60" y="-45" width="120" height="90" fill="#0a0a0a" rx="8" stroke="#39FF14" stroke-opacity="0.4" stroke-width="1"/>
        <text x="0" y="-20" font-size="12" fill="#aaaaaa">SWARM ENTITIES</text>
        <text x="0" y="15" font-size="28" fill="#ffffff" font-weight="bold" filter="url(#textGlow)">103</text>
        <text x="0" y="35" font-size="10" fill="#777777">AUTONOMOUS</text>
    </g>

    <!-- UPTIME -->
    <g transform="translate(730, 100)">
        <path d="M -40 -35 L 40 -35 L 50 -25 L 50 35 L -40 35 L -50 25 Z" fill="#0a0a0a" stroke="#39FF14" stroke-opacity="0.4" stroke-width="1"/>
        <text x="0" y="-15" font-size="12" fill="#aaaaaa">CONTINUITY</text>
        <text x="0" y="15" font-size="24" fill="#ffffff" font-weight="bold">382<tspan font-size="14" fill="#777777">d</tspan></text>
        <rect x="-35" y="25" width="70" height="4" fill="url(#neonBar)" rx="2"/>
    </g>
  </g>

  <text x="425" y="185" font-family="'Consolas', 'Fira Code', monospace" font-size="10" fill="#aaaaaa" opacity="0.6" text-anchor="middle">LAST TELEMETRY PING: 2026-04-28 07:02:05 UTC // ENCRYPTED_TUNNEL</text>
</svg>