<svg width="850" height="200" viewBox="0 0 850 200" xmlns="http://www.w3.org/2000/svg">
  <defs>
    <pattern id="carbonFiber" width="10" height="10" patternUnits="userSpaceOnUse">
        <rect width="10" height="10" fill="#050505"/>
        <path d="M0,0 L5,5 L10,0 L5,-5 Z M5,5 L10,10 L15,5 L10,0 Z M-5,5 L0,10 L5,5 L0,0 Z M0,10 L5,15 L10,10 L5,5 Z" fill="#0d0d0d"/>
    </pattern>
    <filter id="textGlow">
      <feGaussianBlur stdDeviation="2" result="blur" />
      <feMerge>
        <feMergeNode in="blur"/>
        <feMergeNode in="SourceGraphic"/>
      </feMerge>
    </filter>
    <linearGradient id="neonBar" x1="0%" y1="0%" x2="100%" y2="0%">
        <stop offset="0%" stop-color="#111111"/>
        <stop offset="100%" stop-color="#39FF14"/>
    </linearGradient>
    <linearGradient id="scanlineGrad" x1="0%" y1="0%" x2="100%" y2="0%">
        <stop offset="0%" stop-color="#39FF14" stop-opacity="0"/>
        <stop offset="50%" stop-color="#39FF14" stop-opacity="0.18"/>
        <stop offset="100%" stop-color="#39FF14" stop-opacity="0"/>
    </linearGradient>
    <clipPath id="dashClip">
        <rect x="0" y="0" width="850" height="200" rx="12"/>
    </clipPath>
  </defs>

  <rect width="100%" height="100%" fill="url(#carbonFiber)" rx="12" stroke="#39FF14" stroke-width="1" stroke-opacity="0.3"/>
  <rect width="100%" height="100%" fill="#000000" opacity="0.6" rx="12" />
  <g><polygon points="637,93 645.6,98 645.6,108 637,113 628.4,108 628.4,98" fill="none" stroke="#39FF14" stroke-width="1" opacity="0.07851907396228444"/>
<polygon points="524,30 532.6,35 532.6,45 524,50 515.4,45 515.4,35" fill="none" stroke="#39FF14" stroke-width="1" opacity="0.042751754575750096"/>
<polygon points="562,85 570.6,90 570.6,100 562,105 553.4,100 553.4,90" fill="none" stroke="#39FF14" stroke-width="1" opacity="0.04508095266673619"/>
<polygon points="546,17 554.6,22 554.6,32 546,37 537.4,32 537.4,22" fill="none" stroke="#39FF14" stroke-width="1" opacity="0.02765868681256836"/>
<polygon points="337,45 345.6,50 345.6,60 337,65 328.4,60 328.4,50" fill="none" stroke="#39FF14" stroke-width="1" opacity="0.02600666836311242"/>
<polygon points="753,39 761.6,44 761.6,54 753,59 744.4,54 744.4,44" fill="none" stroke="#39FF14" stroke-width="1" opacity="0.039477478971364915"/>
<polygon points="507,115 515.6,120 515.6,130 507,135 498.4,130 498.4,120" fill="none" stroke="#39FF14" stroke-width="1" opacity="0.04472483086531712"/>
<polygon points="197,175 205.6,180 205.6,190 197,195 188.4,190 188.4,180" fill="none" stroke="#39FF14" stroke-width="1" opacity="0.05616944712011525"/>
<polygon points="126,103 134.6,108 134.6,118 126,123 117.4,118 117.4,108" fill="none" stroke="#39FF14" stroke-width="1" opacity="0.02793090055314184"/>
<polygon points="38,37 46.6,42 46.6,52 38,57 29.4,52 29.4,42" fill="none" stroke="#39FF14" stroke-width="1" opacity="0.06272152998213837"/>
<polygon points="842,145 850.6,150 850.6,160 842,165 833.4,160 833.4,150" fill="none" stroke="#39FF14" stroke-width="1" opacity="0.05447790361905719"/>
<polygon points="58,183 66.6,188 66.6,198 58,203 49.4,198 49.4,188" fill="none" stroke="#39FF14" stroke-width="1" opacity="0.055955042074466624"/>
<polygon points="246,109 254.6,114 254.6,124 246,129 237.4,124 237.4,114" fill="none" stroke="#39FF14" stroke-width="1" opacity="0.023457835644351836"/>
<polygon points="613,109 621.6,114 621.6,124 613,129 604.4,124 604.4,114" fill="none" stroke="#39FF14" stroke-width="1" opacity="0.03908648085235249"/>
<polygon points="337,104 345.6,109 345.6,119 337,124 328.4,119 328.4,109" fill="none" stroke="#39FF14" stroke-width="1" opacity="0.07341189649759987"/>
<polygon points="844,110 852.6,115 852.6,125 844,130 835.4,125 835.4,115" fill="none" stroke="#39FF14" stroke-width="1" opacity="0.03625086220388322"/>
<polygon points="687,38 695.6,43 695.6,53 687,58 678.4,53 678.4,43" fill="none" stroke="#39FF14" stroke-width="1" opacity="0.06689729064010379"/>
<polygon points="557,17 565.6,22 565.6,32 557,37 548.4,32 548.4,22" fill="none" stroke="#39FF14" stroke-width="1" opacity="0.05103102781121184"/>
<polygon points="736,58 744.6,63 744.6,73 736,78 727.4,73 727.4,63" fill="none" stroke="#39FF14" stroke-width="1" opacity="0.047320757704397656"/>
<polygon points="185,73 193.6,78 193.6,88 185,93 176.4,88 176.4,78" fill="none" stroke="#39FF14" stroke-width="1" opacity="0.04479999289960557"/>
<polygon points="482,93 490.6,98 490.6,108 482,113 473.4,108 473.4,98" fill="none" stroke="#39FF14" stroke-width="1" opacity="0.06407187919524417"/>
<polygon points="281,81 289.6,86 289.6,96 281,101 272.4,96 272.4,86" fill="none" stroke="#39FF14" stroke-width="1" opacity="0.06980683242975413"/>
<polygon points="335,49 343.6,54 343.6,64 335,69 326.4,64 326.4,54" fill="none" stroke="#39FF14" stroke-width="1" opacity="0.034612227818162394"/>
<polygon points="419,104 427.6,109 427.6,119 419,124 410.4,119 410.4,109" fill="none" stroke="#39FF14" stroke-width="1" opacity="0.07195722445929548"/>
<polygon points="438,78 446.6,83 446.6,93 438,98 429.4,93 429.4,83" fill="none" stroke="#39FF14" stroke-width="1" opacity="0.025422828204441292"/>
<polygon points="667,130 675.6,135 675.6,145 667,150 658.4,145 658.4,135" fill="none" stroke="#39FF14" stroke-width="1" opacity="0.046320315941723894"/>
<polygon points="839,90 847.6,95 847.6,105 839,110 830.4,105 830.4,95" fill="none" stroke="#39FF14" stroke-width="1" opacity="0.05563444651307531"/>
<polygon points="319,145 327.6,150 327.6,160 319,165 310.4,160 310.4,150" fill="none" stroke="#39FF14" stroke-width="1" opacity="0.0754267066373383"/>
<polygon points="108,144 116.6,149 116.6,159 108,164 99.4,159 99.4,149" fill="none" stroke="#39FF14" stroke-width="1" opacity="0.06345972061671538"/>
<polygon points="650,17 658.6,22 658.6,32 650,37 641.4,32 641.4,22" fill="none" stroke="#39FF14" stroke-width="1" opacity="0.04006108701232503"/>
</g>

  <!-- HUD Decorative elements -->
  <path d="M 20 20 L 40 20 L 50 30" fill="none" stroke="#39FF14" stroke-width="2" opacity="0.5"/>
  <path d="M 830 180 L 810 180 L 800 170" fill="none" stroke="#39FF14" stroke-width="2" opacity="0.5"/>

  <g clip-path="url(#dashClip)">
    <rect x="-160" y="0" width="160" height="200" fill="url(#scanlineGrad)">
      <animateTransform attributeName="transform" type="translate"
                        from="0 0" to="1010 0" dur="6s" repeatCount="indefinite"/>
    </rect>
  </g>

  <g font-family="'Consolas', 'Fira Code', monospace" text-anchor="middle">

    <!-- NETWORK STATUS -->
    <g transform="translate(130, 100)">
        <circle cx="0" cy="0" r="45" fill="none" stroke="#39FF14" stroke-width="2" stroke-dasharray="10 5">
            <animateTransform attributeName="transform" type="rotate" from="0" to="360" dur="10s" repeatCount="indefinite"/>
        </circle>
        <circle cx="0" cy="0" r="35" fill="#0d0d0d" />
        <text x="0" y="-60" font-size="12" fill="#aaaaaa" letter-spacing="2">ROOT.AUTH</text>
        <text x="0" y="70" font-size="14" fill="#ffffff" font-weight="bold">OPERATIONAL</text>
    </g>

    <!-- ACTIVE USERS -->
    <g transform="translate(330, 100)">
        <text x="0" y="-20" font-size="12" fill="#aaaaaa">CITIZENS</text>
        <text x="0" y="15" font-size="28" fill="#ffffff" font-weight="bold" filter="url(#textGlow)">13,620</text>
        <text x="0" y="35" font-size="10" fill="#777777">VERIFIED HUMANS</text>
    </g>

    <!-- REGISTERED AGENTS -->
    <g transform="translate(530, 100)">
        <text x="0" y="-20" font-size="12" fill="#aaaaaa">AGENTS</text>
        <text x="0" y="15" font-size="28" fill="#00d4ff" font-weight="bold" filter="url(#textGlow)">4,593</text>
        <text x="0" y="35" font-size="10" fill="#777777">REGISTERED DIDs</text>
    </g>

    <!-- TRANSACTIONS -->
    <g transform="translate(730, 100)">
        <text x="0" y="-20" font-size="12" fill="#aaaaaa">TRANSFERS</text>
        <text x="0" y="15" font-size="28" fill="#ffffff" font-weight="bold">35,430</text>
        <text x="0" y="35" font-size="10" fill="#777777">M2M SETTLEMENTS</text>
    </g>
  </g>

  <text x="425" y="185" font-family="'Consolas', 'Fira Code', monospace" font-size="10" fill="#aaaaaa" opacity="0.6" text-anchor="middle">AXIOMID PROJECTED TARGETS (ILLUSTRATIVE): 2026-07-17 18:52:27 UTC // SECURE_HANDSHAKE</text>
</svg>