<svg width="850" height="200" viewBox="0 0 850 200" xmlns="http://www.w3.org/2000/svg">
  <defs>
    <pattern id="carbonFiber" width="10" height="10" patternUnits="userSpaceOnUse">
        <rect width="10" height="10" fill="#050505"/>
        <path d="M0,0 L5,5 L10,0 L5,-5 Z M5,5 L10,10 L15,5 L10,0 Z M-5,5 L0,10 L5,5 L0,0 Z M0,10 L5,15 L10,10 L5,5 Z" fill="#0d0d0d"/>
    </pattern>
    <filter id="textGlow">
      <feGaussianBlur stdDeviation="2" result="blur" />
      <feMerge>
        <feMergeNode in="blur"/>
        <feMergeNode in="SourceGraphic"/>
      </feMerge>
    </filter>
    <linearGradient id="neonBar" x1="0%" y1="0%" x2="100%" y2="0%">
        <stop offset="0%" stop-color="#111111"/>
        <stop offset="100%" stop-color="#39FF14"/>
    </linearGradient>
    <linearGradient id="scanlineGrad" x1="0%" y1="0%" x2="100%" y2="0%">
        <stop offset="0%" stop-color="#39FF14" stop-opacity="0"/>
        <stop offset="50%" stop-color="#39FF14" stop-opacity="0.18"/>
        <stop offset="100%" stop-color="#39FF14" stop-opacity="0"/>
    </linearGradient>
    <clipPath id="dashClip">
        <rect x="0" y="0" width="850" height="200" rx="12"/>
    </clipPath>
  </defs>

  <rect width="100%" height="100%" fill="url(#carbonFiber)" rx="12" stroke="#39FF14" stroke-width="1" stroke-opacity="0.3"/>
  <rect width="100%" height="100%" fill="#000000" opacity="0.6" rx="12" />
  <g><polygon points="347,-2 355.6,3 355.6,13 347,18 338.4,13 338.4,3" fill="none" stroke="#39FF14" stroke-width="1" opacity="0.04049805656159686"/>
<polygon points="309,143 317.6,148 317.6,158 309,163 300.4,158 300.4,148" fill="none" stroke="#39FF14" stroke-width="1" opacity="0.07352446673142844"/>
<polygon points="4,75 12.6,80 12.6,90 4,95 -4.6,90 -4.6,80" fill="none" stroke="#39FF14" stroke-width="1" opacity="0.03251733803478069"/>
<polygon points="179,176 187.6,181 187.6,191 179,196 170.4,191 170.4,181" fill="none" stroke="#39FF14" stroke-width="1" opacity="0.07847793217351492"/>
<polygon points="800,123 808.6,128 808.6,138 800,143 791.4,138 791.4,128" fill="none" stroke="#39FF14" stroke-width="1" opacity="0.05005121035070749"/>
<polygon points="525,127 533.6,132 533.6,142 525,147 516.4,142 516.4,132" fill="none" stroke="#39FF14" stroke-width="1" opacity="0.0270655083309843"/>
<polygon points="10,21 18.6,26 18.6,36 10,41 1.4000000000000004,36 1.4000000000000004,26" fill="none" stroke="#39FF14" stroke-width="1" opacity="0.04159974254789116"/>
<polygon points="219,51 227.6,56 227.6,66 219,71 210.4,66 210.4,56" fill="none" stroke="#39FF14" stroke-width="1" opacity="0.0569523117392645"/>
<polygon points="577,109 585.6,114 585.6,124 577,129 568.4,124 568.4,114" fill="none" stroke="#39FF14" stroke-width="1" opacity="0.0571328160749401"/>
<polygon points="317,71 325.6,76 325.6,86 317,91 308.4,86 308.4,76" fill="none" stroke="#39FF14" stroke-width="1" opacity="0.032294522711544205"/>
<polygon points="400,47 408.6,52 408.6,62 400,67 391.4,62 391.4,52" fill="none" stroke="#39FF14" stroke-width="1" opacity="0.024400162229122845"/>
<polygon points="452,73 460.6,78 460.6,88 452,93 443.4,88 443.4,78" fill="none" stroke="#39FF14" stroke-width="1" opacity="0.023445666028953708"/>
<polygon points="134,94 142.6,99 142.6,109 134,114 125.4,109 125.4,99" fill="none" stroke="#39FF14" stroke-width="1" opacity="0.03647947445379798"/>
<polygon points="673,63 681.6,68 681.6,78 673,83 664.4,78 664.4,68" fill="none" stroke="#39FF14" stroke-width="1" opacity="0.04020741176866411"/>
<polygon points="10,41 18.6,46 18.6,56 10,61 1.4000000000000004,56 1.4000000000000004,46" fill="none" stroke="#39FF14" stroke-width="1" opacity="0.06007943087748116"/>
<polygon points="271,164 279.6,169 279.6,179 271,184 262.4,179 262.4,169" fill="none" stroke="#39FF14" stroke-width="1" opacity="0.059491145431081846"/>
<polygon points="85,104 93.6,109 93.6,119 85,124 76.4,119 76.4,109" fill="none" stroke="#39FF14" stroke-width="1" opacity="0.04515550586912262"/>
<polygon points="55,160 63.6,165 63.6,175 55,180 46.4,175 46.4,165" fill="none" stroke="#39FF14" stroke-width="1" opacity="0.06417687750661119"/>
<polygon points="512,33 520.6,38 520.6,48 512,53 503.4,48 503.4,38" fill="none" stroke="#39FF14" stroke-width="1" opacity="0.052831608576962494"/>
<polygon points="193,95 201.6,100 201.6,110 193,115 184.4,110 184.4,100" fill="none" stroke="#39FF14" stroke-width="1" opacity="0.05713712598844814"/>
<polygon points="86,100 94.6,105 94.6,115 86,120 77.4,115 77.4,105" fill="none" stroke="#39FF14" stroke-width="1" opacity="0.03818330113783312"/>
<polygon points="646,165 654.6,170 654.6,180 646,185 637.4,180 637.4,170" fill="none" stroke="#39FF14" stroke-width="1" opacity="0.05843215592439706"/>
<polygon points="447,78 455.6,83 455.6,93 447,98 438.4,93 438.4,83" fill="none" stroke="#39FF14" stroke-width="1" opacity="0.04920644806438024"/>
<polygon points="112,86 120.6,91 120.6,101 112,106 103.4,101 103.4,91" fill="none" stroke="#39FF14" stroke-width="1" opacity="0.032711100910513755"/>
<polygon points="709,115 717.6,120 717.6,130 709,135 700.4,130 700.4,120" fill="none" stroke="#39FF14" stroke-width="1" opacity="0.05790158684155086"/>
<polygon points="92,6 100.6,11 100.6,21 92,26 83.4,21 83.4,11" fill="none" stroke="#39FF14" stroke-width="1" opacity="0.06476701124897337"/>
<polygon points="648,-4 656.6,1 656.6,11 648,16 639.4,11 639.4,1" fill="none" stroke="#39FF14" stroke-width="1" opacity="0.025854039208430598"/>
<polygon points="734,110 742.6,115 742.6,125 734,130 725.4,125 725.4,115" fill="none" stroke="#39FF14" stroke-width="1" opacity="0.07423618593909746"/>
<polygon points="327,7 335.6,12 335.6,22 327,27 318.4,22 318.4,12" fill="none" stroke="#39FF14" stroke-width="1" opacity="0.04014925929358423"/>
<polygon points="448,136 456.6,141 456.6,151 448,156 439.4,151 439.4,141" fill="none" stroke="#39FF14" stroke-width="1" opacity="0.03135319508792596"/>
</g>

  <!-- HUD Decorative elements -->
  <path d="M 20 20 L 40 20 L 50 30" fill="none" stroke="#39FF14" stroke-width="2" opacity="0.5"/>
  <path d="M 830 180 L 810 180 L 800 170" fill="none" stroke="#39FF14" stroke-width="2" opacity="0.5"/>

  <g clip-path="url(#dashClip)">
    <rect x="-160" y="0" width="160" height="200" fill="url(#scanlineGrad)">
      <animateTransform attributeName="transform" type="translate"
                        from="0 0" to="1010 0" dur="6s" repeatCount="indefinite"/>
    </rect>
  </g>

  <g font-family="'Consolas', 'Fira Code', monospace" text-anchor="middle">

    <!-- NETWORK STATUS -->
    <g transform="translate(130, 100)">
        <circle cx="0" cy="0" r="45" fill="none" stroke="#39FF14" stroke-width="2" stroke-dasharray="10 5">
            <animateTransform attributeName="transform" type="rotate" from="0" to="360" dur="10s" repeatCount="indefinite"/>
        </circle>
        <circle cx="0" cy="0" r="35" fill="#0d0d0d" />
        <text x="0" y="-60" font-size="12" fill="#aaaaaa" letter-spacing="2">ROOT.AUTH</text>
        <text x="0" y="70" font-size="14" fill="#ffffff" font-weight="bold">OPERATIONAL</text>
    </g>

    <!-- ACTIVE USERS -->
    <g transform="translate(330, 100)">
        <text x="0" y="-20" font-size="12" fill="#aaaaaa">CITIZENS</text>
        <text x="0" y="15" font-size="28" fill="#ffffff" font-weight="bold" filter="url(#textGlow)">13,870</text>
        <text x="0" y="35" font-size="10" fill="#777777">VERIFIED HUMANS</text>
    </g>

    <!-- REGISTERED AGENTS -->
    <g transform="translate(530, 100)">
        <text x="0" y="-20" font-size="12" fill="#aaaaaa">AGENTS</text>
        <text x="0" y="15" font-size="28" fill="#00d4ff" font-weight="bold" filter="url(#textGlow)">3,246</text>
        <text x="0" y="35" font-size="10" fill="#777777">REGISTERED DIDs</text>
    </g>

    <!-- TRANSACTIONS -->
    <g transform="translate(730, 100)">
        <text x="0" y="-20" font-size="12" fill="#aaaaaa">TRANSFERS</text>
        <text x="0" y="15" font-size="28" fill="#ffffff" font-weight="bold">35,655</text>
        <text x="0" y="35" font-size="10" fill="#777777">M2M SETTLEMENTS</text>
    </g>
  </g>

  <text x="425" y="185" font-family="'Consolas', 'Fira Code', monospace" font-size="10" fill="#aaaaaa" opacity="0.6" text-anchor="middle">AXIOMID PROJECTED TARGETS (ILLUSTRATIVE): 2026-07-23 16:19:23 UTC // SECURE_HANDSHAKE</text>
</svg>