<svg width="850" height="200" viewBox="0 0 850 200" xmlns="http://www.w3.org/2000/svg">
  <defs>
    <pattern id="carbonFiber" width="10" height="10" patternUnits="userSpaceOnUse">
        <rect width="10" height="10" fill="#050505"/>
        <path d="M0,0 L5,5 L10,0 L5,-5 Z M5,5 L10,10 L15,5 L10,0 Z M-5,5 L0,10 L5,5 L0,0 Z M0,10 L5,15 L10,10 L5,5 Z" fill="#0d0d0d"/>
    </pattern>
    <filter id="textGlow">
      <feGaussianBlur stdDeviation="2" result="blur" />
      <feMerge>
        <feMergeNode in="blur"/>
        <feMergeNode in="SourceGraphic"/>
      </feMerge>
    </filter>
    <linearGradient id="neonBar" x1="0%" y1="0%" x2="100%" y2="0%">
        <stop offset="0%" stop-color="#111111"/>
        <stop offset="100%" stop-color="#39FF14"/>
    </linearGradient>
    <linearGradient id="scanlineGrad" x1="0%" y1="0%" x2="100%" y2="0%">
        <stop offset="0%" stop-color="#39FF14" stop-opacity="0"/>
        <stop offset="50%" stop-color="#39FF14" stop-opacity="0.18"/>
        <stop offset="100%" stop-color="#39FF14" stop-opacity="0"/>
    </linearGradient>
    <clipPath id="dashClip">
        <rect x="0" y="0" width="850" height="200" rx="12"/>
    </clipPath>
  </defs>

  <rect width="100%" height="100%" fill="url(#carbonFiber)" rx="12" stroke="#39FF14" stroke-width="1" stroke-opacity="0.3"/>
  <rect width="100%" height="100%" fill="#000000" opacity="0.6" rx="12" />
  <g><polygon points="434,44 442.6,49 442.6,59 434,64 425.4,59 425.4,49" fill="none" stroke="#39FF14" stroke-width="1" opacity="0.04795279208966234"/>
<polygon points="812,62 820.6,67 820.6,77 812,82 803.4,77 803.4,67" fill="none" stroke="#39FF14" stroke-width="1" opacity="0.03504739199531518"/>
<polygon points="848,125 856.6,130 856.6,140 848,145 839.4,140 839.4,130" fill="none" stroke="#39FF14" stroke-width="1" opacity="0.02690042888710641"/>
<polygon points="821,190 829.6,195 829.6,205 821,210 812.4,205 812.4,195" fill="none" stroke="#39FF14" stroke-width="1" opacity="0.03481894856893805"/>
<polygon points="718,57 726.6,62 726.6,72 718,77 709.4,72 709.4,62" fill="none" stroke="#39FF14" stroke-width="1" opacity="0.03642836566499989"/>
<polygon points="749,170 757.6,175 757.6,185 749,190 740.4,185 740.4,175" fill="none" stroke="#39FF14" stroke-width="1" opacity="0.02206829998571251"/>
<polygon points="445,12 453.6,17 453.6,27 445,32 436.4,27 436.4,17" fill="none" stroke="#39FF14" stroke-width="1" opacity="0.028577540237136947"/>
<polygon points="149,111 157.6,116 157.6,126 149,131 140.4,126 140.4,116" fill="none" stroke="#39FF14" stroke-width="1" opacity="0.02371702639236163"/>
<polygon points="37,148 45.6,153 45.6,163 37,168 28.4,163 28.4,153" fill="none" stroke="#39FF14" stroke-width="1" opacity="0.03592029106311859"/>
<polygon points="152,143 160.6,148 160.6,158 152,163 143.4,158 143.4,148" fill="none" stroke="#39FF14" stroke-width="1" opacity="0.041600178023419226"/>
<polygon points="328,134 336.6,139 336.6,149 328,154 319.4,149 319.4,139" fill="none" stroke="#39FF14" stroke-width="1" opacity="0.06192654929923731"/>
<polygon points="225,94 233.6,99 233.6,109 225,114 216.4,109 216.4,99" fill="none" stroke="#39FF14" stroke-width="1" opacity="0.06333872991430368"/>
<polygon points="523,81 531.6,86 531.6,96 523,101 514.4,96 514.4,86" fill="none" stroke="#39FF14" stroke-width="1" opacity="0.07189350472190577"/>
<polygon points="320,154 328.6,159 328.6,169 320,174 311.4,169 311.4,159" fill="none" stroke="#39FF14" stroke-width="1" opacity="0.03127288057450584"/>
<polygon points="556,169 564.6,174 564.6,184 556,189 547.4,184 547.4,174" fill="none" stroke="#39FF14" stroke-width="1" opacity="0.020425200338874645"/>
<polygon points="19,87 27.6,92 27.6,102 19,107 10.4,102 10.4,92" fill="none" stroke="#39FF14" stroke-width="1" opacity="0.06749448723250054"/>
<polygon points="267,12 275.6,17 275.6,27 267,32 258.4,27 258.4,17" fill="none" stroke="#39FF14" stroke-width="1" opacity="0.04161644369750654"/>
<polygon points="68,13 76.6,18 76.6,28 68,33 59.4,28 59.4,18" fill="none" stroke="#39FF14" stroke-width="1" opacity="0.021112202997285424"/>
<polygon points="449,76 457.6,81 457.6,91 449,96 440.4,91 440.4,81" fill="none" stroke="#39FF14" stroke-width="1" opacity="0.06356282984654077"/>
<polygon points="383,153 391.6,158 391.6,168 383,173 374.4,168 374.4,158" fill="none" stroke="#39FF14" stroke-width="1" opacity="0.03319190927743704"/>
<polygon points="504,168 512.6,173 512.6,183 504,188 495.4,183 495.4,173" fill="none" stroke="#39FF14" stroke-width="1" opacity="0.07555209309279684"/>
<polygon points="218,157 226.6,162 226.6,172 218,177 209.4,172 209.4,162" fill="none" stroke="#39FF14" stroke-width="1" opacity="0.0271285814677586"/>
<polygon points="510,34 518.6,39 518.6,49 510,54 501.4,49 501.4,39" fill="none" stroke="#39FF14" stroke-width="1" opacity="0.04403704794942327"/>
<polygon points="732,15 740.6,20 740.6,30 732,35 723.4,30 723.4,20" fill="none" stroke="#39FF14" stroke-width="1" opacity="0.0757549212258996"/>
<polygon points="84,-2 92.6,3 92.6,13 84,18 75.4,13 75.4,3" fill="none" stroke="#39FF14" stroke-width="1" opacity="0.05590297337839757"/>
<polygon points="153,101 161.6,106 161.6,116 153,121 144.4,116 144.4,106" fill="none" stroke="#39FF14" stroke-width="1" opacity="0.03674555907637002"/>
<polygon points="109,126 117.6,131 117.6,141 109,146 100.4,141 100.4,131" fill="none" stroke="#39FF14" stroke-width="1" opacity="0.02356844526774906"/>
<polygon points="16,129 24.6,134 24.6,144 16,149 7.4,144 7.4,134" fill="none" stroke="#39FF14" stroke-width="1" opacity="0.036513340217628844"/>
<polygon points="649,48 657.6,53 657.6,63 649,68 640.4,63 640.4,53" fill="none" stroke="#39FF14" stroke-width="1" opacity="0.06875689611121692"/>
<polygon points="83,176 91.6,181 91.6,191 83,196 74.4,191 74.4,181" fill="none" stroke="#39FF14" stroke-width="1" opacity="0.07662273673980782"/>
</g>

  <!-- HUD Decorative elements -->
  <path d="M 20 20 L 40 20 L 50 30" fill="none" stroke="#39FF14" stroke-width="2" opacity="0.5"/>
  <path d="M 830 180 L 810 180 L 800 170" fill="none" stroke="#39FF14" stroke-width="2" opacity="0.5"/>

  <g clip-path="url(#dashClip)">
    <rect x="-160" y="0" width="160" height="200" fill="url(#scanlineGrad)">
      <animateTransform attributeName="transform" type="translate"
                        from="0 0" to="1010 0" dur="6s" repeatCount="indefinite"/>
    </rect>
  </g>

  <g font-family="'Consolas', 'Fira Code', monospace" text-anchor="middle">

    <!-- NETWORK STATUS -->
    <g transform="translate(130, 100)">
        <circle cx="0" cy="0" r="45" fill="none" stroke="#39FF14" stroke-width="2" stroke-dasharray="10 5">
            <animateTransform attributeName="transform" type="rotate" from="0" to="360" dur="10s" repeatCount="indefinite"/>
        </circle>
        <circle cx="0" cy="0" r="35" fill="#0d0d0d" />
        <text x="0" y="-60" font-size="12" fill="#aaaaaa" letter-spacing="2">ROOT.AUTH</text>
        <text x="0" y="70" font-size="14" fill="#ffffff" font-weight="bold">OPERATIONAL</text>
    </g>

    <!-- ACTIVE USERS -->
    <g transform="translate(330, 100)">
        <text x="0" y="-20" font-size="12" fill="#aaaaaa">CITIZENS</text>
        <text x="0" y="15" font-size="28" fill="#ffffff" font-weight="bold" filter="url(#textGlow)">15,425</text>
        <text x="0" y="35" font-size="10" fill="#777777">VERIFIED HUMANS</text>
    </g>

    <!-- REGISTERED AGENTS -->
    <g transform="translate(530, 100)">
        <text x="0" y="-20" font-size="12" fill="#aaaaaa">AGENTS</text>
        <text x="0" y="15" font-size="28" fill="#00d4ff" font-weight="bold" filter="url(#textGlow)">3,102</text>
        <text x="0" y="35" font-size="10" fill="#777777">REGISTERED DIDs</text>
    </g>

    <!-- TRANSACTIONS -->
    <g transform="translate(730, 100)">
        <text x="0" y="-20" font-size="12" fill="#aaaaaa">TRANSFERS</text>
        <text x="0" y="15" font-size="28" fill="#ffffff" font-weight="bold">28,216</text>
        <text x="0" y="35" font-size="10" fill="#777777">M2M SETTLEMENTS</text>
    </g>
  </g>

  <text x="425" y="185" font-family="'Consolas', 'Fira Code', monospace" font-size="10" fill="#aaaaaa" opacity="0.6" text-anchor="middle">AXIOMID PROJECTED TARGETS (ILLUSTRATIVE): 2026-07-01 12:53:37 UTC // SECURE_HANDSHAKE</text>
</svg>