<svg width="850" height="200" viewBox="0 0 850 200" xmlns="http://www.w3.org/2000/svg">
  <defs>
    <pattern id="carbonFiber" width="10" height="10" patternUnits="userSpaceOnUse">
        <rect width="10" height="10" fill="#050505"/>
        <path d="M0,0 L5,5 L10,0 L5,-5 Z M5,5 L10,10 L15,5 L10,0 Z M-5,5 L0,10 L5,5 L0,0 Z M0,10 L5,15 L10,10 L5,5 Z" fill="#0d0d0d"/>
    </pattern>
    <filter id="textGlow">
      <feGaussianBlur stdDeviation="2" result="blur" />
      <feMerge>
        <feMergeNode in="blur"/>
        <feMergeNode in="SourceGraphic"/>
      </feMerge>
    </filter>
    <linearGradient id="neonBar" x1="0%" y1="0%" x2="100%" y2="0%">
        <stop offset="0%" stop-color="#111111"/>
        <stop offset="100%" stop-color="#39FF14"/>
    </linearGradient>
    <linearGradient id="scanlineGrad" x1="0%" y1="0%" x2="100%" y2="0%">
        <stop offset="0%" stop-color="#39FF14" stop-opacity="0"/>
        <stop offset="50%" stop-color="#39FF14" stop-opacity="0.18"/>
        <stop offset="100%" stop-color="#39FF14" stop-opacity="0"/>
    </linearGradient>
    <clipPath id="dashClip">
        <rect x="0" y="0" width="850" height="200" rx="12"/>
    </clipPath>
  </defs>

  <rect width="100%" height="100%" fill="url(#carbonFiber)" rx="12" stroke="#39FF14" stroke-width="1" stroke-opacity="0.3"/>
  <rect width="100%" height="100%" fill="#000000" opacity="0.6" rx="12" />
  <g><polygon points="550,8 558.6,13 558.6,23 550,28 541.4,23 541.4,13" fill="none" stroke="#39FF14" stroke-width="1" opacity="0.04848720633323335"/>
<polygon points="528,-5 536.6,0 536.6,10 528,15 519.4,10 519.4,0" fill="none" stroke="#39FF14" stroke-width="1" opacity="0.03784469479897095"/>
<polygon points="776,91 784.6,96 784.6,106 776,111 767.4,106 767.4,96" fill="none" stroke="#39FF14" stroke-width="1" opacity="0.06952593447888789"/>
<polygon points="679,2 687.6,7 687.6,17 679,22 670.4,17 670.4,7" fill="none" stroke="#39FF14" stroke-width="1" opacity="0.03323325785280744"/>
<polygon points="357,108 365.6,113 365.6,123 357,128 348.4,123 348.4,113" fill="none" stroke="#39FF14" stroke-width="1" opacity="0.06265220107033705"/>
<polygon points="460,142 468.6,147 468.6,157 460,162 451.4,157 451.4,147" fill="none" stroke="#39FF14" stroke-width="1" opacity="0.026169652370703764"/>
<polygon points="751,6 759.6,11 759.6,21 751,26 742.4,21 742.4,11" fill="none" stroke="#39FF14" stroke-width="1" opacity="0.021765263398285575"/>
<polygon points="669,123 677.6,128 677.6,138 669,143 660.4,138 660.4,128" fill="none" stroke="#39FF14" stroke-width="1" opacity="0.05314044314069448"/>
<polygon points="728,68 736.6,73 736.6,83 728,88 719.4,83 719.4,73" fill="none" stroke="#39FF14" stroke-width="1" opacity="0.036918957816449605"/>
<polygon points="395,146 403.6,151 403.6,161 395,166 386.4,161 386.4,151" fill="none" stroke="#39FF14" stroke-width="1" opacity="0.025464240832329843"/>
<polygon points="833,85 841.6,90 841.6,100 833,105 824.4,100 824.4,90" fill="none" stroke="#39FF14" stroke-width="1" opacity="0.06464049151943954"/>
<polygon points="505,22 513.6,27 513.6,37 505,42 496.4,37 496.4,27" fill="none" stroke="#39FF14" stroke-width="1" opacity="0.06421401510129586"/>
<polygon points="58,39 66.6,44 66.6,54 58,59 49.4,54 49.4,44" fill="none" stroke="#39FF14" stroke-width="1" opacity="0.06766987655880297"/>
<polygon points="840,171 848.6,176 848.6,186 840,191 831.4,186 831.4,176" fill="none" stroke="#39FF14" stroke-width="1" opacity="0.042237530286088176"/>
<polygon points="61,149 69.6,154 69.6,164 61,169 52.4,164 52.4,154" fill="none" stroke="#39FF14" stroke-width="1" opacity="0.026512149235526198"/>
<polygon points="67,164 75.6,169 75.6,179 67,184 58.4,179 58.4,169" fill="none" stroke="#39FF14" stroke-width="1" opacity="0.0693403485379134"/>
<polygon points="478,42 486.6,47 486.6,57 478,62 469.4,57 469.4,47" fill="none" stroke="#39FF14" stroke-width="1" opacity="0.026809044185203353"/>
<polygon points="845,146 853.6,151 853.6,161 845,166 836.4,161 836.4,151" fill="none" stroke="#39FF14" stroke-width="1" opacity="0.02165576061012952"/>
<polygon points="843,56 851.6,61 851.6,71 843,76 834.4,71 834.4,61" fill="none" stroke="#39FF14" stroke-width="1" opacity="0.07015925566406477"/>
<polygon points="260,44 268.6,49 268.6,59 260,64 251.4,59 251.4,49" fill="none" stroke="#39FF14" stroke-width="1" opacity="0.02635983595101844"/>
<polygon points="511,-1 519.6,4 519.6,14 511,19 502.4,14 502.4,4" fill="none" stroke="#39FF14" stroke-width="1" opacity="0.04872052184267785"/>
<polygon points="36,179 44.6,184 44.6,194 36,199 27.4,194 27.4,184" fill="none" stroke="#39FF14" stroke-width="1" opacity="0.04328678281972775"/>
<polygon points="113,63 121.6,68 121.6,78 113,83 104.4,78 104.4,68" fill="none" stroke="#39FF14" stroke-width="1" opacity="0.04247860272108679"/>
<polygon points="683,188 691.6,193 691.6,203 683,208 674.4,203 674.4,193" fill="none" stroke="#39FF14" stroke-width="1" opacity="0.021014765720244515"/>
<polygon points="841,150 849.6,155 849.6,165 841,170 832.4,165 832.4,155" fill="none" stroke="#39FF14" stroke-width="1" opacity="0.06052780766667931"/>
<polygon points="691,51 699.6,56 699.6,66 691,71 682.4,66 682.4,56" fill="none" stroke="#39FF14" stroke-width="1" opacity="0.031201628980178038"/>
<polygon points="798,105 806.6,110 806.6,120 798,125 789.4,120 789.4,110" fill="none" stroke="#39FF14" stroke-width="1" opacity="0.0789712515825206"/>
<polygon points="33,161 41.6,166 41.6,176 33,181 24.4,176 24.4,166" fill="none" stroke="#39FF14" stroke-width="1" opacity="0.0529949927925924"/>
<polygon points="536,34 544.6,39 544.6,49 536,54 527.4,49 527.4,39" fill="none" stroke="#39FF14" stroke-width="1" opacity="0.0273052020956387"/>
<polygon points="669,128 677.6,133 677.6,143 669,148 660.4,143 660.4,133" fill="none" stroke="#39FF14" stroke-width="1" opacity="0.028932419640636843"/>
</g>

  <!-- HUD Decorative elements -->
  <path d="M 20 20 L 40 20 L 50 30" fill="none" stroke="#39FF14" stroke-width="2" opacity="0.5"/>
  <path d="M 830 180 L 810 180 L 800 170" fill="none" stroke="#39FF14" stroke-width="2" opacity="0.5"/>

  <g clip-path="url(#dashClip)">
    <rect x="-160" y="0" width="160" height="200" fill="url(#scanlineGrad)">
      <animateTransform attributeName="transform" type="translate"
                        from="0 0" to="1010 0" dur="6s" repeatCount="indefinite"/>
    </rect>
  </g>

  <g font-family="'Consolas', 'Fira Code', monospace" text-anchor="middle">

    <!-- NETWORK STATUS -->
    <g transform="translate(130, 100)">
        <circle cx="0" cy="0" r="45" fill="none" stroke="#39FF14" stroke-width="2" stroke-dasharray="10 5">
            <animateTransform attributeName="transform" type="rotate" from="0" to="360" dur="10s" repeatCount="indefinite"/>
        </circle>
        <circle cx="0" cy="0" r="35" fill="#0d0d0d" />
        <text x="0" y="-60" font-size="12" fill="#aaaaaa" letter-spacing="2">ROOT.AUTH</text>
        <text x="0" y="70" font-size="14" fill="#ffffff" font-weight="bold">OPERATIONAL</text>
    </g>

    <!-- ACTIVE USERS -->
    <g transform="translate(330, 100)">
        <text x="0" y="-20" font-size="12" fill="#aaaaaa">CITIZENS</text>
        <text x="0" y="15" font-size="28" fill="#ffffff" font-weight="bold" filter="url(#textGlow)">13,594</text>
        <text x="0" y="35" font-size="10" fill="#777777">VERIFIED HUMANS</text>
    </g>

    <!-- REGISTERED AGENTS -->
    <g transform="translate(530, 100)">
        <text x="0" y="-20" font-size="12" fill="#aaaaaa">AGENTS</text>
        <text x="0" y="15" font-size="28" fill="#00d4ff" font-weight="bold" filter="url(#textGlow)">4,277</text>
        <text x="0" y="35" font-size="10" fill="#777777">REGISTERED DIDs</text>
    </g>

    <!-- TRANSACTIONS -->
    <g transform="translate(730, 100)">
        <text x="0" y="-20" font-size="12" fill="#aaaaaa">TRANSFERS</text>
        <text x="0" y="15" font-size="28" fill="#ffffff" font-weight="bold">27,211</text>
        <text x="0" y="35" font-size="10" fill="#777777">M2M SETTLEMENTS</text>
    </g>
  </g>

  <text x="425" y="185" font-family="'Consolas', 'Fira Code', monospace" font-size="10" fill="#aaaaaa" opacity="0.6" text-anchor="middle">AXIOMID PROJECTED TARGETS (ILLUSTRATIVE): 2026-07-10 11:42:45 UTC // SECURE_HANDSHAKE</text>
</svg>