<svg width="850" height="200" viewBox="0 0 850 200" xmlns="http://www.w3.org/2000/svg">
  <defs>
    <pattern id="carbonFiber" width="10" height="10" patternUnits="userSpaceOnUse">
        <rect width="10" height="10" fill="#050505"/>
        <path d="M0,0 L5,5 L10,0 L5,-5 Z M5,5 L10,10 L15,5 L10,0 Z M-5,5 L0,10 L5,5 L0,0 Z M0,10 L5,15 L10,10 L5,5 Z" fill="#0d0d0d"/>
    </pattern>
    <filter id="textGlow">
      <feGaussianBlur stdDeviation="2" result="blur" />
      <feMerge>
        <feMergeNode in="blur"/>
        <feMergeNode in="SourceGraphic"/>
      </feMerge>
    </filter>
    <linearGradient id="neonBar" x1="0%" y1="0%" x2="100%" y2="0%">
        <stop offset="0%" stop-color="#111111"/>
        <stop offset="100%" stop-color="#39FF14"/>
    </linearGradient>
    <linearGradient id="scanlineGrad" x1="0%" y1="0%" x2="100%" y2="0%">
        <stop offset="0%" stop-color="#39FF14" stop-opacity="0"/>
        <stop offset="50%" stop-color="#39FF14" stop-opacity="0.18"/>
        <stop offset="100%" stop-color="#39FF14" stop-opacity="0"/>
    </linearGradient>
    <clipPath id="dashClip">
        <rect x="0" y="0" width="850" height="200" rx="12"/>
    </clipPath>
  </defs>

  <rect width="100%" height="100%" fill="url(#carbonFiber)" rx="12" stroke="#39FF14" stroke-width="1" stroke-opacity="0.3"/>
  <rect width="100%" height="100%" fill="#000000" opacity="0.6" rx="12" />
  <g><polygon points="635,-1 643.6,4 643.6,14 635,19 626.4,14 626.4,4" fill="none" stroke="#39FF14" stroke-width="1" opacity="0.03998596831177906"/>
<polygon points="470,166 478.6,171 478.6,181 470,186 461.4,181 461.4,171" fill="none" stroke="#39FF14" stroke-width="1" opacity="0.05312342835419713"/>
<polygon points="779,49 787.6,54 787.6,64 779,69 770.4,64 770.4,54" fill="none" stroke="#39FF14" stroke-width="1" opacity="0.06928942934404397"/>
<polygon points="628,30 636.6,35 636.6,45 628,50 619.4,45 619.4,35" fill="none" stroke="#39FF14" stroke-width="1" opacity="0.05980906169579525"/>
<polygon points="763,2 771.6,7 771.6,17 763,22 754.4,17 754.4,7" fill="none" stroke="#39FF14" stroke-width="1" opacity="0.04815898042079593"/>
<polygon points="698,38 706.6,43 706.6,53 698,58 689.4,53 689.4,43" fill="none" stroke="#39FF14" stroke-width="1" opacity="0.04926829558657035"/>
<polygon points="687,152 695.6,157 695.6,167 687,172 678.4,167 678.4,157" fill="none" stroke="#39FF14" stroke-width="1" opacity="0.07836566614586667"/>
<polygon points="394,55 402.6,60 402.6,70 394,75 385.4,70 385.4,60" fill="none" stroke="#39FF14" stroke-width="1" opacity="0.025019944472497346"/>
<polygon points="292,141 300.6,146 300.6,156 292,161 283.4,156 283.4,146" fill="none" stroke="#39FF14" stroke-width="1" opacity="0.022744614318435007"/>
<polygon points="235,105 243.6,110 243.6,120 235,125 226.4,120 226.4,110" fill="none" stroke="#39FF14" stroke-width="1" opacity="0.045103628100151796"/>
<polygon points="609,187 617.6,192 617.6,202 609,207 600.4,202 600.4,192" fill="none" stroke="#39FF14" stroke-width="1" opacity="0.04382363154126157"/>
<polygon points="733,9 741.6,14 741.6,24 733,29 724.4,24 724.4,14" fill="none" stroke="#39FF14" stroke-width="1" opacity="0.05115308147185163"/>
<polygon points="638,182 646.6,187 646.6,197 638,202 629.4,197 629.4,187" fill="none" stroke="#39FF14" stroke-width="1" opacity="0.034136406932050826"/>
<polygon points="774,96 782.6,101 782.6,111 774,116 765.4,111 765.4,101" fill="none" stroke="#39FF14" stroke-width="1" opacity="0.07112322119440374"/>
<polygon points="16,26 24.6,31 24.6,41 16,46 7.4,41 7.4,31" fill="none" stroke="#39FF14" stroke-width="1" opacity="0.03776648208166493"/>
<polygon points="194,35 202.6,40 202.6,50 194,55 185.4,50 185.4,40" fill="none" stroke="#39FF14" stroke-width="1" opacity="0.04750333528445795"/>
<polygon points="419,21 427.6,26 427.6,36 419,41 410.4,36 410.4,26" fill="none" stroke="#39FF14" stroke-width="1" opacity="0.0683431558724038"/>
<polygon points="86,137 94.6,142 94.6,152 86,157 77.4,152 77.4,142" fill="none" stroke="#39FF14" stroke-width="1" opacity="0.05507718308703269"/>
<polygon points="310,29 318.6,34 318.6,44 310,49 301.4,44 301.4,34" fill="none" stroke="#39FF14" stroke-width="1" opacity="0.05185638030787443"/>
<polygon points="52,152 60.6,157 60.6,167 52,172 43.4,167 43.4,157" fill="none" stroke="#39FF14" stroke-width="1" opacity="0.02266326735051962"/>
<polygon points="583,-6 591.6,-1 591.6,9 583,14 574.4,9 574.4,-1" fill="none" stroke="#39FF14" stroke-width="1" opacity="0.02568669888600134"/>
<polygon points="278,141 286.6,146 286.6,156 278,161 269.4,156 269.4,146" fill="none" stroke="#39FF14" stroke-width="1" opacity="0.05577502547410798"/>
<polygon points="49,61 57.6,66 57.6,76 49,81 40.4,76 40.4,66" fill="none" stroke="#39FF14" stroke-width="1" opacity="0.02311924995448922"/>
<polygon points="514,115 522.6,120 522.6,130 514,135 505.4,130 505.4,120" fill="none" stroke="#39FF14" stroke-width="1" opacity="0.0714406317978748"/>
<polygon points="465,-10 473.6,-5 473.6,5 465,10 456.4,5 456.4,-5" fill="none" stroke="#39FF14" stroke-width="1" opacity="0.05498517194245818"/>
<polygon points="5,29 13.6,34 13.6,44 5,49 -3.5999999999999996,44 -3.5999999999999996,34" fill="none" stroke="#39FF14" stroke-width="1" opacity="0.07738808877873142"/>
<polygon points="295,12 303.6,17 303.6,27 295,32 286.4,27 286.4,17" fill="none" stroke="#39FF14" stroke-width="1" opacity="0.03261589435375204"/>
<polygon points="465,23 473.6,28 473.6,38 465,43 456.4,38 456.4,28" fill="none" stroke="#39FF14" stroke-width="1" opacity="0.07382996529440318"/>
<polygon points="338,0 346.6,5 346.6,15 338,20 329.4,15 329.4,5" fill="none" stroke="#39FF14" stroke-width="1" opacity="0.04540196894475882"/>
<polygon points="708,178 716.6,183 716.6,193 708,198 699.4,193 699.4,183" fill="none" stroke="#39FF14" stroke-width="1" opacity="0.052535168148195616"/>
</g>

  <!-- HUD Decorative elements -->
  <path d="M 20 20 L 40 20 L 50 30" fill="none" stroke="#39FF14" stroke-width="2" opacity="0.5"/>
  <path d="M 830 180 L 810 180 L 800 170" fill="none" stroke="#39FF14" stroke-width="2" opacity="0.5"/>

  <g clip-path="url(#dashClip)">
    <rect x="-160" y="0" width="160" height="200" fill="url(#scanlineGrad)">
      <animateTransform attributeName="transform" type="translate"
                        from="0 0" to="1010 0" dur="6s" repeatCount="indefinite"/>
    </rect>
  </g>

  <g font-family="'Consolas', 'Fira Code', monospace" text-anchor="middle">

    <!-- NETWORK STATUS -->
    <g transform="translate(130, 100)">
        <circle cx="0" cy="0" r="45" fill="none" stroke="#39FF14" stroke-width="2" stroke-dasharray="10 5">
            <animateTransform attributeName="transform" type="rotate" from="0" to="360" dur="10s" repeatCount="indefinite"/>
        </circle>
        <circle cx="0" cy="0" r="35" fill="#0d0d0d" />
        <text x="0" y="-60" font-size="12" fill="#aaaaaa" letter-spacing="2">ROOT.AUTH</text>
        <text x="0" y="70" font-size="14" fill="#ffffff" font-weight="bold">OPERATIONAL</text>
    </g>

    <!-- ACTIVE USERS -->
    <g transform="translate(330, 100)">
        <text x="0" y="-20" font-size="12" fill="#aaaaaa">CITIZENS</text>
        <text x="0" y="15" font-size="28" fill="#ffffff" font-weight="bold" filter="url(#textGlow)">15,091</text>
        <text x="0" y="35" font-size="10" fill="#777777">VERIFIED HUMANS</text>
    </g>

    <!-- REGISTERED AGENTS -->
    <g transform="translate(530, 100)">
        <text x="0" y="-20" font-size="12" fill="#aaaaaa">AGENTS</text>
        <text x="0" y="15" font-size="28" fill="#00d4ff" font-weight="bold" filter="url(#textGlow)">4,049</text>
        <text x="0" y="35" font-size="10" fill="#777777">REGISTERED DIDs</text>
    </g>

    <!-- TRANSACTIONS -->
    <g transform="translate(730, 100)">
        <text x="0" y="-20" font-size="12" fill="#aaaaaa">TRANSFERS</text>
        <text x="0" y="15" font-size="28" fill="#ffffff" font-weight="bold">30,539</text>
        <text x="0" y="35" font-size="10" fill="#777777">M2M SETTLEMENTS</text>
    </g>
  </g>

  <text x="425" y="185" font-family="'Consolas', 'Fira Code', monospace" font-size="10" fill="#aaaaaa" opacity="0.6" text-anchor="middle">AXIOMID PROJECTED TARGETS (ILLUSTRATIVE): 2026-09-01 13:47:41 UTC // SECURE_HANDSHAKE</text>
</svg>