<svg width="850" height="200" viewBox="0 0 850 200" xmlns="http://www.w3.org/2000/svg">
  <defs>
    <pattern id="carbonFiber" width="10" height="10" patternUnits="userSpaceOnUse">
        <rect width="10" height="10" fill="#050505"/>
        <path d="M0,0 L5,5 L10,0 L5,-5 Z M5,5 L10,10 L15,5 L10,0 Z M-5,5 L0,10 L5,5 L0,0 Z M0,10 L5,15 L10,10 L5,5 Z" fill="#0d0d0d"/>
    </pattern>
    <filter id="textGlow">
      <feGaussianBlur stdDeviation="2" result="blur" />
      <feMerge>
        <feMergeNode in="blur"/>
        <feMergeNode in="SourceGraphic"/>
      </feMerge>
    </filter>
    <linearGradient id="neonBar" x1="0%" y1="0%" x2="100%" y2="0%">
        <stop offset="0%" stop-color="#111111"/>
        <stop offset="100%" stop-color="#39FF14"/>
    </linearGradient>
    <linearGradient id="scanlineGrad" x1="0%" y1="0%" x2="100%" y2="0%">
        <stop offset="0%" stop-color="#39FF14" stop-opacity="0"/>
        <stop offset="50%" stop-color="#39FF14" stop-opacity="0.18"/>
        <stop offset="100%" stop-color="#39FF14" stop-opacity="0"/>
    </linearGradient>
    <clipPath id="dashClip">
        <rect x="0" y="0" width="850" height="200" rx="12"/>
    </clipPath>
  </defs>

  <rect width="100%" height="100%" fill="url(#carbonFiber)" rx="12" stroke="#39FF14" stroke-width="1" stroke-opacity="0.3"/>
  <rect width="100%" height="100%" fill="#000000" opacity="0.6" rx="12" />
  <g><polygon points="778,68 786.6,73 786.6,83 778,88 769.4,83 769.4,73" fill="none" stroke="#39FF14" stroke-width="1" opacity="0.06843189075532177"/>
<polygon points="246,26 254.6,31 254.6,41 246,46 237.4,41 237.4,31" fill="none" stroke="#39FF14" stroke-width="1" opacity="0.026568661535432955"/>
<polygon points="545,1 553.6,6 553.6,16 545,21 536.4,16 536.4,6" fill="none" stroke="#39FF14" stroke-width="1" opacity="0.06845382161437716"/>
<polygon points="722,180 730.6,185 730.6,195 722,200 713.4,195 713.4,185" fill="none" stroke="#39FF14" stroke-width="1" opacity="0.0516041687000002"/>
<polygon points="841,104 849.6,109 849.6,119 841,124 832.4,119 832.4,109" fill="none" stroke="#39FF14" stroke-width="1" opacity="0.03632395162365069"/>
<polygon points="478,108 486.6,113 486.6,123 478,128 469.4,123 469.4,113" fill="none" stroke="#39FF14" stroke-width="1" opacity="0.026550094075145678"/>
<polygon points="724,0 732.6,5 732.6,15 724,20 715.4,15 715.4,5" fill="none" stroke="#39FF14" stroke-width="1" opacity="0.03622531290748378"/>
<polygon points="27,58 35.6,63 35.6,73 27,78 18.4,73 18.4,63" fill="none" stroke="#39FF14" stroke-width="1" opacity="0.07380851758963901"/>
<polygon points="273,19 281.6,24 281.6,34 273,39 264.4,34 264.4,24" fill="none" stroke="#39FF14" stroke-width="1" opacity="0.020222552018977165"/>
<polygon points="411,184 419.6,189 419.6,199 411,204 402.4,199 402.4,189" fill="none" stroke="#39FF14" stroke-width="1" opacity="0.04461062523434517"/>
<polygon points="49,148 57.6,153 57.6,163 49,168 40.4,163 40.4,153" fill="none" stroke="#39FF14" stroke-width="1" opacity="0.023042136371402396"/>
<polygon points="605,186 613.6,191 613.6,201 605,206 596.4,201 596.4,191" fill="none" stroke="#39FF14" stroke-width="1" opacity="0.02617157342832495"/>
<polygon points="260,145 268.6,150 268.6,160 260,165 251.4,160 251.4,150" fill="none" stroke="#39FF14" stroke-width="1" opacity="0.05032029998963422"/>
<polygon points="46,133 54.6,138 54.6,148 46,153 37.4,148 37.4,138" fill="none" stroke="#39FF14" stroke-width="1" opacity="0.038262963615175824"/>
<polygon points="319,16 327.6,21 327.6,31 319,36 310.4,31 310.4,21" fill="none" stroke="#39FF14" stroke-width="1" opacity="0.021537316087767218"/>
<polygon points="22,99 30.6,104 30.6,114 22,119 13.4,114 13.4,104" fill="none" stroke="#39FF14" stroke-width="1" opacity="0.07457508566327055"/>
<polygon points="404,75 412.6,80 412.6,90 404,95 395.4,90 395.4,80" fill="none" stroke="#39FF14" stroke-width="1" opacity="0.027905104338917342"/>
<polygon points="695,5 703.6,10 703.6,20 695,25 686.4,20 686.4,10" fill="none" stroke="#39FF14" stroke-width="1" opacity="0.03088429518135987"/>
<polygon points="90,98 98.6,103 98.6,113 90,118 81.4,113 81.4,103" fill="none" stroke="#39FF14" stroke-width="1" opacity="0.03582085452601884"/>
<polygon points="107,127 115.6,132 115.6,142 107,147 98.4,142 98.4,132" fill="none" stroke="#39FF14" stroke-width="1" opacity="0.028574203958345742"/>
<polygon points="752,13 760.6,18 760.6,28 752,33 743.4,28 743.4,18" fill="none" stroke="#39FF14" stroke-width="1" opacity="0.03874958082023081"/>
<polygon points="281,72 289.6,77 289.6,87 281,92 272.4,87 272.4,77" fill="none" stroke="#39FF14" stroke-width="1" opacity="0.07527020904232878"/>
<polygon points="213,107 221.6,112 221.6,122 213,127 204.4,122 204.4,112" fill="none" stroke="#39FF14" stroke-width="1" opacity="0.06490899238914165"/>
<polygon points="74,57 82.6,62 82.6,72 74,77 65.4,72 65.4,62" fill="none" stroke="#39FF14" stroke-width="1" opacity="0.06486038295748722"/>
<polygon points="22,98 30.6,103 30.6,113 22,118 13.4,113 13.4,103" fill="none" stroke="#39FF14" stroke-width="1" opacity="0.0730978803211752"/>
<polygon points="146,0 154.6,5 154.6,15 146,20 137.4,15 137.4,5" fill="none" stroke="#39FF14" stroke-width="1" opacity="0.07494814893605876"/>
<polygon points="663,139 671.6,144 671.6,154 663,159 654.4,154 654.4,144" fill="none" stroke="#39FF14" stroke-width="1" opacity="0.026875662281029167"/>
<polygon points="544,170 552.6,175 552.6,185 544,190 535.4,185 535.4,175" fill="none" stroke="#39FF14" stroke-width="1" opacity="0.04692854673668405"/>
<polygon points="264,50 272.6,55 272.6,65 264,70 255.4,65 255.4,55" fill="none" stroke="#39FF14" stroke-width="1" opacity="0.05163587163806024"/>
<polygon points="188,150 196.6,155 196.6,165 188,170 179.4,165 179.4,155" fill="none" stroke="#39FF14" stroke-width="1" opacity="0.024728205725114864"/>
</g>

  <!-- HUD Decorative elements -->
  <path d="M 20 20 L 40 20 L 50 30" fill="none" stroke="#39FF14" stroke-width="2" opacity="0.5"/>
  <path d="M 830 180 L 810 180 L 800 170" fill="none" stroke="#39FF14" stroke-width="2" opacity="0.5"/>

  <g clip-path="url(#dashClip)">
    <rect x="-160" y="0" width="160" height="200" fill="url(#scanlineGrad)">
      <animateTransform attributeName="transform" type="translate"
                        from="0 0" to="1010 0" dur="6s" repeatCount="indefinite"/>
    </rect>
  </g>

  <g font-family="'Consolas', 'Fira Code', monospace" text-anchor="middle">

    <!-- NETWORK STATUS -->
    <g transform="translate(130, 100)">
        <circle cx="0" cy="0" r="45" fill="none" stroke="#39FF14" stroke-width="2" stroke-dasharray="10 5">
            <animateTransform attributeName="transform" type="rotate" from="0" to="360" dur="10s" repeatCount="indefinite"/>
        </circle>
        <circle cx="0" cy="0" r="35" fill="#0d0d0d" />
        <text x="0" y="-60" font-size="12" fill="#aaaaaa" letter-spacing="2">ROOT.AUTH</text>
        <text x="0" y="70" font-size="14" fill="#ffffff" font-weight="bold">OPERATIONAL</text>
    </g>

    <!-- ACTIVE USERS -->
    <g transform="translate(330, 100)">
        <text x="0" y="-20" font-size="12" fill="#aaaaaa">CITIZENS</text>
        <text x="0" y="15" font-size="28" fill="#ffffff" font-weight="bold" filter="url(#textGlow)">13,560</text>
        <text x="0" y="35" font-size="10" fill="#777777">VERIFIED HUMANS</text>
    </g>

    <!-- REGISTERED AGENTS -->
    <g transform="translate(530, 100)">
        <text x="0" y="-20" font-size="12" fill="#aaaaaa">AGENTS</text>
        <text x="0" y="15" font-size="28" fill="#00d4ff" font-weight="bold" filter="url(#textGlow)">3,188</text>
        <text x="0" y="35" font-size="10" fill="#777777">REGISTERED DIDs</text>
    </g>

    <!-- TRANSACTIONS -->
    <g transform="translate(730, 100)">
        <text x="0" y="-20" font-size="12" fill="#aaaaaa">TRANSFERS</text>
        <text x="0" y="15" font-size="28" fill="#ffffff" font-weight="bold">28,211</text>
        <text x="0" y="35" font-size="10" fill="#777777">M2M SETTLEMENTS</text>
    </g>
  </g>

  <text x="425" y="185" font-family="'Consolas', 'Fira Code', monospace" font-size="10" fill="#aaaaaa" opacity="0.6" text-anchor="middle">AXIOMID PROJECTED TARGETS (ILLUSTRATIVE): 2026-07-11 05:31:50 UTC // SECURE_HANDSHAKE</text>
</svg>