<svg width="850" height="200" viewBox="0 0 850 200" xmlns="http://www.w3.org/2000/svg">
  <defs>
    <!-- Carbon Fiber Pattern -->
    <pattern id="carbonFiber" width="10" height="10" patternUnits="userSpaceOnUse">
        <rect width="10" height="10" fill="#050505"/>
        <path d="M0,0 L5,5 L10,0 L5,-5 Z M5,5 L10,10 L15,5 L10,0 Z M-5,5 L0,10 L5,5 L0,0 Z M0,10 L5,15 L10,10 L5,5 Z" fill="#0d0d0d"/>
    </pattern>
    <filter id="glassmorphism">
      <feGaussianBlur stdDeviation="3" result="blur" />
      <feColorMatrix type="matrix" values="1 0 0 0 0  0 1 0 0 0  0 0 1 0 0  0 0 0 18 -7" result="glow" />
      <feBlend in="SourceGraphic" in2="glow" mode="normal" />
    </filter>
    <filter id="textGlow">
      <feGaussianBlur stdDeviation="2" result="blur" />
      <feMerge>
        <feMergeNode in="blur"/>
        <feMergeNode in="SourceGraphic"/>
      </feMerge>
    </filter>
    <linearGradient id="neonBar" x1="0%" y1="0%" x2="100%" y2="0%">
        <stop offset="0%" stop-color="#111111"/>
        <stop offset="100%" stop-color="#39FF14"/>
    </linearGradient>
  </defs>

  <rect width="100%" height="100%" fill="url(#carbonFiber)" rx="12" stroke="#39FF14" stroke-width="1" stroke-opacity="0.3"/>
  <rect width="100%" height="100%" fill="#000000" opacity="0.6" rx="12" />
  <g><polygon points="322,177 330.6,182 330.6,192 322,197 313.4,192 313.4,182" fill="none" stroke="#39FF14" stroke-width="1" opacity="0.02729925264348891"/>
<polygon points="82,48 90.6,53 90.6,63 82,68 73.4,63 73.4,53" fill="none" stroke="#39FF14" stroke-width="1" opacity="0.037076539711218055"/>
<polygon points="221,154 229.6,159 229.6,169 221,174 212.4,169 212.4,159" fill="none" stroke="#39FF14" stroke-width="1" opacity="0.05910842769953052"/>
<polygon points="214,14 222.6,19 222.6,29 214,34 205.4,29 205.4,19" fill="none" stroke="#39FF14" stroke-width="1" opacity="0.02257923640677424"/>
<polygon points="582,3 590.6,8 590.6,18 582,23 573.4,18 573.4,8" fill="none" stroke="#39FF14" stroke-width="1" opacity="0.023701249389836546"/>
<polygon points="305,165 313.6,170 313.6,180 305,185 296.4,180 296.4,170" fill="none" stroke="#39FF14" stroke-width="1" opacity="0.06372501485277975"/>
<polygon points="126,36 134.6,41 134.6,51 126,56 117.4,51 117.4,41" fill="none" stroke="#39FF14" stroke-width="1" opacity="0.06270632538873673"/>
<polygon points="445,32 453.6,37 453.6,47 445,52 436.4,47 436.4,37" fill="none" stroke="#39FF14" stroke-width="1" opacity="0.07451805819223328"/>
<polygon points="50,77 58.6,82 58.6,92 50,97 41.4,92 41.4,82" fill="none" stroke="#39FF14" stroke-width="1" opacity="0.034818027865781406"/>
<polygon points="519,3 527.6,8 527.6,18 519,23 510.4,18 510.4,8" fill="none" stroke="#39FF14" stroke-width="1" opacity="0.0772071853138238"/>
<polygon points="546,25 554.6,30 554.6,40 546,45 537.4,40 537.4,30" fill="none" stroke="#39FF14" stroke-width="1" opacity="0.04164734851048888"/>
<polygon points="139,172 147.6,177 147.6,187 139,192 130.4,187 130.4,177" fill="none" stroke="#39FF14" stroke-width="1" opacity="0.040510808802172414"/>
<polygon points="665,172 673.6,177 673.6,187 665,192 656.4,187 656.4,177" fill="none" stroke="#39FF14" stroke-width="1" opacity="0.03593515288671288"/>
<polygon points="344,172 352.6,177 352.6,187 344,192 335.4,187 335.4,177" fill="none" stroke="#39FF14" stroke-width="1" opacity="0.04136743502505126"/>
<polygon points="508,133 516.6,138 516.6,148 508,153 499.4,148 499.4,138" fill="none" stroke="#39FF14" stroke-width="1" opacity="0.03526002445017367"/>
<polygon points="519,137 527.6,142 527.6,152 519,157 510.4,152 510.4,142" fill="none" stroke="#39FF14" stroke-width="1" opacity="0.02239063111144083"/>
<polygon points="238,164 246.6,169 246.6,179 238,184 229.4,179 229.4,169" fill="none" stroke="#39FF14" stroke-width="1" opacity="0.038126919145703805"/>
<polygon points="557,35 565.6,40 565.6,50 557,55 548.4,50 548.4,40" fill="none" stroke="#39FF14" stroke-width="1" opacity="0.05117825743672185"/>
<polygon points="424,75 432.6,80 432.6,90 424,95 415.4,90 415.4,80" fill="none" stroke="#39FF14" stroke-width="1" opacity="0.060779375781176787"/>
<polygon points="460,18 468.6,23 468.6,33 460,38 451.4,33 451.4,23" fill="none" stroke="#39FF14" stroke-width="1" opacity="0.022375055020014675"/>
<polygon points="1,-3 9.6,2 9.6,12 1,17 -7.6,12 -7.6,2" fill="none" stroke="#39FF14" stroke-width="1" opacity="0.06601813111974139"/>
<polygon points="303,64 311.6,69 311.6,79 303,84 294.4,79 294.4,69" fill="none" stroke="#39FF14" stroke-width="1" opacity="0.0592673706868347"/>
<polygon points="571,23 579.6,28 579.6,38 571,43 562.4,38 562.4,28" fill="none" stroke="#39FF14" stroke-width="1" opacity="0.061686096372379276"/>
<polygon points="258,170 266.6,175 266.6,185 258,190 249.4,185 249.4,175" fill="none" stroke="#39FF14" stroke-width="1" opacity="0.06420181271775256"/>
<polygon points="576,29 584.6,34 584.6,44 576,49 567.4,44 567.4,34" fill="none" stroke="#39FF14" stroke-width="1" opacity="0.05751970506391982"/>
<polygon points="468,53 476.6,58 476.6,68 468,73 459.4,68 459.4,58" fill="none" stroke="#39FF14" stroke-width="1" opacity="0.031575483951495856"/>
<polygon points="665,56 673.6,61 673.6,71 665,76 656.4,71 656.4,61" fill="none" stroke="#39FF14" stroke-width="1" opacity="0.05452316132578387"/>
<polygon points="475,3 483.6,8 483.6,18 475,23 466.4,18 466.4,8" fill="none" stroke="#39FF14" stroke-width="1" opacity="0.05219855882813744"/>
<polygon points="850,130 858.6,135 858.6,145 850,150 841.4,145 841.4,135" fill="none" stroke="#39FF14" stroke-width="1" opacity="0.05343398948829099"/>
<polygon points="41,148 49.6,153 49.6,163 41,168 32.4,163 32.4,153" fill="none" stroke="#39FF14" stroke-width="1" opacity="0.053931852586462894"/>
</g>

  <!-- HUD Decorative elements -->
  <path d="M 20 20 L 40 20 L 50 30" fill="none" stroke="#39FF14" stroke-width="2" opacity="0.5"/>
  <path d="M 830 180 L 810 180 L 800 170" fill="none" stroke="#39FF14" stroke-width="2" opacity="0.5"/>
  <rect x="20" y="100" width="2" height="40" fill="#ffffff" opacity="0.4"/>
  <rect x="828" y="60" width="2" height="40" fill="#39FF14" opacity="0.6"/>

  <g font-family="'Consolas', 'Fira Code', monospace" text-anchor="middle">

    <!-- SYSTEM STATUS -->
    <g transform="translate(130, 100)">
        <circle cx="0" cy="0" r="45" fill="none" stroke="#111111" stroke-width="8" />
        <circle cx="0" cy="0" r="45" fill="none" stroke="#39FF14" stroke-width="2" stroke-dasharray="10 5">
            <animateTransform attributeName="transform" type="rotate" from="0" to="360" dur="10s" repeatCount="indefinite"/>
        </circle>
        <circle cx="0" cy="0" r="35" fill="#0d0d0d" />
        <circle cx="0" cy="0" r="6" fill="#39FF14" filter="url(#textGlow)">
            <animate attributeName="opacity" values="1;0.3;1" dur="2s" repeatCount="indefinite"/>
        </circle>
        <text x="0" y="-60" font-size="12" fill="#aaaaaa" letter-spacing="2">SYS.CORE</text>
        <text x="0" y="70" font-size="14" fill="#ffffff" font-weight="bold">ONLINE</text>
    </g>

    <!-- LIVE TRAFFIC -->
    <g transform="translate(330, 100)">
        <rect x="-60" y="-45" width="120" height="90" fill="#0a0a0a" rx="8" stroke="#39FF14" stroke-opacity="0.4" stroke-width="1"/>
        <text x="0" y="-20" font-size="12" fill="#aaaaaa">NETWORK LOAD</text>
        <text x="0" y="15" font-size="28" fill="#ffffff" font-weight="bold" filter="url(#textGlow)">4571</text>
        <text x="0" y="35" font-size="10" fill="#777777">ACTIVE SESSIONS</text>
    </g>

    <!-- ACTIVE AGENTS -->
    <g transform="translate(530, 100)">
        <rect x="-60" y="-45" width="120" height="90" fill="#0a0a0a" rx="8" stroke="#39FF14" stroke-opacity="0.4" stroke-width="1"/>
        <text x="0" y="-20" font-size="12" fill="#aaaaaa">SWARM ENTITIES</text>
        <text x="0" y="15" font-size="28" fill="#ffffff" font-weight="bold" filter="url(#textGlow)">181</text>
        <text x="0" y="35" font-size="10" fill="#777777">AUTONOMOUS</text>
    </g>

    <!-- UPTIME -->
    <g transform="translate(730, 100)">
        <path d="M -40 -35 L 40 -35 L 50 -25 L 50 35 L -40 35 L -50 25 Z" fill="#0a0a0a" stroke="#39FF14" stroke-opacity="0.4" stroke-width="1"/>
        <text x="0" y="-15" font-size="12" fill="#aaaaaa">CONTINUITY</text>
        <text x="0" y="15" font-size="24" fill="#ffffff" font-weight="bold">262<tspan font-size="14" fill="#777777">d</tspan></text>
        <rect x="-35" y="25" width="70" height="4" fill="url(#neonBar)" rx="2"/>
    </g>
  </g>

  <text x="425" y="185" font-family="'Consolas', 'Fira Code', monospace" font-size="10" fill="#aaaaaa" opacity="0.6" text-anchor="middle">LAST TELEMETRY PING: 2026-05-13 00:53:49 UTC // ENCRYPTED_TUNNEL</text>
</svg>