<svg width="850" height="200" viewBox="0 0 850 200" xmlns="http://www.w3.org/2000/svg">
  <defs>
    <pattern id="carbonFiber" width="10" height="10" patternUnits="userSpaceOnUse">
        <rect width="10" height="10" fill="#050505"/>
        <path d="M0,0 L5,5 L10,0 L5,-5 Z M5,5 L10,10 L15,5 L10,0 Z M-5,5 L0,10 L5,5 L0,0 Z M0,10 L5,15 L10,10 L5,5 Z" fill="#0d0d0d"/>
    </pattern>
    <filter id="textGlow">
      <feGaussianBlur stdDeviation="2" result="blur" />
      <feMerge>
        <feMergeNode in="blur"/>
        <feMergeNode in="SourceGraphic"/>
      </feMerge>
    </filter>
    <linearGradient id="neonBar" x1="0%" y1="0%" x2="100%" y2="0%">
        <stop offset="0%" stop-color="#111111"/>
        <stop offset="100%" stop-color="#39FF14"/>
    </linearGradient>
    <linearGradient id="scanlineGrad" x1="0%" y1="0%" x2="100%" y2="0%">
        <stop offset="0%" stop-color="#39FF14" stop-opacity="0"/>
        <stop offset="50%" stop-color="#39FF14" stop-opacity="0.18"/>
        <stop offset="100%" stop-color="#39FF14" stop-opacity="0"/>
    </linearGradient>
    <clipPath id="dashClip">
        <rect x="0" y="0" width="850" height="200" rx="12"/>
    </clipPath>
  </defs>

  <rect width="100%" height="100%" fill="url(#carbonFiber)" rx="12" stroke="#39FF14" stroke-width="1" stroke-opacity="0.3"/>
  <rect width="100%" height="100%" fill="#000000" opacity="0.6" rx="12" />
  <g><polygon points="137,138 145.6,143 145.6,153 137,158 128.4,153 128.4,143" fill="none" stroke="#39FF14" stroke-width="1" opacity="0.025893775913027533"/>
<polygon points="113,87 121.6,92 121.6,102 113,107 104.4,102 104.4,92" fill="none" stroke="#39FF14" stroke-width="1" opacity="0.0772501105279834"/>
<polygon points="292,37 300.6,42 300.6,52 292,57 283.4,52 283.4,42" fill="none" stroke="#39FF14" stroke-width="1" opacity="0.05735716840473426"/>
<polygon points="132,55 140.6,60 140.6,70 132,75 123.4,70 123.4,60" fill="none" stroke="#39FF14" stroke-width="1" opacity="0.07287631907762751"/>
<polygon points="253,104 261.6,109 261.6,119 253,124 244.4,119 244.4,109" fill="none" stroke="#39FF14" stroke-width="1" opacity="0.025801645721457604"/>
<polygon points="427,14 435.6,19 435.6,29 427,34 418.4,29 418.4,19" fill="none" stroke="#39FF14" stroke-width="1" opacity="0.07883679402429487"/>
<polygon points="225,78 233.6,83 233.6,93 225,98 216.4,93 216.4,83" fill="none" stroke="#39FF14" stroke-width="1" opacity="0.039254154436915045"/>
<polygon points="506,32 514.6,37 514.6,47 506,52 497.4,47 497.4,37" fill="none" stroke="#39FF14" stroke-width="1" opacity="0.05576067637693312"/>
<polygon points="60,160 68.6,165 68.6,175 60,180 51.4,175 51.4,165" fill="none" stroke="#39FF14" stroke-width="1" opacity="0.07245940123339181"/>
<polygon points="663,34 671.6,39 671.6,49 663,54 654.4,49 654.4,39" fill="none" stroke="#39FF14" stroke-width="1" opacity="0.07743002394091754"/>
<polygon points="329,161 337.6,166 337.6,176 329,181 320.4,176 320.4,166" fill="none" stroke="#39FF14" stroke-width="1" opacity="0.03890981037568521"/>
<polygon points="248,70 256.6,75 256.6,85 248,90 239.4,85 239.4,75" fill="none" stroke="#39FF14" stroke-width="1" opacity="0.022501225209370423"/>
<polygon points="727,113 735.6,118 735.6,128 727,133 718.4,128 718.4,118" fill="none" stroke="#39FF14" stroke-width="1" opacity="0.03908667931012044"/>
<polygon points="119,162 127.6,167 127.6,177 119,182 110.4,177 110.4,167" fill="none" stroke="#39FF14" stroke-width="1" opacity="0.02559209836614317"/>
<polygon points="656,146 664.6,151 664.6,161 656,166 647.4,161 647.4,151" fill="none" stroke="#39FF14" stroke-width="1" opacity="0.059222146076503585"/>
<polygon points="693,40 701.6,45 701.6,55 693,60 684.4,55 684.4,45" fill="none" stroke="#39FF14" stroke-width="1" opacity="0.0652672770308666"/>
<polygon points="697,88 705.6,93 705.6,103 697,108 688.4,103 688.4,93" fill="none" stroke="#39FF14" stroke-width="1" opacity="0.04745146260387241"/>
<polygon points="619,86 627.6,91 627.6,101 619,106 610.4,101 610.4,91" fill="none" stroke="#39FF14" stroke-width="1" opacity="0.0591625161472438"/>
<polygon points="189,74 197.6,79 197.6,89 189,94 180.4,89 180.4,79" fill="none" stroke="#39FF14" stroke-width="1" opacity="0.02239797261894263"/>
<polygon points="675,71 683.6,76 683.6,86 675,91 666.4,86 666.4,76" fill="none" stroke="#39FF14" stroke-width="1" opacity="0.04346014057224652"/>
<polygon points="100,148 108.6,153 108.6,163 100,168 91.4,163 91.4,153" fill="none" stroke="#39FF14" stroke-width="1" opacity="0.05397357061273468"/>
<polygon points="283,-2 291.6,3 291.6,13 283,18 274.4,13 274.4,3" fill="none" stroke="#39FF14" stroke-width="1" opacity="0.07286698585070399"/>
<polygon points="311,176 319.6,181 319.6,191 311,196 302.4,191 302.4,181" fill="none" stroke="#39FF14" stroke-width="1" opacity="0.05365150623353858"/>
<polygon points="53,20 61.6,25 61.6,35 53,40 44.4,35 44.4,25" fill="none" stroke="#39FF14" stroke-width="1" opacity="0.034991032841434754"/>
<polygon points="166,-10 174.6,-5 174.6,5 166,10 157.4,5 157.4,-5" fill="none" stroke="#39FF14" stroke-width="1" opacity="0.03626506183792577"/>
<polygon points="94,108 102.6,113 102.6,123 94,128 85.4,123 85.4,113" fill="none" stroke="#39FF14" stroke-width="1" opacity="0.04132811662837381"/>
<polygon points="258,65 266.6,70 266.6,80 258,85 249.4,80 249.4,70" fill="none" stroke="#39FF14" stroke-width="1" opacity="0.03055701991626024"/>
<polygon points="771,102 779.6,107 779.6,117 771,122 762.4,117 762.4,107" fill="none" stroke="#39FF14" stroke-width="1" opacity="0.052913274750944775"/>
<polygon points="144,94 152.6,99 152.6,109 144,114 135.4,109 135.4,99" fill="none" stroke="#39FF14" stroke-width="1" opacity="0.045096006459245636"/>
<polygon points="377,94 385.6,99 385.6,109 377,114 368.4,109 368.4,99" fill="none" stroke="#39FF14" stroke-width="1" opacity="0.044487384568498295"/>
</g>

  <!-- HUD Decorative elements -->
  <path d="M 20 20 L 40 20 L 50 30" fill="none" stroke="#39FF14" stroke-width="2" opacity="0.5"/>
  <path d="M 830 180 L 810 180 L 800 170" fill="none" stroke="#39FF14" stroke-width="2" opacity="0.5"/>

  <g clip-path="url(#dashClip)">
    <rect x="-160" y="0" width="160" height="200" fill="url(#scanlineGrad)">
      <animateTransform attributeName="transform" type="translate"
                        from="0 0" to="1010 0" dur="6s" repeatCount="indefinite"/>
    </rect>
  </g>

  <g font-family="'Consolas', 'Fira Code', monospace" text-anchor="middle">

    <!-- NETWORK STATUS -->
    <g transform="translate(130, 100)">
        <circle cx="0" cy="0" r="45" fill="none" stroke="#39FF14" stroke-width="2" stroke-dasharray="10 5">
            <animateTransform attributeName="transform" type="rotate" from="0" to="360" dur="10s" repeatCount="indefinite"/>
        </circle>
        <circle cx="0" cy="0" r="35" fill="#0d0d0d" />
        <text x="0" y="-60" font-size="12" fill="#aaaaaa" letter-spacing="2">ROOT.AUTH</text>
        <text x="0" y="70" font-size="14" fill="#ffffff" font-weight="bold">OPERATIONAL</text>
    </g>

    <!-- ACTIVE USERS -->
    <g transform="translate(330, 100)">
        <text x="0" y="-20" font-size="12" fill="#aaaaaa">CITIZENS</text>
        <text x="0" y="15" font-size="28" fill="#ffffff" font-weight="bold" filter="url(#textGlow)">12,440</text>
        <text x="0" y="35" font-size="10" fill="#777777">VERIFIED HUMANS</text>
    </g>

    <!-- REGISTERED AGENTS -->
    <g transform="translate(530, 100)">
        <text x="0" y="-20" font-size="12" fill="#aaaaaa">AGENTS</text>
        <text x="0" y="15" font-size="28" fill="#00d4ff" font-weight="bold" filter="url(#textGlow)">4,312</text>
        <text x="0" y="35" font-size="10" fill="#777777">REGISTERED DIDs</text>
    </g>

    <!-- TRANSACTIONS -->
    <g transform="translate(730, 100)">
        <text x="0" y="-20" font-size="12" fill="#aaaaaa">TRANSFERS</text>
        <text x="0" y="15" font-size="28" fill="#ffffff" font-weight="bold">25,651</text>
        <text x="0" y="35" font-size="10" fill="#777777">M2M SETTLEMENTS</text>
    </g>
  </g>

  <text x="425" y="185" font-family="'Consolas', 'Fira Code', monospace" font-size="10" fill="#aaaaaa" opacity="0.6" text-anchor="middle">AXIOMID PROJECTED TARGETS (ILLUSTRATIVE): 2026-07-22 21:56:54 UTC // SECURE_HANDSHAKE</text>
</svg>