<svg width="850" height="200" viewBox="0 0 850 200" xmlns="http://www.w3.org/2000/svg">
  <defs>
    <pattern id="carbonFiber" width="10" height="10" patternUnits="userSpaceOnUse">
        <rect width="10" height="10" fill="#050505"/>
        <path d="M0,0 L5,5 L10,0 L5,-5 Z M5,5 L10,10 L15,5 L10,0 Z M-5,5 L0,10 L5,5 L0,0 Z M0,10 L5,15 L10,10 L5,5 Z" fill="#0d0d0d"/>
    </pattern>
    <filter id="textGlow">
      <feGaussianBlur stdDeviation="2" result="blur" />
      <feMerge>
        <feMergeNode in="blur"/>
        <feMergeNode in="SourceGraphic"/>
      </feMerge>
    </filter>
    <linearGradient id="neonBar" x1="0%" y1="0%" x2="100%" y2="0%">
        <stop offset="0%" stop-color="#111111"/>
        <stop offset="100%" stop-color="#39FF14"/>
    </linearGradient>
    <linearGradient id="scanlineGrad" x1="0%" y1="0%" x2="100%" y2="0%">
        <stop offset="0%" stop-color="#39FF14" stop-opacity="0"/>
        <stop offset="50%" stop-color="#39FF14" stop-opacity="0.18"/>
        <stop offset="100%" stop-color="#39FF14" stop-opacity="0"/>
    </linearGradient>
    <clipPath id="dashClip">
        <rect x="0" y="0" width="850" height="200" rx="12"/>
    </clipPath>
  </defs>

  <rect width="100%" height="100%" fill="url(#carbonFiber)" rx="12" stroke="#39FF14" stroke-width="1" stroke-opacity="0.3"/>
  <rect width="100%" height="100%" fill="#000000" opacity="0.6" rx="12" />
  <g><polygon points="255,110 263.6,115 263.6,125 255,130 246.4,125 246.4,115" fill="none" stroke="#39FF14" stroke-width="1" opacity="0.029463522349972272"/>
<polygon points="518,185 526.6,190 526.6,200 518,205 509.4,200 509.4,190" fill="none" stroke="#39FF14" stroke-width="1" opacity="0.024951810862012324"/>
<polygon points="529,152 537.6,157 537.6,167 529,172 520.4,167 520.4,157" fill="none" stroke="#39FF14" stroke-width="1" opacity="0.04096389600055778"/>
<polygon points="121,177 129.6,182 129.6,192 121,197 112.4,192 112.4,182" fill="none" stroke="#39FF14" stroke-width="1" opacity="0.07882187033015196"/>
<polygon points="153,67 161.6,72 161.6,82 153,87 144.4,82 144.4,72" fill="none" stroke="#39FF14" stroke-width="1" opacity="0.0249805632143283"/>
<polygon points="0,126 8.6,131 8.6,141 0,146 -8.6,141 -8.6,131" fill="none" stroke="#39FF14" stroke-width="1" opacity="0.02497188004859389"/>
<polygon points="742,77 750.6,82 750.6,92 742,97 733.4,92 733.4,82" fill="none" stroke="#39FF14" stroke-width="1" opacity="0.04864381321798551"/>
<polygon points="200,161 208.6,166 208.6,176 200,181 191.4,176 191.4,166" fill="none" stroke="#39FF14" stroke-width="1" opacity="0.031387862927934655"/>
<polygon points="521,173 529.6,178 529.6,188 521,193 512.4,188 512.4,178" fill="none" stroke="#39FF14" stroke-width="1" opacity="0.022855297208166984"/>
<polygon points="140,85 148.6,90 148.6,100 140,105 131.4,100 131.4,90" fill="none" stroke="#39FF14" stroke-width="1" opacity="0.03945977207054675"/>
<polygon points="504,25 512.6,30 512.6,40 504,45 495.4,40 495.4,30" fill="none" stroke="#39FF14" stroke-width="1" opacity="0.06888912125836988"/>
<polygon points="750,179 758.6,184 758.6,194 750,199 741.4,194 741.4,184" fill="none" stroke="#39FF14" stroke-width="1" opacity="0.04957323568965742"/>
<polygon points="526,120 534.6,125 534.6,135 526,140 517.4,135 517.4,125" fill="none" stroke="#39FF14" stroke-width="1" opacity="0.0663444211672354"/>
<polygon points="373,66 381.6,71 381.6,81 373,86 364.4,81 364.4,71" fill="none" stroke="#39FF14" stroke-width="1" opacity="0.035883699356419566"/>
<polygon points="707,120 715.6,125 715.6,135 707,140 698.4,135 698.4,125" fill="none" stroke="#39FF14" stroke-width="1" opacity="0.055820766439491465"/>
<polygon points="166,35 174.6,40 174.6,50 166,55 157.4,50 157.4,40" fill="none" stroke="#39FF14" stroke-width="1" opacity="0.052359310239473406"/>
<polygon points="778,23 786.6,28 786.6,38 778,43 769.4,38 769.4,28" fill="none" stroke="#39FF14" stroke-width="1" opacity="0.02689649002025286"/>
<polygon points="754,168 762.6,173 762.6,183 754,188 745.4,183 745.4,173" fill="none" stroke="#39FF14" stroke-width="1" opacity="0.06905591723338808"/>
<polygon points="830,82 838.6,87 838.6,97 830,102 821.4,97 821.4,87" fill="none" stroke="#39FF14" stroke-width="1" opacity="0.07642171831614857"/>
<polygon points="11,72 19.6,77 19.6,87 11,92 2.4000000000000004,87 2.4000000000000004,77" fill="none" stroke="#39FF14" stroke-width="1" opacity="0.06085927786215026"/>
<polygon points="117,138 125.6,143 125.6,153 117,158 108.4,153 108.4,143" fill="none" stroke="#39FF14" stroke-width="1" opacity="0.07436830904096316"/>
<polygon points="700,188 708.6,193 708.6,203 700,208 691.4,203 691.4,193" fill="none" stroke="#39FF14" stroke-width="1" opacity="0.030176588360263934"/>
<polygon points="749,45 757.6,50 757.6,60 749,65 740.4,60 740.4,50" fill="none" stroke="#39FF14" stroke-width="1" opacity="0.0781125230887741"/>
<polygon points="746,30 754.6,35 754.6,45 746,50 737.4,45 737.4,35" fill="none" stroke="#39FF14" stroke-width="1" opacity="0.022135274764731972"/>
<polygon points="740,23 748.6,28 748.6,38 740,43 731.4,38 731.4,28" fill="none" stroke="#39FF14" stroke-width="1" opacity="0.06996445650633343"/>
<polygon points="287,24 295.6,29 295.6,39 287,44 278.4,39 278.4,29" fill="none" stroke="#39FF14" stroke-width="1" opacity="0.0648174187007524"/>
<polygon points="565,166 573.6,171 573.6,181 565,186 556.4,181 556.4,171" fill="none" stroke="#39FF14" stroke-width="1" opacity="0.02851311524976512"/>
<polygon points="640,13 648.6,18 648.6,28 640,33 631.4,28 631.4,18" fill="none" stroke="#39FF14" stroke-width="1" opacity="0.04061782383812991"/>
<polygon points="813,145 821.6,150 821.6,160 813,165 804.4,160 804.4,150" fill="none" stroke="#39FF14" stroke-width="1" opacity="0.06290957230136954"/>
<polygon points="117,185 125.6,190 125.6,200 117,205 108.4,200 108.4,190" fill="none" stroke="#39FF14" stroke-width="1" opacity="0.02740131992224709"/>
</g>

  <!-- HUD Decorative elements -->
  <path d="M 20 20 L 40 20 L 50 30" fill="none" stroke="#39FF14" stroke-width="2" opacity="0.5"/>
  <path d="M 830 180 L 810 180 L 800 170" fill="none" stroke="#39FF14" stroke-width="2" opacity="0.5"/>

  <g clip-path="url(#dashClip)">
    <rect x="-160" y="0" width="160" height="200" fill="url(#scanlineGrad)">
      <animateTransform attributeName="transform" type="translate"
                        from="0 0" to="1010 0" dur="6s" repeatCount="indefinite"/>
    </rect>
  </g>

  <g font-family="'Consolas', 'Fira Code', monospace" text-anchor="middle">

    <!-- NETWORK STATUS -->
    <g transform="translate(130, 100)">
        <circle cx="0" cy="0" r="45" fill="none" stroke="#39FF14" stroke-width="2" stroke-dasharray="10 5">
            <animateTransform attributeName="transform" type="rotate" from="0" to="360" dur="10s" repeatCount="indefinite"/>
        </circle>
        <circle cx="0" cy="0" r="35" fill="#0d0d0d" />
        <text x="0" y="-60" font-size="12" fill="#aaaaaa" letter-spacing="2">ROOT.AUTH</text>
        <text x="0" y="70" font-size="14" fill="#ffffff" font-weight="bold">OPERATIONAL</text>
    </g>

    <!-- ACTIVE USERS -->
    <g transform="translate(330, 100)">
        <text x="0" y="-20" font-size="12" fill="#aaaaaa">CITIZENS</text>
        <text x="0" y="15" font-size="28" fill="#ffffff" font-weight="bold" filter="url(#textGlow)">13,890</text>
        <text x="0" y="35" font-size="10" fill="#777777">VERIFIED HUMANS</text>
    </g>

    <!-- REGISTERED AGENTS -->
    <g transform="translate(530, 100)">
        <text x="0" y="-20" font-size="12" fill="#aaaaaa">AGENTS</text>
        <text x="0" y="15" font-size="28" fill="#00d4ff" font-weight="bold" filter="url(#textGlow)">4,717</text>
        <text x="0" y="35" font-size="10" fill="#777777">REGISTERED DIDs</text>
    </g>

    <!-- TRANSACTIONS -->
    <g transform="translate(730, 100)">
        <text x="0" y="-20" font-size="12" fill="#aaaaaa">TRANSFERS</text>
        <text x="0" y="15" font-size="28" fill="#ffffff" font-weight="bold">36,961</text>
        <text x="0" y="35" font-size="10" fill="#777777">M2M SETTLEMENTS</text>
    </g>
  </g>

  <text x="425" y="185" font-family="'Consolas', 'Fira Code', monospace" font-size="10" fill="#aaaaaa" opacity="0.6" text-anchor="middle">AXIOMID PROJECTED TARGETS (ILLUSTRATIVE): 2026-06-20 15:31:58 UTC // SECURE_HANDSHAKE</text>
</svg>