<svg width="850" height="200" viewBox="0 0 850 200" xmlns="http://www.w3.org/2000/svg">
  <defs>
    <pattern id="carbonFiber" width="10" height="10" patternUnits="userSpaceOnUse">
        <rect width="10" height="10" fill="#050505"/>
        <path d="M0,0 L5,5 L10,0 L5,-5 Z M5,5 L10,10 L15,5 L10,0 Z M-5,5 L0,10 L5,5 L0,0 Z M0,10 L5,15 L10,10 L5,5 Z" fill="#0d0d0d"/>
    </pattern>
    <filter id="textGlow">
      <feGaussianBlur stdDeviation="2" result="blur" />
      <feMerge>
        <feMergeNode in="blur"/>
        <feMergeNode in="SourceGraphic"/>
      </feMerge>
    </filter>
    <linearGradient id="neonBar" x1="0%" y1="0%" x2="100%" y2="0%">
        <stop offset="0%" stop-color="#111111"/>
        <stop offset="100%" stop-color="#39FF14"/>
    </linearGradient>
    <linearGradient id="scanlineGrad" x1="0%" y1="0%" x2="100%" y2="0%">
        <stop offset="0%" stop-color="#39FF14" stop-opacity="0"/>
        <stop offset="50%" stop-color="#39FF14" stop-opacity="0.18"/>
        <stop offset="100%" stop-color="#39FF14" stop-opacity="0"/>
    </linearGradient>
    <clipPath id="dashClip">
        <rect x="0" y="0" width="850" height="200" rx="12"/>
    </clipPath>
  </defs>

  <rect width="100%" height="100%" fill="url(#carbonFiber)" rx="12" stroke="#39FF14" stroke-width="1" stroke-opacity="0.3"/>
  <rect width="100%" height="100%" fill="#000000" opacity="0.6" rx="12" />
  <g><polygon points="155,-3 163.6,2 163.6,12 155,17 146.4,12 146.4,2" fill="none" stroke="#39FF14" stroke-width="1" opacity="0.0661373331645963"/>
<polygon points="46,167 54.6,172 54.6,182 46,187 37.4,182 37.4,172" fill="none" stroke="#39FF14" stroke-width="1" opacity="0.06705558622867104"/>
<polygon points="17,21 25.6,26 25.6,36 17,41 8.4,36 8.4,26" fill="none" stroke="#39FF14" stroke-width="1" opacity="0.04184951451914384"/>
<polygon points="419,162 427.6,167 427.6,177 419,182 410.4,177 410.4,167" fill="none" stroke="#39FF14" stroke-width="1" opacity="0.06511913300073303"/>
<polygon points="663,133 671.6,138 671.6,148 663,153 654.4,148 654.4,138" fill="none" stroke="#39FF14" stroke-width="1" opacity="0.035058756918171674"/>
<polygon points="777,101 785.6,106 785.6,116 777,121 768.4,116 768.4,106" fill="none" stroke="#39FF14" stroke-width="1" opacity="0.02890983662564091"/>
<polygon points="99,162 107.6,167 107.6,177 99,182 90.4,177 90.4,167" fill="none" stroke="#39FF14" stroke-width="1" opacity="0.04353731128368413"/>
<polygon points="596,112 604.6,117 604.6,127 596,132 587.4,127 587.4,117" fill="none" stroke="#39FF14" stroke-width="1" opacity="0.05626778899923783"/>
<polygon points="319,0 327.6,5 327.6,15 319,20 310.4,15 310.4,5" fill="none" stroke="#39FF14" stroke-width="1" opacity="0.04403377124029023"/>
<polygon points="827,69 835.6,74 835.6,84 827,89 818.4,84 818.4,74" fill="none" stroke="#39FF14" stroke-width="1" opacity="0.057437994401796935"/>
<polygon points="713,117 721.6,122 721.6,132 713,137 704.4,132 704.4,122" fill="none" stroke="#39FF14" stroke-width="1" opacity="0.03794092743920237"/>
<polygon points="402,98 410.6,103 410.6,113 402,118 393.4,113 393.4,103" fill="none" stroke="#39FF14" stroke-width="1" opacity="0.05222327632079919"/>
<polygon points="258,121 266.6,126 266.6,136 258,141 249.4,136 249.4,126" fill="none" stroke="#39FF14" stroke-width="1" opacity="0.020091273021549984"/>
<polygon points="783,158 791.6,163 791.6,173 783,178 774.4,173 774.4,163" fill="none" stroke="#39FF14" stroke-width="1" opacity="0.05352500669466456"/>
<polygon points="739,71 747.6,76 747.6,86 739,91 730.4,86 730.4,76" fill="none" stroke="#39FF14" stroke-width="1" opacity="0.035065668073275415"/>
<polygon points="474,27 482.6,32 482.6,42 474,47 465.4,42 465.4,32" fill="none" stroke="#39FF14" stroke-width="1" opacity="0.06597465327531918"/>
<polygon points="534,120 542.6,125 542.6,135 534,140 525.4,135 525.4,125" fill="none" stroke="#39FF14" stroke-width="1" opacity="0.06919375272246116"/>
<polygon points="494,109 502.6,114 502.6,124 494,129 485.4,124 485.4,114" fill="none" stroke="#39FF14" stroke-width="1" opacity="0.06539687191989219"/>
<polygon points="230,186 238.6,191 238.6,201 230,206 221.4,201 221.4,191" fill="none" stroke="#39FF14" stroke-width="1" opacity="0.03990932506253653"/>
<polygon points="534,157 542.6,162 542.6,172 534,177 525.4,172 525.4,162" fill="none" stroke="#39FF14" stroke-width="1" opacity="0.06606591104239408"/>
<polygon points="40,55 48.6,60 48.6,70 40,75 31.4,70 31.4,60" fill="none" stroke="#39FF14" stroke-width="1" opacity="0.04867789474459429"/>
<polygon points="569,-2 577.6,3 577.6,13 569,18 560.4,13 560.4,3" fill="none" stroke="#39FF14" stroke-width="1" opacity="0.06474638673625724"/>
<polygon points="268,175 276.6,180 276.6,190 268,195 259.4,190 259.4,180" fill="none" stroke="#39FF14" stroke-width="1" opacity="0.05210014068236929"/>
<polygon points="45,70 53.6,75 53.6,85 45,90 36.4,85 36.4,75" fill="none" stroke="#39FF14" stroke-width="1" opacity="0.05805643663451318"/>
<polygon points="146,103 154.6,108 154.6,118 146,123 137.4,118 137.4,108" fill="none" stroke="#39FF14" stroke-width="1" opacity="0.021911758415997566"/>
<polygon points="561,137 569.6,142 569.6,152 561,157 552.4,152 552.4,142" fill="none" stroke="#39FF14" stroke-width="1" opacity="0.03613334881796522"/>
<polygon points="53,93 61.6,98 61.6,108 53,113 44.4,108 44.4,98" fill="none" stroke="#39FF14" stroke-width="1" opacity="0.06422480670503236"/>
<polygon points="777,63 785.6,68 785.6,78 777,83 768.4,78 768.4,68" fill="none" stroke="#39FF14" stroke-width="1" opacity="0.04939501740270776"/>
<polygon points="506,107 514.6,112 514.6,122 506,127 497.4,122 497.4,112" fill="none" stroke="#39FF14" stroke-width="1" opacity="0.0205291348255366"/>
<polygon points="728,100 736.6,105 736.6,115 728,120 719.4,115 719.4,105" fill="none" stroke="#39FF14" stroke-width="1" opacity="0.03572188138263036"/>
</g>

  <!-- HUD Decorative elements -->
  <path d="M 20 20 L 40 20 L 50 30" fill="none" stroke="#39FF14" stroke-width="2" opacity="0.5"/>
  <path d="M 830 180 L 810 180 L 800 170" fill="none" stroke="#39FF14" stroke-width="2" opacity="0.5"/>

  <g clip-path="url(#dashClip)">
    <rect x="-160" y="0" width="160" height="200" fill="url(#scanlineGrad)">
      <animateTransform attributeName="transform" type="translate"
                        from="0 0" to="1010 0" dur="6s" repeatCount="indefinite"/>
    </rect>
  </g>

  <g font-family="'Consolas', 'Fira Code', monospace" text-anchor="middle">

    <!-- NETWORK STATUS -->
    <g transform="translate(130, 100)">
        <circle cx="0" cy="0" r="45" fill="none" stroke="#39FF14" stroke-width="2" stroke-dasharray="10 5">
            <animateTransform attributeName="transform" type="rotate" from="0" to="360" dur="10s" repeatCount="indefinite"/>
        </circle>
        <circle cx="0" cy="0" r="35" fill="#0d0d0d" />
        <text x="0" y="-60" font-size="12" fill="#aaaaaa" letter-spacing="2">ROOT.AUTH</text>
        <text x="0" y="70" font-size="14" fill="#ffffff" font-weight="bold">OPERATIONAL</text>
    </g>

    <!-- ACTIVE USERS -->
    <g transform="translate(330, 100)">
        <text x="0" y="-20" font-size="12" fill="#aaaaaa">CITIZENS</text>
        <text x="0" y="15" font-size="28" fill="#ffffff" font-weight="bold" filter="url(#textGlow)">13,008</text>
        <text x="0" y="35" font-size="10" fill="#777777">VERIFIED HUMANS</text>
    </g>

    <!-- REGISTERED AGENTS -->
    <g transform="translate(530, 100)">
        <text x="0" y="-20" font-size="12" fill="#aaaaaa">AGENTS</text>
        <text x="0" y="15" font-size="28" fill="#00d4ff" font-weight="bold" filter="url(#textGlow)">4,009</text>
        <text x="0" y="35" font-size="10" fill="#777777">REGISTERED DIDs</text>
    </g>

    <!-- TRANSACTIONS -->
    <g transform="translate(730, 100)">
        <text x="0" y="-20" font-size="12" fill="#aaaaaa">TRANSFERS</text>
        <text x="0" y="15" font-size="28" fill="#ffffff" font-weight="bold">39,061</text>
        <text x="0" y="35" font-size="10" fill="#777777">M2M SETTLEMENTS</text>
    </g>
  </g>

  <text x="425" y="185" font-family="'Consolas', 'Fira Code', monospace" font-size="10" fill="#aaaaaa" opacity="0.6" text-anchor="middle">AXIOMID PROJECTED TARGETS (ILLUSTRATIVE): 2026-06-28 21:21:47 UTC // SECURE_HANDSHAKE</text>
</svg>