<svg width="850" height="200" viewBox="0 0 850 200" xmlns="http://www.w3.org/2000/svg">
  <defs>
    <!-- Carbon Fiber Pattern -->
    <pattern id="carbonFiber" width="10" height="10" patternUnits="userSpaceOnUse">
        <rect width="10" height="10" fill="#050505"/>
        <path d="M0,0 L5,5 L10,0 L5,-5 Z M5,5 L10,10 L15,5 L10,0 Z M-5,5 L0,10 L5,5 L0,0 Z M0,10 L5,15 L10,10 L5,5 Z" fill="#0d0d0d"/>
    </pattern>
    <filter id="glassmorphism">
      <feGaussianBlur stdDeviation="3" result="blur" />
      <feColorMatrix type="matrix" values="1 0 0 0 0  0 1 0 0 0  0 0 1 0 0  0 0 0 18 -7" result="glow" />
      <feBlend in="SourceGraphic" in2="glow" mode="normal" />
    </filter>
    <filter id="textGlow">
      <feGaussianBlur stdDeviation="2" result="blur" />
      <feMerge>
        <feMergeNode in="blur"/>
        <feMergeNode in="SourceGraphic"/>
      </feMerge>
    </filter>
    <linearGradient id="neonBar" x1="0%" y1="0%" x2="100%" y2="0%">
        <stop offset="0%" stop-color="#111111"/>
        <stop offset="100%" stop-color="#39FF14"/>
    </linearGradient>
  </defs>

  <rect width="100%" height="100%" fill="url(#carbonFiber)" rx="12" stroke="#39FF14" stroke-width="1" stroke-opacity="0.3"/>
  <rect width="100%" height="100%" fill="#000000" opacity="0.6" rx="12" />
  <g><polygon points="424,56 432.6,61 432.6,71 424,76 415.4,71 415.4,61" fill="none" stroke="#39FF14" stroke-width="1" opacity="0.0689436918526385"/>
<polygon points="690,55 698.6,60 698.6,70 690,75 681.4,70 681.4,60" fill="none" stroke="#39FF14" stroke-width="1" opacity="0.04522156112533045"/>
<polygon points="522,56 530.6,61 530.6,71 522,76 513.4,71 513.4,61" fill="none" stroke="#39FF14" stroke-width="1" opacity="0.04847459330867407"/>
<polygon points="54,166 62.6,171 62.6,181 54,186 45.4,181 45.4,171" fill="none" stroke="#39FF14" stroke-width="1" opacity="0.0243651819254586"/>
<polygon points="717,25 725.6,30 725.6,40 717,45 708.4,40 708.4,30" fill="none" stroke="#39FF14" stroke-width="1" opacity="0.05805594639769139"/>
<polygon points="378,154 386.6,159 386.6,169 378,174 369.4,169 369.4,159" fill="none" stroke="#39FF14" stroke-width="1" opacity="0.05156040792939018"/>
<polygon points="97,30 105.6,35 105.6,45 97,50 88.4,45 88.4,35" fill="none" stroke="#39FF14" stroke-width="1" opacity="0.04958065997517785"/>
<polygon points="9,59 17.6,64 17.6,74 9,79 0.40000000000000036,74 0.40000000000000036,64" fill="none" stroke="#39FF14" stroke-width="1" opacity="0.06868224235647603"/>
<polygon points="147,94 155.6,99 155.6,109 147,114 138.4,109 138.4,99" fill="none" stroke="#39FF14" stroke-width="1" opacity="0.06879216289014775"/>
<polygon points="846,107 854.6,112 854.6,122 846,127 837.4,122 837.4,112" fill="none" stroke="#39FF14" stroke-width="1" opacity="0.045206341833843144"/>
<polygon points="399,176 407.6,181 407.6,191 399,196 390.4,191 390.4,181" fill="none" stroke="#39FF14" stroke-width="1" opacity="0.06971238280339989"/>
<polygon points="296,43 304.6,48 304.6,58 296,63 287.4,58 287.4,48" fill="none" stroke="#39FF14" stroke-width="1" opacity="0.05670501012032618"/>
<polygon points="53,47 61.6,52 61.6,62 53,67 44.4,62 44.4,52" fill="none" stroke="#39FF14" stroke-width="1" opacity="0.07733414503382793"/>
<polygon points="557,165 565.6,170 565.6,180 557,185 548.4,180 548.4,170" fill="none" stroke="#39FF14" stroke-width="1" opacity="0.044624875938258035"/>
<polygon points="501,21 509.6,26 509.6,36 501,41 492.4,36 492.4,26" fill="none" stroke="#39FF14" stroke-width="1" opacity="0.052904599641828504"/>
<polygon points="683,129 691.6,134 691.6,144 683,149 674.4,144 674.4,134" fill="none" stroke="#39FF14" stroke-width="1" opacity="0.03817629324716391"/>
<polygon points="546,29 554.6,34 554.6,44 546,49 537.4,44 537.4,34" fill="none" stroke="#39FF14" stroke-width="1" opacity="0.07779991259729668"/>
<polygon points="540,177 548.6,182 548.6,192 540,197 531.4,192 531.4,182" fill="none" stroke="#39FF14" stroke-width="1" opacity="0.0796669560124454"/>
<polygon points="71,82 79.6,87 79.6,97 71,102 62.4,97 62.4,87" fill="none" stroke="#39FF14" stroke-width="1" opacity="0.041351800521178705"/>
<polygon points="665,57 673.6,62 673.6,72 665,77 656.4,72 656.4,62" fill="none" stroke="#39FF14" stroke-width="1" opacity="0.03419583140317467"/>
<polygon points="227,60 235.6,65 235.6,75 227,80 218.4,75 218.4,65" fill="none" stroke="#39FF14" stroke-width="1" opacity="0.053951591055163645"/>
<polygon points="389,140 397.6,145 397.6,155 389,160 380.4,155 380.4,145" fill="none" stroke="#39FF14" stroke-width="1" opacity="0.0734984089548009"/>
<polygon points="395,58 403.6,63 403.6,73 395,78 386.4,73 386.4,63" fill="none" stroke="#39FF14" stroke-width="1" opacity="0.038311227383069094"/>
<polygon points="417,33 425.6,38 425.6,48 417,53 408.4,48 408.4,38" fill="none" stroke="#39FF14" stroke-width="1" opacity="0.0244129402062436"/>
<polygon points="726,147 734.6,152 734.6,162 726,167 717.4,162 717.4,152" fill="none" stroke="#39FF14" stroke-width="1" opacity="0.030692986062636346"/>
<polygon points="668,26 676.6,31 676.6,41 668,46 659.4,41 659.4,31" fill="none" stroke="#39FF14" stroke-width="1" opacity="0.03785999688675936"/>
<polygon points="104,24 112.6,29 112.6,39 104,44 95.4,39 95.4,29" fill="none" stroke="#39FF14" stroke-width="1" opacity="0.046503372628644415"/>
<polygon points="125,103 133.6,108 133.6,118 125,123 116.4,118 116.4,108" fill="none" stroke="#39FF14" stroke-width="1" opacity="0.06534272434897931"/>
<polygon points="298,71 306.6,76 306.6,86 298,91 289.4,86 289.4,76" fill="none" stroke="#39FF14" stroke-width="1" opacity="0.03894456761227459"/>
<polygon points="369,186 377.6,191 377.6,201 369,206 360.4,201 360.4,191" fill="none" stroke="#39FF14" stroke-width="1" opacity="0.03581822806217348"/>
</g>

  <!-- HUD Decorative elements -->
  <path d="M 20 20 L 40 20 L 50 30" fill="none" stroke="#39FF14" stroke-width="2" opacity="0.5"/>
  <path d="M 830 180 L 810 180 L 800 170" fill="none" stroke="#39FF14" stroke-width="2" opacity="0.5"/>
  <rect x="20" y="100" width="2" height="40" fill="#ffffff" opacity="0.4"/>
  <rect x="828" y="60" width="2" height="40" fill="#39FF14" opacity="0.6"/>

  <g font-family="'Consolas', 'Fira Code', monospace" text-anchor="middle">

    <!-- SYSTEM STATUS -->
    <g transform="translate(130, 100)">
        <circle cx="0" cy="0" r="45" fill="none" stroke="#111111" stroke-width="8" />
        <circle cx="0" cy="0" r="45" fill="none" stroke="#39FF14" stroke-width="2" stroke-dasharray="10 5">
            <animateTransform attributeName="transform" type="rotate" from="0" to="360" dur="10s" repeatCount="indefinite"/>
        </circle>
        <circle cx="0" cy="0" r="35" fill="#0d0d0d" />
        <circle cx="0" cy="0" r="6" fill="#39FF14" filter="url(#textGlow)">
            <animate attributeName="opacity" values="1;0.3;1" dur="2s" repeatCount="indefinite"/>
        </circle>
        <text x="0" y="-60" font-size="12" fill="#aaaaaa" letter-spacing="2">SYS.CORE</text>
        <text x="0" y="70" font-size="14" fill="#ffffff" font-weight="bold">ONLINE</text>
    </g>

    <!-- LIVE TRAFFIC -->
    <g transform="translate(330, 100)">
        <rect x="-60" y="-45" width="120" height="90" fill="#0a0a0a" rx="8" stroke="#39FF14" stroke-opacity="0.4" stroke-width="1"/>
        <text x="0" y="-20" font-size="12" fill="#aaaaaa">NETWORK LOAD</text>
        <text x="0" y="15" font-size="28" fill="#ffffff" font-weight="bold" filter="url(#textGlow)">5165</text>
        <text x="0" y="35" font-size="10" fill="#777777">ACTIVE SESSIONS</text>
    </g>

    <!-- ACTIVE AGENTS -->
    <g transform="translate(530, 100)">
        <rect x="-60" y="-45" width="120" height="90" fill="#0a0a0a" rx="8" stroke="#39FF14" stroke-opacity="0.4" stroke-width="1"/>
        <text x="0" y="-20" font-size="12" fill="#aaaaaa">SWARM ENTITIES</text>
        <text x="0" y="15" font-size="28" fill="#ffffff" font-weight="bold" filter="url(#textGlow)">176</text>
        <text x="0" y="35" font-size="10" fill="#777777">AUTONOMOUS</text>
    </g>

    <!-- UPTIME -->
    <g transform="translate(730, 100)">
        <path d="M -40 -35 L 40 -35 L 50 -25 L 50 35 L -40 35 L -50 25 Z" fill="#0a0a0a" stroke="#39FF14" stroke-opacity="0.4" stroke-width="1"/>
        <text x="0" y="-15" font-size="12" fill="#aaaaaa">CONTINUITY</text>
        <text x="0" y="15" font-size="24" fill="#ffffff" font-weight="bold">249<tspan font-size="14" fill="#777777">d</tspan></text>
        <rect x="-35" y="25" width="70" height="4" fill="url(#neonBar)" rx="2"/>
    </g>
  </g>

  <text x="425" y="185" font-family="'Consolas', 'Fira Code', monospace" font-size="10" fill="#aaaaaa" opacity="0.6" text-anchor="middle">LAST TELEMETRY PING: 2026-05-08 06:42:57 UTC // ENCRYPTED_TUNNEL</text>
</svg>