<svg width="850" height="200" viewBox="0 0 850 200" xmlns="http://www.w3.org/2000/svg">
  <defs>
    <pattern id="carbonFiber" width="10" height="10" patternUnits="userSpaceOnUse">
        <rect width="10" height="10" fill="#050505"/>
        <path d="M0,0 L5,5 L10,0 L5,-5 Z M5,5 L10,10 L15,5 L10,0 Z M-5,5 L0,10 L5,5 L0,0 Z M0,10 L5,15 L10,10 L5,5 Z" fill="#0d0d0d"/>
    </pattern>
    <filter id="textGlow">
      <feGaussianBlur stdDeviation="2" result="blur" />
      <feMerge>
        <feMergeNode in="blur"/>
        <feMergeNode in="SourceGraphic"/>
      </feMerge>
    </filter>
    <linearGradient id="neonBar" x1="0%" y1="0%" x2="100%" y2="0%">
        <stop offset="0%" stop-color="#111111"/>
        <stop offset="100%" stop-color="#39FF14"/>
    </linearGradient>
    <linearGradient id="scanlineGrad" x1="0%" y1="0%" x2="100%" y2="0%">
        <stop offset="0%" stop-color="#39FF14" stop-opacity="0"/>
        <stop offset="50%" stop-color="#39FF14" stop-opacity="0.18"/>
        <stop offset="100%" stop-color="#39FF14" stop-opacity="0"/>
    </linearGradient>
    <clipPath id="dashClip">
        <rect x="0" y="0" width="850" height="200" rx="12"/>
    </clipPath>
  </defs>

  <rect width="100%" height="100%" fill="url(#carbonFiber)" rx="12" stroke="#39FF14" stroke-width="1" stroke-opacity="0.3"/>
  <rect width="100%" height="100%" fill="#000000" opacity="0.6" rx="12" />
  <g><polygon points="630,41 638.6,46 638.6,56 630,61 621.4,56 621.4,46" fill="none" stroke="#39FF14" stroke-width="1" opacity="0.07865945937795012"/>
<polygon points="352,27 360.6,32 360.6,42 352,47 343.4,42 343.4,32" fill="none" stroke="#39FF14" stroke-width="1" opacity="0.05631211972859629"/>
<polygon points="643,183 651.6,188 651.6,198 643,203 634.4,198 634.4,188" fill="none" stroke="#39FF14" stroke-width="1" opacity="0.06801221234407545"/>
<polygon points="366,40 374.6,45 374.6,55 366,60 357.4,55 357.4,45" fill="none" stroke="#39FF14" stroke-width="1" opacity="0.05107729210251625"/>
<polygon points="776,190 784.6,195 784.6,205 776,210 767.4,205 767.4,195" fill="none" stroke="#39FF14" stroke-width="1" opacity="0.059613750011566505"/>
<polygon points="468,147 476.6,152 476.6,162 468,167 459.4,162 459.4,152" fill="none" stroke="#39FF14" stroke-width="1" opacity="0.026791113412216908"/>
<polygon points="604,71 612.6,76 612.6,86 604,91 595.4,86 595.4,76" fill="none" stroke="#39FF14" stroke-width="1" opacity="0.0796233936834362"/>
<polygon points="72,190 80.6,195 80.6,205 72,210 63.4,205 63.4,195" fill="none" stroke="#39FF14" stroke-width="1" opacity="0.03764216557654101"/>
<polygon points="329,111 337.6,116 337.6,126 329,131 320.4,126 320.4,116" fill="none" stroke="#39FF14" stroke-width="1" opacity="0.07390501632353152"/>
<polygon points="757,155 765.6,160 765.6,170 757,175 748.4,170 748.4,160" fill="none" stroke="#39FF14" stroke-width="1" opacity="0.04889205514633929"/>
<polygon points="38,98 46.6,103 46.6,113 38,118 29.4,113 29.4,103" fill="none" stroke="#39FF14" stroke-width="1" opacity="0.07046273653926825"/>
<polygon points="539,7 547.6,12 547.6,22 539,27 530.4,22 530.4,12" fill="none" stroke="#39FF14" stroke-width="1" opacity="0.06451768040759281"/>
<polygon points="497,74 505.6,79 505.6,89 497,94 488.4,89 488.4,79" fill="none" stroke="#39FF14" stroke-width="1" opacity="0.06177013384047436"/>
<polygon points="71,-2 79.6,3 79.6,13 71,18 62.4,13 62.4,3" fill="none" stroke="#39FF14" stroke-width="1" opacity="0.05903451137391892"/>
<polygon points="304,123 312.6,128 312.6,138 304,143 295.4,138 295.4,128" fill="none" stroke="#39FF14" stroke-width="1" opacity="0.05229577283873077"/>
<polygon points="440,-10 448.6,-5 448.6,5 440,10 431.4,5 431.4,-5" fill="none" stroke="#39FF14" stroke-width="1" opacity="0.05928570920362629"/>
<polygon points="830,189 838.6,194 838.6,204 830,209 821.4,204 821.4,194" fill="none" stroke="#39FF14" stroke-width="1" opacity="0.0531794559594318"/>
<polygon points="516,10 524.6,15 524.6,25 516,30 507.4,25 507.4,15" fill="none" stroke="#39FF14" stroke-width="1" opacity="0.02117403277496542"/>
<polygon points="455,113 463.6,118 463.6,128 455,133 446.4,128 446.4,118" fill="none" stroke="#39FF14" stroke-width="1" opacity="0.031552423627882686"/>
<polygon points="28,176 36.6,181 36.6,191 28,196 19.4,191 19.4,181" fill="none" stroke="#39FF14" stroke-width="1" opacity="0.07227832934467378"/>
<polygon points="727,97 735.6,102 735.6,112 727,117 718.4,112 718.4,102" fill="none" stroke="#39FF14" stroke-width="1" opacity="0.07114771435433126"/>
<polygon points="181,73 189.6,78 189.6,88 181,93 172.4,88 172.4,78" fill="none" stroke="#39FF14" stroke-width="1" opacity="0.04739060641372578"/>
<polygon points="102,18 110.6,23 110.6,33 102,38 93.4,33 93.4,23" fill="none" stroke="#39FF14" stroke-width="1" opacity="0.03229714835898834"/>
<polygon points="369,97 377.6,102 377.6,112 369,117 360.4,112 360.4,102" fill="none" stroke="#39FF14" stroke-width="1" opacity="0.06002270596698414"/>
<polygon points="718,-9 726.6,-4 726.6,6 718,11 709.4,6 709.4,-4" fill="none" stroke="#39FF14" stroke-width="1" opacity="0.0318333405725147"/>
<polygon points="384,166 392.6,171 392.6,181 384,186 375.4,181 375.4,171" fill="none" stroke="#39FF14" stroke-width="1" opacity="0.04495799595200882"/>
<polygon points="694,27 702.6,32 702.6,42 694,47 685.4,42 685.4,32" fill="none" stroke="#39FF14" stroke-width="1" opacity="0.049267774008262086"/>
<polygon points="731,144 739.6,149 739.6,159 731,164 722.4,159 722.4,149" fill="none" stroke="#39FF14" stroke-width="1" opacity="0.03417822310881427"/>
<polygon points="232,87 240.6,92 240.6,102 232,107 223.4,102 223.4,92" fill="none" stroke="#39FF14" stroke-width="1" opacity="0.05790823050626015"/>
<polygon points="183,140 191.6,145 191.6,155 183,160 174.4,155 174.4,145" fill="none" stroke="#39FF14" stroke-width="1" opacity="0.05855823894390785"/>
</g>

  <!-- HUD Decorative elements -->
  <path d="M 20 20 L 40 20 L 50 30" fill="none" stroke="#39FF14" stroke-width="2" opacity="0.5"/>
  <path d="M 830 180 L 810 180 L 800 170" fill="none" stroke="#39FF14" stroke-width="2" opacity="0.5"/>

  <g clip-path="url(#dashClip)">
    <rect x="-160" y="0" width="160" height="200" fill="url(#scanlineGrad)">
      <animateTransform attributeName="transform" type="translate"
                        from="0 0" to="1010 0" dur="6s" repeatCount="indefinite"/>
    </rect>
  </g>

  <g font-family="'Consolas', 'Fira Code', monospace" text-anchor="middle">

    <!-- NETWORK STATUS -->
    <g transform="translate(130, 100)">
        <circle cx="0" cy="0" r="45" fill="none" stroke="#39FF14" stroke-width="2" stroke-dasharray="10 5">
            <animateTransform attributeName="transform" type="rotate" from="0" to="360" dur="10s" repeatCount="indefinite"/>
        </circle>
        <circle cx="0" cy="0" r="35" fill="#0d0d0d" />
        <text x="0" y="-60" font-size="12" fill="#aaaaaa" letter-spacing="2">ROOT.AUTH</text>
        <text x="0" y="70" font-size="14" fill="#ffffff" font-weight="bold">OPERATIONAL</text>
    </g>

    <!-- ACTIVE USERS -->
    <g transform="translate(330, 100)">
        <text x="0" y="-20" font-size="12" fill="#aaaaaa">CITIZENS</text>
        <text x="0" y="15" font-size="28" fill="#ffffff" font-weight="bold" filter="url(#textGlow)">13,839</text>
        <text x="0" y="35" font-size="10" fill="#777777">VERIFIED HUMANS</text>
    </g>

    <!-- REGISTERED AGENTS -->
    <g transform="translate(530, 100)">
        <text x="0" y="-20" font-size="12" fill="#aaaaaa">AGENTS</text>
        <text x="0" y="15" font-size="28" fill="#00d4ff" font-weight="bold" filter="url(#textGlow)">4,691</text>
        <text x="0" y="35" font-size="10" fill="#777777">REGISTERED DIDs</text>
    </g>

    <!-- TRANSACTIONS -->
    <g transform="translate(730, 100)">
        <text x="0" y="-20" font-size="12" fill="#aaaaaa">TRANSFERS</text>
        <text x="0" y="15" font-size="28" fill="#ffffff" font-weight="bold">26,419</text>
        <text x="0" y="35" font-size="10" fill="#777777">M2M SETTLEMENTS</text>
    </g>
  </g>

  <text x="425" y="185" font-family="'Consolas', 'Fira Code', monospace" font-size="10" fill="#aaaaaa" opacity="0.6" text-anchor="middle">AXIOMID PROJECTED TARGETS (ILLUSTRATIVE): 2026-08-16 12:18:30 UTC // SECURE_HANDSHAKE</text>
</svg>