<svg width="850" height="200" viewBox="0 0 850 200" xmlns="http://www.w3.org/2000/svg">
  <defs>
    <pattern id="carbonFiber" width="10" height="10" patternUnits="userSpaceOnUse">
        <rect width="10" height="10" fill="#050505"/>
        <path d="M0,0 L5,5 L10,0 L5,-5 Z M5,5 L10,10 L15,5 L10,0 Z M-5,5 L0,10 L5,5 L0,0 Z M0,10 L5,15 L10,10 L5,5 Z" fill="#0d0d0d"/>
    </pattern>
    <filter id="textGlow">
      <feGaussianBlur stdDeviation="2" result="blur" />
      <feMerge>
        <feMergeNode in="blur"/>
        <feMergeNode in="SourceGraphic"/>
      </feMerge>
    </filter>
    <linearGradient id="neonBar" x1="0%" y1="0%" x2="100%" y2="0%">
        <stop offset="0%" stop-color="#111111"/>
        <stop offset="100%" stop-color="#39FF14"/>
    </linearGradient>
    <linearGradient id="scanlineGrad" x1="0%" y1="0%" x2="100%" y2="0%">
        <stop offset="0%" stop-color="#39FF14" stop-opacity="0"/>
        <stop offset="50%" stop-color="#39FF14" stop-opacity="0.18"/>
        <stop offset="100%" stop-color="#39FF14" stop-opacity="0"/>
    </linearGradient>
    <clipPath id="dashClip">
        <rect x="0" y="0" width="850" height="200" rx="12"/>
    </clipPath>
  </defs>

  <rect width="100%" height="100%" fill="url(#carbonFiber)" rx="12" stroke="#39FF14" stroke-width="1" stroke-opacity="0.3"/>
  <rect width="100%" height="100%" fill="#000000" opacity="0.6" rx="12" />
  <g><polygon points="454,93 462.6,98 462.6,108 454,113 445.4,108 445.4,98" fill="none" stroke="#39FF14" stroke-width="1" opacity="0.02940673001197973"/>
<polygon points="520,65 528.6,70 528.6,80 520,85 511.4,80 511.4,70" fill="none" stroke="#39FF14" stroke-width="1" opacity="0.04285522328892463"/>
<polygon points="454,37 462.6,42 462.6,52 454,57 445.4,52 445.4,42" fill="none" stroke="#39FF14" stroke-width="1" opacity="0.06326655145409056"/>
<polygon points="793,104 801.6,109 801.6,119 793,124 784.4,119 784.4,109" fill="none" stroke="#39FF14" stroke-width="1" opacity="0.05770485764582221"/>
<polygon points="11,83 19.6,88 19.6,98 11,103 2.4000000000000004,98 2.4000000000000004,88" fill="none" stroke="#39FF14" stroke-width="1" opacity="0.0684816689673367"/>
<polygon points="774,141 782.6,146 782.6,156 774,161 765.4,156 765.4,146" fill="none" stroke="#39FF14" stroke-width="1" opacity="0.02272505014563978"/>
<polygon points="411,122 419.6,127 419.6,137 411,142 402.4,137 402.4,127" fill="none" stroke="#39FF14" stroke-width="1" opacity="0.05744508257688351"/>
<polygon points="478,140 486.6,145 486.6,155 478,160 469.4,155 469.4,145" fill="none" stroke="#39FF14" stroke-width="1" opacity="0.028452239149344177"/>
<polygon points="188,176 196.6,181 196.6,191 188,196 179.4,191 179.4,181" fill="none" stroke="#39FF14" stroke-width="1" opacity="0.03792174275387773"/>
<polygon points="245,-4 253.6,1 253.6,11 245,16 236.4,11 236.4,1" fill="none" stroke="#39FF14" stroke-width="1" opacity="0.020254920856311715"/>
<polygon points="135,76 143.6,81 143.6,91 135,96 126.4,91 126.4,81" fill="none" stroke="#39FF14" stroke-width="1" opacity="0.041486235811100294"/>
<polygon points="435,48 443.6,53 443.6,63 435,68 426.4,63 426.4,53" fill="none" stroke="#39FF14" stroke-width="1" opacity="0.024204192459041127"/>
<polygon points="404,103 412.6,108 412.6,118 404,123 395.4,118 395.4,108" fill="none" stroke="#39FF14" stroke-width="1" opacity="0.02028664556745168"/>
<polygon points="698,90 706.6,95 706.6,105 698,110 689.4,105 689.4,95" fill="none" stroke="#39FF14" stroke-width="1" opacity="0.04265280542223018"/>
<polygon points="511,60 519.6,65 519.6,75 511,80 502.4,75 502.4,65" fill="none" stroke="#39FF14" stroke-width="1" opacity="0.05347478022780808"/>
<polygon points="698,-3 706.6,2 706.6,12 698,17 689.4,12 689.4,2" fill="none" stroke="#39FF14" stroke-width="1" opacity="0.056484712433940557"/>
<polygon points="818,29 826.6,34 826.6,44 818,49 809.4,44 809.4,34" fill="none" stroke="#39FF14" stroke-width="1" opacity="0.033853642343928084"/>
<polygon points="32,112 40.6,117 40.6,127 32,132 23.4,127 23.4,117" fill="none" stroke="#39FF14" stroke-width="1" opacity="0.026514716854115696"/>
<polygon points="745,44 753.6,49 753.6,59 745,64 736.4,59 736.4,49" fill="none" stroke="#39FF14" stroke-width="1" opacity="0.06633780400462669"/>
<polygon points="682,176 690.6,181 690.6,191 682,196 673.4,191 673.4,181" fill="none" stroke="#39FF14" stroke-width="1" opacity="0.07072556681065285"/>
<polygon points="241,92 249.6,97 249.6,107 241,112 232.4,107 232.4,97" fill="none" stroke="#39FF14" stroke-width="1" opacity="0.05965539121844486"/>
<polygon points="400,142 408.6,147 408.6,157 400,162 391.4,157 391.4,147" fill="none" stroke="#39FF14" stroke-width="1" opacity="0.062206632773811166"/>
<polygon points="361,120 369.6,125 369.6,135 361,140 352.4,135 352.4,125" fill="none" stroke="#39FF14" stroke-width="1" opacity="0.06462605018171923"/>
<polygon points="841,-3 849.6,2 849.6,12 841,17 832.4,12 832.4,2" fill="none" stroke="#39FF14" stroke-width="1" opacity="0.061480666445525994"/>
<polygon points="137,53 145.6,58 145.6,68 137,73 128.4,68 128.4,58" fill="none" stroke="#39FF14" stroke-width="1" opacity="0.0727776563903113"/>
<polygon points="690,48 698.6,53 698.6,63 690,68 681.4,63 681.4,53" fill="none" stroke="#39FF14" stroke-width="1" opacity="0.07628002723093641"/>
<polygon points="721,107 729.6,112 729.6,122 721,127 712.4,122 712.4,112" fill="none" stroke="#39FF14" stroke-width="1" opacity="0.07536582258745578"/>
<polygon points="119,182 127.6,187 127.6,197 119,202 110.4,197 110.4,187" fill="none" stroke="#39FF14" stroke-width="1" opacity="0.025490908452986464"/>
<polygon points="534,146 542.6,151 542.6,161 534,166 525.4,161 525.4,151" fill="none" stroke="#39FF14" stroke-width="1" opacity="0.039517218563349624"/>
<polygon points="580,176 588.6,181 588.6,191 580,196 571.4,191 571.4,181" fill="none" stroke="#39FF14" stroke-width="1" opacity="0.026510920289483215"/>
</g>

  <!-- HUD Decorative elements -->
  <path d="M 20 20 L 40 20 L 50 30" fill="none" stroke="#39FF14" stroke-width="2" opacity="0.5"/>
  <path d="M 830 180 L 810 180 L 800 170" fill="none" stroke="#39FF14" stroke-width="2" opacity="0.5"/>

  <g clip-path="url(#dashClip)">
    <rect x="-160" y="0" width="160" height="200" fill="url(#scanlineGrad)">
      <animateTransform attributeName="transform" type="translate"
                        from="0 0" to="1010 0" dur="6s" repeatCount="indefinite"/>
    </rect>
  </g>

  <g font-family="'Consolas', 'Fira Code', monospace" text-anchor="middle">

    <!-- NETWORK STATUS -->
    <g transform="translate(130, 100)">
        <circle cx="0" cy="0" r="45" fill="none" stroke="#39FF14" stroke-width="2" stroke-dasharray="10 5">
            <animateTransform attributeName="transform" type="rotate" from="0" to="360" dur="10s" repeatCount="indefinite"/>
        </circle>
        <circle cx="0" cy="0" r="35" fill="#0d0d0d" />
        <text x="0" y="-60" font-size="12" fill="#aaaaaa" letter-spacing="2">ROOT.AUTH</text>
        <text x="0" y="70" font-size="14" fill="#ffffff" font-weight="bold">OPERATIONAL</text>
    </g>

    <!-- ACTIVE USERS -->
    <g transform="translate(330, 100)">
        <text x="0" y="-20" font-size="12" fill="#aaaaaa">CITIZENS</text>
        <text x="0" y="15" font-size="28" fill="#ffffff" font-weight="bold" filter="url(#textGlow)">12,409</text>
        <text x="0" y="35" font-size="10" fill="#777777">VERIFIED HUMANS</text>
    </g>

    <!-- REGISTERED AGENTS -->
    <g transform="translate(530, 100)">
        <text x="0" y="-20" font-size="12" fill="#aaaaaa">AGENTS</text>
        <text x="0" y="15" font-size="28" fill="#00d4ff" font-weight="bold" filter="url(#textGlow)">3,332</text>
        <text x="0" y="35" font-size="10" fill="#777777">REGISTERED DIDs</text>
    </g>

    <!-- TRANSACTIONS -->
    <g transform="translate(730, 100)">
        <text x="0" y="-20" font-size="12" fill="#aaaaaa">TRANSFERS</text>
        <text x="0" y="15" font-size="28" fill="#ffffff" font-weight="bold">29,365</text>
        <text x="0" y="35" font-size="10" fill="#777777">M2M SETTLEMENTS</text>
    </g>
  </g>

  <text x="425" y="185" font-family="'Consolas', 'Fira Code', monospace" font-size="10" fill="#aaaaaa" opacity="0.6" text-anchor="middle">AXIOMID PROJECTED TARGETS (ILLUSTRATIVE): 2026-07-15 21:48:07 UTC // SECURE_HANDSHAKE</text>
</svg>