<svg width="850" height="200" viewBox="0 0 850 200" xmlns="http://www.w3.org/2000/svg">
  <defs>
    <pattern id="carbonFiber" width="10" height="10" patternUnits="userSpaceOnUse">
        <rect width="10" height="10" fill="#050505"/>
        <path d="M0,0 L5,5 L10,0 L5,-5 Z M5,5 L10,10 L15,5 L10,0 Z M-5,5 L0,10 L5,5 L0,0 Z M0,10 L5,15 L10,10 L5,5 Z" fill="#0d0d0d"/>
    </pattern>
    <filter id="textGlow">
      <feGaussianBlur stdDeviation="2" result="blur" />
      <feMerge>
        <feMergeNode in="blur"/>
        <feMergeNode in="SourceGraphic"/>
      </feMerge>
    </filter>
    <linearGradient id="neonBar" x1="0%" y1="0%" x2="100%" y2="0%">
        <stop offset="0%" stop-color="#111111"/>
        <stop offset="100%" stop-color="#39FF14"/>
    </linearGradient>
    <linearGradient id="scanlineGrad" x1="0%" y1="0%" x2="100%" y2="0%">
        <stop offset="0%" stop-color="#39FF14" stop-opacity="0"/>
        <stop offset="50%" stop-color="#39FF14" stop-opacity="0.18"/>
        <stop offset="100%" stop-color="#39FF14" stop-opacity="0"/>
    </linearGradient>
    <clipPath id="dashClip">
        <rect x="0" y="0" width="850" height="200" rx="12"/>
    </clipPath>
  </defs>

  <rect width="100%" height="100%" fill="url(#carbonFiber)" rx="12" stroke="#39FF14" stroke-width="1" stroke-opacity="0.3"/>
  <rect width="100%" height="100%" fill="#000000" opacity="0.6" rx="12" />
  <g><polygon points="806,-9 814.6,-4 814.6,6 806,11 797.4,6 797.4,-4" fill="none" stroke="#39FF14" stroke-width="1" opacity="0.024814402121881383"/>
<polygon points="565,49 573.6,54 573.6,64 565,69 556.4,64 556.4,54" fill="none" stroke="#39FF14" stroke-width="1" opacity="0.03955623863840417"/>
<polygon points="52,149 60.6,154 60.6,164 52,169 43.4,164 43.4,154" fill="none" stroke="#39FF14" stroke-width="1" opacity="0.03142882442155349"/>
<polygon points="692,4 700.6,9 700.6,19 692,24 683.4,19 683.4,9" fill="none" stroke="#39FF14" stroke-width="1" opacity="0.04269448396433086"/>
<polygon points="617,2 625.6,7 625.6,17 617,22 608.4,17 608.4,7" fill="none" stroke="#39FF14" stroke-width="1" opacity="0.023868364195365838"/>
<polygon points="694,184 702.6,189 702.6,199 694,204 685.4,199 685.4,189" fill="none" stroke="#39FF14" stroke-width="1" opacity="0.07658848118806719"/>
<polygon points="648,175 656.6,180 656.6,190 648,195 639.4,190 639.4,180" fill="none" stroke="#39FF14" stroke-width="1" opacity="0.03606338532845818"/>
<polygon points="550,77 558.6,82 558.6,92 550,97 541.4,92 541.4,82" fill="none" stroke="#39FF14" stroke-width="1" opacity="0.050685905066770905"/>
<polygon points="507,106 515.6,111 515.6,121 507,126 498.4,121 498.4,111" fill="none" stroke="#39FF14" stroke-width="1" opacity="0.04663908668612582"/>
<polygon points="537,123 545.6,128 545.6,138 537,143 528.4,138 528.4,128" fill="none" stroke="#39FF14" stroke-width="1" opacity="0.030817688495739202"/>
<polygon points="433,162 441.6,167 441.6,177 433,182 424.4,177 424.4,167" fill="none" stroke="#39FF14" stroke-width="1" opacity="0.039131369146137046"/>
<polygon points="481,123 489.6,128 489.6,138 481,143 472.4,138 472.4,128" fill="none" stroke="#39FF14" stroke-width="1" opacity="0.07409949964333383"/>
<polygon points="318,121 326.6,126 326.6,136 318,141 309.4,136 309.4,126" fill="none" stroke="#39FF14" stroke-width="1" opacity="0.07454074992617851"/>
<polygon points="534,187 542.6,192 542.6,202 534,207 525.4,202 525.4,192" fill="none" stroke="#39FF14" stroke-width="1" opacity="0.033403731001121165"/>
<polygon points="18,69 26.6,74 26.6,84 18,89 9.4,84 9.4,74" fill="none" stroke="#39FF14" stroke-width="1" opacity="0.046491700338558734"/>
<polygon points="697,84 705.6,89 705.6,99 697,104 688.4,99 688.4,89" fill="none" stroke="#39FF14" stroke-width="1" opacity="0.043359177382450084"/>
<polygon points="831,46 839.6,51 839.6,61 831,66 822.4,61 822.4,51" fill="none" stroke="#39FF14" stroke-width="1" opacity="0.06268657438353761"/>
<polygon points="128,148 136.6,153 136.6,163 128,168 119.4,163 119.4,153" fill="none" stroke="#39FF14" stroke-width="1" opacity="0.07425527390877154"/>
<polygon points="212,23 220.6,28 220.6,38 212,43 203.4,38 203.4,28" fill="none" stroke="#39FF14" stroke-width="1" opacity="0.07932385547740958"/>
<polygon points="484,137 492.6,142 492.6,152 484,157 475.4,152 475.4,142" fill="none" stroke="#39FF14" stroke-width="1" opacity="0.06255425221989508"/>
<polygon points="834,108 842.6,113 842.6,123 834,128 825.4,123 825.4,113" fill="none" stroke="#39FF14" stroke-width="1" opacity="0.05504298778463283"/>
<polygon points="79,170 87.6,175 87.6,185 79,190 70.4,185 70.4,175" fill="none" stroke="#39FF14" stroke-width="1" opacity="0.04642169110376239"/>
<polygon points="707,132 715.6,137 715.6,147 707,152 698.4,147 698.4,137" fill="none" stroke="#39FF14" stroke-width="1" opacity="0.07218467584929553"/>
<polygon points="670,21 678.6,26 678.6,36 670,41 661.4,36 661.4,26" fill="none" stroke="#39FF14" stroke-width="1" opacity="0.05584470393380399"/>
<polygon points="492,34 500.6,39 500.6,49 492,54 483.4,49 483.4,39" fill="none" stroke="#39FF14" stroke-width="1" opacity="0.025638379793903224"/>
<polygon points="750,35 758.6,40 758.6,50 750,55 741.4,50 741.4,40" fill="none" stroke="#39FF14" stroke-width="1" opacity="0.05837881064782589"/>
<polygon points="282,182 290.6,187 290.6,197 282,202 273.4,197 273.4,187" fill="none" stroke="#39FF14" stroke-width="1" opacity="0.07157174887006922"/>
<polygon points="742,19 750.6,24 750.6,34 742,39 733.4,34 733.4,24" fill="none" stroke="#39FF14" stroke-width="1" opacity="0.06220324380993761"/>
<polygon points="359,179 367.6,184 367.6,194 359,199 350.4,194 350.4,184" fill="none" stroke="#39FF14" stroke-width="1" opacity="0.052656990605580545"/>
<polygon points="792,125 800.6,130 800.6,140 792,145 783.4,140 783.4,130" fill="none" stroke="#39FF14" stroke-width="1" opacity="0.06172072588268343"/>
</g>

  <!-- HUD Decorative elements -->
  <path d="M 20 20 L 40 20 L 50 30" fill="none" stroke="#39FF14" stroke-width="2" opacity="0.5"/>
  <path d="M 830 180 L 810 180 L 800 170" fill="none" stroke="#39FF14" stroke-width="2" opacity="0.5"/>

  <g clip-path="url(#dashClip)">
    <rect x="-160" y="0" width="160" height="200" fill="url(#scanlineGrad)">
      <animateTransform attributeName="transform" type="translate"
                        from="0 0" to="1010 0" dur="6s" repeatCount="indefinite"/>
    </rect>
  </g>

  <g font-family="'Consolas', 'Fira Code', monospace" text-anchor="middle">

    <!-- NETWORK STATUS -->
    <g transform="translate(130, 100)">
        <circle cx="0" cy="0" r="45" fill="none" stroke="#39FF14" stroke-width="2" stroke-dasharray="10 5">
            <animateTransform attributeName="transform" type="rotate" from="0" to="360" dur="10s" repeatCount="indefinite"/>
        </circle>
        <circle cx="0" cy="0" r="35" fill="#0d0d0d" />
        <text x="0" y="-60" font-size="12" fill="#aaaaaa" letter-spacing="2">ROOT.AUTH</text>
        <text x="0" y="70" font-size="14" fill="#ffffff" font-weight="bold">OPERATIONAL</text>
    </g>

    <!-- ACTIVE USERS -->
    <g transform="translate(330, 100)">
        <text x="0" y="-20" font-size="12" fill="#aaaaaa">CITIZENS</text>
        <text x="0" y="15" font-size="28" fill="#ffffff" font-weight="bold" filter="url(#textGlow)">12,786</text>
        <text x="0" y="35" font-size="10" fill="#777777">VERIFIED HUMANS</text>
    </g>

    <!-- REGISTERED AGENTS -->
    <g transform="translate(530, 100)">
        <text x="0" y="-20" font-size="12" fill="#aaaaaa">AGENTS</text>
        <text x="0" y="15" font-size="28" fill="#00d4ff" font-weight="bold" filter="url(#textGlow)">3,400</text>
        <text x="0" y="35" font-size="10" fill="#777777">REGISTERED DIDs</text>
    </g>

    <!-- TRANSACTIONS -->
    <g transform="translate(730, 100)">
        <text x="0" y="-20" font-size="12" fill="#aaaaaa">TRANSFERS</text>
        <text x="0" y="15" font-size="28" fill="#ffffff" font-weight="bold">34,168</text>
        <text x="0" y="35" font-size="10" fill="#777777">M2M SETTLEMENTS</text>
    </g>
  </g>

  <text x="425" y="185" font-family="'Consolas', 'Fira Code', monospace" font-size="10" fill="#aaaaaa" opacity="0.6" text-anchor="middle">AXIOMID PROJECTED TARGETS (ILLUSTRATIVE): 2026-07-11 12:55:25 UTC // SECURE_HANDSHAKE</text>
</svg>