<svg width="850" height="200" viewBox="0 0 850 200" xmlns="http://www.w3.org/2000/svg">
  <defs>
    <!-- Carbon Fiber Pattern -->
    <pattern id="carbonFiber" width="10" height="10" patternUnits="userSpaceOnUse">
        <rect width="10" height="10" fill="#050505"/>
        <path d="M0,0 L5,5 L10,0 L5,-5 Z M5,5 L10,10 L15,5 L10,0 Z M-5,5 L0,10 L5,5 L0,0 Z M0,10 L5,15 L10,10 L5,5 Z" fill="#0d0d0d"/>
    </pattern>
    <filter id="glassmorphism">
      <feGaussianBlur stdDeviation="3" result="blur" />
      <feColorMatrix type="matrix" values="1 0 0 0 0  0 1 0 0 0  0 0 1 0 0  0 0 0 18 -7" result="glow" />
      <feBlend in="SourceGraphic" in2="glow" mode="normal" />
    </filter>
    <filter id="textGlow">
      <feGaussianBlur stdDeviation="2" result="blur" />
      <feMerge>
        <feMergeNode in="blur"/>
        <feMergeNode in="SourceGraphic"/>
      </feMerge>
    </filter>
    <linearGradient id="neonBar" x1="0%" y1="0%" x2="100%" y2="0%">
        <stop offset="0%" stop-color="#111111"/>
        <stop offset="100%" stop-color="#39FF14"/>
    </linearGradient>
  </defs>

  <rect width="100%" height="100%" fill="url(#carbonFiber)" rx="12" stroke="#39FF14" stroke-width="1" stroke-opacity="0.3"/>
  <rect width="100%" height="100%" fill="#000000" opacity="0.6" rx="12" />
  <g><polygon points="604,154 612.6,159 612.6,169 604,174 595.4,169 595.4,159" fill="none" stroke="#39FF14" stroke-width="1" opacity="0.06833970065957633"/>
<polygon points="397,103 405.6,108 405.6,118 397,123 388.4,118 388.4,108" fill="none" stroke="#39FF14" stroke-width="1" opacity="0.053773696856965286"/>
<polygon points="68,16 76.6,21 76.6,31 68,36 59.4,31 59.4,21" fill="none" stroke="#39FF14" stroke-width="1" opacity="0.041259004472629736"/>
<polygon points="29,2 37.6,7 37.6,17 29,22 20.4,17 20.4,7" fill="none" stroke="#39FF14" stroke-width="1" opacity="0.024812972043701892"/>
<polygon points="438,139 446.6,144 446.6,154 438,159 429.4,154 429.4,144" fill="none" stroke="#39FF14" stroke-width="1" opacity="0.04725272515009571"/>
<polygon points="779,96 787.6,101 787.6,111 779,116 770.4,111 770.4,101" fill="none" stroke="#39FF14" stroke-width="1" opacity="0.03751917511617442"/>
<polygon points="272,190 280.6,195 280.6,205 272,210 263.4,205 263.4,195" fill="none" stroke="#39FF14" stroke-width="1" opacity="0.050369395650889784"/>
<polygon points="278,147 286.6,152 286.6,162 278,167 269.4,162 269.4,152" fill="none" stroke="#39FF14" stroke-width="1" opacity="0.0674998597780575"/>
<polygon points="26,145 34.6,150 34.6,160 26,165 17.4,160 17.4,150" fill="none" stroke="#39FF14" stroke-width="1" opacity="0.06507214092859737"/>
<polygon points="769,90 777.6,95 777.6,105 769,110 760.4,105 760.4,95" fill="none" stroke="#39FF14" stroke-width="1" opacity="0.02505361245294551"/>
<polygon points="124,31 132.6,36 132.6,46 124,51 115.4,46 115.4,36" fill="none" stroke="#39FF14" stroke-width="1" opacity="0.04327816929035794"/>
<polygon points="794,16 802.6,21 802.6,31 794,36 785.4,31 785.4,21" fill="none" stroke="#39FF14" stroke-width="1" opacity="0.06551513026534861"/>
<polygon points="127,19 135.6,24 135.6,34 127,39 118.4,34 118.4,24" fill="none" stroke="#39FF14" stroke-width="1" opacity="0.05333870427437175"/>
<polygon points="687,62 695.6,67 695.6,77 687,82 678.4,77 678.4,67" fill="none" stroke="#39FF14" stroke-width="1" opacity="0.023571807288138045"/>
<polygon points="322,48 330.6,53 330.6,63 322,68 313.4,63 313.4,53" fill="none" stroke="#39FF14" stroke-width="1" opacity="0.060096868290976435"/>
<polygon points="253,23 261.6,28 261.6,38 253,43 244.4,38 244.4,28" fill="none" stroke="#39FF14" stroke-width="1" opacity="0.0629241662513841"/>
<polygon points="344,78 352.6,83 352.6,93 344,98 335.4,93 335.4,83" fill="none" stroke="#39FF14" stroke-width="1" opacity="0.03161428435342638"/>
<polygon points="717,76 725.6,81 725.6,91 717,96 708.4,91 708.4,81" fill="none" stroke="#39FF14" stroke-width="1" opacity="0.07112307201563861"/>
<polygon points="121,20 129.6,25 129.6,35 121,40 112.4,35 112.4,25" fill="none" stroke="#39FF14" stroke-width="1" opacity="0.06238906494292866"/>
<polygon points="254,14 262.6,19 262.6,29 254,34 245.4,29 245.4,19" fill="none" stroke="#39FF14" stroke-width="1" opacity="0.07265925270793835"/>
<polygon points="816,0 824.6,5 824.6,15 816,20 807.4,15 807.4,5" fill="none" stroke="#39FF14" stroke-width="1" opacity="0.04481118686578357"/>
<polygon points="522,41 530.6,46 530.6,56 522,61 513.4,56 513.4,46" fill="none" stroke="#39FF14" stroke-width="1" opacity="0.07012197797796409"/>
<polygon points="127,176 135.6,181 135.6,191 127,196 118.4,191 118.4,181" fill="none" stroke="#39FF14" stroke-width="1" opacity="0.021820267283692577"/>
<polygon points="352,135 360.6,140 360.6,150 352,155 343.4,150 343.4,140" fill="none" stroke="#39FF14" stroke-width="1" opacity="0.07863776157853233"/>
<polygon points="24,142 32.6,147 32.6,157 24,162 15.4,157 15.4,147" fill="none" stroke="#39FF14" stroke-width="1" opacity="0.04919798522342347"/>
<polygon points="314,176 322.6,181 322.6,191 314,196 305.4,191 305.4,181" fill="none" stroke="#39FF14" stroke-width="1" opacity="0.024945665836280315"/>
<polygon points="4,37 12.6,42 12.6,52 4,57 -4.6,52 -4.6,42" fill="none" stroke="#39FF14" stroke-width="1" opacity="0.04601224440148054"/>
<polygon points="603,185 611.6,190 611.6,200 603,205 594.4,200 594.4,190" fill="none" stroke="#39FF14" stroke-width="1" opacity="0.06528717210375017"/>
<polygon points="164,177 172.6,182 172.6,192 164,197 155.4,192 155.4,182" fill="none" stroke="#39FF14" stroke-width="1" opacity="0.07071442497623423"/>
<polygon points="686,58 694.6,63 694.6,73 686,78 677.4,73 677.4,63" fill="none" stroke="#39FF14" stroke-width="1" opacity="0.04330374369547166"/>
</g>

  <!-- HUD Decorative elements -->
  <path d="M 20 20 L 40 20 L 50 30" fill="none" stroke="#39FF14" stroke-width="2" opacity="0.5"/>
  <path d="M 830 180 L 810 180 L 800 170" fill="none" stroke="#39FF14" stroke-width="2" opacity="0.5"/>
  <rect x="20" y="100" width="2" height="40" fill="#ffffff" opacity="0.4"/>
  <rect x="828" y="60" width="2" height="40" fill="#39FF14" opacity="0.6"/>

  <g font-family="'Consolas', 'Fira Code', monospace" text-anchor="middle">

    <!-- SYSTEM STATUS -->
    <g transform="translate(130, 100)">
        <circle cx="0" cy="0" r="45" fill="none" stroke="#111111" stroke-width="8" />
        <circle cx="0" cy="0" r="45" fill="none" stroke="#39FF14" stroke-width="2" stroke-dasharray="10 5">
            <animateTransform attributeName="transform" type="rotate" from="0" to="360" dur="10s" repeatCount="indefinite"/>
        </circle>
        <circle cx="0" cy="0" r="35" fill="#0d0d0d" />
        <circle cx="0" cy="0" r="6" fill="#39FF14" filter="url(#textGlow)">
            <animate attributeName="opacity" values="1;0.3;1" dur="2s" repeatCount="indefinite"/>
        </circle>
        <text x="0" y="-60" font-size="12" fill="#aaaaaa" letter-spacing="2">SYS.CORE</text>
        <text x="0" y="70" font-size="14" fill="#ffffff" font-weight="bold">ONLINE</text>
    </g>

    <!-- LIVE TRAFFIC -->
    <g transform="translate(330, 100)">
        <rect x="-60" y="-45" width="120" height="90" fill="#0a0a0a" rx="8" stroke="#39FF14" stroke-opacity="0.4" stroke-width="1"/>
        <text x="0" y="-20" font-size="12" fill="#aaaaaa">NETWORK LOAD</text>
        <text x="0" y="15" font-size="28" fill="#ffffff" font-weight="bold" filter="url(#textGlow)">5030</text>
        <text x="0" y="35" font-size="10" fill="#777777">ACTIVE SESSIONS</text>
    </g>

    <!-- ACTIVE AGENTS -->
    <g transform="translate(530, 100)">
        <rect x="-60" y="-45" width="120" height="90" fill="#0a0a0a" rx="8" stroke="#39FF14" stroke-opacity="0.4" stroke-width="1"/>
        <text x="0" y="-20" font-size="12" fill="#aaaaaa">SWARM ENTITIES</text>
        <text x="0" y="15" font-size="28" fill="#ffffff" font-weight="bold" filter="url(#textGlow)">84</text>
        <text x="0" y="35" font-size="10" fill="#777777">AUTONOMOUS</text>
    </g>

    <!-- UPTIME -->
    <g transform="translate(730, 100)">
        <path d="M -40 -35 L 40 -35 L 50 -25 L 50 35 L -40 35 L -50 25 Z" fill="#0a0a0a" stroke="#39FF14" stroke-opacity="0.4" stroke-width="1"/>
        <text x="0" y="-15" font-size="12" fill="#aaaaaa">CONTINUITY</text>
        <text x="0" y="15" font-size="24" fill="#ffffff" font-weight="bold">222<tspan font-size="14" fill="#777777">d</tspan></text>
        <rect x="-35" y="25" width="70" height="4" fill="url(#neonBar)" rx="2"/>
    </g>
  </g>

  <text x="425" y="185" font-family="'Consolas', 'Fira Code', monospace" font-size="10" fill="#aaaaaa" opacity="0.6" text-anchor="middle">LAST TELEMETRY PING: 2026-05-13 15:06:53 UTC // ENCRYPTED_TUNNEL</text>
</svg>