<svg width="850" height="200" viewBox="0 0 850 200" xmlns="http://www.w3.org/2000/svg">
  <defs>
    <pattern id="carbonFiber" width="10" height="10" patternUnits="userSpaceOnUse">
        <rect width="10" height="10" fill="#050505"/>
        <path d="M0,0 L5,5 L10,0 L5,-5 Z M5,5 L10,10 L15,5 L10,0 Z M-5,5 L0,10 L5,5 L0,0 Z M0,10 L5,15 L10,10 L5,5 Z" fill="#0d0d0d"/>
    </pattern>
    <filter id="textGlow">
      <feGaussianBlur stdDeviation="2" result="blur" />
      <feMerge>
        <feMergeNode in="blur"/>
        <feMergeNode in="SourceGraphic"/>
      </feMerge>
    </filter>
    <linearGradient id="neonBar" x1="0%" y1="0%" x2="100%" y2="0%">
        <stop offset="0%" stop-color="#111111"/>
        <stop offset="100%" stop-color="#39FF14"/>
    </linearGradient>
    <linearGradient id="scanlineGrad" x1="0%" y1="0%" x2="100%" y2="0%">
        <stop offset="0%" stop-color="#39FF14" stop-opacity="0"/>
        <stop offset="50%" stop-color="#39FF14" stop-opacity="0.18"/>
        <stop offset="100%" stop-color="#39FF14" stop-opacity="0"/>
    </linearGradient>
    <clipPath id="dashClip">
        <rect x="0" y="0" width="850" height="200" rx="12"/>
    </clipPath>
  </defs>

  <rect width="100%" height="100%" fill="url(#carbonFiber)" rx="12" stroke="#39FF14" stroke-width="1" stroke-opacity="0.3"/>
  <rect width="100%" height="100%" fill="#000000" opacity="0.6" rx="12" />
  <g><polygon points="271,81 279.6,86 279.6,96 271,101 262.4,96 262.4,86" fill="none" stroke="#39FF14" stroke-width="1" opacity="0.026545149029840554"/>
<polygon points="662,53 670.6,58 670.6,68 662,73 653.4,68 653.4,58" fill="none" stroke="#39FF14" stroke-width="1" opacity="0.0786031190444831"/>
<polygon points="694,59 702.6,64 702.6,74 694,79 685.4,74 685.4,64" fill="none" stroke="#39FF14" stroke-width="1" opacity="0.03234300719678435"/>
<polygon points="105,80 113.6,85 113.6,95 105,100 96.4,95 96.4,85" fill="none" stroke="#39FF14" stroke-width="1" opacity="0.06595633149811027"/>
<polygon points="382,111 390.6,116 390.6,126 382,131 373.4,126 373.4,116" fill="none" stroke="#39FF14" stroke-width="1" opacity="0.07347520328364647"/>
<polygon points="133,0 141.6,5 141.6,15 133,20 124.4,15 124.4,5" fill="none" stroke="#39FF14" stroke-width="1" opacity="0.03220204351928027"/>
<polygon points="402,181 410.6,186 410.6,196 402,201 393.4,196 393.4,186" fill="none" stroke="#39FF14" stroke-width="1" opacity="0.0327496489357485"/>
<polygon points="322,29 330.6,34 330.6,44 322,49 313.4,44 313.4,34" fill="none" stroke="#39FF14" stroke-width="1" opacity="0.07670634852313858"/>
<polygon points="672,144 680.6,149 680.6,159 672,164 663.4,159 663.4,149" fill="none" stroke="#39FF14" stroke-width="1" opacity="0.03865154720952036"/>
<polygon points="271,39 279.6,44 279.6,54 271,59 262.4,54 262.4,44" fill="none" stroke="#39FF14" stroke-width="1" opacity="0.07313533491116772"/>
<polygon points="384,47 392.6,52 392.6,62 384,67 375.4,62 375.4,52" fill="none" stroke="#39FF14" stroke-width="1" opacity="0.06850949066550195"/>
<polygon points="111,118 119.6,123 119.6,133 111,138 102.4,133 102.4,123" fill="none" stroke="#39FF14" stroke-width="1" opacity="0.04095745171320774"/>
<polygon points="63,173 71.6,178 71.6,188 63,193 54.4,188 54.4,178" fill="none" stroke="#39FF14" stroke-width="1" opacity="0.022738649904445293"/>
<polygon points="748,162 756.6,167 756.6,177 748,182 739.4,177 739.4,167" fill="none" stroke="#39FF14" stroke-width="1" opacity="0.021500966896424393"/>
<polygon points="46,97 54.6,102 54.6,112 46,117 37.4,112 37.4,102" fill="none" stroke="#39FF14" stroke-width="1" opacity="0.028947831611781744"/>
<polygon points="203,133 211.6,138 211.6,148 203,153 194.4,148 194.4,138" fill="none" stroke="#39FF14" stroke-width="1" opacity="0.07585772987531281"/>
<polygon points="624,44 632.6,49 632.6,59 624,64 615.4,59 615.4,49" fill="none" stroke="#39FF14" stroke-width="1" opacity="0.041472991360021125"/>
<polygon points="60,111 68.6,116 68.6,126 60,131 51.4,126 51.4,116" fill="none" stroke="#39FF14" stroke-width="1" opacity="0.058516030866520546"/>
<polygon points="709,61 717.6,66 717.6,76 709,81 700.4,76 700.4,66" fill="none" stroke="#39FF14" stroke-width="1" opacity="0.02670470050155675"/>
<polygon points="295,172 303.6,177 303.6,187 295,192 286.4,187 286.4,177" fill="none" stroke="#39FF14" stroke-width="1" opacity="0.03143904826389216"/>
<polygon points="195,82 203.6,87 203.6,97 195,102 186.4,97 186.4,87" fill="none" stroke="#39FF14" stroke-width="1" opacity="0.03175669043954854"/>
<polygon points="494,113 502.6,118 502.6,128 494,133 485.4,128 485.4,118" fill="none" stroke="#39FF14" stroke-width="1" opacity="0.02861463370205264"/>
<polygon points="142,0 150.6,5 150.6,15 142,20 133.4,15 133.4,5" fill="none" stroke="#39FF14" stroke-width="1" opacity="0.02933994226898309"/>
<polygon points="453,104 461.6,109 461.6,119 453,124 444.4,119 444.4,109" fill="none" stroke="#39FF14" stroke-width="1" opacity="0.03630758162365149"/>
<polygon points="604,170 612.6,175 612.6,185 604,190 595.4,185 595.4,175" fill="none" stroke="#39FF14" stroke-width="1" opacity="0.07580186939849012"/>
<polygon points="402,188 410.6,193 410.6,203 402,208 393.4,203 393.4,193" fill="none" stroke="#39FF14" stroke-width="1" opacity="0.029003497419842657"/>
<polygon points="87,164 95.6,169 95.6,179 87,184 78.4,179 78.4,169" fill="none" stroke="#39FF14" stroke-width="1" opacity="0.06017111452330584"/>
<polygon points="308,180 316.6,185 316.6,195 308,200 299.4,195 299.4,185" fill="none" stroke="#39FF14" stroke-width="1" opacity="0.0718233140551923"/>
<polygon points="740,71 748.6,76 748.6,86 740,91 731.4,86 731.4,76" fill="none" stroke="#39FF14" stroke-width="1" opacity="0.05439498292134315"/>
<polygon points="408,39 416.6,44 416.6,54 408,59 399.4,54 399.4,44" fill="none" stroke="#39FF14" stroke-width="1" opacity="0.06477089596620916"/>
</g>

  <!-- HUD Decorative elements -->
  <path d="M 20 20 L 40 20 L 50 30" fill="none" stroke="#39FF14" stroke-width="2" opacity="0.5"/>
  <path d="M 830 180 L 810 180 L 800 170" fill="none" stroke="#39FF14" stroke-width="2" opacity="0.5"/>

  <g clip-path="url(#dashClip)">
    <rect x="-160" y="0" width="160" height="200" fill="url(#scanlineGrad)">
      <animateTransform attributeName="transform" type="translate"
                        from="0 0" to="1010 0" dur="6s" repeatCount="indefinite"/>
    </rect>
  </g>

  <g font-family="'Consolas', 'Fira Code', monospace" text-anchor="middle">

    <!-- NETWORK STATUS -->
    <g transform="translate(130, 100)">
        <circle cx="0" cy="0" r="45" fill="none" stroke="#39FF14" stroke-width="2" stroke-dasharray="10 5">
            <animateTransform attributeName="transform" type="rotate" from="0" to="360" dur="10s" repeatCount="indefinite"/>
        </circle>
        <circle cx="0" cy="0" r="35" fill="#0d0d0d" />
        <text x="0" y="-60" font-size="12" fill="#aaaaaa" letter-spacing="2">ROOT.AUTH</text>
        <text x="0" y="70" font-size="14" fill="#ffffff" font-weight="bold">OPERATIONAL</text>
    </g>

    <!-- ACTIVE USERS -->
    <g transform="translate(330, 100)">
        <text x="0" y="-20" font-size="12" fill="#aaaaaa">CITIZENS</text>
        <text x="0" y="15" font-size="28" fill="#ffffff" font-weight="bold" filter="url(#textGlow)">14,706</text>
        <text x="0" y="35" font-size="10" fill="#777777">VERIFIED HUMANS</text>
    </g>

    <!-- REGISTERED AGENTS -->
    <g transform="translate(530, 100)">
        <text x="0" y="-20" font-size="12" fill="#aaaaaa">AGENTS</text>
        <text x="0" y="15" font-size="28" fill="#00d4ff" font-weight="bold" filter="url(#textGlow)">3,587</text>
        <text x="0" y="35" font-size="10" fill="#777777">REGISTERED DIDs</text>
    </g>

    <!-- TRANSACTIONS -->
    <g transform="translate(730, 100)">
        <text x="0" y="-20" font-size="12" fill="#aaaaaa">TRANSFERS</text>
        <text x="0" y="15" font-size="28" fill="#ffffff" font-weight="bold">38,637</text>
        <text x="0" y="35" font-size="10" fill="#777777">M2M SETTLEMENTS</text>
    </g>
  </g>

  <text x="425" y="185" font-family="'Consolas', 'Fira Code', monospace" font-size="10" fill="#aaaaaa" opacity="0.6" text-anchor="middle">AXIOMID PROJECTED TARGETS (ILLUSTRATIVE): 2026-07-14 21:47:18 UTC // SECURE_HANDSHAKE</text>
</svg>