<svg width="850" height="200" viewBox="0 0 850 200" xmlns="http://www.w3.org/2000/svg">
  <defs>
    <pattern id="carbonFiber" width="10" height="10" patternUnits="userSpaceOnUse">
        <rect width="10" height="10" fill="#050505"/>
        <path d="M0,0 L5,5 L10,0 L5,-5 Z M5,5 L10,10 L15,5 L10,0 Z M-5,5 L0,10 L5,5 L0,0 Z M0,10 L5,15 L10,10 L5,5 Z" fill="#0d0d0d"/>
    </pattern>
    <filter id="textGlow">
      <feGaussianBlur stdDeviation="2" result="blur" />
      <feMerge>
        <feMergeNode in="blur"/>
        <feMergeNode in="SourceGraphic"/>
      </feMerge>
    </filter>
    <linearGradient id="neonBar" x1="0%" y1="0%" x2="100%" y2="0%">
        <stop offset="0%" stop-color="#111111"/>
        <stop offset="100%" stop-color="#39FF14"/>
    </linearGradient>
    <linearGradient id="scanlineGrad" x1="0%" y1="0%" x2="100%" y2="0%">
        <stop offset="0%" stop-color="#39FF14" stop-opacity="0"/>
        <stop offset="50%" stop-color="#39FF14" stop-opacity="0.18"/>
        <stop offset="100%" stop-color="#39FF14" stop-opacity="0"/>
    </linearGradient>
    <clipPath id="dashClip">
        <rect x="0" y="0" width="850" height="200" rx="12"/>
    </clipPath>
  </defs>

  <rect width="100%" height="100%" fill="url(#carbonFiber)" rx="12" stroke="#39FF14" stroke-width="1" stroke-opacity="0.3"/>
  <rect width="100%" height="100%" fill="#000000" opacity="0.6" rx="12" />
  <g><polygon points="322,69 330.6,74 330.6,84 322,89 313.4,84 313.4,74" fill="none" stroke="#39FF14" stroke-width="1" opacity="0.05427930449607886"/>
<polygon points="391,121 399.6,126 399.6,136 391,141 382.4,136 382.4,126" fill="none" stroke="#39FF14" stroke-width="1" opacity="0.06600516193394824"/>
<polygon points="396,56 404.6,61 404.6,71 396,76 387.4,71 387.4,61" fill="none" stroke="#39FF14" stroke-width="1" opacity="0.06647356342065838"/>
<polygon points="386,178 394.6,183 394.6,193 386,198 377.4,193 377.4,183" fill="none" stroke="#39FF14" stroke-width="1" opacity="0.05756939552763227"/>
<polygon points="405,-5 413.6,0 413.6,10 405,15 396.4,10 396.4,0" fill="none" stroke="#39FF14" stroke-width="1" opacity="0.024563026433061637"/>
<polygon points="321,73 329.6,78 329.6,88 321,93 312.4,88 312.4,78" fill="none" stroke="#39FF14" stroke-width="1" opacity="0.05365707441950185"/>
<polygon points="428,184 436.6,189 436.6,199 428,204 419.4,199 419.4,189" fill="none" stroke="#39FF14" stroke-width="1" opacity="0.07387829124495826"/>
<polygon points="276,76 284.6,81 284.6,91 276,96 267.4,91 267.4,81" fill="none" stroke="#39FF14" stroke-width="1" opacity="0.07643810774150263"/>
<polygon points="505,12 513.6,17 513.6,27 505,32 496.4,27 496.4,17" fill="none" stroke="#39FF14" stroke-width="1" opacity="0.03419401550962932"/>
<polygon points="268,15 276.6,20 276.6,30 268,35 259.4,30 259.4,20" fill="none" stroke="#39FF14" stroke-width="1" opacity="0.05935658899936298"/>
<polygon points="455,108 463.6,113 463.6,123 455,128 446.4,123 446.4,113" fill="none" stroke="#39FF14" stroke-width="1" opacity="0.0718983435181832"/>
<polygon points="11,81 19.6,86 19.6,96 11,101 2.4000000000000004,96 2.4000000000000004,86" fill="none" stroke="#39FF14" stroke-width="1" opacity="0.02207996754797594"/>
<polygon points="407,115 415.6,120 415.6,130 407,135 398.4,130 398.4,120" fill="none" stroke="#39FF14" stroke-width="1" opacity="0.04608332402351779"/>
<polygon points="93,77 101.6,82 101.6,92 93,97 84.4,92 84.4,82" fill="none" stroke="#39FF14" stroke-width="1" opacity="0.04739456842285228"/>
<polygon points="509,45 517.6,50 517.6,60 509,65 500.4,60 500.4,50" fill="none" stroke="#39FF14" stroke-width="1" opacity="0.02946428870536947"/>
<polygon points="189,127 197.6,132 197.6,142 189,147 180.4,142 180.4,132" fill="none" stroke="#39FF14" stroke-width="1" opacity="0.02495804962213347"/>
<polygon points="269,76 277.6,81 277.6,91 269,96 260.4,91 260.4,81" fill="none" stroke="#39FF14" stroke-width="1" opacity="0.024191554751971805"/>
<polygon points="651,49 659.6,54 659.6,64 651,69 642.4,64 642.4,54" fill="none" stroke="#39FF14" stroke-width="1" opacity="0.06690000383103288"/>
<polygon points="344,25 352.6,30 352.6,40 344,45 335.4,40 335.4,30" fill="none" stroke="#39FF14" stroke-width="1" opacity="0.07086603735851232"/>
<polygon points="550,29 558.6,34 558.6,44 550,49 541.4,44 541.4,34" fill="none" stroke="#39FF14" stroke-width="1" opacity="0.03200003343103333"/>
<polygon points="94,-6 102.6,-1 102.6,9 94,14 85.4,9 85.4,-1" fill="none" stroke="#39FF14" stroke-width="1" opacity="0.06726563029472503"/>
<polygon points="522,48 530.6,53 530.6,63 522,68 513.4,63 513.4,53" fill="none" stroke="#39FF14" stroke-width="1" opacity="0.02994764934259852"/>
<polygon points="90,60 98.6,65 98.6,75 90,80 81.4,75 81.4,65" fill="none" stroke="#39FF14" stroke-width="1" opacity="0.02994954750767727"/>
<polygon points="197,23 205.6,28 205.6,38 197,43 188.4,38 188.4,28" fill="none" stroke="#39FF14" stroke-width="1" opacity="0.04294400221557233"/>
<polygon points="519,138 527.6,143 527.6,153 519,158 510.4,153 510.4,143" fill="none" stroke="#39FF14" stroke-width="1" opacity="0.06597005505072318"/>
<polygon points="392,-3 400.6,2 400.6,12 392,17 383.4,12 383.4,2" fill="none" stroke="#39FF14" stroke-width="1" opacity="0.022504492346059893"/>
<polygon points="598,186 606.6,191 606.6,201 598,206 589.4,201 589.4,191" fill="none" stroke="#39FF14" stroke-width="1" opacity="0.02338503891817411"/>
<polygon points="49,5 57.6,10 57.6,20 49,25 40.4,20 40.4,10" fill="none" stroke="#39FF14" stroke-width="1" opacity="0.050218194022211324"/>
<polygon points="37,64 45.6,69 45.6,79 37,84 28.4,79 28.4,69" fill="none" stroke="#39FF14" stroke-width="1" opacity="0.03383613676373959"/>
<polygon points="399,78 407.6,83 407.6,93 399,98 390.4,93 390.4,83" fill="none" stroke="#39FF14" stroke-width="1" opacity="0.031030512989560693"/>
</g>

  <!-- HUD Decorative elements -->
  <path d="M 20 20 L 40 20 L 50 30" fill="none" stroke="#39FF14" stroke-width="2" opacity="0.5"/>
  <path d="M 830 180 L 810 180 L 800 170" fill="none" stroke="#39FF14" stroke-width="2" opacity="0.5"/>

  <g clip-path="url(#dashClip)">
    <rect x="-160" y="0" width="160" height="200" fill="url(#scanlineGrad)">
      <animateTransform attributeName="transform" type="translate"
                        from="0 0" to="1010 0" dur="6s" repeatCount="indefinite"/>
    </rect>
  </g>

  <g font-family="'Consolas', 'Fira Code', monospace" text-anchor="middle">

    <!-- NETWORK STATUS -->
    <g transform="translate(130, 100)">
        <circle cx="0" cy="0" r="45" fill="none" stroke="#39FF14" stroke-width="2" stroke-dasharray="10 5">
            <animateTransform attributeName="transform" type="rotate" from="0" to="360" dur="10s" repeatCount="indefinite"/>
        </circle>
        <circle cx="0" cy="0" r="35" fill="#0d0d0d" />
        <text x="0" y="-60" font-size="12" fill="#aaaaaa" letter-spacing="2">ROOT.AUTH</text>
        <text x="0" y="70" font-size="14" fill="#ffffff" font-weight="bold">OPERATIONAL</text>
    </g>

    <!-- ACTIVE USERS -->
    <g transform="translate(330, 100)">
        <text x="0" y="-20" font-size="12" fill="#aaaaaa">CITIZENS</text>
        <text x="0" y="15" font-size="28" fill="#ffffff" font-weight="bold" filter="url(#textGlow)">12,907</text>
        <text x="0" y="35" font-size="10" fill="#777777">VERIFIED HUMANS</text>
    </g>

    <!-- REGISTERED AGENTS -->
    <g transform="translate(530, 100)">
        <text x="0" y="-20" font-size="12" fill="#aaaaaa">AGENTS</text>
        <text x="0" y="15" font-size="28" fill="#00d4ff" font-weight="bold" filter="url(#textGlow)">3,903</text>
        <text x="0" y="35" font-size="10" fill="#777777">REGISTERED DIDs</text>
    </g>

    <!-- TRANSACTIONS -->
    <g transform="translate(730, 100)">
        <text x="0" y="-20" font-size="12" fill="#aaaaaa">TRANSFERS</text>
        <text x="0" y="15" font-size="28" fill="#ffffff" font-weight="bold">35,177</text>
        <text x="0" y="35" font-size="10" fill="#777777">M2M SETTLEMENTS</text>
    </g>
  </g>

  <text x="425" y="185" font-family="'Consolas', 'Fira Code', monospace" font-size="10" fill="#aaaaaa" opacity="0.6" text-anchor="middle">AXIOMID PROJECTED TARGETS (ILLUSTRATIVE): 2026-07-22 08:07:59 UTC // SECURE_HANDSHAKE</text>
</svg>