<svg width="850" height="200" viewBox="0 0 850 200" xmlns="http://www.w3.org/2000/svg">
  <defs>
    <pattern id="carbonFiber" width="10" height="10" patternUnits="userSpaceOnUse">
        <rect width="10" height="10" fill="#050505"/>
        <path d="M0,0 L5,5 L10,0 L5,-5 Z M5,5 L10,10 L15,5 L10,0 Z M-5,5 L0,10 L5,5 L0,0 Z M0,10 L5,15 L10,10 L5,5 Z" fill="#0d0d0d"/>
    </pattern>
    <filter id="textGlow">
      <feGaussianBlur stdDeviation="2" result="blur" />
      <feMerge>
        <feMergeNode in="blur"/>
        <feMergeNode in="SourceGraphic"/>
      </feMerge>
    </filter>
    <linearGradient id="neonBar" x1="0%" y1="0%" x2="100%" y2="0%">
        <stop offset="0%" stop-color="#111111"/>
        <stop offset="100%" stop-color="#39FF14"/>
    </linearGradient>
    <linearGradient id="scanlineGrad" x1="0%" y1="0%" x2="100%" y2="0%">
        <stop offset="0%" stop-color="#39FF14" stop-opacity="0"/>
        <stop offset="50%" stop-color="#39FF14" stop-opacity="0.18"/>
        <stop offset="100%" stop-color="#39FF14" stop-opacity="0"/>
    </linearGradient>
    <clipPath id="dashClip">
        <rect x="0" y="0" width="850" height="200" rx="12"/>
    </clipPath>
  </defs>

  <rect width="100%" height="100%" fill="url(#carbonFiber)" rx="12" stroke="#39FF14" stroke-width="1" stroke-opacity="0.3"/>
  <rect width="100%" height="100%" fill="#000000" opacity="0.6" rx="12" />
  <g><polygon points="310,122 318.6,127 318.6,137 310,142 301.4,137 301.4,127" fill="none" stroke="#39FF14" stroke-width="1" opacity="0.06155854527219298"/>
<polygon points="728,47 736.6,52 736.6,62 728,67 719.4,62 719.4,52" fill="none" stroke="#39FF14" stroke-width="1" opacity="0.033699856625170915"/>
<polygon points="847,14 855.6,19 855.6,29 847,34 838.4,29 838.4,19" fill="none" stroke="#39FF14" stroke-width="1" opacity="0.06833664006718335"/>
<polygon points="753,173 761.6,178 761.6,188 753,193 744.4,188 744.4,178" fill="none" stroke="#39FF14" stroke-width="1" opacity="0.0611233258897312"/>
<polygon points="153,127 161.6,132 161.6,142 153,147 144.4,142 144.4,132" fill="none" stroke="#39FF14" stroke-width="1" opacity="0.063132957261504"/>
<polygon points="178,148 186.6,153 186.6,163 178,168 169.4,163 169.4,153" fill="none" stroke="#39FF14" stroke-width="1" opacity="0.07966366715187687"/>
<polygon points="309,19 317.6,24 317.6,34 309,39 300.4,34 300.4,24" fill="none" stroke="#39FF14" stroke-width="1" opacity="0.06925979821406554"/>
<polygon points="512,99 520.6,104 520.6,114 512,119 503.4,114 503.4,104" fill="none" stroke="#39FF14" stroke-width="1" opacity="0.050701784558522325"/>
<polygon points="334,15 342.6,20 342.6,30 334,35 325.4,30 325.4,20" fill="none" stroke="#39FF14" stroke-width="1" opacity="0.0320297078280563"/>
<polygon points="719,102 727.6,107 727.6,117 719,122 710.4,117 710.4,107" fill="none" stroke="#39FF14" stroke-width="1" opacity="0.06323183870885138"/>
<polygon points="27,131 35.6,136 35.6,146 27,151 18.4,146 18.4,136" fill="none" stroke="#39FF14" stroke-width="1" opacity="0.07473799055243129"/>
<polygon points="663,77 671.6,82 671.6,92 663,97 654.4,92 654.4,82" fill="none" stroke="#39FF14" stroke-width="1" opacity="0.04549279771854496"/>
<polygon points="326,99 334.6,104 334.6,114 326,119 317.4,114 317.4,104" fill="none" stroke="#39FF14" stroke-width="1" opacity="0.05784687627204686"/>
<polygon points="55,142 63.6,147 63.6,157 55,162 46.4,157 46.4,147" fill="none" stroke="#39FF14" stroke-width="1" opacity="0.05475268992599103"/>
<polygon points="728,104 736.6,109 736.6,119 728,124 719.4,119 719.4,109" fill="none" stroke="#39FF14" stroke-width="1" opacity="0.048596676331908284"/>
<polygon points="162,98 170.6,103 170.6,113 162,118 153.4,113 153.4,103" fill="none" stroke="#39FF14" stroke-width="1" opacity="0.06997730211397067"/>
<polygon points="228,164 236.6,169 236.6,179 228,184 219.4,179 219.4,169" fill="none" stroke="#39FF14" stroke-width="1" opacity="0.030383156091406537"/>
<polygon points="152,61 160.6,66 160.6,76 152,81 143.4,76 143.4,66" fill="none" stroke="#39FF14" stroke-width="1" opacity="0.0764234479895994"/>
<polygon points="265,40 273.6,45 273.6,55 265,60 256.4,55 256.4,45" fill="none" stroke="#39FF14" stroke-width="1" opacity="0.038228377663280966"/>
<polygon points="690,93 698.6,98 698.6,108 690,113 681.4,108 681.4,98" fill="none" stroke="#39FF14" stroke-width="1" opacity="0.056743840898281675"/>
<polygon points="547,134 555.6,139 555.6,149 547,154 538.4,149 538.4,139" fill="none" stroke="#39FF14" stroke-width="1" opacity="0.058155473463637294"/>
<polygon points="839,89 847.6,94 847.6,104 839,109 830.4,104 830.4,94" fill="none" stroke="#39FF14" stroke-width="1" opacity="0.03713637697332489"/>
<polygon points="20,181 28.6,186 28.6,196 20,201 11.4,196 11.4,186" fill="none" stroke="#39FF14" stroke-width="1" opacity="0.0590512375324649"/>
<polygon points="552,72 560.6,77 560.6,87 552,92 543.4,87 543.4,77" fill="none" stroke="#39FF14" stroke-width="1" opacity="0.02757311507319641"/>
<polygon points="627,120 635.6,125 635.6,135 627,140 618.4,135 618.4,125" fill="none" stroke="#39FF14" stroke-width="1" opacity="0.07489006764151758"/>
<polygon points="723,176 731.6,181 731.6,191 723,196 714.4,191 714.4,181" fill="none" stroke="#39FF14" stroke-width="1" opacity="0.05010797421513202"/>
<polygon points="402,23 410.6,28 410.6,38 402,43 393.4,38 393.4,28" fill="none" stroke="#39FF14" stroke-width="1" opacity="0.04585925221707446"/>
<polygon points="465,-9 473.6,-4 473.6,6 465,11 456.4,6 456.4,-4" fill="none" stroke="#39FF14" stroke-width="1" opacity="0.056311915072972285"/>
<polygon points="223,48 231.6,53 231.6,63 223,68 214.4,63 214.4,53" fill="none" stroke="#39FF14" stroke-width="1" opacity="0.020410124695085047"/>
<polygon points="457,120 465.6,125 465.6,135 457,140 448.4,135 448.4,125" fill="none" stroke="#39FF14" stroke-width="1" opacity="0.02092019547659758"/>
</g>

  <!-- HUD Decorative elements -->
  <path d="M 20 20 L 40 20 L 50 30" fill="none" stroke="#39FF14" stroke-width="2" opacity="0.5"/>
  <path d="M 830 180 L 810 180 L 800 170" fill="none" stroke="#39FF14" stroke-width="2" opacity="0.5"/>

  <g clip-path="url(#dashClip)">
    <rect x="-160" y="0" width="160" height="200" fill="url(#scanlineGrad)">
      <animateTransform attributeName="transform" type="translate"
                        from="0 0" to="1010 0" dur="6s" repeatCount="indefinite"/>
    </rect>
  </g>

  <g font-family="'Consolas', 'Fira Code', monospace" text-anchor="middle">

    <!-- NETWORK STATUS -->
    <g transform="translate(130, 100)">
        <circle cx="0" cy="0" r="45" fill="none" stroke="#39FF14" stroke-width="2" stroke-dasharray="10 5">
            <animateTransform attributeName="transform" type="rotate" from="0" to="360" dur="10s" repeatCount="indefinite"/>
        </circle>
        <circle cx="0" cy="0" r="35" fill="#0d0d0d" />
        <text x="0" y="-60" font-size="12" fill="#aaaaaa" letter-spacing="2">ROOT.AUTH</text>
        <text x="0" y="70" font-size="14" fill="#ffffff" font-weight="bold">OPERATIONAL</text>
    </g>

    <!-- ACTIVE USERS -->
    <g transform="translate(330, 100)">
        <text x="0" y="-20" font-size="12" fill="#aaaaaa">CITIZENS</text>
        <text x="0" y="15" font-size="28" fill="#ffffff" font-weight="bold" filter="url(#textGlow)">14,040</text>
        <text x="0" y="35" font-size="10" fill="#777777">VERIFIED HUMANS</text>
    </g>

    <!-- REGISTERED AGENTS -->
    <g transform="translate(530, 100)">
        <text x="0" y="-20" font-size="12" fill="#aaaaaa">AGENTS</text>
        <text x="0" y="15" font-size="28" fill="#00d4ff" font-weight="bold" filter="url(#textGlow)">4,138</text>
        <text x="0" y="35" font-size="10" fill="#777777">REGISTERED DIDs</text>
    </g>

    <!-- TRANSACTIONS -->
    <g transform="translate(730, 100)">
        <text x="0" y="-20" font-size="12" fill="#aaaaaa">TRANSFERS</text>
        <text x="0" y="15" font-size="28" fill="#ffffff" font-weight="bold">30,710</text>
        <text x="0" y="35" font-size="10" fill="#777777">M2M SETTLEMENTS</text>
    </g>
  </g>

  <text x="425" y="185" font-family="'Consolas', 'Fira Code', monospace" font-size="10" fill="#aaaaaa" opacity="0.6" text-anchor="middle">AXIOMID PROJECTED TARGETS (ILLUSTRATIVE): 2026-07-23 21:56:28 UTC // SECURE_HANDSHAKE</text>
</svg>