<svg width="850" height="200" viewBox="0 0 850 200" xmlns="http://www.w3.org/2000/svg">
  <defs>
    <pattern id="carbonFiber" width="10" height="10" patternUnits="userSpaceOnUse">
        <rect width="10" height="10" fill="#050505"/>
        <path d="M0,0 L5,5 L10,0 L5,-5 Z M5,5 L10,10 L15,5 L10,0 Z M-5,5 L0,10 L5,5 L0,0 Z M0,10 L5,15 L10,10 L5,5 Z" fill="#0d0d0d"/>
    </pattern>
    <filter id="textGlow">
      <feGaussianBlur stdDeviation="2" result="blur" />
      <feMerge>
        <feMergeNode in="blur"/>
        <feMergeNode in="SourceGraphic"/>
      </feMerge>
    </filter>
    <linearGradient id="neonBar" x1="0%" y1="0%" x2="100%" y2="0%">
        <stop offset="0%" stop-color="#111111"/>
        <stop offset="100%" stop-color="#39FF14"/>
    </linearGradient>
    <linearGradient id="scanlineGrad" x1="0%" y1="0%" x2="100%" y2="0%">
        <stop offset="0%" stop-color="#39FF14" stop-opacity="0"/>
        <stop offset="50%" stop-color="#39FF14" stop-opacity="0.18"/>
        <stop offset="100%" stop-color="#39FF14" stop-opacity="0"/>
    </linearGradient>
    <clipPath id="dashClip">
        <rect x="0" y="0" width="850" height="200" rx="12"/>
    </clipPath>
  </defs>

  <rect width="100%" height="100%" fill="url(#carbonFiber)" rx="12" stroke="#39FF14" stroke-width="1" stroke-opacity="0.3"/>
  <rect width="100%" height="100%" fill="#000000" opacity="0.6" rx="12" />
  <g><polygon points="538,146 546.6,151 546.6,161 538,166 529.4,161 529.4,151" fill="none" stroke="#39FF14" stroke-width="1" opacity="0.03762813633256082"/>
<polygon points="531,142 539.6,147 539.6,157 531,162 522.4,157 522.4,147" fill="none" stroke="#39FF14" stroke-width="1" opacity="0.04460645421088413"/>
<polygon points="447,-1 455.6,4 455.6,14 447,19 438.4,14 438.4,4" fill="none" stroke="#39FF14" stroke-width="1" opacity="0.04131726689839868"/>
<polygon points="705,127 713.6,132 713.6,142 705,147 696.4,142 696.4,132" fill="none" stroke="#39FF14" stroke-width="1" opacity="0.03631075939876036"/>
<polygon points="663,26 671.6,31 671.6,41 663,46 654.4,41 654.4,31" fill="none" stroke="#39FF14" stroke-width="1" opacity="0.025051704007497587"/>
<polygon points="383,147 391.6,152 391.6,162 383,167 374.4,162 374.4,152" fill="none" stroke="#39FF14" stroke-width="1" opacity="0.07567250173466916"/>
<polygon points="680,189 688.6,194 688.6,204 680,209 671.4,204 671.4,194" fill="none" stroke="#39FF14" stroke-width="1" opacity="0.03974493947392746"/>
<polygon points="781,92 789.6,97 789.6,107 781,112 772.4,107 772.4,97" fill="none" stroke="#39FF14" stroke-width="1" opacity="0.025256068592471877"/>
<polygon points="808,113 816.6,118 816.6,128 808,133 799.4,128 799.4,118" fill="none" stroke="#39FF14" stroke-width="1" opacity="0.07316398553653312"/>
<polygon points="627,179 635.6,184 635.6,194 627,199 618.4,194 618.4,184" fill="none" stroke="#39FF14" stroke-width="1" opacity="0.045850710323576085"/>
<polygon points="725,189 733.6,194 733.6,204 725,209 716.4,204 716.4,194" fill="none" stroke="#39FF14" stroke-width="1" opacity="0.03372831760020199"/>
<polygon points="87,12 95.6,17 95.6,27 87,32 78.4,27 78.4,17" fill="none" stroke="#39FF14" stroke-width="1" opacity="0.0691416517919874"/>
<polygon points="628,22 636.6,27 636.6,37 628,42 619.4,37 619.4,27" fill="none" stroke="#39FF14" stroke-width="1" opacity="0.03187203805770869"/>
<polygon points="636,75 644.6,80 644.6,90 636,95 627.4,90 627.4,80" fill="none" stroke="#39FF14" stroke-width="1" opacity="0.03827905766996475"/>
<polygon points="313,123 321.6,128 321.6,138 313,143 304.4,138 304.4,128" fill="none" stroke="#39FF14" stroke-width="1" opacity="0.022373869944827693"/>
<polygon points="129,84 137.6,89 137.6,99 129,104 120.4,99 120.4,89" fill="none" stroke="#39FF14" stroke-width="1" opacity="0.06820988360142362"/>
<polygon points="314,24 322.6,29 322.6,39 314,44 305.4,39 305.4,29" fill="none" stroke="#39FF14" stroke-width="1" opacity="0.07776154038425351"/>
<polygon points="105,5 113.6,10 113.6,20 105,25 96.4,20 96.4,10" fill="none" stroke="#39FF14" stroke-width="1" opacity="0.06580863497929877"/>
<polygon points="186,79 194.6,84 194.6,94 186,99 177.4,94 177.4,84" fill="none" stroke="#39FF14" stroke-width="1" opacity="0.05029429513684886"/>
<polygon points="52,27 60.6,32 60.6,42 52,47 43.4,42 43.4,32" fill="none" stroke="#39FF14" stroke-width="1" opacity="0.07225927205885857"/>
<polygon points="56,107 64.6,112 64.6,122 56,127 47.4,122 47.4,112" fill="none" stroke="#39FF14" stroke-width="1" opacity="0.025633646357141663"/>
<polygon points="175,60 183.6,65 183.6,75 175,80 166.4,75 166.4,65" fill="none" stroke="#39FF14" stroke-width="1" opacity="0.06132466894991753"/>
<polygon points="199,179 207.6,184 207.6,194 199,199 190.4,194 190.4,184" fill="none" stroke="#39FF14" stroke-width="1" opacity="0.05543335287519753"/>
<polygon points="699,158 707.6,163 707.6,173 699,178 690.4,173 690.4,163" fill="none" stroke="#39FF14" stroke-width="1" opacity="0.0430923182898512"/>
<polygon points="772,120 780.6,125 780.6,135 772,140 763.4,135 763.4,125" fill="none" stroke="#39FF14" stroke-width="1" opacity="0.025179107710692553"/>
<polygon points="273,162 281.6,167 281.6,177 273,182 264.4,177 264.4,167" fill="none" stroke="#39FF14" stroke-width="1" opacity="0.06437495995200616"/>
<polygon points="334,23 342.6,28 342.6,38 334,43 325.4,38 325.4,28" fill="none" stroke="#39FF14" stroke-width="1" opacity="0.05155639679466463"/>
<polygon points="600,95 608.6,100 608.6,110 600,115 591.4,110 591.4,100" fill="none" stroke="#39FF14" stroke-width="1" opacity="0.06693452420198856"/>
<polygon points="424,120 432.6,125 432.6,135 424,140 415.4,135 415.4,125" fill="none" stroke="#39FF14" stroke-width="1" opacity="0.025641528823576294"/>
<polygon points="27,87 35.6,92 35.6,102 27,107 18.4,102 18.4,92" fill="none" stroke="#39FF14" stroke-width="1" opacity="0.02726860144312299"/>
</g>

  <!-- HUD Decorative elements -->
  <path d="M 20 20 L 40 20 L 50 30" fill="none" stroke="#39FF14" stroke-width="2" opacity="0.5"/>
  <path d="M 830 180 L 810 180 L 800 170" fill="none" stroke="#39FF14" stroke-width="2" opacity="0.5"/>

  <g clip-path="url(#dashClip)">
    <rect x="-160" y="0" width="160" height="200" fill="url(#scanlineGrad)">
      <animateTransform attributeName="transform" type="translate"
                        from="0 0" to="1010 0" dur="6s" repeatCount="indefinite"/>
    </rect>
  </g>

  <g font-family="'Consolas', 'Fira Code', monospace" text-anchor="middle">

    <!-- NETWORK STATUS -->
    <g transform="translate(130, 100)">
        <circle cx="0" cy="0" r="45" fill="none" stroke="#39FF14" stroke-width="2" stroke-dasharray="10 5">
            <animateTransform attributeName="transform" type="rotate" from="0" to="360" dur="10s" repeatCount="indefinite"/>
        </circle>
        <circle cx="0" cy="0" r="35" fill="#0d0d0d" />
        <text x="0" y="-60" font-size="12" fill="#aaaaaa" letter-spacing="2">ROOT.AUTH</text>
        <text x="0" y="70" font-size="14" fill="#ffffff" font-weight="bold">OPERATIONAL</text>
    </g>

    <!-- ACTIVE USERS -->
    <g transform="translate(330, 100)">
        <text x="0" y="-20" font-size="12" fill="#aaaaaa">CITIZENS</text>
        <text x="0" y="15" font-size="28" fill="#ffffff" font-weight="bold" filter="url(#textGlow)">14,121</text>
        <text x="0" y="35" font-size="10" fill="#777777">VERIFIED HUMANS</text>
    </g>

    <!-- REGISTERED AGENTS -->
    <g transform="translate(530, 100)">
        <text x="0" y="-20" font-size="12" fill="#aaaaaa">AGENTS</text>
        <text x="0" y="15" font-size="28" fill="#00d4ff" font-weight="bold" filter="url(#textGlow)">4,635</text>
        <text x="0" y="35" font-size="10" fill="#777777">REGISTERED DIDs</text>
    </g>

    <!-- TRANSACTIONS -->
    <g transform="translate(730, 100)">
        <text x="0" y="-20" font-size="12" fill="#aaaaaa">TRANSFERS</text>
        <text x="0" y="15" font-size="28" fill="#ffffff" font-weight="bold">39,661</text>
        <text x="0" y="35" font-size="10" fill="#777777">M2M SETTLEMENTS</text>
    </g>
  </g>

  <text x="425" y="185" font-family="'Consolas', 'Fira Code', monospace" font-size="10" fill="#aaaaaa" opacity="0.6" text-anchor="middle">AXIOMID PROJECTED TARGETS (ILLUSTRATIVE): 2026-06-29 21:29:37 UTC // SECURE_HANDSHAKE</text>
</svg>