<svg width="850" height="200" viewBox="0 0 850 200" xmlns="http://www.w3.org/2000/svg">
  <defs>
    <pattern id="carbonFiber" width="10" height="10" patternUnits="userSpaceOnUse">
        <rect width="10" height="10" fill="#050505"/>
        <path d="M0,0 L5,5 L10,0 L5,-5 Z M5,5 L10,10 L15,5 L10,0 Z M-5,5 L0,10 L5,5 L0,0 Z M0,10 L5,15 L10,10 L5,5 Z" fill="#0d0d0d"/>
    </pattern>
    <filter id="textGlow">
      <feGaussianBlur stdDeviation="2" result="blur" />
      <feMerge>
        <feMergeNode in="blur"/>
        <feMergeNode in="SourceGraphic"/>
      </feMerge>
    </filter>
    <linearGradient id="neonBar" x1="0%" y1="0%" x2="100%" y2="0%">
        <stop offset="0%" stop-color="#111111"/>
        <stop offset="100%" stop-color="#39FF14"/>
    </linearGradient>
    <linearGradient id="scanlineGrad" x1="0%" y1="0%" x2="100%" y2="0%">
        <stop offset="0%" stop-color="#39FF14" stop-opacity="0"/>
        <stop offset="50%" stop-color="#39FF14" stop-opacity="0.18"/>
        <stop offset="100%" stop-color="#39FF14" stop-opacity="0"/>
    </linearGradient>
    <clipPath id="dashClip">
        <rect x="0" y="0" width="850" height="200" rx="12"/>
    </clipPath>
  </defs>

  <rect width="100%" height="100%" fill="url(#carbonFiber)" rx="12" stroke="#39FF14" stroke-width="1" stroke-opacity="0.3"/>
  <rect width="100%" height="100%" fill="#000000" opacity="0.6" rx="12" />
  <g><polygon points="45,17 53.6,22 53.6,32 45,37 36.4,32 36.4,22" fill="none" stroke="#39FF14" stroke-width="1" opacity="0.03141789365207209"/>
<polygon points="208,181 216.6,186 216.6,196 208,201 199.4,196 199.4,186" fill="none" stroke="#39FF14" stroke-width="1" opacity="0.05628411300348084"/>
<polygon points="271,158 279.6,163 279.6,173 271,178 262.4,173 262.4,163" fill="none" stroke="#39FF14" stroke-width="1" opacity="0.03674470829636542"/>
<polygon points="620,33 628.6,38 628.6,48 620,53 611.4,48 611.4,38" fill="none" stroke="#39FF14" stroke-width="1" opacity="0.06420678718481586"/>
<polygon points="765,38 773.6,43 773.6,53 765,58 756.4,53 756.4,43" fill="none" stroke="#39FF14" stroke-width="1" opacity="0.044157285017462425"/>
<polygon points="125,37 133.6,42 133.6,52 125,57 116.4,52 116.4,42" fill="none" stroke="#39FF14" stroke-width="1" opacity="0.0516395914037438"/>
<polygon points="529,-10 537.6,-5 537.6,5 529,10 520.4,5 520.4,-5" fill="none" stroke="#39FF14" stroke-width="1" opacity="0.05870779056952208"/>
<polygon points="559,130 567.6,135 567.6,145 559,150 550.4,145 550.4,135" fill="none" stroke="#39FF14" stroke-width="1" opacity="0.03517624661461821"/>
<polygon points="5,76 13.6,81 13.6,91 5,96 -3.5999999999999996,91 -3.5999999999999996,81" fill="none" stroke="#39FF14" stroke-width="1" opacity="0.0428542147731453"/>
<polygon points="543,95 551.6,100 551.6,110 543,115 534.4,110 534.4,100" fill="none" stroke="#39FF14" stroke-width="1" opacity="0.038816804077826284"/>
<polygon points="811,62 819.6,67 819.6,77 811,82 802.4,77 802.4,67" fill="none" stroke="#39FF14" stroke-width="1" opacity="0.07698475270959589"/>
<polygon points="704,117 712.6,122 712.6,132 704,137 695.4,132 695.4,122" fill="none" stroke="#39FF14" stroke-width="1" opacity="0.06321118444435342"/>
<polygon points="294,153 302.6,158 302.6,168 294,173 285.4,168 285.4,158" fill="none" stroke="#39FF14" stroke-width="1" opacity="0.045524760406997225"/>
<polygon points="352,56 360.6,61 360.6,71 352,76 343.4,71 343.4,61" fill="none" stroke="#39FF14" stroke-width="1" opacity="0.07711118998002754"/>
<polygon points="90,122 98.6,127 98.6,137 90,142 81.4,137 81.4,127" fill="none" stroke="#39FF14" stroke-width="1" opacity="0.039624028530584846"/>
<polygon points="177,48 185.6,53 185.6,63 177,68 168.4,63 168.4,53" fill="none" stroke="#39FF14" stroke-width="1" opacity="0.03309083408825128"/>
<polygon points="771,121 779.6,126 779.6,136 771,141 762.4,136 762.4,126" fill="none" stroke="#39FF14" stroke-width="1" opacity="0.04565593580220498"/>
<polygon points="434,94 442.6,99 442.6,109 434,114 425.4,109 425.4,99" fill="none" stroke="#39FF14" stroke-width="1" opacity="0.038088271171770785"/>
<polygon points="832,96 840.6,101 840.6,111 832,116 823.4,111 823.4,101" fill="none" stroke="#39FF14" stroke-width="1" opacity="0.06310102624036099"/>
<polygon points="95,85 103.6,90 103.6,100 95,105 86.4,100 86.4,90" fill="none" stroke="#39FF14" stroke-width="1" opacity="0.02114115185427441"/>
<polygon points="572,-5 580.6,0 580.6,10 572,15 563.4,10 563.4,0" fill="none" stroke="#39FF14" stroke-width="1" opacity="0.07779633816732687"/>
<polygon points="60,153 68.6,158 68.6,168 60,173 51.4,168 51.4,158" fill="none" stroke="#39FF14" stroke-width="1" opacity="0.0476342485465568"/>
<polygon points="431,178 439.6,183 439.6,193 431,198 422.4,193 422.4,183" fill="none" stroke="#39FF14" stroke-width="1" opacity="0.050480158272312003"/>
<polygon points="402,71 410.6,76 410.6,86 402,91 393.4,86 393.4,76" fill="none" stroke="#39FF14" stroke-width="1" opacity="0.07389063876494692"/>
<polygon points="704,-6 712.6,-1 712.6,9 704,14 695.4,9 695.4,-1" fill="none" stroke="#39FF14" stroke-width="1" opacity="0.061757493234362526"/>
<polygon points="184,183 192.6,188 192.6,198 184,203 175.4,198 175.4,188" fill="none" stroke="#39FF14" stroke-width="1" opacity="0.04269587164666282"/>
<polygon points="20,183 28.6,188 28.6,198 20,203 11.4,198 11.4,188" fill="none" stroke="#39FF14" stroke-width="1" opacity="0.03993555135231079"/>
<polygon points="674,180 682.6,185 682.6,195 674,200 665.4,195 665.4,185" fill="none" stroke="#39FF14" stroke-width="1" opacity="0.024017279149026325"/>
<polygon points="395,-5 403.6,0 403.6,10 395,15 386.4,10 386.4,0" fill="none" stroke="#39FF14" stroke-width="1" opacity="0.07163680386477649"/>
<polygon points="508,85 516.6,90 516.6,100 508,105 499.4,100 499.4,90" fill="none" stroke="#39FF14" stroke-width="1" opacity="0.037738055448670406"/>
</g>

  <!-- HUD Decorative elements -->
  <path d="M 20 20 L 40 20 L 50 30" fill="none" stroke="#39FF14" stroke-width="2" opacity="0.5"/>
  <path d="M 830 180 L 810 180 L 800 170" fill="none" stroke="#39FF14" stroke-width="2" opacity="0.5"/>

  <g clip-path="url(#dashClip)">
    <rect x="-160" y="0" width="160" height="200" fill="url(#scanlineGrad)">
      <animateTransform attributeName="transform" type="translate"
                        from="0 0" to="1010 0" dur="6s" repeatCount="indefinite"/>
    </rect>
  </g>

  <g font-family="'Consolas', 'Fira Code', monospace" text-anchor="middle">

    <!-- NETWORK STATUS -->
    <g transform="translate(130, 100)">
        <circle cx="0" cy="0" r="45" fill="none" stroke="#39FF14" stroke-width="2" stroke-dasharray="10 5">
            <animateTransform attributeName="transform" type="rotate" from="0" to="360" dur="10s" repeatCount="indefinite"/>
        </circle>
        <circle cx="0" cy="0" r="35" fill="#0d0d0d" />
        <text x="0" y="-60" font-size="12" fill="#aaaaaa" letter-spacing="2">ROOT.AUTH</text>
        <text x="0" y="70" font-size="14" fill="#ffffff" font-weight="bold">OPERATIONAL</text>
    </g>

    <!-- ACTIVE USERS -->
    <g transform="translate(330, 100)">
        <text x="0" y="-20" font-size="12" fill="#aaaaaa">CITIZENS</text>
        <text x="0" y="15" font-size="28" fill="#ffffff" font-weight="bold" filter="url(#textGlow)">14,185</text>
        <text x="0" y="35" font-size="10" fill="#777777">VERIFIED HUMANS</text>
    </g>

    <!-- REGISTERED AGENTS -->
    <g transform="translate(530, 100)">
        <text x="0" y="-20" font-size="12" fill="#aaaaaa">AGENTS</text>
        <text x="0" y="15" font-size="28" fill="#00d4ff" font-weight="bold" filter="url(#textGlow)">4,553</text>
        <text x="0" y="35" font-size="10" fill="#777777">REGISTERED DIDs</text>
    </g>

    <!-- TRANSACTIONS -->
    <g transform="translate(730, 100)">
        <text x="0" y="-20" font-size="12" fill="#aaaaaa">TRANSFERS</text>
        <text x="0" y="15" font-size="28" fill="#ffffff" font-weight="bold">29,521</text>
        <text x="0" y="35" font-size="10" fill="#777777">M2M SETTLEMENTS</text>
    </g>
  </g>

  <text x="425" y="185" font-family="'Consolas', 'Fira Code', monospace" font-size="10" fill="#aaaaaa" opacity="0.6" text-anchor="middle">AXIOMID PROJECTED TARGETS (ILLUSTRATIVE): 2026-07-04 13:00:01 UTC // SECURE_HANDSHAKE</text>
</svg>