<svg width="850" height="200" viewBox="0 0 850 200" xmlns="http://www.w3.org/2000/svg">
  <defs>
    <pattern id="carbonFiber" width="10" height="10" patternUnits="userSpaceOnUse">
        <rect width="10" height="10" fill="#050505"/>
        <path d="M0,0 L5,5 L10,0 L5,-5 Z M5,5 L10,10 L15,5 L10,0 Z M-5,5 L0,10 L5,5 L0,0 Z M0,10 L5,15 L10,10 L5,5 Z" fill="#0d0d0d"/>
    </pattern>
    <filter id="textGlow">
      <feGaussianBlur stdDeviation="2" result="blur" />
      <feMerge>
        <feMergeNode in="blur"/>
        <feMergeNode in="SourceGraphic"/>
      </feMerge>
    </filter>
    <linearGradient id="neonBar" x1="0%" y1="0%" x2="100%" y2="0%">
        <stop offset="0%" stop-color="#111111"/>
        <stop offset="100%" stop-color="#39FF14"/>
    </linearGradient>
    <linearGradient id="scanlineGrad" x1="0%" y1="0%" x2="100%" y2="0%">
        <stop offset="0%" stop-color="#39FF14" stop-opacity="0"/>
        <stop offset="50%" stop-color="#39FF14" stop-opacity="0.18"/>
        <stop offset="100%" stop-color="#39FF14" stop-opacity="0"/>
    </linearGradient>
    <clipPath id="dashClip">
        <rect x="0" y="0" width="850" height="200" rx="12"/>
    </clipPath>
  </defs>

  <rect width="100%" height="100%" fill="url(#carbonFiber)" rx="12" stroke="#39FF14" stroke-width="1" stroke-opacity="0.3"/>
  <rect width="100%" height="100%" fill="#000000" opacity="0.6" rx="12" />
  <g><polygon points="105,186 113.6,191 113.6,201 105,206 96.4,201 96.4,191" fill="none" stroke="#39FF14" stroke-width="1" opacity="0.056181913389054816"/>
<polygon points="758,99 766.6,104 766.6,114 758,119 749.4,114 749.4,104" fill="none" stroke="#39FF14" stroke-width="1" opacity="0.05996810542517876"/>
<polygon points="641,152 649.6,157 649.6,167 641,172 632.4,167 632.4,157" fill="none" stroke="#39FF14" stroke-width="1" opacity="0.0795151877302049"/>
<polygon points="132,-1 140.6,4 140.6,14 132,19 123.4,14 123.4,4" fill="none" stroke="#39FF14" stroke-width="1" opacity="0.052833286059666515"/>
<polygon points="56,109 64.6,114 64.6,124 56,129 47.4,124 47.4,114" fill="none" stroke="#39FF14" stroke-width="1" opacity="0.05114764733028904"/>
<polygon points="184,2 192.6,7 192.6,17 184,22 175.4,17 175.4,7" fill="none" stroke="#39FF14" stroke-width="1" opacity="0.07045746986565554"/>
<polygon points="117,36 125.6,41 125.6,51 117,56 108.4,51 108.4,41" fill="none" stroke="#39FF14" stroke-width="1" opacity="0.07661744418323725"/>
<polygon points="211,64 219.6,69 219.6,79 211,84 202.4,79 202.4,69" fill="none" stroke="#39FF14" stroke-width="1" opacity="0.035811770609924264"/>
<polygon points="329,78 337.6,83 337.6,93 329,98 320.4,93 320.4,83" fill="none" stroke="#39FF14" stroke-width="1" opacity="0.033634356142061464"/>
<polygon points="715,-4 723.6,1 723.6,11 715,16 706.4,11 706.4,1" fill="none" stroke="#39FF14" stroke-width="1" opacity="0.060318618958637896"/>
<polygon points="52,0 60.6,5 60.6,15 52,20 43.4,15 43.4,5" fill="none" stroke="#39FF14" stroke-width="1" opacity="0.07246285463373044"/>
<polygon points="592,169 600.6,174 600.6,184 592,189 583.4,184 583.4,174" fill="none" stroke="#39FF14" stroke-width="1" opacity="0.04952548726498743"/>
<polygon points="565,108 573.6,113 573.6,123 565,128 556.4,123 556.4,113" fill="none" stroke="#39FF14" stroke-width="1" opacity="0.05487489439302906"/>
<polygon points="716,53 724.6,58 724.6,68 716,73 707.4,68 707.4,58" fill="none" stroke="#39FF14" stroke-width="1" opacity="0.0324013042066213"/>
<polygon points="712,14 720.6,19 720.6,29 712,34 703.4,29 703.4,19" fill="none" stroke="#39FF14" stroke-width="1" opacity="0.05543358596000045"/>
<polygon points="547,150 555.6,155 555.6,165 547,170 538.4,165 538.4,155" fill="none" stroke="#39FF14" stroke-width="1" opacity="0.044482915090826025"/>
<polygon points="668,154 676.6,159 676.6,169 668,174 659.4,169 659.4,159" fill="none" stroke="#39FF14" stroke-width="1" opacity="0.06370444717854158"/>
<polygon points="405,183 413.6,188 413.6,198 405,203 396.4,198 396.4,188" fill="none" stroke="#39FF14" stroke-width="1" opacity="0.045045810193496"/>
<polygon points="702,67 710.6,72 710.6,82 702,87 693.4,82 693.4,72" fill="none" stroke="#39FF14" stroke-width="1" opacity="0.05350732064987054"/>
<polygon points="845,8 853.6,13 853.6,23 845,28 836.4,23 836.4,13" fill="none" stroke="#39FF14" stroke-width="1" opacity="0.07026419962333094"/>
<polygon points="707,163 715.6,168 715.6,178 707,183 698.4,178 698.4,168" fill="none" stroke="#39FF14" stroke-width="1" opacity="0.029124854614852015"/>
<polygon points="336,-9 344.6,-4 344.6,6 336,11 327.4,6 327.4,-4" fill="none" stroke="#39FF14" stroke-width="1" opacity="0.035682605184821116"/>
<polygon points="78,184 86.6,189 86.6,199 78,204 69.4,199 69.4,189" fill="none" stroke="#39FF14" stroke-width="1" opacity="0.06671403345504688"/>
<polygon points="770,158 778.6,163 778.6,173 770,178 761.4,173 761.4,163" fill="none" stroke="#39FF14" stroke-width="1" opacity="0.07879409667782568"/>
<polygon points="788,106 796.6,111 796.6,121 788,126 779.4,121 779.4,111" fill="none" stroke="#39FF14" stroke-width="1" opacity="0.0395507345716537"/>
<polygon points="772,105 780.6,110 780.6,120 772,125 763.4,120 763.4,110" fill="none" stroke="#39FF14" stroke-width="1" opacity="0.027551603131974977"/>
<polygon points="595,58 603.6,63 603.6,73 595,78 586.4,73 586.4,63" fill="none" stroke="#39FF14" stroke-width="1" opacity="0.050247156048805294"/>
<polygon points="149,159 157.6,164 157.6,174 149,179 140.4,174 140.4,164" fill="none" stroke="#39FF14" stroke-width="1" opacity="0.026714665628282924"/>
<polygon points="760,63 768.6,68 768.6,78 760,83 751.4,78 751.4,68" fill="none" stroke="#39FF14" stroke-width="1" opacity="0.043119688997214294"/>
<polygon points="4,93 12.6,98 12.6,108 4,113 -4.6,108 -4.6,98" fill="none" stroke="#39FF14" stroke-width="1" opacity="0.0733475930805922"/>
</g>

  <!-- HUD Decorative elements -->
  <path d="M 20 20 L 40 20 L 50 30" fill="none" stroke="#39FF14" stroke-width="2" opacity="0.5"/>
  <path d="M 830 180 L 810 180 L 800 170" fill="none" stroke="#39FF14" stroke-width="2" opacity="0.5"/>

  <g clip-path="url(#dashClip)">
    <rect x="-160" y="0" width="160" height="200" fill="url(#scanlineGrad)">
      <animateTransform attributeName="transform" type="translate"
                        from="0 0" to="1010 0" dur="6s" repeatCount="indefinite"/>
    </rect>
  </g>

  <g font-family="'Consolas', 'Fira Code', monospace" text-anchor="middle">

    <!-- NETWORK STATUS -->
    <g transform="translate(130, 100)">
        <circle cx="0" cy="0" r="45" fill="none" stroke="#39FF14" stroke-width="2" stroke-dasharray="10 5">
            <animateTransform attributeName="transform" type="rotate" from="0" to="360" dur="10s" repeatCount="indefinite"/>
        </circle>
        <circle cx="0" cy="0" r="35" fill="#0d0d0d" />
        <text x="0" y="-60" font-size="12" fill="#aaaaaa" letter-spacing="2">ROOT.AUTH</text>
        <text x="0" y="70" font-size="14" fill="#ffffff" font-weight="bold">OPERATIONAL</text>
    </g>

    <!-- ACTIVE USERS -->
    <g transform="translate(330, 100)">
        <text x="0" y="-20" font-size="12" fill="#aaaaaa">CITIZENS</text>
        <text x="0" y="15" font-size="28" fill="#ffffff" font-weight="bold" filter="url(#textGlow)">13,720</text>
        <text x="0" y="35" font-size="10" fill="#777777">VERIFIED HUMANS</text>
    </g>

    <!-- REGISTERED AGENTS -->
    <g transform="translate(530, 100)">
        <text x="0" y="-20" font-size="12" fill="#aaaaaa">AGENTS</text>
        <text x="0" y="15" font-size="28" fill="#00d4ff" font-weight="bold" filter="url(#textGlow)">3,960</text>
        <text x="0" y="35" font-size="10" fill="#777777">REGISTERED DIDs</text>
    </g>

    <!-- TRANSACTIONS -->
    <g transform="translate(730, 100)">
        <text x="0" y="-20" font-size="12" fill="#aaaaaa">TRANSFERS</text>
        <text x="0" y="15" font-size="28" fill="#ffffff" font-weight="bold">39,168</text>
        <text x="0" y="35" font-size="10" fill="#777777">M2M SETTLEMENTS</text>
    </g>
  </g>

  <text x="425" y="185" font-family="'Consolas', 'Fira Code', monospace" font-size="10" fill="#aaaaaa" opacity="0.6" text-anchor="middle">AXIOMID PROJECTED TARGETS (ILLUSTRATIVE): 2026-07-20 13:48:00 UTC // SECURE_HANDSHAKE</text>
</svg>