<svg width="850" height="200" viewBox="0 0 850 200" xmlns="http://www.w3.org/2000/svg">
  <defs>
    <pattern id="carbonFiber" width="10" height="10" patternUnits="userSpaceOnUse">
        <rect width="10" height="10" fill="#050505"/>
        <path d="M0,0 L5,5 L10,0 L5,-5 Z M5,5 L10,10 L15,5 L10,0 Z M-5,5 L0,10 L5,5 L0,0 Z M0,10 L5,15 L10,10 L5,5 Z" fill="#0d0d0d"/>
    </pattern>
    <filter id="textGlow">
      <feGaussianBlur stdDeviation="2" result="blur" />
      <feMerge>
        <feMergeNode in="blur"/>
        <feMergeNode in="SourceGraphic"/>
      </feMerge>
    </filter>
    <linearGradient id="neonBar" x1="0%" y1="0%" x2="100%" y2="0%">
        <stop offset="0%" stop-color="#111111"/>
        <stop offset="100%" stop-color="#39FF14"/>
    </linearGradient>
    <linearGradient id="scanlineGrad" x1="0%" y1="0%" x2="100%" y2="0%">
        <stop offset="0%" stop-color="#39FF14" stop-opacity="0"/>
        <stop offset="50%" stop-color="#39FF14" stop-opacity="0.18"/>
        <stop offset="100%" stop-color="#39FF14" stop-opacity="0"/>
    </linearGradient>
    <clipPath id="dashClip">
        <rect x="0" y="0" width="850" height="200" rx="12"/>
    </clipPath>
  </defs>

  <rect width="100%" height="100%" fill="url(#carbonFiber)" rx="12" stroke="#39FF14" stroke-width="1" stroke-opacity="0.3"/>
  <rect width="100%" height="100%" fill="#000000" opacity="0.6" rx="12" />
  <g><polygon points="327,108 335.6,113 335.6,123 327,128 318.4,123 318.4,113" fill="none" stroke="#39FF14" stroke-width="1" opacity="0.03193365592284694"/>
<polygon points="314,108 322.6,113 322.6,123 314,128 305.4,123 305.4,113" fill="none" stroke="#39FF14" stroke-width="1" opacity="0.07624765997631967"/>
<polygon points="439,50 447.6,55 447.6,65 439,70 430.4,65 430.4,55" fill="none" stroke="#39FF14" stroke-width="1" opacity="0.07922043302653217"/>
<polygon points="27,149 35.6,154 35.6,164 27,169 18.4,164 18.4,154" fill="none" stroke="#39FF14" stroke-width="1" opacity="0.026687659498367874"/>
<polygon points="825,91 833.6,96 833.6,106 825,111 816.4,106 816.4,96" fill="none" stroke="#39FF14" stroke-width="1" opacity="0.024792712120459207"/>
<polygon points="616,54 624.6,59 624.6,69 616,74 607.4,69 607.4,59" fill="none" stroke="#39FF14" stroke-width="1" opacity="0.05829459281430248"/>
<polygon points="160,87 168.6,92 168.6,102 160,107 151.4,102 151.4,92" fill="none" stroke="#39FF14" stroke-width="1" opacity="0.06718497592704732"/>
<polygon points="373,149 381.6,154 381.6,164 373,169 364.4,164 364.4,154" fill="none" stroke="#39FF14" stroke-width="1" opacity="0.02865513440580362"/>
<polygon points="20,186 28.6,191 28.6,201 20,206 11.4,201 11.4,191" fill="none" stroke="#39FF14" stroke-width="1" opacity="0.0344714122919554"/>
<polygon points="388,4 396.6,9 396.6,19 388,24 379.4,19 379.4,9" fill="none" stroke="#39FF14" stroke-width="1" opacity="0.05185963499448301"/>
<polygon points="30,19 38.6,24 38.6,34 30,39 21.4,34 21.4,24" fill="none" stroke="#39FF14" stroke-width="1" opacity="0.026083061939023065"/>
<polygon points="843,52 851.6,57 851.6,67 843,72 834.4,67 834.4,57" fill="none" stroke="#39FF14" stroke-width="1" opacity="0.05022231197369095"/>
<polygon points="470,108 478.6,113 478.6,123 470,128 461.4,123 461.4,113" fill="none" stroke="#39FF14" stroke-width="1" opacity="0.05557672923041951"/>
<polygon points="236,53 244.6,58 244.6,68 236,73 227.4,68 227.4,58" fill="none" stroke="#39FF14" stroke-width="1" opacity="0.036965916255435716"/>
<polygon points="735,2 743.6,7 743.6,17 735,22 726.4,17 726.4,7" fill="none" stroke="#39FF14" stroke-width="1" opacity="0.05063305419538383"/>
<polygon points="692,68 700.6,73 700.6,83 692,88 683.4,83 683.4,73" fill="none" stroke="#39FF14" stroke-width="1" opacity="0.04391834172776174"/>
<polygon points="246,154 254.6,159 254.6,169 246,174 237.4,169 237.4,159" fill="none" stroke="#39FF14" stroke-width="1" opacity="0.02840095160086802"/>
<polygon points="553,117 561.6,122 561.6,132 553,137 544.4,132 544.4,122" fill="none" stroke="#39FF14" stroke-width="1" opacity="0.038890988547436556"/>
<polygon points="345,114 353.6,119 353.6,129 345,134 336.4,129 336.4,119" fill="none" stroke="#39FF14" stroke-width="1" opacity="0.04180107608779342"/>
<polygon points="830,179 838.6,184 838.6,194 830,199 821.4,194 821.4,184" fill="none" stroke="#39FF14" stroke-width="1" opacity="0.07230508075093844"/>
<polygon points="792,177 800.6,182 800.6,192 792,197 783.4,192 783.4,182" fill="none" stroke="#39FF14" stroke-width="1" opacity="0.07410577196944335"/>
<polygon points="366,37 374.6,42 374.6,52 366,57 357.4,52 357.4,42" fill="none" stroke="#39FF14" stroke-width="1" opacity="0.06121241188427119"/>
<polygon points="448,15 456.6,20 456.6,30 448,35 439.4,30 439.4,20" fill="none" stroke="#39FF14" stroke-width="1" opacity="0.02029004960063088"/>
<polygon points="75,170 83.6,175 83.6,185 75,190 66.4,185 66.4,175" fill="none" stroke="#39FF14" stroke-width="1" opacity="0.03748586141359683"/>
<polygon points="405,47 413.6,52 413.6,62 405,67 396.4,62 396.4,52" fill="none" stroke="#39FF14" stroke-width="1" opacity="0.06978265824292439"/>
<polygon points="460,159 468.6,164 468.6,174 460,179 451.4,174 451.4,164" fill="none" stroke="#39FF14" stroke-width="1" opacity="0.026096956373177268"/>
<polygon points="428,65 436.6,70 436.6,80 428,85 419.4,80 419.4,70" fill="none" stroke="#39FF14" stroke-width="1" opacity="0.04209090921962923"/>
<polygon points="744,14 752.6,19 752.6,29 744,34 735.4,29 735.4,19" fill="none" stroke="#39FF14" stroke-width="1" opacity="0.0538638606113008"/>
<polygon points="681,48 689.6,53 689.6,63 681,68 672.4,63 672.4,53" fill="none" stroke="#39FF14" stroke-width="1" opacity="0.02690388724216968"/>
<polygon points="723,22 731.6,27 731.6,37 723,42 714.4,37 714.4,27" fill="none" stroke="#39FF14" stroke-width="1" opacity="0.052197849104372834"/>
</g>

  <!-- HUD Decorative elements -->
  <path d="M 20 20 L 40 20 L 50 30" fill="none" stroke="#39FF14" stroke-width="2" opacity="0.5"/>
  <path d="M 830 180 L 810 180 L 800 170" fill="none" stroke="#39FF14" stroke-width="2" opacity="0.5"/>

  <g clip-path="url(#dashClip)">
    <rect x="-160" y="0" width="160" height="200" fill="url(#scanlineGrad)">
      <animateTransform attributeName="transform" type="translate"
                        from="0 0" to="1010 0" dur="6s" repeatCount="indefinite"/>
    </rect>
  </g>

  <g font-family="'Consolas', 'Fira Code', monospace" text-anchor="middle">

    <!-- NETWORK STATUS -->
    <g transform="translate(130, 100)">
        <circle cx="0" cy="0" r="45" fill="none" stroke="#39FF14" stroke-width="2" stroke-dasharray="10 5">
            <animateTransform attributeName="transform" type="rotate" from="0" to="360" dur="10s" repeatCount="indefinite"/>
        </circle>
        <circle cx="0" cy="0" r="35" fill="#0d0d0d" />
        <text x="0" y="-60" font-size="12" fill="#aaaaaa" letter-spacing="2">ROOT.AUTH</text>
        <text x="0" y="70" font-size="14" fill="#ffffff" font-weight="bold">OPERATIONAL</text>
    </g>

    <!-- ACTIVE USERS -->
    <g transform="translate(330, 100)">
        <text x="0" y="-20" font-size="12" fill="#aaaaaa">CITIZENS</text>
        <text x="0" y="15" font-size="28" fill="#ffffff" font-weight="bold" filter="url(#textGlow)">14,414</text>
        <text x="0" y="35" font-size="10" fill="#777777">VERIFIED HUMANS</text>
    </g>

    <!-- REGISTERED AGENTS -->
    <g transform="translate(530, 100)">
        <text x="0" y="-20" font-size="12" fill="#aaaaaa">AGENTS</text>
        <text x="0" y="15" font-size="28" fill="#00d4ff" font-weight="bold" filter="url(#textGlow)">3,156</text>
        <text x="0" y="35" font-size="10" fill="#777777">REGISTERED DIDs</text>
    </g>

    <!-- TRANSACTIONS -->
    <g transform="translate(730, 100)">
        <text x="0" y="-20" font-size="12" fill="#aaaaaa">TRANSFERS</text>
        <text x="0" y="15" font-size="28" fill="#ffffff" font-weight="bold">41,067</text>
        <text x="0" y="35" font-size="10" fill="#777777">M2M SETTLEMENTS</text>
    </g>
  </g>

  <text x="425" y="185" font-family="'Consolas', 'Fira Code', monospace" font-size="10" fill="#aaaaaa" opacity="0.6" text-anchor="middle">AXIOMID PROJECTED TARGETS (ILLUSTRATIVE): 2026-07-04 01:57:11 UTC // SECURE_HANDSHAKE</text>
</svg>