<svg width="850" height="200" viewBox="0 0 850 200" xmlns="http://www.w3.org/2000/svg">
  <defs>
    <pattern id="carbonFiber" width="10" height="10" patternUnits="userSpaceOnUse">
        <rect width="10" height="10" fill="#050505"/>
        <path d="M0,0 L5,5 L10,0 L5,-5 Z M5,5 L10,10 L15,5 L10,0 Z M-5,5 L0,10 L5,5 L0,0 Z M0,10 L5,15 L10,10 L5,5 Z" fill="#0d0d0d"/>
    </pattern>
    <filter id="textGlow">
      <feGaussianBlur stdDeviation="2" result="blur" />
      <feMerge>
        <feMergeNode in="blur"/>
        <feMergeNode in="SourceGraphic"/>
      </feMerge>
    </filter>
    <linearGradient id="neonBar" x1="0%" y1="0%" x2="100%" y2="0%">
        <stop offset="0%" stop-color="#111111"/>
        <stop offset="100%" stop-color="#39FF14"/>
    </linearGradient>
    <linearGradient id="scanlineGrad" x1="0%" y1="0%" x2="100%" y2="0%">
        <stop offset="0%" stop-color="#39FF14" stop-opacity="0"/>
        <stop offset="50%" stop-color="#39FF14" stop-opacity="0.18"/>
        <stop offset="100%" stop-color="#39FF14" stop-opacity="0"/>
    </linearGradient>
    <clipPath id="dashClip">
        <rect x="0" y="0" width="850" height="200" rx="12"/>
    </clipPath>
  </defs>

  <rect width="100%" height="100%" fill="url(#carbonFiber)" rx="12" stroke="#39FF14" stroke-width="1" stroke-opacity="0.3"/>
  <rect width="100%" height="100%" fill="#000000" opacity="0.6" rx="12" />
  <g><polygon points="364,44 372.6,49 372.6,59 364,64 355.4,59 355.4,49" fill="none" stroke="#39FF14" stroke-width="1" opacity="0.07161518338307872"/>
<polygon points="526,115 534.6,120 534.6,130 526,135 517.4,130 517.4,120" fill="none" stroke="#39FF14" stroke-width="1" opacity="0.04961590042112871"/>
<polygon points="235,123 243.6,128 243.6,138 235,143 226.4,138 226.4,128" fill="none" stroke="#39FF14" stroke-width="1" opacity="0.026150422504775526"/>
<polygon points="568,44 576.6,49 576.6,59 568,64 559.4,59 559.4,49" fill="none" stroke="#39FF14" stroke-width="1" opacity="0.032250587807274446"/>
<polygon points="208,157 216.6,162 216.6,172 208,177 199.4,172 199.4,162" fill="none" stroke="#39FF14" stroke-width="1" opacity="0.05691208549945451"/>
<polygon points="261,158 269.6,163 269.6,173 261,178 252.4,173 252.4,163" fill="none" stroke="#39FF14" stroke-width="1" opacity="0.05585891091753295"/>
<polygon points="434,170 442.6,175 442.6,185 434,190 425.4,185 425.4,175" fill="none" stroke="#39FF14" stroke-width="1" opacity="0.04649829838686312"/>
<polygon points="752,163 760.6,168 760.6,178 752,183 743.4,178 743.4,168" fill="none" stroke="#39FF14" stroke-width="1" opacity="0.03590055415840568"/>
<polygon points="688,107 696.6,112 696.6,122 688,127 679.4,122 679.4,112" fill="none" stroke="#39FF14" stroke-width="1" opacity="0.04610511870874258"/>
<polygon points="216,77 224.6,82 224.6,92 216,97 207.4,92 207.4,82" fill="none" stroke="#39FF14" stroke-width="1" opacity="0.045607151721795386"/>
<polygon points="399,2 407.6,7 407.6,17 399,22 390.4,17 390.4,7" fill="none" stroke="#39FF14" stroke-width="1" opacity="0.06316752441720472"/>
<polygon points="212,135 220.6,140 220.6,150 212,155 203.4,150 203.4,140" fill="none" stroke="#39FF14" stroke-width="1" opacity="0.043617064174107205"/>
<polygon points="13,64 21.6,69 21.6,79 13,84 4.4,79 4.4,69" fill="none" stroke="#39FF14" stroke-width="1" opacity="0.028013578128967022"/>
<polygon points="848,160 856.6,165 856.6,175 848,180 839.4,175 839.4,165" fill="none" stroke="#39FF14" stroke-width="1" opacity="0.07418600369985763"/>
<polygon points="783,93 791.6,98 791.6,108 783,113 774.4,108 774.4,98" fill="none" stroke="#39FF14" stroke-width="1" opacity="0.027096264912791553"/>
<polygon points="609,147 617.6,152 617.6,162 609,167 600.4,162 600.4,152" fill="none" stroke="#39FF14" stroke-width="1" opacity="0.06576955168535699"/>
<polygon points="518,0 526.6,5 526.6,15 518,20 509.4,15 509.4,5" fill="none" stroke="#39FF14" stroke-width="1" opacity="0.06987679619340978"/>
<polygon points="427,55 435.6,60 435.6,70 427,75 418.4,70 418.4,60" fill="none" stroke="#39FF14" stroke-width="1" opacity="0.05574444402360207"/>
<polygon points="630,36 638.6,41 638.6,51 630,56 621.4,51 621.4,41" fill="none" stroke="#39FF14" stroke-width="1" opacity="0.04477541150262177"/>
<polygon points="61,18 69.6,23 69.6,33 61,38 52.4,33 52.4,23" fill="none" stroke="#39FF14" stroke-width="1" opacity="0.05565501749939357"/>
<polygon points="473,65 481.6,70 481.6,80 473,85 464.4,80 464.4,70" fill="none" stroke="#39FF14" stroke-width="1" opacity="0.07575125803175713"/>
<polygon points="341,134 349.6,139 349.6,149 341,154 332.4,149 332.4,139" fill="none" stroke="#39FF14" stroke-width="1" opacity="0.0441653135123162"/>
<polygon points="826,-9 834.6,-4 834.6,6 826,11 817.4,6 817.4,-4" fill="none" stroke="#39FF14" stroke-width="1" opacity="0.06779873442085455"/>
<polygon points="212,66 220.6,71 220.6,81 212,86 203.4,81 203.4,71" fill="none" stroke="#39FF14" stroke-width="1" opacity="0.07298295708457782"/>
<polygon points="752,20 760.6,25 760.6,35 752,40 743.4,35 743.4,25" fill="none" stroke="#39FF14" stroke-width="1" opacity="0.02298865621136969"/>
<polygon points="89,138 97.6,143 97.6,153 89,158 80.4,153 80.4,143" fill="none" stroke="#39FF14" stroke-width="1" opacity="0.020288913407831607"/>
<polygon points="45,26 53.6,31 53.6,41 45,46 36.4,41 36.4,31" fill="none" stroke="#39FF14" stroke-width="1" opacity="0.07997678873902614"/>
<polygon points="612,15 620.6,20 620.6,30 612,35 603.4,30 603.4,20" fill="none" stroke="#39FF14" stroke-width="1" opacity="0.025388213671220676"/>
<polygon points="307,152 315.6,157 315.6,167 307,172 298.4,167 298.4,157" fill="none" stroke="#39FF14" stroke-width="1" opacity="0.07167952237719437"/>
<polygon points="512,34 520.6,39 520.6,49 512,54 503.4,49 503.4,39" fill="none" stroke="#39FF14" stroke-width="1" opacity="0.04739825097159778"/>
</g>

  <!-- HUD Decorative elements -->
  <path d="M 20 20 L 40 20 L 50 30" fill="none" stroke="#39FF14" stroke-width="2" opacity="0.5"/>
  <path d="M 830 180 L 810 180 L 800 170" fill="none" stroke="#39FF14" stroke-width="2" opacity="0.5"/>

  <g clip-path="url(#dashClip)">
    <rect x="-160" y="0" width="160" height="200" fill="url(#scanlineGrad)">
      <animateTransform attributeName="transform" type="translate"
                        from="0 0" to="1010 0" dur="6s" repeatCount="indefinite"/>
    </rect>
  </g>

  <g font-family="'Consolas', 'Fira Code', monospace" text-anchor="middle">

    <!-- NETWORK STATUS -->
    <g transform="translate(130, 100)">
        <circle cx="0" cy="0" r="45" fill="none" stroke="#39FF14" stroke-width="2" stroke-dasharray="10 5">
            <animateTransform attributeName="transform" type="rotate" from="0" to="360" dur="10s" repeatCount="indefinite"/>
        </circle>
        <circle cx="0" cy="0" r="35" fill="#0d0d0d" />
        <text x="0" y="-60" font-size="12" fill="#aaaaaa" letter-spacing="2">ROOT.AUTH</text>
        <text x="0" y="70" font-size="14" fill="#ffffff" font-weight="bold">OPERATIONAL</text>
    </g>

    <!-- ACTIVE USERS -->
    <g transform="translate(330, 100)">
        <text x="0" y="-20" font-size="12" fill="#aaaaaa">CITIZENS</text>
        <text x="0" y="15" font-size="28" fill="#ffffff" font-weight="bold" filter="url(#textGlow)">14,154</text>
        <text x="0" y="35" font-size="10" fill="#777777">VERIFIED HUMANS</text>
    </g>

    <!-- REGISTERED AGENTS -->
    <g transform="translate(530, 100)">
        <text x="0" y="-20" font-size="12" fill="#aaaaaa">AGENTS</text>
        <text x="0" y="15" font-size="28" fill="#00d4ff" font-weight="bold" filter="url(#textGlow)">3,896</text>
        <text x="0" y="35" font-size="10" fill="#777777">REGISTERED DIDs</text>
    </g>

    <!-- TRANSACTIONS -->
    <g transform="translate(730, 100)">
        <text x="0" y="-20" font-size="12" fill="#aaaaaa">TRANSFERS</text>
        <text x="0" y="15" font-size="28" fill="#ffffff" font-weight="bold">40,330</text>
        <text x="0" y="35" font-size="10" fill="#777777">M2M SETTLEMENTS</text>
    </g>
  </g>

  <text x="425" y="185" font-family="'Consolas', 'Fira Code', monospace" font-size="10" fill="#aaaaaa" opacity="0.6" text-anchor="middle">AXIOMID PROJECTED TARGETS (ILLUSTRATIVE): 2026-06-20 10:01:03 UTC // SECURE_HANDSHAKE</text>
</svg>