<svg width="850" height="200" viewBox="0 0 850 200" xmlns="http://www.w3.org/2000/svg">
  <defs>
    <pattern id="carbonFiber" width="10" height="10" patternUnits="userSpaceOnUse">
        <rect width="10" height="10" fill="#050505"/>
        <path d="M0,0 L5,5 L10,0 L5,-5 Z M5,5 L10,10 L15,5 L10,0 Z M-5,5 L0,10 L5,5 L0,0 Z M0,10 L5,15 L10,10 L5,5 Z" fill="#0d0d0d"/>
    </pattern>
    <filter id="textGlow">
      <feGaussianBlur stdDeviation="2" result="blur" />
      <feMerge>
        <feMergeNode in="blur"/>
        <feMergeNode in="SourceGraphic"/>
      </feMerge>
    </filter>
    <linearGradient id="neonBar" x1="0%" y1="0%" x2="100%" y2="0%">
        <stop offset="0%" stop-color="#111111"/>
        <stop offset="100%" stop-color="#39FF14"/>
    </linearGradient>
    <linearGradient id="scanlineGrad" x1="0%" y1="0%" x2="100%" y2="0%">
        <stop offset="0%" stop-color="#39FF14" stop-opacity="0"/>
        <stop offset="50%" stop-color="#39FF14" stop-opacity="0.18"/>
        <stop offset="100%" stop-color="#39FF14" stop-opacity="0"/>
    </linearGradient>
    <clipPath id="dashClip">
        <rect x="0" y="0" width="850" height="200" rx="12"/>
    </clipPath>
  </defs>

  <rect width="100%" height="100%" fill="url(#carbonFiber)" rx="12" stroke="#39FF14" stroke-width="1" stroke-opacity="0.3"/>
  <rect width="100%" height="100%" fill="#000000" opacity="0.6" rx="12" />
  <g><polygon points="777,36 785.6,41 785.6,51 777,56 768.4,51 768.4,41" fill="none" stroke="#39FF14" stroke-width="1" opacity="0.03716640009928872"/>
<polygon points="343,142 351.6,147 351.6,157 343,162 334.4,157 334.4,147" fill="none" stroke="#39FF14" stroke-width="1" opacity="0.02291112092960982"/>
<polygon points="564,185 572.6,190 572.6,200 564,205 555.4,200 555.4,190" fill="none" stroke="#39FF14" stroke-width="1" opacity="0.060943488735628354"/>
<polygon points="608,182 616.6,187 616.6,197 608,202 599.4,197 599.4,187" fill="none" stroke="#39FF14" stroke-width="1" opacity="0.024531217553034255"/>
<polygon points="622,104 630.6,109 630.6,119 622,124 613.4,119 613.4,109" fill="none" stroke="#39FF14" stroke-width="1" opacity="0.04831916153857897"/>
<polygon points="120,88 128.6,93 128.6,103 120,108 111.4,103 111.4,93" fill="none" stroke="#39FF14" stroke-width="1" opacity="0.025108698651487134"/>
<polygon points="566,14 574.6,19 574.6,29 566,34 557.4,29 557.4,19" fill="none" stroke="#39FF14" stroke-width="1" opacity="0.03785856542599595"/>
<polygon points="476,39 484.6,44 484.6,54 476,59 467.4,54 467.4,44" fill="none" stroke="#39FF14" stroke-width="1" opacity="0.0368069117864631"/>
<polygon points="147,55 155.6,60 155.6,70 147,75 138.4,70 138.4,60" fill="none" stroke="#39FF14" stroke-width="1" opacity="0.07216159058551964"/>
<polygon points="13,153 21.6,158 21.6,168 13,173 4.4,168 4.4,158" fill="none" stroke="#39FF14" stroke-width="1" opacity="0.04193120934581977"/>
<polygon points="799,125 807.6,130 807.6,140 799,145 790.4,140 790.4,130" fill="none" stroke="#39FF14" stroke-width="1" opacity="0.055375165132946935"/>
<polygon points="184,184 192.6,189 192.6,199 184,204 175.4,199 175.4,189" fill="none" stroke="#39FF14" stroke-width="1" opacity="0.0511227704343297"/>
<polygon points="788,119 796.6,124 796.6,134 788,139 779.4,134 779.4,124" fill="none" stroke="#39FF14" stroke-width="1" opacity="0.025081669834082002"/>
<polygon points="448,31 456.6,36 456.6,46 448,51 439.4,46 439.4,36" fill="none" stroke="#39FF14" stroke-width="1" opacity="0.0480991406657094"/>
<polygon points="150,166 158.6,171 158.6,181 150,186 141.4,181 141.4,171" fill="none" stroke="#39FF14" stroke-width="1" opacity="0.046164198071876696"/>
<polygon points="51,147 59.6,152 59.6,162 51,167 42.4,162 42.4,152" fill="none" stroke="#39FF14" stroke-width="1" opacity="0.042763976770701866"/>
<polygon points="421,62 429.6,67 429.6,77 421,82 412.4,77 412.4,67" fill="none" stroke="#39FF14" stroke-width="1" opacity="0.0731081986031677"/>
<polygon points="166,103 174.6,108 174.6,118 166,123 157.4,118 157.4,108" fill="none" stroke="#39FF14" stroke-width="1" opacity="0.023421549950852775"/>
<polygon points="313,56 321.6,61 321.6,71 313,76 304.4,71 304.4,61" fill="none" stroke="#39FF14" stroke-width="1" opacity="0.04254205565198288"/>
<polygon points="737,54 745.6,59 745.6,69 737,74 728.4,69 728.4,59" fill="none" stroke="#39FF14" stroke-width="1" opacity="0.0793424288143668"/>
<polygon points="321,-4 329.6,1 329.6,11 321,16 312.4,11 312.4,1" fill="none" stroke="#39FF14" stroke-width="1" opacity="0.06133222311800804"/>
<polygon points="229,168 237.6,173 237.6,183 229,188 220.4,183 220.4,173" fill="none" stroke="#39FF14" stroke-width="1" opacity="0.04612422589767726"/>
<polygon points="653,40 661.6,45 661.6,55 653,60 644.4,55 644.4,45" fill="none" stroke="#39FF14" stroke-width="1" opacity="0.0681360428366408"/>
<polygon points="180,80 188.6,85 188.6,95 180,100 171.4,95 171.4,85" fill="none" stroke="#39FF14" stroke-width="1" opacity="0.040941293497501106"/>
<polygon points="582,34 590.6,39 590.6,49 582,54 573.4,49 573.4,39" fill="none" stroke="#39FF14" stroke-width="1" opacity="0.03636182436240319"/>
<polygon points="458,87 466.6,92 466.6,102 458,107 449.4,102 449.4,92" fill="none" stroke="#39FF14" stroke-width="1" opacity="0.07011117954086517"/>
<polygon points="505,14 513.6,19 513.6,29 505,34 496.4,29 496.4,19" fill="none" stroke="#39FF14" stroke-width="1" opacity="0.043473174638383336"/>
<polygon points="418,148 426.6,153 426.6,163 418,168 409.4,163 409.4,153" fill="none" stroke="#39FF14" stroke-width="1" opacity="0.04415263033029432"/>
<polygon points="762,112 770.6,117 770.6,127 762,132 753.4,127 753.4,117" fill="none" stroke="#39FF14" stroke-width="1" opacity="0.03426406082199589"/>
<polygon points="22,114 30.6,119 30.6,129 22,134 13.4,129 13.4,119" fill="none" stroke="#39FF14" stroke-width="1" opacity="0.07678211789413468"/>
</g>

  <!-- HUD Decorative elements -->
  <path d="M 20 20 L 40 20 L 50 30" fill="none" stroke="#39FF14" stroke-width="2" opacity="0.5"/>
  <path d="M 830 180 L 810 180 L 800 170" fill="none" stroke="#39FF14" stroke-width="2" opacity="0.5"/>

  <g clip-path="url(#dashClip)">
    <rect x="-160" y="0" width="160" height="200" fill="url(#scanlineGrad)">
      <animateTransform attributeName="transform" type="translate"
                        from="0 0" to="1010 0" dur="6s" repeatCount="indefinite"/>
    </rect>
  </g>

  <g font-family="'Consolas', 'Fira Code', monospace" text-anchor="middle">

    <!-- NETWORK STATUS -->
    <g transform="translate(130, 100)">
        <circle cx="0" cy="0" r="45" fill="none" stroke="#39FF14" stroke-width="2" stroke-dasharray="10 5">
            <animateTransform attributeName="transform" type="rotate" from="0" to="360" dur="10s" repeatCount="indefinite"/>
        </circle>
        <circle cx="0" cy="0" r="35" fill="#0d0d0d" />
        <text x="0" y="-60" font-size="12" fill="#aaaaaa" letter-spacing="2">ROOT.AUTH</text>
        <text x="0" y="70" font-size="14" fill="#ffffff" font-weight="bold">OPERATIONAL</text>
    </g>

    <!-- ACTIVE USERS -->
    <g transform="translate(330, 100)">
        <text x="0" y="-20" font-size="12" fill="#aaaaaa">CITIZENS</text>
        <text x="0" y="15" font-size="28" fill="#ffffff" font-weight="bold" filter="url(#textGlow)">14,890</text>
        <text x="0" y="35" font-size="10" fill="#777777">VERIFIED HUMANS</text>
    </g>

    <!-- REGISTERED AGENTS -->
    <g transform="translate(530, 100)">
        <text x="0" y="-20" font-size="12" fill="#aaaaaa">AGENTS</text>
        <text x="0" y="15" font-size="28" fill="#00d4ff" font-weight="bold" filter="url(#textGlow)">3,486</text>
        <text x="0" y="35" font-size="10" fill="#777777">REGISTERED DIDs</text>
    </g>

    <!-- TRANSACTIONS -->
    <g transform="translate(730, 100)">
        <text x="0" y="-20" font-size="12" fill="#aaaaaa">TRANSFERS</text>
        <text x="0" y="15" font-size="28" fill="#ffffff" font-weight="bold">25,376</text>
        <text x="0" y="35" font-size="10" fill="#777777">M2M SETTLEMENTS</text>
    </g>
  </g>

  <text x="425" y="185" font-family="'Consolas', 'Fira Code', monospace" font-size="10" fill="#aaaaaa" opacity="0.6" text-anchor="middle">AXIOMID PROJECTED TARGETS (ILLUSTRATIVE): 2026-06-24 21:29:32 UTC // SECURE_HANDSHAKE</text>
</svg>