<svg width="850" height="200" viewBox="0 0 850 200" xmlns="http://www.w3.org/2000/svg">
  <defs>
    <pattern id="carbonFiber" width="10" height="10" patternUnits="userSpaceOnUse">
        <rect width="10" height="10" fill="#050505"/>
        <path d="M0,0 L5,5 L10,0 L5,-5 Z M5,5 L10,10 L15,5 L10,0 Z M-5,5 L0,10 L5,5 L0,0 Z M0,10 L5,15 L10,10 L5,5 Z" fill="#0d0d0d"/>
    </pattern>
    <filter id="textGlow">
      <feGaussianBlur stdDeviation="2" result="blur" />
      <feMerge>
        <feMergeNode in="blur"/>
        <feMergeNode in="SourceGraphic"/>
      </feMerge>
    </filter>
    <linearGradient id="neonBar" x1="0%" y1="0%" x2="100%" y2="0%">
        <stop offset="0%" stop-color="#111111"/>
        <stop offset="100%" stop-color="#39FF14"/>
    </linearGradient>
    <linearGradient id="scanlineGrad" x1="0%" y1="0%" x2="100%" y2="0%">
        <stop offset="0%" stop-color="#39FF14" stop-opacity="0"/>
        <stop offset="50%" stop-color="#39FF14" stop-opacity="0.18"/>
        <stop offset="100%" stop-color="#39FF14" stop-opacity="0"/>
    </linearGradient>
    <clipPath id="dashClip">
        <rect x="0" y="0" width="850" height="200" rx="12"/>
    </clipPath>
  </defs>

  <rect width="100%" height="100%" fill="url(#carbonFiber)" rx="12" stroke="#39FF14" stroke-width="1" stroke-opacity="0.3"/>
  <rect width="100%" height="100%" fill="#000000" opacity="0.6" rx="12" />
  <g><polygon points="703,12 711.6,17 711.6,27 703,32 694.4,27 694.4,17" fill="none" stroke="#39FF14" stroke-width="1" opacity="0.07327530095031931"/>
<polygon points="250,144 258.6,149 258.6,159 250,164 241.4,159 241.4,149" fill="none" stroke="#39FF14" stroke-width="1" opacity="0.05696726493034579"/>
<polygon points="491,126 499.6,131 499.6,141 491,146 482.4,141 482.4,131" fill="none" stroke="#39FF14" stroke-width="1" opacity="0.07699668547417807"/>
<polygon points="711,120 719.6,125 719.6,135 711,140 702.4,135 702.4,125" fill="none" stroke="#39FF14" stroke-width="1" opacity="0.044730038959172054"/>
<polygon points="31,154 39.6,159 39.6,169 31,174 22.4,169 22.4,159" fill="none" stroke="#39FF14" stroke-width="1" opacity="0.07495056784018637"/>
<polygon points="797,174 805.6,179 805.6,189 797,194 788.4,189 788.4,179" fill="none" stroke="#39FF14" stroke-width="1" opacity="0.045874359452981"/>
<polygon points="60,113 68.6,118 68.6,128 60,133 51.4,128 51.4,118" fill="none" stroke="#39FF14" stroke-width="1" opacity="0.046075546802061745"/>
<polygon points="440,16 448.6,21 448.6,31 440,36 431.4,31 431.4,21" fill="none" stroke="#39FF14" stroke-width="1" opacity="0.04107780294925366"/>
<polygon points="356,26 364.6,31 364.6,41 356,46 347.4,41 347.4,31" fill="none" stroke="#39FF14" stroke-width="1" opacity="0.026735401534526092"/>
<polygon points="371,91 379.6,96 379.6,106 371,111 362.4,106 362.4,96" fill="none" stroke="#39FF14" stroke-width="1" opacity="0.025943249184445624"/>
<polygon points="229,76 237.6,81 237.6,91 229,96 220.4,91 220.4,81" fill="none" stroke="#39FF14" stroke-width="1" opacity="0.07125189734099513"/>
<polygon points="609,179 617.6,184 617.6,194 609,199 600.4,194 600.4,184" fill="none" stroke="#39FF14" stroke-width="1" opacity="0.046945976491162444"/>
<polygon points="623,132 631.6,137 631.6,147 623,152 614.4,147 614.4,137" fill="none" stroke="#39FF14" stroke-width="1" opacity="0.025999506718635122"/>
<polygon points="822,14 830.6,19 830.6,29 822,34 813.4,29 813.4,19" fill="none" stroke="#39FF14" stroke-width="1" opacity="0.02807050118660311"/>
<polygon points="488,59 496.6,64 496.6,74 488,79 479.4,74 479.4,64" fill="none" stroke="#39FF14" stroke-width="1" opacity="0.06015153923915352"/>
<polygon points="505,12 513.6,17 513.6,27 505,32 496.4,27 496.4,17" fill="none" stroke="#39FF14" stroke-width="1" opacity="0.03206471161903064"/>
<polygon points="703,188 711.6,193 711.6,203 703,208 694.4,203 694.4,193" fill="none" stroke="#39FF14" stroke-width="1" opacity="0.07555025285921833"/>
<polygon points="676,72 684.6,77 684.6,87 676,92 667.4,87 667.4,77" fill="none" stroke="#39FF14" stroke-width="1" opacity="0.056691487855967004"/>
<polygon points="114,80 122.6,85 122.6,95 114,100 105.4,95 105.4,85" fill="none" stroke="#39FF14" stroke-width="1" opacity="0.026916052982900045"/>
<polygon points="484,-7 492.6,-2 492.6,8 484,13 475.4,8 475.4,-2" fill="none" stroke="#39FF14" stroke-width="1" opacity="0.0702562491593871"/>
<polygon points="777,134 785.6,139 785.6,149 777,154 768.4,149 768.4,139" fill="none" stroke="#39FF14" stroke-width="1" opacity="0.035183933574338695"/>
<polygon points="539,63 547.6,68 547.6,78 539,83 530.4,78 530.4,68" fill="none" stroke="#39FF14" stroke-width="1" opacity="0.06738840261265418"/>
<polygon points="12,130 20.6,135 20.6,145 12,150 3.4000000000000004,145 3.4000000000000004,135" fill="none" stroke="#39FF14" stroke-width="1" opacity="0.031647200814435984"/>
<polygon points="557,94 565.6,99 565.6,109 557,114 548.4,109 548.4,99" fill="none" stroke="#39FF14" stroke-width="1" opacity="0.05608481366921014"/>
<polygon points="222,116 230.6,121 230.6,131 222,136 213.4,131 213.4,121" fill="none" stroke="#39FF14" stroke-width="1" opacity="0.05539001704807954"/>
<polygon points="153,162 161.6,167 161.6,177 153,182 144.4,177 144.4,167" fill="none" stroke="#39FF14" stroke-width="1" opacity="0.020526141812966126"/>
<polygon points="142,105 150.6,110 150.6,120 142,125 133.4,120 133.4,110" fill="none" stroke="#39FF14" stroke-width="1" opacity="0.027317723606041747"/>
<polygon points="799,138 807.6,143 807.6,153 799,158 790.4,153 790.4,143" fill="none" stroke="#39FF14" stroke-width="1" opacity="0.056566718096217036"/>
<polygon points="529,158 537.6,163 537.6,173 529,178 520.4,173 520.4,163" fill="none" stroke="#39FF14" stroke-width="1" opacity="0.05156317035068318"/>
<polygon points="553,59 561.6,64 561.6,74 553,79 544.4,74 544.4,64" fill="none" stroke="#39FF14" stroke-width="1" opacity="0.04955742329083207"/>
</g>

  <!-- HUD Decorative elements -->
  <path d="M 20 20 L 40 20 L 50 30" fill="none" stroke="#39FF14" stroke-width="2" opacity="0.5"/>
  <path d="M 830 180 L 810 180 L 800 170" fill="none" stroke="#39FF14" stroke-width="2" opacity="0.5"/>

  <g clip-path="url(#dashClip)">
    <rect x="-160" y="0" width="160" height="200" fill="url(#scanlineGrad)">
      <animateTransform attributeName="transform" type="translate"
                        from="0 0" to="1010 0" dur="6s" repeatCount="indefinite"/>
    </rect>
  </g>

  <g font-family="'Consolas', 'Fira Code', monospace" text-anchor="middle">

    <!-- NETWORK STATUS -->
    <g transform="translate(130, 100)">
        <circle cx="0" cy="0" r="45" fill="none" stroke="#39FF14" stroke-width="2" stroke-dasharray="10 5">
            <animateTransform attributeName="transform" type="rotate" from="0" to="360" dur="10s" repeatCount="indefinite"/>
        </circle>
        <circle cx="0" cy="0" r="35" fill="#0d0d0d" />
        <text x="0" y="-60" font-size="12" fill="#aaaaaa" letter-spacing="2">ROOT.AUTH</text>
        <text x="0" y="70" font-size="14" fill="#ffffff" font-weight="bold">OPERATIONAL</text>
    </g>

    <!-- ACTIVE USERS -->
    <g transform="translate(330, 100)">
        <text x="0" y="-20" font-size="12" fill="#aaaaaa">CITIZENS</text>
        <text x="0" y="15" font-size="28" fill="#ffffff" font-weight="bold" filter="url(#textGlow)">14,768</text>
        <text x="0" y="35" font-size="10" fill="#777777">VERIFIED HUMANS</text>
    </g>

    <!-- REGISTERED AGENTS -->
    <g transform="translate(530, 100)">
        <text x="0" y="-20" font-size="12" fill="#aaaaaa">AGENTS</text>
        <text x="0" y="15" font-size="28" fill="#00d4ff" font-weight="bold" filter="url(#textGlow)">4,362</text>
        <text x="0" y="35" font-size="10" fill="#777777">REGISTERED DIDs</text>
    </g>

    <!-- TRANSACTIONS -->
    <g transform="translate(730, 100)">
        <text x="0" y="-20" font-size="12" fill="#aaaaaa">TRANSFERS</text>
        <text x="0" y="15" font-size="28" fill="#ffffff" font-weight="bold">39,090</text>
        <text x="0" y="35" font-size="10" fill="#777777">M2M SETTLEMENTS</text>
    </g>
  </g>

  <text x="425" y="185" font-family="'Consolas', 'Fira Code', monospace" font-size="10" fill="#aaaaaa" opacity="0.6" text-anchor="middle">AXIOMID PROJECTED TARGETS (ILLUSTRATIVE): 2026-06-30 15:48:11 UTC // SECURE_HANDSHAKE</text>
</svg>