<svg width="850" height="200" viewBox="0 0 850 200" xmlns="http://www.w3.org/2000/svg">
  <defs>
    <!-- Carbon Fiber Pattern -->
    <pattern id="carbonFiber" width="10" height="10" patternUnits="userSpaceOnUse">
        <rect width="10" height="10" fill="#050505"/>
        <path d="M0,0 L5,5 L10,0 L5,-5 Z M5,5 L10,10 L15,5 L10,0 Z M-5,5 L0,10 L5,5 L0,0 Z M0,10 L5,15 L10,10 L5,5 Z" fill="#0d0d0d"/>
    </pattern>
    <filter id="glassmorphism">
      <feGaussianBlur stdDeviation="3" result="blur" />
      <feColorMatrix type="matrix" values="1 0 0 0 0  0 1 0 0 0  0 0 1 0 0  0 0 0 18 -7" result="glow" />
      <feBlend in="SourceGraphic" in2="glow" mode="normal" />
    </filter>
    <filter id="textGlow">
      <feGaussianBlur stdDeviation="2" result="blur" />
      <feMerge>
        <feMergeNode in="blur"/>
        <feMergeNode in="SourceGraphic"/>
      </feMerge>
    </filter>
    <linearGradient id="neonBar" x1="0%" y1="0%" x2="100%" y2="0%">
        <stop offset="0%" stop-color="#111111"/>
        <stop offset="100%" stop-color="#39FF14"/>
    </linearGradient>
  </defs>

  <rect width="100%" height="100%" fill="url(#carbonFiber)" rx="12" stroke="#39FF14" stroke-width="1" stroke-opacity="0.3"/>
  <rect width="100%" height="100%" fill="#000000" opacity="0.6" rx="12" />
  <g><polygon points="292,180 300.6,185 300.6,195 292,200 283.4,195 283.4,185" fill="none" stroke="#39FF14" stroke-width="1" opacity="0.0478686699086427"/>
<polygon points="319,16 327.6,21 327.6,31 319,36 310.4,31 310.4,21" fill="none" stroke="#39FF14" stroke-width="1" opacity="0.07797832207890434"/>
<polygon points="649,116 657.6,121 657.6,131 649,136 640.4,131 640.4,121" fill="none" stroke="#39FF14" stroke-width="1" opacity="0.05184791397886761"/>
<polygon points="37,118 45.6,123 45.6,133 37,138 28.4,133 28.4,123" fill="none" stroke="#39FF14" stroke-width="1" opacity="0.07822411404257422"/>
<polygon points="295,81 303.6,86 303.6,96 295,101 286.4,96 286.4,86" fill="none" stroke="#39FF14" stroke-width="1" opacity="0.04632308170615927"/>
<polygon points="848,31 856.6,36 856.6,46 848,51 839.4,46 839.4,36" fill="none" stroke="#39FF14" stroke-width="1" opacity="0.022620976021448674"/>
<polygon points="829,152 837.6,157 837.6,167 829,172 820.4,167 820.4,157" fill="none" stroke="#39FF14" stroke-width="1" opacity="0.051669703357910934"/>
<polygon points="412,46 420.6,51 420.6,61 412,66 403.4,61 403.4,51" fill="none" stroke="#39FF14" stroke-width="1" opacity="0.058814161741641585"/>
<polygon points="249,-3 257.6,2 257.6,12 249,17 240.4,12 240.4,2" fill="none" stroke="#39FF14" stroke-width="1" opacity="0.04845074714059701"/>
<polygon points="86,71 94.6,76 94.6,86 86,91 77.4,86 77.4,76" fill="none" stroke="#39FF14" stroke-width="1" opacity="0.03497970837941826"/>
<polygon points="621,117 629.6,122 629.6,132 621,137 612.4,132 612.4,122" fill="none" stroke="#39FF14" stroke-width="1" opacity="0.03507466364444414"/>
<polygon points="578,30 586.6,35 586.6,45 578,50 569.4,45 569.4,35" fill="none" stroke="#39FF14" stroke-width="1" opacity="0.03778086128007894"/>
<polygon points="129,47 137.6,52 137.6,62 129,67 120.4,62 120.4,52" fill="none" stroke="#39FF14" stroke-width="1" opacity="0.05911540857881212"/>
<polygon points="374,190 382.6,195 382.6,205 374,210 365.4,205 365.4,195" fill="none" stroke="#39FF14" stroke-width="1" opacity="0.06263967313957239"/>
<polygon points="559,111 567.6,116 567.6,126 559,131 550.4,126 550.4,116" fill="none" stroke="#39FF14" stroke-width="1" opacity="0.0410683175065827"/>
<polygon points="622,48 630.6,53 630.6,63 622,68 613.4,63 613.4,53" fill="none" stroke="#39FF14" stroke-width="1" opacity="0.044293817819004454"/>
<polygon points="515,149 523.6,154 523.6,164 515,169 506.4,164 506.4,154" fill="none" stroke="#39FF14" stroke-width="1" opacity="0.02677035713100565"/>
<polygon points="633,114 641.6,119 641.6,129 633,134 624.4,129 624.4,119" fill="none" stroke="#39FF14" stroke-width="1" opacity="0.07872593840413847"/>
<polygon points="1,45 9.6,50 9.6,60 1,65 -7.6,60 -7.6,50" fill="none" stroke="#39FF14" stroke-width="1" opacity="0.0459428312923962"/>
<polygon points="502,107 510.6,112 510.6,122 502,127 493.4,122 493.4,112" fill="none" stroke="#39FF14" stroke-width="1" opacity="0.034480977956538816"/>
<polygon points="581,169 589.6,174 589.6,184 581,189 572.4,184 572.4,174" fill="none" stroke="#39FF14" stroke-width="1" opacity="0.033968055542076984"/>
<polygon points="471,176 479.6,181 479.6,191 471,196 462.4,191 462.4,181" fill="none" stroke="#39FF14" stroke-width="1" opacity="0.05945670089522476"/>
<polygon points="453,16 461.6,21 461.6,31 453,36 444.4,31 444.4,21" fill="none" stroke="#39FF14" stroke-width="1" opacity="0.02356236768636229"/>
<polygon points="23,79 31.6,84 31.6,94 23,99 14.4,94 14.4,84" fill="none" stroke="#39FF14" stroke-width="1" opacity="0.027095135732790824"/>
<polygon points="650,158 658.6,163 658.6,173 650,178 641.4,173 641.4,163" fill="none" stroke="#39FF14" stroke-width="1" opacity="0.053689084731460585"/>
<polygon points="651,96 659.6,101 659.6,111 651,116 642.4,111 642.4,101" fill="none" stroke="#39FF14" stroke-width="1" opacity="0.07810544856788924"/>
<polygon points="335,142 343.6,147 343.6,157 335,162 326.4,157 326.4,147" fill="none" stroke="#39FF14" stroke-width="1" opacity="0.07267099803143691"/>
<polygon points="767,49 775.6,54 775.6,64 767,69 758.4,64 758.4,54" fill="none" stroke="#39FF14" stroke-width="1" opacity="0.05579310483569806"/>
<polygon points="543,43 551.6,48 551.6,58 543,63 534.4,58 534.4,48" fill="none" stroke="#39FF14" stroke-width="1" opacity="0.044939945756271915"/>
<polygon points="477,172 485.6,177 485.6,187 477,192 468.4,187 468.4,177" fill="none" stroke="#39FF14" stroke-width="1" opacity="0.03002819019924778"/>
</g>

  <!-- HUD Decorative elements -->
  <path d="M 20 20 L 40 20 L 50 30" fill="none" stroke="#39FF14" stroke-width="2" opacity="0.5"/>
  <path d="M 830 180 L 810 180 L 800 170" fill="none" stroke="#39FF14" stroke-width="2" opacity="0.5"/>
  <rect x="20" y="100" width="2" height="40" fill="#ffffff" opacity="0.4"/>
  <rect x="828" y="60" width="2" height="40" fill="#39FF14" opacity="0.6"/>

  <g font-family="'Consolas', 'Fira Code', monospace" text-anchor="middle">

    <!-- SYSTEM STATUS -->
    <g transform="translate(130, 100)">
        <circle cx="0" cy="0" r="45" fill="none" stroke="#111111" stroke-width="8" />
        <circle cx="0" cy="0" r="45" fill="none" stroke="#39FF14" stroke-width="2" stroke-dasharray="10 5">
            <animateTransform attributeName="transform" type="rotate" from="0" to="360" dur="10s" repeatCount="indefinite"/>
        </circle>
        <circle cx="0" cy="0" r="35" fill="#0d0d0d" />
        <circle cx="0" cy="0" r="6" fill="#39FF14" filter="url(#textGlow)">
            <animate attributeName="opacity" values="1;0.3;1" dur="2s" repeatCount="indefinite"/>
        </circle>
        <text x="0" y="-60" font-size="12" fill="#aaaaaa" letter-spacing="2">SYS.CORE</text>
        <text x="0" y="70" font-size="14" fill="#ffffff" font-weight="bold">ONLINE</text>
    </g>

    <!-- LIVE TRAFFIC -->
    <g transform="translate(330, 100)">
        <rect x="-60" y="-45" width="120" height="90" fill="#0a0a0a" rx="8" stroke="#39FF14" stroke-opacity="0.4" stroke-width="1"/>
        <text x="0" y="-20" font-size="12" fill="#aaaaaa">NETWORK LOAD</text>
        <text x="0" y="15" font-size="28" fill="#ffffff" font-weight="bold" filter="url(#textGlow)">5416</text>
        <text x="0" y="35" font-size="10" fill="#777777">ACTIVE SESSIONS</text>
    </g>

    <!-- ACTIVE AGENTS -->
    <g transform="translate(530, 100)">
        <rect x="-60" y="-45" width="120" height="90" fill="#0a0a0a" rx="8" stroke="#39FF14" stroke-opacity="0.4" stroke-width="1"/>
        <text x="0" y="-20" font-size="12" fill="#aaaaaa">SWARM ENTITIES</text>
        <text x="0" y="15" font-size="28" fill="#ffffff" font-weight="bold" filter="url(#textGlow)">187</text>
        <text x="0" y="35" font-size="10" fill="#777777">AUTONOMOUS</text>
    </g>

    <!-- UPTIME -->
    <g transform="translate(730, 100)">
        <path d="M -40 -35 L 40 -35 L 50 -25 L 50 35 L -40 35 L -50 25 Z" fill="#0a0a0a" stroke="#39FF14" stroke-opacity="0.4" stroke-width="1"/>
        <text x="0" y="-15" font-size="12" fill="#aaaaaa">CONTINUITY</text>
        <text x="0" y="15" font-size="24" fill="#ffffff" font-weight="bold">248<tspan font-size="14" fill="#777777">d</tspan></text>
        <rect x="-35" y="25" width="70" height="4" fill="url(#neonBar)" rx="2"/>
    </g>
  </g>

  <text x="425" y="185" font-family="'Consolas', 'Fira Code', monospace" font-size="10" fill="#aaaaaa" opacity="0.6" text-anchor="middle">LAST TELEMETRY PING: 2026-04-26 16:15:20 UTC // ENCRYPTED_TUNNEL</text>
</svg>