<svg width="850" height="200" viewBox="0 0 850 200" xmlns="http://www.w3.org/2000/svg">
  <defs>
    <!-- Carbon Fiber Pattern -->
    <pattern id="carbonFiber" width="10" height="10" patternUnits="userSpaceOnUse">
        <rect width="10" height="10" fill="#050505"/>
        <path d="M0,0 L5,5 L10,0 L5,-5 Z M5,5 L10,10 L15,5 L10,0 Z M-5,5 L0,10 L5,5 L0,0 Z M0,10 L5,15 L10,10 L5,5 Z" fill="#0d0d0d"/>
    </pattern>
    <filter id="glassmorphism">
      <feGaussianBlur stdDeviation="3" result="blur" />
      <feColorMatrix type="matrix" values="1 0 0 0 0  0 1 0 0 0  0 0 1 0 0  0 0 0 18 -7" result="glow" />
      <feBlend in="SourceGraphic" in2="glow" mode="normal" />
    </filter>
    <filter id="textGlow">
      <feGaussianBlur stdDeviation="2" result="blur" />
      <feMerge>
        <feMergeNode in="blur"/>
        <feMergeNode in="SourceGraphic"/>
      </feMerge>
    </filter>
    <linearGradient id="neonBar" x1="0%" y1="0%" x2="100%" y2="0%">
        <stop offset="0%" stop-color="#111111"/>
        <stop offset="100%" stop-color="#39FF14"/>
    </linearGradient>
  </defs>

  <rect width="100%" height="100%" fill="url(#carbonFiber)" rx="12" stroke="#39FF14" stroke-width="1" stroke-opacity="0.3"/>
  <rect width="100%" height="100%" fill="#000000" opacity="0.6" rx="12" />
  <g><polygon points="132,116 140.6,121 140.6,131 132,136 123.4,131 123.4,121" fill="none" stroke="#39FF14" stroke-width="1" opacity="0.02155104738433638"/>
<polygon points="663,4 671.6,9 671.6,19 663,24 654.4,19 654.4,9" fill="none" stroke="#39FF14" stroke-width="1" opacity="0.06290164011821435"/>
<polygon points="521,164 529.6,169 529.6,179 521,184 512.4,179 512.4,169" fill="none" stroke="#39FF14" stroke-width="1" opacity="0.05382423653765098"/>
<polygon points="423,56 431.6,61 431.6,71 423,76 414.4,71 414.4,61" fill="none" stroke="#39FF14" stroke-width="1" opacity="0.05985050900686813"/>
<polygon points="294,40 302.6,45 302.6,55 294,60 285.4,55 285.4,45" fill="none" stroke="#39FF14" stroke-width="1" opacity="0.0689251670507838"/>
<polygon points="267,83 275.6,88 275.6,98 267,103 258.4,98 258.4,88" fill="none" stroke="#39FF14" stroke-width="1" opacity="0.03814910629251076"/>
<polygon points="499,132 507.6,137 507.6,147 499,152 490.4,147 490.4,137" fill="none" stroke="#39FF14" stroke-width="1" opacity="0.07777780381510173"/>
<polygon points="359,183 367.6,188 367.6,198 359,203 350.4,198 350.4,188" fill="none" stroke="#39FF14" stroke-width="1" opacity="0.05201200997127041"/>
<polygon points="527,106 535.6,111 535.6,121 527,126 518.4,121 518.4,111" fill="none" stroke="#39FF14" stroke-width="1" opacity="0.06263393967184044"/>
<polygon points="140,64 148.6,69 148.6,79 140,84 131.4,79 131.4,69" fill="none" stroke="#39FF14" stroke-width="1" opacity="0.04232255288995075"/>
<polygon points="299,75 307.6,80 307.6,90 299,95 290.4,90 290.4,80" fill="none" stroke="#39FF14" stroke-width="1" opacity="0.05012872315907294"/>
<polygon points="100,-1 108.6,4 108.6,14 100,19 91.4,14 91.4,4" fill="none" stroke="#39FF14" stroke-width="1" opacity="0.04498286168492233"/>
<polygon points="280,3 288.6,8 288.6,18 280,23 271.4,18 271.4,8" fill="none" stroke="#39FF14" stroke-width="1" opacity="0.050659043546158494"/>
<polygon points="389,108 397.6,113 397.6,123 389,128 380.4,123 380.4,113" fill="none" stroke="#39FF14" stroke-width="1" opacity="0.04034512190480152"/>
<polygon points="569,113 577.6,118 577.6,128 569,133 560.4,128 560.4,118" fill="none" stroke="#39FF14" stroke-width="1" opacity="0.05174294953664908"/>
<polygon points="745,41 753.6,46 753.6,56 745,61 736.4,56 736.4,46" fill="none" stroke="#39FF14" stroke-width="1" opacity="0.038584709834731334"/>
<polygon points="439,189 447.6,194 447.6,204 439,209 430.4,204 430.4,194" fill="none" stroke="#39FF14" stroke-width="1" opacity="0.02746280029022457"/>
<polygon points="702,96 710.6,101 710.6,111 702,116 693.4,111 693.4,101" fill="none" stroke="#39FF14" stroke-width="1" opacity="0.06982444161767311"/>
<polygon points="122,131 130.6,136 130.6,146 122,151 113.4,146 113.4,136" fill="none" stroke="#39FF14" stroke-width="1" opacity="0.06564862858038678"/>
<polygon points="276,163 284.6,168 284.6,178 276,183 267.4,178 267.4,168" fill="none" stroke="#39FF14" stroke-width="1" opacity="0.026022058105828173"/>
<polygon points="83,122 91.6,127 91.6,137 83,142 74.4,137 74.4,127" fill="none" stroke="#39FF14" stroke-width="1" opacity="0.07834340331923413"/>
<polygon points="167,71 175.6,76 175.6,86 167,91 158.4,86 158.4,76" fill="none" stroke="#39FF14" stroke-width="1" opacity="0.052801593608877206"/>
<polygon points="241,67 249.6,72 249.6,82 241,87 232.4,82 232.4,72" fill="none" stroke="#39FF14" stroke-width="1" opacity="0.0744115485652924"/>
<polygon points="678,170 686.6,175 686.6,185 678,190 669.4,185 669.4,175" fill="none" stroke="#39FF14" stroke-width="1" opacity="0.05087549035543101"/>
<polygon points="56,24 64.6,29 64.6,39 56,44 47.4,39 47.4,29" fill="none" stroke="#39FF14" stroke-width="1" opacity="0.057551131965409966"/>
<polygon points="432,8 440.6,13 440.6,23 432,28 423.4,23 423.4,13" fill="none" stroke="#39FF14" stroke-width="1" opacity="0.07709262624941886"/>
<polygon points="4,155 12.6,160 12.6,170 4,175 -4.6,170 -4.6,160" fill="none" stroke="#39FF14" stroke-width="1" opacity="0.03278950010990896"/>
<polygon points="527,162 535.6,167 535.6,177 527,182 518.4,177 518.4,167" fill="none" stroke="#39FF14" stroke-width="1" opacity="0.050208265045432306"/>
<polygon points="447,83 455.6,88 455.6,98 447,103 438.4,98 438.4,88" fill="none" stroke="#39FF14" stroke-width="1" opacity="0.0672827234852377"/>
<polygon points="747,164 755.6,169 755.6,179 747,184 738.4,179 738.4,169" fill="none" stroke="#39FF14" stroke-width="1" opacity="0.028644177771090715"/>
</g>

  <!-- HUD Decorative elements -->
  <path d="M 20 20 L 40 20 L 50 30" fill="none" stroke="#39FF14" stroke-width="2" opacity="0.5"/>
  <path d="M 830 180 L 810 180 L 800 170" fill="none" stroke="#39FF14" stroke-width="2" opacity="0.5"/>
  <rect x="20" y="100" width="2" height="40" fill="#ffffff" opacity="0.4"/>
  <rect x="828" y="60" width="2" height="40" fill="#39FF14" opacity="0.6"/>

  <g font-family="'Consolas', 'Fira Code', monospace" text-anchor="middle">

    <!-- SYSTEM STATUS -->
    <g transform="translate(130, 100)">
        <circle cx="0" cy="0" r="45" fill="none" stroke="#111111" stroke-width="8" />
        <circle cx="0" cy="0" r="45" fill="none" stroke="#39FF14" stroke-width="2" stroke-dasharray="10 5">
            <animateTransform attributeName="transform" type="rotate" from="0" to="360" dur="10s" repeatCount="indefinite"/>
        </circle>
        <circle cx="0" cy="0" r="35" fill="#0d0d0d" />
        <circle cx="0" cy="0" r="6" fill="#39FF14" filter="url(#textGlow)">
            <animate attributeName="opacity" values="1;0.3;1" dur="2s" repeatCount="indefinite"/>
        </circle>
        <text x="0" y="-60" font-size="12" fill="#aaaaaa" letter-spacing="2">SYS.CORE</text>
        <text x="0" y="70" font-size="14" fill="#ffffff" font-weight="bold">ONLINE</text>
    </g>

    <!-- LIVE TRAFFIC -->
    <g transform="translate(330, 100)">
        <rect x="-60" y="-45" width="120" height="90" fill="#0a0a0a" rx="8" stroke="#39FF14" stroke-opacity="0.4" stroke-width="1"/>
        <text x="0" y="-20" font-size="12" fill="#aaaaaa">NETWORK LOAD</text>
        <text x="0" y="15" font-size="28" fill="#ffffff" font-weight="bold" filter="url(#textGlow)">7404</text>
        <text x="0" y="35" font-size="10" fill="#777777">ACTIVE SESSIONS</text>
    </g>

    <!-- ACTIVE AGENTS -->
    <g transform="translate(530, 100)">
        <rect x="-60" y="-45" width="120" height="90" fill="#0a0a0a" rx="8" stroke="#39FF14" stroke-opacity="0.4" stroke-width="1"/>
        <text x="0" y="-20" font-size="12" fill="#aaaaaa">SWARM ENTITIES</text>
        <text x="0" y="15" font-size="28" fill="#ffffff" font-weight="bold" filter="url(#textGlow)">191</text>
        <text x="0" y="35" font-size="10" fill="#777777">AUTONOMOUS</text>
    </g>

    <!-- UPTIME -->
    <g transform="translate(730, 100)">
        <path d="M -40 -35 L 40 -35 L 50 -25 L 50 35 L -40 35 L -50 25 Z" fill="#0a0a0a" stroke="#39FF14" stroke-opacity="0.4" stroke-width="1"/>
        <text x="0" y="-15" font-size="12" fill="#aaaaaa">CONTINUITY</text>
        <text x="0" y="15" font-size="24" fill="#ffffff" font-weight="bold">373<tspan font-size="14" fill="#777777">d</tspan></text>
        <rect x="-35" y="25" width="70" height="4" fill="url(#neonBar)" rx="2"/>
    </g>
  </g>

  <text x="425" y="185" font-family="'Consolas', 'Fira Code', monospace" font-size="10" fill="#aaaaaa" opacity="0.6" text-anchor="middle">LAST TELEMETRY PING: 2026-05-06 00:46:41 UTC // ENCRYPTED_TUNNEL</text>
</svg>