<svg width="850" height="200" viewBox="0 0 850 200" xmlns="http://www.w3.org/2000/svg">
  <defs>
    <pattern id="carbonFiber" width="10" height="10" patternUnits="userSpaceOnUse">
        <rect width="10" height="10" fill="#050505"/>
        <path d="M0,0 L5,5 L10,0 L5,-5 Z M5,5 L10,10 L15,5 L10,0 Z M-5,5 L0,10 L5,5 L0,0 Z M0,10 L5,15 L10,10 L5,5 Z" fill="#0d0d0d"/>
    </pattern>
    <filter id="textGlow">
      <feGaussianBlur stdDeviation="2" result="blur" />
      <feMerge>
        <feMergeNode in="blur"/>
        <feMergeNode in="SourceGraphic"/>
      </feMerge>
    </filter>
    <linearGradient id="neonBar" x1="0%" y1="0%" x2="100%" y2="0%">
        <stop offset="0%" stop-color="#111111"/>
        <stop offset="100%" stop-color="#39FF14"/>
    </linearGradient>
    <linearGradient id="scanlineGrad" x1="0%" y1="0%" x2="100%" y2="0%">
        <stop offset="0%" stop-color="#39FF14" stop-opacity="0"/>
        <stop offset="50%" stop-color="#39FF14" stop-opacity="0.18"/>
        <stop offset="100%" stop-color="#39FF14" stop-opacity="0"/>
    </linearGradient>
    <clipPath id="dashClip">
        <rect x="0" y="0" width="850" height="200" rx="12"/>
    </clipPath>
  </defs>

  <rect width="100%" height="100%" fill="url(#carbonFiber)" rx="12" stroke="#39FF14" stroke-width="1" stroke-opacity="0.3"/>
  <rect width="100%" height="100%" fill="#000000" opacity="0.6" rx="12" />
  <g><polygon points="325,132 333.6,137 333.6,147 325,152 316.4,147 316.4,137" fill="none" stroke="#39FF14" stroke-width="1" opacity="0.051722171971496214"/>
<polygon points="664,29 672.6,34 672.6,44 664,49 655.4,44 655.4,34" fill="none" stroke="#39FF14" stroke-width="1" opacity="0.051837224300502305"/>
<polygon points="258,50 266.6,55 266.6,65 258,70 249.4,65 249.4,55" fill="none" stroke="#39FF14" stroke-width="1" opacity="0.04522475193235801"/>
<polygon points="556,21 564.6,26 564.6,36 556,41 547.4,36 547.4,26" fill="none" stroke="#39FF14" stroke-width="1" opacity="0.07523139982626072"/>
<polygon points="490,68 498.6,73 498.6,83 490,88 481.4,83 481.4,73" fill="none" stroke="#39FF14" stroke-width="1" opacity="0.022899668978764224"/>
<polygon points="335,-9 343.6,-4 343.6,6 335,11 326.4,6 326.4,-4" fill="none" stroke="#39FF14" stroke-width="1" opacity="0.020301963590081625"/>
<polygon points="146,183 154.6,188 154.6,198 146,203 137.4,198 137.4,188" fill="none" stroke="#39FF14" stroke-width="1" opacity="0.05914270244499478"/>
<polygon points="315,60 323.6,65 323.6,75 315,80 306.4,75 306.4,65" fill="none" stroke="#39FF14" stroke-width="1" opacity="0.07041645601350682"/>
<polygon points="704,110 712.6,115 712.6,125 704,130 695.4,125 695.4,115" fill="none" stroke="#39FF14" stroke-width="1" opacity="0.03386127410405577"/>
<polygon points="370,89 378.6,94 378.6,104 370,109 361.4,104 361.4,94" fill="none" stroke="#39FF14" stroke-width="1" opacity="0.029464499106874993"/>
<polygon points="673,100 681.6,105 681.6,115 673,120 664.4,115 664.4,105" fill="none" stroke="#39FF14" stroke-width="1" opacity="0.0337879859520974"/>
<polygon points="793,22 801.6,27 801.6,37 793,42 784.4,37 784.4,27" fill="none" stroke="#39FF14" stroke-width="1" opacity="0.05060153787506699"/>
<polygon points="750,187 758.6,192 758.6,202 750,207 741.4,202 741.4,192" fill="none" stroke="#39FF14" stroke-width="1" opacity="0.06758113200668756"/>
<polygon points="674,120 682.6,125 682.6,135 674,140 665.4,135 665.4,125" fill="none" stroke="#39FF14" stroke-width="1" opacity="0.03176334197716897"/>
<polygon points="50,-5 58.6,0 58.6,10 50,15 41.4,10 41.4,0" fill="none" stroke="#39FF14" stroke-width="1" opacity="0.03862192225685586"/>
<polygon points="554,52 562.6,57 562.6,67 554,72 545.4,67 545.4,57" fill="none" stroke="#39FF14" stroke-width="1" opacity="0.051609908980304944"/>
<polygon points="314,174 322.6,179 322.6,189 314,194 305.4,189 305.4,179" fill="none" stroke="#39FF14" stroke-width="1" opacity="0.06550469050036914"/>
<polygon points="127,14 135.6,19 135.6,29 127,34 118.4,29 118.4,19" fill="none" stroke="#39FF14" stroke-width="1" opacity="0.05695766170250742"/>
<polygon points="492,41 500.6,46 500.6,56 492,61 483.4,56 483.4,46" fill="none" stroke="#39FF14" stroke-width="1" opacity="0.04001484838454268"/>
<polygon points="824,145 832.6,150 832.6,160 824,165 815.4,160 815.4,150" fill="none" stroke="#39FF14" stroke-width="1" opacity="0.0748977673125374"/>
<polygon points="578,133 586.6,138 586.6,148 578,153 569.4,148 569.4,138" fill="none" stroke="#39FF14" stroke-width="1" opacity="0.049469648845847876"/>
<polygon points="704,32 712.6,37 712.6,47 704,52 695.4,47 695.4,37" fill="none" stroke="#39FF14" stroke-width="1" opacity="0.0605464458289076"/>
<polygon points="520,150 528.6,155 528.6,165 520,170 511.4,165 511.4,155" fill="none" stroke="#39FF14" stroke-width="1" opacity="0.05210728747779997"/>
<polygon points="535,188 543.6,193 543.6,203 535,208 526.4,203 526.4,193" fill="none" stroke="#39FF14" stroke-width="1" opacity="0.04984997362676918"/>
<polygon points="629,96 637.6,101 637.6,111 629,116 620.4,111 620.4,101" fill="none" stroke="#39FF14" stroke-width="1" opacity="0.05720190760926577"/>
<polygon points="430,54 438.6,59 438.6,69 430,74 421.4,69 421.4,59" fill="none" stroke="#39FF14" stroke-width="1" opacity="0.06677138043881589"/>
<polygon points="348,72 356.6,77 356.6,87 348,92 339.4,87 339.4,77" fill="none" stroke="#39FF14" stroke-width="1" opacity="0.03805305828294034"/>
<polygon points="394,80 402.6,85 402.6,95 394,100 385.4,95 385.4,85" fill="none" stroke="#39FF14" stroke-width="1" opacity="0.02439609273395928"/>
<polygon points="763,64 771.6,69 771.6,79 763,84 754.4,79 754.4,69" fill="none" stroke="#39FF14" stroke-width="1" opacity="0.035232082925174754"/>
<polygon points="578,148 586.6,153 586.6,163 578,168 569.4,163 569.4,153" fill="none" stroke="#39FF14" stroke-width="1" opacity="0.03811997818277972"/>
</g>

  <!-- HUD Decorative elements -->
  <path d="M 20 20 L 40 20 L 50 30" fill="none" stroke="#39FF14" stroke-width="2" opacity="0.5"/>
  <path d="M 830 180 L 810 180 L 800 170" fill="none" stroke="#39FF14" stroke-width="2" opacity="0.5"/>

  <g clip-path="url(#dashClip)">
    <rect x="-160" y="0" width="160" height="200" fill="url(#scanlineGrad)">
      <animateTransform attributeName="transform" type="translate"
                        from="0 0" to="1010 0" dur="6s" repeatCount="indefinite"/>
    </rect>
  </g>

  <g font-family="'Consolas', 'Fira Code', monospace" text-anchor="middle">

    <!-- NETWORK STATUS -->
    <g transform="translate(130, 100)">
        <circle cx="0" cy="0" r="45" fill="none" stroke="#39FF14" stroke-width="2" stroke-dasharray="10 5">
            <animateTransform attributeName="transform" type="rotate" from="0" to="360" dur="10s" repeatCount="indefinite"/>
        </circle>
        <circle cx="0" cy="0" r="35" fill="#0d0d0d" />
        <text x="0" y="-60" font-size="12" fill="#aaaaaa" letter-spacing="2">ROOT.AUTH</text>
        <text x="0" y="70" font-size="14" fill="#ffffff" font-weight="bold">OPERATIONAL</text>
    </g>

    <!-- ACTIVE USERS -->
    <g transform="translate(330, 100)">
        <text x="0" y="-20" font-size="12" fill="#aaaaaa">CITIZENS</text>
        <text x="0" y="15" font-size="28" fill="#ffffff" font-weight="bold" filter="url(#textGlow)">14,444</text>
        <text x="0" y="35" font-size="10" fill="#777777">VERIFIED HUMANS</text>
    </g>

    <!-- REGISTERED AGENTS -->
    <g transform="translate(530, 100)">
        <text x="0" y="-20" font-size="12" fill="#aaaaaa">AGENTS</text>
        <text x="0" y="15" font-size="28" fill="#00d4ff" font-weight="bold" filter="url(#textGlow)">3,873</text>
        <text x="0" y="35" font-size="10" fill="#777777">REGISTERED DIDs</text>
    </g>

    <!-- TRANSACTIONS -->
    <g transform="translate(730, 100)">
        <text x="0" y="-20" font-size="12" fill="#aaaaaa">TRANSFERS</text>
        <text x="0" y="15" font-size="28" fill="#ffffff" font-weight="bold">27,274</text>
        <text x="0" y="35" font-size="10" fill="#777777">M2M SETTLEMENTS</text>
    </g>
  </g>

  <text x="425" y="185" font-family="'Consolas', 'Fira Code', monospace" font-size="10" fill="#aaaaaa" opacity="0.6" text-anchor="middle">AXIOMID PROJECTED TARGETS (ILLUSTRATIVE): 2026-06-24 07:06:53 UTC // SECURE_HANDSHAKE</text>
</svg>