<svg width="850" height="200" viewBox="0 0 850 200" xmlns="http://www.w3.org/2000/svg">
  <defs>
    <pattern id="carbonFiber" width="10" height="10" patternUnits="userSpaceOnUse">
        <rect width="10" height="10" fill="#050505"/>
        <path d="M0,0 L5,5 L10,0 L5,-5 Z M5,5 L10,10 L15,5 L10,0 Z M-5,5 L0,10 L5,5 L0,0 Z M0,10 L5,15 L10,10 L5,5 Z" fill="#0d0d0d"/>
    </pattern>
    <filter id="textGlow">
      <feGaussianBlur stdDeviation="2" result="blur" />
      <feMerge>
        <feMergeNode in="blur"/>
        <feMergeNode in="SourceGraphic"/>
      </feMerge>
    </filter>
    <linearGradient id="neonBar" x1="0%" y1="0%" x2="100%" y2="0%">
        <stop offset="0%" stop-color="#111111"/>
        <stop offset="100%" stop-color="#39FF14"/>
    </linearGradient>
    <linearGradient id="scanlineGrad" x1="0%" y1="0%" x2="100%" y2="0%">
        <stop offset="0%" stop-color="#39FF14" stop-opacity="0"/>
        <stop offset="50%" stop-color="#39FF14" stop-opacity="0.18"/>
        <stop offset="100%" stop-color="#39FF14" stop-opacity="0"/>
    </linearGradient>
    <clipPath id="dashClip">
        <rect x="0" y="0" width="850" height="200" rx="12"/>
    </clipPath>
  </defs>

  <rect width="100%" height="100%" fill="url(#carbonFiber)" rx="12" stroke="#39FF14" stroke-width="1" stroke-opacity="0.3"/>
  <rect width="100%" height="100%" fill="#000000" opacity="0.6" rx="12" />
  <g><polygon points="632,127 640.6,132 640.6,142 632,147 623.4,142 623.4,132" fill="none" stroke="#39FF14" stroke-width="1" opacity="0.049158124276703075"/>
<polygon points="455,60 463.6,65 463.6,75 455,80 446.4,75 446.4,65" fill="none" stroke="#39FF14" stroke-width="1" opacity="0.025573263957248592"/>
<polygon points="576,91 584.6,96 584.6,106 576,111 567.4,106 567.4,96" fill="none" stroke="#39FF14" stroke-width="1" opacity="0.07587054814915041"/>
<polygon points="495,105 503.6,110 503.6,120 495,125 486.4,120 486.4,110" fill="none" stroke="#39FF14" stroke-width="1" opacity="0.07122462302954431"/>
<polygon points="553,111 561.6,116 561.6,126 553,131 544.4,126 544.4,116" fill="none" stroke="#39FF14" stroke-width="1" opacity="0.05369475038370862"/>
<polygon points="650,116 658.6,121 658.6,131 650,136 641.4,131 641.4,121" fill="none" stroke="#39FF14" stroke-width="1" opacity="0.0482158197859746"/>
<polygon points="126,31 134.6,36 134.6,46 126,51 117.4,46 117.4,36" fill="none" stroke="#39FF14" stroke-width="1" opacity="0.039046331596165273"/>
<polygon points="808,100 816.6,105 816.6,115 808,120 799.4,115 799.4,105" fill="none" stroke="#39FF14" stroke-width="1" opacity="0.03410230056605064"/>
<polygon points="86,133 94.6,138 94.6,148 86,153 77.4,148 77.4,138" fill="none" stroke="#39FF14" stroke-width="1" opacity="0.04790236494488516"/>
<polygon points="635,10 643.6,15 643.6,25 635,30 626.4,25 626.4,15" fill="none" stroke="#39FF14" stroke-width="1" opacity="0.07479951834435107"/>
<polygon points="187,167 195.6,172 195.6,182 187,187 178.4,182 178.4,172" fill="none" stroke="#39FF14" stroke-width="1" opacity="0.05761983683943661"/>
<polygon points="209,169 217.6,174 217.6,184 209,189 200.4,184 200.4,174" fill="none" stroke="#39FF14" stroke-width="1" opacity="0.05850068142941457"/>
<polygon points="201,14 209.6,19 209.6,29 201,34 192.4,29 192.4,19" fill="none" stroke="#39FF14" stroke-width="1" opacity="0.03465241266705204"/>
<polygon points="12,105 20.6,110 20.6,120 12,125 3.4000000000000004,120 3.4000000000000004,110" fill="none" stroke="#39FF14" stroke-width="1" opacity="0.05377834670751222"/>
<polygon points="595,54 603.6,59 603.6,69 595,74 586.4,69 586.4,59" fill="none" stroke="#39FF14" stroke-width="1" opacity="0.06368610595067327"/>
<polygon points="779,84 787.6,89 787.6,99 779,104 770.4,99 770.4,89" fill="none" stroke="#39FF14" stroke-width="1" opacity="0.025094359068948274"/>
<polygon points="730,21 738.6,26 738.6,36 730,41 721.4,36 721.4,26" fill="none" stroke="#39FF14" stroke-width="1" opacity="0.057535726639318"/>
<polygon points="353,69 361.6,74 361.6,84 353,89 344.4,84 344.4,74" fill="none" stroke="#39FF14" stroke-width="1" opacity="0.041589045308580555"/>
<polygon points="27,61 35.6,66 35.6,76 27,81 18.4,76 18.4,66" fill="none" stroke="#39FF14" stroke-width="1" opacity="0.0696881526557415"/>
<polygon points="605,172 613.6,177 613.6,187 605,192 596.4,187 596.4,177" fill="none" stroke="#39FF14" stroke-width="1" opacity="0.046058651880747425"/>
<polygon points="262,102 270.6,107 270.6,117 262,122 253.4,117 253.4,107" fill="none" stroke="#39FF14" stroke-width="1" opacity="0.05845585817105106"/>
<polygon points="649,71 657.6,76 657.6,86 649,91 640.4,86 640.4,76" fill="none" stroke="#39FF14" stroke-width="1" opacity="0.03539820732269908"/>
<polygon points="106,177 114.6,182 114.6,192 106,197 97.4,192 97.4,182" fill="none" stroke="#39FF14" stroke-width="1" opacity="0.02665771562198315"/>
<polygon points="792,11 800.6,16 800.6,26 792,31 783.4,26 783.4,16" fill="none" stroke="#39FF14" stroke-width="1" opacity="0.04304944223989797"/>
<polygon points="260,180 268.6,185 268.6,195 260,200 251.4,195 251.4,185" fill="none" stroke="#39FF14" stroke-width="1" opacity="0.051953173185382784"/>
<polygon points="421,32 429.6,37 429.6,47 421,52 412.4,47 412.4,37" fill="none" stroke="#39FF14" stroke-width="1" opacity="0.04567149095628702"/>
<polygon points="128,48 136.6,53 136.6,63 128,68 119.4,63 119.4,53" fill="none" stroke="#39FF14" stroke-width="1" opacity="0.051914560792044484"/>
<polygon points="364,-10 372.6,-5 372.6,5 364,10 355.4,5 355.4,-5" fill="none" stroke="#39FF14" stroke-width="1" opacity="0.057583450558716914"/>
<polygon points="777,18 785.6,23 785.6,33 777,38 768.4,33 768.4,23" fill="none" stroke="#39FF14" stroke-width="1" opacity="0.0230777434344199"/>
<polygon points="161,151 169.6,156 169.6,166 161,171 152.4,166 152.4,156" fill="none" stroke="#39FF14" stroke-width="1" opacity="0.05251120141267687"/>
</g>

  <!-- HUD Decorative elements -->
  <path d="M 20 20 L 40 20 L 50 30" fill="none" stroke="#39FF14" stroke-width="2" opacity="0.5"/>
  <path d="M 830 180 L 810 180 L 800 170" fill="none" stroke="#39FF14" stroke-width="2" opacity="0.5"/>

  <g clip-path="url(#dashClip)">
    <rect x="-160" y="0" width="160" height="200" fill="url(#scanlineGrad)">
      <animateTransform attributeName="transform" type="translate"
                        from="0 0" to="1010 0" dur="6s" repeatCount="indefinite"/>
    </rect>
  </g>

  <g font-family="'Consolas', 'Fira Code', monospace" text-anchor="middle">

    <!-- NETWORK STATUS -->
    <g transform="translate(130, 100)">
        <circle cx="0" cy="0" r="45" fill="none" stroke="#39FF14" stroke-width="2" stroke-dasharray="10 5">
            <animateTransform attributeName="transform" type="rotate" from="0" to="360" dur="10s" repeatCount="indefinite"/>
        </circle>
        <circle cx="0" cy="0" r="35" fill="#0d0d0d" />
        <text x="0" y="-60" font-size="12" fill="#aaaaaa" letter-spacing="2">ROOT.AUTH</text>
        <text x="0" y="70" font-size="14" fill="#ffffff" font-weight="bold">OPERATIONAL</text>
    </g>

    <!-- ACTIVE USERS -->
    <g transform="translate(330, 100)">
        <text x="0" y="-20" font-size="12" fill="#aaaaaa">CITIZENS</text>
        <text x="0" y="15" font-size="28" fill="#ffffff" font-weight="bold" filter="url(#textGlow)">14,250</text>
        <text x="0" y="35" font-size="10" fill="#777777">VERIFIED HUMANS</text>
    </g>

    <!-- REGISTERED AGENTS -->
    <g transform="translate(530, 100)">
        <text x="0" y="-20" font-size="12" fill="#aaaaaa">AGENTS</text>
        <text x="0" y="15" font-size="28" fill="#00d4ff" font-weight="bold" filter="url(#textGlow)">3,160</text>
        <text x="0" y="35" font-size="10" fill="#777777">REGISTERED DIDs</text>
    </g>

    <!-- TRANSACTIONS -->
    <g transform="translate(730, 100)">
        <text x="0" y="-20" font-size="12" fill="#aaaaaa">TRANSFERS</text>
        <text x="0" y="15" font-size="28" fill="#ffffff" font-weight="bold">33,083</text>
        <text x="0" y="35" font-size="10" fill="#777777">M2M SETTLEMENTS</text>
    </g>
  </g>

  <text x="425" y="185" font-family="'Consolas', 'Fira Code', monospace" font-size="10" fill="#aaaaaa" opacity="0.6" text-anchor="middle">AXIOMID PROJECTED TARGETS (ILLUSTRATIVE): 2026-07-18 21:40:14 UTC // SECURE_HANDSHAKE</text>
</svg>