<svg width="850" height="200" viewBox="0 0 850 200" xmlns="http://www.w3.org/2000/svg">
  <defs>
    <pattern id="carbonFiber" width="10" height="10" patternUnits="userSpaceOnUse">
        <rect width="10" height="10" fill="#050505"/>
        <path d="M0,0 L5,5 L10,0 L5,-5 Z M5,5 L10,10 L15,5 L10,0 Z M-5,5 L0,10 L5,5 L0,0 Z M0,10 L5,15 L10,10 L5,5 Z" fill="#0d0d0d"/>
    </pattern>
    <filter id="textGlow">
      <feGaussianBlur stdDeviation="2" result="blur" />
      <feMerge>
        <feMergeNode in="blur"/>
        <feMergeNode in="SourceGraphic"/>
      </feMerge>
    </filter>
    <linearGradient id="neonBar" x1="0%" y1="0%" x2="100%" y2="0%">
        <stop offset="0%" stop-color="#111111"/>
        <stop offset="100%" stop-color="#39FF14"/>
    </linearGradient>
    <linearGradient id="scanlineGrad" x1="0%" y1="0%" x2="100%" y2="0%">
        <stop offset="0%" stop-color="#39FF14" stop-opacity="0"/>
        <stop offset="50%" stop-color="#39FF14" stop-opacity="0.18"/>
        <stop offset="100%" stop-color="#39FF14" stop-opacity="0"/>
    </linearGradient>
    <clipPath id="dashClip">
        <rect x="0" y="0" width="850" height="200" rx="12"/>
    </clipPath>
  </defs>

  <rect width="100%" height="100%" fill="url(#carbonFiber)" rx="12" stroke="#39FF14" stroke-width="1" stroke-opacity="0.3"/>
  <rect width="100%" height="100%" fill="#000000" opacity="0.6" rx="12" />
  <g><polygon points="259,74 267.6,79 267.6,89 259,94 250.4,89 250.4,79" fill="none" stroke="#39FF14" stroke-width="1" opacity="0.028373078480957492"/>
<polygon points="629,129 637.6,134 637.6,144 629,149 620.4,144 620.4,134" fill="none" stroke="#39FF14" stroke-width="1" opacity="0.07784286235379442"/>
<polygon points="26,79 34.6,84 34.6,94 26,99 17.4,94 17.4,84" fill="none" stroke="#39FF14" stroke-width="1" opacity="0.06271296452870971"/>
<polygon points="550,68 558.6,73 558.6,83 550,88 541.4,83 541.4,73" fill="none" stroke="#39FF14" stroke-width="1" opacity="0.028893610885542972"/>
<polygon points="345,54 353.6,59 353.6,69 345,74 336.4,69 336.4,59" fill="none" stroke="#39FF14" stroke-width="1" opacity="0.04729402370464861"/>
<polygon points="401,-5 409.6,0 409.6,10 401,15 392.4,10 392.4,0" fill="none" stroke="#39FF14" stroke-width="1" opacity="0.05778321059511171"/>
<polygon points="188,187 196.6,192 196.6,202 188,207 179.4,202 179.4,192" fill="none" stroke="#39FF14" stroke-width="1" opacity="0.02560749796985336"/>
<polygon points="320,108 328.6,113 328.6,123 320,128 311.4,123 311.4,113" fill="none" stroke="#39FF14" stroke-width="1" opacity="0.07806081689964586"/>
<polygon points="361,13 369.6,18 369.6,28 361,33 352.4,28 352.4,18" fill="none" stroke="#39FF14" stroke-width="1" opacity="0.020140636202780903"/>
<polygon points="411,165 419.6,170 419.6,180 411,185 402.4,180 402.4,170" fill="none" stroke="#39FF14" stroke-width="1" opacity="0.025944344010186096"/>
<polygon points="154,81 162.6,86 162.6,96 154,101 145.4,96 145.4,86" fill="none" stroke="#39FF14" stroke-width="1" opacity="0.04763171185813428"/>
<polygon points="253,138 261.6,143 261.6,153 253,158 244.4,153 244.4,143" fill="none" stroke="#39FF14" stroke-width="1" opacity="0.06380387824801954"/>
<polygon points="547,102 555.6,107 555.6,117 547,122 538.4,117 538.4,107" fill="none" stroke="#39FF14" stroke-width="1" opacity="0.05173926547213864"/>
<polygon points="498,137 506.6,142 506.6,152 498,157 489.4,152 489.4,142" fill="none" stroke="#39FF14" stroke-width="1" opacity="0.05417117851742809"/>
<polygon points="618,40 626.6,45 626.6,55 618,60 609.4,55 609.4,45" fill="none" stroke="#39FF14" stroke-width="1" opacity="0.07367743951029605"/>
<polygon points="806,0 814.6,5 814.6,15 806,20 797.4,15 797.4,5" fill="none" stroke="#39FF14" stroke-width="1" opacity="0.03690055594286637"/>
<polygon points="361,158 369.6,163 369.6,173 361,178 352.4,173 352.4,163" fill="none" stroke="#39FF14" stroke-width="1" opacity="0.053011528870775565"/>
<polygon points="668,111 676.6,116 676.6,126 668,131 659.4,126 659.4,116" fill="none" stroke="#39FF14" stroke-width="1" opacity="0.055207475544472986"/>
<polygon points="673,66 681.6,71 681.6,81 673,86 664.4,81 664.4,71" fill="none" stroke="#39FF14" stroke-width="1" opacity="0.04261235248663052"/>
<polygon points="15,63 23.6,68 23.6,78 15,83 6.4,78 6.4,68" fill="none" stroke="#39FF14" stroke-width="1" opacity="0.06186368470564478"/>
<polygon points="488,89 496.6,94 496.6,104 488,109 479.4,104 479.4,94" fill="none" stroke="#39FF14" stroke-width="1" opacity="0.07215179861384113"/>
<polygon points="588,136 596.6,141 596.6,151 588,156 579.4,151 579.4,141" fill="none" stroke="#39FF14" stroke-width="1" opacity="0.04174376745506722"/>
<polygon points="632,13 640.6,18 640.6,28 632,33 623.4,28 623.4,18" fill="none" stroke="#39FF14" stroke-width="1" opacity="0.05964380822954121"/>
<polygon points="352,132 360.6,137 360.6,147 352,152 343.4,147 343.4,137" fill="none" stroke="#39FF14" stroke-width="1" opacity="0.07911163626355427"/>
<polygon points="828,175 836.6,180 836.6,190 828,195 819.4,190 819.4,180" fill="none" stroke="#39FF14" stroke-width="1" opacity="0.05278831862639692"/>
<polygon points="735,51 743.6,56 743.6,66 735,71 726.4,66 726.4,56" fill="none" stroke="#39FF14" stroke-width="1" opacity="0.053214957426214016"/>
<polygon points="186,180 194.6,185 194.6,195 186,200 177.4,195 177.4,185" fill="none" stroke="#39FF14" stroke-width="1" opacity="0.033287184168847114"/>
<polygon points="613,160 621.6,165 621.6,175 613,180 604.4,175 604.4,165" fill="none" stroke="#39FF14" stroke-width="1" opacity="0.05990828008192539"/>
<polygon points="827,175 835.6,180 835.6,190 827,195 818.4,190 818.4,180" fill="none" stroke="#39FF14" stroke-width="1" opacity="0.02893001180832618"/>
<polygon points="781,111 789.6,116 789.6,126 781,131 772.4,126 772.4,116" fill="none" stroke="#39FF14" stroke-width="1" opacity="0.06558689181236568"/>
</g>

  <!-- HUD Decorative elements -->
  <path d="M 20 20 L 40 20 L 50 30" fill="none" stroke="#39FF14" stroke-width="2" opacity="0.5"/>
  <path d="M 830 180 L 810 180 L 800 170" fill="none" stroke="#39FF14" stroke-width="2" opacity="0.5"/>

  <g clip-path="url(#dashClip)">
    <rect x="-160" y="0" width="160" height="200" fill="url(#scanlineGrad)">
      <animateTransform attributeName="transform" type="translate"
                        from="0 0" to="1010 0" dur="6s" repeatCount="indefinite"/>
    </rect>
  </g>

  <g font-family="'Consolas', 'Fira Code', monospace" text-anchor="middle">

    <!-- NETWORK STATUS -->
    <g transform="translate(130, 100)">
        <circle cx="0" cy="0" r="45" fill="none" stroke="#39FF14" stroke-width="2" stroke-dasharray="10 5">
            <animateTransform attributeName="transform" type="rotate" from="0" to="360" dur="10s" repeatCount="indefinite"/>
        </circle>
        <circle cx="0" cy="0" r="35" fill="#0d0d0d" />
        <text x="0" y="-60" font-size="12" fill="#aaaaaa" letter-spacing="2">ROOT.AUTH</text>
        <text x="0" y="70" font-size="14" fill="#ffffff" font-weight="bold">OPERATIONAL</text>
    </g>

    <!-- ACTIVE USERS -->
    <g transform="translate(330, 100)">
        <text x="0" y="-20" font-size="12" fill="#aaaaaa">CITIZENS</text>
        <text x="0" y="15" font-size="28" fill="#ffffff" font-weight="bold" filter="url(#textGlow)">13,019</text>
        <text x="0" y="35" font-size="10" fill="#777777">VERIFIED HUMANS</text>
    </g>

    <!-- REGISTERED AGENTS -->
    <g transform="translate(530, 100)">
        <text x="0" y="-20" font-size="12" fill="#aaaaaa">AGENTS</text>
        <text x="0" y="15" font-size="28" fill="#00d4ff" font-weight="bold" filter="url(#textGlow)">3,343</text>
        <text x="0" y="35" font-size="10" fill="#777777">REGISTERED DIDs</text>
    </g>

    <!-- TRANSACTIONS -->
    <g transform="translate(730, 100)">
        <text x="0" y="-20" font-size="12" fill="#aaaaaa">TRANSFERS</text>
        <text x="0" y="15" font-size="28" fill="#ffffff" font-weight="bold">35,600</text>
        <text x="0" y="35" font-size="10" fill="#777777">M2M SETTLEMENTS</text>
    </g>
  </g>

  <text x="425" y="185" font-family="'Consolas', 'Fira Code', monospace" font-size="10" fill="#aaaaaa" opacity="0.6" text-anchor="middle">AXIOMID PROJECTED TARGETS (ILLUSTRATIVE): 2026-07-08 21:58:19 UTC // SECURE_HANDSHAKE</text>
</svg>