<svg width="850" height="200" viewBox="0 0 850 200" xmlns="http://www.w3.org/2000/svg">
  <defs>
    <!-- Carbon Fiber Pattern -->
    <pattern id="carbonFiber" width="10" height="10" patternUnits="userSpaceOnUse">
        <rect width="10" height="10" fill="#050505"/>
        <path d="M0,0 L5,5 L10,0 L5,-5 Z M5,5 L10,10 L15,5 L10,0 Z M-5,5 L0,10 L5,5 L0,0 Z M0,10 L5,15 L10,10 L5,5 Z" fill="#0d0d0d"/>
    </pattern>
    <filter id="glassmorphism">
      <feGaussianBlur stdDeviation="3" result="blur" />
      <feColorMatrix type="matrix" values="1 0 0 0 0  0 1 0 0 0  0 0 1 0 0  0 0 0 18 -7" result="glow" />
      <feBlend in="SourceGraphic" in2="glow" mode="normal" />
    </filter>
    <filter id="textGlow">
      <feGaussianBlur stdDeviation="2" result="blur" />
      <feMerge>
        <feMergeNode in="blur"/>
        <feMergeNode in="SourceGraphic"/>
      </feMerge>
    </filter>
    <linearGradient id="neonBar" x1="0%" y1="0%" x2="100%" y2="0%">
        <stop offset="0%" stop-color="#111111"/>
        <stop offset="100%" stop-color="#39FF14"/>
    </linearGradient>
  </defs>

  <rect width="100%" height="100%" fill="url(#carbonFiber)" rx="12" stroke="#39FF14" stroke-width="1" stroke-opacity="0.3"/>
  <rect width="100%" height="100%" fill="#000000" opacity="0.6" rx="12" />
  <g><polygon points="362,153 370.6,158 370.6,168 362,173 353.4,168 353.4,158" fill="none" stroke="#39FF14" stroke-width="1" opacity="0.06503232497698111"/>
<polygon points="136,163 144.6,168 144.6,178 136,183 127.4,178 127.4,168" fill="none" stroke="#39FF14" stroke-width="1" opacity="0.06800647104848806"/>
<polygon points="283,116 291.6,121 291.6,131 283,136 274.4,131 274.4,121" fill="none" stroke="#39FF14" stroke-width="1" opacity="0.07088239289316219"/>
<polygon points="453,62 461.6,67 461.6,77 453,82 444.4,77 444.4,67" fill="none" stroke="#39FF14" stroke-width="1" opacity="0.044879482615628324"/>
<polygon points="587,8 595.6,13 595.6,23 587,28 578.4,23 578.4,13" fill="none" stroke="#39FF14" stroke-width="1" opacity="0.04575683530191949"/>
<polygon points="691,10 699.6,15 699.6,25 691,30 682.4,25 682.4,15" fill="none" stroke="#39FF14" stroke-width="1" opacity="0.020039522213737587"/>
<polygon points="529,13 537.6,18 537.6,28 529,33 520.4,28 520.4,18" fill="none" stroke="#39FF14" stroke-width="1" opacity="0.031641192752058366"/>
<polygon points="333,-2 341.6,3 341.6,13 333,18 324.4,13 324.4,3" fill="none" stroke="#39FF14" stroke-width="1" opacity="0.05724176288318532"/>
<polygon points="146,-6 154.6,-1 154.6,9 146,14 137.4,9 137.4,-1" fill="none" stroke="#39FF14" stroke-width="1" opacity="0.0681774215225539"/>
<polygon points="320,23 328.6,28 328.6,38 320,43 311.4,38 311.4,28" fill="none" stroke="#39FF14" stroke-width="1" opacity="0.05426511267231611"/>
<polygon points="766,47 774.6,52 774.6,62 766,67 757.4,62 757.4,52" fill="none" stroke="#39FF14" stroke-width="1" opacity="0.027664346638101165"/>
<polygon points="53,36 61.6,41 61.6,51 53,56 44.4,51 44.4,41" fill="none" stroke="#39FF14" stroke-width="1" opacity="0.029222610988444683"/>
<polygon points="263,181 271.6,186 271.6,196 263,201 254.4,196 254.4,186" fill="none" stroke="#39FF14" stroke-width="1" opacity="0.05869366495435896"/>
<polygon points="42,21 50.6,26 50.6,36 42,41 33.4,36 33.4,26" fill="none" stroke="#39FF14" stroke-width="1" opacity="0.043126716483777236"/>
<polygon points="340,39 348.6,44 348.6,54 340,59 331.4,54 331.4,44" fill="none" stroke="#39FF14" stroke-width="1" opacity="0.042310169659742825"/>
<polygon points="309,125 317.6,130 317.6,140 309,145 300.4,140 300.4,130" fill="none" stroke="#39FF14" stroke-width="1" opacity="0.0458111393706153"/>
<polygon points="381,185 389.6,190 389.6,200 381,205 372.4,200 372.4,190" fill="none" stroke="#39FF14" stroke-width="1" opacity="0.06294789841839772"/>
<polygon points="507,85 515.6,90 515.6,100 507,105 498.4,100 498.4,90" fill="none" stroke="#39FF14" stroke-width="1" opacity="0.0460557605000574"/>
<polygon points="694,9 702.6,14 702.6,24 694,29 685.4,24 685.4,14" fill="none" stroke="#39FF14" stroke-width="1" opacity="0.04819857196459265"/>
<polygon points="808,56 816.6,61 816.6,71 808,76 799.4,71 799.4,61" fill="none" stroke="#39FF14" stroke-width="1" opacity="0.06975287880244015"/>
<polygon points="662,131 670.6,136 670.6,146 662,151 653.4,146 653.4,136" fill="none" stroke="#39FF14" stroke-width="1" opacity="0.06301599796964433"/>
<polygon points="644,145 652.6,150 652.6,160 644,165 635.4,160 635.4,150" fill="none" stroke="#39FF14" stroke-width="1" opacity="0.06986273435396831"/>
<polygon points="17,120 25.6,125 25.6,135 17,140 8.4,135 8.4,125" fill="none" stroke="#39FF14" stroke-width="1" opacity="0.06967048739320914"/>
<polygon points="355,39 363.6,44 363.6,54 355,59 346.4,54 346.4,44" fill="none" stroke="#39FF14" stroke-width="1" opacity="0.05692461987735789"/>
<polygon points="681,56 689.6,61 689.6,71 681,76 672.4,71 672.4,61" fill="none" stroke="#39FF14" stroke-width="1" opacity="0.07860783248315192"/>
<polygon points="372,157 380.6,162 380.6,172 372,177 363.4,172 363.4,162" fill="none" stroke="#39FF14" stroke-width="1" opacity="0.0719193534251027"/>
<polygon points="591,187 599.6,192 599.6,202 591,207 582.4,202 582.4,192" fill="none" stroke="#39FF14" stroke-width="1" opacity="0.044534224870709266"/>
<polygon points="209,28 217.6,33 217.6,43 209,48 200.4,43 200.4,33" fill="none" stroke="#39FF14" stroke-width="1" opacity="0.02224515184759802"/>
<polygon points="444,42 452.6,47 452.6,57 444,62 435.4,57 435.4,47" fill="none" stroke="#39FF14" stroke-width="1" opacity="0.07952052298024581"/>
<polygon points="186,67 194.6,72 194.6,82 186,87 177.4,82 177.4,72" fill="none" stroke="#39FF14" stroke-width="1" opacity="0.05892816045869115"/>
</g>

  <!-- HUD Decorative elements -->
  <path d="M 20 20 L 40 20 L 50 30" fill="none" stroke="#39FF14" stroke-width="2" opacity="0.5"/>
  <path d="M 830 180 L 810 180 L 800 170" fill="none" stroke="#39FF14" stroke-width="2" opacity="0.5"/>
  <rect x="20" y="100" width="2" height="40" fill="#ffffff" opacity="0.4"/>
  <rect x="828" y="60" width="2" height="40" fill="#39FF14" opacity="0.6"/>

  <g font-family="'Consolas', 'Fira Code', monospace" text-anchor="middle">

    <!-- SYSTEM STATUS -->
    <g transform="translate(130, 100)">
        <circle cx="0" cy="0" r="45" fill="none" stroke="#111111" stroke-width="8" />
        <circle cx="0" cy="0" r="45" fill="none" stroke="#39FF14" stroke-width="2" stroke-dasharray="10 5">
            <animateTransform attributeName="transform" type="rotate" from="0" to="360" dur="10s" repeatCount="indefinite"/>
        </circle>
        <circle cx="0" cy="0" r="35" fill="#0d0d0d" />
        <circle cx="0" cy="0" r="6" fill="#39FF14" filter="url(#textGlow)">
            <animate attributeName="opacity" values="1;0.3;1" dur="2s" repeatCount="indefinite"/>
        </circle>
        <text x="0" y="-60" font-size="12" fill="#aaaaaa" letter-spacing="2">SYS.CORE</text>
        <text x="0" y="70" font-size="14" fill="#ffffff" font-weight="bold">ONLINE</text>
    </g>

    <!-- LIVE TRAFFIC -->
    <g transform="translate(330, 100)">
        <rect x="-60" y="-45" width="120" height="90" fill="#0a0a0a" rx="8" stroke="#39FF14" stroke-opacity="0.4" stroke-width="1"/>
        <text x="0" y="-20" font-size="12" fill="#aaaaaa">NETWORK LOAD</text>
        <text x="0" y="15" font-size="28" fill="#ffffff" font-weight="bold" filter="url(#textGlow)">5791</text>
        <text x="0" y="35" font-size="10" fill="#777777">ACTIVE SESSIONS</text>
    </g>

    <!-- ACTIVE AGENTS -->
    <g transform="translate(530, 100)">
        <rect x="-60" y="-45" width="120" height="90" fill="#0a0a0a" rx="8" stroke="#39FF14" stroke-opacity="0.4" stroke-width="1"/>
        <text x="0" y="-20" font-size="12" fill="#aaaaaa">SWARM ENTITIES</text>
        <text x="0" y="15" font-size="28" fill="#ffffff" font-weight="bold" filter="url(#textGlow)">166</text>
        <text x="0" y="35" font-size="10" fill="#777777">AUTONOMOUS</text>
    </g>

    <!-- UPTIME -->
    <g transform="translate(730, 100)">
        <path d="M -40 -35 L 40 -35 L 50 -25 L 50 35 L -40 35 L -50 25 Z" fill="#0a0a0a" stroke="#39FF14" stroke-opacity="0.4" stroke-width="1"/>
        <text x="0" y="-15" font-size="12" fill="#aaaaaa">CONTINUITY</text>
        <text x="0" y="15" font-size="24" fill="#ffffff" font-weight="bold">373<tspan font-size="14" fill="#777777">d</tspan></text>
        <rect x="-35" y="25" width="70" height="4" fill="url(#neonBar)" rx="2"/>
    </g>
  </g>

  <text x="425" y="185" font-family="'Consolas', 'Fira Code', monospace" font-size="10" fill="#aaaaaa" opacity="0.6" text-anchor="middle">LAST TELEMETRY PING: 2026-05-05 12:32:56 UTC // ENCRYPTED_TUNNEL</text>
</svg>