<svg width="850" height="200" viewBox="0 0 850 200" xmlns="http://www.w3.org/2000/svg">
  <defs>
    <pattern id="carbonFiber" width="10" height="10" patternUnits="userSpaceOnUse">
        <rect width="10" height="10" fill="#050505"/>
        <path d="M0,0 L5,5 L10,0 L5,-5 Z M5,5 L10,10 L15,5 L10,0 Z M-5,5 L0,10 L5,5 L0,0 Z M0,10 L5,15 L10,10 L5,5 Z" fill="#0d0d0d"/>
    </pattern>
    <filter id="textGlow">
      <feGaussianBlur stdDeviation="2" result="blur" />
      <feMerge>
        <feMergeNode in="blur"/>
        <feMergeNode in="SourceGraphic"/>
      </feMerge>
    </filter>
    <linearGradient id="neonBar" x1="0%" y1="0%" x2="100%" y2="0%">
        <stop offset="0%" stop-color="#111111"/>
        <stop offset="100%" stop-color="#39FF14"/>
    </linearGradient>
    <linearGradient id="scanlineGrad" x1="0%" y1="0%" x2="100%" y2="0%">
        <stop offset="0%" stop-color="#39FF14" stop-opacity="0"/>
        <stop offset="50%" stop-color="#39FF14" stop-opacity="0.18"/>
        <stop offset="100%" stop-color="#39FF14" stop-opacity="0"/>
    </linearGradient>
    <clipPath id="dashClip">
        <rect x="0" y="0" width="850" height="200" rx="12"/>
    </clipPath>
  </defs>

  <rect width="100%" height="100%" fill="url(#carbonFiber)" rx="12" stroke="#39FF14" stroke-width="1" stroke-opacity="0.3"/>
  <rect width="100%" height="100%" fill="#000000" opacity="0.6" rx="12" />
  <g><polygon points="468,126 476.6,131 476.6,141 468,146 459.4,141 459.4,131" fill="none" stroke="#39FF14" stroke-width="1" opacity="0.07643760916848008"/>
<polygon points="253,105 261.6,110 261.6,120 253,125 244.4,120 244.4,110" fill="none" stroke="#39FF14" stroke-width="1" opacity="0.07461263983820147"/>
<polygon points="835,184 843.6,189 843.6,199 835,204 826.4,199 826.4,189" fill="none" stroke="#39FF14" stroke-width="1" opacity="0.022804418227063646"/>
<polygon points="444,54 452.6,59 452.6,69 444,74 435.4,69 435.4,59" fill="none" stroke="#39FF14" stroke-width="1" opacity="0.05642142933741627"/>
<polygon points="567,183 575.6,188 575.6,198 567,203 558.4,198 558.4,188" fill="none" stroke="#39FF14" stroke-width="1" opacity="0.02702343617020991"/>
<polygon points="77,140 85.6,145 85.6,155 77,160 68.4,155 68.4,145" fill="none" stroke="#39FF14" stroke-width="1" opacity="0.07449385832509968"/>
<polygon points="354,17 362.6,22 362.6,32 354,37 345.4,32 345.4,22" fill="none" stroke="#39FF14" stroke-width="1" opacity="0.05759813111255688"/>
<polygon points="393,6 401.6,11 401.6,21 393,26 384.4,21 384.4,11" fill="none" stroke="#39FF14" stroke-width="1" opacity="0.06734209411327752"/>
<polygon points="432,96 440.6,101 440.6,111 432,116 423.4,111 423.4,101" fill="none" stroke="#39FF14" stroke-width="1" opacity="0.07826245218291017"/>
<polygon points="79,38 87.6,43 87.6,53 79,58 70.4,53 70.4,43" fill="none" stroke="#39FF14" stroke-width="1" opacity="0.06152597638233043"/>
<polygon points="505,131 513.6,136 513.6,146 505,151 496.4,146 496.4,136" fill="none" stroke="#39FF14" stroke-width="1" opacity="0.07813724180553923"/>
<polygon points="114,114 122.6,119 122.6,129 114,134 105.4,129 105.4,119" fill="none" stroke="#39FF14" stroke-width="1" opacity="0.036378170098325606"/>
<polygon points="267,39 275.6,44 275.6,54 267,59 258.4,54 258.4,44" fill="none" stroke="#39FF14" stroke-width="1" opacity="0.04362351649462562"/>
<polygon points="12,76 20.6,81 20.6,91 12,96 3.4000000000000004,91 3.4000000000000004,81" fill="none" stroke="#39FF14" stroke-width="1" opacity="0.05363192538884927"/>
<polygon points="443,38 451.6,43 451.6,53 443,58 434.4,53 434.4,43" fill="none" stroke="#39FF14" stroke-width="1" opacity="0.03914115787730846"/>
<polygon points="119,98 127.6,103 127.6,113 119,118 110.4,113 110.4,103" fill="none" stroke="#39FF14" stroke-width="1" opacity="0.05272975497017421"/>
<polygon points="458,101 466.6,106 466.6,116 458,121 449.4,116 449.4,106" fill="none" stroke="#39FF14" stroke-width="1" opacity="0.060444507932468416"/>
<polygon points="131,-8 139.6,-3 139.6,7 131,12 122.4,7 122.4,-3" fill="none" stroke="#39FF14" stroke-width="1" opacity="0.06214148719066011"/>
<polygon points="711,38 719.6,43 719.6,53 711,58 702.4,53 702.4,43" fill="none" stroke="#39FF14" stroke-width="1" opacity="0.06403360386941007"/>
<polygon points="273,184 281.6,189 281.6,199 273,204 264.4,199 264.4,189" fill="none" stroke="#39FF14" stroke-width="1" opacity="0.047838962734596056"/>
<polygon points="439,86 447.6,91 447.6,101 439,106 430.4,101 430.4,91" fill="none" stroke="#39FF14" stroke-width="1" opacity="0.06083499333171699"/>
<polygon points="481,52 489.6,57 489.6,67 481,72 472.4,67 472.4,57" fill="none" stroke="#39FF14" stroke-width="1" opacity="0.028381356836967617"/>
<polygon points="471,124 479.6,129 479.6,139 471,144 462.4,139 462.4,129" fill="none" stroke="#39FF14" stroke-width="1" opacity="0.0532441409900577"/>
<polygon points="452,15 460.6,20 460.6,30 452,35 443.4,30 443.4,20" fill="none" stroke="#39FF14" stroke-width="1" opacity="0.025934812509538857"/>
<polygon points="745,160 753.6,165 753.6,175 745,180 736.4,175 736.4,165" fill="none" stroke="#39FF14" stroke-width="1" opacity="0.028678779642573753"/>
<polygon points="418,39 426.6,44 426.6,54 418,59 409.4,54 409.4,44" fill="none" stroke="#39FF14" stroke-width="1" opacity="0.042897397923684175"/>
<polygon points="652,149 660.6,154 660.6,164 652,169 643.4,164 643.4,154" fill="none" stroke="#39FF14" stroke-width="1" opacity="0.07562514231861096"/>
<polygon points="281,47 289.6,52 289.6,62 281,67 272.4,62 272.4,52" fill="none" stroke="#39FF14" stroke-width="1" opacity="0.02968508425849875"/>
<polygon points="169,15 177.6,20 177.6,30 169,35 160.4,30 160.4,20" fill="none" stroke="#39FF14" stroke-width="1" opacity="0.07512806969424948"/>
<polygon points="495,114 503.6,119 503.6,129 495,134 486.4,129 486.4,119" fill="none" stroke="#39FF14" stroke-width="1" opacity="0.049530698527050686"/>
</g>

  <!-- HUD Decorative elements -->
  <path d="M 20 20 L 40 20 L 50 30" fill="none" stroke="#39FF14" stroke-width="2" opacity="0.5"/>
  <path d="M 830 180 L 810 180 L 800 170" fill="none" stroke="#39FF14" stroke-width="2" opacity="0.5"/>

  <g clip-path="url(#dashClip)">
    <rect x="-160" y="0" width="160" height="200" fill="url(#scanlineGrad)">
      <animateTransform attributeName="transform" type="translate"
                        from="0 0" to="1010 0" dur="6s" repeatCount="indefinite"/>
    </rect>
  </g>

  <g font-family="'Consolas', 'Fira Code', monospace" text-anchor="middle">

    <!-- NETWORK STATUS -->
    <g transform="translate(130, 100)">
        <circle cx="0" cy="0" r="45" fill="none" stroke="#39FF14" stroke-width="2" stroke-dasharray="10 5">
            <animateTransform attributeName="transform" type="rotate" from="0" to="360" dur="10s" repeatCount="indefinite"/>
        </circle>
        <circle cx="0" cy="0" r="35" fill="#0d0d0d" />
        <text x="0" y="-60" font-size="12" fill="#aaaaaa" letter-spacing="2">ROOT.AUTH</text>
        <text x="0" y="70" font-size="14" fill="#ffffff" font-weight="bold">OPERATIONAL</text>
    </g>

    <!-- ACTIVE USERS -->
    <g transform="translate(330, 100)">
        <text x="0" y="-20" font-size="12" fill="#aaaaaa">CITIZENS</text>
        <text x="0" y="15" font-size="28" fill="#ffffff" font-weight="bold" filter="url(#textGlow)">13,393</text>
        <text x="0" y="35" font-size="10" fill="#777777">VERIFIED HUMANS</text>
    </g>

    <!-- REGISTERED AGENTS -->
    <g transform="translate(530, 100)">
        <text x="0" y="-20" font-size="12" fill="#aaaaaa">AGENTS</text>
        <text x="0" y="15" font-size="28" fill="#00d4ff" font-weight="bold" filter="url(#textGlow)">3,913</text>
        <text x="0" y="35" font-size="10" fill="#777777">REGISTERED DIDs</text>
    </g>

    <!-- TRANSACTIONS -->
    <g transform="translate(730, 100)">
        <text x="0" y="-20" font-size="12" fill="#aaaaaa">TRANSFERS</text>
        <text x="0" y="15" font-size="28" fill="#ffffff" font-weight="bold">28,308</text>
        <text x="0" y="35" font-size="10" fill="#777777">M2M SETTLEMENTS</text>
    </g>
  </g>

  <text x="425" y="185" font-family="'Consolas', 'Fira Code', monospace" font-size="10" fill="#aaaaaa" opacity="0.6" text-anchor="middle">AXIOMID PROJECTED TARGETS (ILLUSTRATIVE): 2026-06-23 18:37:46 UTC // SECURE_HANDSHAKE</text>
</svg>