<svg width="850" height="200" viewBox="0 0 850 200" xmlns="http://www.w3.org/2000/svg">
  <defs>
    <pattern id="carbonFiber" width="10" height="10" patternUnits="userSpaceOnUse">
        <rect width="10" height="10" fill="#050505"/>
        <path d="M0,0 L5,5 L10,0 L5,-5 Z M5,5 L10,10 L15,5 L10,0 Z M-5,5 L0,10 L5,5 L0,0 Z M0,10 L5,15 L10,10 L5,5 Z" fill="#0d0d0d"/>
    </pattern>
    <filter id="textGlow">
      <feGaussianBlur stdDeviation="2" result="blur" />
      <feMerge>
        <feMergeNode in="blur"/>
        <feMergeNode in="SourceGraphic"/>
      </feMerge>
    </filter>
    <linearGradient id="neonBar" x1="0%" y1="0%" x2="100%" y2="0%">
        <stop offset="0%" stop-color="#111111"/>
        <stop offset="100%" stop-color="#39FF14"/>
    </linearGradient>
    <linearGradient id="scanlineGrad" x1="0%" y1="0%" x2="100%" y2="0%">
        <stop offset="0%" stop-color="#39FF14" stop-opacity="0"/>
        <stop offset="50%" stop-color="#39FF14" stop-opacity="0.18"/>
        <stop offset="100%" stop-color="#39FF14" stop-opacity="0"/>
    </linearGradient>
    <clipPath id="dashClip">
        <rect x="0" y="0" width="850" height="200" rx="12"/>
    </clipPath>
  </defs>

  <rect width="100%" height="100%" fill="url(#carbonFiber)" rx="12" stroke="#39FF14" stroke-width="1" stroke-opacity="0.3"/>
  <rect width="100%" height="100%" fill="#000000" opacity="0.6" rx="12" />
  <g><polygon points="833,45 841.6,50 841.6,60 833,65 824.4,60 824.4,50" fill="none" stroke="#39FF14" stroke-width="1" opacity="0.05784744704194855"/>
<polygon points="648,157 656.6,162 656.6,172 648,177 639.4,172 639.4,162" fill="none" stroke="#39FF14" stroke-width="1" opacity="0.036580088605797104"/>
<polygon points="679,39 687.6,44 687.6,54 679,59 670.4,54 670.4,44" fill="none" stroke="#39FF14" stroke-width="1" opacity="0.02090000678246858"/>
<polygon points="711,89 719.6,94 719.6,104 711,109 702.4,104 702.4,94" fill="none" stroke="#39FF14" stroke-width="1" opacity="0.0634872747938542"/>
<polygon points="56,35 64.6,40 64.6,50 56,55 47.4,50 47.4,40" fill="none" stroke="#39FF14" stroke-width="1" opacity="0.06746879479097342"/>
<polygon points="269,52 277.6,57 277.6,67 269,72 260.4,67 260.4,57" fill="none" stroke="#39FF14" stroke-width="1" opacity="0.04810347997123436"/>
<polygon points="582,-2 590.6,3 590.6,13 582,18 573.4,13 573.4,3" fill="none" stroke="#39FF14" stroke-width="1" opacity="0.06547851562158824"/>
<polygon points="569,70 577.6,75 577.6,85 569,90 560.4,85 560.4,75" fill="none" stroke="#39FF14" stroke-width="1" opacity="0.05380735898669596"/>
<polygon points="616,18 624.6,23 624.6,33 616,38 607.4,33 607.4,23" fill="none" stroke="#39FF14" stroke-width="1" opacity="0.047612352523402374"/>
<polygon points="160,33 168.6,38 168.6,48 160,53 151.4,48 151.4,38" fill="none" stroke="#39FF14" stroke-width="1" opacity="0.04451386858535386"/>
<polygon points="692,111 700.6,116 700.6,126 692,131 683.4,126 683.4,116" fill="none" stroke="#39FF14" stroke-width="1" opacity="0.024855079847569947"/>
<polygon points="673,44 681.6,49 681.6,59 673,64 664.4,59 664.4,49" fill="none" stroke="#39FF14" stroke-width="1" opacity="0.05250629784307777"/>
<polygon points="278,116 286.6,121 286.6,131 278,136 269.4,131 269.4,121" fill="none" stroke="#39FF14" stroke-width="1" opacity="0.05201767679553146"/>
<polygon points="837,159 845.6,164 845.6,174 837,179 828.4,174 828.4,164" fill="none" stroke="#39FF14" stroke-width="1" opacity="0.05018267248159846"/>
<polygon points="751,114 759.6,119 759.6,129 751,134 742.4,129 742.4,119" fill="none" stroke="#39FF14" stroke-width="1" opacity="0.03032423649141852"/>
<polygon points="241,33 249.6,38 249.6,48 241,53 232.4,48 232.4,38" fill="none" stroke="#39FF14" stroke-width="1" opacity="0.04761282929892681"/>
<polygon points="552,2 560.6,7 560.6,17 552,22 543.4,17 543.4,7" fill="none" stroke="#39FF14" stroke-width="1" opacity="0.07806949666122835"/>
<polygon points="560,17 568.6,22 568.6,32 560,37 551.4,32 551.4,22" fill="none" stroke="#39FF14" stroke-width="1" opacity="0.027632435814534957"/>
<polygon points="551,45 559.6,50 559.6,60 551,65 542.4,60 542.4,50" fill="none" stroke="#39FF14" stroke-width="1" opacity="0.059952523433546345"/>
<polygon points="842,141 850.6,146 850.6,156 842,161 833.4,156 833.4,146" fill="none" stroke="#39FF14" stroke-width="1" opacity="0.03332513993822763"/>
<polygon points="412,121 420.6,126 420.6,136 412,141 403.4,136 403.4,126" fill="none" stroke="#39FF14" stroke-width="1" opacity="0.06915966624142939"/>
<polygon points="691,158 699.6,163 699.6,173 691,178 682.4,173 682.4,163" fill="none" stroke="#39FF14" stroke-width="1" opacity="0.05851731370793763"/>
<polygon points="543,147 551.6,152 551.6,162 543,167 534.4,162 534.4,152" fill="none" stroke="#39FF14" stroke-width="1" opacity="0.05205731306492116"/>
<polygon points="271,150 279.6,155 279.6,165 271,170 262.4,165 262.4,155" fill="none" stroke="#39FF14" stroke-width="1" opacity="0.054687003852743915"/>
<polygon points="338,100 346.6,105 346.6,115 338,120 329.4,115 329.4,105" fill="none" stroke="#39FF14" stroke-width="1" opacity="0.02752795577266804"/>
<polygon points="207,139 215.6,144 215.6,154 207,159 198.4,154 198.4,144" fill="none" stroke="#39FF14" stroke-width="1" opacity="0.02872855996764154"/>
<polygon points="111,40 119.6,45 119.6,55 111,60 102.4,55 102.4,45" fill="none" stroke="#39FF14" stroke-width="1" opacity="0.05699302503001272"/>
<polygon points="317,116 325.6,121 325.6,131 317,136 308.4,131 308.4,121" fill="none" stroke="#39FF14" stroke-width="1" opacity="0.06974463993703418"/>
<polygon points="639,90 647.6,95 647.6,105 639,110 630.4,105 630.4,95" fill="none" stroke="#39FF14" stroke-width="1" opacity="0.06686576536542153"/>
<polygon points="230,128 238.6,133 238.6,143 230,148 221.4,143 221.4,133" fill="none" stroke="#39FF14" stroke-width="1" opacity="0.020636048946921608"/>
</g>

  <!-- HUD Decorative elements -->
  <path d="M 20 20 L 40 20 L 50 30" fill="none" stroke="#39FF14" stroke-width="2" opacity="0.5"/>
  <path d="M 830 180 L 810 180 L 800 170" fill="none" stroke="#39FF14" stroke-width="2" opacity="0.5"/>

  <g clip-path="url(#dashClip)">
    <rect x="-160" y="0" width="160" height="200" fill="url(#scanlineGrad)">
      <animateTransform attributeName="transform" type="translate"
                        from="0 0" to="1010 0" dur="6s" repeatCount="indefinite"/>
    </rect>
  </g>

  <g font-family="'Consolas', 'Fira Code', monospace" text-anchor="middle">

    <!-- NETWORK STATUS -->
    <g transform="translate(130, 100)">
        <circle cx="0" cy="0" r="45" fill="none" stroke="#39FF14" stroke-width="2" stroke-dasharray="10 5">
            <animateTransform attributeName="transform" type="rotate" from="0" to="360" dur="10s" repeatCount="indefinite"/>
        </circle>
        <circle cx="0" cy="0" r="35" fill="#0d0d0d" />
        <text x="0" y="-60" font-size="12" fill="#aaaaaa" letter-spacing="2">ROOT.AUTH</text>
        <text x="0" y="70" font-size="14" fill="#ffffff" font-weight="bold">OPERATIONAL</text>
    </g>

    <!-- ACTIVE USERS -->
    <g transform="translate(330, 100)">
        <text x="0" y="-20" font-size="12" fill="#aaaaaa">CITIZENS</text>
        <text x="0" y="15" font-size="28" fill="#ffffff" font-weight="bold" filter="url(#textGlow)">14,223</text>
        <text x="0" y="35" font-size="10" fill="#777777">VERIFIED HUMANS</text>
    </g>

    <!-- REGISTERED AGENTS -->
    <g transform="translate(530, 100)">
        <text x="0" y="-20" font-size="12" fill="#aaaaaa">AGENTS</text>
        <text x="0" y="15" font-size="28" fill="#00d4ff" font-weight="bold" filter="url(#textGlow)">3,234</text>
        <text x="0" y="35" font-size="10" fill="#777777">REGISTERED DIDs</text>
    </g>

    <!-- TRANSACTIONS -->
    <g transform="translate(730, 100)">
        <text x="0" y="-20" font-size="12" fill="#aaaaaa">TRANSFERS</text>
        <text x="0" y="15" font-size="28" fill="#ffffff" font-weight="bold">41,646</text>
        <text x="0" y="35" font-size="10" fill="#777777">M2M SETTLEMENTS</text>
    </g>
  </g>

  <text x="425" y="185" font-family="'Consolas', 'Fira Code', monospace" font-size="10" fill="#aaaaaa" opacity="0.6" text-anchor="middle">AXIOMID PROJECTED TARGETS (ILLUSTRATIVE): 2026-07-03 21:56:27 UTC // SECURE_HANDSHAKE</text>
</svg>