<svg width="850" height="200" viewBox="0 0 850 200" xmlns="http://www.w3.org/2000/svg">
  <defs>
    <pattern id="carbonFiber" width="10" height="10" patternUnits="userSpaceOnUse">
        <rect width="10" height="10" fill="#050505"/>
        <path d="M0,0 L5,5 L10,0 L5,-5 Z M5,5 L10,10 L15,5 L10,0 Z M-5,5 L0,10 L5,5 L0,0 Z M0,10 L5,15 L10,10 L5,5 Z" fill="#0d0d0d"/>
    </pattern>
    <filter id="textGlow">
      <feGaussianBlur stdDeviation="2" result="blur" />
      <feMerge>
        <feMergeNode in="blur"/>
        <feMergeNode in="SourceGraphic"/>
      </feMerge>
    </filter>
    <linearGradient id="neonBar" x1="0%" y1="0%" x2="100%" y2="0%">
        <stop offset="0%" stop-color="#111111"/>
        <stop offset="100%" stop-color="#39FF14"/>
    </linearGradient>
    <linearGradient id="scanlineGrad" x1="0%" y1="0%" x2="100%" y2="0%">
        <stop offset="0%" stop-color="#39FF14" stop-opacity="0"/>
        <stop offset="50%" stop-color="#39FF14" stop-opacity="0.18"/>
        <stop offset="100%" stop-color="#39FF14" stop-opacity="0"/>
    </linearGradient>
    <clipPath id="dashClip">
        <rect x="0" y="0" width="850" height="200" rx="12"/>
    </clipPath>
  </defs>

  <rect width="100%" height="100%" fill="url(#carbonFiber)" rx="12" stroke="#39FF14" stroke-width="1" stroke-opacity="0.3"/>
  <rect width="100%" height="100%" fill="#000000" opacity="0.6" rx="12" />
  <g><polygon points="792,5 800.6,10 800.6,20 792,25 783.4,20 783.4,10" fill="none" stroke="#39FF14" stroke-width="1" opacity="0.025847175247869746"/>
<polygon points="784,180 792.6,185 792.6,195 784,200 775.4,195 775.4,185" fill="none" stroke="#39FF14" stroke-width="1" opacity="0.0624271376939735"/>
<polygon points="206,72 214.6,77 214.6,87 206,92 197.4,87 197.4,77" fill="none" stroke="#39FF14" stroke-width="1" opacity="0.07920298640716815"/>
<polygon points="641,38 649.6,43 649.6,53 641,58 632.4,53 632.4,43" fill="none" stroke="#39FF14" stroke-width="1" opacity="0.07159164805275699"/>
<polygon points="490,52 498.6,57 498.6,67 490,72 481.4,67 481.4,57" fill="none" stroke="#39FF14" stroke-width="1" opacity="0.07280143909498463"/>
<polygon points="123,44 131.6,49 131.6,59 123,64 114.4,59 114.4,49" fill="none" stroke="#39FF14" stroke-width="1" opacity="0.03785548815315954"/>
<polygon points="401,172 409.6,177 409.6,187 401,192 392.4,187 392.4,177" fill="none" stroke="#39FF14" stroke-width="1" opacity="0.07884135917653232"/>
<polygon points="138,-1 146.6,4 146.6,14 138,19 129.4,14 129.4,4" fill="none" stroke="#39FF14" stroke-width="1" opacity="0.07636945826337395"/>
<polygon points="760,144 768.6,149 768.6,159 760,164 751.4,159 751.4,149" fill="none" stroke="#39FF14" stroke-width="1" opacity="0.05918049994182538"/>
<polygon points="335,11 343.6,16 343.6,26 335,31 326.4,26 326.4,16" fill="none" stroke="#39FF14" stroke-width="1" opacity="0.07748097232283863"/>
<polygon points="347,53 355.6,58 355.6,68 347,73 338.4,68 338.4,58" fill="none" stroke="#39FF14" stroke-width="1" opacity="0.04076735456763948"/>
<polygon points="131,7 139.6,12 139.6,22 131,27 122.4,22 122.4,12" fill="none" stroke="#39FF14" stroke-width="1" opacity="0.06153504589958862"/>
<polygon points="198,178 206.6,183 206.6,193 198,198 189.4,193 189.4,183" fill="none" stroke="#39FF14" stroke-width="1" opacity="0.021285666702046974"/>
<polygon points="614,78 622.6,83 622.6,93 614,98 605.4,93 605.4,83" fill="none" stroke="#39FF14" stroke-width="1" opacity="0.054070453803178015"/>
<polygon points="606,182 614.6,187 614.6,197 606,202 597.4,197 597.4,187" fill="none" stroke="#39FF14" stroke-width="1" opacity="0.0328285173281896"/>
<polygon points="809,109 817.6,114 817.6,124 809,129 800.4,124 800.4,114" fill="none" stroke="#39FF14" stroke-width="1" opacity="0.05403814180666808"/>
<polygon points="656,175 664.6,180 664.6,190 656,195 647.4,190 647.4,180" fill="none" stroke="#39FF14" stroke-width="1" opacity="0.030630276677306542"/>
<polygon points="546,112 554.6,117 554.6,127 546,132 537.4,127 537.4,117" fill="none" stroke="#39FF14" stroke-width="1" opacity="0.06906886635397595"/>
<polygon points="431,153 439.6,158 439.6,168 431,173 422.4,168 422.4,158" fill="none" stroke="#39FF14" stroke-width="1" opacity="0.02523229340729766"/>
<polygon points="755,-9 763.6,-4 763.6,6 755,11 746.4,6 746.4,-4" fill="none" stroke="#39FF14" stroke-width="1" opacity="0.066288739856694"/>
<polygon points="323,134 331.6,139 331.6,149 323,154 314.4,149 314.4,139" fill="none" stroke="#39FF14" stroke-width="1" opacity="0.07420544385771248"/>
<polygon points="353,122 361.6,127 361.6,137 353,142 344.4,137 344.4,127" fill="none" stroke="#39FF14" stroke-width="1" opacity="0.045903191593907294"/>
<polygon points="699,45 707.6,50 707.6,60 699,65 690.4,60 690.4,50" fill="none" stroke="#39FF14" stroke-width="1" opacity="0.03271784283149119"/>
<polygon points="236,21 244.6,26 244.6,36 236,41 227.4,36 227.4,26" fill="none" stroke="#39FF14" stroke-width="1" opacity="0.028689490058844327"/>
<polygon points="566,188 574.6,193 574.6,203 566,208 557.4,203 557.4,193" fill="none" stroke="#39FF14" stroke-width="1" opacity="0.03361719888758255"/>
<polygon points="679,63 687.6,68 687.6,78 679,83 670.4,78 670.4,68" fill="none" stroke="#39FF14" stroke-width="1" opacity="0.049821119284919835"/>
<polygon points="270,18 278.6,23 278.6,33 270,38 261.4,33 261.4,23" fill="none" stroke="#39FF14" stroke-width="1" opacity="0.07404417225683856"/>
<polygon points="129,96 137.6,101 137.6,111 129,116 120.4,111 120.4,101" fill="none" stroke="#39FF14" stroke-width="1" opacity="0.061886178225668706"/>
<polygon points="241,67 249.6,72 249.6,82 241,87 232.4,82 232.4,72" fill="none" stroke="#39FF14" stroke-width="1" opacity="0.05242597933235636"/>
<polygon points="702,132 710.6,137 710.6,147 702,152 693.4,147 693.4,137" fill="none" stroke="#39FF14" stroke-width="1" opacity="0.036281829755269016"/>
</g>

  <!-- HUD Decorative elements -->
  <path d="M 20 20 L 40 20 L 50 30" fill="none" stroke="#39FF14" stroke-width="2" opacity="0.5"/>
  <path d="M 830 180 L 810 180 L 800 170" fill="none" stroke="#39FF14" stroke-width="2" opacity="0.5"/>

  <g clip-path="url(#dashClip)">
    <rect x="-160" y="0" width="160" height="200" fill="url(#scanlineGrad)">
      <animateTransform attributeName="transform" type="translate"
                        from="0 0" to="1010 0" dur="6s" repeatCount="indefinite"/>
    </rect>
  </g>

  <g font-family="'Consolas', 'Fira Code', monospace" text-anchor="middle">

    <!-- NETWORK STATUS -->
    <g transform="translate(130, 100)">
        <circle cx="0" cy="0" r="45" fill="none" stroke="#39FF14" stroke-width="2" stroke-dasharray="10 5">
            <animateTransform attributeName="transform" type="rotate" from="0" to="360" dur="10s" repeatCount="indefinite"/>
        </circle>
        <circle cx="0" cy="0" r="35" fill="#0d0d0d" />
        <text x="0" y="-60" font-size="12" fill="#aaaaaa" letter-spacing="2">ROOT.AUTH</text>
        <text x="0" y="70" font-size="14" fill="#ffffff" font-weight="bold">OPERATIONAL</text>
    </g>

    <!-- ACTIVE USERS -->
    <g transform="translate(330, 100)">
        <text x="0" y="-20" font-size="12" fill="#aaaaaa">CITIZENS</text>
        <text x="0" y="15" font-size="28" fill="#ffffff" font-weight="bold" filter="url(#textGlow)">12,482</text>
        <text x="0" y="35" font-size="10" fill="#777777">VERIFIED HUMANS</text>
    </g>

    <!-- REGISTERED AGENTS -->
    <g transform="translate(530, 100)">
        <text x="0" y="-20" font-size="12" fill="#aaaaaa">AGENTS</text>
        <text x="0" y="15" font-size="28" fill="#00d4ff" font-weight="bold" filter="url(#textGlow)">4,617</text>
        <text x="0" y="35" font-size="10" fill="#777777">REGISTERED DIDs</text>
    </g>

    <!-- TRANSACTIONS -->
    <g transform="translate(730, 100)">
        <text x="0" y="-20" font-size="12" fill="#aaaaaa">TRANSFERS</text>
        <text x="0" y="15" font-size="28" fill="#ffffff" font-weight="bold">27,698</text>
        <text x="0" y="35" font-size="10" fill="#777777">M2M SETTLEMENTS</text>
    </g>
  </g>

  <text x="425" y="185" font-family="'Consolas', 'Fira Code', monospace" font-size="10" fill="#aaaaaa" opacity="0.6" text-anchor="middle">AXIOMID PROJECTED TARGETS (ILLUSTRATIVE): 2026-07-21 13:16:27 UTC // SECURE_HANDSHAKE</text>
</svg>