<svg width="850" height="200" viewBox="0 0 850 200" xmlns="http://www.w3.org/2000/svg">
  <defs>
    <pattern id="carbonFiber" width="10" height="10" patternUnits="userSpaceOnUse">
        <rect width="10" height="10" fill="#050505"/>
        <path d="M0,0 L5,5 L10,0 L5,-5 Z M5,5 L10,10 L15,5 L10,0 Z M-5,5 L0,10 L5,5 L0,0 Z M0,10 L5,15 L10,10 L5,5 Z" fill="#0d0d0d"/>
    </pattern>
    <filter id="textGlow">
      <feGaussianBlur stdDeviation="2" result="blur" />
      <feMerge>
        <feMergeNode in="blur"/>
        <feMergeNode in="SourceGraphic"/>
      </feMerge>
    </filter>
    <linearGradient id="neonBar" x1="0%" y1="0%" x2="100%" y2="0%">
        <stop offset="0%" stop-color="#111111"/>
        <stop offset="100%" stop-color="#39FF14"/>
    </linearGradient>
    <linearGradient id="scanlineGrad" x1="0%" y1="0%" x2="100%" y2="0%">
        <stop offset="0%" stop-color="#39FF14" stop-opacity="0"/>
        <stop offset="50%" stop-color="#39FF14" stop-opacity="0.18"/>
        <stop offset="100%" stop-color="#39FF14" stop-opacity="0"/>
    </linearGradient>
    <clipPath id="dashClip">
        <rect x="0" y="0" width="850" height="200" rx="12"/>
    </clipPath>
  </defs>

  <rect width="100%" height="100%" fill="url(#carbonFiber)" rx="12" stroke="#39FF14" stroke-width="1" stroke-opacity="0.3"/>
  <rect width="100%" height="100%" fill="#000000" opacity="0.6" rx="12" />
  <g><polygon points="762,122 770.6,127 770.6,137 762,142 753.4,137 753.4,127" fill="none" stroke="#39FF14" stroke-width="1" opacity="0.027708899138714434"/>
<polygon points="834,143 842.6,148 842.6,158 834,163 825.4,158 825.4,148" fill="none" stroke="#39FF14" stroke-width="1" opacity="0.07692742801528864"/>
<polygon points="764,89 772.6,94 772.6,104 764,109 755.4,104 755.4,94" fill="none" stroke="#39FF14" stroke-width="1" opacity="0.06606817815771729"/>
<polygon points="335,-8 343.6,-3 343.6,7 335,12 326.4,7 326.4,-3" fill="none" stroke="#39FF14" stroke-width="1" opacity="0.03049308968921158"/>
<polygon points="600,124 608.6,129 608.6,139 600,144 591.4,139 591.4,129" fill="none" stroke="#39FF14" stroke-width="1" opacity="0.040828459909964754"/>
<polygon points="307,130 315.6,135 315.6,145 307,150 298.4,145 298.4,135" fill="none" stroke="#39FF14" stroke-width="1" opacity="0.03198637503425268"/>
<polygon points="68,94 76.6,99 76.6,109 68,114 59.4,109 59.4,99" fill="none" stroke="#39FF14" stroke-width="1" opacity="0.030120978258440772"/>
<polygon points="142,144 150.6,149 150.6,159 142,164 133.4,159 133.4,149" fill="none" stroke="#39FF14" stroke-width="1" opacity="0.04782941319909964"/>
<polygon points="54,137 62.6,142 62.6,152 54,157 45.4,152 45.4,142" fill="none" stroke="#39FF14" stroke-width="1" opacity="0.03289558978553013"/>
<polygon points="706,54 714.6,59 714.6,69 706,74 697.4,69 697.4,59" fill="none" stroke="#39FF14" stroke-width="1" opacity="0.024822694031049378"/>
<polygon points="147,125 155.6,130 155.6,140 147,145 138.4,140 138.4,130" fill="none" stroke="#39FF14" stroke-width="1" opacity="0.0511158851652844"/>
<polygon points="604,161 612.6,166 612.6,176 604,181 595.4,176 595.4,166" fill="none" stroke="#39FF14" stroke-width="1" opacity="0.041501569455200366"/>
<polygon points="758,83 766.6,88 766.6,98 758,103 749.4,98 749.4,88" fill="none" stroke="#39FF14" stroke-width="1" opacity="0.07329087496086518"/>
<polygon points="436,-5 444.6,0 444.6,10 436,15 427.4,10 427.4,0" fill="none" stroke="#39FF14" stroke-width="1" opacity="0.036993650462215796"/>
<polygon points="466,92 474.6,97 474.6,107 466,112 457.4,107 457.4,97" fill="none" stroke="#39FF14" stroke-width="1" opacity="0.026274189838430325"/>
<polygon points="218,39 226.6,44 226.6,54 218,59 209.4,54 209.4,44" fill="none" stroke="#39FF14" stroke-width="1" opacity="0.05119066832499723"/>
<polygon points="451,-8 459.6,-3 459.6,7 451,12 442.4,7 442.4,-3" fill="none" stroke="#39FF14" stroke-width="1" opacity="0.020688039274991417"/>
<polygon points="726,59 734.6,64 734.6,74 726,79 717.4,74 717.4,64" fill="none" stroke="#39FF14" stroke-width="1" opacity="0.06394844767520216"/>
<polygon points="246,30 254.6,35 254.6,45 246,50 237.4,45 237.4,35" fill="none" stroke="#39FF14" stroke-width="1" opacity="0.026757627705162643"/>
<polygon points="496,127 504.6,132 504.6,142 496,147 487.4,142 487.4,132" fill="none" stroke="#39FF14" stroke-width="1" opacity="0.07010240162986665"/>
<polygon points="779,160 787.6,165 787.6,175 779,180 770.4,175 770.4,165" fill="none" stroke="#39FF14" stroke-width="1" opacity="0.03259408999569413"/>
<polygon points="5,57 13.6,62 13.6,72 5,77 -3.5999999999999996,72 -3.5999999999999996,62" fill="none" stroke="#39FF14" stroke-width="1" opacity="0.0545503296889137"/>
<polygon points="175,94 183.6,99 183.6,109 175,114 166.4,109 166.4,99" fill="none" stroke="#39FF14" stroke-width="1" opacity="0.0623522134211629"/>
<polygon points="515,-5 523.6,0 523.6,10 515,15 506.4,10 506.4,0" fill="none" stroke="#39FF14" stroke-width="1" opacity="0.04079144046809596"/>
<polygon points="129,101 137.6,106 137.6,116 129,121 120.4,116 120.4,106" fill="none" stroke="#39FF14" stroke-width="1" opacity="0.0385207259652388"/>
<polygon points="211,-1 219.6,4 219.6,14 211,19 202.4,14 202.4,4" fill="none" stroke="#39FF14" stroke-width="1" opacity="0.06470565071886825"/>
<polygon points="54,100 62.6,105 62.6,115 54,120 45.4,115 45.4,105" fill="none" stroke="#39FF14" stroke-width="1" opacity="0.0725228123525988"/>
<polygon points="576,29 584.6,34 584.6,44 576,49 567.4,44 567.4,34" fill="none" stroke="#39FF14" stroke-width="1" opacity="0.07094885987387013"/>
<polygon points="681,179 689.6,184 689.6,194 681,199 672.4,194 672.4,184" fill="none" stroke="#39FF14" stroke-width="1" opacity="0.03898476150620948"/>
<polygon points="558,-9 566.6,-4 566.6,6 558,11 549.4,6 549.4,-4" fill="none" stroke="#39FF14" stroke-width="1" opacity="0.04361082397043074"/>
</g>

  <!-- HUD Decorative elements -->
  <path d="M 20 20 L 40 20 L 50 30" fill="none" stroke="#39FF14" stroke-width="2" opacity="0.5"/>
  <path d="M 830 180 L 810 180 L 800 170" fill="none" stroke="#39FF14" stroke-width="2" opacity="0.5"/>

  <g clip-path="url(#dashClip)">
    <rect x="-160" y="0" width="160" height="200" fill="url(#scanlineGrad)">
      <animateTransform attributeName="transform" type="translate"
                        from="0 0" to="1010 0" dur="6s" repeatCount="indefinite"/>
    </rect>
  </g>

  <g font-family="'Consolas', 'Fira Code', monospace" text-anchor="middle">

    <!-- NETWORK STATUS -->
    <g transform="translate(130, 100)">
        <circle cx="0" cy="0" r="45" fill="none" stroke="#39FF14" stroke-width="2" stroke-dasharray="10 5">
            <animateTransform attributeName="transform" type="rotate" from="0" to="360" dur="10s" repeatCount="indefinite"/>
        </circle>
        <circle cx="0" cy="0" r="35" fill="#0d0d0d" />
        <text x="0" y="-60" font-size="12" fill="#aaaaaa" letter-spacing="2">ROOT.AUTH</text>
        <text x="0" y="70" font-size="14" fill="#ffffff" font-weight="bold">OPERATIONAL</text>
    </g>

    <!-- ACTIVE USERS -->
    <g transform="translate(330, 100)">
        <text x="0" y="-20" font-size="12" fill="#aaaaaa">CITIZENS</text>
        <text x="0" y="15" font-size="28" fill="#ffffff" font-weight="bold" filter="url(#textGlow)">14,704</text>
        <text x="0" y="35" font-size="10" fill="#777777">VERIFIED HUMANS</text>
    </g>

    <!-- REGISTERED AGENTS -->
    <g transform="translate(530, 100)">
        <text x="0" y="-20" font-size="12" fill="#aaaaaa">AGENTS</text>
        <text x="0" y="15" font-size="28" fill="#00d4ff" font-weight="bold" filter="url(#textGlow)">3,921</text>
        <text x="0" y="35" font-size="10" fill="#777777">REGISTERED DIDs</text>
    </g>

    <!-- TRANSACTIONS -->
    <g transform="translate(730, 100)">
        <text x="0" y="-20" font-size="12" fill="#aaaaaa">TRANSFERS</text>
        <text x="0" y="15" font-size="28" fill="#ffffff" font-weight="bold">34,528</text>
        <text x="0" y="35" font-size="10" fill="#777777">M2M SETTLEMENTS</text>
    </g>
  </g>

  <text x="425" y="185" font-family="'Consolas', 'Fira Code', monospace" font-size="10" fill="#aaaaaa" opacity="0.6" text-anchor="middle">AXIOMID PROJECTED TARGETS (ILLUSTRATIVE): 2026-07-29 05:42:08 UTC // SECURE_HANDSHAKE</text>
</svg>