<svg width="850" height="200" viewBox="0 0 850 200" xmlns="http://www.w3.org/2000/svg">
  <defs>
    <pattern id="carbonFiber" width="10" height="10" patternUnits="userSpaceOnUse">
        <rect width="10" height="10" fill="#050505"/>
        <path d="M0,0 L5,5 L10,0 L5,-5 Z M5,5 L10,10 L15,5 L10,0 Z M-5,5 L0,10 L5,5 L0,0 Z M0,10 L5,15 L10,10 L5,5 Z" fill="#0d0d0d"/>
    </pattern>
    <filter id="textGlow">
      <feGaussianBlur stdDeviation="2" result="blur" />
      <feMerge>
        <feMergeNode in="blur"/>
        <feMergeNode in="SourceGraphic"/>
      </feMerge>
    </filter>
    <linearGradient id="neonBar" x1="0%" y1="0%" x2="100%" y2="0%">
        <stop offset="0%" stop-color="#111111"/>
        <stop offset="100%" stop-color="#39FF14"/>
    </linearGradient>
    <linearGradient id="scanlineGrad" x1="0%" y1="0%" x2="100%" y2="0%">
        <stop offset="0%" stop-color="#39FF14" stop-opacity="0"/>
        <stop offset="50%" stop-color="#39FF14" stop-opacity="0.18"/>
        <stop offset="100%" stop-color="#39FF14" stop-opacity="0"/>
    </linearGradient>
    <clipPath id="dashClip">
        <rect x="0" y="0" width="850" height="200" rx="12"/>
    </clipPath>
  </defs>

  <rect width="100%" height="100%" fill="url(#carbonFiber)" rx="12" stroke="#39FF14" stroke-width="1" stroke-opacity="0.3"/>
  <rect width="100%" height="100%" fill="#000000" opacity="0.6" rx="12" />
  <g><polygon points="495,157 503.6,162 503.6,172 495,177 486.4,172 486.4,162" fill="none" stroke="#39FF14" stroke-width="1" opacity="0.039303557205543356"/>
<polygon points="812,40 820.6,45 820.6,55 812,60 803.4,55 803.4,45" fill="none" stroke="#39FF14" stroke-width="1" opacity="0.02864171472637779"/>
<polygon points="405,186 413.6,191 413.6,201 405,206 396.4,201 396.4,191" fill="none" stroke="#39FF14" stroke-width="1" opacity="0.04372125144470314"/>
<polygon points="139,68 147.6,73 147.6,83 139,88 130.4,83 130.4,73" fill="none" stroke="#39FF14" stroke-width="1" opacity="0.07466032041551829"/>
<polygon points="173,130 181.6,135 181.6,145 173,150 164.4,145 164.4,135" fill="none" stroke="#39FF14" stroke-width="1" opacity="0.04047959133109376"/>
<polygon points="777,168 785.6,173 785.6,183 777,188 768.4,183 768.4,173" fill="none" stroke="#39FF14" stroke-width="1" opacity="0.025691754176199403"/>
<polygon points="390,17 398.6,22 398.6,32 390,37 381.4,32 381.4,22" fill="none" stroke="#39FF14" stroke-width="1" opacity="0.02900045701710105"/>
<polygon points="829,10 837.6,15 837.6,25 829,30 820.4,25 820.4,15" fill="none" stroke="#39FF14" stroke-width="1" opacity="0.0258469023938898"/>
<polygon points="775,-3 783.6,2 783.6,12 775,17 766.4,12 766.4,2" fill="none" stroke="#39FF14" stroke-width="1" opacity="0.07487005032175055"/>
<polygon points="757,21 765.6,26 765.6,36 757,41 748.4,36 748.4,26" fill="none" stroke="#39FF14" stroke-width="1" opacity="0.024831203765209545"/>
<polygon points="33,121 41.6,126 41.6,136 33,141 24.4,136 24.4,126" fill="none" stroke="#39FF14" stroke-width="1" opacity="0.02862077312886907"/>
<polygon points="207,114 215.6,119 215.6,129 207,134 198.4,129 198.4,119" fill="none" stroke="#39FF14" stroke-width="1" opacity="0.058117039089966196"/>
<polygon points="543,-1 551.6,4 551.6,14 543,19 534.4,14 534.4,4" fill="none" stroke="#39FF14" stroke-width="1" opacity="0.040370582151803246"/>
<polygon points="338,48 346.6,53 346.6,63 338,68 329.4,63 329.4,53" fill="none" stroke="#39FF14" stroke-width="1" opacity="0.04995055708579722"/>
<polygon points="436,159 444.6,164 444.6,174 436,179 427.4,174 427.4,164" fill="none" stroke="#39FF14" stroke-width="1" opacity="0.07988987013227979"/>
<polygon points="135,123 143.6,128 143.6,138 135,143 126.4,138 126.4,128" fill="none" stroke="#39FF14" stroke-width="1" opacity="0.0773370792611329"/>
<polygon points="694,83 702.6,88 702.6,98 694,103 685.4,98 685.4,88" fill="none" stroke="#39FF14" stroke-width="1" opacity="0.06520353494309922"/>
<polygon points="707,48 715.6,53 715.6,63 707,68 698.4,63 698.4,53" fill="none" stroke="#39FF14" stroke-width="1" opacity="0.07459340325703467"/>
<polygon points="311,50 319.6,55 319.6,65 311,70 302.4,65 302.4,55" fill="none" stroke="#39FF14" stroke-width="1" opacity="0.02274870423088711"/>
<polygon points="358,92 366.6,97 366.6,107 358,112 349.4,107 349.4,97" fill="none" stroke="#39FF14" stroke-width="1" opacity="0.03641096312099219"/>
<polygon points="110,156 118.6,161 118.6,171 110,176 101.4,171 101.4,161" fill="none" stroke="#39FF14" stroke-width="1" opacity="0.07740497312452838"/>
<polygon points="687,63 695.6,68 695.6,78 687,83 678.4,78 678.4,68" fill="none" stroke="#39FF14" stroke-width="1" opacity="0.06527602417197508"/>
<polygon points="420,9 428.6,14 428.6,24 420,29 411.4,24 411.4,14" fill="none" stroke="#39FF14" stroke-width="1" opacity="0.037807511242648556"/>
<polygon points="463,6 471.6,11 471.6,21 463,26 454.4,21 454.4,11" fill="none" stroke="#39FF14" stroke-width="1" opacity="0.051628389939383734"/>
<polygon points="625,30 633.6,35 633.6,45 625,50 616.4,45 616.4,35" fill="none" stroke="#39FF14" stroke-width="1" opacity="0.07676684968652613"/>
<polygon points="481,167 489.6,172 489.6,182 481,187 472.4,182 472.4,172" fill="none" stroke="#39FF14" stroke-width="1" opacity="0.057735719612891284"/>
<polygon points="591,142 599.6,147 599.6,157 591,162 582.4,157 582.4,147" fill="none" stroke="#39FF14" stroke-width="1" opacity="0.03484524446437468"/>
<polygon points="702,170 710.6,175 710.6,185 702,190 693.4,185 693.4,175" fill="none" stroke="#39FF14" stroke-width="1" opacity="0.03627938648541435"/>
<polygon points="420,90 428.6,95 428.6,105 420,110 411.4,105 411.4,95" fill="none" stroke="#39FF14" stroke-width="1" opacity="0.022721064043684534"/>
<polygon points="480,20 488.6,25 488.6,35 480,40 471.4,35 471.4,25" fill="none" stroke="#39FF14" stroke-width="1" opacity="0.038587007239075724"/>
</g>

  <!-- HUD Decorative elements -->
  <path d="M 20 20 L 40 20 L 50 30" fill="none" stroke="#39FF14" stroke-width="2" opacity="0.5"/>
  <path d="M 830 180 L 810 180 L 800 170" fill="none" stroke="#39FF14" stroke-width="2" opacity="0.5"/>

  <g clip-path="url(#dashClip)">
    <rect x="-160" y="0" width="160" height="200" fill="url(#scanlineGrad)">
      <animateTransform attributeName="transform" type="translate"
                        from="0 0" to="1010 0" dur="6s" repeatCount="indefinite"/>
    </rect>
  </g>

  <g font-family="'Consolas', 'Fira Code', monospace" text-anchor="middle">

    <!-- NETWORK STATUS -->
    <g transform="translate(130, 100)">
        <circle cx="0" cy="0" r="45" fill="none" stroke="#39FF14" stroke-width="2" stroke-dasharray="10 5">
            <animateTransform attributeName="transform" type="rotate" from="0" to="360" dur="10s" repeatCount="indefinite"/>
        </circle>
        <circle cx="0" cy="0" r="35" fill="#0d0d0d" />
        <text x="0" y="-60" font-size="12" fill="#aaaaaa" letter-spacing="2">ROOT.AUTH</text>
        <text x="0" y="70" font-size="14" fill="#ffffff" font-weight="bold">OPERATIONAL</text>
    </g>

    <!-- ACTIVE USERS -->
    <g transform="translate(330, 100)">
        <text x="0" y="-20" font-size="12" fill="#aaaaaa">CITIZENS</text>
        <text x="0" y="15" font-size="28" fill="#ffffff" font-weight="bold" filter="url(#textGlow)">15,038</text>
        <text x="0" y="35" font-size="10" fill="#777777">VERIFIED HUMANS</text>
    </g>

    <!-- REGISTERED AGENTS -->
    <g transform="translate(530, 100)">
        <text x="0" y="-20" font-size="12" fill="#aaaaaa">AGENTS</text>
        <text x="0" y="15" font-size="28" fill="#00d4ff" font-weight="bold" filter="url(#textGlow)">3,742</text>
        <text x="0" y="35" font-size="10" fill="#777777">REGISTERED DIDs</text>
    </g>

    <!-- TRANSACTIONS -->
    <g transform="translate(730, 100)">
        <text x="0" y="-20" font-size="12" fill="#aaaaaa">TRANSFERS</text>
        <text x="0" y="15" font-size="28" fill="#ffffff" font-weight="bold">29,048</text>
        <text x="0" y="35" font-size="10" fill="#777777">M2M SETTLEMENTS</text>
    </g>
  </g>

  <text x="425" y="185" font-family="'Consolas', 'Fira Code', monospace" font-size="10" fill="#aaaaaa" opacity="0.6" text-anchor="middle">AXIOMID PROJECTED TARGETS (ILLUSTRATIVE): 2026-07-04 21:48:28 UTC // SECURE_HANDSHAKE</text>
</svg>