<svg width="850" height="200" viewBox="0 0 850 200" xmlns="http://www.w3.org/2000/svg">
  <defs>
    <!-- Carbon Fiber Pattern -->
    <pattern id="carbonFiber" width="10" height="10" patternUnits="userSpaceOnUse">
        <rect width="10" height="10" fill="#050505"/>
        <path d="M0,0 L5,5 L10,0 L5,-5 Z M5,5 L10,10 L15,5 L10,0 Z M-5,5 L0,10 L5,5 L0,0 Z M0,10 L5,15 L10,10 L5,5 Z" fill="#0d0d0d"/>
    </pattern>
    <filter id="glassmorphism">
      <feGaussianBlur stdDeviation="3" result="blur" />
      <feColorMatrix type="matrix" values="1 0 0 0 0  0 1 0 0 0  0 0 1 0 0  0 0 0 18 -7" result="glow" />
      <feBlend in="SourceGraphic" in2="glow" mode="normal" />
    </filter>
    <filter id="textGlow">
      <feGaussianBlur stdDeviation="2" result="blur" />
      <feMerge>
        <feMergeNode in="blur"/>
        <feMergeNode in="SourceGraphic"/>
      </feMerge>
    </filter>
    <linearGradient id="neonBar" x1="0%" y1="0%" x2="100%" y2="0%">
        <stop offset="0%" stop-color="#111111"/>
        <stop offset="100%" stop-color="#39FF14"/>
    </linearGradient>
  </defs>

  <rect width="100%" height="100%" fill="url(#carbonFiber)" rx="12" stroke="#39FF14" stroke-width="1" stroke-opacity="0.3"/>
  <rect width="100%" height="100%" fill="#000000" opacity="0.6" rx="12" />
  <g><polygon points="82,35 90.6,40 90.6,50 82,55 73.4,50 73.4,40" fill="none" stroke="#39FF14" stroke-width="1" opacity="0.049491941410366475"/>
<polygon points="561,81 569.6,86 569.6,96 561,101 552.4,96 552.4,86" fill="none" stroke="#39FF14" stroke-width="1" opacity="0.02101928215739928"/>
<polygon points="69,9 77.6,14 77.6,24 69,29 60.4,24 60.4,14" fill="none" stroke="#39FF14" stroke-width="1" opacity="0.041762441298454536"/>
<polygon points="480,107 488.6,112 488.6,122 480,127 471.4,122 471.4,112" fill="none" stroke="#39FF14" stroke-width="1" opacity="0.03501287487818752"/>
<polygon points="666,2 674.6,7 674.6,17 666,22 657.4,17 657.4,7" fill="none" stroke="#39FF14" stroke-width="1" opacity="0.03703343970495149"/>
<polygon points="385,176 393.6,181 393.6,191 385,196 376.4,191 376.4,181" fill="none" stroke="#39FF14" stroke-width="1" opacity="0.05522539369926052"/>
<polygon points="53,164 61.6,169 61.6,179 53,184 44.4,179 44.4,169" fill="none" stroke="#39FF14" stroke-width="1" opacity="0.035011974006915546"/>
<polygon points="672,105 680.6,110 680.6,120 672,125 663.4,120 663.4,110" fill="none" stroke="#39FF14" stroke-width="1" opacity="0.027419495024359985"/>
<polygon points="479,101 487.6,106 487.6,116 479,121 470.4,116 470.4,106" fill="none" stroke="#39FF14" stroke-width="1" opacity="0.04362022238166979"/>
<polygon points="112,10 120.6,15 120.6,25 112,30 103.4,25 103.4,15" fill="none" stroke="#39FF14" stroke-width="1" opacity="0.06029534825885481"/>
<polygon points="177,128 185.6,133 185.6,143 177,148 168.4,143 168.4,133" fill="none" stroke="#39FF14" stroke-width="1" opacity="0.02616874877751095"/>
<polygon points="398,187 406.6,192 406.6,202 398,207 389.4,202 389.4,192" fill="none" stroke="#39FF14" stroke-width="1" opacity="0.06781520892300148"/>
<polygon points="632,142 640.6,147 640.6,157 632,162 623.4,157 623.4,147" fill="none" stroke="#39FF14" stroke-width="1" opacity="0.06498937025764182"/>
<polygon points="129,31 137.6,36 137.6,46 129,51 120.4,46 120.4,36" fill="none" stroke="#39FF14" stroke-width="1" opacity="0.04483584561324579"/>
<polygon points="803,97 811.6,102 811.6,112 803,117 794.4,112 794.4,102" fill="none" stroke="#39FF14" stroke-width="1" opacity="0.07073696309241287"/>
<polygon points="415,49 423.6,54 423.6,64 415,69 406.4,64 406.4,54" fill="none" stroke="#39FF14" stroke-width="1" opacity="0.05079932274391495"/>
<polygon points="447,141 455.6,146 455.6,156 447,161 438.4,156 438.4,146" fill="none" stroke="#39FF14" stroke-width="1" opacity="0.06157643009782901"/>
<polygon points="97,124 105.6,129 105.6,139 97,144 88.4,139 88.4,129" fill="none" stroke="#39FF14" stroke-width="1" opacity="0.0348246541992788"/>
<polygon points="839,151 847.6,156 847.6,166 839,171 830.4,166 830.4,156" fill="none" stroke="#39FF14" stroke-width="1" opacity="0.06254323363505913"/>
<polygon points="23,183 31.6,188 31.6,198 23,203 14.4,198 14.4,188" fill="none" stroke="#39FF14" stroke-width="1" opacity="0.07617901362304283"/>
<polygon points="608,154 616.6,159 616.6,169 608,174 599.4,169 599.4,159" fill="none" stroke="#39FF14" stroke-width="1" opacity="0.05035140674419923"/>
<polygon points="265,2 273.6,7 273.6,17 265,22 256.4,17 256.4,7" fill="none" stroke="#39FF14" stroke-width="1" opacity="0.0697084249914575"/>
<polygon points="454,1 462.6,6 462.6,16 454,21 445.4,16 445.4,6" fill="none" stroke="#39FF14" stroke-width="1" opacity="0.07918284649977694"/>
<polygon points="476,35 484.6,40 484.6,50 476,55 467.4,50 467.4,40" fill="none" stroke="#39FF14" stroke-width="1" opacity="0.02734571022543512"/>
<polygon points="482,162 490.6,167 490.6,177 482,182 473.4,177 473.4,167" fill="none" stroke="#39FF14" stroke-width="1" opacity="0.03359518100071374"/>
<polygon points="378,76 386.6,81 386.6,91 378,96 369.4,91 369.4,81" fill="none" stroke="#39FF14" stroke-width="1" opacity="0.05056459746596937"/>
<polygon points="206,151 214.6,156 214.6,166 206,171 197.4,166 197.4,156" fill="none" stroke="#39FF14" stroke-width="1" opacity="0.05553708479036265"/>
<polygon points="282,21 290.6,26 290.6,36 282,41 273.4,36 273.4,26" fill="none" stroke="#39FF14" stroke-width="1" opacity="0.030574798591233278"/>
<polygon points="321,74 329.6,79 329.6,89 321,94 312.4,89 312.4,79" fill="none" stroke="#39FF14" stroke-width="1" opacity="0.046971475003284274"/>
<polygon points="591,190 599.6,195 599.6,205 591,210 582.4,205 582.4,195" fill="none" stroke="#39FF14" stroke-width="1" opacity="0.02854553782207979"/>
</g>

  <!-- HUD Decorative elements -->
  <path d="M 20 20 L 40 20 L 50 30" fill="none" stroke="#39FF14" stroke-width="2" opacity="0.5"/>
  <path d="M 830 180 L 810 180 L 800 170" fill="none" stroke="#39FF14" stroke-width="2" opacity="0.5"/>
  <rect x="20" y="100" width="2" height="40" fill="#ffffff" opacity="0.4"/>
  <rect x="828" y="60" width="2" height="40" fill="#39FF14" opacity="0.6"/>

  <g font-family="'Consolas', 'Fira Code', monospace" text-anchor="middle">

    <!-- SYSTEM STATUS -->
    <g transform="translate(130, 100)">
        <circle cx="0" cy="0" r="45" fill="none" stroke="#111111" stroke-width="8" />
        <circle cx="0" cy="0" r="45" fill="none" stroke="#39FF14" stroke-width="2" stroke-dasharray="10 5">
            <animateTransform attributeName="transform" type="rotate" from="0" to="360" dur="10s" repeatCount="indefinite"/>
        </circle>
        <circle cx="0" cy="0" r="35" fill="#0d0d0d" />
        <circle cx="0" cy="0" r="6" fill="#39FF14" filter="url(#textGlow)">
            <animate attributeName="opacity" values="1;0.3;1" dur="2s" repeatCount="indefinite"/>
        </circle>
        <text x="0" y="-60" font-size="12" fill="#aaaaaa" letter-spacing="2">SYS.CORE</text>
        <text x="0" y="70" font-size="14" fill="#ffffff" font-weight="bold">ONLINE</text>
    </g>

    <!-- LIVE TRAFFIC -->
    <g transform="translate(330, 100)">
        <rect x="-60" y="-45" width="120" height="90" fill="#0a0a0a" rx="8" stroke="#39FF14" stroke-opacity="0.4" stroke-width="1"/>
        <text x="0" y="-20" font-size="12" fill="#aaaaaa">NETWORK LOAD</text>
        <text x="0" y="15" font-size="28" fill="#ffffff" font-weight="bold" filter="url(#textGlow)">6246</text>
        <text x="0" y="35" font-size="10" fill="#777777">ACTIVE SESSIONS</text>
    </g>

    <!-- ACTIVE AGENTS -->
    <g transform="translate(530, 100)">
        <rect x="-60" y="-45" width="120" height="90" fill="#0a0a0a" rx="8" stroke="#39FF14" stroke-opacity="0.4" stroke-width="1"/>
        <text x="0" y="-20" font-size="12" fill="#aaaaaa">SWARM ENTITIES</text>
        <text x="0" y="15" font-size="28" fill="#ffffff" font-weight="bold" filter="url(#textGlow)">195</text>
        <text x="0" y="35" font-size="10" fill="#777777">AUTONOMOUS</text>
    </g>

    <!-- UPTIME -->
    <g transform="translate(730, 100)">
        <path d="M -40 -35 L 40 -35 L 50 -25 L 50 35 L -40 35 L -50 25 Z" fill="#0a0a0a" stroke="#39FF14" stroke-opacity="0.4" stroke-width="1"/>
        <text x="0" y="-15" font-size="12" fill="#aaaaaa">CONTINUITY</text>
        <text x="0" y="15" font-size="24" fill="#ffffff" font-weight="bold">339<tspan font-size="14" fill="#777777">d</tspan></text>
        <rect x="-35" y="25" width="70" height="4" fill="url(#neonBar)" rx="2"/>
    </g>
  </g>

  <text x="425" y="185" font-family="'Consolas', 'Fira Code', monospace" font-size="10" fill="#aaaaaa" opacity="0.6" text-anchor="middle">LAST TELEMETRY PING: 2026-05-13 05:06:21 UTC // ENCRYPTED_TUNNEL</text>
</svg>