<svg width="850" height="200" viewBox="0 0 850 200" xmlns="http://www.w3.org/2000/svg">
  <defs>
    <pattern id="carbonFiber" width="10" height="10" patternUnits="userSpaceOnUse">
        <rect width="10" height="10" fill="#050505"/>
        <path d="M0,0 L5,5 L10,0 L5,-5 Z M5,5 L10,10 L15,5 L10,0 Z M-5,5 L0,10 L5,5 L0,0 Z M0,10 L5,15 L10,10 L5,5 Z" fill="#0d0d0d"/>
    </pattern>
    <filter id="textGlow">
      <feGaussianBlur stdDeviation="2" result="blur" />
      <feMerge>
        <feMergeNode in="blur"/>
        <feMergeNode in="SourceGraphic"/>
      </feMerge>
    </filter>
    <linearGradient id="neonBar" x1="0%" y1="0%" x2="100%" y2="0%">
        <stop offset="0%" stop-color="#111111"/>
        <stop offset="100%" stop-color="#39FF14"/>
    </linearGradient>
    <linearGradient id="scanlineGrad" x1="0%" y1="0%" x2="100%" y2="0%">
        <stop offset="0%" stop-color="#39FF14" stop-opacity="0"/>
        <stop offset="50%" stop-color="#39FF14" stop-opacity="0.18"/>
        <stop offset="100%" stop-color="#39FF14" stop-opacity="0"/>
    </linearGradient>
    <clipPath id="dashClip">
        <rect x="0" y="0" width="850" height="200" rx="12"/>
    </clipPath>
  </defs>

  <rect width="100%" height="100%" fill="url(#carbonFiber)" rx="12" stroke="#39FF14" stroke-width="1" stroke-opacity="0.3"/>
  <rect width="100%" height="100%" fill="#000000" opacity="0.6" rx="12" />
  <g><polygon points="837,-8 845.6,-3 845.6,7 837,12 828.4,7 828.4,-3" fill="none" stroke="#39FF14" stroke-width="1" opacity="0.023106860717512216"/>
<polygon points="591,125 599.6,130 599.6,140 591,145 582.4,140 582.4,130" fill="none" stroke="#39FF14" stroke-width="1" opacity="0.07254838386468523"/>
<polygon points="360,38 368.6,43 368.6,53 360,58 351.4,53 351.4,43" fill="none" stroke="#39FF14" stroke-width="1" opacity="0.04039407738290167"/>
<polygon points="38,56 46.6,61 46.6,71 38,76 29.4,71 29.4,61" fill="none" stroke="#39FF14" stroke-width="1" opacity="0.04994594544129951"/>
<polygon points="42,13 50.6,18 50.6,28 42,33 33.4,28 33.4,18" fill="none" stroke="#39FF14" stroke-width="1" opacity="0.07586781832825129"/>
<polygon points="17,111 25.6,116 25.6,126 17,131 8.4,126 8.4,116" fill="none" stroke="#39FF14" stroke-width="1" opacity="0.07269024227571706"/>
<polygon points="319,51 327.6,56 327.6,66 319,71 310.4,66 310.4,56" fill="none" stroke="#39FF14" stroke-width="1" opacity="0.07198693016596436"/>
<polygon points="675,129 683.6,134 683.6,144 675,149 666.4,144 666.4,134" fill="none" stroke="#39FF14" stroke-width="1" opacity="0.06458963798235223"/>
<polygon points="396,-7 404.6,-2 404.6,8 396,13 387.4,8 387.4,-2" fill="none" stroke="#39FF14" stroke-width="1" opacity="0.07667755849187177"/>
<polygon points="596,63 604.6,68 604.6,78 596,83 587.4,78 587.4,68" fill="none" stroke="#39FF14" stroke-width="1" opacity="0.0612469650355701"/>
<polygon points="844,140 852.6,145 852.6,155 844,160 835.4,155 835.4,145" fill="none" stroke="#39FF14" stroke-width="1" opacity="0.044101847549467964"/>
<polygon points="667,158 675.6,163 675.6,173 667,178 658.4,173 658.4,163" fill="none" stroke="#39FF14" stroke-width="1" opacity="0.05619523324366807"/>
<polygon points="755,164 763.6,169 763.6,179 755,184 746.4,179 746.4,169" fill="none" stroke="#39FF14" stroke-width="1" opacity="0.04750583701479603"/>
<polygon points="482,97 490.6,102 490.6,112 482,117 473.4,112 473.4,102" fill="none" stroke="#39FF14" stroke-width="1" opacity="0.07155725964069976"/>
<polygon points="517,36 525.6,41 525.6,51 517,56 508.4,51 508.4,41" fill="none" stroke="#39FF14" stroke-width="1" opacity="0.04956336939988992"/>
<polygon points="829,1 837.6,6 837.6,16 829,21 820.4,16 820.4,6" fill="none" stroke="#39FF14" stroke-width="1" opacity="0.06651397696473216"/>
<polygon points="164,95 172.6,100 172.6,110 164,115 155.4,110 155.4,100" fill="none" stroke="#39FF14" stroke-width="1" opacity="0.06704272047839482"/>
<polygon points="159,165 167.6,170 167.6,180 159,185 150.4,180 150.4,170" fill="none" stroke="#39FF14" stroke-width="1" opacity="0.024610913041255147"/>
<polygon points="719,182 727.6,187 727.6,197 719,202 710.4,197 710.4,187" fill="none" stroke="#39FF14" stroke-width="1" opacity="0.0711461706551433"/>
<polygon points="179,3 187.6,8 187.6,18 179,23 170.4,18 170.4,8" fill="none" stroke="#39FF14" stroke-width="1" opacity="0.03973009172470186"/>
<polygon points="627,171 635.6,176 635.6,186 627,191 618.4,186 618.4,176" fill="none" stroke="#39FF14" stroke-width="1" opacity="0.07893157763622763"/>
<polygon points="574,124 582.6,129 582.6,139 574,144 565.4,139 565.4,129" fill="none" stroke="#39FF14" stroke-width="1" opacity="0.026152438153699744"/>
<polygon points="559,172 567.6,177 567.6,187 559,192 550.4,187 550.4,177" fill="none" stroke="#39FF14" stroke-width="1" opacity="0.03929298383969199"/>
<polygon points="538,126 546.6,131 546.6,141 538,146 529.4,141 529.4,131" fill="none" stroke="#39FF14" stroke-width="1" opacity="0.03317705518798096"/>
<polygon points="167,131 175.6,136 175.6,146 167,151 158.4,146 158.4,136" fill="none" stroke="#39FF14" stroke-width="1" opacity="0.03476833342272911"/>
<polygon points="207,-7 215.6,-2 215.6,8 207,13 198.4,8 198.4,-2" fill="none" stroke="#39FF14" stroke-width="1" opacity="0.025790133759057206"/>
<polygon points="446,62 454.6,67 454.6,77 446,82 437.4,77 437.4,67" fill="none" stroke="#39FF14" stroke-width="1" opacity="0.050602375720687987"/>
<polygon points="105,67 113.6,72 113.6,82 105,87 96.4,82 96.4,72" fill="none" stroke="#39FF14" stroke-width="1" opacity="0.04992166943806697"/>
<polygon points="478,36 486.6,41 486.6,51 478,56 469.4,51 469.4,41" fill="none" stroke="#39FF14" stroke-width="1" opacity="0.04233266178700062"/>
<polygon points="759,97 767.6,102 767.6,112 759,117 750.4,112 750.4,102" fill="none" stroke="#39FF14" stroke-width="1" opacity="0.07223374750824445"/>
</g>

  <!-- HUD Decorative elements -->
  <path d="M 20 20 L 40 20 L 50 30" fill="none" stroke="#39FF14" stroke-width="2" opacity="0.5"/>
  <path d="M 830 180 L 810 180 L 800 170" fill="none" stroke="#39FF14" stroke-width="2" opacity="0.5"/>

  <g clip-path="url(#dashClip)">
    <rect x="-160" y="0" width="160" height="200" fill="url(#scanlineGrad)">
      <animateTransform attributeName="transform" type="translate"
                        from="0 0" to="1010 0" dur="6s" repeatCount="indefinite"/>
    </rect>
  </g>

  <g font-family="'Consolas', 'Fira Code', monospace" text-anchor="middle">

    <!-- NETWORK STATUS -->
    <g transform="translate(130, 100)">
        <circle cx="0" cy="0" r="45" fill="none" stroke="#39FF14" stroke-width="2" stroke-dasharray="10 5">
            <animateTransform attributeName="transform" type="rotate" from="0" to="360" dur="10s" repeatCount="indefinite"/>
        </circle>
        <circle cx="0" cy="0" r="35" fill="#0d0d0d" />
        <text x="0" y="-60" font-size="12" fill="#aaaaaa" letter-spacing="2">ROOT.AUTH</text>
        <text x="0" y="70" font-size="14" fill="#ffffff" font-weight="bold">OPERATIONAL</text>
    </g>

    <!-- ACTIVE USERS -->
    <g transform="translate(330, 100)">
        <text x="0" y="-20" font-size="12" fill="#aaaaaa">CITIZENS</text>
        <text x="0" y="15" font-size="28" fill="#ffffff" font-weight="bold" filter="url(#textGlow)">12,761</text>
        <text x="0" y="35" font-size="10" fill="#777777">VERIFIED HUMANS</text>
    </g>

    <!-- REGISTERED AGENTS -->
    <g transform="translate(530, 100)">
        <text x="0" y="-20" font-size="12" fill="#aaaaaa">AGENTS</text>
        <text x="0" y="15" font-size="28" fill="#00d4ff" font-weight="bold" filter="url(#textGlow)">3,680</text>
        <text x="0" y="35" font-size="10" fill="#777777">REGISTERED DIDs</text>
    </g>

    <!-- TRANSACTIONS -->
    <g transform="translate(730, 100)">
        <text x="0" y="-20" font-size="12" fill="#aaaaaa">TRANSFERS</text>
        <text x="0" y="15" font-size="28" fill="#ffffff" font-weight="bold">38,017</text>
        <text x="0" y="35" font-size="10" fill="#777777">M2M SETTLEMENTS</text>
    </g>
  </g>

  <text x="425" y="185" font-family="'Consolas', 'Fira Code', monospace" font-size="10" fill="#aaaaaa" opacity="0.6" text-anchor="middle">AXIOMID PROJECTED TARGETS (ILLUSTRATIVE): 2026-07-14 05:20:52 UTC // SECURE_HANDSHAKE</text>
</svg>