<svg width="850" height="200" viewBox="0 0 850 200" xmlns="http://www.w3.org/2000/svg">
  <defs>
    <!-- Carbon Fiber Pattern -->
    <pattern id="carbonFiber" width="10" height="10" patternUnits="userSpaceOnUse">
        <rect width="10" height="10" fill="#050505"/>
        <path d="M0,0 L5,5 L10,0 L5,-5 Z M5,5 L10,10 L15,5 L10,0 Z M-5,5 L0,10 L5,5 L0,0 Z M0,10 L5,15 L10,10 L5,5 Z" fill="#0d0d0d"/>
    </pattern>
    <filter id="glassmorphism">
      <feGaussianBlur stdDeviation="3" result="blur" />
      <feColorMatrix type="matrix" values="1 0 0 0 0  0 1 0 0 0  0 0 1 0 0  0 0 0 18 -7" result="glow" />
      <feBlend in="SourceGraphic" in2="glow" mode="normal" />
    </filter>
    <filter id="textGlow">
      <feGaussianBlur stdDeviation="2" result="blur" />
      <feMerge>
        <feMergeNode in="blur"/>
        <feMergeNode in="SourceGraphic"/>
      </feMerge>
    </filter>
    <linearGradient id="neonBar" x1="0%" y1="0%" x2="100%" y2="0%">
        <stop offset="0%" stop-color="#111111"/>
        <stop offset="100%" stop-color="#39FF14"/>
    </linearGradient>
  </defs>

  <rect width="100%" height="100%" fill="url(#carbonFiber)" rx="12" stroke="#39FF14" stroke-width="1" stroke-opacity="0.3"/>
  <rect width="100%" height="100%" fill="#000000" opacity="0.6" rx="12" />
  <g><polygon points="230,11 238.6,16 238.6,26 230,31 221.4,26 221.4,16" fill="none" stroke="#39FF14" stroke-width="1" opacity="0.04661307878333993"/>
<polygon points="198,127 206.6,132 206.6,142 198,147 189.4,142 189.4,132" fill="none" stroke="#39FF14" stroke-width="1" opacity="0.07141842128120234"/>
<polygon points="176,77 184.6,82 184.6,92 176,97 167.4,92 167.4,82" fill="none" stroke="#39FF14" stroke-width="1" opacity="0.05225184751432302"/>
<polygon points="19,187 27.6,192 27.6,202 19,207 10.4,202 10.4,192" fill="none" stroke="#39FF14" stroke-width="1" opacity="0.07694776644030205"/>
<polygon points="746,103 754.6,108 754.6,118 746,123 737.4,118 737.4,108" fill="none" stroke="#39FF14" stroke-width="1" opacity="0.026101108372303013"/>
<polygon points="383,74 391.6,79 391.6,89 383,94 374.4,89 374.4,79" fill="none" stroke="#39FF14" stroke-width="1" opacity="0.04320879003174861"/>
<polygon points="239,43 247.6,48 247.6,58 239,63 230.4,58 230.4,48" fill="none" stroke="#39FF14" stroke-width="1" opacity="0.06252317682086116"/>
<polygon points="329,147 337.6,152 337.6,162 329,167 320.4,162 320.4,152" fill="none" stroke="#39FF14" stroke-width="1" opacity="0.07199109876676671"/>
<polygon points="402,165 410.6,170 410.6,180 402,185 393.4,180 393.4,170" fill="none" stroke="#39FF14" stroke-width="1" opacity="0.0709799493973067"/>
<polygon points="230,-1 238.6,4 238.6,14 230,19 221.4,14 221.4,4" fill="none" stroke="#39FF14" stroke-width="1" opacity="0.07594692264023371"/>
<polygon points="646,141 654.6,146 654.6,156 646,161 637.4,156 637.4,146" fill="none" stroke="#39FF14" stroke-width="1" opacity="0.0462072734976084"/>
<polygon points="130,64 138.6,69 138.6,79 130,84 121.4,79 121.4,69" fill="none" stroke="#39FF14" stroke-width="1" opacity="0.06617038695961512"/>
<polygon points="276,121 284.6,126 284.6,136 276,141 267.4,136 267.4,126" fill="none" stroke="#39FF14" stroke-width="1" opacity="0.054402045672876875"/>
<polygon points="470,73 478.6,78 478.6,88 470,93 461.4,88 461.4,78" fill="none" stroke="#39FF14" stroke-width="1" opacity="0.022521819305877152"/>
<polygon points="757,20 765.6,25 765.6,35 757,40 748.4,35 748.4,25" fill="none" stroke="#39FF14" stroke-width="1" opacity="0.05741131879563789"/>
<polygon points="663,174 671.6,179 671.6,189 663,194 654.4,189 654.4,179" fill="none" stroke="#39FF14" stroke-width="1" opacity="0.04846930971335787"/>
<polygon points="639,18 647.6,23 647.6,33 639,38 630.4,33 630.4,23" fill="none" stroke="#39FF14" stroke-width="1" opacity="0.07583552558874136"/>
<polygon points="526,88 534.6,93 534.6,103 526,108 517.4,103 517.4,93" fill="none" stroke="#39FF14" stroke-width="1" opacity="0.0246289869546366"/>
<polygon points="810,104 818.6,109 818.6,119 810,124 801.4,119 801.4,109" fill="none" stroke="#39FF14" stroke-width="1" opacity="0.05274159342157393"/>
<polygon points="710,66 718.6,71 718.6,81 710,86 701.4,81 701.4,71" fill="none" stroke="#39FF14" stroke-width="1" opacity="0.04580338833956745"/>
<polygon points="103,66 111.6,71 111.6,81 103,86 94.4,81 94.4,71" fill="none" stroke="#39FF14" stroke-width="1" opacity="0.02395673830801385"/>
<polygon points="798,42 806.6,47 806.6,57 798,62 789.4,57 789.4,47" fill="none" stroke="#39FF14" stroke-width="1" opacity="0.05152453622636814"/>
<polygon points="750,126 758.6,131 758.6,141 750,146 741.4,141 741.4,131" fill="none" stroke="#39FF14" stroke-width="1" opacity="0.026966331850094255"/>
<polygon points="164,136 172.6,141 172.6,151 164,156 155.4,151 155.4,141" fill="none" stroke="#39FF14" stroke-width="1" opacity="0.06879911199588025"/>
<polygon points="760,112 768.6,117 768.6,127 760,132 751.4,127 751.4,117" fill="none" stroke="#39FF14" stroke-width="1" opacity="0.03784888229280227"/>
<polygon points="422,-4 430.6,1 430.6,11 422,16 413.4,11 413.4,1" fill="none" stroke="#39FF14" stroke-width="1" opacity="0.07480704448767728"/>
<polygon points="437,157 445.6,162 445.6,172 437,177 428.4,172 428.4,162" fill="none" stroke="#39FF14" stroke-width="1" opacity="0.048552904741742814"/>
<polygon points="706,50 714.6,55 714.6,65 706,70 697.4,65 697.4,55" fill="none" stroke="#39FF14" stroke-width="1" opacity="0.07863350564770749"/>
<polygon points="692,23 700.6,28 700.6,38 692,43 683.4,38 683.4,28" fill="none" stroke="#39FF14" stroke-width="1" opacity="0.05170415084763037"/>
<polygon points="269,-10 277.6,-5 277.6,5 269,10 260.4,5 260.4,-5" fill="none" stroke="#39FF14" stroke-width="1" opacity="0.04066555441615724"/>
</g>

  <!-- HUD Decorative elements -->
  <path d="M 20 20 L 40 20 L 50 30" fill="none" stroke="#39FF14" stroke-width="2" opacity="0.5"/>
  <path d="M 830 180 L 810 180 L 800 170" fill="none" stroke="#39FF14" stroke-width="2" opacity="0.5"/>
  <rect x="20" y="100" width="2" height="40" fill="#ffffff" opacity="0.4"/>
  <rect x="828" y="60" width="2" height="40" fill="#39FF14" opacity="0.6"/>

  <g font-family="'Consolas', 'Fira Code', monospace" text-anchor="middle">

    <!-- SYSTEM STATUS -->
    <g transform="translate(130, 100)">
        <circle cx="0" cy="0" r="45" fill="none" stroke="#111111" stroke-width="8" />
        <circle cx="0" cy="0" r="45" fill="none" stroke="#39FF14" stroke-width="2" stroke-dasharray="10 5">
            <animateTransform attributeName="transform" type="rotate" from="0" to="360" dur="10s" repeatCount="indefinite"/>
        </circle>
        <circle cx="0" cy="0" r="35" fill="#0d0d0d" />
        <circle cx="0" cy="0" r="6" fill="#39FF14" filter="url(#textGlow)">
            <animate attributeName="opacity" values="1;0.3;1" dur="2s" repeatCount="indefinite"/>
        </circle>
        <text x="0" y="-60" font-size="12" fill="#aaaaaa" letter-spacing="2">SYS.CORE</text>
        <text x="0" y="70" font-size="14" fill="#ffffff" font-weight="bold">ONLINE</text>
    </g>

    <!-- LIVE TRAFFIC -->
    <g transform="translate(330, 100)">
        <rect x="-60" y="-45" width="120" height="90" fill="#0a0a0a" rx="8" stroke="#39FF14" stroke-opacity="0.4" stroke-width="1"/>
        <text x="0" y="-20" font-size="12" fill="#aaaaaa">NETWORK LOAD</text>
        <text x="0" y="15" font-size="28" fill="#ffffff" font-weight="bold" filter="url(#textGlow)">4416</text>
        <text x="0" y="35" font-size="10" fill="#777777">ACTIVE SESSIONS</text>
    </g>

    <!-- ACTIVE AGENTS -->
    <g transform="translate(530, 100)">
        <rect x="-60" y="-45" width="120" height="90" fill="#0a0a0a" rx="8" stroke="#39FF14" stroke-opacity="0.4" stroke-width="1"/>
        <text x="0" y="-20" font-size="12" fill="#aaaaaa">SWARM ENTITIES</text>
        <text x="0" y="15" font-size="28" fill="#ffffff" font-weight="bold" filter="url(#textGlow)">128</text>
        <text x="0" y="35" font-size="10" fill="#777777">AUTONOMOUS</text>
    </g>

    <!-- UPTIME -->
    <g transform="translate(730, 100)">
        <path d="M -40 -35 L 40 -35 L 50 -25 L 50 35 L -40 35 L -50 25 Z" fill="#0a0a0a" stroke="#39FF14" stroke-opacity="0.4" stroke-width="1"/>
        <text x="0" y="-15" font-size="12" fill="#aaaaaa">CONTINUITY</text>
        <text x="0" y="15" font-size="24" fill="#ffffff" font-weight="bold">301<tspan font-size="14" fill="#777777">d</tspan></text>
        <rect x="-35" y="25" width="70" height="4" fill="url(#neonBar)" rx="2"/>
    </g>
  </g>

  <text x="425" y="185" font-family="'Consolas', 'Fira Code', monospace" font-size="10" fill="#aaaaaa" opacity="0.6" text-anchor="middle">LAST TELEMETRY PING: 2026-04-29 13:25:45 UTC // ENCRYPTED_TUNNEL</text>
</svg>