<svg width="850" height="200" viewBox="0 0 850 200" xmlns="http://www.w3.org/2000/svg">
  <defs>
    <pattern id="carbonFiber" width="10" height="10" patternUnits="userSpaceOnUse">
        <rect width="10" height="10" fill="#050505"/>
        <path d="M0,0 L5,5 L10,0 L5,-5 Z M5,5 L10,10 L15,5 L10,0 Z M-5,5 L0,10 L5,5 L0,0 Z M0,10 L5,15 L10,10 L5,5 Z" fill="#0d0d0d"/>
    </pattern>
    <filter id="textGlow">
      <feGaussianBlur stdDeviation="2" result="blur" />
      <feMerge>
        <feMergeNode in="blur"/>
        <feMergeNode in="SourceGraphic"/>
      </feMerge>
    </filter>
    <linearGradient id="neonBar" x1="0%" y1="0%" x2="100%" y2="0%">
        <stop offset="0%" stop-color="#111111"/>
        <stop offset="100%" stop-color="#39FF14"/>
    </linearGradient>
    <linearGradient id="scanlineGrad" x1="0%" y1="0%" x2="100%" y2="0%">
        <stop offset="0%" stop-color="#39FF14" stop-opacity="0"/>
        <stop offset="50%" stop-color="#39FF14" stop-opacity="0.18"/>
        <stop offset="100%" stop-color="#39FF14" stop-opacity="0"/>
    </linearGradient>
    <clipPath id="dashClip">
        <rect x="0" y="0" width="850" height="200" rx="12"/>
    </clipPath>
  </defs>

  <rect width="100%" height="100%" fill="url(#carbonFiber)" rx="12" stroke="#39FF14" stroke-width="1" stroke-opacity="0.3"/>
  <rect width="100%" height="100%" fill="#000000" opacity="0.6" rx="12" />
  <g><polygon points="677,17 685.6,22 685.6,32 677,37 668.4,32 668.4,22" fill="none" stroke="#39FF14" stroke-width="1" opacity="0.07556544239787738"/>
<polygon points="664,-6 672.6,-1 672.6,9 664,14 655.4,9 655.4,-1" fill="none" stroke="#39FF14" stroke-width="1" opacity="0.06104485685144499"/>
<polygon points="704,135 712.6,140 712.6,150 704,155 695.4,150 695.4,140" fill="none" stroke="#39FF14" stroke-width="1" opacity="0.036472859826208126"/>
<polygon points="487,82 495.6,87 495.6,97 487,102 478.4,97 478.4,87" fill="none" stroke="#39FF14" stroke-width="1" opacity="0.026152607385512443"/>
<polygon points="194,14 202.6,19 202.6,29 194,34 185.4,29 185.4,19" fill="none" stroke="#39FF14" stroke-width="1" opacity="0.0721314932497895"/>
<polygon points="719,13 727.6,18 727.6,28 719,33 710.4,28 710.4,18" fill="none" stroke="#39FF14" stroke-width="1" opacity="0.07685652734387378"/>
<polygon points="375,81 383.6,86 383.6,96 375,101 366.4,96 366.4,86" fill="none" stroke="#39FF14" stroke-width="1" opacity="0.04236514294169317"/>
<polygon points="714,3 722.6,8 722.6,18 714,23 705.4,18 705.4,8" fill="none" stroke="#39FF14" stroke-width="1" opacity="0.026859908542542783"/>
<polygon points="516,160 524.6,165 524.6,175 516,180 507.4,175 507.4,165" fill="none" stroke="#39FF14" stroke-width="1" opacity="0.06320334200451762"/>
<polygon points="257,96 265.6,101 265.6,111 257,116 248.4,111 248.4,101" fill="none" stroke="#39FF14" stroke-width="1" opacity="0.027313055957426738"/>
<polygon points="235,106 243.6,111 243.6,121 235,126 226.4,121 226.4,111" fill="none" stroke="#39FF14" stroke-width="1" opacity="0.05382546932264126"/>
<polygon points="385,125 393.6,130 393.6,140 385,145 376.4,140 376.4,130" fill="none" stroke="#39FF14" stroke-width="1" opacity="0.023420985415751307"/>
<polygon points="5,69 13.6,74 13.6,84 5,89 -3.5999999999999996,84 -3.5999999999999996,74" fill="none" stroke="#39FF14" stroke-width="1" opacity="0.03636695056022087"/>
<polygon points="190,183 198.6,188 198.6,198 190,203 181.4,198 181.4,188" fill="none" stroke="#39FF14" stroke-width="1" opacity="0.052385854390153544"/>
<polygon points="296,99 304.6,104 304.6,114 296,119 287.4,114 287.4,104" fill="none" stroke="#39FF14" stroke-width="1" opacity="0.045602534530595415"/>
<polygon points="377,81 385.6,86 385.6,96 377,101 368.4,96 368.4,86" fill="none" stroke="#39FF14" stroke-width="1" opacity="0.07658143110725124"/>
<polygon points="146,47 154.6,52 154.6,62 146,67 137.4,62 137.4,52" fill="none" stroke="#39FF14" stroke-width="1" opacity="0.043038744893016845"/>
<polygon points="704,57 712.6,62 712.6,72 704,77 695.4,72 695.4,62" fill="none" stroke="#39FF14" stroke-width="1" opacity="0.027002015440091003"/>
<polygon points="443,108 451.6,113 451.6,123 443,128 434.4,123 434.4,113" fill="none" stroke="#39FF14" stroke-width="1" opacity="0.02817530702855468"/>
<polygon points="404,80 412.6,85 412.6,95 404,100 395.4,95 395.4,85" fill="none" stroke="#39FF14" stroke-width="1" opacity="0.025183008455947932"/>
<polygon points="5,38 13.6,43 13.6,53 5,58 -3.5999999999999996,53 -3.5999999999999996,43" fill="none" stroke="#39FF14" stroke-width="1" opacity="0.07950915379716277"/>
<polygon points="785,135 793.6,140 793.6,150 785,155 776.4,150 776.4,140" fill="none" stroke="#39FF14" stroke-width="1" opacity="0.03257599980997106"/>
<polygon points="772,109 780.6,114 780.6,124 772,129 763.4,124 763.4,114" fill="none" stroke="#39FF14" stroke-width="1" opacity="0.06252136327019206"/>
<polygon points="52,139 60.6,144 60.6,154 52,159 43.4,154 43.4,144" fill="none" stroke="#39FF14" stroke-width="1" opacity="0.030088232817813754"/>
<polygon points="62,37 70.6,42 70.6,52 62,57 53.4,52 53.4,42" fill="none" stroke="#39FF14" stroke-width="1" opacity="0.06071440737282949"/>
<polygon points="44,143 52.6,148 52.6,158 44,163 35.4,158 35.4,148" fill="none" stroke="#39FF14" stroke-width="1" opacity="0.05630785270635817"/>
<polygon points="590,80 598.6,85 598.6,95 590,100 581.4,95 581.4,85" fill="none" stroke="#39FF14" stroke-width="1" opacity="0.046270877887221146"/>
<polygon points="554,6 562.6,11 562.6,21 554,26 545.4,21 545.4,11" fill="none" stroke="#39FF14" stroke-width="1" opacity="0.06567910284653086"/>
<polygon points="721,143 729.6,148 729.6,158 721,163 712.4,158 712.4,148" fill="none" stroke="#39FF14" stroke-width="1" opacity="0.06369117818123989"/>
<polygon points="810,178 818.6,183 818.6,193 810,198 801.4,193 801.4,183" fill="none" stroke="#39FF14" stroke-width="1" opacity="0.07040108332615864"/>
</g>

  <!-- HUD Decorative elements -->
  <path d="M 20 20 L 40 20 L 50 30" fill="none" stroke="#39FF14" stroke-width="2" opacity="0.5"/>
  <path d="M 830 180 L 810 180 L 800 170" fill="none" stroke="#39FF14" stroke-width="2" opacity="0.5"/>

  <g clip-path="url(#dashClip)">
    <rect x="-160" y="0" width="160" height="200" fill="url(#scanlineGrad)">
      <animateTransform attributeName="transform" type="translate"
                        from="0 0" to="1010 0" dur="6s" repeatCount="indefinite"/>
    </rect>
  </g>

  <g font-family="'Consolas', 'Fira Code', monospace" text-anchor="middle">

    <!-- NETWORK STATUS -->
    <g transform="translate(130, 100)">
        <circle cx="0" cy="0" r="45" fill="none" stroke="#39FF14" stroke-width="2" stroke-dasharray="10 5">
            <animateTransform attributeName="transform" type="rotate" from="0" to="360" dur="10s" repeatCount="indefinite"/>
        </circle>
        <circle cx="0" cy="0" r="35" fill="#0d0d0d" />
        <text x="0" y="-60" font-size="12" fill="#aaaaaa" letter-spacing="2">ROOT.AUTH</text>
        <text x="0" y="70" font-size="14" fill="#ffffff" font-weight="bold">OPERATIONAL</text>
    </g>

    <!-- ACTIVE USERS -->
    <g transform="translate(330, 100)">
        <text x="0" y="-20" font-size="12" fill="#aaaaaa">CITIZENS</text>
        <text x="0" y="15" font-size="28" fill="#ffffff" font-weight="bold" filter="url(#textGlow)">12,412</text>
        <text x="0" y="35" font-size="10" fill="#777777">VERIFIED HUMANS</text>
    </g>

    <!-- REGISTERED AGENTS -->
    <g transform="translate(530, 100)">
        <text x="0" y="-20" font-size="12" fill="#aaaaaa">AGENTS</text>
        <text x="0" y="15" font-size="28" fill="#00d4ff" font-weight="bold" filter="url(#textGlow)">3,493</text>
        <text x="0" y="35" font-size="10" fill="#777777">REGISTERED DIDs</text>
    </g>

    <!-- TRANSACTIONS -->
    <g transform="translate(730, 100)">
        <text x="0" y="-20" font-size="12" fill="#aaaaaa">TRANSFERS</text>
        <text x="0" y="15" font-size="28" fill="#ffffff" font-weight="bold">39,514</text>
        <text x="0" y="35" font-size="10" fill="#777777">M2M SETTLEMENTS</text>
    </g>
  </g>

  <text x="425" y="185" font-family="'Consolas', 'Fira Code', monospace" font-size="10" fill="#aaaaaa" opacity="0.6" text-anchor="middle">AXIOMID PROJECTED TARGETS (ILLUSTRATIVE): 2026-07-24 10:53:30 UTC // SECURE_HANDSHAKE</text>
</svg>