<svg width="850" height="200" viewBox="0 0 850 200" xmlns="http://www.w3.org/2000/svg">
  <defs>
    <pattern id="carbonFiber" width="10" height="10" patternUnits="userSpaceOnUse">
        <rect width="10" height="10" fill="#050505"/>
        <path d="M0,0 L5,5 L10,0 L5,-5 Z M5,5 L10,10 L15,5 L10,0 Z M-5,5 L0,10 L5,5 L0,0 Z M0,10 L5,15 L10,10 L5,5 Z" fill="#0d0d0d"/>
    </pattern>
    <filter id="textGlow">
      <feGaussianBlur stdDeviation="2" result="blur" />
      <feMerge>
        <feMergeNode in="blur"/>
        <feMergeNode in="SourceGraphic"/>
      </feMerge>
    </filter>
    <linearGradient id="neonBar" x1="0%" y1="0%" x2="100%" y2="0%">
        <stop offset="0%" stop-color="#111111"/>
        <stop offset="100%" stop-color="#39FF14"/>
    </linearGradient>
    <linearGradient id="scanlineGrad" x1="0%" y1="0%" x2="100%" y2="0%">
        <stop offset="0%" stop-color="#39FF14" stop-opacity="0"/>
        <stop offset="50%" stop-color="#39FF14" stop-opacity="0.18"/>
        <stop offset="100%" stop-color="#39FF14" stop-opacity="0"/>
    </linearGradient>
    <clipPath id="dashClip">
        <rect x="0" y="0" width="850" height="200" rx="12"/>
    </clipPath>
  </defs>

  <rect width="100%" height="100%" fill="url(#carbonFiber)" rx="12" stroke="#39FF14" stroke-width="1" stroke-opacity="0.3"/>
  <rect width="100%" height="100%" fill="#000000" opacity="0.6" rx="12" />
  <g><polygon points="163,10 171.6,15 171.6,25 163,30 154.4,25 154.4,15" fill="none" stroke="#39FF14" stroke-width="1" opacity="0.035741279304656745"/>
<polygon points="354,22 362.6,27 362.6,37 354,42 345.4,37 345.4,27" fill="none" stroke="#39FF14" stroke-width="1" opacity="0.07205587986031546"/>
<polygon points="761,120 769.6,125 769.6,135 761,140 752.4,135 752.4,125" fill="none" stroke="#39FF14" stroke-width="1" opacity="0.06201890558977903"/>
<polygon points="426,109 434.6,114 434.6,124 426,129 417.4,124 417.4,114" fill="none" stroke="#39FF14" stroke-width="1" opacity="0.033551789055038896"/>
<polygon points="689,8 697.6,13 697.6,23 689,28 680.4,23 680.4,13" fill="none" stroke="#39FF14" stroke-width="1" opacity="0.032440207192862454"/>
<polygon points="755,34 763.6,39 763.6,49 755,54 746.4,49 746.4,39" fill="none" stroke="#39FF14" stroke-width="1" opacity="0.03669400683712053"/>
<polygon points="638,134 646.6,139 646.6,149 638,154 629.4,149 629.4,139" fill="none" stroke="#39FF14" stroke-width="1" opacity="0.04379286718811705"/>
<polygon points="665,150 673.6,155 673.6,165 665,170 656.4,165 656.4,155" fill="none" stroke="#39FF14" stroke-width="1" opacity="0.04392143193577838"/>
<polygon points="343,190 351.6,195 351.6,205 343,210 334.4,205 334.4,195" fill="none" stroke="#39FF14" stroke-width="1" opacity="0.07083034942401317"/>
<polygon points="778,18 786.6,23 786.6,33 778,38 769.4,33 769.4,23" fill="none" stroke="#39FF14" stroke-width="1" opacity="0.02036218448866917"/>
<polygon points="101,-3 109.6,2 109.6,12 101,17 92.4,12 92.4,2" fill="none" stroke="#39FF14" stroke-width="1" opacity="0.038865121178566414"/>
<polygon points="194,-4 202.6,1 202.6,11 194,16 185.4,11 185.4,1" fill="none" stroke="#39FF14" stroke-width="1" opacity="0.02795132085799648"/>
<polygon points="476,132 484.6,137 484.6,147 476,152 467.4,147 467.4,137" fill="none" stroke="#39FF14" stroke-width="1" opacity="0.0643967166214785"/>
<polygon points="730,190 738.6,195 738.6,205 730,210 721.4,205 721.4,195" fill="none" stroke="#39FF14" stroke-width="1" opacity="0.06367241996588277"/>
<polygon points="24,134 32.6,139 32.6,149 24,154 15.4,149 15.4,139" fill="none" stroke="#39FF14" stroke-width="1" opacity="0.06662077778251814"/>
<polygon points="84,34 92.6,39 92.6,49 84,54 75.4,49 75.4,39" fill="none" stroke="#39FF14" stroke-width="1" opacity="0.06136303628365122"/>
<polygon points="486,57 494.6,62 494.6,72 486,77 477.4,72 477.4,62" fill="none" stroke="#39FF14" stroke-width="1" opacity="0.02012275985395136"/>
<polygon points="743,127 751.6,132 751.6,142 743,147 734.4,142 734.4,132" fill="none" stroke="#39FF14" stroke-width="1" opacity="0.05821996153913103"/>
<polygon points="167,147 175.6,152 175.6,162 167,167 158.4,162 158.4,152" fill="none" stroke="#39FF14" stroke-width="1" opacity="0.06876138865654245"/>
<polygon points="379,170 387.6,175 387.6,185 379,190 370.4,185 370.4,175" fill="none" stroke="#39FF14" stroke-width="1" opacity="0.04460749114228031"/>
<polygon points="74,1 82.6,6 82.6,16 74,21 65.4,16 65.4,6" fill="none" stroke="#39FF14" stroke-width="1" opacity="0.02327867162732509"/>
<polygon points="493,29 501.6,34 501.6,44 493,49 484.4,44 484.4,34" fill="none" stroke="#39FF14" stroke-width="1" opacity="0.04971994502951028"/>
<polygon points="163,42 171.6,47 171.6,57 163,62 154.4,57 154.4,47" fill="none" stroke="#39FF14" stroke-width="1" opacity="0.04116487166997916"/>
<polygon points="661,33 669.6,38 669.6,48 661,53 652.4,48 652.4,38" fill="none" stroke="#39FF14" stroke-width="1" opacity="0.021727135879910393"/>
<polygon points="382,75 390.6,80 390.6,90 382,95 373.4,90 373.4,80" fill="none" stroke="#39FF14" stroke-width="1" opacity="0.06836799830707736"/>
<polygon points="508,129 516.6,134 516.6,144 508,149 499.4,144 499.4,134" fill="none" stroke="#39FF14" stroke-width="1" opacity="0.0481346529726884"/>
<polygon points="198,17 206.6,22 206.6,32 198,37 189.4,32 189.4,22" fill="none" stroke="#39FF14" stroke-width="1" opacity="0.037798035916048606"/>
<polygon points="760,151 768.6,156 768.6,166 760,171 751.4,166 751.4,156" fill="none" stroke="#39FF14" stroke-width="1" opacity="0.02626252853720104"/>
<polygon points="343,36 351.6,41 351.6,51 343,56 334.4,51 334.4,41" fill="none" stroke="#39FF14" stroke-width="1" opacity="0.07277445045307908"/>
<polygon points="550,78 558.6,83 558.6,93 550,98 541.4,93 541.4,83" fill="none" stroke="#39FF14" stroke-width="1" opacity="0.03592396039612207"/>
</g>

  <!-- HUD Decorative elements -->
  <path d="M 20 20 L 40 20 L 50 30" fill="none" stroke="#39FF14" stroke-width="2" opacity="0.5"/>
  <path d="M 830 180 L 810 180 L 800 170" fill="none" stroke="#39FF14" stroke-width="2" opacity="0.5"/>

  <g clip-path="url(#dashClip)">
    <rect x="-160" y="0" width="160" height="200" fill="url(#scanlineGrad)">
      <animateTransform attributeName="transform" type="translate"
                        from="0 0" to="1010 0" dur="6s" repeatCount="indefinite"/>
    </rect>
  </g>

  <g font-family="'Consolas', 'Fira Code', monospace" text-anchor="middle">

    <!-- NETWORK STATUS -->
    <g transform="translate(130, 100)">
        <circle cx="0" cy="0" r="45" fill="none" stroke="#39FF14" stroke-width="2" stroke-dasharray="10 5">
            <animateTransform attributeName="transform" type="rotate" from="0" to="360" dur="10s" repeatCount="indefinite"/>
        </circle>
        <circle cx="0" cy="0" r="35" fill="#0d0d0d" />
        <text x="0" y="-60" font-size="12" fill="#aaaaaa" letter-spacing="2">ROOT.AUTH</text>
        <text x="0" y="70" font-size="14" fill="#ffffff" font-weight="bold">OPERATIONAL</text>
    </g>

    <!-- ACTIVE USERS -->
    <g transform="translate(330, 100)">
        <text x="0" y="-20" font-size="12" fill="#aaaaaa">CITIZENS</text>
        <text x="0" y="15" font-size="28" fill="#ffffff" font-weight="bold" filter="url(#textGlow)">13,018</text>
        <text x="0" y="35" font-size="10" fill="#777777">VERIFIED HUMANS</text>
    </g>

    <!-- REGISTERED AGENTS -->
    <g transform="translate(530, 100)">
        <text x="0" y="-20" font-size="12" fill="#aaaaaa">AGENTS</text>
        <text x="0" y="15" font-size="28" fill="#00d4ff" font-weight="bold" filter="url(#textGlow)">3,978</text>
        <text x="0" y="35" font-size="10" fill="#777777">REGISTERED DIDs</text>
    </g>

    <!-- TRANSACTIONS -->
    <g transform="translate(730, 100)">
        <text x="0" y="-20" font-size="12" fill="#aaaaaa">TRANSFERS</text>
        <text x="0" y="15" font-size="28" fill="#ffffff" font-weight="bold">40,953</text>
        <text x="0" y="35" font-size="10" fill="#777777">M2M SETTLEMENTS</text>
    </g>
  </g>

  <text x="425" y="185" font-family="'Consolas', 'Fira Code', monospace" font-size="10" fill="#aaaaaa" opacity="0.6" text-anchor="middle">AXIOMID PROJECTED TARGETS (ILLUSTRATIVE): 2026-06-19 13:06:22 UTC // SECURE_HANDSHAKE</text>
</svg>