<svg width="850" height="200" viewBox="0 0 850 200" xmlns="http://www.w3.org/2000/svg">
  <defs>
    <!-- Carbon Fiber Pattern -->
    <pattern id="carbonFiber" width="10" height="10" patternUnits="userSpaceOnUse">
        <rect width="10" height="10" fill="#050505"/>
        <path d="M0,0 L5,5 L10,0 L5,-5 Z M5,5 L10,10 L15,5 L10,0 Z M-5,5 L0,10 L5,5 L0,0 Z M0,10 L5,15 L10,10 L5,5 Z" fill="#0d0d0d"/>
    </pattern>
    <filter id="glassmorphism">
      <feGaussianBlur stdDeviation="3" result="blur" />
      <feColorMatrix type="matrix" values="1 0 0 0 0  0 1 0 0 0  0 0 1 0 0  0 0 0 18 -7" result="glow" />
      <feBlend in="SourceGraphic" in2="glow" mode="normal" />
    </filter>
    <filter id="textGlow">
      <feGaussianBlur stdDeviation="2" result="blur" />
      <feMerge>
        <feMergeNode in="blur"/>
        <feMergeNode in="SourceGraphic"/>
      </feMerge>
    </filter>
    <linearGradient id="neonBar" x1="0%" y1="0%" x2="100%" y2="0%">
        <stop offset="0%" stop-color="#111111"/>
        <stop offset="100%" stop-color="#39FF14"/>
    </linearGradient>
  </defs>

  <rect width="100%" height="100%" fill="url(#carbonFiber)" rx="12" stroke="#39FF14" stroke-width="1" stroke-opacity="0.3"/>
  <rect width="100%" height="100%" fill="#000000" opacity="0.6" rx="12" />
  <g><polygon points="527,43 535.6,48 535.6,58 527,63 518.4,58 518.4,48" fill="none" stroke="#39FF14" stroke-width="1" opacity="0.04676174692894877"/>
<polygon points="841,117 849.6,122 849.6,132 841,137 832.4,132 832.4,122" fill="none" stroke="#39FF14" stroke-width="1" opacity="0.021476322025675964"/>
<polygon points="552,13 560.6,18 560.6,28 552,33 543.4,28 543.4,18" fill="none" stroke="#39FF14" stroke-width="1" opacity="0.06800978845776648"/>
<polygon points="431,139 439.6,144 439.6,154 431,159 422.4,154 422.4,144" fill="none" stroke="#39FF14" stroke-width="1" opacity="0.03571989323845766"/>
<polygon points="199,25 207.6,30 207.6,40 199,45 190.4,40 190.4,30" fill="none" stroke="#39FF14" stroke-width="1" opacity="0.0599056732091969"/>
<polygon points="169,184 177.6,189 177.6,199 169,204 160.4,199 160.4,189" fill="none" stroke="#39FF14" stroke-width="1" opacity="0.022844527844516176"/>
<polygon points="552,22 560.6,27 560.6,37 552,42 543.4,37 543.4,27" fill="none" stroke="#39FF14" stroke-width="1" opacity="0.03604329857693142"/>
<polygon points="188,66 196.6,71 196.6,81 188,86 179.4,81 179.4,71" fill="none" stroke="#39FF14" stroke-width="1" opacity="0.026607634867892763"/>
<polygon points="843,104 851.6,109 851.6,119 843,124 834.4,119 834.4,109" fill="none" stroke="#39FF14" stroke-width="1" opacity="0.06482240490279814"/>
<polygon points="357,58 365.6,63 365.6,73 357,78 348.4,73 348.4,63" fill="none" stroke="#39FF14" stroke-width="1" opacity="0.07890374367450793"/>
<polygon points="613,-9 621.6,-4 621.6,6 613,11 604.4,6 604.4,-4" fill="none" stroke="#39FF14" stroke-width="1" opacity="0.03400663097754185"/>
<polygon points="476,11 484.6,16 484.6,26 476,31 467.4,26 467.4,16" fill="none" stroke="#39FF14" stroke-width="1" opacity="0.05167963941061761"/>
<polygon points="506,23 514.6,28 514.6,38 506,43 497.4,38 497.4,28" fill="none" stroke="#39FF14" stroke-width="1" opacity="0.028535315620041198"/>
<polygon points="551,143 559.6,148 559.6,158 551,163 542.4,158 542.4,148" fill="none" stroke="#39FF14" stroke-width="1" opacity="0.07011839012147034"/>
<polygon points="787,182 795.6,187 795.6,197 787,202 778.4,197 778.4,187" fill="none" stroke="#39FF14" stroke-width="1" opacity="0.07027264865748617"/>
<polygon points="649,127 657.6,132 657.6,142 649,147 640.4,142 640.4,132" fill="none" stroke="#39FF14" stroke-width="1" opacity="0.0293846277647291"/>
<polygon points="164,141 172.6,146 172.6,156 164,161 155.4,156 155.4,146" fill="none" stroke="#39FF14" stroke-width="1" opacity="0.03128784792001743"/>
<polygon points="515,143 523.6,148 523.6,158 515,163 506.4,158 506.4,148" fill="none" stroke="#39FF14" stroke-width="1" opacity="0.06904502535224495"/>
<polygon points="175,56 183.6,61 183.6,71 175,76 166.4,71 166.4,61" fill="none" stroke="#39FF14" stroke-width="1" opacity="0.04163306866299864"/>
<polygon points="712,169 720.6,174 720.6,184 712,189 703.4,184 703.4,174" fill="none" stroke="#39FF14" stroke-width="1" opacity="0.07022711710972895"/>
<polygon points="566,139 574.6,144 574.6,154 566,159 557.4,154 557.4,144" fill="none" stroke="#39FF14" stroke-width="1" opacity="0.06627875261620844"/>
<polygon points="238,24 246.6,29 246.6,39 238,44 229.4,39 229.4,29" fill="none" stroke="#39FF14" stroke-width="1" opacity="0.05685727507146207"/>
<polygon points="424,-10 432.6,-5 432.6,5 424,10 415.4,5 415.4,-5" fill="none" stroke="#39FF14" stroke-width="1" opacity="0.07926821602663524"/>
<polygon points="709,83 717.6,88 717.6,98 709,103 700.4,98 700.4,88" fill="none" stroke="#39FF14" stroke-width="1" opacity="0.0301002911292602"/>
<polygon points="180,4 188.6,9 188.6,19 180,24 171.4,19 171.4,9" fill="none" stroke="#39FF14" stroke-width="1" opacity="0.074929906453857"/>
<polygon points="218,32 226.6,37 226.6,47 218,52 209.4,47 209.4,37" fill="none" stroke="#39FF14" stroke-width="1" opacity="0.07806852617362202"/>
<polygon points="86,-6 94.6,-1 94.6,9 86,14 77.4,9 77.4,-1" fill="none" stroke="#39FF14" stroke-width="1" opacity="0.020780987245998927"/>
<polygon points="667,130 675.6,135 675.6,145 667,150 658.4,145 658.4,135" fill="none" stroke="#39FF14" stroke-width="1" opacity="0.033635398803549765"/>
<polygon points="138,51 146.6,56 146.6,66 138,71 129.4,66 129.4,56" fill="none" stroke="#39FF14" stroke-width="1" opacity="0.025310955768038768"/>
<polygon points="585,155 593.6,160 593.6,170 585,175 576.4,170 576.4,160" fill="none" stroke="#39FF14" stroke-width="1" opacity="0.046929892242053114"/>
</g>

  <!-- HUD Decorative elements -->
  <path d="M 20 20 L 40 20 L 50 30" fill="none" stroke="#39FF14" stroke-width="2" opacity="0.5"/>
  <path d="M 830 180 L 810 180 L 800 170" fill="none" stroke="#39FF14" stroke-width="2" opacity="0.5"/>
  <rect x="20" y="100" width="2" height="40" fill="#ffffff" opacity="0.4"/>
  <rect x="828" y="60" width="2" height="40" fill="#39FF14" opacity="0.6"/>

  <g font-family="'Consolas', 'Fira Code', monospace" text-anchor="middle">

    <!-- SYSTEM STATUS -->
    <g transform="translate(130, 100)">
        <circle cx="0" cy="0" r="45" fill="none" stroke="#111111" stroke-width="8" />
        <circle cx="0" cy="0" r="45" fill="none" stroke="#39FF14" stroke-width="2" stroke-dasharray="10 5">
            <animateTransform attributeName="transform" type="rotate" from="0" to="360" dur="10s" repeatCount="indefinite"/>
        </circle>
        <circle cx="0" cy="0" r="35" fill="#0d0d0d" />
        <circle cx="0" cy="0" r="6" fill="#39FF14" filter="url(#textGlow)">
            <animate attributeName="opacity" values="1;0.3;1" dur="2s" repeatCount="indefinite"/>
        </circle>
        <text x="0" y="-60" font-size="12" fill="#aaaaaa" letter-spacing="2">SYS.CORE</text>
        <text x="0" y="70" font-size="14" fill="#ffffff" font-weight="bold">ONLINE</text>
    </g>

    <!-- LIVE TRAFFIC -->
    <g transform="translate(330, 100)">
        <rect x="-60" y="-45" width="120" height="90" fill="#0a0a0a" rx="8" stroke="#39FF14" stroke-opacity="0.4" stroke-width="1"/>
        <text x="0" y="-20" font-size="12" fill="#aaaaaa">NETWORK LOAD</text>
        <text x="0" y="15" font-size="28" fill="#ffffff" font-weight="bold" filter="url(#textGlow)">5740</text>
        <text x="0" y="35" font-size="10" fill="#777777">ACTIVE SESSIONS</text>
    </g>

    <!-- ACTIVE AGENTS -->
    <g transform="translate(530, 100)">
        <rect x="-60" y="-45" width="120" height="90" fill="#0a0a0a" rx="8" stroke="#39FF14" stroke-opacity="0.4" stroke-width="1"/>
        <text x="0" y="-20" font-size="12" fill="#aaaaaa">SWARM ENTITIES</text>
        <text x="0" y="15" font-size="28" fill="#ffffff" font-weight="bold" filter="url(#textGlow)">200</text>
        <text x="0" y="35" font-size="10" fill="#777777">AUTONOMOUS</text>
    </g>

    <!-- UPTIME -->
    <g transform="translate(730, 100)">
        <path d="M -40 -35 L 40 -35 L 50 -25 L 50 35 L -40 35 L -50 25 Z" fill="#0a0a0a" stroke="#39FF14" stroke-opacity="0.4" stroke-width="1"/>
        <text x="0" y="-15" font-size="12" fill="#aaaaaa">CONTINUITY</text>
        <text x="0" y="15" font-size="24" fill="#ffffff" font-weight="bold">353<tspan font-size="14" fill="#777777">d</tspan></text>
        <rect x="-35" y="25" width="70" height="4" fill="url(#neonBar)" rx="2"/>
    </g>
  </g>

  <text x="425" y="185" font-family="'Consolas', 'Fira Code', monospace" font-size="10" fill="#aaaaaa" opacity="0.6" text-anchor="middle">LAST TELEMETRY PING: 2026-04-30 00:50:53 UTC // ENCRYPTED_TUNNEL</text>
</svg>