<svg width="850" height="200" viewBox="0 0 850 200" xmlns="http://www.w3.org/2000/svg">
  <defs>
    <pattern id="carbonFiber" width="10" height="10" patternUnits="userSpaceOnUse">
        <rect width="10" height="10" fill="#050505"/>
        <path d="M0,0 L5,5 L10,0 L5,-5 Z M5,5 L10,10 L15,5 L10,0 Z M-5,5 L0,10 L5,5 L0,0 Z M0,10 L5,15 L10,10 L5,5 Z" fill="#0d0d0d"/>
    </pattern>
    <filter id="textGlow">
      <feGaussianBlur stdDeviation="2" result="blur" />
      <feMerge>
        <feMergeNode in="blur"/>
        <feMergeNode in="SourceGraphic"/>
      </feMerge>
    </filter>
    <linearGradient id="neonBar" x1="0%" y1="0%" x2="100%" y2="0%">
        <stop offset="0%" stop-color="#111111"/>
        <stop offset="100%" stop-color="#39FF14"/>
    </linearGradient>
    <linearGradient id="scanlineGrad" x1="0%" y1="0%" x2="100%" y2="0%">
        <stop offset="0%" stop-color="#39FF14" stop-opacity="0"/>
        <stop offset="50%" stop-color="#39FF14" stop-opacity="0.18"/>
        <stop offset="100%" stop-color="#39FF14" stop-opacity="0"/>
    </linearGradient>
    <clipPath id="dashClip">
        <rect x="0" y="0" width="850" height="200" rx="12"/>
    </clipPath>
  </defs>

  <rect width="100%" height="100%" fill="url(#carbonFiber)" rx="12" stroke="#39FF14" stroke-width="1" stroke-opacity="0.3"/>
  <rect width="100%" height="100%" fill="#000000" opacity="0.6" rx="12" />
  <g><polygon points="313,50 321.6,55 321.6,65 313,70 304.4,65 304.4,55" fill="none" stroke="#39FF14" stroke-width="1" opacity="0.04711619096824632"/>
<polygon points="17,98 25.6,103 25.6,113 17,118 8.4,113 8.4,103" fill="none" stroke="#39FF14" stroke-width="1" opacity="0.04669075584715027"/>
<polygon points="82,21 90.6,26 90.6,36 82,41 73.4,36 73.4,26" fill="none" stroke="#39FF14" stroke-width="1" opacity="0.06451980761256701"/>
<polygon points="320,187 328.6,192 328.6,202 320,207 311.4,202 311.4,192" fill="none" stroke="#39FF14" stroke-width="1" opacity="0.07956331982157942"/>
<polygon points="469,-10 477.6,-5 477.6,5 469,10 460.4,5 460.4,-5" fill="none" stroke="#39FF14" stroke-width="1" opacity="0.05351291948125139"/>
<polygon points="110,74 118.6,79 118.6,89 110,94 101.4,89 101.4,79" fill="none" stroke="#39FF14" stroke-width="1" opacity="0.03468046961756224"/>
<polygon points="145,134 153.6,139 153.6,149 145,154 136.4,149 136.4,139" fill="none" stroke="#39FF14" stroke-width="1" opacity="0.05843461245310759"/>
<polygon points="340,120 348.6,125 348.6,135 340,140 331.4,135 331.4,125" fill="none" stroke="#39FF14" stroke-width="1" opacity="0.05750910120313053"/>
<polygon points="694,-3 702.6,2 702.6,12 694,17 685.4,12 685.4,2" fill="none" stroke="#39FF14" stroke-width="1" opacity="0.059886506344154794"/>
<polygon points="577,43 585.6,48 585.6,58 577,63 568.4,58 568.4,48" fill="none" stroke="#39FF14" stroke-width="1" opacity="0.04050393503964521"/>
<polygon points="282,14 290.6,19 290.6,29 282,34 273.4,29 273.4,19" fill="none" stroke="#39FF14" stroke-width="1" opacity="0.06218193882438117"/>
<polygon points="309,19 317.6,24 317.6,34 309,39 300.4,34 300.4,24" fill="none" stroke="#39FF14" stroke-width="1" opacity="0.024002400612656967"/>
<polygon points="160,190 168.6,195 168.6,205 160,210 151.4,205 151.4,195" fill="none" stroke="#39FF14" stroke-width="1" opacity="0.039321014910078625"/>
<polygon points="665,69 673.6,74 673.6,84 665,89 656.4,84 656.4,74" fill="none" stroke="#39FF14" stroke-width="1" opacity="0.0683258937514838"/>
<polygon points="502,-4 510.6,1 510.6,11 502,16 493.4,11 493.4,1" fill="none" stroke="#39FF14" stroke-width="1" opacity="0.05684773577867887"/>
<polygon points="659,111 667.6,116 667.6,126 659,131 650.4,126 650.4,116" fill="none" stroke="#39FF14" stroke-width="1" opacity="0.0561758805791555"/>
<polygon points="725,116 733.6,121 733.6,131 725,136 716.4,131 716.4,121" fill="none" stroke="#39FF14" stroke-width="1" opacity="0.03180836324773039"/>
<polygon points="214,45 222.6,50 222.6,60 214,65 205.4,60 205.4,50" fill="none" stroke="#39FF14" stroke-width="1" opacity="0.028844671051440847"/>
<polygon points="773,151 781.6,156 781.6,166 773,171 764.4,166 764.4,156" fill="none" stroke="#39FF14" stroke-width="1" opacity="0.03566699461848523"/>
<polygon points="732,71 740.6,76 740.6,86 732,91 723.4,86 723.4,76" fill="none" stroke="#39FF14" stroke-width="1" opacity="0.04980393602824637"/>
<polygon points="829,71 837.6,76 837.6,86 829,91 820.4,86 820.4,76" fill="none" stroke="#39FF14" stroke-width="1" opacity="0.021094496246197296"/>
<polygon points="640,61 648.6,66 648.6,76 640,81 631.4,76 631.4,66" fill="none" stroke="#39FF14" stroke-width="1" opacity="0.0500774993982535"/>
<polygon points="728,10 736.6,15 736.6,25 728,30 719.4,25 719.4,15" fill="none" stroke="#39FF14" stroke-width="1" opacity="0.034283909085692295"/>
<polygon points="615,185 623.6,190 623.6,200 615,205 606.4,200 606.4,190" fill="none" stroke="#39FF14" stroke-width="1" opacity="0.07332708918253991"/>
<polygon points="751,106 759.6,111 759.6,121 751,126 742.4,121 742.4,111" fill="none" stroke="#39FF14" stroke-width="1" opacity="0.03674902266180814"/>
<polygon points="733,68 741.6,73 741.6,83 733,88 724.4,83 724.4,73" fill="none" stroke="#39FF14" stroke-width="1" opacity="0.020254469712107443"/>
<polygon points="216,94 224.6,99 224.6,109 216,114 207.4,109 207.4,99" fill="none" stroke="#39FF14" stroke-width="1" opacity="0.05039818570656069"/>
<polygon points="641,108 649.6,113 649.6,123 641,128 632.4,123 632.4,113" fill="none" stroke="#39FF14" stroke-width="1" opacity="0.06096052168188468"/>
<polygon points="118,83 126.6,88 126.6,98 118,103 109.4,98 109.4,88" fill="none" stroke="#39FF14" stroke-width="1" opacity="0.05442247200085151"/>
<polygon points="550,102 558.6,107 558.6,117 550,122 541.4,117 541.4,107" fill="none" stroke="#39FF14" stroke-width="1" opacity="0.05355572326140108"/>
</g>

  <!-- HUD Decorative elements -->
  <path d="M 20 20 L 40 20 L 50 30" fill="none" stroke="#39FF14" stroke-width="2" opacity="0.5"/>
  <path d="M 830 180 L 810 180 L 800 170" fill="none" stroke="#39FF14" stroke-width="2" opacity="0.5"/>

  <g clip-path="url(#dashClip)">
    <rect x="-160" y="0" width="160" height="200" fill="url(#scanlineGrad)">
      <animateTransform attributeName="transform" type="translate"
                        from="0 0" to="1010 0" dur="6s" repeatCount="indefinite"/>
    </rect>
  </g>

  <g font-family="'Consolas', 'Fira Code', monospace" text-anchor="middle">

    <!-- NETWORK STATUS -->
    <g transform="translate(130, 100)">
        <circle cx="0" cy="0" r="45" fill="none" stroke="#39FF14" stroke-width="2" stroke-dasharray="10 5">
            <animateTransform attributeName="transform" type="rotate" from="0" to="360" dur="10s" repeatCount="indefinite"/>
        </circle>
        <circle cx="0" cy="0" r="35" fill="#0d0d0d" />
        <text x="0" y="-60" font-size="12" fill="#aaaaaa" letter-spacing="2">ROOT.AUTH</text>
        <text x="0" y="70" font-size="14" fill="#ffffff" font-weight="bold">OPERATIONAL</text>
    </g>

    <!-- ACTIVE USERS -->
    <g transform="translate(330, 100)">
        <text x="0" y="-20" font-size="12" fill="#aaaaaa">CITIZENS</text>
        <text x="0" y="15" font-size="28" fill="#ffffff" font-weight="bold" filter="url(#textGlow)">13,598</text>
        <text x="0" y="35" font-size="10" fill="#777777">VERIFIED HUMANS</text>
    </g>

    <!-- REGISTERED AGENTS -->
    <g transform="translate(530, 100)">
        <text x="0" y="-20" font-size="12" fill="#aaaaaa">AGENTS</text>
        <text x="0" y="15" font-size="28" fill="#00d4ff" font-weight="bold" filter="url(#textGlow)">4,297</text>
        <text x="0" y="35" font-size="10" fill="#777777">REGISTERED DIDs</text>
    </g>

    <!-- TRANSACTIONS -->
    <g transform="translate(730, 100)">
        <text x="0" y="-20" font-size="12" fill="#aaaaaa">TRANSFERS</text>
        <text x="0" y="15" font-size="28" fill="#ffffff" font-weight="bold">38,106</text>
        <text x="0" y="35" font-size="10" fill="#777777">M2M SETTLEMENTS</text>
    </g>
  </g>

  <text x="425" y="185" font-family="'Consolas', 'Fira Code', monospace" font-size="10" fill="#aaaaaa" opacity="0.6" text-anchor="middle">AXIOMID PROJECTED TARGETS (ILLUSTRATIVE): 2026-07-18 15:44:14 UTC // SECURE_HANDSHAKE</text>
</svg>