<svg width="850" height="200" viewBox="0 0 850 200" xmlns="http://www.w3.org/2000/svg">
  <defs>
    <pattern id="carbonFiber" width="10" height="10" patternUnits="userSpaceOnUse">
        <rect width="10" height="10" fill="#050505"/>
        <path d="M0,0 L5,5 L10,0 L5,-5 Z M5,5 L10,10 L15,5 L10,0 Z M-5,5 L0,10 L5,5 L0,0 Z M0,10 L5,15 L10,10 L5,5 Z" fill="#0d0d0d"/>
    </pattern>
    <filter id="textGlow">
      <feGaussianBlur stdDeviation="2" result="blur" />
      <feMerge>
        <feMergeNode in="blur"/>
        <feMergeNode in="SourceGraphic"/>
      </feMerge>
    </filter>
    <linearGradient id="neonBar" x1="0%" y1="0%" x2="100%" y2="0%">
        <stop offset="0%" stop-color="#111111"/>
        <stop offset="100%" stop-color="#39FF14"/>
    </linearGradient>
    <linearGradient id="scanlineGrad" x1="0%" y1="0%" x2="100%" y2="0%">
        <stop offset="0%" stop-color="#39FF14" stop-opacity="0"/>
        <stop offset="50%" stop-color="#39FF14" stop-opacity="0.18"/>
        <stop offset="100%" stop-color="#39FF14" stop-opacity="0"/>
    </linearGradient>
    <clipPath id="dashClip">
        <rect x="0" y="0" width="850" height="200" rx="12"/>
    </clipPath>
  </defs>

  <rect width="100%" height="100%" fill="url(#carbonFiber)" rx="12" stroke="#39FF14" stroke-width="1" stroke-opacity="0.3"/>
  <rect width="100%" height="100%" fill="#000000" opacity="0.6" rx="12" />
  <g><polygon points="5,91 13.6,96 13.6,106 5,111 -3.5999999999999996,106 -3.5999999999999996,96" fill="none" stroke="#39FF14" stroke-width="1" opacity="0.028532095635047248"/>
<polygon points="250,46 258.6,51 258.6,61 250,66 241.4,61 241.4,51" fill="none" stroke="#39FF14" stroke-width="1" opacity="0.06486424130860646"/>
<polygon points="424,154 432.6,159 432.6,169 424,174 415.4,169 415.4,159" fill="none" stroke="#39FF14" stroke-width="1" opacity="0.07270096266397046"/>
<polygon points="767,138 775.6,143 775.6,153 767,158 758.4,153 758.4,143" fill="none" stroke="#39FF14" stroke-width="1" opacity="0.020751452636088148"/>
<polygon points="118,-2 126.6,3 126.6,13 118,18 109.4,13 109.4,3" fill="none" stroke="#39FF14" stroke-width="1" opacity="0.043216820495548675"/>
<polygon points="256,-2 264.6,3 264.6,13 256,18 247.4,13 247.4,3" fill="none" stroke="#39FF14" stroke-width="1" opacity="0.07407149890593069"/>
<polygon points="153,46 161.6,51 161.6,61 153,66 144.4,61 144.4,51" fill="none" stroke="#39FF14" stroke-width="1" opacity="0.07179447095959289"/>
<polygon points="725,81 733.6,86 733.6,96 725,101 716.4,96 716.4,86" fill="none" stroke="#39FF14" stroke-width="1" opacity="0.050768587299490416"/>
<polygon points="432,109 440.6,114 440.6,124 432,129 423.4,124 423.4,114" fill="none" stroke="#39FF14" stroke-width="1" opacity="0.045943718915298803"/>
<polygon points="199,24 207.6,29 207.6,39 199,44 190.4,39 190.4,29" fill="none" stroke="#39FF14" stroke-width="1" opacity="0.02683906213831662"/>
<polygon points="178,41 186.6,46 186.6,56 178,61 169.4,56 169.4,46" fill="none" stroke="#39FF14" stroke-width="1" opacity="0.04841187160008582"/>
<polygon points="220,141 228.6,146 228.6,156 220,161 211.4,156 211.4,146" fill="none" stroke="#39FF14" stroke-width="1" opacity="0.05048773854074483"/>
<polygon points="34,86 42.6,91 42.6,101 34,106 25.4,101 25.4,91" fill="none" stroke="#39FF14" stroke-width="1" opacity="0.025800537919634537"/>
<polygon points="836,80 844.6,85 844.6,95 836,100 827.4,95 827.4,85" fill="none" stroke="#39FF14" stroke-width="1" opacity="0.07913822404231884"/>
<polygon points="266,185 274.6,190 274.6,200 266,205 257.4,200 257.4,190" fill="none" stroke="#39FF14" stroke-width="1" opacity="0.021632356584400693"/>
<polygon points="768,161 776.6,166 776.6,176 768,181 759.4,176 759.4,166" fill="none" stroke="#39FF14" stroke-width="1" opacity="0.020230343015023394"/>
<polygon points="247,110 255.6,115 255.6,125 247,130 238.4,125 238.4,115" fill="none" stroke="#39FF14" stroke-width="1" opacity="0.05199193061178531"/>
<polygon points="781,49 789.6,54 789.6,64 781,69 772.4,64 772.4,54" fill="none" stroke="#39FF14" stroke-width="1" opacity="0.06588653778661653"/>
<polygon points="832,189 840.6,194 840.6,204 832,209 823.4,204 823.4,194" fill="none" stroke="#39FF14" stroke-width="1" opacity="0.030943998042618992"/>
<polygon points="417,82 425.6,87 425.6,97 417,102 408.4,97 408.4,87" fill="none" stroke="#39FF14" stroke-width="1" opacity="0.05916220428857075"/>
<polygon points="548,181 556.6,186 556.6,196 548,201 539.4,196 539.4,186" fill="none" stroke="#39FF14" stroke-width="1" opacity="0.07235290763385643"/>
<polygon points="265,48 273.6,53 273.6,63 265,68 256.4,63 256.4,53" fill="none" stroke="#39FF14" stroke-width="1" opacity="0.06105874755103702"/>
<polygon points="716,118 724.6,123 724.6,133 716,138 707.4,133 707.4,123" fill="none" stroke="#39FF14" stroke-width="1" opacity="0.022773920719055457"/>
<polygon points="758,148 766.6,153 766.6,163 758,168 749.4,163 749.4,153" fill="none" stroke="#39FF14" stroke-width="1" opacity="0.06254913708006116"/>
<polygon points="83,182 91.6,187 91.6,197 83,202 74.4,197 74.4,187" fill="none" stroke="#39FF14" stroke-width="1" opacity="0.03785846091550357"/>
<polygon points="385,128 393.6,133 393.6,143 385,148 376.4,143 376.4,133" fill="none" stroke="#39FF14" stroke-width="1" opacity="0.0748894274537624"/>
<polygon points="579,91 587.6,96 587.6,106 579,111 570.4,106 570.4,96" fill="none" stroke="#39FF14" stroke-width="1" opacity="0.07780622288337886"/>
<polygon points="36,125 44.6,130 44.6,140 36,145 27.4,140 27.4,130" fill="none" stroke="#39FF14" stroke-width="1" opacity="0.054479509309860646"/>
<polygon points="201,156 209.6,161 209.6,171 201,176 192.4,171 192.4,161" fill="none" stroke="#39FF14" stroke-width="1" opacity="0.04408698187268388"/>
<polygon points="311,100 319.6,105 319.6,115 311,120 302.4,115 302.4,105" fill="none" stroke="#39FF14" stroke-width="1" opacity="0.0448420548161657"/>
</g>

  <!-- HUD Decorative elements -->
  <path d="M 20 20 L 40 20 L 50 30" fill="none" stroke="#39FF14" stroke-width="2" opacity="0.5"/>
  <path d="M 830 180 L 810 180 L 800 170" fill="none" stroke="#39FF14" stroke-width="2" opacity="0.5"/>

  <g clip-path="url(#dashClip)">
    <rect x="-160" y="0" width="160" height="200" fill="url(#scanlineGrad)">
      <animateTransform attributeName="transform" type="translate"
                        from="0 0" to="1010 0" dur="6s" repeatCount="indefinite"/>
    </rect>
  </g>

  <g font-family="'Consolas', 'Fira Code', monospace" text-anchor="middle">

    <!-- NETWORK STATUS -->
    <g transform="translate(130, 100)">
        <circle cx="0" cy="0" r="45" fill="none" stroke="#39FF14" stroke-width="2" stroke-dasharray="10 5">
            <animateTransform attributeName="transform" type="rotate" from="0" to="360" dur="10s" repeatCount="indefinite"/>
        </circle>
        <circle cx="0" cy="0" r="35" fill="#0d0d0d" />
        <text x="0" y="-60" font-size="12" fill="#aaaaaa" letter-spacing="2">ROOT.AUTH</text>
        <text x="0" y="70" font-size="14" fill="#ffffff" font-weight="bold">OPERATIONAL</text>
    </g>

    <!-- ACTIVE USERS -->
    <g transform="translate(330, 100)">
        <text x="0" y="-20" font-size="12" fill="#aaaaaa">CITIZENS</text>
        <text x="0" y="15" font-size="28" fill="#ffffff" font-weight="bold" filter="url(#textGlow)">14,917</text>
        <text x="0" y="35" font-size="10" fill="#777777">VERIFIED HUMANS</text>
    </g>

    <!-- REGISTERED AGENTS -->
    <g transform="translate(530, 100)">
        <text x="0" y="-20" font-size="12" fill="#aaaaaa">AGENTS</text>
        <text x="0" y="15" font-size="28" fill="#00d4ff" font-weight="bold" filter="url(#textGlow)">3,495</text>
        <text x="0" y="35" font-size="10" fill="#777777">REGISTERED DIDs</text>
    </g>

    <!-- TRANSACTIONS -->
    <g transform="translate(730, 100)">
        <text x="0" y="-20" font-size="12" fill="#aaaaaa">TRANSFERS</text>
        <text x="0" y="15" font-size="28" fill="#ffffff" font-weight="bold">28,859</text>
        <text x="0" y="35" font-size="10" fill="#777777">M2M SETTLEMENTS</text>
    </g>
  </g>

  <text x="425" y="185" font-family="'Consolas', 'Fira Code', monospace" font-size="10" fill="#aaaaaa" opacity="0.6" text-anchor="middle">AXIOMID PROJECTED TARGETS (ILLUSTRATIVE): 2026-07-20 21:54:34 UTC // SECURE_HANDSHAKE</text>
</svg>