<svg width="850" height="200" viewBox="0 0 850 200" xmlns="http://www.w3.org/2000/svg">
  <defs>
    <!-- Carbon Fiber Pattern -->
    <pattern id="carbonFiber" width="10" height="10" patternUnits="userSpaceOnUse">
        <rect width="10" height="10" fill="#050505"/>
        <path d="M0,0 L5,5 L10,0 L5,-5 Z M5,5 L10,10 L15,5 L10,0 Z M-5,5 L0,10 L5,5 L0,0 Z M0,10 L5,15 L10,10 L5,5 Z" fill="#0d0d0d"/>
    </pattern>
    <filter id="glassmorphism">
      <feGaussianBlur stdDeviation="3" result="blur" />
      <feColorMatrix type="matrix" values="1 0 0 0 0  0 1 0 0 0  0 0 1 0 0  0 0 0 18 -7" result="glow" />
      <feBlend in="SourceGraphic" in2="glow" mode="normal" />
    </filter>
    <filter id="textGlow">
      <feGaussianBlur stdDeviation="2" result="blur" />
      <feMerge>
        <feMergeNode in="blur"/>
        <feMergeNode in="SourceGraphic"/>
      </feMerge>
    </filter>
    <linearGradient id="neonBar" x1="0%" y1="0%" x2="100%" y2="0%">
        <stop offset="0%" stop-color="#111111"/>
        <stop offset="100%" stop-color="#39FF14"/>
    </linearGradient>
  </defs>

  <rect width="100%" height="100%" fill="url(#carbonFiber)" rx="12" stroke="#39FF14" stroke-width="1" stroke-opacity="0.3"/>
  <rect width="100%" height="100%" fill="#000000" opacity="0.6" rx="12" />
  <g><polygon points="184,-7 192.6,-2 192.6,8 184,13 175.4,8 175.4,-2" fill="none" stroke="#39FF14" stroke-width="1" opacity="0.03428719647103697"/>
<polygon points="815,-6 823.6,-1 823.6,9 815,14 806.4,9 806.4,-1" fill="none" stroke="#39FF14" stroke-width="1" opacity="0.023904064603610723"/>
<polygon points="312,57 320.6,62 320.6,72 312,77 303.4,72 303.4,62" fill="none" stroke="#39FF14" stroke-width="1" opacity="0.04933500101582457"/>
<polygon points="229,41 237.6,46 237.6,56 229,61 220.4,56 220.4,46" fill="none" stroke="#39FF14" stroke-width="1" opacity="0.029354068865415885"/>
<polygon points="144,177 152.6,182 152.6,192 144,197 135.4,192 135.4,182" fill="none" stroke="#39FF14" stroke-width="1" opacity="0.07137805986570772"/>
<polygon points="183,19 191.6,24 191.6,34 183,39 174.4,34 174.4,24" fill="none" stroke="#39FF14" stroke-width="1" opacity="0.031791538972444"/>
<polygon points="290,99 298.6,104 298.6,114 290,119 281.4,114 281.4,104" fill="none" stroke="#39FF14" stroke-width="1" opacity="0.032732053448407156"/>
<polygon points="127,25 135.6,30 135.6,40 127,45 118.4,40 118.4,30" fill="none" stroke="#39FF14" stroke-width="1" opacity="0.0672409042260787"/>
<polygon points="794,165 802.6,170 802.6,180 794,185 785.4,180 785.4,170" fill="none" stroke="#39FF14" stroke-width="1" opacity="0.02543638173181473"/>
<polygon points="712,147 720.6,152 720.6,162 712,167 703.4,162 703.4,152" fill="none" stroke="#39FF14" stroke-width="1" opacity="0.044758201437881326"/>
<polygon points="827,2 835.6,7 835.6,17 827,22 818.4,17 818.4,7" fill="none" stroke="#39FF14" stroke-width="1" opacity="0.0796041889460227"/>
<polygon points="699,154 707.6,159 707.6,169 699,174 690.4,169 690.4,159" fill="none" stroke="#39FF14" stroke-width="1" opacity="0.03358182571762088"/>
<polygon points="24,137 32.6,142 32.6,152 24,157 15.4,152 15.4,142" fill="none" stroke="#39FF14" stroke-width="1" opacity="0.06255303429719347"/>
<polygon points="126,128 134.6,133 134.6,143 126,148 117.4,143 117.4,133" fill="none" stroke="#39FF14" stroke-width="1" opacity="0.05395779182123253"/>
<polygon points="491,-8 499.6,-3 499.6,7 491,12 482.4,7 482.4,-3" fill="none" stroke="#39FF14" stroke-width="1" opacity="0.07836903291496228"/>
<polygon points="815,45 823.6,50 823.6,60 815,65 806.4,60 806.4,50" fill="none" stroke="#39FF14" stroke-width="1" opacity="0.054160860103114605"/>
<polygon points="467,79 475.6,84 475.6,94 467,99 458.4,94 458.4,84" fill="none" stroke="#39FF14" stroke-width="1" opacity="0.0652313089591841"/>
<polygon points="340,85 348.6,90 348.6,100 340,105 331.4,100 331.4,90" fill="none" stroke="#39FF14" stroke-width="1" opacity="0.060626667302114357"/>
<polygon points="180,179 188.6,184 188.6,194 180,199 171.4,194 171.4,184" fill="none" stroke="#39FF14" stroke-width="1" opacity="0.07022743082414726"/>
<polygon points="254,49 262.6,54 262.6,64 254,69 245.4,64 245.4,54" fill="none" stroke="#39FF14" stroke-width="1" opacity="0.0462821776019524"/>
<polygon points="641,66 649.6,71 649.6,81 641,86 632.4,81 632.4,71" fill="none" stroke="#39FF14" stroke-width="1" opacity="0.022600532247851565"/>
<polygon points="352,186 360.6,191 360.6,201 352,206 343.4,201 343.4,191" fill="none" stroke="#39FF14" stroke-width="1" opacity="0.0694420992212783"/>
<polygon points="532,100 540.6,105 540.6,115 532,120 523.4,115 523.4,105" fill="none" stroke="#39FF14" stroke-width="1" opacity="0.04260654911604049"/>
<polygon points="31,100 39.6,105 39.6,115 31,120 22.4,115 22.4,105" fill="none" stroke="#39FF14" stroke-width="1" opacity="0.03511498667325496"/>
<polygon points="270,154 278.6,159 278.6,169 270,174 261.4,169 261.4,159" fill="none" stroke="#39FF14" stroke-width="1" opacity="0.02822077037658552"/>
<polygon points="112,39 120.6,44 120.6,54 112,59 103.4,54 103.4,44" fill="none" stroke="#39FF14" stroke-width="1" opacity="0.023603006901227075"/>
<polygon points="781,134 789.6,139 789.6,149 781,154 772.4,149 772.4,139" fill="none" stroke="#39FF14" stroke-width="1" opacity="0.07220230809797668"/>
<polygon points="811,112 819.6,117 819.6,127 811,132 802.4,127 802.4,117" fill="none" stroke="#39FF14" stroke-width="1" opacity="0.0519857658114425"/>
<polygon points="284,76 292.6,81 292.6,91 284,96 275.4,91 275.4,81" fill="none" stroke="#39FF14" stroke-width="1" opacity="0.047842754588634274"/>
<polygon points="750,139 758.6,144 758.6,154 750,159 741.4,154 741.4,144" fill="none" stroke="#39FF14" stroke-width="1" opacity="0.03184812966176526"/>
</g>

  <!-- HUD Decorative elements -->
  <path d="M 20 20 L 40 20 L 50 30" fill="none" stroke="#39FF14" stroke-width="2" opacity="0.5"/>
  <path d="M 830 180 L 810 180 L 800 170" fill="none" stroke="#39FF14" stroke-width="2" opacity="0.5"/>
  <rect x="20" y="100" width="2" height="40" fill="#ffffff" opacity="0.4"/>
  <rect x="828" y="60" width="2" height="40" fill="#39FF14" opacity="0.6"/>

  <g font-family="'Consolas', 'Fira Code', monospace" text-anchor="middle">

    <!-- SYSTEM STATUS -->
    <g transform="translate(130, 100)">
        <circle cx="0" cy="0" r="45" fill="none" stroke="#111111" stroke-width="8" />
        <circle cx="0" cy="0" r="45" fill="none" stroke="#39FF14" stroke-width="2" stroke-dasharray="10 5">
            <animateTransform attributeName="transform" type="rotate" from="0" to="360" dur="10s" repeatCount="indefinite"/>
        </circle>
        <circle cx="0" cy="0" r="35" fill="#0d0d0d" />
        <circle cx="0" cy="0" r="6" fill="#39FF14" filter="url(#textGlow)">
            <animate attributeName="opacity" values="1;0.3;1" dur="2s" repeatCount="indefinite"/>
        </circle>
        <text x="0" y="-60" font-size="12" fill="#aaaaaa" letter-spacing="2">SYS.CORE</text>
        <text x="0" y="70" font-size="14" fill="#ffffff" font-weight="bold">ONLINE</text>
    </g>

    <!-- LIVE TRAFFIC -->
    <g transform="translate(330, 100)">
        <rect x="-60" y="-45" width="120" height="90" fill="#0a0a0a" rx="8" stroke="#39FF14" stroke-opacity="0.4" stroke-width="1"/>
        <text x="0" y="-20" font-size="12" fill="#aaaaaa">NETWORK LOAD</text>
        <text x="0" y="15" font-size="28" fill="#ffffff" font-weight="bold" filter="url(#textGlow)">5495</text>
        <text x="0" y="35" font-size="10" fill="#777777">ACTIVE SESSIONS</text>
    </g>

    <!-- ACTIVE AGENTS -->
    <g transform="translate(530, 100)">
        <rect x="-60" y="-45" width="120" height="90" fill="#0a0a0a" rx="8" stroke="#39FF14" stroke-opacity="0.4" stroke-width="1"/>
        <text x="0" y="-20" font-size="12" fill="#aaaaaa">SWARM ENTITIES</text>
        <text x="0" y="15" font-size="28" fill="#ffffff" font-weight="bold" filter="url(#textGlow)">81</text>
        <text x="0" y="35" font-size="10" fill="#777777">AUTONOMOUS</text>
    </g>

    <!-- UPTIME -->
    <g transform="translate(730, 100)">
        <path d="M -40 -35 L 40 -35 L 50 -25 L 50 35 L -40 35 L -50 25 Z" fill="#0a0a0a" stroke="#39FF14" stroke-opacity="0.4" stroke-width="1"/>
        <text x="0" y="-15" font-size="12" fill="#aaaaaa">CONTINUITY</text>
        <text x="0" y="15" font-size="24" fill="#ffffff" font-weight="bold">327<tspan font-size="14" fill="#777777">d</tspan></text>
        <rect x="-35" y="25" width="70" height="4" fill="url(#neonBar)" rx="2"/>
    </g>
  </g>

  <text x="425" y="185" font-family="'Consolas', 'Fira Code', monospace" font-size="10" fill="#aaaaaa" opacity="0.6" text-anchor="middle">LAST TELEMETRY PING: 2026-04-26 16:13:17 UTC // ENCRYPTED_TUNNEL</text>
</svg>