<svg width="850" height="200" viewBox="0 0 850 200" xmlns="http://www.w3.org/2000/svg">
  <defs>
    <pattern id="carbonFiber" width="10" height="10" patternUnits="userSpaceOnUse">
        <rect width="10" height="10" fill="#050505"/>
        <path d="M0,0 L5,5 L10,0 L5,-5 Z M5,5 L10,10 L15,5 L10,0 Z M-5,5 L0,10 L5,5 L0,0 Z M0,10 L5,15 L10,10 L5,5 Z" fill="#0d0d0d"/>
    </pattern>
    <filter id="textGlow">
      <feGaussianBlur stdDeviation="2" result="blur" />
      <feMerge>
        <feMergeNode in="blur"/>
        <feMergeNode in="SourceGraphic"/>
      </feMerge>
    </filter>
    <linearGradient id="neonBar" x1="0%" y1="0%" x2="100%" y2="0%">
        <stop offset="0%" stop-color="#111111"/>
        <stop offset="100%" stop-color="#39FF14"/>
    </linearGradient>
    <linearGradient id="scanlineGrad" x1="0%" y1="0%" x2="100%" y2="0%">
        <stop offset="0%" stop-color="#39FF14" stop-opacity="0"/>
        <stop offset="50%" stop-color="#39FF14" stop-opacity="0.18"/>
        <stop offset="100%" stop-color="#39FF14" stop-opacity="0"/>
    </linearGradient>
    <clipPath id="dashClip">
        <rect x="0" y="0" width="850" height="200" rx="12"/>
    </clipPath>
  </defs>

  <rect width="100%" height="100%" fill="url(#carbonFiber)" rx="12" stroke="#39FF14" stroke-width="1" stroke-opacity="0.3"/>
  <rect width="100%" height="100%" fill="#000000" opacity="0.6" rx="12" />
  <g><polygon points="727,45 735.6,50 735.6,60 727,65 718.4,60 718.4,50" fill="none" stroke="#39FF14" stroke-width="1" opacity="0.025685200109347425"/>
<polygon points="472,70 480.6,75 480.6,85 472,90 463.4,85 463.4,75" fill="none" stroke="#39FF14" stroke-width="1" opacity="0.02367253393099048"/>
<polygon points="536,155 544.6,160 544.6,170 536,175 527.4,170 527.4,160" fill="none" stroke="#39FF14" stroke-width="1" opacity="0.02976805749487779"/>
<polygon points="709,180 717.6,185 717.6,195 709,200 700.4,195 700.4,185" fill="none" stroke="#39FF14" stroke-width="1" opacity="0.045527535562893094"/>
<polygon points="69,22 77.6,27 77.6,37 69,42 60.4,37 60.4,27" fill="none" stroke="#39FF14" stroke-width="1" opacity="0.021689775895138125"/>
<polygon points="341,189 349.6,194 349.6,204 341,209 332.4,204 332.4,194" fill="none" stroke="#39FF14" stroke-width="1" opacity="0.031666757610200186"/>
<polygon points="288,19 296.6,24 296.6,34 288,39 279.4,34 279.4,24" fill="none" stroke="#39FF14" stroke-width="1" opacity="0.0757980304251512"/>
<polygon points="415,150 423.6,155 423.6,165 415,170 406.4,165 406.4,155" fill="none" stroke="#39FF14" stroke-width="1" opacity="0.0667822545907635"/>
<polygon points="547,48 555.6,53 555.6,63 547,68 538.4,63 538.4,53" fill="none" stroke="#39FF14" stroke-width="1" opacity="0.04080858969352005"/>
<polygon points="455,174 463.6,179 463.6,189 455,194 446.4,189 446.4,179" fill="none" stroke="#39FF14" stroke-width="1" opacity="0.07174664038477536"/>
<polygon points="356,146 364.6,151 364.6,161 356,166 347.4,161 347.4,151" fill="none" stroke="#39FF14" stroke-width="1" opacity="0.05939828678361041"/>
<polygon points="615,180 623.6,185 623.6,195 615,200 606.4,195 606.4,185" fill="none" stroke="#39FF14" stroke-width="1" opacity="0.061728312145128444"/>
<polygon points="470,28 478.6,33 478.6,43 470,48 461.4,43 461.4,33" fill="none" stroke="#39FF14" stroke-width="1" opacity="0.02628196670105757"/>
<polygon points="114,190 122.6,195 122.6,205 114,210 105.4,205 105.4,195" fill="none" stroke="#39FF14" stroke-width="1" opacity="0.03889325166768007"/>
<polygon points="209,97 217.6,102 217.6,112 209,117 200.4,112 200.4,102" fill="none" stroke="#39FF14" stroke-width="1" opacity="0.07182541135797987"/>
<polygon points="227,75 235.6,80 235.6,90 227,95 218.4,90 218.4,80" fill="none" stroke="#39FF14" stroke-width="1" opacity="0.03659463298953918"/>
<polygon points="836,176 844.6,181 844.6,191 836,196 827.4,191 827.4,181" fill="none" stroke="#39FF14" stroke-width="1" opacity="0.035743239246846234"/>
<polygon points="778,-5 786.6,0 786.6,10 778,15 769.4,10 769.4,0" fill="none" stroke="#39FF14" stroke-width="1" opacity="0.05110356681029474"/>
<polygon points="572,125 580.6,130 580.6,140 572,145 563.4,140 563.4,130" fill="none" stroke="#39FF14" stroke-width="1" opacity="0.04302872530094525"/>
<polygon points="4,46 12.6,51 12.6,61 4,66 -4.6,61 -4.6,51" fill="none" stroke="#39FF14" stroke-width="1" opacity="0.027605127006288553"/>
<polygon points="839,4 847.6,9 847.6,19 839,24 830.4,19 830.4,9" fill="none" stroke="#39FF14" stroke-width="1" opacity="0.07524852179772847"/>
<polygon points="324,78 332.6,83 332.6,93 324,98 315.4,93 315.4,83" fill="none" stroke="#39FF14" stroke-width="1" opacity="0.05759872152502998"/>
<polygon points="106,19 114.6,24 114.6,34 106,39 97.4,34 97.4,24" fill="none" stroke="#39FF14" stroke-width="1" opacity="0.057603309941307065"/>
<polygon points="21,175 29.6,180 29.6,190 21,195 12.4,190 12.4,180" fill="none" stroke="#39FF14" stroke-width="1" opacity="0.0733368712515885"/>
<polygon points="767,145 775.6,150 775.6,160 767,165 758.4,160 758.4,150" fill="none" stroke="#39FF14" stroke-width="1" opacity="0.07785978754247425"/>
<polygon points="64,188 72.6,193 72.6,203 64,208 55.4,203 55.4,193" fill="none" stroke="#39FF14" stroke-width="1" opacity="0.05230284069502357"/>
<polygon points="446,129 454.6,134 454.6,144 446,149 437.4,144 437.4,134" fill="none" stroke="#39FF14" stroke-width="1" opacity="0.026905304568517432"/>
<polygon points="375,1 383.6,6 383.6,16 375,21 366.4,16 366.4,6" fill="none" stroke="#39FF14" stroke-width="1" opacity="0.07677446104091745"/>
<polygon points="64,111 72.6,116 72.6,126 64,131 55.4,126 55.4,116" fill="none" stroke="#39FF14" stroke-width="1" opacity="0.023700442551280503"/>
<polygon points="835,22 843.6,27 843.6,37 835,42 826.4,37 826.4,27" fill="none" stroke="#39FF14" stroke-width="1" opacity="0.030688918902397302"/>
</g>

  <!-- HUD Decorative elements -->
  <path d="M 20 20 L 40 20 L 50 30" fill="none" stroke="#39FF14" stroke-width="2" opacity="0.5"/>
  <path d="M 830 180 L 810 180 L 800 170" fill="none" stroke="#39FF14" stroke-width="2" opacity="0.5"/>

  <g clip-path="url(#dashClip)">
    <rect x="-160" y="0" width="160" height="200" fill="url(#scanlineGrad)">
      <animateTransform attributeName="transform" type="translate"
                        from="0 0" to="1010 0" dur="6s" repeatCount="indefinite"/>
    </rect>
  </g>

  <g font-family="'Consolas', 'Fira Code', monospace" text-anchor="middle">

    <!-- NETWORK STATUS -->
    <g transform="translate(130, 100)">
        <circle cx="0" cy="0" r="45" fill="none" stroke="#39FF14" stroke-width="2" stroke-dasharray="10 5">
            <animateTransform attributeName="transform" type="rotate" from="0" to="360" dur="10s" repeatCount="indefinite"/>
        </circle>
        <circle cx="0" cy="0" r="35" fill="#0d0d0d" />
        <text x="0" y="-60" font-size="12" fill="#aaaaaa" letter-spacing="2">ROOT.AUTH</text>
        <text x="0" y="70" font-size="14" fill="#ffffff" font-weight="bold">OPERATIONAL</text>
    </g>

    <!-- ACTIVE USERS -->
    <g transform="translate(330, 100)">
        <text x="0" y="-20" font-size="12" fill="#aaaaaa">CITIZENS</text>
        <text x="0" y="15" font-size="28" fill="#ffffff" font-weight="bold" filter="url(#textGlow)">15,018</text>
        <text x="0" y="35" font-size="10" fill="#777777">VERIFIED HUMANS</text>
    </g>

    <!-- REGISTERED AGENTS -->
    <g transform="translate(530, 100)">
        <text x="0" y="-20" font-size="12" fill="#aaaaaa">AGENTS</text>
        <text x="0" y="15" font-size="28" fill="#00d4ff" font-weight="bold" filter="url(#textGlow)">3,354</text>
        <text x="0" y="35" font-size="10" fill="#777777">REGISTERED DIDs</text>
    </g>

    <!-- TRANSACTIONS -->
    <g transform="translate(730, 100)">
        <text x="0" y="-20" font-size="12" fill="#aaaaaa">TRANSFERS</text>
        <text x="0" y="15" font-size="28" fill="#ffffff" font-weight="bold">26,187</text>
        <text x="0" y="35" font-size="10" fill="#777777">M2M SETTLEMENTS</text>
    </g>
  </g>

  <text x="425" y="185" font-family="'Consolas', 'Fira Code', monospace" font-size="10" fill="#aaaaaa" opacity="0.6" text-anchor="middle">AXIOMID PROJECTED TARGETS (ILLUSTRATIVE): 2026-06-19 07:46:35 UTC // SECURE_HANDSHAKE</text>
</svg>