<svg width="850" height="200" viewBox="0 0 850 200" xmlns="http://www.w3.org/2000/svg">
  <defs>
    <!-- Carbon Fiber Pattern -->
    <pattern id="carbonFiber" width="10" height="10" patternUnits="userSpaceOnUse">
        <rect width="10" height="10" fill="#050505"/>
        <path d="M0,0 L5,5 L10,0 L5,-5 Z M5,5 L10,10 L15,5 L10,0 Z M-5,5 L0,10 L5,5 L0,0 Z M0,10 L5,15 L10,10 L5,5 Z" fill="#0d0d0d"/>
    </pattern>
    <filter id="glassmorphism">
      <feGaussianBlur stdDeviation="3" result="blur" />
      <feColorMatrix type="matrix" values="1 0 0 0 0  0 1 0 0 0  0 0 1 0 0  0 0 0 18 -7" result="glow" />
      <feBlend in="SourceGraphic" in2="glow" mode="normal" />
    </filter>
    <filter id="textGlow">
      <feGaussianBlur stdDeviation="2" result="blur" />
      <feMerge>
        <feMergeNode in="blur"/>
        <feMergeNode in="SourceGraphic"/>
      </feMerge>
    </filter>
    <linearGradient id="neonBar" x1="0%" y1="0%" x2="100%" y2="0%">
        <stop offset="0%" stop-color="#111111"/>
        <stop offset="100%" stop-color="#39FF14"/>
    </linearGradient>
  </defs>

  <rect width="100%" height="100%" fill="url(#carbonFiber)" rx="12" stroke="#39FF14" stroke-width="1" stroke-opacity="0.3"/>
  <rect width="100%" height="100%" fill="#000000" opacity="0.6" rx="12" />
  <g><polygon points="561,51 569.6,56 569.6,66 561,71 552.4,66 552.4,56" fill="none" stroke="#39FF14" stroke-width="1" opacity="0.0409859532905104"/>
<polygon points="282,116 290.6,121 290.6,131 282,136 273.4,131 273.4,121" fill="none" stroke="#39FF14" stroke-width="1" opacity="0.032698454817207984"/>
<polygon points="346,108 354.6,113 354.6,123 346,128 337.4,123 337.4,113" fill="none" stroke="#39FF14" stroke-width="1" opacity="0.07969150746770137"/>
<polygon points="16,29 24.6,34 24.6,44 16,49 7.4,44 7.4,34" fill="none" stroke="#39FF14" stroke-width="1" opacity="0.0708071841226535"/>
<polygon points="795,12 803.6,17 803.6,27 795,32 786.4,27 786.4,17" fill="none" stroke="#39FF14" stroke-width="1" opacity="0.06417591950610269"/>
<polygon points="315,159 323.6,164 323.6,174 315,179 306.4,174 306.4,164" fill="none" stroke="#39FF14" stroke-width="1" opacity="0.039439566529172895"/>
<polygon points="635,48 643.6,53 643.6,63 635,68 626.4,63 626.4,53" fill="none" stroke="#39FF14" stroke-width="1" opacity="0.07327276809249618"/>
<polygon points="597,115 605.6,120 605.6,130 597,135 588.4,130 588.4,120" fill="none" stroke="#39FF14" stroke-width="1" opacity="0.04119594619582695"/>
<polygon points="227,36 235.6,41 235.6,51 227,56 218.4,51 218.4,41" fill="none" stroke="#39FF14" stroke-width="1" opacity="0.07738065083539428"/>
<polygon points="764,11 772.6,16 772.6,26 764,31 755.4,26 755.4,16" fill="none" stroke="#39FF14" stroke-width="1" opacity="0.03652399095622248"/>
<polygon points="761,189 769.6,194 769.6,204 761,209 752.4,204 752.4,194" fill="none" stroke="#39FF14" stroke-width="1" opacity="0.04201210683678889"/>
<polygon points="152,35 160.6,40 160.6,50 152,55 143.4,50 143.4,40" fill="none" stroke="#39FF14" stroke-width="1" opacity="0.07713667648156233"/>
<polygon points="692,19 700.6,24 700.6,34 692,39 683.4,34 683.4,24" fill="none" stroke="#39FF14" stroke-width="1" opacity="0.0690443747689057"/>
<polygon points="269,131 277.6,136 277.6,146 269,151 260.4,146 260.4,136" fill="none" stroke="#39FF14" stroke-width="1" opacity="0.04125453675087032"/>
<polygon points="694,57 702.6,62 702.6,72 694,77 685.4,72 685.4,62" fill="none" stroke="#39FF14" stroke-width="1" opacity="0.07961242353586201"/>
<polygon points="518,88 526.6,93 526.6,103 518,108 509.4,103 509.4,93" fill="none" stroke="#39FF14" stroke-width="1" opacity="0.07379660853943953"/>
<polygon points="345,107 353.6,112 353.6,122 345,127 336.4,122 336.4,112" fill="none" stroke="#39FF14" stroke-width="1" opacity="0.06358464227035895"/>
<polygon points="684,114 692.6,119 692.6,129 684,134 675.4,129 675.4,119" fill="none" stroke="#39FF14" stroke-width="1" opacity="0.07344017779674888"/>
<polygon points="721,150 729.6,155 729.6,165 721,170 712.4,165 712.4,155" fill="none" stroke="#39FF14" stroke-width="1" opacity="0.02754166809355602"/>
<polygon points="847,106 855.6,111 855.6,121 847,126 838.4,121 838.4,111" fill="none" stroke="#39FF14" stroke-width="1" opacity="0.06574815675369838"/>
<polygon points="235,177 243.6,182 243.6,192 235,197 226.4,192 226.4,182" fill="none" stroke="#39FF14" stroke-width="1" opacity="0.07162149236548644"/>
<polygon points="640,107 648.6,112 648.6,122 640,127 631.4,122 631.4,112" fill="none" stroke="#39FF14" stroke-width="1" opacity="0.04417251475967798"/>
<polygon points="438,113 446.6,118 446.6,128 438,133 429.4,128 429.4,118" fill="none" stroke="#39FF14" stroke-width="1" opacity="0.059992536196719154"/>
<polygon points="810,75 818.6,80 818.6,90 810,95 801.4,90 801.4,80" fill="none" stroke="#39FF14" stroke-width="1" opacity="0.0705532890786314"/>
<polygon points="49,185 57.6,190 57.6,200 49,205 40.4,200 40.4,190" fill="none" stroke="#39FF14" stroke-width="1" opacity="0.030718571936016174"/>
<polygon points="84,160 92.6,165 92.6,175 84,180 75.4,175 75.4,165" fill="none" stroke="#39FF14" stroke-width="1" opacity="0.04197274781437138"/>
<polygon points="696,175 704.6,180 704.6,190 696,195 687.4,190 687.4,180" fill="none" stroke="#39FF14" stroke-width="1" opacity="0.07907814573509005"/>
<polygon points="13,46 21.6,51 21.6,61 13,66 4.4,61 4.4,51" fill="none" stroke="#39FF14" stroke-width="1" opacity="0.053344669827127114"/>
<polygon points="206,58 214.6,63 214.6,73 206,78 197.4,73 197.4,63" fill="none" stroke="#39FF14" stroke-width="1" opacity="0.032859967666981696"/>
<polygon points="525,39 533.6,44 533.6,54 525,59 516.4,54 516.4,44" fill="none" stroke="#39FF14" stroke-width="1" opacity="0.03228336594647748"/>
</g>

  <!-- HUD Decorative elements -->
  <path d="M 20 20 L 40 20 L 50 30" fill="none" stroke="#39FF14" stroke-width="2" opacity="0.5"/>
  <path d="M 830 180 L 810 180 L 800 170" fill="none" stroke="#39FF14" stroke-width="2" opacity="0.5"/>
  <rect x="20" y="100" width="2" height="40" fill="#ffffff" opacity="0.4"/>
  <rect x="828" y="60" width="2" height="40" fill="#39FF14" opacity="0.6"/>

  <g font-family="'Consolas', 'Fira Code', monospace" text-anchor="middle">

    <!-- SYSTEM STATUS -->
    <g transform="translate(130, 100)">
        <circle cx="0" cy="0" r="45" fill="none" stroke="#111111" stroke-width="8" />
        <circle cx="0" cy="0" r="45" fill="none" stroke="#39FF14" stroke-width="2" stroke-dasharray="10 5">
            <animateTransform attributeName="transform" type="rotate" from="0" to="360" dur="10s" repeatCount="indefinite"/>
        </circle>
        <circle cx="0" cy="0" r="35" fill="#0d0d0d" />
        <circle cx="0" cy="0" r="6" fill="#39FF14" filter="url(#textGlow)">
            <animate attributeName="opacity" values="1;0.3;1" dur="2s" repeatCount="indefinite"/>
        </circle>
        <text x="0" y="-60" font-size="12" fill="#aaaaaa" letter-spacing="2">SYS.CORE</text>
        <text x="0" y="70" font-size="14" fill="#ffffff" font-weight="bold">ONLINE</text>
    </g>

    <!-- LIVE TRAFFIC -->
    <g transform="translate(330, 100)">
        <rect x="-60" y="-45" width="120" height="90" fill="#0a0a0a" rx="8" stroke="#39FF14" stroke-opacity="0.4" stroke-width="1"/>
        <text x="0" y="-20" font-size="12" fill="#aaaaaa">NETWORK LOAD</text>
        <text x="0" y="15" font-size="28" fill="#ffffff" font-weight="bold" filter="url(#textGlow)">3996</text>
        <text x="0" y="35" font-size="10" fill="#777777">ACTIVE SESSIONS</text>
    </g>

    <!-- ACTIVE AGENTS -->
    <g transform="translate(530, 100)">
        <rect x="-60" y="-45" width="120" height="90" fill="#0a0a0a" rx="8" stroke="#39FF14" stroke-opacity="0.4" stroke-width="1"/>
        <text x="0" y="-20" font-size="12" fill="#aaaaaa">SWARM ENTITIES</text>
        <text x="0" y="15" font-size="28" fill="#ffffff" font-weight="bold" filter="url(#textGlow)">199</text>
        <text x="0" y="35" font-size="10" fill="#777777">AUTONOMOUS</text>
    </g>

    <!-- UPTIME -->
    <g transform="translate(730, 100)">
        <path d="M -40 -35 L 40 -35 L 50 -25 L 50 35 L -40 35 L -50 25 Z" fill="#0a0a0a" stroke="#39FF14" stroke-opacity="0.4" stroke-width="1"/>
        <text x="0" y="-15" font-size="12" fill="#aaaaaa">CONTINUITY</text>
        <text x="0" y="15" font-size="24" fill="#ffffff" font-weight="bold">270<tspan font-size="14" fill="#777777">d</tspan></text>
        <rect x="-35" y="25" width="70" height="4" fill="url(#neonBar)" rx="2"/>
    </g>
  </g>

  <text x="425" y="185" font-family="'Consolas', 'Fira Code', monospace" font-size="10" fill="#aaaaaa" opacity="0.6" text-anchor="middle">LAST TELEMETRY PING: 2026-05-04 00:50:56 UTC // ENCRYPTED_TUNNEL</text>
</svg>