<svg width="850" height="200" viewBox="0 0 850 200" xmlns="http://www.w3.org/2000/svg">
  <defs>
    <pattern id="carbonFiber" width="10" height="10" patternUnits="userSpaceOnUse">
        <rect width="10" height="10" fill="#050505"/>
        <path d="M0,0 L5,5 L10,0 L5,-5 Z M5,5 L10,10 L15,5 L10,0 Z M-5,5 L0,10 L5,5 L0,0 Z M0,10 L5,15 L10,10 L5,5 Z" fill="#0d0d0d"/>
    </pattern>
    <filter id="textGlow">
      <feGaussianBlur stdDeviation="2" result="blur" />
      <feMerge>
        <feMergeNode in="blur"/>
        <feMergeNode in="SourceGraphic"/>
      </feMerge>
    </filter>
    <linearGradient id="neonBar" x1="0%" y1="0%" x2="100%" y2="0%">
        <stop offset="0%" stop-color="#111111"/>
        <stop offset="100%" stop-color="#39FF14"/>
    </linearGradient>
    <linearGradient id="scanlineGrad" x1="0%" y1="0%" x2="100%" y2="0%">
        <stop offset="0%" stop-color="#39FF14" stop-opacity="0"/>
        <stop offset="50%" stop-color="#39FF14" stop-opacity="0.18"/>
        <stop offset="100%" stop-color="#39FF14" stop-opacity="0"/>
    </linearGradient>
    <clipPath id="dashClip">
        <rect x="0" y="0" width="850" height="200" rx="12"/>
    </clipPath>
  </defs>

  <rect width="100%" height="100%" fill="url(#carbonFiber)" rx="12" stroke="#39FF14" stroke-width="1" stroke-opacity="0.3"/>
  <rect width="100%" height="100%" fill="#000000" opacity="0.6" rx="12" />
  <g><polygon points="722,27 730.6,32 730.6,42 722,47 713.4,42 713.4,32" fill="none" stroke="#39FF14" stroke-width="1" opacity="0.052710351610665535"/>
<polygon points="662,59 670.6,64 670.6,74 662,79 653.4,74 653.4,64" fill="none" stroke="#39FF14" stroke-width="1" opacity="0.07514522866832977"/>
<polygon points="187,-10 195.6,-5 195.6,5 187,10 178.4,5 178.4,-5" fill="none" stroke="#39FF14" stroke-width="1" opacity="0.029457902086512028"/>
<polygon points="139,181 147.6,186 147.6,196 139,201 130.4,196 130.4,186" fill="none" stroke="#39FF14" stroke-width="1" opacity="0.03609813111032029"/>
<polygon points="334,104 342.6,109 342.6,119 334,124 325.4,119 325.4,109" fill="none" stroke="#39FF14" stroke-width="1" opacity="0.07594461748555009"/>
<polygon points="694,47 702.6,52 702.6,62 694,67 685.4,62 685.4,52" fill="none" stroke="#39FF14" stroke-width="1" opacity="0.024729294378185673"/>
<polygon points="411,88 419.6,93 419.6,103 411,108 402.4,103 402.4,93" fill="none" stroke="#39FF14" stroke-width="1" opacity="0.03964440947237913"/>
<polygon points="422,168 430.6,173 430.6,183 422,188 413.4,183 413.4,173" fill="none" stroke="#39FF14" stroke-width="1" opacity="0.05661809259718732"/>
<polygon points="224,163 232.6,168 232.6,178 224,183 215.4,178 215.4,168" fill="none" stroke="#39FF14" stroke-width="1" opacity="0.053231165306913616"/>
<polygon points="771,63 779.6,68 779.6,78 771,83 762.4,78 762.4,68" fill="none" stroke="#39FF14" stroke-width="1" opacity="0.060943645771294006"/>
<polygon points="295,34 303.6,39 303.6,49 295,54 286.4,49 286.4,39" fill="none" stroke="#39FF14" stroke-width="1" opacity="0.04094779370220589"/>
<polygon points="556,108 564.6,113 564.6,123 556,128 547.4,123 547.4,113" fill="none" stroke="#39FF14" stroke-width="1" opacity="0.03678148746579857"/>
<polygon points="358,19 366.6,24 366.6,34 358,39 349.4,34 349.4,24" fill="none" stroke="#39FF14" stroke-width="1" opacity="0.07185370135610018"/>
<polygon points="392,122 400.6,127 400.6,137 392,142 383.4,137 383.4,127" fill="none" stroke="#39FF14" stroke-width="1" opacity="0.021656477083353835"/>
<polygon points="379,6 387.6,11 387.6,21 379,26 370.4,21 370.4,11" fill="none" stroke="#39FF14" stroke-width="1" opacity="0.06551395469594996"/>
<polygon points="37,179 45.6,184 45.6,194 37,199 28.4,194 28.4,184" fill="none" stroke="#39FF14" stroke-width="1" opacity="0.03856116222679161"/>
<polygon points="394,190 402.6,195 402.6,205 394,210 385.4,205 385.4,195" fill="none" stroke="#39FF14" stroke-width="1" opacity="0.06511633784223472"/>
<polygon points="726,155 734.6,160 734.6,170 726,175 717.4,170 717.4,160" fill="none" stroke="#39FF14" stroke-width="1" opacity="0.03983237745177519"/>
<polygon points="312,125 320.6,130 320.6,140 312,145 303.4,140 303.4,130" fill="none" stroke="#39FF14" stroke-width="1" opacity="0.06194872043686922"/>
<polygon points="720,114 728.6,119 728.6,129 720,134 711.4,129 711.4,119" fill="none" stroke="#39FF14" stroke-width="1" opacity="0.05773877911765862"/>
<polygon points="52,89 60.6,94 60.6,104 52,109 43.4,104 43.4,94" fill="none" stroke="#39FF14" stroke-width="1" opacity="0.03529040372103971"/>
<polygon points="273,155 281.6,160 281.6,170 273,175 264.4,170 264.4,160" fill="none" stroke="#39FF14" stroke-width="1" opacity="0.03293959847657676"/>
<polygon points="548,189 556.6,194 556.6,204 548,209 539.4,204 539.4,194" fill="none" stroke="#39FF14" stroke-width="1" opacity="0.03733298032017537"/>
<polygon points="495,92 503.6,97 503.6,107 495,112 486.4,107 486.4,97" fill="none" stroke="#39FF14" stroke-width="1" opacity="0.027541680702124417"/>
<polygon points="363,37 371.6,42 371.6,52 363,57 354.4,52 354.4,42" fill="none" stroke="#39FF14" stroke-width="1" opacity="0.026545829765375444"/>
<polygon points="650,-3 658.6,2 658.6,12 650,17 641.4,12 641.4,2" fill="none" stroke="#39FF14" stroke-width="1" opacity="0.03663045308125787"/>
<polygon points="183,-6 191.6,-1 191.6,9 183,14 174.4,9 174.4,-1" fill="none" stroke="#39FF14" stroke-width="1" opacity="0.06918427066965151"/>
<polygon points="221,154 229.6,159 229.6,169 221,174 212.4,169 212.4,159" fill="none" stroke="#39FF14" stroke-width="1" opacity="0.030676470135066684"/>
<polygon points="492,179 500.6,184 500.6,194 492,199 483.4,194 483.4,184" fill="none" stroke="#39FF14" stroke-width="1" opacity="0.029055764618509755"/>
<polygon points="419,40 427.6,45 427.6,55 419,60 410.4,55 410.4,45" fill="none" stroke="#39FF14" stroke-width="1" opacity="0.05601602560724453"/>
</g>

  <!-- HUD Decorative elements -->
  <path d="M 20 20 L 40 20 L 50 30" fill="none" stroke="#39FF14" stroke-width="2" opacity="0.5"/>
  <path d="M 830 180 L 810 180 L 800 170" fill="none" stroke="#39FF14" stroke-width="2" opacity="0.5"/>

  <g clip-path="url(#dashClip)">
    <rect x="-160" y="0" width="160" height="200" fill="url(#scanlineGrad)">
      <animateTransform attributeName="transform" type="translate"
                        from="0 0" to="1010 0" dur="6s" repeatCount="indefinite"/>
    </rect>
  </g>

  <g font-family="'Consolas', 'Fira Code', monospace" text-anchor="middle">

    <!-- NETWORK STATUS -->
    <g transform="translate(130, 100)">
        <circle cx="0" cy="0" r="45" fill="none" stroke="#39FF14" stroke-width="2" stroke-dasharray="10 5">
            <animateTransform attributeName="transform" type="rotate" from="0" to="360" dur="10s" repeatCount="indefinite"/>
        </circle>
        <circle cx="0" cy="0" r="35" fill="#0d0d0d" />
        <text x="0" y="-60" font-size="12" fill="#aaaaaa" letter-spacing="2">ROOT.AUTH</text>
        <text x="0" y="70" font-size="14" fill="#ffffff" font-weight="bold">OPERATIONAL</text>
    </g>

    <!-- ACTIVE USERS -->
    <g transform="translate(330, 100)">
        <text x="0" y="-20" font-size="12" fill="#aaaaaa">CITIZENS</text>
        <text x="0" y="15" font-size="28" fill="#ffffff" font-weight="bold" filter="url(#textGlow)">15,186</text>
        <text x="0" y="35" font-size="10" fill="#777777">VERIFIED HUMANS</text>
    </g>

    <!-- REGISTERED AGENTS -->
    <g transform="translate(530, 100)">
        <text x="0" y="-20" font-size="12" fill="#aaaaaa">AGENTS</text>
        <text x="0" y="15" font-size="28" fill="#00d4ff" font-weight="bold" filter="url(#textGlow)">3,232</text>
        <text x="0" y="35" font-size="10" fill="#777777">REGISTERED DIDs</text>
    </g>

    <!-- TRANSACTIONS -->
    <g transform="translate(730, 100)">
        <text x="0" y="-20" font-size="12" fill="#aaaaaa">TRANSFERS</text>
        <text x="0" y="15" font-size="28" fill="#ffffff" font-weight="bold">38,073</text>
        <text x="0" y="35" font-size="10" fill="#777777">M2M SETTLEMENTS</text>
    </g>
  </g>

  <text x="425" y="185" font-family="'Consolas', 'Fira Code', monospace" font-size="10" fill="#aaaaaa" opacity="0.6" text-anchor="middle">AXIOMID PROJECTED TARGETS (ILLUSTRATIVE): 2026-09-20 17:47:24 UTC // SECURE_HANDSHAKE</text>
</svg>