<svg width="850" height="200" viewBox="0 0 850 200" xmlns="http://www.w3.org/2000/svg">
  <defs>
    <pattern id="carbonFiber" width="10" height="10" patternUnits="userSpaceOnUse">
        <rect width="10" height="10" fill="#050505"/>
        <path d="M0,0 L5,5 L10,0 L5,-5 Z M5,5 L10,10 L15,5 L10,0 Z M-5,5 L0,10 L5,5 L0,0 Z M0,10 L5,15 L10,10 L5,5 Z" fill="#0d0d0d"/>
    </pattern>
    <filter id="textGlow">
      <feGaussianBlur stdDeviation="2" result="blur" />
      <feMerge>
        <feMergeNode in="blur"/>
        <feMergeNode in="SourceGraphic"/>
      </feMerge>
    </filter>
    <linearGradient id="neonBar" x1="0%" y1="0%" x2="100%" y2="0%">
        <stop offset="0%" stop-color="#111111"/>
        <stop offset="100%" stop-color="#39FF14"/>
    </linearGradient>
    <linearGradient id="scanlineGrad" x1="0%" y1="0%" x2="100%" y2="0%">
        <stop offset="0%" stop-color="#39FF14" stop-opacity="0"/>
        <stop offset="50%" stop-color="#39FF14" stop-opacity="0.18"/>
        <stop offset="100%" stop-color="#39FF14" stop-opacity="0"/>
    </linearGradient>
    <clipPath id="dashClip">
        <rect x="0" y="0" width="850" height="200" rx="12"/>
    </clipPath>
  </defs>

  <rect width="100%" height="100%" fill="url(#carbonFiber)" rx="12" stroke="#39FF14" stroke-width="1" stroke-opacity="0.3"/>
  <rect width="100%" height="100%" fill="#000000" opacity="0.6" rx="12" />
  <g><polygon points="87,157 95.6,162 95.6,172 87,177 78.4,172 78.4,162" fill="none" stroke="#39FF14" stroke-width="1" opacity="0.05629231898008348"/>
<polygon points="431,133 439.6,138 439.6,148 431,153 422.4,148 422.4,138" fill="none" stroke="#39FF14" stroke-width="1" opacity="0.07761196978371153"/>
<polygon points="15,29 23.6,34 23.6,44 15,49 6.4,44 6.4,34" fill="none" stroke="#39FF14" stroke-width="1" opacity="0.03928735516555415"/>
<polygon points="686,48 694.6,53 694.6,63 686,68 677.4,63 677.4,53" fill="none" stroke="#39FF14" stroke-width="1" opacity="0.025494030162672786"/>
<polygon points="67,13 75.6,18 75.6,28 67,33 58.4,28 58.4,18" fill="none" stroke="#39FF14" stroke-width="1" opacity="0.07179639658118249"/>
<polygon points="164,58 172.6,63 172.6,73 164,78 155.4,73 155.4,63" fill="none" stroke="#39FF14" stroke-width="1" opacity="0.05002810669737763"/>
<polygon points="624,75 632.6,80 632.6,90 624,95 615.4,90 615.4,80" fill="none" stroke="#39FF14" stroke-width="1" opacity="0.05904773598692964"/>
<polygon points="167,107 175.6,112 175.6,122 167,127 158.4,122 158.4,112" fill="none" stroke="#39FF14" stroke-width="1" opacity="0.045869468712054516"/>
<polygon points="579,165 587.6,170 587.6,180 579,185 570.4,180 570.4,170" fill="none" stroke="#39FF14" stroke-width="1" opacity="0.03107556685647288"/>
<polygon points="13,26 21.6,31 21.6,41 13,46 4.4,41 4.4,31" fill="none" stroke="#39FF14" stroke-width="1" opacity="0.04684069596253239"/>
<polygon points="194,70 202.6,75 202.6,85 194,90 185.4,85 185.4,75" fill="none" stroke="#39FF14" stroke-width="1" opacity="0.0437448451302133"/>
<polygon points="51,29 59.6,34 59.6,44 51,49 42.4,44 42.4,34" fill="none" stroke="#39FF14" stroke-width="1" opacity="0.057201980734539665"/>
<polygon points="133,107 141.6,112 141.6,122 133,127 124.4,122 124.4,112" fill="none" stroke="#39FF14" stroke-width="1" opacity="0.05579268184720246"/>
<polygon points="614,21 622.6,26 622.6,36 614,41 605.4,36 605.4,26" fill="none" stroke="#39FF14" stroke-width="1" opacity="0.07229673881538241"/>
<polygon points="685,19 693.6,24 693.6,34 685,39 676.4,34 676.4,24" fill="none" stroke="#39FF14" stroke-width="1" opacity="0.05672750987832585"/>
<polygon points="605,78 613.6,83 613.6,93 605,98 596.4,93 596.4,83" fill="none" stroke="#39FF14" stroke-width="1" opacity="0.035941276391871106"/>
<polygon points="362,27 370.6,32 370.6,42 362,47 353.4,42 353.4,32" fill="none" stroke="#39FF14" stroke-width="1" opacity="0.054080308288157714"/>
<polygon points="443,22 451.6,27 451.6,37 443,42 434.4,37 434.4,27" fill="none" stroke="#39FF14" stroke-width="1" opacity="0.06387944215687263"/>
<polygon points="546,160 554.6,165 554.6,175 546,180 537.4,175 537.4,165" fill="none" stroke="#39FF14" stroke-width="1" opacity="0.029621374562332096"/>
<polygon points="84,31 92.6,36 92.6,46 84,51 75.4,46 75.4,36" fill="none" stroke="#39FF14" stroke-width="1" opacity="0.031962628834380044"/>
<polygon points="330,88 338.6,93 338.6,103 330,108 321.4,103 321.4,93" fill="none" stroke="#39FF14" stroke-width="1" opacity="0.07871412113371776"/>
<polygon points="260,169 268.6,174 268.6,184 260,189 251.4,184 251.4,174" fill="none" stroke="#39FF14" stroke-width="1" opacity="0.07350364358179916"/>
<polygon points="734,161 742.6,166 742.6,176 734,181 725.4,176 725.4,166" fill="none" stroke="#39FF14" stroke-width="1" opacity="0.0650082700334854"/>
<polygon points="495,32 503.6,37 503.6,47 495,52 486.4,47 486.4,37" fill="none" stroke="#39FF14" stroke-width="1" opacity="0.03958409861259347"/>
<polygon points="421,150 429.6,155 429.6,165 421,170 412.4,165 412.4,155" fill="none" stroke="#39FF14" stroke-width="1" opacity="0.03283044839732528"/>
<polygon points="410,136 418.6,141 418.6,151 410,156 401.4,151 401.4,141" fill="none" stroke="#39FF14" stroke-width="1" opacity="0.07821472479081583"/>
<polygon points="361,22 369.6,27 369.6,37 361,42 352.4,37 352.4,27" fill="none" stroke="#39FF14" stroke-width="1" opacity="0.039112169758173304"/>
<polygon points="574,138 582.6,143 582.6,153 574,158 565.4,153 565.4,143" fill="none" stroke="#39FF14" stroke-width="1" opacity="0.020899944061043455"/>
<polygon points="291,136 299.6,141 299.6,151 291,156 282.4,151 282.4,141" fill="none" stroke="#39FF14" stroke-width="1" opacity="0.07267420087618444"/>
<polygon points="510,128 518.6,133 518.6,143 510,148 501.4,143 501.4,133" fill="none" stroke="#39FF14" stroke-width="1" opacity="0.07303825905651305"/>
</g>

  <!-- HUD Decorative elements -->
  <path d="M 20 20 L 40 20 L 50 30" fill="none" stroke="#39FF14" stroke-width="2" opacity="0.5"/>
  <path d="M 830 180 L 810 180 L 800 170" fill="none" stroke="#39FF14" stroke-width="2" opacity="0.5"/>

  <g clip-path="url(#dashClip)">
    <rect x="-160" y="0" width="160" height="200" fill="url(#scanlineGrad)">
      <animateTransform attributeName="transform" type="translate"
                        from="0 0" to="1010 0" dur="6s" repeatCount="indefinite"/>
    </rect>
  </g>

  <g font-family="'Consolas', 'Fira Code', monospace" text-anchor="middle">

    <!-- NETWORK STATUS -->
    <g transform="translate(130, 100)">
        <circle cx="0" cy="0" r="45" fill="none" stroke="#39FF14" stroke-width="2" stroke-dasharray="10 5">
            <animateTransform attributeName="transform" type="rotate" from="0" to="360" dur="10s" repeatCount="indefinite"/>
        </circle>
        <circle cx="0" cy="0" r="35" fill="#0d0d0d" />
        <text x="0" y="-60" font-size="12" fill="#aaaaaa" letter-spacing="2">ROOT.AUTH</text>
        <text x="0" y="70" font-size="14" fill="#ffffff" font-weight="bold">OPERATIONAL</text>
    </g>

    <!-- ACTIVE USERS -->
    <g transform="translate(330, 100)">
        <text x="0" y="-20" font-size="12" fill="#aaaaaa">CITIZENS</text>
        <text x="0" y="15" font-size="28" fill="#ffffff" font-weight="bold" filter="url(#textGlow)">12,737</text>
        <text x="0" y="35" font-size="10" fill="#777777">VERIFIED HUMANS</text>
    </g>

    <!-- REGISTERED AGENTS -->
    <g transform="translate(530, 100)">
        <text x="0" y="-20" font-size="12" fill="#aaaaaa">AGENTS</text>
        <text x="0" y="15" font-size="28" fill="#00d4ff" font-weight="bold" filter="url(#textGlow)">4,608</text>
        <text x="0" y="35" font-size="10" fill="#777777">REGISTERED DIDs</text>
    </g>

    <!-- TRANSACTIONS -->
    <g transform="translate(730, 100)">
        <text x="0" y="-20" font-size="12" fill="#aaaaaa">TRANSFERS</text>
        <text x="0" y="15" font-size="28" fill="#ffffff" font-weight="bold">37,054</text>
        <text x="0" y="35" font-size="10" fill="#777777">M2M SETTLEMENTS</text>
    </g>
  </g>

  <text x="425" y="185" font-family="'Consolas', 'Fira Code', monospace" font-size="10" fill="#aaaaaa" opacity="0.6" text-anchor="middle">AXIOMID PROJECTED TARGETS (ILLUSTRATIVE): 2026-07-01 10:20:01 UTC // SECURE_HANDSHAKE</text>
</svg>