<svg width="850" height="200" viewBox="0 0 850 200" xmlns="http://www.w3.org/2000/svg">
  <defs>
    <!-- Carbon Fiber Pattern -->
    <pattern id="carbonFiber" width="10" height="10" patternUnits="userSpaceOnUse">
        <rect width="10" height="10" fill="#050505"/>
        <path d="M0,0 L5,5 L10,0 L5,-5 Z M5,5 L10,10 L15,5 L10,0 Z M-5,5 L0,10 L5,5 L0,0 Z M0,10 L5,15 L10,10 L5,5 Z" fill="#0d0d0d"/>
    </pattern>
    <filter id="glassmorphism">
      <feGaussianBlur stdDeviation="3" result="blur" />
      <feColorMatrix type="matrix" values="1 0 0 0 0  0 1 0 0 0  0 0 1 0 0  0 0 0 18 -7" result="glow" />
      <feBlend in="SourceGraphic" in2="glow" mode="normal" />
    </filter>
    <filter id="textGlow">
      <feGaussianBlur stdDeviation="2" result="blur" />
      <feMerge>
        <feMergeNode in="blur"/>
        <feMergeNode in="SourceGraphic"/>
      </feMerge>
    </filter>
    <linearGradient id="neonBar" x1="0%" y1="0%" x2="100%" y2="0%">
        <stop offset="0%" stop-color="#111111"/>
        <stop offset="100%" stop-color="#39FF14"/>
    </linearGradient>
  </defs>

  <rect width="100%" height="100%" fill="url(#carbonFiber)" rx="12" stroke="#39FF14" stroke-width="1" stroke-opacity="0.3"/>
  <rect width="100%" height="100%" fill="#000000" opacity="0.6" rx="12" />
  <g><polygon points="813,110 821.6,115 821.6,125 813,130 804.4,125 804.4,115" fill="none" stroke="#39FF14" stroke-width="1" opacity="0.05842985899679287"/>
<polygon points="437,42 445.6,47 445.6,57 437,62 428.4,57 428.4,47" fill="none" stroke="#39FF14" stroke-width="1" opacity="0.06987773308772809"/>
<polygon points="122,28 130.6,33 130.6,43 122,48 113.4,43 113.4,33" fill="none" stroke="#39FF14" stroke-width="1" opacity="0.02299301874600507"/>
<polygon points="576,49 584.6,54 584.6,64 576,69 567.4,64 567.4,54" fill="none" stroke="#39FF14" stroke-width="1" opacity="0.03959010058513017"/>
<polygon points="682,122 690.6,127 690.6,137 682,142 673.4,137 673.4,127" fill="none" stroke="#39FF14" stroke-width="1" opacity="0.06205082594536697"/>
<polygon points="217,17 225.6,22 225.6,32 217,37 208.4,32 208.4,22" fill="none" stroke="#39FF14" stroke-width="1" opacity="0.020752379901794134"/>
<polygon points="111,46 119.6,51 119.6,61 111,66 102.4,61 102.4,51" fill="none" stroke="#39FF14" stroke-width="1" opacity="0.029095029694242002"/>
<polygon points="508,187 516.6,192 516.6,202 508,207 499.4,202 499.4,192" fill="none" stroke="#39FF14" stroke-width="1" opacity="0.03855813189470085"/>
<polygon points="731,140 739.6,145 739.6,155 731,160 722.4,155 722.4,145" fill="none" stroke="#39FF14" stroke-width="1" opacity="0.05573331264190412"/>
<polygon points="678,102 686.6,107 686.6,117 678,122 669.4,117 669.4,107" fill="none" stroke="#39FF14" stroke-width="1" opacity="0.0684203794877204"/>
<polygon points="557,76 565.6,81 565.6,91 557,96 548.4,91 548.4,81" fill="none" stroke="#39FF14" stroke-width="1" opacity="0.07231351251669181"/>
<polygon points="794,143 802.6,148 802.6,158 794,163 785.4,158 785.4,148" fill="none" stroke="#39FF14" stroke-width="1" opacity="0.07936593032856144"/>
<polygon points="95,19 103.6,24 103.6,34 95,39 86.4,34 86.4,24" fill="none" stroke="#39FF14" stroke-width="1" opacity="0.06083282181097953"/>
<polygon points="719,7 727.6,12 727.6,22 719,27 710.4,22 710.4,12" fill="none" stroke="#39FF14" stroke-width="1" opacity="0.06827094992166063"/>
<polygon points="543,36 551.6,41 551.6,51 543,56 534.4,51 534.4,41" fill="none" stroke="#39FF14" stroke-width="1" opacity="0.036137763991891114"/>
<polygon points="703,66 711.6,71 711.6,81 703,86 694.4,81 694.4,71" fill="none" stroke="#39FF14" stroke-width="1" opacity="0.06167767486646537"/>
<polygon points="249,-10 257.6,-5 257.6,5 249,10 240.4,5 240.4,-5" fill="none" stroke="#39FF14" stroke-width="1" opacity="0.06565219139227531"/>
<polygon points="671,0 679.6,5 679.6,15 671,20 662.4,15 662.4,5" fill="none" stroke="#39FF14" stroke-width="1" opacity="0.07469800509892974"/>
<polygon points="231,133 239.6,138 239.6,148 231,153 222.4,148 222.4,138" fill="none" stroke="#39FF14" stroke-width="1" opacity="0.028751375078204078"/>
<polygon points="825,36 833.6,41 833.6,51 825,56 816.4,51 816.4,41" fill="none" stroke="#39FF14" stroke-width="1" opacity="0.05179432029624512"/>
<polygon points="630,126 638.6,131 638.6,141 630,146 621.4,141 621.4,131" fill="none" stroke="#39FF14" stroke-width="1" opacity="0.05302880105472084"/>
<polygon points="603,160 611.6,165 611.6,175 603,180 594.4,175 594.4,165" fill="none" stroke="#39FF14" stroke-width="1" opacity="0.07043922285817099"/>
<polygon points="9,4 17.6,9 17.6,19 9,24 0.40000000000000036,19 0.40000000000000036,9" fill="none" stroke="#39FF14" stroke-width="1" opacity="0.044375531143860586"/>
<polygon points="152,163 160.6,168 160.6,178 152,183 143.4,178 143.4,168" fill="none" stroke="#39FF14" stroke-width="1" opacity="0.043661491918693535"/>
<polygon points="167,17 175.6,22 175.6,32 167,37 158.4,32 158.4,22" fill="none" stroke="#39FF14" stroke-width="1" opacity="0.06197429685148216"/>
<polygon points="584,104 592.6,109 592.6,119 584,124 575.4,119 575.4,109" fill="none" stroke="#39FF14" stroke-width="1" opacity="0.03376821746758993"/>
<polygon points="699,182 707.6,187 707.6,197 699,202 690.4,197 690.4,187" fill="none" stroke="#39FF14" stroke-width="1" opacity="0.06421295099303438"/>
<polygon points="101,27 109.6,32 109.6,42 101,47 92.4,42 92.4,32" fill="none" stroke="#39FF14" stroke-width="1" opacity="0.0589277790510646"/>
<polygon points="167,71 175.6,76 175.6,86 167,91 158.4,86 158.4,76" fill="none" stroke="#39FF14" stroke-width="1" opacity="0.07416548038241959"/>
<polygon points="92,175 100.6,180 100.6,190 92,195 83.4,190 83.4,180" fill="none" stroke="#39FF14" stroke-width="1" opacity="0.030732417818375195"/>
</g>

  <!-- HUD Decorative elements -->
  <path d="M 20 20 L 40 20 L 50 30" fill="none" stroke="#39FF14" stroke-width="2" opacity="0.5"/>
  <path d="M 830 180 L 810 180 L 800 170" fill="none" stroke="#39FF14" stroke-width="2" opacity="0.5"/>
  <rect x="20" y="100" width="2" height="40" fill="#ffffff" opacity="0.4"/>
  <rect x="828" y="60" width="2" height="40" fill="#39FF14" opacity="0.6"/>

  <g font-family="'Consolas', 'Fira Code', monospace" text-anchor="middle">

    <!-- SYSTEM STATUS -->
    <g transform="translate(130, 100)">
        <circle cx="0" cy="0" r="45" fill="none" stroke="#111111" stroke-width="8" />
        <circle cx="0" cy="0" r="45" fill="none" stroke="#39FF14" stroke-width="2" stroke-dasharray="10 5">
            <animateTransform attributeName="transform" type="rotate" from="0" to="360" dur="10s" repeatCount="indefinite"/>
        </circle>
        <circle cx="0" cy="0" r="35" fill="#0d0d0d" />
        <circle cx="0" cy="0" r="6" fill="#39FF14" filter="url(#textGlow)">
            <animate attributeName="opacity" values="1;0.3;1" dur="2s" repeatCount="indefinite"/>
        </circle>
        <text x="0" y="-60" font-size="12" fill="#aaaaaa" letter-spacing="2">SYS.CORE</text>
        <text x="0" y="70" font-size="14" fill="#ffffff" font-weight="bold">ONLINE</text>
    </g>

    <!-- LIVE TRAFFIC -->
    <g transform="translate(330, 100)">
        <rect x="-60" y="-45" width="120" height="90" fill="#0a0a0a" rx="8" stroke="#39FF14" stroke-opacity="0.4" stroke-width="1"/>
        <text x="0" y="-20" font-size="12" fill="#aaaaaa">NETWORK LOAD</text>
        <text x="0" y="15" font-size="28" fill="#ffffff" font-weight="bold" filter="url(#textGlow)">5649</text>
        <text x="0" y="35" font-size="10" fill="#777777">ACTIVE SESSIONS</text>
    </g>

    <!-- ACTIVE AGENTS -->
    <g transform="translate(530, 100)">
        <rect x="-60" y="-45" width="120" height="90" fill="#0a0a0a" rx="8" stroke="#39FF14" stroke-opacity="0.4" stroke-width="1"/>
        <text x="0" y="-20" font-size="12" fill="#aaaaaa">SWARM ENTITIES</text>
        <text x="0" y="15" font-size="28" fill="#ffffff" font-weight="bold" filter="url(#textGlow)">152</text>
        <text x="0" y="35" font-size="10" fill="#777777">AUTONOMOUS</text>
    </g>

    <!-- UPTIME -->
    <g transform="translate(730, 100)">
        <path d="M -40 -35 L 40 -35 L 50 -25 L 50 35 L -40 35 L -50 25 Z" fill="#0a0a0a" stroke="#39FF14" stroke-opacity="0.4" stroke-width="1"/>
        <text x="0" y="-15" font-size="12" fill="#aaaaaa">CONTINUITY</text>
        <text x="0" y="15" font-size="24" fill="#ffffff" font-weight="bold">209<tspan font-size="14" fill="#777777">d</tspan></text>
        <rect x="-35" y="25" width="70" height="4" fill="url(#neonBar)" rx="2"/>
    </g>
  </g>

  <text x="425" y="185" font-family="'Consolas', 'Fira Code', monospace" font-size="10" fill="#aaaaaa" opacity="0.6" text-anchor="middle">LAST TELEMETRY PING: 2026-05-13 09:52:43 UTC // ENCRYPTED_TUNNEL</text>
</svg>