<svg width="850" height="200" viewBox="0 0 850 200" xmlns="http://www.w3.org/2000/svg">
  <defs>
    <pattern id="carbonFiber" width="10" height="10" patternUnits="userSpaceOnUse">
        <rect width="10" height="10" fill="#050505"/>
        <path d="M0,0 L5,5 L10,0 L5,-5 Z M5,5 L10,10 L15,5 L10,0 Z M-5,5 L0,10 L5,5 L0,0 Z M0,10 L5,15 L10,10 L5,5 Z" fill="#0d0d0d"/>
    </pattern>
    <filter id="textGlow">
      <feGaussianBlur stdDeviation="2" result="blur" />
      <feMerge>
        <feMergeNode in="blur"/>
        <feMergeNode in="SourceGraphic"/>
      </feMerge>
    </filter>
    <linearGradient id="neonBar" x1="0%" y1="0%" x2="100%" y2="0%">
        <stop offset="0%" stop-color="#111111"/>
        <stop offset="100%" stop-color="#39FF14"/>
    </linearGradient>
    <linearGradient id="scanlineGrad" x1="0%" y1="0%" x2="100%" y2="0%">
        <stop offset="0%" stop-color="#39FF14" stop-opacity="0"/>
        <stop offset="50%" stop-color="#39FF14" stop-opacity="0.18"/>
        <stop offset="100%" stop-color="#39FF14" stop-opacity="0"/>
    </linearGradient>
    <clipPath id="dashClip">
        <rect x="0" y="0" width="850" height="200" rx="12"/>
    </clipPath>
  </defs>

  <rect width="100%" height="100%" fill="url(#carbonFiber)" rx="12" stroke="#39FF14" stroke-width="1" stroke-opacity="0.3"/>
  <rect width="100%" height="100%" fill="#000000" opacity="0.6" rx="12" />
  <g><polygon points="87,20 95.6,25 95.6,35 87,40 78.4,35 78.4,25" fill="none" stroke="#39FF14" stroke-width="1" opacity="0.07127708233700913"/>
<polygon points="116,70 124.6,75 124.6,85 116,90 107.4,85 107.4,75" fill="none" stroke="#39FF14" stroke-width="1" opacity="0.07572522823183654"/>
<polygon points="16,86 24.6,91 24.6,101 16,106 7.4,101 7.4,91" fill="none" stroke="#39FF14" stroke-width="1" opacity="0.05268477671253312"/>
<polygon points="531,46 539.6,51 539.6,61 531,66 522.4,61 522.4,51" fill="none" stroke="#39FF14" stroke-width="1" opacity="0.023512708605566878"/>
<polygon points="444,163 452.6,168 452.6,178 444,183 435.4,178 435.4,168" fill="none" stroke="#39FF14" stroke-width="1" opacity="0.06136871448997393"/>
<polygon points="95,144 103.6,149 103.6,159 95,164 86.4,159 86.4,149" fill="none" stroke="#39FF14" stroke-width="1" opacity="0.035326701285534494"/>
<polygon points="839,157 847.6,162 847.6,172 839,177 830.4,172 830.4,162" fill="none" stroke="#39FF14" stroke-width="1" opacity="0.03254034705413794"/>
<polygon points="279,172 287.6,177 287.6,187 279,192 270.4,187 270.4,177" fill="none" stroke="#39FF14" stroke-width="1" opacity="0.07017140622055201"/>
<polygon points="430,50 438.6,55 438.6,65 430,70 421.4,65 421.4,55" fill="none" stroke="#39FF14" stroke-width="1" opacity="0.027153451158084024"/>
<polygon points="734,87 742.6,92 742.6,102 734,107 725.4,102 725.4,92" fill="none" stroke="#39FF14" stroke-width="1" opacity="0.022836002758566277"/>
<polygon points="32,171 40.6,176 40.6,186 32,191 23.4,186 23.4,176" fill="none" stroke="#39FF14" stroke-width="1" opacity="0.03370034639622529"/>
<polygon points="426,167 434.6,172 434.6,182 426,187 417.4,182 417.4,172" fill="none" stroke="#39FF14" stroke-width="1" opacity="0.07708380588808231"/>
<polygon points="8,164 16.6,169 16.6,179 8,184 -0.5999999999999996,179 -0.5999999999999996,169" fill="none" stroke="#39FF14" stroke-width="1" opacity="0.03762861784103795"/>
<polygon points="705,80 713.6,85 713.6,95 705,100 696.4,95 696.4,85" fill="none" stroke="#39FF14" stroke-width="1" opacity="0.0361396002862807"/>
<polygon points="174,164 182.6,169 182.6,179 174,184 165.4,179 165.4,169" fill="none" stroke="#39FF14" stroke-width="1" opacity="0.07971544661681634"/>
<polygon points="222,13 230.6,18 230.6,28 222,33 213.4,28 213.4,18" fill="none" stroke="#39FF14" stroke-width="1" opacity="0.03927168964960548"/>
<polygon points="212,137 220.6,142 220.6,152 212,157 203.4,152 203.4,142" fill="none" stroke="#39FF14" stroke-width="1" opacity="0.06083012548638991"/>
<polygon points="73,170 81.6,175 81.6,185 73,190 64.4,185 64.4,175" fill="none" stroke="#39FF14" stroke-width="1" opacity="0.034922408481780874"/>
<polygon points="697,21 705.6,26 705.6,36 697,41 688.4,36 688.4,26" fill="none" stroke="#39FF14" stroke-width="1" opacity="0.04934531204744247"/>
<polygon points="353,77 361.6,82 361.6,92 353,97 344.4,92 344.4,82" fill="none" stroke="#39FF14" stroke-width="1" opacity="0.03641571629543581"/>
<polygon points="693,37 701.6,42 701.6,52 693,57 684.4,52 684.4,42" fill="none" stroke="#39FF14" stroke-width="1" opacity="0.0670716410415459"/>
<polygon points="435,26 443.6,31 443.6,41 435,46 426.4,41 426.4,31" fill="none" stroke="#39FF14" stroke-width="1" opacity="0.03740911022301653"/>
<polygon points="207,112 215.6,117 215.6,127 207,132 198.4,127 198.4,117" fill="none" stroke="#39FF14" stroke-width="1" opacity="0.038322251689956094"/>
<polygon points="362,190 370.6,195 370.6,205 362,210 353.4,205 353.4,195" fill="none" stroke="#39FF14" stroke-width="1" opacity="0.07079648795894986"/>
<polygon points="331,107 339.6,112 339.6,122 331,127 322.4,122 322.4,112" fill="none" stroke="#39FF14" stroke-width="1" opacity="0.055962843990121275"/>
<polygon points="432,123 440.6,128 440.6,138 432,143 423.4,138 423.4,128" fill="none" stroke="#39FF14" stroke-width="1" opacity="0.02734468937090246"/>
<polygon points="275,173 283.6,178 283.6,188 275,193 266.4,188 266.4,178" fill="none" stroke="#39FF14" stroke-width="1" opacity="0.06898808592715629"/>
<polygon points="368,0 376.6,5 376.6,15 368,20 359.4,15 359.4,5" fill="none" stroke="#39FF14" stroke-width="1" opacity="0.03293205550679723"/>
<polygon points="309,30 317.6,35 317.6,45 309,50 300.4,45 300.4,35" fill="none" stroke="#39FF14" stroke-width="1" opacity="0.023455818641818366"/>
<polygon points="686,31 694.6,36 694.6,46 686,51 677.4,46 677.4,36" fill="none" stroke="#39FF14" stroke-width="1" opacity="0.024061736015499255"/>
</g>

  <!-- HUD Decorative elements -->
  <path d="M 20 20 L 40 20 L 50 30" fill="none" stroke="#39FF14" stroke-width="2" opacity="0.5"/>
  <path d="M 830 180 L 810 180 L 800 170" fill="none" stroke="#39FF14" stroke-width="2" opacity="0.5"/>

  <g clip-path="url(#dashClip)">
    <rect x="-160" y="0" width="160" height="200" fill="url(#scanlineGrad)">
      <animateTransform attributeName="transform" type="translate"
                        from="0 0" to="1010 0" dur="6s" repeatCount="indefinite"/>
    </rect>
  </g>

  <g font-family="'Consolas', 'Fira Code', monospace" text-anchor="middle">

    <!-- NETWORK STATUS -->
    <g transform="translate(130, 100)">
        <circle cx="0" cy="0" r="45" fill="none" stroke="#39FF14" stroke-width="2" stroke-dasharray="10 5">
            <animateTransform attributeName="transform" type="rotate" from="0" to="360" dur="10s" repeatCount="indefinite"/>
        </circle>
        <circle cx="0" cy="0" r="35" fill="#0d0d0d" />
        <text x="0" y="-60" font-size="12" fill="#aaaaaa" letter-spacing="2">ROOT.AUTH</text>
        <text x="0" y="70" font-size="14" fill="#ffffff" font-weight="bold">OPERATIONAL</text>
    </g>

    <!-- ACTIVE USERS -->
    <g transform="translate(330, 100)">
        <text x="0" y="-20" font-size="12" fill="#aaaaaa">CITIZENS</text>
        <text x="0" y="15" font-size="28" fill="#ffffff" font-weight="bold" filter="url(#textGlow)">14,376</text>
        <text x="0" y="35" font-size="10" fill="#777777">VERIFIED HUMANS</text>
    </g>

    <!-- REGISTERED AGENTS -->
    <g transform="translate(530, 100)">
        <text x="0" y="-20" font-size="12" fill="#aaaaaa">AGENTS</text>
        <text x="0" y="15" font-size="28" fill="#00d4ff" font-weight="bold" filter="url(#textGlow)">3,589</text>
        <text x="0" y="35" font-size="10" fill="#777777">REGISTERED DIDs</text>
    </g>

    <!-- TRANSACTIONS -->
    <g transform="translate(730, 100)">
        <text x="0" y="-20" font-size="12" fill="#aaaaaa">TRANSFERS</text>
        <text x="0" y="15" font-size="28" fill="#ffffff" font-weight="bold">33,506</text>
        <text x="0" y="35" font-size="10" fill="#777777">M2M SETTLEMENTS</text>
    </g>
  </g>

  <text x="425" y="185" font-family="'Consolas', 'Fira Code', monospace" font-size="10" fill="#aaaaaa" opacity="0.6" text-anchor="middle">AXIOMID PROJECTED TARGETS (ILLUSTRATIVE): 2026-07-08 16:24:18 UTC // SECURE_HANDSHAKE</text>
</svg>