<svg width="850" height="200" viewBox="0 0 850 200" xmlns="http://www.w3.org/2000/svg">
  <defs>
    <pattern id="carbonFiber" width="10" height="10" patternUnits="userSpaceOnUse">
        <rect width="10" height="10" fill="#050505"/>
        <path d="M0,0 L5,5 L10,0 L5,-5 Z M5,5 L10,10 L15,5 L10,0 Z M-5,5 L0,10 L5,5 L0,0 Z M0,10 L5,15 L10,10 L5,5 Z" fill="#0d0d0d"/>
    </pattern>
    <filter id="textGlow">
      <feGaussianBlur stdDeviation="2" result="blur" />
      <feMerge>
        <feMergeNode in="blur"/>
        <feMergeNode in="SourceGraphic"/>
      </feMerge>
    </filter>
    <linearGradient id="neonBar" x1="0%" y1="0%" x2="100%" y2="0%">
        <stop offset="0%" stop-color="#111111"/>
        <stop offset="100%" stop-color="#39FF14"/>
    </linearGradient>
    <linearGradient id="scanlineGrad" x1="0%" y1="0%" x2="100%" y2="0%">
        <stop offset="0%" stop-color="#39FF14" stop-opacity="0"/>
        <stop offset="50%" stop-color="#39FF14" stop-opacity="0.18"/>
        <stop offset="100%" stop-color="#39FF14" stop-opacity="0"/>
    </linearGradient>
    <clipPath id="dashClip">
        <rect x="0" y="0" width="850" height="200" rx="12"/>
    </clipPath>
  </defs>

  <rect width="100%" height="100%" fill="url(#carbonFiber)" rx="12" stroke="#39FF14" stroke-width="1" stroke-opacity="0.3"/>
  <rect width="100%" height="100%" fill="#000000" opacity="0.6" rx="12" />
  <g><polygon points="479,-7 487.6,-2 487.6,8 479,13 470.4,8 470.4,-2" fill="none" stroke="#39FF14" stroke-width="1" opacity="0.07268799890734681"/>
<polygon points="160,67 168.6,72 168.6,82 160,87 151.4,82 151.4,72" fill="none" stroke="#39FF14" stroke-width="1" opacity="0.06256102381874125"/>
<polygon points="771,185 779.6,190 779.6,200 771,205 762.4,200 762.4,190" fill="none" stroke="#39FF14" stroke-width="1" opacity="0.0382614198076886"/>
<polygon points="707,58 715.6,63 715.6,73 707,78 698.4,73 698.4,63" fill="none" stroke="#39FF14" stroke-width="1" opacity="0.02457719976458911"/>
<polygon points="267,175 275.6,180 275.6,190 267,195 258.4,190 258.4,180" fill="none" stroke="#39FF14" stroke-width="1" opacity="0.04047800589858108"/>
<polygon points="86,37 94.6,42 94.6,52 86,57 77.4,52 77.4,42" fill="none" stroke="#39FF14" stroke-width="1" opacity="0.03112623123019078"/>
<polygon points="477,190 485.6,195 485.6,205 477,210 468.4,205 468.4,195" fill="none" stroke="#39FF14" stroke-width="1" opacity="0.025021445382667713"/>
<polygon points="342,186 350.6,191 350.6,201 342,206 333.4,201 333.4,191" fill="none" stroke="#39FF14" stroke-width="1" opacity="0.05492631063828177"/>
<polygon points="764,45 772.6,50 772.6,60 764,65 755.4,60 755.4,50" fill="none" stroke="#39FF14" stroke-width="1" opacity="0.054934342994594904"/>
<polygon points="517,58 525.6,63 525.6,73 517,78 508.4,73 508.4,63" fill="none" stroke="#39FF14" stroke-width="1" opacity="0.03260901776113063"/>
<polygon points="613,128 621.6,133 621.6,143 613,148 604.4,143 604.4,133" fill="none" stroke="#39FF14" stroke-width="1" opacity="0.02325653343545208"/>
<polygon points="408,164 416.6,169 416.6,179 408,184 399.4,179 399.4,169" fill="none" stroke="#39FF14" stroke-width="1" opacity="0.02133559621483816"/>
<polygon points="583,35 591.6,40 591.6,50 583,55 574.4,50 574.4,40" fill="none" stroke="#39FF14" stroke-width="1" opacity="0.02281144845904024"/>
<polygon points="697,103 705.6,108 705.6,118 697,123 688.4,118 688.4,108" fill="none" stroke="#39FF14" stroke-width="1" opacity="0.027526868274317676"/>
<polygon points="221,71 229.6,76 229.6,86 221,91 212.4,86 212.4,76" fill="none" stroke="#39FF14" stroke-width="1" opacity="0.02803015259106513"/>
<polygon points="74,111 82.6,116 82.6,126 74,131 65.4,126 65.4,116" fill="none" stroke="#39FF14" stroke-width="1" opacity="0.03525550284875703"/>
<polygon points="571,162 579.6,167 579.6,177 571,182 562.4,177 562.4,167" fill="none" stroke="#39FF14" stroke-width="1" opacity="0.07822711271662809"/>
<polygon points="146,-2 154.6,3 154.6,13 146,18 137.4,13 137.4,3" fill="none" stroke="#39FF14" stroke-width="1" opacity="0.058660113546435425"/>
<polygon points="309,159 317.6,164 317.6,174 309,179 300.4,174 300.4,164" fill="none" stroke="#39FF14" stroke-width="1" opacity="0.0376344453227394"/>
<polygon points="102,115 110.6,120 110.6,130 102,135 93.4,130 93.4,120" fill="none" stroke="#39FF14" stroke-width="1" opacity="0.03806398318831079"/>
<polygon points="464,142 472.6,147 472.6,157 464,162 455.4,157 455.4,147" fill="none" stroke="#39FF14" stroke-width="1" opacity="0.0766638490333227"/>
<polygon points="395,106 403.6,111 403.6,121 395,126 386.4,121 386.4,111" fill="none" stroke="#39FF14" stroke-width="1" opacity="0.049134746719619725"/>
<polygon points="36,80 44.6,85 44.6,95 36,100 27.4,95 27.4,85" fill="none" stroke="#39FF14" stroke-width="1" opacity="0.052352116934752696"/>
<polygon points="639,51 647.6,56 647.6,66 639,71 630.4,66 630.4,56" fill="none" stroke="#39FF14" stroke-width="1" opacity="0.06958413792501596"/>
<polygon points="849,-3 857.6,2 857.6,12 849,17 840.4,12 840.4,2" fill="none" stroke="#39FF14" stroke-width="1" opacity="0.05158965803830891"/>
<polygon points="782,123 790.6,128 790.6,138 782,143 773.4,138 773.4,128" fill="none" stroke="#39FF14" stroke-width="1" opacity="0.03587925194557716"/>
<polygon points="678,18 686.6,23 686.6,33 678,38 669.4,33 669.4,23" fill="none" stroke="#39FF14" stroke-width="1" opacity="0.07401345595114422"/>
<polygon points="158,15 166.6,20 166.6,30 158,35 149.4,30 149.4,20" fill="none" stroke="#39FF14" stroke-width="1" opacity="0.06364577798796274"/>
<polygon points="208,59 216.6,64 216.6,74 208,79 199.4,74 199.4,64" fill="none" stroke="#39FF14" stroke-width="1" opacity="0.04611168763690328"/>
<polygon points="238,146 246.6,151 246.6,161 238,166 229.4,161 229.4,151" fill="none" stroke="#39FF14" stroke-width="1" opacity="0.035429487562301853"/>
</g>

  <!-- HUD Decorative elements -->
  <path d="M 20 20 L 40 20 L 50 30" fill="none" stroke="#39FF14" stroke-width="2" opacity="0.5"/>
  <path d="M 830 180 L 810 180 L 800 170" fill="none" stroke="#39FF14" stroke-width="2" opacity="0.5"/>

  <g clip-path="url(#dashClip)">
    <rect x="-160" y="0" width="160" height="200" fill="url(#scanlineGrad)">
      <animateTransform attributeName="transform" type="translate"
                        from="0 0" to="1010 0" dur="6s" repeatCount="indefinite"/>
    </rect>
  </g>

  <g font-family="'Consolas', 'Fira Code', monospace" text-anchor="middle">

    <!-- NETWORK STATUS -->
    <g transform="translate(130, 100)">
        <circle cx="0" cy="0" r="45" fill="none" stroke="#39FF14" stroke-width="2" stroke-dasharray="10 5">
            <animateTransform attributeName="transform" type="rotate" from="0" to="360" dur="10s" repeatCount="indefinite"/>
        </circle>
        <circle cx="0" cy="0" r="35" fill="#0d0d0d" />
        <text x="0" y="-60" font-size="12" fill="#aaaaaa" letter-spacing="2">ROOT.AUTH</text>
        <text x="0" y="70" font-size="14" fill="#ffffff" font-weight="bold">OPERATIONAL</text>
    </g>

    <!-- ACTIVE USERS -->
    <g transform="translate(330, 100)">
        <text x="0" y="-20" font-size="12" fill="#aaaaaa">CITIZENS</text>
        <text x="0" y="15" font-size="28" fill="#ffffff" font-weight="bold" filter="url(#textGlow)">15,321</text>
        <text x="0" y="35" font-size="10" fill="#777777">VERIFIED HUMANS</text>
    </g>

    <!-- REGISTERED AGENTS -->
    <g transform="translate(530, 100)">
        <text x="0" y="-20" font-size="12" fill="#aaaaaa">AGENTS</text>
        <text x="0" y="15" font-size="28" fill="#00d4ff" font-weight="bold" filter="url(#textGlow)">3,667</text>
        <text x="0" y="35" font-size="10" fill="#777777">REGISTERED DIDs</text>
    </g>

    <!-- TRANSACTIONS -->
    <g transform="translate(730, 100)">
        <text x="0" y="-20" font-size="12" fill="#aaaaaa">TRANSFERS</text>
        <text x="0" y="15" font-size="28" fill="#ffffff" font-weight="bold">27,730</text>
        <text x="0" y="35" font-size="10" fill="#777777">M2M SETTLEMENTS</text>
    </g>
  </g>

  <text x="425" y="185" font-family="'Consolas', 'Fira Code', monospace" font-size="10" fill="#aaaaaa" opacity="0.6" text-anchor="middle">AXIOMID PROJECTED TARGETS (ILLUSTRATIVE): 2026-07-23 13:24:09 UTC // SECURE_HANDSHAKE</text>
</svg>