<svg width="850" height="200" viewBox="0 0 850 200" xmlns="http://www.w3.org/2000/svg">
  <defs>
    <pattern id="carbonFiber" width="10" height="10" patternUnits="userSpaceOnUse">
        <rect width="10" height="10" fill="#050505"/>
        <path d="M0,0 L5,5 L10,0 L5,-5 Z M5,5 L10,10 L15,5 L10,0 Z M-5,5 L0,10 L5,5 L0,0 Z M0,10 L5,15 L10,10 L5,5 Z" fill="#0d0d0d"/>
    </pattern>
    <filter id="textGlow">
      <feGaussianBlur stdDeviation="2" result="blur" />
      <feMerge>
        <feMergeNode in="blur"/>
        <feMergeNode in="SourceGraphic"/>
      </feMerge>
    </filter>
    <linearGradient id="neonBar" x1="0%" y1="0%" x2="100%" y2="0%">
        <stop offset="0%" stop-color="#111111"/>
        <stop offset="100%" stop-color="#39FF14"/>
    </linearGradient>
    <linearGradient id="scanlineGrad" x1="0%" y1="0%" x2="100%" y2="0%">
        <stop offset="0%" stop-color="#39FF14" stop-opacity="0"/>
        <stop offset="50%" stop-color="#39FF14" stop-opacity="0.18"/>
        <stop offset="100%" stop-color="#39FF14" stop-opacity="0"/>
    </linearGradient>
    <clipPath id="dashClip">
        <rect x="0" y="0" width="850" height="200" rx="12"/>
    </clipPath>
  </defs>

  <rect width="100%" height="100%" fill="url(#carbonFiber)" rx="12" stroke="#39FF14" stroke-width="1" stroke-opacity="0.3"/>
  <rect width="100%" height="100%" fill="#000000" opacity="0.6" rx="12" />
  <g><polygon points="678,176 686.6,181 686.6,191 678,196 669.4,191 669.4,181" fill="none" stroke="#39FF14" stroke-width="1" opacity="0.07033154854229472"/>
<polygon points="474,87 482.6,92 482.6,102 474,107 465.4,102 465.4,92" fill="none" stroke="#39FF14" stroke-width="1" opacity="0.02295932414812828"/>
<polygon points="360,64 368.6,69 368.6,79 360,84 351.4,79 351.4,69" fill="none" stroke="#39FF14" stroke-width="1" opacity="0.05205115884340361"/>
<polygon points="130,9 138.6,14 138.6,24 130,29 121.4,24 121.4,14" fill="none" stroke="#39FF14" stroke-width="1" opacity="0.027048576475648647"/>
<polygon points="620,141 628.6,146 628.6,156 620,161 611.4,156 611.4,146" fill="none" stroke="#39FF14" stroke-width="1" opacity="0.05922947221116098"/>
<polygon points="342,167 350.6,172 350.6,182 342,187 333.4,182 333.4,172" fill="none" stroke="#39FF14" stroke-width="1" opacity="0.027635436456457316"/>
<polygon points="703,31 711.6,36 711.6,46 703,51 694.4,46 694.4,36" fill="none" stroke="#39FF14" stroke-width="1" opacity="0.04145509651166557"/>
<polygon points="158,139 166.6,144 166.6,154 158,159 149.4,154 149.4,144" fill="none" stroke="#39FF14" stroke-width="1" opacity="0.021862433667196375"/>
<polygon points="704,104 712.6,109 712.6,119 704,124 695.4,119 695.4,109" fill="none" stroke="#39FF14" stroke-width="1" opacity="0.07470057745061721"/>
<polygon points="335,1 343.6,6 343.6,16 335,21 326.4,16 326.4,6" fill="none" stroke="#39FF14" stroke-width="1" opacity="0.021618233859706428"/>
<polygon points="594,85 602.6,90 602.6,100 594,105 585.4,100 585.4,90" fill="none" stroke="#39FF14" stroke-width="1" opacity="0.04098257014497859"/>
<polygon points="320,180 328.6,185 328.6,195 320,200 311.4,195 311.4,185" fill="none" stroke="#39FF14" stroke-width="1" opacity="0.02849503921650083"/>
<polygon points="357,60 365.6,65 365.6,75 357,80 348.4,75 348.4,65" fill="none" stroke="#39FF14" stroke-width="1" opacity="0.05134050702321377"/>
<polygon points="663,156 671.6,161 671.6,171 663,176 654.4,171 654.4,161" fill="none" stroke="#39FF14" stroke-width="1" opacity="0.044222351737385604"/>
<polygon points="817,135 825.6,140 825.6,150 817,155 808.4,150 808.4,140" fill="none" stroke="#39FF14" stroke-width="1" opacity="0.06429945296174498"/>
<polygon points="38,111 46.6,116 46.6,126 38,131 29.4,126 29.4,116" fill="none" stroke="#39FF14" stroke-width="1" opacity="0.05338826894031107"/>
<polygon points="440,165 448.6,170 448.6,180 440,185 431.4,180 431.4,170" fill="none" stroke="#39FF14" stroke-width="1" opacity="0.054246412236242963"/>
<polygon points="392,108 400.6,113 400.6,123 392,128 383.4,123 383.4,113" fill="none" stroke="#39FF14" stroke-width="1" opacity="0.0796695667576106"/>
<polygon points="523,20 531.6,25 531.6,35 523,40 514.4,35 514.4,25" fill="none" stroke="#39FF14" stroke-width="1" opacity="0.06470366912164843"/>
<polygon points="409,115 417.6,120 417.6,130 409,135 400.4,130 400.4,120" fill="none" stroke="#39FF14" stroke-width="1" opacity="0.04013210441989862"/>
<polygon points="642,55 650.6,60 650.6,70 642,75 633.4,70 633.4,60" fill="none" stroke="#39FF14" stroke-width="1" opacity="0.052362446358285006"/>
<polygon points="385,100 393.6,105 393.6,115 385,120 376.4,115 376.4,105" fill="none" stroke="#39FF14" stroke-width="1" opacity="0.071558620054668"/>
<polygon points="454,33 462.6,38 462.6,48 454,53 445.4,48 445.4,38" fill="none" stroke="#39FF14" stroke-width="1" opacity="0.07768880486116089"/>
<polygon points="804,1 812.6,6 812.6,16 804,21 795.4,16 795.4,6" fill="none" stroke="#39FF14" stroke-width="1" opacity="0.047684504763728305"/>
<polygon points="330,84 338.6,89 338.6,99 330,104 321.4,99 321.4,89" fill="none" stroke="#39FF14" stroke-width="1" opacity="0.06994763673221734"/>
<polygon points="146,167 154.6,172 154.6,182 146,187 137.4,182 137.4,172" fill="none" stroke="#39FF14" stroke-width="1" opacity="0.06859632494891993"/>
<polygon points="804,-3 812.6,2 812.6,12 804,17 795.4,12 795.4,2" fill="none" stroke="#39FF14" stroke-width="1" opacity="0.047227213154695205"/>
<polygon points="255,103 263.6,108 263.6,118 255,123 246.4,118 246.4,108" fill="none" stroke="#39FF14" stroke-width="1" opacity="0.06867772812081531"/>
<polygon points="121,50 129.6,55 129.6,65 121,70 112.4,65 112.4,55" fill="none" stroke="#39FF14" stroke-width="1" opacity="0.03965968088242859"/>
<polygon points="747,60 755.6,65 755.6,75 747,80 738.4,75 738.4,65" fill="none" stroke="#39FF14" stroke-width="1" opacity="0.057629901892805355"/>
</g>

  <!-- HUD Decorative elements -->
  <path d="M 20 20 L 40 20 L 50 30" fill="none" stroke="#39FF14" stroke-width="2" opacity="0.5"/>
  <path d="M 830 180 L 810 180 L 800 170" fill="none" stroke="#39FF14" stroke-width="2" opacity="0.5"/>

  <g clip-path="url(#dashClip)">
    <rect x="-160" y="0" width="160" height="200" fill="url(#scanlineGrad)">
      <animateTransform attributeName="transform" type="translate"
                        from="0 0" to="1010 0" dur="6s" repeatCount="indefinite"/>
    </rect>
  </g>

  <g font-family="'Consolas', 'Fira Code', monospace" text-anchor="middle">

    <!-- NETWORK STATUS -->
    <g transform="translate(130, 100)">
        <circle cx="0" cy="0" r="45" fill="none" stroke="#39FF14" stroke-width="2" stroke-dasharray="10 5">
            <animateTransform attributeName="transform" type="rotate" from="0" to="360" dur="10s" repeatCount="indefinite"/>
        </circle>
        <circle cx="0" cy="0" r="35" fill="#0d0d0d" />
        <text x="0" y="-60" font-size="12" fill="#aaaaaa" letter-spacing="2">ROOT.AUTH</text>
        <text x="0" y="70" font-size="14" fill="#ffffff" font-weight="bold">OPERATIONAL</text>
    </g>

    <!-- ACTIVE USERS -->
    <g transform="translate(330, 100)">
        <text x="0" y="-20" font-size="12" fill="#aaaaaa">CITIZENS</text>
        <text x="0" y="15" font-size="28" fill="#ffffff" font-weight="bold" filter="url(#textGlow)">14,211</text>
        <text x="0" y="35" font-size="10" fill="#777777">VERIFIED HUMANS</text>
    </g>

    <!-- REGISTERED AGENTS -->
    <g transform="translate(530, 100)">
        <text x="0" y="-20" font-size="12" fill="#aaaaaa">AGENTS</text>
        <text x="0" y="15" font-size="28" fill="#00d4ff" font-weight="bold" filter="url(#textGlow)">3,581</text>
        <text x="0" y="35" font-size="10" fill="#777777">REGISTERED DIDs</text>
    </g>

    <!-- TRANSACTIONS -->
    <g transform="translate(730, 100)">
        <text x="0" y="-20" font-size="12" fill="#aaaaaa">TRANSFERS</text>
        <text x="0" y="15" font-size="28" fill="#ffffff" font-weight="bold">35,500</text>
        <text x="0" y="35" font-size="10" fill="#777777">M2M SETTLEMENTS</text>
    </g>
  </g>

  <text x="425" y="185" font-family="'Consolas', 'Fira Code', monospace" font-size="10" fill="#aaaaaa" opacity="0.6" text-anchor="middle">AXIOMID PROJECTED TARGETS (ILLUSTRATIVE): 2026-07-22 11:00:32 UTC // SECURE_HANDSHAKE</text>
</svg>