<svg width="850" height="200" viewBox="0 0 850 200" xmlns="http://www.w3.org/2000/svg">
  <defs>
    <!-- Carbon Fiber Pattern -->
    <pattern id="carbonFiber" width="10" height="10" patternUnits="userSpaceOnUse">
        <rect width="10" height="10" fill="#050505"/>
        <path d="M0,0 L5,5 L10,0 L5,-5 Z M5,5 L10,10 L15,5 L10,0 Z M-5,5 L0,10 L5,5 L0,0 Z M0,10 L5,15 L10,10 L5,5 Z" fill="#0d0d0d"/>
    </pattern>
    <filter id="glassmorphism">
      <feGaussianBlur stdDeviation="3" result="blur" />
      <feColorMatrix type="matrix" values="1 0 0 0 0  0 1 0 0 0  0 0 1 0 0  0 0 0 18 -7" result="glow" />
      <feBlend in="SourceGraphic" in2="glow" mode="normal" />
    </filter>
    <filter id="textGlow">
      <feGaussianBlur stdDeviation="2" result="blur" />
      <feMerge>
        <feMergeNode in="blur"/>
        <feMergeNode in="SourceGraphic"/>
      </feMerge>
    </filter>
    <linearGradient id="neonBar" x1="0%" y1="0%" x2="100%" y2="0%">
        <stop offset="0%" stop-color="#111111"/>
        <stop offset="100%" stop-color="#39FF14"/>
    </linearGradient>
  </defs>

  <rect width="100%" height="100%" fill="url(#carbonFiber)" rx="12" stroke="#39FF14" stroke-width="1" stroke-opacity="0.3"/>
  <rect width="100%" height="100%" fill="#000000" opacity="0.6" rx="12" />
  <g><polygon points="675,104 683.6,109 683.6,119 675,124 666.4,119 666.4,109" fill="none" stroke="#39FF14" stroke-width="1" opacity="0.04665228758931701"/>
<polygon points="456,41 464.6,46 464.6,56 456,61 447.4,56 447.4,46" fill="none" stroke="#39FF14" stroke-width="1" opacity="0.05024069825686051"/>
<polygon points="617,150 625.6,155 625.6,165 617,170 608.4,165 608.4,155" fill="none" stroke="#39FF14" stroke-width="1" opacity="0.04362128255215186"/>
<polygon points="150,22 158.6,27 158.6,37 150,42 141.4,37 141.4,27" fill="none" stroke="#39FF14" stroke-width="1" opacity="0.06755255643747056"/>
<polygon points="235,2 243.6,7 243.6,17 235,22 226.4,17 226.4,7" fill="none" stroke="#39FF14" stroke-width="1" opacity="0.07558285759764892"/>
<polygon points="4,181 12.6,186 12.6,196 4,201 -4.6,196 -4.6,186" fill="none" stroke="#39FF14" stroke-width="1" opacity="0.060229209000321624"/>
<polygon points="621,61 629.6,66 629.6,76 621,81 612.4,76 612.4,66" fill="none" stroke="#39FF14" stroke-width="1" opacity="0.0395734726037599"/>
<polygon points="451,85 459.6,90 459.6,100 451,105 442.4,100 442.4,90" fill="none" stroke="#39FF14" stroke-width="1" opacity="0.04316666098425834"/>
<polygon points="841,183 849.6,188 849.6,198 841,203 832.4,198 832.4,188" fill="none" stroke="#39FF14" stroke-width="1" opacity="0.07790155980730039"/>
<polygon points="432,144 440.6,149 440.6,159 432,164 423.4,159 423.4,149" fill="none" stroke="#39FF14" stroke-width="1" opacity="0.023149119016774748"/>
<polygon points="1,190 9.6,195 9.6,205 1,210 -7.6,205 -7.6,195" fill="none" stroke="#39FF14" stroke-width="1" opacity="0.05337390214968879"/>
<polygon points="71,166 79.6,171 79.6,181 71,186 62.4,181 62.4,171" fill="none" stroke="#39FF14" stroke-width="1" opacity="0.04570781187296777"/>
<polygon points="441,120 449.6,125 449.6,135 441,140 432.4,135 432.4,125" fill="none" stroke="#39FF14" stroke-width="1" opacity="0.07903696247115956"/>
<polygon points="750,181 758.6,186 758.6,196 750,201 741.4,196 741.4,186" fill="none" stroke="#39FF14" stroke-width="1" opacity="0.07906902743008565"/>
<polygon points="54,165 62.6,170 62.6,180 54,185 45.4,180 45.4,170" fill="none" stroke="#39FF14" stroke-width="1" opacity="0.07719246898838131"/>
<polygon points="637,23 645.6,28 645.6,38 637,43 628.4,38 628.4,28" fill="none" stroke="#39FF14" stroke-width="1" opacity="0.06756977223550559"/>
<polygon points="726,41 734.6,46 734.6,56 726,61 717.4,56 717.4,46" fill="none" stroke="#39FF14" stroke-width="1" opacity="0.06009647002185438"/>
<polygon points="800,112 808.6,117 808.6,127 800,132 791.4,127 791.4,117" fill="none" stroke="#39FF14" stroke-width="1" opacity="0.06305748181518178"/>
<polygon points="777,100 785.6,105 785.6,115 777,120 768.4,115 768.4,105" fill="none" stroke="#39FF14" stroke-width="1" opacity="0.03451778861524547"/>
<polygon points="762,66 770.6,71 770.6,81 762,86 753.4,81 753.4,71" fill="none" stroke="#39FF14" stroke-width="1" opacity="0.07909822106722597"/>
<polygon points="612,88 620.6,93 620.6,103 612,108 603.4,103 603.4,93" fill="none" stroke="#39FF14" stroke-width="1" opacity="0.042322621341646896"/>
<polygon points="473,98 481.6,103 481.6,113 473,118 464.4,113 464.4,103" fill="none" stroke="#39FF14" stroke-width="1" opacity="0.07199496594047057"/>
<polygon points="601,24 609.6,29 609.6,39 601,44 592.4,39 592.4,29" fill="none" stroke="#39FF14" stroke-width="1" opacity="0.03189107820532715"/>
<polygon points="604,44 612.6,49 612.6,59 604,64 595.4,59 595.4,49" fill="none" stroke="#39FF14" stroke-width="1" opacity="0.03297848858830729"/>
<polygon points="8,-2 16.6,3 16.6,13 8,18 -0.5999999999999996,13 -0.5999999999999996,3" fill="none" stroke="#39FF14" stroke-width="1" opacity="0.07541808636401845"/>
<polygon points="319,139 327.6,144 327.6,154 319,159 310.4,154 310.4,144" fill="none" stroke="#39FF14" stroke-width="1" opacity="0.0700709483539409"/>
<polygon points="139,100 147.6,105 147.6,115 139,120 130.4,115 130.4,105" fill="none" stroke="#39FF14" stroke-width="1" opacity="0.06022416031458008"/>
<polygon points="207,139 215.6,144 215.6,154 207,159 198.4,154 198.4,144" fill="none" stroke="#39FF14" stroke-width="1" opacity="0.07715972601357109"/>
<polygon points="260,116 268.6,121 268.6,131 260,136 251.4,131 251.4,121" fill="none" stroke="#39FF14" stroke-width="1" opacity="0.06301986665338068"/>
<polygon points="737,43 745.6,48 745.6,58 737,63 728.4,58 728.4,48" fill="none" stroke="#39FF14" stroke-width="1" opacity="0.021817662232912215"/>
</g>

  <!-- HUD Decorative elements -->
  <path d="M 20 20 L 40 20 L 50 30" fill="none" stroke="#39FF14" stroke-width="2" opacity="0.5"/>
  <path d="M 830 180 L 810 180 L 800 170" fill="none" stroke="#39FF14" stroke-width="2" opacity="0.5"/>
  <rect x="20" y="100" width="2" height="40" fill="#ffffff" opacity="0.4"/>
  <rect x="828" y="60" width="2" height="40" fill="#39FF14" opacity="0.6"/>

  <g font-family="'Consolas', 'Fira Code', monospace" text-anchor="middle">

    <!-- SYSTEM STATUS -->
    <g transform="translate(130, 100)">
        <circle cx="0" cy="0" r="45" fill="none" stroke="#111111" stroke-width="8" />
        <circle cx="0" cy="0" r="45" fill="none" stroke="#39FF14" stroke-width="2" stroke-dasharray="10 5">
            <animateTransform attributeName="transform" type="rotate" from="0" to="360" dur="10s" repeatCount="indefinite"/>
        </circle>
        <circle cx="0" cy="0" r="35" fill="#0d0d0d" />
        <circle cx="0" cy="0" r="6" fill="#39FF14" filter="url(#textGlow)">
            <animate attributeName="opacity" values="1;0.3;1" dur="2s" repeatCount="indefinite"/>
        </circle>
        <text x="0" y="-60" font-size="12" fill="#aaaaaa" letter-spacing="2">SYS.CORE</text>
        <text x="0" y="70" font-size="14" fill="#ffffff" font-weight="bold">ONLINE</text>
    </g>

    <!-- LIVE TRAFFIC -->
    <g transform="translate(330, 100)">
        <rect x="-60" y="-45" width="120" height="90" fill="#0a0a0a" rx="8" stroke="#39FF14" stroke-opacity="0.4" stroke-width="1"/>
        <text x="0" y="-20" font-size="12" fill="#aaaaaa">NETWORK LOAD</text>
        <text x="0" y="15" font-size="28" fill="#ffffff" font-weight="bold" filter="url(#textGlow)">4078</text>
        <text x="0" y="35" font-size="10" fill="#777777">ACTIVE SESSIONS</text>
    </g>

    <!-- ACTIVE AGENTS -->
    <g transform="translate(530, 100)">
        <rect x="-60" y="-45" width="120" height="90" fill="#0a0a0a" rx="8" stroke="#39FF14" stroke-opacity="0.4" stroke-width="1"/>
        <text x="0" y="-20" font-size="12" fill="#aaaaaa">SWARM ENTITIES</text>
        <text x="0" y="15" font-size="28" fill="#ffffff" font-weight="bold" filter="url(#textGlow)">81</text>
        <text x="0" y="35" font-size="10" fill="#777777">AUTONOMOUS</text>
    </g>

    <!-- UPTIME -->
    <g transform="translate(730, 100)">
        <path d="M -40 -35 L 40 -35 L 50 -25 L 50 35 L -40 35 L -50 25 Z" fill="#0a0a0a" stroke="#39FF14" stroke-opacity="0.4" stroke-width="1"/>
        <text x="0" y="-15" font-size="12" fill="#aaaaaa">CONTINUITY</text>
        <text x="0" y="15" font-size="24" fill="#ffffff" font-weight="bold">332<tspan font-size="14" fill="#777777">d</tspan></text>
        <rect x="-35" y="25" width="70" height="4" fill="url(#neonBar)" rx="2"/>
    </g>
  </g>

  <text x="425" y="185" font-family="'Consolas', 'Fira Code', monospace" font-size="10" fill="#aaaaaa" opacity="0.6" text-anchor="middle">LAST TELEMETRY PING: 2026-05-02 18:23:43 UTC // ENCRYPTED_TUNNEL</text>
</svg>