<svg width="850" height="200" viewBox="0 0 850 200" xmlns="http://www.w3.org/2000/svg">
  <defs>
    <!-- Carbon Fiber Pattern -->
    <pattern id="carbonFiber" width="10" height="10" patternUnits="userSpaceOnUse">
        <rect width="10" height="10" fill="#050505"/>
        <path d="M0,0 L5,5 L10,0 L5,-5 Z M5,5 L10,10 L15,5 L10,0 Z M-5,5 L0,10 L5,5 L0,0 Z M0,10 L5,15 L10,10 L5,5 Z" fill="#0d0d0d"/>
    </pattern>
    <filter id="glassmorphism">
      <feGaussianBlur stdDeviation="3" result="blur" />
      <feColorMatrix type="matrix" values="1 0 0 0 0  0 1 0 0 0  0 0 1 0 0  0 0 0 18 -7" result="glow" />
      <feBlend in="SourceGraphic" in2="glow" mode="normal" />
    </filter>
    <filter id="textGlow">
      <feGaussianBlur stdDeviation="2" result="blur" />
      <feMerge>
        <feMergeNode in="blur"/>
        <feMergeNode in="SourceGraphic"/>
      </feMerge>
    </filter>
    <linearGradient id="neonBar" x1="0%" y1="0%" x2="100%" y2="0%">
        <stop offset="0%" stop-color="#111111"/>
        <stop offset="100%" stop-color="#39FF14"/>
    </linearGradient>
  </defs>

  <rect width="100%" height="100%" fill="url(#carbonFiber)" rx="12" stroke="#39FF14" stroke-width="1" stroke-opacity="0.3"/>
  <rect width="100%" height="100%" fill="#000000" opacity="0.6" rx="12" />
  <g><polygon points="607,53 615.6,58 615.6,68 607,73 598.4,68 598.4,58" fill="none" stroke="#39FF14" stroke-width="1" opacity="0.026269052709362556"/>
<polygon points="42,68 50.6,73 50.6,83 42,88 33.4,83 33.4,73" fill="none" stroke="#39FF14" stroke-width="1" opacity="0.07209696213890857"/>
<polygon points="315,134 323.6,139 323.6,149 315,154 306.4,149 306.4,139" fill="none" stroke="#39FF14" stroke-width="1" opacity="0.062192277224567424"/>
<polygon points="517,50 525.6,55 525.6,65 517,70 508.4,65 508.4,55" fill="none" stroke="#39FF14" stroke-width="1" opacity="0.06290394839779354"/>
<polygon points="336,91 344.6,96 344.6,106 336,111 327.4,106 327.4,96" fill="none" stroke="#39FF14" stroke-width="1" opacity="0.07914014835471048"/>
<polygon points="503,178 511.6,183 511.6,193 503,198 494.4,193 494.4,183" fill="none" stroke="#39FF14" stroke-width="1" opacity="0.03739557508994504"/>
<polygon points="26,87 34.6,92 34.6,102 26,107 17.4,102 17.4,92" fill="none" stroke="#39FF14" stroke-width="1" opacity="0.0770883118014639"/>
<polygon points="240,39 248.6,44 248.6,54 240,59 231.4,54 231.4,44" fill="none" stroke="#39FF14" stroke-width="1" opacity="0.0748022779684537"/>
<polygon points="440,69 448.6,74 448.6,84 440,89 431.4,84 431.4,74" fill="none" stroke="#39FF14" stroke-width="1" opacity="0.055102271924468316"/>
<polygon points="127,20 135.6,25 135.6,35 127,40 118.4,35 118.4,25" fill="none" stroke="#39FF14" stroke-width="1" opacity="0.0502930208106047"/>
<polygon points="229,109 237.6,114 237.6,124 229,129 220.4,124 220.4,114" fill="none" stroke="#39FF14" stroke-width="1" opacity="0.06926483251155417"/>
<polygon points="846,104 854.6,109 854.6,119 846,124 837.4,119 837.4,109" fill="none" stroke="#39FF14" stroke-width="1" opacity="0.07446219273299753"/>
<polygon points="679,13 687.6,18 687.6,28 679,33 670.4,28 670.4,18" fill="none" stroke="#39FF14" stroke-width="1" opacity="0.07609393528567342"/>
<polygon points="232,180 240.6,185 240.6,195 232,200 223.4,195 223.4,185" fill="none" stroke="#39FF14" stroke-width="1" opacity="0.06304325170842624"/>
<polygon points="636,30 644.6,35 644.6,45 636,50 627.4,45 627.4,35" fill="none" stroke="#39FF14" stroke-width="1" opacity="0.026115125137155137"/>
<polygon points="101,165 109.6,170 109.6,180 101,185 92.4,180 92.4,170" fill="none" stroke="#39FF14" stroke-width="1" opacity="0.05788079760550334"/>
<polygon points="237,110 245.6,115 245.6,125 237,130 228.4,125 228.4,115" fill="none" stroke="#39FF14" stroke-width="1" opacity="0.05066071727390947"/>
<polygon points="667,64 675.6,69 675.6,79 667,84 658.4,79 658.4,69" fill="none" stroke="#39FF14" stroke-width="1" opacity="0.04642606835640785"/>
<polygon points="25,48 33.6,53 33.6,63 25,68 16.4,63 16.4,53" fill="none" stroke="#39FF14" stroke-width="1" opacity="0.029210318659713935"/>
<polygon points="725,70 733.6,75 733.6,85 725,90 716.4,85 716.4,75" fill="none" stroke="#39FF14" stroke-width="1" opacity="0.04065083344376011"/>
<polygon points="366,31 374.6,36 374.6,46 366,51 357.4,46 357.4,36" fill="none" stroke="#39FF14" stroke-width="1" opacity="0.021558363329017075"/>
<polygon points="495,66 503.6,71 503.6,81 495,86 486.4,81 486.4,71" fill="none" stroke="#39FF14" stroke-width="1" opacity="0.045045091265094934"/>
<polygon points="408,61 416.6,66 416.6,76 408,81 399.4,76 399.4,66" fill="none" stroke="#39FF14" stroke-width="1" opacity="0.02054609276014236"/>
<polygon points="332,40 340.6,45 340.6,55 332,60 323.4,55 323.4,45" fill="none" stroke="#39FF14" stroke-width="1" opacity="0.02744994481889511"/>
<polygon points="493,-3 501.6,2 501.6,12 493,17 484.4,12 484.4,2" fill="none" stroke="#39FF14" stroke-width="1" opacity="0.06663529432639782"/>
<polygon points="477,50 485.6,55 485.6,65 477,70 468.4,65 468.4,55" fill="none" stroke="#39FF14" stroke-width="1" opacity="0.03333059208119749"/>
<polygon points="100,94 108.6,99 108.6,109 100,114 91.4,109 91.4,99" fill="none" stroke="#39FF14" stroke-width="1" opacity="0.07224754755127327"/>
<polygon points="771,182 779.6,187 779.6,197 771,202 762.4,197 762.4,187" fill="none" stroke="#39FF14" stroke-width="1" opacity="0.055629766705122916"/>
<polygon points="491,144 499.6,149 499.6,159 491,164 482.4,159 482.4,149" fill="none" stroke="#39FF14" stroke-width="1" opacity="0.05721811693036302"/>
<polygon points="222,179 230.6,184 230.6,194 222,199 213.4,194 213.4,184" fill="none" stroke="#39FF14" stroke-width="1" opacity="0.05580432104190619"/>
</g>

  <!-- HUD Decorative elements -->
  <path d="M 20 20 L 40 20 L 50 30" fill="none" stroke="#39FF14" stroke-width="2" opacity="0.5"/>
  <path d="M 830 180 L 810 180 L 800 170" fill="none" stroke="#39FF14" stroke-width="2" opacity="0.5"/>
  <rect x="20" y="100" width="2" height="40" fill="#ffffff" opacity="0.4"/>
  <rect x="828" y="60" width="2" height="40" fill="#39FF14" opacity="0.6"/>

  <g font-family="'Consolas', 'Fira Code', monospace" text-anchor="middle">

    <!-- SYSTEM STATUS -->
    <g transform="translate(130, 100)">
        <circle cx="0" cy="0" r="45" fill="none" stroke="#111111" stroke-width="8" />
        <circle cx="0" cy="0" r="45" fill="none" stroke="#39FF14" stroke-width="2" stroke-dasharray="10 5">
            <animateTransform attributeName="transform" type="rotate" from="0" to="360" dur="10s" repeatCount="indefinite"/>
        </circle>
        <circle cx="0" cy="0" r="35" fill="#0d0d0d" />
        <circle cx="0" cy="0" r="6" fill="#39FF14" filter="url(#textGlow)">
            <animate attributeName="opacity" values="1;0.3;1" dur="2s" repeatCount="indefinite"/>
        </circle>
        <text x="0" y="-60" font-size="12" fill="#aaaaaa" letter-spacing="2">SYS.CORE</text>
        <text x="0" y="70" font-size="14" fill="#ffffff" font-weight="bold">ONLINE</text>
    </g>

    <!-- LIVE TRAFFIC -->
    <g transform="translate(330, 100)">
        <rect x="-60" y="-45" width="120" height="90" fill="#0a0a0a" rx="8" stroke="#39FF14" stroke-opacity="0.4" stroke-width="1"/>
        <text x="0" y="-20" font-size="12" fill="#aaaaaa">NETWORK LOAD</text>
        <text x="0" y="15" font-size="28" fill="#ffffff" font-weight="bold" filter="url(#textGlow)">5118</text>
        <text x="0" y="35" font-size="10" fill="#777777">ACTIVE SESSIONS</text>
    </g>

    <!-- ACTIVE AGENTS -->
    <g transform="translate(530, 100)">
        <rect x="-60" y="-45" width="120" height="90" fill="#0a0a0a" rx="8" stroke="#39FF14" stroke-opacity="0.4" stroke-width="1"/>
        <text x="0" y="-20" font-size="12" fill="#aaaaaa">SWARM ENTITIES</text>
        <text x="0" y="15" font-size="28" fill="#ffffff" font-weight="bold" filter="url(#textGlow)">90</text>
        <text x="0" y="35" font-size="10" fill="#777777">AUTONOMOUS</text>
    </g>

    <!-- UPTIME -->
    <g transform="translate(730, 100)">
        <path d="M -40 -35 L 40 -35 L 50 -25 L 50 35 L -40 35 L -50 25 Z" fill="#0a0a0a" stroke="#39FF14" stroke-opacity="0.4" stroke-width="1"/>
        <text x="0" y="-15" font-size="12" fill="#aaaaaa">CONTINUITY</text>
        <text x="0" y="15" font-size="24" fill="#ffffff" font-weight="bold">221<tspan font-size="14" fill="#777777">d</tspan></text>
        <rect x="-35" y="25" width="70" height="4" fill="url(#neonBar)" rx="2"/>
    </g>
  </g>

  <text x="425" y="185" font-family="'Consolas', 'Fira Code', monospace" font-size="10" fill="#aaaaaa" opacity="0.6" text-anchor="middle">LAST TELEMETRY PING: 2026-04-26 16:20:23 UTC // ENCRYPTED_TUNNEL</text>
</svg>