<svg width="850" height="200" viewBox="0 0 850 200" xmlns="http://www.w3.org/2000/svg">
  <defs>
    <!-- Carbon Fiber Pattern -->
    <pattern id="carbonFiber" width="10" height="10" patternUnits="userSpaceOnUse">
        <rect width="10" height="10" fill="#050505"/>
        <path d="M0,0 L5,5 L10,0 L5,-5 Z M5,5 L10,10 L15,5 L10,0 Z M-5,5 L0,10 L5,5 L0,0 Z M0,10 L5,15 L10,10 L5,5 Z" fill="#0d0d0d"/>
    </pattern>
    <filter id="glassmorphism">
      <feGaussianBlur stdDeviation="3" result="blur" />
      <feColorMatrix type="matrix" values="1 0 0 0 0  0 1 0 0 0  0 0 1 0 0  0 0 0 18 -7" result="glow" />
      <feBlend in="SourceGraphic" in2="glow" mode="normal" />
    </filter>
    <filter id="textGlow">
      <feGaussianBlur stdDeviation="2" result="blur" />
      <feMerge>
        <feMergeNode in="blur"/>
        <feMergeNode in="SourceGraphic"/>
      </feMerge>
    </filter>
    <linearGradient id="neonBar" x1="0%" y1="0%" x2="100%" y2="0%">
        <stop offset="0%" stop-color="#111111"/>
        <stop offset="100%" stop-color="#39FF14"/>
    </linearGradient>
  </defs>

  <rect width="100%" height="100%" fill="url(#carbonFiber)" rx="12" stroke="#39FF14" stroke-width="1" stroke-opacity="0.3"/>
  <rect width="100%" height="100%" fill="#000000" opacity="0.6" rx="12" />
  <g><polygon points="366,109 374.6,114 374.6,124 366,129 357.4,124 357.4,114" fill="none" stroke="#39FF14" stroke-width="1" opacity="0.047443535058845805"/>
<polygon points="355,102 363.6,107 363.6,117 355,122 346.4,117 346.4,107" fill="none" stroke="#39FF14" stroke-width="1" opacity="0.027865413601144466"/>
<polygon points="829,174 837.6,179 837.6,189 829,194 820.4,189 820.4,179" fill="none" stroke="#39FF14" stroke-width="1" opacity="0.0492636434597268"/>
<polygon points="163,117 171.6,122 171.6,132 163,137 154.4,132 154.4,122" fill="none" stroke="#39FF14" stroke-width="1" opacity="0.03802189842522141"/>
<polygon points="552,17 560.6,22 560.6,32 552,37 543.4,32 543.4,22" fill="none" stroke="#39FF14" stroke-width="1" opacity="0.020349149113684774"/>
<polygon points="6,62 14.6,67 14.6,77 6,82 -2.5999999999999996,77 -2.5999999999999996,67" fill="none" stroke="#39FF14" stroke-width="1" opacity="0.025626028260985558"/>
<polygon points="222,135 230.6,140 230.6,150 222,155 213.4,150 213.4,140" fill="none" stroke="#39FF14" stroke-width="1" opacity="0.06282874656678517"/>
<polygon points="833,43 841.6,48 841.6,58 833,63 824.4,58 824.4,48" fill="none" stroke="#39FF14" stroke-width="1" opacity="0.02029346498786261"/>
<polygon points="835,46 843.6,51 843.6,61 835,66 826.4,61 826.4,51" fill="none" stroke="#39FF14" stroke-width="1" opacity="0.04167188634327109"/>
<polygon points="656,76 664.6,81 664.6,91 656,96 647.4,91 647.4,81" fill="none" stroke="#39FF14" stroke-width="1" opacity="0.030354223939954357"/>
<polygon points="209,40 217.6,45 217.6,55 209,60 200.4,55 200.4,45" fill="none" stroke="#39FF14" stroke-width="1" opacity="0.07378846450924484"/>
<polygon points="156,163 164.6,168 164.6,178 156,183 147.4,178 147.4,168" fill="none" stroke="#39FF14" stroke-width="1" opacity="0.04924145661211776"/>
<polygon points="77,131 85.6,136 85.6,146 77,151 68.4,146 68.4,136" fill="none" stroke="#39FF14" stroke-width="1" opacity="0.05164807076123484"/>
<polygon points="76,159 84.6,164 84.6,174 76,179 67.4,174 67.4,164" fill="none" stroke="#39FF14" stroke-width="1" opacity="0.06482648456394995"/>
<polygon points="798,163 806.6,168 806.6,178 798,183 789.4,178 789.4,168" fill="none" stroke="#39FF14" stroke-width="1" opacity="0.02277698581867255"/>
<polygon points="509,5 517.6,10 517.6,20 509,25 500.4,20 500.4,10" fill="none" stroke="#39FF14" stroke-width="1" opacity="0.03719671614104468"/>
<polygon points="369,103 377.6,108 377.6,118 369,123 360.4,118 360.4,108" fill="none" stroke="#39FF14" stroke-width="1" opacity="0.07256824149333603"/>
<polygon points="700,53 708.6,58 708.6,68 700,73 691.4,68 691.4,58" fill="none" stroke="#39FF14" stroke-width="1" opacity="0.045913170522104425"/>
<polygon points="140,172 148.6,177 148.6,187 140,192 131.4,187 131.4,177" fill="none" stroke="#39FF14" stroke-width="1" opacity="0.06815905324166056"/>
<polygon points="562,4 570.6,9 570.6,19 562,24 553.4,19 553.4,9" fill="none" stroke="#39FF14" stroke-width="1" opacity="0.0263454665160261"/>
<polygon points="715,44 723.6,49 723.6,59 715,64 706.4,59 706.4,49" fill="none" stroke="#39FF14" stroke-width="1" opacity="0.03170308665512341"/>
<polygon points="591,110 599.6,115 599.6,125 591,130 582.4,125 582.4,115" fill="none" stroke="#39FF14" stroke-width="1" opacity="0.06299502132050262"/>
<polygon points="814,140 822.6,145 822.6,155 814,160 805.4,155 805.4,145" fill="none" stroke="#39FF14" stroke-width="1" opacity="0.04475807442474543"/>
<polygon points="756,2 764.6,7 764.6,17 756,22 747.4,17 747.4,7" fill="none" stroke="#39FF14" stroke-width="1" opacity="0.026016567166688546"/>
<polygon points="833,80 841.6,85 841.6,95 833,100 824.4,95 824.4,85" fill="none" stroke="#39FF14" stroke-width="1" opacity="0.06311927244314074"/>
<polygon points="541,140 549.6,145 549.6,155 541,160 532.4,155 532.4,145" fill="none" stroke="#39FF14" stroke-width="1" opacity="0.03832890070826127"/>
<polygon points="518,5 526.6,10 526.6,20 518,25 509.4,20 509.4,10" fill="none" stroke="#39FF14" stroke-width="1" opacity="0.05558331893829485"/>
<polygon points="133,43 141.6,48 141.6,58 133,63 124.4,58 124.4,48" fill="none" stroke="#39FF14" stroke-width="1" opacity="0.077751977127836"/>
<polygon points="707,69 715.6,74 715.6,84 707,89 698.4,84 698.4,74" fill="none" stroke="#39FF14" stroke-width="1" opacity="0.0641128734444368"/>
<polygon points="262,60 270.6,65 270.6,75 262,80 253.4,75 253.4,65" fill="none" stroke="#39FF14" stroke-width="1" opacity="0.07914510693216804"/>
</g>

  <!-- HUD Decorative elements -->
  <path d="M 20 20 L 40 20 L 50 30" fill="none" stroke="#39FF14" stroke-width="2" opacity="0.5"/>
  <path d="M 830 180 L 810 180 L 800 170" fill="none" stroke="#39FF14" stroke-width="2" opacity="0.5"/>
  <rect x="20" y="100" width="2" height="40" fill="#ffffff" opacity="0.4"/>
  <rect x="828" y="60" width="2" height="40" fill="#39FF14" opacity="0.6"/>

  <g font-family="'Consolas', 'Fira Code', monospace" text-anchor="middle">

    <!-- SYSTEM STATUS -->
    <g transform="translate(130, 100)">
        <circle cx="0" cy="0" r="45" fill="none" stroke="#111111" stroke-width="8" />
        <circle cx="0" cy="0" r="45" fill="none" stroke="#39FF14" stroke-width="2" stroke-dasharray="10 5">
            <animateTransform attributeName="transform" type="rotate" from="0" to="360" dur="10s" repeatCount="indefinite"/>
        </circle>
        <circle cx="0" cy="0" r="35" fill="#0d0d0d" />
        <circle cx="0" cy="0" r="6" fill="#39FF14" filter="url(#textGlow)">
            <animate attributeName="opacity" values="1;0.3;1" dur="2s" repeatCount="indefinite"/>
        </circle>
        <text x="0" y="-60" font-size="12" fill="#aaaaaa" letter-spacing="2">SYS.CORE</text>
        <text x="0" y="70" font-size="14" fill="#ffffff" font-weight="bold">ONLINE</text>
    </g>

    <!-- LIVE TRAFFIC -->
    <g transform="translate(330, 100)">
        <rect x="-60" y="-45" width="120" height="90" fill="#0a0a0a" rx="8" stroke="#39FF14" stroke-opacity="0.4" stroke-width="1"/>
        <text x="0" y="-20" font-size="12" fill="#aaaaaa">NETWORK LOAD</text>
        <text x="0" y="15" font-size="28" fill="#ffffff" font-weight="bold" filter="url(#textGlow)">7948</text>
        <text x="0" y="35" font-size="10" fill="#777777">ACTIVE SESSIONS</text>
    </g>

    <!-- ACTIVE AGENTS -->
    <g transform="translate(530, 100)">
        <rect x="-60" y="-45" width="120" height="90" fill="#0a0a0a" rx="8" stroke="#39FF14" stroke-opacity="0.4" stroke-width="1"/>
        <text x="0" y="-20" font-size="12" fill="#aaaaaa">SWARM ENTITIES</text>
        <text x="0" y="15" font-size="28" fill="#ffffff" font-weight="bold" filter="url(#textGlow)">98</text>
        <text x="0" y="35" font-size="10" fill="#777777">AUTONOMOUS</text>
    </g>

    <!-- UPTIME -->
    <g transform="translate(730, 100)">
        <path d="M -40 -35 L 40 -35 L 50 -25 L 50 35 L -40 35 L -50 25 Z" fill="#0a0a0a" stroke="#39FF14" stroke-opacity="0.4" stroke-width="1"/>
        <text x="0" y="-15" font-size="12" fill="#aaaaaa">CONTINUITY</text>
        <text x="0" y="15" font-size="24" fill="#ffffff" font-weight="bold">332<tspan font-size="14" fill="#777777">d</tspan></text>
        <rect x="-35" y="25" width="70" height="4" fill="url(#neonBar)" rx="2"/>
    </g>
  </g>

  <text x="425" y="185" font-family="'Consolas', 'Fira Code', monospace" font-size="10" fill="#aaaaaa" opacity="0.6" text-anchor="middle">LAST TELEMETRY PING: 2026-04-27 12:41:00 UTC // ENCRYPTED_TUNNEL</text>
</svg>