<svg width="850" height="200" viewBox="0 0 850 200" xmlns="http://www.w3.org/2000/svg">
  <defs>
    <pattern id="carbonFiber" width="10" height="10" patternUnits="userSpaceOnUse">
        <rect width="10" height="10" fill="#050505"/>
        <path d="M0,0 L5,5 L10,0 L5,-5 Z M5,5 L10,10 L15,5 L10,0 Z M-5,5 L0,10 L5,5 L0,0 Z M0,10 L5,15 L10,10 L5,5 Z" fill="#0d0d0d"/>
    </pattern>
    <filter id="textGlow">
      <feGaussianBlur stdDeviation="2" result="blur" />
      <feMerge>
        <feMergeNode in="blur"/>
        <feMergeNode in="SourceGraphic"/>
      </feMerge>
    </filter>
    <linearGradient id="neonBar" x1="0%" y1="0%" x2="100%" y2="0%">
        <stop offset="0%" stop-color="#111111"/>
        <stop offset="100%" stop-color="#39FF14"/>
    </linearGradient>
    <linearGradient id="scanlineGrad" x1="0%" y1="0%" x2="100%" y2="0%">
        <stop offset="0%" stop-color="#39FF14" stop-opacity="0"/>
        <stop offset="50%" stop-color="#39FF14" stop-opacity="0.18"/>
        <stop offset="100%" stop-color="#39FF14" stop-opacity="0"/>
    </linearGradient>
    <clipPath id="dashClip">
        <rect x="0" y="0" width="850" height="200" rx="12"/>
    </clipPath>
  </defs>

  <rect width="100%" height="100%" fill="url(#carbonFiber)" rx="12" stroke="#39FF14" stroke-width="1" stroke-opacity="0.3"/>
  <rect width="100%" height="100%" fill="#000000" opacity="0.6" rx="12" />
  <g><polygon points="470,176 478.6,181 478.6,191 470,196 461.4,191 461.4,181" fill="none" stroke="#39FF14" stroke-width="1" opacity="0.055534789122852354"/>
<polygon points="704,16 712.6,21 712.6,31 704,36 695.4,31 695.4,21" fill="none" stroke="#39FF14" stroke-width="1" opacity="0.036871982288819494"/>
<polygon points="79,21 87.6,26 87.6,36 79,41 70.4,36 70.4,26" fill="none" stroke="#39FF14" stroke-width="1" opacity="0.064957184685462"/>
<polygon points="5,184 13.6,189 13.6,199 5,204 -3.5999999999999996,199 -3.5999999999999996,189" fill="none" stroke="#39FF14" stroke-width="1" opacity="0.0502531758162106"/>
<polygon points="257,75 265.6,80 265.6,90 257,95 248.4,90 248.4,80" fill="none" stroke="#39FF14" stroke-width="1" opacity="0.047550122758801674"/>
<polygon points="46,29 54.6,34 54.6,44 46,49 37.4,44 37.4,34" fill="none" stroke="#39FF14" stroke-width="1" opacity="0.05333219709040325"/>
<polygon points="172,49 180.6,54 180.6,64 172,69 163.4,64 163.4,54" fill="none" stroke="#39FF14" stroke-width="1" opacity="0.07178774195700649"/>
<polygon points="510,93 518.6,98 518.6,108 510,113 501.4,108 501.4,98" fill="none" stroke="#39FF14" stroke-width="1" opacity="0.06302867571541584"/>
<polygon points="383,4 391.6,9 391.6,19 383,24 374.4,19 374.4,9" fill="none" stroke="#39FF14" stroke-width="1" opacity="0.0400580541780344"/>
<polygon points="641,119 649.6,124 649.6,134 641,139 632.4,134 632.4,124" fill="none" stroke="#39FF14" stroke-width="1" opacity="0.050023354415730484"/>
<polygon points="683,42 691.6,47 691.6,57 683,62 674.4,57 674.4,47" fill="none" stroke="#39FF14" stroke-width="1" opacity="0.07479806412803115"/>
<polygon points="295,165 303.6,170 303.6,180 295,185 286.4,180 286.4,170" fill="none" stroke="#39FF14" stroke-width="1" opacity="0.04230190205079856"/>
<polygon points="127,156 135.6,161 135.6,171 127,176 118.4,171 118.4,161" fill="none" stroke="#39FF14" stroke-width="1" opacity="0.0724761526150373"/>
<polygon points="802,107 810.6,112 810.6,122 802,127 793.4,122 793.4,112" fill="none" stroke="#39FF14" stroke-width="1" opacity="0.03332957423003227"/>
<polygon points="324,14 332.6,19 332.6,29 324,34 315.4,29 315.4,19" fill="none" stroke="#39FF14" stroke-width="1" opacity="0.03892504582909462"/>
<polygon points="326,25 334.6,30 334.6,40 326,45 317.4,40 317.4,30" fill="none" stroke="#39FF14" stroke-width="1" opacity="0.06098621608593496"/>
<polygon points="267,147 275.6,152 275.6,162 267,167 258.4,162 258.4,152" fill="none" stroke="#39FF14" stroke-width="1" opacity="0.04165264611586349"/>
<polygon points="125,84 133.6,89 133.6,99 125,104 116.4,99 116.4,89" fill="none" stroke="#39FF14" stroke-width="1" opacity="0.023724493367476743"/>
<polygon points="732,33 740.6,38 740.6,48 732,53 723.4,48 723.4,38" fill="none" stroke="#39FF14" stroke-width="1" opacity="0.03418631889122789"/>
<polygon points="745,73 753.6,78 753.6,88 745,93 736.4,88 736.4,78" fill="none" stroke="#39FF14" stroke-width="1" opacity="0.06564220805414674"/>
<polygon points="226,156 234.6,161 234.6,171 226,176 217.4,171 217.4,161" fill="none" stroke="#39FF14" stroke-width="1" opacity="0.06225369686874707"/>
<polygon points="79,154 87.6,159 87.6,169 79,174 70.4,169 70.4,159" fill="none" stroke="#39FF14" stroke-width="1" opacity="0.07415699870075775"/>
<polygon points="652,27 660.6,32 660.6,42 652,47 643.4,42 643.4,32" fill="none" stroke="#39FF14" stroke-width="1" opacity="0.06528842082709405"/>
<polygon points="639,59 647.6,64 647.6,74 639,79 630.4,74 630.4,64" fill="none" stroke="#39FF14" stroke-width="1" opacity="0.029490223327776052"/>
<polygon points="790,162 798.6,167 798.6,177 790,182 781.4,177 781.4,167" fill="none" stroke="#39FF14" stroke-width="1" opacity="0.025551297953738616"/>
<polygon points="589,66 597.6,71 597.6,81 589,86 580.4,81 580.4,71" fill="none" stroke="#39FF14" stroke-width="1" opacity="0.06300151985034899"/>
<polygon points="735,66 743.6,71 743.6,81 735,86 726.4,81 726.4,71" fill="none" stroke="#39FF14" stroke-width="1" opacity="0.02199138351842767"/>
<polygon points="293,43 301.6,48 301.6,58 293,63 284.4,58 284.4,48" fill="none" stroke="#39FF14" stroke-width="1" opacity="0.06613828477294337"/>
<polygon points="763,124 771.6,129 771.6,139 763,144 754.4,139 754.4,129" fill="none" stroke="#39FF14" stroke-width="1" opacity="0.02221489642138016"/>
<polygon points="563,28 571.6,33 571.6,43 563,48 554.4,43 554.4,33" fill="none" stroke="#39FF14" stroke-width="1" opacity="0.07531752252653899"/>
</g>

  <!-- HUD Decorative elements -->
  <path d="M 20 20 L 40 20 L 50 30" fill="none" stroke="#39FF14" stroke-width="2" opacity="0.5"/>
  <path d="M 830 180 L 810 180 L 800 170" fill="none" stroke="#39FF14" stroke-width="2" opacity="0.5"/>

  <g clip-path="url(#dashClip)">
    <rect x="-160" y="0" width="160" height="200" fill="url(#scanlineGrad)">
      <animateTransform attributeName="transform" type="translate"
                        from="0 0" to="1010 0" dur="6s" repeatCount="indefinite"/>
    </rect>
  </g>

  <g font-family="'Consolas', 'Fira Code', monospace" text-anchor="middle">

    <!-- NETWORK STATUS -->
    <g transform="translate(130, 100)">
        <circle cx="0" cy="0" r="45" fill="none" stroke="#39FF14" stroke-width="2" stroke-dasharray="10 5">
            <animateTransform attributeName="transform" type="rotate" from="0" to="360" dur="10s" repeatCount="indefinite"/>
        </circle>
        <circle cx="0" cy="0" r="35" fill="#0d0d0d" />
        <text x="0" y="-60" font-size="12" fill="#aaaaaa" letter-spacing="2">ROOT.AUTH</text>
        <text x="0" y="70" font-size="14" fill="#ffffff" font-weight="bold">OPERATIONAL</text>
    </g>

    <!-- ACTIVE USERS -->
    <g transform="translate(330, 100)">
        <text x="0" y="-20" font-size="12" fill="#aaaaaa">CITIZENS</text>
        <text x="0" y="15" font-size="28" fill="#ffffff" font-weight="bold" filter="url(#textGlow)">14,611</text>
        <text x="0" y="35" font-size="10" fill="#777777">VERIFIED HUMANS</text>
    </g>

    <!-- REGISTERED AGENTS -->
    <g transform="translate(530, 100)">
        <text x="0" y="-20" font-size="12" fill="#aaaaaa">AGENTS</text>
        <text x="0" y="15" font-size="28" fill="#00d4ff" font-weight="bold" filter="url(#textGlow)">3,995</text>
        <text x="0" y="35" font-size="10" fill="#777777">REGISTERED DIDs</text>
    </g>

    <!-- TRANSACTIONS -->
    <g transform="translate(730, 100)">
        <text x="0" y="-20" font-size="12" fill="#aaaaaa">TRANSFERS</text>
        <text x="0" y="15" font-size="28" fill="#ffffff" font-weight="bold">32,209</text>
        <text x="0" y="35" font-size="10" fill="#777777">M2M SETTLEMENTS</text>
    </g>
  </g>

  <text x="425" y="185" font-family="'Consolas', 'Fira Code', monospace" font-size="10" fill="#aaaaaa" opacity="0.6" text-anchor="middle">AXIOMID PROJECTED TARGETS (ILLUSTRATIVE): 2026-07-12 05:47:22 UTC // SECURE_HANDSHAKE</text>
</svg>