<svg width="850" height="200" viewBox="0 0 850 200" xmlns="http://www.w3.org/2000/svg">
  <defs>
    <pattern id="carbonFiber" width="10" height="10" patternUnits="userSpaceOnUse">
        <rect width="10" height="10" fill="#050505"/>
        <path d="M0,0 L5,5 L10,0 L5,-5 Z M5,5 L10,10 L15,5 L10,0 Z M-5,5 L0,10 L5,5 L0,0 Z M0,10 L5,15 L10,10 L5,5 Z" fill="#0d0d0d"/>
    </pattern>
    <filter id="textGlow">
      <feGaussianBlur stdDeviation="2" result="blur" />
      <feMerge>
        <feMergeNode in="blur"/>
        <feMergeNode in="SourceGraphic"/>
      </feMerge>
    </filter>
    <linearGradient id="neonBar" x1="0%" y1="0%" x2="100%" y2="0%">
        <stop offset="0%" stop-color="#111111"/>
        <stop offset="100%" stop-color="#39FF14"/>
    </linearGradient>
    <linearGradient id="scanlineGrad" x1="0%" y1="0%" x2="100%" y2="0%">
        <stop offset="0%" stop-color="#39FF14" stop-opacity="0"/>
        <stop offset="50%" stop-color="#39FF14" stop-opacity="0.18"/>
        <stop offset="100%" stop-color="#39FF14" stop-opacity="0"/>
    </linearGradient>
    <clipPath id="dashClip">
        <rect x="0" y="0" width="850" height="200" rx="12"/>
    </clipPath>
  </defs>

  <rect width="100%" height="100%" fill="url(#carbonFiber)" rx="12" stroke="#39FF14" stroke-width="1" stroke-opacity="0.3"/>
  <rect width="100%" height="100%" fill="#000000" opacity="0.6" rx="12" />
  <g><polygon points="149,46 157.6,51 157.6,61 149,66 140.4,61 140.4,51" fill="none" stroke="#39FF14" stroke-width="1" opacity="0.06447397642516604"/>
<polygon points="178,67 186.6,72 186.6,82 178,87 169.4,82 169.4,72" fill="none" stroke="#39FF14" stroke-width="1" opacity="0.07516469366659277"/>
<polygon points="436,47 444.6,52 444.6,62 436,67 427.4,62 427.4,52" fill="none" stroke="#39FF14" stroke-width="1" opacity="0.037905086781612765"/>
<polygon points="542,6 550.6,11 550.6,21 542,26 533.4,21 533.4,11" fill="none" stroke="#39FF14" stroke-width="1" opacity="0.023055336845888307"/>
<polygon points="101,125 109.6,130 109.6,140 101,145 92.4,140 92.4,130" fill="none" stroke="#39FF14" stroke-width="1" opacity="0.030250803964594414"/>
<polygon points="807,72 815.6,77 815.6,87 807,92 798.4,87 798.4,77" fill="none" stroke="#39FF14" stroke-width="1" opacity="0.02669642532919855"/>
<polygon points="449,1 457.6,6 457.6,16 449,21 440.4,16 440.4,6" fill="none" stroke="#39FF14" stroke-width="1" opacity="0.04217985803207863"/>
<polygon points="270,59 278.6,64 278.6,74 270,79 261.4,74 261.4,64" fill="none" stroke="#39FF14" stroke-width="1" opacity="0.03364075466594405"/>
<polygon points="485,4 493.6,9 493.6,19 485,24 476.4,19 476.4,9" fill="none" stroke="#39FF14" stroke-width="1" opacity="0.046424572899569264"/>
<polygon points="460,135 468.6,140 468.6,150 460,155 451.4,150 451.4,140" fill="none" stroke="#39FF14" stroke-width="1" opacity="0.023548198714319075"/>
<polygon points="384,119 392.6,124 392.6,134 384,139 375.4,134 375.4,124" fill="none" stroke="#39FF14" stroke-width="1" opacity="0.020853430648285813"/>
<polygon points="768,108 776.6,113 776.6,123 768,128 759.4,123 759.4,113" fill="none" stroke="#39FF14" stroke-width="1" opacity="0.043756348593853765"/>
<polygon points="679,70 687.6,75 687.6,85 679,90 670.4,85 670.4,75" fill="none" stroke="#39FF14" stroke-width="1" opacity="0.023720451684500512"/>
<polygon points="641,148 649.6,153 649.6,163 641,168 632.4,163 632.4,153" fill="none" stroke="#39FF14" stroke-width="1" opacity="0.033942407163815046"/>
<polygon points="729,116 737.6,121 737.6,131 729,136 720.4,131 720.4,121" fill="none" stroke="#39FF14" stroke-width="1" opacity="0.028676655025808302"/>
<polygon points="427,130 435.6,135 435.6,145 427,150 418.4,145 418.4,135" fill="none" stroke="#39FF14" stroke-width="1" opacity="0.04263602899333371"/>
<polygon points="782,163 790.6,168 790.6,178 782,183 773.4,178 773.4,168" fill="none" stroke="#39FF14" stroke-width="1" opacity="0.04894382139533039"/>
<polygon points="750,104 758.6,109 758.6,119 750,124 741.4,119 741.4,109" fill="none" stroke="#39FF14" stroke-width="1" opacity="0.07973476483019112"/>
<polygon points="105,68 113.6,73 113.6,83 105,88 96.4,83 96.4,73" fill="none" stroke="#39FF14" stroke-width="1" opacity="0.06365559322248115"/>
<polygon points="573,-5 581.6,0 581.6,10 573,15 564.4,10 564.4,0" fill="none" stroke="#39FF14" stroke-width="1" opacity="0.04571955305245236"/>
<polygon points="569,38 577.6,43 577.6,53 569,58 560.4,53 560.4,43" fill="none" stroke="#39FF14" stroke-width="1" opacity="0.029686976187832656"/>
<polygon points="800,100 808.6,105 808.6,115 800,120 791.4,115 791.4,105" fill="none" stroke="#39FF14" stroke-width="1" opacity="0.038826640144490665"/>
<polygon points="559,34 567.6,39 567.6,49 559,54 550.4,49 550.4,39" fill="none" stroke="#39FF14" stroke-width="1" opacity="0.022753143666308207"/>
<polygon points="312,183 320.6,188 320.6,198 312,203 303.4,198 303.4,188" fill="none" stroke="#39FF14" stroke-width="1" opacity="0.060196666318585224"/>
<polygon points="245,14 253.6,19 253.6,29 245,34 236.4,29 236.4,19" fill="none" stroke="#39FF14" stroke-width="1" opacity="0.05708641413000069"/>
<polygon points="816,96 824.6,101 824.6,111 816,116 807.4,111 807.4,101" fill="none" stroke="#39FF14" stroke-width="1" opacity="0.04511681523615123"/>
<polygon points="172,42 180.6,47 180.6,57 172,62 163.4,57 163.4,47" fill="none" stroke="#39FF14" stroke-width="1" opacity="0.03455406905549174"/>
<polygon points="792,72 800.6,77 800.6,87 792,92 783.4,87 783.4,77" fill="none" stroke="#39FF14" stroke-width="1" opacity="0.02296364371743064"/>
<polygon points="253,182 261.6,187 261.6,197 253,202 244.4,197 244.4,187" fill="none" stroke="#39FF14" stroke-width="1" opacity="0.034820756558065186"/>
<polygon points="425,23 433.6,28 433.6,38 425,43 416.4,38 416.4,28" fill="none" stroke="#39FF14" stroke-width="1" opacity="0.031893720610094746"/>
</g>

  <!-- HUD Decorative elements -->
  <path d="M 20 20 L 40 20 L 50 30" fill="none" stroke="#39FF14" stroke-width="2" opacity="0.5"/>
  <path d="M 830 180 L 810 180 L 800 170" fill="none" stroke="#39FF14" stroke-width="2" opacity="0.5"/>

  <g clip-path="url(#dashClip)">
    <rect x="-160" y="0" width="160" height="200" fill="url(#scanlineGrad)">
      <animateTransform attributeName="transform" type="translate"
                        from="0 0" to="1010 0" dur="6s" repeatCount="indefinite"/>
    </rect>
  </g>

  <g font-family="'Consolas', 'Fira Code', monospace" text-anchor="middle">

    <!-- NETWORK STATUS -->
    <g transform="translate(130, 100)">
        <circle cx="0" cy="0" r="45" fill="none" stroke="#39FF14" stroke-width="2" stroke-dasharray="10 5">
            <animateTransform attributeName="transform" type="rotate" from="0" to="360" dur="10s" repeatCount="indefinite"/>
        </circle>
        <circle cx="0" cy="0" r="35" fill="#0d0d0d" />
        <text x="0" y="-60" font-size="12" fill="#aaaaaa" letter-spacing="2">ROOT.AUTH</text>
        <text x="0" y="70" font-size="14" fill="#ffffff" font-weight="bold">OPERATIONAL</text>
    </g>

    <!-- ACTIVE USERS -->
    <g transform="translate(330, 100)">
        <text x="0" y="-20" font-size="12" fill="#aaaaaa">CITIZENS</text>
        <text x="0" y="15" font-size="28" fill="#ffffff" font-weight="bold" filter="url(#textGlow)">15,265</text>
        <text x="0" y="35" font-size="10" fill="#777777">VERIFIED HUMANS</text>
    </g>

    <!-- REGISTERED AGENTS -->
    <g transform="translate(530, 100)">
        <text x="0" y="-20" font-size="12" fill="#aaaaaa">AGENTS</text>
        <text x="0" y="15" font-size="28" fill="#00d4ff" font-weight="bold" filter="url(#textGlow)">4,634</text>
        <text x="0" y="35" font-size="10" fill="#777777">REGISTERED DIDs</text>
    </g>

    <!-- TRANSACTIONS -->
    <g transform="translate(730, 100)">
        <text x="0" y="-20" font-size="12" fill="#aaaaaa">TRANSFERS</text>
        <text x="0" y="15" font-size="28" fill="#ffffff" font-weight="bold">28,928</text>
        <text x="0" y="35" font-size="10" fill="#777777">M2M SETTLEMENTS</text>
    </g>
  </g>

  <text x="425" y="185" font-family="'Consolas', 'Fira Code', monospace" font-size="10" fill="#aaaaaa" opacity="0.6" text-anchor="middle">AXIOMID PROJECTED TARGETS (ILLUSTRATIVE): 2026-07-21 01:45:41 UTC // SECURE_HANDSHAKE</text>
</svg>