<svg width="850" height="200" viewBox="0 0 850 200" xmlns="http://www.w3.org/2000/svg">
  <defs>
    <pattern id="carbonFiber" width="10" height="10" patternUnits="userSpaceOnUse">
        <rect width="10" height="10" fill="#050505"/>
        <path d="M0,0 L5,5 L10,0 L5,-5 Z M5,5 L10,10 L15,5 L10,0 Z M-5,5 L0,10 L5,5 L0,0 Z M0,10 L5,15 L10,10 L5,5 Z" fill="#0d0d0d"/>
    </pattern>
    <filter id="textGlow">
      <feGaussianBlur stdDeviation="2" result="blur" />
      <feMerge>
        <feMergeNode in="blur"/>
        <feMergeNode in="SourceGraphic"/>
      </feMerge>
    </filter>
    <linearGradient id="neonBar" x1="0%" y1="0%" x2="100%" y2="0%">
        <stop offset="0%" stop-color="#111111"/>
        <stop offset="100%" stop-color="#39FF14"/>
    </linearGradient>
    <linearGradient id="scanlineGrad" x1="0%" y1="0%" x2="100%" y2="0%">
        <stop offset="0%" stop-color="#39FF14" stop-opacity="0"/>
        <stop offset="50%" stop-color="#39FF14" stop-opacity="0.18"/>
        <stop offset="100%" stop-color="#39FF14" stop-opacity="0"/>
    </linearGradient>
    <clipPath id="dashClip">
        <rect x="0" y="0" width="850" height="200" rx="12"/>
    </clipPath>
  </defs>

  <rect width="100%" height="100%" fill="url(#carbonFiber)" rx="12" stroke="#39FF14" stroke-width="1" stroke-opacity="0.3"/>
  <rect width="100%" height="100%" fill="#000000" opacity="0.6" rx="12" />
  <g><polygon points="10,61 18.6,66 18.6,76 10,81 1.4000000000000004,76 1.4000000000000004,66" fill="none" stroke="#39FF14" stroke-width="1" opacity="0.0206323238842412"/>
<polygon points="486,161 494.6,166 494.6,176 486,181 477.4,176 477.4,166" fill="none" stroke="#39FF14" stroke-width="1" opacity="0.022143526240497296"/>
<polygon points="194,13 202.6,18 202.6,28 194,33 185.4,28 185.4,18" fill="none" stroke="#39FF14" stroke-width="1" opacity="0.0540479403697777"/>
<polygon points="607,141 615.6,146 615.6,156 607,161 598.4,156 598.4,146" fill="none" stroke="#39FF14" stroke-width="1" opacity="0.058060276998114294"/>
<polygon points="775,52 783.6,57 783.6,67 775,72 766.4,67 766.4,57" fill="none" stroke="#39FF14" stroke-width="1" opacity="0.049137105954162166"/>
<polygon points="154,101 162.6,106 162.6,116 154,121 145.4,116 145.4,106" fill="none" stroke="#39FF14" stroke-width="1" opacity="0.07480975101094428"/>
<polygon points="626,147 634.6,152 634.6,162 626,167 617.4,162 617.4,152" fill="none" stroke="#39FF14" stroke-width="1" opacity="0.041366883803084835"/>
<polygon points="597,70 605.6,75 605.6,85 597,90 588.4,85 588.4,75" fill="none" stroke="#39FF14" stroke-width="1" opacity="0.05322235995728905"/>
<polygon points="60,124 68.6,129 68.6,139 60,144 51.4,139 51.4,129" fill="none" stroke="#39FF14" stroke-width="1" opacity="0.0490237897131825"/>
<polygon points="397,176 405.6,181 405.6,191 397,196 388.4,191 388.4,181" fill="none" stroke="#39FF14" stroke-width="1" opacity="0.061322345603586764"/>
<polygon points="685,143 693.6,148 693.6,158 685,163 676.4,158 676.4,148" fill="none" stroke="#39FF14" stroke-width="1" opacity="0.03753439872782101"/>
<polygon points="291,73 299.6,78 299.6,88 291,93 282.4,88 282.4,78" fill="none" stroke="#39FF14" stroke-width="1" opacity="0.06619490352791373"/>
<polygon points="58,181 66.6,186 66.6,196 58,201 49.4,196 49.4,186" fill="none" stroke="#39FF14" stroke-width="1" opacity="0.07955877525274822"/>
<polygon points="720,39 728.6,44 728.6,54 720,59 711.4,54 711.4,44" fill="none" stroke="#39FF14" stroke-width="1" opacity="0.022023719969203773"/>
<polygon points="825,40 833.6,45 833.6,55 825,60 816.4,55 816.4,45" fill="none" stroke="#39FF14" stroke-width="1" opacity="0.0715118838312869"/>
<polygon points="487,53 495.6,58 495.6,68 487,73 478.4,68 478.4,58" fill="none" stroke="#39FF14" stroke-width="1" opacity="0.0639356109714668"/>
<polygon points="105,170 113.6,175 113.6,185 105,190 96.4,185 96.4,175" fill="none" stroke="#39FF14" stroke-width="1" opacity="0.05075587948469738"/>
<polygon points="168,50 176.6,55 176.6,65 168,70 159.4,65 159.4,55" fill="none" stroke="#39FF14" stroke-width="1" opacity="0.04446729706116944"/>
<polygon points="91,185 99.6,190 99.6,200 91,205 82.4,200 82.4,190" fill="none" stroke="#39FF14" stroke-width="1" opacity="0.025884511008077038"/>
<polygon points="439,4 447.6,9 447.6,19 439,24 430.4,19 430.4,9" fill="none" stroke="#39FF14" stroke-width="1" opacity="0.07830813755162126"/>
<polygon points="325,27 333.6,32 333.6,42 325,47 316.4,42 316.4,32" fill="none" stroke="#39FF14" stroke-width="1" opacity="0.030785318590279855"/>
<polygon points="504,149 512.6,154 512.6,164 504,169 495.4,164 495.4,154" fill="none" stroke="#39FF14" stroke-width="1" opacity="0.07942003261469967"/>
<polygon points="484,135 492.6,140 492.6,150 484,155 475.4,150 475.4,140" fill="none" stroke="#39FF14" stroke-width="1" opacity="0.039039301192837425"/>
<polygon points="666,14 674.6,19 674.6,29 666,34 657.4,29 657.4,19" fill="none" stroke="#39FF14" stroke-width="1" opacity="0.06382593413565825"/>
<polygon points="489,99 497.6,104 497.6,114 489,119 480.4,114 480.4,104" fill="none" stroke="#39FF14" stroke-width="1" opacity="0.06973887887641991"/>
<polygon points="297,37 305.6,42 305.6,52 297,57 288.4,52 288.4,42" fill="none" stroke="#39FF14" stroke-width="1" opacity="0.06689948225097628"/>
<polygon points="540,65 548.6,70 548.6,80 540,85 531.4,80 531.4,70" fill="none" stroke="#39FF14" stroke-width="1" opacity="0.05866399408963824"/>
<polygon points="816,130 824.6,135 824.6,145 816,150 807.4,145 807.4,135" fill="none" stroke="#39FF14" stroke-width="1" opacity="0.02928348088217063"/>
<polygon points="581,109 589.6,114 589.6,124 581,129 572.4,124 572.4,114" fill="none" stroke="#39FF14" stroke-width="1" opacity="0.07194055119412018"/>
<polygon points="153,183 161.6,188 161.6,198 153,203 144.4,198 144.4,188" fill="none" stroke="#39FF14" stroke-width="1" opacity="0.044084707577302935"/>
</g>

  <!-- HUD Decorative elements -->
  <path d="M 20 20 L 40 20 L 50 30" fill="none" stroke="#39FF14" stroke-width="2" opacity="0.5"/>
  <path d="M 830 180 L 810 180 L 800 170" fill="none" stroke="#39FF14" stroke-width="2" opacity="0.5"/>

  <g clip-path="url(#dashClip)">
    <rect x="-160" y="0" width="160" height="200" fill="url(#scanlineGrad)">
      <animateTransform attributeName="transform" type="translate"
                        from="0 0" to="1010 0" dur="6s" repeatCount="indefinite"/>
    </rect>
  </g>

  <g font-family="'Consolas', 'Fira Code', monospace" text-anchor="middle">

    <!-- NETWORK STATUS -->
    <g transform="translate(130, 100)">
        <circle cx="0" cy="0" r="45" fill="none" stroke="#39FF14" stroke-width="2" stroke-dasharray="10 5">
            <animateTransform attributeName="transform" type="rotate" from="0" to="360" dur="10s" repeatCount="indefinite"/>
        </circle>
        <circle cx="0" cy="0" r="35" fill="#0d0d0d" />
        <text x="0" y="-60" font-size="12" fill="#aaaaaa" letter-spacing="2">ROOT.AUTH</text>
        <text x="0" y="70" font-size="14" fill="#ffffff" font-weight="bold">OPERATIONAL</text>
    </g>

    <!-- ACTIVE USERS -->
    <g transform="translate(330, 100)">
        <text x="0" y="-20" font-size="12" fill="#aaaaaa">CITIZENS</text>
        <text x="0" y="15" font-size="28" fill="#ffffff" font-weight="bold" filter="url(#textGlow)">13,221</text>
        <text x="0" y="35" font-size="10" fill="#777777">VERIFIED HUMANS</text>
    </g>

    <!-- REGISTERED AGENTS -->
    <g transform="translate(530, 100)">
        <text x="0" y="-20" font-size="12" fill="#aaaaaa">AGENTS</text>
        <text x="0" y="15" font-size="28" fill="#00d4ff" font-weight="bold" filter="url(#textGlow)">4,733</text>
        <text x="0" y="35" font-size="10" fill="#777777">REGISTERED DIDs</text>
    </g>

    <!-- TRANSACTIONS -->
    <g transform="translate(730, 100)">
        <text x="0" y="-20" font-size="12" fill="#aaaaaa">TRANSFERS</text>
        <text x="0" y="15" font-size="28" fill="#ffffff" font-weight="bold">27,788</text>
        <text x="0" y="35" font-size="10" fill="#777777">M2M SETTLEMENTS</text>
    </g>
  </g>

  <text x="425" y="185" font-family="'Consolas', 'Fira Code', monospace" font-size="10" fill="#aaaaaa" opacity="0.6" text-anchor="middle">AXIOMID PROJECTED TARGETS (ILLUSTRATIVE): 2026-08-03 19:18:40 UTC // SECURE_HANDSHAKE</text>
</svg>