<svg width="850" height="200" viewBox="0 0 850 200" xmlns="http://www.w3.org/2000/svg">
  <defs>
    <pattern id="carbonFiber" width="10" height="10" patternUnits="userSpaceOnUse">
        <rect width="10" height="10" fill="#050505"/>
        <path d="M0,0 L5,5 L10,0 L5,-5 Z M5,5 L10,10 L15,5 L10,0 Z M-5,5 L0,10 L5,5 L0,0 Z M0,10 L5,15 L10,10 L5,5 Z" fill="#0d0d0d"/>
    </pattern>
    <filter id="textGlow">
      <feGaussianBlur stdDeviation="2" result="blur" />
      <feMerge>
        <feMergeNode in="blur"/>
        <feMergeNode in="SourceGraphic"/>
      </feMerge>
    </filter>
    <linearGradient id="neonBar" x1="0%" y1="0%" x2="100%" y2="0%">
        <stop offset="0%" stop-color="#111111"/>
        <stop offset="100%" stop-color="#39FF14"/>
    </linearGradient>
    <linearGradient id="scanlineGrad" x1="0%" y1="0%" x2="100%" y2="0%">
        <stop offset="0%" stop-color="#39FF14" stop-opacity="0"/>
        <stop offset="50%" stop-color="#39FF14" stop-opacity="0.18"/>
        <stop offset="100%" stop-color="#39FF14" stop-opacity="0"/>
    </linearGradient>
    <clipPath id="dashClip">
        <rect x="0" y="0" width="850" height="200" rx="12"/>
    </clipPath>
  </defs>

  <rect width="100%" height="100%" fill="url(#carbonFiber)" rx="12" stroke="#39FF14" stroke-width="1" stroke-opacity="0.3"/>
  <rect width="100%" height="100%" fill="#000000" opacity="0.6" rx="12" />
  <g><polygon points="421,71 429.6,76 429.6,86 421,91 412.4,86 412.4,76" fill="none" stroke="#39FF14" stroke-width="1" opacity="0.0602780944048793"/>
<polygon points="632,43 640.6,48 640.6,58 632,63 623.4,58 623.4,48" fill="none" stroke="#39FF14" stroke-width="1" opacity="0.07642881511459788"/>
<polygon points="82,18 90.6,23 90.6,33 82,38 73.4,33 73.4,23" fill="none" stroke="#39FF14" stroke-width="1" opacity="0.05126835221123095"/>
<polygon points="729,134 737.6,139 737.6,149 729,154 720.4,149 720.4,139" fill="none" stroke="#39FF14" stroke-width="1" opacity="0.032780578074555984"/>
<polygon points="206,36 214.6,41 214.6,51 206,56 197.4,51 197.4,41" fill="none" stroke="#39FF14" stroke-width="1" opacity="0.04464320336378"/>
<polygon points="1,80 9.6,85 9.6,95 1,100 -7.6,95 -7.6,85" fill="none" stroke="#39FF14" stroke-width="1" opacity="0.04645081590491425"/>
<polygon points="374,91 382.6,96 382.6,106 374,111 365.4,106 365.4,96" fill="none" stroke="#39FF14" stroke-width="1" opacity="0.03975516966207034"/>
<polygon points="244,48 252.6,53 252.6,63 244,68 235.4,63 235.4,53" fill="none" stroke="#39FF14" stroke-width="1" opacity="0.07420626416515286"/>
<polygon points="602,70 610.6,75 610.6,85 602,90 593.4,85 593.4,75" fill="none" stroke="#39FF14" stroke-width="1" opacity="0.06355451025636773"/>
<polygon points="33,116 41.6,121 41.6,131 33,136 24.4,131 24.4,121" fill="none" stroke="#39FF14" stroke-width="1" opacity="0.06648997470196186"/>
<polygon points="112,84 120.6,89 120.6,99 112,104 103.4,99 103.4,89" fill="none" stroke="#39FF14" stroke-width="1" opacity="0.06891274926845657"/>
<polygon points="333,125 341.6,130 341.6,140 333,145 324.4,140 324.4,130" fill="none" stroke="#39FF14" stroke-width="1" opacity="0.0543563129959221"/>
<polygon points="397,136 405.6,141 405.6,151 397,156 388.4,151 388.4,141" fill="none" stroke="#39FF14" stroke-width="1" opacity="0.03343442077568978"/>
<polygon points="142,157 150.6,162 150.6,172 142,177 133.4,172 133.4,162" fill="none" stroke="#39FF14" stroke-width="1" opacity="0.06610861618133804"/>
<polygon points="26,123 34.6,128 34.6,138 26,143 17.4,138 17.4,128" fill="none" stroke="#39FF14" stroke-width="1" opacity="0.07978628015351004"/>
<polygon points="154,154 162.6,159 162.6,169 154,174 145.4,169 145.4,159" fill="none" stroke="#39FF14" stroke-width="1" opacity="0.05397506260903169"/>
<polygon points="372,153 380.6,158 380.6,168 372,173 363.4,168 363.4,158" fill="none" stroke="#39FF14" stroke-width="1" opacity="0.036747984731224814"/>
<polygon points="561,22 569.6,27 569.6,37 561,42 552.4,37 552.4,27" fill="none" stroke="#39FF14" stroke-width="1" opacity="0.030287540842878047"/>
<polygon points="224,20 232.6,25 232.6,35 224,40 215.4,35 215.4,25" fill="none" stroke="#39FF14" stroke-width="1" opacity="0.02908031464749032"/>
<polygon points="726,189 734.6,194 734.6,204 726,209 717.4,204 717.4,194" fill="none" stroke="#39FF14" stroke-width="1" opacity="0.07615062525100898"/>
<polygon points="86,119 94.6,124 94.6,134 86,139 77.4,134 77.4,124" fill="none" stroke="#39FF14" stroke-width="1" opacity="0.05124984513444546"/>
<polygon points="689,37 697.6,42 697.6,52 689,57 680.4,52 680.4,42" fill="none" stroke="#39FF14" stroke-width="1" opacity="0.033175771320865424"/>
<polygon points="661,89 669.6,94 669.6,104 661,109 652.4,104 652.4,94" fill="none" stroke="#39FF14" stroke-width="1" opacity="0.06915711680610981"/>
<polygon points="674,-3 682.6,2 682.6,12 674,17 665.4,12 665.4,2" fill="none" stroke="#39FF14" stroke-width="1" opacity="0.021054132897529745"/>
<polygon points="702,-7 710.6,-2 710.6,8 702,13 693.4,8 693.4,-2" fill="none" stroke="#39FF14" stroke-width="1" opacity="0.058820040058803785"/>
<polygon points="772,181 780.6,186 780.6,196 772,201 763.4,196 763.4,186" fill="none" stroke="#39FF14" stroke-width="1" opacity="0.03344027702591438"/>
<polygon points="450,154 458.6,159 458.6,169 450,174 441.4,169 441.4,159" fill="none" stroke="#39FF14" stroke-width="1" opacity="0.07215961996810494"/>
<polygon points="819,132 827.6,137 827.6,147 819,152 810.4,147 810.4,137" fill="none" stroke="#39FF14" stroke-width="1" opacity="0.0763885604529389"/>
<polygon points="713,85 721.6,90 721.6,100 713,105 704.4,100 704.4,90" fill="none" stroke="#39FF14" stroke-width="1" opacity="0.04922149816236496"/>
<polygon points="651,138 659.6,143 659.6,153 651,158 642.4,153 642.4,143" fill="none" stroke="#39FF14" stroke-width="1" opacity="0.05425424567482555"/>
</g>

  <!-- HUD Decorative elements -->
  <path d="M 20 20 L 40 20 L 50 30" fill="none" stroke="#39FF14" stroke-width="2" opacity="0.5"/>
  <path d="M 830 180 L 810 180 L 800 170" fill="none" stroke="#39FF14" stroke-width="2" opacity="0.5"/>

  <g clip-path="url(#dashClip)">
    <rect x="-160" y="0" width="160" height="200" fill="url(#scanlineGrad)">
      <animateTransform attributeName="transform" type="translate"
                        from="0 0" to="1010 0" dur="6s" repeatCount="indefinite"/>
    </rect>
  </g>

  <g font-family="'Consolas', 'Fira Code', monospace" text-anchor="middle">

    <!-- NETWORK STATUS -->
    <g transform="translate(130, 100)">
        <circle cx="0" cy="0" r="45" fill="none" stroke="#39FF14" stroke-width="2" stroke-dasharray="10 5">
            <animateTransform attributeName="transform" type="rotate" from="0" to="360" dur="10s" repeatCount="indefinite"/>
        </circle>
        <circle cx="0" cy="0" r="35" fill="#0d0d0d" />
        <text x="0" y="-60" font-size="12" fill="#aaaaaa" letter-spacing="2">ROOT.AUTH</text>
        <text x="0" y="70" font-size="14" fill="#ffffff" font-weight="bold">OPERATIONAL</text>
    </g>

    <!-- ACTIVE USERS -->
    <g transform="translate(330, 100)">
        <text x="0" y="-20" font-size="12" fill="#aaaaaa">CITIZENS</text>
        <text x="0" y="15" font-size="28" fill="#ffffff" font-weight="bold" filter="url(#textGlow)">13,552</text>
        <text x="0" y="35" font-size="10" fill="#777777">VERIFIED HUMANS</text>
    </g>

    <!-- REGISTERED AGENTS -->
    <g transform="translate(530, 100)">
        <text x="0" y="-20" font-size="12" fill="#aaaaaa">AGENTS</text>
        <text x="0" y="15" font-size="28" fill="#00d4ff" font-weight="bold" filter="url(#textGlow)">3,900</text>
        <text x="0" y="35" font-size="10" fill="#777777">REGISTERED DIDs</text>
    </g>

    <!-- TRANSACTIONS -->
    <g transform="translate(730, 100)">
        <text x="0" y="-20" font-size="12" fill="#aaaaaa">TRANSFERS</text>
        <text x="0" y="15" font-size="28" fill="#ffffff" font-weight="bold">30,549</text>
        <text x="0" y="35" font-size="10" fill="#777777">M2M SETTLEMENTS</text>
    </g>
  </g>

  <text x="425" y="185" font-family="'Consolas', 'Fira Code', monospace" font-size="10" fill="#aaaaaa" opacity="0.6" text-anchor="middle">AXIOMID PROJECTED TARGETS (ILLUSTRATIVE): 2026-06-21 07:33:50 UTC // SECURE_HANDSHAKE</text>
</svg>