<svg width="850" height="200" viewBox="0 0 850 200" xmlns="http://www.w3.org/2000/svg">
  <defs>
    <pattern id="carbonFiber" width="10" height="10" patternUnits="userSpaceOnUse">
        <rect width="10" height="10" fill="#050505"/>
        <path d="M0,0 L5,5 L10,0 L5,-5 Z M5,5 L10,10 L15,5 L10,0 Z M-5,5 L0,10 L5,5 L0,0 Z M0,10 L5,15 L10,10 L5,5 Z" fill="#0d0d0d"/>
    </pattern>
    <filter id="textGlow">
      <feGaussianBlur stdDeviation="2" result="blur" />
      <feMerge>
        <feMergeNode in="blur"/>
        <feMergeNode in="SourceGraphic"/>
      </feMerge>
    </filter>
    <linearGradient id="neonBar" x1="0%" y1="0%" x2="100%" y2="0%">
        <stop offset="0%" stop-color="#111111"/>
        <stop offset="100%" stop-color="#39FF14"/>
    </linearGradient>
    <linearGradient id="scanlineGrad" x1="0%" y1="0%" x2="100%" y2="0%">
        <stop offset="0%" stop-color="#39FF14" stop-opacity="0"/>
        <stop offset="50%" stop-color="#39FF14" stop-opacity="0.18"/>
        <stop offset="100%" stop-color="#39FF14" stop-opacity="0"/>
    </linearGradient>
    <clipPath id="dashClip">
        <rect x="0" y="0" width="850" height="200" rx="12"/>
    </clipPath>
  </defs>

  <rect width="100%" height="100%" fill="url(#carbonFiber)" rx="12" stroke="#39FF14" stroke-width="1" stroke-opacity="0.3"/>
  <rect width="100%" height="100%" fill="#000000" opacity="0.6" rx="12" />
  <g><polygon points="603,122 611.6,127 611.6,137 603,142 594.4,137 594.4,127" fill="none" stroke="#39FF14" stroke-width="1" opacity="0.0531881540738189"/>
<polygon points="682,181 690.6,186 690.6,196 682,201 673.4,196 673.4,186" fill="none" stroke="#39FF14" stroke-width="1" opacity="0.031015687474869238"/>
<polygon points="204,178 212.6,183 212.6,193 204,198 195.4,193 195.4,183" fill="none" stroke="#39FF14" stroke-width="1" opacity="0.054895236330800096"/>
<polygon points="644,91 652.6,96 652.6,106 644,111 635.4,106 635.4,96" fill="none" stroke="#39FF14" stroke-width="1" opacity="0.06281890282435029"/>
<polygon points="397,120 405.6,125 405.6,135 397,140 388.4,135 388.4,125" fill="none" stroke="#39FF14" stroke-width="1" opacity="0.07840812852840875"/>
<polygon points="210,82 218.6,87 218.6,97 210,102 201.4,97 201.4,87" fill="none" stroke="#39FF14" stroke-width="1" opacity="0.06830710540879781"/>
<polygon points="752,78 760.6,83 760.6,93 752,98 743.4,93 743.4,83" fill="none" stroke="#39FF14" stroke-width="1" opacity="0.07447343630742571"/>
<polygon points="754,179 762.6,184 762.6,194 754,199 745.4,194 745.4,184" fill="none" stroke="#39FF14" stroke-width="1" opacity="0.07181753137036176"/>
<polygon points="4,-2 12.6,3 12.6,13 4,18 -4.6,13 -4.6,3" fill="none" stroke="#39FF14" stroke-width="1" opacity="0.03458093808810908"/>
<polygon points="164,5 172.6,10 172.6,20 164,25 155.4,20 155.4,10" fill="none" stroke="#39FF14" stroke-width="1" opacity="0.05562418609258707"/>
<polygon points="39,71 47.6,76 47.6,86 39,91 30.4,86 30.4,76" fill="none" stroke="#39FF14" stroke-width="1" opacity="0.023139992292490256"/>
<polygon points="512,141 520.6,146 520.6,156 512,161 503.4,156 503.4,146" fill="none" stroke="#39FF14" stroke-width="1" opacity="0.05481092777903224"/>
<polygon points="106,186 114.6,191 114.6,201 106,206 97.4,201 97.4,191" fill="none" stroke="#39FF14" stroke-width="1" opacity="0.028272677289825066"/>
<polygon points="589,105 597.6,110 597.6,120 589,125 580.4,120 580.4,110" fill="none" stroke="#39FF14" stroke-width="1" opacity="0.061511232752444536"/>
<polygon points="0,89 8.6,94 8.6,104 0,109 -8.6,104 -8.6,94" fill="none" stroke="#39FF14" stroke-width="1" opacity="0.07956346353760618"/>
<polygon points="484,-5 492.6,0 492.6,10 484,15 475.4,10 475.4,0" fill="none" stroke="#39FF14" stroke-width="1" opacity="0.03679982173003887"/>
<polygon points="761,20 769.6,25 769.6,35 761,40 752.4,35 752.4,25" fill="none" stroke="#39FF14" stroke-width="1" opacity="0.04575291503509564"/>
<polygon points="748,64 756.6,69 756.6,79 748,84 739.4,79 739.4,69" fill="none" stroke="#39FF14" stroke-width="1" opacity="0.04847932413572604"/>
<polygon points="339,64 347.6,69 347.6,79 339,84 330.4,79 330.4,69" fill="none" stroke="#39FF14" stroke-width="1" opacity="0.02548575924586578"/>
<polygon points="166,2 174.6,7 174.6,17 166,22 157.4,17 157.4,7" fill="none" stroke="#39FF14" stroke-width="1" opacity="0.044710763072482146"/>
<polygon points="117,123 125.6,128 125.6,138 117,143 108.4,138 108.4,128" fill="none" stroke="#39FF14" stroke-width="1" opacity="0.02234801993078697"/>
<polygon points="244,59 252.6,64 252.6,74 244,79 235.4,74 235.4,64" fill="none" stroke="#39FF14" stroke-width="1" opacity="0.05767880643825539"/>
<polygon points="168,180 176.6,185 176.6,195 168,200 159.4,195 159.4,185" fill="none" stroke="#39FF14" stroke-width="1" opacity="0.061859245362624965"/>
<polygon points="674,99 682.6,104 682.6,114 674,119 665.4,114 665.4,104" fill="none" stroke="#39FF14" stroke-width="1" opacity="0.03323474705263177"/>
<polygon points="171,13 179.6,18 179.6,28 171,33 162.4,28 162.4,18" fill="none" stroke="#39FF14" stroke-width="1" opacity="0.051939081521677616"/>
<polygon points="352,66 360.6,71 360.6,81 352,86 343.4,81 343.4,71" fill="none" stroke="#39FF14" stroke-width="1" opacity="0.03587480094782721"/>
<polygon points="795,14 803.6,19 803.6,29 795,34 786.4,29 786.4,19" fill="none" stroke="#39FF14" stroke-width="1" opacity="0.054123980737548164"/>
<polygon points="70,187 78.6,192 78.6,202 70,207 61.4,202 61.4,192" fill="none" stroke="#39FF14" stroke-width="1" opacity="0.0227980435182774"/>
<polygon points="292,88 300.6,93 300.6,103 292,108 283.4,103 283.4,93" fill="none" stroke="#39FF14" stroke-width="1" opacity="0.04458060386008687"/>
<polygon points="474,23 482.6,28 482.6,38 474,43 465.4,38 465.4,28" fill="none" stroke="#39FF14" stroke-width="1" opacity="0.040014908929434975"/>
</g>

  <!-- HUD Decorative elements -->
  <path d="M 20 20 L 40 20 L 50 30" fill="none" stroke="#39FF14" stroke-width="2" opacity="0.5"/>
  <path d="M 830 180 L 810 180 L 800 170" fill="none" stroke="#39FF14" stroke-width="2" opacity="0.5"/>

  <g clip-path="url(#dashClip)">
    <rect x="-160" y="0" width="160" height="200" fill="url(#scanlineGrad)">
      <animateTransform attributeName="transform" type="translate"
                        from="0 0" to="1010 0" dur="6s" repeatCount="indefinite"/>
    </rect>
  </g>

  <g font-family="'Consolas', 'Fira Code', monospace" text-anchor="middle">

    <!-- NETWORK STATUS -->
    <g transform="translate(130, 100)">
        <circle cx="0" cy="0" r="45" fill="none" stroke="#39FF14" stroke-width="2" stroke-dasharray="10 5">
            <animateTransform attributeName="transform" type="rotate" from="0" to="360" dur="10s" repeatCount="indefinite"/>
        </circle>
        <circle cx="0" cy="0" r="35" fill="#0d0d0d" />
        <text x="0" y="-60" font-size="12" fill="#aaaaaa" letter-spacing="2">ROOT.AUTH</text>
        <text x="0" y="70" font-size="14" fill="#ffffff" font-weight="bold">OPERATIONAL</text>
    </g>

    <!-- ACTIVE USERS -->
    <g transform="translate(330, 100)">
        <text x="0" y="-20" font-size="12" fill="#aaaaaa">CITIZENS</text>
        <text x="0" y="15" font-size="28" fill="#ffffff" font-weight="bold" filter="url(#textGlow)">13,857</text>
        <text x="0" y="35" font-size="10" fill="#777777">VERIFIED HUMANS</text>
    </g>

    <!-- REGISTERED AGENTS -->
    <g transform="translate(530, 100)">
        <text x="0" y="-20" font-size="12" fill="#aaaaaa">AGENTS</text>
        <text x="0" y="15" font-size="28" fill="#00d4ff" font-weight="bold" filter="url(#textGlow)">3,234</text>
        <text x="0" y="35" font-size="10" fill="#777777">REGISTERED DIDs</text>
    </g>

    <!-- TRANSACTIONS -->
    <g transform="translate(730, 100)">
        <text x="0" y="-20" font-size="12" fill="#aaaaaa">TRANSFERS</text>
        <text x="0" y="15" font-size="28" fill="#ffffff" font-weight="bold">35,221</text>
        <text x="0" y="35" font-size="10" fill="#777777">M2M SETTLEMENTS</text>
    </g>
  </g>

  <text x="425" y="185" font-family="'Consolas', 'Fira Code', monospace" font-size="10" fill="#aaaaaa" opacity="0.6" text-anchor="middle">AXIOMID PROJECTED TARGETS (ILLUSTRATIVE): 2026-06-25 07:06:35 UTC // SECURE_HANDSHAKE</text>
</svg>