<svg width="850" height="200" viewBox="0 0 850 200" xmlns="http://www.w3.org/2000/svg">
  <defs>
    <pattern id="carbonFiber" width="10" height="10" patternUnits="userSpaceOnUse">
        <rect width="10" height="10" fill="#050505"/>
        <path d="M0,0 L5,5 L10,0 L5,-5 Z M5,5 L10,10 L15,5 L10,0 Z M-5,5 L0,10 L5,5 L0,0 Z M0,10 L5,15 L10,10 L5,5 Z" fill="#0d0d0d"/>
    </pattern>
    <filter id="textGlow">
      <feGaussianBlur stdDeviation="2" result="blur" />
      <feMerge>
        <feMergeNode in="blur"/>
        <feMergeNode in="SourceGraphic"/>
      </feMerge>
    </filter>
    <linearGradient id="neonBar" x1="0%" y1="0%" x2="100%" y2="0%">
        <stop offset="0%" stop-color="#111111"/>
        <stop offset="100%" stop-color="#39FF14"/>
    </linearGradient>
    <linearGradient id="scanlineGrad" x1="0%" y1="0%" x2="100%" y2="0%">
        <stop offset="0%" stop-color="#39FF14" stop-opacity="0"/>
        <stop offset="50%" stop-color="#39FF14" stop-opacity="0.18"/>
        <stop offset="100%" stop-color="#39FF14" stop-opacity="0"/>
    </linearGradient>
    <clipPath id="dashClip">
        <rect x="0" y="0" width="850" height="200" rx="12"/>
    </clipPath>
  </defs>

  <rect width="100%" height="100%" fill="url(#carbonFiber)" rx="12" stroke="#39FF14" stroke-width="1" stroke-opacity="0.3"/>
  <rect width="100%" height="100%" fill="#000000" opacity="0.6" rx="12" />
  <g><polygon points="133,88 141.6,93 141.6,103 133,108 124.4,103 124.4,93" fill="none" stroke="#39FF14" stroke-width="1" opacity="0.05888208891371892"/>
<polygon points="338,152 346.6,157 346.6,167 338,172 329.4,167 329.4,157" fill="none" stroke="#39FF14" stroke-width="1" opacity="0.07223174966018998"/>
<polygon points="62,120 70.6,125 70.6,135 62,140 53.4,135 53.4,125" fill="none" stroke="#39FF14" stroke-width="1" opacity="0.05901235676537227"/>
<polygon points="424,61 432.6,66 432.6,76 424,81 415.4,76 415.4,66" fill="none" stroke="#39FF14" stroke-width="1" opacity="0.06456998519364184"/>
<polygon points="811,62 819.6,67 819.6,77 811,82 802.4,77 802.4,67" fill="none" stroke="#39FF14" stroke-width="1" opacity="0.033049379385916906"/>
<polygon points="513,22 521.6,27 521.6,37 513,42 504.4,37 504.4,27" fill="none" stroke="#39FF14" stroke-width="1" opacity="0.05512441558595717"/>
<polygon points="770,29 778.6,34 778.6,44 770,49 761.4,44 761.4,34" fill="none" stroke="#39FF14" stroke-width="1" opacity="0.026525828601371537"/>
<polygon points="478,-5 486.6,0 486.6,10 478,15 469.4,10 469.4,0" fill="none" stroke="#39FF14" stroke-width="1" opacity="0.02648389847082426"/>
<polygon points="763,138 771.6,143 771.6,153 763,158 754.4,153 754.4,143" fill="none" stroke="#39FF14" stroke-width="1" opacity="0.050659106001790716"/>
<polygon points="120,84 128.6,89 128.6,99 120,104 111.4,99 111.4,89" fill="none" stroke="#39FF14" stroke-width="1" opacity="0.0675311442491143"/>
<polygon points="458,24 466.6,29 466.6,39 458,44 449.4,39 449.4,29" fill="none" stroke="#39FF14" stroke-width="1" opacity="0.027699164845471073"/>
<polygon points="659,-3 667.6,2 667.6,12 659,17 650.4,12 650.4,2" fill="none" stroke="#39FF14" stroke-width="1" opacity="0.0321245204855702"/>
<polygon points="462,-4 470.6,1 470.6,11 462,16 453.4,11 453.4,1" fill="none" stroke="#39FF14" stroke-width="1" opacity="0.07942578054907672"/>
<polygon points="323,-7 331.6,-2 331.6,8 323,13 314.4,8 314.4,-2" fill="none" stroke="#39FF14" stroke-width="1" opacity="0.06051100415284144"/>
<polygon points="383,35 391.6,40 391.6,50 383,55 374.4,50 374.4,40" fill="none" stroke="#39FF14" stroke-width="1" opacity="0.03819245082532319"/>
<polygon points="325,12 333.6,17 333.6,27 325,32 316.4,27 316.4,17" fill="none" stroke="#39FF14" stroke-width="1" opacity="0.05487348838388789"/>
<polygon points="714,81 722.6,86 722.6,96 714,101 705.4,96 705.4,86" fill="none" stroke="#39FF14" stroke-width="1" opacity="0.06998996074273357"/>
<polygon points="765,129 773.6,134 773.6,144 765,149 756.4,144 756.4,134" fill="none" stroke="#39FF14" stroke-width="1" opacity="0.06474745514838577"/>
<polygon points="225,55 233.6,60 233.6,70 225,75 216.4,70 216.4,60" fill="none" stroke="#39FF14" stroke-width="1" opacity="0.057525914427513036"/>
<polygon points="730,143 738.6,148 738.6,158 730,163 721.4,158 721.4,148" fill="none" stroke="#39FF14" stroke-width="1" opacity="0.0705373123278366"/>
<polygon points="158,177 166.6,182 166.6,192 158,197 149.4,192 149.4,182" fill="none" stroke="#39FF14" stroke-width="1" opacity="0.027055422087972757"/>
<polygon points="247,164 255.6,169 255.6,179 247,184 238.4,179 238.4,169" fill="none" stroke="#39FF14" stroke-width="1" opacity="0.06105781348133363"/>
<polygon points="599,113 607.6,118 607.6,128 599,133 590.4,128 590.4,118" fill="none" stroke="#39FF14" stroke-width="1" opacity="0.07624299480774195"/>
<polygon points="605,148 613.6,153 613.6,163 605,168 596.4,163 596.4,153" fill="none" stroke="#39FF14" stroke-width="1" opacity="0.052587309477076016"/>
<polygon points="494,50 502.6,55 502.6,65 494,70 485.4,65 485.4,55" fill="none" stroke="#39FF14" stroke-width="1" opacity="0.0627482015855326"/>
<polygon points="601,61 609.6,66 609.6,76 601,81 592.4,76 592.4,66" fill="none" stroke="#39FF14" stroke-width="1" opacity="0.06144705314847981"/>
<polygon points="446,38 454.6,43 454.6,53 446,58 437.4,53 437.4,43" fill="none" stroke="#39FF14" stroke-width="1" opacity="0.054571632111140314"/>
<polygon points="569,88 577.6,93 577.6,103 569,108 560.4,103 560.4,93" fill="none" stroke="#39FF14" stroke-width="1" opacity="0.06776577106169202"/>
<polygon points="815,159 823.6,164 823.6,174 815,179 806.4,174 806.4,164" fill="none" stroke="#39FF14" stroke-width="1" opacity="0.07578641973500524"/>
<polygon points="17,180 25.6,185 25.6,195 17,200 8.4,195 8.4,185" fill="none" stroke="#39FF14" stroke-width="1" opacity="0.06415231776371898"/>
</g>

  <!-- HUD Decorative elements -->
  <path d="M 20 20 L 40 20 L 50 30" fill="none" stroke="#39FF14" stroke-width="2" opacity="0.5"/>
  <path d="M 830 180 L 810 180 L 800 170" fill="none" stroke="#39FF14" stroke-width="2" opacity="0.5"/>

  <g clip-path="url(#dashClip)">
    <rect x="-160" y="0" width="160" height="200" fill="url(#scanlineGrad)">
      <animateTransform attributeName="transform" type="translate"
                        from="0 0" to="1010 0" dur="6s" repeatCount="indefinite"/>
    </rect>
  </g>

  <g font-family="'Consolas', 'Fira Code', monospace" text-anchor="middle">

    <!-- NETWORK STATUS -->
    <g transform="translate(130, 100)">
        <circle cx="0" cy="0" r="45" fill="none" stroke="#39FF14" stroke-width="2" stroke-dasharray="10 5">
            <animateTransform attributeName="transform" type="rotate" from="0" to="360" dur="10s" repeatCount="indefinite"/>
        </circle>
        <circle cx="0" cy="0" r="35" fill="#0d0d0d" />
        <text x="0" y="-60" font-size="12" fill="#aaaaaa" letter-spacing="2">ROOT.AUTH</text>
        <text x="0" y="70" font-size="14" fill="#ffffff" font-weight="bold">OPERATIONAL</text>
    </g>

    <!-- ACTIVE USERS -->
    <g transform="translate(330, 100)">
        <text x="0" y="-20" font-size="12" fill="#aaaaaa">CITIZENS</text>
        <text x="0" y="15" font-size="28" fill="#ffffff" font-weight="bold" filter="url(#textGlow)">13,298</text>
        <text x="0" y="35" font-size="10" fill="#777777">VERIFIED HUMANS</text>
    </g>

    <!-- REGISTERED AGENTS -->
    <g transform="translate(530, 100)">
        <text x="0" y="-20" font-size="12" fill="#aaaaaa">AGENTS</text>
        <text x="0" y="15" font-size="28" fill="#00d4ff" font-weight="bold" filter="url(#textGlow)">3,846</text>
        <text x="0" y="35" font-size="10" fill="#777777">REGISTERED DIDs</text>
    </g>

    <!-- TRANSACTIONS -->
    <g transform="translate(730, 100)">
        <text x="0" y="-20" font-size="12" fill="#aaaaaa">TRANSFERS</text>
        <text x="0" y="15" font-size="28" fill="#ffffff" font-weight="bold">32,879</text>
        <text x="0" y="35" font-size="10" fill="#777777">M2M SETTLEMENTS</text>
    </g>
  </g>

  <text x="425" y="185" font-family="'Consolas', 'Fira Code', monospace" font-size="10" fill="#aaaaaa" opacity="0.6" text-anchor="middle">AXIOMID PROJECTED TARGETS (ILLUSTRATIVE): 2026-06-29 07:35:09 UTC // SECURE_HANDSHAKE</text>
</svg>