<svg width="850" height="200" viewBox="0 0 850 200" xmlns="http://www.w3.org/2000/svg">
  <defs>
    <pattern id="carbonFiber" width="10" height="10" patternUnits="userSpaceOnUse">
        <rect width="10" height="10" fill="#050505"/>
        <path d="M0,0 L5,5 L10,0 L5,-5 Z M5,5 L10,10 L15,5 L10,0 Z M-5,5 L0,10 L5,5 L0,0 Z M0,10 L5,15 L10,10 L5,5 Z" fill="#0d0d0d"/>
    </pattern>
    <filter id="textGlow">
      <feGaussianBlur stdDeviation="2" result="blur" />
      <feMerge>
        <feMergeNode in="blur"/>
        <feMergeNode in="SourceGraphic"/>
      </feMerge>
    </filter>
    <linearGradient id="neonBar" x1="0%" y1="0%" x2="100%" y2="0%">
        <stop offset="0%" stop-color="#111111"/>
        <stop offset="100%" stop-color="#39FF14"/>
    </linearGradient>
    <linearGradient id="scanlineGrad" x1="0%" y1="0%" x2="100%" y2="0%">
        <stop offset="0%" stop-color="#39FF14" stop-opacity="0"/>
        <stop offset="50%" stop-color="#39FF14" stop-opacity="0.18"/>
        <stop offset="100%" stop-color="#39FF14" stop-opacity="0"/>
    </linearGradient>
    <clipPath id="dashClip">
        <rect x="0" y="0" width="850" height="200" rx="12"/>
    </clipPath>
  </defs>

  <rect width="100%" height="100%" fill="url(#carbonFiber)" rx="12" stroke="#39FF14" stroke-width="1" stroke-opacity="0.3"/>
  <rect width="100%" height="100%" fill="#000000" opacity="0.6" rx="12" />
  <g><polygon points="452,91 460.6,96 460.6,106 452,111 443.4,106 443.4,96" fill="none" stroke="#39FF14" stroke-width="1" opacity="0.05040528294115787"/>
<polygon points="190,-5 198.6,0 198.6,10 190,15 181.4,10 181.4,0" fill="none" stroke="#39FF14" stroke-width="1" opacity="0.030035858926248132"/>
<polygon points="776,32 784.6,37 784.6,47 776,52 767.4,47 767.4,37" fill="none" stroke="#39FF14" stroke-width="1" opacity="0.02093396225973759"/>
<polygon points="667,49 675.6,54 675.6,64 667,69 658.4,64 658.4,54" fill="none" stroke="#39FF14" stroke-width="1" opacity="0.025403777460173527"/>
<polygon points="497,38 505.6,43 505.6,53 497,58 488.4,53 488.4,43" fill="none" stroke="#39FF14" stroke-width="1" opacity="0.04077287901484892"/>
<polygon points="444,133 452.6,138 452.6,148 444,153 435.4,148 435.4,138" fill="none" stroke="#39FF14" stroke-width="1" opacity="0.049826741981464126"/>
<polygon points="829,-5 837.6,0 837.6,10 829,15 820.4,10 820.4,0" fill="none" stroke="#39FF14" stroke-width="1" opacity="0.06455646098648901"/>
<polygon points="328,152 336.6,157 336.6,167 328,172 319.4,167 319.4,157" fill="none" stroke="#39FF14" stroke-width="1" opacity="0.07599358286205381"/>
<polygon points="719,186 727.6,191 727.6,201 719,206 710.4,201 710.4,191" fill="none" stroke="#39FF14" stroke-width="1" opacity="0.05997130156507968"/>
<polygon points="211,134 219.6,139 219.6,149 211,154 202.4,149 202.4,139" fill="none" stroke="#39FF14" stroke-width="1" opacity="0.03357672805630216"/>
<polygon points="17,21 25.6,26 25.6,36 17,41 8.4,36 8.4,26" fill="none" stroke="#39FF14" stroke-width="1" opacity="0.06076587860544888"/>
<polygon points="831,-9 839.6,-4 839.6,6 831,11 822.4,6 822.4,-4" fill="none" stroke="#39FF14" stroke-width="1" opacity="0.06036432240807646"/>
<polygon points="86,82 94.6,87 94.6,97 86,102 77.4,97 77.4,87" fill="none" stroke="#39FF14" stroke-width="1" opacity="0.054366053042204196"/>
<polygon points="145,75 153.6,80 153.6,90 145,95 136.4,90 136.4,80" fill="none" stroke="#39FF14" stroke-width="1" opacity="0.04620553998195149"/>
<polygon points="580,106 588.6,111 588.6,121 580,126 571.4,121 571.4,111" fill="none" stroke="#39FF14" stroke-width="1" opacity="0.04931443328590239"/>
<polygon points="427,158 435.6,163 435.6,173 427,178 418.4,173 418.4,163" fill="none" stroke="#39FF14" stroke-width="1" opacity="0.03419524046294928"/>
<polygon points="427,97 435.6,102 435.6,112 427,117 418.4,112 418.4,102" fill="none" stroke="#39FF14" stroke-width="1" opacity="0.06137456220339978"/>
<polygon points="505,11 513.6,16 513.6,26 505,31 496.4,26 496.4,16" fill="none" stroke="#39FF14" stroke-width="1" opacity="0.060323299237526926"/>
<polygon points="296,94 304.6,99 304.6,109 296,114 287.4,109 287.4,99" fill="none" stroke="#39FF14" stroke-width="1" opacity="0.07460119799944989"/>
<polygon points="299,124 307.6,129 307.6,139 299,144 290.4,139 290.4,129" fill="none" stroke="#39FF14" stroke-width="1" opacity="0.025779710203946767"/>
<polygon points="626,8 634.6,13 634.6,23 626,28 617.4,23 617.4,13" fill="none" stroke="#39FF14" stroke-width="1" opacity="0.06900981026534267"/>
<polygon points="606,28 614.6,33 614.6,43 606,48 597.4,43 597.4,33" fill="none" stroke="#39FF14" stroke-width="1" opacity="0.0654054424037853"/>
<polygon points="501,83 509.6,88 509.6,98 501,103 492.4,98 492.4,88" fill="none" stroke="#39FF14" stroke-width="1" opacity="0.07903232245303035"/>
<polygon points="417,144 425.6,149 425.6,159 417,164 408.4,159 408.4,149" fill="none" stroke="#39FF14" stroke-width="1" opacity="0.07733123585659428"/>
<polygon points="240,147 248.6,152 248.6,162 240,167 231.4,162 231.4,152" fill="none" stroke="#39FF14" stroke-width="1" opacity="0.042404883549665"/>
<polygon points="721,66 729.6,71 729.6,81 721,86 712.4,81 712.4,71" fill="none" stroke="#39FF14" stroke-width="1" opacity="0.062027977346092916"/>
<polygon points="768,61 776.6,66 776.6,76 768,81 759.4,76 759.4,66" fill="none" stroke="#39FF14" stroke-width="1" opacity="0.06436425336104877"/>
<polygon points="700,152 708.6,157 708.6,167 700,172 691.4,167 691.4,157" fill="none" stroke="#39FF14" stroke-width="1" opacity="0.03713793430087102"/>
<polygon points="219,19 227.6,24 227.6,34 219,39 210.4,34 210.4,24" fill="none" stroke="#39FF14" stroke-width="1" opacity="0.07051735764800975"/>
<polygon points="797,56 805.6,61 805.6,71 797,76 788.4,71 788.4,61" fill="none" stroke="#39FF14" stroke-width="1" opacity="0.022976048014975894"/>
</g>

  <!-- HUD Decorative elements -->
  <path d="M 20 20 L 40 20 L 50 30" fill="none" stroke="#39FF14" stroke-width="2" opacity="0.5"/>
  <path d="M 830 180 L 810 180 L 800 170" fill="none" stroke="#39FF14" stroke-width="2" opacity="0.5"/>

  <g clip-path="url(#dashClip)">
    <rect x="-160" y="0" width="160" height="200" fill="url(#scanlineGrad)">
      <animateTransform attributeName="transform" type="translate"
                        from="0 0" to="1010 0" dur="6s" repeatCount="indefinite"/>
    </rect>
  </g>

  <g font-family="'Consolas', 'Fira Code', monospace" text-anchor="middle">

    <!-- NETWORK STATUS -->
    <g transform="translate(130, 100)">
        <circle cx="0" cy="0" r="45" fill="none" stroke="#39FF14" stroke-width="2" stroke-dasharray="10 5">
            <animateTransform attributeName="transform" type="rotate" from="0" to="360" dur="10s" repeatCount="indefinite"/>
        </circle>
        <circle cx="0" cy="0" r="35" fill="#0d0d0d" />
        <text x="0" y="-60" font-size="12" fill="#aaaaaa" letter-spacing="2">ROOT.AUTH</text>
        <text x="0" y="70" font-size="14" fill="#ffffff" font-weight="bold">OPERATIONAL</text>
    </g>

    <!-- ACTIVE USERS -->
    <g transform="translate(330, 100)">
        <text x="0" y="-20" font-size="12" fill="#aaaaaa">CITIZENS</text>
        <text x="0" y="15" font-size="28" fill="#ffffff" font-weight="bold" filter="url(#textGlow)">14,544</text>
        <text x="0" y="35" font-size="10" fill="#777777">VERIFIED HUMANS</text>
    </g>

    <!-- REGISTERED AGENTS -->
    <g transform="translate(530, 100)">
        <text x="0" y="-20" font-size="12" fill="#aaaaaa">AGENTS</text>
        <text x="0" y="15" font-size="28" fill="#00d4ff" font-weight="bold" filter="url(#textGlow)">3,624</text>
        <text x="0" y="35" font-size="10" fill="#777777">REGISTERED DIDs</text>
    </g>

    <!-- TRANSACTIONS -->
    <g transform="translate(730, 100)">
        <text x="0" y="-20" font-size="12" fill="#aaaaaa">TRANSFERS</text>
        <text x="0" y="15" font-size="28" fill="#ffffff" font-weight="bold">40,757</text>
        <text x="0" y="35" font-size="10" fill="#777777">M2M SETTLEMENTS</text>
    </g>
  </g>

  <text x="425" y="185" font-family="'Consolas', 'Fira Code', monospace" font-size="10" fill="#aaaaaa" opacity="0.6" text-anchor="middle">AXIOMID PROJECTED TARGETS (ILLUSTRATIVE): 2026-07-19 07:58:49 UTC // SECURE_HANDSHAKE</text>
</svg>