<svg width="850" height="200" viewBox="0 0 850 200" xmlns="http://www.w3.org/2000/svg">
  <defs>
    <pattern id="carbonFiber" width="10" height="10" patternUnits="userSpaceOnUse">
        <rect width="10" height="10" fill="#050505"/>
        <path d="M0,0 L5,5 L10,0 L5,-5 Z M5,5 L10,10 L15,5 L10,0 Z M-5,5 L0,10 L5,5 L0,0 Z M0,10 L5,15 L10,10 L5,5 Z" fill="#0d0d0d"/>
    </pattern>
    <filter id="textGlow">
      <feGaussianBlur stdDeviation="2" result="blur" />
      <feMerge>
        <feMergeNode in="blur"/>
        <feMergeNode in="SourceGraphic"/>
      </feMerge>
    </filter>
    <linearGradient id="neonBar" x1="0%" y1="0%" x2="100%" y2="0%">
        <stop offset="0%" stop-color="#111111"/>
        <stop offset="100%" stop-color="#39FF14"/>
    </linearGradient>
    <linearGradient id="scanlineGrad" x1="0%" y1="0%" x2="100%" y2="0%">
        <stop offset="0%" stop-color="#39FF14" stop-opacity="0"/>
        <stop offset="50%" stop-color="#39FF14" stop-opacity="0.18"/>
        <stop offset="100%" stop-color="#39FF14" stop-opacity="0"/>
    </linearGradient>
    <clipPath id="dashClip">
        <rect x="0" y="0" width="850" height="200" rx="12"/>
    </clipPath>
  </defs>

  <rect width="100%" height="100%" fill="url(#carbonFiber)" rx="12" stroke="#39FF14" stroke-width="1" stroke-opacity="0.3"/>
  <rect width="100%" height="100%" fill="#000000" opacity="0.6" rx="12" />
  <g><polygon points="617,72 625.6,77 625.6,87 617,92 608.4,87 608.4,77" fill="none" stroke="#39FF14" stroke-width="1" opacity="0.042703657296397954"/>
<polygon points="33,30 41.6,35 41.6,45 33,50 24.4,45 24.4,35" fill="none" stroke="#39FF14" stroke-width="1" opacity="0.04508678563058873"/>
<polygon points="230,114 238.6,119 238.6,129 230,134 221.4,129 221.4,119" fill="none" stroke="#39FF14" stroke-width="1" opacity="0.03767789920805643"/>
<polygon points="357,42 365.6,47 365.6,57 357,62 348.4,57 348.4,47" fill="none" stroke="#39FF14" stroke-width="1" opacity="0.050047635650474806"/>
<polygon points="320,69 328.6,74 328.6,84 320,89 311.4,84 311.4,74" fill="none" stroke="#39FF14" stroke-width="1" opacity="0.03522446573287416"/>
<polygon points="237,86 245.6,91 245.6,101 237,106 228.4,101 228.4,91" fill="none" stroke="#39FF14" stroke-width="1" opacity="0.05070557059774696"/>
<polygon points="385,100 393.6,105 393.6,115 385,120 376.4,115 376.4,105" fill="none" stroke="#39FF14" stroke-width="1" opacity="0.024157581489953298"/>
<polygon points="67,23 75.6,28 75.6,38 67,43 58.4,38 58.4,28" fill="none" stroke="#39FF14" stroke-width="1" opacity="0.060729074388198745"/>
<polygon points="760,181 768.6,186 768.6,196 760,201 751.4,196 751.4,186" fill="none" stroke="#39FF14" stroke-width="1" opacity="0.07888620097467558"/>
<polygon points="624,179 632.6,184 632.6,194 624,199 615.4,194 615.4,184" fill="none" stroke="#39FF14" stroke-width="1" opacity="0.02133349302772901"/>
<polygon points="649,190 657.6,195 657.6,205 649,210 640.4,205 640.4,195" fill="none" stroke="#39FF14" stroke-width="1" opacity="0.04034237606323075"/>
<polygon points="604,170 612.6,175 612.6,185 604,190 595.4,185 595.4,175" fill="none" stroke="#39FF14" stroke-width="1" opacity="0.07315235803900469"/>
<polygon points="306,137 314.6,142 314.6,152 306,157 297.4,152 297.4,142" fill="none" stroke="#39FF14" stroke-width="1" opacity="0.07558580507387636"/>
<polygon points="711,38 719.6,43 719.6,53 711,58 702.4,53 702.4,43" fill="none" stroke="#39FF14" stroke-width="1" opacity="0.02041368423275068"/>
<polygon points="426,187 434.6,192 434.6,202 426,207 417.4,202 417.4,192" fill="none" stroke="#39FF14" stroke-width="1" opacity="0.07108130966817296"/>
<polygon points="794,81 802.6,86 802.6,96 794,101 785.4,96 785.4,86" fill="none" stroke="#39FF14" stroke-width="1" opacity="0.03731947537269933"/>
<polygon points="265,48 273.6,53 273.6,63 265,68 256.4,63 256.4,53" fill="none" stroke="#39FF14" stroke-width="1" opacity="0.03137416881930894"/>
<polygon points="398,178 406.6,183 406.6,193 398,198 389.4,193 389.4,183" fill="none" stroke="#39FF14" stroke-width="1" opacity="0.04642397618212604"/>
<polygon points="674,81 682.6,86 682.6,96 674,101 665.4,96 665.4,86" fill="none" stroke="#39FF14" stroke-width="1" opacity="0.07708544784275469"/>
<polygon points="359,112 367.6,117 367.6,127 359,132 350.4,127 350.4,117" fill="none" stroke="#39FF14" stroke-width="1" opacity="0.03135836387448891"/>
<polygon points="361,22 369.6,27 369.6,37 361,42 352.4,37 352.4,27" fill="none" stroke="#39FF14" stroke-width="1" opacity="0.02109951510335748"/>
<polygon points="106,90 114.6,95 114.6,105 106,110 97.4,105 97.4,95" fill="none" stroke="#39FF14" stroke-width="1" opacity="0.06549407716297936"/>
<polygon points="252,110 260.6,115 260.6,125 252,130 243.4,125 243.4,115" fill="none" stroke="#39FF14" stroke-width="1" opacity="0.060624738902257086"/>
<polygon points="395,22 403.6,27 403.6,37 395,42 386.4,37 386.4,27" fill="none" stroke="#39FF14" stroke-width="1" opacity="0.027464287198861438"/>
<polygon points="766,6 774.6,11 774.6,21 766,26 757.4,21 757.4,11" fill="none" stroke="#39FF14" stroke-width="1" opacity="0.07635024361633212"/>
<polygon points="654,131 662.6,136 662.6,146 654,151 645.4,146 645.4,136" fill="none" stroke="#39FF14" stroke-width="1" opacity="0.05856731864907484"/>
<polygon points="773,167 781.6,172 781.6,182 773,187 764.4,182 764.4,172" fill="none" stroke="#39FF14" stroke-width="1" opacity="0.05893658278518639"/>
<polygon points="417,65 425.6,70 425.6,80 417,85 408.4,80 408.4,70" fill="none" stroke="#39FF14" stroke-width="1" opacity="0.031208473986970096"/>
<polygon points="356,163 364.6,168 364.6,178 356,183 347.4,178 347.4,168" fill="none" stroke="#39FF14" stroke-width="1" opacity="0.02179990704046923"/>
<polygon points="360,172 368.6,177 368.6,187 360,192 351.4,187 351.4,177" fill="none" stroke="#39FF14" stroke-width="1" opacity="0.036526614522014694"/>
</g>

  <!-- HUD Decorative elements -->
  <path d="M 20 20 L 40 20 L 50 30" fill="none" stroke="#39FF14" stroke-width="2" opacity="0.5"/>
  <path d="M 830 180 L 810 180 L 800 170" fill="none" stroke="#39FF14" stroke-width="2" opacity="0.5"/>

  <g clip-path="url(#dashClip)">
    <rect x="-160" y="0" width="160" height="200" fill="url(#scanlineGrad)">
      <animateTransform attributeName="transform" type="translate"
                        from="0 0" to="1010 0" dur="6s" repeatCount="indefinite"/>
    </rect>
  </g>

  <g font-family="'Consolas', 'Fira Code', monospace" text-anchor="middle">

    <!-- NETWORK STATUS -->
    <g transform="translate(130, 100)">
        <circle cx="0" cy="0" r="45" fill="none" stroke="#39FF14" stroke-width="2" stroke-dasharray="10 5">
            <animateTransform attributeName="transform" type="rotate" from="0" to="360" dur="10s" repeatCount="indefinite"/>
        </circle>
        <circle cx="0" cy="0" r="35" fill="#0d0d0d" />
        <text x="0" y="-60" font-size="12" fill="#aaaaaa" letter-spacing="2">ROOT.AUTH</text>
        <text x="0" y="70" font-size="14" fill="#ffffff" font-weight="bold">OPERATIONAL</text>
    </g>

    <!-- ACTIVE USERS -->
    <g transform="translate(330, 100)">
        <text x="0" y="-20" font-size="12" fill="#aaaaaa">CITIZENS</text>
        <text x="0" y="15" font-size="28" fill="#ffffff" font-weight="bold" filter="url(#textGlow)">15,171</text>
        <text x="0" y="35" font-size="10" fill="#777777">VERIFIED HUMANS</text>
    </g>

    <!-- REGISTERED AGENTS -->
    <g transform="translate(530, 100)">
        <text x="0" y="-20" font-size="12" fill="#aaaaaa">AGENTS</text>
        <text x="0" y="15" font-size="28" fill="#00d4ff" font-weight="bold" filter="url(#textGlow)">4,021</text>
        <text x="0" y="35" font-size="10" fill="#777777">REGISTERED DIDs</text>
    </g>

    <!-- TRANSACTIONS -->
    <g transform="translate(730, 100)">
        <text x="0" y="-20" font-size="12" fill="#aaaaaa">TRANSFERS</text>
        <text x="0" y="15" font-size="28" fill="#ffffff" font-weight="bold">41,116</text>
        <text x="0" y="35" font-size="10" fill="#777777">M2M SETTLEMENTS</text>
    </g>
  </g>

  <text x="425" y="185" font-family="'Consolas', 'Fira Code', monospace" font-size="10" fill="#aaaaaa" opacity="0.6" text-anchor="middle">AXIOMID PROJECTED TARGETS (ILLUSTRATIVE): 2026-07-10 06:33:10 UTC // SECURE_HANDSHAKE</text>
</svg>