<svg width="850" height="200" viewBox="0 0 850 200" xmlns="http://www.w3.org/2000/svg">
  <defs>
    <pattern id="carbonFiber" width="10" height="10" patternUnits="userSpaceOnUse">
        <rect width="10" height="10" fill="#050505"/>
        <path d="M0,0 L5,5 L10,0 L5,-5 Z M5,5 L10,10 L15,5 L10,0 Z M-5,5 L0,10 L5,5 L0,0 Z M0,10 L5,15 L10,10 L5,5 Z" fill="#0d0d0d"/>
    </pattern>
    <filter id="textGlow">
      <feGaussianBlur stdDeviation="2" result="blur" />
      <feMerge>
        <feMergeNode in="blur"/>
        <feMergeNode in="SourceGraphic"/>
      </feMerge>
    </filter>
    <linearGradient id="neonBar" x1="0%" y1="0%" x2="100%" y2="0%">
        <stop offset="0%" stop-color="#111111"/>
        <stop offset="100%" stop-color="#39FF14"/>
    </linearGradient>
    <linearGradient id="scanlineGrad" x1="0%" y1="0%" x2="100%" y2="0%">
        <stop offset="0%" stop-color="#39FF14" stop-opacity="0"/>
        <stop offset="50%" stop-color="#39FF14" stop-opacity="0.18"/>
        <stop offset="100%" stop-color="#39FF14" stop-opacity="0"/>
    </linearGradient>
    <clipPath id="dashClip">
        <rect x="0" y="0" width="850" height="200" rx="12"/>
    </clipPath>
  </defs>

  <rect width="100%" height="100%" fill="url(#carbonFiber)" rx="12" stroke="#39FF14" stroke-width="1" stroke-opacity="0.3"/>
  <rect width="100%" height="100%" fill="#000000" opacity="0.6" rx="12" />
  <g><polygon points="763,106 771.6,111 771.6,121 763,126 754.4,121 754.4,111" fill="none" stroke="#39FF14" stroke-width="1" opacity="0.02448494515794395"/>
<polygon points="536,14 544.6,19 544.6,29 536,34 527.4,29 527.4,19" fill="none" stroke="#39FF14" stroke-width="1" opacity="0.043563144490453135"/>
<polygon points="67,137 75.6,142 75.6,152 67,157 58.4,152 58.4,142" fill="none" stroke="#39FF14" stroke-width="1" opacity="0.050064958189146996"/>
<polygon points="329,130 337.6,135 337.6,145 329,150 320.4,145 320.4,135" fill="none" stroke="#39FF14" stroke-width="1" opacity="0.04530472221682476"/>
<polygon points="164,16 172.6,21 172.6,31 164,36 155.4,31 155.4,21" fill="none" stroke="#39FF14" stroke-width="1" opacity="0.0728970551674753"/>
<polygon points="577,160 585.6,165 585.6,175 577,180 568.4,175 568.4,165" fill="none" stroke="#39FF14" stroke-width="1" opacity="0.07081043665011212"/>
<polygon points="511,-2 519.6,3 519.6,13 511,18 502.4,13 502.4,3" fill="none" stroke="#39FF14" stroke-width="1" opacity="0.02825299373392362"/>
<polygon points="535,46 543.6,51 543.6,61 535,66 526.4,61 526.4,51" fill="none" stroke="#39FF14" stroke-width="1" opacity="0.03956510082895306"/>
<polygon points="710,185 718.6,190 718.6,200 710,205 701.4,200 701.4,190" fill="none" stroke="#39FF14" stroke-width="1" opacity="0.02846608031388676"/>
<polygon points="794,61 802.6,66 802.6,76 794,81 785.4,76 785.4,66" fill="none" stroke="#39FF14" stroke-width="1" opacity="0.0789693642401604"/>
<polygon points="278,4 286.6,9 286.6,19 278,24 269.4,19 269.4,9" fill="none" stroke="#39FF14" stroke-width="1" opacity="0.06466219330918274"/>
<polygon points="696,-1 704.6,4 704.6,14 696,19 687.4,14 687.4,4" fill="none" stroke="#39FF14" stroke-width="1" opacity="0.02299778821455995"/>
<polygon points="711,184 719.6,189 719.6,199 711,204 702.4,199 702.4,189" fill="none" stroke="#39FF14" stroke-width="1" opacity="0.07780616911953263"/>
<polygon points="762,140 770.6,145 770.6,155 762,160 753.4,155 753.4,145" fill="none" stroke="#39FF14" stroke-width="1" opacity="0.038630827262940565"/>
<polygon points="625,108 633.6,113 633.6,123 625,128 616.4,123 616.4,113" fill="none" stroke="#39FF14" stroke-width="1" opacity="0.036703283124542366"/>
<polygon points="528,35 536.6,40 536.6,50 528,55 519.4,50 519.4,40" fill="none" stroke="#39FF14" stroke-width="1" opacity="0.06830903963837746"/>
<polygon points="832,55 840.6,60 840.6,70 832,75 823.4,70 823.4,60" fill="none" stroke="#39FF14" stroke-width="1" opacity="0.04822470900200315"/>
<polygon points="562,74 570.6,79 570.6,89 562,94 553.4,89 553.4,79" fill="none" stroke="#39FF14" stroke-width="1" opacity="0.038314418230304556"/>
<polygon points="589,161 597.6,166 597.6,176 589,181 580.4,176 580.4,166" fill="none" stroke="#39FF14" stroke-width="1" opacity="0.026154195475302892"/>
<polygon points="770,31 778.6,36 778.6,46 770,51 761.4,46 761.4,36" fill="none" stroke="#39FF14" stroke-width="1" opacity="0.035235839785703535"/>
<polygon points="329,101 337.6,106 337.6,116 329,121 320.4,116 320.4,106" fill="none" stroke="#39FF14" stroke-width="1" opacity="0.06285586593328632"/>
<polygon points="422,106 430.6,111 430.6,121 422,126 413.4,121 413.4,111" fill="none" stroke="#39FF14" stroke-width="1" opacity="0.05496214566874835"/>
<polygon points="383,63 391.6,68 391.6,78 383,83 374.4,78 374.4,68" fill="none" stroke="#39FF14" stroke-width="1" opacity="0.02615964864545097"/>
<polygon points="799,164 807.6,169 807.6,179 799,184 790.4,179 790.4,169" fill="none" stroke="#39FF14" stroke-width="1" opacity="0.029527955976175937"/>
<polygon points="305,97 313.6,102 313.6,112 305,117 296.4,112 296.4,102" fill="none" stroke="#39FF14" stroke-width="1" opacity="0.055914635262766424"/>
<polygon points="730,13 738.6,18 738.6,28 730,33 721.4,28 721.4,18" fill="none" stroke="#39FF14" stroke-width="1" opacity="0.028813565023734562"/>
<polygon points="141,58 149.6,63 149.6,73 141,78 132.4,73 132.4,63" fill="none" stroke="#39FF14" stroke-width="1" opacity="0.027196439571841306"/>
<polygon points="747,159 755.6,164 755.6,174 747,179 738.4,174 738.4,164" fill="none" stroke="#39FF14" stroke-width="1" opacity="0.0789064905304582"/>
<polygon points="55,105 63.6,110 63.6,120 55,125 46.4,120 46.4,110" fill="none" stroke="#39FF14" stroke-width="1" opacity="0.07690136410814831"/>
<polygon points="145,95 153.6,100 153.6,110 145,115 136.4,110 136.4,100" fill="none" stroke="#39FF14" stroke-width="1" opacity="0.07296540083456815"/>
</g>

  <!-- HUD Decorative elements -->
  <path d="M 20 20 L 40 20 L 50 30" fill="none" stroke="#39FF14" stroke-width="2" opacity="0.5"/>
  <path d="M 830 180 L 810 180 L 800 170" fill="none" stroke="#39FF14" stroke-width="2" opacity="0.5"/>

  <g clip-path="url(#dashClip)">
    <rect x="-160" y="0" width="160" height="200" fill="url(#scanlineGrad)">
      <animateTransform attributeName="transform" type="translate"
                        from="0 0" to="1010 0" dur="6s" repeatCount="indefinite"/>
    </rect>
  </g>

  <g font-family="'Consolas', 'Fira Code', monospace" text-anchor="middle">

    <!-- NETWORK STATUS -->
    <g transform="translate(130, 100)">
        <circle cx="0" cy="0" r="45" fill="none" stroke="#39FF14" stroke-width="2" stroke-dasharray="10 5">
            <animateTransform attributeName="transform" type="rotate" from="0" to="360" dur="10s" repeatCount="indefinite"/>
        </circle>
        <circle cx="0" cy="0" r="35" fill="#0d0d0d" />
        <text x="0" y="-60" font-size="12" fill="#aaaaaa" letter-spacing="2">ROOT.AUTH</text>
        <text x="0" y="70" font-size="14" fill="#ffffff" font-weight="bold">OPERATIONAL</text>
    </g>

    <!-- ACTIVE USERS -->
    <g transform="translate(330, 100)">
        <text x="0" y="-20" font-size="12" fill="#aaaaaa">CITIZENS</text>
        <text x="0" y="15" font-size="28" fill="#ffffff" font-weight="bold" filter="url(#textGlow)">14,915</text>
        <text x="0" y="35" font-size="10" fill="#777777">VERIFIED HUMANS</text>
    </g>

    <!-- REGISTERED AGENTS -->
    <g transform="translate(530, 100)">
        <text x="0" y="-20" font-size="12" fill="#aaaaaa">AGENTS</text>
        <text x="0" y="15" font-size="28" fill="#00d4ff" font-weight="bold" filter="url(#textGlow)">3,812</text>
        <text x="0" y="35" font-size="10" fill="#777777">REGISTERED DIDs</text>
    </g>

    <!-- TRANSACTIONS -->
    <g transform="translate(730, 100)">
        <text x="0" y="-20" font-size="12" fill="#aaaaaa">TRANSFERS</text>
        <text x="0" y="15" font-size="28" fill="#ffffff" font-weight="bold">40,817</text>
        <text x="0" y="35" font-size="10" fill="#777777">M2M SETTLEMENTS</text>
    </g>
  </g>

  <text x="425" y="185" font-family="'Consolas', 'Fira Code', monospace" font-size="10" fill="#aaaaaa" opacity="0.6" text-anchor="middle">AXIOMID PROJECTED TARGETS (ILLUSTRATIVE): 2026-06-20 12:32:16 UTC // SECURE_HANDSHAKE</text>
</svg>