<svg width="850" height="200" viewBox="0 0 850 200" xmlns="http://www.w3.org/2000/svg">
  <defs>
    <pattern id="carbonFiber" width="10" height="10" patternUnits="userSpaceOnUse">
        <rect width="10" height="10" fill="#050505"/>
        <path d="M0,0 L5,5 L10,0 L5,-5 Z M5,5 L10,10 L15,5 L10,0 Z M-5,5 L0,10 L5,5 L0,0 Z M0,10 L5,15 L10,10 L5,5 Z" fill="#0d0d0d"/>
    </pattern>
    <filter id="textGlow">
      <feGaussianBlur stdDeviation="2" result="blur" />
      <feMerge>
        <feMergeNode in="blur"/>
        <feMergeNode in="SourceGraphic"/>
      </feMerge>
    </filter>
    <linearGradient id="neonBar" x1="0%" y1="0%" x2="100%" y2="0%">
        <stop offset="0%" stop-color="#111111"/>
        <stop offset="100%" stop-color="#39FF14"/>
    </linearGradient>
    <linearGradient id="scanlineGrad" x1="0%" y1="0%" x2="100%" y2="0%">
        <stop offset="0%" stop-color="#39FF14" stop-opacity="0"/>
        <stop offset="50%" stop-color="#39FF14" stop-opacity="0.18"/>
        <stop offset="100%" stop-color="#39FF14" stop-opacity="0"/>
    </linearGradient>
    <clipPath id="dashClip">
        <rect x="0" y="0" width="850" height="200" rx="12"/>
    </clipPath>
  </defs>

  <rect width="100%" height="100%" fill="url(#carbonFiber)" rx="12" stroke="#39FF14" stroke-width="1" stroke-opacity="0.3"/>
  <rect width="100%" height="100%" fill="#000000" opacity="0.6" rx="12" />
  <g><polygon points="232,24 240.6,29 240.6,39 232,44 223.4,39 223.4,29" fill="none" stroke="#39FF14" stroke-width="1" opacity="0.034638227109500694"/>
<polygon points="833,45 841.6,50 841.6,60 833,65 824.4,60 824.4,50" fill="none" stroke="#39FF14" stroke-width="1" opacity="0.030557280022665737"/>
<polygon points="169,92 177.6,97 177.6,107 169,112 160.4,107 160.4,97" fill="none" stroke="#39FF14" stroke-width="1" opacity="0.03958746962918717"/>
<polygon points="788,24 796.6,29 796.6,39 788,44 779.4,39 779.4,29" fill="none" stroke="#39FF14" stroke-width="1" opacity="0.06290452942603791"/>
<polygon points="764,190 772.6,195 772.6,205 764,210 755.4,205 755.4,195" fill="none" stroke="#39FF14" stroke-width="1" opacity="0.07631824014898587"/>
<polygon points="824,140 832.6,145 832.6,155 824,160 815.4,155 815.4,145" fill="none" stroke="#39FF14" stroke-width="1" opacity="0.07314198143598304"/>
<polygon points="236,131 244.6,136 244.6,146 236,151 227.4,146 227.4,136" fill="none" stroke="#39FF14" stroke-width="1" opacity="0.04548101583320321"/>
<polygon points="421,-1 429.6,4 429.6,14 421,19 412.4,14 412.4,4" fill="none" stroke="#39FF14" stroke-width="1" opacity="0.03264877572546788"/>
<polygon points="542,39 550.6,44 550.6,54 542,59 533.4,54 533.4,44" fill="none" stroke="#39FF14" stroke-width="1" opacity="0.03501429971739019"/>
<polygon points="495,91 503.6,96 503.6,106 495,111 486.4,106 486.4,96" fill="none" stroke="#39FF14" stroke-width="1" opacity="0.02748144316134756"/>
<polygon points="644,73 652.6,78 652.6,88 644,93 635.4,88 635.4,78" fill="none" stroke="#39FF14" stroke-width="1" opacity="0.07365956603653973"/>
<polygon points="521,104 529.6,109 529.6,119 521,124 512.4,119 512.4,109" fill="none" stroke="#39FF14" stroke-width="1" opacity="0.0749666258348288"/>
<polygon points="239,11 247.6,16 247.6,26 239,31 230.4,26 230.4,16" fill="none" stroke="#39FF14" stroke-width="1" opacity="0.07440769547637686"/>
<polygon points="42,52 50.6,57 50.6,67 42,72 33.4,67 33.4,57" fill="none" stroke="#39FF14" stroke-width="1" opacity="0.051820933593610105"/>
<polygon points="846,177 854.6,182 854.6,192 846,197 837.4,192 837.4,182" fill="none" stroke="#39FF14" stroke-width="1" opacity="0.03177346008150551"/>
<polygon points="435,95 443.6,100 443.6,110 435,115 426.4,110 426.4,100" fill="none" stroke="#39FF14" stroke-width="1" opacity="0.03165744233902827"/>
<polygon points="206,-7 214.6,-2 214.6,8 206,13 197.4,8 197.4,-2" fill="none" stroke="#39FF14" stroke-width="1" opacity="0.03844322548632827"/>
<polygon points="765,119 773.6,124 773.6,134 765,139 756.4,134 756.4,124" fill="none" stroke="#39FF14" stroke-width="1" opacity="0.04967615576683074"/>
<polygon points="120,9 128.6,14 128.6,24 120,29 111.4,24 111.4,14" fill="none" stroke="#39FF14" stroke-width="1" opacity="0.04972410793712185"/>
<polygon points="557,35 565.6,40 565.6,50 557,55 548.4,50 548.4,40" fill="none" stroke="#39FF14" stroke-width="1" opacity="0.04797425566565075"/>
<polygon points="491,109 499.6,114 499.6,124 491,129 482.4,124 482.4,114" fill="none" stroke="#39FF14" stroke-width="1" opacity="0.059200071200502746"/>
<polygon points="663,98 671.6,103 671.6,113 663,118 654.4,113 654.4,103" fill="none" stroke="#39FF14" stroke-width="1" opacity="0.06898295845894753"/>
<polygon points="833,53 841.6,58 841.6,68 833,73 824.4,68 824.4,58" fill="none" stroke="#39FF14" stroke-width="1" opacity="0.043536454356219736"/>
<polygon points="186,28 194.6,33 194.6,43 186,48 177.4,43 177.4,33" fill="none" stroke="#39FF14" stroke-width="1" opacity="0.05884533536418607"/>
<polygon points="81,1 89.6,6 89.6,16 81,21 72.4,16 72.4,6" fill="none" stroke="#39FF14" stroke-width="1" opacity="0.03962947856184901"/>
<polygon points="243,158 251.6,163 251.6,173 243,178 234.4,173 234.4,163" fill="none" stroke="#39FF14" stroke-width="1" opacity="0.04414733556372502"/>
<polygon points="648,67 656.6,72 656.6,82 648,87 639.4,82 639.4,72" fill="none" stroke="#39FF14" stroke-width="1" opacity="0.029592052655379744"/>
<polygon points="282,64 290.6,69 290.6,79 282,84 273.4,79 273.4,69" fill="none" stroke="#39FF14" stroke-width="1" opacity="0.042284017387179976"/>
<polygon points="695,17 703.6,22 703.6,32 695,37 686.4,32 686.4,22" fill="none" stroke="#39FF14" stroke-width="1" opacity="0.027218489074027276"/>
<polygon points="648,148 656.6,153 656.6,163 648,168 639.4,163 639.4,153" fill="none" stroke="#39FF14" stroke-width="1" opacity="0.02394763176772416"/>
</g>

  <!-- HUD Decorative elements -->
  <path d="M 20 20 L 40 20 L 50 30" fill="none" stroke="#39FF14" stroke-width="2" opacity="0.5"/>
  <path d="M 830 180 L 810 180 L 800 170" fill="none" stroke="#39FF14" stroke-width="2" opacity="0.5"/>

  <g clip-path="url(#dashClip)">
    <rect x="-160" y="0" width="160" height="200" fill="url(#scanlineGrad)">
      <animateTransform attributeName="transform" type="translate"
                        from="0 0" to="1010 0" dur="6s" repeatCount="indefinite"/>
    </rect>
  </g>

  <g font-family="'Consolas', 'Fira Code', monospace" text-anchor="middle">

    <!-- NETWORK STATUS -->
    <g transform="translate(130, 100)">
        <circle cx="0" cy="0" r="45" fill="none" stroke="#39FF14" stroke-width="2" stroke-dasharray="10 5">
            <animateTransform attributeName="transform" type="rotate" from="0" to="360" dur="10s" repeatCount="indefinite"/>
        </circle>
        <circle cx="0" cy="0" r="35" fill="#0d0d0d" />
        <text x="0" y="-60" font-size="12" fill="#aaaaaa" letter-spacing="2">ROOT.AUTH</text>
        <text x="0" y="70" font-size="14" fill="#ffffff" font-weight="bold">OPERATIONAL</text>
    </g>

    <!-- ACTIVE USERS -->
    <g transform="translate(330, 100)">
        <text x="0" y="-20" font-size="12" fill="#aaaaaa">CITIZENS</text>
        <text x="0" y="15" font-size="28" fill="#ffffff" font-weight="bold" filter="url(#textGlow)">13,323</text>
        <text x="0" y="35" font-size="10" fill="#777777">VERIFIED HUMANS</text>
    </g>

    <!-- REGISTERED AGENTS -->
    <g transform="translate(530, 100)">
        <text x="0" y="-20" font-size="12" fill="#aaaaaa">AGENTS</text>
        <text x="0" y="15" font-size="28" fill="#00d4ff" font-weight="bold" filter="url(#textGlow)">3,440</text>
        <text x="0" y="35" font-size="10" fill="#777777">REGISTERED DIDs</text>
    </g>

    <!-- TRANSACTIONS -->
    <g transform="translate(730, 100)">
        <text x="0" y="-20" font-size="12" fill="#aaaaaa">TRANSFERS</text>
        <text x="0" y="15" font-size="28" fill="#ffffff" font-weight="bold">40,507</text>
        <text x="0" y="35" font-size="10" fill="#777777">M2M SETTLEMENTS</text>
    </g>
  </g>

  <text x="425" y="185" font-family="'Consolas', 'Fira Code', monospace" font-size="10" fill="#aaaaaa" opacity="0.6" text-anchor="middle">AXIOMID PROJECTED TARGETS (ILLUSTRATIVE): 2026-07-12 12:56:12 UTC // SECURE_HANDSHAKE</text>
</svg>