<svg width="850" height="200" viewBox="0 0 850 200" xmlns="http://www.w3.org/2000/svg">
  <defs>
    <pattern id="carbonFiber" width="10" height="10" patternUnits="userSpaceOnUse">
        <rect width="10" height="10" fill="#050505"/>
        <path d="M0,0 L5,5 L10,0 L5,-5 Z M5,5 L10,10 L15,5 L10,0 Z M-5,5 L0,10 L5,5 L0,0 Z M0,10 L5,15 L10,10 L5,5 Z" fill="#0d0d0d"/>
    </pattern>
    <filter id="textGlow">
      <feGaussianBlur stdDeviation="2" result="blur" />
      <feMerge>
        <feMergeNode in="blur"/>
        <feMergeNode in="SourceGraphic"/>
      </feMerge>
    </filter>
    <linearGradient id="neonBar" x1="0%" y1="0%" x2="100%" y2="0%">
        <stop offset="0%" stop-color="#111111"/>
        <stop offset="100%" stop-color="#39FF14"/>
    </linearGradient>
    <linearGradient id="scanlineGrad" x1="0%" y1="0%" x2="100%" y2="0%">
        <stop offset="0%" stop-color="#39FF14" stop-opacity="0"/>
        <stop offset="50%" stop-color="#39FF14" stop-opacity="0.18"/>
        <stop offset="100%" stop-color="#39FF14" stop-opacity="0"/>
    </linearGradient>
    <clipPath id="dashClip">
        <rect x="0" y="0" width="850" height="200" rx="12"/>
    </clipPath>
  </defs>

  <rect width="100%" height="100%" fill="url(#carbonFiber)" rx="12" stroke="#39FF14" stroke-width="1" stroke-opacity="0.3"/>
  <rect width="100%" height="100%" fill="#000000" opacity="0.6" rx="12" />
  <g><polygon points="475,141 483.6,146 483.6,156 475,161 466.4,156 466.4,146" fill="none" stroke="#39FF14" stroke-width="1" opacity="0.07480486261203051"/>
<polygon points="844,26 852.6,31 852.6,41 844,46 835.4,41 835.4,31" fill="none" stroke="#39FF14" stroke-width="1" opacity="0.04416210878440244"/>
<polygon points="530,86 538.6,91 538.6,101 530,106 521.4,101 521.4,91" fill="none" stroke="#39FF14" stroke-width="1" opacity="0.045581050053176995"/>
<polygon points="430,101 438.6,106 438.6,116 430,121 421.4,116 421.4,106" fill="none" stroke="#39FF14" stroke-width="1" opacity="0.0733851608200477"/>
<polygon points="260,91 268.6,96 268.6,106 260,111 251.4,106 251.4,96" fill="none" stroke="#39FF14" stroke-width="1" opacity="0.024698807348789154"/>
<polygon points="609,62 617.6,67 617.6,77 609,82 600.4,77 600.4,67" fill="none" stroke="#39FF14" stroke-width="1" opacity="0.07523951061819137"/>
<polygon points="76,187 84.6,192 84.6,202 76,207 67.4,202 67.4,192" fill="none" stroke="#39FF14" stroke-width="1" opacity="0.023905463691558368"/>
<polygon points="94,179 102.6,184 102.6,194 94,199 85.4,194 85.4,184" fill="none" stroke="#39FF14" stroke-width="1" opacity="0.025397177369447122"/>
<polygon points="221,89 229.6,94 229.6,104 221,109 212.4,104 212.4,94" fill="none" stroke="#39FF14" stroke-width="1" opacity="0.07503349722076037"/>
<polygon points="657,79 665.6,84 665.6,94 657,99 648.4,94 648.4,84" fill="none" stroke="#39FF14" stroke-width="1" opacity="0.024305887988439977"/>
<polygon points="560,146 568.6,151 568.6,161 560,166 551.4,161 551.4,151" fill="none" stroke="#39FF14" stroke-width="1" opacity="0.0615316675596593"/>
<polygon points="249,59 257.6,64 257.6,74 249,79 240.4,74 240.4,64" fill="none" stroke="#39FF14" stroke-width="1" opacity="0.07749802369923983"/>
<polygon points="806,25 814.6,30 814.6,40 806,45 797.4,40 797.4,30" fill="none" stroke="#39FF14" stroke-width="1" opacity="0.06631828996484672"/>
<polygon points="234,121 242.6,126 242.6,136 234,141 225.4,136 225.4,126" fill="none" stroke="#39FF14" stroke-width="1" opacity="0.07322024768091596"/>
<polygon points="438,58 446.6,63 446.6,73 438,78 429.4,73 429.4,63" fill="none" stroke="#39FF14" stroke-width="1" opacity="0.03281005809023425"/>
<polygon points="841,63 849.6,68 849.6,78 841,83 832.4,78 832.4,68" fill="none" stroke="#39FF14" stroke-width="1" opacity="0.027577964683654616"/>
<polygon points="371,145 379.6,150 379.6,160 371,165 362.4,160 362.4,150" fill="none" stroke="#39FF14" stroke-width="1" opacity="0.0221581164564555"/>
<polygon points="472,9 480.6,14 480.6,24 472,29 463.4,24 463.4,14" fill="none" stroke="#39FF14" stroke-width="1" opacity="0.03635474739236641"/>
<polygon points="780,42 788.6,47 788.6,57 780,62 771.4,57 771.4,47" fill="none" stroke="#39FF14" stroke-width="1" opacity="0.06565061241241707"/>
<polygon points="139,129 147.6,134 147.6,144 139,149 130.4,144 130.4,134" fill="none" stroke="#39FF14" stroke-width="1" opacity="0.0650820986437381"/>
<polygon points="660,107 668.6,112 668.6,122 660,127 651.4,122 651.4,112" fill="none" stroke="#39FF14" stroke-width="1" opacity="0.055903528974716385"/>
<polygon points="33,12 41.6,17 41.6,27 33,32 24.4,27 24.4,17" fill="none" stroke="#39FF14" stroke-width="1" opacity="0.06614546506130896"/>
<polygon points="849,167 857.6,172 857.6,182 849,187 840.4,182 840.4,172" fill="none" stroke="#39FF14" stroke-width="1" opacity="0.05025820900700999"/>
<polygon points="46,184 54.6,189 54.6,199 46,204 37.4,199 37.4,189" fill="none" stroke="#39FF14" stroke-width="1" opacity="0.04251809982356923"/>
<polygon points="721,118 729.6,123 729.6,133 721,138 712.4,133 712.4,123" fill="none" stroke="#39FF14" stroke-width="1" opacity="0.07805977265865285"/>
<polygon points="598,30 606.6,35 606.6,45 598,50 589.4,45 589.4,35" fill="none" stroke="#39FF14" stroke-width="1" opacity="0.07938143135061378"/>
<polygon points="715,108 723.6,113 723.6,123 715,128 706.4,123 706.4,113" fill="none" stroke="#39FF14" stroke-width="1" opacity="0.03403599546370348"/>
<polygon points="404,75 412.6,80 412.6,90 404,95 395.4,90 395.4,80" fill="none" stroke="#39FF14" stroke-width="1" opacity="0.07046879415490535"/>
<polygon points="479,-2 487.6,3 487.6,13 479,18 470.4,13 470.4,3" fill="none" stroke="#39FF14" stroke-width="1" opacity="0.05124947079291557"/>
<polygon points="111,70 119.6,75 119.6,85 111,90 102.4,85 102.4,75" fill="none" stroke="#39FF14" stroke-width="1" opacity="0.033282942294278674"/>
</g>

  <!-- HUD Decorative elements -->
  <path d="M 20 20 L 40 20 L 50 30" fill="none" stroke="#39FF14" stroke-width="2" opacity="0.5"/>
  <path d="M 830 180 L 810 180 L 800 170" fill="none" stroke="#39FF14" stroke-width="2" opacity="0.5"/>

  <g clip-path="url(#dashClip)">
    <rect x="-160" y="0" width="160" height="200" fill="url(#scanlineGrad)">
      <animateTransform attributeName="transform" type="translate"
                        from="0 0" to="1010 0" dur="6s" repeatCount="indefinite"/>
    </rect>
  </g>

  <g font-family="'Consolas', 'Fira Code', monospace" text-anchor="middle">

    <!-- NETWORK STATUS -->
    <g transform="translate(130, 100)">
        <circle cx="0" cy="0" r="45" fill="none" stroke="#39FF14" stroke-width="2" stroke-dasharray="10 5">
            <animateTransform attributeName="transform" type="rotate" from="0" to="360" dur="10s" repeatCount="indefinite"/>
        </circle>
        <circle cx="0" cy="0" r="35" fill="#0d0d0d" />
        <text x="0" y="-60" font-size="12" fill="#aaaaaa" letter-spacing="2">ROOT.AUTH</text>
        <text x="0" y="70" font-size="14" fill="#ffffff" font-weight="bold">OPERATIONAL</text>
    </g>

    <!-- ACTIVE USERS -->
    <g transform="translate(330, 100)">
        <text x="0" y="-20" font-size="12" fill="#aaaaaa">CITIZENS</text>
        <text x="0" y="15" font-size="28" fill="#ffffff" font-weight="bold" filter="url(#textGlow)">14,551</text>
        <text x="0" y="35" font-size="10" fill="#777777">VERIFIED HUMANS</text>
    </g>

    <!-- REGISTERED AGENTS -->
    <g transform="translate(530, 100)">
        <text x="0" y="-20" font-size="12" fill="#aaaaaa">AGENTS</text>
        <text x="0" y="15" font-size="28" fill="#00d4ff" font-weight="bold" filter="url(#textGlow)">3,663</text>
        <text x="0" y="35" font-size="10" fill="#777777">REGISTERED DIDs</text>
    </g>

    <!-- TRANSACTIONS -->
    <g transform="translate(730, 100)">
        <text x="0" y="-20" font-size="12" fill="#aaaaaa">TRANSFERS</text>
        <text x="0" y="15" font-size="28" fill="#ffffff" font-weight="bold">36,045</text>
        <text x="0" y="35" font-size="10" fill="#777777">M2M SETTLEMENTS</text>
    </g>
  </g>

  <text x="425" y="185" font-family="'Consolas', 'Fira Code', monospace" font-size="10" fill="#aaaaaa" opacity="0.6" text-anchor="middle">AXIOMID PROJECTED TARGETS (ILLUSTRATIVE): 2026-06-24 18:33:15 UTC // SECURE_HANDSHAKE</text>
</svg>