<svg width="850" height="200" viewBox="0 0 850 200" xmlns="http://www.w3.org/2000/svg">
  <defs>
    <pattern id="carbonFiber" width="10" height="10" patternUnits="userSpaceOnUse">
        <rect width="10" height="10" fill="#050505"/>
        <path d="M0,0 L5,5 L10,0 L5,-5 Z M5,5 L10,10 L15,5 L10,0 Z M-5,5 L0,10 L5,5 L0,0 Z M0,10 L5,15 L10,10 L5,5 Z" fill="#0d0d0d"/>
    </pattern>
    <filter id="textGlow">
      <feGaussianBlur stdDeviation="2" result="blur" />
      <feMerge>
        <feMergeNode in="blur"/>
        <feMergeNode in="SourceGraphic"/>
      </feMerge>
    </filter>
    <linearGradient id="neonBar" x1="0%" y1="0%" x2="100%" y2="0%">
        <stop offset="0%" stop-color="#111111"/>
        <stop offset="100%" stop-color="#39FF14"/>
    </linearGradient>
    <linearGradient id="scanlineGrad" x1="0%" y1="0%" x2="100%" y2="0%">
        <stop offset="0%" stop-color="#39FF14" stop-opacity="0"/>
        <stop offset="50%" stop-color="#39FF14" stop-opacity="0.18"/>
        <stop offset="100%" stop-color="#39FF14" stop-opacity="0"/>
    </linearGradient>
    <clipPath id="dashClip">
        <rect x="0" y="0" width="850" height="200" rx="12"/>
    </clipPath>
  </defs>

  <rect width="100%" height="100%" fill="url(#carbonFiber)" rx="12" stroke="#39FF14" stroke-width="1" stroke-opacity="0.3"/>
  <rect width="100%" height="100%" fill="#000000" opacity="0.6" rx="12" />
  <g><polygon points="637,-4 645.6,1 645.6,11 637,16 628.4,11 628.4,1" fill="none" stroke="#39FF14" stroke-width="1" opacity="0.02302889598183941"/>
<polygon points="294,179 302.6,184 302.6,194 294,199 285.4,194 285.4,184" fill="none" stroke="#39FF14" stroke-width="1" opacity="0.04032304413830275"/>
<polygon points="339,124 347.6,129 347.6,139 339,144 330.4,139 330.4,129" fill="none" stroke="#39FF14" stroke-width="1" opacity="0.057945694196502695"/>
<polygon points="673,74 681.6,79 681.6,89 673,94 664.4,89 664.4,79" fill="none" stroke="#39FF14" stroke-width="1" opacity="0.04777326571795035"/>
<polygon points="431,135 439.6,140 439.6,150 431,155 422.4,150 422.4,140" fill="none" stroke="#39FF14" stroke-width="1" opacity="0.0628482295777685"/>
<polygon points="181,79 189.6,84 189.6,94 181,99 172.4,94 172.4,84" fill="none" stroke="#39FF14" stroke-width="1" opacity="0.063261015044768"/>
<polygon points="766,185 774.6,190 774.6,200 766,205 757.4,200 757.4,190" fill="none" stroke="#39FF14" stroke-width="1" opacity="0.038073661558634606"/>
<polygon points="218,150 226.6,155 226.6,165 218,170 209.4,165 209.4,155" fill="none" stroke="#39FF14" stroke-width="1" opacity="0.039450780647032245"/>
<polygon points="492,45 500.6,50 500.6,60 492,65 483.4,60 483.4,50" fill="none" stroke="#39FF14" stroke-width="1" opacity="0.02768853450637903"/>
<polygon points="848,48 856.6,53 856.6,63 848,68 839.4,63 839.4,53" fill="none" stroke="#39FF14" stroke-width="1" opacity="0.023201792822012922"/>
<polygon points="370,171 378.6,176 378.6,186 370,191 361.4,186 361.4,176" fill="none" stroke="#39FF14" stroke-width="1" opacity="0.0661106948055633"/>
<polygon points="175,190 183.6,195 183.6,205 175,210 166.4,205 166.4,195" fill="none" stroke="#39FF14" stroke-width="1" opacity="0.050514161286009406"/>
<polygon points="833,86 841.6,91 841.6,101 833,106 824.4,101 824.4,91" fill="none" stroke="#39FF14" stroke-width="1" opacity="0.07247483479067286"/>
<polygon points="827,11 835.6,16 835.6,26 827,31 818.4,26 818.4,16" fill="none" stroke="#39FF14" stroke-width="1" opacity="0.028122316390838835"/>
<polygon points="800,81 808.6,86 808.6,96 800,101 791.4,96 791.4,86" fill="none" stroke="#39FF14" stroke-width="1" opacity="0.06694931221008583"/>
<polygon points="809,169 817.6,174 817.6,184 809,189 800.4,184 800.4,174" fill="none" stroke="#39FF14" stroke-width="1" opacity="0.06469810128111951"/>
<polygon points="168,136 176.6,141 176.6,151 168,156 159.4,151 159.4,141" fill="none" stroke="#39FF14" stroke-width="1" opacity="0.07949373752050223"/>
<polygon points="356,7 364.6,12 364.6,22 356,27 347.4,22 347.4,12" fill="none" stroke="#39FF14" stroke-width="1" opacity="0.039400845446037065"/>
<polygon points="187,96 195.6,101 195.6,111 187,116 178.4,111 178.4,101" fill="none" stroke="#39FF14" stroke-width="1" opacity="0.06869089235081466"/>
<polygon points="398,4 406.6,9 406.6,19 398,24 389.4,19 389.4,9" fill="none" stroke="#39FF14" stroke-width="1" opacity="0.05370516427686772"/>
<polygon points="203,31 211.6,36 211.6,46 203,51 194.4,46 194.4,36" fill="none" stroke="#39FF14" stroke-width="1" opacity="0.023978175731837484"/>
<polygon points="615,81 623.6,86 623.6,96 615,101 606.4,96 606.4,86" fill="none" stroke="#39FF14" stroke-width="1" opacity="0.04214798352888678"/>
<polygon points="395,92 403.6,97 403.6,107 395,112 386.4,107 386.4,97" fill="none" stroke="#39FF14" stroke-width="1" opacity="0.07518345852939873"/>
<polygon points="276,189 284.6,194 284.6,204 276,209 267.4,204 267.4,194" fill="none" stroke="#39FF14" stroke-width="1" opacity="0.06353115777856133"/>
<polygon points="80,118 88.6,123 88.6,133 80,138 71.4,133 71.4,123" fill="none" stroke="#39FF14" stroke-width="1" opacity="0.07835989357488446"/>
<polygon points="832,47 840.6,52 840.6,62 832,67 823.4,62 823.4,52" fill="none" stroke="#39FF14" stroke-width="1" opacity="0.020866923254988977"/>
<polygon points="302,132 310.6,137 310.6,147 302,152 293.4,147 293.4,137" fill="none" stroke="#39FF14" stroke-width="1" opacity="0.06414037339636153"/>
<polygon points="408,15 416.6,20 416.6,30 408,35 399.4,30 399.4,20" fill="none" stroke="#39FF14" stroke-width="1" opacity="0.03958413869837506"/>
<polygon points="116,40 124.6,45 124.6,55 116,60 107.4,55 107.4,45" fill="none" stroke="#39FF14" stroke-width="1" opacity="0.04489620954958925"/>
<polygon points="249,66 257.6,71 257.6,81 249,86 240.4,81 240.4,71" fill="none" stroke="#39FF14" stroke-width="1" opacity="0.034527147480913116"/>
</g>

  <!-- HUD Decorative elements -->
  <path d="M 20 20 L 40 20 L 50 30" fill="none" stroke="#39FF14" stroke-width="2" opacity="0.5"/>
  <path d="M 830 180 L 810 180 L 800 170" fill="none" stroke="#39FF14" stroke-width="2" opacity="0.5"/>

  <g clip-path="url(#dashClip)">
    <rect x="-160" y="0" width="160" height="200" fill="url(#scanlineGrad)">
      <animateTransform attributeName="transform" type="translate"
                        from="0 0" to="1010 0" dur="6s" repeatCount="indefinite"/>
    </rect>
  </g>

  <g font-family="'Consolas', 'Fira Code', monospace" text-anchor="middle">

    <!-- NETWORK STATUS -->
    <g transform="translate(130, 100)">
        <circle cx="0" cy="0" r="45" fill="none" stroke="#39FF14" stroke-width="2" stroke-dasharray="10 5">
            <animateTransform attributeName="transform" type="rotate" from="0" to="360" dur="10s" repeatCount="indefinite"/>
        </circle>
        <circle cx="0" cy="0" r="35" fill="#0d0d0d" />
        <text x="0" y="-60" font-size="12" fill="#aaaaaa" letter-spacing="2">ROOT.AUTH</text>
        <text x="0" y="70" font-size="14" fill="#ffffff" font-weight="bold">OPERATIONAL</text>
    </g>

    <!-- ACTIVE USERS -->
    <g transform="translate(330, 100)">
        <text x="0" y="-20" font-size="12" fill="#aaaaaa">CITIZENS</text>
        <text x="0" y="15" font-size="28" fill="#ffffff" font-weight="bold" filter="url(#textGlow)">12,994</text>
        <text x="0" y="35" font-size="10" fill="#777777">VERIFIED HUMANS</text>
    </g>

    <!-- REGISTERED AGENTS -->
    <g transform="translate(530, 100)">
        <text x="0" y="-20" font-size="12" fill="#aaaaaa">AGENTS</text>
        <text x="0" y="15" font-size="28" fill="#00d4ff" font-weight="bold" filter="url(#textGlow)">3,570</text>
        <text x="0" y="35" font-size="10" fill="#777777">REGISTERED DIDs</text>
    </g>

    <!-- TRANSACTIONS -->
    <g transform="translate(730, 100)">
        <text x="0" y="-20" font-size="12" fill="#aaaaaa">TRANSFERS</text>
        <text x="0" y="15" font-size="28" fill="#ffffff" font-weight="bold">31,671</text>
        <text x="0" y="35" font-size="10" fill="#777777">M2M SETTLEMENTS</text>
    </g>
  </g>

  <text x="425" y="185" font-family="'Consolas', 'Fira Code', monospace" font-size="10" fill="#aaaaaa" opacity="0.6" text-anchor="middle">AXIOMID PROJECTED TARGETS (ILLUSTRATIVE): 2026-07-23 01:52:03 UTC // SECURE_HANDSHAKE</text>
</svg>