<svg width="850" height="200" viewBox="0 0 850 200" xmlns="http://www.w3.org/2000/svg">
  <defs>
    <!-- Carbon Fiber Pattern -->
    <pattern id="carbonFiber" width="10" height="10" patternUnits="userSpaceOnUse">
        <rect width="10" height="10" fill="#050505"/>
        <path d="M0,0 L5,5 L10,0 L5,-5 Z M5,5 L10,10 L15,5 L10,0 Z M-5,5 L0,10 L5,5 L0,0 Z M0,10 L5,15 L10,10 L5,5 Z" fill="#0d0d0d"/>
    </pattern>
    <filter id="glassmorphism">
      <feGaussianBlur stdDeviation="3" result="blur" />
      <feColorMatrix type="matrix" values="1 0 0 0 0  0 1 0 0 0  0 0 1 0 0  0 0 0 18 -7" result="glow" />
      <feBlend in="SourceGraphic" in2="glow" mode="normal" />
    </filter>
    <filter id="textGlow">
      <feGaussianBlur stdDeviation="2" result="blur" />
      <feMerge>
        <feMergeNode in="blur"/>
        <feMergeNode in="SourceGraphic"/>
      </feMerge>
    </filter>
    <linearGradient id="neonBar" x1="0%" y1="0%" x2="100%" y2="0%">
        <stop offset="0%" stop-color="#111111"/>
        <stop offset="100%" stop-color="#39FF14"/>
    </linearGradient>
  </defs>

  <rect width="100%" height="100%" fill="url(#carbonFiber)" rx="12" stroke="#39FF14" stroke-width="1" stroke-opacity="0.3"/>
  <rect width="100%" height="100%" fill="#000000" opacity="0.6" rx="12" />
  <g><polygon points="522,51 530.6,56 530.6,66 522,71 513.4,66 513.4,56" fill="none" stroke="#39FF14" stroke-width="1" opacity="0.056919172580454536"/>
<polygon points="384,132 392.6,137 392.6,147 384,152 375.4,147 375.4,137" fill="none" stroke="#39FF14" stroke-width="1" opacity="0.04103428973865194"/>
<polygon points="502,3 510.6,8 510.6,18 502,23 493.4,18 493.4,8" fill="none" stroke="#39FF14" stroke-width="1" opacity="0.05258490657213516"/>
<polygon points="712,58 720.6,63 720.6,73 712,78 703.4,73 703.4,63" fill="none" stroke="#39FF14" stroke-width="1" opacity="0.05187714866460799"/>
<polygon points="250,28 258.6,33 258.6,43 250,48 241.4,43 241.4,33" fill="none" stroke="#39FF14" stroke-width="1" opacity="0.055202508279598786"/>
<polygon points="743,177 751.6,182 751.6,192 743,197 734.4,192 734.4,182" fill="none" stroke="#39FF14" stroke-width="1" opacity="0.046354748717936406"/>
<polygon points="450,29 458.6,34 458.6,44 450,49 441.4,44 441.4,34" fill="none" stroke="#39FF14" stroke-width="1" opacity="0.050180236284858654"/>
<polygon points="165,14 173.6,19 173.6,29 165,34 156.4,29 156.4,19" fill="none" stroke="#39FF14" stroke-width="1" opacity="0.03272973507629781"/>
<polygon points="750,51 758.6,56 758.6,66 750,71 741.4,66 741.4,56" fill="none" stroke="#39FF14" stroke-width="1" opacity="0.04936050801111227"/>
<polygon points="785,-5 793.6,0 793.6,10 785,15 776.4,10 776.4,0" fill="none" stroke="#39FF14" stroke-width="1" opacity="0.02789466515399498"/>
<polygon points="321,-1 329.6,4 329.6,14 321,19 312.4,14 312.4,4" fill="none" stroke="#39FF14" stroke-width="1" opacity="0.02771675115468209"/>
<polygon points="66,42 74.6,47 74.6,57 66,62 57.4,57 57.4,47" fill="none" stroke="#39FF14" stroke-width="1" opacity="0.050689199530752384"/>
<polygon points="699,17 707.6,22 707.6,32 699,37 690.4,32 690.4,22" fill="none" stroke="#39FF14" stroke-width="1" opacity="0.029243621120514696"/>
<polygon points="848,12 856.6,17 856.6,27 848,32 839.4,27 839.4,17" fill="none" stroke="#39FF14" stroke-width="1" opacity="0.03351486272888633"/>
<polygon points="147,166 155.6,171 155.6,181 147,186 138.4,181 138.4,171" fill="none" stroke="#39FF14" stroke-width="1" opacity="0.06282759637492905"/>
<polygon points="204,166 212.6,171 212.6,181 204,186 195.4,181 195.4,171" fill="none" stroke="#39FF14" stroke-width="1" opacity="0.023738499521458446"/>
<polygon points="200,104 208.6,109 208.6,119 200,124 191.4,119 191.4,109" fill="none" stroke="#39FF14" stroke-width="1" opacity="0.055981739767037075"/>
<polygon points="401,87 409.6,92 409.6,102 401,107 392.4,102 392.4,92" fill="none" stroke="#39FF14" stroke-width="1" opacity="0.06283059970305925"/>
<polygon points="98,77 106.6,82 106.6,92 98,97 89.4,92 89.4,82" fill="none" stroke="#39FF14" stroke-width="1" opacity="0.06802444587520302"/>
<polygon points="268,31 276.6,36 276.6,46 268,51 259.4,46 259.4,36" fill="none" stroke="#39FF14" stroke-width="1" opacity="0.07297892167951887"/>
<polygon points="420,95 428.6,100 428.6,110 420,115 411.4,110 411.4,100" fill="none" stroke="#39FF14" stroke-width="1" opacity="0.03336484998182783"/>
<polygon points="784,-9 792.6,-4 792.6,6 784,11 775.4,6 775.4,-4" fill="none" stroke="#39FF14" stroke-width="1" opacity="0.024573503620704117"/>
<polygon points="377,182 385.6,187 385.6,197 377,202 368.4,197 368.4,187" fill="none" stroke="#39FF14" stroke-width="1" opacity="0.057107191612423405"/>
<polygon points="96,61 104.6,66 104.6,76 96,81 87.4,76 87.4,66" fill="none" stroke="#39FF14" stroke-width="1" opacity="0.07711570915264628"/>
<polygon points="692,48 700.6,53 700.6,63 692,68 683.4,63 683.4,53" fill="none" stroke="#39FF14" stroke-width="1" opacity="0.05292123159029531"/>
<polygon points="541,116 549.6,121 549.6,131 541,136 532.4,131 532.4,121" fill="none" stroke="#39FF14" stroke-width="1" opacity="0.02366352025610861"/>
<polygon points="266,86 274.6,91 274.6,101 266,106 257.4,101 257.4,91" fill="none" stroke="#39FF14" stroke-width="1" opacity="0.06856089128269856"/>
<polygon points="825,31 833.6,36 833.6,46 825,51 816.4,46 816.4,36" fill="none" stroke="#39FF14" stroke-width="1" opacity="0.021372629037972053"/>
<polygon points="78,36 86.6,41 86.6,51 78,56 69.4,51 69.4,41" fill="none" stroke="#39FF14" stroke-width="1" opacity="0.04118392987922302"/>
<polygon points="343,-10 351.6,-5 351.6,5 343,10 334.4,5 334.4,-5" fill="none" stroke="#39FF14" stroke-width="1" opacity="0.0400391568775534"/>
</g>

  <!-- HUD Decorative elements -->
  <path d="M 20 20 L 40 20 L 50 30" fill="none" stroke="#39FF14" stroke-width="2" opacity="0.5"/>
  <path d="M 830 180 L 810 180 L 800 170" fill="none" stroke="#39FF14" stroke-width="2" opacity="0.5"/>
  <rect x="20" y="100" width="2" height="40" fill="#ffffff" opacity="0.4"/>
  <rect x="828" y="60" width="2" height="40" fill="#39FF14" opacity="0.6"/>

  <g font-family="'Consolas', 'Fira Code', monospace" text-anchor="middle">

    <!-- SYSTEM STATUS -->
    <g transform="translate(130, 100)">
        <circle cx="0" cy="0" r="45" fill="none" stroke="#111111" stroke-width="8" />
        <circle cx="0" cy="0" r="45" fill="none" stroke="#39FF14" stroke-width="2" stroke-dasharray="10 5">
            <animateTransform attributeName="transform" type="rotate" from="0" to="360" dur="10s" repeatCount="indefinite"/>
        </circle>
        <circle cx="0" cy="0" r="35" fill="#0d0d0d" />
        <circle cx="0" cy="0" r="6" fill="#39FF14" filter="url(#textGlow)">
            <animate attributeName="opacity" values="1;0.3;1" dur="2s" repeatCount="indefinite"/>
        </circle>
        <text x="0" y="-60" font-size="12" fill="#aaaaaa" letter-spacing="2">SYS.CORE</text>
        <text x="0" y="70" font-size="14" fill="#ffffff" font-weight="bold">ONLINE</text>
    </g>

    <!-- LIVE TRAFFIC -->
    <g transform="translate(330, 100)">
        <rect x="-60" y="-45" width="120" height="90" fill="#0a0a0a" rx="8" stroke="#39FF14" stroke-opacity="0.4" stroke-width="1"/>
        <text x="0" y="-20" font-size="12" fill="#aaaaaa">NETWORK LOAD</text>
        <text x="0" y="15" font-size="28" fill="#ffffff" font-weight="bold" filter="url(#textGlow)">4183</text>
        <text x="0" y="35" font-size="10" fill="#777777">ACTIVE SESSIONS</text>
    </g>

    <!-- ACTIVE AGENTS -->
    <g transform="translate(530, 100)">
        <rect x="-60" y="-45" width="120" height="90" fill="#0a0a0a" rx="8" stroke="#39FF14" stroke-opacity="0.4" stroke-width="1"/>
        <text x="0" y="-20" font-size="12" fill="#aaaaaa">SWARM ENTITIES</text>
        <text x="0" y="15" font-size="28" fill="#ffffff" font-weight="bold" filter="url(#textGlow)">115</text>
        <text x="0" y="35" font-size="10" fill="#777777">AUTONOMOUS</text>
    </g>

    <!-- UPTIME -->
    <g transform="translate(730, 100)">
        <path d="M -40 -35 L 40 -35 L 50 -25 L 50 35 L -40 35 L -50 25 Z" fill="#0a0a0a" stroke="#39FF14" stroke-opacity="0.4" stroke-width="1"/>
        <text x="0" y="-15" font-size="12" fill="#aaaaaa">CONTINUITY</text>
        <text x="0" y="15" font-size="24" fill="#ffffff" font-weight="bold">280<tspan font-size="14" fill="#777777">d</tspan></text>
        <rect x="-35" y="25" width="70" height="4" fill="url(#neonBar)" rx="2"/>
    </g>
  </g>

  <text x="425" y="185" font-family="'Consolas', 'Fira Code', monospace" font-size="10" fill="#aaaaaa" opacity="0.6" text-anchor="middle">LAST TELEMETRY PING: 2026-05-03 06:57:47 UTC // ENCRYPTED_TUNNEL</text>
</svg>