<svg width="850" height="200" viewBox="0 0 850 200" xmlns="http://www.w3.org/2000/svg">
  <defs>
    <pattern id="carbonFiber" width="10" height="10" patternUnits="userSpaceOnUse">
        <rect width="10" height="10" fill="#050505"/>
        <path d="M0,0 L5,5 L10,0 L5,-5 Z M5,5 L10,10 L15,5 L10,0 Z M-5,5 L0,10 L5,5 L0,0 Z M0,10 L5,15 L10,10 L5,5 Z" fill="#0d0d0d"/>
    </pattern>
    <filter id="textGlow">
      <feGaussianBlur stdDeviation="2" result="blur" />
      <feMerge>
        <feMergeNode in="blur"/>
        <feMergeNode in="SourceGraphic"/>
      </feMerge>
    </filter>
    <linearGradient id="neonBar" x1="0%" y1="0%" x2="100%" y2="0%">
        <stop offset="0%" stop-color="#111111"/>
        <stop offset="100%" stop-color="#39FF14"/>
    </linearGradient>
    <linearGradient id="scanlineGrad" x1="0%" y1="0%" x2="100%" y2="0%">
        <stop offset="0%" stop-color="#39FF14" stop-opacity="0"/>
        <stop offset="50%" stop-color="#39FF14" stop-opacity="0.18"/>
        <stop offset="100%" stop-color="#39FF14" stop-opacity="0"/>
    </linearGradient>
    <clipPath id="dashClip">
        <rect x="0" y="0" width="850" height="200" rx="12"/>
    </clipPath>
  </defs>

  <rect width="100%" height="100%" fill="url(#carbonFiber)" rx="12" stroke="#39FF14" stroke-width="1" stroke-opacity="0.3"/>
  <rect width="100%" height="100%" fill="#000000" opacity="0.6" rx="12" />
  <g><polygon points="7,24 15.6,29 15.6,39 7,44 -1.5999999999999996,39 -1.5999999999999996,29" fill="none" stroke="#39FF14" stroke-width="1" opacity="0.023007851693103466"/>
<polygon points="448,40 456.6,45 456.6,55 448,60 439.4,55 439.4,45" fill="none" stroke="#39FF14" stroke-width="1" opacity="0.0753594014073602"/>
<polygon points="776,26 784.6,31 784.6,41 776,46 767.4,41 767.4,31" fill="none" stroke="#39FF14" stroke-width="1" opacity="0.049007587916054224"/>
<polygon points="585,64 593.6,69 593.6,79 585,84 576.4,79 576.4,69" fill="none" stroke="#39FF14" stroke-width="1" opacity="0.02316216814046491"/>
<polygon points="748,47 756.6,52 756.6,62 748,67 739.4,62 739.4,52" fill="none" stroke="#39FF14" stroke-width="1" opacity="0.03764186673806352"/>
<polygon points="384,124 392.6,129 392.6,139 384,144 375.4,139 375.4,129" fill="none" stroke="#39FF14" stroke-width="1" opacity="0.054408093209723896"/>
<polygon points="222,80 230.6,85 230.6,95 222,100 213.4,95 213.4,85" fill="none" stroke="#39FF14" stroke-width="1" opacity="0.03349439236371314"/>
<polygon points="479,17 487.6,22 487.6,32 479,37 470.4,32 470.4,22" fill="none" stroke="#39FF14" stroke-width="1" opacity="0.043454668435550424"/>
<polygon points="473,-4 481.6,1 481.6,11 473,16 464.4,11 464.4,1" fill="none" stroke="#39FF14" stroke-width="1" opacity="0.04875915154771582"/>
<polygon points="596,53 604.6,58 604.6,68 596,73 587.4,68 587.4,58" fill="none" stroke="#39FF14" stroke-width="1" opacity="0.02437554940669326"/>
<polygon points="722,145 730.6,150 730.6,160 722,165 713.4,160 713.4,150" fill="none" stroke="#39FF14" stroke-width="1" opacity="0.06260758569129452"/>
<polygon points="737,56 745.6,61 745.6,71 737,76 728.4,71 728.4,61" fill="none" stroke="#39FF14" stroke-width="1" opacity="0.03525540897535406"/>
<polygon points="292,98 300.6,103 300.6,113 292,118 283.4,113 283.4,103" fill="none" stroke="#39FF14" stroke-width="1" opacity="0.03723350056438868"/>
<polygon points="813,131 821.6,136 821.6,146 813,151 804.4,146 804.4,136" fill="none" stroke="#39FF14" stroke-width="1" opacity="0.04684935320378422"/>
<polygon points="796,172 804.6,177 804.6,187 796,192 787.4,187 787.4,177" fill="none" stroke="#39FF14" stroke-width="1" opacity="0.06668851330942098"/>
<polygon points="236,82 244.6,87 244.6,97 236,102 227.4,97 227.4,87" fill="none" stroke="#39FF14" stroke-width="1" opacity="0.026814500703961134"/>
<polygon points="719,115 727.6,120 727.6,130 719,135 710.4,130 710.4,120" fill="none" stroke="#39FF14" stroke-width="1" opacity="0.06024298115120315"/>
<polygon points="426,78 434.6,83 434.6,93 426,98 417.4,93 417.4,83" fill="none" stroke="#39FF14" stroke-width="1" opacity="0.04767207652392331"/>
<polygon points="158,159 166.6,164 166.6,174 158,179 149.4,174 149.4,164" fill="none" stroke="#39FF14" stroke-width="1" opacity="0.023377837726688906"/>
<polygon points="382,185 390.6,190 390.6,200 382,205 373.4,200 373.4,190" fill="none" stroke="#39FF14" stroke-width="1" opacity="0.03521633690016464"/>
<polygon points="244,104 252.6,109 252.6,119 244,124 235.4,119 235.4,109" fill="none" stroke="#39FF14" stroke-width="1" opacity="0.03515632799972346"/>
<polygon points="392,126 400.6,131 400.6,141 392,146 383.4,141 383.4,131" fill="none" stroke="#39FF14" stroke-width="1" opacity="0.02158747222271254"/>
<polygon points="537,117 545.6,122 545.6,132 537,137 528.4,132 528.4,122" fill="none" stroke="#39FF14" stroke-width="1" opacity="0.06243652667548227"/>
<polygon points="91,153 99.6,158 99.6,168 91,173 82.4,168 82.4,158" fill="none" stroke="#39FF14" stroke-width="1" opacity="0.07035148755391292"/>
<polygon points="503,153 511.6,158 511.6,168 503,173 494.4,168 494.4,158" fill="none" stroke="#39FF14" stroke-width="1" opacity="0.05696774008513357"/>
<polygon points="358,74 366.6,79 366.6,89 358,94 349.4,89 349.4,79" fill="none" stroke="#39FF14" stroke-width="1" opacity="0.05020260378797176"/>
<polygon points="211,114 219.6,119 219.6,129 211,134 202.4,129 202.4,119" fill="none" stroke="#39FF14" stroke-width="1" opacity="0.06734078839123536"/>
<polygon points="431,123 439.6,128 439.6,138 431,143 422.4,138 422.4,128" fill="none" stroke="#39FF14" stroke-width="1" opacity="0.05127644795726301"/>
<polygon points="811,109 819.6,114 819.6,124 811,129 802.4,124 802.4,114" fill="none" stroke="#39FF14" stroke-width="1" opacity="0.06692050151126346"/>
<polygon points="298,161 306.6,166 306.6,176 298,181 289.4,176 289.4,166" fill="none" stroke="#39FF14" stroke-width="1" opacity="0.03509491966635299"/>
</g>

  <!-- HUD Decorative elements -->
  <path d="M 20 20 L 40 20 L 50 30" fill="none" stroke="#39FF14" stroke-width="2" opacity="0.5"/>
  <path d="M 830 180 L 810 180 L 800 170" fill="none" stroke="#39FF14" stroke-width="2" opacity="0.5"/>

  <g clip-path="url(#dashClip)">
    <rect x="-160" y="0" width="160" height="200" fill="url(#scanlineGrad)">
      <animateTransform attributeName="transform" type="translate"
                        from="0 0" to="1010 0" dur="6s" repeatCount="indefinite"/>
    </rect>
  </g>

  <g font-family="'Consolas', 'Fira Code', monospace" text-anchor="middle">

    <!-- NETWORK STATUS -->
    <g transform="translate(130, 100)">
        <circle cx="0" cy="0" r="45" fill="none" stroke="#39FF14" stroke-width="2" stroke-dasharray="10 5">
            <animateTransform attributeName="transform" type="rotate" from="0" to="360" dur="10s" repeatCount="indefinite"/>
        </circle>
        <circle cx="0" cy="0" r="35" fill="#0d0d0d" />
        <text x="0" y="-60" font-size="12" fill="#aaaaaa" letter-spacing="2">ROOT.AUTH</text>
        <text x="0" y="70" font-size="14" fill="#ffffff" font-weight="bold">OPERATIONAL</text>
    </g>

    <!-- ACTIVE USERS -->
    <g transform="translate(330, 100)">
        <text x="0" y="-20" font-size="12" fill="#aaaaaa">CITIZENS</text>
        <text x="0" y="15" font-size="28" fill="#ffffff" font-weight="bold" filter="url(#textGlow)">12,487</text>
        <text x="0" y="35" font-size="10" fill="#777777">VERIFIED HUMANS</text>
    </g>

    <!-- REGISTERED AGENTS -->
    <g transform="translate(530, 100)">
        <text x="0" y="-20" font-size="12" fill="#aaaaaa">AGENTS</text>
        <text x="0" y="15" font-size="28" fill="#00d4ff" font-weight="bold" filter="url(#textGlow)">4,238</text>
        <text x="0" y="35" font-size="10" fill="#777777">REGISTERED DIDs</text>
    </g>

    <!-- TRANSACTIONS -->
    <g transform="translate(730, 100)">
        <text x="0" y="-20" font-size="12" fill="#aaaaaa">TRANSFERS</text>
        <text x="0" y="15" font-size="28" fill="#ffffff" font-weight="bold">40,167</text>
        <text x="0" y="35" font-size="10" fill="#777777">M2M SETTLEMENTS</text>
    </g>
  </g>

  <text x="425" y="185" font-family="'Consolas', 'Fira Code', monospace" font-size="10" fill="#aaaaaa" opacity="0.6" text-anchor="middle">AXIOMID PROJECTED TARGETS (ILLUSTRATIVE): 2026-06-23 00:31:53 UTC // SECURE_HANDSHAKE</text>
</svg>