<svg width="850" height="200" viewBox="0 0 850 200" xmlns="http://www.w3.org/2000/svg">
  <defs>
    <!-- Carbon Fiber Pattern -->
    <pattern id="carbonFiber" width="10" height="10" patternUnits="userSpaceOnUse">
        <rect width="10" height="10" fill="#050505"/>
        <path d="M0,0 L5,5 L10,0 L5,-5 Z M5,5 L10,10 L15,5 L10,0 Z M-5,5 L0,10 L5,5 L0,0 Z M0,10 L5,15 L10,10 L5,5 Z" fill="#0d0d0d"/>
    </pattern>
    <filter id="glassmorphism">
      <feGaussianBlur stdDeviation="3" result="blur" />
      <feColorMatrix type="matrix" values="1 0 0 0 0  0 1 0 0 0  0 0 1 0 0  0 0 0 18 -7" result="glow" />
      <feBlend in="SourceGraphic" in2="glow" mode="normal" />
    </filter>
    <filter id="textGlow">
      <feGaussianBlur stdDeviation="2" result="blur" />
      <feMerge>
        <feMergeNode in="blur"/>
        <feMergeNode in="SourceGraphic"/>
      </feMerge>
    </filter>
    <linearGradient id="neonBar" x1="0%" y1="0%" x2="100%" y2="0%">
        <stop offset="0%" stop-color="#111111"/>
        <stop offset="100%" stop-color="#39FF14"/>
    </linearGradient>
  </defs>

  <rect width="100%" height="100%" fill="url(#carbonFiber)" rx="12" stroke="#39FF14" stroke-width="1" stroke-opacity="0.3"/>
  <rect width="100%" height="100%" fill="#000000" opacity="0.6" rx="12" />
  <g><polygon points="763,-2 771.6,3 771.6,13 763,18 754.4,13 754.4,3" fill="none" stroke="#39FF14" stroke-width="1" opacity="0.03605903276909814"/>
<polygon points="153,103 161.6,108 161.6,118 153,123 144.4,118 144.4,108" fill="none" stroke="#39FF14" stroke-width="1" opacity="0.04710883598759125"/>
<polygon points="378,105 386.6,110 386.6,120 378,125 369.4,120 369.4,110" fill="none" stroke="#39FF14" stroke-width="1" opacity="0.036600948262343114"/>
<polygon points="549,49 557.6,54 557.6,64 549,69 540.4,64 540.4,54" fill="none" stroke="#39FF14" stroke-width="1" opacity="0.07270462218285555"/>
<polygon points="681,16 689.6,21 689.6,31 681,36 672.4,31 672.4,21" fill="none" stroke="#39FF14" stroke-width="1" opacity="0.0711019136899864"/>
<polygon points="273,174 281.6,179 281.6,189 273,194 264.4,189 264.4,179" fill="none" stroke="#39FF14" stroke-width="1" opacity="0.07034517603505776"/>
<polygon points="812,1 820.6,6 820.6,16 812,21 803.4,16 803.4,6" fill="none" stroke="#39FF14" stroke-width="1" opacity="0.05153453136735585"/>
<polygon points="363,55 371.6,60 371.6,70 363,75 354.4,70 354.4,60" fill="none" stroke="#39FF14" stroke-width="1" opacity="0.025566382156821447"/>
<polygon points="769,187 777.6,192 777.6,202 769,207 760.4,202 760.4,192" fill="none" stroke="#39FF14" stroke-width="1" opacity="0.048384450403069795"/>
<polygon points="24,135 32.6,140 32.6,150 24,155 15.4,150 15.4,140" fill="none" stroke="#39FF14" stroke-width="1" opacity="0.047234298075663136"/>
<polygon points="643,142 651.6,147 651.6,157 643,162 634.4,157 634.4,147" fill="none" stroke="#39FF14" stroke-width="1" opacity="0.04508489632051985"/>
<polygon points="402,84 410.6,89 410.6,99 402,104 393.4,99 393.4,89" fill="none" stroke="#39FF14" stroke-width="1" opacity="0.07530089274324483"/>
<polygon points="396,81 404.6,86 404.6,96 396,101 387.4,96 387.4,86" fill="none" stroke="#39FF14" stroke-width="1" opacity="0.029350799869559407"/>
<polygon points="257,31 265.6,36 265.6,46 257,51 248.4,46 248.4,36" fill="none" stroke="#39FF14" stroke-width="1" opacity="0.027608130592470824"/>
<polygon points="659,151 667.6,156 667.6,166 659,171 650.4,166 650.4,156" fill="none" stroke="#39FF14" stroke-width="1" opacity="0.03992324520745205"/>
<polygon points="358,167 366.6,172 366.6,182 358,187 349.4,182 349.4,172" fill="none" stroke="#39FF14" stroke-width="1" opacity="0.07303196471883867"/>
<polygon points="43,148 51.6,153 51.6,163 43,168 34.4,163 34.4,153" fill="none" stroke="#39FF14" stroke-width="1" opacity="0.05916233273460046"/>
<polygon points="555,31 563.6,36 563.6,46 555,51 546.4,46 546.4,36" fill="none" stroke="#39FF14" stroke-width="1" opacity="0.031573255081970404"/>
<polygon points="763,27 771.6,32 771.6,42 763,47 754.4,42 754.4,32" fill="none" stroke="#39FF14" stroke-width="1" opacity="0.06880229944586769"/>
<polygon points="5,95 13.6,100 13.6,110 5,115 -3.5999999999999996,110 -3.5999999999999996,100" fill="none" stroke="#39FF14" stroke-width="1" opacity="0.04195616969735254"/>
<polygon points="621,67 629.6,72 629.6,82 621,87 612.4,82 612.4,72" fill="none" stroke="#39FF14" stroke-width="1" opacity="0.04974517100919011"/>
<polygon points="393,124 401.6,129 401.6,139 393,144 384.4,139 384.4,129" fill="none" stroke="#39FF14" stroke-width="1" opacity="0.03809367165805707"/>
<polygon points="199,178 207.6,183 207.6,193 199,198 190.4,193 190.4,183" fill="none" stroke="#39FF14" stroke-width="1" opacity="0.06711055533710338"/>
<polygon points="249,18 257.6,23 257.6,33 249,38 240.4,33 240.4,23" fill="none" stroke="#39FF14" stroke-width="1" opacity="0.059823043124967"/>
<polygon points="489,5 497.6,10 497.6,20 489,25 480.4,20 480.4,10" fill="none" stroke="#39FF14" stroke-width="1" opacity="0.04912739887860281"/>
<polygon points="106,-8 114.6,-3 114.6,7 106,12 97.4,7 97.4,-3" fill="none" stroke="#39FF14" stroke-width="1" opacity="0.0656142527349584"/>
<polygon points="46,55 54.6,60 54.6,70 46,75 37.4,70 37.4,60" fill="none" stroke="#39FF14" stroke-width="1" opacity="0.049755964824022905"/>
<polygon points="456,70 464.6,75 464.6,85 456,90 447.4,85 447.4,75" fill="none" stroke="#39FF14" stroke-width="1" opacity="0.02729336448144315"/>
<polygon points="436,110 444.6,115 444.6,125 436,130 427.4,125 427.4,115" fill="none" stroke="#39FF14" stroke-width="1" opacity="0.04963391503672864"/>
<polygon points="492,-8 500.6,-3 500.6,7 492,12 483.4,7 483.4,-3" fill="none" stroke="#39FF14" stroke-width="1" opacity="0.05929551172238674"/>
</g>

  <!-- HUD Decorative elements -->
  <path d="M 20 20 L 40 20 L 50 30" fill="none" stroke="#39FF14" stroke-width="2" opacity="0.5"/>
  <path d="M 830 180 L 810 180 L 800 170" fill="none" stroke="#39FF14" stroke-width="2" opacity="0.5"/>
  <rect x="20" y="100" width="2" height="40" fill="#ffffff" opacity="0.4"/>
  <rect x="828" y="60" width="2" height="40" fill="#39FF14" opacity="0.6"/>

  <g font-family="'Consolas', 'Fira Code', monospace" text-anchor="middle">

    <!-- SYSTEM STATUS -->
    <g transform="translate(130, 100)">
        <circle cx="0" cy="0" r="45" fill="none" stroke="#111111" stroke-width="8" />
        <circle cx="0" cy="0" r="45" fill="none" stroke="#39FF14" stroke-width="2" stroke-dasharray="10 5">
            <animateTransform attributeName="transform" type="rotate" from="0" to="360" dur="10s" repeatCount="indefinite"/>
        </circle>
        <circle cx="0" cy="0" r="35" fill="#0d0d0d" />
        <circle cx="0" cy="0" r="6" fill="#39FF14" filter="url(#textGlow)">
            <animate attributeName="opacity" values="1;0.3;1" dur="2s" repeatCount="indefinite"/>
        </circle>
        <text x="0" y="-60" font-size="12" fill="#aaaaaa" letter-spacing="2">SYS.CORE</text>
        <text x="0" y="70" font-size="14" fill="#ffffff" font-weight="bold">ONLINE</text>
    </g>

    <!-- LIVE TRAFFIC -->
    <g transform="translate(330, 100)">
        <rect x="-60" y="-45" width="120" height="90" fill="#0a0a0a" rx="8" stroke="#39FF14" stroke-opacity="0.4" stroke-width="1"/>
        <text x="0" y="-20" font-size="12" fill="#aaaaaa">NETWORK LOAD</text>
        <text x="0" y="15" font-size="28" fill="#ffffff" font-weight="bold" filter="url(#textGlow)">3919</text>
        <text x="0" y="35" font-size="10" fill="#777777">ACTIVE SESSIONS</text>
    </g>

    <!-- ACTIVE AGENTS -->
    <g transform="translate(530, 100)">
        <rect x="-60" y="-45" width="120" height="90" fill="#0a0a0a" rx="8" stroke="#39FF14" stroke-opacity="0.4" stroke-width="1"/>
        <text x="0" y="-20" font-size="12" fill="#aaaaaa">SWARM ENTITIES</text>
        <text x="0" y="15" font-size="28" fill="#ffffff" font-weight="bold" filter="url(#textGlow)">153</text>
        <text x="0" y="35" font-size="10" fill="#777777">AUTONOMOUS</text>
    </g>

    <!-- UPTIME -->
    <g transform="translate(730, 100)">
        <path d="M -40 -35 L 40 -35 L 50 -25 L 50 35 L -40 35 L -50 25 Z" fill="#0a0a0a" stroke="#39FF14" stroke-opacity="0.4" stroke-width="1"/>
        <text x="0" y="-15" font-size="12" fill="#aaaaaa">CONTINUITY</text>
        <text x="0" y="15" font-size="24" fill="#ffffff" font-weight="bold">289<tspan font-size="14" fill="#777777">d</tspan></text>
        <rect x="-35" y="25" width="70" height="4" fill="url(#neonBar)" rx="2"/>
    </g>
  </g>

  <text x="425" y="185" font-family="'Consolas', 'Fira Code', monospace" font-size="10" fill="#aaaaaa" opacity="0.6" text-anchor="middle">LAST TELEMETRY PING: 2026-05-05 06:53:39 UTC // ENCRYPTED_TUNNEL</text>
</svg>