<svg width="850" height="200" viewBox="0 0 850 200" xmlns="http://www.w3.org/2000/svg">
  <defs>
    <pattern id="carbonFiber" width="10" height="10" patternUnits="userSpaceOnUse">
        <rect width="10" height="10" fill="#050505"/>
        <path d="M0,0 L5,5 L10,0 L5,-5 Z M5,5 L10,10 L15,5 L10,0 Z M-5,5 L0,10 L5,5 L0,0 Z M0,10 L5,15 L10,10 L5,5 Z" fill="#0d0d0d"/>
    </pattern>
    <filter id="textGlow">
      <feGaussianBlur stdDeviation="2" result="blur" />
      <feMerge>
        <feMergeNode in="blur"/>
        <feMergeNode in="SourceGraphic"/>
      </feMerge>
    </filter>
    <linearGradient id="neonBar" x1="0%" y1="0%" x2="100%" y2="0%">
        <stop offset="0%" stop-color="#111111"/>
        <stop offset="100%" stop-color="#39FF14"/>
    </linearGradient>
    <linearGradient id="scanlineGrad" x1="0%" y1="0%" x2="100%" y2="0%">
        <stop offset="0%" stop-color="#39FF14" stop-opacity="0"/>
        <stop offset="50%" stop-color="#39FF14" stop-opacity="0.18"/>
        <stop offset="100%" stop-color="#39FF14" stop-opacity="0"/>
    </linearGradient>
    <clipPath id="dashClip">
        <rect x="0" y="0" width="850" height="200" rx="12"/>
    </clipPath>
  </defs>

  <rect width="100%" height="100%" fill="url(#carbonFiber)" rx="12" stroke="#39FF14" stroke-width="1" stroke-opacity="0.3"/>
  <rect width="100%" height="100%" fill="#000000" opacity="0.6" rx="12" />
  <g><polygon points="794,116 802.6,121 802.6,131 794,136 785.4,131 785.4,121" fill="none" stroke="#39FF14" stroke-width="1" opacity="0.07955594021436384"/>
<polygon points="655,29 663.6,34 663.6,44 655,49 646.4,44 646.4,34" fill="none" stroke="#39FF14" stroke-width="1" opacity="0.06727212446179098"/>
<polygon points="563,154 571.6,159 571.6,169 563,174 554.4,169 554.4,159" fill="none" stroke="#39FF14" stroke-width="1" opacity="0.06897863141952794"/>
<polygon points="181,115 189.6,120 189.6,130 181,135 172.4,130 172.4,120" fill="none" stroke="#39FF14" stroke-width="1" opacity="0.020140592767181397"/>
<polygon points="255,10 263.6,15 263.6,25 255,30 246.4,25 246.4,15" fill="none" stroke="#39FF14" stroke-width="1" opacity="0.07419874589557901"/>
<polygon points="615,108 623.6,113 623.6,123 615,128 606.4,123 606.4,113" fill="none" stroke="#39FF14" stroke-width="1" opacity="0.07092154471763824"/>
<polygon points="131,75 139.6,80 139.6,90 131,95 122.4,90 122.4,80" fill="none" stroke="#39FF14" stroke-width="1" opacity="0.05910849605797572"/>
<polygon points="732,135 740.6,140 740.6,150 732,155 723.4,150 723.4,140" fill="none" stroke="#39FF14" stroke-width="1" opacity="0.07422168654463693"/>
<polygon points="232,86 240.6,91 240.6,101 232,106 223.4,101 223.4,91" fill="none" stroke="#39FF14" stroke-width="1" opacity="0.04448916401972172"/>
<polygon points="280,172 288.6,177 288.6,187 280,192 271.4,187 271.4,177" fill="none" stroke="#39FF14" stroke-width="1" opacity="0.0622933781717632"/>
<polygon points="105,88 113.6,93 113.6,103 105,108 96.4,103 96.4,93" fill="none" stroke="#39FF14" stroke-width="1" opacity="0.04819588183974624"/>
<polygon points="488,-3 496.6,2 496.6,12 488,17 479.4,12 479.4,2" fill="none" stroke="#39FF14" stroke-width="1" opacity="0.07048825153822152"/>
<polygon points="187,128 195.6,133 195.6,143 187,148 178.4,143 178.4,133" fill="none" stroke="#39FF14" stroke-width="1" opacity="0.025105448804156848"/>
<polygon points="770,23 778.6,28 778.6,38 770,43 761.4,38 761.4,28" fill="none" stroke="#39FF14" stroke-width="1" opacity="0.04514613425988574"/>
<polygon points="194,63 202.6,68 202.6,78 194,83 185.4,78 185.4,68" fill="none" stroke="#39FF14" stroke-width="1" opacity="0.024922272004502446"/>
<polygon points="49,16 57.6,21 57.6,31 49,36 40.4,31 40.4,21" fill="none" stroke="#39FF14" stroke-width="1" opacity="0.06707024800389524"/>
<polygon points="255,183 263.6,188 263.6,198 255,203 246.4,198 246.4,188" fill="none" stroke="#39FF14" stroke-width="1" opacity="0.024206199512497105"/>
<polygon points="823,37 831.6,42 831.6,52 823,57 814.4,52 814.4,42" fill="none" stroke="#39FF14" stroke-width="1" opacity="0.07668515818312431"/>
<polygon points="755,2 763.6,7 763.6,17 755,22 746.4,17 746.4,7" fill="none" stroke="#39FF14" stroke-width="1" opacity="0.05408300515818537"/>
<polygon points="278,174 286.6,179 286.6,189 278,194 269.4,189 269.4,179" fill="none" stroke="#39FF14" stroke-width="1" opacity="0.04548315213826317"/>
<polygon points="250,187 258.6,192 258.6,202 250,207 241.4,202 241.4,192" fill="none" stroke="#39FF14" stroke-width="1" opacity="0.026126203620826204"/>
<polygon points="305,19 313.6,24 313.6,34 305,39 296.4,34 296.4,24" fill="none" stroke="#39FF14" stroke-width="1" opacity="0.02468016323013993"/>
<polygon points="827,164 835.6,169 835.6,179 827,184 818.4,179 818.4,169" fill="none" stroke="#39FF14" stroke-width="1" opacity="0.07989580926907812"/>
<polygon points="837,159 845.6,164 845.6,174 837,179 828.4,174 828.4,164" fill="none" stroke="#39FF14" stroke-width="1" opacity="0.04051010012337709"/>
<polygon points="182,123 190.6,128 190.6,138 182,143 173.4,138 173.4,128" fill="none" stroke="#39FF14" stroke-width="1" opacity="0.03196982670306106"/>
<polygon points="805,155 813.6,160 813.6,170 805,175 796.4,170 796.4,160" fill="none" stroke="#39FF14" stroke-width="1" opacity="0.048809034928601766"/>
<polygon points="120,151 128.6,156 128.6,166 120,171 111.4,166 111.4,156" fill="none" stroke="#39FF14" stroke-width="1" opacity="0.06111698398384281"/>
<polygon points="30,13 38.6,18 38.6,28 30,33 21.4,28 21.4,18" fill="none" stroke="#39FF14" stroke-width="1" opacity="0.043520006064659944"/>
<polygon points="276,172 284.6,177 284.6,187 276,192 267.4,187 267.4,177" fill="none" stroke="#39FF14" stroke-width="1" opacity="0.048435876668919006"/>
<polygon points="100,62 108.6,67 108.6,77 100,82 91.4,77 91.4,67" fill="none" stroke="#39FF14" stroke-width="1" opacity="0.03485538854804761"/>
</g>

  <!-- HUD Decorative elements -->
  <path d="M 20 20 L 40 20 L 50 30" fill="none" stroke="#39FF14" stroke-width="2" opacity="0.5"/>
  <path d="M 830 180 L 810 180 L 800 170" fill="none" stroke="#39FF14" stroke-width="2" opacity="0.5"/>

  <g clip-path="url(#dashClip)">
    <rect x="-160" y="0" width="160" height="200" fill="url(#scanlineGrad)">
      <animateTransform attributeName="transform" type="translate"
                        from="0 0" to="1010 0" dur="6s" repeatCount="indefinite"/>
    </rect>
  </g>

  <g font-family="'Consolas', 'Fira Code', monospace" text-anchor="middle">

    <!-- NETWORK STATUS -->
    <g transform="translate(130, 100)">
        <circle cx="0" cy="0" r="45" fill="none" stroke="#39FF14" stroke-width="2" stroke-dasharray="10 5">
            <animateTransform attributeName="transform" type="rotate" from="0" to="360" dur="10s" repeatCount="indefinite"/>
        </circle>
        <circle cx="0" cy="0" r="35" fill="#0d0d0d" />
        <text x="0" y="-60" font-size="12" fill="#aaaaaa" letter-spacing="2">ROOT.AUTH</text>
        <text x="0" y="70" font-size="14" fill="#ffffff" font-weight="bold">OPERATIONAL</text>
    </g>

    <!-- ACTIVE USERS -->
    <g transform="translate(330, 100)">
        <text x="0" y="-20" font-size="12" fill="#aaaaaa">CITIZENS</text>
        <text x="0" y="15" font-size="28" fill="#ffffff" font-weight="bold" filter="url(#textGlow)">13,857</text>
        <text x="0" y="35" font-size="10" fill="#777777">VERIFIED HUMANS</text>
    </g>

    <!-- REGISTERED AGENTS -->
    <g transform="translate(530, 100)">
        <text x="0" y="-20" font-size="12" fill="#aaaaaa">AGENTS</text>
        <text x="0" y="15" font-size="28" fill="#00d4ff" font-weight="bold" filter="url(#textGlow)">3,109</text>
        <text x="0" y="35" font-size="10" fill="#777777">REGISTERED DIDs</text>
    </g>

    <!-- TRANSACTIONS -->
    <g transform="translate(730, 100)">
        <text x="0" y="-20" font-size="12" fill="#aaaaaa">TRANSFERS</text>
        <text x="0" y="15" font-size="28" fill="#ffffff" font-weight="bold">34,700</text>
        <text x="0" y="35" font-size="10" fill="#777777">M2M SETTLEMENTS</text>
    </g>
  </g>

  <text x="425" y="185" font-family="'Consolas', 'Fira Code', monospace" font-size="10" fill="#aaaaaa" opacity="0.6" text-anchor="middle">AXIOMID PROJECTED TARGETS (ILLUSTRATIVE): 2026-06-29 10:33:06 UTC // SECURE_HANDSHAKE</text>
</svg>