<svg width="850" height="200" viewBox="0 0 850 200" xmlns="http://www.w3.org/2000/svg">
  <defs>
    <pattern id="carbonFiber" width="10" height="10" patternUnits="userSpaceOnUse">
        <rect width="10" height="10" fill="#050505"/>
        <path d="M0,0 L5,5 L10,0 L5,-5 Z M5,5 L10,10 L15,5 L10,0 Z M-5,5 L0,10 L5,5 L0,0 Z M0,10 L5,15 L10,10 L5,5 Z" fill="#0d0d0d"/>
    </pattern>
    <filter id="textGlow">
      <feGaussianBlur stdDeviation="2" result="blur" />
      <feMerge>
        <feMergeNode in="blur"/>
        <feMergeNode in="SourceGraphic"/>
      </feMerge>
    </filter>
    <linearGradient id="neonBar" x1="0%" y1="0%" x2="100%" y2="0%">
        <stop offset="0%" stop-color="#111111"/>
        <stop offset="100%" stop-color="#39FF14"/>
    </linearGradient>
    <linearGradient id="scanlineGrad" x1="0%" y1="0%" x2="100%" y2="0%">
        <stop offset="0%" stop-color="#39FF14" stop-opacity="0"/>
        <stop offset="50%" stop-color="#39FF14" stop-opacity="0.18"/>
        <stop offset="100%" stop-color="#39FF14" stop-opacity="0"/>
    </linearGradient>
    <clipPath id="dashClip">
        <rect x="0" y="0" width="850" height="200" rx="12"/>
    </clipPath>
  </defs>

  <rect width="100%" height="100%" fill="url(#carbonFiber)" rx="12" stroke="#39FF14" stroke-width="1" stroke-opacity="0.3"/>
  <rect width="100%" height="100%" fill="#000000" opacity="0.6" rx="12" />
  <g><polygon points="78,111 86.6,116 86.6,126 78,131 69.4,126 69.4,116" fill="none" stroke="#39FF14" stroke-width="1" opacity="0.06257768244196132"/>
<polygon points="599,127 607.6,132 607.6,142 599,147 590.4,142 590.4,132" fill="none" stroke="#39FF14" stroke-width="1" opacity="0.020398206693621895"/>
<polygon points="789,-10 797.6,-5 797.6,5 789,10 780.4,5 780.4,-5" fill="none" stroke="#39FF14" stroke-width="1" opacity="0.056259128620580245"/>
<polygon points="529,20 537.6,25 537.6,35 529,40 520.4,35 520.4,25" fill="none" stroke="#39FF14" stroke-width="1" opacity="0.07933158706966131"/>
<polygon points="682,12 690.6,17 690.6,27 682,32 673.4,27 673.4,17" fill="none" stroke="#39FF14" stroke-width="1" opacity="0.04765423988574919"/>
<polygon points="358,-1 366.6,4 366.6,14 358,19 349.4,14 349.4,4" fill="none" stroke="#39FF14" stroke-width="1" opacity="0.048701978595198814"/>
<polygon points="138,129 146.6,134 146.6,144 138,149 129.4,144 129.4,134" fill="none" stroke="#39FF14" stroke-width="1" opacity="0.04834825542025366"/>
<polygon points="517,108 525.6,113 525.6,123 517,128 508.4,123 508.4,113" fill="none" stroke="#39FF14" stroke-width="1" opacity="0.04935671248191334"/>
<polygon points="653,29 661.6,34 661.6,44 653,49 644.4,44 644.4,34" fill="none" stroke="#39FF14" stroke-width="1" opacity="0.05887431008348615"/>
<polygon points="171,144 179.6,149 179.6,159 171,164 162.4,159 162.4,149" fill="none" stroke="#39FF14" stroke-width="1" opacity="0.023339389375736447"/>
<polygon points="449,59 457.6,64 457.6,74 449,79 440.4,74 440.4,64" fill="none" stroke="#39FF14" stroke-width="1" opacity="0.04259727527811962"/>
<polygon points="666,138 674.6,143 674.6,153 666,158 657.4,153 657.4,143" fill="none" stroke="#39FF14" stroke-width="1" opacity="0.052179777438972064"/>
<polygon points="735,60 743.6,65 743.6,75 735,80 726.4,75 726.4,65" fill="none" stroke="#39FF14" stroke-width="1" opacity="0.02495988269048324"/>
<polygon points="92,135 100.6,140 100.6,150 92,155 83.4,150 83.4,140" fill="none" stroke="#39FF14" stroke-width="1" opacity="0.057934413888586986"/>
<polygon points="633,111 641.6,116 641.6,126 633,131 624.4,126 624.4,116" fill="none" stroke="#39FF14" stroke-width="1" opacity="0.053864992257453156"/>
<polygon points="146,57 154.6,62 154.6,72 146,77 137.4,72 137.4,62" fill="none" stroke="#39FF14" stroke-width="1" opacity="0.03522601771778663"/>
<polygon points="712,105 720.6,110 720.6,120 712,125 703.4,120 703.4,110" fill="none" stroke="#39FF14" stroke-width="1" opacity="0.027387917649942167"/>
<polygon points="595,120 603.6,125 603.6,135 595,140 586.4,135 586.4,125" fill="none" stroke="#39FF14" stroke-width="1" opacity="0.04594223515320209"/>
<polygon points="759,152 767.6,157 767.6,167 759,172 750.4,167 750.4,157" fill="none" stroke="#39FF14" stroke-width="1" opacity="0.07650183225610258"/>
<polygon points="215,160 223.6,165 223.6,175 215,180 206.4,175 206.4,165" fill="none" stroke="#39FF14" stroke-width="1" opacity="0.04373508363205296"/>
<polygon points="681,2 689.6,7 689.6,17 681,22 672.4,17 672.4,7" fill="none" stroke="#39FF14" stroke-width="1" opacity="0.04314645818360435"/>
<polygon points="535,151 543.6,156 543.6,166 535,171 526.4,166 526.4,156" fill="none" stroke="#39FF14" stroke-width="1" opacity="0.02423608562094385"/>
<polygon points="623,88 631.6,93 631.6,103 623,108 614.4,103 614.4,93" fill="none" stroke="#39FF14" stroke-width="1" opacity="0.05683792286953726"/>
<polygon points="762,-4 770.6,1 770.6,11 762,16 753.4,11 753.4,1" fill="none" stroke="#39FF14" stroke-width="1" opacity="0.05094676682690301"/>
<polygon points="250,161 258.6,166 258.6,176 250,181 241.4,176 241.4,166" fill="none" stroke="#39FF14" stroke-width="1" opacity="0.032829566749190145"/>
<polygon points="171,65 179.6,70 179.6,80 171,85 162.4,80 162.4,70" fill="none" stroke="#39FF14" stroke-width="1" opacity="0.04371075685153"/>
<polygon points="488,90 496.6,95 496.6,105 488,110 479.4,105 479.4,95" fill="none" stroke="#39FF14" stroke-width="1" opacity="0.028898069296534084"/>
<polygon points="378,109 386.6,114 386.6,124 378,129 369.4,124 369.4,114" fill="none" stroke="#39FF14" stroke-width="1" opacity="0.059903885347142485"/>
<polygon points="241,165 249.6,170 249.6,180 241,185 232.4,180 232.4,170" fill="none" stroke="#39FF14" stroke-width="1" opacity="0.04272791670105258"/>
<polygon points="102,86 110.6,91 110.6,101 102,106 93.4,101 93.4,91" fill="none" stroke="#39FF14" stroke-width="1" opacity="0.05535912603737206"/>
</g>

  <!-- HUD Decorative elements -->
  <path d="M 20 20 L 40 20 L 50 30" fill="none" stroke="#39FF14" stroke-width="2" opacity="0.5"/>
  <path d="M 830 180 L 810 180 L 800 170" fill="none" stroke="#39FF14" stroke-width="2" opacity="0.5"/>

  <g clip-path="url(#dashClip)">
    <rect x="-160" y="0" width="160" height="200" fill="url(#scanlineGrad)">
      <animateTransform attributeName="transform" type="translate"
                        from="0 0" to="1010 0" dur="6s" repeatCount="indefinite"/>
    </rect>
  </g>

  <g font-family="'Consolas', 'Fira Code', monospace" text-anchor="middle">

    <!-- NETWORK STATUS -->
    <g transform="translate(130, 100)">
        <circle cx="0" cy="0" r="45" fill="none" stroke="#39FF14" stroke-width="2" stroke-dasharray="10 5">
            <animateTransform attributeName="transform" type="rotate" from="0" to="360" dur="10s" repeatCount="indefinite"/>
        </circle>
        <circle cx="0" cy="0" r="35" fill="#0d0d0d" />
        <text x="0" y="-60" font-size="12" fill="#aaaaaa" letter-spacing="2">ROOT.AUTH</text>
        <text x="0" y="70" font-size="14" fill="#ffffff" font-weight="bold">OPERATIONAL</text>
    </g>

    <!-- ACTIVE USERS -->
    <g transform="translate(330, 100)">
        <text x="0" y="-20" font-size="12" fill="#aaaaaa">CITIZENS</text>
        <text x="0" y="15" font-size="28" fill="#ffffff" font-weight="bold" filter="url(#textGlow)">13,822</text>
        <text x="0" y="35" font-size="10" fill="#777777">VERIFIED HUMANS</text>
    </g>

    <!-- REGISTERED AGENTS -->
    <g transform="translate(530, 100)">
        <text x="0" y="-20" font-size="12" fill="#aaaaaa">AGENTS</text>
        <text x="0" y="15" font-size="28" fill="#00d4ff" font-weight="bold" filter="url(#textGlow)">3,860</text>
        <text x="0" y="35" font-size="10" fill="#777777">REGISTERED DIDs</text>
    </g>

    <!-- TRANSACTIONS -->
    <g transform="translate(730, 100)">
        <text x="0" y="-20" font-size="12" fill="#aaaaaa">TRANSFERS</text>
        <text x="0" y="15" font-size="28" fill="#ffffff" font-weight="bold">37,924</text>
        <text x="0" y="35" font-size="10" fill="#777777">M2M SETTLEMENTS</text>
    </g>
  </g>

  <text x="425" y="185" font-family="'Consolas', 'Fira Code', monospace" font-size="10" fill="#aaaaaa" opacity="0.6" text-anchor="middle">AXIOMID PROJECTED TARGETS (ILLUSTRATIVE): 2026-07-05 06:30:14 UTC // SECURE_HANDSHAKE</text>
</svg>