<svg width="850" height="200" viewBox="0 0 850 200" xmlns="http://www.w3.org/2000/svg">
  <defs>
    <!-- Carbon Fiber Pattern -->
    <pattern id="carbonFiber" width="10" height="10" patternUnits="userSpaceOnUse">
        <rect width="10" height="10" fill="#050505"/>
        <path d="M0,0 L5,5 L10,0 L5,-5 Z M5,5 L10,10 L15,5 L10,0 Z M-5,5 L0,10 L5,5 L0,0 Z M0,10 L5,15 L10,10 L5,5 Z" fill="#0d0d0d"/>
    </pattern>
    <filter id="glassmorphism">
      <feGaussianBlur stdDeviation="3" result="blur" />
      <feColorMatrix type="matrix" values="1 0 0 0 0  0 1 0 0 0  0 0 1 0 0  0 0 0 18 -7" result="glow" />
      <feBlend in="SourceGraphic" in2="glow" mode="normal" />
    </filter>
    <filter id="textGlow">
      <feGaussianBlur stdDeviation="2" result="blur" />
      <feMerge>
        <feMergeNode in="blur"/>
        <feMergeNode in="SourceGraphic"/>
      </feMerge>
    </filter>
    <linearGradient id="neonBar" x1="0%" y1="0%" x2="100%" y2="0%">
        <stop offset="0%" stop-color="#111111"/>
        <stop offset="100%" stop-color="#39FF14"/>
    </linearGradient>
  </defs>

  <rect width="100%" height="100%" fill="url(#carbonFiber)" rx="12" stroke="#39FF14" stroke-width="1" stroke-opacity="0.3"/>
  <rect width="100%" height="100%" fill="#000000" opacity="0.6" rx="12" />
  <g><polygon points="214,83 222.6,88 222.6,98 214,103 205.4,98 205.4,88" fill="none" stroke="#39FF14" stroke-width="1" opacity="0.06772986657004644"/>
<polygon points="657,168 665.6,173 665.6,183 657,188 648.4,183 648.4,173" fill="none" stroke="#39FF14" stroke-width="1" opacity="0.04480192416725175"/>
<polygon points="60,164 68.6,169 68.6,179 60,184 51.4,179 51.4,169" fill="none" stroke="#39FF14" stroke-width="1" opacity="0.04994239918387361"/>
<polygon points="341,179 349.6,184 349.6,194 341,199 332.4,194 332.4,184" fill="none" stroke="#39FF14" stroke-width="1" opacity="0.076975684819999"/>
<polygon points="502,111 510.6,116 510.6,126 502,131 493.4,126 493.4,116" fill="none" stroke="#39FF14" stroke-width="1" opacity="0.06405743273487591"/>
<polygon points="548,43 556.6,48 556.6,58 548,63 539.4,58 539.4,48" fill="none" stroke="#39FF14" stroke-width="1" opacity="0.04477694204694849"/>
<polygon points="460,-2 468.6,3 468.6,13 460,18 451.4,13 451.4,3" fill="none" stroke="#39FF14" stroke-width="1" opacity="0.061303416580587605"/>
<polygon points="606,33 614.6,38 614.6,48 606,53 597.4,48 597.4,38" fill="none" stroke="#39FF14" stroke-width="1" opacity="0.06194921566355076"/>
<polygon points="258,127 266.6,132 266.6,142 258,147 249.4,142 249.4,132" fill="none" stroke="#39FF14" stroke-width="1" opacity="0.03396193594702127"/>
<polygon points="473,161 481.6,166 481.6,176 473,181 464.4,176 464.4,166" fill="none" stroke="#39FF14" stroke-width="1" opacity="0.03549686166290863"/>
<polygon points="238,58 246.6,63 246.6,73 238,78 229.4,73 229.4,63" fill="none" stroke="#39FF14" stroke-width="1" opacity="0.0630226280920459"/>
<polygon points="39,138 47.6,143 47.6,153 39,158 30.4,153 30.4,143" fill="none" stroke="#39FF14" stroke-width="1" opacity="0.03381973687075062"/>
<polygon points="367,63 375.6,68 375.6,78 367,83 358.4,78 358.4,68" fill="none" stroke="#39FF14" stroke-width="1" opacity="0.06332246593141318"/>
<polygon points="101,7 109.6,12 109.6,22 101,27 92.4,22 92.4,12" fill="none" stroke="#39FF14" stroke-width="1" opacity="0.03696403249040339"/>
<polygon points="579,176 587.6,181 587.6,191 579,196 570.4,191 570.4,181" fill="none" stroke="#39FF14" stroke-width="1" opacity="0.049313461256476517"/>
<polygon points="497,118 505.6,123 505.6,133 497,138 488.4,133 488.4,123" fill="none" stroke="#39FF14" stroke-width="1" opacity="0.05195591883940691"/>
<polygon points="247,23 255.6,28 255.6,38 247,43 238.4,38 238.4,28" fill="none" stroke="#39FF14" stroke-width="1" opacity="0.05921418863186394"/>
<polygon points="231,85 239.6,90 239.6,100 231,105 222.4,100 222.4,90" fill="none" stroke="#39FF14" stroke-width="1" opacity="0.031635912391852074"/>
<polygon points="1,22 9.6,27 9.6,37 1,42 -7.6,37 -7.6,27" fill="none" stroke="#39FF14" stroke-width="1" opacity="0.07751807867798984"/>
<polygon points="416,24 424.6,29 424.6,39 416,44 407.4,39 407.4,29" fill="none" stroke="#39FF14" stroke-width="1" opacity="0.0584949964712313"/>
<polygon points="673,164 681.6,169 681.6,179 673,184 664.4,179 664.4,169" fill="none" stroke="#39FF14" stroke-width="1" opacity="0.07876603165096632"/>
<polygon points="60,32 68.6,37 68.6,47 60,52 51.4,47 51.4,37" fill="none" stroke="#39FF14" stroke-width="1" opacity="0.04877015693446979"/>
<polygon points="577,178 585.6,183 585.6,193 577,198 568.4,193 568.4,183" fill="none" stroke="#39FF14" stroke-width="1" opacity="0.06102940235615502"/>
<polygon points="150,162 158.6,167 158.6,177 150,182 141.4,177 141.4,167" fill="none" stroke="#39FF14" stroke-width="1" opacity="0.06708343035026008"/>
<polygon points="832,41 840.6,46 840.6,56 832,61 823.4,56 823.4,46" fill="none" stroke="#39FF14" stroke-width="1" opacity="0.057131877444175"/>
<polygon points="333,27 341.6,32 341.6,42 333,47 324.4,42 324.4,32" fill="none" stroke="#39FF14" stroke-width="1" opacity="0.07905003449930532"/>
<polygon points="253,112 261.6,117 261.6,127 253,132 244.4,127 244.4,117" fill="none" stroke="#39FF14" stroke-width="1" opacity="0.0482223408257988"/>
<polygon points="615,1 623.6,6 623.6,16 615,21 606.4,16 606.4,6" fill="none" stroke="#39FF14" stroke-width="1" opacity="0.04629752650981595"/>
<polygon points="780,5 788.6,10 788.6,20 780,25 771.4,20 771.4,10" fill="none" stroke="#39FF14" stroke-width="1" opacity="0.06926361138775285"/>
<polygon points="62,161 70.6,166 70.6,176 62,181 53.4,176 53.4,166" fill="none" stroke="#39FF14" stroke-width="1" opacity="0.06671849711918833"/>
</g>

  <!-- HUD Decorative elements -->
  <path d="M 20 20 L 40 20 L 50 30" fill="none" stroke="#39FF14" stroke-width="2" opacity="0.5"/>
  <path d="M 830 180 L 810 180 L 800 170" fill="none" stroke="#39FF14" stroke-width="2" opacity="0.5"/>
  <rect x="20" y="100" width="2" height="40" fill="#ffffff" opacity="0.4"/>
  <rect x="828" y="60" width="2" height="40" fill="#39FF14" opacity="0.6"/>

  <g font-family="'Consolas', 'Fira Code', monospace" text-anchor="middle">

    <!-- SYSTEM STATUS -->
    <g transform="translate(130, 100)">
        <circle cx="0" cy="0" r="45" fill="none" stroke="#111111" stroke-width="8" />
        <circle cx="0" cy="0" r="45" fill="none" stroke="#39FF14" stroke-width="2" stroke-dasharray="10 5">
            <animateTransform attributeName="transform" type="rotate" from="0" to="360" dur="10s" repeatCount="indefinite"/>
        </circle>
        <circle cx="0" cy="0" r="35" fill="#0d0d0d" />
        <circle cx="0" cy="0" r="6" fill="#39FF14" filter="url(#textGlow)">
            <animate attributeName="opacity" values="1;0.3;1" dur="2s" repeatCount="indefinite"/>
        </circle>
        <text x="0" y="-60" font-size="12" fill="#aaaaaa" letter-spacing="2">SYS.CORE</text>
        <text x="0" y="70" font-size="14" fill="#ffffff" font-weight="bold">ONLINE</text>
    </g>

    <!-- LIVE TRAFFIC -->
    <g transform="translate(330, 100)">
        <rect x="-60" y="-45" width="120" height="90" fill="#0a0a0a" rx="8" stroke="#39FF14" stroke-opacity="0.4" stroke-width="1"/>
        <text x="0" y="-20" font-size="12" fill="#aaaaaa">NETWORK LOAD</text>
        <text x="0" y="15" font-size="28" fill="#ffffff" font-weight="bold" filter="url(#textGlow)">5241</text>
        <text x="0" y="35" font-size="10" fill="#777777">ACTIVE SESSIONS</text>
    </g>

    <!-- ACTIVE AGENTS -->
    <g transform="translate(530, 100)">
        <rect x="-60" y="-45" width="120" height="90" fill="#0a0a0a" rx="8" stroke="#39FF14" stroke-opacity="0.4" stroke-width="1"/>
        <text x="0" y="-20" font-size="12" fill="#aaaaaa">SWARM ENTITIES</text>
        <text x="0" y="15" font-size="28" fill="#ffffff" font-weight="bold" filter="url(#textGlow)">110</text>
        <text x="0" y="35" font-size="10" fill="#777777">AUTONOMOUS</text>
    </g>

    <!-- UPTIME -->
    <g transform="translate(730, 100)">
        <path d="M -40 -35 L 40 -35 L 50 -25 L 50 35 L -40 35 L -50 25 Z" fill="#0a0a0a" stroke="#39FF14" stroke-opacity="0.4" stroke-width="1"/>
        <text x="0" y="-15" font-size="12" fill="#aaaaaa">CONTINUITY</text>
        <text x="0" y="15" font-size="24" fill="#ffffff" font-weight="bold">397<tspan font-size="14" fill="#777777">d</tspan></text>
        <rect x="-35" y="25" width="70" height="4" fill="url(#neonBar)" rx="2"/>
    </g>
  </g>

  <text x="425" y="185" font-family="'Consolas', 'Fira Code', monospace" font-size="10" fill="#aaaaaa" opacity="0.6" text-anchor="middle">LAST TELEMETRY PING: 2026-05-13 01:20:18 UTC // ENCRYPTED_TUNNEL</text>
</svg>