<svg width="850" height="200" viewBox="0 0 850 200" xmlns="http://www.w3.org/2000/svg">
  <defs>
    <pattern id="carbonFiber" width="10" height="10" patternUnits="userSpaceOnUse">
        <rect width="10" height="10" fill="#050505"/>
        <path d="M0,0 L5,5 L10,0 L5,-5 Z M5,5 L10,10 L15,5 L10,0 Z M-5,5 L0,10 L5,5 L0,0 Z M0,10 L5,15 L10,10 L5,5 Z" fill="#0d0d0d"/>
    </pattern>
    <filter id="textGlow">
      <feGaussianBlur stdDeviation="2" result="blur" />
      <feMerge>
        <feMergeNode in="blur"/>
        <feMergeNode in="SourceGraphic"/>
      </feMerge>
    </filter>
    <linearGradient id="neonBar" x1="0%" y1="0%" x2="100%" y2="0%">
        <stop offset="0%" stop-color="#111111"/>
        <stop offset="100%" stop-color="#39FF14"/>
    </linearGradient>
    <linearGradient id="scanlineGrad" x1="0%" y1="0%" x2="100%" y2="0%">
        <stop offset="0%" stop-color="#39FF14" stop-opacity="0"/>
        <stop offset="50%" stop-color="#39FF14" stop-opacity="0.18"/>
        <stop offset="100%" stop-color="#39FF14" stop-opacity="0"/>
    </linearGradient>
    <clipPath id="dashClip">
        <rect x="0" y="0" width="850" height="200" rx="12"/>
    </clipPath>
  </defs>

  <rect width="100%" height="100%" fill="url(#carbonFiber)" rx="12" stroke="#39FF14" stroke-width="1" stroke-opacity="0.3"/>
  <rect width="100%" height="100%" fill="#000000" opacity="0.6" rx="12" />
  <g><polygon points="341,176 349.6,181 349.6,191 341,196 332.4,191 332.4,181" fill="none" stroke="#39FF14" stroke-width="1" opacity="0.045141462129889245"/>
<polygon points="539,90 547.6,95 547.6,105 539,110 530.4,105 530.4,95" fill="none" stroke="#39FF14" stroke-width="1" opacity="0.07298398334869492"/>
<polygon points="376,155 384.6,160 384.6,170 376,175 367.4,170 367.4,160" fill="none" stroke="#39FF14" stroke-width="1" opacity="0.05314835901760083"/>
<polygon points="792,85 800.6,90 800.6,100 792,105 783.4,100 783.4,90" fill="none" stroke="#39FF14" stroke-width="1" opacity="0.043624352222322055"/>
<polygon points="279,91 287.6,96 287.6,106 279,111 270.4,106 270.4,96" fill="none" stroke="#39FF14" stroke-width="1" opacity="0.035609747557091065"/>
<polygon points="199,32 207.6,37 207.6,47 199,52 190.4,47 190.4,37" fill="none" stroke="#39FF14" stroke-width="1" opacity="0.050011271939365345"/>
<polygon points="236,18 244.6,23 244.6,33 236,38 227.4,33 227.4,23" fill="none" stroke="#39FF14" stroke-width="1" opacity="0.07850569457289615"/>
<polygon points="772,19 780.6,24 780.6,34 772,39 763.4,34 763.4,24" fill="none" stroke="#39FF14" stroke-width="1" opacity="0.023310700402962917"/>
<polygon points="572,50 580.6,55 580.6,65 572,70 563.4,65 563.4,55" fill="none" stroke="#39FF14" stroke-width="1" opacity="0.0607010030707527"/>
<polygon points="747,125 755.6,130 755.6,140 747,145 738.4,140 738.4,130" fill="none" stroke="#39FF14" stroke-width="1" opacity="0.054790945890070206"/>
<polygon points="106,90 114.6,95 114.6,105 106,110 97.4,105 97.4,95" fill="none" stroke="#39FF14" stroke-width="1" opacity="0.053783671329979965"/>
<polygon points="715,170 723.6,175 723.6,185 715,190 706.4,185 706.4,175" fill="none" stroke="#39FF14" stroke-width="1" opacity="0.036996269149309716"/>
<polygon points="641,160 649.6,165 649.6,175 641,180 632.4,175 632.4,165" fill="none" stroke="#39FF14" stroke-width="1" opacity="0.050539259343321694"/>
<polygon points="395,-9 403.6,-4 403.6,6 395,11 386.4,6 386.4,-4" fill="none" stroke="#39FF14" stroke-width="1" opacity="0.026916929259104196"/>
<polygon points="164,88 172.6,93 172.6,103 164,108 155.4,103 155.4,93" fill="none" stroke="#39FF14" stroke-width="1" opacity="0.07042425718674254"/>
<polygon points="547,128 555.6,133 555.6,143 547,148 538.4,143 538.4,133" fill="none" stroke="#39FF14" stroke-width="1" opacity="0.04507756660802205"/>
<polygon points="521,5 529.6,10 529.6,20 521,25 512.4,20 512.4,10" fill="none" stroke="#39FF14" stroke-width="1" opacity="0.0634978088927121"/>
<polygon points="506,-1 514.6,4 514.6,14 506,19 497.4,14 497.4,4" fill="none" stroke="#39FF14" stroke-width="1" opacity="0.05508381330748577"/>
<polygon points="840,66 848.6,71 848.6,81 840,86 831.4,81 831.4,71" fill="none" stroke="#39FF14" stroke-width="1" opacity="0.028063658237567943"/>
<polygon points="754,156 762.6,161 762.6,171 754,176 745.4,171 745.4,161" fill="none" stroke="#39FF14" stroke-width="1" opacity="0.047894404807683824"/>
<polygon points="685,77 693.6,82 693.6,92 685,97 676.4,92 676.4,82" fill="none" stroke="#39FF14" stroke-width="1" opacity="0.0784634916808402"/>
<polygon points="179,20 187.6,25 187.6,35 179,40 170.4,35 170.4,25" fill="none" stroke="#39FF14" stroke-width="1" opacity="0.03840836806551351"/>
<polygon points="512,4 520.6,9 520.6,19 512,24 503.4,19 503.4,9" fill="none" stroke="#39FF14" stroke-width="1" opacity="0.03377226278413256"/>
<polygon points="343,146 351.6,151 351.6,161 343,166 334.4,161 334.4,151" fill="none" stroke="#39FF14" stroke-width="1" opacity="0.07711680906913243"/>
<polygon points="66,145 74.6,150 74.6,160 66,165 57.4,160 57.4,150" fill="none" stroke="#39FF14" stroke-width="1" opacity="0.021607093517045824"/>
<polygon points="784,147 792.6,152 792.6,162 784,167 775.4,162 775.4,152" fill="none" stroke="#39FF14" stroke-width="1" opacity="0.04273038684432992"/>
<polygon points="113,10 121.6,15 121.6,25 113,30 104.4,25 104.4,15" fill="none" stroke="#39FF14" stroke-width="1" opacity="0.043260587961183206"/>
<polygon points="104,37 112.6,42 112.6,52 104,57 95.4,52 95.4,42" fill="none" stroke="#39FF14" stroke-width="1" opacity="0.07354648381068025"/>
<polygon points="451,125 459.6,130 459.6,140 451,145 442.4,140 442.4,130" fill="none" stroke="#39FF14" stroke-width="1" opacity="0.06661822824453054"/>
<polygon points="384,168 392.6,173 392.6,183 384,188 375.4,183 375.4,173" fill="none" stroke="#39FF14" stroke-width="1" opacity="0.042093947042667834"/>
</g>

  <!-- HUD Decorative elements -->
  <path d="M 20 20 L 40 20 L 50 30" fill="none" stroke="#39FF14" stroke-width="2" opacity="0.5"/>
  <path d="M 830 180 L 810 180 L 800 170" fill="none" stroke="#39FF14" stroke-width="2" opacity="0.5"/>

  <g clip-path="url(#dashClip)">
    <rect x="-160" y="0" width="160" height="200" fill="url(#scanlineGrad)">
      <animateTransform attributeName="transform" type="translate"
                        from="0 0" to="1010 0" dur="6s" repeatCount="indefinite"/>
    </rect>
  </g>

  <g font-family="'Consolas', 'Fira Code', monospace" text-anchor="middle">

    <!-- NETWORK STATUS -->
    <g transform="translate(130, 100)">
        <circle cx="0" cy="0" r="45" fill="none" stroke="#39FF14" stroke-width="2" stroke-dasharray="10 5">
            <animateTransform attributeName="transform" type="rotate" from="0" to="360" dur="10s" repeatCount="indefinite"/>
        </circle>
        <circle cx="0" cy="0" r="35" fill="#0d0d0d" />
        <text x="0" y="-60" font-size="12" fill="#aaaaaa" letter-spacing="2">ROOT.AUTH</text>
        <text x="0" y="70" font-size="14" fill="#ffffff" font-weight="bold">OPERATIONAL</text>
    </g>

    <!-- ACTIVE USERS -->
    <g transform="translate(330, 100)">
        <text x="0" y="-20" font-size="12" fill="#aaaaaa">CITIZENS</text>
        <text x="0" y="15" font-size="28" fill="#ffffff" font-weight="bold" filter="url(#textGlow)">13,034</text>
        <text x="0" y="35" font-size="10" fill="#777777">VERIFIED HUMANS</text>
    </g>

    <!-- REGISTERED AGENTS -->
    <g transform="translate(530, 100)">
        <text x="0" y="-20" font-size="12" fill="#aaaaaa">AGENTS</text>
        <text x="0" y="15" font-size="28" fill="#00d4ff" font-weight="bold" filter="url(#textGlow)">3,931</text>
        <text x="0" y="35" font-size="10" fill="#777777">REGISTERED DIDs</text>
    </g>

    <!-- TRANSACTIONS -->
    <g transform="translate(730, 100)">
        <text x="0" y="-20" font-size="12" fill="#aaaaaa">TRANSFERS</text>
        <text x="0" y="15" font-size="28" fill="#ffffff" font-weight="bold">41,605</text>
        <text x="0" y="35" font-size="10" fill="#777777">M2M SETTLEMENTS</text>
    </g>
  </g>

  <text x="425" y="185" font-family="'Consolas', 'Fira Code', monospace" font-size="10" fill="#aaaaaa" opacity="0.6" text-anchor="middle">AXIOMID PROJECTED TARGETS (ILLUSTRATIVE): 2026-07-12 15:50:02 UTC // SECURE_HANDSHAKE</text>
</svg>