<svg width="850" height="200" viewBox="0 0 850 200" xmlns="http://www.w3.org/2000/svg">
  <defs>
    <pattern id="carbonFiber" width="10" height="10" patternUnits="userSpaceOnUse">
        <rect width="10" height="10" fill="#050505"/>
        <path d="M0,0 L5,5 L10,0 L5,-5 Z M5,5 L10,10 L15,5 L10,0 Z M-5,5 L0,10 L5,5 L0,0 Z M0,10 L5,15 L10,10 L5,5 Z" fill="#0d0d0d"/>
    </pattern>
    <filter id="textGlow">
      <feGaussianBlur stdDeviation="2" result="blur" />
      <feMerge>
        <feMergeNode in="blur"/>
        <feMergeNode in="SourceGraphic"/>
      </feMerge>
    </filter>
    <linearGradient id="neonBar" x1="0%" y1="0%" x2="100%" y2="0%">
        <stop offset="0%" stop-color="#111111"/>
        <stop offset="100%" stop-color="#39FF14"/>
    </linearGradient>
    <linearGradient id="scanlineGrad" x1="0%" y1="0%" x2="100%" y2="0%">
        <stop offset="0%" stop-color="#39FF14" stop-opacity="0"/>
        <stop offset="50%" stop-color="#39FF14" stop-opacity="0.18"/>
        <stop offset="100%" stop-color="#39FF14" stop-opacity="0"/>
    </linearGradient>
    <clipPath id="dashClip">
        <rect x="0" y="0" width="850" height="200" rx="12"/>
    </clipPath>
  </defs>

  <rect width="100%" height="100%" fill="url(#carbonFiber)" rx="12" stroke="#39FF14" stroke-width="1" stroke-opacity="0.3"/>
  <rect width="100%" height="100%" fill="#000000" opacity="0.6" rx="12" />
  <g><polygon points="229,98 237.6,103 237.6,113 229,118 220.4,113 220.4,103" fill="none" stroke="#39FF14" stroke-width="1" opacity="0.07576555619425404"/>
<polygon points="702,132 710.6,137 710.6,147 702,152 693.4,147 693.4,137" fill="none" stroke="#39FF14" stroke-width="1" opacity="0.02343062736815662"/>
<polygon points="810,136 818.6,141 818.6,151 810,156 801.4,151 801.4,141" fill="none" stroke="#39FF14" stroke-width="1" opacity="0.030699975715261812"/>
<polygon points="601,190 609.6,195 609.6,205 601,210 592.4,205 592.4,195" fill="none" stroke="#39FF14" stroke-width="1" opacity="0.05314510137701425"/>
<polygon points="4,61 12.6,66 12.6,76 4,81 -4.6,76 -4.6,66" fill="none" stroke="#39FF14" stroke-width="1" opacity="0.03717365562899744"/>
<polygon points="216,79 224.6,84 224.6,94 216,99 207.4,94 207.4,84" fill="none" stroke="#39FF14" stroke-width="1" opacity="0.06312971921610927"/>
<polygon points="543,184 551.6,189 551.6,199 543,204 534.4,199 534.4,189" fill="none" stroke="#39FF14" stroke-width="1" opacity="0.03407255659762852"/>
<polygon points="689,108 697.6,113 697.6,123 689,128 680.4,123 680.4,113" fill="none" stroke="#39FF14" stroke-width="1" opacity="0.03857132377328332"/>
<polygon points="492,0 500.6,5 500.6,15 492,20 483.4,15 483.4,5" fill="none" stroke="#39FF14" stroke-width="1" opacity="0.024123743979848993"/>
<polygon points="112,34 120.6,39 120.6,49 112,54 103.4,49 103.4,39" fill="none" stroke="#39FF14" stroke-width="1" opacity="0.04784414320113883"/>
<polygon points="88,27 96.6,32 96.6,42 88,47 79.4,42 79.4,32" fill="none" stroke="#39FF14" stroke-width="1" opacity="0.03944706685396288"/>
<polygon points="13,89 21.6,94 21.6,104 13,109 4.4,104 4.4,94" fill="none" stroke="#39FF14" stroke-width="1" opacity="0.07492290577523723"/>
<polygon points="87,83 95.6,88 95.6,98 87,103 78.4,98 78.4,88" fill="none" stroke="#39FF14" stroke-width="1" opacity="0.056059481092000055"/>
<polygon points="216,37 224.6,42 224.6,52 216,57 207.4,52 207.4,42" fill="none" stroke="#39FF14" stroke-width="1" opacity="0.03327338182440236"/>
<polygon points="556,71 564.6,76 564.6,86 556,91 547.4,86 547.4,76" fill="none" stroke="#39FF14" stroke-width="1" opacity="0.035599420151302213"/>
<polygon points="556,70 564.6,75 564.6,85 556,90 547.4,85 547.4,75" fill="none" stroke="#39FF14" stroke-width="1" opacity="0.05527869685280132"/>
<polygon points="509,138 517.6,143 517.6,153 509,158 500.4,153 500.4,143" fill="none" stroke="#39FF14" stroke-width="1" opacity="0.07092029506768209"/>
<polygon points="318,9 326.6,14 326.6,24 318,29 309.4,24 309.4,14" fill="none" stroke="#39FF14" stroke-width="1" opacity="0.03806726328929477"/>
<polygon points="709,162 717.6,167 717.6,177 709,182 700.4,177 700.4,167" fill="none" stroke="#39FF14" stroke-width="1" opacity="0.07140746659782286"/>
<polygon points="839,134 847.6,139 847.6,149 839,154 830.4,149 830.4,139" fill="none" stroke="#39FF14" stroke-width="1" opacity="0.07352709020697526"/>
<polygon points="415,-8 423.6,-3 423.6,7 415,12 406.4,7 406.4,-3" fill="none" stroke="#39FF14" stroke-width="1" opacity="0.038615101343212895"/>
<polygon points="835,132 843.6,137 843.6,147 835,152 826.4,147 826.4,137" fill="none" stroke="#39FF14" stroke-width="1" opacity="0.041280561382587094"/>
<polygon points="834,175 842.6,180 842.6,190 834,195 825.4,190 825.4,180" fill="none" stroke="#39FF14" stroke-width="1" opacity="0.05576753027816311"/>
<polygon points="25,15 33.6,20 33.6,30 25,35 16.4,30 16.4,20" fill="none" stroke="#39FF14" stroke-width="1" opacity="0.04301658475139669"/>
<polygon points="665,5 673.6,10 673.6,20 665,25 656.4,20 656.4,10" fill="none" stroke="#39FF14" stroke-width="1" opacity="0.04000263587266614"/>
<polygon points="30,136 38.6,141 38.6,151 30,156 21.4,151 21.4,141" fill="none" stroke="#39FF14" stroke-width="1" opacity="0.049003397461729756"/>
<polygon points="457,123 465.6,128 465.6,138 457,143 448.4,138 448.4,128" fill="none" stroke="#39FF14" stroke-width="1" opacity="0.07234526369519685"/>
<polygon points="330,169 338.6,174 338.6,184 330,189 321.4,184 321.4,174" fill="none" stroke="#39FF14" stroke-width="1" opacity="0.05648390015130067"/>
<polygon points="788,47 796.6,52 796.6,62 788,67 779.4,62 779.4,52" fill="none" stroke="#39FF14" stroke-width="1" opacity="0.06090763251459315"/>
<polygon points="839,91 847.6,96 847.6,106 839,111 830.4,106 830.4,96" fill="none" stroke="#39FF14" stroke-width="1" opacity="0.029566643169650277"/>
</g>

  <!-- HUD Decorative elements -->
  <path d="M 20 20 L 40 20 L 50 30" fill="none" stroke="#39FF14" stroke-width="2" opacity="0.5"/>
  <path d="M 830 180 L 810 180 L 800 170" fill="none" stroke="#39FF14" stroke-width="2" opacity="0.5"/>

  <g clip-path="url(#dashClip)">
    <rect x="-160" y="0" width="160" height="200" fill="url(#scanlineGrad)">
      <animateTransform attributeName="transform" type="translate"
                        from="0 0" to="1010 0" dur="6s" repeatCount="indefinite"/>
    </rect>
  </g>

  <g font-family="'Consolas', 'Fira Code', monospace" text-anchor="middle">

    <!-- NETWORK STATUS -->
    <g transform="translate(130, 100)">
        <circle cx="0" cy="0" r="45" fill="none" stroke="#39FF14" stroke-width="2" stroke-dasharray="10 5">
            <animateTransform attributeName="transform" type="rotate" from="0" to="360" dur="10s" repeatCount="indefinite"/>
        </circle>
        <circle cx="0" cy="0" r="35" fill="#0d0d0d" />
        <text x="0" y="-60" font-size="12" fill="#aaaaaa" letter-spacing="2">ROOT.AUTH</text>
        <text x="0" y="70" font-size="14" fill="#ffffff" font-weight="bold">OPERATIONAL</text>
    </g>

    <!-- ACTIVE USERS -->
    <g transform="translate(330, 100)">
        <text x="0" y="-20" font-size="12" fill="#aaaaaa">CITIZENS</text>
        <text x="0" y="15" font-size="28" fill="#ffffff" font-weight="bold" filter="url(#textGlow)">15,437</text>
        <text x="0" y="35" font-size="10" fill="#777777">VERIFIED HUMANS</text>
    </g>

    <!-- REGISTERED AGENTS -->
    <g transform="translate(530, 100)">
        <text x="0" y="-20" font-size="12" fill="#aaaaaa">AGENTS</text>
        <text x="0" y="15" font-size="28" fill="#00d4ff" font-weight="bold" filter="url(#textGlow)">4,693</text>
        <text x="0" y="35" font-size="10" fill="#777777">REGISTERED DIDs</text>
    </g>

    <!-- TRANSACTIONS -->
    <g transform="translate(730, 100)">
        <text x="0" y="-20" font-size="12" fill="#aaaaaa">TRANSFERS</text>
        <text x="0" y="15" font-size="28" fill="#ffffff" font-weight="bold">38,962</text>
        <text x="0" y="35" font-size="10" fill="#777777">M2M SETTLEMENTS</text>
    </g>
  </g>

  <text x="425" y="185" font-family="'Consolas', 'Fira Code', monospace" font-size="10" fill="#aaaaaa" opacity="0.6" text-anchor="middle">AXIOMID PROJECTED TARGETS (ILLUSTRATIVE): 2026-07-18 07:27:15 UTC // SECURE_HANDSHAKE</text>
</svg>