<svg width="850" height="200" viewBox="0 0 850 200" xmlns="http://www.w3.org/2000/svg">
  <defs>
    <pattern id="carbonFiber" width="10" height="10" patternUnits="userSpaceOnUse">
        <rect width="10" height="10" fill="#050505"/>
        <path d="M0,0 L5,5 L10,0 L5,-5 Z M5,5 L10,10 L15,5 L10,0 Z M-5,5 L0,10 L5,5 L0,0 Z M0,10 L5,15 L10,10 L5,5 Z" fill="#0d0d0d"/>
    </pattern>
    <filter id="textGlow">
      <feGaussianBlur stdDeviation="2" result="blur" />
      <feMerge>
        <feMergeNode in="blur"/>
        <feMergeNode in="SourceGraphic"/>
      </feMerge>
    </filter>
    <linearGradient id="neonBar" x1="0%" y1="0%" x2="100%" y2="0%">
        <stop offset="0%" stop-color="#111111"/>
        <stop offset="100%" stop-color="#39FF14"/>
    </linearGradient>
    <linearGradient id="scanlineGrad" x1="0%" y1="0%" x2="100%" y2="0%">
        <stop offset="0%" stop-color="#39FF14" stop-opacity="0"/>
        <stop offset="50%" stop-color="#39FF14" stop-opacity="0.18"/>
        <stop offset="100%" stop-color="#39FF14" stop-opacity="0"/>
    </linearGradient>
    <clipPath id="dashClip">
        <rect x="0" y="0" width="850" height="200" rx="12"/>
    </clipPath>
  </defs>

  <rect width="100%" height="100%" fill="url(#carbonFiber)" rx="12" stroke="#39FF14" stroke-width="1" stroke-opacity="0.3"/>
  <rect width="100%" height="100%" fill="#000000" opacity="0.6" rx="12" />
  <g><polygon points="432,92 440.6,97 440.6,107 432,112 423.4,107 423.4,97" fill="none" stroke="#39FF14" stroke-width="1" opacity="0.020158380391685132"/>
<polygon points="828,24 836.6,29 836.6,39 828,44 819.4,39 819.4,29" fill="none" stroke="#39FF14" stroke-width="1" opacity="0.05293954058928453"/>
<polygon points="650,189 658.6,194 658.6,204 650,209 641.4,204 641.4,194" fill="none" stroke="#39FF14" stroke-width="1" opacity="0.04242607096483844"/>
<polygon points="741,146 749.6,151 749.6,161 741,166 732.4,161 732.4,151" fill="none" stroke="#39FF14" stroke-width="1" opacity="0.03484349105505825"/>
<polygon points="256,58 264.6,63 264.6,73 256,78 247.4,73 247.4,63" fill="none" stroke="#39FF14" stroke-width="1" opacity="0.06386918305291377"/>
<polygon points="431,-4 439.6,1 439.6,11 431,16 422.4,11 422.4,1" fill="none" stroke="#39FF14" stroke-width="1" opacity="0.06266854347041699"/>
<polygon points="154,22 162.6,27 162.6,37 154,42 145.4,37 145.4,27" fill="none" stroke="#39FF14" stroke-width="1" opacity="0.02521770988309817"/>
<polygon points="294,31 302.6,36 302.6,46 294,51 285.4,46 285.4,36" fill="none" stroke="#39FF14" stroke-width="1" opacity="0.06995707556514863"/>
<polygon points="399,36 407.6,41 407.6,51 399,56 390.4,51 390.4,41" fill="none" stroke="#39FF14" stroke-width="1" opacity="0.030748979032556994"/>
<polygon points="512,41 520.6,46 520.6,56 512,61 503.4,56 503.4,46" fill="none" stroke="#39FF14" stroke-width="1" opacity="0.0346866211642096"/>
<polygon points="101,175 109.6,180 109.6,190 101,195 92.4,190 92.4,180" fill="none" stroke="#39FF14" stroke-width="1" opacity="0.046044704797555173"/>
<polygon points="359,60 367.6,65 367.6,75 359,80 350.4,75 350.4,65" fill="none" stroke="#39FF14" stroke-width="1" opacity="0.056110266120232566"/>
<polygon points="551,75 559.6,80 559.6,90 551,95 542.4,90 542.4,80" fill="none" stroke="#39FF14" stroke-width="1" opacity="0.028332222994636558"/>
<polygon points="478,54 486.6,59 486.6,69 478,74 469.4,69 469.4,59" fill="none" stroke="#39FF14" stroke-width="1" opacity="0.05399394971499992"/>
<polygon points="752,34 760.6,39 760.6,49 752,54 743.4,49 743.4,39" fill="none" stroke="#39FF14" stroke-width="1" opacity="0.022462836854607933"/>
<polygon points="580,87 588.6,92 588.6,102 580,107 571.4,102 571.4,92" fill="none" stroke="#39FF14" stroke-width="1" opacity="0.02822744784746865"/>
<polygon points="121,140 129.6,145 129.6,155 121,160 112.4,155 112.4,145" fill="none" stroke="#39FF14" stroke-width="1" opacity="0.028443702947443597"/>
<polygon points="619,182 627.6,187 627.6,197 619,202 610.4,197 610.4,187" fill="none" stroke="#39FF14" stroke-width="1" opacity="0.04402308342638028"/>
<polygon points="279,58 287.6,63 287.6,73 279,78 270.4,73 270.4,63" fill="none" stroke="#39FF14" stroke-width="1" opacity="0.06288557266158719"/>
<polygon points="254,180 262.6,185 262.6,195 254,200 245.4,195 245.4,185" fill="none" stroke="#39FF14" stroke-width="1" opacity="0.06200895931442596"/>
<polygon points="210,35 218.6,40 218.6,50 210,55 201.4,50 201.4,40" fill="none" stroke="#39FF14" stroke-width="1" opacity="0.024070271330540228"/>
<polygon points="362,143 370.6,148 370.6,158 362,163 353.4,158 353.4,148" fill="none" stroke="#39FF14" stroke-width="1" opacity="0.021593090554744315"/>
<polygon points="722,27 730.6,32 730.6,42 722,47 713.4,42 713.4,32" fill="none" stroke="#39FF14" stroke-width="1" opacity="0.02127201861492177"/>
<polygon points="430,25 438.6,30 438.6,40 430,45 421.4,40 421.4,30" fill="none" stroke="#39FF14" stroke-width="1" opacity="0.05138334403637984"/>
<polygon points="553,-9 561.6,-4 561.6,6 553,11 544.4,6 544.4,-4" fill="none" stroke="#39FF14" stroke-width="1" opacity="0.051067462921404974"/>
<polygon points="743,32 751.6,37 751.6,47 743,52 734.4,47 734.4,37" fill="none" stroke="#39FF14" stroke-width="1" opacity="0.03534419226719865"/>
<polygon points="236,33 244.6,38 244.6,48 236,53 227.4,48 227.4,38" fill="none" stroke="#39FF14" stroke-width="1" opacity="0.06316042712159073"/>
<polygon points="357,94 365.6,99 365.6,109 357,114 348.4,109 348.4,99" fill="none" stroke="#39FF14" stroke-width="1" opacity="0.06899439859815303"/>
<polygon points="511,-2 519.6,3 519.6,13 511,18 502.4,13 502.4,3" fill="none" stroke="#39FF14" stroke-width="1" opacity="0.05156939554359995"/>
<polygon points="669,190 677.6,195 677.6,205 669,210 660.4,205 660.4,195" fill="none" stroke="#39FF14" stroke-width="1" opacity="0.05384709540960028"/>
</g>

  <!-- HUD Decorative elements -->
  <path d="M 20 20 L 40 20 L 50 30" fill="none" stroke="#39FF14" stroke-width="2" opacity="0.5"/>
  <path d="M 830 180 L 810 180 L 800 170" fill="none" stroke="#39FF14" stroke-width="2" opacity="0.5"/>

  <g clip-path="url(#dashClip)">
    <rect x="-160" y="0" width="160" height="200" fill="url(#scanlineGrad)">
      <animateTransform attributeName="transform" type="translate"
                        from="0 0" to="1010 0" dur="6s" repeatCount="indefinite"/>
    </rect>
  </g>

  <g font-family="'Consolas', 'Fira Code', monospace" text-anchor="middle">

    <!-- NETWORK STATUS -->
    <g transform="translate(130, 100)">
        <circle cx="0" cy="0" r="45" fill="none" stroke="#39FF14" stroke-width="2" stroke-dasharray="10 5">
            <animateTransform attributeName="transform" type="rotate" from="0" to="360" dur="10s" repeatCount="indefinite"/>
        </circle>
        <circle cx="0" cy="0" r="35" fill="#0d0d0d" />
        <text x="0" y="-60" font-size="12" fill="#aaaaaa" letter-spacing="2">ROOT.AUTH</text>
        <text x="0" y="70" font-size="14" fill="#ffffff" font-weight="bold">OPERATIONAL</text>
    </g>

    <!-- ACTIVE USERS -->
    <g transform="translate(330, 100)">
        <text x="0" y="-20" font-size="12" fill="#aaaaaa">CITIZENS</text>
        <text x="0" y="15" font-size="28" fill="#ffffff" font-weight="bold" filter="url(#textGlow)">13,604</text>
        <text x="0" y="35" font-size="10" fill="#777777">VERIFIED HUMANS</text>
    </g>

    <!-- REGISTERED AGENTS -->
    <g transform="translate(530, 100)">
        <text x="0" y="-20" font-size="12" fill="#aaaaaa">AGENTS</text>
        <text x="0" y="15" font-size="28" fill="#00d4ff" font-weight="bold" filter="url(#textGlow)">3,998</text>
        <text x="0" y="35" font-size="10" fill="#777777">REGISTERED DIDs</text>
    </g>

    <!-- TRANSACTIONS -->
    <g transform="translate(730, 100)">
        <text x="0" y="-20" font-size="12" fill="#aaaaaa">TRANSFERS</text>
        <text x="0" y="15" font-size="28" fill="#ffffff" font-weight="bold">30,124</text>
        <text x="0" y="35" font-size="10" fill="#777777">M2M SETTLEMENTS</text>
    </g>
  </g>

  <text x="425" y="185" font-family="'Consolas', 'Fira Code', monospace" font-size="10" fill="#aaaaaa" opacity="0.6" text-anchor="middle">AXIOMID PROJECTED TARGETS (ILLUSTRATIVE): 2026-06-22 21:41:07 UTC // SECURE_HANDSHAKE</text>
</svg>