<svg width="850" height="200" viewBox="0 0 850 200" xmlns="http://www.w3.org/2000/svg">
  <defs>
    <pattern id="carbonFiber" width="10" height="10" patternUnits="userSpaceOnUse">
        <rect width="10" height="10" fill="#050505"/>
        <path d="M0,0 L5,5 L10,0 L5,-5 Z M5,5 L10,10 L15,5 L10,0 Z M-5,5 L0,10 L5,5 L0,0 Z M0,10 L5,15 L10,10 L5,5 Z" fill="#0d0d0d"/>
    </pattern>
    <filter id="textGlow">
      <feGaussianBlur stdDeviation="2" result="blur" />
      <feMerge>
        <feMergeNode in="blur"/>
        <feMergeNode in="SourceGraphic"/>
      </feMerge>
    </filter>
    <linearGradient id="neonBar" x1="0%" y1="0%" x2="100%" y2="0%">
        <stop offset="0%" stop-color="#111111"/>
        <stop offset="100%" stop-color="#39FF14"/>
    </linearGradient>
    <linearGradient id="scanlineGrad" x1="0%" y1="0%" x2="100%" y2="0%">
        <stop offset="0%" stop-color="#39FF14" stop-opacity="0"/>
        <stop offset="50%" stop-color="#39FF14" stop-opacity="0.18"/>
        <stop offset="100%" stop-color="#39FF14" stop-opacity="0"/>
    </linearGradient>
    <clipPath id="dashClip">
        <rect x="0" y="0" width="850" height="200" rx="12"/>
    </clipPath>
  </defs>

  <rect width="100%" height="100%" fill="url(#carbonFiber)" rx="12" stroke="#39FF14" stroke-width="1" stroke-opacity="0.3"/>
  <rect width="100%" height="100%" fill="#000000" opacity="0.6" rx="12" />
  <g><polygon points="611,96 619.6,101 619.6,111 611,116 602.4,111 602.4,101" fill="none" stroke="#39FF14" stroke-width="1" opacity="0.0408269093380336"/>
<polygon points="641,119 649.6,124 649.6,134 641,139 632.4,134 632.4,124" fill="none" stroke="#39FF14" stroke-width="1" opacity="0.03188266139628139"/>
<polygon points="836,176 844.6,181 844.6,191 836,196 827.4,191 827.4,181" fill="none" stroke="#39FF14" stroke-width="1" opacity="0.03847886768110892"/>
<polygon points="579,146 587.6,151 587.6,161 579,166 570.4,161 570.4,151" fill="none" stroke="#39FF14" stroke-width="1" opacity="0.026928001650814475"/>
<polygon points="435,146 443.6,151 443.6,161 435,166 426.4,161 426.4,151" fill="none" stroke="#39FF14" stroke-width="1" opacity="0.07237932911267908"/>
<polygon points="125,20 133.6,25 133.6,35 125,40 116.4,35 116.4,25" fill="none" stroke="#39FF14" stroke-width="1" opacity="0.0499059331629894"/>
<polygon points="460,79 468.6,84 468.6,94 460,99 451.4,94 451.4,84" fill="none" stroke="#39FF14" stroke-width="1" opacity="0.03635717400441654"/>
<polygon points="821,26 829.6,31 829.6,41 821,46 812.4,41 812.4,31" fill="none" stroke="#39FF14" stroke-width="1" opacity="0.04257863508808099"/>
<polygon points="825,52 833.6,57 833.6,67 825,72 816.4,67 816.4,57" fill="none" stroke="#39FF14" stroke-width="1" opacity="0.050060321056196"/>
<polygon points="89,115 97.6,120 97.6,130 89,135 80.4,130 80.4,120" fill="none" stroke="#39FF14" stroke-width="1" opacity="0.058895066906717794"/>
<polygon points="300,180 308.6,185 308.6,195 300,200 291.4,195 291.4,185" fill="none" stroke="#39FF14" stroke-width="1" opacity="0.06255034293605902"/>
<polygon points="791,156 799.6,161 799.6,171 791,176 782.4,171 782.4,161" fill="none" stroke="#39FF14" stroke-width="1" opacity="0.06885182516911048"/>
<polygon points="493,105 501.6,110 501.6,120 493,125 484.4,120 484.4,110" fill="none" stroke="#39FF14" stroke-width="1" opacity="0.031970100674254105"/>
<polygon points="449,77 457.6,82 457.6,92 449,97 440.4,92 440.4,82" fill="none" stroke="#39FF14" stroke-width="1" opacity="0.030204522503096104"/>
<polygon points="489,153 497.6,158 497.6,168 489,173 480.4,168 480.4,158" fill="none" stroke="#39FF14" stroke-width="1" opacity="0.06705779579568877"/>
<polygon points="611,62 619.6,67 619.6,77 611,82 602.4,77 602.4,67" fill="none" stroke="#39FF14" stroke-width="1" opacity="0.045569203140592984"/>
<polygon points="796,27 804.6,32 804.6,42 796,47 787.4,42 787.4,32" fill="none" stroke="#39FF14" stroke-width="1" opacity="0.07626461861573527"/>
<polygon points="161,138 169.6,143 169.6,153 161,158 152.4,153 152.4,143" fill="none" stroke="#39FF14" stroke-width="1" opacity="0.05355488037914312"/>
<polygon points="151,117 159.6,122 159.6,132 151,137 142.4,132 142.4,122" fill="none" stroke="#39FF14" stroke-width="1" opacity="0.0569499637508699"/>
<polygon points="201,21 209.6,26 209.6,36 201,41 192.4,36 192.4,26" fill="none" stroke="#39FF14" stroke-width="1" opacity="0.03235114885365917"/>
<polygon points="600,136 608.6,141 608.6,151 600,156 591.4,151 591.4,141" fill="none" stroke="#39FF14" stroke-width="1" opacity="0.02813527863816938"/>
<polygon points="691,127 699.6,132 699.6,142 691,147 682.4,142 682.4,132" fill="none" stroke="#39FF14" stroke-width="1" opacity="0.04207644139276148"/>
<polygon points="731,49 739.6,54 739.6,64 731,69 722.4,64 722.4,54" fill="none" stroke="#39FF14" stroke-width="1" opacity="0.03468726370125723"/>
<polygon points="25,171 33.6,176 33.6,186 25,191 16.4,186 16.4,176" fill="none" stroke="#39FF14" stroke-width="1" opacity="0.06513553364596458"/>
<polygon points="85,134 93.6,139 93.6,149 85,154 76.4,149 76.4,139" fill="none" stroke="#39FF14" stroke-width="1" opacity="0.0775904668209703"/>
<polygon points="390,79 398.6,84 398.6,94 390,99 381.4,94 381.4,84" fill="none" stroke="#39FF14" stroke-width="1" opacity="0.039210669717881855"/>
<polygon points="215,9 223.6,14 223.6,24 215,29 206.4,24 206.4,14" fill="none" stroke="#39FF14" stroke-width="1" opacity="0.03613879307275175"/>
<polygon points="778,35 786.6,40 786.6,50 778,55 769.4,50 769.4,40" fill="none" stroke="#39FF14" stroke-width="1" opacity="0.05217465588002167"/>
<polygon points="759,18 767.6,23 767.6,33 759,38 750.4,33 750.4,23" fill="none" stroke="#39FF14" stroke-width="1" opacity="0.03917252900030935"/>
<polygon points="552,127 560.6,132 560.6,142 552,147 543.4,142 543.4,132" fill="none" stroke="#39FF14" stroke-width="1" opacity="0.07416517147749391"/>
</g>

  <!-- HUD Decorative elements -->
  <path d="M 20 20 L 40 20 L 50 30" fill="none" stroke="#39FF14" stroke-width="2" opacity="0.5"/>
  <path d="M 830 180 L 810 180 L 800 170" fill="none" stroke="#39FF14" stroke-width="2" opacity="0.5"/>

  <g clip-path="url(#dashClip)">
    <rect x="-160" y="0" width="160" height="200" fill="url(#scanlineGrad)">
      <animateTransform attributeName="transform" type="translate"
                        from="0 0" to="1010 0" dur="6s" repeatCount="indefinite"/>
    </rect>
  </g>

  <g font-family="'Consolas', 'Fira Code', monospace" text-anchor="middle">

    <!-- NETWORK STATUS -->
    <g transform="translate(130, 100)">
        <circle cx="0" cy="0" r="45" fill="none" stroke="#39FF14" stroke-width="2" stroke-dasharray="10 5">
            <animateTransform attributeName="transform" type="rotate" from="0" to="360" dur="10s" repeatCount="indefinite"/>
        </circle>
        <circle cx="0" cy="0" r="35" fill="#0d0d0d" />
        <text x="0" y="-60" font-size="12" fill="#aaaaaa" letter-spacing="2">ROOT.AUTH</text>
        <text x="0" y="70" font-size="14" fill="#ffffff" font-weight="bold">OPERATIONAL</text>
    </g>

    <!-- ACTIVE USERS -->
    <g transform="translate(330, 100)">
        <text x="0" y="-20" font-size="12" fill="#aaaaaa">CITIZENS</text>
        <text x="0" y="15" font-size="28" fill="#ffffff" font-weight="bold" filter="url(#textGlow)">12,448</text>
        <text x="0" y="35" font-size="10" fill="#777777">VERIFIED HUMANS</text>
    </g>

    <!-- REGISTERED AGENTS -->
    <g transform="translate(530, 100)">
        <text x="0" y="-20" font-size="12" fill="#aaaaaa">AGENTS</text>
        <text x="0" y="15" font-size="28" fill="#00d4ff" font-weight="bold" filter="url(#textGlow)">3,664</text>
        <text x="0" y="35" font-size="10" fill="#777777">REGISTERED DIDs</text>
    </g>

    <!-- TRANSACTIONS -->
    <g transform="translate(730, 100)">
        <text x="0" y="-20" font-size="12" fill="#aaaaaa">TRANSFERS</text>
        <text x="0" y="15" font-size="28" fill="#ffffff" font-weight="bold">29,434</text>
        <text x="0" y="35" font-size="10" fill="#777777">M2M SETTLEMENTS</text>
    </g>
  </g>

  <text x="425" y="185" font-family="'Consolas', 'Fira Code', monospace" font-size="10" fill="#aaaaaa" opacity="0.6" text-anchor="middle">AXIOMID PROJECTED TARGETS (ILLUSTRATIVE): 2026-07-13 09:23:58 UTC // SECURE_HANDSHAKE</text>
</svg>