<svg width="850" height="200" viewBox="0 0 850 200" xmlns="http://www.w3.org/2000/svg">
  <defs>
    <pattern id="carbonFiber" width="10" height="10" patternUnits="userSpaceOnUse">
        <rect width="10" height="10" fill="#050505"/>
        <path d="M0,0 L5,5 L10,0 L5,-5 Z M5,5 L10,10 L15,5 L10,0 Z M-5,5 L0,10 L5,5 L0,0 Z M0,10 L5,15 L10,10 L5,5 Z" fill="#0d0d0d"/>
    </pattern>
    <filter id="textGlow">
      <feGaussianBlur stdDeviation="2" result="blur" />
      <feMerge>
        <feMergeNode in="blur"/>
        <feMergeNode in="SourceGraphic"/>
      </feMerge>
    </filter>
    <linearGradient id="neonBar" x1="0%" y1="0%" x2="100%" y2="0%">
        <stop offset="0%" stop-color="#111111"/>
        <stop offset="100%" stop-color="#39FF14"/>
    </linearGradient>
    <linearGradient id="scanlineGrad" x1="0%" y1="0%" x2="100%" y2="0%">
        <stop offset="0%" stop-color="#39FF14" stop-opacity="0"/>
        <stop offset="50%" stop-color="#39FF14" stop-opacity="0.18"/>
        <stop offset="100%" stop-color="#39FF14" stop-opacity="0"/>
    </linearGradient>
    <clipPath id="dashClip">
        <rect x="0" y="0" width="850" height="200" rx="12"/>
    </clipPath>
  </defs>

  <rect width="100%" height="100%" fill="url(#carbonFiber)" rx="12" stroke="#39FF14" stroke-width="1" stroke-opacity="0.3"/>
  <rect width="100%" height="100%" fill="#000000" opacity="0.6" rx="12" />
  <g><polygon points="115,145 123.6,150 123.6,160 115,165 106.4,160 106.4,150" fill="none" stroke="#39FF14" stroke-width="1" opacity="0.02986926439519298"/>
<polygon points="383,-7 391.6,-2 391.6,8 383,13 374.4,8 374.4,-2" fill="none" stroke="#39FF14" stroke-width="1" opacity="0.06406261518794656"/>
<polygon points="461,108 469.6,113 469.6,123 461,128 452.4,123 452.4,113" fill="none" stroke="#39FF14" stroke-width="1" opacity="0.07238686457775483"/>
<polygon points="650,33 658.6,38 658.6,48 650,53 641.4,48 641.4,38" fill="none" stroke="#39FF14" stroke-width="1" opacity="0.0301655211340549"/>
<polygon points="553,13 561.6,18 561.6,28 553,33 544.4,28 544.4,18" fill="none" stroke="#39FF14" stroke-width="1" opacity="0.0653402401644106"/>
<polygon points="114,115 122.6,120 122.6,130 114,135 105.4,130 105.4,120" fill="none" stroke="#39FF14" stroke-width="1" opacity="0.0318457859207082"/>
<polygon points="24,8 32.6,13 32.6,23 24,28 15.4,23 15.4,13" fill="none" stroke="#39FF14" stroke-width="1" opacity="0.07144161034102275"/>
<polygon points="407,58 415.6,63 415.6,73 407,78 398.4,73 398.4,63" fill="none" stroke="#39FF14" stroke-width="1" opacity="0.029387138917331634"/>
<polygon points="39,72 47.6,77 47.6,87 39,92 30.4,87 30.4,77" fill="none" stroke="#39FF14" stroke-width="1" opacity="0.03085570398009125"/>
<polygon points="268,83 276.6,88 276.6,98 268,103 259.4,98 259.4,88" fill="none" stroke="#39FF14" stroke-width="1" opacity="0.0303856102825618"/>
<polygon points="100,176 108.6,181 108.6,191 100,196 91.4,191 91.4,181" fill="none" stroke="#39FF14" stroke-width="1" opacity="0.05449973063324692"/>
<polygon points="604,19 612.6,24 612.6,34 604,39 595.4,34 595.4,24" fill="none" stroke="#39FF14" stroke-width="1" opacity="0.02641487900363585"/>
<polygon points="83,28 91.6,33 91.6,43 83,48 74.4,43 74.4,33" fill="none" stroke="#39FF14" stroke-width="1" opacity="0.055077098326520996"/>
<polygon points="761,158 769.6,163 769.6,173 761,178 752.4,173 752.4,163" fill="none" stroke="#39FF14" stroke-width="1" opacity="0.07622141495436993"/>
<polygon points="221,106 229.6,111 229.6,121 221,126 212.4,121 212.4,111" fill="none" stroke="#39FF14" stroke-width="1" opacity="0.07047087503004733"/>
<polygon points="366,129 374.6,134 374.6,144 366,149 357.4,144 357.4,134" fill="none" stroke="#39FF14" stroke-width="1" opacity="0.038281395755600654"/>
<polygon points="310,163 318.6,168 318.6,178 310,183 301.4,178 301.4,168" fill="none" stroke="#39FF14" stroke-width="1" opacity="0.056266055603775525"/>
<polygon points="744,109 752.6,114 752.6,124 744,129 735.4,124 735.4,114" fill="none" stroke="#39FF14" stroke-width="1" opacity="0.024260801746755264"/>
<polygon points="287,6 295.6,11 295.6,21 287,26 278.4,21 278.4,11" fill="none" stroke="#39FF14" stroke-width="1" opacity="0.0438177467117936"/>
<polygon points="641,50 649.6,55 649.6,65 641,70 632.4,65 632.4,55" fill="none" stroke="#39FF14" stroke-width="1" opacity="0.037518451598185884"/>
<polygon points="55,160 63.6,165 63.6,175 55,180 46.4,175 46.4,165" fill="none" stroke="#39FF14" stroke-width="1" opacity="0.0658139356527431"/>
<polygon points="265,122 273.6,127 273.6,137 265,142 256.4,137 256.4,127" fill="none" stroke="#39FF14" stroke-width="1" opacity="0.06832080205701059"/>
<polygon points="350,59 358.6,64 358.6,74 350,79 341.4,74 341.4,64" fill="none" stroke="#39FF14" stroke-width="1" opacity="0.07827812820907559"/>
<polygon points="254,55 262.6,60 262.6,70 254,75 245.4,70 245.4,60" fill="none" stroke="#39FF14" stroke-width="1" opacity="0.07245492377114314"/>
<polygon points="298,92 306.6,97 306.6,107 298,112 289.4,107 289.4,97" fill="none" stroke="#39FF14" stroke-width="1" opacity="0.02193789547626951"/>
<polygon points="157,57 165.6,62 165.6,72 157,77 148.4,72 148.4,62" fill="none" stroke="#39FF14" stroke-width="1" opacity="0.07705590198016891"/>
<polygon points="222,118 230.6,123 230.6,133 222,138 213.4,133 213.4,123" fill="none" stroke="#39FF14" stroke-width="1" opacity="0.029802085218887442"/>
<polygon points="18,154 26.6,159 26.6,169 18,174 9.4,169 9.4,159" fill="none" stroke="#39FF14" stroke-width="1" opacity="0.03651753627582727"/>
<polygon points="587,54 595.6,59 595.6,69 587,74 578.4,69 578.4,59" fill="none" stroke="#39FF14" stroke-width="1" opacity="0.0665693416276382"/>
<polygon points="298,124 306.6,129 306.6,139 298,144 289.4,139 289.4,129" fill="none" stroke="#39FF14" stroke-width="1" opacity="0.06594185596052939"/>
</g>

  <!-- HUD Decorative elements -->
  <path d="M 20 20 L 40 20 L 50 30" fill="none" stroke="#39FF14" stroke-width="2" opacity="0.5"/>
  <path d="M 830 180 L 810 180 L 800 170" fill="none" stroke="#39FF14" stroke-width="2" opacity="0.5"/>

  <g clip-path="url(#dashClip)">
    <rect x="-160" y="0" width="160" height="200" fill="url(#scanlineGrad)">
      <animateTransform attributeName="transform" type="translate"
                        from="0 0" to="1010 0" dur="6s" repeatCount="indefinite"/>
    </rect>
  </g>

  <g font-family="'Consolas', 'Fira Code', monospace" text-anchor="middle">

    <!-- NETWORK STATUS -->
    <g transform="translate(130, 100)">
        <circle cx="0" cy="0" r="45" fill="none" stroke="#39FF14" stroke-width="2" stroke-dasharray="10 5">
            <animateTransform attributeName="transform" type="rotate" from="0" to="360" dur="10s" repeatCount="indefinite"/>
        </circle>
        <circle cx="0" cy="0" r="35" fill="#0d0d0d" />
        <text x="0" y="-60" font-size="12" fill="#aaaaaa" letter-spacing="2">ROOT.AUTH</text>
        <text x="0" y="70" font-size="14" fill="#ffffff" font-weight="bold">OPERATIONAL</text>
    </g>

    <!-- ACTIVE USERS -->
    <g transform="translate(330, 100)">
        <text x="0" y="-20" font-size="12" fill="#aaaaaa">CITIZENS</text>
        <text x="0" y="15" font-size="28" fill="#ffffff" font-weight="bold" filter="url(#textGlow)">14,619</text>
        <text x="0" y="35" font-size="10" fill="#777777">VERIFIED HUMANS</text>
    </g>

    <!-- REGISTERED AGENTS -->
    <g transform="translate(530, 100)">
        <text x="0" y="-20" font-size="12" fill="#aaaaaa">AGENTS</text>
        <text x="0" y="15" font-size="28" fill="#00d4ff" font-weight="bold" filter="url(#textGlow)">4,579</text>
        <text x="0" y="35" font-size="10" fill="#777777">REGISTERED DIDs</text>
    </g>

    <!-- TRANSACTIONS -->
    <g transform="translate(730, 100)">
        <text x="0" y="-20" font-size="12" fill="#aaaaaa">TRANSFERS</text>
        <text x="0" y="15" font-size="28" fill="#ffffff" font-weight="bold">32,409</text>
        <text x="0" y="35" font-size="10" fill="#777777">M2M SETTLEMENTS</text>
    </g>
  </g>

  <text x="425" y="185" font-family="'Consolas', 'Fira Code', monospace" font-size="10" fill="#aaaaaa" opacity="0.6" text-anchor="middle">AXIOMID PROJECTED TARGETS (ILLUSTRATIVE): 2026-07-19 05:41:52 UTC // SECURE_HANDSHAKE</text>
</svg>