<svg width="850" height="200" viewBox="0 0 850 200" xmlns="http://www.w3.org/2000/svg">
  <defs>
    <pattern id="carbonFiber" width="10" height="10" patternUnits="userSpaceOnUse">
        <rect width="10" height="10" fill="#050505"/>
        <path d="M0,0 L5,5 L10,0 L5,-5 Z M5,5 L10,10 L15,5 L10,0 Z M-5,5 L0,10 L5,5 L0,0 Z M0,10 L5,15 L10,10 L5,5 Z" fill="#0d0d0d"/>
    </pattern>
    <filter id="textGlow">
      <feGaussianBlur stdDeviation="2" result="blur" />
      <feMerge>
        <feMergeNode in="blur"/>
        <feMergeNode in="SourceGraphic"/>
      </feMerge>
    </filter>
    <linearGradient id="neonBar" x1="0%" y1="0%" x2="100%" y2="0%">
        <stop offset="0%" stop-color="#111111"/>
        <stop offset="100%" stop-color="#39FF14"/>
    </linearGradient>
    <linearGradient id="scanlineGrad" x1="0%" y1="0%" x2="100%" y2="0%">
        <stop offset="0%" stop-color="#39FF14" stop-opacity="0"/>
        <stop offset="50%" stop-color="#39FF14" stop-opacity="0.18"/>
        <stop offset="100%" stop-color="#39FF14" stop-opacity="0"/>
    </linearGradient>
    <clipPath id="dashClip">
        <rect x="0" y="0" width="850" height="200" rx="12"/>
    </clipPath>
  </defs>

  <rect width="100%" height="100%" fill="url(#carbonFiber)" rx="12" stroke="#39FF14" stroke-width="1" stroke-opacity="0.3"/>
  <rect width="100%" height="100%" fill="#000000" opacity="0.6" rx="12" />
  <g><polygon points="787,134 795.6,139 795.6,149 787,154 778.4,149 778.4,139" fill="none" stroke="#39FF14" stroke-width="1" opacity="0.052920679971774534"/>
<polygon points="150,166 158.6,171 158.6,181 150,186 141.4,181 141.4,171" fill="none" stroke="#39FF14" stroke-width="1" opacity="0.05323600644962716"/>
<polygon points="694,121 702.6,126 702.6,136 694,141 685.4,136 685.4,126" fill="none" stroke="#39FF14" stroke-width="1" opacity="0.04842818175977192"/>
<polygon points="362,50 370.6,55 370.6,65 362,70 353.4,65 353.4,55" fill="none" stroke="#39FF14" stroke-width="1" opacity="0.05369162250549281"/>
<polygon points="350,169 358.6,174 358.6,184 350,189 341.4,184 341.4,174" fill="none" stroke="#39FF14" stroke-width="1" opacity="0.05796102371269324"/>
<polygon points="58,81 66.6,86 66.6,96 58,101 49.4,96 49.4,86" fill="none" stroke="#39FF14" stroke-width="1" opacity="0.03462749841881606"/>
<polygon points="436,142 444.6,147 444.6,157 436,162 427.4,157 427.4,147" fill="none" stroke="#39FF14" stroke-width="1" opacity="0.0674951325673228"/>
<polygon points="238,135 246.6,140 246.6,150 238,155 229.4,150 229.4,140" fill="none" stroke="#39FF14" stroke-width="1" opacity="0.020369551413462663"/>
<polygon points="372,10 380.6,15 380.6,25 372,30 363.4,25 363.4,15" fill="none" stroke="#39FF14" stroke-width="1" opacity="0.05201503870279969"/>
<polygon points="174,169 182.6,174 182.6,184 174,189 165.4,184 165.4,174" fill="none" stroke="#39FF14" stroke-width="1" opacity="0.043118818191904856"/>
<polygon points="678,174 686.6,179 686.6,189 678,194 669.4,189 669.4,179" fill="none" stroke="#39FF14" stroke-width="1" opacity="0.022690413007698324"/>
<polygon points="52,20 60.6,25 60.6,35 52,40 43.4,35 43.4,25" fill="none" stroke="#39FF14" stroke-width="1" opacity="0.07166220811998779"/>
<polygon points="252,125 260.6,130 260.6,140 252,145 243.4,140 243.4,130" fill="none" stroke="#39FF14" stroke-width="1" opacity="0.046814939996727055"/>
<polygon points="286,90 294.6,95 294.6,105 286,110 277.4,105 277.4,95" fill="none" stroke="#39FF14" stroke-width="1" opacity="0.051924930053471166"/>
<polygon points="196,182 204.6,187 204.6,197 196,202 187.4,197 187.4,187" fill="none" stroke="#39FF14" stroke-width="1" opacity="0.050119181649070546"/>
<polygon points="840,100 848.6,105 848.6,115 840,120 831.4,115 831.4,105" fill="none" stroke="#39FF14" stroke-width="1" opacity="0.07052315442240938"/>
<polygon points="471,146 479.6,151 479.6,161 471,166 462.4,161 462.4,151" fill="none" stroke="#39FF14" stroke-width="1" opacity="0.05599263745098576"/>
<polygon points="412,130 420.6,135 420.6,145 412,150 403.4,145 403.4,135" fill="none" stroke="#39FF14" stroke-width="1" opacity="0.03286343924337688"/>
<polygon points="656,80 664.6,85 664.6,95 656,100 647.4,95 647.4,85" fill="none" stroke="#39FF14" stroke-width="1" opacity="0.0688302140791048"/>
<polygon points="19,100 27.6,105 27.6,115 19,120 10.4,115 10.4,105" fill="none" stroke="#39FF14" stroke-width="1" opacity="0.0695305200159808"/>
<polygon points="701,80 709.6,85 709.6,95 701,100 692.4,95 692.4,85" fill="none" stroke="#39FF14" stroke-width="1" opacity="0.047145787393776784"/>
<polygon points="505,8 513.6,13 513.6,23 505,28 496.4,23 496.4,13" fill="none" stroke="#39FF14" stroke-width="1" opacity="0.05119719807465242"/>
<polygon points="787,111 795.6,116 795.6,126 787,131 778.4,126 778.4,116" fill="none" stroke="#39FF14" stroke-width="1" opacity="0.0510548690770624"/>
<polygon points="287,61 295.6,66 295.6,76 287,81 278.4,76 278.4,66" fill="none" stroke="#39FF14" stroke-width="1" opacity="0.044628399375263784"/>
<polygon points="703,-9 711.6,-4 711.6,6 703,11 694.4,6 694.4,-4" fill="none" stroke="#39FF14" stroke-width="1" opacity="0.07071382169808688"/>
<polygon points="337,152 345.6,157 345.6,167 337,172 328.4,167 328.4,157" fill="none" stroke="#39FF14" stroke-width="1" opacity="0.07692735575672424"/>
<polygon points="359,26 367.6,31 367.6,41 359,46 350.4,41 350.4,31" fill="none" stroke="#39FF14" stroke-width="1" opacity="0.020724324950331843"/>
<polygon points="142,71 150.6,76 150.6,86 142,91 133.4,86 133.4,76" fill="none" stroke="#39FF14" stroke-width="1" opacity="0.06599207657856519"/>
<polygon points="490,161 498.6,166 498.6,176 490,181 481.4,176 481.4,166" fill="none" stroke="#39FF14" stroke-width="1" opacity="0.05077609097144818"/>
<polygon points="360,72 368.6,77 368.6,87 360,92 351.4,87 351.4,77" fill="none" stroke="#39FF14" stroke-width="1" opacity="0.056449325395427505"/>
</g>

  <!-- HUD Decorative elements -->
  <path d="M 20 20 L 40 20 L 50 30" fill="none" stroke="#39FF14" stroke-width="2" opacity="0.5"/>
  <path d="M 830 180 L 810 180 L 800 170" fill="none" stroke="#39FF14" stroke-width="2" opacity="0.5"/>

  <g clip-path="url(#dashClip)">
    <rect x="-160" y="0" width="160" height="200" fill="url(#scanlineGrad)">
      <animateTransform attributeName="transform" type="translate"
                        from="0 0" to="1010 0" dur="6s" repeatCount="indefinite"/>
    </rect>
  </g>

  <g font-family="'Consolas', 'Fira Code', monospace" text-anchor="middle">

    <!-- NETWORK STATUS -->
    <g transform="translate(130, 100)">
        <circle cx="0" cy="0" r="45" fill="none" stroke="#39FF14" stroke-width="2" stroke-dasharray="10 5">
            <animateTransform attributeName="transform" type="rotate" from="0" to="360" dur="10s" repeatCount="indefinite"/>
        </circle>
        <circle cx="0" cy="0" r="35" fill="#0d0d0d" />
        <text x="0" y="-60" font-size="12" fill="#aaaaaa" letter-spacing="2">ROOT.AUTH</text>
        <text x="0" y="70" font-size="14" fill="#ffffff" font-weight="bold">OPERATIONAL</text>
    </g>

    <!-- ACTIVE USERS -->
    <g transform="translate(330, 100)">
        <text x="0" y="-20" font-size="12" fill="#aaaaaa">CITIZENS</text>
        <text x="0" y="15" font-size="28" fill="#ffffff" font-weight="bold" filter="url(#textGlow)">14,567</text>
        <text x="0" y="35" font-size="10" fill="#777777">VERIFIED HUMANS</text>
    </g>

    <!-- REGISTERED AGENTS -->
    <g transform="translate(530, 100)">
        <text x="0" y="-20" font-size="12" fill="#aaaaaa">AGENTS</text>
        <text x="0" y="15" font-size="28" fill="#00d4ff" font-weight="bold" filter="url(#textGlow)">3,723</text>
        <text x="0" y="35" font-size="10" fill="#777777">REGISTERED DIDs</text>
    </g>

    <!-- TRANSACTIONS -->
    <g transform="translate(730, 100)">
        <text x="0" y="-20" font-size="12" fill="#aaaaaa">TRANSFERS</text>
        <text x="0" y="15" font-size="28" fill="#ffffff" font-weight="bold">39,765</text>
        <text x="0" y="35" font-size="10" fill="#777777">M2M SETTLEMENTS</text>
    </g>
  </g>

  <text x="425" y="185" font-family="'Consolas', 'Fira Code', monospace" font-size="10" fill="#aaaaaa" opacity="0.6" text-anchor="middle">AXIOMID PROJECTED TARGETS (ILLUSTRATIVE): 2026-07-17 13:04:35 UTC // SECURE_HANDSHAKE</text>
</svg>