<svg width="850" height="200" viewBox="0 0 850 200" xmlns="http://www.w3.org/2000/svg">
  <defs>
    <pattern id="carbonFiber" width="10" height="10" patternUnits="userSpaceOnUse">
        <rect width="10" height="10" fill="#050505"/>
        <path d="M0,0 L5,5 L10,0 L5,-5 Z M5,5 L10,10 L15,5 L10,0 Z M-5,5 L0,10 L5,5 L0,0 Z M0,10 L5,15 L10,10 L5,5 Z" fill="#0d0d0d"/>
    </pattern>
    <filter id="textGlow">
      <feGaussianBlur stdDeviation="2" result="blur" />
      <feMerge>
        <feMergeNode in="blur"/>
        <feMergeNode in="SourceGraphic"/>
      </feMerge>
    </filter>
    <linearGradient id="neonBar" x1="0%" y1="0%" x2="100%" y2="0%">
        <stop offset="0%" stop-color="#111111"/>
        <stop offset="100%" stop-color="#39FF14"/>
    </linearGradient>
    <linearGradient id="scanlineGrad" x1="0%" y1="0%" x2="100%" y2="0%">
        <stop offset="0%" stop-color="#39FF14" stop-opacity="0"/>
        <stop offset="50%" stop-color="#39FF14" stop-opacity="0.18"/>
        <stop offset="100%" stop-color="#39FF14" stop-opacity="0"/>
    </linearGradient>
    <clipPath id="dashClip">
        <rect x="0" y="0" width="850" height="200" rx="12"/>
    </clipPath>
  </defs>

  <rect width="100%" height="100%" fill="url(#carbonFiber)" rx="12" stroke="#39FF14" stroke-width="1" stroke-opacity="0.3"/>
  <rect width="100%" height="100%" fill="#000000" opacity="0.6" rx="12" />
  <g><polygon points="76,74 84.6,79 84.6,89 76,94 67.4,89 67.4,79" fill="none" stroke="#39FF14" stroke-width="1" opacity="0.0794061586120897"/>
<polygon points="141,128 149.6,133 149.6,143 141,148 132.4,143 132.4,133" fill="none" stroke="#39FF14" stroke-width="1" opacity="0.06354582184541305"/>
<polygon points="158,121 166.6,126 166.6,136 158,141 149.4,136 149.4,126" fill="none" stroke="#39FF14" stroke-width="1" opacity="0.07239717754696769"/>
<polygon points="249,-4 257.6,1 257.6,11 249,16 240.4,11 240.4,1" fill="none" stroke="#39FF14" stroke-width="1" opacity="0.03080123086487781"/>
<polygon points="382,24 390.6,29 390.6,39 382,44 373.4,39 373.4,29" fill="none" stroke="#39FF14" stroke-width="1" opacity="0.045729966816594254"/>
<polygon points="8,92 16.6,97 16.6,107 8,112 -0.5999999999999996,107 -0.5999999999999996,97" fill="none" stroke="#39FF14" stroke-width="1" opacity="0.03994045115241131"/>
<polygon points="350,157 358.6,162 358.6,172 350,177 341.4,172 341.4,162" fill="none" stroke="#39FF14" stroke-width="1" opacity="0.04302325123448321"/>
<polygon points="371,179 379.6,184 379.6,194 371,199 362.4,194 362.4,184" fill="none" stroke="#39FF14" stroke-width="1" opacity="0.04919799337038361"/>
<polygon points="162,133 170.6,138 170.6,148 162,153 153.4,148 153.4,138" fill="none" stroke="#39FF14" stroke-width="1" opacity="0.02856318978913451"/>
<polygon points="393,38 401.6,43 401.6,53 393,58 384.4,53 384.4,43" fill="none" stroke="#39FF14" stroke-width="1" opacity="0.07788348109866755"/>
<polygon points="546,149 554.6,154 554.6,164 546,169 537.4,164 537.4,154" fill="none" stroke="#39FF14" stroke-width="1" opacity="0.05320221204719312"/>
<polygon points="36,112 44.6,117 44.6,127 36,132 27.4,127 27.4,117" fill="none" stroke="#39FF14" stroke-width="1" opacity="0.04719037693736411"/>
<polygon points="683,152 691.6,157 691.6,167 683,172 674.4,167 674.4,157" fill="none" stroke="#39FF14" stroke-width="1" opacity="0.0396683452308768"/>
<polygon points="331,101 339.6,106 339.6,116 331,121 322.4,116 322.4,106" fill="none" stroke="#39FF14" stroke-width="1" opacity="0.023375497510165773"/>
<polygon points="474,36 482.6,41 482.6,51 474,56 465.4,51 465.4,41" fill="none" stroke="#39FF14" stroke-width="1" opacity="0.04889599493130291"/>
<polygon points="21,173 29.6,178 29.6,188 21,193 12.4,188 12.4,178" fill="none" stroke="#39FF14" stroke-width="1" opacity="0.045547617521416624"/>
<polygon points="779,154 787.6,159 787.6,169 779,174 770.4,169 770.4,159" fill="none" stroke="#39FF14" stroke-width="1" opacity="0.07095242121054429"/>
<polygon points="183,19 191.6,24 191.6,34 183,39 174.4,34 174.4,24" fill="none" stroke="#39FF14" stroke-width="1" opacity="0.02558690732769517"/>
<polygon points="344,162 352.6,167 352.6,177 344,182 335.4,177 335.4,167" fill="none" stroke="#39FF14" stroke-width="1" opacity="0.03199201247307473"/>
<polygon points="410,181 418.6,186 418.6,196 410,201 401.4,196 401.4,186" fill="none" stroke="#39FF14" stroke-width="1" opacity="0.04774764668529685"/>
<polygon points="344,154 352.6,159 352.6,169 344,174 335.4,169 335.4,159" fill="none" stroke="#39FF14" stroke-width="1" opacity="0.07678285713974886"/>
<polygon points="52,161 60.6,166 60.6,176 52,181 43.4,176 43.4,166" fill="none" stroke="#39FF14" stroke-width="1" opacity="0.020865394215060593"/>
<polygon points="460,27 468.6,32 468.6,42 460,47 451.4,42 451.4,32" fill="none" stroke="#39FF14" stroke-width="1" opacity="0.05413823798873793"/>
<polygon points="45,57 53.6,62 53.6,72 45,77 36.4,72 36.4,62" fill="none" stroke="#39FF14" stroke-width="1" opacity="0.07917957645925869"/>
<polygon points="694,96 702.6,101 702.6,111 694,116 685.4,111 685.4,101" fill="none" stroke="#39FF14" stroke-width="1" opacity="0.05060751465863696"/>
<polygon points="721,95 729.6,100 729.6,110 721,115 712.4,110 712.4,100" fill="none" stroke="#39FF14" stroke-width="1" opacity="0.056203125730694"/>
<polygon points="610,65 618.6,70 618.6,80 610,85 601.4,80 601.4,70" fill="none" stroke="#39FF14" stroke-width="1" opacity="0.0414656825930286"/>
<polygon points="22,96 30.6,101 30.6,111 22,116 13.4,111 13.4,101" fill="none" stroke="#39FF14" stroke-width="1" opacity="0.059160524113239535"/>
<polygon points="300,83 308.6,88 308.6,98 300,103 291.4,98 291.4,88" fill="none" stroke="#39FF14" stroke-width="1" opacity="0.07680327211130646"/>
<polygon points="439,176 447.6,181 447.6,191 439,196 430.4,191 430.4,181" fill="none" stroke="#39FF14" stroke-width="1" opacity="0.07470689920467369"/>
</g>

  <!-- HUD Decorative elements -->
  <path d="M 20 20 L 40 20 L 50 30" fill="none" stroke="#39FF14" stroke-width="2" opacity="0.5"/>
  <path d="M 830 180 L 810 180 L 800 170" fill="none" stroke="#39FF14" stroke-width="2" opacity="0.5"/>

  <g clip-path="url(#dashClip)">
    <rect x="-160" y="0" width="160" height="200" fill="url(#scanlineGrad)">
      <animateTransform attributeName="transform" type="translate"
                        from="0 0" to="1010 0" dur="6s" repeatCount="indefinite"/>
    </rect>
  </g>

  <g font-family="'Consolas', 'Fira Code', monospace" text-anchor="middle">

    <!-- NETWORK STATUS -->
    <g transform="translate(130, 100)">
        <circle cx="0" cy="0" r="45" fill="none" stroke="#39FF14" stroke-width="2" stroke-dasharray="10 5">
            <animateTransform attributeName="transform" type="rotate" from="0" to="360" dur="10s" repeatCount="indefinite"/>
        </circle>
        <circle cx="0" cy="0" r="35" fill="#0d0d0d" />
        <text x="0" y="-60" font-size="12" fill="#aaaaaa" letter-spacing="2">ROOT.AUTH</text>
        <text x="0" y="70" font-size="14" fill="#ffffff" font-weight="bold">OPERATIONAL</text>
    </g>

    <!-- ACTIVE USERS -->
    <g transform="translate(330, 100)">
        <text x="0" y="-20" font-size="12" fill="#aaaaaa">CITIZENS</text>
        <text x="0" y="15" font-size="28" fill="#ffffff" font-weight="bold" filter="url(#textGlow)">12,661</text>
        <text x="0" y="35" font-size="10" fill="#777777">VERIFIED HUMANS</text>
    </g>

    <!-- REGISTERED AGENTS -->
    <g transform="translate(530, 100)">
        <text x="0" y="-20" font-size="12" fill="#aaaaaa">AGENTS</text>
        <text x="0" y="15" font-size="28" fill="#00d4ff" font-weight="bold" filter="url(#textGlow)">4,155</text>
        <text x="0" y="35" font-size="10" fill="#777777">REGISTERED DIDs</text>
    </g>

    <!-- TRANSACTIONS -->
    <g transform="translate(730, 100)">
        <text x="0" y="-20" font-size="12" fill="#aaaaaa">TRANSFERS</text>
        <text x="0" y="15" font-size="28" fill="#ffffff" font-weight="bold">30,955</text>
        <text x="0" y="35" font-size="10" fill="#777777">M2M SETTLEMENTS</text>
    </g>
  </g>

  <text x="425" y="185" font-family="'Consolas', 'Fira Code', monospace" font-size="10" fill="#aaaaaa" opacity="0.6" text-anchor="middle">AXIOMID PROJECTED TARGETS (ILLUSTRATIVE): 2026-07-07 17:05:21 UTC // SECURE_HANDSHAKE</text>
</svg>