<svg width="850" height="200" viewBox="0 0 850 200" xmlns="http://www.w3.org/2000/svg">
  <defs>
    <!-- Carbon Fiber Pattern -->
    <pattern id="carbonFiber" width="10" height="10" patternUnits="userSpaceOnUse">
        <rect width="10" height="10" fill="#050505"/>
        <path d="M0,0 L5,5 L10,0 L5,-5 Z M5,5 L10,10 L15,5 L10,0 Z M-5,5 L0,10 L5,5 L0,0 Z M0,10 L5,15 L10,10 L5,5 Z" fill="#0d0d0d"/>
    </pattern>
    <filter id="glassmorphism">
      <feGaussianBlur stdDeviation="3" result="blur" />
      <feColorMatrix type="matrix" values="1 0 0 0 0  0 1 0 0 0  0 0 1 0 0  0 0 0 18 -7" result="glow" />
      <feBlend in="SourceGraphic" in2="glow" mode="normal" />
    </filter>
    <filter id="textGlow">
      <feGaussianBlur stdDeviation="2" result="blur" />
      <feMerge>
        <feMergeNode in="blur"/>
        <feMergeNode in="SourceGraphic"/>
      </feMerge>
    </filter>
    <linearGradient id="neonBar" x1="0%" y1="0%" x2="100%" y2="0%">
        <stop offset="0%" stop-color="#111111"/>
        <stop offset="100%" stop-color="#39FF14"/>
    </linearGradient>
  </defs>

  <rect width="100%" height="100%" fill="url(#carbonFiber)" rx="12" stroke="#39FF14" stroke-width="1" stroke-opacity="0.3"/>
  <rect width="100%" height="100%" fill="#000000" opacity="0.6" rx="12" />
  <g><polygon points="243,84 251.6,89 251.6,99 243,104 234.4,99 234.4,89" fill="none" stroke="#39FF14" stroke-width="1" opacity="0.02896934403478247"/>
<polygon points="642,39 650.6,44 650.6,54 642,59 633.4,54 633.4,44" fill="none" stroke="#39FF14" stroke-width="1" opacity="0.04586697722503906"/>
<polygon points="696,109 704.6,114 704.6,124 696,129 687.4,124 687.4,114" fill="none" stroke="#39FF14" stroke-width="1" opacity="0.04423159284788184"/>
<polygon points="311,90 319.6,95 319.6,105 311,110 302.4,105 302.4,95" fill="none" stroke="#39FF14" stroke-width="1" opacity="0.0753947417179187"/>
<polygon points="238,137 246.6,142 246.6,152 238,157 229.4,152 229.4,142" fill="none" stroke="#39FF14" stroke-width="1" opacity="0.04521295920422627"/>
<polygon points="199,106 207.6,111 207.6,121 199,126 190.4,121 190.4,111" fill="none" stroke="#39FF14" stroke-width="1" opacity="0.05024754004141968"/>
<polygon points="609,-10 617.6,-5 617.6,5 609,10 600.4,5 600.4,-5" fill="none" stroke="#39FF14" stroke-width="1" opacity="0.07302967707620468"/>
<polygon points="290,98 298.6,103 298.6,113 290,118 281.4,113 281.4,103" fill="none" stroke="#39FF14" stroke-width="1" opacity="0.06839447274242105"/>
<polygon points="555,88 563.6,93 563.6,103 555,108 546.4,103 546.4,93" fill="none" stroke="#39FF14" stroke-width="1" opacity="0.05047091135184668"/>
<polygon points="722,109 730.6,114 730.6,124 722,129 713.4,124 713.4,114" fill="none" stroke="#39FF14" stroke-width="1" opacity="0.05124037822434321"/>
<polygon points="367,106 375.6,111 375.6,121 367,126 358.4,121 358.4,111" fill="none" stroke="#39FF14" stroke-width="1" opacity="0.07197274130725495"/>
<polygon points="327,14 335.6,19 335.6,29 327,34 318.4,29 318.4,19" fill="none" stroke="#39FF14" stroke-width="1" opacity="0.05635626896662975"/>
<polygon points="747,102 755.6,107 755.6,117 747,122 738.4,117 738.4,107" fill="none" stroke="#39FF14" stroke-width="1" opacity="0.03553943615301397"/>
<polygon points="206,60 214.6,65 214.6,75 206,80 197.4,75 197.4,65" fill="none" stroke="#39FF14" stroke-width="1" opacity="0.03822254853529445"/>
<polygon points="530,144 538.6,149 538.6,159 530,164 521.4,159 521.4,149" fill="none" stroke="#39FF14" stroke-width="1" opacity="0.07295370853690422"/>
<polygon points="407,64 415.6,69 415.6,79 407,84 398.4,79 398.4,69" fill="none" stroke="#39FF14" stroke-width="1" opacity="0.02887866219298501"/>
<polygon points="437,16 445.6,21 445.6,31 437,36 428.4,31 428.4,21" fill="none" stroke="#39FF14" stroke-width="1" opacity="0.07265381313187787"/>
<polygon points="642,70 650.6,75 650.6,85 642,90 633.4,85 633.4,75" fill="none" stroke="#39FF14" stroke-width="1" opacity="0.03677928804999268"/>
<polygon points="102,123 110.6,128 110.6,138 102,143 93.4,138 93.4,128" fill="none" stroke="#39FF14" stroke-width="1" opacity="0.04827132632794959"/>
<polygon points="492,162 500.6,167 500.6,177 492,182 483.4,177 483.4,167" fill="none" stroke="#39FF14" stroke-width="1" opacity="0.0280242113373253"/>
<polygon points="782,0 790.6,5 790.6,15 782,20 773.4,15 773.4,5" fill="none" stroke="#39FF14" stroke-width="1" opacity="0.07149115178636707"/>
<polygon points="754,11 762.6,16 762.6,26 754,31 745.4,26 745.4,16" fill="none" stroke="#39FF14" stroke-width="1" opacity="0.06884976385923046"/>
<polygon points="425,63 433.6,68 433.6,78 425,83 416.4,78 416.4,68" fill="none" stroke="#39FF14" stroke-width="1" opacity="0.046591541677212786"/>
<polygon points="119,164 127.6,169 127.6,179 119,184 110.4,179 110.4,169" fill="none" stroke="#39FF14" stroke-width="1" opacity="0.022927488714638622"/>
<polygon points="216,131 224.6,136 224.6,146 216,151 207.4,146 207.4,136" fill="none" stroke="#39FF14" stroke-width="1" opacity="0.06341837422520183"/>
<polygon points="742,130 750.6,135 750.6,145 742,150 733.4,145 733.4,135" fill="none" stroke="#39FF14" stroke-width="1" opacity="0.05369940373522196"/>
<polygon points="527,9 535.6,14 535.6,24 527,29 518.4,24 518.4,14" fill="none" stroke="#39FF14" stroke-width="1" opacity="0.02669522124617227"/>
<polygon points="719,152 727.6,157 727.6,167 719,172 710.4,167 710.4,157" fill="none" stroke="#39FF14" stroke-width="1" opacity="0.05524540521310556"/>
<polygon points="702,2 710.6,7 710.6,17 702,22 693.4,17 693.4,7" fill="none" stroke="#39FF14" stroke-width="1" opacity="0.07089933335606236"/>
<polygon points="391,106 399.6,111 399.6,121 391,126 382.4,121 382.4,111" fill="none" stroke="#39FF14" stroke-width="1" opacity="0.04028983479637696"/>
</g>

  <!-- HUD Decorative elements -->
  <path d="M 20 20 L 40 20 L 50 30" fill="none" stroke="#39FF14" stroke-width="2" opacity="0.5"/>
  <path d="M 830 180 L 810 180 L 800 170" fill="none" stroke="#39FF14" stroke-width="2" opacity="0.5"/>
  <rect x="20" y="100" width="2" height="40" fill="#ffffff" opacity="0.4"/>
  <rect x="828" y="60" width="2" height="40" fill="#39FF14" opacity="0.6"/>

  <g font-family="'Consolas', 'Fira Code', monospace" text-anchor="middle">

    <!-- SYSTEM STATUS -->
    <g transform="translate(130, 100)">
        <circle cx="0" cy="0" r="45" fill="none" stroke="#111111" stroke-width="8" />
        <circle cx="0" cy="0" r="45" fill="none" stroke="#39FF14" stroke-width="2" stroke-dasharray="10 5">
            <animateTransform attributeName="transform" type="rotate" from="0" to="360" dur="10s" repeatCount="indefinite"/>
        </circle>
        <circle cx="0" cy="0" r="35" fill="#0d0d0d" />
        <circle cx="0" cy="0" r="6" fill="#39FF14" filter="url(#textGlow)">
            <animate attributeName="opacity" values="1;0.3;1" dur="2s" repeatCount="indefinite"/>
        </circle>
        <text x="0" y="-60" font-size="12" fill="#aaaaaa" letter-spacing="2">SYS.CORE</text>
        <text x="0" y="70" font-size="14" fill="#ffffff" font-weight="bold">ONLINE</text>
    </g>

    <!-- LIVE TRAFFIC -->
    <g transform="translate(330, 100)">
        <rect x="-60" y="-45" width="120" height="90" fill="#0a0a0a" rx="8" stroke="#39FF14" stroke-opacity="0.4" stroke-width="1"/>
        <text x="0" y="-20" font-size="12" fill="#aaaaaa">NETWORK LOAD</text>
        <text x="0" y="15" font-size="28" fill="#ffffff" font-weight="bold" filter="url(#textGlow)">5739</text>
        <text x="0" y="35" font-size="10" fill="#777777">ACTIVE SESSIONS</text>
    </g>

    <!-- ACTIVE AGENTS -->
    <g transform="translate(530, 100)">
        <rect x="-60" y="-45" width="120" height="90" fill="#0a0a0a" rx="8" stroke="#39FF14" stroke-opacity="0.4" stroke-width="1"/>
        <text x="0" y="-20" font-size="12" fill="#aaaaaa">SWARM ENTITIES</text>
        <text x="0" y="15" font-size="28" fill="#ffffff" font-weight="bold" filter="url(#textGlow)">84</text>
        <text x="0" y="35" font-size="10" fill="#777777">AUTONOMOUS</text>
    </g>

    <!-- UPTIME -->
    <g transform="translate(730, 100)">
        <path d="M -40 -35 L 40 -35 L 50 -25 L 50 35 L -40 35 L -50 25 Z" fill="#0a0a0a" stroke="#39FF14" stroke-opacity="0.4" stroke-width="1"/>
        <text x="0" y="-15" font-size="12" fill="#aaaaaa">CONTINUITY</text>
        <text x="0" y="15" font-size="24" fill="#ffffff" font-weight="bold">238<tspan font-size="14" fill="#777777">d</tspan></text>
        <rect x="-35" y="25" width="70" height="4" fill="url(#neonBar)" rx="2"/>
    </g>
  </g>

  <text x="425" y="185" font-family="'Consolas', 'Fira Code', monospace" font-size="10" fill="#aaaaaa" opacity="0.6" text-anchor="middle">LAST TELEMETRY PING: 2026-05-05 00:46:52 UTC // ENCRYPTED_TUNNEL</text>
</svg>