<svg width="850" height="200" viewBox="0 0 850 200" xmlns="http://www.w3.org/2000/svg">
  <defs>
    <pattern id="carbonFiber" width="10" height="10" patternUnits="userSpaceOnUse">
        <rect width="10" height="10" fill="#050505"/>
        <path d="M0,0 L5,5 L10,0 L5,-5 Z M5,5 L10,10 L15,5 L10,0 Z M-5,5 L0,10 L5,5 L0,0 Z M0,10 L5,15 L10,10 L5,5 Z" fill="#0d0d0d"/>
    </pattern>
    <filter id="textGlow">
      <feGaussianBlur stdDeviation="2" result="blur" />
      <feMerge>
        <feMergeNode in="blur"/>
        <feMergeNode in="SourceGraphic"/>
      </feMerge>
    </filter>
    <linearGradient id="neonBar" x1="0%" y1="0%" x2="100%" y2="0%">
        <stop offset="0%" stop-color="#111111"/>
        <stop offset="100%" stop-color="#39FF14"/>
    </linearGradient>
    <linearGradient id="scanlineGrad" x1="0%" y1="0%" x2="100%" y2="0%">
        <stop offset="0%" stop-color="#39FF14" stop-opacity="0"/>
        <stop offset="50%" stop-color="#39FF14" stop-opacity="0.18"/>
        <stop offset="100%" stop-color="#39FF14" stop-opacity="0"/>
    </linearGradient>
    <clipPath id="dashClip">
        <rect x="0" y="0" width="850" height="200" rx="12"/>
    </clipPath>
  </defs>

  <rect width="100%" height="100%" fill="url(#carbonFiber)" rx="12" stroke="#39FF14" stroke-width="1" stroke-opacity="0.3"/>
  <rect width="100%" height="100%" fill="#000000" opacity="0.6" rx="12" />
  <g><polygon points="175,143 183.6,148 183.6,158 175,163 166.4,158 166.4,148" fill="none" stroke="#39FF14" stroke-width="1" opacity="0.059482309473581726"/>
<polygon points="529,145 537.6,150 537.6,160 529,165 520.4,160 520.4,150" fill="none" stroke="#39FF14" stroke-width="1" opacity="0.025086320758787025"/>
<polygon points="475,147 483.6,152 483.6,162 475,167 466.4,162 466.4,152" fill="none" stroke="#39FF14" stroke-width="1" opacity="0.055514292702114776"/>
<polygon points="690,186 698.6,191 698.6,201 690,206 681.4,201 681.4,191" fill="none" stroke="#39FF14" stroke-width="1" opacity="0.06894456038820457"/>
<polygon points="197,167 205.6,172 205.6,182 197,187 188.4,182 188.4,172" fill="none" stroke="#39FF14" stroke-width="1" opacity="0.04729878618307368"/>
<polygon points="701,133 709.6,138 709.6,148 701,153 692.4,148 692.4,138" fill="none" stroke="#39FF14" stroke-width="1" opacity="0.05087968185224241"/>
<polygon points="274,88 282.6,93 282.6,103 274,108 265.4,103 265.4,93" fill="none" stroke="#39FF14" stroke-width="1" opacity="0.05500805279131163"/>
<polygon points="556,174 564.6,179 564.6,189 556,194 547.4,189 547.4,179" fill="none" stroke="#39FF14" stroke-width="1" opacity="0.04694656875595042"/>
<polygon points="727,189 735.6,194 735.6,204 727,209 718.4,204 718.4,194" fill="none" stroke="#39FF14" stroke-width="1" opacity="0.04621997018457405"/>
<polygon points="495,73 503.6,78 503.6,88 495,93 486.4,88 486.4,78" fill="none" stroke="#39FF14" stroke-width="1" opacity="0.07657528541890381"/>
<polygon points="314,171 322.6,176 322.6,186 314,191 305.4,186 305.4,176" fill="none" stroke="#39FF14" stroke-width="1" opacity="0.023949289978003663"/>
<polygon points="250,165 258.6,170 258.6,180 250,185 241.4,180 241.4,170" fill="none" stroke="#39FF14" stroke-width="1" opacity="0.048890835650791484"/>
<polygon points="716,139 724.6,144 724.6,154 716,159 707.4,154 707.4,144" fill="none" stroke="#39FF14" stroke-width="1" opacity="0.05498823098510763"/>
<polygon points="30,2 38.6,7 38.6,17 30,22 21.4,17 21.4,7" fill="none" stroke="#39FF14" stroke-width="1" opacity="0.03349826069437173"/>
<polygon points="241,11 249.6,16 249.6,26 241,31 232.4,26 232.4,16" fill="none" stroke="#39FF14" stroke-width="1" opacity="0.023427939919840848"/>
<polygon points="399,132 407.6,137 407.6,147 399,152 390.4,147 390.4,137" fill="none" stroke="#39FF14" stroke-width="1" opacity="0.07009990570663034"/>
<polygon points="417,67 425.6,72 425.6,82 417,87 408.4,82 408.4,72" fill="none" stroke="#39FF14" stroke-width="1" opacity="0.06986026593400113"/>
<polygon points="140,16 148.6,21 148.6,31 140,36 131.4,31 131.4,21" fill="none" stroke="#39FF14" stroke-width="1" opacity="0.04200008802328005"/>
<polygon points="296,15 304.6,20 304.6,30 296,35 287.4,30 287.4,20" fill="none" stroke="#39FF14" stroke-width="1" opacity="0.04707868050349925"/>
<polygon points="627,62 635.6,67 635.6,77 627,82 618.4,77 618.4,67" fill="none" stroke="#39FF14" stroke-width="1" opacity="0.054132079449862286"/>
<polygon points="462,138 470.6,143 470.6,153 462,158 453.4,153 453.4,143" fill="none" stroke="#39FF14" stroke-width="1" opacity="0.0403315805762429"/>
<polygon points="2,176 10.6,181 10.6,191 2,196 -6.6,191 -6.6,181" fill="none" stroke="#39FF14" stroke-width="1" opacity="0.026104087172653674"/>
<polygon points="784,135 792.6,140 792.6,150 784,155 775.4,150 775.4,140" fill="none" stroke="#39FF14" stroke-width="1" opacity="0.025251647313913845"/>
<polygon points="621,114 629.6,119 629.6,129 621,134 612.4,129 612.4,119" fill="none" stroke="#39FF14" stroke-width="1" opacity="0.05684715359238797"/>
<polygon points="535,149 543.6,154 543.6,164 535,169 526.4,164 526.4,154" fill="none" stroke="#39FF14" stroke-width="1" opacity="0.07922320245899397"/>
<polygon points="140,133 148.6,138 148.6,148 140,153 131.4,148 131.4,138" fill="none" stroke="#39FF14" stroke-width="1" opacity="0.05198624928495915"/>
<polygon points="199,-4 207.6,1 207.6,11 199,16 190.4,11 190.4,1" fill="none" stroke="#39FF14" stroke-width="1" opacity="0.06603951791027167"/>
<polygon points="760,147 768.6,152 768.6,162 760,167 751.4,162 751.4,152" fill="none" stroke="#39FF14" stroke-width="1" opacity="0.022321132005650914"/>
<polygon points="49,34 57.6,39 57.6,49 49,54 40.4,49 40.4,39" fill="none" stroke="#39FF14" stroke-width="1" opacity="0.05735922083135153"/>
<polygon points="470,54 478.6,59 478.6,69 470,74 461.4,69 461.4,59" fill="none" stroke="#39FF14" stroke-width="1" opacity="0.06955650959261253"/>
</g>

  <!-- HUD Decorative elements -->
  <path d="M 20 20 L 40 20 L 50 30" fill="none" stroke="#39FF14" stroke-width="2" opacity="0.5"/>
  <path d="M 830 180 L 810 180 L 800 170" fill="none" stroke="#39FF14" stroke-width="2" opacity="0.5"/>

  <g clip-path="url(#dashClip)">
    <rect x="-160" y="0" width="160" height="200" fill="url(#scanlineGrad)">
      <animateTransform attributeName="transform" type="translate"
                        from="0 0" to="1010 0" dur="6s" repeatCount="indefinite"/>
    </rect>
  </g>

  <g font-family="'Consolas', 'Fira Code', monospace" text-anchor="middle">

    <!-- NETWORK STATUS -->
    <g transform="translate(130, 100)">
        <circle cx="0" cy="0" r="45" fill="none" stroke="#39FF14" stroke-width="2" stroke-dasharray="10 5">
            <animateTransform attributeName="transform" type="rotate" from="0" to="360" dur="10s" repeatCount="indefinite"/>
        </circle>
        <circle cx="0" cy="0" r="35" fill="#0d0d0d" />
        <text x="0" y="-60" font-size="12" fill="#aaaaaa" letter-spacing="2">ROOT.AUTH</text>
        <text x="0" y="70" font-size="14" fill="#ffffff" font-weight="bold">OPERATIONAL</text>
    </g>

    <!-- ACTIVE USERS -->
    <g transform="translate(330, 100)">
        <text x="0" y="-20" font-size="12" fill="#aaaaaa">CITIZENS</text>
        <text x="0" y="15" font-size="28" fill="#ffffff" font-weight="bold" filter="url(#textGlow)">13,808</text>
        <text x="0" y="35" font-size="10" fill="#777777">VERIFIED HUMANS</text>
    </g>

    <!-- REGISTERED AGENTS -->
    <g transform="translate(530, 100)">
        <text x="0" y="-20" font-size="12" fill="#aaaaaa">AGENTS</text>
        <text x="0" y="15" font-size="28" fill="#00d4ff" font-weight="bold" filter="url(#textGlow)">3,123</text>
        <text x="0" y="35" font-size="10" fill="#777777">REGISTERED DIDs</text>
    </g>

    <!-- TRANSACTIONS -->
    <g transform="translate(730, 100)">
        <text x="0" y="-20" font-size="12" fill="#aaaaaa">TRANSFERS</text>
        <text x="0" y="15" font-size="28" fill="#ffffff" font-weight="bold">32,664</text>
        <text x="0" y="35" font-size="10" fill="#777777">M2M SETTLEMENTS</text>
    </g>
  </g>

  <text x="425" y="185" font-family="'Consolas', 'Fira Code', monospace" font-size="10" fill="#aaaaaa" opacity="0.6" text-anchor="middle">AXIOMID PROJECTED TARGETS (ILLUSTRATIVE): 2026-07-21 21:55:00 UTC // SECURE_HANDSHAKE</text>
</svg>