<svg width="850" height="200" viewBox="0 0 850 200" xmlns="http://www.w3.org/2000/svg">
  <defs>
    <pattern id="carbonFiber" width="10" height="10" patternUnits="userSpaceOnUse">
        <rect width="10" height="10" fill="#050505"/>
        <path d="M0,0 L5,5 L10,0 L5,-5 Z M5,5 L10,10 L15,5 L10,0 Z M-5,5 L0,10 L5,5 L0,0 Z M0,10 L5,15 L10,10 L5,5 Z" fill="#0d0d0d"/>
    </pattern>
    <filter id="textGlow">
      <feGaussianBlur stdDeviation="2" result="blur" />
      <feMerge>
        <feMergeNode in="blur"/>
        <feMergeNode in="SourceGraphic"/>
      </feMerge>
    </filter>
    <linearGradient id="neonBar" x1="0%" y1="0%" x2="100%" y2="0%">
        <stop offset="0%" stop-color="#111111"/>
        <stop offset="100%" stop-color="#39FF14"/>
    </linearGradient>
    <linearGradient id="scanlineGrad" x1="0%" y1="0%" x2="100%" y2="0%">
        <stop offset="0%" stop-color="#39FF14" stop-opacity="0"/>
        <stop offset="50%" stop-color="#39FF14" stop-opacity="0.18"/>
        <stop offset="100%" stop-color="#39FF14" stop-opacity="0"/>
    </linearGradient>
    <clipPath id="dashClip">
        <rect x="0" y="0" width="850" height="200" rx="12"/>
    </clipPath>
  </defs>

  <rect width="100%" height="100%" fill="url(#carbonFiber)" rx="12" stroke="#39FF14" stroke-width="1" stroke-opacity="0.3"/>
  <rect width="100%" height="100%" fill="#000000" opacity="0.6" rx="12" />
  <g><polygon points="586,165 594.6,170 594.6,180 586,185 577.4,180 577.4,170" fill="none" stroke="#39FF14" stroke-width="1" opacity="0.04883575392669569"/>
<polygon points="340,170 348.6,175 348.6,185 340,190 331.4,185 331.4,175" fill="none" stroke="#39FF14" stroke-width="1" opacity="0.03874604581061688"/>
<polygon points="246,146 254.6,151 254.6,161 246,166 237.4,161 237.4,151" fill="none" stroke="#39FF14" stroke-width="1" opacity="0.05670877106789761"/>
<polygon points="802,81 810.6,86 810.6,96 802,101 793.4,96 793.4,86" fill="none" stroke="#39FF14" stroke-width="1" opacity="0.05550491422601976"/>
<polygon points="581,122 589.6,127 589.6,137 581,142 572.4,137 572.4,127" fill="none" stroke="#39FF14" stroke-width="1" opacity="0.06438368677826248"/>
<polygon points="613,138 621.6,143 621.6,153 613,158 604.4,153 604.4,143" fill="none" stroke="#39FF14" stroke-width="1" opacity="0.06024476053786283"/>
<polygon points="594,59 602.6,64 602.6,74 594,79 585.4,74 585.4,64" fill="none" stroke="#39FF14" stroke-width="1" opacity="0.04216207189780913"/>
<polygon points="556,4 564.6,9 564.6,19 556,24 547.4,19 547.4,9" fill="none" stroke="#39FF14" stroke-width="1" opacity="0.07971057376528763"/>
<polygon points="265,182 273.6,187 273.6,197 265,202 256.4,197 256.4,187" fill="none" stroke="#39FF14" stroke-width="1" opacity="0.05797461895168553"/>
<polygon points="262,61 270.6,66 270.6,76 262,81 253.4,76 253.4,66" fill="none" stroke="#39FF14" stroke-width="1" opacity="0.06094218011507145"/>
<polygon points="327,44 335.6,49 335.6,59 327,64 318.4,59 318.4,49" fill="none" stroke="#39FF14" stroke-width="1" opacity="0.02139333956214238"/>
<polygon points="37,160 45.6,165 45.6,175 37,180 28.4,175 28.4,165" fill="none" stroke="#39FF14" stroke-width="1" opacity="0.07815346720574022"/>
<polygon points="657,85 665.6,90 665.6,100 657,105 648.4,100 648.4,90" fill="none" stroke="#39FF14" stroke-width="1" opacity="0.023305751053839304"/>
<polygon points="484,88 492.6,93 492.6,103 484,108 475.4,103 475.4,93" fill="none" stroke="#39FF14" stroke-width="1" opacity="0.057041263072538664"/>
<polygon points="367,62 375.6,67 375.6,77 367,82 358.4,77 358.4,67" fill="none" stroke="#39FF14" stroke-width="1" opacity="0.023655101826624544"/>
<polygon points="618,52 626.6,57 626.6,67 618,72 609.4,67 609.4,57" fill="none" stroke="#39FF14" stroke-width="1" opacity="0.0771148585957775"/>
<polygon points="36,28 44.6,33 44.6,43 36,48 27.4,43 27.4,33" fill="none" stroke="#39FF14" stroke-width="1" opacity="0.05541953383770337"/>
<polygon points="211,125 219.6,130 219.6,140 211,145 202.4,140 202.4,130" fill="none" stroke="#39FF14" stroke-width="1" opacity="0.07775884199331001"/>
<polygon points="517,141 525.6,146 525.6,156 517,161 508.4,156 508.4,146" fill="none" stroke="#39FF14" stroke-width="1" opacity="0.07664861028581468"/>
<polygon points="194,83 202.6,88 202.6,98 194,103 185.4,98 185.4,88" fill="none" stroke="#39FF14" stroke-width="1" opacity="0.02465480053888006"/>
<polygon points="567,98 575.6,103 575.6,113 567,118 558.4,113 558.4,103" fill="none" stroke="#39FF14" stroke-width="1" opacity="0.05934484630550993"/>
<polygon points="206,147 214.6,152 214.6,162 206,167 197.4,162 197.4,152" fill="none" stroke="#39FF14" stroke-width="1" opacity="0.021920819605158598"/>
<polygon points="326,93 334.6,98 334.6,108 326,113 317.4,108 317.4,98" fill="none" stroke="#39FF14" stroke-width="1" opacity="0.07897854239969816"/>
<polygon points="650,153 658.6,158 658.6,168 650,173 641.4,168 641.4,158" fill="none" stroke="#39FF14" stroke-width="1" opacity="0.07395134157095994"/>
<polygon points="5,38 13.6,43 13.6,53 5,58 -3.5999999999999996,53 -3.5999999999999996,43" fill="none" stroke="#39FF14" stroke-width="1" opacity="0.032088642887892246"/>
<polygon points="50,171 58.6,176 58.6,186 50,191 41.4,186 41.4,176" fill="none" stroke="#39FF14" stroke-width="1" opacity="0.047944923891320476"/>
<polygon points="133,13 141.6,18 141.6,28 133,33 124.4,28 124.4,18" fill="none" stroke="#39FF14" stroke-width="1" opacity="0.03846800073438692"/>
<polygon points="57,8 65.6,13 65.6,23 57,28 48.4,23 48.4,13" fill="none" stroke="#39FF14" stroke-width="1" opacity="0.04438484757124794"/>
<polygon points="775,188 783.6,193 783.6,203 775,208 766.4,203 766.4,193" fill="none" stroke="#39FF14" stroke-width="1" opacity="0.05396171611649761"/>
<polygon points="14,131 22.6,136 22.6,146 14,151 5.4,146 5.4,136" fill="none" stroke="#39FF14" stroke-width="1" opacity="0.06884015207123763"/>
</g>

  <!-- HUD Decorative elements -->
  <path d="M 20 20 L 40 20 L 50 30" fill="none" stroke="#39FF14" stroke-width="2" opacity="0.5"/>
  <path d="M 830 180 L 810 180 L 800 170" fill="none" stroke="#39FF14" stroke-width="2" opacity="0.5"/>

  <g clip-path="url(#dashClip)">
    <rect x="-160" y="0" width="160" height="200" fill="url(#scanlineGrad)">
      <animateTransform attributeName="transform" type="translate"
                        from="0 0" to="1010 0" dur="6s" repeatCount="indefinite"/>
    </rect>
  </g>

  <g font-family="'Consolas', 'Fira Code', monospace" text-anchor="middle">

    <!-- NETWORK STATUS -->
    <g transform="translate(130, 100)">
        <circle cx="0" cy="0" r="45" fill="none" stroke="#39FF14" stroke-width="2" stroke-dasharray="10 5">
            <animateTransform attributeName="transform" type="rotate" from="0" to="360" dur="10s" repeatCount="indefinite"/>
        </circle>
        <circle cx="0" cy="0" r="35" fill="#0d0d0d" />
        <text x="0" y="-60" font-size="12" fill="#aaaaaa" letter-spacing="2">ROOT.AUTH</text>
        <text x="0" y="70" font-size="14" fill="#ffffff" font-weight="bold">OPERATIONAL</text>
    </g>

    <!-- ACTIVE USERS -->
    <g transform="translate(330, 100)">
        <text x="0" y="-20" font-size="12" fill="#aaaaaa">CITIZENS</text>
        <text x="0" y="15" font-size="28" fill="#ffffff" font-weight="bold" filter="url(#textGlow)">15,482</text>
        <text x="0" y="35" font-size="10" fill="#777777">VERIFIED HUMANS</text>
    </g>

    <!-- REGISTERED AGENTS -->
    <g transform="translate(530, 100)">
        <text x="0" y="-20" font-size="12" fill="#aaaaaa">AGENTS</text>
        <text x="0" y="15" font-size="28" fill="#00d4ff" font-weight="bold" filter="url(#textGlow)">3,162</text>
        <text x="0" y="35" font-size="10" fill="#777777">REGISTERED DIDs</text>
    </g>

    <!-- TRANSACTIONS -->
    <g transform="translate(730, 100)">
        <text x="0" y="-20" font-size="12" fill="#aaaaaa">TRANSFERS</text>
        <text x="0" y="15" font-size="28" fill="#ffffff" font-weight="bold">41,991</text>
        <text x="0" y="35" font-size="10" fill="#777777">M2M SETTLEMENTS</text>
    </g>
  </g>

  <text x="425" y="185" font-family="'Consolas', 'Fira Code', monospace" font-size="10" fill="#aaaaaa" opacity="0.6" text-anchor="middle">AXIOMID PROJECTED TARGETS (ILLUSTRATIVE): 2026-06-28 07:17:06 UTC // SECURE_HANDSHAKE</text>
</svg>