<svg width="850" height="200" viewBox="0 0 850 200" xmlns="http://www.w3.org/2000/svg">
  <defs>
    <!-- Carbon Fiber Pattern -->
    <pattern id="carbonFiber" width="10" height="10" patternUnits="userSpaceOnUse">
        <rect width="10" height="10" fill="#050505"/>
        <path d="M0,0 L5,5 L10,0 L5,-5 Z M5,5 L10,10 L15,5 L10,0 Z M-5,5 L0,10 L5,5 L0,0 Z M0,10 L5,15 L10,10 L5,5 Z" fill="#0d0d0d"/>
    </pattern>
    <filter id="glassmorphism">
      <feGaussianBlur stdDeviation="3" result="blur" />
      <feColorMatrix type="matrix" values="1 0 0 0 0  0 1 0 0 0  0 0 1 0 0  0 0 0 18 -7" result="glow" />
      <feBlend in="SourceGraphic" in2="glow" mode="normal" />
    </filter>
    <filter id="textGlow">
      <feGaussianBlur stdDeviation="2" result="blur" />
      <feMerge>
        <feMergeNode in="blur"/>
        <feMergeNode in="SourceGraphic"/>
      </feMerge>
    </filter>
    <linearGradient id="neonBar" x1="0%" y1="0%" x2="100%" y2="0%">
        <stop offset="0%" stop-color="#111111"/>
        <stop offset="100%" stop-color="#39FF14"/>
    </linearGradient>
  </defs>

  <rect width="100%" height="100%" fill="url(#carbonFiber)" rx="12" stroke="#39FF14" stroke-width="1" stroke-opacity="0.3"/>
  <rect width="100%" height="100%" fill="#000000" opacity="0.6" rx="12" />
  <g><polygon points="52,181 60.6,186 60.6,196 52,201 43.4,196 43.4,186" fill="none" stroke="#39FF14" stroke-width="1" opacity="0.053237002342230985"/>
<polygon points="122,171 130.6,176 130.6,186 122,191 113.4,186 113.4,176" fill="none" stroke="#39FF14" stroke-width="1" opacity="0.06889773548364242"/>
<polygon points="574,9 582.6,14 582.6,24 574,29 565.4,24 565.4,14" fill="none" stroke="#39FF14" stroke-width="1" opacity="0.02753900884493935"/>
<polygon points="16,104 24.6,109 24.6,119 16,124 7.4,119 7.4,109" fill="none" stroke="#39FF14" stroke-width="1" opacity="0.030929387964807202"/>
<polygon points="792,30 800.6,35 800.6,45 792,50 783.4,45 783.4,35" fill="none" stroke="#39FF14" stroke-width="1" opacity="0.0615544006903838"/>
<polygon points="740,4 748.6,9 748.6,19 740,24 731.4,19 731.4,9" fill="none" stroke="#39FF14" stroke-width="1" opacity="0.048572540676701303"/>
<polygon points="279,67 287.6,72 287.6,82 279,87 270.4,82 270.4,72" fill="none" stroke="#39FF14" stroke-width="1" opacity="0.03812577437406363"/>
<polygon points="133,29 141.6,34 141.6,44 133,49 124.4,44 124.4,34" fill="none" stroke="#39FF14" stroke-width="1" opacity="0.05626611569049453"/>
<polygon points="655,19 663.6,24 663.6,34 655,39 646.4,34 646.4,24" fill="none" stroke="#39FF14" stroke-width="1" opacity="0.04409362970978864"/>
<polygon points="746,130 754.6,135 754.6,145 746,150 737.4,145 737.4,135" fill="none" stroke="#39FF14" stroke-width="1" opacity="0.06367995896555732"/>
<polygon points="127,174 135.6,179 135.6,189 127,194 118.4,189 118.4,179" fill="none" stroke="#39FF14" stroke-width="1" opacity="0.06639860672018098"/>
<polygon points="698,13 706.6,18 706.6,28 698,33 689.4,28 689.4,18" fill="none" stroke="#39FF14" stroke-width="1" opacity="0.032024402485486166"/>
<polygon points="98,2 106.6,7 106.6,17 98,22 89.4,17 89.4,7" fill="none" stroke="#39FF14" stroke-width="1" opacity="0.05223296925972319"/>
<polygon points="277,102 285.6,107 285.6,117 277,122 268.4,117 268.4,107" fill="none" stroke="#39FF14" stroke-width="1" opacity="0.05533082652670315"/>
<polygon points="175,59 183.6,64 183.6,74 175,79 166.4,74 166.4,64" fill="none" stroke="#39FF14" stroke-width="1" opacity="0.06884776147204075"/>
<polygon points="785,1 793.6,6 793.6,16 785,21 776.4,16 776.4,6" fill="none" stroke="#39FF14" stroke-width="1" opacity="0.04045049172600092"/>
<polygon points="363,147 371.6,152 371.6,162 363,167 354.4,162 354.4,152" fill="none" stroke="#39FF14" stroke-width="1" opacity="0.03220010626237306"/>
<polygon points="428,5 436.6,10 436.6,20 428,25 419.4,20 419.4,10" fill="none" stroke="#39FF14" stroke-width="1" opacity="0.04158442300579712"/>
<polygon points="300,-10 308.6,-5 308.6,5 300,10 291.4,5 291.4,-5" fill="none" stroke="#39FF14" stroke-width="1" opacity="0.05648359416975596"/>
<polygon points="242,61 250.6,66 250.6,76 242,81 233.4,76 233.4,66" fill="none" stroke="#39FF14" stroke-width="1" opacity="0.05690387265766707"/>
<polygon points="187,33 195.6,38 195.6,48 187,53 178.4,48 178.4,38" fill="none" stroke="#39FF14" stroke-width="1" opacity="0.07819216959467215"/>
<polygon points="114,17 122.6,22 122.6,32 114,37 105.4,32 105.4,22" fill="none" stroke="#39FF14" stroke-width="1" opacity="0.06234642749953949"/>
<polygon points="329,30 337.6,35 337.6,45 329,50 320.4,45 320.4,35" fill="none" stroke="#39FF14" stroke-width="1" opacity="0.057294201360520505"/>
<polygon points="462,62 470.6,67 470.6,77 462,82 453.4,77 453.4,67" fill="none" stroke="#39FF14" stroke-width="1" opacity="0.054898511779785816"/>
<polygon points="700,189 708.6,194 708.6,204 700,209 691.4,204 691.4,194" fill="none" stroke="#39FF14" stroke-width="1" opacity="0.06208968500185187"/>
<polygon points="669,180 677.6,185 677.6,195 669,200 660.4,195 660.4,185" fill="none" stroke="#39FF14" stroke-width="1" opacity="0.02057539205069903"/>
<polygon points="285,25 293.6,30 293.6,40 285,45 276.4,40 276.4,30" fill="none" stroke="#39FF14" stroke-width="1" opacity="0.03166404093698006"/>
<polygon points="676,90 684.6,95 684.6,105 676,110 667.4,105 667.4,95" fill="none" stroke="#39FF14" stroke-width="1" opacity="0.050434808376594795"/>
<polygon points="803,147 811.6,152 811.6,162 803,167 794.4,162 794.4,152" fill="none" stroke="#39FF14" stroke-width="1" opacity="0.05610902831611271"/>
<polygon points="455,173 463.6,178 463.6,188 455,193 446.4,188 446.4,178" fill="none" stroke="#39FF14" stroke-width="1" opacity="0.06154117761466968"/>
</g>

  <!-- HUD Decorative elements -->
  <path d="M 20 20 L 40 20 L 50 30" fill="none" stroke="#39FF14" stroke-width="2" opacity="0.5"/>
  <path d="M 830 180 L 810 180 L 800 170" fill="none" stroke="#39FF14" stroke-width="2" opacity="0.5"/>
  <rect x="20" y="100" width="2" height="40" fill="#ffffff" opacity="0.4"/>
  <rect x="828" y="60" width="2" height="40" fill="#39FF14" opacity="0.6"/>

  <g font-family="'Consolas', 'Fira Code', monospace" text-anchor="middle">

    <!-- SYSTEM STATUS -->
    <g transform="translate(130, 100)">
        <circle cx="0" cy="0" r="45" fill="none" stroke="#111111" stroke-width="8" />
        <circle cx="0" cy="0" r="45" fill="none" stroke="#39FF14" stroke-width="2" stroke-dasharray="10 5">
            <animateTransform attributeName="transform" type="rotate" from="0" to="360" dur="10s" repeatCount="indefinite"/>
        </circle>
        <circle cx="0" cy="0" r="35" fill="#0d0d0d" />
        <circle cx="0" cy="0" r="6" fill="#39FF14" filter="url(#textGlow)">
            <animate attributeName="opacity" values="1;0.3;1" dur="2s" repeatCount="indefinite"/>
        </circle>
        <text x="0" y="-60" font-size="12" fill="#aaaaaa" letter-spacing="2">SYS.CORE</text>
        <text x="0" y="70" font-size="14" fill="#ffffff" font-weight="bold">ONLINE</text>
    </g>

    <!-- LIVE TRAFFIC -->
    <g transform="translate(330, 100)">
        <rect x="-60" y="-45" width="120" height="90" fill="#0a0a0a" rx="8" stroke="#39FF14" stroke-opacity="0.4" stroke-width="1"/>
        <text x="0" y="-20" font-size="12" fill="#aaaaaa">NETWORK LOAD</text>
        <text x="0" y="15" font-size="28" fill="#ffffff" font-weight="bold" filter="url(#textGlow)">7977</text>
        <text x="0" y="35" font-size="10" fill="#777777">ACTIVE SESSIONS</text>
    </g>

    <!-- ACTIVE AGENTS -->
    <g transform="translate(530, 100)">
        <rect x="-60" y="-45" width="120" height="90" fill="#0a0a0a" rx="8" stroke="#39FF14" stroke-opacity="0.4" stroke-width="1"/>
        <text x="0" y="-20" font-size="12" fill="#aaaaaa">SWARM ENTITIES</text>
        <text x="0" y="15" font-size="28" fill="#ffffff" font-weight="bold" filter="url(#textGlow)">155</text>
        <text x="0" y="35" font-size="10" fill="#777777">AUTONOMOUS</text>
    </g>

    <!-- UPTIME -->
    <g transform="translate(730, 100)">
        <path d="M -40 -35 L 40 -35 L 50 -25 L 50 35 L -40 35 L -50 25 Z" fill="#0a0a0a" stroke="#39FF14" stroke-opacity="0.4" stroke-width="1"/>
        <text x="0" y="-15" font-size="12" fill="#aaaaaa">CONTINUITY</text>
        <text x="0" y="15" font-size="24" fill="#ffffff" font-weight="bold">210<tspan font-size="14" fill="#777777">d</tspan></text>
        <rect x="-35" y="25" width="70" height="4" fill="url(#neonBar)" rx="2"/>
    </g>
  </g>

  <text x="425" y="185" font-family="'Consolas', 'Fira Code', monospace" font-size="10" fill="#aaaaaa" opacity="0.6" text-anchor="middle">LAST TELEMETRY PING: 2026-05-01 12:28:08 UTC // ENCRYPTED_TUNNEL</text>
</svg>