<svg width="850" height="200" viewBox="0 0 850 200" xmlns="http://www.w3.org/2000/svg">
  <defs>
    <!-- Carbon Fiber Pattern -->
    <pattern id="carbonFiber" width="10" height="10" patternUnits="userSpaceOnUse">
        <rect width="10" height="10" fill="#050505"/>
        <path d="M0,0 L5,5 L10,0 L5,-5 Z M5,5 L10,10 L15,5 L10,0 Z M-5,5 L0,10 L5,5 L0,0 Z M0,10 L5,15 L10,10 L5,5 Z" fill="#0d0d0d"/>
    </pattern>
    <filter id="glassmorphism">
      <feGaussianBlur stdDeviation="3" result="blur" />
      <feColorMatrix type="matrix" values="1 0 0 0 0  0 1 0 0 0  0 0 1 0 0  0 0 0 18 -7" result="glow" />
      <feBlend in="SourceGraphic" in2="glow" mode="normal" />
    </filter>
    <filter id="textGlow">
      <feGaussianBlur stdDeviation="2" result="blur" />
      <feMerge>
        <feMergeNode in="blur"/>
        <feMergeNode in="SourceGraphic"/>
      </feMerge>
    </filter>
    <linearGradient id="neonBar" x1="0%" y1="0%" x2="100%" y2="0%">
        <stop offset="0%" stop-color="#111111"/>
        <stop offset="100%" stop-color="#39FF14"/>
    </linearGradient>
  </defs>

  <rect width="100%" height="100%" fill="url(#carbonFiber)" rx="12" stroke="#39FF14" stroke-width="1" stroke-opacity="0.3"/>
  <rect width="100%" height="100%" fill="#000000" opacity="0.6" rx="12" />
  <g><polygon points="300,105 308.6,110 308.6,120 300,125 291.4,120 291.4,110" fill="none" stroke="#39FF14" stroke-width="1" opacity="0.048272706348507485"/>
<polygon points="593,138 601.6,143 601.6,153 593,158 584.4,153 584.4,143" fill="none" stroke="#39FF14" stroke-width="1" opacity="0.07798599279245677"/>
<polygon points="19,8 27.6,13 27.6,23 19,28 10.4,23 10.4,13" fill="none" stroke="#39FF14" stroke-width="1" opacity="0.0579274149794293"/>
<polygon points="349,50 357.6,55 357.6,65 349,70 340.4,65 340.4,55" fill="none" stroke="#39FF14" stroke-width="1" opacity="0.05298512811174254"/>
<polygon points="655,16 663.6,21 663.6,31 655,36 646.4,31 646.4,21" fill="none" stroke="#39FF14" stroke-width="1" opacity="0.04657043240355571"/>
<polygon points="102,162 110.6,167 110.6,177 102,182 93.4,177 93.4,167" fill="none" stroke="#39FF14" stroke-width="1" opacity="0.0279696437206733"/>
<polygon points="244,129 252.6,134 252.6,144 244,149 235.4,144 235.4,134" fill="none" stroke="#39FF14" stroke-width="1" opacity="0.055254272096966525"/>
<polygon points="775,94 783.6,99 783.6,109 775,114 766.4,109 766.4,99" fill="none" stroke="#39FF14" stroke-width="1" opacity="0.03263353780725914"/>
<polygon points="705,112 713.6,117 713.6,127 705,132 696.4,127 696.4,117" fill="none" stroke="#39FF14" stroke-width="1" opacity="0.03682359384825626"/>
<polygon points="524,118 532.6,123 532.6,133 524,138 515.4,133 515.4,123" fill="none" stroke="#39FF14" stroke-width="1" opacity="0.06947946279635034"/>
<polygon points="579,126 587.6,131 587.6,141 579,146 570.4,141 570.4,131" fill="none" stroke="#39FF14" stroke-width="1" opacity="0.036690287838388555"/>
<polygon points="233,187 241.6,192 241.6,202 233,207 224.4,202 224.4,192" fill="none" stroke="#39FF14" stroke-width="1" opacity="0.027720485447954323"/>
<polygon points="248,83 256.6,88 256.6,98 248,103 239.4,98 239.4,88" fill="none" stroke="#39FF14" stroke-width="1" opacity="0.07054119671280958"/>
<polygon points="542,172 550.6,177 550.6,187 542,192 533.4,187 533.4,177" fill="none" stroke="#39FF14" stroke-width="1" opacity="0.07522969471003658"/>
<polygon points="435,38 443.6,43 443.6,53 435,58 426.4,53 426.4,43" fill="none" stroke="#39FF14" stroke-width="1" opacity="0.05556747167586734"/>
<polygon points="807,114 815.6,119 815.6,129 807,134 798.4,129 798.4,119" fill="none" stroke="#39FF14" stroke-width="1" opacity="0.06880576545022053"/>
<polygon points="587,151 595.6,156 595.6,166 587,171 578.4,166 578.4,156" fill="none" stroke="#39FF14" stroke-width="1" opacity="0.05709693900533036"/>
<polygon points="175,75 183.6,80 183.6,90 175,95 166.4,90 166.4,80" fill="none" stroke="#39FF14" stroke-width="1" opacity="0.020691757061740996"/>
<polygon points="777,62 785.6,67 785.6,77 777,82 768.4,77 768.4,67" fill="none" stroke="#39FF14" stroke-width="1" opacity="0.0236085778408564"/>
<polygon points="33,95 41.6,100 41.6,110 33,115 24.4,110 24.4,100" fill="none" stroke="#39FF14" stroke-width="1" opacity="0.03325153886196428"/>
<polygon points="163,104 171.6,109 171.6,119 163,124 154.4,119 154.4,109" fill="none" stroke="#39FF14" stroke-width="1" opacity="0.0559627637871362"/>
<polygon points="701,76 709.6,81 709.6,91 701,96 692.4,91 692.4,81" fill="none" stroke="#39FF14" stroke-width="1" opacity="0.02546709720875711"/>
<polygon points="427,4 435.6,9 435.6,19 427,24 418.4,19 418.4,9" fill="none" stroke="#39FF14" stroke-width="1" opacity="0.04964753938731655"/>
<polygon points="445,-5 453.6,0 453.6,10 445,15 436.4,10 436.4,0" fill="none" stroke="#39FF14" stroke-width="1" opacity="0.0675872797607603"/>
<polygon points="646,15 654.6,20 654.6,30 646,35 637.4,30 637.4,20" fill="none" stroke="#39FF14" stroke-width="1" opacity="0.030500649070146053"/>
<polygon points="415,38 423.6,43 423.6,53 415,58 406.4,53 406.4,43" fill="none" stroke="#39FF14" stroke-width="1" opacity="0.03134705558821822"/>
<polygon points="267,146 275.6,151 275.6,161 267,166 258.4,161 258.4,151" fill="none" stroke="#39FF14" stroke-width="1" opacity="0.05487656486892609"/>
<polygon points="173,51 181.6,56 181.6,66 173,71 164.4,66 164.4,56" fill="none" stroke="#39FF14" stroke-width="1" opacity="0.056256542147132646"/>
<polygon points="520,170 528.6,175 528.6,185 520,190 511.4,185 511.4,175" fill="none" stroke="#39FF14" stroke-width="1" opacity="0.024833800000125826"/>
<polygon points="227,35 235.6,40 235.6,50 227,55 218.4,50 218.4,40" fill="none" stroke="#39FF14" stroke-width="1" opacity="0.07341280983573487"/>
</g>

  <!-- HUD Decorative elements -->
  <path d="M 20 20 L 40 20 L 50 30" fill="none" stroke="#39FF14" stroke-width="2" opacity="0.5"/>
  <path d="M 830 180 L 810 180 L 800 170" fill="none" stroke="#39FF14" stroke-width="2" opacity="0.5"/>
  <rect x="20" y="100" width="2" height="40" fill="#ffffff" opacity="0.4"/>
  <rect x="828" y="60" width="2" height="40" fill="#39FF14" opacity="0.6"/>

  <g font-family="'Consolas', 'Fira Code', monospace" text-anchor="middle">

    <!-- SYSTEM STATUS -->
    <g transform="translate(130, 100)">
        <circle cx="0" cy="0" r="45" fill="none" stroke="#111111" stroke-width="8" />
        <circle cx="0" cy="0" r="45" fill="none" stroke="#39FF14" stroke-width="2" stroke-dasharray="10 5">
            <animateTransform attributeName="transform" type="rotate" from="0" to="360" dur="10s" repeatCount="indefinite"/>
        </circle>
        <circle cx="0" cy="0" r="35" fill="#0d0d0d" />
        <circle cx="0" cy="0" r="6" fill="#39FF14" filter="url(#textGlow)">
            <animate attributeName="opacity" values="1;0.3;1" dur="2s" repeatCount="indefinite"/>
        </circle>
        <text x="0" y="-60" font-size="12" fill="#aaaaaa" letter-spacing="2">SYS.CORE</text>
        <text x="0" y="70" font-size="14" fill="#ffffff" font-weight="bold">ONLINE</text>
    </g>

    <!-- LIVE TRAFFIC -->
    <g transform="translate(330, 100)">
        <rect x="-60" y="-45" width="120" height="90" fill="#0a0a0a" rx="8" stroke="#39FF14" stroke-opacity="0.4" stroke-width="1"/>
        <text x="0" y="-20" font-size="12" fill="#aaaaaa">NETWORK LOAD</text>
        <text x="0" y="15" font-size="28" fill="#ffffff" font-weight="bold" filter="url(#textGlow)">3824</text>
        <text x="0" y="35" font-size="10" fill="#777777">ACTIVE SESSIONS</text>
    </g>

    <!-- ACTIVE AGENTS -->
    <g transform="translate(530, 100)">
        <rect x="-60" y="-45" width="120" height="90" fill="#0a0a0a" rx="8" stroke="#39FF14" stroke-opacity="0.4" stroke-width="1"/>
        <text x="0" y="-20" font-size="12" fill="#aaaaaa">SWARM ENTITIES</text>
        <text x="0" y="15" font-size="28" fill="#ffffff" font-weight="bold" filter="url(#textGlow)">149</text>
        <text x="0" y="35" font-size="10" fill="#777777">AUTONOMOUS</text>
    </g>

    <!-- UPTIME -->
    <g transform="translate(730, 100)">
        <path d="M -40 -35 L 40 -35 L 50 -25 L 50 35 L -40 35 L -50 25 Z" fill="#0a0a0a" stroke="#39FF14" stroke-opacity="0.4" stroke-width="1"/>
        <text x="0" y="-15" font-size="12" fill="#aaaaaa">CONTINUITY</text>
        <text x="0" y="15" font-size="24" fill="#ffffff" font-weight="bold">358<tspan font-size="14" fill="#777777">d</tspan></text>
        <rect x="-35" y="25" width="70" height="4" fill="url(#neonBar)" rx="2"/>
    </g>
  </g>

  <text x="425" y="185" font-family="'Consolas', 'Fira Code', monospace" font-size="10" fill="#aaaaaa" opacity="0.6" text-anchor="middle">LAST TELEMETRY PING: 2026-04-27 18:34:29 UTC // ENCRYPTED_TUNNEL</text>
</svg>