<svg width="850" height="200" viewBox="0 0 850 200" xmlns="http://www.w3.org/2000/svg">
  <defs>
    <pattern id="carbonFiber" width="10" height="10" patternUnits="userSpaceOnUse">
        <rect width="10" height="10" fill="#050505"/>
        <path d="M0,0 L5,5 L10,0 L5,-5 Z M5,5 L10,10 L15,5 L10,0 Z M-5,5 L0,10 L5,5 L0,0 Z M0,10 L5,15 L10,10 L5,5 Z" fill="#0d0d0d"/>
    </pattern>
    <filter id="textGlow">
      <feGaussianBlur stdDeviation="2" result="blur" />
      <feMerge>
        <feMergeNode in="blur"/>
        <feMergeNode in="SourceGraphic"/>
      </feMerge>
    </filter>
    <linearGradient id="neonBar" x1="0%" y1="0%" x2="100%" y2="0%">
        <stop offset="0%" stop-color="#111111"/>
        <stop offset="100%" stop-color="#39FF14"/>
    </linearGradient>
    <linearGradient id="scanlineGrad" x1="0%" y1="0%" x2="100%" y2="0%">
        <stop offset="0%" stop-color="#39FF14" stop-opacity="0"/>
        <stop offset="50%" stop-color="#39FF14" stop-opacity="0.18"/>
        <stop offset="100%" stop-color="#39FF14" stop-opacity="0"/>
    </linearGradient>
    <clipPath id="dashClip">
        <rect x="0" y="0" width="850" height="200" rx="12"/>
    </clipPath>
  </defs>

  <rect width="100%" height="100%" fill="url(#carbonFiber)" rx="12" stroke="#39FF14" stroke-width="1" stroke-opacity="0.3"/>
  <rect width="100%" height="100%" fill="#000000" opacity="0.6" rx="12" />
  <g><polygon points="131,24 139.6,29 139.6,39 131,44 122.4,39 122.4,29" fill="none" stroke="#39FF14" stroke-width="1" opacity="0.04831904440134628"/>
<polygon points="547,32 555.6,37 555.6,47 547,52 538.4,47 538.4,37" fill="none" stroke="#39FF14" stroke-width="1" opacity="0.07034794358928563"/>
<polygon points="634,40 642.6,45 642.6,55 634,60 625.4,55 625.4,45" fill="none" stroke="#39FF14" stroke-width="1" opacity="0.06106622952929866"/>
<polygon points="532,95 540.6,100 540.6,110 532,115 523.4,110 523.4,100" fill="none" stroke="#39FF14" stroke-width="1" opacity="0.03988679413173214"/>
<polygon points="196,128 204.6,133 204.6,143 196,148 187.4,143 187.4,133" fill="none" stroke="#39FF14" stroke-width="1" opacity="0.03174237184691335"/>
<polygon points="511,152 519.6,157 519.6,167 511,172 502.4,167 502.4,157" fill="none" stroke="#39FF14" stroke-width="1" opacity="0.051835754593684044"/>
<polygon points="494,110 502.6,115 502.6,125 494,130 485.4,125 485.4,115" fill="none" stroke="#39FF14" stroke-width="1" opacity="0.04539691208854125"/>
<polygon points="311,138 319.6,143 319.6,153 311,158 302.4,153 302.4,143" fill="none" stroke="#39FF14" stroke-width="1" opacity="0.05690201452586244"/>
<polygon points="217,11 225.6,16 225.6,26 217,31 208.4,26 208.4,16" fill="none" stroke="#39FF14" stroke-width="1" opacity="0.05500998995617748"/>
<polygon points="4,11 12.6,16 12.6,26 4,31 -4.6,26 -4.6,16" fill="none" stroke="#39FF14" stroke-width="1" opacity="0.056260078522057916"/>
<polygon points="642,146 650.6,151 650.6,161 642,166 633.4,161 633.4,151" fill="none" stroke="#39FF14" stroke-width="1" opacity="0.053829579932033425"/>
<polygon points="195,68 203.6,73 203.6,83 195,88 186.4,83 186.4,73" fill="none" stroke="#39FF14" stroke-width="1" opacity="0.06709973999810812"/>
<polygon points="461,109 469.6,114 469.6,124 461,129 452.4,124 452.4,114" fill="none" stroke="#39FF14" stroke-width="1" opacity="0.0723852263233319"/>
<polygon points="272,108 280.6,113 280.6,123 272,128 263.4,123 263.4,113" fill="none" stroke="#39FF14" stroke-width="1" opacity="0.04887706427903803"/>
<polygon points="809,90 817.6,95 817.6,105 809,110 800.4,105 800.4,95" fill="none" stroke="#39FF14" stroke-width="1" opacity="0.028316801401840327"/>
<polygon points="615,134 623.6,139 623.6,149 615,154 606.4,149 606.4,139" fill="none" stroke="#39FF14" stroke-width="1" opacity="0.049986159391826365"/>
<polygon points="463,124 471.6,129 471.6,139 463,144 454.4,139 454.4,129" fill="none" stroke="#39FF14" stroke-width="1" opacity="0.04830148139069787"/>
<polygon points="843,20 851.6,25 851.6,35 843,40 834.4,35 834.4,25" fill="none" stroke="#39FF14" stroke-width="1" opacity="0.02018247532120902"/>
<polygon points="408,26 416.6,31 416.6,41 408,46 399.4,41 399.4,31" fill="none" stroke="#39FF14" stroke-width="1" opacity="0.07911120203108403"/>
<polygon points="354,131 362.6,136 362.6,146 354,151 345.4,146 345.4,136" fill="none" stroke="#39FF14" stroke-width="1" opacity="0.036939751384387445"/>
<polygon points="724,31 732.6,36 732.6,46 724,51 715.4,46 715.4,36" fill="none" stroke="#39FF14" stroke-width="1" opacity="0.06151526768776468"/>
<polygon points="347,189 355.6,194 355.6,204 347,209 338.4,204 338.4,194" fill="none" stroke="#39FF14" stroke-width="1" opacity="0.03081209754411426"/>
<polygon points="217,78 225.6,83 225.6,93 217,98 208.4,93 208.4,83" fill="none" stroke="#39FF14" stroke-width="1" opacity="0.058905164801221724"/>
<polygon points="606,56 614.6,61 614.6,71 606,76 597.4,71 597.4,61" fill="none" stroke="#39FF14" stroke-width="1" opacity="0.02153275194970685"/>
<polygon points="554,171 562.6,176 562.6,186 554,191 545.4,186 545.4,176" fill="none" stroke="#39FF14" stroke-width="1" opacity="0.02852172923002877"/>
<polygon points="473,78 481.6,83 481.6,93 473,98 464.4,93 464.4,83" fill="none" stroke="#39FF14" stroke-width="1" opacity="0.022219140996798357"/>
<polygon points="631,118 639.6,123 639.6,133 631,138 622.4,133 622.4,123" fill="none" stroke="#39FF14" stroke-width="1" opacity="0.03151745088175438"/>
<polygon points="414,95 422.6,100 422.6,110 414,115 405.4,110 405.4,100" fill="none" stroke="#39FF14" stroke-width="1" opacity="0.0702181784124989"/>
<polygon points="327,127 335.6,132 335.6,142 327,147 318.4,142 318.4,132" fill="none" stroke="#39FF14" stroke-width="1" opacity="0.058586412637090315"/>
<polygon points="46,107 54.6,112 54.6,122 46,127 37.4,122 37.4,112" fill="none" stroke="#39FF14" stroke-width="1" opacity="0.07491237540854"/>
</g>

  <!-- HUD Decorative elements -->
  <path d="M 20 20 L 40 20 L 50 30" fill="none" stroke="#39FF14" stroke-width="2" opacity="0.5"/>
  <path d="M 830 180 L 810 180 L 800 170" fill="none" stroke="#39FF14" stroke-width="2" opacity="0.5"/>

  <g clip-path="url(#dashClip)">
    <rect x="-160" y="0" width="160" height="200" fill="url(#scanlineGrad)">
      <animateTransform attributeName="transform" type="translate"
                        from="0 0" to="1010 0" dur="6s" repeatCount="indefinite"/>
    </rect>
  </g>

  <g font-family="'Consolas', 'Fira Code', monospace" text-anchor="middle">

    <!-- NETWORK STATUS -->
    <g transform="translate(130, 100)">
        <circle cx="0" cy="0" r="45" fill="none" stroke="#39FF14" stroke-width="2" stroke-dasharray="10 5">
            <animateTransform attributeName="transform" type="rotate" from="0" to="360" dur="10s" repeatCount="indefinite"/>
        </circle>
        <circle cx="0" cy="0" r="35" fill="#0d0d0d" />
        <text x="0" y="-60" font-size="12" fill="#aaaaaa" letter-spacing="2">ROOT.AUTH</text>
        <text x="0" y="70" font-size="14" fill="#ffffff" font-weight="bold">OPERATIONAL</text>
    </g>

    <!-- ACTIVE USERS -->
    <g transform="translate(330, 100)">
        <text x="0" y="-20" font-size="12" fill="#aaaaaa">CITIZENS</text>
        <text x="0" y="15" font-size="28" fill="#ffffff" font-weight="bold" filter="url(#textGlow)">14,452</text>
        <text x="0" y="35" font-size="10" fill="#777777">VERIFIED HUMANS</text>
    </g>

    <!-- REGISTERED AGENTS -->
    <g transform="translate(530, 100)">
        <text x="0" y="-20" font-size="12" fill="#aaaaaa">AGENTS</text>
        <text x="0" y="15" font-size="28" fill="#00d4ff" font-weight="bold" filter="url(#textGlow)">3,182</text>
        <text x="0" y="35" font-size="10" fill="#777777">REGISTERED DIDs</text>
    </g>

    <!-- TRANSACTIONS -->
    <g transform="translate(730, 100)">
        <text x="0" y="-20" font-size="12" fill="#aaaaaa">TRANSFERS</text>
        <text x="0" y="15" font-size="28" fill="#ffffff" font-weight="bold">31,521</text>
        <text x="0" y="35" font-size="10" fill="#777777">M2M SETTLEMENTS</text>
    </g>
  </g>

  <text x="425" y="185" font-family="'Consolas', 'Fira Code', monospace" font-size="10" fill="#aaaaaa" opacity="0.6" text-anchor="middle">AXIOMID PROJECTED TARGETS (ILLUSTRATIVE): 2026-07-03 19:01:49 UTC // SECURE_HANDSHAKE</text>
</svg>