<svg width="850" height="200" viewBox="0 0 850 200" xmlns="http://www.w3.org/2000/svg">
  <defs>
    <pattern id="carbonFiber" width="10" height="10" patternUnits="userSpaceOnUse">
        <rect width="10" height="10" fill="#050505"/>
        <path d="M0,0 L5,5 L10,0 L5,-5 Z M5,5 L10,10 L15,5 L10,0 Z M-5,5 L0,10 L5,5 L0,0 Z M0,10 L5,15 L10,10 L5,5 Z" fill="#0d0d0d"/>
    </pattern>
    <filter id="textGlow">
      <feGaussianBlur stdDeviation="2" result="blur" />
      <feMerge>
        <feMergeNode in="blur"/>
        <feMergeNode in="SourceGraphic"/>
      </feMerge>
    </filter>
    <linearGradient id="neonBar" x1="0%" y1="0%" x2="100%" y2="0%">
        <stop offset="0%" stop-color="#111111"/>
        <stop offset="100%" stop-color="#39FF14"/>
    </linearGradient>
    <linearGradient id="scanlineGrad" x1="0%" y1="0%" x2="100%" y2="0%">
        <stop offset="0%" stop-color="#39FF14" stop-opacity="0"/>
        <stop offset="50%" stop-color="#39FF14" stop-opacity="0.18"/>
        <stop offset="100%" stop-color="#39FF14" stop-opacity="0"/>
    </linearGradient>
    <clipPath id="dashClip">
        <rect x="0" y="0" width="850" height="200" rx="12"/>
    </clipPath>
  </defs>

  <rect width="100%" height="100%" fill="url(#carbonFiber)" rx="12" stroke="#39FF14" stroke-width="1" stroke-opacity="0.3"/>
  <rect width="100%" height="100%" fill="#000000" opacity="0.6" rx="12" />
  <g><polygon points="617,30 625.6,35 625.6,45 617,50 608.4,45 608.4,35" fill="none" stroke="#39FF14" stroke-width="1" opacity="0.02997182195816156"/>
<polygon points="746,150 754.6,155 754.6,165 746,170 737.4,165 737.4,155" fill="none" stroke="#39FF14" stroke-width="1" opacity="0.030738103798809042"/>
<polygon points="69,90 77.6,95 77.6,105 69,110 60.4,105 60.4,95" fill="none" stroke="#39FF14" stroke-width="1" opacity="0.02373804372816494"/>
<polygon points="513,166 521.6,171 521.6,181 513,186 504.4,181 504.4,171" fill="none" stroke="#39FF14" stroke-width="1" opacity="0.042116089641774976"/>
<polygon points="520,115 528.6,120 528.6,130 520,135 511.4,130 511.4,120" fill="none" stroke="#39FF14" stroke-width="1" opacity="0.03767694684936462"/>
<polygon points="792,103 800.6,108 800.6,118 792,123 783.4,118 783.4,108" fill="none" stroke="#39FF14" stroke-width="1" opacity="0.07908077608406107"/>
<polygon points="369,150 377.6,155 377.6,165 369,170 360.4,165 360.4,155" fill="none" stroke="#39FF14" stroke-width="1" opacity="0.07544708366541038"/>
<polygon points="761,5 769.6,10 769.6,20 761,25 752.4,20 752.4,10" fill="none" stroke="#39FF14" stroke-width="1" opacity="0.05135368527839283"/>
<polygon points="139,166 147.6,171 147.6,181 139,186 130.4,181 130.4,171" fill="none" stroke="#39FF14" stroke-width="1" opacity="0.05184990172456723"/>
<polygon points="268,154 276.6,159 276.6,169 268,174 259.4,169 259.4,159" fill="none" stroke="#39FF14" stroke-width="1" opacity="0.0441664006649969"/>
<polygon points="323,24 331.6,29 331.6,39 323,44 314.4,39 314.4,29" fill="none" stroke="#39FF14" stroke-width="1" opacity="0.07033698964299247"/>
<polygon points="190,122 198.6,127 198.6,137 190,142 181.4,137 181.4,127" fill="none" stroke="#39FF14" stroke-width="1" opacity="0.03013059380644937"/>
<polygon points="413,0 421.6,5 421.6,15 413,20 404.4,15 404.4,5" fill="none" stroke="#39FF14" stroke-width="1" opacity="0.041221948113879"/>
<polygon points="596,104 604.6,109 604.6,119 596,124 587.4,119 587.4,109" fill="none" stroke="#39FF14" stroke-width="1" opacity="0.021373275682492518"/>
<polygon points="85,147 93.6,152 93.6,162 85,167 76.4,162 76.4,152" fill="none" stroke="#39FF14" stroke-width="1" opacity="0.07242548186922745"/>
<polygon points="325,151 333.6,156 333.6,166 325,171 316.4,166 316.4,156" fill="none" stroke="#39FF14" stroke-width="1" opacity="0.06654567023856794"/>
<polygon points="357,13 365.6,18 365.6,28 357,33 348.4,28 348.4,18" fill="none" stroke="#39FF14" stroke-width="1" opacity="0.026972832023350983"/>
<polygon points="800,-10 808.6,-5 808.6,5 800,10 791.4,5 791.4,-5" fill="none" stroke="#39FF14" stroke-width="1" opacity="0.03594442912973185"/>
<polygon points="32,-9 40.6,-4 40.6,6 32,11 23.4,6 23.4,-4" fill="none" stroke="#39FF14" stroke-width="1" opacity="0.031035611243643464"/>
<polygon points="241,179 249.6,184 249.6,194 241,199 232.4,194 232.4,184" fill="none" stroke="#39FF14" stroke-width="1" opacity="0.07485125934416605"/>
<polygon points="754,14 762.6,19 762.6,29 754,34 745.4,29 745.4,19" fill="none" stroke="#39FF14" stroke-width="1" opacity="0.0758896000420638"/>
<polygon points="251,143 259.6,148 259.6,158 251,163 242.4,158 242.4,148" fill="none" stroke="#39FF14" stroke-width="1" opacity="0.04251413771023809"/>
<polygon points="668,26 676.6,31 676.6,41 668,46 659.4,41 659.4,31" fill="none" stroke="#39FF14" stroke-width="1" opacity="0.049367361405321365"/>
<polygon points="444,-7 452.6,-2 452.6,8 444,13 435.4,8 435.4,-2" fill="none" stroke="#39FF14" stroke-width="1" opacity="0.05918123981873401"/>
<polygon points="284,24 292.6,29 292.6,39 284,44 275.4,39 275.4,29" fill="none" stroke="#39FF14" stroke-width="1" opacity="0.053085784010364026"/>
<polygon points="246,32 254.6,37 254.6,47 246,52 237.4,47 237.4,37" fill="none" stroke="#39FF14" stroke-width="1" opacity="0.045020819235266886"/>
<polygon points="342,13 350.6,18 350.6,28 342,33 333.4,28 333.4,18" fill="none" stroke="#39FF14" stroke-width="1" opacity="0.022576411306284988"/>
<polygon points="156,21 164.6,26 164.6,36 156,41 147.4,36 147.4,26" fill="none" stroke="#39FF14" stroke-width="1" opacity="0.043978815025286444"/>
<polygon points="767,102 775.6,107 775.6,117 767,122 758.4,117 758.4,107" fill="none" stroke="#39FF14" stroke-width="1" opacity="0.04871868869540843"/>
<polygon points="714,12 722.6,17 722.6,27 714,32 705.4,27 705.4,17" fill="none" stroke="#39FF14" stroke-width="1" opacity="0.040737682997996474"/>
</g>

  <!-- HUD Decorative elements -->
  <path d="M 20 20 L 40 20 L 50 30" fill="none" stroke="#39FF14" stroke-width="2" opacity="0.5"/>
  <path d="M 830 180 L 810 180 L 800 170" fill="none" stroke="#39FF14" stroke-width="2" opacity="0.5"/>

  <g clip-path="url(#dashClip)">
    <rect x="-160" y="0" width="160" height="200" fill="url(#scanlineGrad)">
      <animateTransform attributeName="transform" type="translate"
                        from="0 0" to="1010 0" dur="6s" repeatCount="indefinite"/>
    </rect>
  </g>

  <g font-family="'Consolas', 'Fira Code', monospace" text-anchor="middle">

    <!-- NETWORK STATUS -->
    <g transform="translate(130, 100)">
        <circle cx="0" cy="0" r="45" fill="none" stroke="#39FF14" stroke-width="2" stroke-dasharray="10 5">
            <animateTransform attributeName="transform" type="rotate" from="0" to="360" dur="10s" repeatCount="indefinite"/>
        </circle>
        <circle cx="0" cy="0" r="35" fill="#0d0d0d" />
        <text x="0" y="-60" font-size="12" fill="#aaaaaa" letter-spacing="2">ROOT.AUTH</text>
        <text x="0" y="70" font-size="14" fill="#ffffff" font-weight="bold">OPERATIONAL</text>
    </g>

    <!-- ACTIVE USERS -->
    <g transform="translate(330, 100)">
        <text x="0" y="-20" font-size="12" fill="#aaaaaa">CITIZENS</text>
        <text x="0" y="15" font-size="28" fill="#ffffff" font-weight="bold" filter="url(#textGlow)">14,403</text>
        <text x="0" y="35" font-size="10" fill="#777777">VERIFIED HUMANS</text>
    </g>

    <!-- REGISTERED AGENTS -->
    <g transform="translate(530, 100)">
        <text x="0" y="-20" font-size="12" fill="#aaaaaa">AGENTS</text>
        <text x="0" y="15" font-size="28" fill="#00d4ff" font-weight="bold" filter="url(#textGlow)">3,383</text>
        <text x="0" y="35" font-size="10" fill="#777777">REGISTERED DIDs</text>
    </g>

    <!-- TRANSACTIONS -->
    <g transform="translate(730, 100)">
        <text x="0" y="-20" font-size="12" fill="#aaaaaa">TRANSFERS</text>
        <text x="0" y="15" font-size="28" fill="#ffffff" font-weight="bold">30,344</text>
        <text x="0" y="35" font-size="10" fill="#777777">M2M SETTLEMENTS</text>
    </g>
  </g>

  <text x="425" y="185" font-family="'Consolas', 'Fira Code', monospace" font-size="10" fill="#aaaaaa" opacity="0.6" text-anchor="middle">AXIOMID PROJECTED TARGETS (ILLUSTRATIVE): 2026-07-24 01:47:58 UTC // SECURE_HANDSHAKE</text>
</svg>