<svg width="850" height="200" viewBox="0 0 850 200" xmlns="http://www.w3.org/2000/svg">
  <defs>
    <pattern id="carbonFiber" width="10" height="10" patternUnits="userSpaceOnUse">
        <rect width="10" height="10" fill="#050505"/>
        <path d="M0,0 L5,5 L10,0 L5,-5 Z M5,5 L10,10 L15,5 L10,0 Z M-5,5 L0,10 L5,5 L0,0 Z M0,10 L5,15 L10,10 L5,5 Z" fill="#0d0d0d"/>
    </pattern>
    <filter id="textGlow">
      <feGaussianBlur stdDeviation="2" result="blur" />
      <feMerge>
        <feMergeNode in="blur"/>
        <feMergeNode in="SourceGraphic"/>
      </feMerge>
    </filter>
    <linearGradient id="neonBar" x1="0%" y1="0%" x2="100%" y2="0%">
        <stop offset="0%" stop-color="#111111"/>
        <stop offset="100%" stop-color="#39FF14"/>
    </linearGradient>
    <linearGradient id="scanlineGrad" x1="0%" y1="0%" x2="100%" y2="0%">
        <stop offset="0%" stop-color="#39FF14" stop-opacity="0"/>
        <stop offset="50%" stop-color="#39FF14" stop-opacity="0.18"/>
        <stop offset="100%" stop-color="#39FF14" stop-opacity="0"/>
    </linearGradient>
    <clipPath id="dashClip">
        <rect x="0" y="0" width="850" height="200" rx="12"/>
    </clipPath>
  </defs>

  <rect width="100%" height="100%" fill="url(#carbonFiber)" rx="12" stroke="#39FF14" stroke-width="1" stroke-opacity="0.3"/>
  <rect width="100%" height="100%" fill="#000000" opacity="0.6" rx="12" />
  <g><polygon points="526,65 534.6,70 534.6,80 526,85 517.4,80 517.4,70" fill="none" stroke="#39FF14" stroke-width="1" opacity="0.056528179610570134"/>
<polygon points="563,151 571.6,156 571.6,166 563,171 554.4,166 554.4,156" fill="none" stroke="#39FF14" stroke-width="1" opacity="0.027649713156688994"/>
<polygon points="536,170 544.6,175 544.6,185 536,190 527.4,185 527.4,175" fill="none" stroke="#39FF14" stroke-width="1" opacity="0.0794084357209895"/>
<polygon points="846,19 854.6,24 854.6,34 846,39 837.4,34 837.4,24" fill="none" stroke="#39FF14" stroke-width="1" opacity="0.05378616324972113"/>
<polygon points="88,105 96.6,110 96.6,120 88,125 79.4,120 79.4,110" fill="none" stroke="#39FF14" stroke-width="1" opacity="0.0566465634181985"/>
<polygon points="128,61 136.6,66 136.6,76 128,81 119.4,76 119.4,66" fill="none" stroke="#39FF14" stroke-width="1" opacity="0.07302183325237077"/>
<polygon points="253,100 261.6,105 261.6,115 253,120 244.4,115 244.4,105" fill="none" stroke="#39FF14" stroke-width="1" opacity="0.0781135575915307"/>
<polygon points="262,112 270.6,117 270.6,127 262,132 253.4,127 253.4,117" fill="none" stroke="#39FF14" stroke-width="1" opacity="0.0381387669345809"/>
<polygon points="300,-1 308.6,4 308.6,14 300,19 291.4,14 291.4,4" fill="none" stroke="#39FF14" stroke-width="1" opacity="0.03241210544572135"/>
<polygon points="536,113 544.6,118 544.6,128 536,133 527.4,128 527.4,118" fill="none" stroke="#39FF14" stroke-width="1" opacity="0.04122641075676076"/>
<polygon points="831,74 839.6,79 839.6,89 831,94 822.4,89 822.4,79" fill="none" stroke="#39FF14" stroke-width="1" opacity="0.05359206548943246"/>
<polygon points="721,136 729.6,141 729.6,151 721,156 712.4,151 712.4,141" fill="none" stroke="#39FF14" stroke-width="1" opacity="0.02845819768035592"/>
<polygon points="786,63 794.6,68 794.6,78 786,83 777.4,78 777.4,68" fill="none" stroke="#39FF14" stroke-width="1" opacity="0.04369090370445599"/>
<polygon points="248,12 256.6,17 256.6,27 248,32 239.4,27 239.4,17" fill="none" stroke="#39FF14" stroke-width="1" opacity="0.055670813448783704"/>
<polygon points="718,22 726.6,27 726.6,37 718,42 709.4,37 709.4,27" fill="none" stroke="#39FF14" stroke-width="1" opacity="0.024191347161465725"/>
<polygon points="173,-9 181.6,-4 181.6,6 173,11 164.4,6 164.4,-4" fill="none" stroke="#39FF14" stroke-width="1" opacity="0.04787816735319686"/>
<polygon points="622,103 630.6,108 630.6,118 622,123 613.4,118 613.4,108" fill="none" stroke="#39FF14" stroke-width="1" opacity="0.02081662837627266"/>
<polygon points="338,23 346.6,28 346.6,38 338,43 329.4,38 329.4,28" fill="none" stroke="#39FF14" stroke-width="1" opacity="0.021634570123641658"/>
<polygon points="51,109 59.6,114 59.6,124 51,129 42.4,124 42.4,114" fill="none" stroke="#39FF14" stroke-width="1" opacity="0.02409030022168092"/>
<polygon points="10,1 18.6,6 18.6,16 10,21 1.4000000000000004,16 1.4000000000000004,6" fill="none" stroke="#39FF14" stroke-width="1" opacity="0.05943940346603295"/>
<polygon points="360,140 368.6,145 368.6,155 360,160 351.4,155 351.4,145" fill="none" stroke="#39FF14" stroke-width="1" opacity="0.06526737317491317"/>
<polygon points="780,23 788.6,28 788.6,38 780,43 771.4,38 771.4,28" fill="none" stroke="#39FF14" stroke-width="1" opacity="0.0760334683779185"/>
<polygon points="85,101 93.6,106 93.6,116 85,121 76.4,116 76.4,106" fill="none" stroke="#39FF14" stroke-width="1" opacity="0.03102823307578571"/>
<polygon points="601,177 609.6,182 609.6,192 601,197 592.4,192 592.4,182" fill="none" stroke="#39FF14" stroke-width="1" opacity="0.05596226939160737"/>
<polygon points="536,30 544.6,35 544.6,45 536,50 527.4,45 527.4,35" fill="none" stroke="#39FF14" stroke-width="1" opacity="0.05048884166238518"/>
<polygon points="137,68 145.6,73 145.6,83 137,88 128.4,83 128.4,73" fill="none" stroke="#39FF14" stroke-width="1" opacity="0.07779984075570573"/>
<polygon points="191,102 199.6,107 199.6,117 191,122 182.4,117 182.4,107" fill="none" stroke="#39FF14" stroke-width="1" opacity="0.03425102772634754"/>
<polygon points="587,168 595.6,173 595.6,183 587,188 578.4,183 578.4,173" fill="none" stroke="#39FF14" stroke-width="1" opacity="0.06288590773129109"/>
<polygon points="778,161 786.6,166 786.6,176 778,181 769.4,176 769.4,166" fill="none" stroke="#39FF14" stroke-width="1" opacity="0.07626895465739394"/>
<polygon points="722,126 730.6,131 730.6,141 722,146 713.4,141 713.4,131" fill="none" stroke="#39FF14" stroke-width="1" opacity="0.03567728916726244"/>
</g>

  <!-- HUD Decorative elements -->
  <path d="M 20 20 L 40 20 L 50 30" fill="none" stroke="#39FF14" stroke-width="2" opacity="0.5"/>
  <path d="M 830 180 L 810 180 L 800 170" fill="none" stroke="#39FF14" stroke-width="2" opacity="0.5"/>

  <g clip-path="url(#dashClip)">
    <rect x="-160" y="0" width="160" height="200" fill="url(#scanlineGrad)">
      <animateTransform attributeName="transform" type="translate"
                        from="0 0" to="1010 0" dur="6s" repeatCount="indefinite"/>
    </rect>
  </g>

  <g font-family="'Consolas', 'Fira Code', monospace" text-anchor="middle">

    <!-- NETWORK STATUS -->
    <g transform="translate(130, 100)">
        <circle cx="0" cy="0" r="45" fill="none" stroke="#39FF14" stroke-width="2" stroke-dasharray="10 5">
            <animateTransform attributeName="transform" type="rotate" from="0" to="360" dur="10s" repeatCount="indefinite"/>
        </circle>
        <circle cx="0" cy="0" r="35" fill="#0d0d0d" />
        <text x="0" y="-60" font-size="12" fill="#aaaaaa" letter-spacing="2">ROOT.AUTH</text>
        <text x="0" y="70" font-size="14" fill="#ffffff" font-weight="bold">OPERATIONAL</text>
    </g>

    <!-- ACTIVE USERS -->
    <g transform="translate(330, 100)">
        <text x="0" y="-20" font-size="12" fill="#aaaaaa">CITIZENS</text>
        <text x="0" y="15" font-size="28" fill="#ffffff" font-weight="bold" filter="url(#textGlow)">13,973</text>
        <text x="0" y="35" font-size="10" fill="#777777">VERIFIED HUMANS</text>
    </g>

    <!-- REGISTERED AGENTS -->
    <g transform="translate(530, 100)">
        <text x="0" y="-20" font-size="12" fill="#aaaaaa">AGENTS</text>
        <text x="0" y="15" font-size="28" fill="#00d4ff" font-weight="bold" filter="url(#textGlow)">3,609</text>
        <text x="0" y="35" font-size="10" fill="#777777">REGISTERED DIDs</text>
    </g>

    <!-- TRANSACTIONS -->
    <g transform="translate(730, 100)">
        <text x="0" y="-20" font-size="12" fill="#aaaaaa">TRANSFERS</text>
        <text x="0" y="15" font-size="28" fill="#ffffff" font-weight="bold">37,085</text>
        <text x="0" y="35" font-size="10" fill="#777777">M2M SETTLEMENTS</text>
    </g>
  </g>

  <text x="425" y="185" font-family="'Consolas', 'Fira Code', monospace" font-size="10" fill="#aaaaaa" opacity="0.6" text-anchor="middle">AXIOMID PROJECTED TARGETS (ILLUSTRATIVE): 2026-07-05 16:00:18 UTC // SECURE_HANDSHAKE</text>
</svg>