<svg width="850" height="200" viewBox="0 0 850 200" xmlns="http://www.w3.org/2000/svg">
  <defs>
    <pattern id="carbonFiber" width="10" height="10" patternUnits="userSpaceOnUse">
        <rect width="10" height="10" fill="#050505"/>
        <path d="M0,0 L5,5 L10,0 L5,-5 Z M5,5 L10,10 L15,5 L10,0 Z M-5,5 L0,10 L5,5 L0,0 Z M0,10 L5,15 L10,10 L5,5 Z" fill="#0d0d0d"/>
    </pattern>
    <filter id="textGlow">
      <feGaussianBlur stdDeviation="2" result="blur" />
      <feMerge>
        <feMergeNode in="blur"/>
        <feMergeNode in="SourceGraphic"/>
      </feMerge>
    </filter>
    <linearGradient id="neonBar" x1="0%" y1="0%" x2="100%" y2="0%">
        <stop offset="0%" stop-color="#111111"/>
        <stop offset="100%" stop-color="#39FF14"/>
    </linearGradient>
    <linearGradient id="scanlineGrad" x1="0%" y1="0%" x2="100%" y2="0%">
        <stop offset="0%" stop-color="#39FF14" stop-opacity="0"/>
        <stop offset="50%" stop-color="#39FF14" stop-opacity="0.18"/>
        <stop offset="100%" stop-color="#39FF14" stop-opacity="0"/>
    </linearGradient>
    <clipPath id="dashClip">
        <rect x="0" y="0" width="850" height="200" rx="12"/>
    </clipPath>
  </defs>

  <rect width="100%" height="100%" fill="url(#carbonFiber)" rx="12" stroke="#39FF14" stroke-width="1" stroke-opacity="0.3"/>
  <rect width="100%" height="100%" fill="#000000" opacity="0.6" rx="12" />
  <g><polygon points="611,117 619.6,122 619.6,132 611,137 602.4,132 602.4,122" fill="none" stroke="#39FF14" stroke-width="1" opacity="0.04541162551669785"/>
<polygon points="368,101 376.6,106 376.6,116 368,121 359.4,116 359.4,106" fill="none" stroke="#39FF14" stroke-width="1" opacity="0.0781623137818657"/>
<polygon points="832,84 840.6,89 840.6,99 832,104 823.4,99 823.4,89" fill="none" stroke="#39FF14" stroke-width="1" opacity="0.0637657050443414"/>
<polygon points="50,41 58.6,46 58.6,56 50,61 41.4,56 41.4,46" fill="none" stroke="#39FF14" stroke-width="1" opacity="0.0761828208198562"/>
<polygon points="151,173 159.6,178 159.6,188 151,193 142.4,188 142.4,178" fill="none" stroke="#39FF14" stroke-width="1" opacity="0.036081048454599446"/>
<polygon points="333,72 341.6,77 341.6,87 333,92 324.4,87 324.4,77" fill="none" stroke="#39FF14" stroke-width="1" opacity="0.07853188059274285"/>
<polygon points="127,176 135.6,181 135.6,191 127,196 118.4,191 118.4,181" fill="none" stroke="#39FF14" stroke-width="1" opacity="0.03987275141522097"/>
<polygon points="3,-5 11.6,0 11.6,10 3,15 -5.6,10 -5.6,0" fill="none" stroke="#39FF14" stroke-width="1" opacity="0.06374012989298197"/>
<polygon points="1,42 9.6,47 9.6,57 1,62 -7.6,57 -7.6,47" fill="none" stroke="#39FF14" stroke-width="1" opacity="0.04853669394545242"/>
<polygon points="120,64 128.6,69 128.6,79 120,84 111.4,79 111.4,69" fill="none" stroke="#39FF14" stroke-width="1" opacity="0.0493581616322904"/>
<polygon points="219,-7 227.6,-2 227.6,8 219,13 210.4,8 210.4,-2" fill="none" stroke="#39FF14" stroke-width="1" opacity="0.030585022294932714"/>
<polygon points="786,29 794.6,34 794.6,44 786,49 777.4,44 777.4,34" fill="none" stroke="#39FF14" stroke-width="1" opacity="0.03210376339432627"/>
<polygon points="733,10 741.6,15 741.6,25 733,30 724.4,25 724.4,15" fill="none" stroke="#39FF14" stroke-width="1" opacity="0.04354590254014215"/>
<polygon points="777,74 785.6,79 785.6,89 777,94 768.4,89 768.4,79" fill="none" stroke="#39FF14" stroke-width="1" opacity="0.04459256649671639"/>
<polygon points="366,141 374.6,146 374.6,156 366,161 357.4,156 357.4,146" fill="none" stroke="#39FF14" stroke-width="1" opacity="0.07375230992478143"/>
<polygon points="554,30 562.6,35 562.6,45 554,50 545.4,45 545.4,35" fill="none" stroke="#39FF14" stroke-width="1" opacity="0.0239529649936483"/>
<polygon points="752,157 760.6,162 760.6,172 752,177 743.4,172 743.4,162" fill="none" stroke="#39FF14" stroke-width="1" opacity="0.0260701114735857"/>
<polygon points="88,153 96.6,158 96.6,168 88,173 79.4,168 79.4,158" fill="none" stroke="#39FF14" stroke-width="1" opacity="0.07453787615665423"/>
<polygon points="561,53 569.6,58 569.6,68 561,73 552.4,68 552.4,58" fill="none" stroke="#39FF14" stroke-width="1" opacity="0.034930585003080494"/>
<polygon points="750,122 758.6,127 758.6,137 750,142 741.4,137 741.4,127" fill="none" stroke="#39FF14" stroke-width="1" opacity="0.07802046172510067"/>
<polygon points="146,22 154.6,27 154.6,37 146,42 137.4,37 137.4,27" fill="none" stroke="#39FF14" stroke-width="1" opacity="0.07551662587647033"/>
<polygon points="556,99 564.6,104 564.6,114 556,119 547.4,114 547.4,104" fill="none" stroke="#39FF14" stroke-width="1" opacity="0.02289418957202287"/>
<polygon points="842,136 850.6,141 850.6,151 842,156 833.4,151 833.4,141" fill="none" stroke="#39FF14" stroke-width="1" opacity="0.0512493217165154"/>
<polygon points="490,41 498.6,46 498.6,56 490,61 481.4,56 481.4,46" fill="none" stroke="#39FF14" stroke-width="1" opacity="0.03064323890933885"/>
<polygon points="307,15 315.6,20 315.6,30 307,35 298.4,30 298.4,20" fill="none" stroke="#39FF14" stroke-width="1" opacity="0.07851039687489796"/>
<polygon points="634,180 642.6,185 642.6,195 634,200 625.4,195 625.4,185" fill="none" stroke="#39FF14" stroke-width="1" opacity="0.027656049823282125"/>
<polygon points="262,85 270.6,90 270.6,100 262,105 253.4,100 253.4,90" fill="none" stroke="#39FF14" stroke-width="1" opacity="0.040466197234037174"/>
<polygon points="695,131 703.6,136 703.6,146 695,151 686.4,146 686.4,136" fill="none" stroke="#39FF14" stroke-width="1" opacity="0.07296146303071668"/>
<polygon points="344,120 352.6,125 352.6,135 344,140 335.4,135 335.4,125" fill="none" stroke="#39FF14" stroke-width="1" opacity="0.06641422247084638"/>
<polygon points="455,189 463.6,194 463.6,204 455,209 446.4,204 446.4,194" fill="none" stroke="#39FF14" stroke-width="1" opacity="0.07546504742820091"/>
</g>

  <!-- HUD Decorative elements -->
  <path d="M 20 20 L 40 20 L 50 30" fill="none" stroke="#39FF14" stroke-width="2" opacity="0.5"/>
  <path d="M 830 180 L 810 180 L 800 170" fill="none" stroke="#39FF14" stroke-width="2" opacity="0.5"/>

  <g clip-path="url(#dashClip)">
    <rect x="-160" y="0" width="160" height="200" fill="url(#scanlineGrad)">
      <animateTransform attributeName="transform" type="translate"
                        from="0 0" to="1010 0" dur="6s" repeatCount="indefinite"/>
    </rect>
  </g>

  <g font-family="'Consolas', 'Fira Code', monospace" text-anchor="middle">

    <!-- NETWORK STATUS -->
    <g transform="translate(130, 100)">
        <circle cx="0" cy="0" r="45" fill="none" stroke="#39FF14" stroke-width="2" stroke-dasharray="10 5">
            <animateTransform attributeName="transform" type="rotate" from="0" to="360" dur="10s" repeatCount="indefinite"/>
        </circle>
        <circle cx="0" cy="0" r="35" fill="#0d0d0d" />
        <text x="0" y="-60" font-size="12" fill="#aaaaaa" letter-spacing="2">ROOT.AUTH</text>
        <text x="0" y="70" font-size="14" fill="#ffffff" font-weight="bold">OPERATIONAL</text>
    </g>

    <!-- ACTIVE USERS -->
    <g transform="translate(330, 100)">
        <text x="0" y="-20" font-size="12" fill="#aaaaaa">CITIZENS</text>
        <text x="0" y="15" font-size="28" fill="#ffffff" font-weight="bold" filter="url(#textGlow)">14,715</text>
        <text x="0" y="35" font-size="10" fill="#777777">VERIFIED HUMANS</text>
    </g>

    <!-- REGISTERED AGENTS -->
    <g transform="translate(530, 100)">
        <text x="0" y="-20" font-size="12" fill="#aaaaaa">AGENTS</text>
        <text x="0" y="15" font-size="28" fill="#00d4ff" font-weight="bold" filter="url(#textGlow)">4,267</text>
        <text x="0" y="35" font-size="10" fill="#777777">REGISTERED DIDs</text>
    </g>

    <!-- TRANSACTIONS -->
    <g transform="translate(730, 100)">
        <text x="0" y="-20" font-size="12" fill="#aaaaaa">TRANSFERS</text>
        <text x="0" y="15" font-size="28" fill="#ffffff" font-weight="bold">29,035</text>
        <text x="0" y="35" font-size="10" fill="#777777">M2M SETTLEMENTS</text>
    </g>
  </g>

  <text x="425" y="185" font-family="'Consolas', 'Fira Code', monospace" font-size="10" fill="#aaaaaa" opacity="0.6" text-anchor="middle">AXIOMID PROJECTED TARGETS (ILLUSTRATIVE): 2026-07-09 17:11:14 UTC // SECURE_HANDSHAKE</text>
</svg>