<svg width="850" height="200" viewBox="0 0 850 200" xmlns="http://www.w3.org/2000/svg">
  <defs>
    <pattern id="carbonFiber" width="10" height="10" patternUnits="userSpaceOnUse">
        <rect width="10" height="10" fill="#050505"/>
        <path d="M0,0 L5,5 L10,0 L5,-5 Z M5,5 L10,10 L15,5 L10,0 Z M-5,5 L0,10 L5,5 L0,0 Z M0,10 L5,15 L10,10 L5,5 Z" fill="#0d0d0d"/>
    </pattern>
    <filter id="textGlow">
      <feGaussianBlur stdDeviation="2" result="blur" />
      <feMerge>
        <feMergeNode in="blur"/>
        <feMergeNode in="SourceGraphic"/>
      </feMerge>
    </filter>
    <linearGradient id="neonBar" x1="0%" y1="0%" x2="100%" y2="0%">
        <stop offset="0%" stop-color="#111111"/>
        <stop offset="100%" stop-color="#39FF14"/>
    </linearGradient>
    <linearGradient id="scanlineGrad" x1="0%" y1="0%" x2="100%" y2="0%">
        <stop offset="0%" stop-color="#39FF14" stop-opacity="0"/>
        <stop offset="50%" stop-color="#39FF14" stop-opacity="0.18"/>
        <stop offset="100%" stop-color="#39FF14" stop-opacity="0"/>
    </linearGradient>
    <clipPath id="dashClip">
        <rect x="0" y="0" width="850" height="200" rx="12"/>
    </clipPath>
  </defs>

  <rect width="100%" height="100%" fill="url(#carbonFiber)" rx="12" stroke="#39FF14" stroke-width="1" stroke-opacity="0.3"/>
  <rect width="100%" height="100%" fill="#000000" opacity="0.6" rx="12" />
  <g><polygon points="339,60 347.6,65 347.6,75 339,80 330.4,75 330.4,65" fill="none" stroke="#39FF14" stroke-width="1" opacity="0.06437063081723117"/>
<polygon points="782,174 790.6,179 790.6,189 782,194 773.4,189 773.4,179" fill="none" stroke="#39FF14" stroke-width="1" opacity="0.03304300424973865"/>
<polygon points="273,158 281.6,163 281.6,173 273,178 264.4,173 264.4,163" fill="none" stroke="#39FF14" stroke-width="1" opacity="0.03464918623804271"/>
<polygon points="655,14 663.6,19 663.6,29 655,34 646.4,29 646.4,19" fill="none" stroke="#39FF14" stroke-width="1" opacity="0.0333318114445683"/>
<polygon points="57,73 65.6,78 65.6,88 57,93 48.4,88 48.4,78" fill="none" stroke="#39FF14" stroke-width="1" opacity="0.04104199703926496"/>
<polygon points="471,145 479.6,150 479.6,160 471,165 462.4,160 462.4,150" fill="none" stroke="#39FF14" stroke-width="1" opacity="0.030877334701481886"/>
<polygon points="411,110 419.6,115 419.6,125 411,130 402.4,125 402.4,115" fill="none" stroke="#39FF14" stroke-width="1" opacity="0.0686474333164335"/>
<polygon points="821,4 829.6,9 829.6,19 821,24 812.4,19 812.4,9" fill="none" stroke="#39FF14" stroke-width="1" opacity="0.025794817884031283"/>
<polygon points="121,53 129.6,58 129.6,68 121,73 112.4,68 112.4,58" fill="none" stroke="#39FF14" stroke-width="1" opacity="0.04924824620675868"/>
<polygon points="657,39 665.6,44 665.6,54 657,59 648.4,54 648.4,44" fill="none" stroke="#39FF14" stroke-width="1" opacity="0.0257444778855806"/>
<polygon points="547,132 555.6,137 555.6,147 547,152 538.4,147 538.4,137" fill="none" stroke="#39FF14" stroke-width="1" opacity="0.047588208688332315"/>
<polygon points="428,118 436.6,123 436.6,133 428,138 419.4,133 419.4,123" fill="none" stroke="#39FF14" stroke-width="1" opacity="0.07509111474942544"/>
<polygon points="330,127 338.6,132 338.6,142 330,147 321.4,142 321.4,132" fill="none" stroke="#39FF14" stroke-width="1" opacity="0.0686135963489999"/>
<polygon points="360,16 368.6,21 368.6,31 360,36 351.4,31 351.4,21" fill="none" stroke="#39FF14" stroke-width="1" opacity="0.06007868370004346"/>
<polygon points="776,151 784.6,156 784.6,166 776,171 767.4,166 767.4,156" fill="none" stroke="#39FF14" stroke-width="1" opacity="0.023332261853765676"/>
<polygon points="442,178 450.6,183 450.6,193 442,198 433.4,193 433.4,183" fill="none" stroke="#39FF14" stroke-width="1" opacity="0.06229107651212691"/>
<polygon points="42,147 50.6,152 50.6,162 42,167 33.4,162 33.4,152" fill="none" stroke="#39FF14" stroke-width="1" opacity="0.02459234162762824"/>
<polygon points="171,60 179.6,65 179.6,75 171,80 162.4,75 162.4,65" fill="none" stroke="#39FF14" stroke-width="1" opacity="0.07765691382702898"/>
<polygon points="315,93 323.6,98 323.6,108 315,113 306.4,108 306.4,98" fill="none" stroke="#39FF14" stroke-width="1" opacity="0.048729257018708734"/>
<polygon points="778,51 786.6,56 786.6,66 778,71 769.4,66 769.4,56" fill="none" stroke="#39FF14" stroke-width="1" opacity="0.0712514734768088"/>
<polygon points="251,165 259.6,170 259.6,180 251,185 242.4,180 242.4,170" fill="none" stroke="#39FF14" stroke-width="1" opacity="0.0780231761583044"/>
<polygon points="51,16 59.6,21 59.6,31 51,36 42.4,31 42.4,21" fill="none" stroke="#39FF14" stroke-width="1" opacity="0.026160660174532863"/>
<polygon points="211,115 219.6,120 219.6,130 211,135 202.4,130 202.4,120" fill="none" stroke="#39FF14" stroke-width="1" opacity="0.028288139894201904"/>
<polygon points="732,139 740.6,144 740.6,154 732,159 723.4,154 723.4,144" fill="none" stroke="#39FF14" stroke-width="1" opacity="0.043605881444645514"/>
<polygon points="106,54 114.6,59 114.6,69 106,74 97.4,69 97.4,59" fill="none" stroke="#39FF14" stroke-width="1" opacity="0.06855150693358293"/>
<polygon points="502,189 510.6,194 510.6,204 502,209 493.4,204 493.4,194" fill="none" stroke="#39FF14" stroke-width="1" opacity="0.06126966545820864"/>
<polygon points="467,145 475.6,150 475.6,160 467,165 458.4,160 458.4,150" fill="none" stroke="#39FF14" stroke-width="1" opacity="0.03328020079979465"/>
<polygon points="465,163 473.6,168 473.6,178 465,183 456.4,178 456.4,168" fill="none" stroke="#39FF14" stroke-width="1" opacity="0.07409910127173774"/>
<polygon points="191,41 199.6,46 199.6,56 191,61 182.4,56 182.4,46" fill="none" stroke="#39FF14" stroke-width="1" opacity="0.04102294186014873"/>
<polygon points="386,100 394.6,105 394.6,115 386,120 377.4,115 377.4,105" fill="none" stroke="#39FF14" stroke-width="1" opacity="0.07513518153837888"/>
</g>

  <!-- HUD Decorative elements -->
  <path d="M 20 20 L 40 20 L 50 30" fill="none" stroke="#39FF14" stroke-width="2" opacity="0.5"/>
  <path d="M 830 180 L 810 180 L 800 170" fill="none" stroke="#39FF14" stroke-width="2" opacity="0.5"/>

  <g clip-path="url(#dashClip)">
    <rect x="-160" y="0" width="160" height="200" fill="url(#scanlineGrad)">
      <animateTransform attributeName="transform" type="translate"
                        from="0 0" to="1010 0" dur="6s" repeatCount="indefinite"/>
    </rect>
  </g>

  <g font-family="'Consolas', 'Fira Code', monospace" text-anchor="middle">

    <!-- NETWORK STATUS -->
    <g transform="translate(130, 100)">
        <circle cx="0" cy="0" r="45" fill="none" stroke="#39FF14" stroke-width="2" stroke-dasharray="10 5">
            <animateTransform attributeName="transform" type="rotate" from="0" to="360" dur="10s" repeatCount="indefinite"/>
        </circle>
        <circle cx="0" cy="0" r="35" fill="#0d0d0d" />
        <text x="0" y="-60" font-size="12" fill="#aaaaaa" letter-spacing="2">ROOT.AUTH</text>
        <text x="0" y="70" font-size="14" fill="#ffffff" font-weight="bold">OPERATIONAL</text>
    </g>

    <!-- ACTIVE USERS -->
    <g transform="translate(330, 100)">
        <text x="0" y="-20" font-size="12" fill="#aaaaaa">CITIZENS</text>
        <text x="0" y="15" font-size="28" fill="#ffffff" font-weight="bold" filter="url(#textGlow)">14,987</text>
        <text x="0" y="35" font-size="10" fill="#777777">VERIFIED HUMANS</text>
    </g>

    <!-- REGISTERED AGENTS -->
    <g transform="translate(530, 100)">
        <text x="0" y="-20" font-size="12" fill="#aaaaaa">AGENTS</text>
        <text x="0" y="15" font-size="28" fill="#00d4ff" font-weight="bold" filter="url(#textGlow)">3,146</text>
        <text x="0" y="35" font-size="10" fill="#777777">REGISTERED DIDs</text>
    </g>

    <!-- TRANSACTIONS -->
    <g transform="translate(730, 100)">
        <text x="0" y="-20" font-size="12" fill="#aaaaaa">TRANSFERS</text>
        <text x="0" y="15" font-size="28" fill="#ffffff" font-weight="bold">28,547</text>
        <text x="0" y="35" font-size="10" fill="#777777">M2M SETTLEMENTS</text>
    </g>
  </g>

  <text x="425" y="185" font-family="'Consolas', 'Fira Code', monospace" font-size="10" fill="#aaaaaa" opacity="0.6" text-anchor="middle">AXIOMID PROJECTED TARGETS (ILLUSTRATIVE): 2026-07-06 12:36:06 UTC // SECURE_HANDSHAKE</text>
</svg>