<svg width="850" height="200" viewBox="0 0 850 200" xmlns="http://www.w3.org/2000/svg">
  <defs>
    <pattern id="carbonFiber" width="10" height="10" patternUnits="userSpaceOnUse">
        <rect width="10" height="10" fill="#050505"/>
        <path d="M0,0 L5,5 L10,0 L5,-5 Z M5,5 L10,10 L15,5 L10,0 Z M-5,5 L0,10 L5,5 L0,0 Z M0,10 L5,15 L10,10 L5,5 Z" fill="#0d0d0d"/>
    </pattern>
    <filter id="textGlow">
      <feGaussianBlur stdDeviation="2" result="blur" />
      <feMerge>
        <feMergeNode in="blur"/>
        <feMergeNode in="SourceGraphic"/>
      </feMerge>
    </filter>
    <linearGradient id="neonBar" x1="0%" y1="0%" x2="100%" y2="0%">
        <stop offset="0%" stop-color="#111111"/>
        <stop offset="100%" stop-color="#39FF14"/>
    </linearGradient>
    <linearGradient id="scanlineGrad" x1="0%" y1="0%" x2="100%" y2="0%">
        <stop offset="0%" stop-color="#39FF14" stop-opacity="0"/>
        <stop offset="50%" stop-color="#39FF14" stop-opacity="0.18"/>
        <stop offset="100%" stop-color="#39FF14" stop-opacity="0"/>
    </linearGradient>
    <clipPath id="dashClip">
        <rect x="0" y="0" width="850" height="200" rx="12"/>
    </clipPath>
  </defs>

  <rect width="100%" height="100%" fill="url(#carbonFiber)" rx="12" stroke="#39FF14" stroke-width="1" stroke-opacity="0.3"/>
  <rect width="100%" height="100%" fill="#000000" opacity="0.6" rx="12" />
  <g><polygon points="388,33 396.6,38 396.6,48 388,53 379.4,48 379.4,38" fill="none" stroke="#39FF14" stroke-width="1" opacity="0.0418569816984882"/>
<polygon points="575,133 583.6,138 583.6,148 575,153 566.4,148 566.4,138" fill="none" stroke="#39FF14" stroke-width="1" opacity="0.0650939541731102"/>
<polygon points="591,12 599.6,17 599.6,27 591,32 582.4,27 582.4,17" fill="none" stroke="#39FF14" stroke-width="1" opacity="0.07804080150705496"/>
<polygon points="275,-7 283.6,-2 283.6,8 275,13 266.4,8 266.4,-2" fill="none" stroke="#39FF14" stroke-width="1" opacity="0.07164624072068285"/>
<polygon points="723,98 731.6,103 731.6,113 723,118 714.4,113 714.4,103" fill="none" stroke="#39FF14" stroke-width="1" opacity="0.06561784256609038"/>
<polygon points="551,109 559.6,114 559.6,124 551,129 542.4,124 542.4,114" fill="none" stroke="#39FF14" stroke-width="1" opacity="0.07278711802859633"/>
<polygon points="211,122 219.6,127 219.6,137 211,142 202.4,137 202.4,127" fill="none" stroke="#39FF14" stroke-width="1" opacity="0.06542811868656577"/>
<polygon points="433,40 441.6,45 441.6,55 433,60 424.4,55 424.4,45" fill="none" stroke="#39FF14" stroke-width="1" opacity="0.06375700038979522"/>
<polygon points="468,-10 476.6,-5 476.6,5 468,10 459.4,5 459.4,-5" fill="none" stroke="#39FF14" stroke-width="1" opacity="0.06530163994482494"/>
<polygon points="814,19 822.6,24 822.6,34 814,39 805.4,34 805.4,24" fill="none" stroke="#39FF14" stroke-width="1" opacity="0.048831496946511885"/>
<polygon points="250,31 258.6,36 258.6,46 250,51 241.4,46 241.4,36" fill="none" stroke="#39FF14" stroke-width="1" opacity="0.06112447190260274"/>
<polygon points="54,64 62.6,69 62.6,79 54,84 45.4,79 45.4,69" fill="none" stroke="#39FF14" stroke-width="1" opacity="0.03621835134295273"/>
<polygon points="35,108 43.6,113 43.6,123 35,128 26.4,123 26.4,113" fill="none" stroke="#39FF14" stroke-width="1" opacity="0.060019823012997034"/>
<polygon points="516,170 524.6,175 524.6,185 516,190 507.4,185 507.4,175" fill="none" stroke="#39FF14" stroke-width="1" opacity="0.02359432733856798"/>
<polygon points="554,104 562.6,109 562.6,119 554,124 545.4,119 545.4,109" fill="none" stroke="#39FF14" stroke-width="1" opacity="0.021957458488496468"/>
<polygon points="50,-1 58.6,4 58.6,14 50,19 41.4,14 41.4,4" fill="none" stroke="#39FF14" stroke-width="1" opacity="0.03560824277881922"/>
<polygon points="486,144 494.6,149 494.6,159 486,164 477.4,159 477.4,149" fill="none" stroke="#39FF14" stroke-width="1" opacity="0.05641760986362057"/>
<polygon points="357,165 365.6,170 365.6,180 357,185 348.4,180 348.4,170" fill="none" stroke="#39FF14" stroke-width="1" opacity="0.0460055907928959"/>
<polygon points="122,83 130.6,88 130.6,98 122,103 113.4,98 113.4,88" fill="none" stroke="#39FF14" stroke-width="1" opacity="0.037266344675496596"/>
<polygon points="68,180 76.6,185 76.6,195 68,200 59.4,195 59.4,185" fill="none" stroke="#39FF14" stroke-width="1" opacity="0.07908155829071882"/>
<polygon points="180,6 188.6,11 188.6,21 180,26 171.4,21 171.4,11" fill="none" stroke="#39FF14" stroke-width="1" opacity="0.022234675485744253"/>
<polygon points="603,108 611.6,113 611.6,123 603,128 594.4,123 594.4,113" fill="none" stroke="#39FF14" stroke-width="1" opacity="0.06838585272009706"/>
<polygon points="817,98 825.6,103 825.6,113 817,118 808.4,113 808.4,103" fill="none" stroke="#39FF14" stroke-width="1" opacity="0.04095857617000817"/>
<polygon points="100,109 108.6,114 108.6,124 100,129 91.4,124 91.4,114" fill="none" stroke="#39FF14" stroke-width="1" opacity="0.05980368602231892"/>
<polygon points="529,105 537.6,110 537.6,120 529,125 520.4,120 520.4,110" fill="none" stroke="#39FF14" stroke-width="1" opacity="0.05282271719839998"/>
<polygon points="253,4 261.6,9 261.6,19 253,24 244.4,19 244.4,9" fill="none" stroke="#39FF14" stroke-width="1" opacity="0.03988214021021458"/>
<polygon points="302,11 310.6,16 310.6,26 302,31 293.4,26 293.4,16" fill="none" stroke="#39FF14" stroke-width="1" opacity="0.07278626069825075"/>
<polygon points="250,82 258.6,87 258.6,97 250,102 241.4,97 241.4,87" fill="none" stroke="#39FF14" stroke-width="1" opacity="0.057195583250597565"/>
<polygon points="596,30 604.6,35 604.6,45 596,50 587.4,45 587.4,35" fill="none" stroke="#39FF14" stroke-width="1" opacity="0.06934237370248934"/>
<polygon points="477,55 485.6,60 485.6,70 477,75 468.4,70 468.4,60" fill="none" stroke="#39FF14" stroke-width="1" opacity="0.03430188164272588"/>
</g>

  <!-- HUD Decorative elements -->
  <path d="M 20 20 L 40 20 L 50 30" fill="none" stroke="#39FF14" stroke-width="2" opacity="0.5"/>
  <path d="M 830 180 L 810 180 L 800 170" fill="none" stroke="#39FF14" stroke-width="2" opacity="0.5"/>

  <g clip-path="url(#dashClip)">
    <rect x="-160" y="0" width="160" height="200" fill="url(#scanlineGrad)">
      <animateTransform attributeName="transform" type="translate"
                        from="0 0" to="1010 0" dur="6s" repeatCount="indefinite"/>
    </rect>
  </g>

  <g font-family="'Consolas', 'Fira Code', monospace" text-anchor="middle">

    <!-- NETWORK STATUS -->
    <g transform="translate(130, 100)">
        <circle cx="0" cy="0" r="45" fill="none" stroke="#39FF14" stroke-width="2" stroke-dasharray="10 5">
            <animateTransform attributeName="transform" type="rotate" from="0" to="360" dur="10s" repeatCount="indefinite"/>
        </circle>
        <circle cx="0" cy="0" r="35" fill="#0d0d0d" />
        <text x="0" y="-60" font-size="12" fill="#aaaaaa" letter-spacing="2">ROOT.AUTH</text>
        <text x="0" y="70" font-size="14" fill="#ffffff" font-weight="bold">OPERATIONAL</text>
    </g>

    <!-- ACTIVE USERS -->
    <g transform="translate(330, 100)">
        <text x="0" y="-20" font-size="12" fill="#aaaaaa">CITIZENS</text>
        <text x="0" y="15" font-size="28" fill="#ffffff" font-weight="bold" filter="url(#textGlow)">13,562</text>
        <text x="0" y="35" font-size="10" fill="#777777">VERIFIED HUMANS</text>
    </g>

    <!-- REGISTERED AGENTS -->
    <g transform="translate(530, 100)">
        <text x="0" y="-20" font-size="12" fill="#aaaaaa">AGENTS</text>
        <text x="0" y="15" font-size="28" fill="#00d4ff" font-weight="bold" filter="url(#textGlow)">3,223</text>
        <text x="0" y="35" font-size="10" fill="#777777">REGISTERED DIDs</text>
    </g>

    <!-- TRANSACTIONS -->
    <g transform="translate(730, 100)">
        <text x="0" y="-20" font-size="12" fill="#aaaaaa">TRANSFERS</text>
        <text x="0" y="15" font-size="28" fill="#ffffff" font-weight="bold">35,956</text>
        <text x="0" y="35" font-size="10" fill="#777777">M2M SETTLEMENTS</text>
    </g>
  </g>

  <text x="425" y="185" font-family="'Consolas', 'Fira Code', monospace" font-size="10" fill="#aaaaaa" opacity="0.6" text-anchor="middle">AXIOMID PROJECTED TARGETS (ILLUSTRATIVE): 2026-07-21 03:23:15 UTC // SECURE_HANDSHAKE</text>
</svg>