<svg width="850" height="200" viewBox="0 0 850 200" xmlns="http://www.w3.org/2000/svg">
  <defs>
    <pattern id="carbonFiber" width="10" height="10" patternUnits="userSpaceOnUse">
        <rect width="10" height="10" fill="#050505"/>
        <path d="M0,0 L5,5 L10,0 L5,-5 Z M5,5 L10,10 L15,5 L10,0 Z M-5,5 L0,10 L5,5 L0,0 Z M0,10 L5,15 L10,10 L5,5 Z" fill="#0d0d0d"/>
    </pattern>
    <filter id="textGlow">
      <feGaussianBlur stdDeviation="2" result="blur" />
      <feMerge>
        <feMergeNode in="blur"/>
        <feMergeNode in="SourceGraphic"/>
      </feMerge>
    </filter>
    <linearGradient id="neonBar" x1="0%" y1="0%" x2="100%" y2="0%">
        <stop offset="0%" stop-color="#111111"/>
        <stop offset="100%" stop-color="#39FF14"/>
    </linearGradient>
    <linearGradient id="scanlineGrad" x1="0%" y1="0%" x2="100%" y2="0%">
        <stop offset="0%" stop-color="#39FF14" stop-opacity="0"/>
        <stop offset="50%" stop-color="#39FF14" stop-opacity="0.18"/>
        <stop offset="100%" stop-color="#39FF14" stop-opacity="0"/>
    </linearGradient>
    <clipPath id="dashClip">
        <rect x="0" y="0" width="850" height="200" rx="12"/>
    </clipPath>
  </defs>

  <rect width="100%" height="100%" fill="url(#carbonFiber)" rx="12" stroke="#39FF14" stroke-width="1" stroke-opacity="0.3"/>
  <rect width="100%" height="100%" fill="#000000" opacity="0.6" rx="12" />
  <g><polygon points="363,118 371.6,123 371.6,133 363,138 354.4,133 354.4,123" fill="none" stroke="#39FF14" stroke-width="1" opacity="0.05033505435446874"/>
<polygon points="1,12 9.6,17 9.6,27 1,32 -7.6,27 -7.6,17" fill="none" stroke="#39FF14" stroke-width="1" opacity="0.0425824656845632"/>
<polygon points="115,10 123.6,15 123.6,25 115,30 106.4,25 106.4,15" fill="none" stroke="#39FF14" stroke-width="1" opacity="0.03883932895572634"/>
<polygon points="637,161 645.6,166 645.6,176 637,181 628.4,176 628.4,166" fill="none" stroke="#39FF14" stroke-width="1" opacity="0.044691193693247144"/>
<polygon points="341,138 349.6,143 349.6,153 341,158 332.4,153 332.4,143" fill="none" stroke="#39FF14" stroke-width="1" opacity="0.03753109366995187"/>
<polygon points="701,131 709.6,136 709.6,146 701,151 692.4,146 692.4,136" fill="none" stroke="#39FF14" stroke-width="1" opacity="0.06987259001575846"/>
<polygon points="33,39 41.6,44 41.6,54 33,59 24.4,54 24.4,44" fill="none" stroke="#39FF14" stroke-width="1" opacity="0.06385224951584974"/>
<polygon points="333,12 341.6,17 341.6,27 333,32 324.4,27 324.4,17" fill="none" stroke="#39FF14" stroke-width="1" opacity="0.02939362976960645"/>
<polygon points="217,148 225.6,153 225.6,163 217,168 208.4,163 208.4,153" fill="none" stroke="#39FF14" stroke-width="1" opacity="0.027155317787081214"/>
<polygon points="708,48 716.6,53 716.6,63 708,68 699.4,63 699.4,53" fill="none" stroke="#39FF14" stroke-width="1" opacity="0.027259997770344945"/>
<polygon points="489,18 497.6,23 497.6,33 489,38 480.4,33 480.4,23" fill="none" stroke="#39FF14" stroke-width="1" opacity="0.056667203999732116"/>
<polygon points="172,125 180.6,130 180.6,140 172,145 163.4,140 163.4,130" fill="none" stroke="#39FF14" stroke-width="1" opacity="0.06306293348400374"/>
<polygon points="62,22 70.6,27 70.6,37 62,42 53.4,37 53.4,27" fill="none" stroke="#39FF14" stroke-width="1" opacity="0.025995629643609935"/>
<polygon points="715,126 723.6,131 723.6,141 715,146 706.4,141 706.4,131" fill="none" stroke="#39FF14" stroke-width="1" opacity="0.06720430475762194"/>
<polygon points="468,114 476.6,119 476.6,129 468,134 459.4,129 459.4,119" fill="none" stroke="#39FF14" stroke-width="1" opacity="0.03508477469613601"/>
<polygon points="258,186 266.6,191 266.6,201 258,206 249.4,201 249.4,191" fill="none" stroke="#39FF14" stroke-width="1" opacity="0.04309012595430524"/>
<polygon points="340,104 348.6,109 348.6,119 340,124 331.4,119 331.4,109" fill="none" stroke="#39FF14" stroke-width="1" opacity="0.038695988211768395"/>
<polygon points="468,140 476.6,145 476.6,155 468,160 459.4,155 459.4,145" fill="none" stroke="#39FF14" stroke-width="1" opacity="0.07795018789404161"/>
<polygon points="213,166 221.6,171 221.6,181 213,186 204.4,181 204.4,171" fill="none" stroke="#39FF14" stroke-width="1" opacity="0.030907974126730364"/>
<polygon points="155,103 163.6,108 163.6,118 155,123 146.4,118 146.4,108" fill="none" stroke="#39FF14" stroke-width="1" opacity="0.06082121367140089"/>
<polygon points="608,167 616.6,172 616.6,182 608,187 599.4,182 599.4,172" fill="none" stroke="#39FF14" stroke-width="1" opacity="0.0745151895876786"/>
<polygon points="285,129 293.6,134 293.6,144 285,149 276.4,144 276.4,134" fill="none" stroke="#39FF14" stroke-width="1" opacity="0.06307372578343876"/>
<polygon points="617,70 625.6,75 625.6,85 617,90 608.4,85 608.4,75" fill="none" stroke="#39FF14" stroke-width="1" opacity="0.020266858184464158"/>
<polygon points="266,190 274.6,195 274.6,205 266,210 257.4,205 257.4,195" fill="none" stroke="#39FF14" stroke-width="1" opacity="0.0607775053036"/>
<polygon points="715,189 723.6,194 723.6,204 715,209 706.4,204 706.4,194" fill="none" stroke="#39FF14" stroke-width="1" opacity="0.024837253955874838"/>
<polygon points="657,179 665.6,184 665.6,194 657,199 648.4,194 648.4,184" fill="none" stroke="#39FF14" stroke-width="1" opacity="0.03324003007306215"/>
<polygon points="466,22 474.6,27 474.6,37 466,42 457.4,37 457.4,27" fill="none" stroke="#39FF14" stroke-width="1" opacity="0.053365799600630176"/>
<polygon points="535,54 543.6,59 543.6,69 535,74 526.4,69 526.4,59" fill="none" stroke="#39FF14" stroke-width="1" opacity="0.06948678057705718"/>
<polygon points="824,143 832.6,148 832.6,158 824,163 815.4,158 815.4,148" fill="none" stroke="#39FF14" stroke-width="1" opacity="0.037510715968551024"/>
<polygon points="40,89 48.6,94 48.6,104 40,109 31.4,104 31.4,94" fill="none" stroke="#39FF14" stroke-width="1" opacity="0.06834953949082757"/>
</g>

  <!-- HUD Decorative elements -->
  <path d="M 20 20 L 40 20 L 50 30" fill="none" stroke="#39FF14" stroke-width="2" opacity="0.5"/>
  <path d="M 830 180 L 810 180 L 800 170" fill="none" stroke="#39FF14" stroke-width="2" opacity="0.5"/>

  <g clip-path="url(#dashClip)">
    <rect x="-160" y="0" width="160" height="200" fill="url(#scanlineGrad)">
      <animateTransform attributeName="transform" type="translate"
                        from="0 0" to="1010 0" dur="6s" repeatCount="indefinite"/>
    </rect>
  </g>

  <g font-family="'Consolas', 'Fira Code', monospace" text-anchor="middle">

    <!-- NETWORK STATUS -->
    <g transform="translate(130, 100)">
        <circle cx="0" cy="0" r="45" fill="none" stroke="#39FF14" stroke-width="2" stroke-dasharray="10 5">
            <animateTransform attributeName="transform" type="rotate" from="0" to="360" dur="10s" repeatCount="indefinite"/>
        </circle>
        <circle cx="0" cy="0" r="35" fill="#0d0d0d" />
        <text x="0" y="-60" font-size="12" fill="#aaaaaa" letter-spacing="2">ROOT.AUTH</text>
        <text x="0" y="70" font-size="14" fill="#ffffff" font-weight="bold">OPERATIONAL</text>
    </g>

    <!-- ACTIVE USERS -->
    <g transform="translate(330, 100)">
        <text x="0" y="-20" font-size="12" fill="#aaaaaa">CITIZENS</text>
        <text x="0" y="15" font-size="28" fill="#ffffff" font-weight="bold" filter="url(#textGlow)">12,520</text>
        <text x="0" y="35" font-size="10" fill="#777777">VERIFIED HUMANS</text>
    </g>

    <!-- REGISTERED AGENTS -->
    <g transform="translate(530, 100)">
        <text x="0" y="-20" font-size="12" fill="#aaaaaa">AGENTS</text>
        <text x="0" y="15" font-size="28" fill="#00d4ff" font-weight="bold" filter="url(#textGlow)">4,702</text>
        <text x="0" y="35" font-size="10" fill="#777777">REGISTERED DIDs</text>
    </g>

    <!-- TRANSACTIONS -->
    <g transform="translate(730, 100)">
        <text x="0" y="-20" font-size="12" fill="#aaaaaa">TRANSFERS</text>
        <text x="0" y="15" font-size="28" fill="#ffffff" font-weight="bold">25,284</text>
        <text x="0" y="35" font-size="10" fill="#777777">M2M SETTLEMENTS</text>
    </g>
  </g>

  <text x="425" y="185" font-family="'Consolas', 'Fira Code', monospace" font-size="10" fill="#aaaaaa" opacity="0.6" text-anchor="middle">AXIOMID PROJECTED TARGETS (ILLUSTRATIVE): 2026-07-05 02:04:53 UTC // SECURE_HANDSHAKE</text>
</svg>