<svg width="850" height="200" viewBox="0 0 850 200" xmlns="http://www.w3.org/2000/svg">
  <defs>
    <pattern id="carbonFiber" width="10" height="10" patternUnits="userSpaceOnUse">
        <rect width="10" height="10" fill="#050505"/>
        <path d="M0,0 L5,5 L10,0 L5,-5 Z M5,5 L10,10 L15,5 L10,0 Z M-5,5 L0,10 L5,5 L0,0 Z M0,10 L5,15 L10,10 L5,5 Z" fill="#0d0d0d"/>
    </pattern>
    <filter id="textGlow">
      <feGaussianBlur stdDeviation="2" result="blur" />
      <feMerge>
        <feMergeNode in="blur"/>
        <feMergeNode in="SourceGraphic"/>
      </feMerge>
    </filter>
    <linearGradient id="neonBar" x1="0%" y1="0%" x2="100%" y2="0%">
        <stop offset="0%" stop-color="#111111"/>
        <stop offset="100%" stop-color="#39FF14"/>
    </linearGradient>
    <linearGradient id="scanlineGrad" x1="0%" y1="0%" x2="100%" y2="0%">
        <stop offset="0%" stop-color="#39FF14" stop-opacity="0"/>
        <stop offset="50%" stop-color="#39FF14" stop-opacity="0.18"/>
        <stop offset="100%" stop-color="#39FF14" stop-opacity="0"/>
    </linearGradient>
    <clipPath id="dashClip">
        <rect x="0" y="0" width="850" height="200" rx="12"/>
    </clipPath>
  </defs>

  <rect width="100%" height="100%" fill="url(#carbonFiber)" rx="12" stroke="#39FF14" stroke-width="1" stroke-opacity="0.3"/>
  <rect width="100%" height="100%" fill="#000000" opacity="0.6" rx="12" />
  <g><polygon points="201,115 209.6,120 209.6,130 201,135 192.4,130 192.4,120" fill="none" stroke="#39FF14" stroke-width="1" opacity="0.0602500132368116"/>
<polygon points="817,163 825.6,168 825.6,178 817,183 808.4,178 808.4,168" fill="none" stroke="#39FF14" stroke-width="1" opacity="0.029024877118234087"/>
<polygon points="540,67 548.6,72 548.6,82 540,87 531.4,82 531.4,72" fill="none" stroke="#39FF14" stroke-width="1" opacity="0.04299261669959201"/>
<polygon points="21,47 29.6,52 29.6,62 21,67 12.4,62 12.4,52" fill="none" stroke="#39FF14" stroke-width="1" opacity="0.027751393737716158"/>
<polygon points="31,124 39.6,129 39.6,139 31,144 22.4,139 22.4,129" fill="none" stroke="#39FF14" stroke-width="1" opacity="0.05035650290211939"/>
<polygon points="739,7 747.6,12 747.6,22 739,27 730.4,22 730.4,12" fill="none" stroke="#39FF14" stroke-width="1" opacity="0.05218081571371348"/>
<polygon points="510,126 518.6,131 518.6,141 510,146 501.4,141 501.4,131" fill="none" stroke="#39FF14" stroke-width="1" opacity="0.03833370244113364"/>
<polygon points="520,88 528.6,93 528.6,103 520,108 511.4,103 511.4,93" fill="none" stroke="#39FF14" stroke-width="1" opacity="0.042126245550817704"/>
<polygon points="786,81 794.6,86 794.6,96 786,101 777.4,96 777.4,86" fill="none" stroke="#39FF14" stroke-width="1" opacity="0.05146555744753016"/>
<polygon points="548,109 556.6,114 556.6,124 548,129 539.4,124 539.4,114" fill="none" stroke="#39FF14" stroke-width="1" opacity="0.03598684115549351"/>
<polygon points="795,162 803.6,167 803.6,177 795,182 786.4,177 786.4,167" fill="none" stroke="#39FF14" stroke-width="1" opacity="0.04228294142996922"/>
<polygon points="491,97 499.6,102 499.6,112 491,117 482.4,112 482.4,102" fill="none" stroke="#39FF14" stroke-width="1" opacity="0.059436072934693204"/>
<polygon points="350,87 358.6,92 358.6,102 350,107 341.4,102 341.4,92" fill="none" stroke="#39FF14" stroke-width="1" opacity="0.03966156211419325"/>
<polygon points="293,93 301.6,98 301.6,108 293,113 284.4,108 284.4,98" fill="none" stroke="#39FF14" stroke-width="1" opacity="0.02751213353485174"/>
<polygon points="395,107 403.6,112 403.6,122 395,127 386.4,122 386.4,112" fill="none" stroke="#39FF14" stroke-width="1" opacity="0.03214981749800706"/>
<polygon points="90,82 98.6,87 98.6,97 90,102 81.4,97 81.4,87" fill="none" stroke="#39FF14" stroke-width="1" opacity="0.036336835466534156"/>
<polygon points="806,136 814.6,141 814.6,151 806,156 797.4,151 797.4,141" fill="none" stroke="#39FF14" stroke-width="1" opacity="0.026779251282498584"/>
<polygon points="687,164 695.6,169 695.6,179 687,184 678.4,179 678.4,169" fill="none" stroke="#39FF14" stroke-width="1" opacity="0.05716765437960293"/>
<polygon points="349,89 357.6,94 357.6,104 349,109 340.4,104 340.4,94" fill="none" stroke="#39FF14" stroke-width="1" opacity="0.047289401580455845"/>
<polygon points="418,4 426.6,9 426.6,19 418,24 409.4,19 409.4,9" fill="none" stroke="#39FF14" stroke-width="1" opacity="0.06426695886200585"/>
<polygon points="293,19 301.6,24 301.6,34 293,39 284.4,34 284.4,24" fill="none" stroke="#39FF14" stroke-width="1" opacity="0.07297539802393853"/>
<polygon points="155,44 163.6,49 163.6,59 155,64 146.4,59 146.4,49" fill="none" stroke="#39FF14" stroke-width="1" opacity="0.023742986025681173"/>
<polygon points="67,1 75.6,6 75.6,16 67,21 58.4,16 58.4,6" fill="none" stroke="#39FF14" stroke-width="1" opacity="0.02859316190449797"/>
<polygon points="599,174 607.6,179 607.6,189 599,194 590.4,189 590.4,179" fill="none" stroke="#39FF14" stroke-width="1" opacity="0.06456442133527575"/>
<polygon points="116,66 124.6,71 124.6,81 116,86 107.4,81 107.4,71" fill="none" stroke="#39FF14" stroke-width="1" opacity="0.06743946709210984"/>
<polygon points="335,53 343.6,58 343.6,68 335,73 326.4,68 326.4,58" fill="none" stroke="#39FF14" stroke-width="1" opacity="0.035341618516410295"/>
<polygon points="280,99 288.6,104 288.6,114 280,119 271.4,114 271.4,104" fill="none" stroke="#39FF14" stroke-width="1" opacity="0.07757704762174632"/>
<polygon points="295,21 303.6,26 303.6,36 295,41 286.4,36 286.4,26" fill="none" stroke="#39FF14" stroke-width="1" opacity="0.07747433792793078"/>
<polygon points="340,122 348.6,127 348.6,137 340,142 331.4,137 331.4,127" fill="none" stroke="#39FF14" stroke-width="1" opacity="0.024566488727032647"/>
<polygon points="155,34 163.6,39 163.6,49 155,54 146.4,49 146.4,39" fill="none" stroke="#39FF14" stroke-width="1" opacity="0.03732029083073141"/>
</g>

  <!-- HUD Decorative elements -->
  <path d="M 20 20 L 40 20 L 50 30" fill="none" stroke="#39FF14" stroke-width="2" opacity="0.5"/>
  <path d="M 830 180 L 810 180 L 800 170" fill="none" stroke="#39FF14" stroke-width="2" opacity="0.5"/>

  <g clip-path="url(#dashClip)">
    <rect x="-160" y="0" width="160" height="200" fill="url(#scanlineGrad)">
      <animateTransform attributeName="transform" type="translate"
                        from="0 0" to="1010 0" dur="6s" repeatCount="indefinite"/>
    </rect>
  </g>

  <g font-family="'Consolas', 'Fira Code', monospace" text-anchor="middle">

    <!-- NETWORK STATUS -->
    <g transform="translate(130, 100)">
        <circle cx="0" cy="0" r="45" fill="none" stroke="#39FF14" stroke-width="2" stroke-dasharray="10 5">
            <animateTransform attributeName="transform" type="rotate" from="0" to="360" dur="10s" repeatCount="indefinite"/>
        </circle>
        <circle cx="0" cy="0" r="35" fill="#0d0d0d" />
        <text x="0" y="-60" font-size="12" fill="#aaaaaa" letter-spacing="2">ROOT.AUTH</text>
        <text x="0" y="70" font-size="14" fill="#ffffff" font-weight="bold">OPERATIONAL</text>
    </g>

    <!-- ACTIVE USERS -->
    <g transform="translate(330, 100)">
        <text x="0" y="-20" font-size="12" fill="#aaaaaa">CITIZENS</text>
        <text x="0" y="15" font-size="28" fill="#ffffff" font-weight="bold" filter="url(#textGlow)">14,421</text>
        <text x="0" y="35" font-size="10" fill="#777777">VERIFIED HUMANS</text>
    </g>

    <!-- REGISTERED AGENTS -->
    <g transform="translate(530, 100)">
        <text x="0" y="-20" font-size="12" fill="#aaaaaa">AGENTS</text>
        <text x="0" y="15" font-size="28" fill="#00d4ff" font-weight="bold" filter="url(#textGlow)">3,792</text>
        <text x="0" y="35" font-size="10" fill="#777777">REGISTERED DIDs</text>
    </g>

    <!-- TRANSACTIONS -->
    <g transform="translate(730, 100)">
        <text x="0" y="-20" font-size="12" fill="#aaaaaa">TRANSFERS</text>
        <text x="0" y="15" font-size="28" fill="#ffffff" font-weight="bold">36,187</text>
        <text x="0" y="35" font-size="10" fill="#777777">M2M SETTLEMENTS</text>
    </g>
  </g>

  <text x="425" y="185" font-family="'Consolas', 'Fira Code', monospace" font-size="10" fill="#aaaaaa" opacity="0.6" text-anchor="middle">AXIOMID PROJECTED TARGETS (ILLUSTRATIVE): 2026-07-01 00:31:43 UTC // SECURE_HANDSHAKE</text>
</svg>