<svg width="850" height="200" viewBox="0 0 850 200" xmlns="http://www.w3.org/2000/svg">
  <defs>
    <pattern id="carbonFiber" width="10" height="10" patternUnits="userSpaceOnUse">
        <rect width="10" height="10" fill="#050505"/>
        <path d="M0,0 L5,5 L10,0 L5,-5 Z M5,5 L10,10 L15,5 L10,0 Z M-5,5 L0,10 L5,5 L0,0 Z M0,10 L5,15 L10,10 L5,5 Z" fill="#0d0d0d"/>
    </pattern>
    <filter id="textGlow">
      <feGaussianBlur stdDeviation="2" result="blur" />
      <feMerge>
        <feMergeNode in="blur"/>
        <feMergeNode in="SourceGraphic"/>
      </feMerge>
    </filter>
    <linearGradient id="neonBar" x1="0%" y1="0%" x2="100%" y2="0%">
        <stop offset="0%" stop-color="#111111"/>
        <stop offset="100%" stop-color="#39FF14"/>
    </linearGradient>
    <linearGradient id="scanlineGrad" x1="0%" y1="0%" x2="100%" y2="0%">
        <stop offset="0%" stop-color="#39FF14" stop-opacity="0"/>
        <stop offset="50%" stop-color="#39FF14" stop-opacity="0.18"/>
        <stop offset="100%" stop-color="#39FF14" stop-opacity="0"/>
    </linearGradient>
    <clipPath id="dashClip">
        <rect x="0" y="0" width="850" height="200" rx="12"/>
    </clipPath>
  </defs>

  <rect width="100%" height="100%" fill="url(#carbonFiber)" rx="12" stroke="#39FF14" stroke-width="1" stroke-opacity="0.3"/>
  <rect width="100%" height="100%" fill="#000000" opacity="0.6" rx="12" />
  <g><polygon points="753,41 761.6,46 761.6,56 753,61 744.4,56 744.4,46" fill="none" stroke="#39FF14" stroke-width="1" opacity="0.07028333496700578"/>
<polygon points="133,127 141.6,132 141.6,142 133,147 124.4,142 124.4,132" fill="none" stroke="#39FF14" stroke-width="1" opacity="0.042747345958220134"/>
<polygon points="575,182 583.6,187 583.6,197 575,202 566.4,197 566.4,187" fill="none" stroke="#39FF14" stroke-width="1" opacity="0.032605657262945884"/>
<polygon points="561,25 569.6,30 569.6,40 561,45 552.4,40 552.4,30" fill="none" stroke="#39FF14" stroke-width="1" opacity="0.04324447480545195"/>
<polygon points="559,6 567.6,11 567.6,21 559,26 550.4,21 550.4,11" fill="none" stroke="#39FF14" stroke-width="1" opacity="0.044213887409115846"/>
<polygon points="121,116 129.6,121 129.6,131 121,136 112.4,131 112.4,121" fill="none" stroke="#39FF14" stroke-width="1" opacity="0.06888955935984888"/>
<polygon points="771,92 779.6,97 779.6,107 771,112 762.4,107 762.4,97" fill="none" stroke="#39FF14" stroke-width="1" opacity="0.03751897407913379"/>
<polygon points="201,113 209.6,118 209.6,128 201,133 192.4,128 192.4,118" fill="none" stroke="#39FF14" stroke-width="1" opacity="0.05939965968354538"/>
<polygon points="487,81 495.6,86 495.6,96 487,101 478.4,96 478.4,86" fill="none" stroke="#39FF14" stroke-width="1" opacity="0.06269629183861046"/>
<polygon points="213,95 221.6,100 221.6,110 213,115 204.4,110 204.4,100" fill="none" stroke="#39FF14" stroke-width="1" opacity="0.033936672700660614"/>
<polygon points="591,138 599.6,143 599.6,153 591,158 582.4,153 582.4,143" fill="none" stroke="#39FF14" stroke-width="1" opacity="0.05442012037283557"/>
<polygon points="154,30 162.6,35 162.6,45 154,50 145.4,45 145.4,35" fill="none" stroke="#39FF14" stroke-width="1" opacity="0.07205113586913221"/>
<polygon points="367,131 375.6,136 375.6,146 367,151 358.4,146 358.4,136" fill="none" stroke="#39FF14" stroke-width="1" opacity="0.04462575932627379"/>
<polygon points="477,127 485.6,132 485.6,142 477,147 468.4,142 468.4,132" fill="none" stroke="#39FF14" stroke-width="1" opacity="0.053369589771759735"/>
<polygon points="735,63 743.6,68 743.6,78 735,83 726.4,78 726.4,68" fill="none" stroke="#39FF14" stroke-width="1" opacity="0.024956131025201042"/>
<polygon points="747,156 755.6,161 755.6,171 747,176 738.4,171 738.4,161" fill="none" stroke="#39FF14" stroke-width="1" opacity="0.07617496753880254"/>
<polygon points="137,189 145.6,194 145.6,204 137,209 128.4,204 128.4,194" fill="none" stroke="#39FF14" stroke-width="1" opacity="0.054187008241983026"/>
<polygon points="565,-7 573.6,-2 573.6,8 565,13 556.4,8 556.4,-2" fill="none" stroke="#39FF14" stroke-width="1" opacity="0.07768355198141931"/>
<polygon points="408,142 416.6,147 416.6,157 408,162 399.4,157 399.4,147" fill="none" stroke="#39FF14" stroke-width="1" opacity="0.04401928876635521"/>
<polygon points="457,170 465.6,175 465.6,185 457,190 448.4,185 448.4,175" fill="none" stroke="#39FF14" stroke-width="1" opacity="0.06502700916356013"/>
<polygon points="732,70 740.6,75 740.6,85 732,90 723.4,85 723.4,75" fill="none" stroke="#39FF14" stroke-width="1" opacity="0.04874873584467943"/>
<polygon points="110,11 118.6,16 118.6,26 110,31 101.4,26 101.4,16" fill="none" stroke="#39FF14" stroke-width="1" opacity="0.053582343057541726"/>
<polygon points="539,16 547.6,21 547.6,31 539,36 530.4,31 530.4,21" fill="none" stroke="#39FF14" stroke-width="1" opacity="0.031893662002729965"/>
<polygon points="220,176 228.6,181 228.6,191 220,196 211.4,191 211.4,181" fill="none" stroke="#39FF14" stroke-width="1" opacity="0.02201508696409044"/>
<polygon points="310,155 318.6,160 318.6,170 310,175 301.4,170 301.4,160" fill="none" stroke="#39FF14" stroke-width="1" opacity="0.037157328655958145"/>
<polygon points="317,82 325.6,87 325.6,97 317,102 308.4,97 308.4,87" fill="none" stroke="#39FF14" stroke-width="1" opacity="0.03483032484480173"/>
<polygon points="639,118 647.6,123 647.6,133 639,138 630.4,133 630.4,123" fill="none" stroke="#39FF14" stroke-width="1" opacity="0.0627195305201411"/>
<polygon points="757,29 765.6,34 765.6,44 757,49 748.4,44 748.4,34" fill="none" stroke="#39FF14" stroke-width="1" opacity="0.02457251565696002"/>
<polygon points="287,35 295.6,40 295.6,50 287,55 278.4,50 278.4,40" fill="none" stroke="#39FF14" stroke-width="1" opacity="0.04751268786098779"/>
<polygon points="621,79 629.6,84 629.6,94 621,99 612.4,94 612.4,84" fill="none" stroke="#39FF14" stroke-width="1" opacity="0.05012265380818913"/>
</g>

  <!-- HUD Decorative elements -->
  <path d="M 20 20 L 40 20 L 50 30" fill="none" stroke="#39FF14" stroke-width="2" opacity="0.5"/>
  <path d="M 830 180 L 810 180 L 800 170" fill="none" stroke="#39FF14" stroke-width="2" opacity="0.5"/>

  <g clip-path="url(#dashClip)">
    <rect x="-160" y="0" width="160" height="200" fill="url(#scanlineGrad)">
      <animateTransform attributeName="transform" type="translate"
                        from="0 0" to="1010 0" dur="6s" repeatCount="indefinite"/>
    </rect>
  </g>

  <g font-family="'Consolas', 'Fira Code', monospace" text-anchor="middle">

    <!-- NETWORK STATUS -->
    <g transform="translate(130, 100)">
        <circle cx="0" cy="0" r="45" fill="none" stroke="#39FF14" stroke-width="2" stroke-dasharray="10 5">
            <animateTransform attributeName="transform" type="rotate" from="0" to="360" dur="10s" repeatCount="indefinite"/>
        </circle>
        <circle cx="0" cy="0" r="35" fill="#0d0d0d" />
        <text x="0" y="-60" font-size="12" fill="#aaaaaa" letter-spacing="2">ROOT.AUTH</text>
        <text x="0" y="70" font-size="14" fill="#ffffff" font-weight="bold">OPERATIONAL</text>
    </g>

    <!-- ACTIVE USERS -->
    <g transform="translate(330, 100)">
        <text x="0" y="-20" font-size="12" fill="#aaaaaa">CITIZENS</text>
        <text x="0" y="15" font-size="28" fill="#ffffff" font-weight="bold" filter="url(#textGlow)">13,370</text>
        <text x="0" y="35" font-size="10" fill="#777777">VERIFIED HUMANS</text>
    </g>

    <!-- REGISTERED AGENTS -->
    <g transform="translate(530, 100)">
        <text x="0" y="-20" font-size="12" fill="#aaaaaa">AGENTS</text>
        <text x="0" y="15" font-size="28" fill="#00d4ff" font-weight="bold" filter="url(#textGlow)">4,397</text>
        <text x="0" y="35" font-size="10" fill="#777777">REGISTERED DIDs</text>
    </g>

    <!-- TRANSACTIONS -->
    <g transform="translate(730, 100)">
        <text x="0" y="-20" font-size="12" fill="#aaaaaa">TRANSFERS</text>
        <text x="0" y="15" font-size="28" fill="#ffffff" font-weight="bold">30,313</text>
        <text x="0" y="35" font-size="10" fill="#777777">M2M SETTLEMENTS</text>
    </g>
  </g>

  <text x="425" y="185" font-family="'Consolas', 'Fira Code', monospace" font-size="10" fill="#aaaaaa" opacity="0.6" text-anchor="middle">AXIOMID PROJECTED TARGETS (ILLUSTRATIVE): 2026-07-02 13:29:39 UTC // SECURE_HANDSHAKE</text>
</svg>