<svg width="850" height="200" viewBox="0 0 850 200" xmlns="http://www.w3.org/2000/svg">
  <defs>
    <pattern id="carbonFiber" width="10" height="10" patternUnits="userSpaceOnUse">
        <rect width="10" height="10" fill="#050505"/>
        <path d="M0,0 L5,5 L10,0 L5,-5 Z M5,5 L10,10 L15,5 L10,0 Z M-5,5 L0,10 L5,5 L0,0 Z M0,10 L5,15 L10,10 L5,5 Z" fill="#0d0d0d"/>
    </pattern>
    <filter id="textGlow">
      <feGaussianBlur stdDeviation="2" result="blur" />
      <feMerge>
        <feMergeNode in="blur"/>
        <feMergeNode in="SourceGraphic"/>
      </feMerge>
    </filter>
    <linearGradient id="neonBar" x1="0%" y1="0%" x2="100%" y2="0%">
        <stop offset="0%" stop-color="#111111"/>
        <stop offset="100%" stop-color="#39FF14"/>
    </linearGradient>
    <linearGradient id="scanlineGrad" x1="0%" y1="0%" x2="100%" y2="0%">
        <stop offset="0%" stop-color="#39FF14" stop-opacity="0"/>
        <stop offset="50%" stop-color="#39FF14" stop-opacity="0.18"/>
        <stop offset="100%" stop-color="#39FF14" stop-opacity="0"/>
    </linearGradient>
    <clipPath id="dashClip">
        <rect x="0" y="0" width="850" height="200" rx="12"/>
    </clipPath>
  </defs>

  <rect width="100%" height="100%" fill="url(#carbonFiber)" rx="12" stroke="#39FF14" stroke-width="1" stroke-opacity="0.3"/>
  <rect width="100%" height="100%" fill="#000000" opacity="0.6" rx="12" />
  <g><polygon points="136,156 144.6,161 144.6,171 136,176 127.4,171 127.4,161" fill="none" stroke="#39FF14" stroke-width="1" opacity="0.07082191244766527"/>
<polygon points="347,91 355.6,96 355.6,106 347,111 338.4,106 338.4,96" fill="none" stroke="#39FF14" stroke-width="1" opacity="0.053527801897413116"/>
<polygon points="97,135 105.6,140 105.6,150 97,155 88.4,150 88.4,140" fill="none" stroke="#39FF14" stroke-width="1" opacity="0.02997544821365234"/>
<polygon points="810,111 818.6,116 818.6,126 810,131 801.4,126 801.4,116" fill="none" stroke="#39FF14" stroke-width="1" opacity="0.0392284145824104"/>
<polygon points="233,7 241.6,12 241.6,22 233,27 224.4,22 224.4,12" fill="none" stroke="#39FF14" stroke-width="1" opacity="0.024584404274889227"/>
<polygon points="338,8 346.6,13 346.6,23 338,28 329.4,23 329.4,13" fill="none" stroke="#39FF14" stroke-width="1" opacity="0.03936622435939261"/>
<polygon points="778,154 786.6,159 786.6,169 778,174 769.4,169 769.4,159" fill="none" stroke="#39FF14" stroke-width="1" opacity="0.024519897411831595"/>
<polygon points="315,-2 323.6,3 323.6,13 315,18 306.4,13 306.4,3" fill="none" stroke="#39FF14" stroke-width="1" opacity="0.06516261954839951"/>
<polygon points="372,-1 380.6,4 380.6,14 372,19 363.4,14 363.4,4" fill="none" stroke="#39FF14" stroke-width="1" opacity="0.06252669361860294"/>
<polygon points="829,60 837.6,65 837.6,75 829,80 820.4,75 820.4,65" fill="none" stroke="#39FF14" stroke-width="1" opacity="0.050393285410642946"/>
<polygon points="129,59 137.6,64 137.6,74 129,79 120.4,74 120.4,64" fill="none" stroke="#39FF14" stroke-width="1" opacity="0.029561792346201536"/>
<polygon points="48,70 56.6,75 56.6,85 48,90 39.4,85 39.4,75" fill="none" stroke="#39FF14" stroke-width="1" opacity="0.07613438683055011"/>
<polygon points="239,75 247.6,80 247.6,90 239,95 230.4,90 230.4,80" fill="none" stroke="#39FF14" stroke-width="1" opacity="0.020711115492140848"/>
<polygon points="247,98 255.6,103 255.6,113 247,118 238.4,113 238.4,103" fill="none" stroke="#39FF14" stroke-width="1" opacity="0.045494907970866805"/>
<polygon points="762,187 770.6,192 770.6,202 762,207 753.4,202 753.4,192" fill="none" stroke="#39FF14" stroke-width="1" opacity="0.043185461715399553"/>
<polygon points="534,159 542.6,164 542.6,174 534,179 525.4,174 525.4,164" fill="none" stroke="#39FF14" stroke-width="1" opacity="0.0656275516053638"/>
<polygon points="598,127 606.6,132 606.6,142 598,147 589.4,142 589.4,132" fill="none" stroke="#39FF14" stroke-width="1" opacity="0.04143823753176263"/>
<polygon points="842,178 850.6,183 850.6,193 842,198 833.4,193 833.4,183" fill="none" stroke="#39FF14" stroke-width="1" opacity="0.059961963880997685"/>
<polygon points="712,134 720.6,139 720.6,149 712,154 703.4,149 703.4,139" fill="none" stroke="#39FF14" stroke-width="1" opacity="0.022617258213583572"/>
<polygon points="232,46 240.6,51 240.6,61 232,66 223.4,61 223.4,51" fill="none" stroke="#39FF14" stroke-width="1" opacity="0.07784632873783524"/>
<polygon points="155,131 163.6,136 163.6,146 155,151 146.4,146 146.4,136" fill="none" stroke="#39FF14" stroke-width="1" opacity="0.046228021103123795"/>
<polygon points="76,49 84.6,54 84.6,64 76,69 67.4,64 67.4,54" fill="none" stroke="#39FF14" stroke-width="1" opacity="0.07451903843132357"/>
<polygon points="295,50 303.6,55 303.6,65 295,70 286.4,65 286.4,55" fill="none" stroke="#39FF14" stroke-width="1" opacity="0.07446864719210879"/>
<polygon points="571,112 579.6,117 579.6,127 571,132 562.4,127 562.4,117" fill="none" stroke="#39FF14" stroke-width="1" opacity="0.04641720812163902"/>
<polygon points="437,64 445.6,69 445.6,79 437,84 428.4,79 428.4,69" fill="none" stroke="#39FF14" stroke-width="1" opacity="0.05719625399720511"/>
<polygon points="847,167 855.6,172 855.6,182 847,187 838.4,182 838.4,172" fill="none" stroke="#39FF14" stroke-width="1" opacity="0.03335868201284882"/>
<polygon points="744,132 752.6,137 752.6,147 744,152 735.4,147 735.4,137" fill="none" stroke="#39FF14" stroke-width="1" opacity="0.03774378617628269"/>
<polygon points="686,55 694.6,60 694.6,70 686,75 677.4,70 677.4,60" fill="none" stroke="#39FF14" stroke-width="1" opacity="0.0207986946582504"/>
<polygon points="453,179 461.6,184 461.6,194 453,199 444.4,194 444.4,184" fill="none" stroke="#39FF14" stroke-width="1" opacity="0.04817155050515094"/>
<polygon points="725,68 733.6,73 733.6,83 725,88 716.4,83 716.4,73" fill="none" stroke="#39FF14" stroke-width="1" opacity="0.03910084278864828"/>
</g>

  <!-- HUD Decorative elements -->
  <path d="M 20 20 L 40 20 L 50 30" fill="none" stroke="#39FF14" stroke-width="2" opacity="0.5"/>
  <path d="M 830 180 L 810 180 L 800 170" fill="none" stroke="#39FF14" stroke-width="2" opacity="0.5"/>

  <g clip-path="url(#dashClip)">
    <rect x="-160" y="0" width="160" height="200" fill="url(#scanlineGrad)">
      <animateTransform attributeName="transform" type="translate"
                        from="0 0" to="1010 0" dur="6s" repeatCount="indefinite"/>
    </rect>
  </g>

  <g font-family="'Consolas', 'Fira Code', monospace" text-anchor="middle">

    <!-- NETWORK STATUS -->
    <g transform="translate(130, 100)">
        <circle cx="0" cy="0" r="45" fill="none" stroke="#39FF14" stroke-width="2" stroke-dasharray="10 5">
            <animateTransform attributeName="transform" type="rotate" from="0" to="360" dur="10s" repeatCount="indefinite"/>
        </circle>
        <circle cx="0" cy="0" r="35" fill="#0d0d0d" />
        <text x="0" y="-60" font-size="12" fill="#aaaaaa" letter-spacing="2">ROOT.AUTH</text>
        <text x="0" y="70" font-size="14" fill="#ffffff" font-weight="bold">OPERATIONAL</text>
    </g>

    <!-- ACTIVE USERS -->
    <g transform="translate(330, 100)">
        <text x="0" y="-20" font-size="12" fill="#aaaaaa">CITIZENS</text>
        <text x="0" y="15" font-size="28" fill="#ffffff" font-weight="bold" filter="url(#textGlow)">15,489</text>
        <text x="0" y="35" font-size="10" fill="#777777">VERIFIED HUMANS</text>
    </g>

    <!-- REGISTERED AGENTS -->
    <g transform="translate(530, 100)">
        <text x="0" y="-20" font-size="12" fill="#aaaaaa">AGENTS</text>
        <text x="0" y="15" font-size="28" fill="#00d4ff" font-weight="bold" filter="url(#textGlow)">4,372</text>
        <text x="0" y="35" font-size="10" fill="#777777">REGISTERED DIDs</text>
    </g>

    <!-- TRANSACTIONS -->
    <g transform="translate(730, 100)">
        <text x="0" y="-20" font-size="12" fill="#aaaaaa">TRANSFERS</text>
        <text x="0" y="15" font-size="28" fill="#ffffff" font-weight="bold">37,526</text>
        <text x="0" y="35" font-size="10" fill="#777777">M2M SETTLEMENTS</text>
    </g>
  </g>

  <text x="425" y="185" font-family="'Consolas', 'Fira Code', monospace" font-size="10" fill="#aaaaaa" opacity="0.6" text-anchor="middle">AXIOMID PROJECTED TARGETS (ILLUSTRATIVE): 2026-07-07 14:06:58 UTC // SECURE_HANDSHAKE</text>
</svg>