<svg width="850" height="200" viewBox="0 0 850 200" xmlns="http://www.w3.org/2000/svg">
  <defs>
    <!-- Carbon Fiber Pattern -->
    <pattern id="carbonFiber" width="10" height="10" patternUnits="userSpaceOnUse">
        <rect width="10" height="10" fill="#050505"/>
        <path d="M0,0 L5,5 L10,0 L5,-5 Z M5,5 L10,10 L15,5 L10,0 Z M-5,5 L0,10 L5,5 L0,0 Z M0,10 L5,15 L10,10 L5,5 Z" fill="#0d0d0d"/>
    </pattern>
    <filter id="glassmorphism">
      <feGaussianBlur stdDeviation="3" result="blur" />
      <feColorMatrix type="matrix" values="1 0 0 0 0  0 1 0 0 0  0 0 1 0 0  0 0 0 18 -7" result="glow" />
      <feBlend in="SourceGraphic" in2="glow" mode="normal" />
    </filter>
    <filter id="textGlow">
      <feGaussianBlur stdDeviation="2" result="blur" />
      <feMerge>
        <feMergeNode in="blur"/>
        <feMergeNode in="SourceGraphic"/>
      </feMerge>
    </filter>
    <linearGradient id="neonBar" x1="0%" y1="0%" x2="100%" y2="0%">
        <stop offset="0%" stop-color="#111111"/>
        <stop offset="100%" stop-color="#39FF14"/>
    </linearGradient>
  </defs>

  <rect width="100%" height="100%" fill="url(#carbonFiber)" rx="12" stroke="#39FF14" stroke-width="1" stroke-opacity="0.3"/>
  <rect width="100%" height="100%" fill="#000000" opacity="0.6" rx="12" />
  <g><polygon points="504,51 512.6,56 512.6,66 504,71 495.4,66 495.4,56" fill="none" stroke="#39FF14" stroke-width="1" opacity="0.04327571705401602"/>
<polygon points="716,81 724.6,86 724.6,96 716,101 707.4,96 707.4,86" fill="none" stroke="#39FF14" stroke-width="1" opacity="0.05451503365747691"/>
<polygon points="228,32 236.6,37 236.6,47 228,52 219.4,47 219.4,37" fill="none" stroke="#39FF14" stroke-width="1" opacity="0.04286568611711273"/>
<polygon points="714,136 722.6,141 722.6,151 714,156 705.4,151 705.4,141" fill="none" stroke="#39FF14" stroke-width="1" opacity="0.053261567393846174"/>
<polygon points="266,-7 274.6,-2 274.6,8 266,13 257.4,8 257.4,-2" fill="none" stroke="#39FF14" stroke-width="1" opacity="0.05790482164169006"/>
<polygon points="63,156 71.6,161 71.6,171 63,176 54.4,171 54.4,161" fill="none" stroke="#39FF14" stroke-width="1" opacity="0.03311195850884688"/>
<polygon points="200,108 208.6,113 208.6,123 200,128 191.4,123 191.4,113" fill="none" stroke="#39FF14" stroke-width="1" opacity="0.043694230477638436"/>
<polygon points="209,6 217.6,11 217.6,21 209,26 200.4,21 200.4,11" fill="none" stroke="#39FF14" stroke-width="1" opacity="0.029571753715401113"/>
<polygon points="559,26 567.6,31 567.6,41 559,46 550.4,41 550.4,31" fill="none" stroke="#39FF14" stroke-width="1" opacity="0.040129666196712016"/>
<polygon points="608,26 616.6,31 616.6,41 608,46 599.4,41 599.4,31" fill="none" stroke="#39FF14" stroke-width="1" opacity="0.028447197813324672"/>
<polygon points="699,32 707.6,37 707.6,47 699,52 690.4,47 690.4,37" fill="none" stroke="#39FF14" stroke-width="1" opacity="0.06270266379914163"/>
<polygon points="43,151 51.6,156 51.6,166 43,171 34.4,166 34.4,156" fill="none" stroke="#39FF14" stroke-width="1" opacity="0.035270517444593724"/>
<polygon points="745,151 753.6,156 753.6,166 745,171 736.4,166 736.4,156" fill="none" stroke="#39FF14" stroke-width="1" opacity="0.03308436310807157"/>
<polygon points="267,21 275.6,26 275.6,36 267,41 258.4,36 258.4,26" fill="none" stroke="#39FF14" stroke-width="1" opacity="0.06096786224133116"/>
<polygon points="243,29 251.6,34 251.6,44 243,49 234.4,44 234.4,34" fill="none" stroke="#39FF14" stroke-width="1" opacity="0.04181751594892004"/>
<polygon points="86,53 94.6,58 94.6,68 86,73 77.4,68 77.4,58" fill="none" stroke="#39FF14" stroke-width="1" opacity="0.02263903275373913"/>
<polygon points="480,160 488.6,165 488.6,175 480,180 471.4,175 471.4,165" fill="none" stroke="#39FF14" stroke-width="1" opacity="0.06945131288729839"/>
<polygon points="416,-6 424.6,-1 424.6,9 416,14 407.4,9 407.4,-1" fill="none" stroke="#39FF14" stroke-width="1" opacity="0.0477028451228759"/>
<polygon points="308,36 316.6,41 316.6,51 308,56 299.4,51 299.4,41" fill="none" stroke="#39FF14" stroke-width="1" opacity="0.05884734404342079"/>
<polygon points="402,3 410.6,8 410.6,18 402,23 393.4,18 393.4,8" fill="none" stroke="#39FF14" stroke-width="1" opacity="0.05009929625831311"/>
<polygon points="590,115 598.6,120 598.6,130 590,135 581.4,130 581.4,120" fill="none" stroke="#39FF14" stroke-width="1" opacity="0.02141090684302394"/>
<polygon points="815,2 823.6,7 823.6,17 815,22 806.4,17 806.4,7" fill="none" stroke="#39FF14" stroke-width="1" opacity="0.023453983612779145"/>
<polygon points="109,63 117.6,68 117.6,78 109,83 100.4,78 100.4,68" fill="none" stroke="#39FF14" stroke-width="1" opacity="0.057227536383383834"/>
<polygon points="266,23 274.6,28 274.6,38 266,43 257.4,38 257.4,28" fill="none" stroke="#39FF14" stroke-width="1" opacity="0.033863569275255676"/>
<polygon points="740,146 748.6,151 748.6,161 740,166 731.4,161 731.4,151" fill="none" stroke="#39FF14" stroke-width="1" opacity="0.025564921584179716"/>
<polygon points="387,34 395.6,39 395.6,49 387,54 378.4,49 378.4,39" fill="none" stroke="#39FF14" stroke-width="1" opacity="0.05353968988530727"/>
<polygon points="69,23 77.6,28 77.6,38 69,43 60.4,38 60.4,28" fill="none" stroke="#39FF14" stroke-width="1" opacity="0.05226392303945564"/>
<polygon points="337,56 345.6,61 345.6,71 337,76 328.4,71 328.4,61" fill="none" stroke="#39FF14" stroke-width="1" opacity="0.07223738495799326"/>
<polygon points="719,88 727.6,93 727.6,103 719,108 710.4,103 710.4,93" fill="none" stroke="#39FF14" stroke-width="1" opacity="0.07271274443304192"/>
<polygon points="267,17 275.6,22 275.6,32 267,37 258.4,32 258.4,22" fill="none" stroke="#39FF14" stroke-width="1" opacity="0.037079716401007115"/>
</g>

  <!-- HUD Decorative elements -->
  <path d="M 20 20 L 40 20 L 50 30" fill="none" stroke="#39FF14" stroke-width="2" opacity="0.5"/>
  <path d="M 830 180 L 810 180 L 800 170" fill="none" stroke="#39FF14" stroke-width="2" opacity="0.5"/>
  <rect x="20" y="100" width="2" height="40" fill="#ffffff" opacity="0.4"/>
  <rect x="828" y="60" width="2" height="40" fill="#39FF14" opacity="0.6"/>

  <g font-family="'Consolas', 'Fira Code', monospace" text-anchor="middle">

    <!-- SYSTEM STATUS -->
    <g transform="translate(130, 100)">
        <circle cx="0" cy="0" r="45" fill="none" stroke="#111111" stroke-width="8" />
        <circle cx="0" cy="0" r="45" fill="none" stroke="#39FF14" stroke-width="2" stroke-dasharray="10 5">
            <animateTransform attributeName="transform" type="rotate" from="0" to="360" dur="10s" repeatCount="indefinite"/>
        </circle>
        <circle cx="0" cy="0" r="35" fill="#0d0d0d" />
        <circle cx="0" cy="0" r="6" fill="#39FF14" filter="url(#textGlow)">
            <animate attributeName="opacity" values="1;0.3;1" dur="2s" repeatCount="indefinite"/>
        </circle>
        <text x="0" y="-60" font-size="12" fill="#aaaaaa" letter-spacing="2">SYS.CORE</text>
        <text x="0" y="70" font-size="14" fill="#ffffff" font-weight="bold">ONLINE</text>
    </g>

    <!-- LIVE TRAFFIC -->
    <g transform="translate(330, 100)">
        <rect x="-60" y="-45" width="120" height="90" fill="#0a0a0a" rx="8" stroke="#39FF14" stroke-opacity="0.4" stroke-width="1"/>
        <text x="0" y="-20" font-size="12" fill="#aaaaaa">NETWORK LOAD</text>
        <text x="0" y="15" font-size="28" fill="#ffffff" font-weight="bold" filter="url(#textGlow)">4157</text>
        <text x="0" y="35" font-size="10" fill="#777777">ACTIVE SESSIONS</text>
    </g>

    <!-- ACTIVE AGENTS -->
    <g transform="translate(530, 100)">
        <rect x="-60" y="-45" width="120" height="90" fill="#0a0a0a" rx="8" stroke="#39FF14" stroke-opacity="0.4" stroke-width="1"/>
        <text x="0" y="-20" font-size="12" fill="#aaaaaa">SWARM ENTITIES</text>
        <text x="0" y="15" font-size="28" fill="#ffffff" font-weight="bold" filter="url(#textGlow)">98</text>
        <text x="0" y="35" font-size="10" fill="#777777">AUTONOMOUS</text>
    </g>

    <!-- UPTIME -->
    <g transform="translate(730, 100)">
        <path d="M -40 -35 L 40 -35 L 50 -25 L 50 35 L -40 35 L -50 25 Z" fill="#0a0a0a" stroke="#39FF14" stroke-opacity="0.4" stroke-width="1"/>
        <text x="0" y="-15" font-size="12" fill="#aaaaaa">CONTINUITY</text>
        <text x="0" y="15" font-size="24" fill="#ffffff" font-weight="bold">212<tspan font-size="14" fill="#777777">d</tspan></text>
        <rect x="-35" y="25" width="70" height="4" fill="url(#neonBar)" rx="2"/>
    </g>
  </g>

  <text x="425" y="185" font-family="'Consolas', 'Fira Code', monospace" font-size="10" fill="#aaaaaa" opacity="0.6" text-anchor="middle">LAST TELEMETRY PING: 2026-05-12 12:46:09 UTC // ENCRYPTED_TUNNEL</text>
</svg>