<svg width="850" height="200" viewBox="0 0 850 200" xmlns="http://www.w3.org/2000/svg">
  <defs>
    <pattern id="carbonFiber" width="10" height="10" patternUnits="userSpaceOnUse">
        <rect width="10" height="10" fill="#050505"/>
        <path d="M0,0 L5,5 L10,0 L5,-5 Z M5,5 L10,10 L15,5 L10,0 Z M-5,5 L0,10 L5,5 L0,0 Z M0,10 L5,15 L10,10 L5,5 Z" fill="#0d0d0d"/>
    </pattern>
    <filter id="textGlow">
      <feGaussianBlur stdDeviation="2" result="blur" />
      <feMerge>
        <feMergeNode in="blur"/>
        <feMergeNode in="SourceGraphic"/>
      </feMerge>
    </filter>
    <linearGradient id="neonBar" x1="0%" y1="0%" x2="100%" y2="0%">
        <stop offset="0%" stop-color="#111111"/>
        <stop offset="100%" stop-color="#39FF14"/>
    </linearGradient>
    <linearGradient id="scanlineGrad" x1="0%" y1="0%" x2="100%" y2="0%">
        <stop offset="0%" stop-color="#39FF14" stop-opacity="0"/>
        <stop offset="50%" stop-color="#39FF14" stop-opacity="0.18"/>
        <stop offset="100%" stop-color="#39FF14" stop-opacity="0"/>
    </linearGradient>
    <clipPath id="dashClip">
        <rect x="0" y="0" width="850" height="200" rx="12"/>
    </clipPath>
  </defs>

  <rect width="100%" height="100%" fill="url(#carbonFiber)" rx="12" stroke="#39FF14" stroke-width="1" stroke-opacity="0.3"/>
  <rect width="100%" height="100%" fill="#000000" opacity="0.6" rx="12" />
  <g><polygon points="818,189 826.6,194 826.6,204 818,209 809.4,204 809.4,194" fill="none" stroke="#39FF14" stroke-width="1" opacity="0.025772105136514078"/>
<polygon points="425,82 433.6,87 433.6,97 425,102 416.4,97 416.4,87" fill="none" stroke="#39FF14" stroke-width="1" opacity="0.025034080236422743"/>
<polygon points="384,61 392.6,66 392.6,76 384,81 375.4,76 375.4,66" fill="none" stroke="#39FF14" stroke-width="1" opacity="0.07042484610985265"/>
<polygon points="771,16 779.6,21 779.6,31 771,36 762.4,31 762.4,21" fill="none" stroke="#39FF14" stroke-width="1" opacity="0.02315721772197991"/>
<polygon points="559,177 567.6,182 567.6,192 559,197 550.4,192 550.4,182" fill="none" stroke="#39FF14" stroke-width="1" opacity="0.031491561518496254"/>
<polygon points="363,138 371.6,143 371.6,153 363,158 354.4,153 354.4,143" fill="none" stroke="#39FF14" stroke-width="1" opacity="0.06450181005947209"/>
<polygon points="453,98 461.6,103 461.6,113 453,118 444.4,113 444.4,103" fill="none" stroke="#39FF14" stroke-width="1" opacity="0.03392775381070845"/>
<polygon points="805,154 813.6,159 813.6,169 805,174 796.4,169 796.4,159" fill="none" stroke="#39FF14" stroke-width="1" opacity="0.032041922340844665"/>
<polygon points="606,51 614.6,56 614.6,66 606,71 597.4,66 597.4,56" fill="none" stroke="#39FF14" stroke-width="1" opacity="0.021591192963023885"/>
<polygon points="644,-3 652.6,2 652.6,12 644,17 635.4,12 635.4,2" fill="none" stroke="#39FF14" stroke-width="1" opacity="0.05729772590304563"/>
<polygon points="171,75 179.6,80 179.6,90 171,95 162.4,90 162.4,80" fill="none" stroke="#39FF14" stroke-width="1" opacity="0.07106293573485717"/>
<polygon points="195,141 203.6,146 203.6,156 195,161 186.4,156 186.4,146" fill="none" stroke="#39FF14" stroke-width="1" opacity="0.06582083167652825"/>
<polygon points="195,17 203.6,22 203.6,32 195,37 186.4,32 186.4,22" fill="none" stroke="#39FF14" stroke-width="1" opacity="0.020384420053412372"/>
<polygon points="267,1 275.6,6 275.6,16 267,21 258.4,16 258.4,6" fill="none" stroke="#39FF14" stroke-width="1" opacity="0.05531886718517935"/>
<polygon points="285,142 293.6,147 293.6,157 285,162 276.4,157 276.4,147" fill="none" stroke="#39FF14" stroke-width="1" opacity="0.04480232975437598"/>
<polygon points="843,151 851.6,156 851.6,166 843,171 834.4,166 834.4,156" fill="none" stroke="#39FF14" stroke-width="1" opacity="0.04393498590524417"/>
<polygon points="701,104 709.6,109 709.6,119 701,124 692.4,119 692.4,109" fill="none" stroke="#39FF14" stroke-width="1" opacity="0.0606598064927472"/>
<polygon points="422,110 430.6,115 430.6,125 422,130 413.4,125 413.4,115" fill="none" stroke="#39FF14" stroke-width="1" opacity="0.0201588773121135"/>
<polygon points="248,1 256.6,6 256.6,16 248,21 239.4,16 239.4,6" fill="none" stroke="#39FF14" stroke-width="1" opacity="0.041130640973068594"/>
<polygon points="770,168 778.6,173 778.6,183 770,188 761.4,183 761.4,173" fill="none" stroke="#39FF14" stroke-width="1" opacity="0.047044784895351285"/>
<polygon points="237,139 245.6,144 245.6,154 237,159 228.4,154 228.4,144" fill="none" stroke="#39FF14" stroke-width="1" opacity="0.03656301976557445"/>
<polygon points="845,148 853.6,153 853.6,163 845,168 836.4,163 836.4,153" fill="none" stroke="#39FF14" stroke-width="1" opacity="0.04099040894888248"/>
<polygon points="484,186 492.6,191 492.6,201 484,206 475.4,201 475.4,191" fill="none" stroke="#39FF14" stroke-width="1" opacity="0.04901516481731426"/>
<polygon points="46,21 54.6,26 54.6,36 46,41 37.4,36 37.4,26" fill="none" stroke="#39FF14" stroke-width="1" opacity="0.05859628551411894"/>
<polygon points="555,166 563.6,171 563.6,181 555,186 546.4,181 546.4,171" fill="none" stroke="#39FF14" stroke-width="1" opacity="0.05091790230377724"/>
<polygon points="536,79 544.6,84 544.6,94 536,99 527.4,94 527.4,84" fill="none" stroke="#39FF14" stroke-width="1" opacity="0.02887150190804231"/>
<polygon points="146,150 154.6,155 154.6,165 146,170 137.4,165 137.4,155" fill="none" stroke="#39FF14" stroke-width="1" opacity="0.07508702095983863"/>
<polygon points="627,79 635.6,84 635.6,94 627,99 618.4,94 618.4,84" fill="none" stroke="#39FF14" stroke-width="1" opacity="0.07294416633430849"/>
<polygon points="244,19 252.6,24 252.6,34 244,39 235.4,34 235.4,24" fill="none" stroke="#39FF14" stroke-width="1" opacity="0.025587932413293837"/>
<polygon points="676,137 684.6,142 684.6,152 676,157 667.4,152 667.4,142" fill="none" stroke="#39FF14" stroke-width="1" opacity="0.07582286934334839"/>
</g>

  <!-- HUD Decorative elements -->
  <path d="M 20 20 L 40 20 L 50 30" fill="none" stroke="#39FF14" stroke-width="2" opacity="0.5"/>
  <path d="M 830 180 L 810 180 L 800 170" fill="none" stroke="#39FF14" stroke-width="2" opacity="0.5"/>

  <g clip-path="url(#dashClip)">
    <rect x="-160" y="0" width="160" height="200" fill="url(#scanlineGrad)">
      <animateTransform attributeName="transform" type="translate"
                        from="0 0" to="1010 0" dur="6s" repeatCount="indefinite"/>
    </rect>
  </g>

  <g font-family="'Consolas', 'Fira Code', monospace" text-anchor="middle">

    <!-- NETWORK STATUS -->
    <g transform="translate(130, 100)">
        <circle cx="0" cy="0" r="45" fill="none" stroke="#39FF14" stroke-width="2" stroke-dasharray="10 5">
            <animateTransform attributeName="transform" type="rotate" from="0" to="360" dur="10s" repeatCount="indefinite"/>
        </circle>
        <circle cx="0" cy="0" r="35" fill="#0d0d0d" />
        <text x="0" y="-60" font-size="12" fill="#aaaaaa" letter-spacing="2">ROOT.AUTH</text>
        <text x="0" y="70" font-size="14" fill="#ffffff" font-weight="bold">OPERATIONAL</text>
    </g>

    <!-- ACTIVE USERS -->
    <g transform="translate(330, 100)">
        <text x="0" y="-20" font-size="12" fill="#aaaaaa">CITIZENS</text>
        <text x="0" y="15" font-size="28" fill="#ffffff" font-weight="bold" filter="url(#textGlow)">13,401</text>
        <text x="0" y="35" font-size="10" fill="#777777">VERIFIED HUMANS</text>
    </g>

    <!-- REGISTERED AGENTS -->
    <g transform="translate(530, 100)">
        <text x="0" y="-20" font-size="12" fill="#aaaaaa">AGENTS</text>
        <text x="0" y="15" font-size="28" fill="#00d4ff" font-weight="bold" filter="url(#textGlow)">4,103</text>
        <text x="0" y="35" font-size="10" fill="#777777">REGISTERED DIDs</text>
    </g>

    <!-- TRANSACTIONS -->
    <g transform="translate(730, 100)">
        <text x="0" y="-20" font-size="12" fill="#aaaaaa">TRANSFERS</text>
        <text x="0" y="15" font-size="28" fill="#ffffff" font-weight="bold">30,608</text>
        <text x="0" y="35" font-size="10" fill="#777777">M2M SETTLEMENTS</text>
    </g>
  </g>

  <text x="425" y="185" font-family="'Consolas', 'Fira Code', monospace" font-size="10" fill="#aaaaaa" opacity="0.6" text-anchor="middle">AXIOMID PROJECTED TARGETS (ILLUSTRATIVE): 2026-07-21 10:55:46 UTC // SECURE_HANDSHAKE</text>
</svg>