<svg width="850" height="200" viewBox="0 0 850 200" xmlns="http://www.w3.org/2000/svg">
  <defs>
    <!-- Carbon Fiber Pattern -->
    <pattern id="carbonFiber" width="10" height="10" patternUnits="userSpaceOnUse">
        <rect width="10" height="10" fill="#050505"/>
        <path d="M0,0 L5,5 L10,0 L5,-5 Z M5,5 L10,10 L15,5 L10,0 Z M-5,5 L0,10 L5,5 L0,0 Z M0,10 L5,15 L10,10 L5,5 Z" fill="#0d0d0d"/>
    </pattern>
    <filter id="glassmorphism">
      <feGaussianBlur stdDeviation="3" result="blur" />
      <feColorMatrix type="matrix" values="1 0 0 0 0  0 1 0 0 0  0 0 1 0 0  0 0 0 18 -7" result="glow" />
      <feBlend in="SourceGraphic" in2="glow" mode="normal" />
    </filter>
    <filter id="textGlow">
      <feGaussianBlur stdDeviation="2" result="blur" />
      <feMerge>
        <feMergeNode in="blur"/>
        <feMergeNode in="SourceGraphic"/>
      </feMerge>
    </filter>
    <linearGradient id="neonBar" x1="0%" y1="0%" x2="100%" y2="0%">
        <stop offset="0%" stop-color="#111111"/>
        <stop offset="100%" stop-color="#39FF14"/>
    </linearGradient>
  </defs>

  <rect width="100%" height="100%" fill="url(#carbonFiber)" rx="12" stroke="#39FF14" stroke-width="1" stroke-opacity="0.3"/>
  <rect width="100%" height="100%" fill="#000000" opacity="0.6" rx="12" />
  <g><polygon points="424,128 432.6,133 432.6,143 424,148 415.4,143 415.4,133" fill="none" stroke="#39FF14" stroke-width="1" opacity="0.06478480366162478"/>
<polygon points="734,-5 742.6,0 742.6,10 734,15 725.4,10 725.4,0" fill="none" stroke="#39FF14" stroke-width="1" opacity="0.03666575171512532"/>
<polygon points="476,163 484.6,168 484.6,178 476,183 467.4,178 467.4,168" fill="none" stroke="#39FF14" stroke-width="1" opacity="0.0629589285699552"/>
<polygon points="33,156 41.6,161 41.6,171 33,176 24.4,171 24.4,161" fill="none" stroke="#39FF14" stroke-width="1" opacity="0.048337007108286395"/>
<polygon points="201,132 209.6,137 209.6,147 201,152 192.4,147 192.4,137" fill="none" stroke="#39FF14" stroke-width="1" opacity="0.027922581554100705"/>
<polygon points="620,127 628.6,132 628.6,142 620,147 611.4,142 611.4,132" fill="none" stroke="#39FF14" stroke-width="1" opacity="0.03400944141297485"/>
<polygon points="748,46 756.6,51 756.6,61 748,66 739.4,61 739.4,51" fill="none" stroke="#39FF14" stroke-width="1" opacity="0.02358053548713127"/>
<polygon points="783,76 791.6,81 791.6,91 783,96 774.4,91 774.4,81" fill="none" stroke="#39FF14" stroke-width="1" opacity="0.02687818835965442"/>
<polygon points="303,70 311.6,75 311.6,85 303,90 294.4,85 294.4,75" fill="none" stroke="#39FF14" stroke-width="1" opacity="0.04217138316636297"/>
<polygon points="43,60 51.6,65 51.6,75 43,80 34.4,75 34.4,65" fill="none" stroke="#39FF14" stroke-width="1" opacity="0.04252623524260207"/>
<polygon points="162,133 170.6,138 170.6,148 162,153 153.4,148 153.4,138" fill="none" stroke="#39FF14" stroke-width="1" opacity="0.024965779879663454"/>
<polygon points="34,106 42.6,111 42.6,121 34,126 25.4,121 25.4,111" fill="none" stroke="#39FF14" stroke-width="1" opacity="0.07591213976584672"/>
<polygon points="160,7 168.6,12 168.6,22 160,27 151.4,22 151.4,12" fill="none" stroke="#39FF14" stroke-width="1" opacity="0.020072725709491986"/>
<polygon points="456,13 464.6,18 464.6,28 456,33 447.4,28 447.4,18" fill="none" stroke="#39FF14" stroke-width="1" opacity="0.02947400096281777"/>
<polygon points="16,1 24.6,6 24.6,16 16,21 7.4,16 7.4,6" fill="none" stroke="#39FF14" stroke-width="1" opacity="0.05553128020527949"/>
<polygon points="839,-1 847.6,4 847.6,14 839,19 830.4,14 830.4,4" fill="none" stroke="#39FF14" stroke-width="1" opacity="0.03379781709648728"/>
<polygon points="681,13 689.6,18 689.6,28 681,33 672.4,28 672.4,18" fill="none" stroke="#39FF14" stroke-width="1" opacity="0.0240632827228354"/>
<polygon points="408,5 416.6,10 416.6,20 408,25 399.4,20 399.4,10" fill="none" stroke="#39FF14" stroke-width="1" opacity="0.046178888597707274"/>
<polygon points="383,98 391.6,103 391.6,113 383,118 374.4,113 374.4,103" fill="none" stroke="#39FF14" stroke-width="1" opacity="0.045090031619985003"/>
<polygon points="392,172 400.6,177 400.6,187 392,192 383.4,187 383.4,177" fill="none" stroke="#39FF14" stroke-width="1" opacity="0.02751281434058767"/>
<polygon points="796,173 804.6,178 804.6,188 796,193 787.4,188 787.4,178" fill="none" stroke="#39FF14" stroke-width="1" opacity="0.026378122747403632"/>
<polygon points="605,76 613.6,81 613.6,91 605,96 596.4,91 596.4,81" fill="none" stroke="#39FF14" stroke-width="1" opacity="0.049614592598257845"/>
<polygon points="638,29 646.6,34 646.6,44 638,49 629.4,44 629.4,34" fill="none" stroke="#39FF14" stroke-width="1" opacity="0.07829160356425446"/>
<polygon points="73,131 81.6,136 81.6,146 73,151 64.4,146 64.4,136" fill="none" stroke="#39FF14" stroke-width="1" opacity="0.03234816240618292"/>
<polygon points="176,165 184.6,170 184.6,180 176,185 167.4,180 167.4,170" fill="none" stroke="#39FF14" stroke-width="1" opacity="0.06341471977582006"/>
<polygon points="546,90 554.6,95 554.6,105 546,110 537.4,105 537.4,95" fill="none" stroke="#39FF14" stroke-width="1" opacity="0.023312485545922502"/>
<polygon points="458,90 466.6,95 466.6,105 458,110 449.4,105 449.4,95" fill="none" stroke="#39FF14" stroke-width="1" opacity="0.05783643152536465"/>
<polygon points="278,84 286.6,89 286.6,99 278,104 269.4,99 269.4,89" fill="none" stroke="#39FF14" stroke-width="1" opacity="0.05020762873116372"/>
<polygon points="472,28 480.6,33 480.6,43 472,48 463.4,43 463.4,33" fill="none" stroke="#39FF14" stroke-width="1" opacity="0.07896052493026987"/>
<polygon points="687,63 695.6,68 695.6,78 687,83 678.4,78 678.4,68" fill="none" stroke="#39FF14" stroke-width="1" opacity="0.06209613293817251"/>
</g>

  <!-- HUD Decorative elements -->
  <path d="M 20 20 L 40 20 L 50 30" fill="none" stroke="#39FF14" stroke-width="2" opacity="0.5"/>
  <path d="M 830 180 L 810 180 L 800 170" fill="none" stroke="#39FF14" stroke-width="2" opacity="0.5"/>
  <rect x="20" y="100" width="2" height="40" fill="#ffffff" opacity="0.4"/>
  <rect x="828" y="60" width="2" height="40" fill="#39FF14" opacity="0.6"/>

  <g font-family="'Consolas', 'Fira Code', monospace" text-anchor="middle">

    <!-- SYSTEM STATUS -->
    <g transform="translate(130, 100)">
        <circle cx="0" cy="0" r="45" fill="none" stroke="#111111" stroke-width="8" />
        <circle cx="0" cy="0" r="45" fill="none" stroke="#39FF14" stroke-width="2" stroke-dasharray="10 5">
            <animateTransform attributeName="transform" type="rotate" from="0" to="360" dur="10s" repeatCount="indefinite"/>
        </circle>
        <circle cx="0" cy="0" r="35" fill="#0d0d0d" />
        <circle cx="0" cy="0" r="6" fill="#39FF14" filter="url(#textGlow)">
            <animate attributeName="opacity" values="1;0.3;1" dur="2s" repeatCount="indefinite"/>
        </circle>
        <text x="0" y="-60" font-size="12" fill="#aaaaaa" letter-spacing="2">SYS.CORE</text>
        <text x="0" y="70" font-size="14" fill="#ffffff" font-weight="bold">ONLINE</text>
    </g>

    <!-- LIVE TRAFFIC -->
    <g transform="translate(330, 100)">
        <rect x="-60" y="-45" width="120" height="90" fill="#0a0a0a" rx="8" stroke="#39FF14" stroke-opacity="0.4" stroke-width="1"/>
        <text x="0" y="-20" font-size="12" fill="#aaaaaa">NETWORK LOAD</text>
        <text x="0" y="15" font-size="28" fill="#ffffff" font-weight="bold" filter="url(#textGlow)">4928</text>
        <text x="0" y="35" font-size="10" fill="#777777">ACTIVE SESSIONS</text>
    </g>

    <!-- ACTIVE AGENTS -->
    <g transform="translate(530, 100)">
        <rect x="-60" y="-45" width="120" height="90" fill="#0a0a0a" rx="8" stroke="#39FF14" stroke-opacity="0.4" stroke-width="1"/>
        <text x="0" y="-20" font-size="12" fill="#aaaaaa">SWARM ENTITIES</text>
        <text x="0" y="15" font-size="28" fill="#ffffff" font-weight="bold" filter="url(#textGlow)">156</text>
        <text x="0" y="35" font-size="10" fill="#777777">AUTONOMOUS</text>
    </g>

    <!-- UPTIME -->
    <g transform="translate(730, 100)">
        <path d="M -40 -35 L 40 -35 L 50 -25 L 50 35 L -40 35 L -50 25 Z" fill="#0a0a0a" stroke="#39FF14" stroke-opacity="0.4" stroke-width="1"/>
        <text x="0" y="-15" font-size="12" fill="#aaaaaa">CONTINUITY</text>
        <text x="0" y="15" font-size="24" fill="#ffffff" font-weight="bold">366<tspan font-size="14" fill="#777777">d</tspan></text>
        <rect x="-35" y="25" width="70" height="4" fill="url(#neonBar)" rx="2"/>
    </g>
  </g>

  <text x="425" y="185" font-family="'Consolas', 'Fira Code', monospace" font-size="10" fill="#aaaaaa" opacity="0.6" text-anchor="middle">LAST TELEMETRY PING: 2026-05-01 07:01:54 UTC // ENCRYPTED_TUNNEL</text>
</svg>