<svg width="850" height="200" viewBox="0 0 850 200" xmlns="http://www.w3.org/2000/svg">
  <defs>
    <pattern id="carbonFiber" width="10" height="10" patternUnits="userSpaceOnUse">
        <rect width="10" height="10" fill="#050505"/>
        <path d="M0,0 L5,5 L10,0 L5,-5 Z M5,5 L10,10 L15,5 L10,0 Z M-5,5 L0,10 L5,5 L0,0 Z M0,10 L5,15 L10,10 L5,5 Z" fill="#0d0d0d"/>
    </pattern>
    <filter id="textGlow">
      <feGaussianBlur stdDeviation="2" result="blur" />
      <feMerge>
        <feMergeNode in="blur"/>
        <feMergeNode in="SourceGraphic"/>
      </feMerge>
    </filter>
    <linearGradient id="neonBar" x1="0%" y1="0%" x2="100%" y2="0%">
        <stop offset="0%" stop-color="#111111"/>
        <stop offset="100%" stop-color="#39FF14"/>
    </linearGradient>
    <linearGradient id="scanlineGrad" x1="0%" y1="0%" x2="100%" y2="0%">
        <stop offset="0%" stop-color="#39FF14" stop-opacity="0"/>
        <stop offset="50%" stop-color="#39FF14" stop-opacity="0.18"/>
        <stop offset="100%" stop-color="#39FF14" stop-opacity="0"/>
    </linearGradient>
    <clipPath id="dashClip">
        <rect x="0" y="0" width="850" height="200" rx="12"/>
    </clipPath>
  </defs>

  <rect width="100%" height="100%" fill="url(#carbonFiber)" rx="12" stroke="#39FF14" stroke-width="1" stroke-opacity="0.3"/>
  <rect width="100%" height="100%" fill="#000000" opacity="0.6" rx="12" />
  <g><polygon points="328,115 336.6,120 336.6,130 328,135 319.4,130 319.4,120" fill="none" stroke="#39FF14" stroke-width="1" opacity="0.043870008621049825"/>
<polygon points="228,68 236.6,73 236.6,83 228,88 219.4,83 219.4,73" fill="none" stroke="#39FF14" stroke-width="1" opacity="0.04971881050521619"/>
<polygon points="56,6 64.6,11 64.6,21 56,26 47.4,21 47.4,11" fill="none" stroke="#39FF14" stroke-width="1" opacity="0.059080698014578034"/>
<polygon points="494,157 502.6,162 502.6,172 494,177 485.4,172 485.4,162" fill="none" stroke="#39FF14" stroke-width="1" opacity="0.051017994291959634"/>
<polygon points="240,-6 248.6,-1 248.6,9 240,14 231.4,9 231.4,-1" fill="none" stroke="#39FF14" stroke-width="1" opacity="0.020257610858507642"/>
<polygon points="578,157 586.6,162 586.6,172 578,177 569.4,172 569.4,162" fill="none" stroke="#39FF14" stroke-width="1" opacity="0.023335495589991186"/>
<polygon points="334,165 342.6,170 342.6,180 334,185 325.4,180 325.4,170" fill="none" stroke="#39FF14" stroke-width="1" opacity="0.058599207614598955"/>
<polygon points="139,100 147.6,105 147.6,115 139,120 130.4,115 130.4,105" fill="none" stroke="#39FF14" stroke-width="1" opacity="0.07161112843416888"/>
<polygon points="56,27 64.6,32 64.6,42 56,47 47.4,42 47.4,32" fill="none" stroke="#39FF14" stroke-width="1" opacity="0.05287982940584271"/>
<polygon points="671,82 679.6,87 679.6,97 671,102 662.4,97 662.4,87" fill="none" stroke="#39FF14" stroke-width="1" opacity="0.023129311224115462"/>
<polygon points="153,164 161.6,169 161.6,179 153,184 144.4,179 144.4,169" fill="none" stroke="#39FF14" stroke-width="1" opacity="0.026430966233286727"/>
<polygon points="703,8 711.6,13 711.6,23 703,28 694.4,23 694.4,13" fill="none" stroke="#39FF14" stroke-width="1" opacity="0.03882082483821983"/>
<polygon points="288,130 296.6,135 296.6,145 288,150 279.4,145 279.4,135" fill="none" stroke="#39FF14" stroke-width="1" opacity="0.037683712281828895"/>
<polygon points="259,82 267.6,87 267.6,97 259,102 250.4,97 250.4,87" fill="none" stroke="#39FF14" stroke-width="1" opacity="0.030287729255686083"/>
<polygon points="622,186 630.6,191 630.6,201 622,206 613.4,201 613.4,191" fill="none" stroke="#39FF14" stroke-width="1" opacity="0.036487347221590756"/>
<polygon points="72,174 80.6,179 80.6,189 72,194 63.4,189 63.4,179" fill="none" stroke="#39FF14" stroke-width="1" opacity="0.055474933223417636"/>
<polygon points="671,127 679.6,132 679.6,142 671,147 662.4,142 662.4,132" fill="none" stroke="#39FF14" stroke-width="1" opacity="0.04270975366058721"/>
<polygon points="430,53 438.6,58 438.6,68 430,73 421.4,68 421.4,58" fill="none" stroke="#39FF14" stroke-width="1" opacity="0.03086183612484162"/>
<polygon points="64,177 72.6,182 72.6,192 64,197 55.4,192 55.4,182" fill="none" stroke="#39FF14" stroke-width="1" opacity="0.0676069891357607"/>
<polygon points="439,12 447.6,17 447.6,27 439,32 430.4,27 430.4,17" fill="none" stroke="#39FF14" stroke-width="1" opacity="0.039503263333227984"/>
<polygon points="663,145 671.6,150 671.6,160 663,165 654.4,160 654.4,150" fill="none" stroke="#39FF14" stroke-width="1" opacity="0.07887968076538418"/>
<polygon points="429,1 437.6,6 437.6,16 429,21 420.4,16 420.4,6" fill="none" stroke="#39FF14" stroke-width="1" opacity="0.07764364600232766"/>
<polygon points="73,41 81.6,46 81.6,56 73,61 64.4,56 64.4,46" fill="none" stroke="#39FF14" stroke-width="1" opacity="0.060947816801187854"/>
<polygon points="251,37 259.6,42 259.6,52 251,57 242.4,52 242.4,42" fill="none" stroke="#39FF14" stroke-width="1" opacity="0.07232074390330494"/>
<polygon points="242,10 250.6,15 250.6,25 242,30 233.4,25 233.4,15" fill="none" stroke="#39FF14" stroke-width="1" opacity="0.06351608181819793"/>
<polygon points="329,179 337.6,184 337.6,194 329,199 320.4,194 320.4,184" fill="none" stroke="#39FF14" stroke-width="1" opacity="0.07238866766941211"/>
<polygon points="669,42 677.6,47 677.6,57 669,62 660.4,57 660.4,47" fill="none" stroke="#39FF14" stroke-width="1" opacity="0.06717449774427868"/>
<polygon points="622,85 630.6,90 630.6,100 622,105 613.4,100 613.4,90" fill="none" stroke="#39FF14" stroke-width="1" opacity="0.020311117685336236"/>
<polygon points="272,-5 280.6,0 280.6,10 272,15 263.4,10 263.4,0" fill="none" stroke="#39FF14" stroke-width="1" opacity="0.0728554415014657"/>
<polygon points="417,137 425.6,142 425.6,152 417,157 408.4,152 408.4,142" fill="none" stroke="#39FF14" stroke-width="1" opacity="0.04924591681713138"/>
</g>

  <!-- HUD Decorative elements -->
  <path d="M 20 20 L 40 20 L 50 30" fill="none" stroke="#39FF14" stroke-width="2" opacity="0.5"/>
  <path d="M 830 180 L 810 180 L 800 170" fill="none" stroke="#39FF14" stroke-width="2" opacity="0.5"/>

  <g clip-path="url(#dashClip)">
    <rect x="-160" y="0" width="160" height="200" fill="url(#scanlineGrad)">
      <animateTransform attributeName="transform" type="translate"
                        from="0 0" to="1010 0" dur="6s" repeatCount="indefinite"/>
    </rect>
  </g>

  <g font-family="'Consolas', 'Fira Code', monospace" text-anchor="middle">

    <!-- NETWORK STATUS -->
    <g transform="translate(130, 100)">
        <circle cx="0" cy="0" r="45" fill="none" stroke="#39FF14" stroke-width="2" stroke-dasharray="10 5">
            <animateTransform attributeName="transform" type="rotate" from="0" to="360" dur="10s" repeatCount="indefinite"/>
        </circle>
        <circle cx="0" cy="0" r="35" fill="#0d0d0d" />
        <text x="0" y="-60" font-size="12" fill="#aaaaaa" letter-spacing="2">ROOT.AUTH</text>
        <text x="0" y="70" font-size="14" fill="#ffffff" font-weight="bold">OPERATIONAL</text>
    </g>

    <!-- ACTIVE USERS -->
    <g transform="translate(330, 100)">
        <text x="0" y="-20" font-size="12" fill="#aaaaaa">CITIZENS</text>
        <text x="0" y="15" font-size="28" fill="#ffffff" font-weight="bold" filter="url(#textGlow)">13,537</text>
        <text x="0" y="35" font-size="10" fill="#777777">VERIFIED HUMANS</text>
    </g>

    <!-- REGISTERED AGENTS -->
    <g transform="translate(530, 100)">
        <text x="0" y="-20" font-size="12" fill="#aaaaaa">AGENTS</text>
        <text x="0" y="15" font-size="28" fill="#00d4ff" font-weight="bold" filter="url(#textGlow)">3,739</text>
        <text x="0" y="35" font-size="10" fill="#777777">REGISTERED DIDs</text>
    </g>

    <!-- TRANSACTIONS -->
    <g transform="translate(730, 100)">
        <text x="0" y="-20" font-size="12" fill="#aaaaaa">TRANSFERS</text>
        <text x="0" y="15" font-size="28" fill="#ffffff" font-weight="bold">28,575</text>
        <text x="0" y="35" font-size="10" fill="#777777">M2M SETTLEMENTS</text>
    </g>
  </g>

  <text x="425" y="185" font-family="'Consolas', 'Fira Code', monospace" font-size="10" fill="#aaaaaa" opacity="0.6" text-anchor="middle">AXIOMID PROJECTED TARGETS (ILLUSTRATIVE): 2026-06-28 18:22:09 UTC // SECURE_HANDSHAKE</text>
</svg>