<svg width="850" height="200" viewBox="0 0 850 200" xmlns="http://www.w3.org/2000/svg">
  <defs>
    <!-- Carbon Fiber Pattern -->
    <pattern id="carbonFiber" width="10" height="10" patternUnits="userSpaceOnUse">
        <rect width="10" height="10" fill="#050505"/>
        <path d="M0,0 L5,5 L10,0 L5,-5 Z M5,5 L10,10 L15,5 L10,0 Z M-5,5 L0,10 L5,5 L0,0 Z M0,10 L5,15 L10,10 L5,5 Z" fill="#0d0d0d"/>
    </pattern>
    <filter id="glassmorphism">
      <feGaussianBlur stdDeviation="3" result="blur" />
      <feColorMatrix type="matrix" values="1 0 0 0 0  0 1 0 0 0  0 0 1 0 0  0 0 0 18 -7" result="glow" />
      <feBlend in="SourceGraphic" in2="glow" mode="normal" />
    </filter>
    <filter id="textGlow">
      <feGaussianBlur stdDeviation="2" result="blur" />
      <feMerge>
        <feMergeNode in="blur"/>
        <feMergeNode in="SourceGraphic"/>
      </feMerge>
    </filter>
    <linearGradient id="neonBar" x1="0%" y1="0%" x2="100%" y2="0%">
        <stop offset="0%" stop-color="#111111"/>
        <stop offset="100%" stop-color="#39FF14"/>
    </linearGradient>
  </defs>

  <rect width="100%" height="100%" fill="url(#carbonFiber)" rx="12" stroke="#39FF14" stroke-width="1" stroke-opacity="0.3"/>
  <rect width="100%" height="100%" fill="#000000" opacity="0.6" rx="12" />
  <g><polygon points="112,73 120.6,78 120.6,88 112,93 103.4,88 103.4,78" fill="none" stroke="#39FF14" stroke-width="1" opacity="0.03901105824314113"/>
<polygon points="436,16 444.6,21 444.6,31 436,36 427.4,31 427.4,21" fill="none" stroke="#39FF14" stroke-width="1" opacity="0.037140267296329695"/>
<polygon points="648,31 656.6,36 656.6,46 648,51 639.4,46 639.4,36" fill="none" stroke="#39FF14" stroke-width="1" opacity="0.04411136577477158"/>
<polygon points="359,150 367.6,155 367.6,165 359,170 350.4,165 350.4,155" fill="none" stroke="#39FF14" stroke-width="1" opacity="0.026516460377555055"/>
<polygon points="613,23 621.6,28 621.6,38 613,43 604.4,38 604.4,28" fill="none" stroke="#39FF14" stroke-width="1" opacity="0.023304292062814282"/>
<polygon points="106,79 114.6,84 114.6,94 106,99 97.4,94 97.4,84" fill="none" stroke="#39FF14" stroke-width="1" opacity="0.023255553842241858"/>
<polygon points="407,24 415.6,29 415.6,39 407,44 398.4,39 398.4,29" fill="none" stroke="#39FF14" stroke-width="1" opacity="0.03174582832235738"/>
<polygon points="220,142 228.6,147 228.6,157 220,162 211.4,157 211.4,147" fill="none" stroke="#39FF14" stroke-width="1" opacity="0.04139780405577882"/>
<polygon points="462,48 470.6,53 470.6,63 462,68 453.4,63 453.4,53" fill="none" stroke="#39FF14" stroke-width="1" opacity="0.03212342152180757"/>
<polygon points="124,127 132.6,132 132.6,142 124,147 115.4,142 115.4,132" fill="none" stroke="#39FF14" stroke-width="1" opacity="0.04965861165011501"/>
<polygon points="625,37 633.6,42 633.6,52 625,57 616.4,52 616.4,42" fill="none" stroke="#39FF14" stroke-width="1" opacity="0.04056443332162661"/>
<polygon points="153,132 161.6,137 161.6,147 153,152 144.4,147 144.4,137" fill="none" stroke="#39FF14" stroke-width="1" opacity="0.07957824860412967"/>
<polygon points="172,123 180.6,128 180.6,138 172,143 163.4,138 163.4,128" fill="none" stroke="#39FF14" stroke-width="1" opacity="0.0732488628405958"/>
<polygon points="272,50 280.6,55 280.6,65 272,70 263.4,65 263.4,55" fill="none" stroke="#39FF14" stroke-width="1" opacity="0.03970829570878999"/>
<polygon points="439,20 447.6,25 447.6,35 439,40 430.4,35 430.4,25" fill="none" stroke="#39FF14" stroke-width="1" opacity="0.04970268360476675"/>
<polygon points="665,70 673.6,75 673.6,85 665,90 656.4,85 656.4,75" fill="none" stroke="#39FF14" stroke-width="1" opacity="0.05874441726704448"/>
<polygon points="491,119 499.6,124 499.6,134 491,139 482.4,134 482.4,124" fill="none" stroke="#39FF14" stroke-width="1" opacity="0.042253175077776976"/>
<polygon points="818,99 826.6,104 826.6,114 818,119 809.4,114 809.4,104" fill="none" stroke="#39FF14" stroke-width="1" opacity="0.028312451781242635"/>
<polygon points="744,84 752.6,89 752.6,99 744,104 735.4,99 735.4,89" fill="none" stroke="#39FF14" stroke-width="1" opacity="0.032423957247273656"/>
<polygon points="499,113 507.6,118 507.6,128 499,133 490.4,128 490.4,118" fill="none" stroke="#39FF14" stroke-width="1" opacity="0.03583637473401126"/>
<polygon points="172,-10 180.6,-5 180.6,5 172,10 163.4,5 163.4,-5" fill="none" stroke="#39FF14" stroke-width="1" opacity="0.04885496507695242"/>
<polygon points="200,16 208.6,21 208.6,31 200,36 191.4,31 191.4,21" fill="none" stroke="#39FF14" stroke-width="1" opacity="0.04160925156162279"/>
<polygon points="360,172 368.6,177 368.6,187 360,192 351.4,187 351.4,177" fill="none" stroke="#39FF14" stroke-width="1" opacity="0.06332308984346889"/>
<polygon points="759,17 767.6,22 767.6,32 759,37 750.4,32 750.4,22" fill="none" stroke="#39FF14" stroke-width="1" opacity="0.06873504605047613"/>
<polygon points="503,109 511.6,114 511.6,124 503,129 494.4,124 494.4,114" fill="none" stroke="#39FF14" stroke-width="1" opacity="0.04259657609285692"/>
<polygon points="82,41 90.6,46 90.6,56 82,61 73.4,56 73.4,46" fill="none" stroke="#39FF14" stroke-width="1" opacity="0.04565587396015895"/>
<polygon points="497,56 505.6,61 505.6,71 497,76 488.4,71 488.4,61" fill="none" stroke="#39FF14" stroke-width="1" opacity="0.024102205348714746"/>
<polygon points="817,71 825.6,76 825.6,86 817,91 808.4,86 808.4,76" fill="none" stroke="#39FF14" stroke-width="1" opacity="0.06581966236711906"/>
<polygon points="485,52 493.6,57 493.6,67 485,72 476.4,67 476.4,57" fill="none" stroke="#39FF14" stroke-width="1" opacity="0.03407751658601518"/>
<polygon points="732,19 740.6,24 740.6,34 732,39 723.4,34 723.4,24" fill="none" stroke="#39FF14" stroke-width="1" opacity="0.03608501049291358"/>
</g>

  <!-- HUD Decorative elements -->
  <path d="M 20 20 L 40 20 L 50 30" fill="none" stroke="#39FF14" stroke-width="2" opacity="0.5"/>
  <path d="M 830 180 L 810 180 L 800 170" fill="none" stroke="#39FF14" stroke-width="2" opacity="0.5"/>
  <rect x="20" y="100" width="2" height="40" fill="#ffffff" opacity="0.4"/>
  <rect x="828" y="60" width="2" height="40" fill="#39FF14" opacity="0.6"/>

  <g font-family="'Consolas', 'Fira Code', monospace" text-anchor="middle">

    <!-- SYSTEM STATUS -->
    <g transform="translate(130, 100)">
        <circle cx="0" cy="0" r="45" fill="none" stroke="#111111" stroke-width="8" />
        <circle cx="0" cy="0" r="45" fill="none" stroke="#39FF14" stroke-width="2" stroke-dasharray="10 5">
            <animateTransform attributeName="transform" type="rotate" from="0" to="360" dur="10s" repeatCount="indefinite"/>
        </circle>
        <circle cx="0" cy="0" r="35" fill="#0d0d0d" />
        <circle cx="0" cy="0" r="6" fill="#39FF14" filter="url(#textGlow)">
            <animate attributeName="opacity" values="1;0.3;1" dur="2s" repeatCount="indefinite"/>
        </circle>
        <text x="0" y="-60" font-size="12" fill="#aaaaaa" letter-spacing="2">SYS.CORE</text>
        <text x="0" y="70" font-size="14" fill="#ffffff" font-weight="bold">ONLINE</text>
    </g>

    <!-- LIVE TRAFFIC -->
    <g transform="translate(330, 100)">
        <rect x="-60" y="-45" width="120" height="90" fill="#0a0a0a" rx="8" stroke="#39FF14" stroke-opacity="0.4" stroke-width="1"/>
        <text x="0" y="-20" font-size="12" fill="#aaaaaa">NETWORK LOAD</text>
        <text x="0" y="15" font-size="28" fill="#ffffff" font-weight="bold" filter="url(#textGlow)">7913</text>
        <text x="0" y="35" font-size="10" fill="#777777">ACTIVE SESSIONS</text>
    </g>

    <!-- ACTIVE AGENTS -->
    <g transform="translate(530, 100)">
        <rect x="-60" y="-45" width="120" height="90" fill="#0a0a0a" rx="8" stroke="#39FF14" stroke-opacity="0.4" stroke-width="1"/>
        <text x="0" y="-20" font-size="12" fill="#aaaaaa">SWARM ENTITIES</text>
        <text x="0" y="15" font-size="28" fill="#ffffff" font-weight="bold" filter="url(#textGlow)">135</text>
        <text x="0" y="35" font-size="10" fill="#777777">AUTONOMOUS</text>
    </g>

    <!-- UPTIME -->
    <g transform="translate(730, 100)">
        <path d="M -40 -35 L 40 -35 L 50 -25 L 50 35 L -40 35 L -50 25 Z" fill="#0a0a0a" stroke="#39FF14" stroke-opacity="0.4" stroke-width="1"/>
        <text x="0" y="-15" font-size="12" fill="#aaaaaa">CONTINUITY</text>
        <text x="0" y="15" font-size="24" fill="#ffffff" font-weight="bold">251<tspan font-size="14" fill="#777777">d</tspan></text>
        <rect x="-35" y="25" width="70" height="4" fill="url(#neonBar)" rx="2"/>
    </g>
  </g>

  <text x="425" y="185" font-family="'Consolas', 'Fira Code', monospace" font-size="10" fill="#aaaaaa" opacity="0.6" text-anchor="middle">LAST TELEMETRY PING: 2026-05-09 00:50:41 UTC // ENCRYPTED_TUNNEL</text>
</svg>