<svg width="850" height="200" viewBox="0 0 850 200" xmlns="http://www.w3.org/2000/svg">
  <defs>
    <!-- Carbon Fiber Pattern -->
    <pattern id="carbonFiber" width="10" height="10" patternUnits="userSpaceOnUse">
        <rect width="10" height="10" fill="#050505"/>
        <path d="M0,0 L5,5 L10,0 L5,-5 Z M5,5 L10,10 L15,5 L10,0 Z M-5,5 L0,10 L5,5 L0,0 Z M0,10 L5,15 L10,10 L5,5 Z" fill="#0d0d0d"/>
    </pattern>
    <filter id="glassmorphism">
      <feGaussianBlur stdDeviation="3" result="blur" />
      <feColorMatrix type="matrix" values="1 0 0 0 0  0 1 0 0 0  0 0 1 0 0  0 0 0 18 -7" result="glow" />
      <feBlend in="SourceGraphic" in2="glow" mode="normal" />
    </filter>
    <filter id="textGlow">
      <feGaussianBlur stdDeviation="2" result="blur" />
      <feMerge>
        <feMergeNode in="blur"/>
        <feMergeNode in="SourceGraphic"/>
      </feMerge>
    </filter>
    <linearGradient id="neonBar" x1="0%" y1="0%" x2="100%" y2="0%">
        <stop offset="0%" stop-color="#111111"/>
        <stop offset="100%" stop-color="#39FF14"/>
    </linearGradient>
  </defs>

  <rect width="100%" height="100%" fill="url(#carbonFiber)" rx="12" stroke="#39FF14" stroke-width="1" stroke-opacity="0.3"/>
  <rect width="100%" height="100%" fill="#000000" opacity="0.6" rx="12" />
  <g><polygon points="672,-1 680.6,4 680.6,14 672,19 663.4,14 663.4,4" fill="none" stroke="#39FF14" stroke-width="1" opacity="0.02655145554070325"/>
<polygon points="349,77 357.6,82 357.6,92 349,97 340.4,92 340.4,82" fill="none" stroke="#39FF14" stroke-width="1" opacity="0.07579706242259368"/>
<polygon points="158,94 166.6,99 166.6,109 158,114 149.4,109 149.4,99" fill="none" stroke="#39FF14" stroke-width="1" opacity="0.06197336249120511"/>
<polygon points="745,139 753.6,144 753.6,154 745,159 736.4,154 736.4,144" fill="none" stroke="#39FF14" stroke-width="1" opacity="0.06039802923009967"/>
<polygon points="487,52 495.6,57 495.6,67 487,72 478.4,67 478.4,57" fill="none" stroke="#39FF14" stroke-width="1" opacity="0.043241109026059606"/>
<polygon points="144,177 152.6,182 152.6,192 144,197 135.4,192 135.4,182" fill="none" stroke="#39FF14" stroke-width="1" opacity="0.0729441476609765"/>
<polygon points="739,75 747.6,80 747.6,90 739,95 730.4,90 730.4,80" fill="none" stroke="#39FF14" stroke-width="1" opacity="0.07428483748539157"/>
<polygon points="53,72 61.6,77 61.6,87 53,92 44.4,87 44.4,77" fill="none" stroke="#39FF14" stroke-width="1" opacity="0.053518344717612354"/>
<polygon points="665,106 673.6,111 673.6,121 665,126 656.4,121 656.4,111" fill="none" stroke="#39FF14" stroke-width="1" opacity="0.03391117736239949"/>
<polygon points="501,157 509.6,162 509.6,172 501,177 492.4,172 492.4,162" fill="none" stroke="#39FF14" stroke-width="1" opacity="0.07549867523637291"/>
<polygon points="651,15 659.6,20 659.6,30 651,35 642.4,30 642.4,20" fill="none" stroke="#39FF14" stroke-width="1" opacity="0.07041740749108939"/>
<polygon points="703,20 711.6,25 711.6,35 703,40 694.4,35 694.4,25" fill="none" stroke="#39FF14" stroke-width="1" opacity="0.04387787466647726"/>
<polygon points="176,29 184.6,34 184.6,44 176,49 167.4,44 167.4,34" fill="none" stroke="#39FF14" stroke-width="1" opacity="0.07782209724683815"/>
<polygon points="797,2 805.6,7 805.6,17 797,22 788.4,17 788.4,7" fill="none" stroke="#39FF14" stroke-width="1" opacity="0.03638357286804824"/>
<polygon points="7,172 15.6,177 15.6,187 7,192 -1.5999999999999996,187 -1.5999999999999996,177" fill="none" stroke="#39FF14" stroke-width="1" opacity="0.032131318545453494"/>
<polygon points="469,142 477.6,147 477.6,157 469,162 460.4,157 460.4,147" fill="none" stroke="#39FF14" stroke-width="1" opacity="0.06271774944292313"/>
<polygon points="611,37 619.6,42 619.6,52 611,57 602.4,52 602.4,42" fill="none" stroke="#39FF14" stroke-width="1" opacity="0.054995183172276293"/>
<polygon points="328,109 336.6,114 336.6,124 328,129 319.4,124 319.4,114" fill="none" stroke="#39FF14" stroke-width="1" opacity="0.03415309169980251"/>
<polygon points="785,186 793.6,191 793.6,201 785,206 776.4,201 776.4,191" fill="none" stroke="#39FF14" stroke-width="1" opacity="0.02243562702296742"/>
<polygon points="130,17 138.6,22 138.6,32 130,37 121.4,32 121.4,22" fill="none" stroke="#39FF14" stroke-width="1" opacity="0.0760889235225994"/>
<polygon points="436,177 444.6,182 444.6,192 436,197 427.4,192 427.4,182" fill="none" stroke="#39FF14" stroke-width="1" opacity="0.031822142618195305"/>
<polygon points="406,37 414.6,42 414.6,52 406,57 397.4,52 397.4,42" fill="none" stroke="#39FF14" stroke-width="1" opacity="0.020967137554527414"/>
<polygon points="95,70 103.6,75 103.6,85 95,90 86.4,85 86.4,75" fill="none" stroke="#39FF14" stroke-width="1" opacity="0.020667606704678355"/>
<polygon points="679,7 687.6,12 687.6,22 679,27 670.4,22 670.4,12" fill="none" stroke="#39FF14" stroke-width="1" opacity="0.03961293417147417"/>
<polygon points="374,4 382.6,9 382.6,19 374,24 365.4,19 365.4,9" fill="none" stroke="#39FF14" stroke-width="1" opacity="0.052484714443470956"/>
<polygon points="225,61 233.6,66 233.6,76 225,81 216.4,76 216.4,66" fill="none" stroke="#39FF14" stroke-width="1" opacity="0.06694452883438166"/>
<polygon points="129,161 137.6,166 137.6,176 129,181 120.4,176 120.4,166" fill="none" stroke="#39FF14" stroke-width="1" opacity="0.060532152037288955"/>
<polygon points="774,70 782.6,75 782.6,85 774,90 765.4,85 765.4,75" fill="none" stroke="#39FF14" stroke-width="1" opacity="0.05996626010557904"/>
<polygon points="206,-6 214.6,-1 214.6,9 206,14 197.4,9 197.4,-1" fill="none" stroke="#39FF14" stroke-width="1" opacity="0.05445301923075978"/>
<polygon points="23,138 31.6,143 31.6,153 23,158 14.4,153 14.4,143" fill="none" stroke="#39FF14" stroke-width="1" opacity="0.06987242939906542"/>
</g>

  <!-- HUD Decorative elements -->
  <path d="M 20 20 L 40 20 L 50 30" fill="none" stroke="#39FF14" stroke-width="2" opacity="0.5"/>
  <path d="M 830 180 L 810 180 L 800 170" fill="none" stroke="#39FF14" stroke-width="2" opacity="0.5"/>
  <rect x="20" y="100" width="2" height="40" fill="#ffffff" opacity="0.4"/>
  <rect x="828" y="60" width="2" height="40" fill="#39FF14" opacity="0.6"/>

  <g font-family="'Consolas', 'Fira Code', monospace" text-anchor="middle">

    <!-- SYSTEM STATUS -->
    <g transform="translate(130, 100)">
        <circle cx="0" cy="0" r="45" fill="none" stroke="#111111" stroke-width="8" />
        <circle cx="0" cy="0" r="45" fill="none" stroke="#39FF14" stroke-width="2" stroke-dasharray="10 5">
            <animateTransform attributeName="transform" type="rotate" from="0" to="360" dur="10s" repeatCount="indefinite"/>
        </circle>
        <circle cx="0" cy="0" r="35" fill="#0d0d0d" />
        <circle cx="0" cy="0" r="6" fill="#39FF14" filter="url(#textGlow)">
            <animate attributeName="opacity" values="1;0.3;1" dur="2s" repeatCount="indefinite"/>
        </circle>
        <text x="0" y="-60" font-size="12" fill="#aaaaaa" letter-spacing="2">SYS.CORE</text>
        <text x="0" y="70" font-size="14" fill="#ffffff" font-weight="bold">ONLINE</text>
    </g>

    <!-- LIVE TRAFFIC -->
    <g transform="translate(330, 100)">
        <rect x="-60" y="-45" width="120" height="90" fill="#0a0a0a" rx="8" stroke="#39FF14" stroke-opacity="0.4" stroke-width="1"/>
        <text x="0" y="-20" font-size="12" fill="#aaaaaa">NETWORK LOAD</text>
        <text x="0" y="15" font-size="28" fill="#ffffff" font-weight="bold" filter="url(#textGlow)">7591</text>
        <text x="0" y="35" font-size="10" fill="#777777">ACTIVE SESSIONS</text>
    </g>

    <!-- ACTIVE AGENTS -->
    <g transform="translate(530, 100)">
        <rect x="-60" y="-45" width="120" height="90" fill="#0a0a0a" rx="8" stroke="#39FF14" stroke-opacity="0.4" stroke-width="1"/>
        <text x="0" y="-20" font-size="12" fill="#aaaaaa">SWARM ENTITIES</text>
        <text x="0" y="15" font-size="28" fill="#ffffff" font-weight="bold" filter="url(#textGlow)">81</text>
        <text x="0" y="35" font-size="10" fill="#777777">AUTONOMOUS</text>
    </g>

    <!-- UPTIME -->
    <g transform="translate(730, 100)">
        <path d="M -40 -35 L 40 -35 L 50 -25 L 50 35 L -40 35 L -50 25 Z" fill="#0a0a0a" stroke="#39FF14" stroke-opacity="0.4" stroke-width="1"/>
        <text x="0" y="-15" font-size="12" fill="#aaaaaa">CONTINUITY</text>
        <text x="0" y="15" font-size="24" fill="#ffffff" font-weight="bold">294<tspan font-size="14" fill="#777777">d</tspan></text>
        <rect x="-35" y="25" width="70" height="4" fill="url(#neonBar)" rx="2"/>
    </g>
  </g>

  <text x="425" y="185" font-family="'Consolas', 'Fira Code', monospace" font-size="10" fill="#aaaaaa" opacity="0.6" text-anchor="middle">LAST TELEMETRY PING: 2026-04-26 16:23:36 UTC // ENCRYPTED_TUNNEL</text>
</svg>