<svg width="850" height="200" viewBox="0 0 850 200" xmlns="http://www.w3.org/2000/svg">
  <defs>
    <pattern id="carbonFiber" width="10" height="10" patternUnits="userSpaceOnUse">
        <rect width="10" height="10" fill="#050505"/>
        <path d="M0,0 L5,5 L10,0 L5,-5 Z M5,5 L10,10 L15,5 L10,0 Z M-5,5 L0,10 L5,5 L0,0 Z M0,10 L5,15 L10,10 L5,5 Z" fill="#0d0d0d"/>
    </pattern>
    <filter id="textGlow">
      <feGaussianBlur stdDeviation="2" result="blur" />
      <feMerge>
        <feMergeNode in="blur"/>
        <feMergeNode in="SourceGraphic"/>
      </feMerge>
    </filter>
    <linearGradient id="neonBar" x1="0%" y1="0%" x2="100%" y2="0%">
        <stop offset="0%" stop-color="#111111"/>
        <stop offset="100%" stop-color="#39FF14"/>
    </linearGradient>
    <linearGradient id="scanlineGrad" x1="0%" y1="0%" x2="100%" y2="0%">
        <stop offset="0%" stop-color="#39FF14" stop-opacity="0"/>
        <stop offset="50%" stop-color="#39FF14" stop-opacity="0.18"/>
        <stop offset="100%" stop-color="#39FF14" stop-opacity="0"/>
    </linearGradient>
    <clipPath id="dashClip">
        <rect x="0" y="0" width="850" height="200" rx="12"/>
    </clipPath>
  </defs>

  <rect width="100%" height="100%" fill="url(#carbonFiber)" rx="12" stroke="#39FF14" stroke-width="1" stroke-opacity="0.3"/>
  <rect width="100%" height="100%" fill="#000000" opacity="0.6" rx="12" />
  <g><polygon points="205,140 213.6,145 213.6,155 205,160 196.4,155 196.4,145" fill="none" stroke="#39FF14" stroke-width="1" opacity="0.03191367783084371"/>
<polygon points="11,188 19.6,193 19.6,203 11,208 2.4000000000000004,203 2.4000000000000004,193" fill="none" stroke="#39FF14" stroke-width="1" opacity="0.038417639566400485"/>
<polygon points="128,76 136.6,81 136.6,91 128,96 119.4,91 119.4,81" fill="none" stroke="#39FF14" stroke-width="1" opacity="0.07522406931611571"/>
<polygon points="313,177 321.6,182 321.6,192 313,197 304.4,192 304.4,182" fill="none" stroke="#39FF14" stroke-width="1" opacity="0.03679000446533583"/>
<polygon points="191,124 199.6,129 199.6,139 191,144 182.4,139 182.4,129" fill="none" stroke="#39FF14" stroke-width="1" opacity="0.0593891337151044"/>
<polygon points="738,165 746.6,170 746.6,180 738,185 729.4,180 729.4,170" fill="none" stroke="#39FF14" stroke-width="1" opacity="0.06429046029357954"/>
<polygon points="719,20 727.6,25 727.6,35 719,40 710.4,35 710.4,25" fill="none" stroke="#39FF14" stroke-width="1" opacity="0.04596133097513223"/>
<polygon points="37,12 45.6,17 45.6,27 37,32 28.4,27 28.4,17" fill="none" stroke="#39FF14" stroke-width="1" opacity="0.05539237345504909"/>
<polygon points="481,102 489.6,107 489.6,117 481,122 472.4,117 472.4,107" fill="none" stroke="#39FF14" stroke-width="1" opacity="0.032214905590343235"/>
<polygon points="704,36 712.6,41 712.6,51 704,56 695.4,51 695.4,41" fill="none" stroke="#39FF14" stroke-width="1" opacity="0.021363098577594417"/>
<polygon points="185,115 193.6,120 193.6,130 185,135 176.4,130 176.4,120" fill="none" stroke="#39FF14" stroke-width="1" opacity="0.048780910608277134"/>
<polygon points="416,143 424.6,148 424.6,158 416,163 407.4,158 407.4,148" fill="none" stroke="#39FF14" stroke-width="1" opacity="0.06506594601487607"/>
<polygon points="43,126 51.6,131 51.6,141 43,146 34.4,141 34.4,131" fill="none" stroke="#39FF14" stroke-width="1" opacity="0.07910609178626969"/>
<polygon points="848,128 856.6,133 856.6,143 848,148 839.4,143 839.4,133" fill="none" stroke="#39FF14" stroke-width="1" opacity="0.07882536513313185"/>
<polygon points="733,60 741.6,65 741.6,75 733,80 724.4,75 724.4,65" fill="none" stroke="#39FF14" stroke-width="1" opacity="0.03790351237637936"/>
<polygon points="332,66 340.6,71 340.6,81 332,86 323.4,81 323.4,71" fill="none" stroke="#39FF14" stroke-width="1" opacity="0.021954760917707407"/>
<polygon points="797,94 805.6,99 805.6,109 797,114 788.4,109 788.4,99" fill="none" stroke="#39FF14" stroke-width="1" opacity="0.0793701574862269"/>
<polygon points="379,72 387.6,77 387.6,87 379,92 370.4,87 370.4,77" fill="none" stroke="#39FF14" stroke-width="1" opacity="0.0579919409111881"/>
<polygon points="460,144 468.6,149 468.6,159 460,164 451.4,159 451.4,149" fill="none" stroke="#39FF14" stroke-width="1" opacity="0.03671163030012392"/>
<polygon points="348,43 356.6,48 356.6,58 348,63 339.4,58 339.4,48" fill="none" stroke="#39FF14" stroke-width="1" opacity="0.05983361690559805"/>
<polygon points="722,97 730.6,102 730.6,112 722,117 713.4,112 713.4,102" fill="none" stroke="#39FF14" stroke-width="1" opacity="0.07302079204864109"/>
<polygon points="322,62 330.6,67 330.6,77 322,82 313.4,77 313.4,67" fill="none" stroke="#39FF14" stroke-width="1" opacity="0.05996963659763539"/>
<polygon points="112,132 120.6,137 120.6,147 112,152 103.4,147 103.4,137" fill="none" stroke="#39FF14" stroke-width="1" opacity="0.07689920468260265"/>
<polygon points="388,98 396.6,103 396.6,113 388,118 379.4,113 379.4,103" fill="none" stroke="#39FF14" stroke-width="1" opacity="0.04070297091817436"/>
<polygon points="56,99 64.6,104 64.6,114 56,119 47.4,114 47.4,104" fill="none" stroke="#39FF14" stroke-width="1" opacity="0.04755022223221129"/>
<polygon points="213,22 221.6,27 221.6,37 213,42 204.4,37 204.4,27" fill="none" stroke="#39FF14" stroke-width="1" opacity="0.07308075264893334"/>
<polygon points="44,33 52.6,38 52.6,48 44,53 35.4,48 35.4,38" fill="none" stroke="#39FF14" stroke-width="1" opacity="0.06607632484767655"/>
<polygon points="699,81 707.6,86 707.6,96 699,101 690.4,96 690.4,86" fill="none" stroke="#39FF14" stroke-width="1" opacity="0.029849380427674876"/>
<polygon points="250,54 258.6,59 258.6,69 250,74 241.4,69 241.4,59" fill="none" stroke="#39FF14" stroke-width="1" opacity="0.02542825337991551"/>
<polygon points="741,97 749.6,102 749.6,112 741,117 732.4,112 732.4,102" fill="none" stroke="#39FF14" stroke-width="1" opacity="0.04687655107231058"/>
</g>

  <!-- HUD Decorative elements -->
  <path d="M 20 20 L 40 20 L 50 30" fill="none" stroke="#39FF14" stroke-width="2" opacity="0.5"/>
  <path d="M 830 180 L 810 180 L 800 170" fill="none" stroke="#39FF14" stroke-width="2" opacity="0.5"/>

  <g clip-path="url(#dashClip)">
    <rect x="-160" y="0" width="160" height="200" fill="url(#scanlineGrad)">
      <animateTransform attributeName="transform" type="translate"
                        from="0 0" to="1010 0" dur="6s" repeatCount="indefinite"/>
    </rect>
  </g>

  <g font-family="'Consolas', 'Fira Code', monospace" text-anchor="middle">

    <!-- NETWORK STATUS -->
    <g transform="translate(130, 100)">
        <circle cx="0" cy="0" r="45" fill="none" stroke="#39FF14" stroke-width="2" stroke-dasharray="10 5">
            <animateTransform attributeName="transform" type="rotate" from="0" to="360" dur="10s" repeatCount="indefinite"/>
        </circle>
        <circle cx="0" cy="0" r="35" fill="#0d0d0d" />
        <text x="0" y="-60" font-size="12" fill="#aaaaaa" letter-spacing="2">ROOT.AUTH</text>
        <text x="0" y="70" font-size="14" fill="#ffffff" font-weight="bold">OPERATIONAL</text>
    </g>

    <!-- ACTIVE USERS -->
    <g transform="translate(330, 100)">
        <text x="0" y="-20" font-size="12" fill="#aaaaaa">CITIZENS</text>
        <text x="0" y="15" font-size="28" fill="#ffffff" font-weight="bold" filter="url(#textGlow)">13,631</text>
        <text x="0" y="35" font-size="10" fill="#777777">VERIFIED HUMANS</text>
    </g>

    <!-- REGISTERED AGENTS -->
    <g transform="translate(530, 100)">
        <text x="0" y="-20" font-size="12" fill="#aaaaaa">AGENTS</text>
        <text x="0" y="15" font-size="28" fill="#00d4ff" font-weight="bold" filter="url(#textGlow)">4,296</text>
        <text x="0" y="35" font-size="10" fill="#777777">REGISTERED DIDs</text>
    </g>

    <!-- TRANSACTIONS -->
    <g transform="translate(730, 100)">
        <text x="0" y="-20" font-size="12" fill="#aaaaaa">TRANSFERS</text>
        <text x="0" y="15" font-size="28" fill="#ffffff" font-weight="bold">40,709</text>
        <text x="0" y="35" font-size="10" fill="#777777">M2M SETTLEMENTS</text>
    </g>
  </g>

  <text x="425" y="185" font-family="'Consolas', 'Fira Code', monospace" font-size="10" fill="#aaaaaa" opacity="0.6" text-anchor="middle">AXIOMID PROJECTED TARGETS (ILLUSTRATIVE): 2026-07-04 10:48:52 UTC // SECURE_HANDSHAKE</text>
</svg>