<svg width="850" height="200" viewBox="0 0 850 200" xmlns="http://www.w3.org/2000/svg">
  <defs>
    <pattern id="carbonFiber" width="10" height="10" patternUnits="userSpaceOnUse">
        <rect width="10" height="10" fill="#050505"/>
        <path d="M0,0 L5,5 L10,0 L5,-5 Z M5,5 L10,10 L15,5 L10,0 Z M-5,5 L0,10 L5,5 L0,0 Z M0,10 L5,15 L10,10 L5,5 Z" fill="#0d0d0d"/>
    </pattern>
    <filter id="textGlow">
      <feGaussianBlur stdDeviation="2" result="blur" />
      <feMerge>
        <feMergeNode in="blur"/>
        <feMergeNode in="SourceGraphic"/>
      </feMerge>
    </filter>
    <linearGradient id="neonBar" x1="0%" y1="0%" x2="100%" y2="0%">
        <stop offset="0%" stop-color="#111111"/>
        <stop offset="100%" stop-color="#39FF14"/>
    </linearGradient>
    <linearGradient id="scanlineGrad" x1="0%" y1="0%" x2="100%" y2="0%">
        <stop offset="0%" stop-color="#39FF14" stop-opacity="0"/>
        <stop offset="50%" stop-color="#39FF14" stop-opacity="0.18"/>
        <stop offset="100%" stop-color="#39FF14" stop-opacity="0"/>
    </linearGradient>
    <clipPath id="dashClip">
        <rect x="0" y="0" width="850" height="200" rx="12"/>
    </clipPath>
  </defs>

  <rect width="100%" height="100%" fill="url(#carbonFiber)" rx="12" stroke="#39FF14" stroke-width="1" stroke-opacity="0.3"/>
  <rect width="100%" height="100%" fill="#000000" opacity="0.6" rx="12" />
  <g><polygon points="358,103 366.6,108 366.6,118 358,123 349.4,118 349.4,108" fill="none" stroke="#39FF14" stroke-width="1" opacity="0.06798885829081226"/>
<polygon points="487,161 495.6,166 495.6,176 487,181 478.4,176 478.4,166" fill="none" stroke="#39FF14" stroke-width="1" opacity="0.07213733171052045"/>
<polygon points="402,48 410.6,53 410.6,63 402,68 393.4,63 393.4,53" fill="none" stroke="#39FF14" stroke-width="1" opacity="0.07468134270366471"/>
<polygon points="774,32 782.6,37 782.6,47 774,52 765.4,47 765.4,37" fill="none" stroke="#39FF14" stroke-width="1" opacity="0.06277828146406224"/>
<polygon points="92,-5 100.6,0 100.6,10 92,15 83.4,10 83.4,0" fill="none" stroke="#39FF14" stroke-width="1" opacity="0.07928974629048584"/>
<polygon points="132,24 140.6,29 140.6,39 132,44 123.4,39 123.4,29" fill="none" stroke="#39FF14" stroke-width="1" opacity="0.06713628776816524"/>
<polygon points="850,108 858.6,113 858.6,123 850,128 841.4,123 841.4,113" fill="none" stroke="#39FF14" stroke-width="1" opacity="0.03485870900713101"/>
<polygon points="410,168 418.6,173 418.6,183 410,188 401.4,183 401.4,173" fill="none" stroke="#39FF14" stroke-width="1" opacity="0.05972085758436442"/>
<polygon points="594,145 602.6,150 602.6,160 594,165 585.4,160 585.4,150" fill="none" stroke="#39FF14" stroke-width="1" opacity="0.054147721135461166"/>
<polygon points="699,92 707.6,97 707.6,107 699,112 690.4,107 690.4,97" fill="none" stroke="#39FF14" stroke-width="1" opacity="0.034769420352958595"/>
<polygon points="535,53 543.6,58 543.6,68 535,73 526.4,68 526.4,58" fill="none" stroke="#39FF14" stroke-width="1" opacity="0.02408167220838218"/>
<polygon points="251,94 259.6,99 259.6,109 251,114 242.4,109 242.4,99" fill="none" stroke="#39FF14" stroke-width="1" opacity="0.04389318218293337"/>
<polygon points="419,64 427.6,69 427.6,79 419,84 410.4,79 410.4,69" fill="none" stroke="#39FF14" stroke-width="1" opacity="0.04571883036912844"/>
<polygon points="447,20 455.6,25 455.6,35 447,40 438.4,35 438.4,25" fill="none" stroke="#39FF14" stroke-width="1" opacity="0.061970221537751155"/>
<polygon points="635,106 643.6,111 643.6,121 635,126 626.4,121 626.4,111" fill="none" stroke="#39FF14" stroke-width="1" opacity="0.04954980144873043"/>
<polygon points="794,39 802.6,44 802.6,54 794,59 785.4,54 785.4,44" fill="none" stroke="#39FF14" stroke-width="1" opacity="0.053613635512088836"/>
<polygon points="388,15 396.6,20 396.6,30 388,35 379.4,30 379.4,20" fill="none" stroke="#39FF14" stroke-width="1" opacity="0.03933959815080018"/>
<polygon points="355,139 363.6,144 363.6,154 355,159 346.4,154 346.4,144" fill="none" stroke="#39FF14" stroke-width="1" opacity="0.06887622718453544"/>
<polygon points="548,70 556.6,75 556.6,85 548,90 539.4,85 539.4,75" fill="none" stroke="#39FF14" stroke-width="1" opacity="0.02633335909596616"/>
<polygon points="75,-4 83.6,1 83.6,11 75,16 66.4,11 66.4,1" fill="none" stroke="#39FF14" stroke-width="1" opacity="0.02110649445212245"/>
<polygon points="630,184 638.6,189 638.6,199 630,204 621.4,199 621.4,189" fill="none" stroke="#39FF14" stroke-width="1" opacity="0.020095437545971113"/>
<polygon points="194,24 202.6,29 202.6,39 194,44 185.4,39 185.4,29" fill="none" stroke="#39FF14" stroke-width="1" opacity="0.0336795202859213"/>
<polygon points="484,147 492.6,152 492.6,162 484,167 475.4,162 475.4,152" fill="none" stroke="#39FF14" stroke-width="1" opacity="0.04232427271063718"/>
<polygon points="433,101 441.6,106 441.6,116 433,121 424.4,116 424.4,106" fill="none" stroke="#39FF14" stroke-width="1" opacity="0.03411627223932154"/>
<polygon points="201,44 209.6,49 209.6,59 201,64 192.4,59 192.4,49" fill="none" stroke="#39FF14" stroke-width="1" opacity="0.07360155387741811"/>
<polygon points="562,88 570.6,93 570.6,103 562,108 553.4,103 553.4,93" fill="none" stroke="#39FF14" stroke-width="1" opacity="0.03402001716387634"/>
<polygon points="490,161 498.6,166 498.6,176 490,181 481.4,176 481.4,166" fill="none" stroke="#39FF14" stroke-width="1" opacity="0.041869384550302535"/>
<polygon points="623,154 631.6,159 631.6,169 623,174 614.4,169 614.4,159" fill="none" stroke="#39FF14" stroke-width="1" opacity="0.05540127531965444"/>
<polygon points="445,146 453.6,151 453.6,161 445,166 436.4,161 436.4,151" fill="none" stroke="#39FF14" stroke-width="1" opacity="0.025843282166548617"/>
<polygon points="120,175 128.6,180 128.6,190 120,195 111.4,190 111.4,180" fill="none" stroke="#39FF14" stroke-width="1" opacity="0.04171465248073636"/>
</g>

  <!-- HUD Decorative elements -->
  <path d="M 20 20 L 40 20 L 50 30" fill="none" stroke="#39FF14" stroke-width="2" opacity="0.5"/>
  <path d="M 830 180 L 810 180 L 800 170" fill="none" stroke="#39FF14" stroke-width="2" opacity="0.5"/>

  <g clip-path="url(#dashClip)">
    <rect x="-160" y="0" width="160" height="200" fill="url(#scanlineGrad)">
      <animateTransform attributeName="transform" type="translate"
                        from="0 0" to="1010 0" dur="6s" repeatCount="indefinite"/>
    </rect>
  </g>

  <g font-family="'Consolas', 'Fira Code', monospace" text-anchor="middle">

    <!-- NETWORK STATUS -->
    <g transform="translate(130, 100)">
        <circle cx="0" cy="0" r="45" fill="none" stroke="#39FF14" stroke-width="2" stroke-dasharray="10 5">
            <animateTransform attributeName="transform" type="rotate" from="0" to="360" dur="10s" repeatCount="indefinite"/>
        </circle>
        <circle cx="0" cy="0" r="35" fill="#0d0d0d" />
        <text x="0" y="-60" font-size="12" fill="#aaaaaa" letter-spacing="2">ROOT.AUTH</text>
        <text x="0" y="70" font-size="14" fill="#ffffff" font-weight="bold">OPERATIONAL</text>
    </g>

    <!-- ACTIVE USERS -->
    <g transform="translate(330, 100)">
        <text x="0" y="-20" font-size="12" fill="#aaaaaa">CITIZENS</text>
        <text x="0" y="15" font-size="28" fill="#ffffff" font-weight="bold" filter="url(#textGlow)">13,706</text>
        <text x="0" y="35" font-size="10" fill="#777777">VERIFIED HUMANS</text>
    </g>

    <!-- REGISTERED AGENTS -->
    <g transform="translate(530, 100)">
        <text x="0" y="-20" font-size="12" fill="#aaaaaa">AGENTS</text>
        <text x="0" y="15" font-size="28" fill="#00d4ff" font-weight="bold" filter="url(#textGlow)">3,240</text>
        <text x="0" y="35" font-size="10" fill="#777777">REGISTERED DIDs</text>
    </g>

    <!-- TRANSACTIONS -->
    <g transform="translate(730, 100)">
        <text x="0" y="-20" font-size="12" fill="#aaaaaa">TRANSFERS</text>
        <text x="0" y="15" font-size="28" fill="#ffffff" font-weight="bold">28,866</text>
        <text x="0" y="35" font-size="10" fill="#777777">M2M SETTLEMENTS</text>
    </g>
  </g>

  <text x="425" y="185" font-family="'Consolas', 'Fira Code', monospace" font-size="10" fill="#aaaaaa" opacity="0.6" text-anchor="middle">AXIOMID PROJECTED TARGETS (ILLUSTRATIVE): 2026-06-21 12:35:41 UTC // SECURE_HANDSHAKE</text>
</svg>