<svg width="850" height="200" viewBox="0 0 850 200" xmlns="http://www.w3.org/2000/svg">
  <defs>
    <pattern id="carbonFiber" width="10" height="10" patternUnits="userSpaceOnUse">
        <rect width="10" height="10" fill="#050505"/>
        <path d="M0,0 L5,5 L10,0 L5,-5 Z M5,5 L10,10 L15,5 L10,0 Z M-5,5 L0,10 L5,5 L0,0 Z M0,10 L5,15 L10,10 L5,5 Z" fill="#0d0d0d"/>
    </pattern>
    <filter id="textGlow">
      <feGaussianBlur stdDeviation="2" result="blur" />
      <feMerge>
        <feMergeNode in="blur"/>
        <feMergeNode in="SourceGraphic"/>
      </feMerge>
    </filter>
    <linearGradient id="neonBar" x1="0%" y1="0%" x2="100%" y2="0%">
        <stop offset="0%" stop-color="#111111"/>
        <stop offset="100%" stop-color="#39FF14"/>
    </linearGradient>
    <linearGradient id="scanlineGrad" x1="0%" y1="0%" x2="100%" y2="0%">
        <stop offset="0%" stop-color="#39FF14" stop-opacity="0"/>
        <stop offset="50%" stop-color="#39FF14" stop-opacity="0.18"/>
        <stop offset="100%" stop-color="#39FF14" stop-opacity="0"/>
    </linearGradient>
    <clipPath id="dashClip">
        <rect x="0" y="0" width="850" height="200" rx="12"/>
    </clipPath>
  </defs>

  <rect width="100%" height="100%" fill="url(#carbonFiber)" rx="12" stroke="#39FF14" stroke-width="1" stroke-opacity="0.3"/>
  <rect width="100%" height="100%" fill="#000000" opacity="0.6" rx="12" />
  <g><polygon points="631,107 639.6,112 639.6,122 631,127 622.4,122 622.4,112" fill="none" stroke="#39FF14" stroke-width="1" opacity="0.031986510677566776"/>
<polygon points="196,45 204.6,50 204.6,60 196,65 187.4,60 187.4,50" fill="none" stroke="#39FF14" stroke-width="1" opacity="0.07354850847879915"/>
<polygon points="90,44 98.6,49 98.6,59 90,64 81.4,59 81.4,49" fill="none" stroke="#39FF14" stroke-width="1" opacity="0.030133512526251807"/>
<polygon points="287,83 295.6,88 295.6,98 287,103 278.4,98 278.4,88" fill="none" stroke="#39FF14" stroke-width="1" opacity="0.062478964663893605"/>
<polygon points="735,12 743.6,17 743.6,27 735,32 726.4,27 726.4,17" fill="none" stroke="#39FF14" stroke-width="1" opacity="0.03291625592388371"/>
<polygon points="5,127 13.6,132 13.6,142 5,147 -3.5999999999999996,142 -3.5999999999999996,132" fill="none" stroke="#39FF14" stroke-width="1" opacity="0.03176886629211819"/>
<polygon points="488,-3 496.6,2 496.6,12 488,17 479.4,12 479.4,2" fill="none" stroke="#39FF14" stroke-width="1" opacity="0.06321564505886845"/>
<polygon points="482,-4 490.6,1 490.6,11 482,16 473.4,11 473.4,1" fill="none" stroke="#39FF14" stroke-width="1" opacity="0.0676172211632618"/>
<polygon points="318,25 326.6,30 326.6,40 318,45 309.4,40 309.4,30" fill="none" stroke="#39FF14" stroke-width="1" opacity="0.07792016504852395"/>
<polygon points="173,85 181.6,90 181.6,100 173,105 164.4,100 164.4,90" fill="none" stroke="#39FF14" stroke-width="1" opacity="0.04084436648365612"/>
<polygon points="670,26 678.6,31 678.6,41 670,46 661.4,41 661.4,31" fill="none" stroke="#39FF14" stroke-width="1" opacity="0.04563858983643965"/>
<polygon points="125,48 133.6,53 133.6,63 125,68 116.4,63 116.4,53" fill="none" stroke="#39FF14" stroke-width="1" opacity="0.052828684608031154"/>
<polygon points="225,33 233.6,38 233.6,48 225,53 216.4,48 216.4,38" fill="none" stroke="#39FF14" stroke-width="1" opacity="0.05700301099560802"/>
<polygon points="746,34 754.6,39 754.6,49 746,54 737.4,49 737.4,39" fill="none" stroke="#39FF14" stroke-width="1" opacity="0.022604799733832857"/>
<polygon points="415,87 423.6,92 423.6,102 415,107 406.4,102 406.4,92" fill="none" stroke="#39FF14" stroke-width="1" opacity="0.07206494467962458"/>
<polygon points="717,63 725.6,68 725.6,78 717,83 708.4,78 708.4,68" fill="none" stroke="#39FF14" stroke-width="1" opacity="0.07080434170706769"/>
<polygon points="134,84 142.6,89 142.6,99 134,104 125.4,99 125.4,89" fill="none" stroke="#39FF14" stroke-width="1" opacity="0.021887613122034515"/>
<polygon points="689,89 697.6,94 697.6,104 689,109 680.4,104 680.4,94" fill="none" stroke="#39FF14" stroke-width="1" opacity="0.032758295623847786"/>
<polygon points="614,159 622.6,164 622.6,174 614,179 605.4,174 605.4,164" fill="none" stroke="#39FF14" stroke-width="1" opacity="0.07141017821811103"/>
<polygon points="68,142 76.6,147 76.6,157 68,162 59.4,157 59.4,147" fill="none" stroke="#39FF14" stroke-width="1" opacity="0.06474951999624154"/>
<polygon points="293,30 301.6,35 301.6,45 293,50 284.4,45 284.4,35" fill="none" stroke="#39FF14" stroke-width="1" opacity="0.021579895720879642"/>
<polygon points="530,151 538.6,156 538.6,166 530,171 521.4,166 521.4,156" fill="none" stroke="#39FF14" stroke-width="1" opacity="0.05314701260187185"/>
<polygon points="49,62 57.6,67 57.6,77 49,82 40.4,77 40.4,67" fill="none" stroke="#39FF14" stroke-width="1" opacity="0.023526695196738702"/>
<polygon points="271,23 279.6,28 279.6,38 271,43 262.4,38 262.4,28" fill="none" stroke="#39FF14" stroke-width="1" opacity="0.023422823220728115"/>
<polygon points="264,33 272.6,38 272.6,48 264,53 255.4,48 255.4,38" fill="none" stroke="#39FF14" stroke-width="1" opacity="0.027272076746746803"/>
<polygon points="662,48 670.6,53 670.6,63 662,68 653.4,63 653.4,53" fill="none" stroke="#39FF14" stroke-width="1" opacity="0.05647627977535455"/>
<polygon points="732,52 740.6,57 740.6,67 732,72 723.4,67 723.4,57" fill="none" stroke="#39FF14" stroke-width="1" opacity="0.030870993808550115"/>
<polygon points="120,98 128.6,103 128.6,113 120,118 111.4,113 111.4,103" fill="none" stroke="#39FF14" stroke-width="1" opacity="0.02368151675246971"/>
<polygon points="536,42 544.6,47 544.6,57 536,62 527.4,57 527.4,47" fill="none" stroke="#39FF14" stroke-width="1" opacity="0.03066226594285753"/>
<polygon points="472,19 480.6,24 480.6,34 472,39 463.4,34 463.4,24" fill="none" stroke="#39FF14" stroke-width="1" opacity="0.0519699615644869"/>
</g>

  <!-- HUD Decorative elements -->
  <path d="M 20 20 L 40 20 L 50 30" fill="none" stroke="#39FF14" stroke-width="2" opacity="0.5"/>
  <path d="M 830 180 L 810 180 L 800 170" fill="none" stroke="#39FF14" stroke-width="2" opacity="0.5"/>

  <g clip-path="url(#dashClip)">
    <rect x="-160" y="0" width="160" height="200" fill="url(#scanlineGrad)">
      <animateTransform attributeName="transform" type="translate"
                        from="0 0" to="1010 0" dur="6s" repeatCount="indefinite"/>
    </rect>
  </g>

  <g font-family="'Consolas', 'Fira Code', monospace" text-anchor="middle">

    <!-- NETWORK STATUS -->
    <g transform="translate(130, 100)">
        <circle cx="0" cy="0" r="45" fill="none" stroke="#39FF14" stroke-width="2" stroke-dasharray="10 5">
            <animateTransform attributeName="transform" type="rotate" from="0" to="360" dur="10s" repeatCount="indefinite"/>
        </circle>
        <circle cx="0" cy="0" r="35" fill="#0d0d0d" />
        <text x="0" y="-60" font-size="12" fill="#aaaaaa" letter-spacing="2">ROOT.AUTH</text>
        <text x="0" y="70" font-size="14" fill="#ffffff" font-weight="bold">OPERATIONAL</text>
    </g>

    <!-- ACTIVE USERS -->
    <g transform="translate(330, 100)">
        <text x="0" y="-20" font-size="12" fill="#aaaaaa">CITIZENS</text>
        <text x="0" y="15" font-size="28" fill="#ffffff" font-weight="bold" filter="url(#textGlow)">15,113</text>
        <text x="0" y="35" font-size="10" fill="#777777">VERIFIED HUMANS</text>
    </g>

    <!-- REGISTERED AGENTS -->
    <g transform="translate(530, 100)">
        <text x="0" y="-20" font-size="12" fill="#aaaaaa">AGENTS</text>
        <text x="0" y="15" font-size="28" fill="#00d4ff" font-weight="bold" filter="url(#textGlow)">3,430</text>
        <text x="0" y="35" font-size="10" fill="#777777">REGISTERED DIDs</text>
    </g>

    <!-- TRANSACTIONS -->
    <g transform="translate(730, 100)">
        <text x="0" y="-20" font-size="12" fill="#aaaaaa">TRANSFERS</text>
        <text x="0" y="15" font-size="28" fill="#ffffff" font-weight="bold">30,104</text>
        <text x="0" y="35" font-size="10" fill="#777777">M2M SETTLEMENTS</text>
    </g>
  </g>

  <text x="425" y="185" font-family="'Consolas', 'Fira Code', monospace" font-size="10" fill="#aaaaaa" opacity="0.6" text-anchor="middle">AXIOMID PROJECTED TARGETS (ILLUSTRATIVE): 2026-06-19 00:39:56 UTC // SECURE_HANDSHAKE</text>
</svg>