<svg width="850" height="200" viewBox="0 0 850 200" xmlns="http://www.w3.org/2000/svg">
  <defs>
    <pattern id="carbonFiber" width="10" height="10" patternUnits="userSpaceOnUse">
        <rect width="10" height="10" fill="#050505"/>
        <path d="M0,0 L5,5 L10,0 L5,-5 Z M5,5 L10,10 L15,5 L10,0 Z M-5,5 L0,10 L5,5 L0,0 Z M0,10 L5,15 L10,10 L5,5 Z" fill="#0d0d0d"/>
    </pattern>
    <filter id="textGlow">
      <feGaussianBlur stdDeviation="2" result="blur" />
      <feMerge>
        <feMergeNode in="blur"/>
        <feMergeNode in="SourceGraphic"/>
      </feMerge>
    </filter>
    <linearGradient id="neonBar" x1="0%" y1="0%" x2="100%" y2="0%">
        <stop offset="0%" stop-color="#111111"/>
        <stop offset="100%" stop-color="#39FF14"/>
    </linearGradient>
    <linearGradient id="scanlineGrad" x1="0%" y1="0%" x2="100%" y2="0%">
        <stop offset="0%" stop-color="#39FF14" stop-opacity="0"/>
        <stop offset="50%" stop-color="#39FF14" stop-opacity="0.18"/>
        <stop offset="100%" stop-color="#39FF14" stop-opacity="0"/>
    </linearGradient>
    <clipPath id="dashClip">
        <rect x="0" y="0" width="850" height="200" rx="12"/>
    </clipPath>
  </defs>

  <rect width="100%" height="100%" fill="url(#carbonFiber)" rx="12" stroke="#39FF14" stroke-width="1" stroke-opacity="0.3"/>
  <rect width="100%" height="100%" fill="#000000" opacity="0.6" rx="12" />
  <g><polygon points="709,91 717.6,96 717.6,106 709,111 700.4,106 700.4,96" fill="none" stroke="#39FF14" stroke-width="1" opacity="0.07143270458438572"/>
<polygon points="447,49 455.6,54 455.6,64 447,69 438.4,64 438.4,54" fill="none" stroke="#39FF14" stroke-width="1" opacity="0.02071626765038551"/>
<polygon points="168,40 176.6,45 176.6,55 168,60 159.4,55 159.4,45" fill="none" stroke="#39FF14" stroke-width="1" opacity="0.04015173139751433"/>
<polygon points="377,0 385.6,5 385.6,15 377,20 368.4,15 368.4,5" fill="none" stroke="#39FF14" stroke-width="1" opacity="0.03854388541283572"/>
<polygon points="780,13 788.6,18 788.6,28 780,33 771.4,28 771.4,18" fill="none" stroke="#39FF14" stroke-width="1" opacity="0.07317122406664701"/>
<polygon points="233,2 241.6,7 241.6,17 233,22 224.4,17 224.4,7" fill="none" stroke="#39FF14" stroke-width="1" opacity="0.02749437236475928"/>
<polygon points="358,114 366.6,119 366.6,129 358,134 349.4,129 349.4,119" fill="none" stroke="#39FF14" stroke-width="1" opacity="0.03931566395259932"/>
<polygon points="384,59 392.6,64 392.6,74 384,79 375.4,74 375.4,64" fill="none" stroke="#39FF14" stroke-width="1" opacity="0.030366046266612656"/>
<polygon points="56,3 64.6,8 64.6,18 56,23 47.4,18 47.4,8" fill="none" stroke="#39FF14" stroke-width="1" opacity="0.04886179829087689"/>
<polygon points="732,81 740.6,86 740.6,96 732,101 723.4,96 723.4,86" fill="none" stroke="#39FF14" stroke-width="1" opacity="0.07489709307183888"/>
<polygon points="230,99 238.6,104 238.6,114 230,119 221.4,114 221.4,104" fill="none" stroke="#39FF14" stroke-width="1" opacity="0.053463890169505285"/>
<polygon points="525,169 533.6,174 533.6,184 525,189 516.4,184 516.4,174" fill="none" stroke="#39FF14" stroke-width="1" opacity="0.044700559082468214"/>
<polygon points="652,18 660.6,23 660.6,33 652,38 643.4,33 643.4,23" fill="none" stroke="#39FF14" stroke-width="1" opacity="0.03429024670483251"/>
<polygon points="66,88 74.6,93 74.6,103 66,108 57.4,103 57.4,93" fill="none" stroke="#39FF14" stroke-width="1" opacity="0.06602498701331674"/>
<polygon points="712,-4 720.6,1 720.6,11 712,16 703.4,11 703.4,1" fill="none" stroke="#39FF14" stroke-width="1" opacity="0.025892333186816333"/>
<polygon points="815,2 823.6,7 823.6,17 815,22 806.4,17 806.4,7" fill="none" stroke="#39FF14" stroke-width="1" opacity="0.04773730903849861"/>
<polygon points="398,16 406.6,21 406.6,31 398,36 389.4,31 389.4,21" fill="none" stroke="#39FF14" stroke-width="1" opacity="0.05194688119127576"/>
<polygon points="263,11 271.6,16 271.6,26 263,31 254.4,26 254.4,16" fill="none" stroke="#39FF14" stroke-width="1" opacity="0.06668415703756983"/>
<polygon points="611,40 619.6,45 619.6,55 611,60 602.4,55 602.4,45" fill="none" stroke="#39FF14" stroke-width="1" opacity="0.06945827363529895"/>
<polygon points="238,1 246.6,6 246.6,16 238,21 229.4,16 229.4,6" fill="none" stroke="#39FF14" stroke-width="1" opacity="0.033159429117993626"/>
<polygon points="422,104 430.6,109 430.6,119 422,124 413.4,119 413.4,109" fill="none" stroke="#39FF14" stroke-width="1" opacity="0.07021942672930293"/>
<polygon points="693,59 701.6,64 701.6,74 693,79 684.4,74 684.4,64" fill="none" stroke="#39FF14" stroke-width="1" opacity="0.0432008381736599"/>
<polygon points="115,139 123.6,144 123.6,154 115,159 106.4,154 106.4,144" fill="none" stroke="#39FF14" stroke-width="1" opacity="0.06478464331887879"/>
<polygon points="302,39 310.6,44 310.6,54 302,59 293.4,54 293.4,44" fill="none" stroke="#39FF14" stroke-width="1" opacity="0.032650454666743926"/>
<polygon points="556,16 564.6,21 564.6,31 556,36 547.4,31 547.4,21" fill="none" stroke="#39FF14" stroke-width="1" opacity="0.06485527390836059"/>
<polygon points="595,51 603.6,56 603.6,66 595,71 586.4,66 586.4,56" fill="none" stroke="#39FF14" stroke-width="1" opacity="0.0376555167137235"/>
<polygon points="82,144 90.6,149 90.6,159 82,164 73.4,159 73.4,149" fill="none" stroke="#39FF14" stroke-width="1" opacity="0.047700520302352015"/>
<polygon points="2,-1 10.6,4 10.6,14 2,19 -6.6,14 -6.6,4" fill="none" stroke="#39FF14" stroke-width="1" opacity="0.06931950777415248"/>
<polygon points="346,190 354.6,195 354.6,205 346,210 337.4,205 337.4,195" fill="none" stroke="#39FF14" stroke-width="1" opacity="0.07399650530546836"/>
<polygon points="50,182 58.6,187 58.6,197 50,202 41.4,197 41.4,187" fill="none" stroke="#39FF14" stroke-width="1" opacity="0.027620038274014373"/>
</g>

  <!-- HUD Decorative elements -->
  <path d="M 20 20 L 40 20 L 50 30" fill="none" stroke="#39FF14" stroke-width="2" opacity="0.5"/>
  <path d="M 830 180 L 810 180 L 800 170" fill="none" stroke="#39FF14" stroke-width="2" opacity="0.5"/>

  <g clip-path="url(#dashClip)">
    <rect x="-160" y="0" width="160" height="200" fill="url(#scanlineGrad)">
      <animateTransform attributeName="transform" type="translate"
                        from="0 0" to="1010 0" dur="6s" repeatCount="indefinite"/>
    </rect>
  </g>

  <g font-family="'Consolas', 'Fira Code', monospace" text-anchor="middle">

    <!-- NETWORK STATUS -->
    <g transform="translate(130, 100)">
        <circle cx="0" cy="0" r="45" fill="none" stroke="#39FF14" stroke-width="2" stroke-dasharray="10 5">
            <animateTransform attributeName="transform" type="rotate" from="0" to="360" dur="10s" repeatCount="indefinite"/>
        </circle>
        <circle cx="0" cy="0" r="35" fill="#0d0d0d" />
        <text x="0" y="-60" font-size="12" fill="#aaaaaa" letter-spacing="2">ROOT.AUTH</text>
        <text x="0" y="70" font-size="14" fill="#ffffff" font-weight="bold">OPERATIONAL</text>
    </g>

    <!-- ACTIVE USERS -->
    <g transform="translate(330, 100)">
        <text x="0" y="-20" font-size="12" fill="#aaaaaa">CITIZENS</text>
        <text x="0" y="15" font-size="28" fill="#ffffff" font-weight="bold" filter="url(#textGlow)">14,290</text>
        <text x="0" y="35" font-size="10" fill="#777777">VERIFIED HUMANS</text>
    </g>

    <!-- REGISTERED AGENTS -->
    <g transform="translate(530, 100)">
        <text x="0" y="-20" font-size="12" fill="#aaaaaa">AGENTS</text>
        <text x="0" y="15" font-size="28" fill="#00d4ff" font-weight="bold" filter="url(#textGlow)">3,620</text>
        <text x="0" y="35" font-size="10" fill="#777777">REGISTERED DIDs</text>
    </g>

    <!-- TRANSACTIONS -->
    <g transform="translate(730, 100)">
        <text x="0" y="-20" font-size="12" fill="#aaaaaa">TRANSFERS</text>
        <text x="0" y="15" font-size="28" fill="#ffffff" font-weight="bold">41,546</text>
        <text x="0" y="35" font-size="10" fill="#777777">M2M SETTLEMENTS</text>
    </g>
  </g>

  <text x="425" y="185" font-family="'Consolas', 'Fira Code', monospace" font-size="10" fill="#aaaaaa" opacity="0.6" text-anchor="middle">AXIOMID PROJECTED TARGETS (ILLUSTRATIVE): 2026-06-28 12:24:09 UTC // SECURE_HANDSHAKE</text>
</svg>