<svg width="850" height="200" viewBox="0 0 850 200" xmlns="http://www.w3.org/2000/svg">
  <defs>
    <pattern id="carbonFiber" width="10" height="10" patternUnits="userSpaceOnUse">
        <rect width="10" height="10" fill="#050505"/>
        <path d="M0,0 L5,5 L10,0 L5,-5 Z M5,5 L10,10 L15,5 L10,0 Z M-5,5 L0,10 L5,5 L0,0 Z M0,10 L5,15 L10,10 L5,5 Z" fill="#0d0d0d"/>
    </pattern>
    <filter id="textGlow">
      <feGaussianBlur stdDeviation="2" result="blur" />
      <feMerge>
        <feMergeNode in="blur"/>
        <feMergeNode in="SourceGraphic"/>
      </feMerge>
    </filter>
    <linearGradient id="neonBar" x1="0%" y1="0%" x2="100%" y2="0%">
        <stop offset="0%" stop-color="#111111"/>
        <stop offset="100%" stop-color="#39FF14"/>
    </linearGradient>
    <linearGradient id="scanlineGrad" x1="0%" y1="0%" x2="100%" y2="0%">
        <stop offset="0%" stop-color="#39FF14" stop-opacity="0"/>
        <stop offset="50%" stop-color="#39FF14" stop-opacity="0.18"/>
        <stop offset="100%" stop-color="#39FF14" stop-opacity="0"/>
    </linearGradient>
    <clipPath id="dashClip">
        <rect x="0" y="0" width="850" height="200" rx="12"/>
    </clipPath>
  </defs>

  <rect width="100%" height="100%" fill="url(#carbonFiber)" rx="12" stroke="#39FF14" stroke-width="1" stroke-opacity="0.3"/>
  <rect width="100%" height="100%" fill="#000000" opacity="0.6" rx="12" />
  <g><polygon points="414,148 422.6,153 422.6,163 414,168 405.4,163 405.4,153" fill="none" stroke="#39FF14" stroke-width="1" opacity="0.046315115040377476"/>
<polygon points="605,125 613.6,130 613.6,140 605,145 596.4,140 596.4,130" fill="none" stroke="#39FF14" stroke-width="1" opacity="0.06669603314351075"/>
<polygon points="741,5 749.6,10 749.6,20 741,25 732.4,20 732.4,10" fill="none" stroke="#39FF14" stroke-width="1" opacity="0.052700502039337765"/>
<polygon points="738,0 746.6,5 746.6,15 738,20 729.4,15 729.4,5" fill="none" stroke="#39FF14" stroke-width="1" opacity="0.06438308825729228"/>
<polygon points="363,6 371.6,11 371.6,21 363,26 354.4,21 354.4,11" fill="none" stroke="#39FF14" stroke-width="1" opacity="0.021160454641087217"/>
<polygon points="125,22 133.6,27 133.6,37 125,42 116.4,37 116.4,27" fill="none" stroke="#39FF14" stroke-width="1" opacity="0.07247053432888312"/>
<polygon points="578,178 586.6,183 586.6,193 578,198 569.4,193 569.4,183" fill="none" stroke="#39FF14" stroke-width="1" opacity="0.04330920962169199"/>
<polygon points="629,96 637.6,101 637.6,111 629,116 620.4,111 620.4,101" fill="none" stroke="#39FF14" stroke-width="1" opacity="0.055094806225406606"/>
<polygon points="38,114 46.6,119 46.6,129 38,134 29.4,129 29.4,119" fill="none" stroke="#39FF14" stroke-width="1" opacity="0.0527853010209651"/>
<polygon points="486,100 494.6,105 494.6,115 486,120 477.4,115 477.4,105" fill="none" stroke="#39FF14" stroke-width="1" opacity="0.07146028685774955"/>
<polygon points="192,146 200.6,151 200.6,161 192,166 183.4,161 183.4,151" fill="none" stroke="#39FF14" stroke-width="1" opacity="0.07737511921448127"/>
<polygon points="843,-10 851.6,-5 851.6,5 843,10 834.4,5 834.4,-5" fill="none" stroke="#39FF14" stroke-width="1" opacity="0.03753872099161466"/>
<polygon points="8,171 16.6,176 16.6,186 8,191 -0.5999999999999996,186 -0.5999999999999996,176" fill="none" stroke="#39FF14" stroke-width="1" opacity="0.05567067115317542"/>
<polygon points="152,172 160.6,177 160.6,187 152,192 143.4,187 143.4,177" fill="none" stroke="#39FF14" stroke-width="1" opacity="0.0711740953184204"/>
<polygon points="476,111 484.6,116 484.6,126 476,131 467.4,126 467.4,116" fill="none" stroke="#39FF14" stroke-width="1" opacity="0.0680986248195588"/>
<polygon points="462,102 470.6,107 470.6,117 462,122 453.4,117 453.4,107" fill="none" stroke="#39FF14" stroke-width="1" opacity="0.020222233163872592"/>
<polygon points="612,8 620.6,13 620.6,23 612,28 603.4,23 603.4,13" fill="none" stroke="#39FF14" stroke-width="1" opacity="0.046297044628704265"/>
<polygon points="591,114 599.6,119 599.6,129 591,134 582.4,129 582.4,119" fill="none" stroke="#39FF14" stroke-width="1" opacity="0.05408467153486819"/>
<polygon points="451,184 459.6,189 459.6,199 451,204 442.4,199 442.4,189" fill="none" stroke="#39FF14" stroke-width="1" opacity="0.06540461317307675"/>
<polygon points="392,74 400.6,79 400.6,89 392,94 383.4,89 383.4,79" fill="none" stroke="#39FF14" stroke-width="1" opacity="0.05065016379470466"/>
<polygon points="592,-2 600.6,3 600.6,13 592,18 583.4,13 583.4,3" fill="none" stroke="#39FF14" stroke-width="1" opacity="0.04934962018241054"/>
<polygon points="233,74 241.6,79 241.6,89 233,94 224.4,89 224.4,79" fill="none" stroke="#39FF14" stroke-width="1" opacity="0.04584061300613297"/>
<polygon points="223,14 231.6,19 231.6,29 223,34 214.4,29 214.4,19" fill="none" stroke="#39FF14" stroke-width="1" opacity="0.04270937868633422"/>
<polygon points="816,1 824.6,6 824.6,16 816,21 807.4,16 807.4,6" fill="none" stroke="#39FF14" stroke-width="1" opacity="0.06396486703427"/>
<polygon points="34,15 42.6,20 42.6,30 34,35 25.4,30 25.4,20" fill="none" stroke="#39FF14" stroke-width="1" opacity="0.07374916726239134"/>
<polygon points="808,162 816.6,167 816.6,177 808,182 799.4,177 799.4,167" fill="none" stroke="#39FF14" stroke-width="1" opacity="0.0350000441423796"/>
<polygon points="185,-5 193.6,0 193.6,10 185,15 176.4,10 176.4,0" fill="none" stroke="#39FF14" stroke-width="1" opacity="0.03922372002047286"/>
<polygon points="791,190 799.6,195 799.6,205 791,210 782.4,205 782.4,195" fill="none" stroke="#39FF14" stroke-width="1" opacity="0.03482420993021717"/>
<polygon points="27,78 35.6,83 35.6,93 27,98 18.4,93 18.4,83" fill="none" stroke="#39FF14" stroke-width="1" opacity="0.046550561569448506"/>
<polygon points="80,92 88.6,97 88.6,107 80,112 71.4,107 71.4,97" fill="none" stroke="#39FF14" stroke-width="1" opacity="0.05701313945989968"/>
</g>

  <!-- HUD Decorative elements -->
  <path d="M 20 20 L 40 20 L 50 30" fill="none" stroke="#39FF14" stroke-width="2" opacity="0.5"/>
  <path d="M 830 180 L 810 180 L 800 170" fill="none" stroke="#39FF14" stroke-width="2" opacity="0.5"/>

  <g clip-path="url(#dashClip)">
    <rect x="-160" y="0" width="160" height="200" fill="url(#scanlineGrad)">
      <animateTransform attributeName="transform" type="translate"
                        from="0 0" to="1010 0" dur="6s" repeatCount="indefinite"/>
    </rect>
  </g>

  <g font-family="'Consolas', 'Fira Code', monospace" text-anchor="middle">

    <!-- NETWORK STATUS -->
    <g transform="translate(130, 100)">
        <circle cx="0" cy="0" r="45" fill="none" stroke="#39FF14" stroke-width="2" stroke-dasharray="10 5">
            <animateTransform attributeName="transform" type="rotate" from="0" to="360" dur="10s" repeatCount="indefinite"/>
        </circle>
        <circle cx="0" cy="0" r="35" fill="#0d0d0d" />
        <text x="0" y="-60" font-size="12" fill="#aaaaaa" letter-spacing="2">ROOT.AUTH</text>
        <text x="0" y="70" font-size="14" fill="#ffffff" font-weight="bold">OPERATIONAL</text>
    </g>

    <!-- ACTIVE USERS -->
    <g transform="translate(330, 100)">
        <text x="0" y="-20" font-size="12" fill="#aaaaaa">CITIZENS</text>
        <text x="0" y="15" font-size="28" fill="#ffffff" font-weight="bold" filter="url(#textGlow)">13,823</text>
        <text x="0" y="35" font-size="10" fill="#777777">VERIFIED HUMANS</text>
    </g>

    <!-- REGISTERED AGENTS -->
    <g transform="translate(530, 100)">
        <text x="0" y="-20" font-size="12" fill="#aaaaaa">AGENTS</text>
        <text x="0" y="15" font-size="28" fill="#00d4ff" font-weight="bold" filter="url(#textGlow)">3,528</text>
        <text x="0" y="35" font-size="10" fill="#777777">REGISTERED DIDs</text>
    </g>

    <!-- TRANSACTIONS -->
    <g transform="translate(730, 100)">
        <text x="0" y="-20" font-size="12" fill="#aaaaaa">TRANSFERS</text>
        <text x="0" y="15" font-size="28" fill="#ffffff" font-weight="bold">25,536</text>
        <text x="0" y="35" font-size="10" fill="#777777">M2M SETTLEMENTS</text>
    </g>
  </g>

  <text x="425" y="185" font-family="'Consolas', 'Fira Code', monospace" font-size="10" fill="#aaaaaa" opacity="0.6" text-anchor="middle">AXIOMID PROJECTED TARGETS (ILLUSTRATIVE): 2026-07-10 16:49:37 UTC // SECURE_HANDSHAKE</text>
</svg>