<svg width="850" height="200" viewBox="0 0 850 200" xmlns="http://www.w3.org/2000/svg">
  <defs>
    <pattern id="carbonFiber" width="10" height="10" patternUnits="userSpaceOnUse">
        <rect width="10" height="10" fill="#050505"/>
        <path d="M0,0 L5,5 L10,0 L5,-5 Z M5,5 L10,10 L15,5 L10,0 Z M-5,5 L0,10 L5,5 L0,0 Z M0,10 L5,15 L10,10 L5,5 Z" fill="#0d0d0d"/>
    </pattern>
    <filter id="textGlow">
      <feGaussianBlur stdDeviation="2" result="blur" />
      <feMerge>
        <feMergeNode in="blur"/>
        <feMergeNode in="SourceGraphic"/>
      </feMerge>
    </filter>
    <linearGradient id="neonBar" x1="0%" y1="0%" x2="100%" y2="0%">
        <stop offset="0%" stop-color="#111111"/>
        <stop offset="100%" stop-color="#39FF14"/>
    </linearGradient>
    <linearGradient id="scanlineGrad" x1="0%" y1="0%" x2="100%" y2="0%">
        <stop offset="0%" stop-color="#39FF14" stop-opacity="0"/>
        <stop offset="50%" stop-color="#39FF14" stop-opacity="0.18"/>
        <stop offset="100%" stop-color="#39FF14" stop-opacity="0"/>
    </linearGradient>
    <clipPath id="dashClip">
        <rect x="0" y="0" width="850" height="200" rx="12"/>
    </clipPath>
  </defs>

  <rect width="100%" height="100%" fill="url(#carbonFiber)" rx="12" stroke="#39FF14" stroke-width="1" stroke-opacity="0.3"/>
  <rect width="100%" height="100%" fill="#000000" opacity="0.6" rx="12" />
  <g><polygon points="206,145 214.6,150 214.6,160 206,165 197.4,160 197.4,150" fill="none" stroke="#39FF14" stroke-width="1" opacity="0.07468402605831378"/>
<polygon points="610,151 618.6,156 618.6,166 610,171 601.4,166 601.4,156" fill="none" stroke="#39FF14" stroke-width="1" opacity="0.04304605293779652"/>
<polygon points="824,178 832.6,183 832.6,193 824,198 815.4,193 815.4,183" fill="none" stroke="#39FF14" stroke-width="1" opacity="0.040165755785948845"/>
<polygon points="259,150 267.6,155 267.6,165 259,170 250.4,165 250.4,155" fill="none" stroke="#39FF14" stroke-width="1" opacity="0.03056228227912356"/>
<polygon points="489,153 497.6,158 497.6,168 489,173 480.4,168 480.4,158" fill="none" stroke="#39FF14" stroke-width="1" opacity="0.06122390461151507"/>
<polygon points="506,185 514.6,190 514.6,200 506,205 497.4,200 497.4,190" fill="none" stroke="#39FF14" stroke-width="1" opacity="0.05380104596428499"/>
<polygon points="539,113 547.6,118 547.6,128 539,133 530.4,128 530.4,118" fill="none" stroke="#39FF14" stroke-width="1" opacity="0.06288673856528208"/>
<polygon points="215,60 223.6,65 223.6,75 215,80 206.4,75 206.4,65" fill="none" stroke="#39FF14" stroke-width="1" opacity="0.042454389899090526"/>
<polygon points="147,175 155.6,180 155.6,190 147,195 138.4,190 138.4,180" fill="none" stroke="#39FF14" stroke-width="1" opacity="0.03366862908361368"/>
<polygon points="35,161 43.6,166 43.6,176 35,181 26.4,176 26.4,166" fill="none" stroke="#39FF14" stroke-width="1" opacity="0.05887442069461177"/>
<polygon points="567,141 575.6,146 575.6,156 567,161 558.4,156 558.4,146" fill="none" stroke="#39FF14" stroke-width="1" opacity="0.06486717505587883"/>
<polygon points="310,12 318.6,17 318.6,27 310,32 301.4,27 301.4,17" fill="none" stroke="#39FF14" stroke-width="1" opacity="0.025602833658587454"/>
<polygon points="648,48 656.6,53 656.6,63 648,68 639.4,63 639.4,53" fill="none" stroke="#39FF14" stroke-width="1" opacity="0.04648015032992619"/>
<polygon points="347,33 355.6,38 355.6,48 347,53 338.4,48 338.4,38" fill="none" stroke="#39FF14" stroke-width="1" opacity="0.07619558260419286"/>
<polygon points="503,2 511.6,7 511.6,17 503,22 494.4,17 494.4,7" fill="none" stroke="#39FF14" stroke-width="1" opacity="0.06198338240121587"/>
<polygon points="702,107 710.6,112 710.6,122 702,127 693.4,122 693.4,112" fill="none" stroke="#39FF14" stroke-width="1" opacity="0.0668348632307837"/>
<polygon points="151,70 159.6,75 159.6,85 151,90 142.4,85 142.4,75" fill="none" stroke="#39FF14" stroke-width="1" opacity="0.07476547117980221"/>
<polygon points="378,83 386.6,88 386.6,98 378,103 369.4,98 369.4,88" fill="none" stroke="#39FF14" stroke-width="1" opacity="0.058534145730422996"/>
<polygon points="551,28 559.6,33 559.6,43 551,48 542.4,43 542.4,33" fill="none" stroke="#39FF14" stroke-width="1" opacity="0.05721475541939293"/>
<polygon points="655,38 663.6,43 663.6,53 655,58 646.4,53 646.4,43" fill="none" stroke="#39FF14" stroke-width="1" opacity="0.05233880443691245"/>
<polygon points="558,63 566.6,68 566.6,78 558,83 549.4,78 549.4,68" fill="none" stroke="#39FF14" stroke-width="1" opacity="0.02123979319017178"/>
<polygon points="93,188 101.6,193 101.6,203 93,208 84.4,203 84.4,193" fill="none" stroke="#39FF14" stroke-width="1" opacity="0.0494382022743824"/>
<polygon points="36,162 44.6,167 44.6,177 36,182 27.4,177 27.4,167" fill="none" stroke="#39FF14" stroke-width="1" opacity="0.03938544728994796"/>
<polygon points="827,170 835.6,175 835.6,185 827,190 818.4,185 818.4,175" fill="none" stroke="#39FF14" stroke-width="1" opacity="0.05597465720990717"/>
<polygon points="420,164 428.6,169 428.6,179 420,184 411.4,179 411.4,169" fill="none" stroke="#39FF14" stroke-width="1" opacity="0.0581167947441453"/>
<polygon points="565,80 573.6,85 573.6,95 565,100 556.4,95 556.4,85" fill="none" stroke="#39FF14" stroke-width="1" opacity="0.07872794839564536"/>
<polygon points="79,78 87.6,83 87.6,93 79,98 70.4,93 70.4,83" fill="none" stroke="#39FF14" stroke-width="1" opacity="0.07385630835817264"/>
<polygon points="141,99 149.6,104 149.6,114 141,119 132.4,114 132.4,104" fill="none" stroke="#39FF14" stroke-width="1" opacity="0.04579083391985936"/>
<polygon points="534,24 542.6,29 542.6,39 534,44 525.4,39 525.4,29" fill="none" stroke="#39FF14" stroke-width="1" opacity="0.058630337353657344"/>
<polygon points="191,99 199.6,104 199.6,114 191,119 182.4,114 182.4,104" fill="none" stroke="#39FF14" stroke-width="1" opacity="0.06053942179633122"/>
</g>

  <!-- HUD Decorative elements -->
  <path d="M 20 20 L 40 20 L 50 30" fill="none" stroke="#39FF14" stroke-width="2" opacity="0.5"/>
  <path d="M 830 180 L 810 180 L 800 170" fill="none" stroke="#39FF14" stroke-width="2" opacity="0.5"/>

  <g clip-path="url(#dashClip)">
    <rect x="-160" y="0" width="160" height="200" fill="url(#scanlineGrad)">
      <animateTransform attributeName="transform" type="translate"
                        from="0 0" to="1010 0" dur="6s" repeatCount="indefinite"/>
    </rect>
  </g>

  <g font-family="'Consolas', 'Fira Code', monospace" text-anchor="middle">

    <!-- NETWORK STATUS -->
    <g transform="translate(130, 100)">
        <circle cx="0" cy="0" r="45" fill="none" stroke="#39FF14" stroke-width="2" stroke-dasharray="10 5">
            <animateTransform attributeName="transform" type="rotate" from="0" to="360" dur="10s" repeatCount="indefinite"/>
        </circle>
        <circle cx="0" cy="0" r="35" fill="#0d0d0d" />
        <text x="0" y="-60" font-size="12" fill="#aaaaaa" letter-spacing="2">ROOT.AUTH</text>
        <text x="0" y="70" font-size="14" fill="#ffffff" font-weight="bold">OPERATIONAL</text>
    </g>

    <!-- ACTIVE USERS -->
    <g transform="translate(330, 100)">
        <text x="0" y="-20" font-size="12" fill="#aaaaaa">CITIZENS</text>
        <text x="0" y="15" font-size="28" fill="#ffffff" font-weight="bold" filter="url(#textGlow)">13,961</text>
        <text x="0" y="35" font-size="10" fill="#777777">VERIFIED HUMANS</text>
    </g>

    <!-- REGISTERED AGENTS -->
    <g transform="translate(530, 100)">
        <text x="0" y="-20" font-size="12" fill="#aaaaaa">AGENTS</text>
        <text x="0" y="15" font-size="28" fill="#00d4ff" font-weight="bold" filter="url(#textGlow)">3,780</text>
        <text x="0" y="35" font-size="10" fill="#777777">REGISTERED DIDs</text>
    </g>

    <!-- TRANSACTIONS -->
    <g transform="translate(730, 100)">
        <text x="0" y="-20" font-size="12" fill="#aaaaaa">TRANSFERS</text>
        <text x="0" y="15" font-size="28" fill="#ffffff" font-weight="bold">25,379</text>
        <text x="0" y="35" font-size="10" fill="#777777">M2M SETTLEMENTS</text>
    </g>
  </g>

  <text x="425" y="185" font-family="'Consolas', 'Fira Code', monospace" font-size="10" fill="#aaaaaa" opacity="0.6" text-anchor="middle">AXIOMID PROJECTED TARGETS (ILLUSTRATIVE): 2026-07-03 01:58:55 UTC // SECURE_HANDSHAKE</text>
</svg>