<svg width="850" height="200" viewBox="0 0 850 200" xmlns="http://www.w3.org/2000/svg">
  <defs>
    <pattern id="carbonFiber" width="10" height="10" patternUnits="userSpaceOnUse">
        <rect width="10" height="10" fill="#050505"/>
        <path d="M0,0 L5,5 L10,0 L5,-5 Z M5,5 L10,10 L15,5 L10,0 Z M-5,5 L0,10 L5,5 L0,0 Z M0,10 L5,15 L10,10 L5,5 Z" fill="#0d0d0d"/>
    </pattern>
    <filter id="textGlow">
      <feGaussianBlur stdDeviation="2" result="blur" />
      <feMerge>
        <feMergeNode in="blur"/>
        <feMergeNode in="SourceGraphic"/>
      </feMerge>
    </filter>
    <linearGradient id="neonBar" x1="0%" y1="0%" x2="100%" y2="0%">
        <stop offset="0%" stop-color="#111111"/>
        <stop offset="100%" stop-color="#39FF14"/>
    </linearGradient>
    <linearGradient id="scanlineGrad" x1="0%" y1="0%" x2="100%" y2="0%">
        <stop offset="0%" stop-color="#39FF14" stop-opacity="0"/>
        <stop offset="50%" stop-color="#39FF14" stop-opacity="0.18"/>
        <stop offset="100%" stop-color="#39FF14" stop-opacity="0"/>
    </linearGradient>
    <clipPath id="dashClip">
        <rect x="0" y="0" width="850" height="200" rx="12"/>
    </clipPath>
  </defs>

  <rect width="100%" height="100%" fill="url(#carbonFiber)" rx="12" stroke="#39FF14" stroke-width="1" stroke-opacity="0.3"/>
  <rect width="100%" height="100%" fill="#000000" opacity="0.6" rx="12" />
  <g><polygon points="30,96 38.6,101 38.6,111 30,116 21.4,111 21.4,101" fill="none" stroke="#39FF14" stroke-width="1" opacity="0.02749640300828382"/>
<polygon points="476,0 484.6,5 484.6,15 476,20 467.4,15 467.4,5" fill="none" stroke="#39FF14" stroke-width="1" opacity="0.049819009170007554"/>
<polygon points="799,116 807.6,121 807.6,131 799,136 790.4,131 790.4,121" fill="none" stroke="#39FF14" stroke-width="1" opacity="0.021361723050833958"/>
<polygon points="144,69 152.6,74 152.6,84 144,89 135.4,84 135.4,74" fill="none" stroke="#39FF14" stroke-width="1" opacity="0.0728415306385843"/>
<polygon points="546,29 554.6,34 554.6,44 546,49 537.4,44 537.4,34" fill="none" stroke="#39FF14" stroke-width="1" opacity="0.05536801858630948"/>
<polygon points="474,66 482.6,71 482.6,81 474,86 465.4,81 465.4,71" fill="none" stroke="#39FF14" stroke-width="1" opacity="0.07132502186358124"/>
<polygon points="322,104 330.6,109 330.6,119 322,124 313.4,119 313.4,109" fill="none" stroke="#39FF14" stroke-width="1" opacity="0.04877810199474545"/>
<polygon points="28,156 36.6,161 36.6,171 28,176 19.4,171 19.4,161" fill="none" stroke="#39FF14" stroke-width="1" opacity="0.07181152748723117"/>
<polygon points="634,181 642.6,186 642.6,196 634,201 625.4,196 625.4,186" fill="none" stroke="#39FF14" stroke-width="1" opacity="0.0288355958716373"/>
<polygon points="756,9 764.6,14 764.6,24 756,29 747.4,24 747.4,14" fill="none" stroke="#39FF14" stroke-width="1" opacity="0.044724045488275466"/>
<polygon points="339,131 347.6,136 347.6,146 339,151 330.4,146 330.4,136" fill="none" stroke="#39FF14" stroke-width="1" opacity="0.02900907199971156"/>
<polygon points="572,54 580.6,59 580.6,69 572,74 563.4,69 563.4,59" fill="none" stroke="#39FF14" stroke-width="1" opacity="0.058251703553174314"/>
<polygon points="13,171 21.6,176 21.6,186 13,191 4.4,186 4.4,176" fill="none" stroke="#39FF14" stroke-width="1" opacity="0.027271030755305747"/>
<polygon points="820,-9 828.6,-4 828.6,6 820,11 811.4,6 811.4,-4" fill="none" stroke="#39FF14" stroke-width="1" opacity="0.02056092881720133"/>
<polygon points="791,147 799.6,152 799.6,162 791,167 782.4,162 782.4,152" fill="none" stroke="#39FF14" stroke-width="1" opacity="0.03169731395916214"/>
<polygon points="122,18 130.6,23 130.6,33 122,38 113.4,33 113.4,23" fill="none" stroke="#39FF14" stroke-width="1" opacity="0.036541966708736745"/>
<polygon points="654,34 662.6,39 662.6,49 654,54 645.4,49 645.4,39" fill="none" stroke="#39FF14" stroke-width="1" opacity="0.035437234250636974"/>
<polygon points="422,164 430.6,169 430.6,179 422,184 413.4,179 413.4,169" fill="none" stroke="#39FF14" stroke-width="1" opacity="0.06953886471432424"/>
<polygon points="266,187 274.6,192 274.6,202 266,207 257.4,202 257.4,192" fill="none" stroke="#39FF14" stroke-width="1" opacity="0.059268606052400474"/>
<polygon points="397,90 405.6,95 405.6,105 397,110 388.4,105 388.4,95" fill="none" stroke="#39FF14" stroke-width="1" opacity="0.028934458837584123"/>
<polygon points="284,70 292.6,75 292.6,85 284,90 275.4,85 275.4,75" fill="none" stroke="#39FF14" stroke-width="1" opacity="0.05786049417484945"/>
<polygon points="123,52 131.6,57 131.6,67 123,72 114.4,67 114.4,57" fill="none" stroke="#39FF14" stroke-width="1" opacity="0.032229119945664304"/>
<polygon points="660,24 668.6,29 668.6,39 660,44 651.4,39 651.4,29" fill="none" stroke="#39FF14" stroke-width="1" opacity="0.06647991605482857"/>
<polygon points="130,153 138.6,158 138.6,168 130,173 121.4,168 121.4,158" fill="none" stroke="#39FF14" stroke-width="1" opacity="0.04479354473001336"/>
<polygon points="839,31 847.6,36 847.6,46 839,51 830.4,46 830.4,36" fill="none" stroke="#39FF14" stroke-width="1" opacity="0.04544582649399226"/>
<polygon points="440,136 448.6,141 448.6,151 440,156 431.4,151 431.4,141" fill="none" stroke="#39FF14" stroke-width="1" opacity="0.03262690253195653"/>
<polygon points="833,75 841.6,80 841.6,90 833,95 824.4,90 824.4,80" fill="none" stroke="#39FF14" stroke-width="1" opacity="0.07018701063123502"/>
<polygon points="197,90 205.6,95 205.6,105 197,110 188.4,105 188.4,95" fill="none" stroke="#39FF14" stroke-width="1" opacity="0.07481510260069223"/>
<polygon points="177,110 185.6,115 185.6,125 177,130 168.4,125 168.4,115" fill="none" stroke="#39FF14" stroke-width="1" opacity="0.05913152809297935"/>
<polygon points="5,40 13.6,45 13.6,55 5,60 -3.5999999999999996,55 -3.5999999999999996,45" fill="none" stroke="#39FF14" stroke-width="1" opacity="0.021752113341700813"/>
</g>

  <!-- HUD Decorative elements -->
  <path d="M 20 20 L 40 20 L 50 30" fill="none" stroke="#39FF14" stroke-width="2" opacity="0.5"/>
  <path d="M 830 180 L 810 180 L 800 170" fill="none" stroke="#39FF14" stroke-width="2" opacity="0.5"/>

  <g clip-path="url(#dashClip)">
    <rect x="-160" y="0" width="160" height="200" fill="url(#scanlineGrad)">
      <animateTransform attributeName="transform" type="translate"
                        from="0 0" to="1010 0" dur="6s" repeatCount="indefinite"/>
    </rect>
  </g>

  <g font-family="'Consolas', 'Fira Code', monospace" text-anchor="middle">

    <!-- NETWORK STATUS -->
    <g transform="translate(130, 100)">
        <circle cx="0" cy="0" r="45" fill="none" stroke="#39FF14" stroke-width="2" stroke-dasharray="10 5">
            <animateTransform attributeName="transform" type="rotate" from="0" to="360" dur="10s" repeatCount="indefinite"/>
        </circle>
        <circle cx="0" cy="0" r="35" fill="#0d0d0d" />
        <text x="0" y="-60" font-size="12" fill="#aaaaaa" letter-spacing="2">ROOT.AUTH</text>
        <text x="0" y="70" font-size="14" fill="#ffffff" font-weight="bold">OPERATIONAL</text>
    </g>

    <!-- ACTIVE USERS -->
    <g transform="translate(330, 100)">
        <text x="0" y="-20" font-size="12" fill="#aaaaaa">CITIZENS</text>
        <text x="0" y="15" font-size="28" fill="#ffffff" font-weight="bold" filter="url(#textGlow)">13,932</text>
        <text x="0" y="35" font-size="10" fill="#777777">VERIFIED HUMANS</text>
    </g>

    <!-- REGISTERED AGENTS -->
    <g transform="translate(530, 100)">
        <text x="0" y="-20" font-size="12" fill="#aaaaaa">AGENTS</text>
        <text x="0" y="15" font-size="28" fill="#00d4ff" font-weight="bold" filter="url(#textGlow)">4,316</text>
        <text x="0" y="35" font-size="10" fill="#777777">REGISTERED DIDs</text>
    </g>

    <!-- TRANSACTIONS -->
    <g transform="translate(730, 100)">
        <text x="0" y="-20" font-size="12" fill="#aaaaaa">TRANSFERS</text>
        <text x="0" y="15" font-size="28" fill="#ffffff" font-weight="bold">40,329</text>
        <text x="0" y="35" font-size="10" fill="#777777">M2M SETTLEMENTS</text>
    </g>
  </g>

  <text x="425" y="185" font-family="'Consolas', 'Fira Code', monospace" font-size="10" fill="#aaaaaa" opacity="0.6" text-anchor="middle">AXIOMID PROJECTED TARGETS (ILLUSTRATIVE): 2026-07-24 19:11:58 UTC // SECURE_HANDSHAKE</text>
</svg>