<svg width="850" height="200" viewBox="0 0 850 200" xmlns="http://www.w3.org/2000/svg">
  <defs>
    <!-- Carbon Fiber Pattern -->
    <pattern id="carbonFiber" width="10" height="10" patternUnits="userSpaceOnUse">
        <rect width="10" height="10" fill="#050505"/>
        <path d="M0,0 L5,5 L10,0 L5,-5 Z M5,5 L10,10 L15,5 L10,0 Z M-5,5 L0,10 L5,5 L0,0 Z M0,10 L5,15 L10,10 L5,5 Z" fill="#0d0d0d"/>
    </pattern>
    <filter id="glassmorphism">
      <feGaussianBlur stdDeviation="3" result="blur" />
      <feColorMatrix type="matrix" values="1 0 0 0 0  0 1 0 0 0  0 0 1 0 0  0 0 0 18 -7" result="glow" />
      <feBlend in="SourceGraphic" in2="glow" mode="normal" />
    </filter>
    <filter id="textGlow">
      <feGaussianBlur stdDeviation="2" result="blur" />
      <feMerge>
        <feMergeNode in="blur"/>
        <feMergeNode in="SourceGraphic"/>
      </feMerge>
    </filter>
    <linearGradient id="neonBar" x1="0%" y1="0%" x2="100%" y2="0%">
        <stop offset="0%" stop-color="#111111"/>
        <stop offset="100%" stop-color="#39FF14"/>
    </linearGradient>
  </defs>

  <rect width="100%" height="100%" fill="url(#carbonFiber)" rx="12" stroke="#39FF14" stroke-width="1" stroke-opacity="0.3"/>
  <rect width="100%" height="100%" fill="#000000" opacity="0.6" rx="12" />
  <g><polygon points="544,60 552.6,65 552.6,75 544,80 535.4,75 535.4,65" fill="none" stroke="#39FF14" stroke-width="1" opacity="0.0686591985659362"/>
<polygon points="350,8 358.6,13 358.6,23 350,28 341.4,23 341.4,13" fill="none" stroke="#39FF14" stroke-width="1" opacity="0.041741077046079905"/>
<polygon points="449,98 457.6,103 457.6,113 449,118 440.4,113 440.4,103" fill="none" stroke="#39FF14" stroke-width="1" opacity="0.050633458657786665"/>
<polygon points="737,51 745.6,56 745.6,66 737,71 728.4,66 728.4,56" fill="none" stroke="#39FF14" stroke-width="1" opacity="0.05075357306330712"/>
<polygon points="481,121 489.6,126 489.6,136 481,141 472.4,136 472.4,126" fill="none" stroke="#39FF14" stroke-width="1" opacity="0.06762733902203924"/>
<polygon points="701,82 709.6,87 709.6,97 701,102 692.4,97 692.4,87" fill="none" stroke="#39FF14" stroke-width="1" opacity="0.0656970292852223"/>
<polygon points="125,85 133.6,90 133.6,100 125,105 116.4,100 116.4,90" fill="none" stroke="#39FF14" stroke-width="1" opacity="0.025478157892966983"/>
<polygon points="168,47 176.6,52 176.6,62 168,67 159.4,62 159.4,52" fill="none" stroke="#39FF14" stroke-width="1" opacity="0.0400282047915609"/>
<polygon points="93,143 101.6,148 101.6,158 93,163 84.4,158 84.4,148" fill="none" stroke="#39FF14" stroke-width="1" opacity="0.04801244076964849"/>
<polygon points="445,183 453.6,188 453.6,198 445,203 436.4,198 436.4,188" fill="none" stroke="#39FF14" stroke-width="1" opacity="0.024034513590443042"/>
<polygon points="575,120 583.6,125 583.6,135 575,140 566.4,135 566.4,125" fill="none" stroke="#39FF14" stroke-width="1" opacity="0.040591576906135796"/>
<polygon points="229,177 237.6,182 237.6,192 229,197 220.4,192 220.4,182" fill="none" stroke="#39FF14" stroke-width="1" opacity="0.039026226092057636"/>
<polygon points="399,89 407.6,94 407.6,104 399,109 390.4,104 390.4,94" fill="none" stroke="#39FF14" stroke-width="1" opacity="0.030315588027374274"/>
<polygon points="648,0 656.6,5 656.6,15 648,20 639.4,15 639.4,5" fill="none" stroke="#39FF14" stroke-width="1" opacity="0.057863202392439556"/>
<polygon points="102,3 110.6,8 110.6,18 102,23 93.4,18 93.4,8" fill="none" stroke="#39FF14" stroke-width="1" opacity="0.0630895103527157"/>
<polygon points="389,82 397.6,87 397.6,97 389,102 380.4,97 380.4,87" fill="none" stroke="#39FF14" stroke-width="1" opacity="0.04292519712114363"/>
<polygon points="434,139 442.6,144 442.6,154 434,159 425.4,154 425.4,144" fill="none" stroke="#39FF14" stroke-width="1" opacity="0.033787041622473285"/>
<polygon points="797,162 805.6,167 805.6,177 797,182 788.4,177 788.4,167" fill="none" stroke="#39FF14" stroke-width="1" opacity="0.0723983456190405"/>
<polygon points="298,150 306.6,155 306.6,165 298,170 289.4,165 289.4,155" fill="none" stroke="#39FF14" stroke-width="1" opacity="0.024494461182363064"/>
<polygon points="57,2 65.6,7 65.6,17 57,22 48.4,17 48.4,7" fill="none" stroke="#39FF14" stroke-width="1" opacity="0.06575010850594656"/>
<polygon points="467,162 475.6,167 475.6,177 467,182 458.4,177 458.4,167" fill="none" stroke="#39FF14" stroke-width="1" opacity="0.04114055686047635"/>
<polygon points="135,47 143.6,52 143.6,62 135,67 126.4,62 126.4,52" fill="none" stroke="#39FF14" stroke-width="1" opacity="0.020445798491931667"/>
<polygon points="233,148 241.6,153 241.6,163 233,168 224.4,163 224.4,153" fill="none" stroke="#39FF14" stroke-width="1" opacity="0.021103283555428936"/>
<polygon points="519,74 527.6,79 527.6,89 519,94 510.4,89 510.4,79" fill="none" stroke="#39FF14" stroke-width="1" opacity="0.039072700979318226"/>
<polygon points="734,138 742.6,143 742.6,153 734,158 725.4,153 725.4,143" fill="none" stroke="#39FF14" stroke-width="1" opacity="0.04201955239127239"/>
<polygon points="521,44 529.6,49 529.6,59 521,64 512.4,59 512.4,49" fill="none" stroke="#39FF14" stroke-width="1" opacity="0.05799088142510486"/>
<polygon points="374,188 382.6,193 382.6,203 374,208 365.4,203 365.4,193" fill="none" stroke="#39FF14" stroke-width="1" opacity="0.0764352182445381"/>
<polygon points="515,74 523.6,79 523.6,89 515,94 506.4,89 506.4,79" fill="none" stroke="#39FF14" stroke-width="1" opacity="0.023880204384588967"/>
<polygon points="751,146 759.6,151 759.6,161 751,166 742.4,161 742.4,151" fill="none" stroke="#39FF14" stroke-width="1" opacity="0.05829684772428352"/>
<polygon points="381,70 389.6,75 389.6,85 381,90 372.4,85 372.4,75" fill="none" stroke="#39FF14" stroke-width="1" opacity="0.049260732434311505"/>
</g>

  <!-- HUD Decorative elements -->
  <path d="M 20 20 L 40 20 L 50 30" fill="none" stroke="#39FF14" stroke-width="2" opacity="0.5"/>
  <path d="M 830 180 L 810 180 L 800 170" fill="none" stroke="#39FF14" stroke-width="2" opacity="0.5"/>
  <rect x="20" y="100" width="2" height="40" fill="#ffffff" opacity="0.4"/>
  <rect x="828" y="60" width="2" height="40" fill="#39FF14" opacity="0.6"/>

  <g font-family="'Consolas', 'Fira Code', monospace" text-anchor="middle">

    <!-- SYSTEM STATUS -->
    <g transform="translate(130, 100)">
        <circle cx="0" cy="0" r="45" fill="none" stroke="#111111" stroke-width="8" />
        <circle cx="0" cy="0" r="45" fill="none" stroke="#39FF14" stroke-width="2" stroke-dasharray="10 5">
            <animateTransform attributeName="transform" type="rotate" from="0" to="360" dur="10s" repeatCount="indefinite"/>
        </circle>
        <circle cx="0" cy="0" r="35" fill="#0d0d0d" />
        <circle cx="0" cy="0" r="6" fill="#39FF14" filter="url(#textGlow)">
            <animate attributeName="opacity" values="1;0.3;1" dur="2s" repeatCount="indefinite"/>
        </circle>
        <text x="0" y="-60" font-size="12" fill="#aaaaaa" letter-spacing="2">SYS.CORE</text>
        <text x="0" y="70" font-size="14" fill="#ffffff" font-weight="bold">ONLINE</text>
    </g>

    <!-- LIVE TRAFFIC -->
    <g transform="translate(330, 100)">
        <rect x="-60" y="-45" width="120" height="90" fill="#0a0a0a" rx="8" stroke="#39FF14" stroke-opacity="0.4" stroke-width="1"/>
        <text x="0" y="-20" font-size="12" fill="#aaaaaa">NETWORK LOAD</text>
        <text x="0" y="15" font-size="28" fill="#ffffff" font-weight="bold" filter="url(#textGlow)">5489</text>
        <text x="0" y="35" font-size="10" fill="#777777">ACTIVE SESSIONS</text>
    </g>

    <!-- ACTIVE AGENTS -->
    <g transform="translate(530, 100)">
        <rect x="-60" y="-45" width="120" height="90" fill="#0a0a0a" rx="8" stroke="#39FF14" stroke-opacity="0.4" stroke-width="1"/>
        <text x="0" y="-20" font-size="12" fill="#aaaaaa">SWARM ENTITIES</text>
        <text x="0" y="15" font-size="28" fill="#ffffff" font-weight="bold" filter="url(#textGlow)">154</text>
        <text x="0" y="35" font-size="10" fill="#777777">AUTONOMOUS</text>
    </g>

    <!-- UPTIME -->
    <g transform="translate(730, 100)">
        <path d="M -40 -35 L 40 -35 L 50 -25 L 50 35 L -40 35 L -50 25 Z" fill="#0a0a0a" stroke="#39FF14" stroke-opacity="0.4" stroke-width="1"/>
        <text x="0" y="-15" font-size="12" fill="#aaaaaa">CONTINUITY</text>
        <text x="0" y="15" font-size="24" fill="#ffffff" font-weight="bold">358<tspan font-size="14" fill="#777777">d</tspan></text>
        <rect x="-35" y="25" width="70" height="4" fill="url(#neonBar)" rx="2"/>
    </g>
  </g>

  <text x="425" y="185" font-family="'Consolas', 'Fira Code', monospace" font-size="10" fill="#aaaaaa" opacity="0.6" text-anchor="middle">LAST TELEMETRY PING: 2026-05-12 12:48:53 UTC // ENCRYPTED_TUNNEL</text>
</svg>