<svg width="850" height="200" viewBox="0 0 850 200" xmlns="http://www.w3.org/2000/svg">
  <defs>
    <pattern id="carbonFiber" width="10" height="10" patternUnits="userSpaceOnUse">
        <rect width="10" height="10" fill="#050505"/>
        <path d="M0,0 L5,5 L10,0 L5,-5 Z M5,5 L10,10 L15,5 L10,0 Z M-5,5 L0,10 L5,5 L0,0 Z M0,10 L5,15 L10,10 L5,5 Z" fill="#0d0d0d"/>
    </pattern>
    <filter id="textGlow">
      <feGaussianBlur stdDeviation="2" result="blur" />
      <feMerge>
        <feMergeNode in="blur"/>
        <feMergeNode in="SourceGraphic"/>
      </feMerge>
    </filter>
    <linearGradient id="neonBar" x1="0%" y1="0%" x2="100%" y2="0%">
        <stop offset="0%" stop-color="#111111"/>
        <stop offset="100%" stop-color="#39FF14"/>
    </linearGradient>
    <linearGradient id="scanlineGrad" x1="0%" y1="0%" x2="100%" y2="0%">
        <stop offset="0%" stop-color="#39FF14" stop-opacity="0"/>
        <stop offset="50%" stop-color="#39FF14" stop-opacity="0.18"/>
        <stop offset="100%" stop-color="#39FF14" stop-opacity="0"/>
    </linearGradient>
    <clipPath id="dashClip">
        <rect x="0" y="0" width="850" height="200" rx="12"/>
    </clipPath>
  </defs>

  <rect width="100%" height="100%" fill="url(#carbonFiber)" rx="12" stroke="#39FF14" stroke-width="1" stroke-opacity="0.3"/>
  <rect width="100%" height="100%" fill="#000000" opacity="0.6" rx="12" />
  <g><polygon points="616,138 624.6,143 624.6,153 616,158 607.4,153 607.4,143" fill="none" stroke="#39FF14" stroke-width="1" opacity="0.02490441214299749"/>
<polygon points="692,87 700.6,92 700.6,102 692,107 683.4,102 683.4,92" fill="none" stroke="#39FF14" stroke-width="1" opacity="0.02578312795266924"/>
<polygon points="270,157 278.6,162 278.6,172 270,177 261.4,172 261.4,162" fill="none" stroke="#39FF14" stroke-width="1" opacity="0.05062780362819528"/>
<polygon points="39,180 47.6,185 47.6,195 39,200 30.4,195 30.4,185" fill="none" stroke="#39FF14" stroke-width="1" opacity="0.031715665056999714"/>
<polygon points="123,94 131.6,99 131.6,109 123,114 114.4,109 114.4,99" fill="none" stroke="#39FF14" stroke-width="1" opacity="0.021909161009060155"/>
<polygon points="340,9 348.6,14 348.6,24 340,29 331.4,24 331.4,14" fill="none" stroke="#39FF14" stroke-width="1" opacity="0.05152680309824527"/>
<polygon points="331,18 339.6,23 339.6,33 331,38 322.4,33 322.4,23" fill="none" stroke="#39FF14" stroke-width="1" opacity="0.07776085159258304"/>
<polygon points="628,38 636.6,43 636.6,53 628,58 619.4,53 619.4,43" fill="none" stroke="#39FF14" stroke-width="1" opacity="0.05907228004025966"/>
<polygon points="476,-4 484.6,1 484.6,11 476,16 467.4,11 467.4,1" fill="none" stroke="#39FF14" stroke-width="1" opacity="0.06610889947267821"/>
<polygon points="33,8 41.6,13 41.6,23 33,28 24.4,23 24.4,13" fill="none" stroke="#39FF14" stroke-width="1" opacity="0.06143585637552024"/>
<polygon points="274,74 282.6,79 282.6,89 274,94 265.4,89 265.4,79" fill="none" stroke="#39FF14" stroke-width="1" opacity="0.07451373112940575"/>
<polygon points="751,37 759.6,42 759.6,52 751,57 742.4,52 742.4,42" fill="none" stroke="#39FF14" stroke-width="1" opacity="0.060228564634363865"/>
<polygon points="821,19 829.6,24 829.6,34 821,39 812.4,34 812.4,24" fill="none" stroke="#39FF14" stroke-width="1" opacity="0.03596497831307592"/>
<polygon points="188,151 196.6,156 196.6,166 188,171 179.4,166 179.4,156" fill="none" stroke="#39FF14" stroke-width="1" opacity="0.0343531093441297"/>
<polygon points="548,140 556.6,145 556.6,155 548,160 539.4,155 539.4,145" fill="none" stroke="#39FF14" stroke-width="1" opacity="0.06322081080147332"/>
<polygon points="483,178 491.6,183 491.6,193 483,198 474.4,193 474.4,183" fill="none" stroke="#39FF14" stroke-width="1" opacity="0.031323612507009116"/>
<polygon points="490,73 498.6,78 498.6,88 490,93 481.4,88 481.4,78" fill="none" stroke="#39FF14" stroke-width="1" opacity="0.03860587245496057"/>
<polygon points="310,20 318.6,25 318.6,35 310,40 301.4,35 301.4,25" fill="none" stroke="#39FF14" stroke-width="1" opacity="0.053881087298186206"/>
<polygon points="171,103 179.6,108 179.6,118 171,123 162.4,118 162.4,108" fill="none" stroke="#39FF14" stroke-width="1" opacity="0.048393508466733"/>
<polygon points="262,178 270.6,183 270.6,193 262,198 253.4,193 253.4,183" fill="none" stroke="#39FF14" stroke-width="1" opacity="0.025168186169285126"/>
<polygon points="215,149 223.6,154 223.6,164 215,169 206.4,164 206.4,154" fill="none" stroke="#39FF14" stroke-width="1" opacity="0.021630040797006474"/>
<polygon points="93,121 101.6,126 101.6,136 93,141 84.4,136 84.4,126" fill="none" stroke="#39FF14" stroke-width="1" opacity="0.061560315191213175"/>
<polygon points="738,53 746.6,58 746.6,68 738,73 729.4,68 729.4,58" fill="none" stroke="#39FF14" stroke-width="1" opacity="0.02854053288873039"/>
<polygon points="300,35 308.6,40 308.6,50 300,55 291.4,50 291.4,40" fill="none" stroke="#39FF14" stroke-width="1" opacity="0.040746864390696774"/>
<polygon points="338,74 346.6,79 346.6,89 338,94 329.4,89 329.4,79" fill="none" stroke="#39FF14" stroke-width="1" opacity="0.0270252492189534"/>
<polygon points="757,120 765.6,125 765.6,135 757,140 748.4,135 748.4,125" fill="none" stroke="#39FF14" stroke-width="1" opacity="0.0751503678935641"/>
<polygon points="30,111 38.6,116 38.6,126 30,131 21.4,126 21.4,116" fill="none" stroke="#39FF14" stroke-width="1" opacity="0.053765648503796074"/>
<polygon points="704,10 712.6,15 712.6,25 704,30 695.4,25 695.4,15" fill="none" stroke="#39FF14" stroke-width="1" opacity="0.07612980960972775"/>
<polygon points="303,111 311.6,116 311.6,126 303,131 294.4,126 294.4,116" fill="none" stroke="#39FF14" stroke-width="1" opacity="0.07173675898433"/>
<polygon points="205,100 213.6,105 213.6,115 205,120 196.4,115 196.4,105" fill="none" stroke="#39FF14" stroke-width="1" opacity="0.058954646823129786"/>
</g>

  <!-- HUD Decorative elements -->
  <path d="M 20 20 L 40 20 L 50 30" fill="none" stroke="#39FF14" stroke-width="2" opacity="0.5"/>
  <path d="M 830 180 L 810 180 L 800 170" fill="none" stroke="#39FF14" stroke-width="2" opacity="0.5"/>

  <g clip-path="url(#dashClip)">
    <rect x="-160" y="0" width="160" height="200" fill="url(#scanlineGrad)">
      <animateTransform attributeName="transform" type="translate"
                        from="0 0" to="1010 0" dur="6s" repeatCount="indefinite"/>
    </rect>
  </g>

  <g font-family="'Consolas', 'Fira Code', monospace" text-anchor="middle">

    <!-- NETWORK STATUS -->
    <g transform="translate(130, 100)">
        <circle cx="0" cy="0" r="45" fill="none" stroke="#39FF14" stroke-width="2" stroke-dasharray="10 5">
            <animateTransform attributeName="transform" type="rotate" from="0" to="360" dur="10s" repeatCount="indefinite"/>
        </circle>
        <circle cx="0" cy="0" r="35" fill="#0d0d0d" />
        <text x="0" y="-60" font-size="12" fill="#aaaaaa" letter-spacing="2">ROOT.AUTH</text>
        <text x="0" y="70" font-size="14" fill="#ffffff" font-weight="bold">OPERATIONAL</text>
    </g>

    <!-- ACTIVE USERS -->
    <g transform="translate(330, 100)">
        <text x="0" y="-20" font-size="12" fill="#aaaaaa">CITIZENS</text>
        <text x="0" y="15" font-size="28" fill="#ffffff" font-weight="bold" filter="url(#textGlow)">14,851</text>
        <text x="0" y="35" font-size="10" fill="#777777">VERIFIED HUMANS</text>
    </g>

    <!-- REGISTERED AGENTS -->
    <g transform="translate(530, 100)">
        <text x="0" y="-20" font-size="12" fill="#aaaaaa">AGENTS</text>
        <text x="0" y="15" font-size="28" fill="#00d4ff" font-weight="bold" filter="url(#textGlow)">4,410</text>
        <text x="0" y="35" font-size="10" fill="#777777">REGISTERED DIDs</text>
    </g>

    <!-- TRANSACTIONS -->
    <g transform="translate(730, 100)">
        <text x="0" y="-20" font-size="12" fill="#aaaaaa">TRANSFERS</text>
        <text x="0" y="15" font-size="28" fill="#ffffff" font-weight="bold">26,785</text>
        <text x="0" y="35" font-size="10" fill="#777777">M2M SETTLEMENTS</text>
    </g>
  </g>

  <text x="425" y="185" font-family="'Consolas', 'Fira Code', monospace" font-size="10" fill="#aaaaaa" opacity="0.6" text-anchor="middle">AXIOMID PROJECTED TARGETS (ILLUSTRATIVE): 2026-07-22 10:09:20 UTC // SECURE_HANDSHAKE</text>
</svg>