<svg width="850" height="200" viewBox="0 0 850 200" xmlns="http://www.w3.org/2000/svg">
  <defs>
    <!-- Carbon Fiber Pattern -->
    <pattern id="carbonFiber" width="10" height="10" patternUnits="userSpaceOnUse">
        <rect width="10" height="10" fill="#050505"/>
        <path d="M0,0 L5,5 L10,0 L5,-5 Z M5,5 L10,10 L15,5 L10,0 Z M-5,5 L0,10 L5,5 L0,0 Z M0,10 L5,15 L10,10 L5,5 Z" fill="#0d0d0d"/>
    </pattern>
    <filter id="glassmorphism">
      <feGaussianBlur stdDeviation="3" result="blur" />
      <feColorMatrix type="matrix" values="1 0 0 0 0  0 1 0 0 0  0 0 1 0 0  0 0 0 18 -7" result="glow" />
      <feBlend in="SourceGraphic" in2="glow" mode="normal" />
    </filter>
    <filter id="textGlow">
      <feGaussianBlur stdDeviation="2" result="blur" />
      <feMerge>
        <feMergeNode in="blur"/>
        <feMergeNode in="SourceGraphic"/>
      </feMerge>
    </filter>
    <linearGradient id="neonBar" x1="0%" y1="0%" x2="100%" y2="0%">
        <stop offset="0%" stop-color="#111111"/>
        <stop offset="100%" stop-color="#39FF14"/>
    </linearGradient>
  </defs>

  <rect width="100%" height="100%" fill="url(#carbonFiber)" rx="12" stroke="#39FF14" stroke-width="1" stroke-opacity="0.3"/>
  <rect width="100%" height="100%" fill="#000000" opacity="0.6" rx="12" />
  <g><polygon points="218,18 226.6,23 226.6,33 218,38 209.4,33 209.4,23" fill="none" stroke="#39FF14" stroke-width="1" opacity="0.056612761099025785"/>
<polygon points="426,152 434.6,157 434.6,167 426,172 417.4,167 417.4,157" fill="none" stroke="#39FF14" stroke-width="1" opacity="0.04146175702457135"/>
<polygon points="98,65 106.6,70 106.6,80 98,85 89.4,80 89.4,70" fill="none" stroke="#39FF14" stroke-width="1" opacity="0.06327186531109813"/>
<polygon points="326,20 334.6,25 334.6,35 326,40 317.4,35 317.4,25" fill="none" stroke="#39FF14" stroke-width="1" opacity="0.0607210175769666"/>
<polygon points="124,141 132.6,146 132.6,156 124,161 115.4,156 115.4,146" fill="none" stroke="#39FF14" stroke-width="1" opacity="0.025773529505070315"/>
<polygon points="604,61 612.6,66 612.6,76 604,81 595.4,76 595.4,66" fill="none" stroke="#39FF14" stroke-width="1" opacity="0.03464855273091701"/>
<polygon points="650,25 658.6,30 658.6,40 650,45 641.4,40 641.4,30" fill="none" stroke="#39FF14" stroke-width="1" opacity="0.0754886039345193"/>
<polygon points="134,91 142.6,96 142.6,106 134,111 125.4,106 125.4,96" fill="none" stroke="#39FF14" stroke-width="1" opacity="0.051873304199977405"/>
<polygon points="312,23 320.6,28 320.6,38 312,43 303.4,38 303.4,28" fill="none" stroke="#39FF14" stroke-width="1" opacity="0.06765103698942423"/>
<polygon points="112,186 120.6,191 120.6,201 112,206 103.4,201 103.4,191" fill="none" stroke="#39FF14" stroke-width="1" opacity="0.04539735786042655"/>
<polygon points="628,-9 636.6,-4 636.6,6 628,11 619.4,6 619.4,-4" fill="none" stroke="#39FF14" stroke-width="1" opacity="0.078874637437104"/>
<polygon points="729,27 737.6,32 737.6,42 729,47 720.4,42 720.4,32" fill="none" stroke="#39FF14" stroke-width="1" opacity="0.03676503299104682"/>
<polygon points="509,-2 517.6,3 517.6,13 509,18 500.4,13 500.4,3" fill="none" stroke="#39FF14" stroke-width="1" opacity="0.03466163507425474"/>
<polygon points="40,0 48.6,5 48.6,15 40,20 31.4,15 31.4,5" fill="none" stroke="#39FF14" stroke-width="1" opacity="0.039561719379372806"/>
<polygon points="266,143 274.6,148 274.6,158 266,163 257.4,158 257.4,148" fill="none" stroke="#39FF14" stroke-width="1" opacity="0.0679051338342029"/>
<polygon points="632,78 640.6,83 640.6,93 632,98 623.4,93 623.4,83" fill="none" stroke="#39FF14" stroke-width="1" opacity="0.023746891810830263"/>
<polygon points="783,112 791.6,117 791.6,127 783,132 774.4,127 774.4,117" fill="none" stroke="#39FF14" stroke-width="1" opacity="0.05122974469706251"/>
<polygon points="579,148 587.6,153 587.6,163 579,168 570.4,163 570.4,153" fill="none" stroke="#39FF14" stroke-width="1" opacity="0.0783370359688473"/>
<polygon points="467,104 475.6,109 475.6,119 467,124 458.4,119 458.4,109" fill="none" stroke="#39FF14" stroke-width="1" opacity="0.05094017939584124"/>
<polygon points="59,121 67.6,126 67.6,136 59,141 50.4,136 50.4,126" fill="none" stroke="#39FF14" stroke-width="1" opacity="0.0720208998700974"/>
<polygon points="756,107 764.6,112 764.6,122 756,127 747.4,122 747.4,112" fill="none" stroke="#39FF14" stroke-width="1" opacity="0.05624467621078488"/>
<polygon points="666,167 674.6,172 674.6,182 666,187 657.4,182 657.4,172" fill="none" stroke="#39FF14" stroke-width="1" opacity="0.044375528857960575"/>
<polygon points="141,45 149.6,50 149.6,60 141,65 132.4,60 132.4,50" fill="none" stroke="#39FF14" stroke-width="1" opacity="0.043492087240379035"/>
<polygon points="338,139 346.6,144 346.6,154 338,159 329.4,154 329.4,144" fill="none" stroke="#39FF14" stroke-width="1" opacity="0.030002523008164673"/>
<polygon points="351,138 359.6,143 359.6,153 351,158 342.4,153 342.4,143" fill="none" stroke="#39FF14" stroke-width="1" opacity="0.06175126329730858"/>
<polygon points="22,99 30.6,104 30.6,114 22,119 13.4,114 13.4,104" fill="none" stroke="#39FF14" stroke-width="1" opacity="0.059291957992699804"/>
<polygon points="783,61 791.6,66 791.6,76 783,81 774.4,76 774.4,66" fill="none" stroke="#39FF14" stroke-width="1" opacity="0.0637190059892449"/>
<polygon points="73,90 81.6,95 81.6,105 73,110 64.4,105 64.4,95" fill="none" stroke="#39FF14" stroke-width="1" opacity="0.05852676842573504"/>
<polygon points="225,31 233.6,36 233.6,46 225,51 216.4,46 216.4,36" fill="none" stroke="#39FF14" stroke-width="1" opacity="0.049676323364635025"/>
<polygon points="576,155 584.6,160 584.6,170 576,175 567.4,170 567.4,160" fill="none" stroke="#39FF14" stroke-width="1" opacity="0.0485160574384078"/>
</g>

  <!-- HUD Decorative elements -->
  <path d="M 20 20 L 40 20 L 50 30" fill="none" stroke="#39FF14" stroke-width="2" opacity="0.5"/>
  <path d="M 830 180 L 810 180 L 800 170" fill="none" stroke="#39FF14" stroke-width="2" opacity="0.5"/>
  <rect x="20" y="100" width="2" height="40" fill="#ffffff" opacity="0.4"/>
  <rect x="828" y="60" width="2" height="40" fill="#39FF14" opacity="0.6"/>

  <g font-family="'Consolas', 'Fira Code', monospace" text-anchor="middle">

    <!-- SYSTEM STATUS -->
    <g transform="translate(130, 100)">
        <circle cx="0" cy="0" r="45" fill="none" stroke="#111111" stroke-width="8" />
        <circle cx="0" cy="0" r="45" fill="none" stroke="#39FF14" stroke-width="2" stroke-dasharray="10 5">
            <animateTransform attributeName="transform" type="rotate" from="0" to="360" dur="10s" repeatCount="indefinite"/>
        </circle>
        <circle cx="0" cy="0" r="35" fill="#0d0d0d" />
        <circle cx="0" cy="0" r="6" fill="#39FF14" filter="url(#textGlow)">
            <animate attributeName="opacity" values="1;0.3;1" dur="2s" repeatCount="indefinite"/>
        </circle>
        <text x="0" y="-60" font-size="12" fill="#aaaaaa" letter-spacing="2">SYS.CORE</text>
        <text x="0" y="70" font-size="14" fill="#ffffff" font-weight="bold">ONLINE</text>
    </g>

    <!-- LIVE TRAFFIC -->
    <g transform="translate(330, 100)">
        <rect x="-60" y="-45" width="120" height="90" fill="#0a0a0a" rx="8" stroke="#39FF14" stroke-opacity="0.4" stroke-width="1"/>
        <text x="0" y="-20" font-size="12" fill="#aaaaaa">NETWORK LOAD</text>
        <text x="0" y="15" font-size="28" fill="#ffffff" font-weight="bold" filter="url(#textGlow)">7850</text>
        <text x="0" y="35" font-size="10" fill="#777777">ACTIVE SESSIONS</text>
    </g>

    <!-- ACTIVE AGENTS -->
    <g transform="translate(530, 100)">
        <rect x="-60" y="-45" width="120" height="90" fill="#0a0a0a" rx="8" stroke="#39FF14" stroke-opacity="0.4" stroke-width="1"/>
        <text x="0" y="-20" font-size="12" fill="#aaaaaa">SWARM ENTITIES</text>
        <text x="0" y="15" font-size="28" fill="#ffffff" font-weight="bold" filter="url(#textGlow)">137</text>
        <text x="0" y="35" font-size="10" fill="#777777">AUTONOMOUS</text>
    </g>

    <!-- UPTIME -->
    <g transform="translate(730, 100)">
        <path d="M -40 -35 L 40 -35 L 50 -25 L 50 35 L -40 35 L -50 25 Z" fill="#0a0a0a" stroke="#39FF14" stroke-opacity="0.4" stroke-width="1"/>
        <text x="0" y="-15" font-size="12" fill="#aaaaaa">CONTINUITY</text>
        <text x="0" y="15" font-size="24" fill="#ffffff" font-weight="bold">340<tspan font-size="14" fill="#777777">d</tspan></text>
        <rect x="-35" y="25" width="70" height="4" fill="url(#neonBar)" rx="2"/>
    </g>
  </g>

  <text x="425" y="185" font-family="'Consolas', 'Fira Code', monospace" font-size="10" fill="#aaaaaa" opacity="0.6" text-anchor="middle">LAST TELEMETRY PING: 2026-04-27 00:47:39 UTC // ENCRYPTED_TUNNEL</text>
</svg>