<svg width="850" height="200" viewBox="0 0 850 200" xmlns="http://www.w3.org/2000/svg">
  <defs>
    <pattern id="carbonFiber" width="10" height="10" patternUnits="userSpaceOnUse">
        <rect width="10" height="10" fill="#050505"/>
        <path d="M0,0 L5,5 L10,0 L5,-5 Z M5,5 L10,10 L15,5 L10,0 Z M-5,5 L0,10 L5,5 L0,0 Z M0,10 L5,15 L10,10 L5,5 Z" fill="#0d0d0d"/>
    </pattern>
    <filter id="textGlow">
      <feGaussianBlur stdDeviation="2" result="blur" />
      <feMerge>
        <feMergeNode in="blur"/>
        <feMergeNode in="SourceGraphic"/>
      </feMerge>
    </filter>
    <linearGradient id="neonBar" x1="0%" y1="0%" x2="100%" y2="0%">
        <stop offset="0%" stop-color="#111111"/>
        <stop offset="100%" stop-color="#39FF14"/>
    </linearGradient>
    <linearGradient id="scanlineGrad" x1="0%" y1="0%" x2="100%" y2="0%">
        <stop offset="0%" stop-color="#39FF14" stop-opacity="0"/>
        <stop offset="50%" stop-color="#39FF14" stop-opacity="0.18"/>
        <stop offset="100%" stop-color="#39FF14" stop-opacity="0"/>
    </linearGradient>
    <clipPath id="dashClip">
        <rect x="0" y="0" width="850" height="200" rx="12"/>
    </clipPath>
  </defs>

  <rect width="100%" height="100%" fill="url(#carbonFiber)" rx="12" stroke="#39FF14" stroke-width="1" stroke-opacity="0.3"/>
  <rect width="100%" height="100%" fill="#000000" opacity="0.6" rx="12" />
  <g><polygon points="131,148 139.6,153 139.6,163 131,168 122.4,163 122.4,153" fill="none" stroke="#39FF14" stroke-width="1" opacity="0.03820849087792873"/>
<polygon points="545,34 553.6,39 553.6,49 545,54 536.4,49 536.4,39" fill="none" stroke="#39FF14" stroke-width="1" opacity="0.06619917730512509"/>
<polygon points="269,163 277.6,168 277.6,178 269,183 260.4,178 260.4,168" fill="none" stroke="#39FF14" stroke-width="1" opacity="0.056190031497358406"/>
<polygon points="438,178 446.6,183 446.6,193 438,198 429.4,193 429.4,183" fill="none" stroke="#39FF14" stroke-width="1" opacity="0.06325683634307636"/>
<polygon points="189,127 197.6,132 197.6,142 189,147 180.4,142 180.4,132" fill="none" stroke="#39FF14" stroke-width="1" opacity="0.07667330099199454"/>
<polygon points="758,98 766.6,103 766.6,113 758,118 749.4,113 749.4,103" fill="none" stroke="#39FF14" stroke-width="1" opacity="0.035732094112148144"/>
<polygon points="697,81 705.6,86 705.6,96 697,101 688.4,96 688.4,86" fill="none" stroke="#39FF14" stroke-width="1" opacity="0.0490408544143629"/>
<polygon points="94,188 102.6,193 102.6,203 94,208 85.4,203 85.4,193" fill="none" stroke="#39FF14" stroke-width="1" opacity="0.06553859074025208"/>
<polygon points="128,115 136.6,120 136.6,130 128,135 119.4,130 119.4,120" fill="none" stroke="#39FF14" stroke-width="1" opacity="0.043947882058335164"/>
<polygon points="599,136 607.6,141 607.6,151 599,156 590.4,151 590.4,141" fill="none" stroke="#39FF14" stroke-width="1" opacity="0.06350041561717014"/>
<polygon points="225,123 233.6,128 233.6,138 225,143 216.4,138 216.4,128" fill="none" stroke="#39FF14" stroke-width="1" opacity="0.06956539467569235"/>
<polygon points="795,176 803.6,181 803.6,191 795,196 786.4,191 786.4,181" fill="none" stroke="#39FF14" stroke-width="1" opacity="0.059863636631393366"/>
<polygon points="241,94 249.6,99 249.6,109 241,114 232.4,109 232.4,99" fill="none" stroke="#39FF14" stroke-width="1" opacity="0.02459213548472551"/>
<polygon points="745,125 753.6,130 753.6,140 745,145 736.4,140 736.4,130" fill="none" stroke="#39FF14" stroke-width="1" opacity="0.07356226114941991"/>
<polygon points="316,3 324.6,8 324.6,18 316,23 307.4,18 307.4,8" fill="none" stroke="#39FF14" stroke-width="1" opacity="0.06925449794387406"/>
<polygon points="299,33 307.6,38 307.6,48 299,53 290.4,48 290.4,38" fill="none" stroke="#39FF14" stroke-width="1" opacity="0.03432363283260619"/>
<polygon points="620,163 628.6,168 628.6,178 620,183 611.4,178 611.4,168" fill="none" stroke="#39FF14" stroke-width="1" opacity="0.03219431339060496"/>
<polygon points="484,48 492.6,53 492.6,63 484,68 475.4,63 475.4,53" fill="none" stroke="#39FF14" stroke-width="1" opacity="0.0754474621064597"/>
<polygon points="842,57 850.6,62 850.6,72 842,77 833.4,72 833.4,62" fill="none" stroke="#39FF14" stroke-width="1" opacity="0.029459052035672034"/>
<polygon points="434,32 442.6,37 442.6,47 434,52 425.4,47 425.4,37" fill="none" stroke="#39FF14" stroke-width="1" opacity="0.04772626915827842"/>
<polygon points="609,121 617.6,126 617.6,136 609,141 600.4,136 600.4,126" fill="none" stroke="#39FF14" stroke-width="1" opacity="0.05128045748241131"/>
<polygon points="431,143 439.6,148 439.6,158 431,163 422.4,158 422.4,148" fill="none" stroke="#39FF14" stroke-width="1" opacity="0.06997356659071213"/>
<polygon points="681,89 689.6,94 689.6,104 681,109 672.4,104 672.4,94" fill="none" stroke="#39FF14" stroke-width="1" opacity="0.02905070580500623"/>
<polygon points="345,183 353.6,188 353.6,198 345,203 336.4,198 336.4,188" fill="none" stroke="#39FF14" stroke-width="1" opacity="0.06176100469219517"/>
<polygon points="363,136 371.6,141 371.6,151 363,156 354.4,151 354.4,141" fill="none" stroke="#39FF14" stroke-width="1" opacity="0.03509307153979574"/>
<polygon points="715,63 723.6,68 723.6,78 715,83 706.4,78 706.4,68" fill="none" stroke="#39FF14" stroke-width="1" opacity="0.070160414635853"/>
<polygon points="137,63 145.6,68 145.6,78 137,83 128.4,78 128.4,68" fill="none" stroke="#39FF14" stroke-width="1" opacity="0.031720051741088995"/>
<polygon points="36,66 44.6,71 44.6,81 36,86 27.4,81 27.4,71" fill="none" stroke="#39FF14" stroke-width="1" opacity="0.03716977933869762"/>
<polygon points="814,103 822.6,108 822.6,118 814,123 805.4,118 805.4,108" fill="none" stroke="#39FF14" stroke-width="1" opacity="0.07267094534768267"/>
<polygon points="532,160 540.6,165 540.6,175 532,180 523.4,175 523.4,165" fill="none" stroke="#39FF14" stroke-width="1" opacity="0.060593930155128845"/>
</g>

  <!-- HUD Decorative elements -->
  <path d="M 20 20 L 40 20 L 50 30" fill="none" stroke="#39FF14" stroke-width="2" opacity="0.5"/>
  <path d="M 830 180 L 810 180 L 800 170" fill="none" stroke="#39FF14" stroke-width="2" opacity="0.5"/>

  <g clip-path="url(#dashClip)">
    <rect x="-160" y="0" width="160" height="200" fill="url(#scanlineGrad)">
      <animateTransform attributeName="transform" type="translate"
                        from="0 0" to="1010 0" dur="6s" repeatCount="indefinite"/>
    </rect>
  </g>

  <g font-family="'Consolas', 'Fira Code', monospace" text-anchor="middle">

    <!-- NETWORK STATUS -->
    <g transform="translate(130, 100)">
        <circle cx="0" cy="0" r="45" fill="none" stroke="#39FF14" stroke-width="2" stroke-dasharray="10 5">
            <animateTransform attributeName="transform" type="rotate" from="0" to="360" dur="10s" repeatCount="indefinite"/>
        </circle>
        <circle cx="0" cy="0" r="35" fill="#0d0d0d" />
        <text x="0" y="-60" font-size="12" fill="#aaaaaa" letter-spacing="2">ROOT.AUTH</text>
        <text x="0" y="70" font-size="14" fill="#ffffff" font-weight="bold">OPERATIONAL</text>
    </g>

    <!-- ACTIVE USERS -->
    <g transform="translate(330, 100)">
        <text x="0" y="-20" font-size="12" fill="#aaaaaa">CITIZENS</text>
        <text x="0" y="15" font-size="28" fill="#ffffff" font-weight="bold" filter="url(#textGlow)">15,139</text>
        <text x="0" y="35" font-size="10" fill="#777777">VERIFIED HUMANS</text>
    </g>

    <!-- REGISTERED AGENTS -->
    <g transform="translate(530, 100)">
        <text x="0" y="-20" font-size="12" fill="#aaaaaa">AGENTS</text>
        <text x="0" y="15" font-size="28" fill="#00d4ff" font-weight="bold" filter="url(#textGlow)">3,248</text>
        <text x="0" y="35" font-size="10" fill="#777777">REGISTERED DIDs</text>
    </g>

    <!-- TRANSACTIONS -->
    <g transform="translate(730, 100)">
        <text x="0" y="-20" font-size="12" fill="#aaaaaa">TRANSFERS</text>
        <text x="0" y="15" font-size="28" fill="#ffffff" font-weight="bold">35,624</text>
        <text x="0" y="35" font-size="10" fill="#777777">M2M SETTLEMENTS</text>
    </g>
  </g>

  <text x="425" y="185" font-family="'Consolas', 'Fira Code', monospace" font-size="10" fill="#aaaaaa" opacity="0.6" text-anchor="middle">AXIOMID PROJECTED TARGETS (ILLUSTRATIVE): 2026-07-05 13:07:47 UTC // SECURE_HANDSHAKE</text>
</svg>