<svg width="850" height="200" viewBox="0 0 850 200" xmlns="http://www.w3.org/2000/svg">
  <defs>
    <!-- Carbon Fiber Pattern -->
    <pattern id="carbonFiber" width="10" height="10" patternUnits="userSpaceOnUse">
        <rect width="10" height="10" fill="#050505"/>
        <path d="M0,0 L5,5 L10,0 L5,-5 Z M5,5 L10,10 L15,5 L10,0 Z M-5,5 L0,10 L5,5 L0,0 Z M0,10 L5,15 L10,10 L5,5 Z" fill="#0d0d0d"/>
    </pattern>
    <filter id="glassmorphism">
      <feGaussianBlur stdDeviation="3" result="blur" />
      <feColorMatrix type="matrix" values="1 0 0 0 0  0 1 0 0 0  0 0 1 0 0  0 0 0 18 -7" result="glow" />
      <feBlend in="SourceGraphic" in2="glow" mode="normal" />
    </filter>
    <filter id="textGlow">
      <feGaussianBlur stdDeviation="2" result="blur" />
      <feMerge>
        <feMergeNode in="blur"/>
        <feMergeNode in="SourceGraphic"/>
      </feMerge>
    </filter>
    <linearGradient id="neonBar" x1="0%" y1="0%" x2="100%" y2="0%">
        <stop offset="0%" stop-color="#111111"/>
        <stop offset="100%" stop-color="#39FF14"/>
    </linearGradient>
  </defs>

  <rect width="100%" height="100%" fill="url(#carbonFiber)" rx="12" stroke="#39FF14" stroke-width="1" stroke-opacity="0.3"/>
  <rect width="100%" height="100%" fill="#000000" opacity="0.6" rx="12" />
  <g><polygon points="11,183 19.6,188 19.6,198 11,203 2.4000000000000004,198 2.4000000000000004,188" fill="none" stroke="#39FF14" stroke-width="1" opacity="0.032875485202883276"/>
<polygon points="574,26 582.6,31 582.6,41 574,46 565.4,41 565.4,31" fill="none" stroke="#39FF14" stroke-width="1" opacity="0.03442212303614692"/>
<polygon points="51,20 59.6,25 59.6,35 51,40 42.4,35 42.4,25" fill="none" stroke="#39FF14" stroke-width="1" opacity="0.07047671770821506"/>
<polygon points="403,169 411.6,174 411.6,184 403,189 394.4,184 394.4,174" fill="none" stroke="#39FF14" stroke-width="1" opacity="0.02115651810297758"/>
<polygon points="507,1 515.6,6 515.6,16 507,21 498.4,16 498.4,6" fill="none" stroke="#39FF14" stroke-width="1" opacity="0.05127671093899494"/>
<polygon points="514,134 522.6,139 522.6,149 514,154 505.4,149 505.4,139" fill="none" stroke="#39FF14" stroke-width="1" opacity="0.050814569008608465"/>
<polygon points="758,146 766.6,151 766.6,161 758,166 749.4,161 749.4,151" fill="none" stroke="#39FF14" stroke-width="1" opacity="0.06140559467075604"/>
<polygon points="469,129 477.6,134 477.6,144 469,149 460.4,144 460.4,134" fill="none" stroke="#39FF14" stroke-width="1" opacity="0.05568353571671111"/>
<polygon points="36,54 44.6,59 44.6,69 36,74 27.4,69 27.4,59" fill="none" stroke="#39FF14" stroke-width="1" opacity="0.05195053914338242"/>
<polygon points="76,17 84.6,22 84.6,32 76,37 67.4,32 67.4,22" fill="none" stroke="#39FF14" stroke-width="1" opacity="0.04404560440771855"/>
<polygon points="15,10 23.6,15 23.6,25 15,30 6.4,25 6.4,15" fill="none" stroke="#39FF14" stroke-width="1" opacity="0.0229254346090733"/>
<polygon points="463,119 471.6,124 471.6,134 463,139 454.4,134 454.4,124" fill="none" stroke="#39FF14" stroke-width="1" opacity="0.04459826483122627"/>
<polygon points="55,120 63.6,125 63.6,135 55,140 46.4,135 46.4,125" fill="none" stroke="#39FF14" stroke-width="1" opacity="0.03735365939457486"/>
<polygon points="414,97 422.6,102 422.6,112 414,117 405.4,112 405.4,102" fill="none" stroke="#39FF14" stroke-width="1" opacity="0.04855018402004066"/>
<polygon points="466,86 474.6,91 474.6,101 466,106 457.4,101 457.4,91" fill="none" stroke="#39FF14" stroke-width="1" opacity="0.03613662479255583"/>
<polygon points="634,98 642.6,103 642.6,113 634,118 625.4,113 625.4,103" fill="none" stroke="#39FF14" stroke-width="1" opacity="0.05347126512576292"/>
<polygon points="128,136 136.6,141 136.6,151 128,156 119.4,151 119.4,141" fill="none" stroke="#39FF14" stroke-width="1" opacity="0.0395726892742949"/>
<polygon points="312,14 320.6,19 320.6,29 312,34 303.4,29 303.4,19" fill="none" stroke="#39FF14" stroke-width="1" opacity="0.03562104151064186"/>
<polygon points="288,95 296.6,100 296.6,110 288,115 279.4,110 279.4,100" fill="none" stroke="#39FF14" stroke-width="1" opacity="0.07720903214383604"/>
<polygon points="149,93 157.6,98 157.6,108 149,113 140.4,108 140.4,98" fill="none" stroke="#39FF14" stroke-width="1" opacity="0.05363133423959203"/>
<polygon points="846,144 854.6,149 854.6,159 846,164 837.4,159 837.4,149" fill="none" stroke="#39FF14" stroke-width="1" opacity="0.060897181160140396"/>
<polygon points="598,160 606.6,165 606.6,175 598,180 589.4,175 589.4,165" fill="none" stroke="#39FF14" stroke-width="1" opacity="0.04963580426785501"/>
<polygon points="745,92 753.6,97 753.6,107 745,112 736.4,107 736.4,97" fill="none" stroke="#39FF14" stroke-width="1" opacity="0.020495733566938838"/>
<polygon points="750,175 758.6,180 758.6,190 750,195 741.4,190 741.4,180" fill="none" stroke="#39FF14" stroke-width="1" opacity="0.03500711857838694"/>
<polygon points="277,159 285.6,164 285.6,174 277,179 268.4,174 268.4,164" fill="none" stroke="#39FF14" stroke-width="1" opacity="0.03995416004685416"/>
<polygon points="611,82 619.6,87 619.6,97 611,102 602.4,97 602.4,87" fill="none" stroke="#39FF14" stroke-width="1" opacity="0.03139986846221114"/>
<polygon points="250,55 258.6,60 258.6,70 250,75 241.4,70 241.4,60" fill="none" stroke="#39FF14" stroke-width="1" opacity="0.07446960361945691"/>
<polygon points="144,20 152.6,25 152.6,35 144,40 135.4,35 135.4,25" fill="none" stroke="#39FF14" stroke-width="1" opacity="0.07727975668143698"/>
<polygon points="685,95 693.6,100 693.6,110 685,115 676.4,110 676.4,100" fill="none" stroke="#39FF14" stroke-width="1" opacity="0.043371764777586294"/>
<polygon points="154,51 162.6,56 162.6,66 154,71 145.4,66 145.4,56" fill="none" stroke="#39FF14" stroke-width="1" opacity="0.022279860219882514"/>
</g>

  <!-- HUD Decorative elements -->
  <path d="M 20 20 L 40 20 L 50 30" fill="none" stroke="#39FF14" stroke-width="2" opacity="0.5"/>
  <path d="M 830 180 L 810 180 L 800 170" fill="none" stroke="#39FF14" stroke-width="2" opacity="0.5"/>
  <rect x="20" y="100" width="2" height="40" fill="#ffffff" opacity="0.4"/>
  <rect x="828" y="60" width="2" height="40" fill="#39FF14" opacity="0.6"/>

  <g font-family="'Consolas', 'Fira Code', monospace" text-anchor="middle">

    <!-- SYSTEM STATUS -->
    <g transform="translate(130, 100)">
        <circle cx="0" cy="0" r="45" fill="none" stroke="#111111" stroke-width="8" />
        <circle cx="0" cy="0" r="45" fill="none" stroke="#39FF14" stroke-width="2" stroke-dasharray="10 5">
            <animateTransform attributeName="transform" type="rotate" from="0" to="360" dur="10s" repeatCount="indefinite"/>
        </circle>
        <circle cx="0" cy="0" r="35" fill="#0d0d0d" />
        <circle cx="0" cy="0" r="6" fill="#39FF14" filter="url(#textGlow)">
            <animate attributeName="opacity" values="1;0.3;1" dur="2s" repeatCount="indefinite"/>
        </circle>
        <text x="0" y="-60" font-size="12" fill="#aaaaaa" letter-spacing="2">SYS.CORE</text>
        <text x="0" y="70" font-size="14" fill="#ffffff" font-weight="bold">ONLINE</text>
    </g>

    <!-- LIVE TRAFFIC -->
    <g transform="translate(330, 100)">
        <rect x="-60" y="-45" width="120" height="90" fill="#0a0a0a" rx="8" stroke="#39FF14" stroke-opacity="0.4" stroke-width="1"/>
        <text x="0" y="-20" font-size="12" fill="#aaaaaa">NETWORK LOAD</text>
        <text x="0" y="15" font-size="28" fill="#ffffff" font-weight="bold" filter="url(#textGlow)">4154</text>
        <text x="0" y="35" font-size="10" fill="#777777">ACTIVE SESSIONS</text>
    </g>

    <!-- ACTIVE AGENTS -->
    <g transform="translate(530, 100)">
        <rect x="-60" y="-45" width="120" height="90" fill="#0a0a0a" rx="8" stroke="#39FF14" stroke-opacity="0.4" stroke-width="1"/>
        <text x="0" y="-20" font-size="12" fill="#aaaaaa">SWARM ENTITIES</text>
        <text x="0" y="15" font-size="28" fill="#ffffff" font-weight="bold" filter="url(#textGlow)">88</text>
        <text x="0" y="35" font-size="10" fill="#777777">AUTONOMOUS</text>
    </g>

    <!-- UPTIME -->
    <g transform="translate(730, 100)">
        <path d="M -40 -35 L 40 -35 L 50 -25 L 50 35 L -40 35 L -50 25 Z" fill="#0a0a0a" stroke="#39FF14" stroke-opacity="0.4" stroke-width="1"/>
        <text x="0" y="-15" font-size="12" fill="#aaaaaa">CONTINUITY</text>
        <text x="0" y="15" font-size="24" fill="#ffffff" font-weight="bold">314<tspan font-size="14" fill="#777777">d</tspan></text>
        <rect x="-35" y="25" width="70" height="4" fill="url(#neonBar)" rx="2"/>
    </g>
  </g>

  <text x="425" y="185" font-family="'Consolas', 'Fira Code', monospace" font-size="10" fill="#aaaaaa" opacity="0.6" text-anchor="middle">LAST TELEMETRY PING: 2026-05-13 01:56:40 UTC // ENCRYPTED_TUNNEL</text>
</svg>