<svg width="850" height="200" viewBox="0 0 850 200" xmlns="http://www.w3.org/2000/svg">
  <defs>
    <pattern id="carbonFiber" width="10" height="10" patternUnits="userSpaceOnUse">
        <rect width="10" height="10" fill="#050505"/>
        <path d="M0,0 L5,5 L10,0 L5,-5 Z M5,5 L10,10 L15,5 L10,0 Z M-5,5 L0,10 L5,5 L0,0 Z M0,10 L5,15 L10,10 L5,5 Z" fill="#0d0d0d"/>
    </pattern>
    <filter id="textGlow">
      <feGaussianBlur stdDeviation="2" result="blur" />
      <feMerge>
        <feMergeNode in="blur"/>
        <feMergeNode in="SourceGraphic"/>
      </feMerge>
    </filter>
    <linearGradient id="neonBar" x1="0%" y1="0%" x2="100%" y2="0%">
        <stop offset="0%" stop-color="#111111"/>
        <stop offset="100%" stop-color="#39FF14"/>
    </linearGradient>
    <linearGradient id="scanlineGrad" x1="0%" y1="0%" x2="100%" y2="0%">
        <stop offset="0%" stop-color="#39FF14" stop-opacity="0"/>
        <stop offset="50%" stop-color="#39FF14" stop-opacity="0.18"/>
        <stop offset="100%" stop-color="#39FF14" stop-opacity="0"/>
    </linearGradient>
    <clipPath id="dashClip">
        <rect x="0" y="0" width="850" height="200" rx="12"/>
    </clipPath>
  </defs>

  <rect width="100%" height="100%" fill="url(#carbonFiber)" rx="12" stroke="#39FF14" stroke-width="1" stroke-opacity="0.3"/>
  <rect width="100%" height="100%" fill="#000000" opacity="0.6" rx="12" />
  <g><polygon points="11,106 19.6,111 19.6,121 11,126 2.4000000000000004,121 2.4000000000000004,111" fill="none" stroke="#39FF14" stroke-width="1" opacity="0.03961270897445596"/>
<polygon points="761,52 769.6,57 769.6,67 761,72 752.4,67 752.4,57" fill="none" stroke="#39FF14" stroke-width="1" opacity="0.07922855541700433"/>
<polygon points="76,41 84.6,46 84.6,56 76,61 67.4,56 67.4,46" fill="none" stroke="#39FF14" stroke-width="1" opacity="0.032218707334538084"/>
<polygon points="661,186 669.6,191 669.6,201 661,206 652.4,201 652.4,191" fill="none" stroke="#39FF14" stroke-width="1" opacity="0.03557856244413219"/>
<polygon points="844,21 852.6,26 852.6,36 844,41 835.4,36 835.4,26" fill="none" stroke="#39FF14" stroke-width="1" opacity="0.0723402623756874"/>
<polygon points="777,1 785.6,6 785.6,16 777,21 768.4,16 768.4,6" fill="none" stroke="#39FF14" stroke-width="1" opacity="0.07930548318444286"/>
<polygon points="226,123 234.6,128 234.6,138 226,143 217.4,138 217.4,128" fill="none" stroke="#39FF14" stroke-width="1" opacity="0.05390345118294952"/>
<polygon points="639,129 647.6,134 647.6,144 639,149 630.4,144 630.4,134" fill="none" stroke="#39FF14" stroke-width="1" opacity="0.03065188214830994"/>
<polygon points="837,132 845.6,137 845.6,147 837,152 828.4,147 828.4,137" fill="none" stroke="#39FF14" stroke-width="1" opacity="0.07550610247333549"/>
<polygon points="357,188 365.6,193 365.6,203 357,208 348.4,203 348.4,193" fill="none" stroke="#39FF14" stroke-width="1" opacity="0.0630454473609296"/>
<polygon points="647,103 655.6,108 655.6,118 647,123 638.4,118 638.4,108" fill="none" stroke="#39FF14" stroke-width="1" opacity="0.0624639464027736"/>
<polygon points="540,157 548.6,162 548.6,172 540,177 531.4,172 531.4,162" fill="none" stroke="#39FF14" stroke-width="1" opacity="0.04533019007115199"/>
<polygon points="239,72 247.6,77 247.6,87 239,92 230.4,87 230.4,77" fill="none" stroke="#39FF14" stroke-width="1" opacity="0.07558047750406456"/>
<polygon points="580,165 588.6,170 588.6,180 580,185 571.4,180 571.4,170" fill="none" stroke="#39FF14" stroke-width="1" opacity="0.03321431095958982"/>
<polygon points="457,34 465.6,39 465.6,49 457,54 448.4,49 448.4,39" fill="none" stroke="#39FF14" stroke-width="1" opacity="0.03254649647661461"/>
<polygon points="657,190 665.6,195 665.6,205 657,210 648.4,205 648.4,195" fill="none" stroke="#39FF14" stroke-width="1" opacity="0.03495456971160599"/>
<polygon points="121,55 129.6,60 129.6,70 121,75 112.4,70 112.4,60" fill="none" stroke="#39FF14" stroke-width="1" opacity="0.035317768489800686"/>
<polygon points="397,105 405.6,110 405.6,120 397,125 388.4,120 388.4,110" fill="none" stroke="#39FF14" stroke-width="1" opacity="0.05695363815057512"/>
<polygon points="593,73 601.6,78 601.6,88 593,93 584.4,88 584.4,78" fill="none" stroke="#39FF14" stroke-width="1" opacity="0.03029692404687596"/>
<polygon points="540,51 548.6,56 548.6,66 540,71 531.4,66 531.4,56" fill="none" stroke="#39FF14" stroke-width="1" opacity="0.0757369366714545"/>
<polygon points="725,7 733.6,12 733.6,22 725,27 716.4,22 716.4,12" fill="none" stroke="#39FF14" stroke-width="1" opacity="0.06614517159385246"/>
<polygon points="521,133 529.6,138 529.6,148 521,153 512.4,148 512.4,138" fill="none" stroke="#39FF14" stroke-width="1" opacity="0.06265038750247179"/>
<polygon points="278,101 286.6,106 286.6,116 278,121 269.4,116 269.4,106" fill="none" stroke="#39FF14" stroke-width="1" opacity="0.0429766237040928"/>
<polygon points="673,49 681.6,54 681.6,64 673,69 664.4,64 664.4,54" fill="none" stroke="#39FF14" stroke-width="1" opacity="0.021243498798728076"/>
<polygon points="645,51 653.6,56 653.6,66 645,71 636.4,66 636.4,56" fill="none" stroke="#39FF14" stroke-width="1" opacity="0.04089333722609309"/>
<polygon points="718,50 726.6,55 726.6,65 718,70 709.4,65 709.4,55" fill="none" stroke="#39FF14" stroke-width="1" opacity="0.03883789380001285"/>
<polygon points="392,13 400.6,18 400.6,28 392,33 383.4,28 383.4,18" fill="none" stroke="#39FF14" stroke-width="1" opacity="0.02342563519240185"/>
<polygon points="672,110 680.6,115 680.6,125 672,130 663.4,125 663.4,115" fill="none" stroke="#39FF14" stroke-width="1" opacity="0.07155940518929896"/>
<polygon points="408,114 416.6,119 416.6,129 408,134 399.4,129 399.4,119" fill="none" stroke="#39FF14" stroke-width="1" opacity="0.0710554932605198"/>
<polygon points="103,8 111.6,13 111.6,23 103,28 94.4,23 94.4,13" fill="none" stroke="#39FF14" stroke-width="1" opacity="0.0680618359006049"/>
</g>

  <!-- HUD Decorative elements -->
  <path d="M 20 20 L 40 20 L 50 30" fill="none" stroke="#39FF14" stroke-width="2" opacity="0.5"/>
  <path d="M 830 180 L 810 180 L 800 170" fill="none" stroke="#39FF14" stroke-width="2" opacity="0.5"/>

  <g clip-path="url(#dashClip)">
    <rect x="-160" y="0" width="160" height="200" fill="url(#scanlineGrad)">
      <animateTransform attributeName="transform" type="translate"
                        from="0 0" to="1010 0" dur="6s" repeatCount="indefinite"/>
    </rect>
  </g>

  <g font-family="'Consolas', 'Fira Code', monospace" text-anchor="middle">

    <!-- NETWORK STATUS -->
    <g transform="translate(130, 100)">
        <circle cx="0" cy="0" r="45" fill="none" stroke="#39FF14" stroke-width="2" stroke-dasharray="10 5">
            <animateTransform attributeName="transform" type="rotate" from="0" to="360" dur="10s" repeatCount="indefinite"/>
        </circle>
        <circle cx="0" cy="0" r="35" fill="#0d0d0d" />
        <text x="0" y="-60" font-size="12" fill="#aaaaaa" letter-spacing="2">ROOT.AUTH</text>
        <text x="0" y="70" font-size="14" fill="#ffffff" font-weight="bold">OPERATIONAL</text>
    </g>

    <!-- ACTIVE USERS -->
    <g transform="translate(330, 100)">
        <text x="0" y="-20" font-size="12" fill="#aaaaaa">CITIZENS</text>
        <text x="0" y="15" font-size="28" fill="#ffffff" font-weight="bold" filter="url(#textGlow)">13,237</text>
        <text x="0" y="35" font-size="10" fill="#777777">VERIFIED HUMANS</text>
    </g>

    <!-- REGISTERED AGENTS -->
    <g transform="translate(530, 100)">
        <text x="0" y="-20" font-size="12" fill="#aaaaaa">AGENTS</text>
        <text x="0" y="15" font-size="28" fill="#00d4ff" font-weight="bold" filter="url(#textGlow)">4,568</text>
        <text x="0" y="35" font-size="10" fill="#777777">REGISTERED DIDs</text>
    </g>

    <!-- TRANSACTIONS -->
    <g transform="translate(730, 100)">
        <text x="0" y="-20" font-size="12" fill="#aaaaaa">TRANSFERS</text>
        <text x="0" y="15" font-size="28" fill="#ffffff" font-weight="bold">34,750</text>
        <text x="0" y="35" font-size="10" fill="#777777">M2M SETTLEMENTS</text>
    </g>
  </g>

  <text x="425" y="185" font-family="'Consolas', 'Fira Code', monospace" font-size="10" fill="#aaaaaa" opacity="0.6" text-anchor="middle">AXIOMID PROJECTED TARGETS (ILLUSTRATIVE): 2026-07-09 11:49:52 UTC // SECURE_HANDSHAKE</text>
</svg>