<svg width="850" height="200" viewBox="0 0 850 200" xmlns="http://www.w3.org/2000/svg">
  <defs>
    <pattern id="carbonFiber" width="10" height="10" patternUnits="userSpaceOnUse">
        <rect width="10" height="10" fill="#050505"/>
        <path d="M0,0 L5,5 L10,0 L5,-5 Z M5,5 L10,10 L15,5 L10,0 Z M-5,5 L0,10 L5,5 L0,0 Z M0,10 L5,15 L10,10 L5,5 Z" fill="#0d0d0d"/>
    </pattern>
    <filter id="textGlow">
      <feGaussianBlur stdDeviation="2" result="blur" />
      <feMerge>
        <feMergeNode in="blur"/>
        <feMergeNode in="SourceGraphic"/>
      </feMerge>
    </filter>
    <linearGradient id="neonBar" x1="0%" y1="0%" x2="100%" y2="0%">
        <stop offset="0%" stop-color="#111111"/>
        <stop offset="100%" stop-color="#39FF14"/>
    </linearGradient>
    <linearGradient id="scanlineGrad" x1="0%" y1="0%" x2="100%" y2="0%">
        <stop offset="0%" stop-color="#39FF14" stop-opacity="0"/>
        <stop offset="50%" stop-color="#39FF14" stop-opacity="0.18"/>
        <stop offset="100%" stop-color="#39FF14" stop-opacity="0"/>
    </linearGradient>
    <clipPath id="dashClip">
        <rect x="0" y="0" width="850" height="200" rx="12"/>
    </clipPath>
  </defs>

  <rect width="100%" height="100%" fill="url(#carbonFiber)" rx="12" stroke="#39FF14" stroke-width="1" stroke-opacity="0.3"/>
  <rect width="100%" height="100%" fill="#000000" opacity="0.6" rx="12" />
  <g><polygon points="385,31 393.6,36 393.6,46 385,51 376.4,46 376.4,36" fill="none" stroke="#39FF14" stroke-width="1" opacity="0.03289413643736992"/>
<polygon points="224,18 232.6,23 232.6,33 224,38 215.4,33 215.4,23" fill="none" stroke="#39FF14" stroke-width="1" opacity="0.0691828600772501"/>
<polygon points="388,30 396.6,35 396.6,45 388,50 379.4,45 379.4,35" fill="none" stroke="#39FF14" stroke-width="1" opacity="0.03279124660579321"/>
<polygon points="817,6 825.6,11 825.6,21 817,26 808.4,21 808.4,11" fill="none" stroke="#39FF14" stroke-width="1" opacity="0.050500474773042286"/>
<polygon points="577,-2 585.6,3 585.6,13 577,18 568.4,13 568.4,3" fill="none" stroke="#39FF14" stroke-width="1" opacity="0.026678983558218634"/>
<polygon points="555,176 563.6,181 563.6,191 555,196 546.4,191 546.4,181" fill="none" stroke="#39FF14" stroke-width="1" opacity="0.06285657317033252"/>
<polygon points="770,160 778.6,165 778.6,175 770,180 761.4,175 761.4,165" fill="none" stroke="#39FF14" stroke-width="1" opacity="0.02178864681404324"/>
<polygon points="805,21 813.6,26 813.6,36 805,41 796.4,36 796.4,26" fill="none" stroke="#39FF14" stroke-width="1" opacity="0.07799156816152107"/>
<polygon points="401,85 409.6,90 409.6,100 401,105 392.4,100 392.4,90" fill="none" stroke="#39FF14" stroke-width="1" opacity="0.035776839699534005"/>
<polygon points="758,62 766.6,67 766.6,77 758,82 749.4,77 749.4,67" fill="none" stroke="#39FF14" stroke-width="1" opacity="0.054325457356718246"/>
<polygon points="649,167 657.6,172 657.6,182 649,187 640.4,182 640.4,172" fill="none" stroke="#39FF14" stroke-width="1" opacity="0.04507950135303263"/>
<polygon points="629,84 637.6,89 637.6,99 629,104 620.4,99 620.4,89" fill="none" stroke="#39FF14" stroke-width="1" opacity="0.04531538835956167"/>
<polygon points="253,134 261.6,139 261.6,149 253,154 244.4,149 244.4,139" fill="none" stroke="#39FF14" stroke-width="1" opacity="0.0722318703617294"/>
<polygon points="344,178 352.6,183 352.6,193 344,198 335.4,193 335.4,183" fill="none" stroke="#39FF14" stroke-width="1" opacity="0.07471968424314747"/>
<polygon points="571,-4 579.6,1 579.6,11 571,16 562.4,11 562.4,1" fill="none" stroke="#39FF14" stroke-width="1" opacity="0.04645000969909263"/>
<polygon points="788,77 796.6,82 796.6,92 788,97 779.4,92 779.4,82" fill="none" stroke="#39FF14" stroke-width="1" opacity="0.07462622637045323"/>
<polygon points="183,58 191.6,63 191.6,73 183,78 174.4,73 174.4,63" fill="none" stroke="#39FF14" stroke-width="1" opacity="0.026772928360431537"/>
<polygon points="842,10 850.6,15 850.6,25 842,30 833.4,25 833.4,15" fill="none" stroke="#39FF14" stroke-width="1" opacity="0.03013543191709909"/>
<polygon points="734,85 742.6,90 742.6,100 734,105 725.4,100 725.4,90" fill="none" stroke="#39FF14" stroke-width="1" opacity="0.0763477017643044"/>
<polygon points="29,35 37.6,40 37.6,50 29,55 20.4,50 20.4,40" fill="none" stroke="#39FF14" stroke-width="1" opacity="0.07206370469644899"/>
<polygon points="102,129 110.6,134 110.6,144 102,149 93.4,144 93.4,134" fill="none" stroke="#39FF14" stroke-width="1" opacity="0.03646909627167895"/>
<polygon points="407,148 415.6,153 415.6,163 407,168 398.4,163 398.4,153" fill="none" stroke="#39FF14" stroke-width="1" opacity="0.06349880638636514"/>
<polygon points="143,75 151.6,80 151.6,90 143,95 134.4,90 134.4,80" fill="none" stroke="#39FF14" stroke-width="1" opacity="0.06845814600513653"/>
<polygon points="819,180 827.6,185 827.6,195 819,200 810.4,195 810.4,185" fill="none" stroke="#39FF14" stroke-width="1" opacity="0.02420368374780961"/>
<polygon points="587,-3 595.6,2 595.6,12 587,17 578.4,12 578.4,2" fill="none" stroke="#39FF14" stroke-width="1" opacity="0.039698564828344524"/>
<polygon points="831,96 839.6,101 839.6,111 831,116 822.4,111 822.4,101" fill="none" stroke="#39FF14" stroke-width="1" opacity="0.03224434099539937"/>
<polygon points="251,127 259.6,132 259.6,142 251,147 242.4,142 242.4,132" fill="none" stroke="#39FF14" stroke-width="1" opacity="0.06705009758154164"/>
<polygon points="311,53 319.6,58 319.6,68 311,73 302.4,68 302.4,58" fill="none" stroke="#39FF14" stroke-width="1" opacity="0.03670490138421075"/>
<polygon points="685,62 693.6,67 693.6,77 685,82 676.4,77 676.4,67" fill="none" stroke="#39FF14" stroke-width="1" opacity="0.027525694587572275"/>
<polygon points="173,12 181.6,17 181.6,27 173,32 164.4,27 164.4,17" fill="none" stroke="#39FF14" stroke-width="1" opacity="0.06136084674252516"/>
</g>

  <!-- HUD Decorative elements -->
  <path d="M 20 20 L 40 20 L 50 30" fill="none" stroke="#39FF14" stroke-width="2" opacity="0.5"/>
  <path d="M 830 180 L 810 180 L 800 170" fill="none" stroke="#39FF14" stroke-width="2" opacity="0.5"/>

  <g clip-path="url(#dashClip)">
    <rect x="-160" y="0" width="160" height="200" fill="url(#scanlineGrad)">
      <animateTransform attributeName="transform" type="translate"
                        from="0 0" to="1010 0" dur="6s" repeatCount="indefinite"/>
    </rect>
  </g>

  <g font-family="'Consolas', 'Fira Code', monospace" text-anchor="middle">

    <!-- NETWORK STATUS -->
    <g transform="translate(130, 100)">
        <circle cx="0" cy="0" r="45" fill="none" stroke="#39FF14" stroke-width="2" stroke-dasharray="10 5">
            <animateTransform attributeName="transform" type="rotate" from="0" to="360" dur="10s" repeatCount="indefinite"/>
        </circle>
        <circle cx="0" cy="0" r="35" fill="#0d0d0d" />
        <text x="0" y="-60" font-size="12" fill="#aaaaaa" letter-spacing="2">ROOT.AUTH</text>
        <text x="0" y="70" font-size="14" fill="#ffffff" font-weight="bold">OPERATIONAL</text>
    </g>

    <!-- ACTIVE USERS -->
    <g transform="translate(330, 100)">
        <text x="0" y="-20" font-size="12" fill="#aaaaaa">CITIZENS</text>
        <text x="0" y="15" font-size="28" fill="#ffffff" font-weight="bold" filter="url(#textGlow)">14,373</text>
        <text x="0" y="35" font-size="10" fill="#777777">VERIFIED HUMANS</text>
    </g>

    <!-- REGISTERED AGENTS -->
    <g transform="translate(530, 100)">
        <text x="0" y="-20" font-size="12" fill="#aaaaaa">AGENTS</text>
        <text x="0" y="15" font-size="28" fill="#00d4ff" font-weight="bold" filter="url(#textGlow)">4,365</text>
        <text x="0" y="35" font-size="10" fill="#777777">REGISTERED DIDs</text>
    </g>

    <!-- TRANSACTIONS -->
    <g transform="translate(730, 100)">
        <text x="0" y="-20" font-size="12" fill="#aaaaaa">TRANSFERS</text>
        <text x="0" y="15" font-size="28" fill="#ffffff" font-weight="bold">41,888</text>
        <text x="0" y="35" font-size="10" fill="#777777">M2M SETTLEMENTS</text>
    </g>
  </g>

  <text x="425" y="185" font-family="'Consolas', 'Fira Code', monospace" font-size="10" fill="#aaaaaa" opacity="0.6" text-anchor="middle">AXIOMID PROJECTED TARGETS (ILLUSTRATIVE): 2026-07-10 19:15:31 UTC // SECURE_HANDSHAKE</text>
</svg>