<svg width="850" height="200" viewBox="0 0 850 200" xmlns="http://www.w3.org/2000/svg">
  <defs>
    <pattern id="carbonFiber" width="10" height="10" patternUnits="userSpaceOnUse">
        <rect width="10" height="10" fill="#050505"/>
        <path d="M0,0 L5,5 L10,0 L5,-5 Z M5,5 L10,10 L15,5 L10,0 Z M-5,5 L0,10 L5,5 L0,0 Z M0,10 L5,15 L10,10 L5,5 Z" fill="#0d0d0d"/>
    </pattern>
    <filter id="textGlow">
      <feGaussianBlur stdDeviation="2" result="blur" />
      <feMerge>
        <feMergeNode in="blur"/>
        <feMergeNode in="SourceGraphic"/>
      </feMerge>
    </filter>
    <linearGradient id="neonBar" x1="0%" y1="0%" x2="100%" y2="0%">
        <stop offset="0%" stop-color="#111111"/>
        <stop offset="100%" stop-color="#39FF14"/>
    </linearGradient>
    <linearGradient id="scanlineGrad" x1="0%" y1="0%" x2="100%" y2="0%">
        <stop offset="0%" stop-color="#39FF14" stop-opacity="0"/>
        <stop offset="50%" stop-color="#39FF14" stop-opacity="0.18"/>
        <stop offset="100%" stop-color="#39FF14" stop-opacity="0"/>
    </linearGradient>
    <clipPath id="dashClip">
        <rect x="0" y="0" width="850" height="200" rx="12"/>
    </clipPath>
  </defs>

  <rect width="100%" height="100%" fill="url(#carbonFiber)" rx="12" stroke="#39FF14" stroke-width="1" stroke-opacity="0.3"/>
  <rect width="100%" height="100%" fill="#000000" opacity="0.6" rx="12" />
  <g><polygon points="99,124 107.6,129 107.6,139 99,144 90.4,139 90.4,129" fill="none" stroke="#39FF14" stroke-width="1" opacity="0.0747975710416451"/>
<polygon points="323,123 331.6,128 331.6,138 323,143 314.4,138 314.4,128" fill="none" stroke="#39FF14" stroke-width="1" opacity="0.035604164766500246"/>
<polygon points="342,81 350.6,86 350.6,96 342,101 333.4,96 333.4,86" fill="none" stroke="#39FF14" stroke-width="1" opacity="0.0635607487353839"/>
<polygon points="769,119 777.6,124 777.6,134 769,139 760.4,134 760.4,124" fill="none" stroke="#39FF14" stroke-width="1" opacity="0.020401291869791373"/>
<polygon points="107,55 115.6,60 115.6,70 107,75 98.4,70 98.4,60" fill="none" stroke="#39FF14" stroke-width="1" opacity="0.031123369934233765"/>
<polygon points="680,113 688.6,118 688.6,128 680,133 671.4,128 671.4,118" fill="none" stroke="#39FF14" stroke-width="1" opacity="0.03310927071962197"/>
<polygon points="24,73 32.6,78 32.6,88 24,93 15.4,88 15.4,78" fill="none" stroke="#39FF14" stroke-width="1" opacity="0.07588364338315048"/>
<polygon points="43,180 51.6,185 51.6,195 43,200 34.4,195 34.4,185" fill="none" stroke="#39FF14" stroke-width="1" opacity="0.05887307889376775"/>
<polygon points="255,157 263.6,162 263.6,172 255,177 246.4,172 246.4,162" fill="none" stroke="#39FF14" stroke-width="1" opacity="0.05606651988907349"/>
<polygon points="587,178 595.6,183 595.6,193 587,198 578.4,193 578.4,183" fill="none" stroke="#39FF14" stroke-width="1" opacity="0.07667944069360773"/>
<polygon points="498,-6 506.6,-1 506.6,9 498,14 489.4,9 489.4,-1" fill="none" stroke="#39FF14" stroke-width="1" opacity="0.0682887839527564"/>
<polygon points="627,141 635.6,146 635.6,156 627,161 618.4,156 618.4,146" fill="none" stroke="#39FF14" stroke-width="1" opacity="0.044614573736607266"/>
<polygon points="448,42 456.6,47 456.6,57 448,62 439.4,57 439.4,47" fill="none" stroke="#39FF14" stroke-width="1" opacity="0.05487639562653067"/>
<polygon points="382,65 390.6,70 390.6,80 382,85 373.4,80 373.4,70" fill="none" stroke="#39FF14" stroke-width="1" opacity="0.032671152945624546"/>
<polygon points="387,99 395.6,104 395.6,114 387,119 378.4,114 378.4,104" fill="none" stroke="#39FF14" stroke-width="1" opacity="0.04214474900037903"/>
<polygon points="402,75 410.6,80 410.6,90 402,95 393.4,90 393.4,80" fill="none" stroke="#39FF14" stroke-width="1" opacity="0.039355694280125725"/>
<polygon points="308,187 316.6,192 316.6,202 308,207 299.4,202 299.4,192" fill="none" stroke="#39FF14" stroke-width="1" opacity="0.02677996064028763"/>
<polygon points="816,75 824.6,80 824.6,90 816,95 807.4,90 807.4,80" fill="none" stroke="#39FF14" stroke-width="1" opacity="0.06301863831591366"/>
<polygon points="384,76 392.6,81 392.6,91 384,96 375.4,91 375.4,81" fill="none" stroke="#39FF14" stroke-width="1" opacity="0.03393743445368455"/>
<polygon points="581,114 589.6,119 589.6,129 581,134 572.4,129 572.4,119" fill="none" stroke="#39FF14" stroke-width="1" opacity="0.049537329429300635"/>
<polygon points="615,2 623.6,7 623.6,17 615,22 606.4,17 606.4,7" fill="none" stroke="#39FF14" stroke-width="1" opacity="0.06922385874467814"/>
<polygon points="248,68 256.6,73 256.6,83 248,88 239.4,83 239.4,73" fill="none" stroke="#39FF14" stroke-width="1" opacity="0.027894503497311006"/>
<polygon points="432,166 440.6,171 440.6,181 432,186 423.4,181 423.4,171" fill="none" stroke="#39FF14" stroke-width="1" opacity="0.06241198423410496"/>
<polygon points="545,110 553.6,115 553.6,125 545,130 536.4,125 536.4,115" fill="none" stroke="#39FF14" stroke-width="1" opacity="0.034026089979821435"/>
<polygon points="336,70 344.6,75 344.6,85 336,90 327.4,85 327.4,75" fill="none" stroke="#39FF14" stroke-width="1" opacity="0.031160925288808795"/>
<polygon points="33,4 41.6,9 41.6,19 33,24 24.4,19 24.4,9" fill="none" stroke="#39FF14" stroke-width="1" opacity="0.06988596112936706"/>
<polygon points="762,85 770.6,90 770.6,100 762,105 753.4,100 753.4,90" fill="none" stroke="#39FF14" stroke-width="1" opacity="0.04420979709372367"/>
<polygon points="707,10 715.6,15 715.6,25 707,30 698.4,25 698.4,15" fill="none" stroke="#39FF14" stroke-width="1" opacity="0.06206579230072223"/>
<polygon points="731,65 739.6,70 739.6,80 731,85 722.4,80 722.4,70" fill="none" stroke="#39FF14" stroke-width="1" opacity="0.02685336391530329"/>
<polygon points="653,176 661.6,181 661.6,191 653,196 644.4,191 644.4,181" fill="none" stroke="#39FF14" stroke-width="1" opacity="0.05189515154792598"/>
</g>

  <!-- HUD Decorative elements -->
  <path d="M 20 20 L 40 20 L 50 30" fill="none" stroke="#39FF14" stroke-width="2" opacity="0.5"/>
  <path d="M 830 180 L 810 180 L 800 170" fill="none" stroke="#39FF14" stroke-width="2" opacity="0.5"/>

  <g clip-path="url(#dashClip)">
    <rect x="-160" y="0" width="160" height="200" fill="url(#scanlineGrad)">
      <animateTransform attributeName="transform" type="translate"
                        from="0 0" to="1010 0" dur="6s" repeatCount="indefinite"/>
    </rect>
  </g>

  <g font-family="'Consolas', 'Fira Code', monospace" text-anchor="middle">

    <!-- NETWORK STATUS -->
    <g transform="translate(130, 100)">
        <circle cx="0" cy="0" r="45" fill="none" stroke="#39FF14" stroke-width="2" stroke-dasharray="10 5">
            <animateTransform attributeName="transform" type="rotate" from="0" to="360" dur="10s" repeatCount="indefinite"/>
        </circle>
        <circle cx="0" cy="0" r="35" fill="#0d0d0d" />
        <text x="0" y="-60" font-size="12" fill="#aaaaaa" letter-spacing="2">ROOT.AUTH</text>
        <text x="0" y="70" font-size="14" fill="#ffffff" font-weight="bold">OPERATIONAL</text>
    </g>

    <!-- ACTIVE USERS -->
    <g transform="translate(330, 100)">
        <text x="0" y="-20" font-size="12" fill="#aaaaaa">CITIZENS</text>
        <text x="0" y="15" font-size="28" fill="#ffffff" font-weight="bold" filter="url(#textGlow)">13,311</text>
        <text x="0" y="35" font-size="10" fill="#777777">VERIFIED HUMANS</text>
    </g>

    <!-- REGISTERED AGENTS -->
    <g transform="translate(530, 100)">
        <text x="0" y="-20" font-size="12" fill="#aaaaaa">AGENTS</text>
        <text x="0" y="15" font-size="28" fill="#00d4ff" font-weight="bold" filter="url(#textGlow)">4,297</text>
        <text x="0" y="35" font-size="10" fill="#777777">REGISTERED DIDs</text>
    </g>

    <!-- TRANSACTIONS -->
    <g transform="translate(730, 100)">
        <text x="0" y="-20" font-size="12" fill="#aaaaaa">TRANSFERS</text>
        <text x="0" y="15" font-size="28" fill="#ffffff" font-weight="bold">26,299</text>
        <text x="0" y="35" font-size="10" fill="#777777">M2M SETTLEMENTS</text>
    </g>
  </g>

  <text x="425" y="185" font-family="'Consolas', 'Fira Code', monospace" font-size="10" fill="#aaaaaa" opacity="0.6" text-anchor="middle">AXIOMID PROJECTED TARGETS (ILLUSTRATIVE): 2026-07-23 18:59:05 UTC // SECURE_HANDSHAKE</text>
</svg>