<svg width="850" height="200" viewBox="0 0 850 200" xmlns="http://www.w3.org/2000/svg">
  <defs>
    <pattern id="carbonFiber" width="10" height="10" patternUnits="userSpaceOnUse">
        <rect width="10" height="10" fill="#050505"/>
        <path d="M0,0 L5,5 L10,0 L5,-5 Z M5,5 L10,10 L15,5 L10,0 Z M-5,5 L0,10 L5,5 L0,0 Z M0,10 L5,15 L10,10 L5,5 Z" fill="#0d0d0d"/>
    </pattern>
    <filter id="textGlow">
      <feGaussianBlur stdDeviation="2" result="blur" />
      <feMerge>
        <feMergeNode in="blur"/>
        <feMergeNode in="SourceGraphic"/>
      </feMerge>
    </filter>
    <linearGradient id="neonBar" x1="0%" y1="0%" x2="100%" y2="0%">
        <stop offset="0%" stop-color="#111111"/>
        <stop offset="100%" stop-color="#39FF14"/>
    </linearGradient>
    <linearGradient id="scanlineGrad" x1="0%" y1="0%" x2="100%" y2="0%">
        <stop offset="0%" stop-color="#39FF14" stop-opacity="0"/>
        <stop offset="50%" stop-color="#39FF14" stop-opacity="0.18"/>
        <stop offset="100%" stop-color="#39FF14" stop-opacity="0"/>
    </linearGradient>
    <clipPath id="dashClip">
        <rect x="0" y="0" width="850" height="200" rx="12"/>
    </clipPath>
  </defs>

  <rect width="100%" height="100%" fill="url(#carbonFiber)" rx="12" stroke="#39FF14" stroke-width="1" stroke-opacity="0.3"/>
  <rect width="100%" height="100%" fill="#000000" opacity="0.6" rx="12" />
  <g><polygon points="123,114 131.6,119 131.6,129 123,134 114.4,129 114.4,119" fill="none" stroke="#39FF14" stroke-width="1" opacity="0.060171280526037235"/>
<polygon points="826,-10 834.6,-5 834.6,5 826,10 817.4,5 817.4,-5" fill="none" stroke="#39FF14" stroke-width="1" opacity="0.07479325379343178"/>
<polygon points="405,76 413.6,81 413.6,91 405,96 396.4,91 396.4,81" fill="none" stroke="#39FF14" stroke-width="1" opacity="0.07826538797093728"/>
<polygon points="380,147 388.6,152 388.6,162 380,167 371.4,162 371.4,152" fill="none" stroke="#39FF14" stroke-width="1" opacity="0.029544594145487192"/>
<polygon points="176,81 184.6,86 184.6,96 176,101 167.4,96 167.4,86" fill="none" stroke="#39FF14" stroke-width="1" opacity="0.07839769375742855"/>
<polygon points="205,111 213.6,116 213.6,126 205,131 196.4,126 196.4,116" fill="none" stroke="#39FF14" stroke-width="1" opacity="0.07604725084492364"/>
<polygon points="722,145 730.6,150 730.6,160 722,165 713.4,160 713.4,150" fill="none" stroke="#39FF14" stroke-width="1" opacity="0.032479142577405334"/>
<polygon points="427,44 435.6,49 435.6,59 427,64 418.4,59 418.4,49" fill="none" stroke="#39FF14" stroke-width="1" opacity="0.02666979713404099"/>
<polygon points="572,19 580.6,24 580.6,34 572,39 563.4,34 563.4,24" fill="none" stroke="#39FF14" stroke-width="1" opacity="0.037165267212492636"/>
<polygon points="118,128 126.6,133 126.6,143 118,148 109.4,143 109.4,133" fill="none" stroke="#39FF14" stroke-width="1" opacity="0.04688072699437269"/>
<polygon points="312,74 320.6,79 320.6,89 312,94 303.4,89 303.4,79" fill="none" stroke="#39FF14" stroke-width="1" opacity="0.04174748038238777"/>
<polygon points="833,160 841.6,165 841.6,175 833,180 824.4,175 824.4,165" fill="none" stroke="#39FF14" stroke-width="1" opacity="0.07462822943673741"/>
<polygon points="602,131 610.6,136 610.6,146 602,151 593.4,146 593.4,136" fill="none" stroke="#39FF14" stroke-width="1" opacity="0.04036327680169628"/>
<polygon points="544,45 552.6,50 552.6,60 544,65 535.4,60 535.4,50" fill="none" stroke="#39FF14" stroke-width="1" opacity="0.05850520812944447"/>
<polygon points="476,178 484.6,183 484.6,193 476,198 467.4,193 467.4,183" fill="none" stroke="#39FF14" stroke-width="1" opacity="0.06733205572956093"/>
<polygon points="520,104 528.6,109 528.6,119 520,124 511.4,119 511.4,109" fill="none" stroke="#39FF14" stroke-width="1" opacity="0.029361696042610557"/>
<polygon points="454,103 462.6,108 462.6,118 454,123 445.4,118 445.4,108" fill="none" stroke="#39FF14" stroke-width="1" opacity="0.03425737458191558"/>
<polygon points="648,77 656.6,82 656.6,92 648,97 639.4,92 639.4,82" fill="none" stroke="#39FF14" stroke-width="1" opacity="0.07960360697332193"/>
<polygon points="220,19 228.6,24 228.6,34 220,39 211.4,34 211.4,24" fill="none" stroke="#39FF14" stroke-width="1" opacity="0.04774358044314313"/>
<polygon points="518,130 526.6,135 526.6,145 518,150 509.4,145 509.4,135" fill="none" stroke="#39FF14" stroke-width="1" opacity="0.034319260292827315"/>
<polygon points="680,60 688.6,65 688.6,75 680,80 671.4,75 671.4,65" fill="none" stroke="#39FF14" stroke-width="1" opacity="0.04571723324577588"/>
<polygon points="22,117 30.6,122 30.6,132 22,137 13.4,132 13.4,122" fill="none" stroke="#39FF14" stroke-width="1" opacity="0.0244926779602136"/>
<polygon points="141,53 149.6,58 149.6,68 141,73 132.4,68 132.4,58" fill="none" stroke="#39FF14" stroke-width="1" opacity="0.046121764202574925"/>
<polygon points="653,77 661.6,82 661.6,92 653,97 644.4,92 644.4,82" fill="none" stroke="#39FF14" stroke-width="1" opacity="0.03029103836252168"/>
<polygon points="820,136 828.6,141 828.6,151 820,156 811.4,151 811.4,141" fill="none" stroke="#39FF14" stroke-width="1" opacity="0.07716748482701513"/>
<polygon points="558,6 566.6,11 566.6,21 558,26 549.4,21 549.4,11" fill="none" stroke="#39FF14" stroke-width="1" opacity="0.05131318658665095"/>
<polygon points="667,134 675.6,139 675.6,149 667,154 658.4,149 658.4,139" fill="none" stroke="#39FF14" stroke-width="1" opacity="0.07286372316904186"/>
<polygon points="534,131 542.6,136 542.6,146 534,151 525.4,146 525.4,136" fill="none" stroke="#39FF14" stroke-width="1" opacity="0.039846740299555025"/>
<polygon points="333,75 341.6,80 341.6,90 333,95 324.4,90 324.4,80" fill="none" stroke="#39FF14" stroke-width="1" opacity="0.06377788195532007"/>
<polygon points="68,14 76.6,19 76.6,29 68,34 59.4,29 59.4,19" fill="none" stroke="#39FF14" stroke-width="1" opacity="0.03703125036772685"/>
</g>

  <!-- HUD Decorative elements -->
  <path d="M 20 20 L 40 20 L 50 30" fill="none" stroke="#39FF14" stroke-width="2" opacity="0.5"/>
  <path d="M 830 180 L 810 180 L 800 170" fill="none" stroke="#39FF14" stroke-width="2" opacity="0.5"/>

  <g clip-path="url(#dashClip)">
    <rect x="-160" y="0" width="160" height="200" fill="url(#scanlineGrad)">
      <animateTransform attributeName="transform" type="translate"
                        from="0 0" to="1010 0" dur="6s" repeatCount="indefinite"/>
    </rect>
  </g>

  <g font-family="'Consolas', 'Fira Code', monospace" text-anchor="middle">

    <!-- NETWORK STATUS -->
    <g transform="translate(130, 100)">
        <circle cx="0" cy="0" r="45" fill="none" stroke="#39FF14" stroke-width="2" stroke-dasharray="10 5">
            <animateTransform attributeName="transform" type="rotate" from="0" to="360" dur="10s" repeatCount="indefinite"/>
        </circle>
        <circle cx="0" cy="0" r="35" fill="#0d0d0d" />
        <text x="0" y="-60" font-size="12" fill="#aaaaaa" letter-spacing="2">ROOT.AUTH</text>
        <text x="0" y="70" font-size="14" fill="#ffffff" font-weight="bold">OPERATIONAL</text>
    </g>

    <!-- ACTIVE USERS -->
    <g transform="translate(330, 100)">
        <text x="0" y="-20" font-size="12" fill="#aaaaaa">CITIZENS</text>
        <text x="0" y="15" font-size="28" fill="#ffffff" font-weight="bold" filter="url(#textGlow)">14,827</text>
        <text x="0" y="35" font-size="10" fill="#777777">VERIFIED HUMANS</text>
    </g>

    <!-- REGISTERED AGENTS -->
    <g transform="translate(530, 100)">
        <text x="0" y="-20" font-size="12" fill="#aaaaaa">AGENTS</text>
        <text x="0" y="15" font-size="28" fill="#00d4ff" font-weight="bold" filter="url(#textGlow)">3,554</text>
        <text x="0" y="35" font-size="10" fill="#777777">REGISTERED DIDs</text>
    </g>

    <!-- TRANSACTIONS -->
    <g transform="translate(730, 100)">
        <text x="0" y="-20" font-size="12" fill="#aaaaaa">TRANSFERS</text>
        <text x="0" y="15" font-size="28" fill="#ffffff" font-weight="bold">29,364</text>
        <text x="0" y="35" font-size="10" fill="#777777">M2M SETTLEMENTS</text>
    </g>
  </g>

  <text x="425" y="185" font-family="'Consolas', 'Fira Code', monospace" font-size="10" fill="#aaaaaa" opacity="0.6" text-anchor="middle">AXIOMID PROJECTED TARGETS (ILLUSTRATIVE): 2026-07-18 12:52:03 UTC // SECURE_HANDSHAKE</text>
</svg>