<svg width="850" height="200" viewBox="0 0 850 200" xmlns="http://www.w3.org/2000/svg">
  <defs>
    <pattern id="carbonFiber" width="10" height="10" patternUnits="userSpaceOnUse">
        <rect width="10" height="10" fill="#050505"/>
        <path d="M0,0 L5,5 L10,0 L5,-5 Z M5,5 L10,10 L15,5 L10,0 Z M-5,5 L0,10 L5,5 L0,0 Z M0,10 L5,15 L10,10 L5,5 Z" fill="#0d0d0d"/>
    </pattern>
    <filter id="textGlow">
      <feGaussianBlur stdDeviation="2" result="blur" />
      <feMerge>
        <feMergeNode in="blur"/>
        <feMergeNode in="SourceGraphic"/>
      </feMerge>
    </filter>
    <linearGradient id="neonBar" x1="0%" y1="0%" x2="100%" y2="0%">
        <stop offset="0%" stop-color="#111111"/>
        <stop offset="100%" stop-color="#39FF14"/>
    </linearGradient>
    <linearGradient id="scanlineGrad" x1="0%" y1="0%" x2="100%" y2="0%">
        <stop offset="0%" stop-color="#39FF14" stop-opacity="0"/>
        <stop offset="50%" stop-color="#39FF14" stop-opacity="0.18"/>
        <stop offset="100%" stop-color="#39FF14" stop-opacity="0"/>
    </linearGradient>
    <clipPath id="dashClip">
        <rect x="0" y="0" width="850" height="200" rx="12"/>
    </clipPath>
  </defs>

  <rect width="100%" height="100%" fill="url(#carbonFiber)" rx="12" stroke="#39FF14" stroke-width="1" stroke-opacity="0.3"/>
  <rect width="100%" height="100%" fill="#000000" opacity="0.6" rx="12" />
  <g><polygon points="136,31 144.6,36 144.6,46 136,51 127.4,46 127.4,36" fill="none" stroke="#39FF14" stroke-width="1" opacity="0.041514502319969504"/>
<polygon points="557,69 565.6,74 565.6,84 557,89 548.4,84 548.4,74" fill="none" stroke="#39FF14" stroke-width="1" opacity="0.05578779294914188"/>
<polygon points="612,189 620.6,194 620.6,204 612,209 603.4,204 603.4,194" fill="none" stroke="#39FF14" stroke-width="1" opacity="0.04430202419295777"/>
<polygon points="636,93 644.6,98 644.6,108 636,113 627.4,108 627.4,98" fill="none" stroke="#39FF14" stroke-width="1" opacity="0.07554090348017942"/>
<polygon points="747,31 755.6,36 755.6,46 747,51 738.4,46 738.4,36" fill="none" stroke="#39FF14" stroke-width="1" opacity="0.05612931741650691"/>
<polygon points="657,29 665.6,34 665.6,44 657,49 648.4,44 648.4,34" fill="none" stroke="#39FF14" stroke-width="1" opacity="0.04521319264355756"/>
<polygon points="383,123 391.6,128 391.6,138 383,143 374.4,138 374.4,128" fill="none" stroke="#39FF14" stroke-width="1" opacity="0.06766608031415629"/>
<polygon points="33,49 41.6,54 41.6,64 33,69 24.4,64 24.4,54" fill="none" stroke="#39FF14" stroke-width="1" opacity="0.07681804739695937"/>
<polygon points="845,56 853.6,61 853.6,71 845,76 836.4,71 836.4,61" fill="none" stroke="#39FF14" stroke-width="1" opacity="0.026595983183571776"/>
<polygon points="619,120 627.6,125 627.6,135 619,140 610.4,135 610.4,125" fill="none" stroke="#39FF14" stroke-width="1" opacity="0.07261078168081313"/>
<polygon points="339,23 347.6,28 347.6,38 339,43 330.4,38 330.4,28" fill="none" stroke="#39FF14" stroke-width="1" opacity="0.07985490813456904"/>
<polygon points="270,38 278.6,43 278.6,53 270,58 261.4,53 261.4,43" fill="none" stroke="#39FF14" stroke-width="1" opacity="0.07374249719650881"/>
<polygon points="617,7 625.6,12 625.6,22 617,27 608.4,22 608.4,12" fill="none" stroke="#39FF14" stroke-width="1" opacity="0.05426630694448374"/>
<polygon points="485,101 493.6,106 493.6,116 485,121 476.4,116 476.4,106" fill="none" stroke="#39FF14" stroke-width="1" opacity="0.0323570342611738"/>
<polygon points="824,90 832.6,95 832.6,105 824,110 815.4,105 815.4,95" fill="none" stroke="#39FF14" stroke-width="1" opacity="0.040870511358160194"/>
<polygon points="37,137 45.6,142 45.6,152 37,157 28.4,152 28.4,142" fill="none" stroke="#39FF14" stroke-width="1" opacity="0.05748887660885388"/>
<polygon points="137,37 145.6,42 145.6,52 137,57 128.4,52 128.4,42" fill="none" stroke="#39FF14" stroke-width="1" opacity="0.04681502266951198"/>
<polygon points="657,-1 665.6,4 665.6,14 657,19 648.4,14 648.4,4" fill="none" stroke="#39FF14" stroke-width="1" opacity="0.047661088840238466"/>
<polygon points="477,110 485.6,115 485.6,125 477,130 468.4,125 468.4,115" fill="none" stroke="#39FF14" stroke-width="1" opacity="0.05606743648933181"/>
<polygon points="160,83 168.6,88 168.6,98 160,103 151.4,98 151.4,88" fill="none" stroke="#39FF14" stroke-width="1" opacity="0.07498791174969305"/>
<polygon points="231,158 239.6,163 239.6,173 231,178 222.4,173 222.4,163" fill="none" stroke="#39FF14" stroke-width="1" opacity="0.0655806532996653"/>
<polygon points="455,-9 463.6,-4 463.6,6 455,11 446.4,6 446.4,-4" fill="none" stroke="#39FF14" stroke-width="1" opacity="0.0685026042845258"/>
<polygon points="247,32 255.6,37 255.6,47 247,52 238.4,47 238.4,37" fill="none" stroke="#39FF14" stroke-width="1" opacity="0.07011203809772298"/>
<polygon points="317,-5 325.6,0 325.6,10 317,15 308.4,10 308.4,0" fill="none" stroke="#39FF14" stroke-width="1" opacity="0.04412769612273519"/>
<polygon points="423,34 431.6,39 431.6,49 423,54 414.4,49 414.4,39" fill="none" stroke="#39FF14" stroke-width="1" opacity="0.06913434172104037"/>
<polygon points="182,87 190.6,92 190.6,102 182,107 173.4,102 173.4,92" fill="none" stroke="#39FF14" stroke-width="1" opacity="0.033348207676928206"/>
<polygon points="845,52 853.6,57 853.6,67 845,72 836.4,67 836.4,57" fill="none" stroke="#39FF14" stroke-width="1" opacity="0.029122070381955318"/>
<polygon points="611,51 619.6,56 619.6,66 611,71 602.4,66 602.4,56" fill="none" stroke="#39FF14" stroke-width="1" opacity="0.04589360536646281"/>
<polygon points="789,186 797.6,191 797.6,201 789,206 780.4,201 780.4,191" fill="none" stroke="#39FF14" stroke-width="1" opacity="0.0741124608092247"/>
<polygon points="244,54 252.6,59 252.6,69 244,74 235.4,69 235.4,59" fill="none" stroke="#39FF14" stroke-width="1" opacity="0.04928080654599801"/>
</g>

  <!-- HUD Decorative elements -->
  <path d="M 20 20 L 40 20 L 50 30" fill="none" stroke="#39FF14" stroke-width="2" opacity="0.5"/>
  <path d="M 830 180 L 810 180 L 800 170" fill="none" stroke="#39FF14" stroke-width="2" opacity="0.5"/>

  <g clip-path="url(#dashClip)">
    <rect x="-160" y="0" width="160" height="200" fill="url(#scanlineGrad)">
      <animateTransform attributeName="transform" type="translate"
                        from="0 0" to="1010 0" dur="6s" repeatCount="indefinite"/>
    </rect>
  </g>

  <g font-family="'Consolas', 'Fira Code', monospace" text-anchor="middle">

    <!-- NETWORK STATUS -->
    <g transform="translate(130, 100)">
        <circle cx="0" cy="0" r="45" fill="none" stroke="#39FF14" stroke-width="2" stroke-dasharray="10 5">
            <animateTransform attributeName="transform" type="rotate" from="0" to="360" dur="10s" repeatCount="indefinite"/>
        </circle>
        <circle cx="0" cy="0" r="35" fill="#0d0d0d" />
        <text x="0" y="-60" font-size="12" fill="#aaaaaa" letter-spacing="2">ROOT.AUTH</text>
        <text x="0" y="70" font-size="14" fill="#ffffff" font-weight="bold">OPERATIONAL</text>
    </g>

    <!-- ACTIVE USERS -->
    <g transform="translate(330, 100)">
        <text x="0" y="-20" font-size="12" fill="#aaaaaa">CITIZENS</text>
        <text x="0" y="15" font-size="28" fill="#ffffff" font-weight="bold" filter="url(#textGlow)">14,694</text>
        <text x="0" y="35" font-size="10" fill="#777777">VERIFIED HUMANS</text>
    </g>

    <!-- REGISTERED AGENTS -->
    <g transform="translate(530, 100)">
        <text x="0" y="-20" font-size="12" fill="#aaaaaa">AGENTS</text>
        <text x="0" y="15" font-size="28" fill="#00d4ff" font-weight="bold" filter="url(#textGlow)">3,111</text>
        <text x="0" y="35" font-size="10" fill="#777777">REGISTERED DIDs</text>
    </g>

    <!-- TRANSACTIONS -->
    <g transform="translate(730, 100)">
        <text x="0" y="-20" font-size="12" fill="#aaaaaa">TRANSFERS</text>
        <text x="0" y="15" font-size="28" fill="#ffffff" font-weight="bold">35,467</text>
        <text x="0" y="35" font-size="10" fill="#777777">M2M SETTLEMENTS</text>
    </g>
  </g>

  <text x="425" y="185" font-family="'Consolas', 'Fira Code', monospace" font-size="10" fill="#aaaaaa" opacity="0.6" text-anchor="middle">AXIOMID PROJECTED TARGETS (ILLUSTRATIVE): 2026-07-12 01:47:39 UTC // SECURE_HANDSHAKE</text>
</svg>