<svg width="850" height="200" viewBox="0 0 850 200" xmlns="http://www.w3.org/2000/svg">
  <defs>
    <pattern id="carbonFiber" width="10" height="10" patternUnits="userSpaceOnUse">
        <rect width="10" height="10" fill="#050505"/>
        <path d="M0,0 L5,5 L10,0 L5,-5 Z M5,5 L10,10 L15,5 L10,0 Z M-5,5 L0,10 L5,5 L0,0 Z M0,10 L5,15 L10,10 L5,5 Z" fill="#0d0d0d"/>
    </pattern>
    <filter id="textGlow">
      <feGaussianBlur stdDeviation="2" result="blur" />
      <feMerge>
        <feMergeNode in="blur"/>
        <feMergeNode in="SourceGraphic"/>
      </feMerge>
    </filter>
    <linearGradient id="neonBar" x1="0%" y1="0%" x2="100%" y2="0%">
        <stop offset="0%" stop-color="#111111"/>
        <stop offset="100%" stop-color="#39FF14"/>
    </linearGradient>
    <linearGradient id="scanlineGrad" x1="0%" y1="0%" x2="100%" y2="0%">
        <stop offset="0%" stop-color="#39FF14" stop-opacity="0"/>
        <stop offset="50%" stop-color="#39FF14" stop-opacity="0.18"/>
        <stop offset="100%" stop-color="#39FF14" stop-opacity="0"/>
    </linearGradient>
    <clipPath id="dashClip">
        <rect x="0" y="0" width="850" height="200" rx="12"/>
    </clipPath>
  </defs>

  <rect width="100%" height="100%" fill="url(#carbonFiber)" rx="12" stroke="#39FF14" stroke-width="1" stroke-opacity="0.3"/>
  <rect width="100%" height="100%" fill="#000000" opacity="0.6" rx="12" />
  <g><polygon points="73,10 81.6,15 81.6,25 73,30 64.4,25 64.4,15" fill="none" stroke="#39FF14" stroke-width="1" opacity="0.06483701037765599"/>
<polygon points="536,94 544.6,99 544.6,109 536,114 527.4,109 527.4,99" fill="none" stroke="#39FF14" stroke-width="1" opacity="0.02507777859854735"/>
<polygon points="779,134 787.6,139 787.6,149 779,154 770.4,149 770.4,139" fill="none" stroke="#39FF14" stroke-width="1" opacity="0.07169779977800879"/>
<polygon points="767,133 775.6,138 775.6,148 767,153 758.4,148 758.4,138" fill="none" stroke="#39FF14" stroke-width="1" opacity="0.038464000111269464"/>
<polygon points="23,131 31.6,136 31.6,146 23,151 14.4,146 14.4,136" fill="none" stroke="#39FF14" stroke-width="1" opacity="0.024903081693174303"/>
<polygon points="252,173 260.6,178 260.6,188 252,193 243.4,188 243.4,178" fill="none" stroke="#39FF14" stroke-width="1" opacity="0.031322198673845336"/>
<polygon points="622,125 630.6,130 630.6,140 622,145 613.4,140 613.4,130" fill="none" stroke="#39FF14" stroke-width="1" opacity="0.06652463340730048"/>
<polygon points="514,91 522.6,96 522.6,106 514,111 505.4,106 505.4,96" fill="none" stroke="#39FF14" stroke-width="1" opacity="0.046566470978541497"/>
<polygon points="504,2 512.6,7 512.6,17 504,22 495.4,17 495.4,7" fill="none" stroke="#39FF14" stroke-width="1" opacity="0.04294217500859472"/>
<polygon points="408,15 416.6,20 416.6,30 408,35 399.4,30 399.4,20" fill="none" stroke="#39FF14" stroke-width="1" opacity="0.04885216333677772"/>
<polygon points="165,103 173.6,108 173.6,118 165,123 156.4,118 156.4,108" fill="none" stroke="#39FF14" stroke-width="1" opacity="0.025899765214273136"/>
<polygon points="20,163 28.6,168 28.6,178 20,183 11.4,178 11.4,168" fill="none" stroke="#39FF14" stroke-width="1" opacity="0.07836569241289124"/>
<polygon points="825,151 833.6,156 833.6,166 825,171 816.4,166 816.4,156" fill="none" stroke="#39FF14" stroke-width="1" opacity="0.04549741409133289"/>
<polygon points="73,-2 81.6,3 81.6,13 73,18 64.4,13 64.4,3" fill="none" stroke="#39FF14" stroke-width="1" opacity="0.05669726976646357"/>
<polygon points="795,159 803.6,164 803.6,174 795,179 786.4,174 786.4,164" fill="none" stroke="#39FF14" stroke-width="1" opacity="0.03992824187227581"/>
<polygon points="690,189 698.6,194 698.6,204 690,209 681.4,204 681.4,194" fill="none" stroke="#39FF14" stroke-width="1" opacity="0.031199439073966613"/>
<polygon points="212,24 220.6,29 220.6,39 212,44 203.4,39 203.4,29" fill="none" stroke="#39FF14" stroke-width="1" opacity="0.04116223699154059"/>
<polygon points="53,130 61.6,135 61.6,145 53,150 44.4,145 44.4,135" fill="none" stroke="#39FF14" stroke-width="1" opacity="0.025853136133331303"/>
<polygon points="241,0 249.6,5 249.6,15 241,20 232.4,15 232.4,5" fill="none" stroke="#39FF14" stroke-width="1" opacity="0.035483594699491465"/>
<polygon points="417,97 425.6,102 425.6,112 417,117 408.4,112 408.4,102" fill="none" stroke="#39FF14" stroke-width="1" opacity="0.02763574793060606"/>
<polygon points="241,78 249.6,83 249.6,93 241,98 232.4,93 232.4,83" fill="none" stroke="#39FF14" stroke-width="1" opacity="0.04896245083504029"/>
<polygon points="622,159 630.6,164 630.6,174 622,179 613.4,174 613.4,164" fill="none" stroke="#39FF14" stroke-width="1" opacity="0.0689739937191891"/>
<polygon points="40,78 48.6,83 48.6,93 40,98 31.4,93 31.4,83" fill="none" stroke="#39FF14" stroke-width="1" opacity="0.042868746363482924"/>
<polygon points="399,161 407.6,166 407.6,176 399,181 390.4,176 390.4,166" fill="none" stroke="#39FF14" stroke-width="1" opacity="0.02337567969671514"/>
<polygon points="330,7 338.6,12 338.6,22 330,27 321.4,22 321.4,12" fill="none" stroke="#39FF14" stroke-width="1" opacity="0.028589311021084973"/>
<polygon points="307,164 315.6,169 315.6,179 307,184 298.4,179 298.4,169" fill="none" stroke="#39FF14" stroke-width="1" opacity="0.07856344333708497"/>
<polygon points="679,29 687.6,34 687.6,44 679,49 670.4,44 670.4,34" fill="none" stroke="#39FF14" stroke-width="1" opacity="0.07127525836794148"/>
<polygon points="766,7 774.6,12 774.6,22 766,27 757.4,22 757.4,12" fill="none" stroke="#39FF14" stroke-width="1" opacity="0.02660070662521781"/>
<polygon points="708,85 716.6,90 716.6,100 708,105 699.4,100 699.4,90" fill="none" stroke="#39FF14" stroke-width="1" opacity="0.07930601427874272"/>
<polygon points="366,123 374.6,128 374.6,138 366,143 357.4,138 357.4,128" fill="none" stroke="#39FF14" stroke-width="1" opacity="0.03872925965701034"/>
</g>

  <!-- HUD Decorative elements -->
  <path d="M 20 20 L 40 20 L 50 30" fill="none" stroke="#39FF14" stroke-width="2" opacity="0.5"/>
  <path d="M 830 180 L 810 180 L 800 170" fill="none" stroke="#39FF14" stroke-width="2" opacity="0.5"/>

  <g clip-path="url(#dashClip)">
    <rect x="-160" y="0" width="160" height="200" fill="url(#scanlineGrad)">
      <animateTransform attributeName="transform" type="translate"
                        from="0 0" to="1010 0" dur="6s" repeatCount="indefinite"/>
    </rect>
  </g>

  <g font-family="'Consolas', 'Fira Code', monospace" text-anchor="middle">

    <!-- NETWORK STATUS -->
    <g transform="translate(130, 100)">
        <circle cx="0" cy="0" r="45" fill="none" stroke="#39FF14" stroke-width="2" stroke-dasharray="10 5">
            <animateTransform attributeName="transform" type="rotate" from="0" to="360" dur="10s" repeatCount="indefinite"/>
        </circle>
        <circle cx="0" cy="0" r="35" fill="#0d0d0d" />
        <text x="0" y="-60" font-size="12" fill="#aaaaaa" letter-spacing="2">ROOT.AUTH</text>
        <text x="0" y="70" font-size="14" fill="#ffffff" font-weight="bold">OPERATIONAL</text>
    </g>

    <!-- ACTIVE USERS -->
    <g transform="translate(330, 100)">
        <text x="0" y="-20" font-size="12" fill="#aaaaaa">CITIZENS</text>
        <text x="0" y="15" font-size="28" fill="#ffffff" font-weight="bold" filter="url(#textGlow)">13,113</text>
        <text x="0" y="35" font-size="10" fill="#777777">VERIFIED HUMANS</text>
    </g>

    <!-- REGISTERED AGENTS -->
    <g transform="translate(530, 100)">
        <text x="0" y="-20" font-size="12" fill="#aaaaaa">AGENTS</text>
        <text x="0" y="15" font-size="28" fill="#00d4ff" font-weight="bold" filter="url(#textGlow)">4,507</text>
        <text x="0" y="35" font-size="10" fill="#777777">REGISTERED DIDs</text>
    </g>

    <!-- TRANSACTIONS -->
    <g transform="translate(730, 100)">
        <text x="0" y="-20" font-size="12" fill="#aaaaaa">TRANSFERS</text>
        <text x="0" y="15" font-size="28" fill="#ffffff" font-weight="bold">35,538</text>
        <text x="0" y="35" font-size="10" fill="#777777">M2M SETTLEMENTS</text>
    </g>
  </g>

  <text x="425" y="185" font-family="'Consolas', 'Fira Code', monospace" font-size="10" fill="#aaaaaa" opacity="0.6" text-anchor="middle">AXIOMID PROJECTED TARGETS (ILLUSTRATIVE): 2026-07-12 18:50:46 UTC // SECURE_HANDSHAKE</text>
</svg>