<svg width="850" height="200" viewBox="0 0 850 200" xmlns="http://www.w3.org/2000/svg">
  <defs>
    <!-- Carbon Fiber Pattern -->
    <pattern id="carbonFiber" width="10" height="10" patternUnits="userSpaceOnUse">
        <rect width="10" height="10" fill="#050505"/>
        <path d="M0,0 L5,5 L10,0 L5,-5 Z M5,5 L10,10 L15,5 L10,0 Z M-5,5 L0,10 L5,5 L0,0 Z M0,10 L5,15 L10,10 L5,5 Z" fill="#0d0d0d"/>
    </pattern>
    <filter id="glassmorphism">
      <feGaussianBlur stdDeviation="3" result="blur" />
      <feColorMatrix type="matrix" values="1 0 0 0 0  0 1 0 0 0  0 0 1 0 0  0 0 0 18 -7" result="glow" />
      <feBlend in="SourceGraphic" in2="glow" mode="normal" />
    </filter>
    <filter id="textGlow">
      <feGaussianBlur stdDeviation="2" result="blur" />
      <feMerge>
        <feMergeNode in="blur"/>
        <feMergeNode in="SourceGraphic"/>
      </feMerge>
    </filter>
    <linearGradient id="neonBar" x1="0%" y1="0%" x2="100%" y2="0%">
        <stop offset="0%" stop-color="#111111"/>
        <stop offset="100%" stop-color="#39FF14"/>
    </linearGradient>
  </defs>

  <rect width="100%" height="100%" fill="url(#carbonFiber)" rx="12" stroke="#39FF14" stroke-width="1" stroke-opacity="0.3"/>
  <rect width="100%" height="100%" fill="#000000" opacity="0.6" rx="12" />
  <g><polygon points="514,46 522.6,51 522.6,61 514,66 505.4,61 505.4,51" fill="none" stroke="#39FF14" stroke-width="1" opacity="0.04934385368784819"/>
<polygon points="149,74 157.6,79 157.6,89 149,94 140.4,89 140.4,79" fill="none" stroke="#39FF14" stroke-width="1" opacity="0.06171074486631406"/>
<polygon points="109,138 117.6,143 117.6,153 109,158 100.4,153 100.4,143" fill="none" stroke="#39FF14" stroke-width="1" opacity="0.0281029274693411"/>
<polygon points="323,100 331.6,105 331.6,115 323,120 314.4,115 314.4,105" fill="none" stroke="#39FF14" stroke-width="1" opacity="0.04736955964275495"/>
<polygon points="208,130 216.6,135 216.6,145 208,150 199.4,145 199.4,135" fill="none" stroke="#39FF14" stroke-width="1" opacity="0.05667223508989391"/>
<polygon points="701,107 709.6,112 709.6,122 701,127 692.4,122 692.4,112" fill="none" stroke="#39FF14" stroke-width="1" opacity="0.0673277116651229"/>
<polygon points="145,4 153.6,9 153.6,19 145,24 136.4,19 136.4,9" fill="none" stroke="#39FF14" stroke-width="1" opacity="0.06853124843530863"/>
<polygon points="566,134 574.6,139 574.6,149 566,154 557.4,149 557.4,139" fill="none" stroke="#39FF14" stroke-width="1" opacity="0.034478760649352895"/>
<polygon points="427,60 435.6,65 435.6,75 427,80 418.4,75 418.4,65" fill="none" stroke="#39FF14" stroke-width="1" opacity="0.038236587958003505"/>
<polygon points="778,113 786.6,118 786.6,128 778,133 769.4,128 769.4,118" fill="none" stroke="#39FF14" stroke-width="1" opacity="0.05155127852419476"/>
<polygon points="770,-2 778.6,3 778.6,13 770,18 761.4,13 761.4,3" fill="none" stroke="#39FF14" stroke-width="1" opacity="0.05328457852156453"/>
<polygon points="371,36 379.6,41 379.6,51 371,56 362.4,51 362.4,41" fill="none" stroke="#39FF14" stroke-width="1" opacity="0.05106627340352898"/>
<polygon points="769,170 777.6,175 777.6,185 769,190 760.4,185 760.4,175" fill="none" stroke="#39FF14" stroke-width="1" opacity="0.03195218406974758"/>
<polygon points="644,151 652.6,156 652.6,166 644,171 635.4,166 635.4,156" fill="none" stroke="#39FF14" stroke-width="1" opacity="0.05277314140916914"/>
<polygon points="694,160 702.6,165 702.6,175 694,180 685.4,175 685.4,165" fill="none" stroke="#39FF14" stroke-width="1" opacity="0.03137054836444467"/>
<polygon points="686,1 694.6,6 694.6,16 686,21 677.4,16 677.4,6" fill="none" stroke="#39FF14" stroke-width="1" opacity="0.05999109658011792"/>
<polygon points="332,36 340.6,41 340.6,51 332,56 323.4,51 323.4,41" fill="none" stroke="#39FF14" stroke-width="1" opacity="0.04112156542540551"/>
<polygon points="493,0 501.6,5 501.6,15 493,20 484.4,15 484.4,5" fill="none" stroke="#39FF14" stroke-width="1" opacity="0.03530562463573537"/>
<polygon points="172,146 180.6,151 180.6,161 172,166 163.4,161 163.4,151" fill="none" stroke="#39FF14" stroke-width="1" opacity="0.049558639970606874"/>
<polygon points="109,184 117.6,189 117.6,199 109,204 100.4,199 100.4,189" fill="none" stroke="#39FF14" stroke-width="1" opacity="0.038461843612772"/>
<polygon points="215,71 223.6,76 223.6,86 215,91 206.4,86 206.4,76" fill="none" stroke="#39FF14" stroke-width="1" opacity="0.07887427322023913"/>
<polygon points="241,87 249.6,92 249.6,102 241,107 232.4,102 232.4,92" fill="none" stroke="#39FF14" stroke-width="1" opacity="0.07724779071931932"/>
<polygon points="345,149 353.6,154 353.6,164 345,169 336.4,164 336.4,154" fill="none" stroke="#39FF14" stroke-width="1" opacity="0.021542873080810564"/>
<polygon points="687,81 695.6,86 695.6,96 687,101 678.4,96 678.4,86" fill="none" stroke="#39FF14" stroke-width="1" opacity="0.046152306357672895"/>
<polygon points="443,26 451.6,31 451.6,41 443,46 434.4,41 434.4,31" fill="none" stroke="#39FF14" stroke-width="1" opacity="0.03152601450768282"/>
<polygon points="437,143 445.6,148 445.6,158 437,163 428.4,158 428.4,148" fill="none" stroke="#39FF14" stroke-width="1" opacity="0.07183511846498081"/>
<polygon points="150,22 158.6,27 158.6,37 150,42 141.4,37 141.4,27" fill="none" stroke="#39FF14" stroke-width="1" opacity="0.03337336404521927"/>
<polygon points="776,99 784.6,104 784.6,114 776,119 767.4,114 767.4,104" fill="none" stroke="#39FF14" stroke-width="1" opacity="0.05709461249841019"/>
<polygon points="1,23 9.6,28 9.6,38 1,43 -7.6,38 -7.6,28" fill="none" stroke="#39FF14" stroke-width="1" opacity="0.04744899993850128"/>
<polygon points="25,156 33.6,161 33.6,171 25,176 16.4,171 16.4,161" fill="none" stroke="#39FF14" stroke-width="1" opacity="0.07611231923015851"/>
</g>

  <!-- HUD Decorative elements -->
  <path d="M 20 20 L 40 20 L 50 30" fill="none" stroke="#39FF14" stroke-width="2" opacity="0.5"/>
  <path d="M 830 180 L 810 180 L 800 170" fill="none" stroke="#39FF14" stroke-width="2" opacity="0.5"/>
  <rect x="20" y="100" width="2" height="40" fill="#ffffff" opacity="0.4"/>
  <rect x="828" y="60" width="2" height="40" fill="#39FF14" opacity="0.6"/>

  <g font-family="'Consolas', 'Fira Code', monospace" text-anchor="middle">

    <!-- SYSTEM STATUS -->
    <g transform="translate(130, 100)">
        <circle cx="0" cy="0" r="45" fill="none" stroke="#111111" stroke-width="8" />
        <circle cx="0" cy="0" r="45" fill="none" stroke="#39FF14" stroke-width="2" stroke-dasharray="10 5">
            <animateTransform attributeName="transform" type="rotate" from="0" to="360" dur="10s" repeatCount="indefinite"/>
        </circle>
        <circle cx="0" cy="0" r="35" fill="#0d0d0d" />
        <circle cx="0" cy="0" r="6" fill="#39FF14" filter="url(#textGlow)">
            <animate attributeName="opacity" values="1;0.3;1" dur="2s" repeatCount="indefinite"/>
        </circle>
        <text x="0" y="-60" font-size="12" fill="#aaaaaa" letter-spacing="2">SYS.CORE</text>
        <text x="0" y="70" font-size="14" fill="#ffffff" font-weight="bold">ONLINE</text>
    </g>

    <!-- LIVE TRAFFIC -->
    <g transform="translate(330, 100)">
        <rect x="-60" y="-45" width="120" height="90" fill="#0a0a0a" rx="8" stroke="#39FF14" stroke-opacity="0.4" stroke-width="1"/>
        <text x="0" y="-20" font-size="12" fill="#aaaaaa">NETWORK LOAD</text>
        <text x="0" y="15" font-size="28" fill="#ffffff" font-weight="bold" filter="url(#textGlow)">5926</text>
        <text x="0" y="35" font-size="10" fill="#777777">ACTIVE SESSIONS</text>
    </g>

    <!-- ACTIVE AGENTS -->
    <g transform="translate(530, 100)">
        <rect x="-60" y="-45" width="120" height="90" fill="#0a0a0a" rx="8" stroke="#39FF14" stroke-opacity="0.4" stroke-width="1"/>
        <text x="0" y="-20" font-size="12" fill="#aaaaaa">SWARM ENTITIES</text>
        <text x="0" y="15" font-size="28" fill="#ffffff" font-weight="bold" filter="url(#textGlow)">160</text>
        <text x="0" y="35" font-size="10" fill="#777777">AUTONOMOUS</text>
    </g>

    <!-- UPTIME -->
    <g transform="translate(730, 100)">
        <path d="M -40 -35 L 40 -35 L 50 -25 L 50 35 L -40 35 L -50 25 Z" fill="#0a0a0a" stroke="#39FF14" stroke-opacity="0.4" stroke-width="1"/>
        <text x="0" y="-15" font-size="12" fill="#aaaaaa">CONTINUITY</text>
        <text x="0" y="15" font-size="24" fill="#ffffff" font-weight="bold">255<tspan font-size="14" fill="#777777">d</tspan></text>
        <rect x="-35" y="25" width="70" height="4" fill="url(#neonBar)" rx="2"/>
    </g>
  </g>

  <text x="425" y="185" font-family="'Consolas', 'Fira Code', monospace" font-size="10" fill="#aaaaaa" opacity="0.6" text-anchor="middle">LAST TELEMETRY PING: 2026-05-13 02:03:10 UTC // ENCRYPTED_TUNNEL</text>
</svg>