<svg width="850" height="200" viewBox="0 0 850 200" xmlns="http://www.w3.org/2000/svg">
  <defs>
    <pattern id="carbonFiber" width="10" height="10" patternUnits="userSpaceOnUse">
        <rect width="10" height="10" fill="#050505"/>
        <path d="M0,0 L5,5 L10,0 L5,-5 Z M5,5 L10,10 L15,5 L10,0 Z M-5,5 L0,10 L5,5 L0,0 Z M0,10 L5,15 L10,10 L5,5 Z" fill="#0d0d0d"/>
    </pattern>
    <filter id="textGlow">
      <feGaussianBlur stdDeviation="2" result="blur" />
      <feMerge>
        <feMergeNode in="blur"/>
        <feMergeNode in="SourceGraphic"/>
      </feMerge>
    </filter>
    <linearGradient id="neonBar" x1="0%" y1="0%" x2="100%" y2="0%">
        <stop offset="0%" stop-color="#111111"/>
        <stop offset="100%" stop-color="#39FF14"/>
    </linearGradient>
    <linearGradient id="scanlineGrad" x1="0%" y1="0%" x2="100%" y2="0%">
        <stop offset="0%" stop-color="#39FF14" stop-opacity="0"/>
        <stop offset="50%" stop-color="#39FF14" stop-opacity="0.18"/>
        <stop offset="100%" stop-color="#39FF14" stop-opacity="0"/>
    </linearGradient>
    <clipPath id="dashClip">
        <rect x="0" y="0" width="850" height="200" rx="12"/>
    </clipPath>
  </defs>

  <rect width="100%" height="100%" fill="url(#carbonFiber)" rx="12" stroke="#39FF14" stroke-width="1" stroke-opacity="0.3"/>
  <rect width="100%" height="100%" fill="#000000" opacity="0.6" rx="12" />
  <g><polygon points="404,-5 412.6,0 412.6,10 404,15 395.4,10 395.4,0" fill="none" stroke="#39FF14" stroke-width="1" opacity="0.07931543439052006"/>
<polygon points="528,124 536.6,129 536.6,139 528,144 519.4,139 519.4,129" fill="none" stroke="#39FF14" stroke-width="1" opacity="0.030956775214589623"/>
<polygon points="117,109 125.6,114 125.6,124 117,129 108.4,124 108.4,114" fill="none" stroke="#39FF14" stroke-width="1" opacity="0.05668430751343481"/>
<polygon points="602,74 610.6,79 610.6,89 602,94 593.4,89 593.4,79" fill="none" stroke="#39FF14" stroke-width="1" opacity="0.0795071188563949"/>
<polygon points="575,176 583.6,181 583.6,191 575,196 566.4,191 566.4,181" fill="none" stroke="#39FF14" stroke-width="1" opacity="0.07123502637317537"/>
<polygon points="722,83 730.6,88 730.6,98 722,103 713.4,98 713.4,88" fill="none" stroke="#39FF14" stroke-width="1" opacity="0.050921300661361524"/>
<polygon points="839,17 847.6,22 847.6,32 839,37 830.4,32 830.4,22" fill="none" stroke="#39FF14" stroke-width="1" opacity="0.02240614159747443"/>
<polygon points="100,184 108.6,189 108.6,199 100,204 91.4,199 91.4,189" fill="none" stroke="#39FF14" stroke-width="1" opacity="0.05451208381556999"/>
<polygon points="222,144 230.6,149 230.6,159 222,164 213.4,159 213.4,149" fill="none" stroke="#39FF14" stroke-width="1" opacity="0.03334019980598912"/>
<polygon points="594,94 602.6,99 602.6,109 594,114 585.4,109 585.4,99" fill="none" stroke="#39FF14" stroke-width="1" opacity="0.05655279334265219"/>
<polygon points="220,2 228.6,7 228.6,17 220,22 211.4,17 211.4,7" fill="none" stroke="#39FF14" stroke-width="1" opacity="0.05989839958389637"/>
<polygon points="835,183 843.6,188 843.6,198 835,203 826.4,198 826.4,188" fill="none" stroke="#39FF14" stroke-width="1" opacity="0.04523209369033657"/>
<polygon points="18,75 26.6,80 26.6,90 18,95 9.4,90 9.4,80" fill="none" stroke="#39FF14" stroke-width="1" opacity="0.06574605123723429"/>
<polygon points="492,113 500.6,118 500.6,128 492,133 483.4,128 483.4,118" fill="none" stroke="#39FF14" stroke-width="1" opacity="0.06661093622810639"/>
<polygon points="662,110 670.6,115 670.6,125 662,130 653.4,125 653.4,115" fill="none" stroke="#39FF14" stroke-width="1" opacity="0.03511240083117872"/>
<polygon points="469,184 477.6,189 477.6,199 469,204 460.4,199 460.4,189" fill="none" stroke="#39FF14" stroke-width="1" opacity="0.07392083859649182"/>
<polygon points="463,23 471.6,28 471.6,38 463,43 454.4,38 454.4,28" fill="none" stroke="#39FF14" stroke-width="1" opacity="0.024062473425262958"/>
<polygon points="42,3 50.6,8 50.6,18 42,23 33.4,18 33.4,8" fill="none" stroke="#39FF14" stroke-width="1" opacity="0.020735920250811148"/>
<polygon points="418,167 426.6,172 426.6,182 418,187 409.4,182 409.4,172" fill="none" stroke="#39FF14" stroke-width="1" opacity="0.03971044108208191"/>
<polygon points="64,18 72.6,23 72.6,33 64,38 55.4,33 55.4,23" fill="none" stroke="#39FF14" stroke-width="1" opacity="0.041661113483574666"/>
<polygon points="732,132 740.6,137 740.6,147 732,152 723.4,147 723.4,137" fill="none" stroke="#39FF14" stroke-width="1" opacity="0.03209467566014233"/>
<polygon points="730,53 738.6,58 738.6,68 730,73 721.4,68 721.4,58" fill="none" stroke="#39FF14" stroke-width="1" opacity="0.027390985067892906"/>
<polygon points="802,96 810.6,101 810.6,111 802,116 793.4,111 793.4,101" fill="none" stroke="#39FF14" stroke-width="1" opacity="0.02785719345137433"/>
<polygon points="319,35 327.6,40 327.6,50 319,55 310.4,50 310.4,40" fill="none" stroke="#39FF14" stroke-width="1" opacity="0.06291860669020448"/>
<polygon points="551,25 559.6,30 559.6,40 551,45 542.4,40 542.4,30" fill="none" stroke="#39FF14" stroke-width="1" opacity="0.03921253036753057"/>
<polygon points="351,188 359.6,193 359.6,203 351,208 342.4,203 342.4,193" fill="none" stroke="#39FF14" stroke-width="1" opacity="0.0495170772476302"/>
<polygon points="41,91 49.6,96 49.6,106 41,111 32.4,106 32.4,96" fill="none" stroke="#39FF14" stroke-width="1" opacity="0.07743468357814244"/>
<polygon points="35,34 43.6,39 43.6,49 35,54 26.4,49 26.4,39" fill="none" stroke="#39FF14" stroke-width="1" opacity="0.03923724446038496"/>
<polygon points="13,93 21.6,98 21.6,108 13,113 4.4,108 4.4,98" fill="none" stroke="#39FF14" stroke-width="1" opacity="0.05573031679080806"/>
<polygon points="62,37 70.6,42 70.6,52 62,57 53.4,52 53.4,42" fill="none" stroke="#39FF14" stroke-width="1" opacity="0.03258733004242341"/>
</g>

  <!-- HUD Decorative elements -->
  <path d="M 20 20 L 40 20 L 50 30" fill="none" stroke="#39FF14" stroke-width="2" opacity="0.5"/>
  <path d="M 830 180 L 810 180 L 800 170" fill="none" stroke="#39FF14" stroke-width="2" opacity="0.5"/>

  <g clip-path="url(#dashClip)">
    <rect x="-160" y="0" width="160" height="200" fill="url(#scanlineGrad)">
      <animateTransform attributeName="transform" type="translate"
                        from="0 0" to="1010 0" dur="6s" repeatCount="indefinite"/>
    </rect>
  </g>

  <g font-family="'Consolas', 'Fira Code', monospace" text-anchor="middle">

    <!-- NETWORK STATUS -->
    <g transform="translate(130, 100)">
        <circle cx="0" cy="0" r="45" fill="none" stroke="#39FF14" stroke-width="2" stroke-dasharray="10 5">
            <animateTransform attributeName="transform" type="rotate" from="0" to="360" dur="10s" repeatCount="indefinite"/>
        </circle>
        <circle cx="0" cy="0" r="35" fill="#0d0d0d" />
        <text x="0" y="-60" font-size="12" fill="#aaaaaa" letter-spacing="2">ROOT.AUTH</text>
        <text x="0" y="70" font-size="14" fill="#ffffff" font-weight="bold">OPERATIONAL</text>
    </g>

    <!-- ACTIVE USERS -->
    <g transform="translate(330, 100)">
        <text x="0" y="-20" font-size="12" fill="#aaaaaa">CITIZENS</text>
        <text x="0" y="15" font-size="28" fill="#ffffff" font-weight="bold" filter="url(#textGlow)">14,406</text>
        <text x="0" y="35" font-size="10" fill="#777777">VERIFIED HUMANS</text>
    </g>

    <!-- REGISTERED AGENTS -->
    <g transform="translate(530, 100)">
        <text x="0" y="-20" font-size="12" fill="#aaaaaa">AGENTS</text>
        <text x="0" y="15" font-size="28" fill="#00d4ff" font-weight="bold" filter="url(#textGlow)">3,816</text>
        <text x="0" y="35" font-size="10" fill="#777777">REGISTERED DIDs</text>
    </g>

    <!-- TRANSACTIONS -->
    <g transform="translate(730, 100)">
        <text x="0" y="-20" font-size="12" fill="#aaaaaa">TRANSFERS</text>
        <text x="0" y="15" font-size="28" fill="#ffffff" font-weight="bold">26,588</text>
        <text x="0" y="35" font-size="10" fill="#777777">M2M SETTLEMENTS</text>
    </g>
  </g>

  <text x="425" y="185" font-family="'Consolas', 'Fira Code', monospace" font-size="10" fill="#aaaaaa" opacity="0.6" text-anchor="middle">AXIOMID PROJECTED TARGETS (ILLUSTRATIVE): 2026-07-13 05:58:13 UTC // SECURE_HANDSHAKE</text>
</svg>