<svg width="850" height="200" viewBox="0 0 850 200" xmlns="http://www.w3.org/2000/svg">
  <defs>
    <pattern id="carbonFiber" width="10" height="10" patternUnits="userSpaceOnUse">
        <rect width="10" height="10" fill="#050505"/>
        <path d="M0,0 L5,5 L10,0 L5,-5 Z M5,5 L10,10 L15,5 L10,0 Z M-5,5 L0,10 L5,5 L0,0 Z M0,10 L5,15 L10,10 L5,5 Z" fill="#0d0d0d"/>
    </pattern>
    <filter id="textGlow">
      <feGaussianBlur stdDeviation="2" result="blur" />
      <feMerge>
        <feMergeNode in="blur"/>
        <feMergeNode in="SourceGraphic"/>
      </feMerge>
    </filter>
    <linearGradient id="neonBar" x1="0%" y1="0%" x2="100%" y2="0%">
        <stop offset="0%" stop-color="#111111"/>
        <stop offset="100%" stop-color="#39FF14"/>
    </linearGradient>
    <linearGradient id="scanlineGrad" x1="0%" y1="0%" x2="100%" y2="0%">
        <stop offset="0%" stop-color="#39FF14" stop-opacity="0"/>
        <stop offset="50%" stop-color="#39FF14" stop-opacity="0.18"/>
        <stop offset="100%" stop-color="#39FF14" stop-opacity="0"/>
    </linearGradient>
    <clipPath id="dashClip">
        <rect x="0" y="0" width="850" height="200" rx="12"/>
    </clipPath>
  </defs>

  <rect width="100%" height="100%" fill="url(#carbonFiber)" rx="12" stroke="#39FF14" stroke-width="1" stroke-opacity="0.3"/>
  <rect width="100%" height="100%" fill="#000000" opacity="0.6" rx="12" />
  <g><polygon points="705,11 713.6,16 713.6,26 705,31 696.4,26 696.4,16" fill="none" stroke="#39FF14" stroke-width="1" opacity="0.037403050156137554"/>
<polygon points="847,157 855.6,162 855.6,172 847,177 838.4,172 838.4,162" fill="none" stroke="#39FF14" stroke-width="1" opacity="0.03294985787870866"/>
<polygon points="93,2 101.6,7 101.6,17 93,22 84.4,17 84.4,7" fill="none" stroke="#39FF14" stroke-width="1" opacity="0.021821739758904106"/>
<polygon points="652,186 660.6,191 660.6,201 652,206 643.4,201 643.4,191" fill="none" stroke="#39FF14" stroke-width="1" opacity="0.027150197025213776"/>
<polygon points="614,150 622.6,155 622.6,165 614,170 605.4,165 605.4,155" fill="none" stroke="#39FF14" stroke-width="1" opacity="0.07567215823184213"/>
<polygon points="419,176 427.6,181 427.6,191 419,196 410.4,191 410.4,181" fill="none" stroke="#39FF14" stroke-width="1" opacity="0.07638589140753844"/>
<polygon points="700,4 708.6,9 708.6,19 700,24 691.4,19 691.4,9" fill="none" stroke="#39FF14" stroke-width="1" opacity="0.0505216884346055"/>
<polygon points="815,101 823.6,106 823.6,116 815,121 806.4,116 806.4,106" fill="none" stroke="#39FF14" stroke-width="1" opacity="0.0644956920737768"/>
<polygon points="489,137 497.6,142 497.6,152 489,157 480.4,152 480.4,142" fill="none" stroke="#39FF14" stroke-width="1" opacity="0.07041310875784897"/>
<polygon points="786,29 794.6,34 794.6,44 786,49 777.4,44 777.4,34" fill="none" stroke="#39FF14" stroke-width="1" opacity="0.05721498754482099"/>
<polygon points="238,118 246.6,123 246.6,133 238,138 229.4,133 229.4,123" fill="none" stroke="#39FF14" stroke-width="1" opacity="0.02676056449938543"/>
<polygon points="677,53 685.6,58 685.6,68 677,73 668.4,68 668.4,58" fill="none" stroke="#39FF14" stroke-width="1" opacity="0.05308422286021017"/>
<polygon points="686,50 694.6,55 694.6,65 686,70 677.4,65 677.4,55" fill="none" stroke="#39FF14" stroke-width="1" opacity="0.07463819992639951"/>
<polygon points="86,3 94.6,8 94.6,18 86,23 77.4,18 77.4,8" fill="none" stroke="#39FF14" stroke-width="1" opacity="0.022278368313150016"/>
<polygon points="82,108 90.6,113 90.6,123 82,128 73.4,123 73.4,113" fill="none" stroke="#39FF14" stroke-width="1" opacity="0.07023015928636366"/>
<polygon points="354,85 362.6,90 362.6,100 354,105 345.4,100 345.4,90" fill="none" stroke="#39FF14" stroke-width="1" opacity="0.07284200181445115"/>
<polygon points="196,138 204.6,143 204.6,153 196,158 187.4,153 187.4,143" fill="none" stroke="#39FF14" stroke-width="1" opacity="0.05181160712098554"/>
<polygon points="377,72 385.6,77 385.6,87 377,92 368.4,87 368.4,77" fill="none" stroke="#39FF14" stroke-width="1" opacity="0.028806886573890474"/>
<polygon points="787,159 795.6,164 795.6,174 787,179 778.4,174 778.4,164" fill="none" stroke="#39FF14" stroke-width="1" opacity="0.023428297287643472"/>
<polygon points="291,116 299.6,121 299.6,131 291,136 282.4,131 282.4,121" fill="none" stroke="#39FF14" stroke-width="1" opacity="0.022796820099332923"/>
<polygon points="712,-8 720.6,-3 720.6,7 712,12 703.4,7 703.4,-3" fill="none" stroke="#39FF14" stroke-width="1" opacity="0.04571844031417188"/>
<polygon points="40,170 48.6,175 48.6,185 40,190 31.4,185 31.4,175" fill="none" stroke="#39FF14" stroke-width="1" opacity="0.06739544998097127"/>
<polygon points="730,106 738.6,111 738.6,121 730,126 721.4,121 721.4,111" fill="none" stroke="#39FF14" stroke-width="1" opacity="0.02925214276099758"/>
<polygon points="192,17 200.6,22 200.6,32 192,37 183.4,32 183.4,22" fill="none" stroke="#39FF14" stroke-width="1" opacity="0.05611834804895306"/>
<polygon points="793,168 801.6,173 801.6,183 793,188 784.4,183 784.4,173" fill="none" stroke="#39FF14" stroke-width="1" opacity="0.031170972613500915"/>
<polygon points="487,85 495.6,90 495.6,100 487,105 478.4,100 478.4,90" fill="none" stroke="#39FF14" stroke-width="1" opacity="0.03844139557345911"/>
<polygon points="756,159 764.6,164 764.6,174 756,179 747.4,174 747.4,164" fill="none" stroke="#39FF14" stroke-width="1" opacity="0.05627070731646741"/>
<polygon points="241,99 249.6,104 249.6,114 241,119 232.4,114 232.4,104" fill="none" stroke="#39FF14" stroke-width="1" opacity="0.0584100735760307"/>
<polygon points="650,30 658.6,35 658.6,45 650,50 641.4,45 641.4,35" fill="none" stroke="#39FF14" stroke-width="1" opacity="0.03783656490901868"/>
<polygon points="314,163 322.6,168 322.6,178 314,183 305.4,178 305.4,168" fill="none" stroke="#39FF14" stroke-width="1" opacity="0.06500732798975205"/>
</g>

  <!-- HUD Decorative elements -->
  <path d="M 20 20 L 40 20 L 50 30" fill="none" stroke="#39FF14" stroke-width="2" opacity="0.5"/>
  <path d="M 830 180 L 810 180 L 800 170" fill="none" stroke="#39FF14" stroke-width="2" opacity="0.5"/>

  <g clip-path="url(#dashClip)">
    <rect x="-160" y="0" width="160" height="200" fill="url(#scanlineGrad)">
      <animateTransform attributeName="transform" type="translate"
                        from="0 0" to="1010 0" dur="6s" repeatCount="indefinite"/>
    </rect>
  </g>

  <g font-family="'Consolas', 'Fira Code', monospace" text-anchor="middle">

    <!-- NETWORK STATUS -->
    <g transform="translate(130, 100)">
        <circle cx="0" cy="0" r="45" fill="none" stroke="#39FF14" stroke-width="2" stroke-dasharray="10 5">
            <animateTransform attributeName="transform" type="rotate" from="0" to="360" dur="10s" repeatCount="indefinite"/>
        </circle>
        <circle cx="0" cy="0" r="35" fill="#0d0d0d" />
        <text x="0" y="-60" font-size="12" fill="#aaaaaa" letter-spacing="2">ROOT.AUTH</text>
        <text x="0" y="70" font-size="14" fill="#ffffff" font-weight="bold">OPERATIONAL</text>
    </g>

    <!-- ACTIVE USERS -->
    <g transform="translate(330, 100)">
        <text x="0" y="-20" font-size="12" fill="#aaaaaa">CITIZENS</text>
        <text x="0" y="15" font-size="28" fill="#ffffff" font-weight="bold" filter="url(#textGlow)">13,525</text>
        <text x="0" y="35" font-size="10" fill="#777777">VERIFIED HUMANS</text>
    </g>

    <!-- REGISTERED AGENTS -->
    <g transform="translate(530, 100)">
        <text x="0" y="-20" font-size="12" fill="#aaaaaa">AGENTS</text>
        <text x="0" y="15" font-size="28" fill="#00d4ff" font-weight="bold" filter="url(#textGlow)">3,270</text>
        <text x="0" y="35" font-size="10" fill="#777777">REGISTERED DIDs</text>
    </g>

    <!-- TRANSACTIONS -->
    <g transform="translate(730, 100)">
        <text x="0" y="-20" font-size="12" fill="#aaaaaa">TRANSFERS</text>
        <text x="0" y="15" font-size="28" fill="#ffffff" font-weight="bold">38,878</text>
        <text x="0" y="35" font-size="10" fill="#777777">M2M SETTLEMENTS</text>
    </g>
  </g>

  <text x="425" y="185" font-family="'Consolas', 'Fira Code', monospace" font-size="10" fill="#aaaaaa" opacity="0.6" text-anchor="middle">AXIOMID PROJECTED TARGETS (ILLUSTRATIVE): 2026-07-02 00:31:02 UTC // SECURE_HANDSHAKE</text>
</svg>