<svg width="850" height="200" viewBox="0 0 850 200" xmlns="http://www.w3.org/2000/svg">
  <defs>
    <pattern id="carbonFiber" width="10" height="10" patternUnits="userSpaceOnUse">
        <rect width="10" height="10" fill="#050505"/>
        <path d="M0,0 L5,5 L10,0 L5,-5 Z M5,5 L10,10 L15,5 L10,0 Z M-5,5 L0,10 L5,5 L0,0 Z M0,10 L5,15 L10,10 L5,5 Z" fill="#0d0d0d"/>
    </pattern>
    <filter id="textGlow">
      <feGaussianBlur stdDeviation="2" result="blur" />
      <feMerge>
        <feMergeNode in="blur"/>
        <feMergeNode in="SourceGraphic"/>
      </feMerge>
    </filter>
    <linearGradient id="neonBar" x1="0%" y1="0%" x2="100%" y2="0%">
        <stop offset="0%" stop-color="#111111"/>
        <stop offset="100%" stop-color="#39FF14"/>
    </linearGradient>
    <linearGradient id="scanlineGrad" x1="0%" y1="0%" x2="100%" y2="0%">
        <stop offset="0%" stop-color="#39FF14" stop-opacity="0"/>
        <stop offset="50%" stop-color="#39FF14" stop-opacity="0.18"/>
        <stop offset="100%" stop-color="#39FF14" stop-opacity="0"/>
    </linearGradient>
    <clipPath id="dashClip">
        <rect x="0" y="0" width="850" height="200" rx="12"/>
    </clipPath>
  </defs>

  <rect width="100%" height="100%" fill="url(#carbonFiber)" rx="12" stroke="#39FF14" stroke-width="1" stroke-opacity="0.3"/>
  <rect width="100%" height="100%" fill="#000000" opacity="0.6" rx="12" />
  <g><polygon points="723,156 731.6,161 731.6,171 723,176 714.4,171 714.4,161" fill="none" stroke="#39FF14" stroke-width="1" opacity="0.024179531156335168"/>
<polygon points="771,17 779.6,22 779.6,32 771,37 762.4,32 762.4,22" fill="none" stroke="#39FF14" stroke-width="1" opacity="0.04682143681450781"/>
<polygon points="34,83 42.6,88 42.6,98 34,103 25.4,98 25.4,88" fill="none" stroke="#39FF14" stroke-width="1" opacity="0.062017992053500476"/>
<polygon points="207,118 215.6,123 215.6,133 207,138 198.4,133 198.4,123" fill="none" stroke="#39FF14" stroke-width="1" opacity="0.023496559547643327"/>
<polygon points="505,169 513.6,174 513.6,184 505,189 496.4,184 496.4,174" fill="none" stroke="#39FF14" stroke-width="1" opacity="0.032399042661662936"/>
<polygon points="580,147 588.6,152 588.6,162 580,167 571.4,162 571.4,152" fill="none" stroke="#39FF14" stroke-width="1" opacity="0.05817253615627853"/>
<polygon points="309,56 317.6,61 317.6,71 309,76 300.4,71 300.4,61" fill="none" stroke="#39FF14" stroke-width="1" opacity="0.05645595498217569"/>
<polygon points="643,100 651.6,105 651.6,115 643,120 634.4,115 634.4,105" fill="none" stroke="#39FF14" stroke-width="1" opacity="0.0271689561840861"/>
<polygon points="834,94 842.6,99 842.6,109 834,114 825.4,109 825.4,99" fill="none" stroke="#39FF14" stroke-width="1" opacity="0.02697154822517028"/>
<polygon points="338,88 346.6,93 346.6,103 338,108 329.4,103 329.4,93" fill="none" stroke="#39FF14" stroke-width="1" opacity="0.043694303899188824"/>
<polygon points="682,122 690.6,127 690.6,137 682,142 673.4,137 673.4,127" fill="none" stroke="#39FF14" stroke-width="1" opacity="0.05275951653717899"/>
<polygon points="745,141 753.6,146 753.6,156 745,161 736.4,156 736.4,146" fill="none" stroke="#39FF14" stroke-width="1" opacity="0.023946747115588772"/>
<polygon points="100,166 108.6,171 108.6,181 100,186 91.4,181 91.4,171" fill="none" stroke="#39FF14" stroke-width="1" opacity="0.07176755949564056"/>
<polygon points="188,121 196.6,126 196.6,136 188,141 179.4,136 179.4,126" fill="none" stroke="#39FF14" stroke-width="1" opacity="0.031822548884743965"/>
<polygon points="411,163 419.6,168 419.6,178 411,183 402.4,178 402.4,168" fill="none" stroke="#39FF14" stroke-width="1" opacity="0.023179544182675132"/>
<polygon points="767,181 775.6,186 775.6,196 767,201 758.4,196 758.4,186" fill="none" stroke="#39FF14" stroke-width="1" opacity="0.044222621518736766"/>
<polygon points="699,146 707.6,151 707.6,161 699,166 690.4,161 690.4,151" fill="none" stroke="#39FF14" stroke-width="1" opacity="0.030052300034481894"/>
<polygon points="821,104 829.6,109 829.6,119 821,124 812.4,119 812.4,109" fill="none" stroke="#39FF14" stroke-width="1" opacity="0.05111361433844744"/>
<polygon points="491,125 499.6,130 499.6,140 491,145 482.4,140 482.4,130" fill="none" stroke="#39FF14" stroke-width="1" opacity="0.027993050237578594"/>
<polygon points="53,114 61.6,119 61.6,129 53,134 44.4,129 44.4,119" fill="none" stroke="#39FF14" stroke-width="1" opacity="0.07549930611761894"/>
<polygon points="818,107 826.6,112 826.6,122 818,127 809.4,122 809.4,112" fill="none" stroke="#39FF14" stroke-width="1" opacity="0.07980513883255738"/>
<polygon points="394,64 402.6,69 402.6,79 394,84 385.4,79 385.4,69" fill="none" stroke="#39FF14" stroke-width="1" opacity="0.0673813948233128"/>
<polygon points="721,166 729.6,171 729.6,181 721,186 712.4,181 712.4,171" fill="none" stroke="#39FF14" stroke-width="1" opacity="0.03389781275751031"/>
<polygon points="557,180 565.6,185 565.6,195 557,200 548.4,195 548.4,185" fill="none" stroke="#39FF14" stroke-width="1" opacity="0.04416572347144721"/>
<polygon points="130,20 138.6,25 138.6,35 130,40 121.4,35 121.4,25" fill="none" stroke="#39FF14" stroke-width="1" opacity="0.035033005384556344"/>
<polygon points="240,5 248.6,10 248.6,20 240,25 231.4,20 231.4,10" fill="none" stroke="#39FF14" stroke-width="1" opacity="0.07792864455599093"/>
<polygon points="683,125 691.6,130 691.6,140 683,145 674.4,140 674.4,130" fill="none" stroke="#39FF14" stroke-width="1" opacity="0.0731525920293519"/>
<polygon points="707,125 715.6,130 715.6,140 707,145 698.4,140 698.4,130" fill="none" stroke="#39FF14" stroke-width="1" opacity="0.05523634447682314"/>
<polygon points="621,45 629.6,50 629.6,60 621,65 612.4,60 612.4,50" fill="none" stroke="#39FF14" stroke-width="1" opacity="0.02812820339516601"/>
<polygon points="804,19 812.6,24 812.6,34 804,39 795.4,34 795.4,24" fill="none" stroke="#39FF14" stroke-width="1" opacity="0.04782100687122782"/>
</g>

  <!-- HUD Decorative elements -->
  <path d="M 20 20 L 40 20 L 50 30" fill="none" stroke="#39FF14" stroke-width="2" opacity="0.5"/>
  <path d="M 830 180 L 810 180 L 800 170" fill="none" stroke="#39FF14" stroke-width="2" opacity="0.5"/>

  <g clip-path="url(#dashClip)">
    <rect x="-160" y="0" width="160" height="200" fill="url(#scanlineGrad)">
      <animateTransform attributeName="transform" type="translate"
                        from="0 0" to="1010 0" dur="6s" repeatCount="indefinite"/>
    </rect>
  </g>

  <g font-family="'Consolas', 'Fira Code', monospace" text-anchor="middle">

    <!-- NETWORK STATUS -->
    <g transform="translate(130, 100)">
        <circle cx="0" cy="0" r="45" fill="none" stroke="#39FF14" stroke-width="2" stroke-dasharray="10 5">
            <animateTransform attributeName="transform" type="rotate" from="0" to="360" dur="10s" repeatCount="indefinite"/>
        </circle>
        <circle cx="0" cy="0" r="35" fill="#0d0d0d" />
        <text x="0" y="-60" font-size="12" fill="#aaaaaa" letter-spacing="2">ROOT.AUTH</text>
        <text x="0" y="70" font-size="14" fill="#ffffff" font-weight="bold">OPERATIONAL</text>
    </g>

    <!-- ACTIVE USERS -->
    <g transform="translate(330, 100)">
        <text x="0" y="-20" font-size="12" fill="#aaaaaa">CITIZENS</text>
        <text x="0" y="15" font-size="28" fill="#ffffff" font-weight="bold" filter="url(#textGlow)">13,664</text>
        <text x="0" y="35" font-size="10" fill="#777777">VERIFIED HUMANS</text>
    </g>

    <!-- REGISTERED AGENTS -->
    <g transform="translate(530, 100)">
        <text x="0" y="-20" font-size="12" fill="#aaaaaa">AGENTS</text>
        <text x="0" y="15" font-size="28" fill="#00d4ff" font-weight="bold" filter="url(#textGlow)">4,266</text>
        <text x="0" y="35" font-size="10" fill="#777777">REGISTERED DIDs</text>
    </g>

    <!-- TRANSACTIONS -->
    <g transform="translate(730, 100)">
        <text x="0" y="-20" font-size="12" fill="#aaaaaa">TRANSFERS</text>
        <text x="0" y="15" font-size="28" fill="#ffffff" font-weight="bold">32,762</text>
        <text x="0" y="35" font-size="10" fill="#777777">M2M SETTLEMENTS</text>
    </g>
  </g>

  <text x="425" y="185" font-family="'Consolas', 'Fira Code', monospace" font-size="10" fill="#aaaaaa" opacity="0.6" text-anchor="middle">AXIOMID PROJECTED TARGETS (ILLUSTRATIVE): 2026-06-18 21:40:03 UTC // SECURE_HANDSHAKE</text>
</svg>