<svg width="850" height="200" viewBox="0 0 850 200" xmlns="http://www.w3.org/2000/svg">
  <defs>
    <pattern id="carbonFiber" width="10" height="10" patternUnits="userSpaceOnUse">
        <rect width="10" height="10" fill="#050505"/>
        <path d="M0,0 L5,5 L10,0 L5,-5 Z M5,5 L10,10 L15,5 L10,0 Z M-5,5 L0,10 L5,5 L0,0 Z M0,10 L5,15 L10,10 L5,5 Z" fill="#0d0d0d"/>
    </pattern>
    <filter id="textGlow">
      <feGaussianBlur stdDeviation="2" result="blur" />
      <feMerge>
        <feMergeNode in="blur"/>
        <feMergeNode in="SourceGraphic"/>
      </feMerge>
    </filter>
    <linearGradient id="neonBar" x1="0%" y1="0%" x2="100%" y2="0%">
        <stop offset="0%" stop-color="#111111"/>
        <stop offset="100%" stop-color="#39FF14"/>
    </linearGradient>
    <linearGradient id="scanlineGrad" x1="0%" y1="0%" x2="100%" y2="0%">
        <stop offset="0%" stop-color="#39FF14" stop-opacity="0"/>
        <stop offset="50%" stop-color="#39FF14" stop-opacity="0.18"/>
        <stop offset="100%" stop-color="#39FF14" stop-opacity="0"/>
    </linearGradient>
    <clipPath id="dashClip">
        <rect x="0" y="0" width="850" height="200" rx="12"/>
    </clipPath>
  </defs>

  <rect width="100%" height="100%" fill="url(#carbonFiber)" rx="12" stroke="#39FF14" stroke-width="1" stroke-opacity="0.3"/>
  <rect width="100%" height="100%" fill="#000000" opacity="0.6" rx="12" />
  <g><polygon points="160,79 168.6,84 168.6,94 160,99 151.4,94 151.4,84" fill="none" stroke="#39FF14" stroke-width="1" opacity="0.05723856822816352"/>
<polygon points="169,51 177.6,56 177.6,66 169,71 160.4,66 160.4,56" fill="none" stroke="#39FF14" stroke-width="1" opacity="0.04920383286021701"/>
<polygon points="352,161 360.6,166 360.6,176 352,181 343.4,176 343.4,166" fill="none" stroke="#39FF14" stroke-width="1" opacity="0.07661501491535487"/>
<polygon points="608,38 616.6,43 616.6,53 608,58 599.4,53 599.4,43" fill="none" stroke="#39FF14" stroke-width="1" opacity="0.03347503274844991"/>
<polygon points="404,131 412.6,136 412.6,146 404,151 395.4,146 395.4,136" fill="none" stroke="#39FF14" stroke-width="1" opacity="0.021938983112345992"/>
<polygon points="121,160 129.6,165 129.6,175 121,180 112.4,175 112.4,165" fill="none" stroke="#39FF14" stroke-width="1" opacity="0.035086202669694276"/>
<polygon points="188,116 196.6,121 196.6,131 188,136 179.4,131 179.4,121" fill="none" stroke="#39FF14" stroke-width="1" opacity="0.048335362325152204"/>
<polygon points="836,92 844.6,97 844.6,107 836,112 827.4,107 827.4,97" fill="none" stroke="#39FF14" stroke-width="1" opacity="0.036584852759754885"/>
<polygon points="810,3 818.6,8 818.6,18 810,23 801.4,18 801.4,8" fill="none" stroke="#39FF14" stroke-width="1" opacity="0.023099416106433655"/>
<polygon points="775,132 783.6,137 783.6,147 775,152 766.4,147 766.4,137" fill="none" stroke="#39FF14" stroke-width="1" opacity="0.030576024733324596"/>
<polygon points="130,19 138.6,24 138.6,34 130,39 121.4,34 121.4,24" fill="none" stroke="#39FF14" stroke-width="1" opacity="0.05365023839443683"/>
<polygon points="433,151 441.6,156 441.6,166 433,171 424.4,166 424.4,156" fill="none" stroke="#39FF14" stroke-width="1" opacity="0.047210902344877834"/>
<polygon points="148,30 156.6,35 156.6,45 148,50 139.4,45 139.4,35" fill="none" stroke="#39FF14" stroke-width="1" opacity="0.05422927626610162"/>
<polygon points="25,55 33.6,60 33.6,70 25,75 16.4,70 16.4,60" fill="none" stroke="#39FF14" stroke-width="1" opacity="0.02665882973278525"/>
<polygon points="219,74 227.6,79 227.6,89 219,94 210.4,89 210.4,79" fill="none" stroke="#39FF14" stroke-width="1" opacity="0.06884822115731527"/>
<polygon points="188,87 196.6,92 196.6,102 188,107 179.4,102 179.4,92" fill="none" stroke="#39FF14" stroke-width="1" opacity="0.029872631947760013"/>
<polygon points="838,21 846.6,26 846.6,36 838,41 829.4,36 829.4,26" fill="none" stroke="#39FF14" stroke-width="1" opacity="0.030009739240154293"/>
<polygon points="812,77 820.6,82 820.6,92 812,97 803.4,92 803.4,82" fill="none" stroke="#39FF14" stroke-width="1" opacity="0.07722517289516728"/>
<polygon points="390,79 398.6,84 398.6,94 390,99 381.4,94 381.4,84" fill="none" stroke="#39FF14" stroke-width="1" opacity="0.0604889068548341"/>
<polygon points="382,189 390.6,194 390.6,204 382,209 373.4,204 373.4,194" fill="none" stroke="#39FF14" stroke-width="1" opacity="0.07679109455435171"/>
<polygon points="147,62 155.6,67 155.6,77 147,82 138.4,77 138.4,67" fill="none" stroke="#39FF14" stroke-width="1" opacity="0.07438786460495403"/>
<polygon points="648,140 656.6,145 656.6,155 648,160 639.4,155 639.4,145" fill="none" stroke="#39FF14" stroke-width="1" opacity="0.07895942052002933"/>
<polygon points="493,134 501.6,139 501.6,149 493,154 484.4,149 484.4,139" fill="none" stroke="#39FF14" stroke-width="1" opacity="0.04155653692454254"/>
<polygon points="262,35 270.6,40 270.6,50 262,55 253.4,50 253.4,40" fill="none" stroke="#39FF14" stroke-width="1" opacity="0.04904843449735642"/>
<polygon points="32,102 40.6,107 40.6,117 32,122 23.4,117 23.4,107" fill="none" stroke="#39FF14" stroke-width="1" opacity="0.04066661864141408"/>
<polygon points="18,156 26.6,161 26.6,171 18,176 9.4,171 9.4,161" fill="none" stroke="#39FF14" stroke-width="1" opacity="0.03712210011781135"/>
<polygon points="278,164 286.6,169 286.6,179 278,184 269.4,179 269.4,169" fill="none" stroke="#39FF14" stroke-width="1" opacity="0.07122988592360528"/>
<polygon points="584,151 592.6,156 592.6,166 584,171 575.4,166 575.4,156" fill="none" stroke="#39FF14" stroke-width="1" opacity="0.024815571017362363"/>
<polygon points="726,104 734.6,109 734.6,119 726,124 717.4,119 717.4,109" fill="none" stroke="#39FF14" stroke-width="1" opacity="0.025869302090018906"/>
<polygon points="273,170 281.6,175 281.6,185 273,190 264.4,185 264.4,175" fill="none" stroke="#39FF14" stroke-width="1" opacity="0.06990485905499767"/>
</g>

  <!-- HUD Decorative elements -->
  <path d="M 20 20 L 40 20 L 50 30" fill="none" stroke="#39FF14" stroke-width="2" opacity="0.5"/>
  <path d="M 830 180 L 810 180 L 800 170" fill="none" stroke="#39FF14" stroke-width="2" opacity="0.5"/>

  <g clip-path="url(#dashClip)">
    <rect x="-160" y="0" width="160" height="200" fill="url(#scanlineGrad)">
      <animateTransform attributeName="transform" type="translate"
                        from="0 0" to="1010 0" dur="6s" repeatCount="indefinite"/>
    </rect>
  </g>

  <g font-family="'Consolas', 'Fira Code', monospace" text-anchor="middle">

    <!-- NETWORK STATUS -->
    <g transform="translate(130, 100)">
        <circle cx="0" cy="0" r="45" fill="none" stroke="#39FF14" stroke-width="2" stroke-dasharray="10 5">
            <animateTransform attributeName="transform" type="rotate" from="0" to="360" dur="10s" repeatCount="indefinite"/>
        </circle>
        <circle cx="0" cy="0" r="35" fill="#0d0d0d" />
        <text x="0" y="-60" font-size="12" fill="#aaaaaa" letter-spacing="2">ROOT.AUTH</text>
        <text x="0" y="70" font-size="14" fill="#ffffff" font-weight="bold">OPERATIONAL</text>
    </g>

    <!-- ACTIVE USERS -->
    <g transform="translate(330, 100)">
        <text x="0" y="-20" font-size="12" fill="#aaaaaa">CITIZENS</text>
        <text x="0" y="15" font-size="28" fill="#ffffff" font-weight="bold" filter="url(#textGlow)">15,285</text>
        <text x="0" y="35" font-size="10" fill="#777777">VERIFIED HUMANS</text>
    </g>

    <!-- REGISTERED AGENTS -->
    <g transform="translate(530, 100)">
        <text x="0" y="-20" font-size="12" fill="#aaaaaa">AGENTS</text>
        <text x="0" y="15" font-size="28" fill="#00d4ff" font-weight="bold" filter="url(#textGlow)">4,684</text>
        <text x="0" y="35" font-size="10" fill="#777777">REGISTERED DIDs</text>
    </g>

    <!-- TRANSACTIONS -->
    <g transform="translate(730, 100)">
        <text x="0" y="-20" font-size="12" fill="#aaaaaa">TRANSFERS</text>
        <text x="0" y="15" font-size="28" fill="#ffffff" font-weight="bold">29,158</text>
        <text x="0" y="35" font-size="10" fill="#777777">M2M SETTLEMENTS</text>
    </g>
  </g>

  <text x="425" y="185" font-family="'Consolas', 'Fira Code', monospace" font-size="10" fill="#aaaaaa" opacity="0.6" text-anchor="middle">AXIOMID PROJECTED TARGETS (ILLUSTRATIVE): 2026-07-14 13:08:04 UTC // SECURE_HANDSHAKE</text>
</svg>