<svg width="850" height="200" viewBox="0 0 850 200" xmlns="http://www.w3.org/2000/svg">
  <defs>
    <pattern id="carbonFiber" width="10" height="10" patternUnits="userSpaceOnUse">
        <rect width="10" height="10" fill="#050505"/>
        <path d="M0,0 L5,5 L10,0 L5,-5 Z M5,5 L10,10 L15,5 L10,0 Z M-5,5 L0,10 L5,5 L0,0 Z M0,10 L5,15 L10,10 L5,5 Z" fill="#0d0d0d"/>
    </pattern>
    <filter id="textGlow">
      <feGaussianBlur stdDeviation="2" result="blur" />
      <feMerge>
        <feMergeNode in="blur"/>
        <feMergeNode in="SourceGraphic"/>
      </feMerge>
    </filter>
    <linearGradient id="neonBar" x1="0%" y1="0%" x2="100%" y2="0%">
        <stop offset="0%" stop-color="#111111"/>
        <stop offset="100%" stop-color="#39FF14"/>
    </linearGradient>
    <linearGradient id="scanlineGrad" x1="0%" y1="0%" x2="100%" y2="0%">
        <stop offset="0%" stop-color="#39FF14" stop-opacity="0"/>
        <stop offset="50%" stop-color="#39FF14" stop-opacity="0.18"/>
        <stop offset="100%" stop-color="#39FF14" stop-opacity="0"/>
    </linearGradient>
    <clipPath id="dashClip">
        <rect x="0" y="0" width="850" height="200" rx="12"/>
    </clipPath>
  </defs>

  <rect width="100%" height="100%" fill="url(#carbonFiber)" rx="12" stroke="#39FF14" stroke-width="1" stroke-opacity="0.3"/>
  <rect width="100%" height="100%" fill="#000000" opacity="0.6" rx="12" />
  <g><polygon points="693,-2 701.6,3 701.6,13 693,18 684.4,13 684.4,3" fill="none" stroke="#39FF14" stroke-width="1" opacity="0.03945866536284066"/>
<polygon points="93,60 101.6,65 101.6,75 93,80 84.4,75 84.4,65" fill="none" stroke="#39FF14" stroke-width="1" opacity="0.02267485628231141"/>
<polygon points="463,50 471.6,55 471.6,65 463,70 454.4,65 454.4,55" fill="none" stroke="#39FF14" stroke-width="1" opacity="0.07876296539350558"/>
<polygon points="828,69 836.6,74 836.6,84 828,89 819.4,84 819.4,74" fill="none" stroke="#39FF14" stroke-width="1" opacity="0.03547157680780408"/>
<polygon points="480,137 488.6,142 488.6,152 480,157 471.4,152 471.4,142" fill="none" stroke="#39FF14" stroke-width="1" opacity="0.03789227662765344"/>
<polygon points="138,89 146.6,94 146.6,104 138,109 129.4,104 129.4,94" fill="none" stroke="#39FF14" stroke-width="1" opacity="0.05901237101303583"/>
<polygon points="252,72 260.6,77 260.6,87 252,92 243.4,87 243.4,77" fill="none" stroke="#39FF14" stroke-width="1" opacity="0.07808610287754027"/>
<polygon points="196,189 204.6,194 204.6,204 196,209 187.4,204 187.4,194" fill="none" stroke="#39FF14" stroke-width="1" opacity="0.04232005284227975"/>
<polygon points="479,51 487.6,56 487.6,66 479,71 470.4,66 470.4,56" fill="none" stroke="#39FF14" stroke-width="1" opacity="0.038410411268240116"/>
<polygon points="40,59 48.6,64 48.6,74 40,79 31.4,74 31.4,64" fill="none" stroke="#39FF14" stroke-width="1" opacity="0.06708611743589707"/>
<polygon points="82,101 90.6,106 90.6,116 82,121 73.4,116 73.4,106" fill="none" stroke="#39FF14" stroke-width="1" opacity="0.025969989487214067"/>
<polygon points="278,104 286.6,109 286.6,119 278,124 269.4,119 269.4,109" fill="none" stroke="#39FF14" stroke-width="1" opacity="0.06531012220551119"/>
<polygon points="198,187 206.6,192 206.6,202 198,207 189.4,202 189.4,192" fill="none" stroke="#39FF14" stroke-width="1" opacity="0.06437883577974936"/>
<polygon points="81,73 89.6,78 89.6,88 81,93 72.4,88 72.4,78" fill="none" stroke="#39FF14" stroke-width="1" opacity="0.0631216257112364"/>
<polygon points="697,98 705.6,103 705.6,113 697,118 688.4,113 688.4,103" fill="none" stroke="#39FF14" stroke-width="1" opacity="0.04525422714777428"/>
<polygon points="544,184 552.6,189 552.6,199 544,204 535.4,199 535.4,189" fill="none" stroke="#39FF14" stroke-width="1" opacity="0.0438322545259221"/>
<polygon points="284,54 292.6,59 292.6,69 284,74 275.4,69 275.4,59" fill="none" stroke="#39FF14" stroke-width="1" opacity="0.04354058779943207"/>
<polygon points="443,112 451.6,117 451.6,127 443,132 434.4,127 434.4,117" fill="none" stroke="#39FF14" stroke-width="1" opacity="0.07077732067620464"/>
<polygon points="609,126 617.6,131 617.6,141 609,146 600.4,141 600.4,131" fill="none" stroke="#39FF14" stroke-width="1" opacity="0.04323033903484268"/>
<polygon points="723,122 731.6,127 731.6,137 723,142 714.4,137 714.4,127" fill="none" stroke="#39FF14" stroke-width="1" opacity="0.07102633075332145"/>
<polygon points="340,-9 348.6,-4 348.6,6 340,11 331.4,6 331.4,-4" fill="none" stroke="#39FF14" stroke-width="1" opacity="0.07775884692907134"/>
<polygon points="184,177 192.6,182 192.6,192 184,197 175.4,192 175.4,182" fill="none" stroke="#39FF14" stroke-width="1" opacity="0.07529439113865023"/>
<polygon points="663,90 671.6,95 671.6,105 663,110 654.4,105 654.4,95" fill="none" stroke="#39FF14" stroke-width="1" opacity="0.052786795321851834"/>
<polygon points="659,67 667.6,72 667.6,82 659,87 650.4,82 650.4,72" fill="none" stroke="#39FF14" stroke-width="1" opacity="0.039976880106936105"/>
<polygon points="240,76 248.6,81 248.6,91 240,96 231.4,91 231.4,81" fill="none" stroke="#39FF14" stroke-width="1" opacity="0.026229223288086047"/>
<polygon points="761,117 769.6,122 769.6,132 761,137 752.4,132 752.4,122" fill="none" stroke="#39FF14" stroke-width="1" opacity="0.06956005212466036"/>
<polygon points="455,84 463.6,89 463.6,99 455,104 446.4,99 446.4,89" fill="none" stroke="#39FF14" stroke-width="1" opacity="0.03291588613502951"/>
<polygon points="551,52 559.6,57 559.6,67 551,72 542.4,67 542.4,57" fill="none" stroke="#39FF14" stroke-width="1" opacity="0.058960268547572386"/>
<polygon points="43,107 51.6,112 51.6,122 43,127 34.4,122 34.4,112" fill="none" stroke="#39FF14" stroke-width="1" opacity="0.06547194099948853"/>
<polygon points="412,83 420.6,88 420.6,98 412,103 403.4,98 403.4,88" fill="none" stroke="#39FF14" stroke-width="1" opacity="0.02170890434630956"/>
</g>

  <!-- HUD Decorative elements -->
  <path d="M 20 20 L 40 20 L 50 30" fill="none" stroke="#39FF14" stroke-width="2" opacity="0.5"/>
  <path d="M 830 180 L 810 180 L 800 170" fill="none" stroke="#39FF14" stroke-width="2" opacity="0.5"/>

  <g clip-path="url(#dashClip)">
    <rect x="-160" y="0" width="160" height="200" fill="url(#scanlineGrad)">
      <animateTransform attributeName="transform" type="translate"
                        from="0 0" to="1010 0" dur="6s" repeatCount="indefinite"/>
    </rect>
  </g>

  <g font-family="'Consolas', 'Fira Code', monospace" text-anchor="middle">

    <!-- NETWORK STATUS -->
    <g transform="translate(130, 100)">
        <circle cx="0" cy="0" r="45" fill="none" stroke="#39FF14" stroke-width="2" stroke-dasharray="10 5">
            <animateTransform attributeName="transform" type="rotate" from="0" to="360" dur="10s" repeatCount="indefinite"/>
        </circle>
        <circle cx="0" cy="0" r="35" fill="#0d0d0d" />
        <text x="0" y="-60" font-size="12" fill="#aaaaaa" letter-spacing="2">ROOT.AUTH</text>
        <text x="0" y="70" font-size="14" fill="#ffffff" font-weight="bold">OPERATIONAL</text>
    </g>

    <!-- ACTIVE USERS -->
    <g transform="translate(330, 100)">
        <text x="0" y="-20" font-size="12" fill="#aaaaaa">CITIZENS</text>
        <text x="0" y="15" font-size="28" fill="#ffffff" font-weight="bold" filter="url(#textGlow)">12,754</text>
        <text x="0" y="35" font-size="10" fill="#777777">VERIFIED HUMANS</text>
    </g>

    <!-- REGISTERED AGENTS -->
    <g transform="translate(530, 100)">
        <text x="0" y="-20" font-size="12" fill="#aaaaaa">AGENTS</text>
        <text x="0" y="15" font-size="28" fill="#00d4ff" font-weight="bold" filter="url(#textGlow)">3,629</text>
        <text x="0" y="35" font-size="10" fill="#777777">REGISTERED DIDs</text>
    </g>

    <!-- TRANSACTIONS -->
    <g transform="translate(730, 100)">
        <text x="0" y="-20" font-size="12" fill="#aaaaaa">TRANSFERS</text>
        <text x="0" y="15" font-size="28" fill="#ffffff" font-weight="bold">37,775</text>
        <text x="0" y="35" font-size="10" fill="#777777">M2M SETTLEMENTS</text>
    </g>
  </g>

  <text x="425" y="185" font-family="'Consolas', 'Fira Code', monospace" font-size="10" fill="#aaaaaa" opacity="0.6" text-anchor="middle">AXIOMID PROJECTED TARGETS (ILLUSTRATIVE): 2026-06-22 13:49:26 UTC // SECURE_HANDSHAKE</text>
</svg>