<svg width="850" height="200" viewBox="0 0 850 200" xmlns="http://www.w3.org/2000/svg">
  <defs>
    <pattern id="carbonFiber" width="10" height="10" patternUnits="userSpaceOnUse">
        <rect width="10" height="10" fill="#050505"/>
        <path d="M0,0 L5,5 L10,0 L5,-5 Z M5,5 L10,10 L15,5 L10,0 Z M-5,5 L0,10 L5,5 L0,0 Z M0,10 L5,15 L10,10 L5,5 Z" fill="#0d0d0d"/>
    </pattern>
    <filter id="textGlow">
      <feGaussianBlur stdDeviation="2" result="blur" />
      <feMerge>
        <feMergeNode in="blur"/>
        <feMergeNode in="SourceGraphic"/>
      </feMerge>
    </filter>
    <linearGradient id="neonBar" x1="0%" y1="0%" x2="100%" y2="0%">
        <stop offset="0%" stop-color="#111111"/>
        <stop offset="100%" stop-color="#39FF14"/>
    </linearGradient>
    <linearGradient id="scanlineGrad" x1="0%" y1="0%" x2="100%" y2="0%">
        <stop offset="0%" stop-color="#39FF14" stop-opacity="0"/>
        <stop offset="50%" stop-color="#39FF14" stop-opacity="0.18"/>
        <stop offset="100%" stop-color="#39FF14" stop-opacity="0"/>
    </linearGradient>
    <clipPath id="dashClip">
        <rect x="0" y="0" width="850" height="200" rx="12"/>
    </clipPath>
  </defs>

  <rect width="100%" height="100%" fill="url(#carbonFiber)" rx="12" stroke="#39FF14" stroke-width="1" stroke-opacity="0.3"/>
  <rect width="100%" height="100%" fill="#000000" opacity="0.6" rx="12" />
  <g><polygon points="68,134 76.6,139 76.6,149 68,154 59.4,149 59.4,139" fill="none" stroke="#39FF14" stroke-width="1" opacity="0.032476268654705195"/>
<polygon points="208,39 216.6,44 216.6,54 208,59 199.4,54 199.4,44" fill="none" stroke="#39FF14" stroke-width="1" opacity="0.024647897143701608"/>
<polygon points="121,105 129.6,110 129.6,120 121,125 112.4,120 112.4,110" fill="none" stroke="#39FF14" stroke-width="1" opacity="0.06874673627345908"/>
<polygon points="37,70 45.6,75 45.6,85 37,90 28.4,85 28.4,75" fill="none" stroke="#39FF14" stroke-width="1" opacity="0.0774629030121592"/>
<polygon points="195,23 203.6,28 203.6,38 195,43 186.4,38 186.4,28" fill="none" stroke="#39FF14" stroke-width="1" opacity="0.031439156118591445"/>
<polygon points="25,55 33.6,60 33.6,70 25,75 16.4,70 16.4,60" fill="none" stroke="#39FF14" stroke-width="1" opacity="0.03685837801679659"/>
<polygon points="74,34 82.6,39 82.6,49 74,54 65.4,49 65.4,39" fill="none" stroke="#39FF14" stroke-width="1" opacity="0.02005205817781859"/>
<polygon points="412,3 420.6,8 420.6,18 412,23 403.4,18 403.4,8" fill="none" stroke="#39FF14" stroke-width="1" opacity="0.06834898809403162"/>
<polygon points="187,85 195.6,90 195.6,100 187,105 178.4,100 178.4,90" fill="none" stroke="#39FF14" stroke-width="1" opacity="0.03315491271531879"/>
<polygon points="665,154 673.6,159 673.6,169 665,174 656.4,169 656.4,159" fill="none" stroke="#39FF14" stroke-width="1" opacity="0.041625436919868974"/>
<polygon points="209,97 217.6,102 217.6,112 209,117 200.4,112 200.4,102" fill="none" stroke="#39FF14" stroke-width="1" opacity="0.0284225952256981"/>
<polygon points="199,-7 207.6,-2 207.6,8 199,13 190.4,8 190.4,-2" fill="none" stroke="#39FF14" stroke-width="1" opacity="0.05391513832691801"/>
<polygon points="734,106 742.6,111 742.6,121 734,126 725.4,121 725.4,111" fill="none" stroke="#39FF14" stroke-width="1" opacity="0.07722430861042097"/>
<polygon points="388,144 396.6,149 396.6,159 388,164 379.4,159 379.4,149" fill="none" stroke="#39FF14" stroke-width="1" opacity="0.07954697967358126"/>
<polygon points="335,18 343.6,23 343.6,33 335,38 326.4,33 326.4,23" fill="none" stroke="#39FF14" stroke-width="1" opacity="0.07018252416547337"/>
<polygon points="787,108 795.6,113 795.6,123 787,128 778.4,123 778.4,113" fill="none" stroke="#39FF14" stroke-width="1" opacity="0.060317327555375735"/>
<polygon points="31,169 39.6,174 39.6,184 31,189 22.4,184 22.4,174" fill="none" stroke="#39FF14" stroke-width="1" opacity="0.07764822403117518"/>
<polygon points="790,106 798.6,111 798.6,121 790,126 781.4,121 781.4,111" fill="none" stroke="#39FF14" stroke-width="1" opacity="0.07818610007343453"/>
<polygon points="703,138 711.6,143 711.6,153 703,158 694.4,153 694.4,143" fill="none" stroke="#39FF14" stroke-width="1" opacity="0.04773002004790314"/>
<polygon points="178,125 186.6,130 186.6,140 178,145 169.4,140 169.4,130" fill="none" stroke="#39FF14" stroke-width="1" opacity="0.037430375629722554"/>
<polygon points="92,152 100.6,157 100.6,167 92,172 83.4,167 83.4,157" fill="none" stroke="#39FF14" stroke-width="1" opacity="0.04265008217932011"/>
<polygon points="134,147 142.6,152 142.6,162 134,167 125.4,162 125.4,152" fill="none" stroke="#39FF14" stroke-width="1" opacity="0.05329689480532675"/>
<polygon points="136,115 144.6,120 144.6,130 136,135 127.4,130 127.4,120" fill="none" stroke="#39FF14" stroke-width="1" opacity="0.03718827369975393"/>
<polygon points="447,-6 455.6,-1 455.6,9 447,14 438.4,9 438.4,-1" fill="none" stroke="#39FF14" stroke-width="1" opacity="0.03192045674926851"/>
<polygon points="769,171 777.6,176 777.6,186 769,191 760.4,186 760.4,176" fill="none" stroke="#39FF14" stroke-width="1" opacity="0.04236825643944759"/>
<polygon points="636,158 644.6,163 644.6,173 636,178 627.4,173 627.4,163" fill="none" stroke="#39FF14" stroke-width="1" opacity="0.06309487331800208"/>
<polygon points="221,160 229.6,165 229.6,175 221,180 212.4,175 212.4,165" fill="none" stroke="#39FF14" stroke-width="1" opacity="0.05927576936001204"/>
<polygon points="590,120 598.6,125 598.6,135 590,140 581.4,135 581.4,125" fill="none" stroke="#39FF14" stroke-width="1" opacity="0.058165751988980705"/>
<polygon points="394,102 402.6,107 402.6,117 394,122 385.4,117 385.4,107" fill="none" stroke="#39FF14" stroke-width="1" opacity="0.06706242030631178"/>
<polygon points="158,19 166.6,24 166.6,34 158,39 149.4,34 149.4,24" fill="none" stroke="#39FF14" stroke-width="1" opacity="0.033425179140447785"/>
</g>

  <!-- HUD Decorative elements -->
  <path d="M 20 20 L 40 20 L 50 30" fill="none" stroke="#39FF14" stroke-width="2" opacity="0.5"/>
  <path d="M 830 180 L 810 180 L 800 170" fill="none" stroke="#39FF14" stroke-width="2" opacity="0.5"/>

  <g clip-path="url(#dashClip)">
    <rect x="-160" y="0" width="160" height="200" fill="url(#scanlineGrad)">
      <animateTransform attributeName="transform" type="translate"
                        from="0 0" to="1010 0" dur="6s" repeatCount="indefinite"/>
    </rect>
  </g>

  <g font-family="'Consolas', 'Fira Code', monospace" text-anchor="middle">

    <!-- NETWORK STATUS -->
    <g transform="translate(130, 100)">
        <circle cx="0" cy="0" r="45" fill="none" stroke="#39FF14" stroke-width="2" stroke-dasharray="10 5">
            <animateTransform attributeName="transform" type="rotate" from="0" to="360" dur="10s" repeatCount="indefinite"/>
        </circle>
        <circle cx="0" cy="0" r="35" fill="#0d0d0d" />
        <text x="0" y="-60" font-size="12" fill="#aaaaaa" letter-spacing="2">ROOT.AUTH</text>
        <text x="0" y="70" font-size="14" fill="#ffffff" font-weight="bold">OPERATIONAL</text>
    </g>

    <!-- ACTIVE USERS -->
    <g transform="translate(330, 100)">
        <text x="0" y="-20" font-size="12" fill="#aaaaaa">CITIZENS</text>
        <text x="0" y="15" font-size="28" fill="#ffffff" font-weight="bold" filter="url(#textGlow)">14,011</text>
        <text x="0" y="35" font-size="10" fill="#777777">VERIFIED HUMANS</text>
    </g>

    <!-- REGISTERED AGENTS -->
    <g transform="translate(530, 100)">
        <text x="0" y="-20" font-size="12" fill="#aaaaaa">AGENTS</text>
        <text x="0" y="15" font-size="28" fill="#00d4ff" font-weight="bold" filter="url(#textGlow)">3,464</text>
        <text x="0" y="35" font-size="10" fill="#777777">REGISTERED DIDs</text>
    </g>

    <!-- TRANSACTIONS -->
    <g transform="translate(730, 100)">
        <text x="0" y="-20" font-size="12" fill="#aaaaaa">TRANSFERS</text>
        <text x="0" y="15" font-size="28" fill="#ffffff" font-weight="bold">32,667</text>
        <text x="0" y="35" font-size="10" fill="#777777">M2M SETTLEMENTS</text>
    </g>
  </g>

  <text x="425" y="185" font-family="'Consolas', 'Fira Code', monospace" font-size="10" fill="#aaaaaa" opacity="0.6" text-anchor="middle">AXIOMID PROJECTED TARGETS (ILLUSTRATIVE): 2026-07-09 06:39:07 UTC // SECURE_HANDSHAKE</text>
</svg>