<svg width="850" height="200" viewBox="0 0 850 200" xmlns="http://www.w3.org/2000/svg">
  <defs>
    <pattern id="carbonFiber" width="10" height="10" patternUnits="userSpaceOnUse">
        <rect width="10" height="10" fill="#050505"/>
        <path d="M0,0 L5,5 L10,0 L5,-5 Z M5,5 L10,10 L15,5 L10,0 Z M-5,5 L0,10 L5,5 L0,0 Z M0,10 L5,15 L10,10 L5,5 Z" fill="#0d0d0d"/>
    </pattern>
    <filter id="textGlow">
      <feGaussianBlur stdDeviation="2" result="blur" />
      <feMerge>
        <feMergeNode in="blur"/>
        <feMergeNode in="SourceGraphic"/>
      </feMerge>
    </filter>
    <linearGradient id="neonBar" x1="0%" y1="0%" x2="100%" y2="0%">
        <stop offset="0%" stop-color="#111111"/>
        <stop offset="100%" stop-color="#39FF14"/>
    </linearGradient>
    <linearGradient id="scanlineGrad" x1="0%" y1="0%" x2="100%" y2="0%">
        <stop offset="0%" stop-color="#39FF14" stop-opacity="0"/>
        <stop offset="50%" stop-color="#39FF14" stop-opacity="0.18"/>
        <stop offset="100%" stop-color="#39FF14" stop-opacity="0"/>
    </linearGradient>
    <clipPath id="dashClip">
        <rect x="0" y="0" width="850" height="200" rx="12"/>
    </clipPath>
  </defs>

  <rect width="100%" height="100%" fill="url(#carbonFiber)" rx="12" stroke="#39FF14" stroke-width="1" stroke-opacity="0.3"/>
  <rect width="100%" height="100%" fill="#000000" opacity="0.6" rx="12" />
  <g><polygon points="291,48 299.6,53 299.6,63 291,68 282.4,63 282.4,53" fill="none" stroke="#39FF14" stroke-width="1" opacity="0.05196763702535656"/>
<polygon points="11,5 19.6,10 19.6,20 11,25 2.4000000000000004,20 2.4000000000000004,10" fill="none" stroke="#39FF14" stroke-width="1" opacity="0.02260904239804628"/>
<polygon points="710,63 718.6,68 718.6,78 710,83 701.4,78 701.4,68" fill="none" stroke="#39FF14" stroke-width="1" opacity="0.03954479941801369"/>
<polygon points="43,8 51.6,13 51.6,23 43,28 34.4,23 34.4,13" fill="none" stroke="#39FF14" stroke-width="1" opacity="0.043044048776029915"/>
<polygon points="565,51 573.6,56 573.6,66 565,71 556.4,66 556.4,56" fill="none" stroke="#39FF14" stroke-width="1" opacity="0.05390374002030032"/>
<polygon points="259,48 267.6,53 267.6,63 259,68 250.4,63 250.4,53" fill="none" stroke="#39FF14" stroke-width="1" opacity="0.04597039902899586"/>
<polygon points="404,19 412.6,24 412.6,34 404,39 395.4,34 395.4,24" fill="none" stroke="#39FF14" stroke-width="1" opacity="0.07478578862785557"/>
<polygon points="308,-8 316.6,-3 316.6,7 308,12 299.4,7 299.4,-3" fill="none" stroke="#39FF14" stroke-width="1" opacity="0.022450668352100887"/>
<polygon points="238,32 246.6,37 246.6,47 238,52 229.4,47 229.4,37" fill="none" stroke="#39FF14" stroke-width="1" opacity="0.05409967352948829"/>
<polygon points="715,97 723.6,102 723.6,112 715,117 706.4,112 706.4,102" fill="none" stroke="#39FF14" stroke-width="1" opacity="0.02377169052298208"/>
<polygon points="600,34 608.6,39 608.6,49 600,54 591.4,49 591.4,39" fill="none" stroke="#39FF14" stroke-width="1" opacity="0.0342459045968458"/>
<polygon points="599,160 607.6,165 607.6,175 599,180 590.4,175 590.4,165" fill="none" stroke="#39FF14" stroke-width="1" opacity="0.058196004355080905"/>
<polygon points="0,178 8.6,183 8.6,193 0,198 -8.6,193 -8.6,183" fill="none" stroke="#39FF14" stroke-width="1" opacity="0.04668693388086491"/>
<polygon points="568,31 576.6,36 576.6,46 568,51 559.4,46 559.4,36" fill="none" stroke="#39FF14" stroke-width="1" opacity="0.029449870401581455"/>
<polygon points="243,-3 251.6,2 251.6,12 243,17 234.4,12 234.4,2" fill="none" stroke="#39FF14" stroke-width="1" opacity="0.021933275785839694"/>
<polygon points="85,9 93.6,14 93.6,24 85,29 76.4,24 76.4,14" fill="none" stroke="#39FF14" stroke-width="1" opacity="0.03736689581238038"/>
<polygon points="470,58 478.6,63 478.6,73 470,78 461.4,73 461.4,63" fill="none" stroke="#39FF14" stroke-width="1" opacity="0.03855360052881029"/>
<polygon points="150,134 158.6,139 158.6,149 150,154 141.4,149 141.4,139" fill="none" stroke="#39FF14" stroke-width="1" opacity="0.07587705961871927"/>
<polygon points="13,42 21.6,47 21.6,57 13,62 4.4,57 4.4,47" fill="none" stroke="#39FF14" stroke-width="1" opacity="0.020409802273457896"/>
<polygon points="88,123 96.6,128 96.6,138 88,143 79.4,138 79.4,128" fill="none" stroke="#39FF14" stroke-width="1" opacity="0.05601770364963832"/>
<polygon points="251,99 259.6,104 259.6,114 251,119 242.4,114 242.4,104" fill="none" stroke="#39FF14" stroke-width="1" opacity="0.026054027533509633"/>
<polygon points="388,104 396.6,109 396.6,119 388,124 379.4,119 379.4,109" fill="none" stroke="#39FF14" stroke-width="1" opacity="0.07466603300395662"/>
<polygon points="555,163 563.6,168 563.6,178 555,183 546.4,178 546.4,168" fill="none" stroke="#39FF14" stroke-width="1" opacity="0.04978779736366851"/>
<polygon points="686,49 694.6,54 694.6,64 686,69 677.4,64 677.4,54" fill="none" stroke="#39FF14" stroke-width="1" opacity="0.06982242216375968"/>
<polygon points="280,140 288.6,145 288.6,155 280,160 271.4,155 271.4,145" fill="none" stroke="#39FF14" stroke-width="1" opacity="0.047263931520726395"/>
<polygon points="148,102 156.6,107 156.6,117 148,122 139.4,117 139.4,107" fill="none" stroke="#39FF14" stroke-width="1" opacity="0.024290230244580362"/>
<polygon points="201,51 209.6,56 209.6,66 201,71 192.4,66 192.4,56" fill="none" stroke="#39FF14" stroke-width="1" opacity="0.05456856635178127"/>
<polygon points="464,98 472.6,103 472.6,113 464,118 455.4,113 455.4,103" fill="none" stroke="#39FF14" stroke-width="1" opacity="0.028410193866575506"/>
<polygon points="788,183 796.6,188 796.6,198 788,203 779.4,198 779.4,188" fill="none" stroke="#39FF14" stroke-width="1" opacity="0.030069788343314818"/>
<polygon points="722,88 730.6,93 730.6,103 722,108 713.4,103 713.4,93" fill="none" stroke="#39FF14" stroke-width="1" opacity="0.06760794278055678"/>
</g>

  <!-- HUD Decorative elements -->
  <path d="M 20 20 L 40 20 L 50 30" fill="none" stroke="#39FF14" stroke-width="2" opacity="0.5"/>
  <path d="M 830 180 L 810 180 L 800 170" fill="none" stroke="#39FF14" stroke-width="2" opacity="0.5"/>

  <g clip-path="url(#dashClip)">
    <rect x="-160" y="0" width="160" height="200" fill="url(#scanlineGrad)">
      <animateTransform attributeName="transform" type="translate"
                        from="0 0" to="1010 0" dur="6s" repeatCount="indefinite"/>
    </rect>
  </g>

  <g font-family="'Consolas', 'Fira Code', monospace" text-anchor="middle">

    <!-- NETWORK STATUS -->
    <g transform="translate(130, 100)">
        <circle cx="0" cy="0" r="45" fill="none" stroke="#39FF14" stroke-width="2" stroke-dasharray="10 5">
            <animateTransform attributeName="transform" type="rotate" from="0" to="360" dur="10s" repeatCount="indefinite"/>
        </circle>
        <circle cx="0" cy="0" r="35" fill="#0d0d0d" />
        <text x="0" y="-60" font-size="12" fill="#aaaaaa" letter-spacing="2">ROOT.AUTH</text>
        <text x="0" y="70" font-size="14" fill="#ffffff" font-weight="bold">OPERATIONAL</text>
    </g>

    <!-- ACTIVE USERS -->
    <g transform="translate(330, 100)">
        <text x="0" y="-20" font-size="12" fill="#aaaaaa">CITIZENS</text>
        <text x="0" y="15" font-size="28" fill="#ffffff" font-weight="bold" filter="url(#textGlow)">14,709</text>
        <text x="0" y="35" font-size="10" fill="#777777">VERIFIED HUMANS</text>
    </g>

    <!-- REGISTERED AGENTS -->
    <g transform="translate(530, 100)">
        <text x="0" y="-20" font-size="12" fill="#aaaaaa">AGENTS</text>
        <text x="0" y="15" font-size="28" fill="#00d4ff" font-weight="bold" filter="url(#textGlow)">4,228</text>
        <text x="0" y="35" font-size="10" fill="#777777">REGISTERED DIDs</text>
    </g>

    <!-- TRANSACTIONS -->
    <g transform="translate(730, 100)">
        <text x="0" y="-20" font-size="12" fill="#aaaaaa">TRANSFERS</text>
        <text x="0" y="15" font-size="28" fill="#ffffff" font-weight="bold">26,149</text>
        <text x="0" y="35" font-size="10" fill="#777777">M2M SETTLEMENTS</text>
    </g>
  </g>

  <text x="425" y="185" font-family="'Consolas', 'Fira Code', monospace" font-size="10" fill="#aaaaaa" opacity="0.6" text-anchor="middle">AXIOMID PROJECTED TARGETS (ILLUSTRATIVE): 2026-07-11 15:44:20 UTC // SECURE_HANDSHAKE</text>
</svg>