<svg width="850" height="200" viewBox="0 0 850 200" xmlns="http://www.w3.org/2000/svg">
  <defs>
    <!-- Carbon Fiber Pattern -->
    <pattern id="carbonFiber" width="10" height="10" patternUnits="userSpaceOnUse">
        <rect width="10" height="10" fill="#050505"/>
        <path d="M0,0 L5,5 L10,0 L5,-5 Z M5,5 L10,10 L15,5 L10,0 Z M-5,5 L0,10 L5,5 L0,0 Z M0,10 L5,15 L10,10 L5,5 Z" fill="#0d0d0d"/>
    </pattern>
    <filter id="glassmorphism">
      <feGaussianBlur stdDeviation="3" result="blur" />
      <feColorMatrix type="matrix" values="1 0 0 0 0  0 1 0 0 0  0 0 1 0 0  0 0 0 18 -7" result="glow" />
      <feBlend in="SourceGraphic" in2="glow" mode="normal" />
    </filter>
    <filter id="textGlow">
      <feGaussianBlur stdDeviation="2" result="blur" />
      <feMerge>
        <feMergeNode in="blur"/>
        <feMergeNode in="SourceGraphic"/>
      </feMerge>
    </filter>
    <linearGradient id="neonBar" x1="0%" y1="0%" x2="100%" y2="0%">
        <stop offset="0%" stop-color="#111111"/>
        <stop offset="100%" stop-color="#39FF14"/>
    </linearGradient>
  </defs>

  <rect width="100%" height="100%" fill="url(#carbonFiber)" rx="12" stroke="#39FF14" stroke-width="1" stroke-opacity="0.3"/>
  <rect width="100%" height="100%" fill="#000000" opacity="0.6" rx="12" />
  <g><polygon points="25,86 33.6,91 33.6,101 25,106 16.4,101 16.4,91" fill="none" stroke="#39FF14" stroke-width="1" opacity="0.0687548278740923"/>
<polygon points="187,70 195.6,75 195.6,85 187,90 178.4,85 178.4,75" fill="none" stroke="#39FF14" stroke-width="1" opacity="0.050495510301589115"/>
<polygon points="3,68 11.6,73 11.6,83 3,88 -5.6,83 -5.6,73" fill="none" stroke="#39FF14" stroke-width="1" opacity="0.04164812266165072"/>
<polygon points="555,149 563.6,154 563.6,164 555,169 546.4,164 546.4,154" fill="none" stroke="#39FF14" stroke-width="1" opacity="0.05059333662677494"/>
<polygon points="800,133 808.6,138 808.6,148 800,153 791.4,148 791.4,138" fill="none" stroke="#39FF14" stroke-width="1" opacity="0.07360773235346098"/>
<polygon points="77,38 85.6,43 85.6,53 77,58 68.4,53 68.4,43" fill="none" stroke="#39FF14" stroke-width="1" opacity="0.07201564632810907"/>
<polygon points="572,29 580.6,34 580.6,44 572,49 563.4,44 563.4,34" fill="none" stroke="#39FF14" stroke-width="1" opacity="0.049720408660490586"/>
<polygon points="528,48 536.6,53 536.6,63 528,68 519.4,63 519.4,53" fill="none" stroke="#39FF14" stroke-width="1" opacity="0.04586403513488531"/>
<polygon points="553,130 561.6,135 561.6,145 553,150 544.4,145 544.4,135" fill="none" stroke="#39FF14" stroke-width="1" opacity="0.05607323130082999"/>
<polygon points="489,183 497.6,188 497.6,198 489,203 480.4,198 480.4,188" fill="none" stroke="#39FF14" stroke-width="1" opacity="0.024172763796213744"/>
<polygon points="65,0 73.6,5 73.6,15 65,20 56.4,15 56.4,5" fill="none" stroke="#39FF14" stroke-width="1" opacity="0.07317291110946074"/>
<polygon points="72,51 80.6,56 80.6,66 72,71 63.4,66 63.4,56" fill="none" stroke="#39FF14" stroke-width="1" opacity="0.0320805558388003"/>
<polygon points="538,76 546.6,81 546.6,91 538,96 529.4,91 529.4,81" fill="none" stroke="#39FF14" stroke-width="1" opacity="0.07262505777570126"/>
<polygon points="530,182 538.6,187 538.6,197 530,202 521.4,197 521.4,187" fill="none" stroke="#39FF14" stroke-width="1" opacity="0.054915428535175545"/>
<polygon points="185,55 193.6,60 193.6,70 185,75 176.4,70 176.4,60" fill="none" stroke="#39FF14" stroke-width="1" opacity="0.02556030219504978"/>
<polygon points="749,39 757.6,44 757.6,54 749,59 740.4,54 740.4,44" fill="none" stroke="#39FF14" stroke-width="1" opacity="0.03185713423720549"/>
<polygon points="130,112 138.6,117 138.6,127 130,132 121.4,127 121.4,117" fill="none" stroke="#39FF14" stroke-width="1" opacity="0.0543837713222486"/>
<polygon points="9,17 17.6,22 17.6,32 9,37 0.40000000000000036,32 0.40000000000000036,22" fill="none" stroke="#39FF14" stroke-width="1" opacity="0.06512408161784045"/>
<polygon points="828,82 836.6,87 836.6,97 828,102 819.4,97 819.4,87" fill="none" stroke="#39FF14" stroke-width="1" opacity="0.06339221135992193"/>
<polygon points="476,95 484.6,100 484.6,110 476,115 467.4,110 467.4,100" fill="none" stroke="#39FF14" stroke-width="1" opacity="0.03276225242273489"/>
<polygon points="787,90 795.6,95 795.6,105 787,110 778.4,105 778.4,95" fill="none" stroke="#39FF14" stroke-width="1" opacity="0.030964332838915302"/>
<polygon points="808,171 816.6,176 816.6,186 808,191 799.4,186 799.4,176" fill="none" stroke="#39FF14" stroke-width="1" opacity="0.04843273886269759"/>
<polygon points="156,78 164.6,83 164.6,93 156,98 147.4,93 147.4,83" fill="none" stroke="#39FF14" stroke-width="1" opacity="0.06187036571598355"/>
<polygon points="272,-10 280.6,-5 280.6,5 272,10 263.4,5 263.4,-5" fill="none" stroke="#39FF14" stroke-width="1" opacity="0.0544222459651693"/>
<polygon points="264,86 272.6,91 272.6,101 264,106 255.4,101 255.4,91" fill="none" stroke="#39FF14" stroke-width="1" opacity="0.025631021654189175"/>
<polygon points="545,160 553.6,165 553.6,175 545,180 536.4,175 536.4,165" fill="none" stroke="#39FF14" stroke-width="1" opacity="0.07536254296469738"/>
<polygon points="402,158 410.6,163 410.6,173 402,178 393.4,173 393.4,163" fill="none" stroke="#39FF14" stroke-width="1" opacity="0.04994899955685789"/>
<polygon points="459,-1 467.6,4 467.6,14 459,19 450.4,14 450.4,4" fill="none" stroke="#39FF14" stroke-width="1" opacity="0.030134530687604924"/>
<polygon points="694,30 702.6,35 702.6,45 694,50 685.4,45 685.4,35" fill="none" stroke="#39FF14" stroke-width="1" opacity="0.059787443102559484"/>
<polygon points="824,162 832.6,167 832.6,177 824,182 815.4,177 815.4,167" fill="none" stroke="#39FF14" stroke-width="1" opacity="0.023539305138233598"/>
</g>

  <!-- HUD Decorative elements -->
  <path d="M 20 20 L 40 20 L 50 30" fill="none" stroke="#39FF14" stroke-width="2" opacity="0.5"/>
  <path d="M 830 180 L 810 180 L 800 170" fill="none" stroke="#39FF14" stroke-width="2" opacity="0.5"/>
  <rect x="20" y="100" width="2" height="40" fill="#ffffff" opacity="0.4"/>
  <rect x="828" y="60" width="2" height="40" fill="#39FF14" opacity="0.6"/>

  <g font-family="'Consolas', 'Fira Code', monospace" text-anchor="middle">

    <!-- SYSTEM STATUS -->
    <g transform="translate(130, 100)">
        <circle cx="0" cy="0" r="45" fill="none" stroke="#111111" stroke-width="8" />
        <circle cx="0" cy="0" r="45" fill="none" stroke="#39FF14" stroke-width="2" stroke-dasharray="10 5">
            <animateTransform attributeName="transform" type="rotate" from="0" to="360" dur="10s" repeatCount="indefinite"/>
        </circle>
        <circle cx="0" cy="0" r="35" fill="#0d0d0d" />
        <circle cx="0" cy="0" r="6" fill="#39FF14" filter="url(#textGlow)">
            <animate attributeName="opacity" values="1;0.3;1" dur="2s" repeatCount="indefinite"/>
        </circle>
        <text x="0" y="-60" font-size="12" fill="#aaaaaa" letter-spacing="2">SYS.CORE</text>
        <text x="0" y="70" font-size="14" fill="#ffffff" font-weight="bold">ONLINE</text>
    </g>

    <!-- LIVE TRAFFIC -->
    <g transform="translate(330, 100)">
        <rect x="-60" y="-45" width="120" height="90" fill="#0a0a0a" rx="8" stroke="#39FF14" stroke-opacity="0.4" stroke-width="1"/>
        <text x="0" y="-20" font-size="12" fill="#aaaaaa">NETWORK LOAD</text>
        <text x="0" y="15" font-size="28" fill="#ffffff" font-weight="bold" filter="url(#textGlow)">7517</text>
        <text x="0" y="35" font-size="10" fill="#777777">ACTIVE SESSIONS</text>
    </g>

    <!-- ACTIVE AGENTS -->
    <g transform="translate(530, 100)">
        <rect x="-60" y="-45" width="120" height="90" fill="#0a0a0a" rx="8" stroke="#39FF14" stroke-opacity="0.4" stroke-width="1"/>
        <text x="0" y="-20" font-size="12" fill="#aaaaaa">SWARM ENTITIES</text>
        <text x="0" y="15" font-size="28" fill="#ffffff" font-weight="bold" filter="url(#textGlow)">189</text>
        <text x="0" y="35" font-size="10" fill="#777777">AUTONOMOUS</text>
    </g>

    <!-- UPTIME -->
    <g transform="translate(730, 100)">
        <path d="M -40 -35 L 40 -35 L 50 -25 L 50 35 L -40 35 L -50 25 Z" fill="#0a0a0a" stroke="#39FF14" stroke-opacity="0.4" stroke-width="1"/>
        <text x="0" y="-15" font-size="12" fill="#aaaaaa">CONTINUITY</text>
        <text x="0" y="15" font-size="24" fill="#ffffff" font-weight="bold">346<tspan font-size="14" fill="#777777">d</tspan></text>
        <rect x="-35" y="25" width="70" height="4" fill="url(#neonBar)" rx="2"/>
    </g>
  </g>

  <text x="425" y="185" font-family="'Consolas', 'Fira Code', monospace" font-size="10" fill="#aaaaaa" opacity="0.6" text-anchor="middle">LAST TELEMETRY PING: 2026-05-11 07:22:31 UTC // ENCRYPTED_TUNNEL</text>
</svg>