<svg width="850" height="200" viewBox="0 0 850 200" xmlns="http://www.w3.org/2000/svg">
  <defs>
    <pattern id="carbonFiber" width="10" height="10" patternUnits="userSpaceOnUse">
        <rect width="10" height="10" fill="#050505"/>
        <path d="M0,0 L5,5 L10,0 L5,-5 Z M5,5 L10,10 L15,5 L10,0 Z M-5,5 L0,10 L5,5 L0,0 Z M0,10 L5,15 L10,10 L5,5 Z" fill="#0d0d0d"/>
    </pattern>
    <filter id="textGlow">
      <feGaussianBlur stdDeviation="2" result="blur" />
      <feMerge>
        <feMergeNode in="blur"/>
        <feMergeNode in="SourceGraphic"/>
      </feMerge>
    </filter>
    <linearGradient id="neonBar" x1="0%" y1="0%" x2="100%" y2="0%">
        <stop offset="0%" stop-color="#111111"/>
        <stop offset="100%" stop-color="#39FF14"/>
    </linearGradient>
    <linearGradient id="scanlineGrad" x1="0%" y1="0%" x2="100%" y2="0%">
        <stop offset="0%" stop-color="#39FF14" stop-opacity="0"/>
        <stop offset="50%" stop-color="#39FF14" stop-opacity="0.18"/>
        <stop offset="100%" stop-color="#39FF14" stop-opacity="0"/>
    </linearGradient>
    <clipPath id="dashClip">
        <rect x="0" y="0" width="850" height="200" rx="12"/>
    </clipPath>
  </defs>

  <rect width="100%" height="100%" fill="url(#carbonFiber)" rx="12" stroke="#39FF14" stroke-width="1" stroke-opacity="0.3"/>
  <rect width="100%" height="100%" fill="#000000" opacity="0.6" rx="12" />
  <g><polygon points="121,158 129.6,163 129.6,173 121,178 112.4,173 112.4,163" fill="none" stroke="#39FF14" stroke-width="1" opacity="0.06438017582374658"/>
<polygon points="487,140 495.6,145 495.6,155 487,160 478.4,155 478.4,145" fill="none" stroke="#39FF14" stroke-width="1" opacity="0.05963582151414394"/>
<polygon points="722,29 730.6,34 730.6,44 722,49 713.4,44 713.4,34" fill="none" stroke="#39FF14" stroke-width="1" opacity="0.030174338257749657"/>
<polygon points="672,84 680.6,89 680.6,99 672,104 663.4,99 663.4,89" fill="none" stroke="#39FF14" stroke-width="1" opacity="0.042436798819096566"/>
<polygon points="744,185 752.6,190 752.6,200 744,205 735.4,200 735.4,190" fill="none" stroke="#39FF14" stroke-width="1" opacity="0.07398563653548221"/>
<polygon points="169,48 177.6,53 177.6,63 169,68 160.4,63 160.4,53" fill="none" stroke="#39FF14" stroke-width="1" opacity="0.05866125289722138"/>
<polygon points="620,-4 628.6,1 628.6,11 620,16 611.4,11 611.4,1" fill="none" stroke="#39FF14" stroke-width="1" opacity="0.057418728081866766"/>
<polygon points="415,134 423.6,139 423.6,149 415,154 406.4,149 406.4,139" fill="none" stroke="#39FF14" stroke-width="1" opacity="0.04174157310339527"/>
<polygon points="694,180 702.6,185 702.6,195 694,200 685.4,195 685.4,185" fill="none" stroke="#39FF14" stroke-width="1" opacity="0.031157612594027766"/>
<polygon points="232,44 240.6,49 240.6,59 232,64 223.4,59 223.4,49" fill="none" stroke="#39FF14" stroke-width="1" opacity="0.06141503529970459"/>
<polygon points="83,-4 91.6,1 91.6,11 83,16 74.4,11 74.4,1" fill="none" stroke="#39FF14" stroke-width="1" opacity="0.029466717633827848"/>
<polygon points="504,156 512.6,161 512.6,171 504,176 495.4,171 495.4,161" fill="none" stroke="#39FF14" stroke-width="1" opacity="0.0496642211515418"/>
<polygon points="85,2 93.6,7 93.6,17 85,22 76.4,17 76.4,7" fill="none" stroke="#39FF14" stroke-width="1" opacity="0.03928934569679409"/>
<polygon points="406,57 414.6,62 414.6,72 406,77 397.4,72 397.4,62" fill="none" stroke="#39FF14" stroke-width="1" opacity="0.0769535489998358"/>
<polygon points="142,48 150.6,53 150.6,63 142,68 133.4,63 133.4,53" fill="none" stroke="#39FF14" stroke-width="1" opacity="0.06569592630056843"/>
<polygon points="154,80 162.6,85 162.6,95 154,100 145.4,95 145.4,85" fill="none" stroke="#39FF14" stroke-width="1" opacity="0.0631596277811096"/>
<polygon points="284,41 292.6,46 292.6,56 284,61 275.4,56 275.4,46" fill="none" stroke="#39FF14" stroke-width="1" opacity="0.03646584031861802"/>
<polygon points="835,116 843.6,121 843.6,131 835,136 826.4,131 826.4,121" fill="none" stroke="#39FF14" stroke-width="1" opacity="0.0676203081354979"/>
<polygon points="664,94 672.6,99 672.6,109 664,114 655.4,109 655.4,99" fill="none" stroke="#39FF14" stroke-width="1" opacity="0.025936882224273067"/>
<polygon points="501,116 509.6,121 509.6,131 501,136 492.4,131 492.4,121" fill="none" stroke="#39FF14" stroke-width="1" opacity="0.05579425729247721"/>
<polygon points="650,112 658.6,117 658.6,127 650,132 641.4,127 641.4,117" fill="none" stroke="#39FF14" stroke-width="1" opacity="0.022466565031050396"/>
<polygon points="818,14 826.6,19 826.6,29 818,34 809.4,29 809.4,19" fill="none" stroke="#39FF14" stroke-width="1" opacity="0.051694844149921995"/>
<polygon points="294,81 302.6,86 302.6,96 294,101 285.4,96 285.4,86" fill="none" stroke="#39FF14" stroke-width="1" opacity="0.07244446863076764"/>
<polygon points="394,10 402.6,15 402.6,25 394,30 385.4,25 385.4,15" fill="none" stroke="#39FF14" stroke-width="1" opacity="0.07612675014241223"/>
<polygon points="176,50 184.6,55 184.6,65 176,70 167.4,65 167.4,55" fill="none" stroke="#39FF14" stroke-width="1" opacity="0.06469764300994174"/>
<polygon points="632,141 640.6,146 640.6,156 632,161 623.4,156 623.4,146" fill="none" stroke="#39FF14" stroke-width="1" opacity="0.021109363790514597"/>
<polygon points="458,152 466.6,157 466.6,167 458,172 449.4,167 449.4,157" fill="none" stroke="#39FF14" stroke-width="1" opacity="0.042731711804074826"/>
<polygon points="528,50 536.6,55 536.6,65 528,70 519.4,65 519.4,55" fill="none" stroke="#39FF14" stroke-width="1" opacity="0.03733435539999264"/>
<polygon points="202,67 210.6,72 210.6,82 202,87 193.4,82 193.4,72" fill="none" stroke="#39FF14" stroke-width="1" opacity="0.05298883067898204"/>
<polygon points="764,140 772.6,145 772.6,155 764,160 755.4,155 755.4,145" fill="none" stroke="#39FF14" stroke-width="1" opacity="0.06418055923854701"/>
</g>

  <!-- HUD Decorative elements -->
  <path d="M 20 20 L 40 20 L 50 30" fill="none" stroke="#39FF14" stroke-width="2" opacity="0.5"/>
  <path d="M 830 180 L 810 180 L 800 170" fill="none" stroke="#39FF14" stroke-width="2" opacity="0.5"/>

  <g clip-path="url(#dashClip)">
    <rect x="-160" y="0" width="160" height="200" fill="url(#scanlineGrad)">
      <animateTransform attributeName="transform" type="translate"
                        from="0 0" to="1010 0" dur="6s" repeatCount="indefinite"/>
    </rect>
  </g>

  <g font-family="'Consolas', 'Fira Code', monospace" text-anchor="middle">

    <!-- NETWORK STATUS -->
    <g transform="translate(130, 100)">
        <circle cx="0" cy="0" r="45" fill="none" stroke="#39FF14" stroke-width="2" stroke-dasharray="10 5">
            <animateTransform attributeName="transform" type="rotate" from="0" to="360" dur="10s" repeatCount="indefinite"/>
        </circle>
        <circle cx="0" cy="0" r="35" fill="#0d0d0d" />
        <text x="0" y="-60" font-size="12" fill="#aaaaaa" letter-spacing="2">ROOT.AUTH</text>
        <text x="0" y="70" font-size="14" fill="#ffffff" font-weight="bold">OPERATIONAL</text>
    </g>

    <!-- ACTIVE USERS -->
    <g transform="translate(330, 100)">
        <text x="0" y="-20" font-size="12" fill="#aaaaaa">CITIZENS</text>
        <text x="0" y="15" font-size="28" fill="#ffffff" font-weight="bold" filter="url(#textGlow)">14,376</text>
        <text x="0" y="35" font-size="10" fill="#777777">VERIFIED HUMANS</text>
    </g>

    <!-- REGISTERED AGENTS -->
    <g transform="translate(530, 100)">
        <text x="0" y="-20" font-size="12" fill="#aaaaaa">AGENTS</text>
        <text x="0" y="15" font-size="28" fill="#00d4ff" font-weight="bold" filter="url(#textGlow)">3,694</text>
        <text x="0" y="35" font-size="10" fill="#777777">REGISTERED DIDs</text>
    </g>

    <!-- TRANSACTIONS -->
    <g transform="translate(730, 100)">
        <text x="0" y="-20" font-size="12" fill="#aaaaaa">TRANSFERS</text>
        <text x="0" y="15" font-size="28" fill="#ffffff" font-weight="bold">38,702</text>
        <text x="0" y="35" font-size="10" fill="#777777">M2M SETTLEMENTS</text>
    </g>
  </g>

  <text x="425" y="185" font-family="'Consolas', 'Fira Code', monospace" font-size="10" fill="#aaaaaa" opacity="0.6" text-anchor="middle">AXIOMID PROJECTED TARGETS (ILLUSTRATIVE): 2026-06-20 07:16:10 UTC // SECURE_HANDSHAKE</text>
</svg>