<svg width="850" height="200" viewBox="0 0 850 200" xmlns="http://www.w3.org/2000/svg">
  <defs>
    <pattern id="carbonFiber" width="10" height="10" patternUnits="userSpaceOnUse">
        <rect width="10" height="10" fill="#050505"/>
        <path d="M0,0 L5,5 L10,0 L5,-5 Z M5,5 L10,10 L15,5 L10,0 Z M-5,5 L0,10 L5,5 L0,0 Z M0,10 L5,15 L10,10 L5,5 Z" fill="#0d0d0d"/>
    </pattern>
    <filter id="textGlow">
      <feGaussianBlur stdDeviation="2" result="blur" />
      <feMerge>
        <feMergeNode in="blur"/>
        <feMergeNode in="SourceGraphic"/>
      </feMerge>
    </filter>
    <linearGradient id="neonBar" x1="0%" y1="0%" x2="100%" y2="0%">
        <stop offset="0%" stop-color="#111111"/>
        <stop offset="100%" stop-color="#39FF14"/>
    </linearGradient>
    <linearGradient id="scanlineGrad" x1="0%" y1="0%" x2="100%" y2="0%">
        <stop offset="0%" stop-color="#39FF14" stop-opacity="0"/>
        <stop offset="50%" stop-color="#39FF14" stop-opacity="0.18"/>
        <stop offset="100%" stop-color="#39FF14" stop-opacity="0"/>
    </linearGradient>
    <clipPath id="dashClip">
        <rect x="0" y="0" width="850" height="200" rx="12"/>
    </clipPath>
  </defs>

  <rect width="100%" height="100%" fill="url(#carbonFiber)" rx="12" stroke="#39FF14" stroke-width="1" stroke-opacity="0.3"/>
  <rect width="100%" height="100%" fill="#000000" opacity="0.6" rx="12" />
  <g><polygon points="506,161 514.6,166 514.6,176 506,181 497.4,176 497.4,166" fill="none" stroke="#39FF14" stroke-width="1" opacity="0.028502185947597975"/>
<polygon points="640,-7 648.6,-2 648.6,8 640,13 631.4,8 631.4,-2" fill="none" stroke="#39FF14" stroke-width="1" opacity="0.024855594469504094"/>
<polygon points="467,105 475.6,110 475.6,120 467,125 458.4,120 458.4,110" fill="none" stroke="#39FF14" stroke-width="1" opacity="0.021223187186723"/>
<polygon points="735,178 743.6,183 743.6,193 735,198 726.4,193 726.4,183" fill="none" stroke="#39FF14" stroke-width="1" opacity="0.07695416391663719"/>
<polygon points="186,63 194.6,68 194.6,78 186,83 177.4,78 177.4,68" fill="none" stroke="#39FF14" stroke-width="1" opacity="0.04529057783879176"/>
<polygon points="281,8 289.6,13 289.6,23 281,28 272.4,23 272.4,13" fill="none" stroke="#39FF14" stroke-width="1" opacity="0.02355415708133765"/>
<polygon points="319,179 327.6,184 327.6,194 319,199 310.4,194 310.4,184" fill="none" stroke="#39FF14" stroke-width="1" opacity="0.03767324997828408"/>
<polygon points="637,80 645.6,85 645.6,95 637,100 628.4,95 628.4,85" fill="none" stroke="#39FF14" stroke-width="1" opacity="0.04700471896475883"/>
<polygon points="449,140 457.6,145 457.6,155 449,160 440.4,155 440.4,145" fill="none" stroke="#39FF14" stroke-width="1" opacity="0.040796944946674865"/>
<polygon points="212,68 220.6,73 220.6,83 212,88 203.4,83 203.4,73" fill="none" stroke="#39FF14" stroke-width="1" opacity="0.041877604907242745"/>
<polygon points="375,18 383.6,23 383.6,33 375,38 366.4,33 366.4,23" fill="none" stroke="#39FF14" stroke-width="1" opacity="0.027118372840181863"/>
<polygon points="760,27 768.6,32 768.6,42 760,47 751.4,42 751.4,32" fill="none" stroke="#39FF14" stroke-width="1" opacity="0.04527066086775327"/>
<polygon points="520,140 528.6,145 528.6,155 520,160 511.4,155 511.4,145" fill="none" stroke="#39FF14" stroke-width="1" opacity="0.05126944662573278"/>
<polygon points="584,51 592.6,56 592.6,66 584,71 575.4,66 575.4,56" fill="none" stroke="#39FF14" stroke-width="1" opacity="0.04119041414019065"/>
<polygon points="616,90 624.6,95 624.6,105 616,110 607.4,105 607.4,95" fill="none" stroke="#39FF14" stroke-width="1" opacity="0.05610001963225161"/>
<polygon points="205,121 213.6,126 213.6,136 205,141 196.4,136 196.4,126" fill="none" stroke="#39FF14" stroke-width="1" opacity="0.07340366182018584"/>
<polygon points="406,190 414.6,195 414.6,205 406,210 397.4,205 397.4,195" fill="none" stroke="#39FF14" stroke-width="1" opacity="0.023415608634155385"/>
<polygon points="729,83 737.6,88 737.6,98 729,103 720.4,98 720.4,88" fill="none" stroke="#39FF14" stroke-width="1" opacity="0.03571283255103559"/>
<polygon points="613,55 621.6,60 621.6,70 613,75 604.4,70 604.4,60" fill="none" stroke="#39FF14" stroke-width="1" opacity="0.05521040728649866"/>
<polygon points="326,135 334.6,140 334.6,150 326,155 317.4,150 317.4,140" fill="none" stroke="#39FF14" stroke-width="1" opacity="0.037802324524695126"/>
<polygon points="778,59 786.6,64 786.6,74 778,79 769.4,74 769.4,64" fill="none" stroke="#39FF14" stroke-width="1" opacity="0.0640590174371544"/>
<polygon points="256,31 264.6,36 264.6,46 256,51 247.4,46 247.4,36" fill="none" stroke="#39FF14" stroke-width="1" opacity="0.05874668540893173"/>
<polygon points="113,124 121.6,129 121.6,139 113,144 104.4,139 104.4,129" fill="none" stroke="#39FF14" stroke-width="1" opacity="0.023985059499273514"/>
<polygon points="839,92 847.6,97 847.6,107 839,112 830.4,107 830.4,97" fill="none" stroke="#39FF14" stroke-width="1" opacity="0.029125095208647707"/>
<polygon points="446,154 454.6,159 454.6,169 446,174 437.4,169 437.4,159" fill="none" stroke="#39FF14" stroke-width="1" opacity="0.06973341340367989"/>
<polygon points="104,178 112.6,183 112.6,193 104,198 95.4,193 95.4,183" fill="none" stroke="#39FF14" stroke-width="1" opacity="0.06520192194220834"/>
<polygon points="452,99 460.6,104 460.6,114 452,119 443.4,114 443.4,104" fill="none" stroke="#39FF14" stroke-width="1" opacity="0.023284045336069682"/>
<polygon points="467,55 475.6,60 475.6,70 467,75 458.4,70 458.4,60" fill="none" stroke="#39FF14" stroke-width="1" opacity="0.07304247811482298"/>
<polygon points="440,11 448.6,16 448.6,26 440,31 431.4,26 431.4,16" fill="none" stroke="#39FF14" stroke-width="1" opacity="0.03595318863680201"/>
<polygon points="108,124 116.6,129 116.6,139 108,144 99.4,139 99.4,129" fill="none" stroke="#39FF14" stroke-width="1" opacity="0.0499704855938164"/>
</g>

  <!-- HUD Decorative elements -->
  <path d="M 20 20 L 40 20 L 50 30" fill="none" stroke="#39FF14" stroke-width="2" opacity="0.5"/>
  <path d="M 830 180 L 810 180 L 800 170" fill="none" stroke="#39FF14" stroke-width="2" opacity="0.5"/>

  <g clip-path="url(#dashClip)">
    <rect x="-160" y="0" width="160" height="200" fill="url(#scanlineGrad)">
      <animateTransform attributeName="transform" type="translate"
                        from="0 0" to="1010 0" dur="6s" repeatCount="indefinite"/>
    </rect>
  </g>

  <g font-family="'Consolas', 'Fira Code', monospace" text-anchor="middle">

    <!-- NETWORK STATUS -->
    <g transform="translate(130, 100)">
        <circle cx="0" cy="0" r="45" fill="none" stroke="#39FF14" stroke-width="2" stroke-dasharray="10 5">
            <animateTransform attributeName="transform" type="rotate" from="0" to="360" dur="10s" repeatCount="indefinite"/>
        </circle>
        <circle cx="0" cy="0" r="35" fill="#0d0d0d" />
        <text x="0" y="-60" font-size="12" fill="#aaaaaa" letter-spacing="2">ROOT.AUTH</text>
        <text x="0" y="70" font-size="14" fill="#ffffff" font-weight="bold">OPERATIONAL</text>
    </g>

    <!-- ACTIVE USERS -->
    <g transform="translate(330, 100)">
        <text x="0" y="-20" font-size="12" fill="#aaaaaa">CITIZENS</text>
        <text x="0" y="15" font-size="28" fill="#ffffff" font-weight="bold" filter="url(#textGlow)">13,643</text>
        <text x="0" y="35" font-size="10" fill="#777777">VERIFIED HUMANS</text>
    </g>

    <!-- REGISTERED AGENTS -->
    <g transform="translate(530, 100)">
        <text x="0" y="-20" font-size="12" fill="#aaaaaa">AGENTS</text>
        <text x="0" y="15" font-size="28" fill="#00d4ff" font-weight="bold" filter="url(#textGlow)">3,747</text>
        <text x="0" y="35" font-size="10" fill="#777777">REGISTERED DIDs</text>
    </g>

    <!-- TRANSACTIONS -->
    <g transform="translate(730, 100)">
        <text x="0" y="-20" font-size="12" fill="#aaaaaa">TRANSFERS</text>
        <text x="0" y="15" font-size="28" fill="#ffffff" font-weight="bold">37,969</text>
        <text x="0" y="35" font-size="10" fill="#777777">M2M SETTLEMENTS</text>
    </g>
  </g>

  <text x="425" y="185" font-family="'Consolas', 'Fira Code', monospace" font-size="10" fill="#aaaaaa" opacity="0.6" text-anchor="middle">AXIOMID PROJECTED TARGETS (ILLUSTRATIVE): 2026-07-17 07:52:10 UTC // SECURE_HANDSHAKE</text>
</svg>