<svg width="850" height="200" viewBox="0 0 850 200" xmlns="http://www.w3.org/2000/svg">
  <defs>
    <pattern id="carbonFiber" width="10" height="10" patternUnits="userSpaceOnUse">
        <rect width="10" height="10" fill="#050505"/>
        <path d="M0,0 L5,5 L10,0 L5,-5 Z M5,5 L10,10 L15,5 L10,0 Z M-5,5 L0,10 L5,5 L0,0 Z M0,10 L5,15 L10,10 L5,5 Z" fill="#0d0d0d"/>
    </pattern>
    <filter id="textGlow">
      <feGaussianBlur stdDeviation="2" result="blur" />
      <feMerge>
        <feMergeNode in="blur"/>
        <feMergeNode in="SourceGraphic"/>
      </feMerge>
    </filter>
    <linearGradient id="neonBar" x1="0%" y1="0%" x2="100%" y2="0%">
        <stop offset="0%" stop-color="#111111"/>
        <stop offset="100%" stop-color="#39FF14"/>
    </linearGradient>
    <linearGradient id="scanlineGrad" x1="0%" y1="0%" x2="100%" y2="0%">
        <stop offset="0%" stop-color="#39FF14" stop-opacity="0"/>
        <stop offset="50%" stop-color="#39FF14" stop-opacity="0.18"/>
        <stop offset="100%" stop-color="#39FF14" stop-opacity="0"/>
    </linearGradient>
    <clipPath id="dashClip">
        <rect x="0" y="0" width="850" height="200" rx="12"/>
    </clipPath>
  </defs>

  <rect width="100%" height="100%" fill="url(#carbonFiber)" rx="12" stroke="#39FF14" stroke-width="1" stroke-opacity="0.3"/>
  <rect width="100%" height="100%" fill="#000000" opacity="0.6" rx="12" />
  <g><polygon points="822,102 830.6,107 830.6,117 822,122 813.4,117 813.4,107" fill="none" stroke="#39FF14" stroke-width="1" opacity="0.04120582076316769"/>
<polygon points="49,20 57.6,25 57.6,35 49,40 40.4,35 40.4,25" fill="none" stroke="#39FF14" stroke-width="1" opacity="0.04179899269805531"/>
<polygon points="680,188 688.6,193 688.6,203 680,208 671.4,203 671.4,193" fill="none" stroke="#39FF14" stroke-width="1" opacity="0.06967643019703523"/>
<polygon points="473,108 481.6,113 481.6,123 473,128 464.4,123 464.4,113" fill="none" stroke="#39FF14" stroke-width="1" opacity="0.03671829643466777"/>
<polygon points="345,49 353.6,54 353.6,64 345,69 336.4,64 336.4,54" fill="none" stroke="#39FF14" stroke-width="1" opacity="0.07203869722016647"/>
<polygon points="847,130 855.6,135 855.6,145 847,150 838.4,145 838.4,135" fill="none" stroke="#39FF14" stroke-width="1" opacity="0.07169873928735196"/>
<polygon points="649,13 657.6,18 657.6,28 649,33 640.4,28 640.4,18" fill="none" stroke="#39FF14" stroke-width="1" opacity="0.030361953887583164"/>
<polygon points="607,171 615.6,176 615.6,186 607,191 598.4,186 598.4,176" fill="none" stroke="#39FF14" stroke-width="1" opacity="0.07864216556617161"/>
<polygon points="570,67 578.6,72 578.6,82 570,87 561.4,82 561.4,72" fill="none" stroke="#39FF14" stroke-width="1" opacity="0.04061930172574095"/>
<polygon points="201,117 209.6,122 209.6,132 201,137 192.4,132 192.4,122" fill="none" stroke="#39FF14" stroke-width="1" opacity="0.029280514107147"/>
<polygon points="325,117 333.6,122 333.6,132 325,137 316.4,132 316.4,122" fill="none" stroke="#39FF14" stroke-width="1" opacity="0.021981260012981382"/>
<polygon points="181,133 189.6,138 189.6,148 181,153 172.4,148 172.4,138" fill="none" stroke="#39FF14" stroke-width="1" opacity="0.06237045668845337"/>
<polygon points="636,33 644.6,38 644.6,48 636,53 627.4,48 627.4,38" fill="none" stroke="#39FF14" stroke-width="1" opacity="0.043716549984979265"/>
<polygon points="38,15 46.6,20 46.6,30 38,35 29.4,30 29.4,20" fill="none" stroke="#39FF14" stroke-width="1" opacity="0.06626824043019935"/>
<polygon points="746,118 754.6,123 754.6,133 746,138 737.4,133 737.4,123" fill="none" stroke="#39FF14" stroke-width="1" opacity="0.06091717495857825"/>
<polygon points="582,16 590.6,21 590.6,31 582,36 573.4,31 573.4,21" fill="none" stroke="#39FF14" stroke-width="1" opacity="0.07505915156417436"/>
<polygon points="454,-8 462.6,-3 462.6,7 454,12 445.4,7 445.4,-3" fill="none" stroke="#39FF14" stroke-width="1" opacity="0.049087547587533704"/>
<polygon points="697,99 705.6,104 705.6,114 697,119 688.4,114 688.4,104" fill="none" stroke="#39FF14" stroke-width="1" opacity="0.020837041536504983"/>
<polygon points="549,87 557.6,92 557.6,102 549,107 540.4,102 540.4,92" fill="none" stroke="#39FF14" stroke-width="1" opacity="0.06993936681522818"/>
<polygon points="209,184 217.6,189 217.6,199 209,204 200.4,199 200.4,189" fill="none" stroke="#39FF14" stroke-width="1" opacity="0.03461564985597874"/>
<polygon points="121,63 129.6,68 129.6,78 121,83 112.4,78 112.4,68" fill="none" stroke="#39FF14" stroke-width="1" opacity="0.03430187306518878"/>
<polygon points="803,19 811.6,24 811.6,34 803,39 794.4,34 794.4,24" fill="none" stroke="#39FF14" stroke-width="1" opacity="0.07943552517915957"/>
<polygon points="676,87 684.6,92 684.6,102 676,107 667.4,102 667.4,92" fill="none" stroke="#39FF14" stroke-width="1" opacity="0.035880097558514304"/>
<polygon points="329,138 337.6,143 337.6,153 329,158 320.4,153 320.4,143" fill="none" stroke="#39FF14" stroke-width="1" opacity="0.07085637217104096"/>
<polygon points="248,115 256.6,120 256.6,130 248,135 239.4,130 239.4,120" fill="none" stroke="#39FF14" stroke-width="1" opacity="0.05726551486457905"/>
<polygon points="99,2 107.6,7 107.6,17 99,22 90.4,17 90.4,7" fill="none" stroke="#39FF14" stroke-width="1" opacity="0.06151526960841147"/>
<polygon points="446,80 454.6,85 454.6,95 446,100 437.4,95 437.4,85" fill="none" stroke="#39FF14" stroke-width="1" opacity="0.048882844030721614"/>
<polygon points="52,180 60.6,185 60.6,195 52,200 43.4,195 43.4,185" fill="none" stroke="#39FF14" stroke-width="1" opacity="0.05101817115489858"/>
<polygon points="383,23 391.6,28 391.6,38 383,43 374.4,38 374.4,28" fill="none" stroke="#39FF14" stroke-width="1" opacity="0.022659952782521635"/>
<polygon points="193,33 201.6,38 201.6,48 193,53 184.4,48 184.4,38" fill="none" stroke="#39FF14" stroke-width="1" opacity="0.04548379858092917"/>
</g>

  <!-- HUD Decorative elements -->
  <path d="M 20 20 L 40 20 L 50 30" fill="none" stroke="#39FF14" stroke-width="2" opacity="0.5"/>
  <path d="M 830 180 L 810 180 L 800 170" fill="none" stroke="#39FF14" stroke-width="2" opacity="0.5"/>

  <g clip-path="url(#dashClip)">
    <rect x="-160" y="0" width="160" height="200" fill="url(#scanlineGrad)">
      <animateTransform attributeName="transform" type="translate"
                        from="0 0" to="1010 0" dur="6s" repeatCount="indefinite"/>
    </rect>
  </g>

  <g font-family="'Consolas', 'Fira Code', monospace" text-anchor="middle">

    <!-- NETWORK STATUS -->
    <g transform="translate(130, 100)">
        <circle cx="0" cy="0" r="45" fill="none" stroke="#39FF14" stroke-width="2" stroke-dasharray="10 5">
            <animateTransform attributeName="transform" type="rotate" from="0" to="360" dur="10s" repeatCount="indefinite"/>
        </circle>
        <circle cx="0" cy="0" r="35" fill="#0d0d0d" />
        <text x="0" y="-60" font-size="12" fill="#aaaaaa" letter-spacing="2">ROOT.AUTH</text>
        <text x="0" y="70" font-size="14" fill="#ffffff" font-weight="bold">OPERATIONAL</text>
    </g>

    <!-- ACTIVE USERS -->
    <g transform="translate(330, 100)">
        <text x="0" y="-20" font-size="12" fill="#aaaaaa">CITIZENS</text>
        <text x="0" y="15" font-size="28" fill="#ffffff" font-weight="bold" filter="url(#textGlow)">15,260</text>
        <text x="0" y="35" font-size="10" fill="#777777">VERIFIED HUMANS</text>
    </g>

    <!-- REGISTERED AGENTS -->
    <g transform="translate(530, 100)">
        <text x="0" y="-20" font-size="12" fill="#aaaaaa">AGENTS</text>
        <text x="0" y="15" font-size="28" fill="#00d4ff" font-weight="bold" filter="url(#textGlow)">3,415</text>
        <text x="0" y="35" font-size="10" fill="#777777">REGISTERED DIDs</text>
    </g>

    <!-- TRANSACTIONS -->
    <g transform="translate(730, 100)">
        <text x="0" y="-20" font-size="12" fill="#aaaaaa">TRANSFERS</text>
        <text x="0" y="15" font-size="28" fill="#ffffff" font-weight="bold">29,901</text>
        <text x="0" y="35" font-size="10" fill="#777777">M2M SETTLEMENTS</text>
    </g>
  </g>

  <text x="425" y="185" font-family="'Consolas', 'Fira Code', monospace" font-size="10" fill="#aaaaaa" opacity="0.6" text-anchor="middle">AXIOMID PROJECTED TARGETS (ILLUSTRATIVE): 2026-07-14 19:02:10 UTC // SECURE_HANDSHAKE</text>
</svg>