<svg width="850" height="200" viewBox="0 0 850 200" xmlns="http://www.w3.org/2000/svg">
  <defs>
    <pattern id="carbonFiber" width="10" height="10" patternUnits="userSpaceOnUse">
        <rect width="10" height="10" fill="#050505"/>
        <path d="M0,0 L5,5 L10,0 L5,-5 Z M5,5 L10,10 L15,5 L10,0 Z M-5,5 L0,10 L5,5 L0,0 Z M0,10 L5,15 L10,10 L5,5 Z" fill="#0d0d0d"/>
    </pattern>
    <filter id="textGlow">
      <feGaussianBlur stdDeviation="2" result="blur" />
      <feMerge>
        <feMergeNode in="blur"/>
        <feMergeNode in="SourceGraphic"/>
      </feMerge>
    </filter>
    <linearGradient id="neonBar" x1="0%" y1="0%" x2="100%" y2="0%">
        <stop offset="0%" stop-color="#111111"/>
        <stop offset="100%" stop-color="#39FF14"/>
    </linearGradient>
    <linearGradient id="scanlineGrad" x1="0%" y1="0%" x2="100%" y2="0%">
        <stop offset="0%" stop-color="#39FF14" stop-opacity="0"/>
        <stop offset="50%" stop-color="#39FF14" stop-opacity="0.18"/>
        <stop offset="100%" stop-color="#39FF14" stop-opacity="0"/>
    </linearGradient>
    <clipPath id="dashClip">
        <rect x="0" y="0" width="850" height="200" rx="12"/>
    </clipPath>
  </defs>

  <rect width="100%" height="100%" fill="url(#carbonFiber)" rx="12" stroke="#39FF14" stroke-width="1" stroke-opacity="0.3"/>
  <rect width="100%" height="100%" fill="#000000" opacity="0.6" rx="12" />
  <g><polygon points="668,149 676.6,154 676.6,164 668,169 659.4,164 659.4,154" fill="none" stroke="#39FF14" stroke-width="1" opacity="0.03860780163433965"/>
<polygon points="809,132 817.6,137 817.6,147 809,152 800.4,147 800.4,137" fill="none" stroke="#39FF14" stroke-width="1" opacity="0.025090600481023077"/>
<polygon points="595,190 603.6,195 603.6,205 595,210 586.4,205 586.4,195" fill="none" stroke="#39FF14" stroke-width="1" opacity="0.03927920030941846"/>
<polygon points="742,70 750.6,75 750.6,85 742,90 733.4,85 733.4,75" fill="none" stroke="#39FF14" stroke-width="1" opacity="0.04930911264519558"/>
<polygon points="510,23 518.6,28 518.6,38 510,43 501.4,38 501.4,28" fill="none" stroke="#39FF14" stroke-width="1" opacity="0.0722005388556443"/>
<polygon points="583,41 591.6,46 591.6,56 583,61 574.4,56 574.4,46" fill="none" stroke="#39FF14" stroke-width="1" opacity="0.047722500240629795"/>
<polygon points="105,190 113.6,195 113.6,205 105,210 96.4,205 96.4,195" fill="none" stroke="#39FF14" stroke-width="1" opacity="0.06716025670969028"/>
<polygon points="564,39 572.6,44 572.6,54 564,59 555.4,54 555.4,44" fill="none" stroke="#39FF14" stroke-width="1" opacity="0.05085079943339098"/>
<polygon points="816,78 824.6,83 824.6,93 816,98 807.4,93 807.4,83" fill="none" stroke="#39FF14" stroke-width="1" opacity="0.043266657945486744"/>
<polygon points="553,116 561.6,121 561.6,131 553,136 544.4,131 544.4,121" fill="none" stroke="#39FF14" stroke-width="1" opacity="0.028216858540321188"/>
<polygon points="625,171 633.6,176 633.6,186 625,191 616.4,186 616.4,176" fill="none" stroke="#39FF14" stroke-width="1" opacity="0.036689739758375785"/>
<polygon points="845,54 853.6,59 853.6,69 845,74 836.4,69 836.4,59" fill="none" stroke="#39FF14" stroke-width="1" opacity="0.07301595840585476"/>
<polygon points="832,174 840.6,179 840.6,189 832,194 823.4,189 823.4,179" fill="none" stroke="#39FF14" stroke-width="1" opacity="0.02684307537199521"/>
<polygon points="89,12 97.6,17 97.6,27 89,32 80.4,27 80.4,17" fill="none" stroke="#39FF14" stroke-width="1" opacity="0.02340730032736357"/>
<polygon points="199,-9 207.6,-4 207.6,6 199,11 190.4,6 190.4,-4" fill="none" stroke="#39FF14" stroke-width="1" opacity="0.0779006159470605"/>
<polygon points="767,66 775.6,71 775.6,81 767,86 758.4,81 758.4,71" fill="none" stroke="#39FF14" stroke-width="1" opacity="0.054774484914209096"/>
<polygon points="311,-6 319.6,-1 319.6,9 311,14 302.4,9 302.4,-1" fill="none" stroke="#39FF14" stroke-width="1" opacity="0.025853575605595917"/>
<polygon points="218,-5 226.6,0 226.6,10 218,15 209.4,10 209.4,0" fill="none" stroke="#39FF14" stroke-width="1" opacity="0.0209429105417203"/>
<polygon points="380,78 388.6,83 388.6,93 380,98 371.4,93 371.4,83" fill="none" stroke="#39FF14" stroke-width="1" opacity="0.03542350351811904"/>
<polygon points="777,120 785.6,125 785.6,135 777,140 768.4,135 768.4,125" fill="none" stroke="#39FF14" stroke-width="1" opacity="0.07610384539036019"/>
<polygon points="666,8 674.6,13 674.6,23 666,28 657.4,23 657.4,13" fill="none" stroke="#39FF14" stroke-width="1" opacity="0.05005526104958968"/>
<polygon points="756,56 764.6,61 764.6,71 756,76 747.4,71 747.4,61" fill="none" stroke="#39FF14" stroke-width="1" opacity="0.07493189236360209"/>
<polygon points="490,-7 498.6,-2 498.6,8 490,13 481.4,8 481.4,-2" fill="none" stroke="#39FF14" stroke-width="1" opacity="0.0684819544468944"/>
<polygon points="785,46 793.6,51 793.6,61 785,66 776.4,61 776.4,51" fill="none" stroke="#39FF14" stroke-width="1" opacity="0.047618597669893147"/>
<polygon points="292,89 300.6,94 300.6,104 292,109 283.4,104 283.4,94" fill="none" stroke="#39FF14" stroke-width="1" opacity="0.0412681462550592"/>
<polygon points="725,19 733.6,24 733.6,34 725,39 716.4,34 716.4,24" fill="none" stroke="#39FF14" stroke-width="1" opacity="0.021398207363467342"/>
<polygon points="161,23 169.6,28 169.6,38 161,43 152.4,38 152.4,28" fill="none" stroke="#39FF14" stroke-width="1" opacity="0.06695236499221545"/>
<polygon points="148,99 156.6,104 156.6,114 148,119 139.4,114 139.4,104" fill="none" stroke="#39FF14" stroke-width="1" opacity="0.06944902234427285"/>
<polygon points="812,70 820.6,75 820.6,85 812,90 803.4,85 803.4,75" fill="none" stroke="#39FF14" stroke-width="1" opacity="0.0741648612283504"/>
<polygon points="85,107 93.6,112 93.6,122 85,127 76.4,122 76.4,112" fill="none" stroke="#39FF14" stroke-width="1" opacity="0.05902890812911074"/>
</g>

  <!-- HUD Decorative elements -->
  <path d="M 20 20 L 40 20 L 50 30" fill="none" stroke="#39FF14" stroke-width="2" opacity="0.5"/>
  <path d="M 830 180 L 810 180 L 800 170" fill="none" stroke="#39FF14" stroke-width="2" opacity="0.5"/>

  <g clip-path="url(#dashClip)">
    <rect x="-160" y="0" width="160" height="200" fill="url(#scanlineGrad)">
      <animateTransform attributeName="transform" type="translate"
                        from="0 0" to="1010 0" dur="6s" repeatCount="indefinite"/>
    </rect>
  </g>

  <g font-family="'Consolas', 'Fira Code', monospace" text-anchor="middle">

    <!-- NETWORK STATUS -->
    <g transform="translate(130, 100)">
        <circle cx="0" cy="0" r="45" fill="none" stroke="#39FF14" stroke-width="2" stroke-dasharray="10 5">
            <animateTransform attributeName="transform" type="rotate" from="0" to="360" dur="10s" repeatCount="indefinite"/>
        </circle>
        <circle cx="0" cy="0" r="35" fill="#0d0d0d" />
        <text x="0" y="-60" font-size="12" fill="#aaaaaa" letter-spacing="2">ROOT.AUTH</text>
        <text x="0" y="70" font-size="14" fill="#ffffff" font-weight="bold">OPERATIONAL</text>
    </g>

    <!-- ACTIVE USERS -->
    <g transform="translate(330, 100)">
        <text x="0" y="-20" font-size="12" fill="#aaaaaa">CITIZENS</text>
        <text x="0" y="15" font-size="28" fill="#ffffff" font-weight="bold" filter="url(#textGlow)">14,526</text>
        <text x="0" y="35" font-size="10" fill="#777777">VERIFIED HUMANS</text>
    </g>

    <!-- REGISTERED AGENTS -->
    <g transform="translate(530, 100)">
        <text x="0" y="-20" font-size="12" fill="#aaaaaa">AGENTS</text>
        <text x="0" y="15" font-size="28" fill="#00d4ff" font-weight="bold" filter="url(#textGlow)">4,391</text>
        <text x="0" y="35" font-size="10" fill="#777777">REGISTERED DIDs</text>
    </g>

    <!-- TRANSACTIONS -->
    <g transform="translate(730, 100)">
        <text x="0" y="-20" font-size="12" fill="#aaaaaa">TRANSFERS</text>
        <text x="0" y="15" font-size="28" fill="#ffffff" font-weight="bold">34,836</text>
        <text x="0" y="35" font-size="10" fill="#777777">M2M SETTLEMENTS</text>
    </g>
  </g>

  <text x="425" y="185" font-family="'Consolas', 'Fira Code', monospace" font-size="10" fill="#aaaaaa" opacity="0.6" text-anchor="middle">AXIOMID PROJECTED TARGETS (ILLUSTRATIVE): 2026-07-01 21:30:21 UTC // SECURE_HANDSHAKE</text>
</svg>