<svg width="850" height="200" viewBox="0 0 850 200" xmlns="http://www.w3.org/2000/svg">
  <defs>
    <!-- Carbon Fiber Pattern -->
    <pattern id="carbonFiber" width="10" height="10" patternUnits="userSpaceOnUse">
        <rect width="10" height="10" fill="#050505"/>
        <path d="M0,0 L5,5 L10,0 L5,-5 Z M5,5 L10,10 L15,5 L10,0 Z M-5,5 L0,10 L5,5 L0,0 Z M0,10 L5,15 L10,10 L5,5 Z" fill="#0d0d0d"/>
    </pattern>
    <filter id="glassmorphism">
      <feGaussianBlur stdDeviation="3" result="blur" />
      <feColorMatrix type="matrix" values="1 0 0 0 0  0 1 0 0 0  0 0 1 0 0  0 0 0 18 -7" result="glow" />
      <feBlend in="SourceGraphic" in2="glow" mode="normal" />
    </filter>
    <filter id="textGlow">
      <feGaussianBlur stdDeviation="2" result="blur" />
      <feMerge>
        <feMergeNode in="blur"/>
        <feMergeNode in="SourceGraphic"/>
      </feMerge>
    </filter>
    <linearGradient id="neonBar" x1="0%" y1="0%" x2="100%" y2="0%">
        <stop offset="0%" stop-color="#111111"/>
        <stop offset="100%" stop-color="#39FF14"/>
    </linearGradient>
  </defs>

  <rect width="100%" height="100%" fill="url(#carbonFiber)" rx="12" stroke="#39FF14" stroke-width="1" stroke-opacity="0.3"/>
  <rect width="100%" height="100%" fill="#000000" opacity="0.6" rx="12" />
  <g><polygon points="554,25 562.6,30 562.6,40 554,45 545.4,40 545.4,30" fill="none" stroke="#39FF14" stroke-width="1" opacity="0.04798580854521103"/>
<polygon points="471,171 479.6,176 479.6,186 471,191 462.4,186 462.4,176" fill="none" stroke="#39FF14" stroke-width="1" opacity="0.04078394870591125"/>
<polygon points="319,147 327.6,152 327.6,162 319,167 310.4,162 310.4,152" fill="none" stroke="#39FF14" stroke-width="1" opacity="0.06272445663599728"/>
<polygon points="848,11 856.6,16 856.6,26 848,31 839.4,26 839.4,16" fill="none" stroke="#39FF14" stroke-width="1" opacity="0.04302093121356197"/>
<polygon points="807,48 815.6,53 815.6,63 807,68 798.4,63 798.4,53" fill="none" stroke="#39FF14" stroke-width="1" opacity="0.027365643139350224"/>
<polygon points="737,70 745.6,75 745.6,85 737,90 728.4,85 728.4,75" fill="none" stroke="#39FF14" stroke-width="1" opacity="0.0233366905954539"/>
<polygon points="624,-7 632.6,-2 632.6,8 624,13 615.4,8 615.4,-2" fill="none" stroke="#39FF14" stroke-width="1" opacity="0.06497104091867865"/>
<polygon points="62,148 70.6,153 70.6,163 62,168 53.4,163 53.4,153" fill="none" stroke="#39FF14" stroke-width="1" opacity="0.05398042735774042"/>
<polygon points="11,158 19.6,163 19.6,173 11,178 2.4000000000000004,173 2.4000000000000004,163" fill="none" stroke="#39FF14" stroke-width="1" opacity="0.02679106745100025"/>
<polygon points="694,58 702.6,63 702.6,73 694,78 685.4,73 685.4,63" fill="none" stroke="#39FF14" stroke-width="1" opacity="0.026938261128380048"/>
<polygon points="387,14 395.6,19 395.6,29 387,34 378.4,29 378.4,19" fill="none" stroke="#39FF14" stroke-width="1" opacity="0.05946126606834494"/>
<polygon points="245,29 253.6,34 253.6,44 245,49 236.4,44 236.4,34" fill="none" stroke="#39FF14" stroke-width="1" opacity="0.0570453703353519"/>
<polygon points="672,124 680.6,129 680.6,139 672,144 663.4,139 663.4,129" fill="none" stroke="#39FF14" stroke-width="1" opacity="0.0608764185999643"/>
<polygon points="508,83 516.6,88 516.6,98 508,103 499.4,98 499.4,88" fill="none" stroke="#39FF14" stroke-width="1" opacity="0.07298495356489834"/>
<polygon points="249,126 257.6,131 257.6,141 249,146 240.4,141 240.4,131" fill="none" stroke="#39FF14" stroke-width="1" opacity="0.027557755749811966"/>
<polygon points="346,130 354.6,135 354.6,145 346,150 337.4,145 337.4,135" fill="none" stroke="#39FF14" stroke-width="1" opacity="0.024137426657973002"/>
<polygon points="440,8 448.6,13 448.6,23 440,28 431.4,23 431.4,13" fill="none" stroke="#39FF14" stroke-width="1" opacity="0.05732538528780404"/>
<polygon points="610,18 618.6,23 618.6,33 610,38 601.4,33 601.4,23" fill="none" stroke="#39FF14" stroke-width="1" opacity="0.04755787501798031"/>
<polygon points="797,178 805.6,183 805.6,193 797,198 788.4,193 788.4,183" fill="none" stroke="#39FF14" stroke-width="1" opacity="0.06323458704800015"/>
<polygon points="556,130 564.6,135 564.6,145 556,150 547.4,145 547.4,135" fill="none" stroke="#39FF14" stroke-width="1" opacity="0.04317934738741904"/>
<polygon points="213,-6 221.6,-1 221.6,9 213,14 204.4,9 204.4,-1" fill="none" stroke="#39FF14" stroke-width="1" opacity="0.06272006453157247"/>
<polygon points="662,150 670.6,155 670.6,165 662,170 653.4,165 653.4,155" fill="none" stroke="#39FF14" stroke-width="1" opacity="0.05548292511830348"/>
<polygon points="438,91 446.6,96 446.6,106 438,111 429.4,106 429.4,96" fill="none" stroke="#39FF14" stroke-width="1" opacity="0.039464307473529824"/>
<polygon points="494,173 502.6,178 502.6,188 494,193 485.4,188 485.4,178" fill="none" stroke="#39FF14" stroke-width="1" opacity="0.043289740664906554"/>
<polygon points="620,73 628.6,78 628.6,88 620,93 611.4,88 611.4,78" fill="none" stroke="#39FF14" stroke-width="1" opacity="0.07284728933811116"/>
<polygon points="249,133 257.6,138 257.6,148 249,153 240.4,148 240.4,138" fill="none" stroke="#39FF14" stroke-width="1" opacity="0.07151341198531695"/>
<polygon points="838,166 846.6,171 846.6,181 838,186 829.4,181 829.4,171" fill="none" stroke="#39FF14" stroke-width="1" opacity="0.03697104224573898"/>
<polygon points="165,-10 173.6,-5 173.6,5 165,10 156.4,5 156.4,-5" fill="none" stroke="#39FF14" stroke-width="1" opacity="0.07225680886087407"/>
<polygon points="743,168 751.6,173 751.6,183 743,188 734.4,183 734.4,173" fill="none" stroke="#39FF14" stroke-width="1" opacity="0.02915444508476723"/>
<polygon points="167,69 175.6,74 175.6,84 167,89 158.4,84 158.4,74" fill="none" stroke="#39FF14" stroke-width="1" opacity="0.02094991974283646"/>
</g>

  <!-- HUD Decorative elements -->
  <path d="M 20 20 L 40 20 L 50 30" fill="none" stroke="#39FF14" stroke-width="2" opacity="0.5"/>
  <path d="M 830 180 L 810 180 L 800 170" fill="none" stroke="#39FF14" stroke-width="2" opacity="0.5"/>
  <rect x="20" y="100" width="2" height="40" fill="#ffffff" opacity="0.4"/>
  <rect x="828" y="60" width="2" height="40" fill="#39FF14" opacity="0.6"/>

  <g font-family="'Consolas', 'Fira Code', monospace" text-anchor="middle">

    <!-- SYSTEM STATUS -->
    <g transform="translate(130, 100)">
        <circle cx="0" cy="0" r="45" fill="none" stroke="#111111" stroke-width="8" />
        <circle cx="0" cy="0" r="45" fill="none" stroke="#39FF14" stroke-width="2" stroke-dasharray="10 5">
            <animateTransform attributeName="transform" type="rotate" from="0" to="360" dur="10s" repeatCount="indefinite"/>
        </circle>
        <circle cx="0" cy="0" r="35" fill="#0d0d0d" />
        <circle cx="0" cy="0" r="6" fill="#39FF14" filter="url(#textGlow)">
            <animate attributeName="opacity" values="1;0.3;1" dur="2s" repeatCount="indefinite"/>
        </circle>
        <text x="0" y="-60" font-size="12" fill="#aaaaaa" letter-spacing="2">SYS.CORE</text>
        <text x="0" y="70" font-size="14" fill="#ffffff" font-weight="bold">ONLINE</text>
    </g>

    <!-- LIVE TRAFFIC -->
    <g transform="translate(330, 100)">
        <rect x="-60" y="-45" width="120" height="90" fill="#0a0a0a" rx="8" stroke="#39FF14" stroke-opacity="0.4" stroke-width="1"/>
        <text x="0" y="-20" font-size="12" fill="#aaaaaa">NETWORK LOAD</text>
        <text x="0" y="15" font-size="28" fill="#ffffff" font-weight="bold" filter="url(#textGlow)">7387</text>
        <text x="0" y="35" font-size="10" fill="#777777">ACTIVE SESSIONS</text>
    </g>

    <!-- ACTIVE AGENTS -->
    <g transform="translate(530, 100)">
        <rect x="-60" y="-45" width="120" height="90" fill="#0a0a0a" rx="8" stroke="#39FF14" stroke-opacity="0.4" stroke-width="1"/>
        <text x="0" y="-20" font-size="12" fill="#aaaaaa">SWARM ENTITIES</text>
        <text x="0" y="15" font-size="28" fill="#ffffff" font-weight="bold" filter="url(#textGlow)">152</text>
        <text x="0" y="35" font-size="10" fill="#777777">AUTONOMOUS</text>
    </g>

    <!-- UPTIME -->
    <g transform="translate(730, 100)">
        <path d="M -40 -35 L 40 -35 L 50 -25 L 50 35 L -40 35 L -50 25 Z" fill="#0a0a0a" stroke="#39FF14" stroke-opacity="0.4" stroke-width="1"/>
        <text x="0" y="-15" font-size="12" fill="#aaaaaa">CONTINUITY</text>
        <text x="0" y="15" font-size="24" fill="#ffffff" font-weight="bold">243<tspan font-size="14" fill="#777777">d</tspan></text>
        <rect x="-35" y="25" width="70" height="4" fill="url(#neonBar)" rx="2"/>
    </g>
  </g>

  <text x="425" y="185" font-family="'Consolas', 'Fira Code', monospace" font-size="10" fill="#aaaaaa" opacity="0.6" text-anchor="middle">LAST TELEMETRY PING: 2026-05-06 18:45:38 UTC // ENCRYPTED_TUNNEL</text>
</svg>