<svg width="850" height="200" viewBox="0 0 850 200" xmlns="http://www.w3.org/2000/svg">
  <defs>
    <pattern id="carbonFiber" width="10" height="10" patternUnits="userSpaceOnUse">
        <rect width="10" height="10" fill="#050505"/>
        <path d="M0,0 L5,5 L10,0 L5,-5 Z M5,5 L10,10 L15,5 L10,0 Z M-5,5 L0,10 L5,5 L0,0 Z M0,10 L5,15 L10,10 L5,5 Z" fill="#0d0d0d"/>
    </pattern>
    <filter id="textGlow">
      <feGaussianBlur stdDeviation="2" result="blur" />
      <feMerge>
        <feMergeNode in="blur"/>
        <feMergeNode in="SourceGraphic"/>
      </feMerge>
    </filter>
    <linearGradient id="neonBar" x1="0%" y1="0%" x2="100%" y2="0%">
        <stop offset="0%" stop-color="#111111"/>
        <stop offset="100%" stop-color="#39FF14"/>
    </linearGradient>
    <linearGradient id="scanlineGrad" x1="0%" y1="0%" x2="100%" y2="0%">
        <stop offset="0%" stop-color="#39FF14" stop-opacity="0"/>
        <stop offset="50%" stop-color="#39FF14" stop-opacity="0.18"/>
        <stop offset="100%" stop-color="#39FF14" stop-opacity="0"/>
    </linearGradient>
    <clipPath id="dashClip">
        <rect x="0" y="0" width="850" height="200" rx="12"/>
    </clipPath>
  </defs>

  <rect width="100%" height="100%" fill="url(#carbonFiber)" rx="12" stroke="#39FF14" stroke-width="1" stroke-opacity="0.3"/>
  <rect width="100%" height="100%" fill="#000000" opacity="0.6" rx="12" />
  <g><polygon points="844,123 852.6,128 852.6,138 844,143 835.4,138 835.4,128" fill="none" stroke="#39FF14" stroke-width="1" opacity="0.021693679674139085"/>
<polygon points="45,96 53.6,101 53.6,111 45,116 36.4,111 36.4,101" fill="none" stroke="#39FF14" stroke-width="1" opacity="0.024765943065433615"/>
<polygon points="826,3 834.6,8 834.6,18 826,23 817.4,18 817.4,8" fill="none" stroke="#39FF14" stroke-width="1" opacity="0.042076996402520925"/>
<polygon points="687,133 695.6,138 695.6,148 687,153 678.4,148 678.4,138" fill="none" stroke="#39FF14" stroke-width="1" opacity="0.06751727643021985"/>
<polygon points="399,174 407.6,179 407.6,189 399,194 390.4,189 390.4,179" fill="none" stroke="#39FF14" stroke-width="1" opacity="0.06579577257814345"/>
<polygon points="484,87 492.6,92 492.6,102 484,107 475.4,102 475.4,92" fill="none" stroke="#39FF14" stroke-width="1" opacity="0.030191610456828864"/>
<polygon points="176,182 184.6,187 184.6,197 176,202 167.4,197 167.4,187" fill="none" stroke="#39FF14" stroke-width="1" opacity="0.02119293742819408"/>
<polygon points="179,20 187.6,25 187.6,35 179,40 170.4,35 170.4,25" fill="none" stroke="#39FF14" stroke-width="1" opacity="0.05965990819024711"/>
<polygon points="702,171 710.6,176 710.6,186 702,191 693.4,186 693.4,176" fill="none" stroke="#39FF14" stroke-width="1" opacity="0.062286879315258684"/>
<polygon points="8,146 16.6,151 16.6,161 8,166 -0.5999999999999996,161 -0.5999999999999996,151" fill="none" stroke="#39FF14" stroke-width="1" opacity="0.06940864694444154"/>
<polygon points="395,103 403.6,108 403.6,118 395,123 386.4,118 386.4,108" fill="none" stroke="#39FF14" stroke-width="1" opacity="0.07525635540699066"/>
<polygon points="88,120 96.6,125 96.6,135 88,140 79.4,135 79.4,125" fill="none" stroke="#39FF14" stroke-width="1" opacity="0.030965215217778577"/>
<polygon points="764,6 772.6,11 772.6,21 764,26 755.4,21 755.4,11" fill="none" stroke="#39FF14" stroke-width="1" opacity="0.053010683311435894"/>
<polygon points="843,115 851.6,120 851.6,130 843,135 834.4,130 834.4,120" fill="none" stroke="#39FF14" stroke-width="1" opacity="0.06462826350160891"/>
<polygon points="524,33 532.6,38 532.6,48 524,53 515.4,48 515.4,38" fill="none" stroke="#39FF14" stroke-width="1" opacity="0.038047454835336586"/>
<polygon points="766,189 774.6,194 774.6,204 766,209 757.4,204 757.4,194" fill="none" stroke="#39FF14" stroke-width="1" opacity="0.045852071977773176"/>
<polygon points="443,19 451.6,24 451.6,34 443,39 434.4,34 434.4,24" fill="none" stroke="#39FF14" stroke-width="1" opacity="0.03269416270672456"/>
<polygon points="200,19 208.6,24 208.6,34 200,39 191.4,34 191.4,24" fill="none" stroke="#39FF14" stroke-width="1" opacity="0.05903806516264083"/>
<polygon points="364,14 372.6,19 372.6,29 364,34 355.4,29 355.4,19" fill="none" stroke="#39FF14" stroke-width="1" opacity="0.04960018584099555"/>
<polygon points="577,52 585.6,57 585.6,67 577,72 568.4,67 568.4,57" fill="none" stroke="#39FF14" stroke-width="1" opacity="0.07208110479591728"/>
<polygon points="636,149 644.6,154 644.6,164 636,169 627.4,164 627.4,154" fill="none" stroke="#39FF14" stroke-width="1" opacity="0.07579185500113424"/>
<polygon points="416,18 424.6,23 424.6,33 416,38 407.4,33 407.4,23" fill="none" stroke="#39FF14" stroke-width="1" opacity="0.06087930268673211"/>
<polygon points="507,1 515.6,6 515.6,16 507,21 498.4,16 498.4,6" fill="none" stroke="#39FF14" stroke-width="1" opacity="0.03545676504305791"/>
<polygon points="214,185 222.6,190 222.6,200 214,205 205.4,200 205.4,190" fill="none" stroke="#39FF14" stroke-width="1" opacity="0.023321581094392967"/>
<polygon points="318,131 326.6,136 326.6,146 318,151 309.4,146 309.4,136" fill="none" stroke="#39FF14" stroke-width="1" opacity="0.062433816713137996"/>
<polygon points="660,20 668.6,25 668.6,35 660,40 651.4,35 651.4,25" fill="none" stroke="#39FF14" stroke-width="1" opacity="0.02911980500848623"/>
<polygon points="728,162 736.6,167 736.6,177 728,182 719.4,177 719.4,167" fill="none" stroke="#39FF14" stroke-width="1" opacity="0.02509175276474135"/>
<polygon points="154,186 162.6,191 162.6,201 154,206 145.4,201 145.4,191" fill="none" stroke="#39FF14" stroke-width="1" opacity="0.0604684212173663"/>
<polygon points="813,125 821.6,130 821.6,140 813,145 804.4,140 804.4,130" fill="none" stroke="#39FF14" stroke-width="1" opacity="0.06074336008393205"/>
<polygon points="576,120 584.6,125 584.6,135 576,140 567.4,135 567.4,125" fill="none" stroke="#39FF14" stroke-width="1" opacity="0.0449743214146395"/>
</g>

  <!-- HUD Decorative elements -->
  <path d="M 20 20 L 40 20 L 50 30" fill="none" stroke="#39FF14" stroke-width="2" opacity="0.5"/>
  <path d="M 830 180 L 810 180 L 800 170" fill="none" stroke="#39FF14" stroke-width="2" opacity="0.5"/>

  <g clip-path="url(#dashClip)">
    <rect x="-160" y="0" width="160" height="200" fill="url(#scanlineGrad)">
      <animateTransform attributeName="transform" type="translate"
                        from="0 0" to="1010 0" dur="6s" repeatCount="indefinite"/>
    </rect>
  </g>

  <g font-family="'Consolas', 'Fira Code', monospace" text-anchor="middle">

    <!-- NETWORK STATUS -->
    <g transform="translate(130, 100)">
        <circle cx="0" cy="0" r="45" fill="none" stroke="#39FF14" stroke-width="2" stroke-dasharray="10 5">
            <animateTransform attributeName="transform" type="rotate" from="0" to="360" dur="10s" repeatCount="indefinite"/>
        </circle>
        <circle cx="0" cy="0" r="35" fill="#0d0d0d" />
        <text x="0" y="-60" font-size="12" fill="#aaaaaa" letter-spacing="2">ROOT.AUTH</text>
        <text x="0" y="70" font-size="14" fill="#ffffff" font-weight="bold">OPERATIONAL</text>
    </g>

    <!-- ACTIVE USERS -->
    <g transform="translate(330, 100)">
        <text x="0" y="-20" font-size="12" fill="#aaaaaa">CITIZENS</text>
        <text x="0" y="15" font-size="28" fill="#ffffff" font-weight="bold" filter="url(#textGlow)">13,422</text>
        <text x="0" y="35" font-size="10" fill="#777777">VERIFIED HUMANS</text>
    </g>

    <!-- REGISTERED AGENTS -->
    <g transform="translate(530, 100)">
        <text x="0" y="-20" font-size="12" fill="#aaaaaa">AGENTS</text>
        <text x="0" y="15" font-size="28" fill="#00d4ff" font-weight="bold" filter="url(#textGlow)">3,832</text>
        <text x="0" y="35" font-size="10" fill="#777777">REGISTERED DIDs</text>
    </g>

    <!-- TRANSACTIONS -->
    <g transform="translate(730, 100)">
        <text x="0" y="-20" font-size="12" fill="#aaaaaa">TRANSFERS</text>
        <text x="0" y="15" font-size="28" fill="#ffffff" font-weight="bold">41,388</text>
        <text x="0" y="35" font-size="10" fill="#777777">M2M SETTLEMENTS</text>
    </g>
  </g>

  <text x="425" y="185" font-family="'Consolas', 'Fira Code', monospace" font-size="10" fill="#aaaaaa" opacity="0.6" text-anchor="middle">AXIOMID PROJECTED TARGETS (ILLUSTRATIVE): 2026-07-06 02:10:28 UTC // SECURE_HANDSHAKE</text>
</svg>