<svg width="850" height="200" viewBox="0 0 850 200" xmlns="http://www.w3.org/2000/svg">
  <defs>
    <!-- Carbon Fiber Pattern -->
    <pattern id="carbonFiber" width="10" height="10" patternUnits="userSpaceOnUse">
        <rect width="10" height="10" fill="#050505"/>
        <path d="M0,0 L5,5 L10,0 L5,-5 Z M5,5 L10,10 L15,5 L10,0 Z M-5,5 L0,10 L5,5 L0,0 Z M0,10 L5,15 L10,10 L5,5 Z" fill="#0d0d0d"/>
    </pattern>
    <filter id="glassmorphism">
      <feGaussianBlur stdDeviation="3" result="blur" />
      <feColorMatrix type="matrix" values="1 0 0 0 0  0 1 0 0 0  0 0 1 0 0  0 0 0 18 -7" result="glow" />
      <feBlend in="SourceGraphic" in2="glow" mode="normal" />
    </filter>
    <filter id="textGlow">
      <feGaussianBlur stdDeviation="2" result="blur" />
      <feMerge>
        <feMergeNode in="blur"/>
        <feMergeNode in="SourceGraphic"/>
      </feMerge>
    </filter>
    <linearGradient id="neonBar" x1="0%" y1="0%" x2="100%" y2="0%">
        <stop offset="0%" stop-color="#111111"/>
        <stop offset="100%" stop-color="#39FF14"/>
    </linearGradient>
  </defs>

  <rect width="100%" height="100%" fill="url(#carbonFiber)" rx="12" stroke="#39FF14" stroke-width="1" stroke-opacity="0.3"/>
  <rect width="100%" height="100%" fill="#000000" opacity="0.6" rx="12" />
  <g><polygon points="760,37 768.6,42 768.6,52 760,57 751.4,52 751.4,42" fill="none" stroke="#39FF14" stroke-width="1" opacity="0.04689519668229155"/>
<polygon points="43,89 51.6,94 51.6,104 43,109 34.4,104 34.4,94" fill="none" stroke="#39FF14" stroke-width="1" opacity="0.07804903881284221"/>
<polygon points="123,1 131.6,6 131.6,16 123,21 114.4,16 114.4,6" fill="none" stroke="#39FF14" stroke-width="1" opacity="0.03431555893715219"/>
<polygon points="326,4 334.6,9 334.6,19 326,24 317.4,19 317.4,9" fill="none" stroke="#39FF14" stroke-width="1" opacity="0.027957856401409038"/>
<polygon points="506,138 514.6,143 514.6,153 506,158 497.4,153 497.4,143" fill="none" stroke="#39FF14" stroke-width="1" opacity="0.046806051733205775"/>
<polygon points="322,74 330.6,79 330.6,89 322,94 313.4,89 313.4,79" fill="none" stroke="#39FF14" stroke-width="1" opacity="0.03432378257944435"/>
<polygon points="682,104 690.6,109 690.6,119 682,124 673.4,119 673.4,109" fill="none" stroke="#39FF14" stroke-width="1" opacity="0.02636184634418923"/>
<polygon points="485,190 493.6,195 493.6,205 485,210 476.4,205 476.4,195" fill="none" stroke="#39FF14" stroke-width="1" opacity="0.054017150654813106"/>
<polygon points="37,70 45.6,75 45.6,85 37,90 28.4,85 28.4,75" fill="none" stroke="#39FF14" stroke-width="1" opacity="0.06552171796388703"/>
<polygon points="445,0 453.6,5 453.6,15 445,20 436.4,15 436.4,5" fill="none" stroke="#39FF14" stroke-width="1" opacity="0.04068144719645333"/>
<polygon points="287,52 295.6,57 295.6,67 287,72 278.4,67 278.4,57" fill="none" stroke="#39FF14" stroke-width="1" opacity="0.04251085429949114"/>
<polygon points="226,9 234.6,14 234.6,24 226,29 217.4,24 217.4,14" fill="none" stroke="#39FF14" stroke-width="1" opacity="0.04658135796162219"/>
<polygon points="25,127 33.6,132 33.6,142 25,147 16.4,142 16.4,132" fill="none" stroke="#39FF14" stroke-width="1" opacity="0.05906048014569991"/>
<polygon points="164,131 172.6,136 172.6,146 164,151 155.4,146 155.4,136" fill="none" stroke="#39FF14" stroke-width="1" opacity="0.07594678545916345"/>
<polygon points="504,6 512.6,11 512.6,21 504,26 495.4,21 495.4,11" fill="none" stroke="#39FF14" stroke-width="1" opacity="0.07946697228853297"/>
<polygon points="61,169 69.6,174 69.6,184 61,189 52.4,184 52.4,174" fill="none" stroke="#39FF14" stroke-width="1" opacity="0.06570562559564613"/>
<polygon points="577,33 585.6,38 585.6,48 577,53 568.4,48 568.4,38" fill="none" stroke="#39FF14" stroke-width="1" opacity="0.03645868978121329"/>
<polygon points="698,175 706.6,180 706.6,190 698,195 689.4,190 689.4,180" fill="none" stroke="#39FF14" stroke-width="1" opacity="0.021862446566044004"/>
<polygon points="765,77 773.6,82 773.6,92 765,97 756.4,92 756.4,82" fill="none" stroke="#39FF14" stroke-width="1" opacity="0.0644228798287032"/>
<polygon points="422,170 430.6,175 430.6,185 422,190 413.4,185 413.4,175" fill="none" stroke="#39FF14" stroke-width="1" opacity="0.0562707072974378"/>
<polygon points="28,143 36.6,148 36.6,158 28,163 19.4,158 19.4,148" fill="none" stroke="#39FF14" stroke-width="1" opacity="0.044578420943707654"/>
<polygon points="148,152 156.6,157 156.6,167 148,172 139.4,167 139.4,157" fill="none" stroke="#39FF14" stroke-width="1" opacity="0.04442621583177914"/>
<polygon points="39,144 47.6,149 47.6,159 39,164 30.4,159 30.4,149" fill="none" stroke="#39FF14" stroke-width="1" opacity="0.03868606531040038"/>
<polygon points="764,180 772.6,185 772.6,195 764,200 755.4,195 755.4,185" fill="none" stroke="#39FF14" stroke-width="1" opacity="0.06595654095310463"/>
<polygon points="487,129 495.6,134 495.6,144 487,149 478.4,144 478.4,134" fill="none" stroke="#39FF14" stroke-width="1" opacity="0.05377623122579096"/>
<polygon points="456,80 464.6,85 464.6,95 456,100 447.4,95 447.4,85" fill="none" stroke="#39FF14" stroke-width="1" opacity="0.0399175858201755"/>
<polygon points="283,128 291.6,133 291.6,143 283,148 274.4,143 274.4,133" fill="none" stroke="#39FF14" stroke-width="1" opacity="0.06226019346413368"/>
<polygon points="209,167 217.6,172 217.6,182 209,187 200.4,182 200.4,172" fill="none" stroke="#39FF14" stroke-width="1" opacity="0.052770907141376916"/>
<polygon points="547,22 555.6,27 555.6,37 547,42 538.4,37 538.4,27" fill="none" stroke="#39FF14" stroke-width="1" opacity="0.023202408751088272"/>
<polygon points="350,108 358.6,113 358.6,123 350,128 341.4,123 341.4,113" fill="none" stroke="#39FF14" stroke-width="1" opacity="0.03782726546249526"/>
</g>

  <!-- HUD Decorative elements -->
  <path d="M 20 20 L 40 20 L 50 30" fill="none" stroke="#39FF14" stroke-width="2" opacity="0.5"/>
  <path d="M 830 180 L 810 180 L 800 170" fill="none" stroke="#39FF14" stroke-width="2" opacity="0.5"/>
  <rect x="20" y="100" width="2" height="40" fill="#ffffff" opacity="0.4"/>
  <rect x="828" y="60" width="2" height="40" fill="#39FF14" opacity="0.6"/>

  <g font-family="'Consolas', 'Fira Code', monospace" text-anchor="middle">

    <!-- SYSTEM STATUS -->
    <g transform="translate(130, 100)">
        <circle cx="0" cy="0" r="45" fill="none" stroke="#111111" stroke-width="8" />
        <circle cx="0" cy="0" r="45" fill="none" stroke="#39FF14" stroke-width="2" stroke-dasharray="10 5">
            <animateTransform attributeName="transform" type="rotate" from="0" to="360" dur="10s" repeatCount="indefinite"/>
        </circle>
        <circle cx="0" cy="0" r="35" fill="#0d0d0d" />
        <circle cx="0" cy="0" r="6" fill="#39FF14" filter="url(#textGlow)">
            <animate attributeName="opacity" values="1;0.3;1" dur="2s" repeatCount="indefinite"/>
        </circle>
        <text x="0" y="-60" font-size="12" fill="#aaaaaa" letter-spacing="2">SYS.CORE</text>
        <text x="0" y="70" font-size="14" fill="#ffffff" font-weight="bold">ONLINE</text>
    </g>

    <!-- LIVE TRAFFIC -->
    <g transform="translate(330, 100)">
        <rect x="-60" y="-45" width="120" height="90" fill="#0a0a0a" rx="8" stroke="#39FF14" stroke-opacity="0.4" stroke-width="1"/>
        <text x="0" y="-20" font-size="12" fill="#aaaaaa">NETWORK LOAD</text>
        <text x="0" y="15" font-size="28" fill="#ffffff" font-weight="bold" filter="url(#textGlow)">7783</text>
        <text x="0" y="35" font-size="10" fill="#777777">ACTIVE SESSIONS</text>
    </g>

    <!-- ACTIVE AGENTS -->
    <g transform="translate(530, 100)">
        <rect x="-60" y="-45" width="120" height="90" fill="#0a0a0a" rx="8" stroke="#39FF14" stroke-opacity="0.4" stroke-width="1"/>
        <text x="0" y="-20" font-size="12" fill="#aaaaaa">SWARM ENTITIES</text>
        <text x="0" y="15" font-size="28" fill="#ffffff" font-weight="bold" filter="url(#textGlow)">198</text>
        <text x="0" y="35" font-size="10" fill="#777777">AUTONOMOUS</text>
    </g>

    <!-- UPTIME -->
    <g transform="translate(730, 100)">
        <path d="M -40 -35 L 40 -35 L 50 -25 L 50 35 L -40 35 L -50 25 Z" fill="#0a0a0a" stroke="#39FF14" stroke-opacity="0.4" stroke-width="1"/>
        <text x="0" y="-15" font-size="12" fill="#aaaaaa">CONTINUITY</text>
        <text x="0" y="15" font-size="24" fill="#ffffff" font-weight="bold">310<tspan font-size="14" fill="#777777">d</tspan></text>
        <rect x="-35" y="25" width="70" height="4" fill="url(#neonBar)" rx="2"/>
    </g>
  </g>

  <text x="425" y="185" font-family="'Consolas', 'Fira Code', monospace" font-size="10" fill="#aaaaaa" opacity="0.6" text-anchor="middle">LAST TELEMETRY PING: 2026-05-13 17:53:45 UTC // ENCRYPTED_TUNNEL</text>
</svg>