<svg width="850" height="200" viewBox="0 0 850 200" xmlns="http://www.w3.org/2000/svg">
  <defs>
    <!-- Carbon Fiber Pattern -->
    <pattern id="carbonFiber" width="10" height="10" patternUnits="userSpaceOnUse">
        <rect width="10" height="10" fill="#050505"/>
        <path d="M0,0 L5,5 L10,0 L5,-5 Z M5,5 L10,10 L15,5 L10,0 Z M-5,5 L0,10 L5,5 L0,0 Z M0,10 L5,15 L10,10 L5,5 Z" fill="#0d0d0d"/>
    </pattern>
    <filter id="glassmorphism">
      <feGaussianBlur stdDeviation="3" result="blur" />
      <feColorMatrix type="matrix" values="1 0 0 0 0  0 1 0 0 0  0 0 1 0 0  0 0 0 18 -7" result="glow" />
      <feBlend in="SourceGraphic" in2="glow" mode="normal" />
    </filter>
    <filter id="textGlow">
      <feGaussianBlur stdDeviation="2" result="blur" />
      <feMerge>
        <feMergeNode in="blur"/>
        <feMergeNode in="SourceGraphic"/>
      </feMerge>
    </filter>
    <linearGradient id="neonBar" x1="0%" y1="0%" x2="100%" y2="0%">
        <stop offset="0%" stop-color="#111111"/>
        <stop offset="100%" stop-color="#39FF14"/>
    </linearGradient>
  </defs>

  <rect width="100%" height="100%" fill="url(#carbonFiber)" rx="12" stroke="#39FF14" stroke-width="1" stroke-opacity="0.3"/>
  <rect width="100%" height="100%" fill="#000000" opacity="0.6" rx="12" />
  <g><polygon points="751,24 759.6,29 759.6,39 751,44 742.4,39 742.4,29" fill="none" stroke="#39FF14" stroke-width="1" opacity="0.06264879442797733"/>
<polygon points="360,190 368.6,195 368.6,205 360,210 351.4,205 351.4,195" fill="none" stroke="#39FF14" stroke-width="1" opacity="0.07762980863767681"/>
<polygon points="9,-2 17.6,3 17.6,13 9,18 0.40000000000000036,13 0.40000000000000036,3" fill="none" stroke="#39FF14" stroke-width="1" opacity="0.07056733236217765"/>
<polygon points="362,103 370.6,108 370.6,118 362,123 353.4,118 353.4,108" fill="none" stroke="#39FF14" stroke-width="1" opacity="0.04542698061397356"/>
<polygon points="359,92 367.6,97 367.6,107 359,112 350.4,107 350.4,97" fill="none" stroke="#39FF14" stroke-width="1" opacity="0.07186070048131031"/>
<polygon points="358,187 366.6,192 366.6,202 358,207 349.4,202 349.4,192" fill="none" stroke="#39FF14" stroke-width="1" opacity="0.06869790383071916"/>
<polygon points="140,141 148.6,146 148.6,156 140,161 131.4,156 131.4,146" fill="none" stroke="#39FF14" stroke-width="1" opacity="0.049869590750717604"/>
<polygon points="594,183 602.6,188 602.6,198 594,203 585.4,198 585.4,188" fill="none" stroke="#39FF14" stroke-width="1" opacity="0.06032054697493061"/>
<polygon points="95,29 103.6,34 103.6,44 95,49 86.4,44 86.4,34" fill="none" stroke="#39FF14" stroke-width="1" opacity="0.02648028066655511"/>
<polygon points="415,-4 423.6,1 423.6,11 415,16 406.4,11 406.4,1" fill="none" stroke="#39FF14" stroke-width="1" opacity="0.07614028310182472"/>
<polygon points="172,11 180.6,16 180.6,26 172,31 163.4,26 163.4,16" fill="none" stroke="#39FF14" stroke-width="1" opacity="0.020330973836367464"/>
<polygon points="422,164 430.6,169 430.6,179 422,184 413.4,179 413.4,169" fill="none" stroke="#39FF14" stroke-width="1" opacity="0.07041577590192512"/>
<polygon points="800,143 808.6,148 808.6,158 800,163 791.4,158 791.4,148" fill="none" stroke="#39FF14" stroke-width="1" opacity="0.03423583571464305"/>
<polygon points="636,67 644.6,72 644.6,82 636,87 627.4,82 627.4,72" fill="none" stroke="#39FF14" stroke-width="1" opacity="0.06565864907970229"/>
<polygon points="808,38 816.6,43 816.6,53 808,58 799.4,53 799.4,43" fill="none" stroke="#39FF14" stroke-width="1" opacity="0.06988105859136926"/>
<polygon points="166,-8 174.6,-3 174.6,7 166,12 157.4,7 157.4,-3" fill="none" stroke="#39FF14" stroke-width="1" opacity="0.03900604370707755"/>
<polygon points="62,125 70.6,130 70.6,140 62,145 53.4,140 53.4,130" fill="none" stroke="#39FF14" stroke-width="1" opacity="0.05690976688194446"/>
<polygon points="464,3 472.6,8 472.6,18 464,23 455.4,18 455.4,8" fill="none" stroke="#39FF14" stroke-width="1" opacity="0.07441162714486353"/>
<polygon points="842,190 850.6,195 850.6,205 842,210 833.4,205 833.4,195" fill="none" stroke="#39FF14" stroke-width="1" opacity="0.028287005142435397"/>
<polygon points="470,2 478.6,7 478.6,17 470,22 461.4,17 461.4,7" fill="none" stroke="#39FF14" stroke-width="1" opacity="0.03669645452922532"/>
<polygon points="568,184 576.6,189 576.6,199 568,204 559.4,199 559.4,189" fill="none" stroke="#39FF14" stroke-width="1" opacity="0.049369655180838135"/>
<polygon points="318,144 326.6,149 326.6,159 318,164 309.4,159 309.4,149" fill="none" stroke="#39FF14" stroke-width="1" opacity="0.044466075233466615"/>
<polygon points="35,105 43.6,110 43.6,120 35,125 26.4,120 26.4,110" fill="none" stroke="#39FF14" stroke-width="1" opacity="0.06366721418391391"/>
<polygon points="58,140 66.6,145 66.6,155 58,160 49.4,155 49.4,145" fill="none" stroke="#39FF14" stroke-width="1" opacity="0.03863409374115728"/>
<polygon points="100,95 108.6,100 108.6,110 100,115 91.4,110 91.4,100" fill="none" stroke="#39FF14" stroke-width="1" opacity="0.05967734547276585"/>
<polygon points="792,140 800.6,145 800.6,155 792,160 783.4,155 783.4,145" fill="none" stroke="#39FF14" stroke-width="1" opacity="0.07395166628707724"/>
<polygon points="446,-9 454.6,-4 454.6,6 446,11 437.4,6 437.4,-4" fill="none" stroke="#39FF14" stroke-width="1" opacity="0.026213374547944257"/>
<polygon points="722,5 730.6,10 730.6,20 722,25 713.4,20 713.4,10" fill="none" stroke="#39FF14" stroke-width="1" opacity="0.05385885636977486"/>
<polygon points="267,18 275.6,23 275.6,33 267,38 258.4,33 258.4,23" fill="none" stroke="#39FF14" stroke-width="1" opacity="0.04387092668971358"/>
<polygon points="299,4 307.6,9 307.6,19 299,24 290.4,19 290.4,9" fill="none" stroke="#39FF14" stroke-width="1" opacity="0.060025597070348116"/>
</g>

  <!-- HUD Decorative elements -->
  <path d="M 20 20 L 40 20 L 50 30" fill="none" stroke="#39FF14" stroke-width="2" opacity="0.5"/>
  <path d="M 830 180 L 810 180 L 800 170" fill="none" stroke="#39FF14" stroke-width="2" opacity="0.5"/>
  <rect x="20" y="100" width="2" height="40" fill="#ffffff" opacity="0.4"/>
  <rect x="828" y="60" width="2" height="40" fill="#39FF14" opacity="0.6"/>

  <g font-family="'Consolas', 'Fira Code', monospace" text-anchor="middle">

    <!-- SYSTEM STATUS -->
    <g transform="translate(130, 100)">
        <circle cx="0" cy="0" r="45" fill="none" stroke="#111111" stroke-width="8" />
        <circle cx="0" cy="0" r="45" fill="none" stroke="#39FF14" stroke-width="2" stroke-dasharray="10 5">
            <animateTransform attributeName="transform" type="rotate" from="0" to="360" dur="10s" repeatCount="indefinite"/>
        </circle>
        <circle cx="0" cy="0" r="35" fill="#0d0d0d" />
        <circle cx="0" cy="0" r="6" fill="#39FF14" filter="url(#textGlow)">
            <animate attributeName="opacity" values="1;0.3;1" dur="2s" repeatCount="indefinite"/>
        </circle>
        <text x="0" y="-60" font-size="12" fill="#aaaaaa" letter-spacing="2">SYS.CORE</text>
        <text x="0" y="70" font-size="14" fill="#ffffff" font-weight="bold">ONLINE</text>
    </g>

    <!-- LIVE TRAFFIC -->
    <g transform="translate(330, 100)">
        <rect x="-60" y="-45" width="120" height="90" fill="#0a0a0a" rx="8" stroke="#39FF14" stroke-opacity="0.4" stroke-width="1"/>
        <text x="0" y="-20" font-size="12" fill="#aaaaaa">NETWORK LOAD</text>
        <text x="0" y="15" font-size="28" fill="#ffffff" font-weight="bold" filter="url(#textGlow)">4494</text>
        <text x="0" y="35" font-size="10" fill="#777777">ACTIVE SESSIONS</text>
    </g>

    <!-- ACTIVE AGENTS -->
    <g transform="translate(530, 100)">
        <rect x="-60" y="-45" width="120" height="90" fill="#0a0a0a" rx="8" stroke="#39FF14" stroke-opacity="0.4" stroke-width="1"/>
        <text x="0" y="-20" font-size="12" fill="#aaaaaa">SWARM ENTITIES</text>
        <text x="0" y="15" font-size="28" fill="#ffffff" font-weight="bold" filter="url(#textGlow)">180</text>
        <text x="0" y="35" font-size="10" fill="#777777">AUTONOMOUS</text>
    </g>

    <!-- UPTIME -->
    <g transform="translate(730, 100)">
        <path d="M -40 -35 L 40 -35 L 50 -25 L 50 35 L -40 35 L -50 25 Z" fill="#0a0a0a" stroke="#39FF14" stroke-opacity="0.4" stroke-width="1"/>
        <text x="0" y="-15" font-size="12" fill="#aaaaaa">CONTINUITY</text>
        <text x="0" y="15" font-size="24" fill="#ffffff" font-weight="bold">394<tspan font-size="14" fill="#777777">d</tspan></text>
        <rect x="-35" y="25" width="70" height="4" fill="url(#neonBar)" rx="2"/>
    </g>
  </g>

  <text x="425" y="185" font-family="'Consolas', 'Fira Code', monospace" font-size="10" fill="#aaaaaa" opacity="0.6" text-anchor="middle">LAST TELEMETRY PING: 2026-05-12 18:43:25 UTC // ENCRYPTED_TUNNEL</text>
</svg>