<svg width="850" height="200" viewBox="0 0 850 200" xmlns="http://www.w3.org/2000/svg">
  <defs>
    <pattern id="carbonFiber" width="10" height="10" patternUnits="userSpaceOnUse">
        <rect width="10" height="10" fill="#050505"/>
        <path d="M0,0 L5,5 L10,0 L5,-5 Z M5,5 L10,10 L15,5 L10,0 Z M-5,5 L0,10 L5,5 L0,0 Z M0,10 L5,15 L10,10 L5,5 Z" fill="#0d0d0d"/>
    </pattern>
    <filter id="textGlow">
      <feGaussianBlur stdDeviation="2" result="blur" />
      <feMerge>
        <feMergeNode in="blur"/>
        <feMergeNode in="SourceGraphic"/>
      </feMerge>
    </filter>
    <linearGradient id="neonBar" x1="0%" y1="0%" x2="100%" y2="0%">
        <stop offset="0%" stop-color="#111111"/>
        <stop offset="100%" stop-color="#39FF14"/>
    </linearGradient>
    <linearGradient id="scanlineGrad" x1="0%" y1="0%" x2="100%" y2="0%">
        <stop offset="0%" stop-color="#39FF14" stop-opacity="0"/>
        <stop offset="50%" stop-color="#39FF14" stop-opacity="0.18"/>
        <stop offset="100%" stop-color="#39FF14" stop-opacity="0"/>
    </linearGradient>
    <clipPath id="dashClip">
        <rect x="0" y="0" width="850" height="200" rx="12"/>
    </clipPath>
  </defs>

  <rect width="100%" height="100%" fill="url(#carbonFiber)" rx="12" stroke="#39FF14" stroke-width="1" stroke-opacity="0.3"/>
  <rect width="100%" height="100%" fill="#000000" opacity="0.6" rx="12" />
  <g><polygon points="757,86 765.6,91 765.6,101 757,106 748.4,101 748.4,91" fill="none" stroke="#39FF14" stroke-width="1" opacity="0.06908111468877472"/>
<polygon points="123,35 131.6,40 131.6,50 123,55 114.4,50 114.4,40" fill="none" stroke="#39FF14" stroke-width="1" opacity="0.03998944373682148"/>
<polygon points="42,57 50.6,62 50.6,72 42,77 33.4,72 33.4,62" fill="none" stroke="#39FF14" stroke-width="1" opacity="0.04042703761705991"/>
<polygon points="437,108 445.6,113 445.6,123 437,128 428.4,123 428.4,113" fill="none" stroke="#39FF14" stroke-width="1" opacity="0.028102760309986465"/>
<polygon points="278,141 286.6,146 286.6,156 278,161 269.4,156 269.4,146" fill="none" stroke="#39FF14" stroke-width="1" opacity="0.024253239976016482"/>
<polygon points="702,144 710.6,149 710.6,159 702,164 693.4,159 693.4,149" fill="none" stroke="#39FF14" stroke-width="1" opacity="0.06409854659445323"/>
<polygon points="792,61 800.6,66 800.6,76 792,81 783.4,76 783.4,66" fill="none" stroke="#39FF14" stroke-width="1" opacity="0.022044031332307944"/>
<polygon points="110,107 118.6,112 118.6,122 110,127 101.4,122 101.4,112" fill="none" stroke="#39FF14" stroke-width="1" opacity="0.054774885896151926"/>
<polygon points="383,183 391.6,188 391.6,198 383,203 374.4,198 374.4,188" fill="none" stroke="#39FF14" stroke-width="1" opacity="0.043018865750648935"/>
<polygon points="655,36 663.6,41 663.6,51 655,56 646.4,51 646.4,41" fill="none" stroke="#39FF14" stroke-width="1" opacity="0.07685560824040717"/>
<polygon points="423,131 431.6,136 431.6,146 423,151 414.4,146 414.4,136" fill="none" stroke="#39FF14" stroke-width="1" opacity="0.047458290198273675"/>
<polygon points="526,147 534.6,152 534.6,162 526,167 517.4,162 517.4,152" fill="none" stroke="#39FF14" stroke-width="1" opacity="0.0708398500378553"/>
<polygon points="128,106 136.6,111 136.6,121 128,126 119.4,121 119.4,111" fill="none" stroke="#39FF14" stroke-width="1" opacity="0.07689214780197452"/>
<polygon points="541,-10 549.6,-5 549.6,5 541,10 532.4,5 532.4,-5" fill="none" stroke="#39FF14" stroke-width="1" opacity="0.06691685063159059"/>
<polygon points="298,-5 306.6,0 306.6,10 298,15 289.4,10 289.4,0" fill="none" stroke="#39FF14" stroke-width="1" opacity="0.07084655966669572"/>
<polygon points="605,141 613.6,146 613.6,156 605,161 596.4,156 596.4,146" fill="none" stroke="#39FF14" stroke-width="1" opacity="0.07348652860502933"/>
<polygon points="695,51 703.6,56 703.6,66 695,71 686.4,66 686.4,56" fill="none" stroke="#39FF14" stroke-width="1" opacity="0.0718956892499681"/>
<polygon points="469,142 477.6,147 477.6,157 469,162 460.4,157 460.4,147" fill="none" stroke="#39FF14" stroke-width="1" opacity="0.035902405331934756"/>
<polygon points="831,-6 839.6,-1 839.6,9 831,14 822.4,9 822.4,-1" fill="none" stroke="#39FF14" stroke-width="1" opacity="0.051394818297281306"/>
<polygon points="836,166 844.6,171 844.6,181 836,186 827.4,181 827.4,171" fill="none" stroke="#39FF14" stroke-width="1" opacity="0.051131316366177806"/>
<polygon points="260,80 268.6,85 268.6,95 260,100 251.4,95 251.4,85" fill="none" stroke="#39FF14" stroke-width="1" opacity="0.03526320217901895"/>
<polygon points="628,15 636.6,20 636.6,30 628,35 619.4,30 619.4,20" fill="none" stroke="#39FF14" stroke-width="1" opacity="0.05413521086003521"/>
<polygon points="57,1 65.6,6 65.6,16 57,21 48.4,16 48.4,6" fill="none" stroke="#39FF14" stroke-width="1" opacity="0.06692364610821785"/>
<polygon points="636,90 644.6,95 644.6,105 636,110 627.4,105 627.4,95" fill="none" stroke="#39FF14" stroke-width="1" opacity="0.049046151171708005"/>
<polygon points="545,41 553.6,46 553.6,56 545,61 536.4,56 536.4,46" fill="none" stroke="#39FF14" stroke-width="1" opacity="0.07278090678685094"/>
<polygon points="458,165 466.6,170 466.6,180 458,185 449.4,180 449.4,170" fill="none" stroke="#39FF14" stroke-width="1" opacity="0.03775598343111167"/>
<polygon points="259,190 267.6,195 267.6,205 259,210 250.4,205 250.4,195" fill="none" stroke="#39FF14" stroke-width="1" opacity="0.05635807167734545"/>
<polygon points="756,176 764.6,181 764.6,191 756,196 747.4,191 747.4,181" fill="none" stroke="#39FF14" stroke-width="1" opacity="0.07404527836887223"/>
<polygon points="833,42 841.6,47 841.6,57 833,62 824.4,57 824.4,47" fill="none" stroke="#39FF14" stroke-width="1" opacity="0.03270895636418485"/>
<polygon points="314,113 322.6,118 322.6,128 314,133 305.4,128 305.4,118" fill="none" stroke="#39FF14" stroke-width="1" opacity="0.06765162289395084"/>
</g>

  <!-- HUD Decorative elements -->
  <path d="M 20 20 L 40 20 L 50 30" fill="none" stroke="#39FF14" stroke-width="2" opacity="0.5"/>
  <path d="M 830 180 L 810 180 L 800 170" fill="none" stroke="#39FF14" stroke-width="2" opacity="0.5"/>

  <g clip-path="url(#dashClip)">
    <rect x="-160" y="0" width="160" height="200" fill="url(#scanlineGrad)">
      <animateTransform attributeName="transform" type="translate"
                        from="0 0" to="1010 0" dur="6s" repeatCount="indefinite"/>
    </rect>
  </g>

  <g font-family="'Consolas', 'Fira Code', monospace" text-anchor="middle">

    <!-- NETWORK STATUS -->
    <g transform="translate(130, 100)">
        <circle cx="0" cy="0" r="45" fill="none" stroke="#39FF14" stroke-width="2" stroke-dasharray="10 5">
            <animateTransform attributeName="transform" type="rotate" from="0" to="360" dur="10s" repeatCount="indefinite"/>
        </circle>
        <circle cx="0" cy="0" r="35" fill="#0d0d0d" />
        <text x="0" y="-60" font-size="12" fill="#aaaaaa" letter-spacing="2">ROOT.AUTH</text>
        <text x="0" y="70" font-size="14" fill="#ffffff" font-weight="bold">OPERATIONAL</text>
    </g>

    <!-- ACTIVE USERS -->
    <g transform="translate(330, 100)">
        <text x="0" y="-20" font-size="12" fill="#aaaaaa">CITIZENS</text>
        <text x="0" y="15" font-size="28" fill="#ffffff" font-weight="bold" filter="url(#textGlow)">15,150</text>
        <text x="0" y="35" font-size="10" fill="#777777">VERIFIED HUMANS</text>
    </g>

    <!-- REGISTERED AGENTS -->
    <g transform="translate(530, 100)">
        <text x="0" y="-20" font-size="12" fill="#aaaaaa">AGENTS</text>
        <text x="0" y="15" font-size="28" fill="#00d4ff" font-weight="bold" filter="url(#textGlow)">4,443</text>
        <text x="0" y="35" font-size="10" fill="#777777">REGISTERED DIDs</text>
    </g>

    <!-- TRANSACTIONS -->
    <g transform="translate(730, 100)">
        <text x="0" y="-20" font-size="12" fill="#aaaaaa">TRANSFERS</text>
        <text x="0" y="15" font-size="28" fill="#ffffff" font-weight="bold">31,066</text>
        <text x="0" y="35" font-size="10" fill="#777777">M2M SETTLEMENTS</text>
    </g>
  </g>

  <text x="425" y="185" font-family="'Consolas', 'Fira Code', monospace" font-size="10" fill="#aaaaaa" opacity="0.6" text-anchor="middle">AXIOMID PROJECTED TARGETS (ILLUSTRATIVE): 2026-07-08 08:07:43 UTC // SECURE_HANDSHAKE</text>
</svg>