<svg width="850" height="200" viewBox="0 0 850 200" xmlns="http://www.w3.org/2000/svg">
  <defs>
    <pattern id="carbonFiber" width="10" height="10" patternUnits="userSpaceOnUse">
        <rect width="10" height="10" fill="#050505"/>
        <path d="M0,0 L5,5 L10,0 L5,-5 Z M5,5 L10,10 L15,5 L10,0 Z M-5,5 L0,10 L5,5 L0,0 Z M0,10 L5,15 L10,10 L5,5 Z" fill="#0d0d0d"/>
    </pattern>
    <filter id="textGlow">
      <feGaussianBlur stdDeviation="2" result="blur" />
      <feMerge>
        <feMergeNode in="blur"/>
        <feMergeNode in="SourceGraphic"/>
      </feMerge>
    </filter>
    <linearGradient id="neonBar" x1="0%" y1="0%" x2="100%" y2="0%">
        <stop offset="0%" stop-color="#111111"/>
        <stop offset="100%" stop-color="#39FF14"/>
    </linearGradient>
    <linearGradient id="scanlineGrad" x1="0%" y1="0%" x2="100%" y2="0%">
        <stop offset="0%" stop-color="#39FF14" stop-opacity="0"/>
        <stop offset="50%" stop-color="#39FF14" stop-opacity="0.18"/>
        <stop offset="100%" stop-color="#39FF14" stop-opacity="0"/>
    </linearGradient>
    <clipPath id="dashClip">
        <rect x="0" y="0" width="850" height="200" rx="12"/>
    </clipPath>
  </defs>

  <rect width="100%" height="100%" fill="url(#carbonFiber)" rx="12" stroke="#39FF14" stroke-width="1" stroke-opacity="0.3"/>
  <rect width="100%" height="100%" fill="#000000" opacity="0.6" rx="12" />
  <g><polygon points="99,31 107.6,36 107.6,46 99,51 90.4,46 90.4,36" fill="none" stroke="#39FF14" stroke-width="1" opacity="0.03599438266425074"/>
<polygon points="493,23 501.6,28 501.6,38 493,43 484.4,38 484.4,28" fill="none" stroke="#39FF14" stroke-width="1" opacity="0.03081524448927967"/>
<polygon points="30,49 38.6,54 38.6,64 30,69 21.4,64 21.4,54" fill="none" stroke="#39FF14" stroke-width="1" opacity="0.062199618152306346"/>
<polygon points="436,100 444.6,105 444.6,115 436,120 427.4,115 427.4,105" fill="none" stroke="#39FF14" stroke-width="1" opacity="0.07811827646794306"/>
<polygon points="636,132 644.6,137 644.6,147 636,152 627.4,147 627.4,137" fill="none" stroke="#39FF14" stroke-width="1" opacity="0.04298544787473499"/>
<polygon points="631,60 639.6,65 639.6,75 631,80 622.4,75 622.4,65" fill="none" stroke="#39FF14" stroke-width="1" opacity="0.03467015541373294"/>
<polygon points="715,188 723.6,193 723.6,203 715,208 706.4,203 706.4,193" fill="none" stroke="#39FF14" stroke-width="1" opacity="0.053835393055734426"/>
<polygon points="119,156 127.6,161 127.6,171 119,176 110.4,171 110.4,161" fill="none" stroke="#39FF14" stroke-width="1" opacity="0.07483170846897562"/>
<polygon points="589,84 597.6,89 597.6,99 589,104 580.4,99 580.4,89" fill="none" stroke="#39FF14" stroke-width="1" opacity="0.07613241274543342"/>
<polygon points="268,177 276.6,182 276.6,192 268,197 259.4,192 259.4,182" fill="none" stroke="#39FF14" stroke-width="1" opacity="0.0434291788159682"/>
<polygon points="123,100 131.6,105 131.6,115 123,120 114.4,115 114.4,105" fill="none" stroke="#39FF14" stroke-width="1" opacity="0.051177501928006824"/>
<polygon points="723,58 731.6,63 731.6,73 723,78 714.4,73 714.4,63" fill="none" stroke="#39FF14" stroke-width="1" opacity="0.07487464108448864"/>
<polygon points="194,9 202.6,14 202.6,24 194,29 185.4,24 185.4,14" fill="none" stroke="#39FF14" stroke-width="1" opacity="0.0685050983599122"/>
<polygon points="383,146 391.6,151 391.6,161 383,166 374.4,161 374.4,151" fill="none" stroke="#39FF14" stroke-width="1" opacity="0.02700909038810175"/>
<polygon points="484,149 492.6,154 492.6,164 484,169 475.4,164 475.4,154" fill="none" stroke="#39FF14" stroke-width="1" opacity="0.05800031373575375"/>
<polygon points="345,1 353.6,6 353.6,16 345,21 336.4,16 336.4,6" fill="none" stroke="#39FF14" stroke-width="1" opacity="0.07672942315505475"/>
<polygon points="316,22 324.6,27 324.6,37 316,42 307.4,37 307.4,27" fill="none" stroke="#39FF14" stroke-width="1" opacity="0.07496812649566671"/>
<polygon points="621,125 629.6,130 629.6,140 621,145 612.4,140 612.4,130" fill="none" stroke="#39FF14" stroke-width="1" opacity="0.03254681473087741"/>
<polygon points="590,106 598.6,111 598.6,121 590,126 581.4,121 581.4,111" fill="none" stroke="#39FF14" stroke-width="1" opacity="0.023359336363547638"/>
<polygon points="703,8 711.6,13 711.6,23 703,28 694.4,23 694.4,13" fill="none" stroke="#39FF14" stroke-width="1" opacity="0.02633387512014476"/>
<polygon points="413,8 421.6,13 421.6,23 413,28 404.4,23 404.4,13" fill="none" stroke="#39FF14" stroke-width="1" opacity="0.052976181217262996"/>
<polygon points="128,91 136.6,96 136.6,106 128,111 119.4,106 119.4,96" fill="none" stroke="#39FF14" stroke-width="1" opacity="0.0717541127092205"/>
<polygon points="419,153 427.6,158 427.6,168 419,173 410.4,168 410.4,158" fill="none" stroke="#39FF14" stroke-width="1" opacity="0.025168417699226217"/>
<polygon points="265,89 273.6,94 273.6,104 265,109 256.4,104 256.4,94" fill="none" stroke="#39FF14" stroke-width="1" opacity="0.03175299524295201"/>
<polygon points="278,132 286.6,137 286.6,147 278,152 269.4,147 269.4,137" fill="none" stroke="#39FF14" stroke-width="1" opacity="0.0675898918541521"/>
<polygon points="45,184 53.6,189 53.6,199 45,204 36.4,199 36.4,189" fill="none" stroke="#39FF14" stroke-width="1" opacity="0.0276603878107619"/>
<polygon points="506,71 514.6,76 514.6,86 506,91 497.4,86 497.4,76" fill="none" stroke="#39FF14" stroke-width="1" opacity="0.06865722059580985"/>
<polygon points="440,185 448.6,190 448.6,200 440,205 431.4,200 431.4,190" fill="none" stroke="#39FF14" stroke-width="1" opacity="0.029381813149477097"/>
<polygon points="476,175 484.6,180 484.6,190 476,195 467.4,190 467.4,180" fill="none" stroke="#39FF14" stroke-width="1" opacity="0.04273348539927038"/>
<polygon points="408,57 416.6,62 416.6,72 408,77 399.4,72 399.4,62" fill="none" stroke="#39FF14" stroke-width="1" opacity="0.07906111272576591"/>
</g>

  <!-- HUD Decorative elements -->
  <path d="M 20 20 L 40 20 L 50 30" fill="none" stroke="#39FF14" stroke-width="2" opacity="0.5"/>
  <path d="M 830 180 L 810 180 L 800 170" fill="none" stroke="#39FF14" stroke-width="2" opacity="0.5"/>

  <g clip-path="url(#dashClip)">
    <rect x="-160" y="0" width="160" height="200" fill="url(#scanlineGrad)">
      <animateTransform attributeName="transform" type="translate"
                        from="0 0" to="1010 0" dur="6s" repeatCount="indefinite"/>
    </rect>
  </g>

  <g font-family="'Consolas', 'Fira Code', monospace" text-anchor="middle">

    <!-- NETWORK STATUS -->
    <g transform="translate(130, 100)">
        <circle cx="0" cy="0" r="45" fill="none" stroke="#39FF14" stroke-width="2" stroke-dasharray="10 5">
            <animateTransform attributeName="transform" type="rotate" from="0" to="360" dur="10s" repeatCount="indefinite"/>
        </circle>
        <circle cx="0" cy="0" r="35" fill="#0d0d0d" />
        <text x="0" y="-60" font-size="12" fill="#aaaaaa" letter-spacing="2">ROOT.AUTH</text>
        <text x="0" y="70" font-size="14" fill="#ffffff" font-weight="bold">OPERATIONAL</text>
    </g>

    <!-- ACTIVE USERS -->
    <g transform="translate(330, 100)">
        <text x="0" y="-20" font-size="12" fill="#aaaaaa">CITIZENS</text>
        <text x="0" y="15" font-size="28" fill="#ffffff" font-weight="bold" filter="url(#textGlow)">12,600</text>
        <text x="0" y="35" font-size="10" fill="#777777">VERIFIED HUMANS</text>
    </g>

    <!-- REGISTERED AGENTS -->
    <g transform="translate(530, 100)">
        <text x="0" y="-20" font-size="12" fill="#aaaaaa">AGENTS</text>
        <text x="0" y="15" font-size="28" fill="#00d4ff" font-weight="bold" filter="url(#textGlow)">4,352</text>
        <text x="0" y="35" font-size="10" fill="#777777">REGISTERED DIDs</text>
    </g>

    <!-- TRANSACTIONS -->
    <g transform="translate(730, 100)">
        <text x="0" y="-20" font-size="12" fill="#aaaaaa">TRANSFERS</text>
        <text x="0" y="15" font-size="28" fill="#ffffff" font-weight="bold">31,585</text>
        <text x="0" y="35" font-size="10" fill="#777777">M2M SETTLEMENTS</text>
    </g>
  </g>

  <text x="425" y="185" font-family="'Consolas', 'Fira Code', monospace" font-size="10" fill="#aaaaaa" opacity="0.6" text-anchor="middle">AXIOMID PROJECTED TARGETS (ILLUSTRATIVE): 2026-07-22 10:07:46 UTC // SECURE_HANDSHAKE</text>
</svg>