<svg width="850" height="200" viewBox="0 0 850 200" xmlns="http://www.w3.org/2000/svg">
  <defs>
    <pattern id="carbonFiber" width="10" height="10" patternUnits="userSpaceOnUse">
        <rect width="10" height="10" fill="#050505"/>
        <path d="M0,0 L5,5 L10,0 L5,-5 Z M5,5 L10,10 L15,5 L10,0 Z M-5,5 L0,10 L5,5 L0,0 Z M0,10 L5,15 L10,10 L5,5 Z" fill="#0d0d0d"/>
    </pattern>
    <filter id="textGlow">
      <feGaussianBlur stdDeviation="2" result="blur" />
      <feMerge>
        <feMergeNode in="blur"/>
        <feMergeNode in="SourceGraphic"/>
      </feMerge>
    </filter>
    <linearGradient id="neonBar" x1="0%" y1="0%" x2="100%" y2="0%">
        <stop offset="0%" stop-color="#111111"/>
        <stop offset="100%" stop-color="#39FF14"/>
    </linearGradient>
    <linearGradient id="scanlineGrad" x1="0%" y1="0%" x2="100%" y2="0%">
        <stop offset="0%" stop-color="#39FF14" stop-opacity="0"/>
        <stop offset="50%" stop-color="#39FF14" stop-opacity="0.18"/>
        <stop offset="100%" stop-color="#39FF14" stop-opacity="0"/>
    </linearGradient>
    <clipPath id="dashClip">
        <rect x="0" y="0" width="850" height="200" rx="12"/>
    </clipPath>
  </defs>

  <rect width="100%" height="100%" fill="url(#carbonFiber)" rx="12" stroke="#39FF14" stroke-width="1" stroke-opacity="0.3"/>
  <rect width="100%" height="100%" fill="#000000" opacity="0.6" rx="12" />
  <g><polygon points="282,68 290.6,73 290.6,83 282,88 273.4,83 273.4,73" fill="none" stroke="#39FF14" stroke-width="1" opacity="0.024481542969291996"/>
<polygon points="699,124 707.6,129 707.6,139 699,144 690.4,139 690.4,129" fill="none" stroke="#39FF14" stroke-width="1" opacity="0.0584415218874111"/>
<polygon points="303,115 311.6,120 311.6,130 303,135 294.4,130 294.4,120" fill="none" stroke="#39FF14" stroke-width="1" opacity="0.07392162213414198"/>
<polygon points="21,112 29.6,117 29.6,127 21,132 12.4,127 12.4,117" fill="none" stroke="#39FF14" stroke-width="1" opacity="0.050592138333995576"/>
<polygon points="678,129 686.6,134 686.6,144 678,149 669.4,144 669.4,134" fill="none" stroke="#39FF14" stroke-width="1" opacity="0.07251314158813581"/>
<polygon points="73,105 81.6,110 81.6,120 73,125 64.4,120 64.4,110" fill="none" stroke="#39FF14" stroke-width="1" opacity="0.07568713114670647"/>
<polygon points="403,163 411.6,168 411.6,178 403,183 394.4,178 394.4,168" fill="none" stroke="#39FF14" stroke-width="1" opacity="0.033412540862020626"/>
<polygon points="122,92 130.6,97 130.6,107 122,112 113.4,107 113.4,97" fill="none" stroke="#39FF14" stroke-width="1" opacity="0.06511835408763929"/>
<polygon points="694,55 702.6,60 702.6,70 694,75 685.4,70 685.4,60" fill="none" stroke="#39FF14" stroke-width="1" opacity="0.023652078169889793"/>
<polygon points="426,181 434.6,186 434.6,196 426,201 417.4,196 417.4,186" fill="none" stroke="#39FF14" stroke-width="1" opacity="0.05404813087878289"/>
<polygon points="839,173 847.6,178 847.6,188 839,193 830.4,188 830.4,178" fill="none" stroke="#39FF14" stroke-width="1" opacity="0.05624483523993773"/>
<polygon points="91,88 99.6,93 99.6,103 91,108 82.4,103 82.4,93" fill="none" stroke="#39FF14" stroke-width="1" opacity="0.06931820238558047"/>
<polygon points="839,152 847.6,157 847.6,167 839,172 830.4,167 830.4,157" fill="none" stroke="#39FF14" stroke-width="1" opacity="0.07350534008726886"/>
<polygon points="742,168 750.6,173 750.6,183 742,188 733.4,183 733.4,173" fill="none" stroke="#39FF14" stroke-width="1" opacity="0.052156791785092665"/>
<polygon points="76,128 84.6,133 84.6,143 76,148 67.4,143 67.4,133" fill="none" stroke="#39FF14" stroke-width="1" opacity="0.03149088216281311"/>
<polygon points="217,47 225.6,52 225.6,62 217,67 208.4,62 208.4,52" fill="none" stroke="#39FF14" stroke-width="1" opacity="0.06754822244095252"/>
<polygon points="636,-5 644.6,0 644.6,10 636,15 627.4,10 627.4,0" fill="none" stroke="#39FF14" stroke-width="1" opacity="0.02914974504789531"/>
<polygon points="234,97 242.6,102 242.6,112 234,117 225.4,112 225.4,102" fill="none" stroke="#39FF14" stroke-width="1" opacity="0.06475976987066234"/>
<polygon points="9,145 17.6,150 17.6,160 9,165 0.40000000000000036,160 0.40000000000000036,150" fill="none" stroke="#39FF14" stroke-width="1" opacity="0.05279488902642422"/>
<polygon points="307,59 315.6,64 315.6,74 307,79 298.4,74 298.4,64" fill="none" stroke="#39FF14" stroke-width="1" opacity="0.0757391191670089"/>
<polygon points="762,18 770.6,23 770.6,33 762,38 753.4,33 753.4,23" fill="none" stroke="#39FF14" stroke-width="1" opacity="0.038108925438290975"/>
<polygon points="850,20 858.6,25 858.6,35 850,40 841.4,35 841.4,25" fill="none" stroke="#39FF14" stroke-width="1" opacity="0.02604191387842572"/>
<polygon points="781,136 789.6,141 789.6,151 781,156 772.4,151 772.4,141" fill="none" stroke="#39FF14" stroke-width="1" opacity="0.04558306569502436"/>
<polygon points="726,47 734.6,52 734.6,62 726,67 717.4,62 717.4,52" fill="none" stroke="#39FF14" stroke-width="1" opacity="0.023406394039773362"/>
<polygon points="635,51 643.6,56 643.6,66 635,71 626.4,66 626.4,56" fill="none" stroke="#39FF14" stroke-width="1" opacity="0.05176445800214971"/>
<polygon points="385,33 393.6,38 393.6,48 385,53 376.4,48 376.4,38" fill="none" stroke="#39FF14" stroke-width="1" opacity="0.03400951604694993"/>
<polygon points="208,57 216.6,62 216.6,72 208,77 199.4,72 199.4,62" fill="none" stroke="#39FF14" stroke-width="1" opacity="0.04845833564830103"/>
<polygon points="841,135 849.6,140 849.6,150 841,155 832.4,150 832.4,140" fill="none" stroke="#39FF14" stroke-width="1" opacity="0.05855769324791395"/>
<polygon points="145,97 153.6,102 153.6,112 145,117 136.4,112 136.4,102" fill="none" stroke="#39FF14" stroke-width="1" opacity="0.0731380051610736"/>
<polygon points="738,72 746.6,77 746.6,87 738,92 729.4,87 729.4,77" fill="none" stroke="#39FF14" stroke-width="1" opacity="0.042574813426919864"/>
</g>

  <!-- HUD Decorative elements -->
  <path d="M 20 20 L 40 20 L 50 30" fill="none" stroke="#39FF14" stroke-width="2" opacity="0.5"/>
  <path d="M 830 180 L 810 180 L 800 170" fill="none" stroke="#39FF14" stroke-width="2" opacity="0.5"/>

  <g clip-path="url(#dashClip)">
    <rect x="-160" y="0" width="160" height="200" fill="url(#scanlineGrad)">
      <animateTransform attributeName="transform" type="translate"
                        from="0 0" to="1010 0" dur="6s" repeatCount="indefinite"/>
    </rect>
  </g>

  <g font-family="'Consolas', 'Fira Code', monospace" text-anchor="middle">

    <!-- NETWORK STATUS -->
    <g transform="translate(130, 100)">
        <circle cx="0" cy="0" r="45" fill="none" stroke="#39FF14" stroke-width="2" stroke-dasharray="10 5">
            <animateTransform attributeName="transform" type="rotate" from="0" to="360" dur="10s" repeatCount="indefinite"/>
        </circle>
        <circle cx="0" cy="0" r="35" fill="#0d0d0d" />
        <text x="0" y="-60" font-size="12" fill="#aaaaaa" letter-spacing="2">ROOT.AUTH</text>
        <text x="0" y="70" font-size="14" fill="#ffffff" font-weight="bold">OPERATIONAL</text>
    </g>

    <!-- ACTIVE USERS -->
    <g transform="translate(330, 100)">
        <text x="0" y="-20" font-size="12" fill="#aaaaaa">CITIZENS</text>
        <text x="0" y="15" font-size="28" fill="#ffffff" font-weight="bold" filter="url(#textGlow)">12,795</text>
        <text x="0" y="35" font-size="10" fill="#777777">VERIFIED HUMANS</text>
    </g>

    <!-- REGISTERED AGENTS -->
    <g transform="translate(530, 100)">
        <text x="0" y="-20" font-size="12" fill="#aaaaaa">AGENTS</text>
        <text x="0" y="15" font-size="28" fill="#00d4ff" font-weight="bold" filter="url(#textGlow)">3,131</text>
        <text x="0" y="35" font-size="10" fill="#777777">REGISTERED DIDs</text>
    </g>

    <!-- TRANSACTIONS -->
    <g transform="translate(730, 100)">
        <text x="0" y="-20" font-size="12" fill="#aaaaaa">TRANSFERS</text>
        <text x="0" y="15" font-size="28" fill="#ffffff" font-weight="bold">37,203</text>
        <text x="0" y="35" font-size="10" fill="#777777">M2M SETTLEMENTS</text>
    </g>
  </g>

  <text x="425" y="185" font-family="'Consolas', 'Fira Code', monospace" font-size="10" fill="#aaaaaa" opacity="0.6" text-anchor="middle">AXIOMID PROJECTED TARGETS (ILLUSTRATIVE): 2026-06-22 16:32:31 UTC // SECURE_HANDSHAKE</text>
</svg>