<svg width="850" height="200" viewBox="0 0 850 200" xmlns="http://www.w3.org/2000/svg">
  <defs>
    <pattern id="carbonFiber" width="10" height="10" patternUnits="userSpaceOnUse">
        <rect width="10" height="10" fill="#050505"/>
        <path d="M0,0 L5,5 L10,0 L5,-5 Z M5,5 L10,10 L15,5 L10,0 Z M-5,5 L0,10 L5,5 L0,0 Z M0,10 L5,15 L10,10 L5,5 Z" fill="#0d0d0d"/>
    </pattern>
    <filter id="textGlow">
      <feGaussianBlur stdDeviation="2" result="blur" />
      <feMerge>
        <feMergeNode in="blur"/>
        <feMergeNode in="SourceGraphic"/>
      </feMerge>
    </filter>
    <linearGradient id="neonBar" x1="0%" y1="0%" x2="100%" y2="0%">
        <stop offset="0%" stop-color="#111111"/>
        <stop offset="100%" stop-color="#39FF14"/>
    </linearGradient>
    <linearGradient id="scanlineGrad" x1="0%" y1="0%" x2="100%" y2="0%">
        <stop offset="0%" stop-color="#39FF14" stop-opacity="0"/>
        <stop offset="50%" stop-color="#39FF14" stop-opacity="0.18"/>
        <stop offset="100%" stop-color="#39FF14" stop-opacity="0"/>
    </linearGradient>
    <clipPath id="dashClip">
        <rect x="0" y="0" width="850" height="200" rx="12"/>
    </clipPath>
  </defs>

  <rect width="100%" height="100%" fill="url(#carbonFiber)" rx="12" stroke="#39FF14" stroke-width="1" stroke-opacity="0.3"/>
  <rect width="100%" height="100%" fill="#000000" opacity="0.6" rx="12" />
  <g><polygon points="511,180 519.6,185 519.6,195 511,200 502.4,195 502.4,185" fill="none" stroke="#39FF14" stroke-width="1" opacity="0.07374450299767209"/>
<polygon points="255,135 263.6,140 263.6,150 255,155 246.4,150 246.4,140" fill="none" stroke="#39FF14" stroke-width="1" opacity="0.02285078757448417"/>
<polygon points="421,73 429.6,78 429.6,88 421,93 412.4,88 412.4,78" fill="none" stroke="#39FF14" stroke-width="1" opacity="0.06920211769411587"/>
<polygon points="822,141 830.6,146 830.6,156 822,161 813.4,156 813.4,146" fill="none" stroke="#39FF14" stroke-width="1" opacity="0.05115612435399822"/>
<polygon points="597,52 605.6,57 605.6,67 597,72 588.4,67 588.4,57" fill="none" stroke="#39FF14" stroke-width="1" opacity="0.03164120209998584"/>
<polygon points="307,117 315.6,122 315.6,132 307,137 298.4,132 298.4,122" fill="none" stroke="#39FF14" stroke-width="1" opacity="0.03692037132175596"/>
<polygon points="449,121 457.6,126 457.6,136 449,141 440.4,136 440.4,126" fill="none" stroke="#39FF14" stroke-width="1" opacity="0.0634137023095455"/>
<polygon points="646,127 654.6,132 654.6,142 646,147 637.4,142 637.4,132" fill="none" stroke="#39FF14" stroke-width="1" opacity="0.052305489949549436"/>
<polygon points="314,168 322.6,173 322.6,183 314,188 305.4,183 305.4,173" fill="none" stroke="#39FF14" stroke-width="1" opacity="0.061492571019242784"/>
<polygon points="42,169 50.6,174 50.6,184 42,189 33.4,184 33.4,174" fill="none" stroke="#39FF14" stroke-width="1" opacity="0.06983883090386893"/>
<polygon points="753,66 761.6,71 761.6,81 753,86 744.4,81 744.4,71" fill="none" stroke="#39FF14" stroke-width="1" opacity="0.058231610777487744"/>
<polygon points="385,93 393.6,98 393.6,108 385,113 376.4,108 376.4,98" fill="none" stroke="#39FF14" stroke-width="1" opacity="0.0585590100348513"/>
<polygon points="840,3 848.6,8 848.6,18 840,23 831.4,18 831.4,8" fill="none" stroke="#39FF14" stroke-width="1" opacity="0.03260568257603597"/>
<polygon points="603,103 611.6,108 611.6,118 603,123 594.4,118 594.4,108" fill="none" stroke="#39FF14" stroke-width="1" opacity="0.06894366873333836"/>
<polygon points="584,111 592.6,116 592.6,126 584,131 575.4,126 575.4,116" fill="none" stroke="#39FF14" stroke-width="1" opacity="0.043775562562469415"/>
<polygon points="366,17 374.6,22 374.6,32 366,37 357.4,32 357.4,22" fill="none" stroke="#39FF14" stroke-width="1" opacity="0.020004625959898787"/>
<polygon points="326,30 334.6,35 334.6,45 326,50 317.4,45 317.4,35" fill="none" stroke="#39FF14" stroke-width="1" opacity="0.026580862368587428"/>
<polygon points="308,119 316.6,124 316.6,134 308,139 299.4,134 299.4,124" fill="none" stroke="#39FF14" stroke-width="1" opacity="0.07794259746167148"/>
<polygon points="460,42 468.6,47 468.6,57 460,62 451.4,57 451.4,47" fill="none" stroke="#39FF14" stroke-width="1" opacity="0.043988983729979864"/>
<polygon points="390,145 398.6,150 398.6,160 390,165 381.4,160 381.4,150" fill="none" stroke="#39FF14" stroke-width="1" opacity="0.03156405345976375"/>
<polygon points="661,75 669.6,80 669.6,90 661,95 652.4,90 652.4,80" fill="none" stroke="#39FF14" stroke-width="1" opacity="0.04350035199180877"/>
<polygon points="370,86 378.6,91 378.6,101 370,106 361.4,101 361.4,91" fill="none" stroke="#39FF14" stroke-width="1" opacity="0.020096032304868703"/>
<polygon points="585,107 593.6,112 593.6,122 585,127 576.4,122 576.4,112" fill="none" stroke="#39FF14" stroke-width="1" opacity="0.04899302507301238"/>
<polygon points="99,23 107.6,28 107.6,38 99,43 90.4,38 90.4,28" fill="none" stroke="#39FF14" stroke-width="1" opacity="0.02036124445062158"/>
<polygon points="535,36 543.6,41 543.6,51 535,56 526.4,51 526.4,41" fill="none" stroke="#39FF14" stroke-width="1" opacity="0.07491128348257528"/>
<polygon points="221,121 229.6,126 229.6,136 221,141 212.4,136 212.4,126" fill="none" stroke="#39FF14" stroke-width="1" opacity="0.04359866440303353"/>
<polygon points="316,82 324.6,87 324.6,97 316,102 307.4,97 307.4,87" fill="none" stroke="#39FF14" stroke-width="1" opacity="0.02601943085743506"/>
<polygon points="349,21 357.6,26 357.6,36 349,41 340.4,36 340.4,26" fill="none" stroke="#39FF14" stroke-width="1" opacity="0.02813216107497844"/>
<polygon points="564,1 572.6,6 572.6,16 564,21 555.4,16 555.4,6" fill="none" stroke="#39FF14" stroke-width="1" opacity="0.026100292568297382"/>
<polygon points="438,29 446.6,34 446.6,44 438,49 429.4,44 429.4,34" fill="none" stroke="#39FF14" stroke-width="1" opacity="0.07482998451375959"/>
</g>

  <!-- HUD Decorative elements -->
  <path d="M 20 20 L 40 20 L 50 30" fill="none" stroke="#39FF14" stroke-width="2" opacity="0.5"/>
  <path d="M 830 180 L 810 180 L 800 170" fill="none" stroke="#39FF14" stroke-width="2" opacity="0.5"/>

  <g clip-path="url(#dashClip)">
    <rect x="-160" y="0" width="160" height="200" fill="url(#scanlineGrad)">
      <animateTransform attributeName="transform" type="translate"
                        from="0 0" to="1010 0" dur="6s" repeatCount="indefinite"/>
    </rect>
  </g>

  <g font-family="'Consolas', 'Fira Code', monospace" text-anchor="middle">

    <!-- NETWORK STATUS -->
    <g transform="translate(130, 100)">
        <circle cx="0" cy="0" r="45" fill="none" stroke="#39FF14" stroke-width="2" stroke-dasharray="10 5">
            <animateTransform attributeName="transform" type="rotate" from="0" to="360" dur="10s" repeatCount="indefinite"/>
        </circle>
        <circle cx="0" cy="0" r="35" fill="#0d0d0d" />
        <text x="0" y="-60" font-size="12" fill="#aaaaaa" letter-spacing="2">ROOT.AUTH</text>
        <text x="0" y="70" font-size="14" fill="#ffffff" font-weight="bold">OPERATIONAL</text>
    </g>

    <!-- ACTIVE USERS -->
    <g transform="translate(330, 100)">
        <text x="0" y="-20" font-size="12" fill="#aaaaaa">CITIZENS</text>
        <text x="0" y="15" font-size="28" fill="#ffffff" font-weight="bold" filter="url(#textGlow)">15,370</text>
        <text x="0" y="35" font-size="10" fill="#777777">VERIFIED HUMANS</text>
    </g>

    <!-- REGISTERED AGENTS -->
    <g transform="translate(530, 100)">
        <text x="0" y="-20" font-size="12" fill="#aaaaaa">AGENTS</text>
        <text x="0" y="15" font-size="28" fill="#00d4ff" font-weight="bold" filter="url(#textGlow)">3,747</text>
        <text x="0" y="35" font-size="10" fill="#777777">REGISTERED DIDs</text>
    </g>

    <!-- TRANSACTIONS -->
    <g transform="translate(730, 100)">
        <text x="0" y="-20" font-size="12" fill="#aaaaaa">TRANSFERS</text>
        <text x="0" y="15" font-size="28" fill="#ffffff" font-weight="bold">35,568</text>
        <text x="0" y="35" font-size="10" fill="#777777">M2M SETTLEMENTS</text>
    </g>
  </g>

  <text x="425" y="185" font-family="'Consolas', 'Fira Code', monospace" font-size="10" fill="#aaaaaa" opacity="0.6" text-anchor="middle">AXIOMID PROJECTED TARGETS (ILLUSTRATIVE): 2026-07-14 01:27:14 UTC // SECURE_HANDSHAKE</text>
</svg>