<svg width="850" height="200" viewBox="0 0 850 200" xmlns="http://www.w3.org/2000/svg">
  <defs>
    <pattern id="carbonFiber" width="10" height="10" patternUnits="userSpaceOnUse">
        <rect width="10" height="10" fill="#050505"/>
        <path d="M0,0 L5,5 L10,0 L5,-5 Z M5,5 L10,10 L15,5 L10,0 Z M-5,5 L0,10 L5,5 L0,0 Z M0,10 L5,15 L10,10 L5,5 Z" fill="#0d0d0d"/>
    </pattern>
    <filter id="textGlow">
      <feGaussianBlur stdDeviation="2" result="blur" />
      <feMerge>
        <feMergeNode in="blur"/>
        <feMergeNode in="SourceGraphic"/>
      </feMerge>
    </filter>
    <linearGradient id="neonBar" x1="0%" y1="0%" x2="100%" y2="0%">
        <stop offset="0%" stop-color="#111111"/>
        <stop offset="100%" stop-color="#39FF14"/>
    </linearGradient>
    <linearGradient id="scanlineGrad" x1="0%" y1="0%" x2="100%" y2="0%">
        <stop offset="0%" stop-color="#39FF14" stop-opacity="0"/>
        <stop offset="50%" stop-color="#39FF14" stop-opacity="0.18"/>
        <stop offset="100%" stop-color="#39FF14" stop-opacity="0"/>
    </linearGradient>
    <clipPath id="dashClip">
        <rect x="0" y="0" width="850" height="200" rx="12"/>
    </clipPath>
  </defs>

  <rect width="100%" height="100%" fill="url(#carbonFiber)" rx="12" stroke="#39FF14" stroke-width="1" stroke-opacity="0.3"/>
  <rect width="100%" height="100%" fill="#000000" opacity="0.6" rx="12" />
  <g><polygon points="675,116 683.6,121 683.6,131 675,136 666.4,131 666.4,121" fill="none" stroke="#39FF14" stroke-width="1" opacity="0.05181704155114569"/>
<polygon points="407,37 415.6,42 415.6,52 407,57 398.4,52 398.4,42" fill="none" stroke="#39FF14" stroke-width="1" opacity="0.06788464908040459"/>
<polygon points="684,112 692.6,117 692.6,127 684,132 675.4,127 675.4,117" fill="none" stroke="#39FF14" stroke-width="1" opacity="0.03945087085952996"/>
<polygon points="173,67 181.6,72 181.6,82 173,87 164.4,82 164.4,72" fill="none" stroke="#39FF14" stroke-width="1" opacity="0.042574229709906854"/>
<polygon points="361,172 369.6,177 369.6,187 361,192 352.4,187 352.4,177" fill="none" stroke="#39FF14" stroke-width="1" opacity="0.02953501174250235"/>
<polygon points="665,-9 673.6,-4 673.6,6 665,11 656.4,6 656.4,-4" fill="none" stroke="#39FF14" stroke-width="1" opacity="0.07609524406568884"/>
<polygon points="630,88 638.6,93 638.6,103 630,108 621.4,103 621.4,93" fill="none" stroke="#39FF14" stroke-width="1" opacity="0.045314247095813096"/>
<polygon points="673,87 681.6,92 681.6,102 673,107 664.4,102 664.4,92" fill="none" stroke="#39FF14" stroke-width="1" opacity="0.06535675302388912"/>
<polygon points="758,139 766.6,144 766.6,154 758,159 749.4,154 749.4,144" fill="none" stroke="#39FF14" stroke-width="1" opacity="0.05388203521297932"/>
<polygon points="259,125 267.6,130 267.6,140 259,145 250.4,140 250.4,130" fill="none" stroke="#39FF14" stroke-width="1" opacity="0.026554669267253708"/>
<polygon points="797,85 805.6,90 805.6,100 797,105 788.4,100 788.4,90" fill="none" stroke="#39FF14" stroke-width="1" opacity="0.07270121259191385"/>
<polygon points="487,35 495.6,40 495.6,50 487,55 478.4,50 478.4,40" fill="none" stroke="#39FF14" stroke-width="1" opacity="0.024911784235384926"/>
<polygon points="362,20 370.6,25 370.6,35 362,40 353.4,35 353.4,25" fill="none" stroke="#39FF14" stroke-width="1" opacity="0.07316109960191138"/>
<polygon points="421,97 429.6,102 429.6,112 421,117 412.4,112 412.4,102" fill="none" stroke="#39FF14" stroke-width="1" opacity="0.07621197742490653"/>
<polygon points="747,49 755.6,54 755.6,64 747,69 738.4,64 738.4,54" fill="none" stroke="#39FF14" stroke-width="1" opacity="0.06570166528053081"/>
<polygon points="164,181 172.6,186 172.6,196 164,201 155.4,196 155.4,186" fill="none" stroke="#39FF14" stroke-width="1" opacity="0.035586765231088426"/>
<polygon points="600,29 608.6,34 608.6,44 600,49 591.4,44 591.4,34" fill="none" stroke="#39FF14" stroke-width="1" opacity="0.021483520179817698"/>
<polygon points="209,108 217.6,113 217.6,123 209,128 200.4,123 200.4,113" fill="none" stroke="#39FF14" stroke-width="1" opacity="0.06808869176840945"/>
<polygon points="707,61 715.6,66 715.6,76 707,81 698.4,76 698.4,66" fill="none" stroke="#39FF14" stroke-width="1" opacity="0.04745097407382932"/>
<polygon points="696,151 704.6,156 704.6,166 696,171 687.4,166 687.4,156" fill="none" stroke="#39FF14" stroke-width="1" opacity="0.03902394220478633"/>
<polygon points="784,-2 792.6,3 792.6,13 784,18 775.4,13 775.4,3" fill="none" stroke="#39FF14" stroke-width="1" opacity="0.021942190171000825"/>
<polygon points="356,85 364.6,90 364.6,100 356,105 347.4,100 347.4,90" fill="none" stroke="#39FF14" stroke-width="1" opacity="0.04130233340694835"/>
<polygon points="162,86 170.6,91 170.6,101 162,106 153.4,101 153.4,91" fill="none" stroke="#39FF14" stroke-width="1" opacity="0.0658061790599837"/>
<polygon points="560,120 568.6,125 568.6,135 560,140 551.4,135 551.4,125" fill="none" stroke="#39FF14" stroke-width="1" opacity="0.05701802735940556"/>
<polygon points="341,85 349.6,90 349.6,100 341,105 332.4,100 332.4,90" fill="none" stroke="#39FF14" stroke-width="1" opacity="0.06639226106608478"/>
<polygon points="75,125 83.6,130 83.6,140 75,145 66.4,140 66.4,130" fill="none" stroke="#39FF14" stroke-width="1" opacity="0.0377029805678544"/>
<polygon points="224,176 232.6,181 232.6,191 224,196 215.4,191 215.4,181" fill="none" stroke="#39FF14" stroke-width="1" opacity="0.025616078955757193"/>
<polygon points="805,168 813.6,173 813.6,183 805,188 796.4,183 796.4,173" fill="none" stroke="#39FF14" stroke-width="1" opacity="0.06478147984621968"/>
<polygon points="396,129 404.6,134 404.6,144 396,149 387.4,144 387.4,134" fill="none" stroke="#39FF14" stroke-width="1" opacity="0.04239339605209494"/>
<polygon points="423,91 431.6,96 431.6,106 423,111 414.4,106 414.4,96" fill="none" stroke="#39FF14" stroke-width="1" opacity="0.07892787271727496"/>
</g>

  <!-- HUD Decorative elements -->
  <path d="M 20 20 L 40 20 L 50 30" fill="none" stroke="#39FF14" stroke-width="2" opacity="0.5"/>
  <path d="M 830 180 L 810 180 L 800 170" fill="none" stroke="#39FF14" stroke-width="2" opacity="0.5"/>

  <g clip-path="url(#dashClip)">
    <rect x="-160" y="0" width="160" height="200" fill="url(#scanlineGrad)">
      <animateTransform attributeName="transform" type="translate"
                        from="0 0" to="1010 0" dur="6s" repeatCount="indefinite"/>
    </rect>
  </g>

  <g font-family="'Consolas', 'Fira Code', monospace" text-anchor="middle">

    <!-- NETWORK STATUS -->
    <g transform="translate(130, 100)">
        <circle cx="0" cy="0" r="45" fill="none" stroke="#39FF14" stroke-width="2" stroke-dasharray="10 5">
            <animateTransform attributeName="transform" type="rotate" from="0" to="360" dur="10s" repeatCount="indefinite"/>
        </circle>
        <circle cx="0" cy="0" r="35" fill="#0d0d0d" />
        <text x="0" y="-60" font-size="12" fill="#aaaaaa" letter-spacing="2">ROOT.AUTH</text>
        <text x="0" y="70" font-size="14" fill="#ffffff" font-weight="bold">OPERATIONAL</text>
    </g>

    <!-- ACTIVE USERS -->
    <g transform="translate(330, 100)">
        <text x="0" y="-20" font-size="12" fill="#aaaaaa">CITIZENS</text>
        <text x="0" y="15" font-size="28" fill="#ffffff" font-weight="bold" filter="url(#textGlow)">13,341</text>
        <text x="0" y="35" font-size="10" fill="#777777">VERIFIED HUMANS</text>
    </g>

    <!-- REGISTERED AGENTS -->
    <g transform="translate(530, 100)">
        <text x="0" y="-20" font-size="12" fill="#aaaaaa">AGENTS</text>
        <text x="0" y="15" font-size="28" fill="#00d4ff" font-weight="bold" filter="url(#textGlow)">4,107</text>
        <text x="0" y="35" font-size="10" fill="#777777">REGISTERED DIDs</text>
    </g>

    <!-- TRANSACTIONS -->
    <g transform="translate(730, 100)">
        <text x="0" y="-20" font-size="12" fill="#aaaaaa">TRANSFERS</text>
        <text x="0" y="15" font-size="28" fill="#ffffff" font-weight="bold">41,024</text>
        <text x="0" y="35" font-size="10" fill="#777777">M2M SETTLEMENTS</text>
    </g>
  </g>

  <text x="425" y="185" font-family="'Consolas', 'Fira Code', monospace" font-size="10" fill="#aaaaaa" opacity="0.6" text-anchor="middle">AXIOMID PROJECTED TARGETS (ILLUSTRATIVE): 2026-06-19 15:59:42 UTC // SECURE_HANDSHAKE</text>
</svg>