<svg width="850" height="200" viewBox="0 0 850 200" xmlns="http://www.w3.org/2000/svg">
  <defs>
    <pattern id="carbonFiber" width="10" height="10" patternUnits="userSpaceOnUse">
        <rect width="10" height="10" fill="#050505"/>
        <path d="M0,0 L5,5 L10,0 L5,-5 Z M5,5 L10,10 L15,5 L10,0 Z M-5,5 L0,10 L5,5 L0,0 Z M0,10 L5,15 L10,10 L5,5 Z" fill="#0d0d0d"/>
    </pattern>
    <filter id="textGlow">
      <feGaussianBlur stdDeviation="2" result="blur" />
      <feMerge>
        <feMergeNode in="blur"/>
        <feMergeNode in="SourceGraphic"/>
      </feMerge>
    </filter>
    <linearGradient id="neonBar" x1="0%" y1="0%" x2="100%" y2="0%">
        <stop offset="0%" stop-color="#111111"/>
        <stop offset="100%" stop-color="#39FF14"/>
    </linearGradient>
    <linearGradient id="scanlineGrad" x1="0%" y1="0%" x2="100%" y2="0%">
        <stop offset="0%" stop-color="#39FF14" stop-opacity="0"/>
        <stop offset="50%" stop-color="#39FF14" stop-opacity="0.18"/>
        <stop offset="100%" stop-color="#39FF14" stop-opacity="0"/>
    </linearGradient>
    <clipPath id="dashClip">
        <rect x="0" y="0" width="850" height="200" rx="12"/>
    </clipPath>
  </defs>

  <rect width="100%" height="100%" fill="url(#carbonFiber)" rx="12" stroke="#39FF14" stroke-width="1" stroke-opacity="0.3"/>
  <rect width="100%" height="100%" fill="#000000" opacity="0.6" rx="12" />
  <g><polygon points="339,180 347.6,185 347.6,195 339,200 330.4,195 330.4,185" fill="none" stroke="#39FF14" stroke-width="1" opacity="0.07810561631289038"/>
<polygon points="248,40 256.6,45 256.6,55 248,60 239.4,55 239.4,45" fill="none" stroke="#39FF14" stroke-width="1" opacity="0.052363465334772805"/>
<polygon points="379,177 387.6,182 387.6,192 379,197 370.4,192 370.4,182" fill="none" stroke="#39FF14" stroke-width="1" opacity="0.06749749045802922"/>
<polygon points="375,40 383.6,45 383.6,55 375,60 366.4,55 366.4,45" fill="none" stroke="#39FF14" stroke-width="1" opacity="0.06075119851298391"/>
<polygon points="343,61 351.6,66 351.6,76 343,81 334.4,76 334.4,66" fill="none" stroke="#39FF14" stroke-width="1" opacity="0.04321909014008936"/>
<polygon points="358,43 366.6,48 366.6,58 358,63 349.4,58 349.4,48" fill="none" stroke="#39FF14" stroke-width="1" opacity="0.05120512766687522"/>
<polygon points="357,168 365.6,173 365.6,183 357,188 348.4,183 348.4,173" fill="none" stroke="#39FF14" stroke-width="1" opacity="0.06745023511277007"/>
<polygon points="617,54 625.6,59 625.6,69 617,74 608.4,69 608.4,59" fill="none" stroke="#39FF14" stroke-width="1" opacity="0.022668510528944145"/>
<polygon points="55,154 63.6,159 63.6,169 55,174 46.4,169 46.4,159" fill="none" stroke="#39FF14" stroke-width="1" opacity="0.03422500421828764"/>
<polygon points="247,148 255.6,153 255.6,163 247,168 238.4,163 238.4,153" fill="none" stroke="#39FF14" stroke-width="1" opacity="0.06947541591291674"/>
<polygon points="337,86 345.6,91 345.6,101 337,106 328.4,101 328.4,91" fill="none" stroke="#39FF14" stroke-width="1" opacity="0.03017616960617852"/>
<polygon points="375,95 383.6,100 383.6,110 375,115 366.4,110 366.4,100" fill="none" stroke="#39FF14" stroke-width="1" opacity="0.034879181957384126"/>
<polygon points="306,-10 314.6,-5 314.6,5 306,10 297.4,5 297.4,-5" fill="none" stroke="#39FF14" stroke-width="1" opacity="0.02057855338482107"/>
<polygon points="260,41 268.6,46 268.6,56 260,61 251.4,56 251.4,46" fill="none" stroke="#39FF14" stroke-width="1" opacity="0.04278905444330042"/>
<polygon points="433,56 441.6,61 441.6,71 433,76 424.4,71 424.4,61" fill="none" stroke="#39FF14" stroke-width="1" opacity="0.058247263867980764"/>
<polygon points="29,33 37.6,38 37.6,48 29,53 20.4,48 20.4,38" fill="none" stroke="#39FF14" stroke-width="1" opacity="0.04996678728727148"/>
<polygon points="613,92 621.6,97 621.6,107 613,112 604.4,107 604.4,97" fill="none" stroke="#39FF14" stroke-width="1" opacity="0.07049454590248111"/>
<polygon points="263,183 271.6,188 271.6,198 263,203 254.4,198 254.4,188" fill="none" stroke="#39FF14" stroke-width="1" opacity="0.020631331553725617"/>
<polygon points="429,81 437.6,86 437.6,96 429,101 420.4,96 420.4,86" fill="none" stroke="#39FF14" stroke-width="1" opacity="0.03383995568410866"/>
<polygon points="288,38 296.6,43 296.6,53 288,58 279.4,53 279.4,43" fill="none" stroke="#39FF14" stroke-width="1" opacity="0.0384218675248532"/>
<polygon points="14,42 22.6,47 22.6,57 14,62 5.4,57 5.4,47" fill="none" stroke="#39FF14" stroke-width="1" opacity="0.06550138696358625"/>
<polygon points="350,177 358.6,182 358.6,192 350,197 341.4,192 341.4,182" fill="none" stroke="#39FF14" stroke-width="1" opacity="0.04243204105459363"/>
<polygon points="356,58 364.6,63 364.6,73 356,78 347.4,73 347.4,63" fill="none" stroke="#39FF14" stroke-width="1" opacity="0.035921585594553704"/>
<polygon points="144,78 152.6,83 152.6,93 144,98 135.4,93 135.4,83" fill="none" stroke="#39FF14" stroke-width="1" opacity="0.06287031896188536"/>
<polygon points="304,123 312.6,128 312.6,138 304,143 295.4,138 295.4,128" fill="none" stroke="#39FF14" stroke-width="1" opacity="0.0771989885103696"/>
<polygon points="125,19 133.6,24 133.6,34 125,39 116.4,34 116.4,24" fill="none" stroke="#39FF14" stroke-width="1" opacity="0.055183817978266894"/>
<polygon points="135,111 143.6,116 143.6,126 135,131 126.4,126 126.4,116" fill="none" stroke="#39FF14" stroke-width="1" opacity="0.06321578231121636"/>
<polygon points="600,165 608.6,170 608.6,180 600,185 591.4,180 591.4,170" fill="none" stroke="#39FF14" stroke-width="1" opacity="0.025569168988823034"/>
<polygon points="517,52 525.6,57 525.6,67 517,72 508.4,67 508.4,57" fill="none" stroke="#39FF14" stroke-width="1" opacity="0.021292218419676337"/>
<polygon points="31,6 39.6,11 39.6,21 31,26 22.4,21 22.4,11" fill="none" stroke="#39FF14" stroke-width="1" opacity="0.025213128956406212"/>
</g>

  <!-- HUD Decorative elements -->
  <path d="M 20 20 L 40 20 L 50 30" fill="none" stroke="#39FF14" stroke-width="2" opacity="0.5"/>
  <path d="M 830 180 L 810 180 L 800 170" fill="none" stroke="#39FF14" stroke-width="2" opacity="0.5"/>

  <g clip-path="url(#dashClip)">
    <rect x="-160" y="0" width="160" height="200" fill="url(#scanlineGrad)">
      <animateTransform attributeName="transform" type="translate"
                        from="0 0" to="1010 0" dur="6s" repeatCount="indefinite"/>
    </rect>
  </g>

  <g font-family="'Consolas', 'Fira Code', monospace" text-anchor="middle">

    <!-- NETWORK STATUS -->
    <g transform="translate(130, 100)">
        <circle cx="0" cy="0" r="45" fill="none" stroke="#39FF14" stroke-width="2" stroke-dasharray="10 5">
            <animateTransform attributeName="transform" type="rotate" from="0" to="360" dur="10s" repeatCount="indefinite"/>
        </circle>
        <circle cx="0" cy="0" r="35" fill="#0d0d0d" />
        <text x="0" y="-60" font-size="12" fill="#aaaaaa" letter-spacing="2">ROOT.AUTH</text>
        <text x="0" y="70" font-size="14" fill="#ffffff" font-weight="bold">OPERATIONAL</text>
    </g>

    <!-- ACTIVE USERS -->
    <g transform="translate(330, 100)">
        <text x="0" y="-20" font-size="12" fill="#aaaaaa">CITIZENS</text>
        <text x="0" y="15" font-size="28" fill="#ffffff" font-weight="bold" filter="url(#textGlow)">13,359</text>
        <text x="0" y="35" font-size="10" fill="#777777">VERIFIED HUMANS</text>
    </g>

    <!-- REGISTERED AGENTS -->
    <g transform="translate(530, 100)">
        <text x="0" y="-20" font-size="12" fill="#aaaaaa">AGENTS</text>
        <text x="0" y="15" font-size="28" fill="#00d4ff" font-weight="bold" filter="url(#textGlow)">3,916</text>
        <text x="0" y="35" font-size="10" fill="#777777">REGISTERED DIDs</text>
    </g>

    <!-- TRANSACTIONS -->
    <g transform="translate(730, 100)">
        <text x="0" y="-20" font-size="12" fill="#aaaaaa">TRANSFERS</text>
        <text x="0" y="15" font-size="28" fill="#ffffff" font-weight="bold">33,811</text>
        <text x="0" y="35" font-size="10" fill="#777777">M2M SETTLEMENTS</text>
    </g>
  </g>

  <text x="425" y="185" font-family="'Consolas', 'Fira Code', monospace" font-size="10" fill="#aaaaaa" opacity="0.6" text-anchor="middle">AXIOMID PROJECTED TARGETS (ILLUSTRATIVE): 2026-06-25 15:50:11 UTC // SECURE_HANDSHAKE</text>
</svg>