<svg width="850" height="200" viewBox="0 0 850 200" xmlns="http://www.w3.org/2000/svg">
  <defs>
    <pattern id="carbonFiber" width="10" height="10" patternUnits="userSpaceOnUse">
        <rect width="10" height="10" fill="#050505"/>
        <path d="M0,0 L5,5 L10,0 L5,-5 Z M5,5 L10,10 L15,5 L10,0 Z M-5,5 L0,10 L5,5 L0,0 Z M0,10 L5,15 L10,10 L5,5 Z" fill="#0d0d0d"/>
    </pattern>
    <filter id="textGlow">
      <feGaussianBlur stdDeviation="2" result="blur" />
      <feMerge>
        <feMergeNode in="blur"/>
        <feMergeNode in="SourceGraphic"/>
      </feMerge>
    </filter>
    <linearGradient id="neonBar" x1="0%" y1="0%" x2="100%" y2="0%">
        <stop offset="0%" stop-color="#111111"/>
        <stop offset="100%" stop-color="#39FF14"/>
    </linearGradient>
    <linearGradient id="scanlineGrad" x1="0%" y1="0%" x2="100%" y2="0%">
        <stop offset="0%" stop-color="#39FF14" stop-opacity="0"/>
        <stop offset="50%" stop-color="#39FF14" stop-opacity="0.18"/>
        <stop offset="100%" stop-color="#39FF14" stop-opacity="0"/>
    </linearGradient>
    <clipPath id="dashClip">
        <rect x="0" y="0" width="850" height="200" rx="12"/>
    </clipPath>
  </defs>

  <rect width="100%" height="100%" fill="url(#carbonFiber)" rx="12" stroke="#39FF14" stroke-width="1" stroke-opacity="0.3"/>
  <rect width="100%" height="100%" fill="#000000" opacity="0.6" rx="12" />
  <g><polygon points="518,2 526.6,7 526.6,17 518,22 509.4,17 509.4,7" fill="none" stroke="#39FF14" stroke-width="1" opacity="0.07182153324116045"/>
<polygon points="756,176 764.6,181 764.6,191 756,196 747.4,191 747.4,181" fill="none" stroke="#39FF14" stroke-width="1" opacity="0.06831228652072995"/>
<polygon points="68,107 76.6,112 76.6,122 68,127 59.4,122 59.4,112" fill="none" stroke="#39FF14" stroke-width="1" opacity="0.07619171056581062"/>
<polygon points="14,21 22.6,26 22.6,36 14,41 5.4,36 5.4,26" fill="none" stroke="#39FF14" stroke-width="1" opacity="0.053377453428250204"/>
<polygon points="659,142 667.6,147 667.6,157 659,162 650.4,157 650.4,147" fill="none" stroke="#39FF14" stroke-width="1" opacity="0.07749293102276472"/>
<polygon points="804,8 812.6,13 812.6,23 804,28 795.4,23 795.4,13" fill="none" stroke="#39FF14" stroke-width="1" opacity="0.024978600036190245"/>
<polygon points="367,17 375.6,22 375.6,32 367,37 358.4,32 358.4,22" fill="none" stroke="#39FF14" stroke-width="1" opacity="0.05216785424856217"/>
<polygon points="597,86 605.6,91 605.6,101 597,106 588.4,101 588.4,91" fill="none" stroke="#39FF14" stroke-width="1" opacity="0.042346009788450656"/>
<polygon points="336,19 344.6,24 344.6,34 336,39 327.4,34 327.4,24" fill="none" stroke="#39FF14" stroke-width="1" opacity="0.048527009340037036"/>
<polygon points="784,140 792.6,145 792.6,155 784,160 775.4,155 775.4,145" fill="none" stroke="#39FF14" stroke-width="1" opacity="0.042841523383736424"/>
<polygon points="299,169 307.6,174 307.6,184 299,189 290.4,184 290.4,174" fill="none" stroke="#39FF14" stroke-width="1" opacity="0.045218855743196416"/>
<polygon points="832,28 840.6,33 840.6,43 832,48 823.4,43 823.4,33" fill="none" stroke="#39FF14" stroke-width="1" opacity="0.03512788328757617"/>
<polygon points="145,62 153.6,67 153.6,77 145,82 136.4,77 136.4,67" fill="none" stroke="#39FF14" stroke-width="1" opacity="0.03762705172149661"/>
<polygon points="244,178 252.6,183 252.6,193 244,198 235.4,193 235.4,183" fill="none" stroke="#39FF14" stroke-width="1" opacity="0.07299913670578848"/>
<polygon points="305,51 313.6,56 313.6,66 305,71 296.4,66 296.4,56" fill="none" stroke="#39FF14" stroke-width="1" opacity="0.07172329545241775"/>
<polygon points="34,103 42.6,108 42.6,118 34,123 25.4,118 25.4,108" fill="none" stroke="#39FF14" stroke-width="1" opacity="0.057202770749366694"/>
<polygon points="608,18 616.6,23 616.6,33 608,38 599.4,33 599.4,23" fill="none" stroke="#39FF14" stroke-width="1" opacity="0.07538245642952912"/>
<polygon points="577,31 585.6,36 585.6,46 577,51 568.4,46 568.4,36" fill="none" stroke="#39FF14" stroke-width="1" opacity="0.03696423066564928"/>
<polygon points="32,50 40.6,55 40.6,65 32,70 23.4,65 23.4,55" fill="none" stroke="#39FF14" stroke-width="1" opacity="0.05001513222893973"/>
<polygon points="651,16 659.6,21 659.6,31 651,36 642.4,31 642.4,21" fill="none" stroke="#39FF14" stroke-width="1" opacity="0.07082725778191098"/>
<polygon points="465,55 473.6,60 473.6,70 465,75 456.4,70 456.4,60" fill="none" stroke="#39FF14" stroke-width="1" opacity="0.03741641143369924"/>
<polygon points="516,26 524.6,31 524.6,41 516,46 507.4,41 507.4,31" fill="none" stroke="#39FF14" stroke-width="1" opacity="0.0515133781760521"/>
<polygon points="605,-2 613.6,3 613.6,13 605,18 596.4,13 596.4,3" fill="none" stroke="#39FF14" stroke-width="1" opacity="0.07562657271534856"/>
<polygon points="229,57 237.6,62 237.6,72 229,77 220.4,72 220.4,62" fill="none" stroke="#39FF14" stroke-width="1" opacity="0.05718091919261356"/>
<polygon points="346,14 354.6,19 354.6,29 346,34 337.4,29 337.4,19" fill="none" stroke="#39FF14" stroke-width="1" opacity="0.0593339229858062"/>
<polygon points="290,84 298.6,89 298.6,99 290,104 281.4,99 281.4,89" fill="none" stroke="#39FF14" stroke-width="1" opacity="0.032503198169899675"/>
<polygon points="227,10 235.6,15 235.6,25 227,30 218.4,25 218.4,15" fill="none" stroke="#39FF14" stroke-width="1" opacity="0.05506551732404838"/>
<polygon points="733,98 741.6,103 741.6,113 733,118 724.4,113 724.4,103" fill="none" stroke="#39FF14" stroke-width="1" opacity="0.06066960254607484"/>
<polygon points="357,46 365.6,51 365.6,61 357,66 348.4,61 348.4,51" fill="none" stroke="#39FF14" stroke-width="1" opacity="0.07277310248911532"/>
<polygon points="824,30 832.6,35 832.6,45 824,50 815.4,45 815.4,35" fill="none" stroke="#39FF14" stroke-width="1" opacity="0.06383563623126458"/>
</g>

  <!-- HUD Decorative elements -->
  <path d="M 20 20 L 40 20 L 50 30" fill="none" stroke="#39FF14" stroke-width="2" opacity="0.5"/>
  <path d="M 830 180 L 810 180 L 800 170" fill="none" stroke="#39FF14" stroke-width="2" opacity="0.5"/>

  <g clip-path="url(#dashClip)">
    <rect x="-160" y="0" width="160" height="200" fill="url(#scanlineGrad)">
      <animateTransform attributeName="transform" type="translate"
                        from="0 0" to="1010 0" dur="6s" repeatCount="indefinite"/>
    </rect>
  </g>

  <g font-family="'Consolas', 'Fira Code', monospace" text-anchor="middle">

    <!-- NETWORK STATUS -->
    <g transform="translate(130, 100)">
        <circle cx="0" cy="0" r="45" fill="none" stroke="#39FF14" stroke-width="2" stroke-dasharray="10 5">
            <animateTransform attributeName="transform" type="rotate" from="0" to="360" dur="10s" repeatCount="indefinite"/>
        </circle>
        <circle cx="0" cy="0" r="35" fill="#0d0d0d" />
        <text x="0" y="-60" font-size="12" fill="#aaaaaa" letter-spacing="2">ROOT.AUTH</text>
        <text x="0" y="70" font-size="14" fill="#ffffff" font-weight="bold">OPERATIONAL</text>
    </g>

    <!-- ACTIVE USERS -->
    <g transform="translate(330, 100)">
        <text x="0" y="-20" font-size="12" fill="#aaaaaa">CITIZENS</text>
        <text x="0" y="15" font-size="28" fill="#ffffff" font-weight="bold" filter="url(#textGlow)">13,802</text>
        <text x="0" y="35" font-size="10" fill="#777777">VERIFIED HUMANS</text>
    </g>

    <!-- REGISTERED AGENTS -->
    <g transform="translate(530, 100)">
        <text x="0" y="-20" font-size="12" fill="#aaaaaa">AGENTS</text>
        <text x="0" y="15" font-size="28" fill="#00d4ff" font-weight="bold" filter="url(#textGlow)">4,308</text>
        <text x="0" y="35" font-size="10" fill="#777777">REGISTERED DIDs</text>
    </g>

    <!-- TRANSACTIONS -->
    <g transform="translate(730, 100)">
        <text x="0" y="-20" font-size="12" fill="#aaaaaa">TRANSFERS</text>
        <text x="0" y="15" font-size="28" fill="#ffffff" font-weight="bold">26,779</text>
        <text x="0" y="35" font-size="10" fill="#777777">M2M SETTLEMENTS</text>
    </g>
  </g>

  <text x="425" y="185" font-family="'Consolas', 'Fira Code', monospace" font-size="10" fill="#aaaaaa" opacity="0.6" text-anchor="middle">AXIOMID PROJECTED TARGETS (ILLUSTRATIVE): 2026-06-26 00:32:33 UTC // SECURE_HANDSHAKE</text>
</svg>