<svg width="850" height="200" viewBox="0 0 850 200" xmlns="http://www.w3.org/2000/svg">
  <defs>
    <pattern id="carbonFiber" width="10" height="10" patternUnits="userSpaceOnUse">
        <rect width="10" height="10" fill="#050505"/>
        <path d="M0,0 L5,5 L10,0 L5,-5 Z M5,5 L10,10 L15,5 L10,0 Z M-5,5 L0,10 L5,5 L0,0 Z M0,10 L5,15 L10,10 L5,5 Z" fill="#0d0d0d"/>
    </pattern>
    <filter id="textGlow">
      <feGaussianBlur stdDeviation="2" result="blur" />
      <feMerge>
        <feMergeNode in="blur"/>
        <feMergeNode in="SourceGraphic"/>
      </feMerge>
    </filter>
    <linearGradient id="neonBar" x1="0%" y1="0%" x2="100%" y2="0%">
        <stop offset="0%" stop-color="#111111"/>
        <stop offset="100%" stop-color="#39FF14"/>
    </linearGradient>
    <linearGradient id="scanlineGrad" x1="0%" y1="0%" x2="100%" y2="0%">
        <stop offset="0%" stop-color="#39FF14" stop-opacity="0"/>
        <stop offset="50%" stop-color="#39FF14" stop-opacity="0.18"/>
        <stop offset="100%" stop-color="#39FF14" stop-opacity="0"/>
    </linearGradient>
    <clipPath id="dashClip">
        <rect x="0" y="0" width="850" height="200" rx="12"/>
    </clipPath>
  </defs>

  <rect width="100%" height="100%" fill="url(#carbonFiber)" rx="12" stroke="#39FF14" stroke-width="1" stroke-opacity="0.3"/>
  <rect width="100%" height="100%" fill="#000000" opacity="0.6" rx="12" />
  <g><polygon points="778,28 786.6,33 786.6,43 778,48 769.4,43 769.4,33" fill="none" stroke="#39FF14" stroke-width="1" opacity="0.07519017322121788"/>
<polygon points="760,43 768.6,48 768.6,58 760,63 751.4,58 751.4,48" fill="none" stroke="#39FF14" stroke-width="1" opacity="0.06371970254547085"/>
<polygon points="391,32 399.6,37 399.6,47 391,52 382.4,47 382.4,37" fill="none" stroke="#39FF14" stroke-width="1" opacity="0.056382555991830424"/>
<polygon points="276,3 284.6,8 284.6,18 276,23 267.4,18 267.4,8" fill="none" stroke="#39FF14" stroke-width="1" opacity="0.04719535184618636"/>
<polygon points="846,3 854.6,8 854.6,18 846,23 837.4,18 837.4,8" fill="none" stroke="#39FF14" stroke-width="1" opacity="0.061436725543889306"/>
<polygon points="734,145 742.6,150 742.6,160 734,165 725.4,160 725.4,150" fill="none" stroke="#39FF14" stroke-width="1" opacity="0.055859903260546545"/>
<polygon points="95,55 103.6,60 103.6,70 95,75 86.4,70 86.4,60" fill="none" stroke="#39FF14" stroke-width="1" opacity="0.04489514586539568"/>
<polygon points="562,12 570.6,17 570.6,27 562,32 553.4,27 553.4,17" fill="none" stroke="#39FF14" stroke-width="1" opacity="0.022814354208930382"/>
<polygon points="147,50 155.6,55 155.6,65 147,70 138.4,65 138.4,55" fill="none" stroke="#39FF14" stroke-width="1" opacity="0.02423663391765416"/>
<polygon points="467,13 475.6,18 475.6,28 467,33 458.4,28 458.4,18" fill="none" stroke="#39FF14" stroke-width="1" opacity="0.07932611813845675"/>
<polygon points="846,19 854.6,24 854.6,34 846,39 837.4,34 837.4,24" fill="none" stroke="#39FF14" stroke-width="1" opacity="0.04365386349839918"/>
<polygon points="535,91 543.6,96 543.6,106 535,111 526.4,106 526.4,96" fill="none" stroke="#39FF14" stroke-width="1" opacity="0.02513175629352193"/>
<polygon points="254,105 262.6,110 262.6,120 254,125 245.4,120 245.4,110" fill="none" stroke="#39FF14" stroke-width="1" opacity="0.07334150842406213"/>
<polygon points="355,170 363.6,175 363.6,185 355,190 346.4,185 346.4,175" fill="none" stroke="#39FF14" stroke-width="1" opacity="0.054312462376582216"/>
<polygon points="745,33 753.6,38 753.6,48 745,53 736.4,48 736.4,38" fill="none" stroke="#39FF14" stroke-width="1" opacity="0.0418589628569599"/>
<polygon points="256,59 264.6,64 264.6,74 256,79 247.4,74 247.4,64" fill="none" stroke="#39FF14" stroke-width="1" opacity="0.07141985157808844"/>
<polygon points="711,154 719.6,159 719.6,169 711,174 702.4,169 702.4,159" fill="none" stroke="#39FF14" stroke-width="1" opacity="0.031828032729475264"/>
<polygon points="678,86 686.6,91 686.6,101 678,106 669.4,101 669.4,91" fill="none" stroke="#39FF14" stroke-width="1" opacity="0.030800214812814114"/>
<polygon points="515,140 523.6,145 523.6,155 515,160 506.4,155 506.4,145" fill="none" stroke="#39FF14" stroke-width="1" opacity="0.04403191019657084"/>
<polygon points="10,80 18.6,85 18.6,95 10,100 1.4000000000000004,95 1.4000000000000004,85" fill="none" stroke="#39FF14" stroke-width="1" opacity="0.07085612823390389"/>
<polygon points="259,106 267.6,111 267.6,121 259,126 250.4,121 250.4,111" fill="none" stroke="#39FF14" stroke-width="1" opacity="0.03847853504420369"/>
<polygon points="434,183 442.6,188 442.6,198 434,203 425.4,198 425.4,188" fill="none" stroke="#39FF14" stroke-width="1" opacity="0.07864156340804707"/>
<polygon points="209,173 217.6,178 217.6,188 209,193 200.4,188 200.4,178" fill="none" stroke="#39FF14" stroke-width="1" opacity="0.05214187938068386"/>
<polygon points="728,17 736.6,22 736.6,32 728,37 719.4,32 719.4,22" fill="none" stroke="#39FF14" stroke-width="1" opacity="0.03727793543820056"/>
<polygon points="808,49 816.6,54 816.6,64 808,69 799.4,64 799.4,54" fill="none" stroke="#39FF14" stroke-width="1" opacity="0.05759365214939727"/>
<polygon points="422,108 430.6,113 430.6,123 422,128 413.4,123 413.4,113" fill="none" stroke="#39FF14" stroke-width="1" opacity="0.058893367449289774"/>
<polygon points="401,144 409.6,149 409.6,159 401,164 392.4,159 392.4,149" fill="none" stroke="#39FF14" stroke-width="1" opacity="0.02719474134864897"/>
<polygon points="626,170 634.6,175 634.6,185 626,190 617.4,185 617.4,175" fill="none" stroke="#39FF14" stroke-width="1" opacity="0.059358927701685604"/>
<polygon points="618,93 626.6,98 626.6,108 618,113 609.4,108 609.4,98" fill="none" stroke="#39FF14" stroke-width="1" opacity="0.0551669443246106"/>
<polygon points="567,143 575.6,148 575.6,158 567,163 558.4,158 558.4,148" fill="none" stroke="#39FF14" stroke-width="1" opacity="0.07678710646192007"/>
</g>

  <!-- HUD Decorative elements -->
  <path d="M 20 20 L 40 20 L 50 30" fill="none" stroke="#39FF14" stroke-width="2" opacity="0.5"/>
  <path d="M 830 180 L 810 180 L 800 170" fill="none" stroke="#39FF14" stroke-width="2" opacity="0.5"/>

  <g clip-path="url(#dashClip)">
    <rect x="-160" y="0" width="160" height="200" fill="url(#scanlineGrad)">
      <animateTransform attributeName="transform" type="translate"
                        from="0 0" to="1010 0" dur="6s" repeatCount="indefinite"/>
    </rect>
  </g>

  <g font-family="'Consolas', 'Fira Code', monospace" text-anchor="middle">

    <!-- NETWORK STATUS -->
    <g transform="translate(130, 100)">
        <circle cx="0" cy="0" r="45" fill="none" stroke="#39FF14" stroke-width="2" stroke-dasharray="10 5">
            <animateTransform attributeName="transform" type="rotate" from="0" to="360" dur="10s" repeatCount="indefinite"/>
        </circle>
        <circle cx="0" cy="0" r="35" fill="#0d0d0d" />
        <text x="0" y="-60" font-size="12" fill="#aaaaaa" letter-spacing="2">ROOT.AUTH</text>
        <text x="0" y="70" font-size="14" fill="#ffffff" font-weight="bold">OPERATIONAL</text>
    </g>

    <!-- ACTIVE USERS -->
    <g transform="translate(330, 100)">
        <text x="0" y="-20" font-size="12" fill="#aaaaaa">CITIZENS</text>
        <text x="0" y="15" font-size="28" fill="#ffffff" font-weight="bold" filter="url(#textGlow)">15,426</text>
        <text x="0" y="35" font-size="10" fill="#777777">VERIFIED HUMANS</text>
    </g>

    <!-- REGISTERED AGENTS -->
    <g transform="translate(530, 100)">
        <text x="0" y="-20" font-size="12" fill="#aaaaaa">AGENTS</text>
        <text x="0" y="15" font-size="28" fill="#00d4ff" font-weight="bold" filter="url(#textGlow)">3,189</text>
        <text x="0" y="35" font-size="10" fill="#777777">REGISTERED DIDs</text>
    </g>

    <!-- TRANSACTIONS -->
    <g transform="translate(730, 100)">
        <text x="0" y="-20" font-size="12" fill="#aaaaaa">TRANSFERS</text>
        <text x="0" y="15" font-size="28" fill="#ffffff" font-weight="bold">35,183</text>
        <text x="0" y="35" font-size="10" fill="#777777">M2M SETTLEMENTS</text>
    </g>
  </g>

  <text x="425" y="185" font-family="'Consolas', 'Fira Code', monospace" font-size="10" fill="#aaaaaa" opacity="0.6" text-anchor="middle">AXIOMID PROJECTED TARGETS (ILLUSTRATIVE): 2026-07-22 16:14:20 UTC // SECURE_HANDSHAKE</text>
</svg>