<svg width="850" height="200" viewBox="0 0 850 200" xmlns="http://www.w3.org/2000/svg">
  <defs>
    <!-- Carbon Fiber Pattern -->
    <pattern id="carbonFiber" width="10" height="10" patternUnits="userSpaceOnUse">
        <rect width="10" height="10" fill="#050505"/>
        <path d="M0,0 L5,5 L10,0 L5,-5 Z M5,5 L10,10 L15,5 L10,0 Z M-5,5 L0,10 L5,5 L0,0 Z M0,10 L5,15 L10,10 L5,5 Z" fill="#0d0d0d"/>
    </pattern>
    <filter id="glassmorphism">
      <feGaussianBlur stdDeviation="3" result="blur" />
      <feColorMatrix type="matrix" values="1 0 0 0 0  0 1 0 0 0  0 0 1 0 0  0 0 0 18 -7" result="glow" />
      <feBlend in="SourceGraphic" in2="glow" mode="normal" />
    </filter>
    <filter id="textGlow">
      <feGaussianBlur stdDeviation="2" result="blur" />
      <feMerge>
        <feMergeNode in="blur"/>
        <feMergeNode in="SourceGraphic"/>
      </feMerge>
    </filter>
    <linearGradient id="neonBar" x1="0%" y1="0%" x2="100%" y2="0%">
        <stop offset="0%" stop-color="#111111"/>
        <stop offset="100%" stop-color="#39FF14"/>
    </linearGradient>
  </defs>

  <rect width="100%" height="100%" fill="url(#carbonFiber)" rx="12" stroke="#39FF14" stroke-width="1" stroke-opacity="0.3"/>
  <rect width="100%" height="100%" fill="#000000" opacity="0.6" rx="12" />
  <g><polygon points="659,125 667.6,130 667.6,140 659,145 650.4,140 650.4,130" fill="none" stroke="#39FF14" stroke-width="1" opacity="0.05787139606065214"/>
<polygon points="455,74 463.6,79 463.6,89 455,94 446.4,89 446.4,79" fill="none" stroke="#39FF14" stroke-width="1" opacity="0.07882860485405417"/>
<polygon points="496,40 504.6,45 504.6,55 496,60 487.4,55 487.4,45" fill="none" stroke="#39FF14" stroke-width="1" opacity="0.07239508249518703"/>
<polygon points="455,148 463.6,153 463.6,163 455,168 446.4,163 446.4,153" fill="none" stroke="#39FF14" stroke-width="1" opacity="0.022466643374711177"/>
<polygon points="403,82 411.6,87 411.6,97 403,102 394.4,97 394.4,87" fill="none" stroke="#39FF14" stroke-width="1" opacity="0.027667071471254138"/>
<polygon points="48,32 56.6,37 56.6,47 48,52 39.4,47 39.4,37" fill="none" stroke="#39FF14" stroke-width="1" opacity="0.07478626259535126"/>
<polygon points="329,-7 337.6,-2 337.6,8 329,13 320.4,8 320.4,-2" fill="none" stroke="#39FF14" stroke-width="1" opacity="0.06955579222428974"/>
<polygon points="739,34 747.6,39 747.6,49 739,54 730.4,49 730.4,39" fill="none" stroke="#39FF14" stroke-width="1" opacity="0.0446966398958443"/>
<polygon points="530,85 538.6,90 538.6,100 530,105 521.4,100 521.4,90" fill="none" stroke="#39FF14" stroke-width="1" opacity="0.06792168926341297"/>
<polygon points="588,-5 596.6,0 596.6,10 588,15 579.4,10 579.4,0" fill="none" stroke="#39FF14" stroke-width="1" opacity="0.07717261385423334"/>
<polygon points="615,182 623.6,187 623.6,197 615,202 606.4,197 606.4,187" fill="none" stroke="#39FF14" stroke-width="1" opacity="0.03885195050159674"/>
<polygon points="606,22 614.6,27 614.6,37 606,42 597.4,37 597.4,27" fill="none" stroke="#39FF14" stroke-width="1" opacity="0.07930305364250247"/>
<polygon points="539,70 547.6,75 547.6,85 539,90 530.4,85 530.4,75" fill="none" stroke="#39FF14" stroke-width="1" opacity="0.023405790199717537"/>
<polygon points="728,185 736.6,190 736.6,200 728,205 719.4,200 719.4,190" fill="none" stroke="#39FF14" stroke-width="1" opacity="0.07146586882841043"/>
<polygon points="102,21 110.6,26 110.6,36 102,41 93.4,36 93.4,26" fill="none" stroke="#39FF14" stroke-width="1" opacity="0.07925476685608107"/>
<polygon points="585,136 593.6,141 593.6,151 585,156 576.4,151 576.4,141" fill="none" stroke="#39FF14" stroke-width="1" opacity="0.0724942032570046"/>
<polygon points="659,80 667.6,85 667.6,95 659,100 650.4,95 650.4,85" fill="none" stroke="#39FF14" stroke-width="1" opacity="0.02215202149404666"/>
<polygon points="110,147 118.6,152 118.6,162 110,167 101.4,162 101.4,152" fill="none" stroke="#39FF14" stroke-width="1" opacity="0.027627182459527767"/>
<polygon points="687,105 695.6,110 695.6,120 687,125 678.4,120 678.4,110" fill="none" stroke="#39FF14" stroke-width="1" opacity="0.06416844583861003"/>
<polygon points="466,188 474.6,193 474.6,203 466,208 457.4,203 457.4,193" fill="none" stroke="#39FF14" stroke-width="1" opacity="0.05526605779655494"/>
<polygon points="723,113 731.6,118 731.6,128 723,133 714.4,128 714.4,118" fill="none" stroke="#39FF14" stroke-width="1" opacity="0.03255251945211431"/>
<polygon points="297,32 305.6,37 305.6,47 297,52 288.4,47 288.4,37" fill="none" stroke="#39FF14" stroke-width="1" opacity="0.06901071246748083"/>
<polygon points="795,173 803.6,178 803.6,188 795,193 786.4,188 786.4,178" fill="none" stroke="#39FF14" stroke-width="1" opacity="0.037197931747745744"/>
<polygon points="33,144 41.6,149 41.6,159 33,164 24.4,159 24.4,149" fill="none" stroke="#39FF14" stroke-width="1" opacity="0.06702131901561467"/>
<polygon points="700,143 708.6,148 708.6,158 700,163 691.4,158 691.4,148" fill="none" stroke="#39FF14" stroke-width="1" opacity="0.057249179843854664"/>
<polygon points="144,113 152.6,118 152.6,128 144,133 135.4,128 135.4,118" fill="none" stroke="#39FF14" stroke-width="1" opacity="0.06592315011685418"/>
<polygon points="214,141 222.6,146 222.6,156 214,161 205.4,156 205.4,146" fill="none" stroke="#39FF14" stroke-width="1" opacity="0.05223769414071151"/>
<polygon points="605,140 613.6,145 613.6,155 605,160 596.4,155 596.4,145" fill="none" stroke="#39FF14" stroke-width="1" opacity="0.05480213793770887"/>
<polygon points="836,165 844.6,170 844.6,180 836,185 827.4,180 827.4,170" fill="none" stroke="#39FF14" stroke-width="1" opacity="0.0712573233877124"/>
<polygon points="760,96 768.6,101 768.6,111 760,116 751.4,111 751.4,101" fill="none" stroke="#39FF14" stroke-width="1" opacity="0.0767699058672139"/>
</g>

  <!-- HUD Decorative elements -->
  <path d="M 20 20 L 40 20 L 50 30" fill="none" stroke="#39FF14" stroke-width="2" opacity="0.5"/>
  <path d="M 830 180 L 810 180 L 800 170" fill="none" stroke="#39FF14" stroke-width="2" opacity="0.5"/>
  <rect x="20" y="100" width="2" height="40" fill="#ffffff" opacity="0.4"/>
  <rect x="828" y="60" width="2" height="40" fill="#39FF14" opacity="0.6"/>

  <g font-family="'Consolas', 'Fira Code', monospace" text-anchor="middle">

    <!-- SYSTEM STATUS -->
    <g transform="translate(130, 100)">
        <circle cx="0" cy="0" r="45" fill="none" stroke="#111111" stroke-width="8" />
        <circle cx="0" cy="0" r="45" fill="none" stroke="#39FF14" stroke-width="2" stroke-dasharray="10 5">
            <animateTransform attributeName="transform" type="rotate" from="0" to="360" dur="10s" repeatCount="indefinite"/>
        </circle>
        <circle cx="0" cy="0" r="35" fill="#0d0d0d" />
        <circle cx="0" cy="0" r="6" fill="#39FF14" filter="url(#textGlow)">
            <animate attributeName="opacity" values="1;0.3;1" dur="2s" repeatCount="indefinite"/>
        </circle>
        <text x="0" y="-60" font-size="12" fill="#aaaaaa" letter-spacing="2">SYS.CORE</text>
        <text x="0" y="70" font-size="14" fill="#ffffff" font-weight="bold">ONLINE</text>
    </g>

    <!-- LIVE TRAFFIC -->
    <g transform="translate(330, 100)">
        <rect x="-60" y="-45" width="120" height="90" fill="#0a0a0a" rx="8" stroke="#39FF14" stroke-opacity="0.4" stroke-width="1"/>
        <text x="0" y="-20" font-size="12" fill="#aaaaaa">NETWORK LOAD</text>
        <text x="0" y="15" font-size="28" fill="#ffffff" font-weight="bold" filter="url(#textGlow)">5101</text>
        <text x="0" y="35" font-size="10" fill="#777777">ACTIVE SESSIONS</text>
    </g>

    <!-- ACTIVE AGENTS -->
    <g transform="translate(530, 100)">
        <rect x="-60" y="-45" width="120" height="90" fill="#0a0a0a" rx="8" stroke="#39FF14" stroke-opacity="0.4" stroke-width="1"/>
        <text x="0" y="-20" font-size="12" fill="#aaaaaa">SWARM ENTITIES</text>
        <text x="0" y="15" font-size="28" fill="#ffffff" font-weight="bold" filter="url(#textGlow)">158</text>
        <text x="0" y="35" font-size="10" fill="#777777">AUTONOMOUS</text>
    </g>

    <!-- UPTIME -->
    <g transform="translate(730, 100)">
        <path d="M -40 -35 L 40 -35 L 50 -25 L 50 35 L -40 35 L -50 25 Z" fill="#0a0a0a" stroke="#39FF14" stroke-opacity="0.4" stroke-width="1"/>
        <text x="0" y="-15" font-size="12" fill="#aaaaaa">CONTINUITY</text>
        <text x="0" y="15" font-size="24" fill="#ffffff" font-weight="bold">266<tspan font-size="14" fill="#777777">d</tspan></text>
        <rect x="-35" y="25" width="70" height="4" fill="url(#neonBar)" rx="2"/>
    </g>
  </g>

  <text x="425" y="185" font-family="'Consolas', 'Fira Code', monospace" font-size="10" fill="#aaaaaa" opacity="0.6" text-anchor="middle">LAST TELEMETRY PING: 2026-05-06 07:02:24 UTC // ENCRYPTED_TUNNEL</text>
</svg>