<svg width="850" height="200" viewBox="0 0 850 200" xmlns="http://www.w3.org/2000/svg">
  <defs>
    <pattern id="carbonFiber" width="10" height="10" patternUnits="userSpaceOnUse">
        <rect width="10" height="10" fill="#050505"/>
        <path d="M0,0 L5,5 L10,0 L5,-5 Z M5,5 L10,10 L15,5 L10,0 Z M-5,5 L0,10 L5,5 L0,0 Z M0,10 L5,15 L10,10 L5,5 Z" fill="#0d0d0d"/>
    </pattern>
    <filter id="textGlow">
      <feGaussianBlur stdDeviation="2" result="blur" />
      <feMerge>
        <feMergeNode in="blur"/>
        <feMergeNode in="SourceGraphic"/>
      </feMerge>
    </filter>
    <linearGradient id="neonBar" x1="0%" y1="0%" x2="100%" y2="0%">
        <stop offset="0%" stop-color="#111111"/>
        <stop offset="100%" stop-color="#39FF14"/>
    </linearGradient>
    <linearGradient id="scanlineGrad" x1="0%" y1="0%" x2="100%" y2="0%">
        <stop offset="0%" stop-color="#39FF14" stop-opacity="0"/>
        <stop offset="50%" stop-color="#39FF14" stop-opacity="0.18"/>
        <stop offset="100%" stop-color="#39FF14" stop-opacity="0"/>
    </linearGradient>
    <clipPath id="dashClip">
        <rect x="0" y="0" width="850" height="200" rx="12"/>
    </clipPath>
  </defs>

  <rect width="100%" height="100%" fill="url(#carbonFiber)" rx="12" stroke="#39FF14" stroke-width="1" stroke-opacity="0.3"/>
  <rect width="100%" height="100%" fill="#000000" opacity="0.6" rx="12" />
  <g><polygon points="529,186 537.6,191 537.6,201 529,206 520.4,201 520.4,191" fill="none" stroke="#39FF14" stroke-width="1" opacity="0.06812630855598441"/>
<polygon points="704,131 712.6,136 712.6,146 704,151 695.4,146 695.4,136" fill="none" stroke="#39FF14" stroke-width="1" opacity="0.042267300630455716"/>
<polygon points="789,189 797.6,194 797.6,204 789,209 780.4,204 780.4,194" fill="none" stroke="#39FF14" stroke-width="1" opacity="0.06190752898324632"/>
<polygon points="420,86 428.6,91 428.6,101 420,106 411.4,101 411.4,91" fill="none" stroke="#39FF14" stroke-width="1" opacity="0.04483249932735709"/>
<polygon points="699,175 707.6,180 707.6,190 699,195 690.4,190 690.4,180" fill="none" stroke="#39FF14" stroke-width="1" opacity="0.02909161048734598"/>
<polygon points="290,119 298.6,124 298.6,134 290,139 281.4,134 281.4,124" fill="none" stroke="#39FF14" stroke-width="1" opacity="0.03718130356309381"/>
<polygon points="768,56 776.6,61 776.6,71 768,76 759.4,71 759.4,61" fill="none" stroke="#39FF14" stroke-width="1" opacity="0.07120318148448614"/>
<polygon points="511,51 519.6,56 519.6,66 511,71 502.4,66 502.4,56" fill="none" stroke="#39FF14" stroke-width="1" opacity="0.024780925368841106"/>
<polygon points="189,181 197.6,186 197.6,196 189,201 180.4,196 180.4,186" fill="none" stroke="#39FF14" stroke-width="1" opacity="0.031534967703440414"/>
<polygon points="619,-2 627.6,3 627.6,13 619,18 610.4,13 610.4,3" fill="none" stroke="#39FF14" stroke-width="1" opacity="0.021798954054690678"/>
<polygon points="110,129 118.6,134 118.6,144 110,149 101.4,144 101.4,134" fill="none" stroke="#39FF14" stroke-width="1" opacity="0.07221425025756632"/>
<polygon points="547,34 555.6,39 555.6,49 547,54 538.4,49 538.4,39" fill="none" stroke="#39FF14" stroke-width="1" opacity="0.04254395759218749"/>
<polygon points="74,67 82.6,72 82.6,82 74,87 65.4,82 65.4,72" fill="none" stroke="#39FF14" stroke-width="1" opacity="0.06499237118971604"/>
<polygon points="467,129 475.6,134 475.6,144 467,149 458.4,144 458.4,134" fill="none" stroke="#39FF14" stroke-width="1" opacity="0.05059407868762371"/>
<polygon points="121,74 129.6,79 129.6,89 121,94 112.4,89 112.4,79" fill="none" stroke="#39FF14" stroke-width="1" opacity="0.07113511398611301"/>
<polygon points="169,62 177.6,67 177.6,77 169,82 160.4,77 160.4,67" fill="none" stroke="#39FF14" stroke-width="1" opacity="0.05200806679333202"/>
<polygon points="61,46 69.6,51 69.6,61 61,66 52.4,61 52.4,51" fill="none" stroke="#39FF14" stroke-width="1" opacity="0.03309352830289658"/>
<polygon points="38,14 46.6,19 46.6,29 38,34 29.4,29 29.4,19" fill="none" stroke="#39FF14" stroke-width="1" opacity="0.03692181650361654"/>
<polygon points="571,17 579.6,22 579.6,32 571,37 562.4,32 562.4,22" fill="none" stroke="#39FF14" stroke-width="1" opacity="0.06237840009293652"/>
<polygon points="755,57 763.6,62 763.6,72 755,77 746.4,72 746.4,62" fill="none" stroke="#39FF14" stroke-width="1" opacity="0.05475028987192994"/>
<polygon points="453,166 461.6,171 461.6,181 453,186 444.4,181 444.4,171" fill="none" stroke="#39FF14" stroke-width="1" opacity="0.05681905085511532"/>
<polygon points="733,85 741.6,90 741.6,100 733,105 724.4,100 724.4,90" fill="none" stroke="#39FF14" stroke-width="1" opacity="0.07144481803585571"/>
<polygon points="567,180 575.6,185 575.6,195 567,200 558.4,195 558.4,185" fill="none" stroke="#39FF14" stroke-width="1" opacity="0.056653645301376204"/>
<polygon points="476,82 484.6,87 484.6,97 476,102 467.4,97 467.4,87" fill="none" stroke="#39FF14" stroke-width="1" opacity="0.06357531829289459"/>
<polygon points="495,112 503.6,117 503.6,127 495,132 486.4,127 486.4,117" fill="none" stroke="#39FF14" stroke-width="1" opacity="0.0618499800125971"/>
<polygon points="262,139 270.6,144 270.6,154 262,159 253.4,154 253.4,144" fill="none" stroke="#39FF14" stroke-width="1" opacity="0.048475039091454626"/>
<polygon points="127,68 135.6,73 135.6,83 127,88 118.4,83 118.4,73" fill="none" stroke="#39FF14" stroke-width="1" opacity="0.024405561249432363"/>
<polygon points="58,170 66.6,175 66.6,185 58,190 49.4,185 49.4,175" fill="none" stroke="#39FF14" stroke-width="1" opacity="0.03386382085648726"/>
<polygon points="476,65 484.6,70 484.6,80 476,85 467.4,80 467.4,70" fill="none" stroke="#39FF14" stroke-width="1" opacity="0.027966107181849227"/>
<polygon points="75,55 83.6,60 83.6,70 75,75 66.4,70 66.4,60" fill="none" stroke="#39FF14" stroke-width="1" opacity="0.03434948543270091"/>
</g>

  <!-- HUD Decorative elements -->
  <path d="M 20 20 L 40 20 L 50 30" fill="none" stroke="#39FF14" stroke-width="2" opacity="0.5"/>
  <path d="M 830 180 L 810 180 L 800 170" fill="none" stroke="#39FF14" stroke-width="2" opacity="0.5"/>

  <g clip-path="url(#dashClip)">
    <rect x="-160" y="0" width="160" height="200" fill="url(#scanlineGrad)">
      <animateTransform attributeName="transform" type="translate"
                        from="0 0" to="1010 0" dur="6s" repeatCount="indefinite"/>
    </rect>
  </g>

  <g font-family="'Consolas', 'Fira Code', monospace" text-anchor="middle">

    <!-- NETWORK STATUS -->
    <g transform="translate(130, 100)">
        <circle cx="0" cy="0" r="45" fill="none" stroke="#39FF14" stroke-width="2" stroke-dasharray="10 5">
            <animateTransform attributeName="transform" type="rotate" from="0" to="360" dur="10s" repeatCount="indefinite"/>
        </circle>
        <circle cx="0" cy="0" r="35" fill="#0d0d0d" />
        <text x="0" y="-60" font-size="12" fill="#aaaaaa" letter-spacing="2">ROOT.AUTH</text>
        <text x="0" y="70" font-size="14" fill="#ffffff" font-weight="bold">OPERATIONAL</text>
    </g>

    <!-- ACTIVE USERS -->
    <g transform="translate(330, 100)">
        <text x="0" y="-20" font-size="12" fill="#aaaaaa">CITIZENS</text>
        <text x="0" y="15" font-size="28" fill="#ffffff" font-weight="bold" filter="url(#textGlow)">13,607</text>
        <text x="0" y="35" font-size="10" fill="#777777">VERIFIED HUMANS</text>
    </g>

    <!-- REGISTERED AGENTS -->
    <g transform="translate(530, 100)">
        <text x="0" y="-20" font-size="12" fill="#aaaaaa">AGENTS</text>
        <text x="0" y="15" font-size="28" fill="#00d4ff" font-weight="bold" filter="url(#textGlow)">4,074</text>
        <text x="0" y="35" font-size="10" fill="#777777">REGISTERED DIDs</text>
    </g>

    <!-- TRANSACTIONS -->
    <g transform="translate(730, 100)">
        <text x="0" y="-20" font-size="12" fill="#aaaaaa">TRANSFERS</text>
        <text x="0" y="15" font-size="28" fill="#ffffff" font-weight="bold">32,418</text>
        <text x="0" y="35" font-size="10" fill="#777777">M2M SETTLEMENTS</text>
    </g>
  </g>

  <text x="425" y="185" font-family="'Consolas', 'Fira Code', monospace" font-size="10" fill="#aaaaaa" opacity="0.6" text-anchor="middle">AXIOMID PROJECTED TARGETS (ILLUSTRATIVE): 2026-07-19 12:54:18 UTC // SECURE_HANDSHAKE</text>
</svg>