<svg width="850" height="200" viewBox="0 0 850 200" xmlns="http://www.w3.org/2000/svg">
  <defs>
    <pattern id="carbonFiber" width="10" height="10" patternUnits="userSpaceOnUse">
        <rect width="10" height="10" fill="#050505"/>
        <path d="M0,0 L5,5 L10,0 L5,-5 Z M5,5 L10,10 L15,5 L10,0 Z M-5,5 L0,10 L5,5 L0,0 Z M0,10 L5,15 L10,10 L5,5 Z" fill="#0d0d0d"/>
    </pattern>
    <filter id="textGlow">
      <feGaussianBlur stdDeviation="2" result="blur" />
      <feMerge>
        <feMergeNode in="blur"/>
        <feMergeNode in="SourceGraphic"/>
      </feMerge>
    </filter>
    <linearGradient id="neonBar" x1="0%" y1="0%" x2="100%" y2="0%">
        <stop offset="0%" stop-color="#111111"/>
        <stop offset="100%" stop-color="#39FF14"/>
    </linearGradient>
    <linearGradient id="scanlineGrad" x1="0%" y1="0%" x2="100%" y2="0%">
        <stop offset="0%" stop-color="#39FF14" stop-opacity="0"/>
        <stop offset="50%" stop-color="#39FF14" stop-opacity="0.18"/>
        <stop offset="100%" stop-color="#39FF14" stop-opacity="0"/>
    </linearGradient>
    <clipPath id="dashClip">
        <rect x="0" y="0" width="850" height="200" rx="12"/>
    </clipPath>
  </defs>

  <rect width="100%" height="100%" fill="url(#carbonFiber)" rx="12" stroke="#39FF14" stroke-width="1" stroke-opacity="0.3"/>
  <rect width="100%" height="100%" fill="#000000" opacity="0.6" rx="12" />
  <g><polygon points="570,75 578.6,80 578.6,90 570,95 561.4,90 561.4,80" fill="none" stroke="#39FF14" stroke-width="1" opacity="0.05577515215516536"/>
<polygon points="240,4 248.6,9 248.6,19 240,24 231.4,19 231.4,9" fill="none" stroke="#39FF14" stroke-width="1" opacity="0.04730943653379849"/>
<polygon points="721,159 729.6,164 729.6,174 721,179 712.4,174 712.4,164" fill="none" stroke="#39FF14" stroke-width="1" opacity="0.046639805750265176"/>
<polygon points="113,164 121.6,169 121.6,179 113,184 104.4,179 104.4,169" fill="none" stroke="#39FF14" stroke-width="1" opacity="0.04414594629355559"/>
<polygon points="721,104 729.6,109 729.6,119 721,124 712.4,119 712.4,109" fill="none" stroke="#39FF14" stroke-width="1" opacity="0.03707969707537701"/>
<polygon points="817,111 825.6,116 825.6,126 817,131 808.4,126 808.4,116" fill="none" stroke="#39FF14" stroke-width="1" opacity="0.0384118093763021"/>
<polygon points="570,10 578.6,15 578.6,25 570,30 561.4,25 561.4,15" fill="none" stroke="#39FF14" stroke-width="1" opacity="0.05056319608841964"/>
<polygon points="802,164 810.6,169 810.6,179 802,184 793.4,179 793.4,169" fill="none" stroke="#39FF14" stroke-width="1" opacity="0.02356322458853459"/>
<polygon points="742,18 750.6,23 750.6,33 742,38 733.4,33 733.4,23" fill="none" stroke="#39FF14" stroke-width="1" opacity="0.026923930384426496"/>
<polygon points="122,132 130.6,137 130.6,147 122,152 113.4,147 113.4,137" fill="none" stroke="#39FF14" stroke-width="1" opacity="0.04399899792728537"/>
<polygon points="740,6 748.6,11 748.6,21 740,26 731.4,21 731.4,11" fill="none" stroke="#39FF14" stroke-width="1" opacity="0.06632379925776957"/>
<polygon points="768,22 776.6,27 776.6,37 768,42 759.4,37 759.4,27" fill="none" stroke="#39FF14" stroke-width="1" opacity="0.04884536412380898"/>
<polygon points="651,106 659.6,111 659.6,121 651,126 642.4,121 642.4,111" fill="none" stroke="#39FF14" stroke-width="1" opacity="0.06480852471144966"/>
<polygon points="556,74 564.6,79 564.6,89 556,94 547.4,89 547.4,79" fill="none" stroke="#39FF14" stroke-width="1" opacity="0.07270455388672611"/>
<polygon points="101,60 109.6,65 109.6,75 101,80 92.4,75 92.4,65" fill="none" stroke="#39FF14" stroke-width="1" opacity="0.06967503496973516"/>
<polygon points="389,166 397.6,171 397.6,181 389,186 380.4,181 380.4,171" fill="none" stroke="#39FF14" stroke-width="1" opacity="0.07080341351981163"/>
<polygon points="221,84 229.6,89 229.6,99 221,104 212.4,99 212.4,89" fill="none" stroke="#39FF14" stroke-width="1" opacity="0.025413937788361735"/>
<polygon points="750,177 758.6,182 758.6,192 750,197 741.4,192 741.4,182" fill="none" stroke="#39FF14" stroke-width="1" opacity="0.07057261188667338"/>
<polygon points="137,139 145.6,144 145.6,154 137,159 128.4,154 128.4,144" fill="none" stroke="#39FF14" stroke-width="1" opacity="0.05455897345331211"/>
<polygon points="331,121 339.6,126 339.6,136 331,141 322.4,136 322.4,126" fill="none" stroke="#39FF14" stroke-width="1" opacity="0.06812739240189501"/>
<polygon points="150,21 158.6,26 158.6,36 150,41 141.4,36 141.4,26" fill="none" stroke="#39FF14" stroke-width="1" opacity="0.0708054206731057"/>
<polygon points="253,47 261.6,52 261.6,62 253,67 244.4,62 244.4,52" fill="none" stroke="#39FF14" stroke-width="1" opacity="0.047108698335254856"/>
<polygon points="536,61 544.6,66 544.6,76 536,81 527.4,76 527.4,66" fill="none" stroke="#39FF14" stroke-width="1" opacity="0.02011241840277303"/>
<polygon points="713,99 721.6,104 721.6,114 713,119 704.4,114 704.4,104" fill="none" stroke="#39FF14" stroke-width="1" opacity="0.06820281115516659"/>
<polygon points="735,58 743.6,63 743.6,73 735,78 726.4,73 726.4,63" fill="none" stroke="#39FF14" stroke-width="1" opacity="0.07405905263551596"/>
<polygon points="309,31 317.6,36 317.6,46 309,51 300.4,46 300.4,36" fill="none" stroke="#39FF14" stroke-width="1" opacity="0.04428598143573329"/>
<polygon points="736,88 744.6,93 744.6,103 736,108 727.4,103 727.4,93" fill="none" stroke="#39FF14" stroke-width="1" opacity="0.06906209717781789"/>
<polygon points="404,52 412.6,57 412.6,67 404,72 395.4,67 395.4,57" fill="none" stroke="#39FF14" stroke-width="1" opacity="0.0673189730501355"/>
<polygon points="719,177 727.6,182 727.6,192 719,197 710.4,192 710.4,182" fill="none" stroke="#39FF14" stroke-width="1" opacity="0.03345350047427695"/>
<polygon points="569,145 577.6,150 577.6,160 569,165 560.4,160 560.4,150" fill="none" stroke="#39FF14" stroke-width="1" opacity="0.05829310902195192"/>
</g>

  <!-- HUD Decorative elements -->
  <path d="M 20 20 L 40 20 L 50 30" fill="none" stroke="#39FF14" stroke-width="2" opacity="0.5"/>
  <path d="M 830 180 L 810 180 L 800 170" fill="none" stroke="#39FF14" stroke-width="2" opacity="0.5"/>

  <g clip-path="url(#dashClip)">
    <rect x="-160" y="0" width="160" height="200" fill="url(#scanlineGrad)">
      <animateTransform attributeName="transform" type="translate"
                        from="0 0" to="1010 0" dur="6s" repeatCount="indefinite"/>
    </rect>
  </g>

  <g font-family="'Consolas', 'Fira Code', monospace" text-anchor="middle">

    <!-- NETWORK STATUS -->
    <g transform="translate(130, 100)">
        <circle cx="0" cy="0" r="45" fill="none" stroke="#39FF14" stroke-width="2" stroke-dasharray="10 5">
            <animateTransform attributeName="transform" type="rotate" from="0" to="360" dur="10s" repeatCount="indefinite"/>
        </circle>
        <circle cx="0" cy="0" r="35" fill="#0d0d0d" />
        <text x="0" y="-60" font-size="12" fill="#aaaaaa" letter-spacing="2">ROOT.AUTH</text>
        <text x="0" y="70" font-size="14" fill="#ffffff" font-weight="bold">OPERATIONAL</text>
    </g>

    <!-- ACTIVE USERS -->
    <g transform="translate(330, 100)">
        <text x="0" y="-20" font-size="12" fill="#aaaaaa">CITIZENS</text>
        <text x="0" y="15" font-size="28" fill="#ffffff" font-weight="bold" filter="url(#textGlow)">12,426</text>
        <text x="0" y="35" font-size="10" fill="#777777">VERIFIED HUMANS</text>
    </g>

    <!-- REGISTERED AGENTS -->
    <g transform="translate(530, 100)">
        <text x="0" y="-20" font-size="12" fill="#aaaaaa">AGENTS</text>
        <text x="0" y="15" font-size="28" fill="#00d4ff" font-weight="bold" filter="url(#textGlow)">4,022</text>
        <text x="0" y="35" font-size="10" fill="#777777">REGISTERED DIDs</text>
    </g>

    <!-- TRANSACTIONS -->
    <g transform="translate(730, 100)">
        <text x="0" y="-20" font-size="12" fill="#aaaaaa">TRANSFERS</text>
        <text x="0" y="15" font-size="28" fill="#ffffff" font-weight="bold">29,711</text>
        <text x="0" y="35" font-size="10" fill="#777777">M2M SETTLEMENTS</text>
    </g>
  </g>

  <text x="425" y="185" font-family="'Consolas', 'Fira Code', monospace" font-size="10" fill="#aaaaaa" opacity="0.6" text-anchor="middle">AXIOMID PROJECTED TARGETS (ILLUSTRATIVE): 2026-06-23 21:31:10 UTC // SECURE_HANDSHAKE</text>
</svg>