<svg width="850" height="200" viewBox="0 0 850 200" xmlns="http://www.w3.org/2000/svg">
  <defs>
    <pattern id="carbonFiber" width="10" height="10" patternUnits="userSpaceOnUse">
        <rect width="10" height="10" fill="#050505"/>
        <path d="M0,0 L5,5 L10,0 L5,-5 Z M5,5 L10,10 L15,5 L10,0 Z M-5,5 L0,10 L5,5 L0,0 Z M0,10 L5,15 L10,10 L5,5 Z" fill="#0d0d0d"/>
    </pattern>
    <filter id="textGlow">
      <feGaussianBlur stdDeviation="2" result="blur" />
      <feMerge>
        <feMergeNode in="blur"/>
        <feMergeNode in="SourceGraphic"/>
      </feMerge>
    </filter>
    <linearGradient id="neonBar" x1="0%" y1="0%" x2="100%" y2="0%">
        <stop offset="0%" stop-color="#111111"/>
        <stop offset="100%" stop-color="#39FF14"/>
    </linearGradient>
    <linearGradient id="scanlineGrad" x1="0%" y1="0%" x2="100%" y2="0%">
        <stop offset="0%" stop-color="#39FF14" stop-opacity="0"/>
        <stop offset="50%" stop-color="#39FF14" stop-opacity="0.18"/>
        <stop offset="100%" stop-color="#39FF14" stop-opacity="0"/>
    </linearGradient>
    <clipPath id="dashClip">
        <rect x="0" y="0" width="850" height="200" rx="12"/>
    </clipPath>
  </defs>

  <rect width="100%" height="100%" fill="url(#carbonFiber)" rx="12" stroke="#39FF14" stroke-width="1" stroke-opacity="0.3"/>
  <rect width="100%" height="100%" fill="#000000" opacity="0.6" rx="12" />
  <g><polygon points="836,-4 844.6,1 844.6,11 836,16 827.4,11 827.4,1" fill="none" stroke="#39FF14" stroke-width="1" opacity="0.06825215831417888"/>
<polygon points="38,149 46.6,154 46.6,164 38,169 29.4,164 29.4,154" fill="none" stroke="#39FF14" stroke-width="1" opacity="0.029329802864094725"/>
<polygon points="516,5 524.6,10 524.6,20 516,25 507.4,20 507.4,10" fill="none" stroke="#39FF14" stroke-width="1" opacity="0.045176489696140264"/>
<polygon points="546,7 554.6,12 554.6,22 546,27 537.4,22 537.4,12" fill="none" stroke="#39FF14" stroke-width="1" opacity="0.051893850116779855"/>
<polygon points="279,162 287.6,167 287.6,177 279,182 270.4,177 270.4,167" fill="none" stroke="#39FF14" stroke-width="1" opacity="0.0464928778902087"/>
<polygon points="123,173 131.6,178 131.6,188 123,193 114.4,188 114.4,178" fill="none" stroke="#39FF14" stroke-width="1" opacity="0.06405204988657112"/>
<polygon points="129,96 137.6,101 137.6,111 129,116 120.4,111 120.4,101" fill="none" stroke="#39FF14" stroke-width="1" opacity="0.07593664916082034"/>
<polygon points="74,31 82.6,36 82.6,46 74,51 65.4,46 65.4,36" fill="none" stroke="#39FF14" stroke-width="1" opacity="0.05522578423693658"/>
<polygon points="98,136 106.6,141 106.6,151 98,156 89.4,151 89.4,141" fill="none" stroke="#39FF14" stroke-width="1" opacity="0.03031231874893545"/>
<polygon points="421,58 429.6,63 429.6,73 421,78 412.4,73 412.4,63" fill="none" stroke="#39FF14" stroke-width="1" opacity="0.05172501111311499"/>
<polygon points="835,147 843.6,152 843.6,162 835,167 826.4,162 826.4,152" fill="none" stroke="#39FF14" stroke-width="1" opacity="0.023365671114844666"/>
<polygon points="376,127 384.6,132 384.6,142 376,147 367.4,142 367.4,132" fill="none" stroke="#39FF14" stroke-width="1" opacity="0.03735036766708926"/>
<polygon points="141,65 149.6,70 149.6,80 141,85 132.4,80 132.4,70" fill="none" stroke="#39FF14" stroke-width="1" opacity="0.061411325204080616"/>
<polygon points="611,51 619.6,56 619.6,66 611,71 602.4,66 602.4,56" fill="none" stroke="#39FF14" stroke-width="1" opacity="0.033081908224997084"/>
<polygon points="83,177 91.6,182 91.6,192 83,197 74.4,192 74.4,182" fill="none" stroke="#39FF14" stroke-width="1" opacity="0.052856315456732444"/>
<polygon points="337,164 345.6,169 345.6,179 337,184 328.4,179 328.4,169" fill="none" stroke="#39FF14" stroke-width="1" opacity="0.060349665004476055"/>
<polygon points="376,24 384.6,29 384.6,39 376,44 367.4,39 367.4,29" fill="none" stroke="#39FF14" stroke-width="1" opacity="0.04735605920858161"/>
<polygon points="634,28 642.6,33 642.6,43 634,48 625.4,43 625.4,33" fill="none" stroke="#39FF14" stroke-width="1" opacity="0.052071768551453665"/>
<polygon points="364,33 372.6,38 372.6,48 364,53 355.4,48 355.4,38" fill="none" stroke="#39FF14" stroke-width="1" opacity="0.04364016073791592"/>
<polygon points="19,107 27.6,112 27.6,122 19,127 10.4,122 10.4,112" fill="none" stroke="#39FF14" stroke-width="1" opacity="0.0741015707005803"/>
<polygon points="640,106 648.6,111 648.6,121 640,126 631.4,121 631.4,111" fill="none" stroke="#39FF14" stroke-width="1" opacity="0.04051125553878772"/>
<polygon points="179,30 187.6,35 187.6,45 179,50 170.4,45 170.4,35" fill="none" stroke="#39FF14" stroke-width="1" opacity="0.02117945821484337"/>
<polygon points="278,12 286.6,17 286.6,27 278,32 269.4,27 269.4,17" fill="none" stroke="#39FF14" stroke-width="1" opacity="0.05444582276732961"/>
<polygon points="530,176 538.6,181 538.6,191 530,196 521.4,191 521.4,181" fill="none" stroke="#39FF14" stroke-width="1" opacity="0.04418130865321826"/>
<polygon points="618,77 626.6,82 626.6,92 618,97 609.4,92 609.4,82" fill="none" stroke="#39FF14" stroke-width="1" opacity="0.03616540414162957"/>
<polygon points="95,120 103.6,125 103.6,135 95,140 86.4,135 86.4,125" fill="none" stroke="#39FF14" stroke-width="1" opacity="0.04572494917805099"/>
<polygon points="692,74 700.6,79 700.6,89 692,94 683.4,89 683.4,79" fill="none" stroke="#39FF14" stroke-width="1" opacity="0.06396961632924084"/>
<polygon points="147,162 155.6,167 155.6,177 147,182 138.4,177 138.4,167" fill="none" stroke="#39FF14" stroke-width="1" opacity="0.0707920670165907"/>
<polygon points="320,50 328.6,55 328.6,65 320,70 311.4,65 311.4,55" fill="none" stroke="#39FF14" stroke-width="1" opacity="0.02378995472561718"/>
<polygon points="258,43 266.6,48 266.6,58 258,63 249.4,58 249.4,48" fill="none" stroke="#39FF14" stroke-width="1" opacity="0.05081157235719472"/>
</g>

  <!-- HUD Decorative elements -->
  <path d="M 20 20 L 40 20 L 50 30" fill="none" stroke="#39FF14" stroke-width="2" opacity="0.5"/>
  <path d="M 830 180 L 810 180 L 800 170" fill="none" stroke="#39FF14" stroke-width="2" opacity="0.5"/>

  <g clip-path="url(#dashClip)">
    <rect x="-160" y="0" width="160" height="200" fill="url(#scanlineGrad)">
      <animateTransform attributeName="transform" type="translate"
                        from="0 0" to="1010 0" dur="6s" repeatCount="indefinite"/>
    </rect>
  </g>

  <g font-family="'Consolas', 'Fira Code', monospace" text-anchor="middle">

    <!-- NETWORK STATUS -->
    <g transform="translate(130, 100)">
        <circle cx="0" cy="0" r="45" fill="none" stroke="#39FF14" stroke-width="2" stroke-dasharray="10 5">
            <animateTransform attributeName="transform" type="rotate" from="0" to="360" dur="10s" repeatCount="indefinite"/>
        </circle>
        <circle cx="0" cy="0" r="35" fill="#0d0d0d" />
        <text x="0" y="-60" font-size="12" fill="#aaaaaa" letter-spacing="2">ROOT.AUTH</text>
        <text x="0" y="70" font-size="14" fill="#ffffff" font-weight="bold">OPERATIONAL</text>
    </g>

    <!-- ACTIVE USERS -->
    <g transform="translate(330, 100)">
        <text x="0" y="-20" font-size="12" fill="#aaaaaa">CITIZENS</text>
        <text x="0" y="15" font-size="28" fill="#ffffff" font-weight="bold" filter="url(#textGlow)">15,308</text>
        <text x="0" y="35" font-size="10" fill="#777777">VERIFIED HUMANS</text>
    </g>

    <!-- REGISTERED AGENTS -->
    <g transform="translate(530, 100)">
        <text x="0" y="-20" font-size="12" fill="#aaaaaa">AGENTS</text>
        <text x="0" y="15" font-size="28" fill="#00d4ff" font-weight="bold" filter="url(#textGlow)">3,565</text>
        <text x="0" y="35" font-size="10" fill="#777777">REGISTERED DIDs</text>
    </g>

    <!-- TRANSACTIONS -->
    <g transform="translate(730, 100)">
        <text x="0" y="-20" font-size="12" fill="#aaaaaa">TRANSFERS</text>
        <text x="0" y="15" font-size="28" fill="#ffffff" font-weight="bold">31,525</text>
        <text x="0" y="35" font-size="10" fill="#777777">M2M SETTLEMENTS</text>
    </g>
  </g>

  <text x="425" y="185" font-family="'Consolas', 'Fira Code', monospace" font-size="10" fill="#aaaaaa" opacity="0.6" text-anchor="middle">AXIOMID PROJECTED TARGETS (ILLUSTRATIVE): 2026-07-05 18:39:40 UTC // SECURE_HANDSHAKE</text>
</svg>