<svg width="850" height="200" viewBox="0 0 850 200" xmlns="http://www.w3.org/2000/svg">
  <defs>
    <pattern id="carbonFiber" width="10" height="10" patternUnits="userSpaceOnUse">
        <rect width="10" height="10" fill="#050505"/>
        <path d="M0,0 L5,5 L10,0 L5,-5 Z M5,5 L10,10 L15,5 L10,0 Z M-5,5 L0,10 L5,5 L0,0 Z M0,10 L5,15 L10,10 L5,5 Z" fill="#0d0d0d"/>
    </pattern>
    <filter id="textGlow">
      <feGaussianBlur stdDeviation="2" result="blur" />
      <feMerge>
        <feMergeNode in="blur"/>
        <feMergeNode in="SourceGraphic"/>
      </feMerge>
    </filter>
    <linearGradient id="neonBar" x1="0%" y1="0%" x2="100%" y2="0%">
        <stop offset="0%" stop-color="#111111"/>
        <stop offset="100%" stop-color="#39FF14"/>
    </linearGradient>
    <linearGradient id="scanlineGrad" x1="0%" y1="0%" x2="100%" y2="0%">
        <stop offset="0%" stop-color="#39FF14" stop-opacity="0"/>
        <stop offset="50%" stop-color="#39FF14" stop-opacity="0.18"/>
        <stop offset="100%" stop-color="#39FF14" stop-opacity="0"/>
    </linearGradient>
    <clipPath id="dashClip">
        <rect x="0" y="0" width="850" height="200" rx="12"/>
    </clipPath>
  </defs>

  <rect width="100%" height="100%" fill="url(#carbonFiber)" rx="12" stroke="#39FF14" stroke-width="1" stroke-opacity="0.3"/>
  <rect width="100%" height="100%" fill="#000000" opacity="0.6" rx="12" />
  <g><polygon points="242,55 250.6,60 250.6,70 242,75 233.4,70 233.4,60" fill="none" stroke="#39FF14" stroke-width="1" opacity="0.0693689485852526"/>
<polygon points="161,66 169.6,71 169.6,81 161,86 152.4,81 152.4,71" fill="none" stroke="#39FF14" stroke-width="1" opacity="0.065354479872994"/>
<polygon points="103,107 111.6,112 111.6,122 103,127 94.4,122 94.4,112" fill="none" stroke="#39FF14" stroke-width="1" opacity="0.06749032962387298"/>
<polygon points="841,135 849.6,140 849.6,150 841,155 832.4,150 832.4,140" fill="none" stroke="#39FF14" stroke-width="1" opacity="0.06641159920094437"/>
<polygon points="462,149 470.6,154 470.6,164 462,169 453.4,164 453.4,154" fill="none" stroke="#39FF14" stroke-width="1" opacity="0.06368328897036139"/>
<polygon points="441,173 449.6,178 449.6,188 441,193 432.4,188 432.4,178" fill="none" stroke="#39FF14" stroke-width="1" opacity="0.04639632260262849"/>
<polygon points="43,127 51.6,132 51.6,142 43,147 34.4,142 34.4,132" fill="none" stroke="#39FF14" stroke-width="1" opacity="0.035501408550033864"/>
<polygon points="237,68 245.6,73 245.6,83 237,88 228.4,83 228.4,73" fill="none" stroke="#39FF14" stroke-width="1" opacity="0.04115717960459144"/>
<polygon points="383,82 391.6,87 391.6,97 383,102 374.4,97 374.4,87" fill="none" stroke="#39FF14" stroke-width="1" opacity="0.07417472984479138"/>
<polygon points="278,125 286.6,130 286.6,140 278,145 269.4,140 269.4,130" fill="none" stroke="#39FF14" stroke-width="1" opacity="0.04660464928028136"/>
<polygon points="540,103 548.6,108 548.6,118 540,123 531.4,118 531.4,108" fill="none" stroke="#39FF14" stroke-width="1" opacity="0.021319505319986637"/>
<polygon points="658,180 666.6,185 666.6,195 658,200 649.4,195 649.4,185" fill="none" stroke="#39FF14" stroke-width="1" opacity="0.07793682185767996"/>
<polygon points="731,150 739.6,155 739.6,165 731,170 722.4,165 722.4,155" fill="none" stroke="#39FF14" stroke-width="1" opacity="0.048961060242083784"/>
<polygon points="384,79 392.6,84 392.6,94 384,99 375.4,94 375.4,84" fill="none" stroke="#39FF14" stroke-width="1" opacity="0.03097646683451903"/>
<polygon points="89,37 97.6,42 97.6,52 89,57 80.4,52 80.4,42" fill="none" stroke="#39FF14" stroke-width="1" opacity="0.0351716870700646"/>
<polygon points="779,89 787.6,94 787.6,104 779,109 770.4,104 770.4,94" fill="none" stroke="#39FF14" stroke-width="1" opacity="0.036898011756577254"/>
<polygon points="825,115 833.6,120 833.6,130 825,135 816.4,130 816.4,120" fill="none" stroke="#39FF14" stroke-width="1" opacity="0.05691884748071782"/>
<polygon points="115,71 123.6,76 123.6,86 115,91 106.4,86 106.4,76" fill="none" stroke="#39FF14" stroke-width="1" opacity="0.021665233182522316"/>
<polygon points="279,171 287.6,176 287.6,186 279,191 270.4,186 270.4,176" fill="none" stroke="#39FF14" stroke-width="1" opacity="0.07900752768522479"/>
<polygon points="787,172 795.6,177 795.6,187 787,192 778.4,187 778.4,177" fill="none" stroke="#39FF14" stroke-width="1" opacity="0.0663461435493407"/>
<polygon points="162,96 170.6,101 170.6,111 162,116 153.4,111 153.4,101" fill="none" stroke="#39FF14" stroke-width="1" opacity="0.07692873492254575"/>
<polygon points="712,94 720.6,99 720.6,109 712,114 703.4,109 703.4,99" fill="none" stroke="#39FF14" stroke-width="1" opacity="0.04437101775788167"/>
<polygon points="345,99 353.6,104 353.6,114 345,119 336.4,114 336.4,104" fill="none" stroke="#39FF14" stroke-width="1" opacity="0.022161567565094624"/>
<polygon points="792,160 800.6,165 800.6,175 792,180 783.4,175 783.4,165" fill="none" stroke="#39FF14" stroke-width="1" opacity="0.07987173221580506"/>
<polygon points="318,77 326.6,82 326.6,92 318,97 309.4,92 309.4,82" fill="none" stroke="#39FF14" stroke-width="1" opacity="0.04878222524559688"/>
<polygon points="113,0 121.6,5 121.6,15 113,20 104.4,15 104.4,5" fill="none" stroke="#39FF14" stroke-width="1" opacity="0.06256385729893667"/>
<polygon points="100,97 108.6,102 108.6,112 100,117 91.4,112 91.4,102" fill="none" stroke="#39FF14" stroke-width="1" opacity="0.0711246946831384"/>
<polygon points="490,12 498.6,17 498.6,27 490,32 481.4,27 481.4,17" fill="none" stroke="#39FF14" stroke-width="1" opacity="0.04349927618956126"/>
<polygon points="24,8 32.6,13 32.6,23 24,28 15.4,23 15.4,13" fill="none" stroke="#39FF14" stroke-width="1" opacity="0.07520275630561224"/>
<polygon points="572,100 580.6,105 580.6,115 572,120 563.4,115 563.4,105" fill="none" stroke="#39FF14" stroke-width="1" opacity="0.06116962491084976"/>
</g>

  <!-- HUD Decorative elements -->
  <path d="M 20 20 L 40 20 L 50 30" fill="none" stroke="#39FF14" stroke-width="2" opacity="0.5"/>
  <path d="M 830 180 L 810 180 L 800 170" fill="none" stroke="#39FF14" stroke-width="2" opacity="0.5"/>

  <g clip-path="url(#dashClip)">
    <rect x="-160" y="0" width="160" height="200" fill="url(#scanlineGrad)">
      <animateTransform attributeName="transform" type="translate"
                        from="0 0" to="1010 0" dur="6s" repeatCount="indefinite"/>
    </rect>
  </g>

  <g font-family="'Consolas', 'Fira Code', monospace" text-anchor="middle">

    <!-- NETWORK STATUS -->
    <g transform="translate(130, 100)">
        <circle cx="0" cy="0" r="45" fill="none" stroke="#39FF14" stroke-width="2" stroke-dasharray="10 5">
            <animateTransform attributeName="transform" type="rotate" from="0" to="360" dur="10s" repeatCount="indefinite"/>
        </circle>
        <circle cx="0" cy="0" r="35" fill="#0d0d0d" />
        <text x="0" y="-60" font-size="12" fill="#aaaaaa" letter-spacing="2">ROOT.AUTH</text>
        <text x="0" y="70" font-size="14" fill="#ffffff" font-weight="bold">OPERATIONAL</text>
    </g>

    <!-- ACTIVE USERS -->
    <g transform="translate(330, 100)">
        <text x="0" y="-20" font-size="12" fill="#aaaaaa">CITIZENS</text>
        <text x="0" y="15" font-size="28" fill="#ffffff" font-weight="bold" filter="url(#textGlow)">14,722</text>
        <text x="0" y="35" font-size="10" fill="#777777">VERIFIED HUMANS</text>
    </g>

    <!-- REGISTERED AGENTS -->
    <g transform="translate(530, 100)">
        <text x="0" y="-20" font-size="12" fill="#aaaaaa">AGENTS</text>
        <text x="0" y="15" font-size="28" fill="#00d4ff" font-weight="bold" filter="url(#textGlow)">4,391</text>
        <text x="0" y="35" font-size="10" fill="#777777">REGISTERED DIDs</text>
    </g>

    <!-- TRANSACTIONS -->
    <g transform="translate(730, 100)">
        <text x="0" y="-20" font-size="12" fill="#aaaaaa">TRANSFERS</text>
        <text x="0" y="15" font-size="28" fill="#ffffff" font-weight="bold">28,241</text>
        <text x="0" y="35" font-size="10" fill="#777777">M2M SETTLEMENTS</text>
    </g>
  </g>

  <text x="425" y="185" font-family="'Consolas', 'Fira Code', monospace" font-size="10" fill="#aaaaaa" opacity="0.6" text-anchor="middle">AXIOMID PROJECTED TARGETS (ILLUSTRATIVE): 2026-07-21 03:12:27 UTC // SECURE_HANDSHAKE</text>
</svg>