<svg width="850" height="200" viewBox="0 0 850 200" xmlns="http://www.w3.org/2000/svg">
  <defs>
    <!-- Carbon Fiber Pattern -->
    <pattern id="carbonFiber" width="10" height="10" patternUnits="userSpaceOnUse">
        <rect width="10" height="10" fill="#050505"/>
        <path d="M0,0 L5,5 L10,0 L5,-5 Z M5,5 L10,10 L15,5 L10,0 Z M-5,5 L0,10 L5,5 L0,0 Z M0,10 L5,15 L10,10 L5,5 Z" fill="#0d0d0d"/>
    </pattern>
    <filter id="glassmorphism">
      <feGaussianBlur stdDeviation="3" result="blur" />
      <feColorMatrix type="matrix" values="1 0 0 0 0  0 1 0 0 0  0 0 1 0 0  0 0 0 18 -7" result="glow" />
      <feBlend in="SourceGraphic" in2="glow" mode="normal" />
    </filter>
    <filter id="textGlow">
      <feGaussianBlur stdDeviation="2" result="blur" />
      <feMerge>
        <feMergeNode in="blur"/>
        <feMergeNode in="SourceGraphic"/>
      </feMerge>
    </filter>
    <linearGradient id="neonBar" x1="0%" y1="0%" x2="100%" y2="0%">
        <stop offset="0%" stop-color="#111111"/>
        <stop offset="100%" stop-color="#39FF14"/>
    </linearGradient>
  </defs>

  <rect width="100%" height="100%" fill="url(#carbonFiber)" rx="12" stroke="#39FF14" stroke-width="1" stroke-opacity="0.3"/>
  <rect width="100%" height="100%" fill="#000000" opacity="0.6" rx="12" />
  <g><polygon points="692,140 700.6,145 700.6,155 692,160 683.4,155 683.4,145" fill="none" stroke="#39FF14" stroke-width="1" opacity="0.06386064930255723"/>
<polygon points="579,142 587.6,147 587.6,157 579,162 570.4,157 570.4,147" fill="none" stroke="#39FF14" stroke-width="1" opacity="0.0627977959905548"/>
<polygon points="398,171 406.6,176 406.6,186 398,191 389.4,186 389.4,176" fill="none" stroke="#39FF14" stroke-width="1" opacity="0.02512724613747112"/>
<polygon points="482,130 490.6,135 490.6,145 482,150 473.4,145 473.4,135" fill="none" stroke="#39FF14" stroke-width="1" opacity="0.021290569428122734"/>
<polygon points="75,170 83.6,175 83.6,185 75,190 66.4,185 66.4,175" fill="none" stroke="#39FF14" stroke-width="1" opacity="0.046117359316738715"/>
<polygon points="612,60 620.6,65 620.6,75 612,80 603.4,75 603.4,65" fill="none" stroke="#39FF14" stroke-width="1" opacity="0.03444145811696632"/>
<polygon points="244,108 252.6,113 252.6,123 244,128 235.4,123 235.4,113" fill="none" stroke="#39FF14" stroke-width="1" opacity="0.05600706668234279"/>
<polygon points="322,48 330.6,53 330.6,63 322,68 313.4,63 313.4,53" fill="none" stroke="#39FF14" stroke-width="1" opacity="0.07948468514947976"/>
<polygon points="635,100 643.6,105 643.6,115 635,120 626.4,115 626.4,105" fill="none" stroke="#39FF14" stroke-width="1" opacity="0.022242308743519144"/>
<polygon points="89,27 97.6,32 97.6,42 89,47 80.4,42 80.4,32" fill="none" stroke="#39FF14" stroke-width="1" opacity="0.03858064836017837"/>
<polygon points="142,167 150.6,172 150.6,182 142,187 133.4,182 133.4,172" fill="none" stroke="#39FF14" stroke-width="1" opacity="0.0491890082021604"/>
<polygon points="560,12 568.6,17 568.6,27 560,32 551.4,27 551.4,17" fill="none" stroke="#39FF14" stroke-width="1" opacity="0.05290600664330525"/>
<polygon points="48,125 56.6,130 56.6,140 48,145 39.4,140 39.4,130" fill="none" stroke="#39FF14" stroke-width="1" opacity="0.04420108195468701"/>
<polygon points="791,38 799.6,43 799.6,53 791,58 782.4,53 782.4,43" fill="none" stroke="#39FF14" stroke-width="1" opacity="0.03935257413460623"/>
<polygon points="715,130 723.6,135 723.6,145 715,150 706.4,145 706.4,135" fill="none" stroke="#39FF14" stroke-width="1" opacity="0.05400072703285043"/>
<polygon points="633,185 641.6,190 641.6,200 633,205 624.4,200 624.4,190" fill="none" stroke="#39FF14" stroke-width="1" opacity="0.07288813622767269"/>
<polygon points="672,93 680.6,98 680.6,108 672,113 663.4,108 663.4,98" fill="none" stroke="#39FF14" stroke-width="1" opacity="0.04051577945237948"/>
<polygon points="101,82 109.6,87 109.6,97 101,102 92.4,97 92.4,87" fill="none" stroke="#39FF14" stroke-width="1" opacity="0.04026706811511835"/>
<polygon points="456,5 464.6,10 464.6,20 456,25 447.4,20 447.4,10" fill="none" stroke="#39FF14" stroke-width="1" opacity="0.05308667002042593"/>
<polygon points="390,-1 398.6,4 398.6,14 390,19 381.4,14 381.4,4" fill="none" stroke="#39FF14" stroke-width="1" opacity="0.060891105290200725"/>
<polygon points="641,40 649.6,45 649.6,55 641,60 632.4,55 632.4,45" fill="none" stroke="#39FF14" stroke-width="1" opacity="0.02330575864794596"/>
<polygon points="96,66 104.6,71 104.6,81 96,86 87.4,81 87.4,71" fill="none" stroke="#39FF14" stroke-width="1" opacity="0.057766132971791936"/>
<polygon points="265,70 273.6,75 273.6,85 265,90 256.4,85 256.4,75" fill="none" stroke="#39FF14" stroke-width="1" opacity="0.03986822935385977"/>
<polygon points="412,37 420.6,42 420.6,52 412,57 403.4,52 403.4,42" fill="none" stroke="#39FF14" stroke-width="1" opacity="0.056580111973452696"/>
<polygon points="525,25 533.6,30 533.6,40 525,45 516.4,40 516.4,30" fill="none" stroke="#39FF14" stroke-width="1" opacity="0.046087493745183575"/>
<polygon points="248,0 256.6,5 256.6,15 248,20 239.4,15 239.4,5" fill="none" stroke="#39FF14" stroke-width="1" opacity="0.07006556142951152"/>
<polygon points="749,-6 757.6,-1 757.6,9 749,14 740.4,9 740.4,-1" fill="none" stroke="#39FF14" stroke-width="1" opacity="0.07806415585926993"/>
<polygon points="788,139 796.6,144 796.6,154 788,159 779.4,154 779.4,144" fill="none" stroke="#39FF14" stroke-width="1" opacity="0.025565212336277236"/>
<polygon points="484,89 492.6,94 492.6,104 484,109 475.4,104 475.4,94" fill="none" stroke="#39FF14" stroke-width="1" opacity="0.06611150816250543"/>
<polygon points="109,79 117.6,84 117.6,94 109,99 100.4,94 100.4,84" fill="none" stroke="#39FF14" stroke-width="1" opacity="0.04336701621510142"/>
</g>

  <!-- HUD Decorative elements -->
  <path d="M 20 20 L 40 20 L 50 30" fill="none" stroke="#39FF14" stroke-width="2" opacity="0.5"/>
  <path d="M 830 180 L 810 180 L 800 170" fill="none" stroke="#39FF14" stroke-width="2" opacity="0.5"/>
  <rect x="20" y="100" width="2" height="40" fill="#ffffff" opacity="0.4"/>
  <rect x="828" y="60" width="2" height="40" fill="#39FF14" opacity="0.6"/>

  <g font-family="'Consolas', 'Fira Code', monospace" text-anchor="middle">

    <!-- SYSTEM STATUS -->
    <g transform="translate(130, 100)">
        <circle cx="0" cy="0" r="45" fill="none" stroke="#111111" stroke-width="8" />
        <circle cx="0" cy="0" r="45" fill="none" stroke="#39FF14" stroke-width="2" stroke-dasharray="10 5">
            <animateTransform attributeName="transform" type="rotate" from="0" to="360" dur="10s" repeatCount="indefinite"/>
        </circle>
        <circle cx="0" cy="0" r="35" fill="#0d0d0d" />
        <circle cx="0" cy="0" r="6" fill="#39FF14" filter="url(#textGlow)">
            <animate attributeName="opacity" values="1;0.3;1" dur="2s" repeatCount="indefinite"/>
        </circle>
        <text x="0" y="-60" font-size="12" fill="#aaaaaa" letter-spacing="2">SYS.CORE</text>
        <text x="0" y="70" font-size="14" fill="#ffffff" font-weight="bold">ONLINE</text>
    </g>

    <!-- LIVE TRAFFIC -->
    <g transform="translate(330, 100)">
        <rect x="-60" y="-45" width="120" height="90" fill="#0a0a0a" rx="8" stroke="#39FF14" stroke-opacity="0.4" stroke-width="1"/>
        <text x="0" y="-20" font-size="12" fill="#aaaaaa">NETWORK LOAD</text>
        <text x="0" y="15" font-size="28" fill="#ffffff" font-weight="bold" filter="url(#textGlow)">4948</text>
        <text x="0" y="35" font-size="10" fill="#777777">ACTIVE SESSIONS</text>
    </g>

    <!-- ACTIVE AGENTS -->
    <g transform="translate(530, 100)">
        <rect x="-60" y="-45" width="120" height="90" fill="#0a0a0a" rx="8" stroke="#39FF14" stroke-opacity="0.4" stroke-width="1"/>
        <text x="0" y="-20" font-size="12" fill="#aaaaaa">SWARM ENTITIES</text>
        <text x="0" y="15" font-size="28" fill="#ffffff" font-weight="bold" filter="url(#textGlow)">126</text>
        <text x="0" y="35" font-size="10" fill="#777777">AUTONOMOUS</text>
    </g>

    <!-- UPTIME -->
    <g transform="translate(730, 100)">
        <path d="M -40 -35 L 40 -35 L 50 -25 L 50 35 L -40 35 L -50 25 Z" fill="#0a0a0a" stroke="#39FF14" stroke-opacity="0.4" stroke-width="1"/>
        <text x="0" y="-15" font-size="12" fill="#aaaaaa">CONTINUITY</text>
        <text x="0" y="15" font-size="24" fill="#ffffff" font-weight="bold">269<tspan font-size="14" fill="#777777">d</tspan></text>
        <rect x="-35" y="25" width="70" height="4" fill="url(#neonBar)" rx="2"/>
    </g>
  </g>

  <text x="425" y="185" font-family="'Consolas', 'Fira Code', monospace" font-size="10" fill="#aaaaaa" opacity="0.6" text-anchor="middle">LAST TELEMETRY PING: 2026-04-28 00:49:56 UTC // ENCRYPTED_TUNNEL</text>
</svg>