<svg width="850" height="200" viewBox="0 0 850 200" xmlns="http://www.w3.org/2000/svg">
  <defs>
    <!-- Carbon Fiber Pattern -->
    <pattern id="carbonFiber" width="10" height="10" patternUnits="userSpaceOnUse">
        <rect width="10" height="10" fill="#050505"/>
        <path d="M0,0 L5,5 L10,0 L5,-5 Z M5,5 L10,10 L15,5 L10,0 Z M-5,5 L0,10 L5,5 L0,0 Z M0,10 L5,15 L10,10 L5,5 Z" fill="#0d0d0d"/>
    </pattern>
    <filter id="glassmorphism">
      <feGaussianBlur stdDeviation="3" result="blur" />
      <feColorMatrix type="matrix" values="1 0 0 0 0  0 1 0 0 0  0 0 1 0 0  0 0 0 18 -7" result="glow" />
      <feBlend in="SourceGraphic" in2="glow" mode="normal" />
    </filter>
    <filter id="textGlow">
      <feGaussianBlur stdDeviation="2" result="blur" />
      <feMerge>
        <feMergeNode in="blur"/>
        <feMergeNode in="SourceGraphic"/>
      </feMerge>
    </filter>
    <linearGradient id="neonBar" x1="0%" y1="0%" x2="100%" y2="0%">
        <stop offset="0%" stop-color="#111111"/>
        <stop offset="100%" stop-color="#39FF14"/>
    </linearGradient>
  </defs>

  <rect width="100%" height="100%" fill="url(#carbonFiber)" rx="12" stroke="#39FF14" stroke-width="1" stroke-opacity="0.3"/>
  <rect width="100%" height="100%" fill="#000000" opacity="0.6" rx="12" />
  <g><polygon points="739,189 747.6,194 747.6,204 739,209 730.4,204 730.4,194" fill="none" stroke="#39FF14" stroke-width="1" opacity="0.032457650486056054"/>
<polygon points="89,119 97.6,124 97.6,134 89,139 80.4,134 80.4,124" fill="none" stroke="#39FF14" stroke-width="1" opacity="0.05257216380568423"/>
<polygon points="365,19 373.6,24 373.6,34 365,39 356.4,34 356.4,24" fill="none" stroke="#39FF14" stroke-width="1" opacity="0.03768759581375813"/>
<polygon points="730,25 738.6,30 738.6,40 730,45 721.4,40 721.4,30" fill="none" stroke="#39FF14" stroke-width="1" opacity="0.0358057854607792"/>
<polygon points="743,2 751.6,7 751.6,17 743,22 734.4,17 734.4,7" fill="none" stroke="#39FF14" stroke-width="1" opacity="0.06663367371087502"/>
<polygon points="40,149 48.6,154 48.6,164 40,169 31.4,164 31.4,154" fill="none" stroke="#39FF14" stroke-width="1" opacity="0.06873916933070268"/>
<polygon points="759,40 767.6,45 767.6,55 759,60 750.4,55 750.4,45" fill="none" stroke="#39FF14" stroke-width="1" opacity="0.03299610345128728"/>
<polygon points="623,134 631.6,139 631.6,149 623,154 614.4,149 614.4,139" fill="none" stroke="#39FF14" stroke-width="1" opacity="0.06499468113231062"/>
<polygon points="392,115 400.6,120 400.6,130 392,135 383.4,130 383.4,120" fill="none" stroke="#39FF14" stroke-width="1" opacity="0.059620257409057895"/>
<polygon points="334,106 342.6,111 342.6,121 334,126 325.4,121 325.4,111" fill="none" stroke="#39FF14" stroke-width="1" opacity="0.06393008193954307"/>
<polygon points="211,123 219.6,128 219.6,138 211,143 202.4,138 202.4,128" fill="none" stroke="#39FF14" stroke-width="1" opacity="0.030080264560969572"/>
<polygon points="277,182 285.6,187 285.6,197 277,202 268.4,197 268.4,187" fill="none" stroke="#39FF14" stroke-width="1" opacity="0.0526876074395658"/>
<polygon points="590,81 598.6,86 598.6,96 590,101 581.4,96 581.4,86" fill="none" stroke="#39FF14" stroke-width="1" opacity="0.035616005159525024"/>
<polygon points="77,185 85.6,190 85.6,200 77,205 68.4,200 68.4,190" fill="none" stroke="#39FF14" stroke-width="1" opacity="0.07090102814756474"/>
<polygon points="560,36 568.6,41 568.6,51 560,56 551.4,51 551.4,41" fill="none" stroke="#39FF14" stroke-width="1" opacity="0.03802049751011921"/>
<polygon points="667,189 675.6,194 675.6,204 667,209 658.4,204 658.4,194" fill="none" stroke="#39FF14" stroke-width="1" opacity="0.02378119930088519"/>
<polygon points="174,145 182.6,150 182.6,160 174,165 165.4,160 165.4,150" fill="none" stroke="#39FF14" stroke-width="1" opacity="0.02837743198328757"/>
<polygon points="312,148 320.6,153 320.6,163 312,168 303.4,163 303.4,153" fill="none" stroke="#39FF14" stroke-width="1" opacity="0.03159783406516154"/>
<polygon points="594,62 602.6,67 602.6,77 594,82 585.4,77 585.4,67" fill="none" stroke="#39FF14" stroke-width="1" opacity="0.07054981993215717"/>
<polygon points="261,136 269.6,141 269.6,151 261,156 252.4,151 252.4,141" fill="none" stroke="#39FF14" stroke-width="1" opacity="0.0435626070160821"/>
<polygon points="719,122 727.6,127 727.6,137 719,142 710.4,137 710.4,127" fill="none" stroke="#39FF14" stroke-width="1" opacity="0.026847660817956167"/>
<polygon points="178,91 186.6,96 186.6,106 178,111 169.4,106 169.4,96" fill="none" stroke="#39FF14" stroke-width="1" opacity="0.020129251199489575"/>
<polygon points="435,76 443.6,81 443.6,91 435,96 426.4,91 426.4,81" fill="none" stroke="#39FF14" stroke-width="1" opacity="0.027460987519991924"/>
<polygon points="738,62 746.6,67 746.6,77 738,82 729.4,77 729.4,67" fill="none" stroke="#39FF14" stroke-width="1" opacity="0.07342132032976882"/>
<polygon points="555,5 563.6,10 563.6,20 555,25 546.4,20 546.4,10" fill="none" stroke="#39FF14" stroke-width="1" opacity="0.045670696449870055"/>
<polygon points="433,42 441.6,47 441.6,57 433,62 424.4,57 424.4,47" fill="none" stroke="#39FF14" stroke-width="1" opacity="0.05626173574150972"/>
<polygon points="458,4 466.6,9 466.6,19 458,24 449.4,19 449.4,9" fill="none" stroke="#39FF14" stroke-width="1" opacity="0.02410040456156433"/>
<polygon points="297,60 305.6,65 305.6,75 297,80 288.4,75 288.4,65" fill="none" stroke="#39FF14" stroke-width="1" opacity="0.02155766774766507"/>
<polygon points="742,43 750.6,48 750.6,58 742,63 733.4,58 733.4,48" fill="none" stroke="#39FF14" stroke-width="1" opacity="0.05854673563342845"/>
<polygon points="771,100 779.6,105 779.6,115 771,120 762.4,115 762.4,105" fill="none" stroke="#39FF14" stroke-width="1" opacity="0.045759319890319505"/>
</g>

  <!-- HUD Decorative elements -->
  <path d="M 20 20 L 40 20 L 50 30" fill="none" stroke="#39FF14" stroke-width="2" opacity="0.5"/>
  <path d="M 830 180 L 810 180 L 800 170" fill="none" stroke="#39FF14" stroke-width="2" opacity="0.5"/>
  <rect x="20" y="100" width="2" height="40" fill="#ffffff" opacity="0.4"/>
  <rect x="828" y="60" width="2" height="40" fill="#39FF14" opacity="0.6"/>

  <g font-family="'Consolas', 'Fira Code', monospace" text-anchor="middle">

    <!-- SYSTEM STATUS -->
    <g transform="translate(130, 100)">
        <circle cx="0" cy="0" r="45" fill="none" stroke="#111111" stroke-width="8" />
        <circle cx="0" cy="0" r="45" fill="none" stroke="#39FF14" stroke-width="2" stroke-dasharray="10 5">
            <animateTransform attributeName="transform" type="rotate" from="0" to="360" dur="10s" repeatCount="indefinite"/>
        </circle>
        <circle cx="0" cy="0" r="35" fill="#0d0d0d" />
        <circle cx="0" cy="0" r="6" fill="#39FF14" filter="url(#textGlow)">
            <animate attributeName="opacity" values="1;0.3;1" dur="2s" repeatCount="indefinite"/>
        </circle>
        <text x="0" y="-60" font-size="12" fill="#aaaaaa" letter-spacing="2">SYS.CORE</text>
        <text x="0" y="70" font-size="14" fill="#ffffff" font-weight="bold">ONLINE</text>
    </g>

    <!-- LIVE TRAFFIC -->
    <g transform="translate(330, 100)">
        <rect x="-60" y="-45" width="120" height="90" fill="#0a0a0a" rx="8" stroke="#39FF14" stroke-opacity="0.4" stroke-width="1"/>
        <text x="0" y="-20" font-size="12" fill="#aaaaaa">NETWORK LOAD</text>
        <text x="0" y="15" font-size="28" fill="#ffffff" font-weight="bold" filter="url(#textGlow)">6609</text>
        <text x="0" y="35" font-size="10" fill="#777777">ACTIVE SESSIONS</text>
    </g>

    <!-- ACTIVE AGENTS -->
    <g transform="translate(530, 100)">
        <rect x="-60" y="-45" width="120" height="90" fill="#0a0a0a" rx="8" stroke="#39FF14" stroke-opacity="0.4" stroke-width="1"/>
        <text x="0" y="-20" font-size="12" fill="#aaaaaa">SWARM ENTITIES</text>
        <text x="0" y="15" font-size="28" fill="#ffffff" font-weight="bold" filter="url(#textGlow)">121</text>
        <text x="0" y="35" font-size="10" fill="#777777">AUTONOMOUS</text>
    </g>

    <!-- UPTIME -->
    <g transform="translate(730, 100)">
        <path d="M -40 -35 L 40 -35 L 50 -25 L 50 35 L -40 35 L -50 25 Z" fill="#0a0a0a" stroke="#39FF14" stroke-opacity="0.4" stroke-width="1"/>
        <text x="0" y="-15" font-size="12" fill="#aaaaaa">CONTINUITY</text>
        <text x="0" y="15" font-size="24" fill="#ffffff" font-weight="bold">279<tspan font-size="14" fill="#777777">d</tspan></text>
        <rect x="-35" y="25" width="70" height="4" fill="url(#neonBar)" rx="2"/>
    </g>
  </g>

  <text x="425" y="185" font-family="'Consolas', 'Fira Code', monospace" font-size="10" fill="#aaaaaa" opacity="0.6" text-anchor="middle">LAST TELEMETRY PING: 2026-05-12 12:44:50 UTC // ENCRYPTED_TUNNEL</text>
</svg>