<svg width="850" height="200" viewBox="0 0 850 200" xmlns="http://www.w3.org/2000/svg">
  <defs>
    <pattern id="carbonFiber" width="10" height="10" patternUnits="userSpaceOnUse">
        <rect width="10" height="10" fill="#050505"/>
        <path d="M0,0 L5,5 L10,0 L5,-5 Z M5,5 L10,10 L15,5 L10,0 Z M-5,5 L0,10 L5,5 L0,0 Z M0,10 L5,15 L10,10 L5,5 Z" fill="#0d0d0d"/>
    </pattern>
    <filter id="textGlow">
      <feGaussianBlur stdDeviation="2" result="blur" />
      <feMerge>
        <feMergeNode in="blur"/>
        <feMergeNode in="SourceGraphic"/>
      </feMerge>
    </filter>
    <linearGradient id="neonBar" x1="0%" y1="0%" x2="100%" y2="0%">
        <stop offset="0%" stop-color="#111111"/>
        <stop offset="100%" stop-color="#39FF14"/>
    </linearGradient>
    <linearGradient id="scanlineGrad" x1="0%" y1="0%" x2="100%" y2="0%">
        <stop offset="0%" stop-color="#39FF14" stop-opacity="0"/>
        <stop offset="50%" stop-color="#39FF14" stop-opacity="0.18"/>
        <stop offset="100%" stop-color="#39FF14" stop-opacity="0"/>
    </linearGradient>
    <clipPath id="dashClip">
        <rect x="0" y="0" width="850" height="200" rx="12"/>
    </clipPath>
  </defs>

  <rect width="100%" height="100%" fill="url(#carbonFiber)" rx="12" stroke="#39FF14" stroke-width="1" stroke-opacity="0.3"/>
  <rect width="100%" height="100%" fill="#000000" opacity="0.6" rx="12" />
  <g><polygon points="65,104 73.6,109 73.6,119 65,124 56.4,119 56.4,109" fill="none" stroke="#39FF14" stroke-width="1" opacity="0.07520380219059813"/>
<polygon points="267,83 275.6,88 275.6,98 267,103 258.4,98 258.4,88" fill="none" stroke="#39FF14" stroke-width="1" opacity="0.07024781763449485"/>
<polygon points="95,112 103.6,117 103.6,127 95,132 86.4,127 86.4,117" fill="none" stroke="#39FF14" stroke-width="1" opacity="0.04002176179920988"/>
<polygon points="674,180 682.6,185 682.6,195 674,200 665.4,195 665.4,185" fill="none" stroke="#39FF14" stroke-width="1" opacity="0.07274540166635181"/>
<polygon points="712,2 720.6,7 720.6,17 712,22 703.4,17 703.4,7" fill="none" stroke="#39FF14" stroke-width="1" opacity="0.024614300092892914"/>
<polygon points="781,21 789.6,26 789.6,36 781,41 772.4,36 772.4,26" fill="none" stroke="#39FF14" stroke-width="1" opacity="0.07592154049566983"/>
<polygon points="389,83 397.6,88 397.6,98 389,103 380.4,98 380.4,88" fill="none" stroke="#39FF14" stroke-width="1" opacity="0.03460602705881094"/>
<polygon points="53,167 61.6,172 61.6,182 53,187 44.4,182 44.4,172" fill="none" stroke="#39FF14" stroke-width="1" opacity="0.042118994140627516"/>
<polygon points="86,151 94.6,156 94.6,166 86,171 77.4,166 77.4,156" fill="none" stroke="#39FF14" stroke-width="1" opacity="0.04794278831828973"/>
<polygon points="228,128 236.6,133 236.6,143 228,148 219.4,143 219.4,133" fill="none" stroke="#39FF14" stroke-width="1" opacity="0.03670441935724714"/>
<polygon points="541,42 549.6,47 549.6,57 541,62 532.4,57 532.4,47" fill="none" stroke="#39FF14" stroke-width="1" opacity="0.04309651915713529"/>
<polygon points="119,-6 127.6,-1 127.6,9 119,14 110.4,9 110.4,-1" fill="none" stroke="#39FF14" stroke-width="1" opacity="0.06738794941362869"/>
<polygon points="25,4 33.6,9 33.6,19 25,24 16.4,19 16.4,9" fill="none" stroke="#39FF14" stroke-width="1" opacity="0.05304223641323795"/>
<polygon points="413,71 421.6,76 421.6,86 413,91 404.4,86 404.4,76" fill="none" stroke="#39FF14" stroke-width="1" opacity="0.039948888029024326"/>
<polygon points="564,123 572.6,128 572.6,138 564,143 555.4,138 555.4,128" fill="none" stroke="#39FF14" stroke-width="1" opacity="0.06752094143403901"/>
<polygon points="845,-6 853.6,-1 853.6,9 845,14 836.4,9 836.4,-1" fill="none" stroke="#39FF14" stroke-width="1" opacity="0.07252103149263611"/>
<polygon points="430,156 438.6,161 438.6,171 430,176 421.4,171 421.4,161" fill="none" stroke="#39FF14" stroke-width="1" opacity="0.05104694037016818"/>
<polygon points="368,38 376.6,43 376.6,53 368,58 359.4,53 359.4,43" fill="none" stroke="#39FF14" stroke-width="1" opacity="0.07483242397526023"/>
<polygon points="773,43 781.6,48 781.6,58 773,63 764.4,58 764.4,48" fill="none" stroke="#39FF14" stroke-width="1" opacity="0.03741089937840092"/>
<polygon points="513,95 521.6,100 521.6,110 513,115 504.4,110 504.4,100" fill="none" stroke="#39FF14" stroke-width="1" opacity="0.03243794807954869"/>
<polygon points="810,9 818.6,14 818.6,24 810,29 801.4,24 801.4,14" fill="none" stroke="#39FF14" stroke-width="1" opacity="0.06688334877522956"/>
<polygon points="180,40 188.6,45 188.6,55 180,60 171.4,55 171.4,45" fill="none" stroke="#39FF14" stroke-width="1" opacity="0.040663594734603306"/>
<polygon points="681,95 689.6,100 689.6,110 681,115 672.4,110 672.4,100" fill="none" stroke="#39FF14" stroke-width="1" opacity="0.07037329193654857"/>
<polygon points="150,97 158.6,102 158.6,112 150,117 141.4,112 141.4,102" fill="none" stroke="#39FF14" stroke-width="1" opacity="0.02350184642891647"/>
<polygon points="212,127 220.6,132 220.6,142 212,147 203.4,142 203.4,132" fill="none" stroke="#39FF14" stroke-width="1" opacity="0.045669772460529376"/>
<polygon points="184,4 192.6,9 192.6,19 184,24 175.4,19 175.4,9" fill="none" stroke="#39FF14" stroke-width="1" opacity="0.046306139223760936"/>
<polygon points="174,148 182.6,153 182.6,163 174,168 165.4,163 165.4,153" fill="none" stroke="#39FF14" stroke-width="1" opacity="0.0549083035017722"/>
<polygon points="576,171 584.6,176 584.6,186 576,191 567.4,186 567.4,176" fill="none" stroke="#39FF14" stroke-width="1" opacity="0.06707108100336726"/>
<polygon points="645,10 653.6,15 653.6,25 645,30 636.4,25 636.4,15" fill="none" stroke="#39FF14" stroke-width="1" opacity="0.07336649217400282"/>
<polygon points="195,109 203.6,114 203.6,124 195,129 186.4,124 186.4,114" fill="none" stroke="#39FF14" stroke-width="1" opacity="0.05124877739523642"/>
</g>

  <!-- HUD Decorative elements -->
  <path d="M 20 20 L 40 20 L 50 30" fill="none" stroke="#39FF14" stroke-width="2" opacity="0.5"/>
  <path d="M 830 180 L 810 180 L 800 170" fill="none" stroke="#39FF14" stroke-width="2" opacity="0.5"/>

  <g clip-path="url(#dashClip)">
    <rect x="-160" y="0" width="160" height="200" fill="url(#scanlineGrad)">
      <animateTransform attributeName="transform" type="translate"
                        from="0 0" to="1010 0" dur="6s" repeatCount="indefinite"/>
    </rect>
  </g>

  <g font-family="'Consolas', 'Fira Code', monospace" text-anchor="middle">

    <!-- NETWORK STATUS -->
    <g transform="translate(130, 100)">
        <circle cx="0" cy="0" r="45" fill="none" stroke="#39FF14" stroke-width="2" stroke-dasharray="10 5">
            <animateTransform attributeName="transform" type="rotate" from="0" to="360" dur="10s" repeatCount="indefinite"/>
        </circle>
        <circle cx="0" cy="0" r="35" fill="#0d0d0d" />
        <text x="0" y="-60" font-size="12" fill="#aaaaaa" letter-spacing="2">ROOT.AUTH</text>
        <text x="0" y="70" font-size="14" fill="#ffffff" font-weight="bold">OPERATIONAL</text>
    </g>

    <!-- ACTIVE USERS -->
    <g transform="translate(330, 100)">
        <text x="0" y="-20" font-size="12" fill="#aaaaaa">CITIZENS</text>
        <text x="0" y="15" font-size="28" fill="#ffffff" font-weight="bold" filter="url(#textGlow)">14,310</text>
        <text x="0" y="35" font-size="10" fill="#777777">VERIFIED HUMANS</text>
    </g>

    <!-- REGISTERED AGENTS -->
    <g transform="translate(530, 100)">
        <text x="0" y="-20" font-size="12" fill="#aaaaaa">AGENTS</text>
        <text x="0" y="15" font-size="28" fill="#00d4ff" font-weight="bold" filter="url(#textGlow)">4,499</text>
        <text x="0" y="35" font-size="10" fill="#777777">REGISTERED DIDs</text>
    </g>

    <!-- TRANSACTIONS -->
    <g transform="translate(730, 100)">
        <text x="0" y="-20" font-size="12" fill="#aaaaaa">TRANSFERS</text>
        <text x="0" y="15" font-size="28" fill="#ffffff" font-weight="bold">29,544</text>
        <text x="0" y="35" font-size="10" fill="#777777">M2M SETTLEMENTS</text>
    </g>
  </g>

  <text x="425" y="185" font-family="'Consolas', 'Fira Code', monospace" font-size="10" fill="#aaaaaa" opacity="0.6" text-anchor="middle">AXIOMID PROJECTED TARGETS (ILLUSTRATIVE): 2026-07-27 12:10:57 UTC // SECURE_HANDSHAKE</text>
</svg>