<svg width="850" height="200" viewBox="0 0 850 200" xmlns="http://www.w3.org/2000/svg">
  <defs>
    <pattern id="carbonFiber" width="10" height="10" patternUnits="userSpaceOnUse">
        <rect width="10" height="10" fill="#050505"/>
        <path d="M0,0 L5,5 L10,0 L5,-5 Z M5,5 L10,10 L15,5 L10,0 Z M-5,5 L0,10 L5,5 L0,0 Z M0,10 L5,15 L10,10 L5,5 Z" fill="#0d0d0d"/>
    </pattern>
    <filter id="textGlow">
      <feGaussianBlur stdDeviation="2" result="blur" />
      <feMerge>
        <feMergeNode in="blur"/>
        <feMergeNode in="SourceGraphic"/>
      </feMerge>
    </filter>
    <linearGradient id="neonBar" x1="0%" y1="0%" x2="100%" y2="0%">
        <stop offset="0%" stop-color="#111111"/>
        <stop offset="100%" stop-color="#39FF14"/>
    </linearGradient>
    <linearGradient id="scanlineGrad" x1="0%" y1="0%" x2="100%" y2="0%">
        <stop offset="0%" stop-color="#39FF14" stop-opacity="0"/>
        <stop offset="50%" stop-color="#39FF14" stop-opacity="0.18"/>
        <stop offset="100%" stop-color="#39FF14" stop-opacity="0"/>
    </linearGradient>
    <clipPath id="dashClip">
        <rect x="0" y="0" width="850" height="200" rx="12"/>
    </clipPath>
  </defs>

  <rect width="100%" height="100%" fill="url(#carbonFiber)" rx="12" stroke="#39FF14" stroke-width="1" stroke-opacity="0.3"/>
  <rect width="100%" height="100%" fill="#000000" opacity="0.6" rx="12" />
  <g><polygon points="29,80 37.6,85 37.6,95 29,100 20.4,95 20.4,85" fill="none" stroke="#39FF14" stroke-width="1" opacity="0.07733391109041761"/>
<polygon points="289,174 297.6,179 297.6,189 289,194 280.4,189 280.4,179" fill="none" stroke="#39FF14" stroke-width="1" opacity="0.04019401543202031"/>
<polygon points="112,180 120.6,185 120.6,195 112,200 103.4,195 103.4,185" fill="none" stroke="#39FF14" stroke-width="1" opacity="0.06581528654480542"/>
<polygon points="323,45 331.6,50 331.6,60 323,65 314.4,60 314.4,50" fill="none" stroke="#39FF14" stroke-width="1" opacity="0.025929137835342314"/>
<polygon points="98,-3 106.6,2 106.6,12 98,17 89.4,12 89.4,2" fill="none" stroke="#39FF14" stroke-width="1" opacity="0.06330930826318784"/>
<polygon points="401,100 409.6,105 409.6,115 401,120 392.4,115 392.4,105" fill="none" stroke="#39FF14" stroke-width="1" opacity="0.04718903019702255"/>
<polygon points="609,12 617.6,17 617.6,27 609,32 600.4,27 600.4,17" fill="none" stroke="#39FF14" stroke-width="1" opacity="0.03082576843136861"/>
<polygon points="779,166 787.6,171 787.6,181 779,186 770.4,181 770.4,171" fill="none" stroke="#39FF14" stroke-width="1" opacity="0.06942497664944305"/>
<polygon points="508,129 516.6,134 516.6,144 508,149 499.4,144 499.4,134" fill="none" stroke="#39FF14" stroke-width="1" opacity="0.029666741865625547"/>
<polygon points="212,52 220.6,57 220.6,67 212,72 203.4,67 203.4,57" fill="none" stroke="#39FF14" stroke-width="1" opacity="0.06483434518136337"/>
<polygon points="140,77 148.6,82 148.6,92 140,97 131.4,92 131.4,82" fill="none" stroke="#39FF14" stroke-width="1" opacity="0.0536363902811728"/>
<polygon points="785,50 793.6,55 793.6,65 785,70 776.4,65 776.4,55" fill="none" stroke="#39FF14" stroke-width="1" opacity="0.05042856291229937"/>
<polygon points="226,78 234.6,83 234.6,93 226,98 217.4,93 217.4,83" fill="none" stroke="#39FF14" stroke-width="1" opacity="0.020787412272349166"/>
<polygon points="584,79 592.6,84 592.6,94 584,99 575.4,94 575.4,84" fill="none" stroke="#39FF14" stroke-width="1" opacity="0.06970715844763568"/>
<polygon points="674,63 682.6,68 682.6,78 674,83 665.4,78 665.4,68" fill="none" stroke="#39FF14" stroke-width="1" opacity="0.031244045374982744"/>
<polygon points="282,136 290.6,141 290.6,151 282,156 273.4,151 273.4,141" fill="none" stroke="#39FF14" stroke-width="1" opacity="0.06787078683506795"/>
<polygon points="791,-10 799.6,-5 799.6,5 791,10 782.4,5 782.4,-5" fill="none" stroke="#39FF14" stroke-width="1" opacity="0.033431587053609504"/>
<polygon points="230,183 238.6,188 238.6,198 230,203 221.4,198 221.4,188" fill="none" stroke="#39FF14" stroke-width="1" opacity="0.06534762920876101"/>
<polygon points="417,80 425.6,85 425.6,95 417,100 408.4,95 408.4,85" fill="none" stroke="#39FF14" stroke-width="1" opacity="0.07879557989831737"/>
<polygon points="755,60 763.6,65 763.6,75 755,80 746.4,75 746.4,65" fill="none" stroke="#39FF14" stroke-width="1" opacity="0.06266136901844435"/>
<polygon points="120,113 128.6,118 128.6,128 120,133 111.4,128 111.4,118" fill="none" stroke="#39FF14" stroke-width="1" opacity="0.053554208364522043"/>
<polygon points="734,29 742.6,34 742.6,44 734,49 725.4,44 725.4,34" fill="none" stroke="#39FF14" stroke-width="1" opacity="0.028420097153812496"/>
<polygon points="75,121 83.6,126 83.6,136 75,141 66.4,136 66.4,126" fill="none" stroke="#39FF14" stroke-width="1" opacity="0.05150765542817426"/>
<polygon points="537,72 545.6,77 545.6,87 537,92 528.4,87 528.4,77" fill="none" stroke="#39FF14" stroke-width="1" opacity="0.07389742894748133"/>
<polygon points="849,21 857.6,26 857.6,36 849,41 840.4,36 840.4,26" fill="none" stroke="#39FF14" stroke-width="1" opacity="0.03366405564782825"/>
<polygon points="683,11 691.6,16 691.6,26 683,31 674.4,26 674.4,16" fill="none" stroke="#39FF14" stroke-width="1" opacity="0.052266666641250806"/>
<polygon points="277,38 285.6,43 285.6,53 277,58 268.4,53 268.4,43" fill="none" stroke="#39FF14" stroke-width="1" opacity="0.0517139171851744"/>
<polygon points="748,17 756.6,22 756.6,32 748,37 739.4,32 739.4,22" fill="none" stroke="#39FF14" stroke-width="1" opacity="0.04201451772372411"/>
<polygon points="706,160 714.6,165 714.6,175 706,180 697.4,175 697.4,165" fill="none" stroke="#39FF14" stroke-width="1" opacity="0.03887156322679965"/>
<polygon points="45,11 53.6,16 53.6,26 45,31 36.4,26 36.4,16" fill="none" stroke="#39FF14" stroke-width="1" opacity="0.028029437758424973"/>
</g>

  <!-- HUD Decorative elements -->
  <path d="M 20 20 L 40 20 L 50 30" fill="none" stroke="#39FF14" stroke-width="2" opacity="0.5"/>
  <path d="M 830 180 L 810 180 L 800 170" fill="none" stroke="#39FF14" stroke-width="2" opacity="0.5"/>

  <g clip-path="url(#dashClip)">
    <rect x="-160" y="0" width="160" height="200" fill="url(#scanlineGrad)">
      <animateTransform attributeName="transform" type="translate"
                        from="0 0" to="1010 0" dur="6s" repeatCount="indefinite"/>
    </rect>
  </g>

  <g font-family="'Consolas', 'Fira Code', monospace" text-anchor="middle">

    <!-- NETWORK STATUS -->
    <g transform="translate(130, 100)">
        <circle cx="0" cy="0" r="45" fill="none" stroke="#39FF14" stroke-width="2" stroke-dasharray="10 5">
            <animateTransform attributeName="transform" type="rotate" from="0" to="360" dur="10s" repeatCount="indefinite"/>
        </circle>
        <circle cx="0" cy="0" r="35" fill="#0d0d0d" />
        <text x="0" y="-60" font-size="12" fill="#aaaaaa" letter-spacing="2">ROOT.AUTH</text>
        <text x="0" y="70" font-size="14" fill="#ffffff" font-weight="bold">OPERATIONAL</text>
    </g>

    <!-- ACTIVE USERS -->
    <g transform="translate(330, 100)">
        <text x="0" y="-20" font-size="12" fill="#aaaaaa">CITIZENS</text>
        <text x="0" y="15" font-size="28" fill="#ffffff" font-weight="bold" filter="url(#textGlow)">12,707</text>
        <text x="0" y="35" font-size="10" fill="#777777">VERIFIED HUMANS</text>
    </g>

    <!-- REGISTERED AGENTS -->
    <g transform="translate(530, 100)">
        <text x="0" y="-20" font-size="12" fill="#aaaaaa">AGENTS</text>
        <text x="0" y="15" font-size="28" fill="#00d4ff" font-weight="bold" filter="url(#textGlow)">3,961</text>
        <text x="0" y="35" font-size="10" fill="#777777">REGISTERED DIDs</text>
    </g>

    <!-- TRANSACTIONS -->
    <g transform="translate(730, 100)">
        <text x="0" y="-20" font-size="12" fill="#aaaaaa">TRANSFERS</text>
        <text x="0" y="15" font-size="28" fill="#ffffff" font-weight="bold">32,242</text>
        <text x="0" y="35" font-size="10" fill="#777777">M2M SETTLEMENTS</text>
    </g>
  </g>

  <text x="425" y="185" font-family="'Consolas', 'Fira Code', monospace" font-size="10" fill="#aaaaaa" opacity="0.6" text-anchor="middle">AXIOMID PROJECTED TARGETS (ILLUSTRATIVE): 2026-07-15 10:41:53 UTC // SECURE_HANDSHAKE</text>
</svg>