<svg width="850" height="200" viewBox="0 0 850 200" xmlns="http://www.w3.org/2000/svg">
  <defs>
    <!-- Carbon Fiber Pattern -->
    <pattern id="carbonFiber" width="10" height="10" patternUnits="userSpaceOnUse">
        <rect width="10" height="10" fill="#050505"/>
        <path d="M0,0 L5,5 L10,0 L5,-5 Z M5,5 L10,10 L15,5 L10,0 Z M-5,5 L0,10 L5,5 L0,0 Z M0,10 L5,15 L10,10 L5,5 Z" fill="#0d0d0d"/>
    </pattern>
    <filter id="glassmorphism">
      <feGaussianBlur stdDeviation="3" result="blur" />
      <feColorMatrix type="matrix" values="1 0 0 0 0  0 1 0 0 0  0 0 1 0 0  0 0 0 18 -7" result="glow" />
      <feBlend in="SourceGraphic" in2="glow" mode="normal" />
    </filter>
    <filter id="textGlow">
      <feGaussianBlur stdDeviation="2" result="blur" />
      <feMerge>
        <feMergeNode in="blur"/>
        <feMergeNode in="SourceGraphic"/>
      </feMerge>
    </filter>
    <linearGradient id="neonBar" x1="0%" y1="0%" x2="100%" y2="0%">
        <stop offset="0%" stop-color="#111111"/>
        <stop offset="100%" stop-color="#39FF14"/>
    </linearGradient>
  </defs>

  <rect width="100%" height="100%" fill="url(#carbonFiber)" rx="12" stroke="#39FF14" stroke-width="1" stroke-opacity="0.3"/>
  <rect width="100%" height="100%" fill="#000000" opacity="0.6" rx="12" />
  <g><polygon points="633,93 641.6,98 641.6,108 633,113 624.4,108 624.4,98" fill="none" stroke="#39FF14" stroke-width="1" opacity="0.0463090478545849"/>
<polygon points="97,130 105.6,135 105.6,145 97,150 88.4,145 88.4,135" fill="none" stroke="#39FF14" stroke-width="1" opacity="0.05019928367434973"/>
<polygon points="156,132 164.6,137 164.6,147 156,152 147.4,147 147.4,137" fill="none" stroke="#39FF14" stroke-width="1" opacity="0.052995487622411006"/>
<polygon points="287,124 295.6,129 295.6,139 287,144 278.4,139 278.4,129" fill="none" stroke="#39FF14" stroke-width="1" opacity="0.05884629546081971"/>
<polygon points="488,107 496.6,112 496.6,122 488,127 479.4,122 479.4,112" fill="none" stroke="#39FF14" stroke-width="1" opacity="0.0636683610403697"/>
<polygon points="500,100 508.6,105 508.6,115 500,120 491.4,115 491.4,105" fill="none" stroke="#39FF14" stroke-width="1" opacity="0.02274587523345355"/>
<polygon points="549,190 557.6,195 557.6,205 549,210 540.4,205 540.4,195" fill="none" stroke="#39FF14" stroke-width="1" opacity="0.028202025043906023"/>
<polygon points="808,57 816.6,62 816.6,72 808,77 799.4,72 799.4,62" fill="none" stroke="#39FF14" stroke-width="1" opacity="0.06276042992435327"/>
<polygon points="538,119 546.6,124 546.6,134 538,139 529.4,134 529.4,124" fill="none" stroke="#39FF14" stroke-width="1" opacity="0.07766951495510348"/>
<polygon points="343,149 351.6,154 351.6,164 343,169 334.4,164 334.4,154" fill="none" stroke="#39FF14" stroke-width="1" opacity="0.0319204464118724"/>
<polygon points="762,40 770.6,45 770.6,55 762,60 753.4,55 753.4,45" fill="none" stroke="#39FF14" stroke-width="1" opacity="0.0480862349034865"/>
<polygon points="651,102 659.6,107 659.6,117 651,122 642.4,117 642.4,107" fill="none" stroke="#39FF14" stroke-width="1" opacity="0.04512676458472323"/>
<polygon points="212,91 220.6,96 220.6,106 212,111 203.4,106 203.4,96" fill="none" stroke="#39FF14" stroke-width="1" opacity="0.07604687487014362"/>
<polygon points="143,46 151.6,51 151.6,61 143,66 134.4,61 134.4,51" fill="none" stroke="#39FF14" stroke-width="1" opacity="0.04637251652461136"/>
<polygon points="415,83 423.6,88 423.6,98 415,103 406.4,98 406.4,88" fill="none" stroke="#39FF14" stroke-width="1" opacity="0.07346669677045872"/>
<polygon points="116,104 124.6,109 124.6,119 116,124 107.4,119 107.4,109" fill="none" stroke="#39FF14" stroke-width="1" opacity="0.07563246443826682"/>
<polygon points="848,37 856.6,42 856.6,52 848,57 839.4,52 839.4,42" fill="none" stroke="#39FF14" stroke-width="1" opacity="0.06196444770954815"/>
<polygon points="58,174 66.6,179 66.6,189 58,194 49.4,189 49.4,179" fill="none" stroke="#39FF14" stroke-width="1" opacity="0.03585028319499971"/>
<polygon points="55,156 63.6,161 63.6,171 55,176 46.4,171 46.4,161" fill="none" stroke="#39FF14" stroke-width="1" opacity="0.06871646228494413"/>
<polygon points="715,113 723.6,118 723.6,128 715,133 706.4,128 706.4,118" fill="none" stroke="#39FF14" stroke-width="1" opacity="0.05829673922439965"/>
<polygon points="453,86 461.6,91 461.6,101 453,106 444.4,101 444.4,91" fill="none" stroke="#39FF14" stroke-width="1" opacity="0.07401262590868082"/>
<polygon points="744,19 752.6,24 752.6,34 744,39 735.4,34 735.4,24" fill="none" stroke="#39FF14" stroke-width="1" opacity="0.06666677349863245"/>
<polygon points="830,96 838.6,101 838.6,111 830,116 821.4,111 821.4,101" fill="none" stroke="#39FF14" stroke-width="1" opacity="0.020741970221362076"/>
<polygon points="834,78 842.6,83 842.6,93 834,98 825.4,93 825.4,83" fill="none" stroke="#39FF14" stroke-width="1" opacity="0.04377113741699995"/>
<polygon points="453,53 461.6,58 461.6,68 453,73 444.4,68 444.4,58" fill="none" stroke="#39FF14" stroke-width="1" opacity="0.0640907100167341"/>
<polygon points="155,128 163.6,133 163.6,143 155,148 146.4,143 146.4,133" fill="none" stroke="#39FF14" stroke-width="1" opacity="0.0673361339140648"/>
<polygon points="820,57 828.6,62 828.6,72 820,77 811.4,72 811.4,62" fill="none" stroke="#39FF14" stroke-width="1" opacity="0.030649575029963128"/>
<polygon points="228,94 236.6,99 236.6,109 228,114 219.4,109 219.4,99" fill="none" stroke="#39FF14" stroke-width="1" opacity="0.06257849849245414"/>
<polygon points="532,121 540.6,126 540.6,136 532,141 523.4,136 523.4,126" fill="none" stroke="#39FF14" stroke-width="1" opacity="0.05577395789982387"/>
<polygon points="315,141 323.6,146 323.6,156 315,161 306.4,156 306.4,146" fill="none" stroke="#39FF14" stroke-width="1" opacity="0.07344526742639139"/>
</g>

  <!-- HUD Decorative elements -->
  <path d="M 20 20 L 40 20 L 50 30" fill="none" stroke="#39FF14" stroke-width="2" opacity="0.5"/>
  <path d="M 830 180 L 810 180 L 800 170" fill="none" stroke="#39FF14" stroke-width="2" opacity="0.5"/>
  <rect x="20" y="100" width="2" height="40" fill="#ffffff" opacity="0.4"/>
  <rect x="828" y="60" width="2" height="40" fill="#39FF14" opacity="0.6"/>

  <g font-family="'Consolas', 'Fira Code', monospace" text-anchor="middle">

    <!-- SYSTEM STATUS -->
    <g transform="translate(130, 100)">
        <circle cx="0" cy="0" r="45" fill="none" stroke="#111111" stroke-width="8" />
        <circle cx="0" cy="0" r="45" fill="none" stroke="#39FF14" stroke-width="2" stroke-dasharray="10 5">
            <animateTransform attributeName="transform" type="rotate" from="0" to="360" dur="10s" repeatCount="indefinite"/>
        </circle>
        <circle cx="0" cy="0" r="35" fill="#0d0d0d" />
        <circle cx="0" cy="0" r="6" fill="#39FF14" filter="url(#textGlow)">
            <animate attributeName="opacity" values="1;0.3;1" dur="2s" repeatCount="indefinite"/>
        </circle>
        <text x="0" y="-60" font-size="12" fill="#aaaaaa" letter-spacing="2">SYS.CORE</text>
        <text x="0" y="70" font-size="14" fill="#ffffff" font-weight="bold">ONLINE</text>
    </g>

    <!-- LIVE TRAFFIC -->
    <g transform="translate(330, 100)">
        <rect x="-60" y="-45" width="120" height="90" fill="#0a0a0a" rx="8" stroke="#39FF14" stroke-opacity="0.4" stroke-width="1"/>
        <text x="0" y="-20" font-size="12" fill="#aaaaaa">NETWORK LOAD</text>
        <text x="0" y="15" font-size="28" fill="#ffffff" font-weight="bold" filter="url(#textGlow)">5577</text>
        <text x="0" y="35" font-size="10" fill="#777777">ACTIVE SESSIONS</text>
    </g>

    <!-- ACTIVE AGENTS -->
    <g transform="translate(530, 100)">
        <rect x="-60" y="-45" width="120" height="90" fill="#0a0a0a" rx="8" stroke="#39FF14" stroke-opacity="0.4" stroke-width="1"/>
        <text x="0" y="-20" font-size="12" fill="#aaaaaa">SWARM ENTITIES</text>
        <text x="0" y="15" font-size="28" fill="#ffffff" font-weight="bold" filter="url(#textGlow)">163</text>
        <text x="0" y="35" font-size="10" fill="#777777">AUTONOMOUS</text>
    </g>

    <!-- UPTIME -->
    <g transform="translate(730, 100)">
        <path d="M -40 -35 L 40 -35 L 50 -25 L 50 35 L -40 35 L -50 25 Z" fill="#0a0a0a" stroke="#39FF14" stroke-opacity="0.4" stroke-width="1"/>
        <text x="0" y="-15" font-size="12" fill="#aaaaaa">CONTINUITY</text>
        <text x="0" y="15" font-size="24" fill="#ffffff" font-weight="bold">222<tspan font-size="14" fill="#777777">d</tspan></text>
        <rect x="-35" y="25" width="70" height="4" fill="url(#neonBar)" rx="2"/>
    </g>
  </g>

  <text x="425" y="185" font-family="'Consolas', 'Fira Code', monospace" font-size="10" fill="#aaaaaa" opacity="0.6" text-anchor="middle">LAST TELEMETRY PING: 2026-05-13 16:55:50 UTC // ENCRYPTED_TUNNEL</text>
</svg>