<svg width="850" height="200" viewBox="0 0 850 200" xmlns="http://www.w3.org/2000/svg">
  <defs>
    <pattern id="carbonFiber" width="10" height="10" patternUnits="userSpaceOnUse">
        <rect width="10" height="10" fill="#050505"/>
        <path d="M0,0 L5,5 L10,0 L5,-5 Z M5,5 L10,10 L15,5 L10,0 Z M-5,5 L0,10 L5,5 L0,0 Z M0,10 L5,15 L10,10 L5,5 Z" fill="#0d0d0d"/>
    </pattern>
    <filter id="textGlow">
      <feGaussianBlur stdDeviation="2" result="blur" />
      <feMerge>
        <feMergeNode in="blur"/>
        <feMergeNode in="SourceGraphic"/>
      </feMerge>
    </filter>
    <linearGradient id="neonBar" x1="0%" y1="0%" x2="100%" y2="0%">
        <stop offset="0%" stop-color="#111111"/>
        <stop offset="100%" stop-color="#39FF14"/>
    </linearGradient>
    <linearGradient id="scanlineGrad" x1="0%" y1="0%" x2="100%" y2="0%">
        <stop offset="0%" stop-color="#39FF14" stop-opacity="0"/>
        <stop offset="50%" stop-color="#39FF14" stop-opacity="0.18"/>
        <stop offset="100%" stop-color="#39FF14" stop-opacity="0"/>
    </linearGradient>
    <clipPath id="dashClip">
        <rect x="0" y="0" width="850" height="200" rx="12"/>
    </clipPath>
  </defs>

  <rect width="100%" height="100%" fill="url(#carbonFiber)" rx="12" stroke="#39FF14" stroke-width="1" stroke-opacity="0.3"/>
  <rect width="100%" height="100%" fill="#000000" opacity="0.6" rx="12" />
  <g><polygon points="651,131 659.6,136 659.6,146 651,151 642.4,146 642.4,136" fill="none" stroke="#39FF14" stroke-width="1" opacity="0.0336100059997341"/>
<polygon points="1,130 9.6,135 9.6,145 1,150 -7.6,145 -7.6,135" fill="none" stroke="#39FF14" stroke-width="1" opacity="0.06000696170233173"/>
<polygon points="325,11 333.6,16 333.6,26 325,31 316.4,26 316.4,16" fill="none" stroke="#39FF14" stroke-width="1" opacity="0.043155367365249275"/>
<polygon points="375,48 383.6,53 383.6,63 375,68 366.4,63 366.4,53" fill="none" stroke="#39FF14" stroke-width="1" opacity="0.05295813276533233"/>
<polygon points="39,22 47.6,27 47.6,37 39,42 30.4,37 30.4,27" fill="none" stroke="#39FF14" stroke-width="1" opacity="0.05674391331641035"/>
<polygon points="44,188 52.6,193 52.6,203 44,208 35.4,203 35.4,193" fill="none" stroke="#39FF14" stroke-width="1" opacity="0.047613871922460776"/>
<polygon points="105,189 113.6,194 113.6,204 105,209 96.4,204 96.4,194" fill="none" stroke="#39FF14" stroke-width="1" opacity="0.07675473734692376"/>
<polygon points="33,108 41.6,113 41.6,123 33,128 24.4,123 24.4,113" fill="none" stroke="#39FF14" stroke-width="1" opacity="0.029038282651703502"/>
<polygon points="576,185 584.6,190 584.6,200 576,205 567.4,200 567.4,190" fill="none" stroke="#39FF14" stroke-width="1" opacity="0.0675465214356014"/>
<polygon points="135,72 143.6,77 143.6,87 135,92 126.4,87 126.4,77" fill="none" stroke="#39FF14" stroke-width="1" opacity="0.07656105359833881"/>
<polygon points="186,183 194.6,188 194.6,198 186,203 177.4,198 177.4,188" fill="none" stroke="#39FF14" stroke-width="1" opacity="0.021692546755439704"/>
<polygon points="530,138 538.6,143 538.6,153 530,158 521.4,153 521.4,143" fill="none" stroke="#39FF14" stroke-width="1" opacity="0.034705786852971515"/>
<polygon points="244,189 252.6,194 252.6,204 244,209 235.4,204 235.4,194" fill="none" stroke="#39FF14" stroke-width="1" opacity="0.0333443054977411"/>
<polygon points="766,82 774.6,87 774.6,97 766,102 757.4,97 757.4,87" fill="none" stroke="#39FF14" stroke-width="1" opacity="0.05333959065282254"/>
<polygon points="152,63 160.6,68 160.6,78 152,83 143.4,78 143.4,68" fill="none" stroke="#39FF14" stroke-width="1" opacity="0.023496944402774864"/>
<polygon points="289,28 297.6,33 297.6,43 289,48 280.4,43 280.4,33" fill="none" stroke="#39FF14" stroke-width="1" opacity="0.02362926973426276"/>
<polygon points="103,36 111.6,41 111.6,51 103,56 94.4,51 94.4,41" fill="none" stroke="#39FF14" stroke-width="1" opacity="0.0725449722120376"/>
<polygon points="198,136 206.6,141 206.6,151 198,156 189.4,151 189.4,141" fill="none" stroke="#39FF14" stroke-width="1" opacity="0.07361409078571395"/>
<polygon points="768,3 776.6,8 776.6,18 768,23 759.4,18 759.4,8" fill="none" stroke="#39FF14" stroke-width="1" opacity="0.07809008446745291"/>
<polygon points="703,128 711.6,133 711.6,143 703,148 694.4,143 694.4,133" fill="none" stroke="#39FF14" stroke-width="1" opacity="0.045271217773620226"/>
<polygon points="210,155 218.6,160 218.6,170 210,175 201.4,170 201.4,160" fill="none" stroke="#39FF14" stroke-width="1" opacity="0.02409690031478706"/>
<polygon points="436,26 444.6,31 444.6,41 436,46 427.4,41 427.4,31" fill="none" stroke="#39FF14" stroke-width="1" opacity="0.028942573884734757"/>
<polygon points="125,160 133.6,165 133.6,175 125,180 116.4,175 116.4,165" fill="none" stroke="#39FF14" stroke-width="1" opacity="0.04774117862794547"/>
<polygon points="418,36 426.6,41 426.6,51 418,56 409.4,51 409.4,41" fill="none" stroke="#39FF14" stroke-width="1" opacity="0.026619855363686357"/>
<polygon points="83,135 91.6,140 91.6,150 83,155 74.4,150 74.4,140" fill="none" stroke="#39FF14" stroke-width="1" opacity="0.03818114074771269"/>
<polygon points="529,80 537.6,85 537.6,95 529,100 520.4,95 520.4,85" fill="none" stroke="#39FF14" stroke-width="1" opacity="0.04461060486610066"/>
<polygon points="711,52 719.6,57 719.6,67 711,72 702.4,67 702.4,57" fill="none" stroke="#39FF14" stroke-width="1" opacity="0.06564930316445303"/>
<polygon points="585,101 593.6,106 593.6,116 585,121 576.4,116 576.4,106" fill="none" stroke="#39FF14" stroke-width="1" opacity="0.07784776875081108"/>
<polygon points="340,148 348.6,153 348.6,163 340,168 331.4,163 331.4,153" fill="none" stroke="#39FF14" stroke-width="1" opacity="0.07256696941903594"/>
<polygon points="605,118 613.6,123 613.6,133 605,138 596.4,133 596.4,123" fill="none" stroke="#39FF14" stroke-width="1" opacity="0.02537497362985295"/>
</g>

  <!-- HUD Decorative elements -->
  <path d="M 20 20 L 40 20 L 50 30" fill="none" stroke="#39FF14" stroke-width="2" opacity="0.5"/>
  <path d="M 830 180 L 810 180 L 800 170" fill="none" stroke="#39FF14" stroke-width="2" opacity="0.5"/>

  <g clip-path="url(#dashClip)">
    <rect x="-160" y="0" width="160" height="200" fill="url(#scanlineGrad)">
      <animateTransform attributeName="transform" type="translate"
                        from="0 0" to="1010 0" dur="6s" repeatCount="indefinite"/>
    </rect>
  </g>

  <g font-family="'Consolas', 'Fira Code', monospace" text-anchor="middle">

    <!-- NETWORK STATUS -->
    <g transform="translate(130, 100)">
        <circle cx="0" cy="0" r="45" fill="none" stroke="#39FF14" stroke-width="2" stroke-dasharray="10 5">
            <animateTransform attributeName="transform" type="rotate" from="0" to="360" dur="10s" repeatCount="indefinite"/>
        </circle>
        <circle cx="0" cy="0" r="35" fill="#0d0d0d" />
        <text x="0" y="-60" font-size="12" fill="#aaaaaa" letter-spacing="2">ROOT.AUTH</text>
        <text x="0" y="70" font-size="14" fill="#ffffff" font-weight="bold">OPERATIONAL</text>
    </g>

    <!-- ACTIVE USERS -->
    <g transform="translate(330, 100)">
        <text x="0" y="-20" font-size="12" fill="#aaaaaa">CITIZENS</text>
        <text x="0" y="15" font-size="28" fill="#ffffff" font-weight="bold" filter="url(#textGlow)">13,341</text>
        <text x="0" y="35" font-size="10" fill="#777777">VERIFIED HUMANS</text>
    </g>

    <!-- REGISTERED AGENTS -->
    <g transform="translate(530, 100)">
        <text x="0" y="-20" font-size="12" fill="#aaaaaa">AGENTS</text>
        <text x="0" y="15" font-size="28" fill="#00d4ff" font-weight="bold" filter="url(#textGlow)">4,725</text>
        <text x="0" y="35" font-size="10" fill="#777777">REGISTERED DIDs</text>
    </g>

    <!-- TRANSACTIONS -->
    <g transform="translate(730, 100)">
        <text x="0" y="-20" font-size="12" fill="#aaaaaa">TRANSFERS</text>
        <text x="0" y="15" font-size="28" fill="#ffffff" font-weight="bold">29,030</text>
        <text x="0" y="35" font-size="10" fill="#777777">M2M SETTLEMENTS</text>
    </g>
  </g>

  <text x="425" y="185" font-family="'Consolas', 'Fira Code', monospace" font-size="10" fill="#aaaaaa" opacity="0.6" text-anchor="middle">AXIOMID PROJECTED TARGETS (ILLUSTRATIVE): 2026-07-05 21:51:54 UTC // SECURE_HANDSHAKE</text>
</svg>