<svg width="850" height="200" viewBox="0 0 850 200" xmlns="http://www.w3.org/2000/svg">
  <defs>
    <pattern id="carbonFiber" width="10" height="10" patternUnits="userSpaceOnUse">
        <rect width="10" height="10" fill="#050505"/>
        <path d="M0,0 L5,5 L10,0 L5,-5 Z M5,5 L10,10 L15,5 L10,0 Z M-5,5 L0,10 L5,5 L0,0 Z M0,10 L5,15 L10,10 L5,5 Z" fill="#0d0d0d"/>
    </pattern>
    <filter id="textGlow">
      <feGaussianBlur stdDeviation="2" result="blur" />
      <feMerge>
        <feMergeNode in="blur"/>
        <feMergeNode in="SourceGraphic"/>
      </feMerge>
    </filter>
    <linearGradient id="neonBar" x1="0%" y1="0%" x2="100%" y2="0%">
        <stop offset="0%" stop-color="#111111"/>
        <stop offset="100%" stop-color="#39FF14"/>
    </linearGradient>
    <linearGradient id="scanlineGrad" x1="0%" y1="0%" x2="100%" y2="0%">
        <stop offset="0%" stop-color="#39FF14" stop-opacity="0"/>
        <stop offset="50%" stop-color="#39FF14" stop-opacity="0.18"/>
        <stop offset="100%" stop-color="#39FF14" stop-opacity="0"/>
    </linearGradient>
    <clipPath id="dashClip">
        <rect x="0" y="0" width="850" height="200" rx="12"/>
    </clipPath>
  </defs>

  <rect width="100%" height="100%" fill="url(#carbonFiber)" rx="12" stroke="#39FF14" stroke-width="1" stroke-opacity="0.3"/>
  <rect width="100%" height="100%" fill="#000000" opacity="0.6" rx="12" />
  <g><polygon points="646,-6 654.6,-1 654.6,9 646,14 637.4,9 637.4,-1" fill="none" stroke="#39FF14" stroke-width="1" opacity="0.053749885038894676"/>
<polygon points="785,116 793.6,121 793.6,131 785,136 776.4,131 776.4,121" fill="none" stroke="#39FF14" stroke-width="1" opacity="0.02808716126715314"/>
<polygon points="166,5 174.6,10 174.6,20 166,25 157.4,20 157.4,10" fill="none" stroke="#39FF14" stroke-width="1" opacity="0.05841962109663329"/>
<polygon points="759,88 767.6,93 767.6,103 759,108 750.4,103 750.4,93" fill="none" stroke="#39FF14" stroke-width="1" opacity="0.0603570669996997"/>
<polygon points="178,134 186.6,139 186.6,149 178,154 169.4,149 169.4,139" fill="none" stroke="#39FF14" stroke-width="1" opacity="0.06353637815593854"/>
<polygon points="382,123 390.6,128 390.6,138 382,143 373.4,138 373.4,128" fill="none" stroke="#39FF14" stroke-width="1" opacity="0.07003716791883391"/>
<polygon points="125,13 133.6,18 133.6,28 125,33 116.4,28 116.4,18" fill="none" stroke="#39FF14" stroke-width="1" opacity="0.025515630301518936"/>
<polygon points="582,174 590.6,179 590.6,189 582,194 573.4,189 573.4,179" fill="none" stroke="#39FF14" stroke-width="1" opacity="0.029779676730960897"/>
<polygon points="608,101 616.6,106 616.6,116 608,121 599.4,116 599.4,106" fill="none" stroke="#39FF14" stroke-width="1" opacity="0.03544808636080339"/>
<polygon points="252,23 260.6,28 260.6,38 252,43 243.4,38 243.4,28" fill="none" stroke="#39FF14" stroke-width="1" opacity="0.02510340789055854"/>
<polygon points="522,37 530.6,42 530.6,52 522,57 513.4,52 513.4,42" fill="none" stroke="#39FF14" stroke-width="1" opacity="0.022029999783142785"/>
<polygon points="435,174 443.6,179 443.6,189 435,194 426.4,189 426.4,179" fill="none" stroke="#39FF14" stroke-width="1" opacity="0.03305909077908766"/>
<polygon points="461,18 469.6,23 469.6,33 461,38 452.4,33 452.4,23" fill="none" stroke="#39FF14" stroke-width="1" opacity="0.06669983747468018"/>
<polygon points="549,15 557.6,20 557.6,30 549,35 540.4,30 540.4,20" fill="none" stroke="#39FF14" stroke-width="1" opacity="0.07289724660885116"/>
<polygon points="619,134 627.6,139 627.6,149 619,154 610.4,149 610.4,139" fill="none" stroke="#39FF14" stroke-width="1" opacity="0.0668418259713047"/>
<polygon points="162,39 170.6,44 170.6,54 162,59 153.4,54 153.4,44" fill="none" stroke="#39FF14" stroke-width="1" opacity="0.05589991227865876"/>
<polygon points="200,79 208.6,84 208.6,94 200,99 191.4,94 191.4,84" fill="none" stroke="#39FF14" stroke-width="1" opacity="0.06927422048760476"/>
<polygon points="645,2 653.6,7 653.6,17 645,22 636.4,17 636.4,7" fill="none" stroke="#39FF14" stroke-width="1" opacity="0.057589958575701"/>
<polygon points="822,20 830.6,25 830.6,35 822,40 813.4,35 813.4,25" fill="none" stroke="#39FF14" stroke-width="1" opacity="0.04165706781640768"/>
<polygon points="762,159 770.6,164 770.6,174 762,179 753.4,174 753.4,164" fill="none" stroke="#39FF14" stroke-width="1" opacity="0.07700977532123675"/>
<polygon points="282,43 290.6,48 290.6,58 282,63 273.4,58 273.4,48" fill="none" stroke="#39FF14" stroke-width="1" opacity="0.022405403956904494"/>
<polygon points="556,179 564.6,184 564.6,194 556,199 547.4,194 547.4,184" fill="none" stroke="#39FF14" stroke-width="1" opacity="0.05161700268020428"/>
<polygon points="95,165 103.6,170 103.6,180 95,185 86.4,180 86.4,170" fill="none" stroke="#39FF14" stroke-width="1" opacity="0.06432428056085387"/>
<polygon points="229,53 237.6,58 237.6,68 229,73 220.4,68 220.4,58" fill="none" stroke="#39FF14" stroke-width="1" opacity="0.029539815447085976"/>
<polygon points="362,172 370.6,177 370.6,187 362,192 353.4,187 353.4,177" fill="none" stroke="#39FF14" stroke-width="1" opacity="0.0783975318491698"/>
<polygon points="393,177 401.6,182 401.6,192 393,197 384.4,192 384.4,182" fill="none" stroke="#39FF14" stroke-width="1" opacity="0.05039296627692956"/>
<polygon points="486,166 494.6,171 494.6,181 486,186 477.4,181 477.4,171" fill="none" stroke="#39FF14" stroke-width="1" opacity="0.02865775708336904"/>
<polygon points="355,130 363.6,135 363.6,145 355,150 346.4,145 346.4,135" fill="none" stroke="#39FF14" stroke-width="1" opacity="0.05544760299666113"/>
<polygon points="139,98 147.6,103 147.6,113 139,118 130.4,113 130.4,103" fill="none" stroke="#39FF14" stroke-width="1" opacity="0.02687690664003197"/>
<polygon points="524,144 532.6,149 532.6,159 524,164 515.4,159 515.4,149" fill="none" stroke="#39FF14" stroke-width="1" opacity="0.025754493506867957"/>
</g>

  <!-- HUD Decorative elements -->
  <path d="M 20 20 L 40 20 L 50 30" fill="none" stroke="#39FF14" stroke-width="2" opacity="0.5"/>
  <path d="M 830 180 L 810 180 L 800 170" fill="none" stroke="#39FF14" stroke-width="2" opacity="0.5"/>

  <g clip-path="url(#dashClip)">
    <rect x="-160" y="0" width="160" height="200" fill="url(#scanlineGrad)">
      <animateTransform attributeName="transform" type="translate"
                        from="0 0" to="1010 0" dur="6s" repeatCount="indefinite"/>
    </rect>
  </g>

  <g font-family="'Consolas', 'Fira Code', monospace" text-anchor="middle">

    <!-- NETWORK STATUS -->
    <g transform="translate(130, 100)">
        <circle cx="0" cy="0" r="45" fill="none" stroke="#39FF14" stroke-width="2" stroke-dasharray="10 5">
            <animateTransform attributeName="transform" type="rotate" from="0" to="360" dur="10s" repeatCount="indefinite"/>
        </circle>
        <circle cx="0" cy="0" r="35" fill="#0d0d0d" />
        <text x="0" y="-60" font-size="12" fill="#aaaaaa" letter-spacing="2">ROOT.AUTH</text>
        <text x="0" y="70" font-size="14" fill="#ffffff" font-weight="bold">OPERATIONAL</text>
    </g>

    <!-- ACTIVE USERS -->
    <g transform="translate(330, 100)">
        <text x="0" y="-20" font-size="12" fill="#aaaaaa">CITIZENS</text>
        <text x="0" y="15" font-size="28" fill="#ffffff" font-weight="bold" filter="url(#textGlow)">14,537</text>
        <text x="0" y="35" font-size="10" fill="#777777">VERIFIED HUMANS</text>
    </g>

    <!-- REGISTERED AGENTS -->
    <g transform="translate(530, 100)">
        <text x="0" y="-20" font-size="12" fill="#aaaaaa">AGENTS</text>
        <text x="0" y="15" font-size="28" fill="#00d4ff" font-weight="bold" filter="url(#textGlow)">4,113</text>
        <text x="0" y="35" font-size="10" fill="#777777">REGISTERED DIDs</text>
    </g>

    <!-- TRANSACTIONS -->
    <g transform="translate(730, 100)">
        <text x="0" y="-20" font-size="12" fill="#aaaaaa">TRANSFERS</text>
        <text x="0" y="15" font-size="28" fill="#ffffff" font-weight="bold">34,943</text>
        <text x="0" y="35" font-size="10" fill="#777777">M2M SETTLEMENTS</text>
    </g>
  </g>

  <text x="425" y="185" font-family="'Consolas', 'Fira Code', monospace" font-size="10" fill="#aaaaaa" opacity="0.6" text-anchor="middle">AXIOMID PROJECTED TARGETS (ILLUSTRATIVE): 2026-07-22 18:56:58 UTC // SECURE_HANDSHAKE</text>
</svg>