<svg width="850" height="200" viewBox="0 0 850 200" xmlns="http://www.w3.org/2000/svg">
  <defs>
    <pattern id="carbonFiber" width="10" height="10" patternUnits="userSpaceOnUse">
        <rect width="10" height="10" fill="#050505"/>
        <path d="M0,0 L5,5 L10,0 L5,-5 Z M5,5 L10,10 L15,5 L10,0 Z M-5,5 L0,10 L5,5 L0,0 Z M0,10 L5,15 L10,10 L5,5 Z" fill="#0d0d0d"/>
    </pattern>
    <filter id="textGlow">
      <feGaussianBlur stdDeviation="2" result="blur" />
      <feMerge>
        <feMergeNode in="blur"/>
        <feMergeNode in="SourceGraphic"/>
      </feMerge>
    </filter>
    <linearGradient id="neonBar" x1="0%" y1="0%" x2="100%" y2="0%">
        <stop offset="0%" stop-color="#111111"/>
        <stop offset="100%" stop-color="#39FF14"/>
    </linearGradient>
    <linearGradient id="scanlineGrad" x1="0%" y1="0%" x2="100%" y2="0%">
        <stop offset="0%" stop-color="#39FF14" stop-opacity="0"/>
        <stop offset="50%" stop-color="#39FF14" stop-opacity="0.18"/>
        <stop offset="100%" stop-color="#39FF14" stop-opacity="0"/>
    </linearGradient>
    <clipPath id="dashClip">
        <rect x="0" y="0" width="850" height="200" rx="12"/>
    </clipPath>
  </defs>

  <rect width="100%" height="100%" fill="url(#carbonFiber)" rx="12" stroke="#39FF14" stroke-width="1" stroke-opacity="0.3"/>
  <rect width="100%" height="100%" fill="#000000" opacity="0.6" rx="12" />
  <g><polygon points="646,103 654.6,108 654.6,118 646,123 637.4,118 637.4,108" fill="none" stroke="#39FF14" stroke-width="1" opacity="0.07287101709019823"/>
<polygon points="157,133 165.6,138 165.6,148 157,153 148.4,148 148.4,138" fill="none" stroke="#39FF14" stroke-width="1" opacity="0.06925275376635852"/>
<polygon points="256,9 264.6,14 264.6,24 256,29 247.4,24 247.4,14" fill="none" stroke="#39FF14" stroke-width="1" opacity="0.04046662170999667"/>
<polygon points="649,5 657.6,10 657.6,20 649,25 640.4,20 640.4,10" fill="none" stroke="#39FF14" stroke-width="1" opacity="0.043878264053732935"/>
<polygon points="730,51 738.6,56 738.6,66 730,71 721.4,66 721.4,56" fill="none" stroke="#39FF14" stroke-width="1" opacity="0.05951847052470578"/>
<polygon points="146,12 154.6,17 154.6,27 146,32 137.4,27 137.4,17" fill="none" stroke="#39FF14" stroke-width="1" opacity="0.04864998774288445"/>
<polygon points="522,132 530.6,137 530.6,147 522,152 513.4,147 513.4,137" fill="none" stroke="#39FF14" stroke-width="1" opacity="0.05096447705378223"/>
<polygon points="323,189 331.6,194 331.6,204 323,209 314.4,204 314.4,194" fill="none" stroke="#39FF14" stroke-width="1" opacity="0.07065134457836778"/>
<polygon points="748,139 756.6,144 756.6,154 748,159 739.4,154 739.4,144" fill="none" stroke="#39FF14" stroke-width="1" opacity="0.045939167914433976"/>
<polygon points="723,7 731.6,12 731.6,22 723,27 714.4,22 714.4,12" fill="none" stroke="#39FF14" stroke-width="1" opacity="0.028440612887993058"/>
<polygon points="808,177 816.6,182 816.6,192 808,197 799.4,192 799.4,182" fill="none" stroke="#39FF14" stroke-width="1" opacity="0.04808962658018669"/>
<polygon points="200,77 208.6,82 208.6,92 200,97 191.4,92 191.4,82" fill="none" stroke="#39FF14" stroke-width="1" opacity="0.05732480252199525"/>
<polygon points="524,65 532.6,70 532.6,80 524,85 515.4,80 515.4,70" fill="none" stroke="#39FF14" stroke-width="1" opacity="0.06224188136772081"/>
<polygon points="474,103 482.6,108 482.6,118 474,123 465.4,118 465.4,108" fill="none" stroke="#39FF14" stroke-width="1" opacity="0.04810257316486925"/>
<polygon points="357,160 365.6,165 365.6,175 357,180 348.4,175 348.4,165" fill="none" stroke="#39FF14" stroke-width="1" opacity="0.027573808276160003"/>
<polygon points="481,188 489.6,193 489.6,203 481,208 472.4,203 472.4,193" fill="none" stroke="#39FF14" stroke-width="1" opacity="0.07053679509413927"/>
<polygon points="208,147 216.6,152 216.6,162 208,167 199.4,162 199.4,152" fill="none" stroke="#39FF14" stroke-width="1" opacity="0.07284967133528912"/>
<polygon points="705,104 713.6,109 713.6,119 705,124 696.4,119 696.4,109" fill="none" stroke="#39FF14" stroke-width="1" opacity="0.04464281216921752"/>
<polygon points="651,123 659.6,128 659.6,138 651,143 642.4,138 642.4,128" fill="none" stroke="#39FF14" stroke-width="1" opacity="0.07941271037045311"/>
<polygon points="16,46 24.6,51 24.6,61 16,66 7.4,61 7.4,51" fill="none" stroke="#39FF14" stroke-width="1" opacity="0.029319296831421395"/>
<polygon points="663,167 671.6,172 671.6,182 663,187 654.4,182 654.4,172" fill="none" stroke="#39FF14" stroke-width="1" opacity="0.05053152678255304"/>
<polygon points="532,167 540.6,172 540.6,182 532,187 523.4,182 523.4,172" fill="none" stroke="#39FF14" stroke-width="1" opacity="0.0796827287096886"/>
<polygon points="6,8 14.6,13 14.6,23 6,28 -2.5999999999999996,23 -2.5999999999999996,13" fill="none" stroke="#39FF14" stroke-width="1" opacity="0.07226316409872677"/>
<polygon points="699,94 707.6,99 707.6,109 699,114 690.4,109 690.4,99" fill="none" stroke="#39FF14" stroke-width="1" opacity="0.06262920821378869"/>
<polygon points="565,113 573.6,118 573.6,128 565,133 556.4,128 556.4,118" fill="none" stroke="#39FF14" stroke-width="1" opacity="0.075999516200405"/>
<polygon points="163,28 171.6,33 171.6,43 163,48 154.4,43 154.4,33" fill="none" stroke="#39FF14" stroke-width="1" opacity="0.0394400733901605"/>
<polygon points="441,133 449.6,138 449.6,148 441,153 432.4,148 432.4,138" fill="none" stroke="#39FF14" stroke-width="1" opacity="0.07231770248355407"/>
<polygon points="615,55 623.6,60 623.6,70 615,75 606.4,70 606.4,60" fill="none" stroke="#39FF14" stroke-width="1" opacity="0.03251170332306158"/>
<polygon points="837,123 845.6,128 845.6,138 837,143 828.4,138 828.4,128" fill="none" stroke="#39FF14" stroke-width="1" opacity="0.028221700402176957"/>
<polygon points="672,57 680.6,62 680.6,72 672,77 663.4,72 663.4,62" fill="none" stroke="#39FF14" stroke-width="1" opacity="0.020681675885940675"/>
</g>

  <!-- HUD Decorative elements -->
  <path d="M 20 20 L 40 20 L 50 30" fill="none" stroke="#39FF14" stroke-width="2" opacity="0.5"/>
  <path d="M 830 180 L 810 180 L 800 170" fill="none" stroke="#39FF14" stroke-width="2" opacity="0.5"/>

  <g clip-path="url(#dashClip)">
    <rect x="-160" y="0" width="160" height="200" fill="url(#scanlineGrad)">
      <animateTransform attributeName="transform" type="translate"
                        from="0 0" to="1010 0" dur="6s" repeatCount="indefinite"/>
    </rect>
  </g>

  <g font-family="'Consolas', 'Fira Code', monospace" text-anchor="middle">

    <!-- NETWORK STATUS -->
    <g transform="translate(130, 100)">
        <circle cx="0" cy="0" r="45" fill="none" stroke="#39FF14" stroke-width="2" stroke-dasharray="10 5">
            <animateTransform attributeName="transform" type="rotate" from="0" to="360" dur="10s" repeatCount="indefinite"/>
        </circle>
        <circle cx="0" cy="0" r="35" fill="#0d0d0d" />
        <text x="0" y="-60" font-size="12" fill="#aaaaaa" letter-spacing="2">ROOT.AUTH</text>
        <text x="0" y="70" font-size="14" fill="#ffffff" font-weight="bold">OPERATIONAL</text>
    </g>

    <!-- ACTIVE USERS -->
    <g transform="translate(330, 100)">
        <text x="0" y="-20" font-size="12" fill="#aaaaaa">CITIZENS</text>
        <text x="0" y="15" font-size="28" fill="#ffffff" font-weight="bold" filter="url(#textGlow)">13,246</text>
        <text x="0" y="35" font-size="10" fill="#777777">VERIFIED HUMANS</text>
    </g>

    <!-- REGISTERED AGENTS -->
    <g transform="translate(530, 100)">
        <text x="0" y="-20" font-size="12" fill="#aaaaaa">AGENTS</text>
        <text x="0" y="15" font-size="28" fill="#00d4ff" font-weight="bold" filter="url(#textGlow)">3,847</text>
        <text x="0" y="35" font-size="10" fill="#777777">REGISTERED DIDs</text>
    </g>

    <!-- TRANSACTIONS -->
    <g transform="translate(730, 100)">
        <text x="0" y="-20" font-size="12" fill="#aaaaaa">TRANSFERS</text>
        <text x="0" y="15" font-size="28" fill="#ffffff" font-weight="bold">29,280</text>
        <text x="0" y="35" font-size="10" fill="#777777">M2M SETTLEMENTS</text>
    </g>
  </g>

  <text x="425" y="185" font-family="'Consolas', 'Fira Code', monospace" font-size="10" fill="#aaaaaa" opacity="0.6" text-anchor="middle">AXIOMID PROJECTED TARGETS (ILLUSTRATIVE): 2026-06-29 18:37:49 UTC // SECURE_HANDSHAKE</text>
</svg>