<svg width="850" height="200" viewBox="0 0 850 200" xmlns="http://www.w3.org/2000/svg">
  <defs>
    <pattern id="carbonFiber" width="10" height="10" patternUnits="userSpaceOnUse">
        <rect width="10" height="10" fill="#050505"/>
        <path d="M0,0 L5,5 L10,0 L5,-5 Z M5,5 L10,10 L15,5 L10,0 Z M-5,5 L0,10 L5,5 L0,0 Z M0,10 L5,15 L10,10 L5,5 Z" fill="#0d0d0d"/>
    </pattern>
    <filter id="textGlow">
      <feGaussianBlur stdDeviation="2" result="blur" />
      <feMerge>
        <feMergeNode in="blur"/>
        <feMergeNode in="SourceGraphic"/>
      </feMerge>
    </filter>
    <linearGradient id="neonBar" x1="0%" y1="0%" x2="100%" y2="0%">
        <stop offset="0%" stop-color="#111111"/>
        <stop offset="100%" stop-color="#39FF14"/>
    </linearGradient>
    <linearGradient id="scanlineGrad" x1="0%" y1="0%" x2="100%" y2="0%">
        <stop offset="0%" stop-color="#39FF14" stop-opacity="0"/>
        <stop offset="50%" stop-color="#39FF14" stop-opacity="0.18"/>
        <stop offset="100%" stop-color="#39FF14" stop-opacity="0"/>
    </linearGradient>
    <clipPath id="dashClip">
        <rect x="0" y="0" width="850" height="200" rx="12"/>
    </clipPath>
  </defs>

  <rect width="100%" height="100%" fill="url(#carbonFiber)" rx="12" stroke="#39FF14" stroke-width="1" stroke-opacity="0.3"/>
  <rect width="100%" height="100%" fill="#000000" opacity="0.6" rx="12" />
  <g><polygon points="761,87 769.6,92 769.6,102 761,107 752.4,102 752.4,92" fill="none" stroke="#39FF14" stroke-width="1" opacity="0.04070622339653794"/>
<polygon points="665,87 673.6,92 673.6,102 665,107 656.4,102 656.4,92" fill="none" stroke="#39FF14" stroke-width="1" opacity="0.05344540937686543"/>
<polygon points="602,169 610.6,174 610.6,184 602,189 593.4,184 593.4,174" fill="none" stroke="#39FF14" stroke-width="1" opacity="0.07139874616167814"/>
<polygon points="464,78 472.6,83 472.6,93 464,98 455.4,93 455.4,83" fill="none" stroke="#39FF14" stroke-width="1" opacity="0.06479017260940088"/>
<polygon points="491,31 499.6,36 499.6,46 491,51 482.4,46 482.4,36" fill="none" stroke="#39FF14" stroke-width="1" opacity="0.03199038562906959"/>
<polygon points="697,101 705.6,106 705.6,116 697,121 688.4,116 688.4,106" fill="none" stroke="#39FF14" stroke-width="1" opacity="0.07659523686568447"/>
<polygon points="236,136 244.6,141 244.6,151 236,156 227.4,151 227.4,141" fill="none" stroke="#39FF14" stroke-width="1" opacity="0.026409303211856982"/>
<polygon points="824,129 832.6,134 832.6,144 824,149 815.4,144 815.4,134" fill="none" stroke="#39FF14" stroke-width="1" opacity="0.05394601566301144"/>
<polygon points="771,44 779.6,49 779.6,59 771,64 762.4,59 762.4,49" fill="none" stroke="#39FF14" stroke-width="1" opacity="0.05676456491181894"/>
<polygon points="324,181 332.6,186 332.6,196 324,201 315.4,196 315.4,186" fill="none" stroke="#39FF14" stroke-width="1" opacity="0.03206663006082637"/>
<polygon points="412,157 420.6,162 420.6,172 412,177 403.4,172 403.4,162" fill="none" stroke="#39FF14" stroke-width="1" opacity="0.07752656740678308"/>
<polygon points="389,28 397.6,33 397.6,43 389,48 380.4,43 380.4,33" fill="none" stroke="#39FF14" stroke-width="1" opacity="0.03337900307413717"/>
<polygon points="778,-3 786.6,2 786.6,12 778,17 769.4,12 769.4,2" fill="none" stroke="#39FF14" stroke-width="1" opacity="0.05264073288749253"/>
<polygon points="699,107 707.6,112 707.6,122 699,127 690.4,122 690.4,112" fill="none" stroke="#39FF14" stroke-width="1" opacity="0.03877205217585192"/>
<polygon points="169,56 177.6,61 177.6,71 169,76 160.4,71 160.4,61" fill="none" stroke="#39FF14" stroke-width="1" opacity="0.04375465244535884"/>
<polygon points="422,131 430.6,136 430.6,146 422,151 413.4,146 413.4,136" fill="none" stroke="#39FF14" stroke-width="1" opacity="0.0714984742847054"/>
<polygon points="800,111 808.6,116 808.6,126 800,131 791.4,126 791.4,116" fill="none" stroke="#39FF14" stroke-width="1" opacity="0.06201093362858337"/>
<polygon points="704,128 712.6,133 712.6,143 704,148 695.4,143 695.4,133" fill="none" stroke="#39FF14" stroke-width="1" opacity="0.036209459949699"/>
<polygon points="98,78 106.6,83 106.6,93 98,98 89.4,93 89.4,83" fill="none" stroke="#39FF14" stroke-width="1" opacity="0.030244719648326486"/>
<polygon points="102,7 110.6,12 110.6,22 102,27 93.4,22 93.4,12" fill="none" stroke="#39FF14" stroke-width="1" opacity="0.05625645990285909"/>
<polygon points="637,77 645.6,82 645.6,92 637,97 628.4,92 628.4,82" fill="none" stroke="#39FF14" stroke-width="1" opacity="0.03158574913615359"/>
<polygon points="247,76 255.6,81 255.6,91 247,96 238.4,91 238.4,81" fill="none" stroke="#39FF14" stroke-width="1" opacity="0.07814563838555919"/>
<polygon points="37,107 45.6,112 45.6,122 37,127 28.4,122 28.4,112" fill="none" stroke="#39FF14" stroke-width="1" opacity="0.05134349373735146"/>
<polygon points="353,115 361.6,120 361.6,130 353,135 344.4,130 344.4,120" fill="none" stroke="#39FF14" stroke-width="1" opacity="0.07066407919574348"/>
<polygon points="467,-6 475.6,-1 475.6,9 467,14 458.4,9 458.4,-1" fill="none" stroke="#39FF14" stroke-width="1" opacity="0.06548639420969997"/>
<polygon points="831,92 839.6,97 839.6,107 831,112 822.4,107 822.4,97" fill="none" stroke="#39FF14" stroke-width="1" opacity="0.06926481941887784"/>
<polygon points="80,119 88.6,124 88.6,134 80,139 71.4,134 71.4,124" fill="none" stroke="#39FF14" stroke-width="1" opacity="0.07458939061562346"/>
<polygon points="677,16 685.6,21 685.6,31 677,36 668.4,31 668.4,21" fill="none" stroke="#39FF14" stroke-width="1" opacity="0.06564065210617394"/>
<polygon points="101,141 109.6,146 109.6,156 101,161 92.4,156 92.4,146" fill="none" stroke="#39FF14" stroke-width="1" opacity="0.023931972339759876"/>
<polygon points="465,94 473.6,99 473.6,109 465,114 456.4,109 456.4,99" fill="none" stroke="#39FF14" stroke-width="1" opacity="0.028547701620007616"/>
</g>

  <!-- HUD Decorative elements -->
  <path d="M 20 20 L 40 20 L 50 30" fill="none" stroke="#39FF14" stroke-width="2" opacity="0.5"/>
  <path d="M 830 180 L 810 180 L 800 170" fill="none" stroke="#39FF14" stroke-width="2" opacity="0.5"/>

  <g clip-path="url(#dashClip)">
    <rect x="-160" y="0" width="160" height="200" fill="url(#scanlineGrad)">
      <animateTransform attributeName="transform" type="translate"
                        from="0 0" to="1010 0" dur="6s" repeatCount="indefinite"/>
    </rect>
  </g>

  <g font-family="'Consolas', 'Fira Code', monospace" text-anchor="middle">

    <!-- NETWORK STATUS -->
    <g transform="translate(130, 100)">
        <circle cx="0" cy="0" r="45" fill="none" stroke="#39FF14" stroke-width="2" stroke-dasharray="10 5">
            <animateTransform attributeName="transform" type="rotate" from="0" to="360" dur="10s" repeatCount="indefinite"/>
        </circle>
        <circle cx="0" cy="0" r="35" fill="#0d0d0d" />
        <text x="0" y="-60" font-size="12" fill="#aaaaaa" letter-spacing="2">ROOT.AUTH</text>
        <text x="0" y="70" font-size="14" fill="#ffffff" font-weight="bold">OPERATIONAL</text>
    </g>

    <!-- ACTIVE USERS -->
    <g transform="translate(330, 100)">
        <text x="0" y="-20" font-size="12" fill="#aaaaaa">CITIZENS</text>
        <text x="0" y="15" font-size="28" fill="#ffffff" font-weight="bold" filter="url(#textGlow)">14,464</text>
        <text x="0" y="35" font-size="10" fill="#777777">VERIFIED HUMANS</text>
    </g>

    <!-- REGISTERED AGENTS -->
    <g transform="translate(530, 100)">
        <text x="0" y="-20" font-size="12" fill="#aaaaaa">AGENTS</text>
        <text x="0" y="15" font-size="28" fill="#00d4ff" font-weight="bold" filter="url(#textGlow)">4,491</text>
        <text x="0" y="35" font-size="10" fill="#777777">REGISTERED DIDs</text>
    </g>

    <!-- TRANSACTIONS -->
    <g transform="translate(730, 100)">
        <text x="0" y="-20" font-size="12" fill="#aaaaaa">TRANSFERS</text>
        <text x="0" y="15" font-size="28" fill="#ffffff" font-weight="bold">35,189</text>
        <text x="0" y="35" font-size="10" fill="#777777">M2M SETTLEMENTS</text>
    </g>
  </g>

  <text x="425" y="185" font-family="'Consolas', 'Fira Code', monospace" font-size="10" fill="#aaaaaa" opacity="0.6" text-anchor="middle">AXIOMID PROJECTED TARGETS (ILLUSTRATIVE): 2026-06-23 10:14:19 UTC // SECURE_HANDSHAKE</text>
</svg>