<svg width="850" height="200" viewBox="0 0 850 200" xmlns="http://www.w3.org/2000/svg">
  <defs>
    <!-- Carbon Fiber Pattern -->
    <pattern id="carbonFiber" width="10" height="10" patternUnits="userSpaceOnUse">
        <rect width="10" height="10" fill="#050505"/>
        <path d="M0,0 L5,5 L10,0 L5,-5 Z M5,5 L10,10 L15,5 L10,0 Z M-5,5 L0,10 L5,5 L0,0 Z M0,10 L5,15 L10,10 L5,5 Z" fill="#0d0d0d"/>
    </pattern>
    <filter id="glassmorphism">
      <feGaussianBlur stdDeviation="3" result="blur" />
      <feColorMatrix type="matrix" values="1 0 0 0 0  0 1 0 0 0  0 0 1 0 0  0 0 0 18 -7" result="glow" />
      <feBlend in="SourceGraphic" in2="glow" mode="normal" />
    </filter>
    <filter id="textGlow">
      <feGaussianBlur stdDeviation="2" result="blur" />
      <feMerge>
        <feMergeNode in="blur"/>
        <feMergeNode in="SourceGraphic"/>
      </feMerge>
    </filter>
    <linearGradient id="neonBar" x1="0%" y1="0%" x2="100%" y2="0%">
        <stop offset="0%" stop-color="#111111"/>
        <stop offset="100%" stop-color="#39FF14"/>
    </linearGradient>
  </defs>

  <rect width="100%" height="100%" fill="url(#carbonFiber)" rx="12" stroke="#39FF14" stroke-width="1" stroke-opacity="0.3"/>
  <rect width="100%" height="100%" fill="#000000" opacity="0.6" rx="12" />
  <g><polygon points="695,52 703.6,57 703.6,67 695,72 686.4,67 686.4,57" fill="none" stroke="#39FF14" stroke-width="1" opacity="0.06249168199244633"/>
<polygon points="444,-1 452.6,4 452.6,14 444,19 435.4,14 435.4,4" fill="none" stroke="#39FF14" stroke-width="1" opacity="0.02770798700930529"/>
<polygon points="784,188 792.6,193 792.6,203 784,208 775.4,203 775.4,193" fill="none" stroke="#39FF14" stroke-width="1" opacity="0.06731322504688597"/>
<polygon points="285,63 293.6,68 293.6,78 285,83 276.4,78 276.4,68" fill="none" stroke="#39FF14" stroke-width="1" opacity="0.05588916192537342"/>
<polygon points="757,150 765.6,155 765.6,165 757,170 748.4,165 748.4,155" fill="none" stroke="#39FF14" stroke-width="1" opacity="0.059266168616317394"/>
<polygon points="56,-9 64.6,-4 64.6,6 56,11 47.4,6 47.4,-4" fill="none" stroke="#39FF14" stroke-width="1" opacity="0.0454882149585623"/>
<polygon points="637,67 645.6,72 645.6,82 637,87 628.4,82 628.4,72" fill="none" stroke="#39FF14" stroke-width="1" opacity="0.042328165925742914"/>
<polygon points="187,3 195.6,8 195.6,18 187,23 178.4,18 178.4,8" fill="none" stroke="#39FF14" stroke-width="1" opacity="0.04216468004411354"/>
<polygon points="206,101 214.6,106 214.6,116 206,121 197.4,116 197.4,106" fill="none" stroke="#39FF14" stroke-width="1" opacity="0.026666755376598406"/>
<polygon points="88,17 96.6,22 96.6,32 88,37 79.4,32 79.4,22" fill="none" stroke="#39FF14" stroke-width="1" opacity="0.07221378911585977"/>
<polygon points="340,61 348.6,66 348.6,76 340,81 331.4,76 331.4,66" fill="none" stroke="#39FF14" stroke-width="1" opacity="0.03845166680524266"/>
<polygon points="297,55 305.6,60 305.6,70 297,75 288.4,70 288.4,60" fill="none" stroke="#39FF14" stroke-width="1" opacity="0.023465356818035278"/>
<polygon points="108,151 116.6,156 116.6,166 108,171 99.4,166 99.4,156" fill="none" stroke="#39FF14" stroke-width="1" opacity="0.07658101018886726"/>
<polygon points="781,96 789.6,101 789.6,111 781,116 772.4,111 772.4,101" fill="none" stroke="#39FF14" stroke-width="1" opacity="0.037379110510002686"/>
<polygon points="743,11 751.6,16 751.6,26 743,31 734.4,26 734.4,16" fill="none" stroke="#39FF14" stroke-width="1" opacity="0.07771963586396566"/>
<polygon points="516,58 524.6,63 524.6,73 516,78 507.4,73 507.4,63" fill="none" stroke="#39FF14" stroke-width="1" opacity="0.07810092210291283"/>
<polygon points="303,180 311.6,185 311.6,195 303,200 294.4,195 294.4,185" fill="none" stroke="#39FF14" stroke-width="1" opacity="0.07534204596588517"/>
<polygon points="720,189 728.6,194 728.6,204 720,209 711.4,204 711.4,194" fill="none" stroke="#39FF14" stroke-width="1" opacity="0.05141942868512195"/>
<polygon points="313,75 321.6,80 321.6,90 313,95 304.4,90 304.4,80" fill="none" stroke="#39FF14" stroke-width="1" opacity="0.04867266574961338"/>
<polygon points="109,50 117.6,55 117.6,65 109,70 100.4,65 100.4,55" fill="none" stroke="#39FF14" stroke-width="1" opacity="0.022076654015246625"/>
<polygon points="226,54 234.6,59 234.6,69 226,74 217.4,69 217.4,59" fill="none" stroke="#39FF14" stroke-width="1" opacity="0.04779234333601002"/>
<polygon points="285,185 293.6,190 293.6,200 285,205 276.4,200 276.4,190" fill="none" stroke="#39FF14" stroke-width="1" opacity="0.07458390802552119"/>
<polygon points="51,95 59.6,100 59.6,110 51,115 42.4,110 42.4,100" fill="none" stroke="#39FF14" stroke-width="1" opacity="0.024949648777717236"/>
<polygon points="52,165 60.6,170 60.6,180 52,185 43.4,180 43.4,170" fill="none" stroke="#39FF14" stroke-width="1" opacity="0.04805131694302814"/>
<polygon points="490,95 498.6,100 498.6,110 490,115 481.4,110 481.4,100" fill="none" stroke="#39FF14" stroke-width="1" opacity="0.052231789811439444"/>
<polygon points="181,28 189.6,33 189.6,43 181,48 172.4,43 172.4,33" fill="none" stroke="#39FF14" stroke-width="1" opacity="0.06865301326008039"/>
<polygon points="536,64 544.6,69 544.6,79 536,84 527.4,79 527.4,69" fill="none" stroke="#39FF14" stroke-width="1" opacity="0.0743349811498505"/>
<polygon points="246,37 254.6,42 254.6,52 246,57 237.4,52 237.4,42" fill="none" stroke="#39FF14" stroke-width="1" opacity="0.05428451325392106"/>
<polygon points="188,139 196.6,144 196.6,154 188,159 179.4,154 179.4,144" fill="none" stroke="#39FF14" stroke-width="1" opacity="0.03109721739738126"/>
<polygon points="407,141 415.6,146 415.6,156 407,161 398.4,156 398.4,146" fill="none" stroke="#39FF14" stroke-width="1" opacity="0.07278712368762491"/>
</g>

  <!-- HUD Decorative elements -->
  <path d="M 20 20 L 40 20 L 50 30" fill="none" stroke="#39FF14" stroke-width="2" opacity="0.5"/>
  <path d="M 830 180 L 810 180 L 800 170" fill="none" stroke="#39FF14" stroke-width="2" opacity="0.5"/>
  <rect x="20" y="100" width="2" height="40" fill="#ffffff" opacity="0.4"/>
  <rect x="828" y="60" width="2" height="40" fill="#39FF14" opacity="0.6"/>

  <g font-family="'Consolas', 'Fira Code', monospace" text-anchor="middle">

    <!-- SYSTEM STATUS -->
    <g transform="translate(130, 100)">
        <circle cx="0" cy="0" r="45" fill="none" stroke="#111111" stroke-width="8" />
        <circle cx="0" cy="0" r="45" fill="none" stroke="#39FF14" stroke-width="2" stroke-dasharray="10 5">
            <animateTransform attributeName="transform" type="rotate" from="0" to="360" dur="10s" repeatCount="indefinite"/>
        </circle>
        <circle cx="0" cy="0" r="35" fill="#0d0d0d" />
        <circle cx="0" cy="0" r="6" fill="#39FF14" filter="url(#textGlow)">
            <animate attributeName="opacity" values="1;0.3;1" dur="2s" repeatCount="indefinite"/>
        </circle>
        <text x="0" y="-60" font-size="12" fill="#aaaaaa" letter-spacing="2">SYS.CORE</text>
        <text x="0" y="70" font-size="14" fill="#ffffff" font-weight="bold">ONLINE</text>
    </g>

    <!-- LIVE TRAFFIC -->
    <g transform="translate(330, 100)">
        <rect x="-60" y="-45" width="120" height="90" fill="#0a0a0a" rx="8" stroke="#39FF14" stroke-opacity="0.4" stroke-width="1"/>
        <text x="0" y="-20" font-size="12" fill="#aaaaaa">NETWORK LOAD</text>
        <text x="0" y="15" font-size="28" fill="#ffffff" font-weight="bold" filter="url(#textGlow)">5513</text>
        <text x="0" y="35" font-size="10" fill="#777777">ACTIVE SESSIONS</text>
    </g>

    <!-- ACTIVE AGENTS -->
    <g transform="translate(530, 100)">
        <rect x="-60" y="-45" width="120" height="90" fill="#0a0a0a" rx="8" stroke="#39FF14" stroke-opacity="0.4" stroke-width="1"/>
        <text x="0" y="-20" font-size="12" fill="#aaaaaa">SWARM ENTITIES</text>
        <text x="0" y="15" font-size="28" fill="#ffffff" font-weight="bold" filter="url(#textGlow)">179</text>
        <text x="0" y="35" font-size="10" fill="#777777">AUTONOMOUS</text>
    </g>

    <!-- UPTIME -->
    <g transform="translate(730, 100)">
        <path d="M -40 -35 L 40 -35 L 50 -25 L 50 35 L -40 35 L -50 25 Z" fill="#0a0a0a" stroke="#39FF14" stroke-opacity="0.4" stroke-width="1"/>
        <text x="0" y="-15" font-size="12" fill="#aaaaaa">CONTINUITY</text>
        <text x="0" y="15" font-size="24" fill="#ffffff" font-weight="bold">210<tspan font-size="14" fill="#777777">d</tspan></text>
        <rect x="-35" y="25" width="70" height="4" fill="url(#neonBar)" rx="2"/>
    </g>
  </g>

  <text x="425" y="185" font-family="'Consolas', 'Fira Code', monospace" font-size="10" fill="#aaaaaa" opacity="0.6" text-anchor="middle">LAST TELEMETRY PING: 2026-05-11 00:54:09 UTC // ENCRYPTED_TUNNEL</text>
</svg>