<svg width="850" height="200" viewBox="0 0 850 200" xmlns="http://www.w3.org/2000/svg">
  <defs>
    <pattern id="carbonFiber" width="10" height="10" patternUnits="userSpaceOnUse">
        <rect width="10" height="10" fill="#050505"/>
        <path d="M0,0 L5,5 L10,0 L5,-5 Z M5,5 L10,10 L15,5 L10,0 Z M-5,5 L0,10 L5,5 L0,0 Z M0,10 L5,15 L10,10 L5,5 Z" fill="#0d0d0d"/>
    </pattern>
    <filter id="textGlow">
      <feGaussianBlur stdDeviation="2" result="blur" />
      <feMerge>
        <feMergeNode in="blur"/>
        <feMergeNode in="SourceGraphic"/>
      </feMerge>
    </filter>
    <linearGradient id="neonBar" x1="0%" y1="0%" x2="100%" y2="0%">
        <stop offset="0%" stop-color="#111111"/>
        <stop offset="100%" stop-color="#39FF14"/>
    </linearGradient>
    <linearGradient id="scanlineGrad" x1="0%" y1="0%" x2="100%" y2="0%">
        <stop offset="0%" stop-color="#39FF14" stop-opacity="0"/>
        <stop offset="50%" stop-color="#39FF14" stop-opacity="0.18"/>
        <stop offset="100%" stop-color="#39FF14" stop-opacity="0"/>
    </linearGradient>
    <clipPath id="dashClip">
        <rect x="0" y="0" width="850" height="200" rx="12"/>
    </clipPath>
  </defs>

  <rect width="100%" height="100%" fill="url(#carbonFiber)" rx="12" stroke="#39FF14" stroke-width="1" stroke-opacity="0.3"/>
  <rect width="100%" height="100%" fill="#000000" opacity="0.6" rx="12" />
  <g><polygon points="187,133 195.6,138 195.6,148 187,153 178.4,148 178.4,138" fill="none" stroke="#39FF14" stroke-width="1" opacity="0.046361408550147906"/>
<polygon points="11,127 19.6,132 19.6,142 11,147 2.4000000000000004,142 2.4000000000000004,132" fill="none" stroke="#39FF14" stroke-width="1" opacity="0.022257896324405335"/>
<polygon points="777,98 785.6,103 785.6,113 777,118 768.4,113 768.4,103" fill="none" stroke="#39FF14" stroke-width="1" opacity="0.036091586098606056"/>
<polygon points="410,62 418.6,67 418.6,77 410,82 401.4,77 401.4,67" fill="none" stroke="#39FF14" stroke-width="1" opacity="0.07031444381967776"/>
<polygon points="785,30 793.6,35 793.6,45 785,50 776.4,45 776.4,35" fill="none" stroke="#39FF14" stroke-width="1" opacity="0.03681895947293863"/>
<polygon points="586,17 594.6,22 594.6,32 586,37 577.4,32 577.4,22" fill="none" stroke="#39FF14" stroke-width="1" opacity="0.06767351651188562"/>
<polygon points="120,72 128.6,77 128.6,87 120,92 111.4,87 111.4,77" fill="none" stroke="#39FF14" stroke-width="1" opacity="0.029191096390822784"/>
<polygon points="770,183 778.6,188 778.6,198 770,203 761.4,198 761.4,188" fill="none" stroke="#39FF14" stroke-width="1" opacity="0.03377444895521609"/>
<polygon points="710,-10 718.6,-5 718.6,5 710,10 701.4,5 701.4,-5" fill="none" stroke="#39FF14" stroke-width="1" opacity="0.07154324672030855"/>
<polygon points="622,112 630.6,117 630.6,127 622,132 613.4,127 613.4,117" fill="none" stroke="#39FF14" stroke-width="1" opacity="0.05151024910138649"/>
<polygon points="131,26 139.6,31 139.6,41 131,46 122.4,41 122.4,31" fill="none" stroke="#39FF14" stroke-width="1" opacity="0.06912207145159403"/>
<polygon points="14,154 22.6,159 22.6,169 14,174 5.4,169 5.4,159" fill="none" stroke="#39FF14" stroke-width="1" opacity="0.057478009084338616"/>
<polygon points="166,181 174.6,186 174.6,196 166,201 157.4,196 157.4,186" fill="none" stroke="#39FF14" stroke-width="1" opacity="0.05245378891305781"/>
<polygon points="604,152 612.6,157 612.6,167 604,172 595.4,167 595.4,157" fill="none" stroke="#39FF14" stroke-width="1" opacity="0.06950528730265941"/>
<polygon points="484,123 492.6,128 492.6,138 484,143 475.4,138 475.4,128" fill="none" stroke="#39FF14" stroke-width="1" opacity="0.02013126272363709"/>
<polygon points="109,38 117.6,43 117.6,53 109,58 100.4,53 100.4,43" fill="none" stroke="#39FF14" stroke-width="1" opacity="0.044763489677490984"/>
<polygon points="410,79 418.6,84 418.6,94 410,99 401.4,94 401.4,84" fill="none" stroke="#39FF14" stroke-width="1" opacity="0.07015746484127285"/>
<polygon points="804,124 812.6,129 812.6,139 804,144 795.4,139 795.4,129" fill="none" stroke="#39FF14" stroke-width="1" opacity="0.026687403421320033"/>
<polygon points="195,174 203.6,179 203.6,189 195,194 186.4,189 186.4,179" fill="none" stroke="#39FF14" stroke-width="1" opacity="0.07004750180143095"/>
<polygon points="260,96 268.6,101 268.6,111 260,116 251.4,111 251.4,101" fill="none" stroke="#39FF14" stroke-width="1" opacity="0.04228523669023036"/>
<polygon points="792,44 800.6,49 800.6,59 792,64 783.4,59 783.4,49" fill="none" stroke="#39FF14" stroke-width="1" opacity="0.039926922905133645"/>
<polygon points="319,135 327.6,140 327.6,150 319,155 310.4,150 310.4,140" fill="none" stroke="#39FF14" stroke-width="1" opacity="0.03622276178340633"/>
<polygon points="484,-10 492.6,-5 492.6,5 484,10 475.4,5 475.4,-5" fill="none" stroke="#39FF14" stroke-width="1" opacity="0.051583359994927386"/>
<polygon points="418,180 426.6,185 426.6,195 418,200 409.4,195 409.4,185" fill="none" stroke="#39FF14" stroke-width="1" opacity="0.02823183505365234"/>
<polygon points="513,39 521.6,44 521.6,54 513,59 504.4,54 504.4,44" fill="none" stroke="#39FF14" stroke-width="1" opacity="0.05613573140851098"/>
<polygon points="704,62 712.6,67 712.6,77 704,82 695.4,77 695.4,67" fill="none" stroke="#39FF14" stroke-width="1" opacity="0.0651838206110085"/>
<polygon points="761,36 769.6,41 769.6,51 761,56 752.4,51 752.4,41" fill="none" stroke="#39FF14" stroke-width="1" opacity="0.03774284464301072"/>
<polygon points="35,103 43.6,108 43.6,118 35,123 26.4,118 26.4,108" fill="none" stroke="#39FF14" stroke-width="1" opacity="0.05205666158463938"/>
<polygon points="127,141 135.6,146 135.6,156 127,161 118.4,156 118.4,146" fill="none" stroke="#39FF14" stroke-width="1" opacity="0.07156961306403177"/>
<polygon points="42,83 50.6,88 50.6,98 42,103 33.4,98 33.4,88" fill="none" stroke="#39FF14" stroke-width="1" opacity="0.06729589922877464"/>
</g>

  <!-- HUD Decorative elements -->
  <path d="M 20 20 L 40 20 L 50 30" fill="none" stroke="#39FF14" stroke-width="2" opacity="0.5"/>
  <path d="M 830 180 L 810 180 L 800 170" fill="none" stroke="#39FF14" stroke-width="2" opacity="0.5"/>

  <g clip-path="url(#dashClip)">
    <rect x="-160" y="0" width="160" height="200" fill="url(#scanlineGrad)">
      <animateTransform attributeName="transform" type="translate"
                        from="0 0" to="1010 0" dur="6s" repeatCount="indefinite"/>
    </rect>
  </g>

  <g font-family="'Consolas', 'Fira Code', monospace" text-anchor="middle">

    <!-- NETWORK STATUS -->
    <g transform="translate(130, 100)">
        <circle cx="0" cy="0" r="45" fill="none" stroke="#39FF14" stroke-width="2" stroke-dasharray="10 5">
            <animateTransform attributeName="transform" type="rotate" from="0" to="360" dur="10s" repeatCount="indefinite"/>
        </circle>
        <circle cx="0" cy="0" r="35" fill="#0d0d0d" />
        <text x="0" y="-60" font-size="12" fill="#aaaaaa" letter-spacing="2">ROOT.AUTH</text>
        <text x="0" y="70" font-size="14" fill="#ffffff" font-weight="bold">OPERATIONAL</text>
    </g>

    <!-- ACTIVE USERS -->
    <g transform="translate(330, 100)">
        <text x="0" y="-20" font-size="12" fill="#aaaaaa">CITIZENS</text>
        <text x="0" y="15" font-size="28" fill="#ffffff" font-weight="bold" filter="url(#textGlow)">13,835</text>
        <text x="0" y="35" font-size="10" fill="#777777">VERIFIED HUMANS</text>
    </g>

    <!-- REGISTERED AGENTS -->
    <g transform="translate(530, 100)">
        <text x="0" y="-20" font-size="12" fill="#aaaaaa">AGENTS</text>
        <text x="0" y="15" font-size="28" fill="#00d4ff" font-weight="bold" filter="url(#textGlow)">3,633</text>
        <text x="0" y="35" font-size="10" fill="#777777">REGISTERED DIDs</text>
    </g>

    <!-- TRANSACTIONS -->
    <g transform="translate(730, 100)">
        <text x="0" y="-20" font-size="12" fill="#aaaaaa">TRANSFERS</text>
        <text x="0" y="15" font-size="28" fill="#ffffff" font-weight="bold">29,637</text>
        <text x="0" y="35" font-size="10" fill="#777777">M2M SETTLEMENTS</text>
    </g>
  </g>

  <text x="425" y="185" font-family="'Consolas', 'Fira Code', monospace" font-size="10" fill="#aaaaaa" opacity="0.6" text-anchor="middle">AXIOMID PROJECTED TARGETS (ILLUSTRATIVE): 2026-07-06 17:34:42 UTC // SECURE_HANDSHAKE</text>
</svg>