<svg width="850" height="200" viewBox="0 0 850 200" xmlns="http://www.w3.org/2000/svg">
  <defs>
    <!-- Carbon Fiber Pattern -->
    <pattern id="carbonFiber" width="10" height="10" patternUnits="userSpaceOnUse">
        <rect width="10" height="10" fill="#050505"/>
        <path d="M0,0 L5,5 L10,0 L5,-5 Z M5,5 L10,10 L15,5 L10,0 Z M-5,5 L0,10 L5,5 L0,0 Z M0,10 L5,15 L10,10 L5,5 Z" fill="#0d0d0d"/>
    </pattern>
    <filter id="glassmorphism">
      <feGaussianBlur stdDeviation="3" result="blur" />
      <feColorMatrix type="matrix" values="1 0 0 0 0  0 1 0 0 0  0 0 1 0 0  0 0 0 18 -7" result="glow" />
      <feBlend in="SourceGraphic" in2="glow" mode="normal" />
    </filter>
    <filter id="textGlow">
      <feGaussianBlur stdDeviation="2" result="blur" />
      <feMerge>
        <feMergeNode in="blur"/>
        <feMergeNode in="SourceGraphic"/>
      </feMerge>
    </filter>
    <linearGradient id="neonBar" x1="0%" y1="0%" x2="100%" y2="0%">
        <stop offset="0%" stop-color="#111111"/>
        <stop offset="100%" stop-color="#39FF14"/>
    </linearGradient>
  </defs>

  <rect width="100%" height="100%" fill="url(#carbonFiber)" rx="12" stroke="#39FF14" stroke-width="1" stroke-opacity="0.3"/>
  <rect width="100%" height="100%" fill="#000000" opacity="0.6" rx="12" />
  <g><polygon points="569,21 577.6,26 577.6,36 569,41 560.4,36 560.4,26" fill="none" stroke="#39FF14" stroke-width="1" opacity="0.02251081248838408"/>
<polygon points="819,100 827.6,105 827.6,115 819,120 810.4,115 810.4,105" fill="none" stroke="#39FF14" stroke-width="1" opacity="0.03161926897756527"/>
<polygon points="310,146 318.6,151 318.6,161 310,166 301.4,161 301.4,151" fill="none" stroke="#39FF14" stroke-width="1" opacity="0.07513308813077438"/>
<polygon points="445,171 453.6,176 453.6,186 445,191 436.4,186 436.4,176" fill="none" stroke="#39FF14" stroke-width="1" opacity="0.060778129596940955"/>
<polygon points="238,47 246.6,52 246.6,62 238,67 229.4,62 229.4,52" fill="none" stroke="#39FF14" stroke-width="1" opacity="0.029367679755112265"/>
<polygon points="685,13 693.6,18 693.6,28 685,33 676.4,28 676.4,18" fill="none" stroke="#39FF14" stroke-width="1" opacity="0.02662209383340463"/>
<polygon points="220,94 228.6,99 228.6,109 220,114 211.4,109 211.4,99" fill="none" stroke="#39FF14" stroke-width="1" opacity="0.0700020042549747"/>
<polygon points="237,98 245.6,103 245.6,113 237,118 228.4,113 228.4,103" fill="none" stroke="#39FF14" stroke-width="1" opacity="0.059860945773864666"/>
<polygon points="834,59 842.6,64 842.6,74 834,79 825.4,74 825.4,64" fill="none" stroke="#39FF14" stroke-width="1" opacity="0.07255701099777202"/>
<polygon points="14,46 22.6,51 22.6,61 14,66 5.4,61 5.4,51" fill="none" stroke="#39FF14" stroke-width="1" opacity="0.06114541160122822"/>
<polygon points="576,100 584.6,105 584.6,115 576,120 567.4,115 567.4,105" fill="none" stroke="#39FF14" stroke-width="1" opacity="0.05609003646814731"/>
<polygon points="235,168 243.6,173 243.6,183 235,188 226.4,183 226.4,173" fill="none" stroke="#39FF14" stroke-width="1" opacity="0.04528038717961477"/>
<polygon points="230,87 238.6,92 238.6,102 230,107 221.4,102 221.4,92" fill="none" stroke="#39FF14" stroke-width="1" opacity="0.054352470825663704"/>
<polygon points="765,9 773.6,14 773.6,24 765,29 756.4,24 756.4,14" fill="none" stroke="#39FF14" stroke-width="1" opacity="0.06143058933077675"/>
<polygon points="58,90 66.6,95 66.6,105 58,110 49.4,105 49.4,95" fill="none" stroke="#39FF14" stroke-width="1" opacity="0.029216586934495532"/>
<polygon points="441,79 449.6,84 449.6,94 441,99 432.4,94 432.4,84" fill="none" stroke="#39FF14" stroke-width="1" opacity="0.05646764896509998"/>
<polygon points="178,17 186.6,22 186.6,32 178,37 169.4,32 169.4,22" fill="none" stroke="#39FF14" stroke-width="1" opacity="0.02139784536810514"/>
<polygon points="169,96 177.6,101 177.6,111 169,116 160.4,111 160.4,101" fill="none" stroke="#39FF14" stroke-width="1" opacity="0.022296981708275553"/>
<polygon points="690,105 698.6,110 698.6,120 690,125 681.4,120 681.4,110" fill="none" stroke="#39FF14" stroke-width="1" opacity="0.04566289804923506"/>
<polygon points="235,174 243.6,179 243.6,189 235,194 226.4,189 226.4,179" fill="none" stroke="#39FF14" stroke-width="1" opacity="0.024888662235244118"/>
<polygon points="253,99 261.6,104 261.6,114 253,119 244.4,114 244.4,104" fill="none" stroke="#39FF14" stroke-width="1" opacity="0.07272787643128213"/>
<polygon points="617,151 625.6,156 625.6,166 617,171 608.4,166 608.4,156" fill="none" stroke="#39FF14" stroke-width="1" opacity="0.04707247770123378"/>
<polygon points="173,103 181.6,108 181.6,118 173,123 164.4,118 164.4,108" fill="none" stroke="#39FF14" stroke-width="1" opacity="0.07091511283304763"/>
<polygon points="585,156 593.6,161 593.6,171 585,176 576.4,171 576.4,161" fill="none" stroke="#39FF14" stroke-width="1" opacity="0.060922358867402396"/>
<polygon points="406,162 414.6,167 414.6,177 406,182 397.4,177 397.4,167" fill="none" stroke="#39FF14" stroke-width="1" opacity="0.06416522131288496"/>
<polygon points="616,138 624.6,143 624.6,153 616,158 607.4,153 607.4,143" fill="none" stroke="#39FF14" stroke-width="1" opacity="0.07291662471693026"/>
<polygon points="535,26 543.6,31 543.6,41 535,46 526.4,41 526.4,31" fill="none" stroke="#39FF14" stroke-width="1" opacity="0.07752756479622343"/>
<polygon points="305,46 313.6,51 313.6,61 305,66 296.4,61 296.4,51" fill="none" stroke="#39FF14" stroke-width="1" opacity="0.023928490960901567"/>
<polygon points="750,35 758.6,40 758.6,50 750,55 741.4,50 741.4,40" fill="none" stroke="#39FF14" stroke-width="1" opacity="0.030878385232833393"/>
<polygon points="543,3 551.6,8 551.6,18 543,23 534.4,18 534.4,8" fill="none" stroke="#39FF14" stroke-width="1" opacity="0.05395582891974292"/>
</g>

  <!-- HUD Decorative elements -->
  <path d="M 20 20 L 40 20 L 50 30" fill="none" stroke="#39FF14" stroke-width="2" opacity="0.5"/>
  <path d="M 830 180 L 810 180 L 800 170" fill="none" stroke="#39FF14" stroke-width="2" opacity="0.5"/>
  <rect x="20" y="100" width="2" height="40" fill="#ffffff" opacity="0.4"/>
  <rect x="828" y="60" width="2" height="40" fill="#39FF14" opacity="0.6"/>

  <g font-family="'Consolas', 'Fira Code', monospace" text-anchor="middle">

    <!-- SYSTEM STATUS -->
    <g transform="translate(130, 100)">
        <circle cx="0" cy="0" r="45" fill="none" stroke="#111111" stroke-width="8" />
        <circle cx="0" cy="0" r="45" fill="none" stroke="#39FF14" stroke-width="2" stroke-dasharray="10 5">
            <animateTransform attributeName="transform" type="rotate" from="0" to="360" dur="10s" repeatCount="indefinite"/>
        </circle>
        <circle cx="0" cy="0" r="35" fill="#0d0d0d" />
        <circle cx="0" cy="0" r="6" fill="#39FF14" filter="url(#textGlow)">
            <animate attributeName="opacity" values="1;0.3;1" dur="2s" repeatCount="indefinite"/>
        </circle>
        <text x="0" y="-60" font-size="12" fill="#aaaaaa" letter-spacing="2">SYS.CORE</text>
        <text x="0" y="70" font-size="14" fill="#ffffff" font-weight="bold">ONLINE</text>
    </g>

    <!-- LIVE TRAFFIC -->
    <g transform="translate(330, 100)">
        <rect x="-60" y="-45" width="120" height="90" fill="#0a0a0a" rx="8" stroke="#39FF14" stroke-opacity="0.4" stroke-width="1"/>
        <text x="0" y="-20" font-size="12" fill="#aaaaaa">NETWORK LOAD</text>
        <text x="0" y="15" font-size="28" fill="#ffffff" font-weight="bold" filter="url(#textGlow)">5566</text>
        <text x="0" y="35" font-size="10" fill="#777777">ACTIVE SESSIONS</text>
    </g>

    <!-- ACTIVE AGENTS -->
    <g transform="translate(530, 100)">
        <rect x="-60" y="-45" width="120" height="90" fill="#0a0a0a" rx="8" stroke="#39FF14" stroke-opacity="0.4" stroke-width="1"/>
        <text x="0" y="-20" font-size="12" fill="#aaaaaa">SWARM ENTITIES</text>
        <text x="0" y="15" font-size="28" fill="#ffffff" font-weight="bold" filter="url(#textGlow)">170</text>
        <text x="0" y="35" font-size="10" fill="#777777">AUTONOMOUS</text>
    </g>

    <!-- UPTIME -->
    <g transform="translate(730, 100)">
        <path d="M -40 -35 L 40 -35 L 50 -25 L 50 35 L -40 35 L -50 25 Z" fill="#0a0a0a" stroke="#39FF14" stroke-opacity="0.4" stroke-width="1"/>
        <text x="0" y="-15" font-size="12" fill="#aaaaaa">CONTINUITY</text>
        <text x="0" y="15" font-size="24" fill="#ffffff" font-weight="bold">310<tspan font-size="14" fill="#777777">d</tspan></text>
        <rect x="-35" y="25" width="70" height="4" fill="url(#neonBar)" rx="2"/>
    </g>
  </g>

  <text x="425" y="185" font-family="'Consolas', 'Fira Code', monospace" font-size="10" fill="#aaaaaa" opacity="0.6" text-anchor="middle">LAST TELEMETRY PING: 2026-05-13 01:55:33 UTC // ENCRYPTED_TUNNEL</text>
</svg>