<svg width="850" height="200" viewBox="0 0 850 200" xmlns="http://www.w3.org/2000/svg">
  <defs>
    <!-- Carbon Fiber Pattern -->
    <pattern id="carbonFiber" width="10" height="10" patternUnits="userSpaceOnUse">
        <rect width="10" height="10" fill="#050505"/>
        <path d="M0,0 L5,5 L10,0 L5,-5 Z M5,5 L10,10 L15,5 L10,0 Z M-5,5 L0,10 L5,5 L0,0 Z M0,10 L5,15 L10,10 L5,5 Z" fill="#0d0d0d"/>
    </pattern>
    <filter id="glassmorphism">
      <feGaussianBlur stdDeviation="3" result="blur" />
      <feColorMatrix type="matrix" values="1 0 0 0 0  0 1 0 0 0  0 0 1 0 0  0 0 0 18 -7" result="glow" />
      <feBlend in="SourceGraphic" in2="glow" mode="normal" />
    </filter>
    <filter id="textGlow">
      <feGaussianBlur stdDeviation="2" result="blur" />
      <feMerge>
        <feMergeNode in="blur"/>
        <feMergeNode in="SourceGraphic"/>
      </feMerge>
    </filter>
    <linearGradient id="neonBar" x1="0%" y1="0%" x2="100%" y2="0%">
        <stop offset="0%" stop-color="#111111"/>
        <stop offset="100%" stop-color="#39FF14"/>
    </linearGradient>
  </defs>

  <rect width="100%" height="100%" fill="url(#carbonFiber)" rx="12" stroke="#39FF14" stroke-width="1" stroke-opacity="0.3"/>
  <rect width="100%" height="100%" fill="#000000" opacity="0.6" rx="12" />
  <g><polygon points="302,96 310.6,101 310.6,111 302,116 293.4,111 293.4,101" fill="none" stroke="#39FF14" stroke-width="1" opacity="0.03316577091988813"/>
<polygon points="81,152 89.6,157 89.6,167 81,172 72.4,167 72.4,157" fill="none" stroke="#39FF14" stroke-width="1" opacity="0.054104008785606825"/>
<polygon points="612,6 620.6,11 620.6,21 612,26 603.4,21 603.4,11" fill="none" stroke="#39FF14" stroke-width="1" opacity="0.058769214687968405"/>
<polygon points="238,139 246.6,144 246.6,154 238,159 229.4,154 229.4,144" fill="none" stroke="#39FF14" stroke-width="1" opacity="0.07973001369898183"/>
<polygon points="402,144 410.6,149 410.6,159 402,164 393.4,159 393.4,149" fill="none" stroke="#39FF14" stroke-width="1" opacity="0.04413529939136816"/>
<polygon points="433,60 441.6,65 441.6,75 433,80 424.4,75 424.4,65" fill="none" stroke="#39FF14" stroke-width="1" opacity="0.04928794491805755"/>
<polygon points="183,57 191.6,62 191.6,72 183,77 174.4,72 174.4,62" fill="none" stroke="#39FF14" stroke-width="1" opacity="0.06724816220872161"/>
<polygon points="298,139 306.6,144 306.6,154 298,159 289.4,154 289.4,144" fill="none" stroke="#39FF14" stroke-width="1" opacity="0.02612841892442442"/>
<polygon points="804,107 812.6,112 812.6,122 804,127 795.4,122 795.4,112" fill="none" stroke="#39FF14" stroke-width="1" opacity="0.022815803503263628"/>
<polygon points="309,102 317.6,107 317.6,117 309,122 300.4,117 300.4,107" fill="none" stroke="#39FF14" stroke-width="1" opacity="0.05937192813050281"/>
<polygon points="331,116 339.6,121 339.6,131 331,136 322.4,131 322.4,121" fill="none" stroke="#39FF14" stroke-width="1" opacity="0.027982800648321343"/>
<polygon points="771,118 779.6,123 779.6,133 771,138 762.4,133 762.4,123" fill="none" stroke="#39FF14" stroke-width="1" opacity="0.024920104309594546"/>
<polygon points="546,2 554.6,7 554.6,17 546,22 537.4,17 537.4,7" fill="none" stroke="#39FF14" stroke-width="1" opacity="0.06243079910541523"/>
<polygon points="225,2 233.6,7 233.6,17 225,22 216.4,17 216.4,7" fill="none" stroke="#39FF14" stroke-width="1" opacity="0.04115309016689188"/>
<polygon points="551,55 559.6,60 559.6,70 551,75 542.4,70 542.4,60" fill="none" stroke="#39FF14" stroke-width="1" opacity="0.027278387522534406"/>
<polygon points="149,140 157.6,145 157.6,155 149,160 140.4,155 140.4,145" fill="none" stroke="#39FF14" stroke-width="1" opacity="0.04392045810912402"/>
<polygon points="729,89 737.6,94 737.6,104 729,109 720.4,104 720.4,94" fill="none" stroke="#39FF14" stroke-width="1" opacity="0.05226468437708588"/>
<polygon points="398,90 406.6,95 406.6,105 398,110 389.4,105 389.4,95" fill="none" stroke="#39FF14" stroke-width="1" opacity="0.04445779539050508"/>
<polygon points="812,27 820.6,32 820.6,42 812,47 803.4,42 803.4,32" fill="none" stroke="#39FF14" stroke-width="1" opacity="0.0778941938331358"/>
<polygon points="196,147 204.6,152 204.6,162 196,167 187.4,162 187.4,152" fill="none" stroke="#39FF14" stroke-width="1" opacity="0.034903123612153156"/>
<polygon points="223,88 231.6,93 231.6,103 223,108 214.4,103 214.4,93" fill="none" stroke="#39FF14" stroke-width="1" opacity="0.05947398609550365"/>
<polygon points="269,53 277.6,58 277.6,68 269,73 260.4,68 260.4,58" fill="none" stroke="#39FF14" stroke-width="1" opacity="0.0568710696063361"/>
<polygon points="32,99 40.6,104 40.6,114 32,119 23.4,114 23.4,104" fill="none" stroke="#39FF14" stroke-width="1" opacity="0.04738249757808794"/>
<polygon points="797,171 805.6,176 805.6,186 797,191 788.4,186 788.4,176" fill="none" stroke="#39FF14" stroke-width="1" opacity="0.06912367490106862"/>
<polygon points="659,139 667.6,144 667.6,154 659,159 650.4,154 650.4,144" fill="none" stroke="#39FF14" stroke-width="1" opacity="0.025793341773017762"/>
<polygon points="251,190 259.6,195 259.6,205 251,210 242.4,205 242.4,195" fill="none" stroke="#39FF14" stroke-width="1" opacity="0.05247131674052903"/>
<polygon points="132,132 140.6,137 140.6,147 132,152 123.4,147 123.4,137" fill="none" stroke="#39FF14" stroke-width="1" opacity="0.06311301143274219"/>
<polygon points="143,22 151.6,27 151.6,37 143,42 134.4,37 134.4,27" fill="none" stroke="#39FF14" stroke-width="1" opacity="0.02239301592073556"/>
<polygon points="616,168 624.6,173 624.6,183 616,188 607.4,183 607.4,173" fill="none" stroke="#39FF14" stroke-width="1" opacity="0.06778718372929815"/>
<polygon points="123,14 131.6,19 131.6,29 123,34 114.4,29 114.4,19" fill="none" stroke="#39FF14" stroke-width="1" opacity="0.051144017485738505"/>
</g>

  <!-- HUD Decorative elements -->
  <path d="M 20 20 L 40 20 L 50 30" fill="none" stroke="#39FF14" stroke-width="2" opacity="0.5"/>
  <path d="M 830 180 L 810 180 L 800 170" fill="none" stroke="#39FF14" stroke-width="2" opacity="0.5"/>
  <rect x="20" y="100" width="2" height="40" fill="#ffffff" opacity="0.4"/>
  <rect x="828" y="60" width="2" height="40" fill="#39FF14" opacity="0.6"/>

  <g font-family="'Consolas', 'Fira Code', monospace" text-anchor="middle">

    <!-- SYSTEM STATUS -->
    <g transform="translate(130, 100)">
        <circle cx="0" cy="0" r="45" fill="none" stroke="#111111" stroke-width="8" />
        <circle cx="0" cy="0" r="45" fill="none" stroke="#39FF14" stroke-width="2" stroke-dasharray="10 5">
            <animateTransform attributeName="transform" type="rotate" from="0" to="360" dur="10s" repeatCount="indefinite"/>
        </circle>
        <circle cx="0" cy="0" r="35" fill="#0d0d0d" />
        <circle cx="0" cy="0" r="6" fill="#39FF14" filter="url(#textGlow)">
            <animate attributeName="opacity" values="1;0.3;1" dur="2s" repeatCount="indefinite"/>
        </circle>
        <text x="0" y="-60" font-size="12" fill="#aaaaaa" letter-spacing="2">SYS.CORE</text>
        <text x="0" y="70" font-size="14" fill="#ffffff" font-weight="bold">ONLINE</text>
    </g>

    <!-- LIVE TRAFFIC -->
    <g transform="translate(330, 100)">
        <rect x="-60" y="-45" width="120" height="90" fill="#0a0a0a" rx="8" stroke="#39FF14" stroke-opacity="0.4" stroke-width="1"/>
        <text x="0" y="-20" font-size="12" fill="#aaaaaa">NETWORK LOAD</text>
        <text x="0" y="15" font-size="28" fill="#ffffff" font-weight="bold" filter="url(#textGlow)">7612</text>
        <text x="0" y="35" font-size="10" fill="#777777">ACTIVE SESSIONS</text>
    </g>

    <!-- ACTIVE AGENTS -->
    <g transform="translate(530, 100)">
        <rect x="-60" y="-45" width="120" height="90" fill="#0a0a0a" rx="8" stroke="#39FF14" stroke-opacity="0.4" stroke-width="1"/>
        <text x="0" y="-20" font-size="12" fill="#aaaaaa">SWARM ENTITIES</text>
        <text x="0" y="15" font-size="28" fill="#ffffff" font-weight="bold" filter="url(#textGlow)">111</text>
        <text x="0" y="35" font-size="10" fill="#777777">AUTONOMOUS</text>
    </g>

    <!-- UPTIME -->
    <g transform="translate(730, 100)">
        <path d="M -40 -35 L 40 -35 L 50 -25 L 50 35 L -40 35 L -50 25 Z" fill="#0a0a0a" stroke="#39FF14" stroke-opacity="0.4" stroke-width="1"/>
        <text x="0" y="-15" font-size="12" fill="#aaaaaa">CONTINUITY</text>
        <text x="0" y="15" font-size="24" fill="#ffffff" font-weight="bold">267<tspan font-size="14" fill="#777777">d</tspan></text>
        <rect x="-35" y="25" width="70" height="4" fill="url(#neonBar)" rx="2"/>
    </g>
  </g>

  <text x="425" y="185" font-family="'Consolas', 'Fira Code', monospace" font-size="10" fill="#aaaaaa" opacity="0.6" text-anchor="middle">LAST TELEMETRY PING: 2026-04-28 12:43:41 UTC // ENCRYPTED_TUNNEL</text>
</svg>