<svg width="850" height="200" viewBox="0 0 850 200" xmlns="http://www.w3.org/2000/svg">
  <defs>
    <!-- Carbon Fiber Pattern -->
    <pattern id="carbonFiber" width="10" height="10" patternUnits="userSpaceOnUse">
        <rect width="10" height="10" fill="#050505"/>
        <path d="M0,0 L5,5 L10,0 L5,-5 Z M5,5 L10,10 L15,5 L10,0 Z M-5,5 L0,10 L5,5 L0,0 Z M0,10 L5,15 L10,10 L5,5 Z" fill="#0d0d0d"/>
    </pattern>
    <filter id="glassmorphism">
      <feGaussianBlur stdDeviation="3" result="blur" />
      <feColorMatrix type="matrix" values="1 0 0 0 0  0 1 0 0 0  0 0 1 0 0  0 0 0 18 -7" result="glow" />
      <feBlend in="SourceGraphic" in2="glow" mode="normal" />
    </filter>
    <filter id="textGlow">
      <feGaussianBlur stdDeviation="2" result="blur" />
      <feMerge>
        <feMergeNode in="blur"/>
        <feMergeNode in="SourceGraphic"/>
      </feMerge>
    </filter>
    <linearGradient id="neonBar" x1="0%" y1="0%" x2="100%" y2="0%">
        <stop offset="0%" stop-color="#111111"/>
        <stop offset="100%" stop-color="#39FF14"/>
    </linearGradient>
  </defs>

  <rect width="100%" height="100%" fill="url(#carbonFiber)" rx="12" stroke="#39FF14" stroke-width="1" stroke-opacity="0.3"/>
  <rect width="100%" height="100%" fill="#000000" opacity="0.6" rx="12" />
  <g><polygon points="347,43 355.6,48 355.6,58 347,63 338.4,58 338.4,48" fill="none" stroke="#39FF14" stroke-width="1" opacity="0.029958485113483264"/>
<polygon points="465,135 473.6,140 473.6,150 465,155 456.4,150 456.4,140" fill="none" stroke="#39FF14" stroke-width="1" opacity="0.04926347735418242"/>
<polygon points="713,160 721.6,165 721.6,175 713,180 704.4,175 704.4,165" fill="none" stroke="#39FF14" stroke-width="1" opacity="0.04822632167563416"/>
<polygon points="540,54 548.6,59 548.6,69 540,74 531.4,69 531.4,59" fill="none" stroke="#39FF14" stroke-width="1" opacity="0.03998189848203805"/>
<polygon points="782,84 790.6,89 790.6,99 782,104 773.4,99 773.4,89" fill="none" stroke="#39FF14" stroke-width="1" opacity="0.023697731598642705"/>
<polygon points="519,171 527.6,176 527.6,186 519,191 510.4,186 510.4,176" fill="none" stroke="#39FF14" stroke-width="1" opacity="0.052284949180606874"/>
<polygon points="728,71 736.6,76 736.6,86 728,91 719.4,86 719.4,76" fill="none" stroke="#39FF14" stroke-width="1" opacity="0.07618739633444012"/>
<polygon points="561,148 569.6,153 569.6,163 561,168 552.4,163 552.4,153" fill="none" stroke="#39FF14" stroke-width="1" opacity="0.03749396487438852"/>
<polygon points="527,10 535.6,15 535.6,25 527,30 518.4,25 518.4,15" fill="none" stroke="#39FF14" stroke-width="1" opacity="0.06466911343891919"/>
<polygon points="673,32 681.6,37 681.6,47 673,52 664.4,47 664.4,37" fill="none" stroke="#39FF14" stroke-width="1" opacity="0.0625615019124887"/>
<polygon points="322,116 330.6,121 330.6,131 322,136 313.4,131 313.4,121" fill="none" stroke="#39FF14" stroke-width="1" opacity="0.048214692591498874"/>
<polygon points="765,19 773.6,24 773.6,34 765,39 756.4,34 756.4,24" fill="none" stroke="#39FF14" stroke-width="1" opacity="0.034703213352964266"/>
<polygon points="126,75 134.6,80 134.6,90 126,95 117.4,90 117.4,80" fill="none" stroke="#39FF14" stroke-width="1" opacity="0.07088222167032433"/>
<polygon points="328,30 336.6,35 336.6,45 328,50 319.4,45 319.4,35" fill="none" stroke="#39FF14" stroke-width="1" opacity="0.038632005164112936"/>
<polygon points="191,106 199.6,111 199.6,121 191,126 182.4,121 182.4,111" fill="none" stroke="#39FF14" stroke-width="1" opacity="0.027985002432806563"/>
<polygon points="318,22 326.6,27 326.6,37 318,42 309.4,37 309.4,27" fill="none" stroke="#39FF14" stroke-width="1" opacity="0.04040354522978587"/>
<polygon points="820,114 828.6,119 828.6,129 820,134 811.4,129 811.4,119" fill="none" stroke="#39FF14" stroke-width="1" opacity="0.043871043913136384"/>
<polygon points="810,83 818.6,88 818.6,98 810,103 801.4,98 801.4,88" fill="none" stroke="#39FF14" stroke-width="1" opacity="0.06949266695618382"/>
<polygon points="532,156 540.6,161 540.6,171 532,176 523.4,171 523.4,161" fill="none" stroke="#39FF14" stroke-width="1" opacity="0.062105102577867666"/>
<polygon points="695,165 703.6,170 703.6,180 695,185 686.4,180 686.4,170" fill="none" stroke="#39FF14" stroke-width="1" opacity="0.07586373367970967"/>
<polygon points="453,92 461.6,97 461.6,107 453,112 444.4,107 444.4,97" fill="none" stroke="#39FF14" stroke-width="1" opacity="0.07630667431950672"/>
<polygon points="65,147 73.6,152 73.6,162 65,167 56.4,162 56.4,152" fill="none" stroke="#39FF14" stroke-width="1" opacity="0.0658626642441547"/>
<polygon points="498,168 506.6,173 506.6,183 498,188 489.4,183 489.4,173" fill="none" stroke="#39FF14" stroke-width="1" opacity="0.07601492686646673"/>
<polygon points="603,12 611.6,17 611.6,27 603,32 594.4,27 594.4,17" fill="none" stroke="#39FF14" stroke-width="1" opacity="0.03042013669717128"/>
<polygon points="484,94 492.6,99 492.6,109 484,114 475.4,109 475.4,99" fill="none" stroke="#39FF14" stroke-width="1" opacity="0.03948496150422078"/>
<polygon points="635,56 643.6,61 643.6,71 635,76 626.4,71 626.4,61" fill="none" stroke="#39FF14" stroke-width="1" opacity="0.03994474864653509"/>
<polygon points="23,114 31.6,119 31.6,129 23,134 14.4,129 14.4,119" fill="none" stroke="#39FF14" stroke-width="1" opacity="0.07203322107105278"/>
<polygon points="195,-4 203.6,1 203.6,11 195,16 186.4,11 186.4,1" fill="none" stroke="#39FF14" stroke-width="1" opacity="0.03793990351226148"/>
<polygon points="818,129 826.6,134 826.6,144 818,149 809.4,144 809.4,134" fill="none" stroke="#39FF14" stroke-width="1" opacity="0.039371677546576354"/>
<polygon points="823,62 831.6,67 831.6,77 823,82 814.4,77 814.4,67" fill="none" stroke="#39FF14" stroke-width="1" opacity="0.023542036471434494"/>
</g>

  <!-- HUD Decorative elements -->
  <path d="M 20 20 L 40 20 L 50 30" fill="none" stroke="#39FF14" stroke-width="2" opacity="0.5"/>
  <path d="M 830 180 L 810 180 L 800 170" fill="none" stroke="#39FF14" stroke-width="2" opacity="0.5"/>
  <rect x="20" y="100" width="2" height="40" fill="#ffffff" opacity="0.4"/>
  <rect x="828" y="60" width="2" height="40" fill="#39FF14" opacity="0.6"/>

  <g font-family="'Consolas', 'Fira Code', monospace" text-anchor="middle">

    <!-- SYSTEM STATUS -->
    <g transform="translate(130, 100)">
        <circle cx="0" cy="0" r="45" fill="none" stroke="#111111" stroke-width="8" />
        <circle cx="0" cy="0" r="45" fill="none" stroke="#39FF14" stroke-width="2" stroke-dasharray="10 5">
            <animateTransform attributeName="transform" type="rotate" from="0" to="360" dur="10s" repeatCount="indefinite"/>
        </circle>
        <circle cx="0" cy="0" r="35" fill="#0d0d0d" />
        <circle cx="0" cy="0" r="6" fill="#39FF14" filter="url(#textGlow)">
            <animate attributeName="opacity" values="1;0.3;1" dur="2s" repeatCount="indefinite"/>
        </circle>
        <text x="0" y="-60" font-size="12" fill="#aaaaaa" letter-spacing="2">SYS.CORE</text>
        <text x="0" y="70" font-size="14" fill="#ffffff" font-weight="bold">ONLINE</text>
    </g>

    <!-- LIVE TRAFFIC -->
    <g transform="translate(330, 100)">
        <rect x="-60" y="-45" width="120" height="90" fill="#0a0a0a" rx="8" stroke="#39FF14" stroke-opacity="0.4" stroke-width="1"/>
        <text x="0" y="-20" font-size="12" fill="#aaaaaa">NETWORK LOAD</text>
        <text x="0" y="15" font-size="28" fill="#ffffff" font-weight="bold" filter="url(#textGlow)">5679</text>
        <text x="0" y="35" font-size="10" fill="#777777">ACTIVE SESSIONS</text>
    </g>

    <!-- ACTIVE AGENTS -->
    <g transform="translate(530, 100)">
        <rect x="-60" y="-45" width="120" height="90" fill="#0a0a0a" rx="8" stroke="#39FF14" stroke-opacity="0.4" stroke-width="1"/>
        <text x="0" y="-20" font-size="12" fill="#aaaaaa">SWARM ENTITIES</text>
        <text x="0" y="15" font-size="28" fill="#ffffff" font-weight="bold" filter="url(#textGlow)">142</text>
        <text x="0" y="35" font-size="10" fill="#777777">AUTONOMOUS</text>
    </g>

    <!-- UPTIME -->
    <g transform="translate(730, 100)">
        <path d="M -40 -35 L 40 -35 L 50 -25 L 50 35 L -40 35 L -50 25 Z" fill="#0a0a0a" stroke="#39FF14" stroke-opacity="0.4" stroke-width="1"/>
        <text x="0" y="-15" font-size="12" fill="#aaaaaa">CONTINUITY</text>
        <text x="0" y="15" font-size="24" fill="#ffffff" font-weight="bold">231<tspan font-size="14" fill="#777777">d</tspan></text>
        <rect x="-35" y="25" width="70" height="4" fill="url(#neonBar)" rx="2"/>
    </g>
  </g>

  <text x="425" y="185" font-family="'Consolas', 'Fira Code', monospace" font-size="10" fill="#aaaaaa" opacity="0.6" text-anchor="middle">LAST TELEMETRY PING: 2026-05-13 02:03:42 UTC // ENCRYPTED_TUNNEL</text>
</svg>