<svg width="850" height="200" viewBox="0 0 850 200" xmlns="http://www.w3.org/2000/svg">
  <defs>
    <pattern id="carbonFiber" width="10" height="10" patternUnits="userSpaceOnUse">
        <rect width="10" height="10" fill="#050505"/>
        <path d="M0,0 L5,5 L10,0 L5,-5 Z M5,5 L10,10 L15,5 L10,0 Z M-5,5 L0,10 L5,5 L0,0 Z M0,10 L5,15 L10,10 L5,5 Z" fill="#0d0d0d"/>
    </pattern>
    <filter id="textGlow">
      <feGaussianBlur stdDeviation="2" result="blur" />
      <feMerge>
        <feMergeNode in="blur"/>
        <feMergeNode in="SourceGraphic"/>
      </feMerge>
    </filter>
    <linearGradient id="neonBar" x1="0%" y1="0%" x2="100%" y2="0%">
        <stop offset="0%" stop-color="#111111"/>
        <stop offset="100%" stop-color="#39FF14"/>
    </linearGradient>
    <linearGradient id="scanlineGrad" x1="0%" y1="0%" x2="100%" y2="0%">
        <stop offset="0%" stop-color="#39FF14" stop-opacity="0"/>
        <stop offset="50%" stop-color="#39FF14" stop-opacity="0.18"/>
        <stop offset="100%" stop-color="#39FF14" stop-opacity="0"/>
    </linearGradient>
    <clipPath id="dashClip">
        <rect x="0" y="0" width="850" height="200" rx="12"/>
    </clipPath>
  </defs>

  <rect width="100%" height="100%" fill="url(#carbonFiber)" rx="12" stroke="#39FF14" stroke-width="1" stroke-opacity="0.3"/>
  <rect width="100%" height="100%" fill="#000000" opacity="0.6" rx="12" />
  <g><polygon points="636,60 644.6,65 644.6,75 636,80 627.4,75 627.4,65" fill="none" stroke="#39FF14" stroke-width="1" opacity="0.027842638160212915"/>
<polygon points="521,49 529.6,54 529.6,64 521,69 512.4,64 512.4,54" fill="none" stroke="#39FF14" stroke-width="1" opacity="0.06836669169893742"/>
<polygon points="422,106 430.6,111 430.6,121 422,126 413.4,121 413.4,111" fill="none" stroke="#39FF14" stroke-width="1" opacity="0.02790531045413641"/>
<polygon points="291,171 299.6,176 299.6,186 291,191 282.4,186 282.4,176" fill="none" stroke="#39FF14" stroke-width="1" opacity="0.04066455552061458"/>
<polygon points="646,20 654.6,25 654.6,35 646,40 637.4,35 637.4,25" fill="none" stroke="#39FF14" stroke-width="1" opacity="0.05758228549303902"/>
<polygon points="175,139 183.6,144 183.6,154 175,159 166.4,154 166.4,144" fill="none" stroke="#39FF14" stroke-width="1" opacity="0.037091554550686155"/>
<polygon points="247,180 255.6,185 255.6,195 247,200 238.4,195 238.4,185" fill="none" stroke="#39FF14" stroke-width="1" opacity="0.042603898450110256"/>
<polygon points="312,69 320.6,74 320.6,84 312,89 303.4,84 303.4,74" fill="none" stroke="#39FF14" stroke-width="1" opacity="0.06522691743796406"/>
<polygon points="82,54 90.6,59 90.6,69 82,74 73.4,69 73.4,59" fill="none" stroke="#39FF14" stroke-width="1" opacity="0.0776080149859293"/>
<polygon points="336,11 344.6,16 344.6,26 336,31 327.4,26 327.4,16" fill="none" stroke="#39FF14" stroke-width="1" opacity="0.07734455903670043"/>
<polygon points="632,100 640.6,105 640.6,115 632,120 623.4,115 623.4,105" fill="none" stroke="#39FF14" stroke-width="1" opacity="0.031061039423420735"/>
<polygon points="77,189 85.6,194 85.6,204 77,209 68.4,204 68.4,194" fill="none" stroke="#39FF14" stroke-width="1" opacity="0.06650197830824864"/>
<polygon points="257,95 265.6,100 265.6,110 257,115 248.4,110 248.4,100" fill="none" stroke="#39FF14" stroke-width="1" opacity="0.07492939335199486"/>
<polygon points="344,59 352.6,64 352.6,74 344,79 335.4,74 335.4,64" fill="none" stroke="#39FF14" stroke-width="1" opacity="0.030996066990385075"/>
<polygon points="658,102 666.6,107 666.6,117 658,122 649.4,117 649.4,107" fill="none" stroke="#39FF14" stroke-width="1" opacity="0.04716079177058996"/>
<polygon points="627,122 635.6,127 635.6,137 627,142 618.4,137 618.4,127" fill="none" stroke="#39FF14" stroke-width="1" opacity="0.07850706255587916"/>
<polygon points="279,2 287.6,7 287.6,17 279,22 270.4,17 270.4,7" fill="none" stroke="#39FF14" stroke-width="1" opacity="0.07498703464998865"/>
<polygon points="714,134 722.6,139 722.6,149 714,154 705.4,149 705.4,139" fill="none" stroke="#39FF14" stroke-width="1" opacity="0.034892960174276816"/>
<polygon points="622,12 630.6,17 630.6,27 622,32 613.4,27 613.4,17" fill="none" stroke="#39FF14" stroke-width="1" opacity="0.0666308075436959"/>
<polygon points="673,169 681.6,174 681.6,184 673,189 664.4,184 664.4,174" fill="none" stroke="#39FF14" stroke-width="1" opacity="0.05987765366273534"/>
<polygon points="75,176 83.6,181 83.6,191 75,196 66.4,191 66.4,181" fill="none" stroke="#39FF14" stroke-width="1" opacity="0.05308211060282679"/>
<polygon points="843,105 851.6,110 851.6,120 843,125 834.4,120 834.4,110" fill="none" stroke="#39FF14" stroke-width="1" opacity="0.0687087691618729"/>
<polygon points="115,118 123.6,123 123.6,133 115,138 106.4,133 106.4,123" fill="none" stroke="#39FF14" stroke-width="1" opacity="0.058372515115564266"/>
<polygon points="842,18 850.6,23 850.6,33 842,38 833.4,33 833.4,23" fill="none" stroke="#39FF14" stroke-width="1" opacity="0.0773715686730268"/>
<polygon points="572,142 580.6,147 580.6,157 572,162 563.4,157 563.4,147" fill="none" stroke="#39FF14" stroke-width="1" opacity="0.03786607762287314"/>
<polygon points="458,15 466.6,20 466.6,30 458,35 449.4,30 449.4,20" fill="none" stroke="#39FF14" stroke-width="1" opacity="0.06317156044543104"/>
<polygon points="673,66 681.6,71 681.6,81 673,86 664.4,81 664.4,71" fill="none" stroke="#39FF14" stroke-width="1" opacity="0.026574628980432564"/>
<polygon points="805,181 813.6,186 813.6,196 805,201 796.4,196 796.4,186" fill="none" stroke="#39FF14" stroke-width="1" opacity="0.07079232466470821"/>
<polygon points="242,58 250.6,63 250.6,73 242,78 233.4,73 233.4,63" fill="none" stroke="#39FF14" stroke-width="1" opacity="0.07522937790499422"/>
<polygon points="744,174 752.6,179 752.6,189 744,194 735.4,189 735.4,179" fill="none" stroke="#39FF14" stroke-width="1" opacity="0.045513313003244446"/>
</g>

  <!-- HUD Decorative elements -->
  <path d="M 20 20 L 40 20 L 50 30" fill="none" stroke="#39FF14" stroke-width="2" opacity="0.5"/>
  <path d="M 830 180 L 810 180 L 800 170" fill="none" stroke="#39FF14" stroke-width="2" opacity="0.5"/>

  <g clip-path="url(#dashClip)">
    <rect x="-160" y="0" width="160" height="200" fill="url(#scanlineGrad)">
      <animateTransform attributeName="transform" type="translate"
                        from="0 0" to="1010 0" dur="6s" repeatCount="indefinite"/>
    </rect>
  </g>

  <g font-family="'Consolas', 'Fira Code', monospace" text-anchor="middle">

    <!-- NETWORK STATUS -->
    <g transform="translate(130, 100)">
        <circle cx="0" cy="0" r="45" fill="none" stroke="#39FF14" stroke-width="2" stroke-dasharray="10 5">
            <animateTransform attributeName="transform" type="rotate" from="0" to="360" dur="10s" repeatCount="indefinite"/>
        </circle>
        <circle cx="0" cy="0" r="35" fill="#0d0d0d" />
        <text x="0" y="-60" font-size="12" fill="#aaaaaa" letter-spacing="2">ROOT.AUTH</text>
        <text x="0" y="70" font-size="14" fill="#ffffff" font-weight="bold">OPERATIONAL</text>
    </g>

    <!-- ACTIVE USERS -->
    <g transform="translate(330, 100)">
        <text x="0" y="-20" font-size="12" fill="#aaaaaa">CITIZENS</text>
        <text x="0" y="15" font-size="28" fill="#ffffff" font-weight="bold" filter="url(#textGlow)">12,878</text>
        <text x="0" y="35" font-size="10" fill="#777777">VERIFIED HUMANS</text>
    </g>

    <!-- REGISTERED AGENTS -->
    <g transform="translate(530, 100)">
        <text x="0" y="-20" font-size="12" fill="#aaaaaa">AGENTS</text>
        <text x="0" y="15" font-size="28" fill="#00d4ff" font-weight="bold" filter="url(#textGlow)">3,846</text>
        <text x="0" y="35" font-size="10" fill="#777777">REGISTERED DIDs</text>
    </g>

    <!-- TRANSACTIONS -->
    <g transform="translate(730, 100)">
        <text x="0" y="-20" font-size="12" fill="#aaaaaa">TRANSFERS</text>
        <text x="0" y="15" font-size="28" fill="#ffffff" font-weight="bold">38,977</text>
        <text x="0" y="35" font-size="10" fill="#777777">M2M SETTLEMENTS</text>
    </g>
  </g>

  <text x="425" y="185" font-family="'Consolas', 'Fira Code', monospace" font-size="10" fill="#aaaaaa" opacity="0.6" text-anchor="middle">AXIOMID PROJECTED TARGETS (ILLUSTRATIVE): 2026-07-01 07:25:02 UTC // SECURE_HANDSHAKE</text>
</svg>