<svg width="850" height="200" viewBox="0 0 850 200" xmlns="http://www.w3.org/2000/svg">
  <defs>
    <!-- Carbon Fiber Pattern -->
    <pattern id="carbonFiber" width="10" height="10" patternUnits="userSpaceOnUse">
        <rect width="10" height="10" fill="#050505"/>
        <path d="M0,0 L5,5 L10,0 L5,-5 Z M5,5 L10,10 L15,5 L10,0 Z M-5,5 L0,10 L5,5 L0,0 Z M0,10 L5,15 L10,10 L5,5 Z" fill="#0d0d0d"/>
    </pattern>
    <filter id="glassmorphism">
      <feGaussianBlur stdDeviation="3" result="blur" />
      <feColorMatrix type="matrix" values="1 0 0 0 0  0 1 0 0 0  0 0 1 0 0  0 0 0 18 -7" result="glow" />
      <feBlend in="SourceGraphic" in2="glow" mode="normal" />
    </filter>
    <filter id="textGlow">
      <feGaussianBlur stdDeviation="2" result="blur" />
      <feMerge>
        <feMergeNode in="blur"/>
        <feMergeNode in="SourceGraphic"/>
      </feMerge>
    </filter>
    <linearGradient id="neonBar" x1="0%" y1="0%" x2="100%" y2="0%">
        <stop offset="0%" stop-color="#111111"/>
        <stop offset="100%" stop-color="#39FF14"/>
    </linearGradient>
  </defs>

  <rect width="100%" height="100%" fill="url(#carbonFiber)" rx="12" stroke="#39FF14" stroke-width="1" stroke-opacity="0.3"/>
  <rect width="100%" height="100%" fill="#000000" opacity="0.6" rx="12" />
  <g><polygon points="136,-8 144.6,-3 144.6,7 136,12 127.4,7 127.4,-3" fill="none" stroke="#39FF14" stroke-width="1" opacity="0.05302166904339284"/>
<polygon points="99,109 107.6,114 107.6,124 99,129 90.4,124 90.4,114" fill="none" stroke="#39FF14" stroke-width="1" opacity="0.029639238903795273"/>
<polygon points="308,-6 316.6,-1 316.6,9 308,14 299.4,9 299.4,-1" fill="none" stroke="#39FF14" stroke-width="1" opacity="0.050743468731484775"/>
<polygon points="550,118 558.6,123 558.6,133 550,138 541.4,133 541.4,123" fill="none" stroke="#39FF14" stroke-width="1" opacity="0.048664713147307574"/>
<polygon points="32,126 40.6,131 40.6,141 32,146 23.4,141 23.4,131" fill="none" stroke="#39FF14" stroke-width="1" opacity="0.048378192633735564"/>
<polygon points="587,37 595.6,42 595.6,52 587,57 578.4,52 578.4,42" fill="none" stroke="#39FF14" stroke-width="1" opacity="0.06671231370173483"/>
<polygon points="845,74 853.6,79 853.6,89 845,94 836.4,89 836.4,79" fill="none" stroke="#39FF14" stroke-width="1" opacity="0.04795259600269988"/>
<polygon points="80,109 88.6,114 88.6,124 80,129 71.4,124 71.4,114" fill="none" stroke="#39FF14" stroke-width="1" opacity="0.06547907990114686"/>
<polygon points="100,32 108.6,37 108.6,47 100,52 91.4,47 91.4,37" fill="none" stroke="#39FF14" stroke-width="1" opacity="0.0484998413718767"/>
<polygon points="488,127 496.6,132 496.6,142 488,147 479.4,142 479.4,132" fill="none" stroke="#39FF14" stroke-width="1" opacity="0.04226479490669997"/>
<polygon points="333,136 341.6,141 341.6,151 333,156 324.4,151 324.4,141" fill="none" stroke="#39FF14" stroke-width="1" opacity="0.056463117630459025"/>
<polygon points="622,17 630.6,22 630.6,32 622,37 613.4,32 613.4,22" fill="none" stroke="#39FF14" stroke-width="1" opacity="0.055337067764953826"/>
<polygon points="480,138 488.6,143 488.6,153 480,158 471.4,153 471.4,143" fill="none" stroke="#39FF14" stroke-width="1" opacity="0.0455134062544242"/>
<polygon points="642,65 650.6,70 650.6,80 642,85 633.4,80 633.4,70" fill="none" stroke="#39FF14" stroke-width="1" opacity="0.0739476721408214"/>
<polygon points="435,182 443.6,187 443.6,197 435,202 426.4,197 426.4,187" fill="none" stroke="#39FF14" stroke-width="1" opacity="0.02535572999645108"/>
<polygon points="449,182 457.6,187 457.6,197 449,202 440.4,197 440.4,187" fill="none" stroke="#39FF14" stroke-width="1" opacity="0.02945087451996283"/>
<polygon points="511,180 519.6,185 519.6,195 511,200 502.4,195 502.4,185" fill="none" stroke="#39FF14" stroke-width="1" opacity="0.022100731741592623"/>
<polygon points="11,168 19.6,173 19.6,183 11,188 2.4000000000000004,183 2.4000000000000004,173" fill="none" stroke="#39FF14" stroke-width="1" opacity="0.06122430062359831"/>
<polygon points="843,1 851.6,6 851.6,16 843,21 834.4,16 834.4,6" fill="none" stroke="#39FF14" stroke-width="1" opacity="0.07261652471061567"/>
<polygon points="76,147 84.6,152 84.6,162 76,167 67.4,162 67.4,152" fill="none" stroke="#39FF14" stroke-width="1" opacity="0.022742014855819774"/>
<polygon points="269,-5 277.6,0 277.6,10 269,15 260.4,10 260.4,0" fill="none" stroke="#39FF14" stroke-width="1" opacity="0.03909550739587471"/>
<polygon points="839,89 847.6,94 847.6,104 839,109 830.4,104 830.4,94" fill="none" stroke="#39FF14" stroke-width="1" opacity="0.021439730332244996"/>
<polygon points="145,-1 153.6,4 153.6,14 145,19 136.4,14 136.4,4" fill="none" stroke="#39FF14" stroke-width="1" opacity="0.05238179519001053"/>
<polygon points="675,101 683.6,106 683.6,116 675,121 666.4,116 666.4,106" fill="none" stroke="#39FF14" stroke-width="1" opacity="0.05024031693197589"/>
<polygon points="395,28 403.6,33 403.6,43 395,48 386.4,43 386.4,33" fill="none" stroke="#39FF14" stroke-width="1" opacity="0.07943009695337473"/>
<polygon points="341,144 349.6,149 349.6,159 341,164 332.4,159 332.4,149" fill="none" stroke="#39FF14" stroke-width="1" opacity="0.05258161169427336"/>
<polygon points="223,165 231.6,170 231.6,180 223,185 214.4,180 214.4,170" fill="none" stroke="#39FF14" stroke-width="1" opacity="0.05714447104423678"/>
<polygon points="129,32 137.6,37 137.6,47 129,52 120.4,47 120.4,37" fill="none" stroke="#39FF14" stroke-width="1" opacity="0.020675785556223764"/>
<polygon points="433,136 441.6,141 441.6,151 433,156 424.4,151 424.4,141" fill="none" stroke="#39FF14" stroke-width="1" opacity="0.06235164519974744"/>
<polygon points="248,-4 256.6,1 256.6,11 248,16 239.4,11 239.4,1" fill="none" stroke="#39FF14" stroke-width="1" opacity="0.0377833870708663"/>
</g>

  <!-- HUD Decorative elements -->
  <path d="M 20 20 L 40 20 L 50 30" fill="none" stroke="#39FF14" stroke-width="2" opacity="0.5"/>
  <path d="M 830 180 L 810 180 L 800 170" fill="none" stroke="#39FF14" stroke-width="2" opacity="0.5"/>
  <rect x="20" y="100" width="2" height="40" fill="#ffffff" opacity="0.4"/>
  <rect x="828" y="60" width="2" height="40" fill="#39FF14" opacity="0.6"/>

  <g font-family="'Consolas', 'Fira Code', monospace" text-anchor="middle">

    <!-- SYSTEM STATUS -->
    <g transform="translate(130, 100)">
        <circle cx="0" cy="0" r="45" fill="none" stroke="#111111" stroke-width="8" />
        <circle cx="0" cy="0" r="45" fill="none" stroke="#39FF14" stroke-width="2" stroke-dasharray="10 5">
            <animateTransform attributeName="transform" type="rotate" from="0" to="360" dur="10s" repeatCount="indefinite"/>
        </circle>
        <circle cx="0" cy="0" r="35" fill="#0d0d0d" />
        <circle cx="0" cy="0" r="6" fill="#39FF14" filter="url(#textGlow)">
            <animate attributeName="opacity" values="1;0.3;1" dur="2s" repeatCount="indefinite"/>
        </circle>
        <text x="0" y="-60" font-size="12" fill="#aaaaaa" letter-spacing="2">SYS.CORE</text>
        <text x="0" y="70" font-size="14" fill="#ffffff" font-weight="bold">ONLINE</text>
    </g>

    <!-- LIVE TRAFFIC -->
    <g transform="translate(330, 100)">
        <rect x="-60" y="-45" width="120" height="90" fill="#0a0a0a" rx="8" stroke="#39FF14" stroke-opacity="0.4" stroke-width="1"/>
        <text x="0" y="-20" font-size="12" fill="#aaaaaa">NETWORK LOAD</text>
        <text x="0" y="15" font-size="28" fill="#ffffff" font-weight="bold" filter="url(#textGlow)">4005</text>
        <text x="0" y="35" font-size="10" fill="#777777">ACTIVE SESSIONS</text>
    </g>

    <!-- ACTIVE AGENTS -->
    <g transform="translate(530, 100)">
        <rect x="-60" y="-45" width="120" height="90" fill="#0a0a0a" rx="8" stroke="#39FF14" stroke-opacity="0.4" stroke-width="1"/>
        <text x="0" y="-20" font-size="12" fill="#aaaaaa">SWARM ENTITIES</text>
        <text x="0" y="15" font-size="28" fill="#ffffff" font-weight="bold" filter="url(#textGlow)">174</text>
        <text x="0" y="35" font-size="10" fill="#777777">AUTONOMOUS</text>
    </g>

    <!-- UPTIME -->
    <g transform="translate(730, 100)">
        <path d="M -40 -35 L 40 -35 L 50 -25 L 50 35 L -40 35 L -50 25 Z" fill="#0a0a0a" stroke="#39FF14" stroke-opacity="0.4" stroke-width="1"/>
        <text x="0" y="-15" font-size="12" fill="#aaaaaa">CONTINUITY</text>
        <text x="0" y="15" font-size="24" fill="#ffffff" font-weight="bold">284<tspan font-size="14" fill="#777777">d</tspan></text>
        <rect x="-35" y="25" width="70" height="4" fill="url(#neonBar)" rx="2"/>
    </g>
  </g>

  <text x="425" y="185" font-family="'Consolas', 'Fira Code', monospace" font-size="10" fill="#aaaaaa" opacity="0.6" text-anchor="middle">LAST TELEMETRY PING: 2026-05-03 18:23:33 UTC // ENCRYPTED_TUNNEL</text>
</svg>