<svg width="850" height="200" viewBox="0 0 850 200" xmlns="http://www.w3.org/2000/svg">
  <defs>
    <pattern id="carbonFiber" width="10" height="10" patternUnits="userSpaceOnUse">
        <rect width="10" height="10" fill="#050505"/>
        <path d="M0,0 L5,5 L10,0 L5,-5 Z M5,5 L10,10 L15,5 L10,0 Z M-5,5 L0,10 L5,5 L0,0 Z M0,10 L5,15 L10,10 L5,5 Z" fill="#0d0d0d"/>
    </pattern>
    <filter id="textGlow">
      <feGaussianBlur stdDeviation="2" result="blur" />
      <feMerge>
        <feMergeNode in="blur"/>
        <feMergeNode in="SourceGraphic"/>
      </feMerge>
    </filter>
    <linearGradient id="neonBar" x1="0%" y1="0%" x2="100%" y2="0%">
        <stop offset="0%" stop-color="#111111"/>
        <stop offset="100%" stop-color="#39FF14"/>
    </linearGradient>
    <linearGradient id="scanlineGrad" x1="0%" y1="0%" x2="100%" y2="0%">
        <stop offset="0%" stop-color="#39FF14" stop-opacity="0"/>
        <stop offset="50%" stop-color="#39FF14" stop-opacity="0.18"/>
        <stop offset="100%" stop-color="#39FF14" stop-opacity="0"/>
    </linearGradient>
    <clipPath id="dashClip">
        <rect x="0" y="0" width="850" height="200" rx="12"/>
    </clipPath>
  </defs>

  <rect width="100%" height="100%" fill="url(#carbonFiber)" rx="12" stroke="#39FF14" stroke-width="1" stroke-opacity="0.3"/>
  <rect width="100%" height="100%" fill="#000000" opacity="0.6" rx="12" />
  <g><polygon points="671,164 679.6,169 679.6,179 671,184 662.4,179 662.4,169" fill="none" stroke="#39FF14" stroke-width="1" opacity="0.05379795587157786"/>
<polygon points="171,144 179.6,149 179.6,159 171,164 162.4,159 162.4,149" fill="none" stroke="#39FF14" stroke-width="1" opacity="0.052376299226369355"/>
<polygon points="619,27 627.6,32 627.6,42 619,47 610.4,42 610.4,32" fill="none" stroke="#39FF14" stroke-width="1" opacity="0.028168091681453677"/>
<polygon points="86,111 94.6,116 94.6,126 86,131 77.4,126 77.4,116" fill="none" stroke="#39FF14" stroke-width="1" opacity="0.03089265286142283"/>
<polygon points="208,16 216.6,21 216.6,31 208,36 199.4,31 199.4,21" fill="none" stroke="#39FF14" stroke-width="1" opacity="0.038651853229599624"/>
<polygon points="670,147 678.6,152 678.6,162 670,167 661.4,162 661.4,152" fill="none" stroke="#39FF14" stroke-width="1" opacity="0.03367965226870081"/>
<polygon points="395,144 403.6,149 403.6,159 395,164 386.4,159 386.4,149" fill="none" stroke="#39FF14" stroke-width="1" opacity="0.06511484746712837"/>
<polygon points="305,145 313.6,150 313.6,160 305,165 296.4,160 296.4,150" fill="none" stroke="#39FF14" stroke-width="1" opacity="0.03380625015521339"/>
<polygon points="38,7 46.6,12 46.6,22 38,27 29.4,22 29.4,12" fill="none" stroke="#39FF14" stroke-width="1" opacity="0.062317291597707075"/>
<polygon points="721,175 729.6,180 729.6,190 721,195 712.4,190 712.4,180" fill="none" stroke="#39FF14" stroke-width="1" opacity="0.07385490526871748"/>
<polygon points="835,99 843.6,104 843.6,114 835,119 826.4,114 826.4,104" fill="none" stroke="#39FF14" stroke-width="1" opacity="0.036636831065132894"/>
<polygon points="451,147 459.6,152 459.6,162 451,167 442.4,162 442.4,152" fill="none" stroke="#39FF14" stroke-width="1" opacity="0.06195807349785716"/>
<polygon points="177,105 185.6,110 185.6,120 177,125 168.4,120 168.4,110" fill="none" stroke="#39FF14" stroke-width="1" opacity="0.033851726225691145"/>
<polygon points="167,157 175.6,162 175.6,172 167,177 158.4,172 158.4,162" fill="none" stroke="#39FF14" stroke-width="1" opacity="0.04630154141595157"/>
<polygon points="531,60 539.6,65 539.6,75 531,80 522.4,75 522.4,65" fill="none" stroke="#39FF14" stroke-width="1" opacity="0.04180624369463874"/>
<polygon points="819,118 827.6,123 827.6,133 819,138 810.4,133 810.4,123" fill="none" stroke="#39FF14" stroke-width="1" opacity="0.02130556723459063"/>
<polygon points="515,113 523.6,118 523.6,128 515,133 506.4,128 506.4,118" fill="none" stroke="#39FF14" stroke-width="1" opacity="0.07487751703508484"/>
<polygon points="637,171 645.6,176 645.6,186 637,191 628.4,186 628.4,176" fill="none" stroke="#39FF14" stroke-width="1" opacity="0.04884773778081128"/>
<polygon points="478,86 486.6,91 486.6,101 478,106 469.4,101 469.4,91" fill="none" stroke="#39FF14" stroke-width="1" opacity="0.051976049169220426"/>
<polygon points="349,31 357.6,36 357.6,46 349,51 340.4,46 340.4,36" fill="none" stroke="#39FF14" stroke-width="1" opacity="0.029324887383872022"/>
<polygon points="643,96 651.6,101 651.6,111 643,116 634.4,111 634.4,101" fill="none" stroke="#39FF14" stroke-width="1" opacity="0.06790471547180514"/>
<polygon points="649,27 657.6,32 657.6,42 649,47 640.4,42 640.4,32" fill="none" stroke="#39FF14" stroke-width="1" opacity="0.05065415176933079"/>
<polygon points="804,112 812.6,117 812.6,127 804,132 795.4,127 795.4,117" fill="none" stroke="#39FF14" stroke-width="1" opacity="0.023801660392036763"/>
<polygon points="394,126 402.6,131 402.6,141 394,146 385.4,141 385.4,131" fill="none" stroke="#39FF14" stroke-width="1" opacity="0.055885622482957406"/>
<polygon points="363,190 371.6,195 371.6,205 363,210 354.4,205 354.4,195" fill="none" stroke="#39FF14" stroke-width="1" opacity="0.035518407145729826"/>
<polygon points="30,39 38.6,44 38.6,54 30,59 21.4,54 21.4,44" fill="none" stroke="#39FF14" stroke-width="1" opacity="0.0506996958084051"/>
<polygon points="526,14 534.6,19 534.6,29 526,34 517.4,29 517.4,19" fill="none" stroke="#39FF14" stroke-width="1" opacity="0.07280074669383398"/>
<polygon points="524,167 532.6,172 532.6,182 524,187 515.4,182 515.4,172" fill="none" stroke="#39FF14" stroke-width="1" opacity="0.058731177653511976"/>
<polygon points="426,89 434.6,94 434.6,104 426,109 417.4,104 417.4,94" fill="none" stroke="#39FF14" stroke-width="1" opacity="0.07510155376459397"/>
<polygon points="768,126 776.6,131 776.6,141 768,146 759.4,141 759.4,131" fill="none" stroke="#39FF14" stroke-width="1" opacity="0.03581123247372342"/>
</g>

  <!-- HUD Decorative elements -->
  <path d="M 20 20 L 40 20 L 50 30" fill="none" stroke="#39FF14" stroke-width="2" opacity="0.5"/>
  <path d="M 830 180 L 810 180 L 800 170" fill="none" stroke="#39FF14" stroke-width="2" opacity="0.5"/>

  <g clip-path="url(#dashClip)">
    <rect x="-160" y="0" width="160" height="200" fill="url(#scanlineGrad)">
      <animateTransform attributeName="transform" type="translate"
                        from="0 0" to="1010 0" dur="6s" repeatCount="indefinite"/>
    </rect>
  </g>

  <g font-family="'Consolas', 'Fira Code', monospace" text-anchor="middle">

    <!-- NETWORK STATUS -->
    <g transform="translate(130, 100)">
        <circle cx="0" cy="0" r="45" fill="none" stroke="#39FF14" stroke-width="2" stroke-dasharray="10 5">
            <animateTransform attributeName="transform" type="rotate" from="0" to="360" dur="10s" repeatCount="indefinite"/>
        </circle>
        <circle cx="0" cy="0" r="35" fill="#0d0d0d" />
        <text x="0" y="-60" font-size="12" fill="#aaaaaa" letter-spacing="2">ROOT.AUTH</text>
        <text x="0" y="70" font-size="14" fill="#ffffff" font-weight="bold">OPERATIONAL</text>
    </g>

    <!-- ACTIVE USERS -->
    <g transform="translate(330, 100)">
        <text x="0" y="-20" font-size="12" fill="#aaaaaa">CITIZENS</text>
        <text x="0" y="15" font-size="28" fill="#ffffff" font-weight="bold" filter="url(#textGlow)">12,600</text>
        <text x="0" y="35" font-size="10" fill="#777777">VERIFIED HUMANS</text>
    </g>

    <!-- REGISTERED AGENTS -->
    <g transform="translate(530, 100)">
        <text x="0" y="-20" font-size="12" fill="#aaaaaa">AGENTS</text>
        <text x="0" y="15" font-size="28" fill="#00d4ff" font-weight="bold" filter="url(#textGlow)">3,332</text>
        <text x="0" y="35" font-size="10" fill="#777777">REGISTERED DIDs</text>
    </g>

    <!-- TRANSACTIONS -->
    <g transform="translate(730, 100)">
        <text x="0" y="-20" font-size="12" fill="#aaaaaa">TRANSFERS</text>
        <text x="0" y="15" font-size="28" fill="#ffffff" font-weight="bold">31,337</text>
        <text x="0" y="35" font-size="10" fill="#777777">M2M SETTLEMENTS</text>
    </g>
  </g>

  <text x="425" y="185" font-family="'Consolas', 'Fira Code', monospace" font-size="10" fill="#aaaaaa" opacity="0.6" text-anchor="middle">AXIOMID PROJECTED TARGETS (ILLUSTRATIVE): 2026-06-24 04:24:40 UTC // SECURE_HANDSHAKE</text>
</svg>