<svg width="850" height="200" viewBox="0 0 850 200" xmlns="http://www.w3.org/2000/svg">
  <defs>
    <pattern id="carbonFiber" width="10" height="10" patternUnits="userSpaceOnUse">
        <rect width="10" height="10" fill="#050505"/>
        <path d="M0,0 L5,5 L10,0 L5,-5 Z M5,5 L10,10 L15,5 L10,0 Z M-5,5 L0,10 L5,5 L0,0 Z M0,10 L5,15 L10,10 L5,5 Z" fill="#0d0d0d"/>
    </pattern>
    <filter id="textGlow">
      <feGaussianBlur stdDeviation="2" result="blur" />
      <feMerge>
        <feMergeNode in="blur"/>
        <feMergeNode in="SourceGraphic"/>
      </feMerge>
    </filter>
    <linearGradient id="neonBar" x1="0%" y1="0%" x2="100%" y2="0%">
        <stop offset="0%" stop-color="#111111"/>
        <stop offset="100%" stop-color="#39FF14"/>
    </linearGradient>
    <linearGradient id="scanlineGrad" x1="0%" y1="0%" x2="100%" y2="0%">
        <stop offset="0%" stop-color="#39FF14" stop-opacity="0"/>
        <stop offset="50%" stop-color="#39FF14" stop-opacity="0.18"/>
        <stop offset="100%" stop-color="#39FF14" stop-opacity="0"/>
    </linearGradient>
    <clipPath id="dashClip">
        <rect x="0" y="0" width="850" height="200" rx="12"/>
    </clipPath>
  </defs>

  <rect width="100%" height="100%" fill="url(#carbonFiber)" rx="12" stroke="#39FF14" stroke-width="1" stroke-opacity="0.3"/>
  <rect width="100%" height="100%" fill="#000000" opacity="0.6" rx="12" />
  <g><polygon points="262,150 270.6,155 270.6,165 262,170 253.4,165 253.4,155" fill="none" stroke="#39FF14" stroke-width="1" opacity="0.04117617579166148"/>
<polygon points="153,159 161.6,164 161.6,174 153,179 144.4,174 144.4,164" fill="none" stroke="#39FF14" stroke-width="1" opacity="0.021018733954054708"/>
<polygon points="62,127 70.6,132 70.6,142 62,147 53.4,142 53.4,132" fill="none" stroke="#39FF14" stroke-width="1" opacity="0.03596217624698557"/>
<polygon points="8,126 16.6,131 16.6,141 8,146 -0.5999999999999996,141 -0.5999999999999996,131" fill="none" stroke="#39FF14" stroke-width="1" opacity="0.05688499784134485"/>
<polygon points="67,130 75.6,135 75.6,145 67,150 58.4,145 58.4,135" fill="none" stroke="#39FF14" stroke-width="1" opacity="0.02075128833815429"/>
<polygon points="801,163 809.6,168 809.6,178 801,183 792.4,178 792.4,168" fill="none" stroke="#39FF14" stroke-width="1" opacity="0.06345402587955441"/>
<polygon points="82,90 90.6,95 90.6,105 82,110 73.4,105 73.4,95" fill="none" stroke="#39FF14" stroke-width="1" opacity="0.0404685271371477"/>
<polygon points="716,173 724.6,178 724.6,188 716,193 707.4,188 707.4,178" fill="none" stroke="#39FF14" stroke-width="1" opacity="0.05166235299794411"/>
<polygon points="166,37 174.6,42 174.6,52 166,57 157.4,52 157.4,42" fill="none" stroke="#39FF14" stroke-width="1" opacity="0.07303271915756805"/>
<polygon points="335,145 343.6,150 343.6,160 335,165 326.4,160 326.4,150" fill="none" stroke="#39FF14" stroke-width="1" opacity="0.05112567424810381"/>
<polygon points="706,96 714.6,101 714.6,111 706,116 697.4,111 697.4,101" fill="none" stroke="#39FF14" stroke-width="1" opacity="0.03971061824459029"/>
<polygon points="417,113 425.6,118 425.6,128 417,133 408.4,128 408.4,118" fill="none" stroke="#39FF14" stroke-width="1" opacity="0.0786666372442099"/>
<polygon points="328,1 336.6,6 336.6,16 328,21 319.4,16 319.4,6" fill="none" stroke="#39FF14" stroke-width="1" opacity="0.07387278157649341"/>
<polygon points="604,18 612.6,23 612.6,33 604,38 595.4,33 595.4,23" fill="none" stroke="#39FF14" stroke-width="1" opacity="0.07157757744938117"/>
<polygon points="776,96 784.6,101 784.6,111 776,116 767.4,111 767.4,101" fill="none" stroke="#39FF14" stroke-width="1" opacity="0.02421356245354841"/>
<polygon points="425,27 433.6,32 433.6,42 425,47 416.4,42 416.4,32" fill="none" stroke="#39FF14" stroke-width="1" opacity="0.02995476921145832"/>
<polygon points="46,155 54.6,160 54.6,170 46,175 37.4,170 37.4,160" fill="none" stroke="#39FF14" stroke-width="1" opacity="0.03535010348206515"/>
<polygon points="708,49 716.6,54 716.6,64 708,69 699.4,64 699.4,54" fill="none" stroke="#39FF14" stroke-width="1" opacity="0.04664960455324842"/>
<polygon points="154,23 162.6,28 162.6,38 154,43 145.4,38 145.4,28" fill="none" stroke="#39FF14" stroke-width="1" opacity="0.05351853723401859"/>
<polygon points="747,43 755.6,48 755.6,58 747,63 738.4,58 738.4,48" fill="none" stroke="#39FF14" stroke-width="1" opacity="0.07961139329696705"/>
<polygon points="86,56 94.6,61 94.6,71 86,76 77.4,71 77.4,61" fill="none" stroke="#39FF14" stroke-width="1" opacity="0.07568434723700364"/>
<polygon points="603,117 611.6,122 611.6,132 603,137 594.4,132 594.4,122" fill="none" stroke="#39FF14" stroke-width="1" opacity="0.06615303811441033"/>
<polygon points="655,17 663.6,22 663.6,32 655,37 646.4,32 646.4,22" fill="none" stroke="#39FF14" stroke-width="1" opacity="0.04699078602413438"/>
<polygon points="789,154 797.6,159 797.6,169 789,174 780.4,169 780.4,159" fill="none" stroke="#39FF14" stroke-width="1" opacity="0.06914763005822168"/>
<polygon points="534,3 542.6,8 542.6,18 534,23 525.4,18 525.4,8" fill="none" stroke="#39FF14" stroke-width="1" opacity="0.07940436029163797"/>
<polygon points="773,169 781.6,174 781.6,184 773,189 764.4,184 764.4,174" fill="none" stroke="#39FF14" stroke-width="1" opacity="0.05528968613743883"/>
<polygon points="590,98 598.6,103 598.6,113 590,118 581.4,113 581.4,103" fill="none" stroke="#39FF14" stroke-width="1" opacity="0.0384965479933371"/>
<polygon points="370,101 378.6,106 378.6,116 370,121 361.4,116 361.4,106" fill="none" stroke="#39FF14" stroke-width="1" opacity="0.07861888890243157"/>
<polygon points="236,134 244.6,139 244.6,149 236,154 227.4,149 227.4,139" fill="none" stroke="#39FF14" stroke-width="1" opacity="0.03927332370415558"/>
<polygon points="546,54 554.6,59 554.6,69 546,74 537.4,69 537.4,59" fill="none" stroke="#39FF14" stroke-width="1" opacity="0.04861002422258996"/>
</g>

  <!-- HUD Decorative elements -->
  <path d="M 20 20 L 40 20 L 50 30" fill="none" stroke="#39FF14" stroke-width="2" opacity="0.5"/>
  <path d="M 830 180 L 810 180 L 800 170" fill="none" stroke="#39FF14" stroke-width="2" opacity="0.5"/>

  <g clip-path="url(#dashClip)">
    <rect x="-160" y="0" width="160" height="200" fill="url(#scanlineGrad)">
      <animateTransform attributeName="transform" type="translate"
                        from="0 0" to="1010 0" dur="6s" repeatCount="indefinite"/>
    </rect>
  </g>

  <g font-family="'Consolas', 'Fira Code', monospace" text-anchor="middle">

    <!-- NETWORK STATUS -->
    <g transform="translate(130, 100)">
        <circle cx="0" cy="0" r="45" fill="none" stroke="#39FF14" stroke-width="2" stroke-dasharray="10 5">
            <animateTransform attributeName="transform" type="rotate" from="0" to="360" dur="10s" repeatCount="indefinite"/>
        </circle>
        <circle cx="0" cy="0" r="35" fill="#0d0d0d" />
        <text x="0" y="-60" font-size="12" fill="#aaaaaa" letter-spacing="2">ROOT.AUTH</text>
        <text x="0" y="70" font-size="14" fill="#ffffff" font-weight="bold">OPERATIONAL</text>
    </g>

    <!-- ACTIVE USERS -->
    <g transform="translate(330, 100)">
        <text x="0" y="-20" font-size="12" fill="#aaaaaa">CITIZENS</text>
        <text x="0" y="15" font-size="28" fill="#ffffff" font-weight="bold" filter="url(#textGlow)">14,288</text>
        <text x="0" y="35" font-size="10" fill="#777777">VERIFIED HUMANS</text>
    </g>

    <!-- REGISTERED AGENTS -->
    <g transform="translate(530, 100)">
        <text x="0" y="-20" font-size="12" fill="#aaaaaa">AGENTS</text>
        <text x="0" y="15" font-size="28" fill="#00d4ff" font-weight="bold" filter="url(#textGlow)">3,468</text>
        <text x="0" y="35" font-size="10" fill="#777777">REGISTERED DIDs</text>
    </g>

    <!-- TRANSACTIONS -->
    <g transform="translate(730, 100)">
        <text x="0" y="-20" font-size="12" fill="#aaaaaa">TRANSFERS</text>
        <text x="0" y="15" font-size="28" fill="#ffffff" font-weight="bold">31,649</text>
        <text x="0" y="35" font-size="10" fill="#777777">M2M SETTLEMENTS</text>
    </g>
  </g>

  <text x="425" y="185" font-family="'Consolas', 'Fira Code', monospace" font-size="10" fill="#aaaaaa" opacity="0.6" text-anchor="middle">AXIOMID PROJECTED TARGETS (ILLUSTRATIVE): 2026-07-22 10:11:16 UTC // SECURE_HANDSHAKE</text>
</svg>