<svg width="850" height="200" viewBox="0 0 850 200" xmlns="http://www.w3.org/2000/svg">
  <defs>
    <pattern id="carbonFiber" width="10" height="10" patternUnits="userSpaceOnUse">
        <rect width="10" height="10" fill="#050505"/>
        <path d="M0,0 L5,5 L10,0 L5,-5 Z M5,5 L10,10 L15,5 L10,0 Z M-5,5 L0,10 L5,5 L0,0 Z M0,10 L5,15 L10,10 L5,5 Z" fill="#0d0d0d"/>
    </pattern>
    <filter id="textGlow">
      <feGaussianBlur stdDeviation="2" result="blur" />
      <feMerge>
        <feMergeNode in="blur"/>
        <feMergeNode in="SourceGraphic"/>
      </feMerge>
    </filter>
    <linearGradient id="neonBar" x1="0%" y1="0%" x2="100%" y2="0%">
        <stop offset="0%" stop-color="#111111"/>
        <stop offset="100%" stop-color="#39FF14"/>
    </linearGradient>
    <linearGradient id="scanlineGrad" x1="0%" y1="0%" x2="100%" y2="0%">
        <stop offset="0%" stop-color="#39FF14" stop-opacity="0"/>
        <stop offset="50%" stop-color="#39FF14" stop-opacity="0.18"/>
        <stop offset="100%" stop-color="#39FF14" stop-opacity="0"/>
    </linearGradient>
    <clipPath id="dashClip">
        <rect x="0" y="0" width="850" height="200" rx="12"/>
    </clipPath>
  </defs>

  <rect width="100%" height="100%" fill="url(#carbonFiber)" rx="12" stroke="#39FF14" stroke-width="1" stroke-opacity="0.3"/>
  <rect width="100%" height="100%" fill="#000000" opacity="0.6" rx="12" />
  <g><polygon points="36,49 44.6,54 44.6,64 36,69 27.4,64 27.4,54" fill="none" stroke="#39FF14" stroke-width="1" opacity="0.07634458987279243"/>
<polygon points="382,157 390.6,162 390.6,172 382,177 373.4,172 373.4,162" fill="none" stroke="#39FF14" stroke-width="1" opacity="0.041655723963245295"/>
<polygon points="294,84 302.6,89 302.6,99 294,104 285.4,99 285.4,89" fill="none" stroke="#39FF14" stroke-width="1" opacity="0.07280427531735796"/>
<polygon points="271,146 279.6,151 279.6,161 271,166 262.4,161 262.4,151" fill="none" stroke="#39FF14" stroke-width="1" opacity="0.06242780055271667"/>
<polygon points="466,189 474.6,194 474.6,204 466,209 457.4,204 457.4,194" fill="none" stroke="#39FF14" stroke-width="1" opacity="0.07689066973338284"/>
<polygon points="770,148 778.6,153 778.6,163 770,168 761.4,163 761.4,153" fill="none" stroke="#39FF14" stroke-width="1" opacity="0.06411049296994245"/>
<polygon points="351,-4 359.6,1 359.6,11 351,16 342.4,11 342.4,1" fill="none" stroke="#39FF14" stroke-width="1" opacity="0.04104738079244115"/>
<polygon points="227,166 235.6,171 235.6,181 227,186 218.4,181 218.4,171" fill="none" stroke="#39FF14" stroke-width="1" opacity="0.02290815348340625"/>
<polygon points="130,134 138.6,139 138.6,149 130,154 121.4,149 121.4,139" fill="none" stroke="#39FF14" stroke-width="1" opacity="0.05067032764429732"/>
<polygon points="560,147 568.6,152 568.6,162 560,167 551.4,162 551.4,152" fill="none" stroke="#39FF14" stroke-width="1" opacity="0.06672543344076662"/>
<polygon points="732,1 740.6,6 740.6,16 732,21 723.4,16 723.4,6" fill="none" stroke="#39FF14" stroke-width="1" opacity="0.03836956677720209"/>
<polygon points="310,139 318.6,144 318.6,154 310,159 301.4,154 301.4,144" fill="none" stroke="#39FF14" stroke-width="1" opacity="0.07391504743739116"/>
<polygon points="174,114 182.6,119 182.6,129 174,134 165.4,129 165.4,119" fill="none" stroke="#39FF14" stroke-width="1" opacity="0.062253465916897"/>
<polygon points="744,22 752.6,27 752.6,37 744,42 735.4,37 735.4,27" fill="none" stroke="#39FF14" stroke-width="1" opacity="0.032292658288833494"/>
<polygon points="47,34 55.6,39 55.6,49 47,54 38.4,49 38.4,39" fill="none" stroke="#39FF14" stroke-width="1" opacity="0.02501861299104334"/>
<polygon points="444,186 452.6,191 452.6,201 444,206 435.4,201 435.4,191" fill="none" stroke="#39FF14" stroke-width="1" opacity="0.06290866950096231"/>
<polygon points="152,165 160.6,170 160.6,180 152,185 143.4,180 143.4,170" fill="none" stroke="#39FF14" stroke-width="1" opacity="0.07117018127844821"/>
<polygon points="62,151 70.6,156 70.6,166 62,171 53.4,166 53.4,156" fill="none" stroke="#39FF14" stroke-width="1" opacity="0.03827454451288263"/>
<polygon points="406,48 414.6,53 414.6,63 406,68 397.4,63 397.4,53" fill="none" stroke="#39FF14" stroke-width="1" opacity="0.047916659938343806"/>
<polygon points="446,88 454.6,93 454.6,103 446,108 437.4,103 437.4,93" fill="none" stroke="#39FF14" stroke-width="1" opacity="0.06486990275692184"/>
<polygon points="795,18 803.6,23 803.6,33 795,38 786.4,33 786.4,23" fill="none" stroke="#39FF14" stroke-width="1" opacity="0.040186471151240404"/>
<polygon points="187,162 195.6,167 195.6,177 187,182 178.4,177 178.4,167" fill="none" stroke="#39FF14" stroke-width="1" opacity="0.04635331266185778"/>
<polygon points="819,35 827.6,40 827.6,50 819,55 810.4,50 810.4,40" fill="none" stroke="#39FF14" stroke-width="1" opacity="0.06586556759028407"/>
<polygon points="279,50 287.6,55 287.6,65 279,70 270.4,65 270.4,55" fill="none" stroke="#39FF14" stroke-width="1" opacity="0.03237550997455736"/>
<polygon points="427,142 435.6,147 435.6,157 427,162 418.4,157 418.4,147" fill="none" stroke="#39FF14" stroke-width="1" opacity="0.05435219230704019"/>
<polygon points="828,25 836.6,30 836.6,40 828,45 819.4,40 819.4,30" fill="none" stroke="#39FF14" stroke-width="1" opacity="0.030714142679381662"/>
<polygon points="313,167 321.6,172 321.6,182 313,187 304.4,182 304.4,172" fill="none" stroke="#39FF14" stroke-width="1" opacity="0.0421579861296668"/>
<polygon points="821,80 829.6,85 829.6,95 821,100 812.4,95 812.4,85" fill="none" stroke="#39FF14" stroke-width="1" opacity="0.03923744188497877"/>
<polygon points="823,55 831.6,60 831.6,70 823,75 814.4,70 814.4,60" fill="none" stroke="#39FF14" stroke-width="1" opacity="0.07104702957626421"/>
<polygon points="29,102 37.6,107 37.6,117 29,122 20.4,117 20.4,107" fill="none" stroke="#39FF14" stroke-width="1" opacity="0.03078538240240109"/>
</g>

  <!-- HUD Decorative elements -->
  <path d="M 20 20 L 40 20 L 50 30" fill="none" stroke="#39FF14" stroke-width="2" opacity="0.5"/>
  <path d="M 830 180 L 810 180 L 800 170" fill="none" stroke="#39FF14" stroke-width="2" opacity="0.5"/>

  <g clip-path="url(#dashClip)">
    <rect x="-160" y="0" width="160" height="200" fill="url(#scanlineGrad)">
      <animateTransform attributeName="transform" type="translate"
                        from="0 0" to="1010 0" dur="6s" repeatCount="indefinite"/>
    </rect>
  </g>

  <g font-family="'Consolas', 'Fira Code', monospace" text-anchor="middle">

    <!-- NETWORK STATUS -->
    <g transform="translate(130, 100)">
        <circle cx="0" cy="0" r="45" fill="none" stroke="#39FF14" stroke-width="2" stroke-dasharray="10 5">
            <animateTransform attributeName="transform" type="rotate" from="0" to="360" dur="10s" repeatCount="indefinite"/>
        </circle>
        <circle cx="0" cy="0" r="35" fill="#0d0d0d" />
        <text x="0" y="-60" font-size="12" fill="#aaaaaa" letter-spacing="2">ROOT.AUTH</text>
        <text x="0" y="70" font-size="14" fill="#ffffff" font-weight="bold">OPERATIONAL</text>
    </g>

    <!-- ACTIVE USERS -->
    <g transform="translate(330, 100)">
        <text x="0" y="-20" font-size="12" fill="#aaaaaa">CITIZENS</text>
        <text x="0" y="15" font-size="28" fill="#ffffff" font-weight="bold" filter="url(#textGlow)">14,917</text>
        <text x="0" y="35" font-size="10" fill="#777777">VERIFIED HUMANS</text>
    </g>

    <!-- REGISTERED AGENTS -->
    <g transform="translate(530, 100)">
        <text x="0" y="-20" font-size="12" fill="#aaaaaa">AGENTS</text>
        <text x="0" y="15" font-size="28" fill="#00d4ff" font-weight="bold" filter="url(#textGlow)">4,597</text>
        <text x="0" y="35" font-size="10" fill="#777777">REGISTERED DIDs</text>
    </g>

    <!-- TRANSACTIONS -->
    <g transform="translate(730, 100)">
        <text x="0" y="-20" font-size="12" fill="#aaaaaa">TRANSFERS</text>
        <text x="0" y="15" font-size="28" fill="#ffffff" font-weight="bold">30,638</text>
        <text x="0" y="35" font-size="10" fill="#777777">M2M SETTLEMENTS</text>
    </g>
  </g>

  <text x="425" y="185" font-family="'Consolas', 'Fira Code', monospace" font-size="10" fill="#aaaaaa" opacity="0.6" text-anchor="middle">AXIOMID PROJECTED TARGETS (ILLUSTRATIVE): 2026-07-08 05:41:16 UTC // SECURE_HANDSHAKE</text>
</svg>