<svg width="850" height="200" viewBox="0 0 850 200" xmlns="http://www.w3.org/2000/svg">
  <defs>
    <pattern id="carbonFiber" width="10" height="10" patternUnits="userSpaceOnUse">
        <rect width="10" height="10" fill="#050505"/>
        <path d="M0,0 L5,5 L10,0 L5,-5 Z M5,5 L10,10 L15,5 L10,0 Z M-5,5 L0,10 L5,5 L0,0 Z M0,10 L5,15 L10,10 L5,5 Z" fill="#0d0d0d"/>
    </pattern>
    <filter id="textGlow">
      <feGaussianBlur stdDeviation="2" result="blur" />
      <feMerge>
        <feMergeNode in="blur"/>
        <feMergeNode in="SourceGraphic"/>
      </feMerge>
    </filter>
    <linearGradient id="neonBar" x1="0%" y1="0%" x2="100%" y2="0%">
        <stop offset="0%" stop-color="#111111"/>
        <stop offset="100%" stop-color="#39FF14"/>
    </linearGradient>
    <linearGradient id="scanlineGrad" x1="0%" y1="0%" x2="100%" y2="0%">
        <stop offset="0%" stop-color="#39FF14" stop-opacity="0"/>
        <stop offset="50%" stop-color="#39FF14" stop-opacity="0.18"/>
        <stop offset="100%" stop-color="#39FF14" stop-opacity="0"/>
    </linearGradient>
    <clipPath id="dashClip">
        <rect x="0" y="0" width="850" height="200" rx="12"/>
    </clipPath>
  </defs>

  <rect width="100%" height="100%" fill="url(#carbonFiber)" rx="12" stroke="#39FF14" stroke-width="1" stroke-opacity="0.3"/>
  <rect width="100%" height="100%" fill="#000000" opacity="0.6" rx="12" />
  <g><polygon points="798,94 806.6,99 806.6,109 798,114 789.4,109 789.4,99" fill="none" stroke="#39FF14" stroke-width="1" opacity="0.06862325554175763"/>
<polygon points="640,44 648.6,49 648.6,59 640,64 631.4,59 631.4,49" fill="none" stroke="#39FF14" stroke-width="1" opacity="0.031110949678168107"/>
<polygon points="788,46 796.6,51 796.6,61 788,66 779.4,61 779.4,51" fill="none" stroke="#39FF14" stroke-width="1" opacity="0.05988976640030795"/>
<polygon points="777,117 785.6,122 785.6,132 777,137 768.4,132 768.4,122" fill="none" stroke="#39FF14" stroke-width="1" opacity="0.07155890308136095"/>
<polygon points="648,173 656.6,178 656.6,188 648,193 639.4,188 639.4,178" fill="none" stroke="#39FF14" stroke-width="1" opacity="0.03494395460368195"/>
<polygon points="292,69 300.6,74 300.6,84 292,89 283.4,84 283.4,74" fill="none" stroke="#39FF14" stroke-width="1" opacity="0.022922272696039435"/>
<polygon points="173,125 181.6,130 181.6,140 173,145 164.4,140 164.4,130" fill="none" stroke="#39FF14" stroke-width="1" opacity="0.04688148701227578"/>
<polygon points="725,176 733.6,181 733.6,191 725,196 716.4,191 716.4,181" fill="none" stroke="#39FF14" stroke-width="1" opacity="0.04267381832863346"/>
<polygon points="573,76 581.6,81 581.6,91 573,96 564.4,91 564.4,81" fill="none" stroke="#39FF14" stroke-width="1" opacity="0.07124438765330965"/>
<polygon points="260,7 268.6,12 268.6,22 260,27 251.4,22 251.4,12" fill="none" stroke="#39FF14" stroke-width="1" opacity="0.07007040752946343"/>
<polygon points="573,61 581.6,66 581.6,76 573,81 564.4,76 564.4,66" fill="none" stroke="#39FF14" stroke-width="1" opacity="0.06957798463954395"/>
<polygon points="780,67 788.6,72 788.6,82 780,87 771.4,82 771.4,72" fill="none" stroke="#39FF14" stroke-width="1" opacity="0.0626649386253961"/>
<polygon points="833,162 841.6,167 841.6,177 833,182 824.4,177 824.4,167" fill="none" stroke="#39FF14" stroke-width="1" opacity="0.020582225626952645"/>
<polygon points="151,127 159.6,132 159.6,142 151,147 142.4,142 142.4,132" fill="none" stroke="#39FF14" stroke-width="1" opacity="0.02982911538347066"/>
<polygon points="164,59 172.6,64 172.6,74 164,79 155.4,74 155.4,64" fill="none" stroke="#39FF14" stroke-width="1" opacity="0.05972258803790301"/>
<polygon points="466,89 474.6,94 474.6,104 466,109 457.4,104 457.4,94" fill="none" stroke="#39FF14" stroke-width="1" opacity="0.039342075043458394"/>
<polygon points="731,134 739.6,139 739.6,149 731,154 722.4,149 722.4,139" fill="none" stroke="#39FF14" stroke-width="1" opacity="0.04876891297281172"/>
<polygon points="86,81 94.6,86 94.6,96 86,101 77.4,96 77.4,86" fill="none" stroke="#39FF14" stroke-width="1" opacity="0.02361585175420484"/>
<polygon points="368,102 376.6,107 376.6,117 368,122 359.4,117 359.4,107" fill="none" stroke="#39FF14" stroke-width="1" opacity="0.05782288275397317"/>
<polygon points="617,60 625.6,65 625.6,75 617,80 608.4,75 608.4,65" fill="none" stroke="#39FF14" stroke-width="1" opacity="0.03492018413924136"/>
<polygon points="277,166 285.6,171 285.6,181 277,186 268.4,181 268.4,171" fill="none" stroke="#39FF14" stroke-width="1" opacity="0.06867730723504772"/>
<polygon points="713,23 721.6,28 721.6,38 713,43 704.4,38 704.4,28" fill="none" stroke="#39FF14" stroke-width="1" opacity="0.06371197469163908"/>
<polygon points="785,57 793.6,62 793.6,72 785,77 776.4,72 776.4,62" fill="none" stroke="#39FF14" stroke-width="1" opacity="0.055478271841576915"/>
<polygon points="742,83 750.6,88 750.6,98 742,103 733.4,98 733.4,88" fill="none" stroke="#39FF14" stroke-width="1" opacity="0.06509116612848695"/>
<polygon points="194,125 202.6,130 202.6,140 194,145 185.4,140 185.4,130" fill="none" stroke="#39FF14" stroke-width="1" opacity="0.060507330336024234"/>
<polygon points="793,40 801.6,45 801.6,55 793,60 784.4,55 784.4,45" fill="none" stroke="#39FF14" stroke-width="1" opacity="0.03918543119696838"/>
<polygon points="513,128 521.6,133 521.6,143 513,148 504.4,143 504.4,133" fill="none" stroke="#39FF14" stroke-width="1" opacity="0.021568351412600734"/>
<polygon points="408,182 416.6,187 416.6,197 408,202 399.4,197 399.4,187" fill="none" stroke="#39FF14" stroke-width="1" opacity="0.07054588647900598"/>
<polygon points="45,5 53.6,10 53.6,20 45,25 36.4,20 36.4,10" fill="none" stroke="#39FF14" stroke-width="1" opacity="0.0713711773052576"/>
<polygon points="831,67 839.6,72 839.6,82 831,87 822.4,82 822.4,72" fill="none" stroke="#39FF14" stroke-width="1" opacity="0.020392565771584586"/>
</g>

  <!-- HUD Decorative elements -->
  <path d="M 20 20 L 40 20 L 50 30" fill="none" stroke="#39FF14" stroke-width="2" opacity="0.5"/>
  <path d="M 830 180 L 810 180 L 800 170" fill="none" stroke="#39FF14" stroke-width="2" opacity="0.5"/>

  <g clip-path="url(#dashClip)">
    <rect x="-160" y="0" width="160" height="200" fill="url(#scanlineGrad)">
      <animateTransform attributeName="transform" type="translate"
                        from="0 0" to="1010 0" dur="6s" repeatCount="indefinite"/>
    </rect>
  </g>

  <g font-family="'Consolas', 'Fira Code', monospace" text-anchor="middle">

    <!-- NETWORK STATUS -->
    <g transform="translate(130, 100)">
        <circle cx="0" cy="0" r="45" fill="none" stroke="#39FF14" stroke-width="2" stroke-dasharray="10 5">
            <animateTransform attributeName="transform" type="rotate" from="0" to="360" dur="10s" repeatCount="indefinite"/>
        </circle>
        <circle cx="0" cy="0" r="35" fill="#0d0d0d" />
        <text x="0" y="-60" font-size="12" fill="#aaaaaa" letter-spacing="2">ROOT.AUTH</text>
        <text x="0" y="70" font-size="14" fill="#ffffff" font-weight="bold">OPERATIONAL</text>
    </g>

    <!-- ACTIVE USERS -->
    <g transform="translate(330, 100)">
        <text x="0" y="-20" font-size="12" fill="#aaaaaa">CITIZENS</text>
        <text x="0" y="15" font-size="28" fill="#ffffff" font-weight="bold" filter="url(#textGlow)">12,645</text>
        <text x="0" y="35" font-size="10" fill="#777777">VERIFIED HUMANS</text>
    </g>

    <!-- REGISTERED AGENTS -->
    <g transform="translate(530, 100)">
        <text x="0" y="-20" font-size="12" fill="#aaaaaa">AGENTS</text>
        <text x="0" y="15" font-size="28" fill="#00d4ff" font-weight="bold" filter="url(#textGlow)">3,675</text>
        <text x="0" y="35" font-size="10" fill="#777777">REGISTERED DIDs</text>
    </g>

    <!-- TRANSACTIONS -->
    <g transform="translate(730, 100)">
        <text x="0" y="-20" font-size="12" fill="#aaaaaa">TRANSFERS</text>
        <text x="0" y="15" font-size="28" fill="#ffffff" font-weight="bold">26,456</text>
        <text x="0" y="35" font-size="10" fill="#777777">M2M SETTLEMENTS</text>
    </g>
  </g>

  <text x="425" y="185" font-family="'Consolas', 'Fira Code', monospace" font-size="10" fill="#aaaaaa" opacity="0.6" text-anchor="middle">AXIOMID PROJECTED TARGETS (ILLUSTRATIVE): 2026-07-24 08:07:19 UTC // SECURE_HANDSHAKE</text>
</svg>