<svg width="850" height="200" viewBox="0 0 850 200" xmlns="http://www.w3.org/2000/svg">
  <defs>
    <pattern id="carbonFiber" width="10" height="10" patternUnits="userSpaceOnUse">
        <rect width="10" height="10" fill="#050505"/>
        <path d="M0,0 L5,5 L10,0 L5,-5 Z M5,5 L10,10 L15,5 L10,0 Z M-5,5 L0,10 L5,5 L0,0 Z M0,10 L5,15 L10,10 L5,5 Z" fill="#0d0d0d"/>
    </pattern>
    <filter id="textGlow">
      <feGaussianBlur stdDeviation="2" result="blur" />
      <feMerge>
        <feMergeNode in="blur"/>
        <feMergeNode in="SourceGraphic"/>
      </feMerge>
    </filter>
    <linearGradient id="neonBar" x1="0%" y1="0%" x2="100%" y2="0%">
        <stop offset="0%" stop-color="#111111"/>
        <stop offset="100%" stop-color="#39FF14"/>
    </linearGradient>
    <linearGradient id="scanlineGrad" x1="0%" y1="0%" x2="100%" y2="0%">
        <stop offset="0%" stop-color="#39FF14" stop-opacity="0"/>
        <stop offset="50%" stop-color="#39FF14" stop-opacity="0.18"/>
        <stop offset="100%" stop-color="#39FF14" stop-opacity="0"/>
    </linearGradient>
    <clipPath id="dashClip">
        <rect x="0" y="0" width="850" height="200" rx="12"/>
    </clipPath>
  </defs>

  <rect width="100%" height="100%" fill="url(#carbonFiber)" rx="12" stroke="#39FF14" stroke-width="1" stroke-opacity="0.3"/>
  <rect width="100%" height="100%" fill="#000000" opacity="0.6" rx="12" />
  <g><polygon points="388,182 396.6,187 396.6,197 388,202 379.4,197 379.4,187" fill="none" stroke="#39FF14" stroke-width="1" opacity="0.04816841712013593"/>
<polygon points="317,133 325.6,138 325.6,148 317,153 308.4,148 308.4,138" fill="none" stroke="#39FF14" stroke-width="1" opacity="0.06080344949533306"/>
<polygon points="795,88 803.6,93 803.6,103 795,108 786.4,103 786.4,93" fill="none" stroke="#39FF14" stroke-width="1" opacity="0.055634013378128566"/>
<polygon points="746,189 754.6,194 754.6,204 746,209 737.4,204 737.4,194" fill="none" stroke="#39FF14" stroke-width="1" opacity="0.03213162949167058"/>
<polygon points="477,178 485.6,183 485.6,193 477,198 468.4,193 468.4,183" fill="none" stroke="#39FF14" stroke-width="1" opacity="0.028769103581487647"/>
<polygon points="658,137 666.6,142 666.6,152 658,157 649.4,152 649.4,142" fill="none" stroke="#39FF14" stroke-width="1" opacity="0.07106784501536713"/>
<polygon points="787,-5 795.6,0 795.6,10 787,15 778.4,10 778.4,0" fill="none" stroke="#39FF14" stroke-width="1" opacity="0.0245595102764474"/>
<polygon points="817,44 825.6,49 825.6,59 817,64 808.4,59 808.4,49" fill="none" stroke="#39FF14" stroke-width="1" opacity="0.05548547903645645"/>
<polygon points="359,-8 367.6,-3 367.6,7 359,12 350.4,7 350.4,-3" fill="none" stroke="#39FF14" stroke-width="1" opacity="0.059956775984697064"/>
<polygon points="692,171 700.6,176 700.6,186 692,191 683.4,186 683.4,176" fill="none" stroke="#39FF14" stroke-width="1" opacity="0.0629288138687051"/>
<polygon points="112,167 120.6,172 120.6,182 112,187 103.4,182 103.4,172" fill="none" stroke="#39FF14" stroke-width="1" opacity="0.04085081395339994"/>
<polygon points="740,117 748.6,122 748.6,132 740,137 731.4,132 731.4,122" fill="none" stroke="#39FF14" stroke-width="1" opacity="0.051421812297173936"/>
<polygon points="281,105 289.6,110 289.6,120 281,125 272.4,120 272.4,110" fill="none" stroke="#39FF14" stroke-width="1" opacity="0.04934711538974001"/>
<polygon points="843,-6 851.6,-1 851.6,9 843,14 834.4,9 834.4,-1" fill="none" stroke="#39FF14" stroke-width="1" opacity="0.03088973049990915"/>
<polygon points="472,21 480.6,26 480.6,36 472,41 463.4,36 463.4,26" fill="none" stroke="#39FF14" stroke-width="1" opacity="0.06723768719430771"/>
<polygon points="9,108 17.6,113 17.6,123 9,128 0.40000000000000036,123 0.40000000000000036,113" fill="none" stroke="#39FF14" stroke-width="1" opacity="0.03673769110573297"/>
<polygon points="160,91 168.6,96 168.6,106 160,111 151.4,106 151.4,96" fill="none" stroke="#39FF14" stroke-width="1" opacity="0.07702159429681152"/>
<polygon points="846,88 854.6,93 854.6,103 846,108 837.4,103 837.4,93" fill="none" stroke="#39FF14" stroke-width="1" opacity="0.07574668798564121"/>
<polygon points="762,21 770.6,26 770.6,36 762,41 753.4,36 753.4,26" fill="none" stroke="#39FF14" stroke-width="1" opacity="0.035675941714361725"/>
<polygon points="463,22 471.6,27 471.6,37 463,42 454.4,37 454.4,27" fill="none" stroke="#39FF14" stroke-width="1" opacity="0.034378739567017154"/>
<polygon points="793,165 801.6,170 801.6,180 793,185 784.4,180 784.4,170" fill="none" stroke="#39FF14" stroke-width="1" opacity="0.03700981134885682"/>
<polygon points="379,31 387.6,36 387.6,46 379,51 370.4,46 370.4,36" fill="none" stroke="#39FF14" stroke-width="1" opacity="0.031587455949705565"/>
<polygon points="436,165 444.6,170 444.6,180 436,185 427.4,180 427.4,170" fill="none" stroke="#39FF14" stroke-width="1" opacity="0.052836887665410684"/>
<polygon points="635,149 643.6,154 643.6,164 635,169 626.4,164 626.4,154" fill="none" stroke="#39FF14" stroke-width="1" opacity="0.059196327715703656"/>
<polygon points="374,133 382.6,138 382.6,148 374,153 365.4,148 365.4,138" fill="none" stroke="#39FF14" stroke-width="1" opacity="0.02968874615303802"/>
<polygon points="410,161 418.6,166 418.6,176 410,181 401.4,176 401.4,166" fill="none" stroke="#39FF14" stroke-width="1" opacity="0.07030947437791692"/>
<polygon points="33,185 41.6,190 41.6,200 33,205 24.4,200 24.4,190" fill="none" stroke="#39FF14" stroke-width="1" opacity="0.06880405633067325"/>
<polygon points="604,29 612.6,34 612.6,44 604,49 595.4,44 595.4,34" fill="none" stroke="#39FF14" stroke-width="1" opacity="0.06032892818097964"/>
<polygon points="290,61 298.6,66 298.6,76 290,81 281.4,76 281.4,66" fill="none" stroke="#39FF14" stroke-width="1" opacity="0.054858071468823266"/>
<polygon points="138,151 146.6,156 146.6,166 138,171 129.4,166 129.4,156" fill="none" stroke="#39FF14" stroke-width="1" opacity="0.07047056206600383"/>
</g>

  <!-- HUD Decorative elements -->
  <path d="M 20 20 L 40 20 L 50 30" fill="none" stroke="#39FF14" stroke-width="2" opacity="0.5"/>
  <path d="M 830 180 L 810 180 L 800 170" fill="none" stroke="#39FF14" stroke-width="2" opacity="0.5"/>

  <g clip-path="url(#dashClip)">
    <rect x="-160" y="0" width="160" height="200" fill="url(#scanlineGrad)">
      <animateTransform attributeName="transform" type="translate"
                        from="0 0" to="1010 0" dur="6s" repeatCount="indefinite"/>
    </rect>
  </g>

  <g font-family="'Consolas', 'Fira Code', monospace" text-anchor="middle">

    <!-- NETWORK STATUS -->
    <g transform="translate(130, 100)">
        <circle cx="0" cy="0" r="45" fill="none" stroke="#39FF14" stroke-width="2" stroke-dasharray="10 5">
            <animateTransform attributeName="transform" type="rotate" from="0" to="360" dur="10s" repeatCount="indefinite"/>
        </circle>
        <circle cx="0" cy="0" r="35" fill="#0d0d0d" />
        <text x="0" y="-60" font-size="12" fill="#aaaaaa" letter-spacing="2">ROOT.AUTH</text>
        <text x="0" y="70" font-size="14" fill="#ffffff" font-weight="bold">OPERATIONAL</text>
    </g>

    <!-- ACTIVE USERS -->
    <g transform="translate(330, 100)">
        <text x="0" y="-20" font-size="12" fill="#aaaaaa">CITIZENS</text>
        <text x="0" y="15" font-size="28" fill="#ffffff" font-weight="bold" filter="url(#textGlow)">13,083</text>
        <text x="0" y="35" font-size="10" fill="#777777">VERIFIED HUMANS</text>
    </g>

    <!-- REGISTERED AGENTS -->
    <g transform="translate(530, 100)">
        <text x="0" y="-20" font-size="12" fill="#aaaaaa">AGENTS</text>
        <text x="0" y="15" font-size="28" fill="#00d4ff" font-weight="bold" filter="url(#textGlow)">4,448</text>
        <text x="0" y="35" font-size="10" fill="#777777">REGISTERED DIDs</text>
    </g>

    <!-- TRANSACTIONS -->
    <g transform="translate(730, 100)">
        <text x="0" y="-20" font-size="12" fill="#aaaaaa">TRANSFERS</text>
        <text x="0" y="15" font-size="28" fill="#ffffff" font-weight="bold">26,657</text>
        <text x="0" y="35" font-size="10" fill="#777777">M2M SETTLEMENTS</text>
    </g>
  </g>

  <text x="425" y="185" font-family="'Consolas', 'Fira Code', monospace" font-size="10" fill="#aaaaaa" opacity="0.6" text-anchor="middle">AXIOMID PROJECTED TARGETS (ILLUSTRATIVE): 2026-07-01 15:51:08 UTC // SECURE_HANDSHAKE</text>
</svg>