<svg width="850" height="200" viewBox="0 0 850 200" xmlns="http://www.w3.org/2000/svg">
  <defs>
    <pattern id="carbonFiber" width="10" height="10" patternUnits="userSpaceOnUse">
        <rect width="10" height="10" fill="#050505"/>
        <path d="M0,0 L5,5 L10,0 L5,-5 Z M5,5 L10,10 L15,5 L10,0 Z M-5,5 L0,10 L5,5 L0,0 Z M0,10 L5,15 L10,10 L5,5 Z" fill="#0d0d0d"/>
    </pattern>
    <filter id="textGlow">
      <feGaussianBlur stdDeviation="2" result="blur" />
      <feMerge>
        <feMergeNode in="blur"/>
        <feMergeNode in="SourceGraphic"/>
      </feMerge>
    </filter>
    <linearGradient id="neonBar" x1="0%" y1="0%" x2="100%" y2="0%">
        <stop offset="0%" stop-color="#111111"/>
        <stop offset="100%" stop-color="#39FF14"/>
    </linearGradient>
    <linearGradient id="scanlineGrad" x1="0%" y1="0%" x2="100%" y2="0%">
        <stop offset="0%" stop-color="#39FF14" stop-opacity="0"/>
        <stop offset="50%" stop-color="#39FF14" stop-opacity="0.18"/>
        <stop offset="100%" stop-color="#39FF14" stop-opacity="0"/>
    </linearGradient>
    <clipPath id="dashClip">
        <rect x="0" y="0" width="850" height="200" rx="12"/>
    </clipPath>
  </defs>

  <rect width="100%" height="100%" fill="url(#carbonFiber)" rx="12" stroke="#39FF14" stroke-width="1" stroke-opacity="0.3"/>
  <rect width="100%" height="100%" fill="#000000" opacity="0.6" rx="12" />
  <g><polygon points="787,41 795.6,46 795.6,56 787,61 778.4,56 778.4,46" fill="none" stroke="#39FF14" stroke-width="1" opacity="0.07733686020159011"/>
<polygon points="582,168 590.6,173 590.6,183 582,188 573.4,183 573.4,173" fill="none" stroke="#39FF14" stroke-width="1" opacity="0.03380551424152005"/>
<polygon points="430,158 438.6,163 438.6,173 430,178 421.4,173 421.4,163" fill="none" stroke="#39FF14" stroke-width="1" opacity="0.07510987111652168"/>
<polygon points="193,54 201.6,59 201.6,69 193,74 184.4,69 184.4,59" fill="none" stroke="#39FF14" stroke-width="1" opacity="0.04338641438093099"/>
<polygon points="373,-6 381.6,-1 381.6,9 373,14 364.4,9 364.4,-1" fill="none" stroke="#39FF14" stroke-width="1" opacity="0.06833951985613711"/>
<polygon points="418,-1 426.6,4 426.6,14 418,19 409.4,14 409.4,4" fill="none" stroke="#39FF14" stroke-width="1" opacity="0.03855054103776802"/>
<polygon points="152,0 160.6,5 160.6,15 152,20 143.4,15 143.4,5" fill="none" stroke="#39FF14" stroke-width="1" opacity="0.07943205279178792"/>
<polygon points="633,-10 641.6,-5 641.6,5 633,10 624.4,5 624.4,-5" fill="none" stroke="#39FF14" stroke-width="1" opacity="0.027020357443441438"/>
<polygon points="334,177 342.6,182 342.6,192 334,197 325.4,192 325.4,182" fill="none" stroke="#39FF14" stroke-width="1" opacity="0.07932575147170041"/>
<polygon points="850,175 858.6,180 858.6,190 850,195 841.4,190 841.4,180" fill="none" stroke="#39FF14" stroke-width="1" opacity="0.05543565621148358"/>
<polygon points="316,163 324.6,168 324.6,178 316,183 307.4,178 307.4,168" fill="none" stroke="#39FF14" stroke-width="1" opacity="0.07228829728279731"/>
<polygon points="444,95 452.6,100 452.6,110 444,115 435.4,110 435.4,100" fill="none" stroke="#39FF14" stroke-width="1" opacity="0.07758226024443272"/>
<polygon points="120,131 128.6,136 128.6,146 120,151 111.4,146 111.4,136" fill="none" stroke="#39FF14" stroke-width="1" opacity="0.07251887619697589"/>
<polygon points="752,184 760.6,189 760.6,199 752,204 743.4,199 743.4,189" fill="none" stroke="#39FF14" stroke-width="1" opacity="0.07844417809893744"/>
<polygon points="517,157 525.6,162 525.6,172 517,177 508.4,172 508.4,162" fill="none" stroke="#39FF14" stroke-width="1" opacity="0.032807338740975175"/>
<polygon points="130,150 138.6,155 138.6,165 130,170 121.4,165 121.4,155" fill="none" stroke="#39FF14" stroke-width="1" opacity="0.0477484345704952"/>
<polygon points="32,82 40.6,87 40.6,97 32,102 23.4,97 23.4,87" fill="none" stroke="#39FF14" stroke-width="1" opacity="0.042822665497598646"/>
<polygon points="208,79 216.6,84 216.6,94 208,99 199.4,94 199.4,84" fill="none" stroke="#39FF14" stroke-width="1" opacity="0.04406003268199144"/>
<polygon points="49,-10 57.6,-5 57.6,5 49,10 40.4,5 40.4,-5" fill="none" stroke="#39FF14" stroke-width="1" opacity="0.04699047946382569"/>
<polygon points="148,83 156.6,88 156.6,98 148,103 139.4,98 139.4,88" fill="none" stroke="#39FF14" stroke-width="1" opacity="0.053287894581616146"/>
<polygon points="288,75 296.6,80 296.6,90 288,95 279.4,90 279.4,80" fill="none" stroke="#39FF14" stroke-width="1" opacity="0.030098041999641605"/>
<polygon points="709,144 717.6,149 717.6,159 709,164 700.4,159 700.4,149" fill="none" stroke="#39FF14" stroke-width="1" opacity="0.030759547240386306"/>
<polygon points="153,140 161.6,145 161.6,155 153,160 144.4,155 144.4,145" fill="none" stroke="#39FF14" stroke-width="1" opacity="0.05904743830948553"/>
<polygon points="491,10 499.6,15 499.6,25 491,30 482.4,25 482.4,15" fill="none" stroke="#39FF14" stroke-width="1" opacity="0.060655587798708804"/>
<polygon points="813,133 821.6,138 821.6,148 813,153 804.4,148 804.4,138" fill="none" stroke="#39FF14" stroke-width="1" opacity="0.0794300481397119"/>
<polygon points="99,160 107.6,165 107.6,175 99,180 90.4,175 90.4,165" fill="none" stroke="#39FF14" stroke-width="1" opacity="0.04560651773466206"/>
<polygon points="748,172 756.6,177 756.6,187 748,192 739.4,187 739.4,177" fill="none" stroke="#39FF14" stroke-width="1" opacity="0.07569353044158725"/>
<polygon points="399,127 407.6,132 407.6,142 399,147 390.4,142 390.4,132" fill="none" stroke="#39FF14" stroke-width="1" opacity="0.036498989617441746"/>
<polygon points="53,64 61.6,69 61.6,79 53,84 44.4,79 44.4,69" fill="none" stroke="#39FF14" stroke-width="1" opacity="0.05156365510098347"/>
<polygon points="323,66 331.6,71 331.6,81 323,86 314.4,81 314.4,71" fill="none" stroke="#39FF14" stroke-width="1" opacity="0.07181777059145769"/>
</g>

  <!-- HUD Decorative elements -->
  <path d="M 20 20 L 40 20 L 50 30" fill="none" stroke="#39FF14" stroke-width="2" opacity="0.5"/>
  <path d="M 830 180 L 810 180 L 800 170" fill="none" stroke="#39FF14" stroke-width="2" opacity="0.5"/>

  <g clip-path="url(#dashClip)">
    <rect x="-160" y="0" width="160" height="200" fill="url(#scanlineGrad)">
      <animateTransform attributeName="transform" type="translate"
                        from="0 0" to="1010 0" dur="6s" repeatCount="indefinite"/>
    </rect>
  </g>

  <g font-family="'Consolas', 'Fira Code', monospace" text-anchor="middle">

    <!-- NETWORK STATUS -->
    <g transform="translate(130, 100)">
        <circle cx="0" cy="0" r="45" fill="none" stroke="#39FF14" stroke-width="2" stroke-dasharray="10 5">
            <animateTransform attributeName="transform" type="rotate" from="0" to="360" dur="10s" repeatCount="indefinite"/>
        </circle>
        <circle cx="0" cy="0" r="35" fill="#0d0d0d" />
        <text x="0" y="-60" font-size="12" fill="#aaaaaa" letter-spacing="2">ROOT.AUTH</text>
        <text x="0" y="70" font-size="14" fill="#ffffff" font-weight="bold">OPERATIONAL</text>
    </g>

    <!-- ACTIVE USERS -->
    <g transform="translate(330, 100)">
        <text x="0" y="-20" font-size="12" fill="#aaaaaa">CITIZENS</text>
        <text x="0" y="15" font-size="28" fill="#ffffff" font-weight="bold" filter="url(#textGlow)">14,380</text>
        <text x="0" y="35" font-size="10" fill="#777777">VERIFIED HUMANS</text>
    </g>

    <!-- REGISTERED AGENTS -->
    <g transform="translate(530, 100)">
        <text x="0" y="-20" font-size="12" fill="#aaaaaa">AGENTS</text>
        <text x="0" y="15" font-size="28" fill="#00d4ff" font-weight="bold" filter="url(#textGlow)">3,483</text>
        <text x="0" y="35" font-size="10" fill="#777777">REGISTERED DIDs</text>
    </g>

    <!-- TRANSACTIONS -->
    <g transform="translate(730, 100)">
        <text x="0" y="-20" font-size="12" fill="#aaaaaa">TRANSFERS</text>
        <text x="0" y="15" font-size="28" fill="#ffffff" font-weight="bold">35,962</text>
        <text x="0" y="35" font-size="10" fill="#777777">M2M SETTLEMENTS</text>
    </g>
  </g>

  <text x="425" y="185" font-family="'Consolas', 'Fira Code', monospace" font-size="10" fill="#aaaaaa" opacity="0.6" text-anchor="middle">AXIOMID PROJECTED TARGETS (ILLUSTRATIVE): 2026-07-21 08:53:02 UTC // SECURE_HANDSHAKE</text>
</svg>