<svg width="850" height="200" viewBox="0 0 850 200" xmlns="http://www.w3.org/2000/svg">
  <defs>
    <!-- Carbon Fiber Pattern -->
    <pattern id="carbonFiber" width="10" height="10" patternUnits="userSpaceOnUse">
        <rect width="10" height="10" fill="#050505"/>
        <path d="M0,0 L5,5 L10,0 L5,-5 Z M5,5 L10,10 L15,5 L10,0 Z M-5,5 L0,10 L5,5 L0,0 Z M0,10 L5,15 L10,10 L5,5 Z" fill="#0d0d0d"/>
    </pattern>
    <filter id="glassmorphism">
      <feGaussianBlur stdDeviation="3" result="blur" />
      <feColorMatrix type="matrix" values="1 0 0 0 0  0 1 0 0 0  0 0 1 0 0  0 0 0 18 -7" result="glow" />
      <feBlend in="SourceGraphic" in2="glow" mode="normal" />
    </filter>
    <filter id="textGlow">
      <feGaussianBlur stdDeviation="2" result="blur" />
      <feMerge>
        <feMergeNode in="blur"/>
        <feMergeNode in="SourceGraphic"/>
      </feMerge>
    </filter>
    <linearGradient id="neonBar" x1="0%" y1="0%" x2="100%" y2="0%">
        <stop offset="0%" stop-color="#111111"/>
        <stop offset="100%" stop-color="#39FF14"/>
    </linearGradient>
  </defs>

  <rect width="100%" height="100%" fill="url(#carbonFiber)" rx="12" stroke="#39FF14" stroke-width="1" stroke-opacity="0.3"/>
  <rect width="100%" height="100%" fill="#000000" opacity="0.6" rx="12" />
  <g><polygon points="486,186 494.6,191 494.6,201 486,206 477.4,201 477.4,191" fill="none" stroke="#39FF14" stroke-width="1" opacity="0.027325641426518534"/>
<polygon points="101,190 109.6,195 109.6,205 101,210 92.4,205 92.4,195" fill="none" stroke="#39FF14" stroke-width="1" opacity="0.07554820461117417"/>
<polygon points="156,141 164.6,146 164.6,156 156,161 147.4,156 147.4,146" fill="none" stroke="#39FF14" stroke-width="1" opacity="0.05067558144139053"/>
<polygon points="309,112 317.6,117 317.6,127 309,132 300.4,127 300.4,117" fill="none" stroke="#39FF14" stroke-width="1" opacity="0.07266470860757035"/>
<polygon points="845,168 853.6,173 853.6,183 845,188 836.4,183 836.4,173" fill="none" stroke="#39FF14" stroke-width="1" opacity="0.04343518510949021"/>
<polygon points="16,98 24.6,103 24.6,113 16,118 7.4,113 7.4,103" fill="none" stroke="#39FF14" stroke-width="1" opacity="0.05884284233884916"/>
<polygon points="833,5 841.6,10 841.6,20 833,25 824.4,20 824.4,10" fill="none" stroke="#39FF14" stroke-width="1" opacity="0.02353906819811695"/>
<polygon points="401,107 409.6,112 409.6,122 401,127 392.4,122 392.4,112" fill="none" stroke="#39FF14" stroke-width="1" opacity="0.04655763568938952"/>
<polygon points="473,12 481.6,17 481.6,27 473,32 464.4,27 464.4,17" fill="none" stroke="#39FF14" stroke-width="1" opacity="0.049335578473671565"/>
<polygon points="807,43 815.6,48 815.6,58 807,63 798.4,58 798.4,48" fill="none" stroke="#39FF14" stroke-width="1" opacity="0.06936421323493636"/>
<polygon points="344,-1 352.6,4 352.6,14 344,19 335.4,14 335.4,4" fill="none" stroke="#39FF14" stroke-width="1" opacity="0.0496314285263533"/>
<polygon points="391,160 399.6,165 399.6,175 391,180 382.4,175 382.4,165" fill="none" stroke="#39FF14" stroke-width="1" opacity="0.07823027848252291"/>
<polygon points="9,173 17.6,178 17.6,188 9,193 0.40000000000000036,188 0.40000000000000036,178" fill="none" stroke="#39FF14" stroke-width="1" opacity="0.049720048549806495"/>
<polygon points="767,106 775.6,111 775.6,121 767,126 758.4,121 758.4,111" fill="none" stroke="#39FF14" stroke-width="1" opacity="0.05951869330434943"/>
<polygon points="350,160 358.6,165 358.6,175 350,180 341.4,175 341.4,165" fill="none" stroke="#39FF14" stroke-width="1" opacity="0.06230137006824214"/>
<polygon points="42,178 50.6,183 50.6,193 42,198 33.4,193 33.4,183" fill="none" stroke="#39FF14" stroke-width="1" opacity="0.06326734818289578"/>
<polygon points="794,25 802.6,30 802.6,40 794,45 785.4,40 785.4,30" fill="none" stroke="#39FF14" stroke-width="1" opacity="0.07247302711858886"/>
<polygon points="183,133 191.6,138 191.6,148 183,153 174.4,148 174.4,138" fill="none" stroke="#39FF14" stroke-width="1" opacity="0.021516484586464296"/>
<polygon points="119,-4 127.6,1 127.6,11 119,16 110.4,11 110.4,1" fill="none" stroke="#39FF14" stroke-width="1" opacity="0.021286375217359134"/>
<polygon points="371,77 379.6,82 379.6,92 371,97 362.4,92 362.4,82" fill="none" stroke="#39FF14" stroke-width="1" opacity="0.06246372057147963"/>
<polygon points="651,23 659.6,28 659.6,38 651,43 642.4,38 642.4,28" fill="none" stroke="#39FF14" stroke-width="1" opacity="0.0335995096017551"/>
<polygon points="308,50 316.6,55 316.6,65 308,70 299.4,65 299.4,55" fill="none" stroke="#39FF14" stroke-width="1" opacity="0.06834140740137558"/>
<polygon points="212,127 220.6,132 220.6,142 212,147 203.4,142 203.4,132" fill="none" stroke="#39FF14" stroke-width="1" opacity="0.048791827054767166"/>
<polygon points="680,-1 688.6,4 688.6,14 680,19 671.4,14 671.4,4" fill="none" stroke="#39FF14" stroke-width="1" opacity="0.051181841726068586"/>
<polygon points="690,72 698.6,77 698.6,87 690,92 681.4,87 681.4,77" fill="none" stroke="#39FF14" stroke-width="1" opacity="0.05436457425523092"/>
<polygon points="465,50 473.6,55 473.6,65 465,70 456.4,65 456.4,55" fill="none" stroke="#39FF14" stroke-width="1" opacity="0.07453048802176697"/>
<polygon points="724,46 732.6,51 732.6,61 724,66 715.4,61 715.4,51" fill="none" stroke="#39FF14" stroke-width="1" opacity="0.05489415337863382"/>
<polygon points="650,45 658.6,50 658.6,60 650,65 641.4,60 641.4,50" fill="none" stroke="#39FF14" stroke-width="1" opacity="0.022977016752628563"/>
<polygon points="458,145 466.6,150 466.6,160 458,165 449.4,160 449.4,150" fill="none" stroke="#39FF14" stroke-width="1" opacity="0.05322970423413555"/>
<polygon points="502,32 510.6,37 510.6,47 502,52 493.4,47 493.4,37" fill="none" stroke="#39FF14" stroke-width="1" opacity="0.025826770888735605"/>
</g>

  <!-- HUD Decorative elements -->
  <path d="M 20 20 L 40 20 L 50 30" fill="none" stroke="#39FF14" stroke-width="2" opacity="0.5"/>
  <path d="M 830 180 L 810 180 L 800 170" fill="none" stroke="#39FF14" stroke-width="2" opacity="0.5"/>
  <rect x="20" y="100" width="2" height="40" fill="#ffffff" opacity="0.4"/>
  <rect x="828" y="60" width="2" height="40" fill="#39FF14" opacity="0.6"/>

  <g font-family="'Consolas', 'Fira Code', monospace" text-anchor="middle">

    <!-- SYSTEM STATUS -->
    <g transform="translate(130, 100)">
        <circle cx="0" cy="0" r="45" fill="none" stroke="#111111" stroke-width="8" />
        <circle cx="0" cy="0" r="45" fill="none" stroke="#39FF14" stroke-width="2" stroke-dasharray="10 5">
            <animateTransform attributeName="transform" type="rotate" from="0" to="360" dur="10s" repeatCount="indefinite"/>
        </circle>
        <circle cx="0" cy="0" r="35" fill="#0d0d0d" />
        <circle cx="0" cy="0" r="6" fill="#39FF14" filter="url(#textGlow)">
            <animate attributeName="opacity" values="1;0.3;1" dur="2s" repeatCount="indefinite"/>
        </circle>
        <text x="0" y="-60" font-size="12" fill="#aaaaaa" letter-spacing="2">SYS.CORE</text>
        <text x="0" y="70" font-size="14" fill="#ffffff" font-weight="bold">ONLINE</text>
    </g>

    <!-- LIVE TRAFFIC -->
    <g transform="translate(330, 100)">
        <rect x="-60" y="-45" width="120" height="90" fill="#0a0a0a" rx="8" stroke="#39FF14" stroke-opacity="0.4" stroke-width="1"/>
        <text x="0" y="-20" font-size="12" fill="#aaaaaa">NETWORK LOAD</text>
        <text x="0" y="15" font-size="28" fill="#ffffff" font-weight="bold" filter="url(#textGlow)">3966</text>
        <text x="0" y="35" font-size="10" fill="#777777">ACTIVE SESSIONS</text>
    </g>

    <!-- ACTIVE AGENTS -->
    <g transform="translate(530, 100)">
        <rect x="-60" y="-45" width="120" height="90" fill="#0a0a0a" rx="8" stroke="#39FF14" stroke-opacity="0.4" stroke-width="1"/>
        <text x="0" y="-20" font-size="12" fill="#aaaaaa">SWARM ENTITIES</text>
        <text x="0" y="15" font-size="28" fill="#ffffff" font-weight="bold" filter="url(#textGlow)">140</text>
        <text x="0" y="35" font-size="10" fill="#777777">AUTONOMOUS</text>
    </g>

    <!-- UPTIME -->
    <g transform="translate(730, 100)">
        <path d="M -40 -35 L 40 -35 L 50 -25 L 50 35 L -40 35 L -50 25 Z" fill="#0a0a0a" stroke="#39FF14" stroke-opacity="0.4" stroke-width="1"/>
        <text x="0" y="-15" font-size="12" fill="#aaaaaa">CONTINUITY</text>
        <text x="0" y="15" font-size="24" fill="#ffffff" font-weight="bold">333<tspan font-size="14" fill="#777777">d</tspan></text>
        <rect x="-35" y="25" width="70" height="4" fill="url(#neonBar)" rx="2"/>
    </g>
  </g>

  <text x="425" y="185" font-family="'Consolas', 'Fira Code', monospace" font-size="10" fill="#aaaaaa" opacity="0.6" text-anchor="middle">LAST TELEMETRY PING: 2026-05-07 12:45:50 UTC // ENCRYPTED_TUNNEL</text>
</svg>