<svg width="850" height="200" viewBox="0 0 850 200" xmlns="http://www.w3.org/2000/svg">
  <defs>
    <!-- Carbon Fiber Pattern -->
    <pattern id="carbonFiber" width="10" height="10" patternUnits="userSpaceOnUse">
        <rect width="10" height="10" fill="#050505"/>
        <path d="M0,0 L5,5 L10,0 L5,-5 Z M5,5 L10,10 L15,5 L10,0 Z M-5,5 L0,10 L5,5 L0,0 Z M0,10 L5,15 L10,10 L5,5 Z" fill="#0d0d0d"/>
    </pattern>
    <filter id="glassmorphism">
      <feGaussianBlur stdDeviation="3" result="blur" />
      <feColorMatrix type="matrix" values="1 0 0 0 0  0 1 0 0 0  0 0 1 0 0  0 0 0 18 -7" result="glow" />
      <feBlend in="SourceGraphic" in2="glow" mode="normal" />
    </filter>
    <filter id="textGlow">
      <feGaussianBlur stdDeviation="2" result="blur" />
      <feMerge>
        <feMergeNode in="blur"/>
        <feMergeNode in="SourceGraphic"/>
      </feMerge>
    </filter>
    <linearGradient id="neonBar" x1="0%" y1="0%" x2="100%" y2="0%">
        <stop offset="0%" stop-color="#111111"/>
        <stop offset="100%" stop-color="#39FF14"/>
    </linearGradient>
  </defs>

  <rect width="100%" height="100%" fill="url(#carbonFiber)" rx="12" stroke="#39FF14" stroke-width="1" stroke-opacity="0.3"/>
  <rect width="100%" height="100%" fill="#000000" opacity="0.6" rx="12" />
  <g><polygon points="636,94 644.6,99 644.6,109 636,114 627.4,109 627.4,99" fill="none" stroke="#39FF14" stroke-width="1" opacity="0.06252950561257045"/>
<polygon points="620,29 628.6,34 628.6,44 620,49 611.4,44 611.4,34" fill="none" stroke="#39FF14" stroke-width="1" opacity="0.06296940380867273"/>
<polygon points="677,26 685.6,31 685.6,41 677,46 668.4,41 668.4,31" fill="none" stroke="#39FF14" stroke-width="1" opacity="0.04497847348723476"/>
<polygon points="103,90 111.6,95 111.6,105 103,110 94.4,105 94.4,95" fill="none" stroke="#39FF14" stroke-width="1" opacity="0.032104568461000085"/>
<polygon points="274,25 282.6,30 282.6,40 274,45 265.4,40 265.4,30" fill="none" stroke="#39FF14" stroke-width="1" opacity="0.06442945458715683"/>
<polygon points="817,159 825.6,164 825.6,174 817,179 808.4,174 808.4,164" fill="none" stroke="#39FF14" stroke-width="1" opacity="0.02935903826325412"/>
<polygon points="331,99 339.6,104 339.6,114 331,119 322.4,114 322.4,104" fill="none" stroke="#39FF14" stroke-width="1" opacity="0.05980144402573491"/>
<polygon points="482,3 490.6,8 490.6,18 482,23 473.4,18 473.4,8" fill="none" stroke="#39FF14" stroke-width="1" opacity="0.024073823090473078"/>
<polygon points="680,131 688.6,136 688.6,146 680,151 671.4,146 671.4,136" fill="none" stroke="#39FF14" stroke-width="1" opacity="0.050814842436405924"/>
<polygon points="106,90 114.6,95 114.6,105 106,110 97.4,105 97.4,95" fill="none" stroke="#39FF14" stroke-width="1" opacity="0.03249746391460646"/>
<polygon points="507,152 515.6,157 515.6,167 507,172 498.4,167 498.4,157" fill="none" stroke="#39FF14" stroke-width="1" opacity="0.0447139191924143"/>
<polygon points="385,118 393.6,123 393.6,133 385,138 376.4,133 376.4,123" fill="none" stroke="#39FF14" stroke-width="1" opacity="0.07335399983675477"/>
<polygon points="591,4 599.6,9 599.6,19 591,24 582.4,19 582.4,9" fill="none" stroke="#39FF14" stroke-width="1" opacity="0.029351926269914175"/>
<polygon points="122,1 130.6,6 130.6,16 122,21 113.4,16 113.4,6" fill="none" stroke="#39FF14" stroke-width="1" opacity="0.07029902353403691"/>
<polygon points="235,103 243.6,108 243.6,118 235,123 226.4,118 226.4,108" fill="none" stroke="#39FF14" stroke-width="1" opacity="0.05264661371033319"/>
<polygon points="106,58 114.6,63 114.6,73 106,78 97.4,73 97.4,63" fill="none" stroke="#39FF14" stroke-width="1" opacity="0.036116823711784596"/>
<polygon points="457,13 465.6,18 465.6,28 457,33 448.4,28 448.4,18" fill="none" stroke="#39FF14" stroke-width="1" opacity="0.06426324162300294"/>
<polygon points="714,177 722.6,182 722.6,192 714,197 705.4,192 705.4,182" fill="none" stroke="#39FF14" stroke-width="1" opacity="0.022091374962202544"/>
<polygon points="162,-9 170.6,-4 170.6,6 162,11 153.4,6 153.4,-4" fill="none" stroke="#39FF14" stroke-width="1" opacity="0.037964515241617786"/>
<polygon points="345,-3 353.6,2 353.6,12 345,17 336.4,12 336.4,2" fill="none" stroke="#39FF14" stroke-width="1" opacity="0.0719866047098642"/>
<polygon points="0,185 8.6,190 8.6,200 0,205 -8.6,200 -8.6,190" fill="none" stroke="#39FF14" stroke-width="1" opacity="0.057877396429737646"/>
<polygon points="570,110 578.6,115 578.6,125 570,130 561.4,125 561.4,115" fill="none" stroke="#39FF14" stroke-width="1" opacity="0.050475234156822466"/>
<polygon points="27,115 35.6,120 35.6,130 27,135 18.4,130 18.4,120" fill="none" stroke="#39FF14" stroke-width="1" opacity="0.045538549297801836"/>
<polygon points="383,116 391.6,121 391.6,131 383,136 374.4,131 374.4,121" fill="none" stroke="#39FF14" stroke-width="1" opacity="0.037370885188763345"/>
<polygon points="575,83 583.6,88 583.6,98 575,103 566.4,98 566.4,88" fill="none" stroke="#39FF14" stroke-width="1" opacity="0.04274739011440526"/>
<polygon points="379,0 387.6,5 387.6,15 379,20 370.4,15 370.4,5" fill="none" stroke="#39FF14" stroke-width="1" opacity="0.02423825241710424"/>
<polygon points="767,81 775.6,86 775.6,96 767,101 758.4,96 758.4,86" fill="none" stroke="#39FF14" stroke-width="1" opacity="0.050861129174898864"/>
<polygon points="724,116 732.6,121 732.6,131 724,136 715.4,131 715.4,121" fill="none" stroke="#39FF14" stroke-width="1" opacity="0.07176940645611363"/>
<polygon points="363,128 371.6,133 371.6,143 363,148 354.4,143 354.4,133" fill="none" stroke="#39FF14" stroke-width="1" opacity="0.03124848974758869"/>
<polygon points="288,119 296.6,124 296.6,134 288,139 279.4,134 279.4,124" fill="none" stroke="#39FF14" stroke-width="1" opacity="0.05252633318023331"/>
</g>

  <!-- HUD Decorative elements -->
  <path d="M 20 20 L 40 20 L 50 30" fill="none" stroke="#39FF14" stroke-width="2" opacity="0.5"/>
  <path d="M 830 180 L 810 180 L 800 170" fill="none" stroke="#39FF14" stroke-width="2" opacity="0.5"/>
  <rect x="20" y="100" width="2" height="40" fill="#ffffff" opacity="0.4"/>
  <rect x="828" y="60" width="2" height="40" fill="#39FF14" opacity="0.6"/>

  <g font-family="'Consolas', 'Fira Code', monospace" text-anchor="middle">

    <!-- SYSTEM STATUS -->
    <g transform="translate(130, 100)">
        <circle cx="0" cy="0" r="45" fill="none" stroke="#111111" stroke-width="8" />
        <circle cx="0" cy="0" r="45" fill="none" stroke="#39FF14" stroke-width="2" stroke-dasharray="10 5">
            <animateTransform attributeName="transform" type="rotate" from="0" to="360" dur="10s" repeatCount="indefinite"/>
        </circle>
        <circle cx="0" cy="0" r="35" fill="#0d0d0d" />
        <circle cx="0" cy="0" r="6" fill="#39FF14" filter="url(#textGlow)">
            <animate attributeName="opacity" values="1;0.3;1" dur="2s" repeatCount="indefinite"/>
        </circle>
        <text x="0" y="-60" font-size="12" fill="#aaaaaa" letter-spacing="2">SYS.CORE</text>
        <text x="0" y="70" font-size="14" fill="#ffffff" font-weight="bold">ONLINE</text>
    </g>

    <!-- LIVE TRAFFIC -->
    <g transform="translate(330, 100)">
        <rect x="-60" y="-45" width="120" height="90" fill="#0a0a0a" rx="8" stroke="#39FF14" stroke-opacity="0.4" stroke-width="1"/>
        <text x="0" y="-20" font-size="12" fill="#aaaaaa">NETWORK LOAD</text>
        <text x="0" y="15" font-size="28" fill="#ffffff" font-weight="bold" filter="url(#textGlow)">7886</text>
        <text x="0" y="35" font-size="10" fill="#777777">ACTIVE SESSIONS</text>
    </g>

    <!-- ACTIVE AGENTS -->
    <g transform="translate(530, 100)">
        <rect x="-60" y="-45" width="120" height="90" fill="#0a0a0a" rx="8" stroke="#39FF14" stroke-opacity="0.4" stroke-width="1"/>
        <text x="0" y="-20" font-size="12" fill="#aaaaaa">SWARM ENTITIES</text>
        <text x="0" y="15" font-size="28" fill="#ffffff" font-weight="bold" filter="url(#textGlow)">138</text>
        <text x="0" y="35" font-size="10" fill="#777777">AUTONOMOUS</text>
    </g>

    <!-- UPTIME -->
    <g transform="translate(730, 100)">
        <path d="M -40 -35 L 40 -35 L 50 -25 L 50 35 L -40 35 L -50 25 Z" fill="#0a0a0a" stroke="#39FF14" stroke-opacity="0.4" stroke-width="1"/>
        <text x="0" y="-15" font-size="12" fill="#aaaaaa">CONTINUITY</text>
        <text x="0" y="15" font-size="24" fill="#ffffff" font-weight="bold">363<tspan font-size="14" fill="#777777">d</tspan></text>
        <rect x="-35" y="25" width="70" height="4" fill="url(#neonBar)" rx="2"/>
    </g>
  </g>

  <text x="425" y="185" font-family="'Consolas', 'Fira Code', monospace" font-size="10" fill="#aaaaaa" opacity="0.6" text-anchor="middle">LAST TELEMETRY PING: 2026-05-08 18:36:47 UTC // ENCRYPTED_TUNNEL</text>
</svg>