<svg width="850" height="200" viewBox="0 0 850 200" xmlns="http://www.w3.org/2000/svg">
  <defs>
    <!-- Carbon Fiber Pattern -->
    <pattern id="carbonFiber" width="10" height="10" patternUnits="userSpaceOnUse">
        <rect width="10" height="10" fill="#050505"/>
        <path d="M0,0 L5,5 L10,0 L5,-5 Z M5,5 L10,10 L15,5 L10,0 Z M-5,5 L0,10 L5,5 L0,0 Z M0,10 L5,15 L10,10 L5,5 Z" fill="#0d0d0d"/>
    </pattern>
    <filter id="glassmorphism">
      <feGaussianBlur stdDeviation="3" result="blur" />
      <feColorMatrix type="matrix" values="1 0 0 0 0  0 1 0 0 0  0 0 1 0 0  0 0 0 18 -7" result="glow" />
      <feBlend in="SourceGraphic" in2="glow" mode="normal" />
    </filter>
    <filter id="textGlow">
      <feGaussianBlur stdDeviation="2" result="blur" />
      <feMerge>
        <feMergeNode in="blur"/>
        <feMergeNode in="SourceGraphic"/>
      </feMerge>
    </filter>
    <linearGradient id="neonBar" x1="0%" y1="0%" x2="100%" y2="0%">
        <stop offset="0%" stop-color="#111111"/>
        <stop offset="100%" stop-color="#39FF14"/>
    </linearGradient>
  </defs>

  <rect width="100%" height="100%" fill="url(#carbonFiber)" rx="12" stroke="#39FF14" stroke-width="1" stroke-opacity="0.3"/>
  <rect width="100%" height="100%" fill="#000000" opacity="0.6" rx="12" />
  <g><polygon points="441,51 449.6,56 449.6,66 441,71 432.4,66 432.4,56" fill="none" stroke="#39FF14" stroke-width="1" opacity="0.02596394762011847"/>
<polygon points="745,-6 753.6,-1 753.6,9 745,14 736.4,9 736.4,-1" fill="none" stroke="#39FF14" stroke-width="1" opacity="0.029725026061878903"/>
<polygon points="588,140 596.6,145 596.6,155 588,160 579.4,155 579.4,145" fill="none" stroke="#39FF14" stroke-width="1" opacity="0.021715322620623055"/>
<polygon points="833,129 841.6,134 841.6,144 833,149 824.4,144 824.4,134" fill="none" stroke="#39FF14" stroke-width="1" opacity="0.035698626174928874"/>
<polygon points="583,185 591.6,190 591.6,200 583,205 574.4,200 574.4,190" fill="none" stroke="#39FF14" stroke-width="1" opacity="0.06196988070178533"/>
<polygon points="374,178 382.6,183 382.6,193 374,198 365.4,193 365.4,183" fill="none" stroke="#39FF14" stroke-width="1" opacity="0.03940058211368216"/>
<polygon points="319,90 327.6,95 327.6,105 319,110 310.4,105 310.4,95" fill="none" stroke="#39FF14" stroke-width="1" opacity="0.039998502170618025"/>
<polygon points="671,79 679.6,84 679.6,94 671,99 662.4,94 662.4,84" fill="none" stroke="#39FF14" stroke-width="1" opacity="0.06936769625096344"/>
<polygon points="603,-5 611.6,0 611.6,10 603,15 594.4,10 594.4,0" fill="none" stroke="#39FF14" stroke-width="1" opacity="0.024355662717547414"/>
<polygon points="109,146 117.6,151 117.6,161 109,166 100.4,161 100.4,151" fill="none" stroke="#39FF14" stroke-width="1" opacity="0.05304001952997929"/>
<polygon points="274,124 282.6,129 282.6,139 274,144 265.4,139 265.4,129" fill="none" stroke="#39FF14" stroke-width="1" opacity="0.07992114332651892"/>
<polygon points="274,53 282.6,58 282.6,68 274,73 265.4,68 265.4,58" fill="none" stroke="#39FF14" stroke-width="1" opacity="0.037555106792676"/>
<polygon points="616,88 624.6,93 624.6,103 616,108 607.4,103 607.4,93" fill="none" stroke="#39FF14" stroke-width="1" opacity="0.052251605785443314"/>
<polygon points="294,147 302.6,152 302.6,162 294,167 285.4,162 285.4,152" fill="none" stroke="#39FF14" stroke-width="1" opacity="0.0427904204167603"/>
<polygon points="705,14 713.6,19 713.6,29 705,34 696.4,29 696.4,19" fill="none" stroke="#39FF14" stroke-width="1" opacity="0.07113453238413023"/>
<polygon points="281,103 289.6,108 289.6,118 281,123 272.4,118 272.4,108" fill="none" stroke="#39FF14" stroke-width="1" opacity="0.05934163993288315"/>
<polygon points="818,8 826.6,13 826.6,23 818,28 809.4,23 809.4,13" fill="none" stroke="#39FF14" stroke-width="1" opacity="0.0389838661613904"/>
<polygon points="725,67 733.6,72 733.6,82 725,87 716.4,82 716.4,72" fill="none" stroke="#39FF14" stroke-width="1" opacity="0.027553729002112764"/>
<polygon points="614,183 622.6,188 622.6,198 614,203 605.4,198 605.4,188" fill="none" stroke="#39FF14" stroke-width="1" opacity="0.07138163607112062"/>
<polygon points="820,64 828.6,69 828.6,79 820,84 811.4,79 811.4,69" fill="none" stroke="#39FF14" stroke-width="1" opacity="0.04302311009036769"/>
<polygon points="20,35 28.6,40 28.6,50 20,55 11.4,50 11.4,40" fill="none" stroke="#39FF14" stroke-width="1" opacity="0.07006894013783974"/>
<polygon points="444,140 452.6,145 452.6,155 444,160 435.4,155 435.4,145" fill="none" stroke="#39FF14" stroke-width="1" opacity="0.028864544293917452"/>
<polygon points="732,113 740.6,118 740.6,128 732,133 723.4,128 723.4,118" fill="none" stroke="#39FF14" stroke-width="1" opacity="0.06722879656812165"/>
<polygon points="46,-3 54.6,2 54.6,12 46,17 37.4,12 37.4,2" fill="none" stroke="#39FF14" stroke-width="1" opacity="0.06578685122924645"/>
<polygon points="385,54 393.6,59 393.6,69 385,74 376.4,69 376.4,59" fill="none" stroke="#39FF14" stroke-width="1" opacity="0.07981930557780816"/>
<polygon points="298,-4 306.6,1 306.6,11 298,16 289.4,11 289.4,1" fill="none" stroke="#39FF14" stroke-width="1" opacity="0.0797670172536459"/>
<polygon points="80,68 88.6,73 88.6,83 80,88 71.4,83 71.4,73" fill="none" stroke="#39FF14" stroke-width="1" opacity="0.07855881358457059"/>
<polygon points="316,51 324.6,56 324.6,66 316,71 307.4,66 307.4,56" fill="none" stroke="#39FF14" stroke-width="1" opacity="0.07602137350287734"/>
<polygon points="630,155 638.6,160 638.6,170 630,175 621.4,170 621.4,160" fill="none" stroke="#39FF14" stroke-width="1" opacity="0.045513196074506906"/>
<polygon points="564,79 572.6,84 572.6,94 564,99 555.4,94 555.4,84" fill="none" stroke="#39FF14" stroke-width="1" opacity="0.03756471392129422"/>
</g>

  <!-- HUD Decorative elements -->
  <path d="M 20 20 L 40 20 L 50 30" fill="none" stroke="#39FF14" stroke-width="2" opacity="0.5"/>
  <path d="M 830 180 L 810 180 L 800 170" fill="none" stroke="#39FF14" stroke-width="2" opacity="0.5"/>
  <rect x="20" y="100" width="2" height="40" fill="#ffffff" opacity="0.4"/>
  <rect x="828" y="60" width="2" height="40" fill="#39FF14" opacity="0.6"/>

  <g font-family="'Consolas', 'Fira Code', monospace" text-anchor="middle">

    <!-- SYSTEM STATUS -->
    <g transform="translate(130, 100)">
        <circle cx="0" cy="0" r="45" fill="none" stroke="#111111" stroke-width="8" />
        <circle cx="0" cy="0" r="45" fill="none" stroke="#39FF14" stroke-width="2" stroke-dasharray="10 5">
            <animateTransform attributeName="transform" type="rotate" from="0" to="360" dur="10s" repeatCount="indefinite"/>
        </circle>
        <circle cx="0" cy="0" r="35" fill="#0d0d0d" />
        <circle cx="0" cy="0" r="6" fill="#39FF14" filter="url(#textGlow)">
            <animate attributeName="opacity" values="1;0.3;1" dur="2s" repeatCount="indefinite"/>
        </circle>
        <text x="0" y="-60" font-size="12" fill="#aaaaaa" letter-spacing="2">SYS.CORE</text>
        <text x="0" y="70" font-size="14" fill="#ffffff" font-weight="bold">ONLINE</text>
    </g>

    <!-- LIVE TRAFFIC -->
    <g transform="translate(330, 100)">
        <rect x="-60" y="-45" width="120" height="90" fill="#0a0a0a" rx="8" stroke="#39FF14" stroke-opacity="0.4" stroke-width="1"/>
        <text x="0" y="-20" font-size="12" fill="#aaaaaa">NETWORK LOAD</text>
        <text x="0" y="15" font-size="28" fill="#ffffff" font-weight="bold" filter="url(#textGlow)">7215</text>
        <text x="0" y="35" font-size="10" fill="#777777">ACTIVE SESSIONS</text>
    </g>

    <!-- ACTIVE AGENTS -->
    <g transform="translate(530, 100)">
        <rect x="-60" y="-45" width="120" height="90" fill="#0a0a0a" rx="8" stroke="#39FF14" stroke-opacity="0.4" stroke-width="1"/>
        <text x="0" y="-20" font-size="12" fill="#aaaaaa">SWARM ENTITIES</text>
        <text x="0" y="15" font-size="28" fill="#ffffff" font-weight="bold" filter="url(#textGlow)">80</text>
        <text x="0" y="35" font-size="10" fill="#777777">AUTONOMOUS</text>
    </g>

    <!-- UPTIME -->
    <g transform="translate(730, 100)">
        <path d="M -40 -35 L 40 -35 L 50 -25 L 50 35 L -40 35 L -50 25 Z" fill="#0a0a0a" stroke="#39FF14" stroke-opacity="0.4" stroke-width="1"/>
        <text x="0" y="-15" font-size="12" fill="#aaaaaa">CONTINUITY</text>
        <text x="0" y="15" font-size="24" fill="#ffffff" font-weight="bold">369<tspan font-size="14" fill="#777777">d</tspan></text>
        <rect x="-35" y="25" width="70" height="4" fill="url(#neonBar)" rx="2"/>
    </g>
  </g>

  <text x="425" y="185" font-family="'Consolas', 'Fira Code', monospace" font-size="10" fill="#aaaaaa" opacity="0.6" text-anchor="middle">LAST TELEMETRY PING: 2026-05-10 12:25:40 UTC // ENCRYPTED_TUNNEL</text>
</svg>