<svg width="850" height="200" viewBox="0 0 850 200" xmlns="http://www.w3.org/2000/svg">
  <defs>
    <pattern id="carbonFiber" width="10" height="10" patternUnits="userSpaceOnUse">
        <rect width="10" height="10" fill="#050505"/>
        <path d="M0,0 L5,5 L10,0 L5,-5 Z M5,5 L10,10 L15,5 L10,0 Z M-5,5 L0,10 L5,5 L0,0 Z M0,10 L5,15 L10,10 L5,5 Z" fill="#0d0d0d"/>
    </pattern>
    <filter id="textGlow">
      <feGaussianBlur stdDeviation="2" result="blur" />
      <feMerge>
        <feMergeNode in="blur"/>
        <feMergeNode in="SourceGraphic"/>
      </feMerge>
    </filter>
    <linearGradient id="neonBar" x1="0%" y1="0%" x2="100%" y2="0%">
        <stop offset="0%" stop-color="#111111"/>
        <stop offset="100%" stop-color="#39FF14"/>
    </linearGradient>
    <linearGradient id="scanlineGrad" x1="0%" y1="0%" x2="100%" y2="0%">
        <stop offset="0%" stop-color="#39FF14" stop-opacity="0"/>
        <stop offset="50%" stop-color="#39FF14" stop-opacity="0.18"/>
        <stop offset="100%" stop-color="#39FF14" stop-opacity="0"/>
    </linearGradient>
    <clipPath id="dashClip">
        <rect x="0" y="0" width="850" height="200" rx="12"/>
    </clipPath>
  </defs>

  <rect width="100%" height="100%" fill="url(#carbonFiber)" rx="12" stroke="#39FF14" stroke-width="1" stroke-opacity="0.3"/>
  <rect width="100%" height="100%" fill="#000000" opacity="0.6" rx="12" />
  <g><polygon points="327,142 335.6,147 335.6,157 327,162 318.4,157 318.4,147" fill="none" stroke="#39FF14" stroke-width="1" opacity="0.07469773210254725"/>
<polygon points="233,178 241.6,183 241.6,193 233,198 224.4,193 224.4,183" fill="none" stroke="#39FF14" stroke-width="1" opacity="0.06283011000661332"/>
<polygon points="402,92 410.6,97 410.6,107 402,112 393.4,107 393.4,97" fill="none" stroke="#39FF14" stroke-width="1" opacity="0.07495918117168336"/>
<polygon points="549,163 557.6,168 557.6,178 549,183 540.4,178 540.4,168" fill="none" stroke="#39FF14" stroke-width="1" opacity="0.05195418146650879"/>
<polygon points="281,22 289.6,27 289.6,37 281,42 272.4,37 272.4,27" fill="none" stroke="#39FF14" stroke-width="1" opacity="0.03977231655972249"/>
<polygon points="198,44 206.6,49 206.6,59 198,64 189.4,59 189.4,49" fill="none" stroke="#39FF14" stroke-width="1" opacity="0.04517463938763364"/>
<polygon points="48,61 56.6,66 56.6,76 48,81 39.4,76 39.4,66" fill="none" stroke="#39FF14" stroke-width="1" opacity="0.03772475611103117"/>
<polygon points="151,162 159.6,167 159.6,177 151,182 142.4,177 142.4,167" fill="none" stroke="#39FF14" stroke-width="1" opacity="0.05885521645181194"/>
<polygon points="825,163 833.6,168 833.6,178 825,183 816.4,178 816.4,168" fill="none" stroke="#39FF14" stroke-width="1" opacity="0.06922532463322553"/>
<polygon points="488,28 496.6,33 496.6,43 488,48 479.4,43 479.4,33" fill="none" stroke="#39FF14" stroke-width="1" opacity="0.0692196711632618"/>
<polygon points="707,94 715.6,99 715.6,109 707,114 698.4,109 698.4,99" fill="none" stroke="#39FF14" stroke-width="1" opacity="0.035633282712001585"/>
<polygon points="783,35 791.6,40 791.6,50 783,55 774.4,50 774.4,40" fill="none" stroke="#39FF14" stroke-width="1" opacity="0.07917669459393324"/>
<polygon points="837,18 845.6,23 845.6,33 837,38 828.4,33 828.4,23" fill="none" stroke="#39FF14" stroke-width="1" opacity="0.02152733028278629"/>
<polygon points="743,144 751.6,149 751.6,159 743,164 734.4,159 734.4,149" fill="none" stroke="#39FF14" stroke-width="1" opacity="0.030223397315076214"/>
<polygon points="474,58 482.6,63 482.6,73 474,78 465.4,73 465.4,63" fill="none" stroke="#39FF14" stroke-width="1" opacity="0.029978969156051884"/>
<polygon points="450,184 458.6,189 458.6,199 450,204 441.4,199 441.4,189" fill="none" stroke="#39FF14" stroke-width="1" opacity="0.0297134803009522"/>
<polygon points="164,101 172.6,106 172.6,116 164,121 155.4,116 155.4,106" fill="none" stroke="#39FF14" stroke-width="1" opacity="0.07385783136831924"/>
<polygon points="526,142 534.6,147 534.6,157 526,162 517.4,157 517.4,147" fill="none" stroke="#39FF14" stroke-width="1" opacity="0.06795631393505872"/>
<polygon points="698,182 706.6,187 706.6,197 698,202 689.4,197 689.4,187" fill="none" stroke="#39FF14" stroke-width="1" opacity="0.02795705610537038"/>
<polygon points="304,142 312.6,147 312.6,157 304,162 295.4,157 295.4,147" fill="none" stroke="#39FF14" stroke-width="1" opacity="0.07871568850857476"/>
<polygon points="418,113 426.6,118 426.6,128 418,133 409.4,128 409.4,118" fill="none" stroke="#39FF14" stroke-width="1" opacity="0.044360351871919175"/>
<polygon points="737,89 745.6,94 745.6,104 737,109 728.4,104 728.4,94" fill="none" stroke="#39FF14" stroke-width="1" opacity="0.05979049446727078"/>
<polygon points="256,-9 264.6,-4 264.6,6 256,11 247.4,6 247.4,-4" fill="none" stroke="#39FF14" stroke-width="1" opacity="0.07655243206670022"/>
<polygon points="364,24 372.6,29 372.6,39 364,44 355.4,39 355.4,29" fill="none" stroke="#39FF14" stroke-width="1" opacity="0.04862775288531978"/>
<polygon points="450,37 458.6,42 458.6,52 450,57 441.4,52 441.4,42" fill="none" stroke="#39FF14" stroke-width="1" opacity="0.051392472730791255"/>
<polygon points="362,-2 370.6,3 370.6,13 362,18 353.4,13 353.4,3" fill="none" stroke="#39FF14" stroke-width="1" opacity="0.07255608401985354"/>
<polygon points="707,123 715.6,128 715.6,138 707,143 698.4,138 698.4,128" fill="none" stroke="#39FF14" stroke-width="1" opacity="0.03995531901170664"/>
<polygon points="718,44 726.6,49 726.6,59 718,64 709.4,59 709.4,49" fill="none" stroke="#39FF14" stroke-width="1" opacity="0.048868967162974744"/>
<polygon points="548,70 556.6,75 556.6,85 548,90 539.4,85 539.4,75" fill="none" stroke="#39FF14" stroke-width="1" opacity="0.03850865364976175"/>
<polygon points="520,180 528.6,185 528.6,195 520,200 511.4,195 511.4,185" fill="none" stroke="#39FF14" stroke-width="1" opacity="0.05676445218296958"/>
</g>

  <!-- HUD Decorative elements -->
  <path d="M 20 20 L 40 20 L 50 30" fill="none" stroke="#39FF14" stroke-width="2" opacity="0.5"/>
  <path d="M 830 180 L 810 180 L 800 170" fill="none" stroke="#39FF14" stroke-width="2" opacity="0.5"/>

  <g clip-path="url(#dashClip)">
    <rect x="-160" y="0" width="160" height="200" fill="url(#scanlineGrad)">
      <animateTransform attributeName="transform" type="translate"
                        from="0 0" to="1010 0" dur="6s" repeatCount="indefinite"/>
    </rect>
  </g>

  <g font-family="'Consolas', 'Fira Code', monospace" text-anchor="middle">

    <!-- NETWORK STATUS -->
    <g transform="translate(130, 100)">
        <circle cx="0" cy="0" r="45" fill="none" stroke="#39FF14" stroke-width="2" stroke-dasharray="10 5">
            <animateTransform attributeName="transform" type="rotate" from="0" to="360" dur="10s" repeatCount="indefinite"/>
        </circle>
        <circle cx="0" cy="0" r="35" fill="#0d0d0d" />
        <text x="0" y="-60" font-size="12" fill="#aaaaaa" letter-spacing="2">ROOT.AUTH</text>
        <text x="0" y="70" font-size="14" fill="#ffffff" font-weight="bold">OPERATIONAL</text>
    </g>

    <!-- ACTIVE USERS -->
    <g transform="translate(330, 100)">
        <text x="0" y="-20" font-size="12" fill="#aaaaaa">CITIZENS</text>
        <text x="0" y="15" font-size="28" fill="#ffffff" font-weight="bold" filter="url(#textGlow)">12,981</text>
        <text x="0" y="35" font-size="10" fill="#777777">VERIFIED HUMANS</text>
    </g>

    <!-- REGISTERED AGENTS -->
    <g transform="translate(530, 100)">
        <text x="0" y="-20" font-size="12" fill="#aaaaaa">AGENTS</text>
        <text x="0" y="15" font-size="28" fill="#00d4ff" font-weight="bold" filter="url(#textGlow)">3,974</text>
        <text x="0" y="35" font-size="10" fill="#777777">REGISTERED DIDs</text>
    </g>

    <!-- TRANSACTIONS -->
    <g transform="translate(730, 100)">
        <text x="0" y="-20" font-size="12" fill="#aaaaaa">TRANSFERS</text>
        <text x="0" y="15" font-size="28" fill="#ffffff" font-weight="bold">35,485</text>
        <text x="0" y="35" font-size="10" fill="#777777">M2M SETTLEMENTS</text>
    </g>
  </g>

  <text x="425" y="185" font-family="'Consolas', 'Fira Code', monospace" font-size="10" fill="#aaaaaa" opacity="0.6" text-anchor="middle">AXIOMID PROJECTED TARGETS (ILLUSTRATIVE): 2026-07-04 06:10:22 UTC // SECURE_HANDSHAKE</text>
</svg>