<svg width="850" height="200" viewBox="0 0 850 200" xmlns="http://www.w3.org/2000/svg">
  <defs>
    <pattern id="carbonFiber" width="10" height="10" patternUnits="userSpaceOnUse">
        <rect width="10" height="10" fill="#050505"/>
        <path d="M0,0 L5,5 L10,0 L5,-5 Z M5,5 L10,10 L15,5 L10,0 Z M-5,5 L0,10 L5,5 L0,0 Z M0,10 L5,15 L10,10 L5,5 Z" fill="#0d0d0d"/>
    </pattern>
    <filter id="textGlow">
      <feGaussianBlur stdDeviation="2" result="blur" />
      <feMerge>
        <feMergeNode in="blur"/>
        <feMergeNode in="SourceGraphic"/>
      </feMerge>
    </filter>
    <linearGradient id="neonBar" x1="0%" y1="0%" x2="100%" y2="0%">
        <stop offset="0%" stop-color="#111111"/>
        <stop offset="100%" stop-color="#39FF14"/>
    </linearGradient>
    <linearGradient id="scanlineGrad" x1="0%" y1="0%" x2="100%" y2="0%">
        <stop offset="0%" stop-color="#39FF14" stop-opacity="0"/>
        <stop offset="50%" stop-color="#39FF14" stop-opacity="0.18"/>
        <stop offset="100%" stop-color="#39FF14" stop-opacity="0"/>
    </linearGradient>
    <clipPath id="dashClip">
        <rect x="0" y="0" width="850" height="200" rx="12"/>
    </clipPath>
  </defs>

  <rect width="100%" height="100%" fill="url(#carbonFiber)" rx="12" stroke="#39FF14" stroke-width="1" stroke-opacity="0.3"/>
  <rect width="100%" height="100%" fill="#000000" opacity="0.6" rx="12" />
  <g><polygon points="592,36 600.6,41 600.6,51 592,56 583.4,51 583.4,41" fill="none" stroke="#39FF14" stroke-width="1" opacity="0.03546633213233152"/>
<polygon points="110,132 118.6,137 118.6,147 110,152 101.4,147 101.4,137" fill="none" stroke="#39FF14" stroke-width="1" opacity="0.03227269262622986"/>
<polygon points="0,160 8.6,165 8.6,175 0,180 -8.6,175 -8.6,165" fill="none" stroke="#39FF14" stroke-width="1" opacity="0.07711743028427155"/>
<polygon points="758,147 766.6,152 766.6,162 758,167 749.4,162 749.4,152" fill="none" stroke="#39FF14" stroke-width="1" opacity="0.07524646008455582"/>
<polygon points="677,178 685.6,183 685.6,193 677,198 668.4,193 668.4,183" fill="none" stroke="#39FF14" stroke-width="1" opacity="0.046675770300111094"/>
<polygon points="100,124 108.6,129 108.6,139 100,144 91.4,139 91.4,129" fill="none" stroke="#39FF14" stroke-width="1" opacity="0.05734691782048748"/>
<polygon points="53,76 61.6,81 61.6,91 53,96 44.4,91 44.4,81" fill="none" stroke="#39FF14" stroke-width="1" opacity="0.05620183943222204"/>
<polygon points="814,88 822.6,93 822.6,103 814,108 805.4,103 805.4,93" fill="none" stroke="#39FF14" stroke-width="1" opacity="0.0502824156032991"/>
<polygon points="555,187 563.6,192 563.6,202 555,207 546.4,202 546.4,192" fill="none" stroke="#39FF14" stroke-width="1" opacity="0.03582217502391104"/>
<polygon points="142,105 150.6,110 150.6,120 142,125 133.4,120 133.4,110" fill="none" stroke="#39FF14" stroke-width="1" opacity="0.07509078665233858"/>
<polygon points="829,186 837.6,191 837.6,201 829,206 820.4,201 820.4,191" fill="none" stroke="#39FF14" stroke-width="1" opacity="0.028622394485878912"/>
<polygon points="28,36 36.6,41 36.6,51 28,56 19.4,51 19.4,41" fill="none" stroke="#39FF14" stroke-width="1" opacity="0.07089120764692244"/>
<polygon points="607,127 615.6,132 615.6,142 607,147 598.4,142 598.4,132" fill="none" stroke="#39FF14" stroke-width="1" opacity="0.05875806875162262"/>
<polygon points="354,188 362.6,193 362.6,203 354,208 345.4,203 345.4,193" fill="none" stroke="#39FF14" stroke-width="1" opacity="0.06324741163114085"/>
<polygon points="501,45 509.6,50 509.6,60 501,65 492.4,60 492.4,50" fill="none" stroke="#39FF14" stroke-width="1" opacity="0.05649796339525823"/>
<polygon points="669,18 677.6,23 677.6,33 669,38 660.4,33 660.4,23" fill="none" stroke="#39FF14" stroke-width="1" opacity="0.02972019178893808"/>
<polygon points="844,65 852.6,70 852.6,80 844,85 835.4,80 835.4,70" fill="none" stroke="#39FF14" stroke-width="1" opacity="0.07106403297734215"/>
<polygon points="13,-1 21.6,4 21.6,14 13,19 4.4,14 4.4,4" fill="none" stroke="#39FF14" stroke-width="1" opacity="0.02441313352137876"/>
<polygon points="312,175 320.6,180 320.6,190 312,195 303.4,190 303.4,180" fill="none" stroke="#39FF14" stroke-width="1" opacity="0.06042622967205537"/>
<polygon points="153,-5 161.6,0 161.6,10 153,15 144.4,10 144.4,0" fill="none" stroke="#39FF14" stroke-width="1" opacity="0.05130210591036996"/>
<polygon points="255,10 263.6,15 263.6,25 255,30 246.4,25 246.4,15" fill="none" stroke="#39FF14" stroke-width="1" opacity="0.030695362834777345"/>
<polygon points="837,114 845.6,119 845.6,129 837,134 828.4,129 828.4,119" fill="none" stroke="#39FF14" stroke-width="1" opacity="0.07269905674300471"/>
<polygon points="741,167 749.6,172 749.6,182 741,187 732.4,182 732.4,172" fill="none" stroke="#39FF14" stroke-width="1" opacity="0.07947307889507914"/>
<polygon points="285,87 293.6,92 293.6,102 285,107 276.4,102 276.4,92" fill="none" stroke="#39FF14" stroke-width="1" opacity="0.038985461862910444"/>
<polygon points="192,102 200.6,107 200.6,117 192,122 183.4,117 183.4,107" fill="none" stroke="#39FF14" stroke-width="1" opacity="0.032118658076906455"/>
<polygon points="638,116 646.6,121 646.6,131 638,136 629.4,131 629.4,121" fill="none" stroke="#39FF14" stroke-width="1" opacity="0.059438285483765965"/>
<polygon points="62,95 70.6,100 70.6,110 62,115 53.4,110 53.4,100" fill="none" stroke="#39FF14" stroke-width="1" opacity="0.058099878683956704"/>
<polygon points="849,159 857.6,164 857.6,174 849,179 840.4,174 840.4,164" fill="none" stroke="#39FF14" stroke-width="1" opacity="0.022498991099312346"/>
<polygon points="765,186 773.6,191 773.6,201 765,206 756.4,201 756.4,191" fill="none" stroke="#39FF14" stroke-width="1" opacity="0.06454475973566634"/>
<polygon points="829,175 837.6,180 837.6,190 829,195 820.4,190 820.4,180" fill="none" stroke="#39FF14" stroke-width="1" opacity="0.07798921592299357"/>
</g>

  <!-- HUD Decorative elements -->
  <path d="M 20 20 L 40 20 L 50 30" fill="none" stroke="#39FF14" stroke-width="2" opacity="0.5"/>
  <path d="M 830 180 L 810 180 L 800 170" fill="none" stroke="#39FF14" stroke-width="2" opacity="0.5"/>

  <g clip-path="url(#dashClip)">
    <rect x="-160" y="0" width="160" height="200" fill="url(#scanlineGrad)">
      <animateTransform attributeName="transform" type="translate"
                        from="0 0" to="1010 0" dur="6s" repeatCount="indefinite"/>
    </rect>
  </g>

  <g font-family="'Consolas', 'Fira Code', monospace" text-anchor="middle">

    <!-- NETWORK STATUS -->
    <g transform="translate(130, 100)">
        <circle cx="0" cy="0" r="45" fill="none" stroke="#39FF14" stroke-width="2" stroke-dasharray="10 5">
            <animateTransform attributeName="transform" type="rotate" from="0" to="360" dur="10s" repeatCount="indefinite"/>
        </circle>
        <circle cx="0" cy="0" r="35" fill="#0d0d0d" />
        <text x="0" y="-60" font-size="12" fill="#aaaaaa" letter-spacing="2">ROOT.AUTH</text>
        <text x="0" y="70" font-size="14" fill="#ffffff" font-weight="bold">OPERATIONAL</text>
    </g>

    <!-- ACTIVE USERS -->
    <g transform="translate(330, 100)">
        <text x="0" y="-20" font-size="12" fill="#aaaaaa">CITIZENS</text>
        <text x="0" y="15" font-size="28" fill="#ffffff" font-weight="bold" filter="url(#textGlow)">12,803</text>
        <text x="0" y="35" font-size="10" fill="#777777">VERIFIED HUMANS</text>
    </g>

    <!-- REGISTERED AGENTS -->
    <g transform="translate(530, 100)">
        <text x="0" y="-20" font-size="12" fill="#aaaaaa">AGENTS</text>
        <text x="0" y="15" font-size="28" fill="#00d4ff" font-weight="bold" filter="url(#textGlow)">4,059</text>
        <text x="0" y="35" font-size="10" fill="#777777">REGISTERED DIDs</text>
    </g>

    <!-- TRANSACTIONS -->
    <g transform="translate(730, 100)">
        <text x="0" y="-20" font-size="12" fill="#aaaaaa">TRANSFERS</text>
        <text x="0" y="15" font-size="28" fill="#ffffff" font-weight="bold">34,638</text>
        <text x="0" y="35" font-size="10" fill="#777777">M2M SETTLEMENTS</text>
    </g>
  </g>

  <text x="425" y="185" font-family="'Consolas', 'Fira Code', monospace" font-size="10" fill="#aaaaaa" opacity="0.6" text-anchor="middle">AXIOMID PROJECTED TARGETS (ILLUSTRATIVE): 2026-06-27 00:30:11 UTC // SECURE_HANDSHAKE</text>
</svg>