<svg width="850" height="200" viewBox="0 0 850 200" xmlns="http://www.w3.org/2000/svg">
  <defs>
    <!-- Carbon Fiber Pattern -->
    <pattern id="carbonFiber" width="10" height="10" patternUnits="userSpaceOnUse">
        <rect width="10" height="10" fill="#050505"/>
        <path d="M0,0 L5,5 L10,0 L5,-5 Z M5,5 L10,10 L15,5 L10,0 Z M-5,5 L0,10 L5,5 L0,0 Z M0,10 L5,15 L10,10 L5,5 Z" fill="#0d0d0d"/>
    </pattern>
    <filter id="glassmorphism">
      <feGaussianBlur stdDeviation="3" result="blur" />
      <feColorMatrix type="matrix" values="1 0 0 0 0  0 1 0 0 0  0 0 1 0 0  0 0 0 18 -7" result="glow" />
      <feBlend in="SourceGraphic" in2="glow" mode="normal" />
    </filter>
    <filter id="textGlow">
      <feGaussianBlur stdDeviation="2" result="blur" />
      <feMerge>
        <feMergeNode in="blur"/>
        <feMergeNode in="SourceGraphic"/>
      </feMerge>
    </filter>
    <linearGradient id="neonBar" x1="0%" y1="0%" x2="100%" y2="0%">
        <stop offset="0%" stop-color="#111111"/>
        <stop offset="100%" stop-color="#39FF14"/>
    </linearGradient>
  </defs>

  <rect width="100%" height="100%" fill="url(#carbonFiber)" rx="12" stroke="#39FF14" stroke-width="1" stroke-opacity="0.3"/>
  <rect width="100%" height="100%" fill="#000000" opacity="0.6" rx="12" />
  <g><polygon points="624,120 632.6,125 632.6,135 624,140 615.4,135 615.4,125" fill="none" stroke="#39FF14" stroke-width="1" opacity="0.04480941744825741"/>
<polygon points="552,178 560.6,183 560.6,193 552,198 543.4,193 543.4,183" fill="none" stroke="#39FF14" stroke-width="1" opacity="0.07401533102594854"/>
<polygon points="594,69 602.6,74 602.6,84 594,89 585.4,84 585.4,74" fill="none" stroke="#39FF14" stroke-width="1" opacity="0.043424104684015405"/>
<polygon points="583,14 591.6,19 591.6,29 583,34 574.4,29 574.4,19" fill="none" stroke="#39FF14" stroke-width="1" opacity="0.02243858930104256"/>
<polygon points="558,41 566.6,46 566.6,56 558,61 549.4,56 549.4,46" fill="none" stroke="#39FF14" stroke-width="1" opacity="0.045246877936335125"/>
<polygon points="474,112 482.6,117 482.6,127 474,132 465.4,127 465.4,117" fill="none" stroke="#39FF14" stroke-width="1" opacity="0.044783511377190166"/>
<polygon points="90,46 98.6,51 98.6,61 90,66 81.4,61 81.4,51" fill="none" stroke="#39FF14" stroke-width="1" opacity="0.027908823754975127"/>
<polygon points="668,151 676.6,156 676.6,166 668,171 659.4,166 659.4,156" fill="none" stroke="#39FF14" stroke-width="1" opacity="0.03681425120056858"/>
<polygon points="340,0 348.6,5 348.6,15 340,20 331.4,15 331.4,5" fill="none" stroke="#39FF14" stroke-width="1" opacity="0.04792030510240344"/>
<polygon points="389,44 397.6,49 397.6,59 389,64 380.4,59 380.4,49" fill="none" stroke="#39FF14" stroke-width="1" opacity="0.04033437482554667"/>
<polygon points="367,126 375.6,131 375.6,141 367,146 358.4,141 358.4,131" fill="none" stroke="#39FF14" stroke-width="1" opacity="0.02659933882256537"/>
<polygon points="352,65 360.6,70 360.6,80 352,85 343.4,80 343.4,70" fill="none" stroke="#39FF14" stroke-width="1" opacity="0.03878031447211565"/>
<polygon points="495,68 503.6,73 503.6,83 495,88 486.4,83 486.4,73" fill="none" stroke="#39FF14" stroke-width="1" opacity="0.0625248503151033"/>
<polygon points="739,76 747.6,81 747.6,91 739,96 730.4,91 730.4,81" fill="none" stroke="#39FF14" stroke-width="1" opacity="0.056295343109191334"/>
<polygon points="791,171 799.6,176 799.6,186 791,191 782.4,186 782.4,176" fill="none" stroke="#39FF14" stroke-width="1" opacity="0.039387463820207386"/>
<polygon points="221,66 229.6,71 229.6,81 221,86 212.4,81 212.4,71" fill="none" stroke="#39FF14" stroke-width="1" opacity="0.041541245063326834"/>
<polygon points="236,-4 244.6,1 244.6,11 236,16 227.4,11 227.4,1" fill="none" stroke="#39FF14" stroke-width="1" opacity="0.05536206090855571"/>
<polygon points="302,15 310.6,20 310.6,30 302,35 293.4,30 293.4,20" fill="none" stroke="#39FF14" stroke-width="1" opacity="0.07587063832468137"/>
<polygon points="289,82 297.6,87 297.6,97 289,102 280.4,97 280.4,87" fill="none" stroke="#39FF14" stroke-width="1" opacity="0.07338768481607227"/>
<polygon points="308,162 316.6,167 316.6,177 308,182 299.4,177 299.4,167" fill="none" stroke="#39FF14" stroke-width="1" opacity="0.036036795130125254"/>
<polygon points="835,186 843.6,191 843.6,201 835,206 826.4,201 826.4,191" fill="none" stroke="#39FF14" stroke-width="1" opacity="0.024533893078989802"/>
<polygon points="248,52 256.6,57 256.6,67 248,72 239.4,67 239.4,57" fill="none" stroke="#39FF14" stroke-width="1" opacity="0.05601049472034671"/>
<polygon points="689,141 697.6,146 697.6,156 689,161 680.4,156 680.4,146" fill="none" stroke="#39FF14" stroke-width="1" opacity="0.043493001332760475"/>
<polygon points="815,19 823.6,24 823.6,34 815,39 806.4,34 806.4,24" fill="none" stroke="#39FF14" stroke-width="1" opacity="0.03576279358309972"/>
<polygon points="579,51 587.6,56 587.6,66 579,71 570.4,66 570.4,56" fill="none" stroke="#39FF14" stroke-width="1" opacity="0.036285741695552085"/>
<polygon points="294,173 302.6,178 302.6,188 294,193 285.4,188 285.4,178" fill="none" stroke="#39FF14" stroke-width="1" opacity="0.04644714605504052"/>
<polygon points="117,4 125.6,9 125.6,19 117,24 108.4,19 108.4,9" fill="none" stroke="#39FF14" stroke-width="1" opacity="0.05464764183163093"/>
<polygon points="183,152 191.6,157 191.6,167 183,172 174.4,167 174.4,157" fill="none" stroke="#39FF14" stroke-width="1" opacity="0.035195902835498734"/>
<polygon points="62,10 70.6,15 70.6,25 62,30 53.4,25 53.4,15" fill="none" stroke="#39FF14" stroke-width="1" opacity="0.058683904825645436"/>
<polygon points="690,187 698.6,192 698.6,202 690,207 681.4,202 681.4,192" fill="none" stroke="#39FF14" stroke-width="1" opacity="0.0462468982255478"/>
</g>

  <!-- HUD Decorative elements -->
  <path d="M 20 20 L 40 20 L 50 30" fill="none" stroke="#39FF14" stroke-width="2" opacity="0.5"/>
  <path d="M 830 180 L 810 180 L 800 170" fill="none" stroke="#39FF14" stroke-width="2" opacity="0.5"/>
  <rect x="20" y="100" width="2" height="40" fill="#ffffff" opacity="0.4"/>
  <rect x="828" y="60" width="2" height="40" fill="#39FF14" opacity="0.6"/>

  <g font-family="'Consolas', 'Fira Code', monospace" text-anchor="middle">

    <!-- SYSTEM STATUS -->
    <g transform="translate(130, 100)">
        <circle cx="0" cy="0" r="45" fill="none" stroke="#111111" stroke-width="8" />
        <circle cx="0" cy="0" r="45" fill="none" stroke="#39FF14" stroke-width="2" stroke-dasharray="10 5">
            <animateTransform attributeName="transform" type="rotate" from="0" to="360" dur="10s" repeatCount="indefinite"/>
        </circle>
        <circle cx="0" cy="0" r="35" fill="#0d0d0d" />
        <circle cx="0" cy="0" r="6" fill="#39FF14" filter="url(#textGlow)">
            <animate attributeName="opacity" values="1;0.3;1" dur="2s" repeatCount="indefinite"/>
        </circle>
        <text x="0" y="-60" font-size="12" fill="#aaaaaa" letter-spacing="2">SYS.CORE</text>
        <text x="0" y="70" font-size="14" fill="#ffffff" font-weight="bold">ONLINE</text>
    </g>

    <!-- LIVE TRAFFIC -->
    <g transform="translate(330, 100)">
        <rect x="-60" y="-45" width="120" height="90" fill="#0a0a0a" rx="8" stroke="#39FF14" stroke-opacity="0.4" stroke-width="1"/>
        <text x="0" y="-20" font-size="12" fill="#aaaaaa">NETWORK LOAD</text>
        <text x="0" y="15" font-size="28" fill="#ffffff" font-weight="bold" filter="url(#textGlow)">6506</text>
        <text x="0" y="35" font-size="10" fill="#777777">ACTIVE SESSIONS</text>
    </g>

    <!-- ACTIVE AGENTS -->
    <g transform="translate(530, 100)">
        <rect x="-60" y="-45" width="120" height="90" fill="#0a0a0a" rx="8" stroke="#39FF14" stroke-opacity="0.4" stroke-width="1"/>
        <text x="0" y="-20" font-size="12" fill="#aaaaaa">SWARM ENTITIES</text>
        <text x="0" y="15" font-size="28" fill="#ffffff" font-weight="bold" filter="url(#textGlow)">88</text>
        <text x="0" y="35" font-size="10" fill="#777777">AUTONOMOUS</text>
    </g>

    <!-- UPTIME -->
    <g transform="translate(730, 100)">
        <path d="M -40 -35 L 40 -35 L 50 -25 L 50 35 L -40 35 L -50 25 Z" fill="#0a0a0a" stroke="#39FF14" stroke-opacity="0.4" stroke-width="1"/>
        <text x="0" y="-15" font-size="12" fill="#aaaaaa">CONTINUITY</text>
        <text x="0" y="15" font-size="24" fill="#ffffff" font-weight="bold">278<tspan font-size="14" fill="#777777">d</tspan></text>
        <rect x="-35" y="25" width="70" height="4" fill="url(#neonBar)" rx="2"/>
    </g>
  </g>

  <text x="425" y="185" font-family="'Consolas', 'Fira Code', monospace" font-size="10" fill="#aaaaaa" opacity="0.6" text-anchor="middle">LAST TELEMETRY PING: 2026-05-09 18:25:02 UTC // ENCRYPTED_TUNNEL</text>
</svg>