<svg width="850" height="200" viewBox="0 0 850 200" xmlns="http://www.w3.org/2000/svg">
  <defs>
    <!-- Carbon Fiber Pattern -->
    <pattern id="carbonFiber" width="10" height="10" patternUnits="userSpaceOnUse">
        <rect width="10" height="10" fill="#050505"/>
        <path d="M0,0 L5,5 L10,0 L5,-5 Z M5,5 L10,10 L15,5 L10,0 Z M-5,5 L0,10 L5,5 L0,0 Z M0,10 L5,15 L10,10 L5,5 Z" fill="#0d0d0d"/>
    </pattern>
    <filter id="glassmorphism">
      <feGaussianBlur stdDeviation="3" result="blur" />
      <feColorMatrix type="matrix" values="1 0 0 0 0  0 1 0 0 0  0 0 1 0 0  0 0 0 18 -7" result="glow" />
      <feBlend in="SourceGraphic" in2="glow" mode="normal" />
    </filter>
    <filter id="textGlow">
      <feGaussianBlur stdDeviation="2" result="blur" />
      <feMerge>
        <feMergeNode in="blur"/>
        <feMergeNode in="SourceGraphic"/>
      </feMerge>
    </filter>
    <linearGradient id="neonBar" x1="0%" y1="0%" x2="100%" y2="0%">
        <stop offset="0%" stop-color="#111111"/>
        <stop offset="100%" stop-color="#39FF14"/>
    </linearGradient>
  </defs>

  <rect width="100%" height="100%" fill="url(#carbonFiber)" rx="12" stroke="#39FF14" stroke-width="1" stroke-opacity="0.3"/>
  <rect width="100%" height="100%" fill="#000000" opacity="0.6" rx="12" />
  <g><polygon points="685,101 693.6,106 693.6,116 685,121 676.4,116 676.4,106" fill="none" stroke="#39FF14" stroke-width="1" opacity="0.027172659669857414"/>
<polygon points="271,78 279.6,83 279.6,93 271,98 262.4,93 262.4,83" fill="none" stroke="#39FF14" stroke-width="1" opacity="0.02555387563396084"/>
<polygon points="414,27 422.6,32 422.6,42 414,47 405.4,42 405.4,32" fill="none" stroke="#39FF14" stroke-width="1" opacity="0.045478830711707635"/>
<polygon points="279,90 287.6,95 287.6,105 279,110 270.4,105 270.4,95" fill="none" stroke="#39FF14" stroke-width="1" opacity="0.07790259585443972"/>
<polygon points="739,-3 747.6,2 747.6,12 739,17 730.4,12 730.4,2" fill="none" stroke="#39FF14" stroke-width="1" opacity="0.05973488988374413"/>
<polygon points="291,89 299.6,94 299.6,104 291,109 282.4,104 282.4,94" fill="none" stroke="#39FF14" stroke-width="1" opacity="0.0553865165529336"/>
<polygon points="766,159 774.6,164 774.6,174 766,179 757.4,174 757.4,164" fill="none" stroke="#39FF14" stroke-width="1" opacity="0.05064883427629005"/>
<polygon points="185,-6 193.6,-1 193.6,9 185,14 176.4,9 176.4,-1" fill="none" stroke="#39FF14" stroke-width="1" opacity="0.07881329046529272"/>
<polygon points="93,57 101.6,62 101.6,72 93,77 84.4,72 84.4,62" fill="none" stroke="#39FF14" stroke-width="1" opacity="0.02393164918601536"/>
<polygon points="284,98 292.6,103 292.6,113 284,118 275.4,113 275.4,103" fill="none" stroke="#39FF14" stroke-width="1" opacity="0.06285873305527472"/>
<polygon points="29,160 37.6,165 37.6,175 29,180 20.4,175 20.4,165" fill="none" stroke="#39FF14" stroke-width="1" opacity="0.05584262111343288"/>
<polygon points="131,1 139.6,6 139.6,16 131,21 122.4,16 122.4,6" fill="none" stroke="#39FF14" stroke-width="1" opacity="0.07098220305066567"/>
<polygon points="758,125 766.6,130 766.6,140 758,145 749.4,140 749.4,130" fill="none" stroke="#39FF14" stroke-width="1" opacity="0.038405998425025484"/>
<polygon points="762,1 770.6,6 770.6,16 762,21 753.4,16 753.4,6" fill="none" stroke="#39FF14" stroke-width="1" opacity="0.06063732168806528"/>
<polygon points="755,99 763.6,104 763.6,114 755,119 746.4,114 746.4,104" fill="none" stroke="#39FF14" stroke-width="1" opacity="0.051824432942246326"/>
<polygon points="239,154 247.6,159 247.6,169 239,174 230.4,169 230.4,159" fill="none" stroke="#39FF14" stroke-width="1" opacity="0.049311626651669355"/>
<polygon points="761,10 769.6,15 769.6,25 761,30 752.4,25 752.4,15" fill="none" stroke="#39FF14" stroke-width="1" opacity="0.06425885667839121"/>
<polygon points="109,39 117.6,44 117.6,54 109,59 100.4,54 100.4,44" fill="none" stroke="#39FF14" stroke-width="1" opacity="0.03249265143250041"/>
<polygon points="256,164 264.6,169 264.6,179 256,184 247.4,179 247.4,169" fill="none" stroke="#39FF14" stroke-width="1" opacity="0.04175920588163655"/>
<polygon points="372,19 380.6,24 380.6,34 372,39 363.4,34 363.4,24" fill="none" stroke="#39FF14" stroke-width="1" opacity="0.03360382602227644"/>
<polygon points="324,93 332.6,98 332.6,108 324,113 315.4,108 315.4,98" fill="none" stroke="#39FF14" stroke-width="1" opacity="0.03587670178118259"/>
<polygon points="318,29 326.6,34 326.6,44 318,49 309.4,44 309.4,34" fill="none" stroke="#39FF14" stroke-width="1" opacity="0.021032847427917806"/>
<polygon points="334,69 342.6,74 342.6,84 334,89 325.4,84 325.4,74" fill="none" stroke="#39FF14" stroke-width="1" opacity="0.022454711628429647"/>
<polygon points="832,101 840.6,106 840.6,116 832,121 823.4,116 823.4,106" fill="none" stroke="#39FF14" stroke-width="1" opacity="0.07276318831211469"/>
<polygon points="123,149 131.6,154 131.6,164 123,169 114.4,164 114.4,154" fill="none" stroke="#39FF14" stroke-width="1" opacity="0.024619003400168798"/>
<polygon points="9,167 17.6,172 17.6,182 9,187 0.40000000000000036,182 0.40000000000000036,172" fill="none" stroke="#39FF14" stroke-width="1" opacity="0.038708757932243376"/>
<polygon points="385,178 393.6,183 393.6,193 385,198 376.4,193 376.4,183" fill="none" stroke="#39FF14" stroke-width="1" opacity="0.07977510076722621"/>
<polygon points="646,172 654.6,177 654.6,187 646,192 637.4,187 637.4,177" fill="none" stroke="#39FF14" stroke-width="1" opacity="0.05505250095981547"/>
<polygon points="391,79 399.6,84 399.6,94 391,99 382.4,94 382.4,84" fill="none" stroke="#39FF14" stroke-width="1" opacity="0.040013936243911946"/>
<polygon points="835,119 843.6,124 843.6,134 835,139 826.4,134 826.4,124" fill="none" stroke="#39FF14" stroke-width="1" opacity="0.03849723767281721"/>
</g>

  <!-- HUD Decorative elements -->
  <path d="M 20 20 L 40 20 L 50 30" fill="none" stroke="#39FF14" stroke-width="2" opacity="0.5"/>
  <path d="M 830 180 L 810 180 L 800 170" fill="none" stroke="#39FF14" stroke-width="2" opacity="0.5"/>
  <rect x="20" y="100" width="2" height="40" fill="#ffffff" opacity="0.4"/>
  <rect x="828" y="60" width="2" height="40" fill="#39FF14" opacity="0.6"/>

  <g font-family="'Consolas', 'Fira Code', monospace" text-anchor="middle">

    <!-- SYSTEM STATUS -->
    <g transform="translate(130, 100)">
        <circle cx="0" cy="0" r="45" fill="none" stroke="#111111" stroke-width="8" />
        <circle cx="0" cy="0" r="45" fill="none" stroke="#39FF14" stroke-width="2" stroke-dasharray="10 5">
            <animateTransform attributeName="transform" type="rotate" from="0" to="360" dur="10s" repeatCount="indefinite"/>
        </circle>
        <circle cx="0" cy="0" r="35" fill="#0d0d0d" />
        <circle cx="0" cy="0" r="6" fill="#39FF14" filter="url(#textGlow)">
            <animate attributeName="opacity" values="1;0.3;1" dur="2s" repeatCount="indefinite"/>
        </circle>
        <text x="0" y="-60" font-size="12" fill="#aaaaaa" letter-spacing="2">SYS.CORE</text>
        <text x="0" y="70" font-size="14" fill="#ffffff" font-weight="bold">ONLINE</text>
    </g>

    <!-- LIVE TRAFFIC -->
    <g transform="translate(330, 100)">
        <rect x="-60" y="-45" width="120" height="90" fill="#0a0a0a" rx="8" stroke="#39FF14" stroke-opacity="0.4" stroke-width="1"/>
        <text x="0" y="-20" font-size="12" fill="#aaaaaa">NETWORK LOAD</text>
        <text x="0" y="15" font-size="28" fill="#ffffff" font-weight="bold" filter="url(#textGlow)">5302</text>
        <text x="0" y="35" font-size="10" fill="#777777">ACTIVE SESSIONS</text>
    </g>

    <!-- ACTIVE AGENTS -->
    <g transform="translate(530, 100)">
        <rect x="-60" y="-45" width="120" height="90" fill="#0a0a0a" rx="8" stroke="#39FF14" stroke-opacity="0.4" stroke-width="1"/>
        <text x="0" y="-20" font-size="12" fill="#aaaaaa">SWARM ENTITIES</text>
        <text x="0" y="15" font-size="28" fill="#ffffff" font-weight="bold" filter="url(#textGlow)">131</text>
        <text x="0" y="35" font-size="10" fill="#777777">AUTONOMOUS</text>
    </g>

    <!-- UPTIME -->
    <g transform="translate(730, 100)">
        <path d="M -40 -35 L 40 -35 L 50 -25 L 50 35 L -40 35 L -50 25 Z" fill="#0a0a0a" stroke="#39FF14" stroke-opacity="0.4" stroke-width="1"/>
        <text x="0" y="-15" font-size="12" fill="#aaaaaa">CONTINUITY</text>
        <text x="0" y="15" font-size="24" fill="#ffffff" font-weight="bold">361<tspan font-size="14" fill="#777777">d</tspan></text>
        <rect x="-35" y="25" width="70" height="4" fill="url(#neonBar)" rx="2"/>
    </g>
  </g>

  <text x="425" y="185" font-family="'Consolas', 'Fira Code', monospace" font-size="10" fill="#aaaaaa" opacity="0.6" text-anchor="middle">LAST TELEMETRY PING: 2026-05-11 13:08:06 UTC // ENCRYPTED_TUNNEL</text>
</svg>