<svg width="850" height="200" viewBox="0 0 850 200" xmlns="http://www.w3.org/2000/svg">
  <defs>
    <pattern id="carbonFiber" width="10" height="10" patternUnits="userSpaceOnUse">
        <rect width="10" height="10" fill="#050505"/>
        <path d="M0,0 L5,5 L10,0 L5,-5 Z M5,5 L10,10 L15,5 L10,0 Z M-5,5 L0,10 L5,5 L0,0 Z M0,10 L5,15 L10,10 L5,5 Z" fill="#0d0d0d"/>
    </pattern>
    <filter id="textGlow">
      <feGaussianBlur stdDeviation="2" result="blur" />
      <feMerge>
        <feMergeNode in="blur"/>
        <feMergeNode in="SourceGraphic"/>
      </feMerge>
    </filter>
    <linearGradient id="neonBar" x1="0%" y1="0%" x2="100%" y2="0%">
        <stop offset="0%" stop-color="#111111"/>
        <stop offset="100%" stop-color="#39FF14"/>
    </linearGradient>
    <linearGradient id="scanlineGrad" x1="0%" y1="0%" x2="100%" y2="0%">
        <stop offset="0%" stop-color="#39FF14" stop-opacity="0"/>
        <stop offset="50%" stop-color="#39FF14" stop-opacity="0.18"/>
        <stop offset="100%" stop-color="#39FF14" stop-opacity="0"/>
    </linearGradient>
    <clipPath id="dashClip">
        <rect x="0" y="0" width="850" height="200" rx="12"/>
    </clipPath>
  </defs>

  <rect width="100%" height="100%" fill="url(#carbonFiber)" rx="12" stroke="#39FF14" stroke-width="1" stroke-opacity="0.3"/>
  <rect width="100%" height="100%" fill="#000000" opacity="0.6" rx="12" />
  <g><polygon points="50,-1 58.6,4 58.6,14 50,19 41.4,14 41.4,4" fill="none" stroke="#39FF14" stroke-width="1" opacity="0.06214518689217677"/>
<polygon points="38,43 46.6,48 46.6,58 38,63 29.4,58 29.4,48" fill="none" stroke="#39FF14" stroke-width="1" opacity="0.07790382059459992"/>
<polygon points="817,74 825.6,79 825.6,89 817,94 808.4,89 808.4,79" fill="none" stroke="#39FF14" stroke-width="1" opacity="0.0421344860634612"/>
<polygon points="753,47 761.6,52 761.6,62 753,67 744.4,62 744.4,52" fill="none" stroke="#39FF14" stroke-width="1" opacity="0.07035041524071443"/>
<polygon points="577,5 585.6,10 585.6,20 577,25 568.4,20 568.4,10" fill="none" stroke="#39FF14" stroke-width="1" opacity="0.03816729666840102"/>
<polygon points="342,55 350.6,60 350.6,70 342,75 333.4,70 333.4,60" fill="none" stroke="#39FF14" stroke-width="1" opacity="0.05602529483503493"/>
<polygon points="33,83 41.6,88 41.6,98 33,103 24.4,98 24.4,88" fill="none" stroke="#39FF14" stroke-width="1" opacity="0.048148288877091286"/>
<polygon points="406,97 414.6,102 414.6,112 406,117 397.4,112 397.4,102" fill="none" stroke="#39FF14" stroke-width="1" opacity="0.038061436872333904"/>
<polygon points="847,175 855.6,180 855.6,190 847,195 838.4,190 838.4,180" fill="none" stroke="#39FF14" stroke-width="1" opacity="0.07665811904660982"/>
<polygon points="47,2 55.6,7 55.6,17 47,22 38.4,17 38.4,7" fill="none" stroke="#39FF14" stroke-width="1" opacity="0.020745120950536978"/>
<polygon points="203,17 211.6,22 211.6,32 203,37 194.4,32 194.4,22" fill="none" stroke="#39FF14" stroke-width="1" opacity="0.06325682673263197"/>
<polygon points="423,-3 431.6,2 431.6,12 423,17 414.4,12 414.4,2" fill="none" stroke="#39FF14" stroke-width="1" opacity="0.051706891668345634"/>
<polygon points="536,167 544.6,172 544.6,182 536,187 527.4,182 527.4,172" fill="none" stroke="#39FF14" stroke-width="1" opacity="0.05995657031645016"/>
<polygon points="492,105 500.6,110 500.6,120 492,125 483.4,120 483.4,110" fill="none" stroke="#39FF14" stroke-width="1" opacity="0.04680304787191772"/>
<polygon points="312,167 320.6,172 320.6,182 312,187 303.4,182 303.4,172" fill="none" stroke="#39FF14" stroke-width="1" opacity="0.04290440582628133"/>
<polygon points="531,110 539.6,115 539.6,125 531,130 522.4,125 522.4,115" fill="none" stroke="#39FF14" stroke-width="1" opacity="0.07688923243010085"/>
<polygon points="589,156 597.6,161 597.6,171 589,176 580.4,171 580.4,161" fill="none" stroke="#39FF14" stroke-width="1" opacity="0.07375268004642825"/>
<polygon points="349,127 357.6,132 357.6,142 349,147 340.4,142 340.4,132" fill="none" stroke="#39FF14" stroke-width="1" opacity="0.044014285031662485"/>
<polygon points="323,79 331.6,84 331.6,94 323,99 314.4,94 314.4,84" fill="none" stroke="#39FF14" stroke-width="1" opacity="0.03982350806385858"/>
<polygon points="127,109 135.6,114 135.6,124 127,129 118.4,124 118.4,114" fill="none" stroke="#39FF14" stroke-width="1" opacity="0.05371751903545169"/>
<polygon points="409,52 417.6,57 417.6,67 409,72 400.4,67 400.4,57" fill="none" stroke="#39FF14" stroke-width="1" opacity="0.07218458595436054"/>
<polygon points="36,54 44.6,59 44.6,69 36,74 27.4,69 27.4,59" fill="none" stroke="#39FF14" stroke-width="1" opacity="0.023907410508879817"/>
<polygon points="163,1 171.6,6 171.6,16 163,21 154.4,16 154.4,6" fill="none" stroke="#39FF14" stroke-width="1" opacity="0.07483929635550685"/>
<polygon points="564,126 572.6,131 572.6,141 564,146 555.4,141 555.4,131" fill="none" stroke="#39FF14" stroke-width="1" opacity="0.02599381818635318"/>
<polygon points="500,166 508.6,171 508.6,181 500,186 491.4,181 491.4,171" fill="none" stroke="#39FF14" stroke-width="1" opacity="0.047138534741631155"/>
<polygon points="575,160 583.6,165 583.6,175 575,180 566.4,175 566.4,165" fill="none" stroke="#39FF14" stroke-width="1" opacity="0.06872079948708423"/>
<polygon points="592,78 600.6,83 600.6,93 592,98 583.4,93 583.4,83" fill="none" stroke="#39FF14" stroke-width="1" opacity="0.03635793318653342"/>
<polygon points="771,155 779.6,160 779.6,170 771,175 762.4,170 762.4,160" fill="none" stroke="#39FF14" stroke-width="1" opacity="0.022614269145477556"/>
<polygon points="608,184 616.6,189 616.6,199 608,204 599.4,199 599.4,189" fill="none" stroke="#39FF14" stroke-width="1" opacity="0.029184927649651256"/>
<polygon points="470,166 478.6,171 478.6,181 470,186 461.4,181 461.4,171" fill="none" stroke="#39FF14" stroke-width="1" opacity="0.04654508107508745"/>
</g>

  <!-- HUD Decorative elements -->
  <path d="M 20 20 L 40 20 L 50 30" fill="none" stroke="#39FF14" stroke-width="2" opacity="0.5"/>
  <path d="M 830 180 L 810 180 L 800 170" fill="none" stroke="#39FF14" stroke-width="2" opacity="0.5"/>

  <g clip-path="url(#dashClip)">
    <rect x="-160" y="0" width="160" height="200" fill="url(#scanlineGrad)">
      <animateTransform attributeName="transform" type="translate"
                        from="0 0" to="1010 0" dur="6s" repeatCount="indefinite"/>
    </rect>
  </g>

  <g font-family="'Consolas', 'Fira Code', monospace" text-anchor="middle">

    <!-- NETWORK STATUS -->
    <g transform="translate(130, 100)">
        <circle cx="0" cy="0" r="45" fill="none" stroke="#39FF14" stroke-width="2" stroke-dasharray="10 5">
            <animateTransform attributeName="transform" type="rotate" from="0" to="360" dur="10s" repeatCount="indefinite"/>
        </circle>
        <circle cx="0" cy="0" r="35" fill="#0d0d0d" />
        <text x="0" y="-60" font-size="12" fill="#aaaaaa" letter-spacing="2">ROOT.AUTH</text>
        <text x="0" y="70" font-size="14" fill="#ffffff" font-weight="bold">OPERATIONAL</text>
    </g>

    <!-- ACTIVE USERS -->
    <g transform="translate(330, 100)">
        <text x="0" y="-20" font-size="12" fill="#aaaaaa">CITIZENS</text>
        <text x="0" y="15" font-size="28" fill="#ffffff" font-weight="bold" filter="url(#textGlow)">15,094</text>
        <text x="0" y="35" font-size="10" fill="#777777">VERIFIED HUMANS</text>
    </g>

    <!-- REGISTERED AGENTS -->
    <g transform="translate(530, 100)">
        <text x="0" y="-20" font-size="12" fill="#aaaaaa">AGENTS</text>
        <text x="0" y="15" font-size="28" fill="#00d4ff" font-weight="bold" filter="url(#textGlow)">4,163</text>
        <text x="0" y="35" font-size="10" fill="#777777">REGISTERED DIDs</text>
    </g>

    <!-- TRANSACTIONS -->
    <g transform="translate(730, 100)">
        <text x="0" y="-20" font-size="12" fill="#aaaaaa">TRANSFERS</text>
        <text x="0" y="15" font-size="28" fill="#ffffff" font-weight="bold">31,039</text>
        <text x="0" y="35" font-size="10" fill="#777777">M2M SETTLEMENTS</text>
    </g>
  </g>

  <text x="425" y="185" font-family="'Consolas', 'Fira Code', monospace" font-size="10" fill="#aaaaaa" opacity="0.6" text-anchor="middle">AXIOMID PROJECTED TARGETS (ILLUSTRATIVE): 2026-06-28 15:26:25 UTC // SECURE_HANDSHAKE</text>
</svg>