<svg width="850" height="200" viewBox="0 0 850 200" xmlns="http://www.w3.org/2000/svg">
  <defs>
    <pattern id="carbonFiber" width="10" height="10" patternUnits="userSpaceOnUse">
        <rect width="10" height="10" fill="#050505"/>
        <path d="M0,0 L5,5 L10,0 L5,-5 Z M5,5 L10,10 L15,5 L10,0 Z M-5,5 L0,10 L5,5 L0,0 Z M0,10 L5,15 L10,10 L5,5 Z" fill="#0d0d0d"/>
    </pattern>
    <filter id="textGlow">
      <feGaussianBlur stdDeviation="2" result="blur" />
      <feMerge>
        <feMergeNode in="blur"/>
        <feMergeNode in="SourceGraphic"/>
      </feMerge>
    </filter>
    <linearGradient id="neonBar" x1="0%" y1="0%" x2="100%" y2="0%">
        <stop offset="0%" stop-color="#111111"/>
        <stop offset="100%" stop-color="#39FF14"/>
    </linearGradient>
    <linearGradient id="scanlineGrad" x1="0%" y1="0%" x2="100%" y2="0%">
        <stop offset="0%" stop-color="#39FF14" stop-opacity="0"/>
        <stop offset="50%" stop-color="#39FF14" stop-opacity="0.18"/>
        <stop offset="100%" stop-color="#39FF14" stop-opacity="0"/>
    </linearGradient>
    <clipPath id="dashClip">
        <rect x="0" y="0" width="850" height="200" rx="12"/>
    </clipPath>
  </defs>

  <rect width="100%" height="100%" fill="url(#carbonFiber)" rx="12" stroke="#39FF14" stroke-width="1" stroke-opacity="0.3"/>
  <rect width="100%" height="100%" fill="#000000" opacity="0.6" rx="12" />
  <g><polygon points="553,51 561.6,56 561.6,66 553,71 544.4,66 544.4,56" fill="none" stroke="#39FF14" stroke-width="1" opacity="0.02795556908589534"/>
<polygon points="321,10 329.6,15 329.6,25 321,30 312.4,25 312.4,15" fill="none" stroke="#39FF14" stroke-width="1" opacity="0.07293467169253079"/>
<polygon points="251,180 259.6,185 259.6,195 251,200 242.4,195 242.4,185" fill="none" stroke="#39FF14" stroke-width="1" opacity="0.07628358708598654"/>
<polygon points="264,123 272.6,128 272.6,138 264,143 255.4,138 255.4,128" fill="none" stroke="#39FF14" stroke-width="1" opacity="0.047894680999015754"/>
<polygon points="737,52 745.6,57 745.6,67 737,72 728.4,67 728.4,57" fill="none" stroke="#39FF14" stroke-width="1" opacity="0.07043912875520893"/>
<polygon points="437,106 445.6,111 445.6,121 437,126 428.4,121 428.4,111" fill="none" stroke="#39FF14" stroke-width="1" opacity="0.039582221978620116"/>
<polygon points="848,60 856.6,65 856.6,75 848,80 839.4,75 839.4,65" fill="none" stroke="#39FF14" stroke-width="1" opacity="0.032992784214603145"/>
<polygon points="265,-7 273.6,-2 273.6,8 265,13 256.4,8 256.4,-2" fill="none" stroke="#39FF14" stroke-width="1" opacity="0.05953924150189378"/>
<polygon points="725,39 733.6,44 733.6,54 725,59 716.4,54 716.4,44" fill="none" stroke="#39FF14" stroke-width="1" opacity="0.027131128154692437"/>
<polygon points="208,38 216.6,43 216.6,53 208,58 199.4,53 199.4,43" fill="none" stroke="#39FF14" stroke-width="1" opacity="0.0391081568904572"/>
<polygon points="698,20 706.6,25 706.6,35 698,40 689.4,35 689.4,25" fill="none" stroke="#39FF14" stroke-width="1" opacity="0.045523318305580505"/>
<polygon points="563,75 571.6,80 571.6,90 563,95 554.4,90 554.4,80" fill="none" stroke="#39FF14" stroke-width="1" opacity="0.030422006738690957"/>
<polygon points="180,40 188.6,45 188.6,55 180,60 171.4,55 171.4,45" fill="none" stroke="#39FF14" stroke-width="1" opacity="0.044219314840894065"/>
<polygon points="452,140 460.6,145 460.6,155 452,160 443.4,155 443.4,145" fill="none" stroke="#39FF14" stroke-width="1" opacity="0.057243295497004396"/>
<polygon points="699,30 707.6,35 707.6,45 699,50 690.4,45 690.4,35" fill="none" stroke="#39FF14" stroke-width="1" opacity="0.07891127759042035"/>
<polygon points="297,-1 305.6,4 305.6,14 297,19 288.4,14 288.4,4" fill="none" stroke="#39FF14" stroke-width="1" opacity="0.03070758388426405"/>
<polygon points="822,47 830.6,52 830.6,62 822,67 813.4,62 813.4,52" fill="none" stroke="#39FF14" stroke-width="1" opacity="0.05594651703542765"/>
<polygon points="27,140 35.6,145 35.6,155 27,160 18.4,155 18.4,145" fill="none" stroke="#39FF14" stroke-width="1" opacity="0.06864548139643276"/>
<polygon points="576,55 584.6,60 584.6,70 576,75 567.4,70 567.4,60" fill="none" stroke="#39FF14" stroke-width="1" opacity="0.03150713973634234"/>
<polygon points="38,148 46.6,153 46.6,163 38,168 29.4,163 29.4,153" fill="none" stroke="#39FF14" stroke-width="1" opacity="0.04346040741699602"/>
<polygon points="815,97 823.6,102 823.6,112 815,117 806.4,112 806.4,102" fill="none" stroke="#39FF14" stroke-width="1" opacity="0.026348878513188224"/>
<polygon points="98,185 106.6,190 106.6,200 98,205 89.4,200 89.4,190" fill="none" stroke="#39FF14" stroke-width="1" opacity="0.04055792036614084"/>
<polygon points="704,159 712.6,164 712.6,174 704,179 695.4,174 695.4,164" fill="none" stroke="#39FF14" stroke-width="1" opacity="0.07658884013856601"/>
<polygon points="583,131 591.6,136 591.6,146 583,151 574.4,146 574.4,136" fill="none" stroke="#39FF14" stroke-width="1" opacity="0.06995261322722138"/>
<polygon points="549,168 557.6,173 557.6,183 549,188 540.4,183 540.4,173" fill="none" stroke="#39FF14" stroke-width="1" opacity="0.023425340776692033"/>
<polygon points="729,134 737.6,139 737.6,149 729,154 720.4,149 720.4,139" fill="none" stroke="#39FF14" stroke-width="1" opacity="0.0605023422299938"/>
<polygon points="486,30 494.6,35 494.6,45 486,50 477.4,45 477.4,35" fill="none" stroke="#39FF14" stroke-width="1" opacity="0.07642032795480048"/>
<polygon points="450,114 458.6,119 458.6,129 450,134 441.4,129 441.4,119" fill="none" stroke="#39FF14" stroke-width="1" opacity="0.05841351807870568"/>
<polygon points="30,153 38.6,158 38.6,168 30,173 21.4,168 21.4,158" fill="none" stroke="#39FF14" stroke-width="1" opacity="0.0606192175196905"/>
<polygon points="337,4 345.6,9 345.6,19 337,24 328.4,19 328.4,9" fill="none" stroke="#39FF14" stroke-width="1" opacity="0.05117750130832929"/>
</g>

  <!-- HUD Decorative elements -->
  <path d="M 20 20 L 40 20 L 50 30" fill="none" stroke="#39FF14" stroke-width="2" opacity="0.5"/>
  <path d="M 830 180 L 810 180 L 800 170" fill="none" stroke="#39FF14" stroke-width="2" opacity="0.5"/>

  <g clip-path="url(#dashClip)">
    <rect x="-160" y="0" width="160" height="200" fill="url(#scanlineGrad)">
      <animateTransform attributeName="transform" type="translate"
                        from="0 0" to="1010 0" dur="6s" repeatCount="indefinite"/>
    </rect>
  </g>

  <g font-family="'Consolas', 'Fira Code', monospace" text-anchor="middle">

    <!-- NETWORK STATUS -->
    <g transform="translate(130, 100)">
        <circle cx="0" cy="0" r="45" fill="none" stroke="#39FF14" stroke-width="2" stroke-dasharray="10 5">
            <animateTransform attributeName="transform" type="rotate" from="0" to="360" dur="10s" repeatCount="indefinite"/>
        </circle>
        <circle cx="0" cy="0" r="35" fill="#0d0d0d" />
        <text x="0" y="-60" font-size="12" fill="#aaaaaa" letter-spacing="2">ROOT.AUTH</text>
        <text x="0" y="70" font-size="14" fill="#ffffff" font-weight="bold">OPERATIONAL</text>
    </g>

    <!-- ACTIVE USERS -->
    <g transform="translate(330, 100)">
        <text x="0" y="-20" font-size="12" fill="#aaaaaa">CITIZENS</text>
        <text x="0" y="15" font-size="28" fill="#ffffff" font-weight="bold" filter="url(#textGlow)">15,374</text>
        <text x="0" y="35" font-size="10" fill="#777777">VERIFIED HUMANS</text>
    </g>

    <!-- REGISTERED AGENTS -->
    <g transform="translate(530, 100)">
        <text x="0" y="-20" font-size="12" fill="#aaaaaa">AGENTS</text>
        <text x="0" y="15" font-size="28" fill="#00d4ff" font-weight="bold" filter="url(#textGlow)">3,846</text>
        <text x="0" y="35" font-size="10" fill="#777777">REGISTERED DIDs</text>
    </g>

    <!-- TRANSACTIONS -->
    <g transform="translate(730, 100)">
        <text x="0" y="-20" font-size="12" fill="#aaaaaa">TRANSFERS</text>
        <text x="0" y="15" font-size="28" fill="#ffffff" font-weight="bold">36,615</text>
        <text x="0" y="35" font-size="10" fill="#777777">M2M SETTLEMENTS</text>
    </g>
  </g>

  <text x="425" y="185" font-family="'Consolas', 'Fira Code', monospace" font-size="10" fill="#aaaaaa" opacity="0.6" text-anchor="middle">AXIOMID PROJECTED TARGETS (ILLUSTRATIVE): 2026-06-21 00:33:32 UTC // SECURE_HANDSHAKE</text>
</svg>