<svg width="850" height="200" viewBox="0 0 850 200" xmlns="http://www.w3.org/2000/svg">
  <defs>
    <pattern id="carbonFiber" width="10" height="10" patternUnits="userSpaceOnUse">
        <rect width="10" height="10" fill="#050505"/>
        <path d="M0,0 L5,5 L10,0 L5,-5 Z M5,5 L10,10 L15,5 L10,0 Z M-5,5 L0,10 L5,5 L0,0 Z M0,10 L5,15 L10,10 L5,5 Z" fill="#0d0d0d"/>
    </pattern>
    <filter id="textGlow">
      <feGaussianBlur stdDeviation="2" result="blur" />
      <feMerge>
        <feMergeNode in="blur"/>
        <feMergeNode in="SourceGraphic"/>
      </feMerge>
    </filter>
    <linearGradient id="neonBar" x1="0%" y1="0%" x2="100%" y2="0%">
        <stop offset="0%" stop-color="#111111"/>
        <stop offset="100%" stop-color="#39FF14"/>
    </linearGradient>
    <linearGradient id="scanlineGrad" x1="0%" y1="0%" x2="100%" y2="0%">
        <stop offset="0%" stop-color="#39FF14" stop-opacity="0"/>
        <stop offset="50%" stop-color="#39FF14" stop-opacity="0.18"/>
        <stop offset="100%" stop-color="#39FF14" stop-opacity="0"/>
    </linearGradient>
    <clipPath id="dashClip">
        <rect x="0" y="0" width="850" height="200" rx="12"/>
    </clipPath>
  </defs>

  <rect width="100%" height="100%" fill="url(#carbonFiber)" rx="12" stroke="#39FF14" stroke-width="1" stroke-opacity="0.3"/>
  <rect width="100%" height="100%" fill="#000000" opacity="0.6" rx="12" />
  <g><polygon points="392,57 400.6,62 400.6,72 392,77 383.4,72 383.4,62" fill="none" stroke="#39FF14" stroke-width="1" opacity="0.04826793944668694"/>
<polygon points="367,57 375.6,62 375.6,72 367,77 358.4,72 358.4,62" fill="none" stroke="#39FF14" stroke-width="1" opacity="0.0285137928934021"/>
<polygon points="152,135 160.6,140 160.6,150 152,155 143.4,150 143.4,140" fill="none" stroke="#39FF14" stroke-width="1" opacity="0.06701313323001758"/>
<polygon points="462,-5 470.6,0 470.6,10 462,15 453.4,10 453.4,0" fill="none" stroke="#39FF14" stroke-width="1" opacity="0.03251443214510025"/>
<polygon points="83,31 91.6,36 91.6,46 83,51 74.4,46 74.4,36" fill="none" stroke="#39FF14" stroke-width="1" opacity="0.028127627066002116"/>
<polygon points="629,106 637.6,111 637.6,121 629,126 620.4,121 620.4,111" fill="none" stroke="#39FF14" stroke-width="1" opacity="0.03603240477232483"/>
<polygon points="123,67 131.6,72 131.6,82 123,87 114.4,82 114.4,72" fill="none" stroke="#39FF14" stroke-width="1" opacity="0.021670109428837667"/>
<polygon points="56,61 64.6,66 64.6,76 56,81 47.4,76 47.4,66" fill="none" stroke="#39FF14" stroke-width="1" opacity="0.0645819416009969"/>
<polygon points="724,81 732.6,86 732.6,96 724,101 715.4,96 715.4,86" fill="none" stroke="#39FF14" stroke-width="1" opacity="0.03704267989175666"/>
<polygon points="531,127 539.6,132 539.6,142 531,147 522.4,142 522.4,132" fill="none" stroke="#39FF14" stroke-width="1" opacity="0.051092791275278514"/>
<polygon points="39,99 47.6,104 47.6,114 39,119 30.4,114 30.4,104" fill="none" stroke="#39FF14" stroke-width="1" opacity="0.03773806454407186"/>
<polygon points="9,134 17.6,139 17.6,149 9,154 0.40000000000000036,149 0.40000000000000036,139" fill="none" stroke="#39FF14" stroke-width="1" opacity="0.07423347320577592"/>
<polygon points="219,35 227.6,40 227.6,50 219,55 210.4,50 210.4,40" fill="none" stroke="#39FF14" stroke-width="1" opacity="0.02468922216880505"/>
<polygon points="592,119 600.6,124 600.6,134 592,139 583.4,134 583.4,124" fill="none" stroke="#39FF14" stroke-width="1" opacity="0.07497953961341365"/>
<polygon points="155,1 163.6,6 163.6,16 155,21 146.4,16 146.4,6" fill="none" stroke="#39FF14" stroke-width="1" opacity="0.04295203740381432"/>
<polygon points="708,16 716.6,21 716.6,31 708,36 699.4,31 699.4,21" fill="none" stroke="#39FF14" stroke-width="1" opacity="0.04800532538643782"/>
<polygon points="289,72 297.6,77 297.6,87 289,92 280.4,87 280.4,77" fill="none" stroke="#39FF14" stroke-width="1" opacity="0.048006242348487674"/>
<polygon points="357,58 365.6,63 365.6,73 357,78 348.4,73 348.4,63" fill="none" stroke="#39FF14" stroke-width="1" opacity="0.06556520251630232"/>
<polygon points="705,10 713.6,15 713.6,25 705,30 696.4,25 696.4,15" fill="none" stroke="#39FF14" stroke-width="1" opacity="0.020618506315453543"/>
<polygon points="280,92 288.6,97 288.6,107 280,112 271.4,107 271.4,97" fill="none" stroke="#39FF14" stroke-width="1" opacity="0.053733845920504314"/>
<polygon points="105,147 113.6,152 113.6,162 105,167 96.4,162 96.4,152" fill="none" stroke="#39FF14" stroke-width="1" opacity="0.03855564882584065"/>
<polygon points="5,148 13.6,153 13.6,163 5,168 -3.5999999999999996,163 -3.5999999999999996,153" fill="none" stroke="#39FF14" stroke-width="1" opacity="0.023378978738325513"/>
<polygon points="136,2 144.6,7 144.6,17 136,22 127.4,17 127.4,7" fill="none" stroke="#39FF14" stroke-width="1" opacity="0.07851483775580385"/>
<polygon points="508,146 516.6,151 516.6,161 508,166 499.4,161 499.4,151" fill="none" stroke="#39FF14" stroke-width="1" opacity="0.050833701920694"/>
<polygon points="64,29 72.6,34 72.6,44 64,49 55.4,44 55.4,34" fill="none" stroke="#39FF14" stroke-width="1" opacity="0.040750868439453115"/>
<polygon points="696,18 704.6,23 704.6,33 696,38 687.4,33 687.4,23" fill="none" stroke="#39FF14" stroke-width="1" opacity="0.05370632919984805"/>
<polygon points="786,176 794.6,181 794.6,191 786,196 777.4,191 777.4,181" fill="none" stroke="#39FF14" stroke-width="1" opacity="0.03631703212010297"/>
<polygon points="432,41 440.6,46 440.6,56 432,61 423.4,56 423.4,46" fill="none" stroke="#39FF14" stroke-width="1" opacity="0.05979490926731168"/>
<polygon points="428,129 436.6,134 436.6,144 428,149 419.4,144 419.4,134" fill="none" stroke="#39FF14" stroke-width="1" opacity="0.03572185842094657"/>
<polygon points="151,23 159.6,28 159.6,38 151,43 142.4,38 142.4,28" fill="none" stroke="#39FF14" stroke-width="1" opacity="0.03607496281599307"/>
</g>

  <!-- HUD Decorative elements -->
  <path d="M 20 20 L 40 20 L 50 30" fill="none" stroke="#39FF14" stroke-width="2" opacity="0.5"/>
  <path d="M 830 180 L 810 180 L 800 170" fill="none" stroke="#39FF14" stroke-width="2" opacity="0.5"/>

  <g clip-path="url(#dashClip)">
    <rect x="-160" y="0" width="160" height="200" fill="url(#scanlineGrad)">
      <animateTransform attributeName="transform" type="translate"
                        from="0 0" to="1010 0" dur="6s" repeatCount="indefinite"/>
    </rect>
  </g>

  <g font-family="'Consolas', 'Fira Code', monospace" text-anchor="middle">

    <!-- NETWORK STATUS -->
    <g transform="translate(130, 100)">
        <circle cx="0" cy="0" r="45" fill="none" stroke="#39FF14" stroke-width="2" stroke-dasharray="10 5">
            <animateTransform attributeName="transform" type="rotate" from="0" to="360" dur="10s" repeatCount="indefinite"/>
        </circle>
        <circle cx="0" cy="0" r="35" fill="#0d0d0d" />
        <text x="0" y="-60" font-size="12" fill="#aaaaaa" letter-spacing="2">ROOT.AUTH</text>
        <text x="0" y="70" font-size="14" fill="#ffffff" font-weight="bold">OPERATIONAL</text>
    </g>

    <!-- ACTIVE USERS -->
    <g transform="translate(330, 100)">
        <text x="0" y="-20" font-size="12" fill="#aaaaaa">CITIZENS</text>
        <text x="0" y="15" font-size="28" fill="#ffffff" font-weight="bold" filter="url(#textGlow)">14,253</text>
        <text x="0" y="35" font-size="10" fill="#777777">VERIFIED HUMANS</text>
    </g>

    <!-- REGISTERED AGENTS -->
    <g transform="translate(530, 100)">
        <text x="0" y="-20" font-size="12" fill="#aaaaaa">AGENTS</text>
        <text x="0" y="15" font-size="28" fill="#00d4ff" font-weight="bold" filter="url(#textGlow)">3,536</text>
        <text x="0" y="35" font-size="10" fill="#777777">REGISTERED DIDs</text>
    </g>

    <!-- TRANSACTIONS -->
    <g transform="translate(730, 100)">
        <text x="0" y="-20" font-size="12" fill="#aaaaaa">TRANSFERS</text>
        <text x="0" y="15" font-size="28" fill="#ffffff" font-weight="bold">25,272</text>
        <text x="0" y="35" font-size="10" fill="#777777">M2M SETTLEMENTS</text>
    </g>
  </g>

  <text x="425" y="185" font-family="'Consolas', 'Fira Code', monospace" font-size="10" fill="#aaaaaa" opacity="0.6" text-anchor="middle">AXIOMID PROJECTED TARGETS (ILLUSTRATIVE): 2026-06-25 04:24:06 UTC // SECURE_HANDSHAKE</text>
</svg>