<svg width="850" height="200" viewBox="0 0 850 200" xmlns="http://www.w3.org/2000/svg">
  <defs>
    <!-- Carbon Fiber Pattern -->
    <pattern id="carbonFiber" width="10" height="10" patternUnits="userSpaceOnUse">
        <rect width="10" height="10" fill="#050505"/>
        <path d="M0,0 L5,5 L10,0 L5,-5 Z M5,5 L10,10 L15,5 L10,0 Z M-5,5 L0,10 L5,5 L0,0 Z M0,10 L5,15 L10,10 L5,5 Z" fill="#0d0d0d"/>
    </pattern>
    <filter id="glassmorphism">
      <feGaussianBlur stdDeviation="3" result="blur" />
      <feColorMatrix type="matrix" values="1 0 0 0 0  0 1 0 0 0  0 0 1 0 0  0 0 0 18 -7" result="glow" />
      <feBlend in="SourceGraphic" in2="glow" mode="normal" />
    </filter>
    <filter id="textGlow">
      <feGaussianBlur stdDeviation="2" result="blur" />
      <feMerge>
        <feMergeNode in="blur"/>
        <feMergeNode in="SourceGraphic"/>
      </feMerge>
    </filter>
    <linearGradient id="neonBar" x1="0%" y1="0%" x2="100%" y2="0%">
        <stop offset="0%" stop-color="#111111"/>
        <stop offset="100%" stop-color="#39FF14"/>
    </linearGradient>
  </defs>

  <rect width="100%" height="100%" fill="url(#carbonFiber)" rx="12" stroke="#39FF14" stroke-width="1" stroke-opacity="0.3"/>
  <rect width="100%" height="100%" fill="#000000" opacity="0.6" rx="12" />
  <g><polygon points="139,171 147.6,176 147.6,186 139,191 130.4,186 130.4,176" fill="none" stroke="#39FF14" stroke-width="1" opacity="0.07907626318395461"/>
<polygon points="392,165 400.6,170 400.6,180 392,185 383.4,180 383.4,170" fill="none" stroke="#39FF14" stroke-width="1" opacity="0.05042922792301208"/>
<polygon points="239,70 247.6,75 247.6,85 239,90 230.4,85 230.4,75" fill="none" stroke="#39FF14" stroke-width="1" opacity="0.04052378032232283"/>
<polygon points="63,183 71.6,188 71.6,198 63,203 54.4,198 54.4,188" fill="none" stroke="#39FF14" stroke-width="1" opacity="0.07961068906923394"/>
<polygon points="696,94 704.6,99 704.6,109 696,114 687.4,109 687.4,99" fill="none" stroke="#39FF14" stroke-width="1" opacity="0.0345852863196587"/>
<polygon points="177,24 185.6,29 185.6,39 177,44 168.4,39 168.4,29" fill="none" stroke="#39FF14" stroke-width="1" opacity="0.025633659897186793"/>
<polygon points="805,31 813.6,36 813.6,46 805,51 796.4,46 796.4,36" fill="none" stroke="#39FF14" stroke-width="1" opacity="0.06400491389600405"/>
<polygon points="773,49 781.6,54 781.6,64 773,69 764.4,64 764.4,54" fill="none" stroke="#39FF14" stroke-width="1" opacity="0.06443371573861063"/>
<polygon points="662,125 670.6,130 670.6,140 662,145 653.4,140 653.4,130" fill="none" stroke="#39FF14" stroke-width="1" opacity="0.036527667414718745"/>
<polygon points="817,90 825.6,95 825.6,105 817,110 808.4,105 808.4,95" fill="none" stroke="#39FF14" stroke-width="1" opacity="0.07228404038777647"/>
<polygon points="537,15 545.6,20 545.6,30 537,35 528.4,30 528.4,20" fill="none" stroke="#39FF14" stroke-width="1" opacity="0.072522316726239"/>
<polygon points="142,62 150.6,67 150.6,77 142,82 133.4,77 133.4,67" fill="none" stroke="#39FF14" stroke-width="1" opacity="0.0760861058950118"/>
<polygon points="59,188 67.6,193 67.6,203 59,208 50.4,203 50.4,193" fill="none" stroke="#39FF14" stroke-width="1" opacity="0.04004772264997165"/>
<polygon points="138,21 146.6,26 146.6,36 138,41 129.4,36 129.4,26" fill="none" stroke="#39FF14" stroke-width="1" opacity="0.02915239761584188"/>
<polygon points="554,189 562.6,194 562.6,204 554,209 545.4,204 545.4,194" fill="none" stroke="#39FF14" stroke-width="1" opacity="0.032675918023402625"/>
<polygon points="467,4 475.6,9 475.6,19 467,24 458.4,19 458.4,9" fill="none" stroke="#39FF14" stroke-width="1" opacity="0.06559326012262184"/>
<polygon points="57,83 65.6,88 65.6,98 57,103 48.4,98 48.4,88" fill="none" stroke="#39FF14" stroke-width="1" opacity="0.06662903863905979"/>
<polygon points="342,51 350.6,56 350.6,66 342,71 333.4,66 333.4,56" fill="none" stroke="#39FF14" stroke-width="1" opacity="0.061216717233890064"/>
<polygon points="154,85 162.6,90 162.6,100 154,105 145.4,100 145.4,90" fill="none" stroke="#39FF14" stroke-width="1" opacity="0.023846644907114082"/>
<polygon points="696,189 704.6,194 704.6,204 696,209 687.4,204 687.4,194" fill="none" stroke="#39FF14" stroke-width="1" opacity="0.06838133024917882"/>
<polygon points="97,148 105.6,153 105.6,163 97,168 88.4,163 88.4,153" fill="none" stroke="#39FF14" stroke-width="1" opacity="0.07395044513204355"/>
<polygon points="819,166 827.6,171 827.6,181 819,186 810.4,181 810.4,171" fill="none" stroke="#39FF14" stroke-width="1" opacity="0.05647821101285838"/>
<polygon points="387,-4 395.6,1 395.6,11 387,16 378.4,11 378.4,1" fill="none" stroke="#39FF14" stroke-width="1" opacity="0.06995310584793886"/>
<polygon points="737,64 745.6,69 745.6,79 737,84 728.4,79 728.4,69" fill="none" stroke="#39FF14" stroke-width="1" opacity="0.0745627334963506"/>
<polygon points="545,171 553.6,176 553.6,186 545,191 536.4,186 536.4,176" fill="none" stroke="#39FF14" stroke-width="1" opacity="0.022450031475015664"/>
<polygon points="59,80 67.6,85 67.6,95 59,100 50.4,95 50.4,85" fill="none" stroke="#39FF14" stroke-width="1" opacity="0.0670183639522497"/>
<polygon points="104,85 112.6,90 112.6,100 104,105 95.4,100 95.4,90" fill="none" stroke="#39FF14" stroke-width="1" opacity="0.03841461043644873"/>
<polygon points="554,145 562.6,150 562.6,160 554,165 545.4,160 545.4,150" fill="none" stroke="#39FF14" stroke-width="1" opacity="0.054487392446838506"/>
<polygon points="550,86 558.6,91 558.6,101 550,106 541.4,101 541.4,91" fill="none" stroke="#39FF14" stroke-width="1" opacity="0.025763624382490524"/>
<polygon points="216,129 224.6,134 224.6,144 216,149 207.4,144 207.4,134" fill="none" stroke="#39FF14" stroke-width="1" opacity="0.03223961967284676"/>
</g>

  <!-- HUD Decorative elements -->
  <path d="M 20 20 L 40 20 L 50 30" fill="none" stroke="#39FF14" stroke-width="2" opacity="0.5"/>
  <path d="M 830 180 L 810 180 L 800 170" fill="none" stroke="#39FF14" stroke-width="2" opacity="0.5"/>
  <rect x="20" y="100" width="2" height="40" fill="#ffffff" opacity="0.4"/>
  <rect x="828" y="60" width="2" height="40" fill="#39FF14" opacity="0.6"/>

  <g font-family="'Consolas', 'Fira Code', monospace" text-anchor="middle">

    <!-- SYSTEM STATUS -->
    <g transform="translate(130, 100)">
        <circle cx="0" cy="0" r="45" fill="none" stroke="#111111" stroke-width="8" />
        <circle cx="0" cy="0" r="45" fill="none" stroke="#39FF14" stroke-width="2" stroke-dasharray="10 5">
            <animateTransform attributeName="transform" type="rotate" from="0" to="360" dur="10s" repeatCount="indefinite"/>
        </circle>
        <circle cx="0" cy="0" r="35" fill="#0d0d0d" />
        <circle cx="0" cy="0" r="6" fill="#39FF14" filter="url(#textGlow)">
            <animate attributeName="opacity" values="1;0.3;1" dur="2s" repeatCount="indefinite"/>
        </circle>
        <text x="0" y="-60" font-size="12" fill="#aaaaaa" letter-spacing="2">SYS.CORE</text>
        <text x="0" y="70" font-size="14" fill="#ffffff" font-weight="bold">ONLINE</text>
    </g>

    <!-- LIVE TRAFFIC -->
    <g transform="translate(330, 100)">
        <rect x="-60" y="-45" width="120" height="90" fill="#0a0a0a" rx="8" stroke="#39FF14" stroke-opacity="0.4" stroke-width="1"/>
        <text x="0" y="-20" font-size="12" fill="#aaaaaa">NETWORK LOAD</text>
        <text x="0" y="15" font-size="28" fill="#ffffff" font-weight="bold" filter="url(#textGlow)">4039</text>
        <text x="0" y="35" font-size="10" fill="#777777">ACTIVE SESSIONS</text>
    </g>

    <!-- ACTIVE AGENTS -->
    <g transform="translate(530, 100)">
        <rect x="-60" y="-45" width="120" height="90" fill="#0a0a0a" rx="8" stroke="#39FF14" stroke-opacity="0.4" stroke-width="1"/>
        <text x="0" y="-20" font-size="12" fill="#aaaaaa">SWARM ENTITIES</text>
        <text x="0" y="15" font-size="28" fill="#ffffff" font-weight="bold" filter="url(#textGlow)">143</text>
        <text x="0" y="35" font-size="10" fill="#777777">AUTONOMOUS</text>
    </g>

    <!-- UPTIME -->
    <g transform="translate(730, 100)">
        <path d="M -40 -35 L 40 -35 L 50 -25 L 50 35 L -40 35 L -50 25 Z" fill="#0a0a0a" stroke="#39FF14" stroke-opacity="0.4" stroke-width="1"/>
        <text x="0" y="-15" font-size="12" fill="#aaaaaa">CONTINUITY</text>
        <text x="0" y="15" font-size="24" fill="#ffffff" font-weight="bold">288<tspan font-size="14" fill="#777777">d</tspan></text>
        <rect x="-35" y="25" width="70" height="4" fill="url(#neonBar)" rx="2"/>
    </g>
  </g>

  <text x="425" y="185" font-family="'Consolas', 'Fira Code', monospace" font-size="10" fill="#aaaaaa" opacity="0.6" text-anchor="middle">LAST TELEMETRY PING: 2026-04-29 06:57:07 UTC // ENCRYPTED_TUNNEL</text>
</svg>