<svg width="850" height="200" viewBox="0 0 850 200" xmlns="http://www.w3.org/2000/svg">
  <defs>
    <pattern id="carbonFiber" width="10" height="10" patternUnits="userSpaceOnUse">
        <rect width="10" height="10" fill="#050505"/>
        <path d="M0,0 L5,5 L10,0 L5,-5 Z M5,5 L10,10 L15,5 L10,0 Z M-5,5 L0,10 L5,5 L0,0 Z M0,10 L5,15 L10,10 L5,5 Z" fill="#0d0d0d"/>
    </pattern>
    <filter id="textGlow">
      <feGaussianBlur stdDeviation="2" result="blur" />
      <feMerge>
        <feMergeNode in="blur"/>
        <feMergeNode in="SourceGraphic"/>
      </feMerge>
    </filter>
    <linearGradient id="neonBar" x1="0%" y1="0%" x2="100%" y2="0%">
        <stop offset="0%" stop-color="#111111"/>
        <stop offset="100%" stop-color="#39FF14"/>
    </linearGradient>
    <linearGradient id="scanlineGrad" x1="0%" y1="0%" x2="100%" y2="0%">
        <stop offset="0%" stop-color="#39FF14" stop-opacity="0"/>
        <stop offset="50%" stop-color="#39FF14" stop-opacity="0.18"/>
        <stop offset="100%" stop-color="#39FF14" stop-opacity="0"/>
    </linearGradient>
    <clipPath id="dashClip">
        <rect x="0" y="0" width="850" height="200" rx="12"/>
    </clipPath>
  </defs>

  <rect width="100%" height="100%" fill="url(#carbonFiber)" rx="12" stroke="#39FF14" stroke-width="1" stroke-opacity="0.3"/>
  <rect width="100%" height="100%" fill="#000000" opacity="0.6" rx="12" />
  <g><polygon points="103,52 111.6,57 111.6,67 103,72 94.4,67 94.4,57" fill="none" stroke="#39FF14" stroke-width="1" opacity="0.06909896516415161"/>
<polygon points="368,58 376.6,63 376.6,73 368,78 359.4,73 359.4,63" fill="none" stroke="#39FF14" stroke-width="1" opacity="0.02043170981582599"/>
<polygon points="658,138 666.6,143 666.6,153 658,158 649.4,153 649.4,143" fill="none" stroke="#39FF14" stroke-width="1" opacity="0.032402891755978075"/>
<polygon points="342,10 350.6,15 350.6,25 342,30 333.4,25 333.4,15" fill="none" stroke="#39FF14" stroke-width="1" opacity="0.055186155803052334"/>
<polygon points="0,-5 8.6,0 8.6,10 0,15 -8.6,10 -8.6,0" fill="none" stroke="#39FF14" stroke-width="1" opacity="0.07345563267393429"/>
<polygon points="664,51 672.6,56 672.6,66 664,71 655.4,66 655.4,56" fill="none" stroke="#39FF14" stroke-width="1" opacity="0.0552708285813677"/>
<polygon points="502,21 510.6,26 510.6,36 502,41 493.4,36 493.4,26" fill="none" stroke="#39FF14" stroke-width="1" opacity="0.027656533431864676"/>
<polygon points="142,112 150.6,117 150.6,127 142,132 133.4,127 133.4,117" fill="none" stroke="#39FF14" stroke-width="1" opacity="0.0723094349995327"/>
<polygon points="427,66 435.6,71 435.6,81 427,86 418.4,81 418.4,71" fill="none" stroke="#39FF14" stroke-width="1" opacity="0.05421058585812609"/>
<polygon points="685,151 693.6,156 693.6,166 685,171 676.4,166 676.4,156" fill="none" stroke="#39FF14" stroke-width="1" opacity="0.07596462931155702"/>
<polygon points="255,104 263.6,109 263.6,119 255,124 246.4,119 246.4,109" fill="none" stroke="#39FF14" stroke-width="1" opacity="0.07992580477237825"/>
<polygon points="528,98 536.6,103 536.6,113 528,118 519.4,113 519.4,103" fill="none" stroke="#39FF14" stroke-width="1" opacity="0.036191788590983"/>
<polygon points="261,145 269.6,150 269.6,160 261,165 252.4,160 252.4,150" fill="none" stroke="#39FF14" stroke-width="1" opacity="0.04929329849705903"/>
<polygon points="516,71 524.6,76 524.6,86 516,91 507.4,86 507.4,76" fill="none" stroke="#39FF14" stroke-width="1" opacity="0.03960714724988687"/>
<polygon points="541,-9 549.6,-4 549.6,6 541,11 532.4,6 532.4,-4" fill="none" stroke="#39FF14" stroke-width="1" opacity="0.022301282051847227"/>
<polygon points="665,22 673.6,27 673.6,37 665,42 656.4,37 656.4,27" fill="none" stroke="#39FF14" stroke-width="1" opacity="0.04947253473706445"/>
<polygon points="371,98 379.6,103 379.6,113 371,118 362.4,113 362.4,103" fill="none" stroke="#39FF14" stroke-width="1" opacity="0.03981759227849252"/>
<polygon points="467,125 475.6,130 475.6,140 467,145 458.4,140 458.4,130" fill="none" stroke="#39FF14" stroke-width="1" opacity="0.048493795294985764"/>
<polygon points="633,61 641.6,66 641.6,76 633,81 624.4,76 624.4,66" fill="none" stroke="#39FF14" stroke-width="1" opacity="0.03923881875960091"/>
<polygon points="3,174 11.6,179 11.6,189 3,194 -5.6,189 -5.6,179" fill="none" stroke="#39FF14" stroke-width="1" opacity="0.0358257039562062"/>
<polygon points="251,158 259.6,163 259.6,173 251,178 242.4,173 242.4,163" fill="none" stroke="#39FF14" stroke-width="1" opacity="0.024544268391149145"/>
<polygon points="135,-7 143.6,-2 143.6,8 135,13 126.4,8 126.4,-2" fill="none" stroke="#39FF14" stroke-width="1" opacity="0.0647002570203851"/>
<polygon points="795,164 803.6,169 803.6,179 795,184 786.4,179 786.4,169" fill="none" stroke="#39FF14" stroke-width="1" opacity="0.027969099861756653"/>
<polygon points="283,-6 291.6,-1 291.6,9 283,14 274.4,9 274.4,-1" fill="none" stroke="#39FF14" stroke-width="1" opacity="0.05488218777998147"/>
<polygon points="255,144 263.6,149 263.6,159 255,164 246.4,159 246.4,149" fill="none" stroke="#39FF14" stroke-width="1" opacity="0.048107943849104856"/>
<polygon points="425,66 433.6,71 433.6,81 425,86 416.4,81 416.4,71" fill="none" stroke="#39FF14" stroke-width="1" opacity="0.06347555050402287"/>
<polygon points="385,114 393.6,119 393.6,129 385,134 376.4,129 376.4,119" fill="none" stroke="#39FF14" stroke-width="1" opacity="0.07974185406822074"/>
<polygon points="617,68 625.6,73 625.6,83 617,88 608.4,83 608.4,73" fill="none" stroke="#39FF14" stroke-width="1" opacity="0.027967887885894244"/>
<polygon points="613,71 621.6,76 621.6,86 613,91 604.4,86 604.4,76" fill="none" stroke="#39FF14" stroke-width="1" opacity="0.07301126324705177"/>
<polygon points="507,102 515.6,107 515.6,117 507,122 498.4,117 498.4,107" fill="none" stroke="#39FF14" stroke-width="1" opacity="0.052431481736917196"/>
</g>

  <!-- HUD Decorative elements -->
  <path d="M 20 20 L 40 20 L 50 30" fill="none" stroke="#39FF14" stroke-width="2" opacity="0.5"/>
  <path d="M 830 180 L 810 180 L 800 170" fill="none" stroke="#39FF14" stroke-width="2" opacity="0.5"/>

  <g clip-path="url(#dashClip)">
    <rect x="-160" y="0" width="160" height="200" fill="url(#scanlineGrad)">
      <animateTransform attributeName="transform" type="translate"
                        from="0 0" to="1010 0" dur="6s" repeatCount="indefinite"/>
    </rect>
  </g>

  <g font-family="'Consolas', 'Fira Code', monospace" text-anchor="middle">

    <!-- NETWORK STATUS -->
    <g transform="translate(130, 100)">
        <circle cx="0" cy="0" r="45" fill="none" stroke="#39FF14" stroke-width="2" stroke-dasharray="10 5">
            <animateTransform attributeName="transform" type="rotate" from="0" to="360" dur="10s" repeatCount="indefinite"/>
        </circle>
        <circle cx="0" cy="0" r="35" fill="#0d0d0d" />
        <text x="0" y="-60" font-size="12" fill="#aaaaaa" letter-spacing="2">ROOT.AUTH</text>
        <text x="0" y="70" font-size="14" fill="#ffffff" font-weight="bold">OPERATIONAL</text>
    </g>

    <!-- ACTIVE USERS -->
    <g transform="translate(330, 100)">
        <text x="0" y="-20" font-size="12" fill="#aaaaaa">CITIZENS</text>
        <text x="0" y="15" font-size="28" fill="#ffffff" font-weight="bold" filter="url(#textGlow)">12,787</text>
        <text x="0" y="35" font-size="10" fill="#777777">VERIFIED HUMANS</text>
    </g>

    <!-- REGISTERED AGENTS -->
    <g transform="translate(530, 100)">
        <text x="0" y="-20" font-size="12" fill="#aaaaaa">AGENTS</text>
        <text x="0" y="15" font-size="28" fill="#00d4ff" font-weight="bold" filter="url(#textGlow)">4,195</text>
        <text x="0" y="35" font-size="10" fill="#777777">REGISTERED DIDs</text>
    </g>

    <!-- TRANSACTIONS -->
    <g transform="translate(730, 100)">
        <text x="0" y="-20" font-size="12" fill="#aaaaaa">TRANSFERS</text>
        <text x="0" y="15" font-size="28" fill="#ffffff" font-weight="bold">36,391</text>
        <text x="0" y="35" font-size="10" fill="#777777">M2M SETTLEMENTS</text>
    </g>
  </g>

  <text x="425" y="185" font-family="'Consolas', 'Fira Code', monospace" font-size="10" fill="#aaaaaa" opacity="0.6" text-anchor="middle">AXIOMID PROJECTED TARGETS (ILLUSTRATIVE): 2026-07-04 18:56:06 UTC // SECURE_HANDSHAKE</text>
</svg>