<svg width="850" height="200" viewBox="0 0 850 200" xmlns="http://www.w3.org/2000/svg">
  <defs>
    <!-- Carbon Fiber Pattern -->
    <pattern id="carbonFiber" width="10" height="10" patternUnits="userSpaceOnUse">
        <rect width="10" height="10" fill="#050505"/>
        <path d="M0,0 L5,5 L10,0 L5,-5 Z M5,5 L10,10 L15,5 L10,0 Z M-5,5 L0,10 L5,5 L0,0 Z M0,10 L5,15 L10,10 L5,5 Z" fill="#0d0d0d"/>
    </pattern>
    <filter id="glassmorphism">
      <feGaussianBlur stdDeviation="3" result="blur" />
      <feColorMatrix type="matrix" values="1 0 0 0 0  0 1 0 0 0  0 0 1 0 0  0 0 0 18 -7" result="glow" />
      <feBlend in="SourceGraphic" in2="glow" mode="normal" />
    </filter>
    <filter id="textGlow">
      <feGaussianBlur stdDeviation="2" result="blur" />
      <feMerge>
        <feMergeNode in="blur"/>
        <feMergeNode in="SourceGraphic"/>
      </feMerge>
    </filter>
    <linearGradient id="neonBar" x1="0%" y1="0%" x2="100%" y2="0%">
        <stop offset="0%" stop-color="#111111"/>
        <stop offset="100%" stop-color="#39FF14"/>
    </linearGradient>
  </defs>

  <rect width="100%" height="100%" fill="url(#carbonFiber)" rx="12" stroke="#39FF14" stroke-width="1" stroke-opacity="0.3"/>
  <rect width="100%" height="100%" fill="#000000" opacity="0.6" rx="12" />
  <g><polygon points="331,170 339.6,175 339.6,185 331,190 322.4,185 322.4,175" fill="none" stroke="#39FF14" stroke-width="1" opacity="0.03345681697016804"/>
<polygon points="489,162 497.6,167 497.6,177 489,182 480.4,177 480.4,167" fill="none" stroke="#39FF14" stroke-width="1" opacity="0.0681612824019467"/>
<polygon points="59,-5 67.6,0 67.6,10 59,15 50.4,10 50.4,0" fill="none" stroke="#39FF14" stroke-width="1" opacity="0.02751081803069275"/>
<polygon points="5,171 13.6,176 13.6,186 5,191 -3.5999999999999996,186 -3.5999999999999996,176" fill="none" stroke="#39FF14" stroke-width="1" opacity="0.07264946915092008"/>
<polygon points="248,123 256.6,128 256.6,138 248,143 239.4,138 239.4,128" fill="none" stroke="#39FF14" stroke-width="1" opacity="0.06162080312332925"/>
<polygon points="730,9 738.6,14 738.6,24 730,29 721.4,24 721.4,14" fill="none" stroke="#39FF14" stroke-width="1" opacity="0.03998317278560477"/>
<polygon points="494,32 502.6,37 502.6,47 494,52 485.4,47 485.4,37" fill="none" stroke="#39FF14" stroke-width="1" opacity="0.0741839388739037"/>
<polygon points="628,111 636.6,116 636.6,126 628,131 619.4,126 619.4,116" fill="none" stroke="#39FF14" stroke-width="1" opacity="0.049525408535650337"/>
<polygon points="269,141 277.6,146 277.6,156 269,161 260.4,156 260.4,146" fill="none" stroke="#39FF14" stroke-width="1" opacity="0.04550496792915265"/>
<polygon points="207,89 215.6,94 215.6,104 207,109 198.4,104 198.4,94" fill="none" stroke="#39FF14" stroke-width="1" opacity="0.033132852509650625"/>
<polygon points="532,42 540.6,47 540.6,57 532,62 523.4,57 523.4,47" fill="none" stroke="#39FF14" stroke-width="1" opacity="0.04709457118214102"/>
<polygon points="169,164 177.6,169 177.6,179 169,184 160.4,179 160.4,169" fill="none" stroke="#39FF14" stroke-width="1" opacity="0.049876789395144464"/>
<polygon points="228,37 236.6,42 236.6,52 228,57 219.4,52 219.4,42" fill="none" stroke="#39FF14" stroke-width="1" opacity="0.07525423470084723"/>
<polygon points="695,132 703.6,137 703.6,147 695,152 686.4,147 686.4,137" fill="none" stroke="#39FF14" stroke-width="1" opacity="0.061601147778335724"/>
<polygon points="707,127 715.6,132 715.6,142 707,147 698.4,142 698.4,132" fill="none" stroke="#39FF14" stroke-width="1" opacity="0.05666215604050173"/>
<polygon points="342,62 350.6,67 350.6,77 342,82 333.4,77 333.4,67" fill="none" stroke="#39FF14" stroke-width="1" opacity="0.04197203642905528"/>
<polygon points="453,38 461.6,43 461.6,53 453,58 444.4,53 444.4,43" fill="none" stroke="#39FF14" stroke-width="1" opacity="0.06628789626486095"/>
<polygon points="284,155 292.6,160 292.6,170 284,175 275.4,170 275.4,160" fill="none" stroke="#39FF14" stroke-width="1" opacity="0.05354158785967997"/>
<polygon points="48,138 56.6,143 56.6,153 48,158 39.4,153 39.4,143" fill="none" stroke="#39FF14" stroke-width="1" opacity="0.06875600532471352"/>
<polygon points="636,86 644.6,91 644.6,101 636,106 627.4,101 627.4,91" fill="none" stroke="#39FF14" stroke-width="1" opacity="0.04496694413529276"/>
<polygon points="710,-1 718.6,4 718.6,14 710,19 701.4,14 701.4,4" fill="none" stroke="#39FF14" stroke-width="1" opacity="0.055666363656678985"/>
<polygon points="127,143 135.6,148 135.6,158 127,163 118.4,158 118.4,148" fill="none" stroke="#39FF14" stroke-width="1" opacity="0.07767891018244276"/>
<polygon points="754,10 762.6,15 762.6,25 754,30 745.4,25 745.4,15" fill="none" stroke="#39FF14" stroke-width="1" opacity="0.05844944238878899"/>
<polygon points="143,122 151.6,127 151.6,137 143,142 134.4,137 134.4,127" fill="none" stroke="#39FF14" stroke-width="1" opacity="0.06906053943940833"/>
<polygon points="279,52 287.6,57 287.6,67 279,72 270.4,67 270.4,57" fill="none" stroke="#39FF14" stroke-width="1" opacity="0.05411260886697736"/>
<polygon points="768,69 776.6,74 776.6,84 768,89 759.4,84 759.4,74" fill="none" stroke="#39FF14" stroke-width="1" opacity="0.0691779945565203"/>
<polygon points="598,23 606.6,28 606.6,38 598,43 589.4,38 589.4,28" fill="none" stroke="#39FF14" stroke-width="1" opacity="0.03318185006738573"/>
<polygon points="84,107 92.6,112 92.6,122 84,127 75.4,122 75.4,112" fill="none" stroke="#39FF14" stroke-width="1" opacity="0.07547385102508108"/>
<polygon points="212,97 220.6,102 220.6,112 212,117 203.4,112 203.4,102" fill="none" stroke="#39FF14" stroke-width="1" opacity="0.03779444135165219"/>
<polygon points="813,130 821.6,135 821.6,145 813,150 804.4,145 804.4,135" fill="none" stroke="#39FF14" stroke-width="1" opacity="0.04270880014761055"/>
</g>

  <!-- HUD Decorative elements -->
  <path d="M 20 20 L 40 20 L 50 30" fill="none" stroke="#39FF14" stroke-width="2" opacity="0.5"/>
  <path d="M 830 180 L 810 180 L 800 170" fill="none" stroke="#39FF14" stroke-width="2" opacity="0.5"/>
  <rect x="20" y="100" width="2" height="40" fill="#ffffff" opacity="0.4"/>
  <rect x="828" y="60" width="2" height="40" fill="#39FF14" opacity="0.6"/>

  <g font-family="'Consolas', 'Fira Code', monospace" text-anchor="middle">

    <!-- SYSTEM STATUS -->
    <g transform="translate(130, 100)">
        <circle cx="0" cy="0" r="45" fill="none" stroke="#111111" stroke-width="8" />
        <circle cx="0" cy="0" r="45" fill="none" stroke="#39FF14" stroke-width="2" stroke-dasharray="10 5">
            <animateTransform attributeName="transform" type="rotate" from="0" to="360" dur="10s" repeatCount="indefinite"/>
        </circle>
        <circle cx="0" cy="0" r="35" fill="#0d0d0d" />
        <circle cx="0" cy="0" r="6" fill="#39FF14" filter="url(#textGlow)">
            <animate attributeName="opacity" values="1;0.3;1" dur="2s" repeatCount="indefinite"/>
        </circle>
        <text x="0" y="-60" font-size="12" fill="#aaaaaa" letter-spacing="2">SYS.CORE</text>
        <text x="0" y="70" font-size="14" fill="#ffffff" font-weight="bold">ONLINE</text>
    </g>

    <!-- LIVE TRAFFIC -->
    <g transform="translate(330, 100)">
        <rect x="-60" y="-45" width="120" height="90" fill="#0a0a0a" rx="8" stroke="#39FF14" stroke-opacity="0.4" stroke-width="1"/>
        <text x="0" y="-20" font-size="12" fill="#aaaaaa">NETWORK LOAD</text>
        <text x="0" y="15" font-size="28" fill="#ffffff" font-weight="bold" filter="url(#textGlow)">4349</text>
        <text x="0" y="35" font-size="10" fill="#777777">ACTIVE SESSIONS</text>
    </g>

    <!-- ACTIVE AGENTS -->
    <g transform="translate(530, 100)">
        <rect x="-60" y="-45" width="120" height="90" fill="#0a0a0a" rx="8" stroke="#39FF14" stroke-opacity="0.4" stroke-width="1"/>
        <text x="0" y="-20" font-size="12" fill="#aaaaaa">SWARM ENTITIES</text>
        <text x="0" y="15" font-size="28" fill="#ffffff" font-weight="bold" filter="url(#textGlow)">82</text>
        <text x="0" y="35" font-size="10" fill="#777777">AUTONOMOUS</text>
    </g>

    <!-- UPTIME -->
    <g transform="translate(730, 100)">
        <path d="M -40 -35 L 40 -35 L 50 -25 L 50 35 L -40 35 L -50 25 Z" fill="#0a0a0a" stroke="#39FF14" stroke-opacity="0.4" stroke-width="1"/>
        <text x="0" y="-15" font-size="12" fill="#aaaaaa">CONTINUITY</text>
        <text x="0" y="15" font-size="24" fill="#ffffff" font-weight="bold">201<tspan font-size="14" fill="#777777">d</tspan></text>
        <rect x="-35" y="25" width="70" height="4" fill="url(#neonBar)" rx="2"/>
    </g>
  </g>

  <text x="425" y="185" font-family="'Consolas', 'Fira Code', monospace" font-size="10" fill="#aaaaaa" opacity="0.6" text-anchor="middle">LAST TELEMETRY PING: 2026-05-07 00:50:16 UTC // ENCRYPTED_TUNNEL</text>
</svg>