<svg width="850" height="200" viewBox="0 0 850 200" xmlns="http://www.w3.org/2000/svg">
  <defs>
    <pattern id="carbonFiber" width="10" height="10" patternUnits="userSpaceOnUse">
        <rect width="10" height="10" fill="#050505"/>
        <path d="M0,0 L5,5 L10,0 L5,-5 Z M5,5 L10,10 L15,5 L10,0 Z M-5,5 L0,10 L5,5 L0,0 Z M0,10 L5,15 L10,10 L5,5 Z" fill="#0d0d0d"/>
    </pattern>
    <filter id="textGlow">
      <feGaussianBlur stdDeviation="2" result="blur" />
      <feMerge>
        <feMergeNode in="blur"/>
        <feMergeNode in="SourceGraphic"/>
      </feMerge>
    </filter>
    <linearGradient id="neonBar" x1="0%" y1="0%" x2="100%" y2="0%">
        <stop offset="0%" stop-color="#111111"/>
        <stop offset="100%" stop-color="#39FF14"/>
    </linearGradient>
    <linearGradient id="scanlineGrad" x1="0%" y1="0%" x2="100%" y2="0%">
        <stop offset="0%" stop-color="#39FF14" stop-opacity="0"/>
        <stop offset="50%" stop-color="#39FF14" stop-opacity="0.18"/>
        <stop offset="100%" stop-color="#39FF14" stop-opacity="0"/>
    </linearGradient>
    <clipPath id="dashClip">
        <rect x="0" y="0" width="850" height="200" rx="12"/>
    </clipPath>
  </defs>

  <rect width="100%" height="100%" fill="url(#carbonFiber)" rx="12" stroke="#39FF14" stroke-width="1" stroke-opacity="0.3"/>
  <rect width="100%" height="100%" fill="#000000" opacity="0.6" rx="12" />
  <g><polygon points="788,145 796.6,150 796.6,160 788,165 779.4,160 779.4,150" fill="none" stroke="#39FF14" stroke-width="1" opacity="0.05180880763124622"/>
<polygon points="623,89 631.6,94 631.6,104 623,109 614.4,104 614.4,94" fill="none" stroke="#39FF14" stroke-width="1" opacity="0.020986920191667424"/>
<polygon points="592,22 600.6,27 600.6,37 592,42 583.4,37 583.4,27" fill="none" stroke="#39FF14" stroke-width="1" opacity="0.03906604600268438"/>
<polygon points="657,104 665.6,109 665.6,119 657,124 648.4,119 648.4,109" fill="none" stroke="#39FF14" stroke-width="1" opacity="0.05834849187224572"/>
<polygon points="409,-7 417.6,-2 417.6,8 409,13 400.4,8 400.4,-2" fill="none" stroke="#39FF14" stroke-width="1" opacity="0.044693773726521446"/>
<polygon points="71,71 79.6,76 79.6,86 71,91 62.4,86 62.4,76" fill="none" stroke="#39FF14" stroke-width="1" opacity="0.0666002718644835"/>
<polygon points="423,5 431.6,10 431.6,20 423,25 414.4,20 414.4,10" fill="none" stroke="#39FF14" stroke-width="1" opacity="0.0695412597271834"/>
<polygon points="703,13 711.6,18 711.6,28 703,33 694.4,28 694.4,18" fill="none" stroke="#39FF14" stroke-width="1" opacity="0.0440753861910629"/>
<polygon points="149,34 157.6,39 157.6,49 149,54 140.4,49 140.4,39" fill="none" stroke="#39FF14" stroke-width="1" opacity="0.06792767170532457"/>
<polygon points="841,129 849.6,134 849.6,144 841,149 832.4,144 832.4,134" fill="none" stroke="#39FF14" stroke-width="1" opacity="0.06396719383539755"/>
<polygon points="811,12 819.6,17 819.6,27 811,32 802.4,27 802.4,17" fill="none" stroke="#39FF14" stroke-width="1" opacity="0.03242746897302359"/>
<polygon points="13,190 21.6,195 21.6,205 13,210 4.4,205 4.4,195" fill="none" stroke="#39FF14" stroke-width="1" opacity="0.06351045877213536"/>
<polygon points="135,171 143.6,176 143.6,186 135,191 126.4,186 126.4,176" fill="none" stroke="#39FF14" stroke-width="1" opacity="0.05989160466045536"/>
<polygon points="725,131 733.6,136 733.6,146 725,151 716.4,146 716.4,136" fill="none" stroke="#39FF14" stroke-width="1" opacity="0.07130519809377077"/>
<polygon points="442,154 450.6,159 450.6,169 442,174 433.4,169 433.4,159" fill="none" stroke="#39FF14" stroke-width="1" opacity="0.02463373694566868"/>
<polygon points="627,140 635.6,145 635.6,155 627,160 618.4,155 618.4,145" fill="none" stroke="#39FF14" stroke-width="1" opacity="0.06131739865312305"/>
<polygon points="145,-7 153.6,-2 153.6,8 145,13 136.4,8 136.4,-2" fill="none" stroke="#39FF14" stroke-width="1" opacity="0.04806521855866662"/>
<polygon points="739,176 747.6,181 747.6,191 739,196 730.4,191 730.4,181" fill="none" stroke="#39FF14" stroke-width="1" opacity="0.027251143846186092"/>
<polygon points="78,169 86.6,174 86.6,184 78,189 69.4,184 69.4,174" fill="none" stroke="#39FF14" stroke-width="1" opacity="0.06757964610394243"/>
<polygon points="735,173 743.6,178 743.6,188 735,193 726.4,188 726.4,178" fill="none" stroke="#39FF14" stroke-width="1" opacity="0.021044477579736504"/>
<polygon points="745,45 753.6,50 753.6,60 745,65 736.4,60 736.4,50" fill="none" stroke="#39FF14" stroke-width="1" opacity="0.06386763723259464"/>
<polygon points="92,90 100.6,95 100.6,105 92,110 83.4,105 83.4,95" fill="none" stroke="#39FF14" stroke-width="1" opacity="0.03013420658593081"/>
<polygon points="298,61 306.6,66 306.6,76 298,81 289.4,76 289.4,66" fill="none" stroke="#39FF14" stroke-width="1" opacity="0.07994792256788442"/>
<polygon points="547,173 555.6,178 555.6,188 547,193 538.4,188 538.4,178" fill="none" stroke="#39FF14" stroke-width="1" opacity="0.0644965155489288"/>
<polygon points="620,85 628.6,90 628.6,100 620,105 611.4,100 611.4,90" fill="none" stroke="#39FF14" stroke-width="1" opacity="0.04573864067247155"/>
<polygon points="182,122 190.6,127 190.6,137 182,142 173.4,137 173.4,127" fill="none" stroke="#39FF14" stroke-width="1" opacity="0.028839946580800156"/>
<polygon points="276,-8 284.6,-3 284.6,7 276,12 267.4,7 267.4,-3" fill="none" stroke="#39FF14" stroke-width="1" opacity="0.06450344077421585"/>
<polygon points="87,-5 95.6,0 95.6,10 87,15 78.4,10 78.4,0" fill="none" stroke="#39FF14" stroke-width="1" opacity="0.03517991529557851"/>
<polygon points="299,159 307.6,164 307.6,174 299,179 290.4,174 290.4,164" fill="none" stroke="#39FF14" stroke-width="1" opacity="0.07821415565539915"/>
<polygon points="280,39 288.6,44 288.6,54 280,59 271.4,54 271.4,44" fill="none" stroke="#39FF14" stroke-width="1" opacity="0.06214752418804112"/>
</g>

  <!-- HUD Decorative elements -->
  <path d="M 20 20 L 40 20 L 50 30" fill="none" stroke="#39FF14" stroke-width="2" opacity="0.5"/>
  <path d="M 830 180 L 810 180 L 800 170" fill="none" stroke="#39FF14" stroke-width="2" opacity="0.5"/>

  <g clip-path="url(#dashClip)">
    <rect x="-160" y="0" width="160" height="200" fill="url(#scanlineGrad)">
      <animateTransform attributeName="transform" type="translate"
                        from="0 0" to="1010 0" dur="6s" repeatCount="indefinite"/>
    </rect>
  </g>

  <g font-family="'Consolas', 'Fira Code', monospace" text-anchor="middle">

    <!-- NETWORK STATUS -->
    <g transform="translate(130, 100)">
        <circle cx="0" cy="0" r="45" fill="none" stroke="#39FF14" stroke-width="2" stroke-dasharray="10 5">
            <animateTransform attributeName="transform" type="rotate" from="0" to="360" dur="10s" repeatCount="indefinite"/>
        </circle>
        <circle cx="0" cy="0" r="35" fill="#0d0d0d" />
        <text x="0" y="-60" font-size="12" fill="#aaaaaa" letter-spacing="2">ROOT.AUTH</text>
        <text x="0" y="70" font-size="14" fill="#ffffff" font-weight="bold">OPERATIONAL</text>
    </g>

    <!-- ACTIVE USERS -->
    <g transform="translate(330, 100)">
        <text x="0" y="-20" font-size="12" fill="#aaaaaa">CITIZENS</text>
        <text x="0" y="15" font-size="28" fill="#ffffff" font-weight="bold" filter="url(#textGlow)">14,063</text>
        <text x="0" y="35" font-size="10" fill="#777777">VERIFIED HUMANS</text>
    </g>

    <!-- REGISTERED AGENTS -->
    <g transform="translate(530, 100)">
        <text x="0" y="-20" font-size="12" fill="#aaaaaa">AGENTS</text>
        <text x="0" y="15" font-size="28" fill="#00d4ff" font-weight="bold" filter="url(#textGlow)">3,570</text>
        <text x="0" y="35" font-size="10" fill="#777777">REGISTERED DIDs</text>
    </g>

    <!-- TRANSACTIONS -->
    <g transform="translate(730, 100)">
        <text x="0" y="-20" font-size="12" fill="#aaaaaa">TRANSFERS</text>
        <text x="0" y="15" font-size="28" fill="#ffffff" font-weight="bold">30,901</text>
        <text x="0" y="35" font-size="10" fill="#777777">M2M SETTLEMENTS</text>
    </g>
  </g>

  <text x="425" y="185" font-family="'Consolas', 'Fira Code', monospace" font-size="10" fill="#aaaaaa" opacity="0.6" text-anchor="middle">AXIOMID PROJECTED TARGETS (ILLUSTRATIVE): 2026-06-26 18:32:42 UTC // SECURE_HANDSHAKE</text>
</svg>