<svg width="850" height="200" viewBox="0 0 850 200" xmlns="http://www.w3.org/2000/svg">
  <defs>
    <pattern id="carbonFiber" width="10" height="10" patternUnits="userSpaceOnUse">
        <rect width="10" height="10" fill="#050505"/>
        <path d="M0,0 L5,5 L10,0 L5,-5 Z M5,5 L10,10 L15,5 L10,0 Z M-5,5 L0,10 L5,5 L0,0 Z M0,10 L5,15 L10,10 L5,5 Z" fill="#0d0d0d"/>
    </pattern>
    <filter id="textGlow">
      <feGaussianBlur stdDeviation="2" result="blur" />
      <feMerge>
        <feMergeNode in="blur"/>
        <feMergeNode in="SourceGraphic"/>
      </feMerge>
    </filter>
    <linearGradient id="neonBar" x1="0%" y1="0%" x2="100%" y2="0%">
        <stop offset="0%" stop-color="#111111"/>
        <stop offset="100%" stop-color="#39FF14"/>
    </linearGradient>
    <linearGradient id="scanlineGrad" x1="0%" y1="0%" x2="100%" y2="0%">
        <stop offset="0%" stop-color="#39FF14" stop-opacity="0"/>
        <stop offset="50%" stop-color="#39FF14" stop-opacity="0.18"/>
        <stop offset="100%" stop-color="#39FF14" stop-opacity="0"/>
    </linearGradient>
    <clipPath id="dashClip">
        <rect x="0" y="0" width="850" height="200" rx="12"/>
    </clipPath>
  </defs>

  <rect width="100%" height="100%" fill="url(#carbonFiber)" rx="12" stroke="#39FF14" stroke-width="1" stroke-opacity="0.3"/>
  <rect width="100%" height="100%" fill="#000000" opacity="0.6" rx="12" />
  <g><polygon points="256,73 264.6,78 264.6,88 256,93 247.4,88 247.4,78" fill="none" stroke="#39FF14" stroke-width="1" opacity="0.04177885682376693"/>
<polygon points="326,45 334.6,50 334.6,60 326,65 317.4,60 317.4,50" fill="none" stroke="#39FF14" stroke-width="1" opacity="0.0594138551495922"/>
<polygon points="810,163 818.6,168 818.6,178 810,183 801.4,178 801.4,168" fill="none" stroke="#39FF14" stroke-width="1" opacity="0.07974603250577691"/>
<polygon points="488,188 496.6,193 496.6,203 488,208 479.4,203 479.4,193" fill="none" stroke="#39FF14" stroke-width="1" opacity="0.0304291486367633"/>
<polygon points="280,102 288.6,107 288.6,117 280,122 271.4,117 271.4,107" fill="none" stroke="#39FF14" stroke-width="1" opacity="0.03441344381924843"/>
<polygon points="620,5 628.6,10 628.6,20 620,25 611.4,20 611.4,10" fill="none" stroke="#39FF14" stroke-width="1" opacity="0.03571631805403298"/>
<polygon points="135,12 143.6,17 143.6,27 135,32 126.4,27 126.4,17" fill="none" stroke="#39FF14" stroke-width="1" opacity="0.023462368124721057"/>
<polygon points="31,159 39.6,164 39.6,174 31,179 22.4,174 22.4,164" fill="none" stroke="#39FF14" stroke-width="1" opacity="0.02253905647790648"/>
<polygon points="819,130 827.6,135 827.6,145 819,150 810.4,145 810.4,135" fill="none" stroke="#39FF14" stroke-width="1" opacity="0.03380908127646582"/>
<polygon points="210,91 218.6,96 218.6,106 210,111 201.4,106 201.4,96" fill="none" stroke="#39FF14" stroke-width="1" opacity="0.030640843692566602"/>
<polygon points="493,151 501.6,156 501.6,166 493,171 484.4,166 484.4,156" fill="none" stroke="#39FF14" stroke-width="1" opacity="0.049895942796362294"/>
<polygon points="212,45 220.6,50 220.6,60 212,65 203.4,60 203.4,50" fill="none" stroke="#39FF14" stroke-width="1" opacity="0.027197034225794985"/>
<polygon points="582,143 590.6,148 590.6,158 582,163 573.4,158 573.4,148" fill="none" stroke="#39FF14" stroke-width="1" opacity="0.02022217606068479"/>
<polygon points="447,49 455.6,54 455.6,64 447,69 438.4,64 438.4,54" fill="none" stroke="#39FF14" stroke-width="1" opacity="0.07144214677641526"/>
<polygon points="270,109 278.6,114 278.6,124 270,129 261.4,124 261.4,114" fill="none" stroke="#39FF14" stroke-width="1" opacity="0.04773103852110841"/>
<polygon points="684,84 692.6,89 692.6,99 684,104 675.4,99 675.4,89" fill="none" stroke="#39FF14" stroke-width="1" opacity="0.07888441112235298"/>
<polygon points="338,11 346.6,16 346.6,26 338,31 329.4,26 329.4,16" fill="none" stroke="#39FF14" stroke-width="1" opacity="0.06339279790046844"/>
<polygon points="714,96 722.6,101 722.6,111 714,116 705.4,111 705.4,101" fill="none" stroke="#39FF14" stroke-width="1" opacity="0.06913785343355291"/>
<polygon points="614,183 622.6,188 622.6,198 614,203 605.4,198 605.4,188" fill="none" stroke="#39FF14" stroke-width="1" opacity="0.05145464633138734"/>
<polygon points="725,12 733.6,17 733.6,27 725,32 716.4,27 716.4,17" fill="none" stroke="#39FF14" stroke-width="1" opacity="0.04762208536970866"/>
<polygon points="429,121 437.6,126 437.6,136 429,141 420.4,136 420.4,126" fill="none" stroke="#39FF14" stroke-width="1" opacity="0.025193919628708046"/>
<polygon points="475,131 483.6,136 483.6,146 475,151 466.4,146 466.4,136" fill="none" stroke="#39FF14" stroke-width="1" opacity="0.07206012375665605"/>
<polygon points="740,62 748.6,67 748.6,77 740,82 731.4,77 731.4,67" fill="none" stroke="#39FF14" stroke-width="1" opacity="0.03127920581583496"/>
<polygon points="391,188 399.6,193 399.6,203 391,208 382.4,203 382.4,193" fill="none" stroke="#39FF14" stroke-width="1" opacity="0.07027916511113444"/>
<polygon points="241,173 249.6,178 249.6,188 241,193 232.4,188 232.4,178" fill="none" stroke="#39FF14" stroke-width="1" opacity="0.04950583499677544"/>
<polygon points="697,86 705.6,91 705.6,101 697,106 688.4,101 688.4,91" fill="none" stroke="#39FF14" stroke-width="1" opacity="0.04721101606958006"/>
<polygon points="437,5 445.6,10 445.6,20 437,25 428.4,20 428.4,10" fill="none" stroke="#39FF14" stroke-width="1" opacity="0.0685870310779371"/>
<polygon points="623,-4 631.6,1 631.6,11 623,16 614.4,11 614.4,1" fill="none" stroke="#39FF14" stroke-width="1" opacity="0.04887322634182669"/>
<polygon points="375,23 383.6,28 383.6,38 375,43 366.4,38 366.4,28" fill="none" stroke="#39FF14" stroke-width="1" opacity="0.050342655780261536"/>
<polygon points="192,155 200.6,160 200.6,170 192,175 183.4,170 183.4,160" fill="none" stroke="#39FF14" stroke-width="1" opacity="0.05349133415411107"/>
</g>

  <!-- HUD Decorative elements -->
  <path d="M 20 20 L 40 20 L 50 30" fill="none" stroke="#39FF14" stroke-width="2" opacity="0.5"/>
  <path d="M 830 180 L 810 180 L 800 170" fill="none" stroke="#39FF14" stroke-width="2" opacity="0.5"/>

  <g clip-path="url(#dashClip)">
    <rect x="-160" y="0" width="160" height="200" fill="url(#scanlineGrad)">
      <animateTransform attributeName="transform" type="translate"
                        from="0 0" to="1010 0" dur="6s" repeatCount="indefinite"/>
    </rect>
  </g>

  <g font-family="'Consolas', 'Fira Code', monospace" text-anchor="middle">

    <!-- NETWORK STATUS -->
    <g transform="translate(130, 100)">
        <circle cx="0" cy="0" r="45" fill="none" stroke="#39FF14" stroke-width="2" stroke-dasharray="10 5">
            <animateTransform attributeName="transform" type="rotate" from="0" to="360" dur="10s" repeatCount="indefinite"/>
        </circle>
        <circle cx="0" cy="0" r="35" fill="#0d0d0d" />
        <text x="0" y="-60" font-size="12" fill="#aaaaaa" letter-spacing="2">ROOT.AUTH</text>
        <text x="0" y="70" font-size="14" fill="#ffffff" font-weight="bold">OPERATIONAL</text>
    </g>

    <!-- ACTIVE USERS -->
    <g transform="translate(330, 100)">
        <text x="0" y="-20" font-size="12" fill="#aaaaaa">CITIZENS</text>
        <text x="0" y="15" font-size="28" fill="#ffffff" font-weight="bold" filter="url(#textGlow)">12,891</text>
        <text x="0" y="35" font-size="10" fill="#777777">VERIFIED HUMANS</text>
    </g>

    <!-- REGISTERED AGENTS -->
    <g transform="translate(530, 100)">
        <text x="0" y="-20" font-size="12" fill="#aaaaaa">AGENTS</text>
        <text x="0" y="15" font-size="28" fill="#00d4ff" font-weight="bold" filter="url(#textGlow)">3,236</text>
        <text x="0" y="35" font-size="10" fill="#777777">REGISTERED DIDs</text>
    </g>

    <!-- TRANSACTIONS -->
    <g transform="translate(730, 100)">
        <text x="0" y="-20" font-size="12" fill="#aaaaaa">TRANSFERS</text>
        <text x="0" y="15" font-size="28" fill="#ffffff" font-weight="bold">32,494</text>
        <text x="0" y="35" font-size="10" fill="#777777">M2M SETTLEMENTS</text>
    </g>
  </g>

  <text x="425" y="185" font-family="'Consolas', 'Fira Code', monospace" font-size="10" fill="#aaaaaa" opacity="0.6" text-anchor="middle">AXIOMID PROJECTED TARGETS (ILLUSTRATIVE): 2026-06-20 21:27:42 UTC // SECURE_HANDSHAKE</text>
</svg>