<svg width="850" height="200" viewBox="0 0 850 200" xmlns="http://www.w3.org/2000/svg">
  <defs>
    <pattern id="carbonFiber" width="10" height="10" patternUnits="userSpaceOnUse">
        <rect width="10" height="10" fill="#050505"/>
        <path d="M0,0 L5,5 L10,0 L5,-5 Z M5,5 L10,10 L15,5 L10,0 Z M-5,5 L0,10 L5,5 L0,0 Z M0,10 L5,15 L10,10 L5,5 Z" fill="#0d0d0d"/>
    </pattern>
    <filter id="textGlow">
      <feGaussianBlur stdDeviation="2" result="blur" />
      <feMerge>
        <feMergeNode in="blur"/>
        <feMergeNode in="SourceGraphic"/>
      </feMerge>
    </filter>
    <linearGradient id="neonBar" x1="0%" y1="0%" x2="100%" y2="0%">
        <stop offset="0%" stop-color="#111111"/>
        <stop offset="100%" stop-color="#39FF14"/>
    </linearGradient>
    <linearGradient id="scanlineGrad" x1="0%" y1="0%" x2="100%" y2="0%">
        <stop offset="0%" stop-color="#39FF14" stop-opacity="0"/>
        <stop offset="50%" stop-color="#39FF14" stop-opacity="0.18"/>
        <stop offset="100%" stop-color="#39FF14" stop-opacity="0"/>
    </linearGradient>
    <clipPath id="dashClip">
        <rect x="0" y="0" width="850" height="200" rx="12"/>
    </clipPath>
  </defs>

  <rect width="100%" height="100%" fill="url(#carbonFiber)" rx="12" stroke="#39FF14" stroke-width="1" stroke-opacity="0.3"/>
  <rect width="100%" height="100%" fill="#000000" opacity="0.6" rx="12" />
  <g><polygon points="55,124 63.6,129 63.6,139 55,144 46.4,139 46.4,129" fill="none" stroke="#39FF14" stroke-width="1" opacity="0.047085114503526614"/>
<polygon points="424,114 432.6,119 432.6,129 424,134 415.4,129 415.4,119" fill="none" stroke="#39FF14" stroke-width="1" opacity="0.05070178071368067"/>
<polygon points="594,171 602.6,176 602.6,186 594,191 585.4,186 585.4,176" fill="none" stroke="#39FF14" stroke-width="1" opacity="0.05038258755066309"/>
<polygon points="659,18 667.6,23 667.6,33 659,38 650.4,33 650.4,23" fill="none" stroke="#39FF14" stroke-width="1" opacity="0.020319423167261805"/>
<polygon points="202,125 210.6,130 210.6,140 202,145 193.4,140 193.4,130" fill="none" stroke="#39FF14" stroke-width="1" opacity="0.032210911584478266"/>
<polygon points="744,151 752.6,156 752.6,166 744,171 735.4,166 735.4,156" fill="none" stroke="#39FF14" stroke-width="1" opacity="0.06867314071960687"/>
<polygon points="703,-2 711.6,3 711.6,13 703,18 694.4,13 694.4,3" fill="none" stroke="#39FF14" stroke-width="1" opacity="0.04634879478635488"/>
<polygon points="362,150 370.6,155 370.6,165 362,170 353.4,165 353.4,155" fill="none" stroke="#39FF14" stroke-width="1" opacity="0.0718680237954394"/>
<polygon points="691,135 699.6,140 699.6,150 691,155 682.4,150 682.4,140" fill="none" stroke="#39FF14" stroke-width="1" opacity="0.05968752162544691"/>
<polygon points="424,165 432.6,170 432.6,180 424,185 415.4,180 415.4,170" fill="none" stroke="#39FF14" stroke-width="1" opacity="0.06590931672526372"/>
<polygon points="454,115 462.6,120 462.6,130 454,135 445.4,130 445.4,120" fill="none" stroke="#39FF14" stroke-width="1" opacity="0.07513961702128562"/>
<polygon points="300,83 308.6,88 308.6,98 300,103 291.4,98 291.4,88" fill="none" stroke="#39FF14" stroke-width="1" opacity="0.0637641414763435"/>
<polygon points="203,93 211.6,98 211.6,108 203,113 194.4,108 194.4,98" fill="none" stroke="#39FF14" stroke-width="1" opacity="0.021129905146078026"/>
<polygon points="504,110 512.6,115 512.6,125 504,130 495.4,125 495.4,115" fill="none" stroke="#39FF14" stroke-width="1" opacity="0.055823307017896284"/>
<polygon points="21,24 29.6,29 29.6,39 21,44 12.4,39 12.4,29" fill="none" stroke="#39FF14" stroke-width="1" opacity="0.0716059104017204"/>
<polygon points="714,137 722.6,142 722.6,152 714,157 705.4,152 705.4,142" fill="none" stroke="#39FF14" stroke-width="1" opacity="0.04016058118449088"/>
<polygon points="644,164 652.6,169 652.6,179 644,184 635.4,179 635.4,169" fill="none" stroke="#39FF14" stroke-width="1" opacity="0.030812293811640978"/>
<polygon points="604,145 612.6,150 612.6,160 604,165 595.4,160 595.4,150" fill="none" stroke="#39FF14" stroke-width="1" opacity="0.028844397319997595"/>
<polygon points="508,151 516.6,156 516.6,166 508,171 499.4,166 499.4,156" fill="none" stroke="#39FF14" stroke-width="1" opacity="0.07220436685426015"/>
<polygon points="340,86 348.6,91 348.6,101 340,106 331.4,101 331.4,91" fill="none" stroke="#39FF14" stroke-width="1" opacity="0.046261792906494514"/>
<polygon points="769,108 777.6,113 777.6,123 769,128 760.4,123 760.4,113" fill="none" stroke="#39FF14" stroke-width="1" opacity="0.07523482208725928"/>
<polygon points="29,43 37.6,48 37.6,58 29,63 20.4,58 20.4,48" fill="none" stroke="#39FF14" stroke-width="1" opacity="0.040316326573488215"/>
<polygon points="260,28 268.6,33 268.6,43 260,48 251.4,43 251.4,33" fill="none" stroke="#39FF14" stroke-width="1" opacity="0.04299160490797291"/>
<polygon points="372,21 380.6,26 380.6,36 372,41 363.4,36 363.4,26" fill="none" stroke="#39FF14" stroke-width="1" opacity="0.03501632521149373"/>
<polygon points="262,189 270.6,194 270.6,204 262,209 253.4,204 253.4,194" fill="none" stroke="#39FF14" stroke-width="1" opacity="0.07521625394284422"/>
<polygon points="175,131 183.6,136 183.6,146 175,151 166.4,146 166.4,136" fill="none" stroke="#39FF14" stroke-width="1" opacity="0.05530221216743446"/>
<polygon points="239,29 247.6,34 247.6,44 239,49 230.4,44 230.4,34" fill="none" stroke="#39FF14" stroke-width="1" opacity="0.0729764181466074"/>
<polygon points="594,46 602.6,51 602.6,61 594,66 585.4,61 585.4,51" fill="none" stroke="#39FF14" stroke-width="1" opacity="0.03986060594200019"/>
<polygon points="660,133 668.6,138 668.6,148 660,153 651.4,148 651.4,138" fill="none" stroke="#39FF14" stroke-width="1" opacity="0.06774248525004532"/>
<polygon points="651,176 659.6,181 659.6,191 651,196 642.4,191 642.4,181" fill="none" stroke="#39FF14" stroke-width="1" opacity="0.06886752500122734"/>
</g>

  <!-- HUD Decorative elements -->
  <path d="M 20 20 L 40 20 L 50 30" fill="none" stroke="#39FF14" stroke-width="2" opacity="0.5"/>
  <path d="M 830 180 L 810 180 L 800 170" fill="none" stroke="#39FF14" stroke-width="2" opacity="0.5"/>

  <g clip-path="url(#dashClip)">
    <rect x="-160" y="0" width="160" height="200" fill="url(#scanlineGrad)">
      <animateTransform attributeName="transform" type="translate"
                        from="0 0" to="1010 0" dur="6s" repeatCount="indefinite"/>
    </rect>
  </g>

  <g font-family="'Consolas', 'Fira Code', monospace" text-anchor="middle">

    <!-- NETWORK STATUS -->
    <g transform="translate(130, 100)">
        <circle cx="0" cy="0" r="45" fill="none" stroke="#39FF14" stroke-width="2" stroke-dasharray="10 5">
            <animateTransform attributeName="transform" type="rotate" from="0" to="360" dur="10s" repeatCount="indefinite"/>
        </circle>
        <circle cx="0" cy="0" r="35" fill="#0d0d0d" />
        <text x="0" y="-60" font-size="12" fill="#aaaaaa" letter-spacing="2">ROOT.AUTH</text>
        <text x="0" y="70" font-size="14" fill="#ffffff" font-weight="bold">OPERATIONAL</text>
    </g>

    <!-- ACTIVE USERS -->
    <g transform="translate(330, 100)">
        <text x="0" y="-20" font-size="12" fill="#aaaaaa">CITIZENS</text>
        <text x="0" y="15" font-size="28" fill="#ffffff" font-weight="bold" filter="url(#textGlow)">12,460</text>
        <text x="0" y="35" font-size="10" fill="#777777">VERIFIED HUMANS</text>
    </g>

    <!-- REGISTERED AGENTS -->
    <g transform="translate(530, 100)">
        <text x="0" y="-20" font-size="12" fill="#aaaaaa">AGENTS</text>
        <text x="0" y="15" font-size="28" fill="#00d4ff" font-weight="bold" filter="url(#textGlow)">3,249</text>
        <text x="0" y="35" font-size="10" fill="#777777">REGISTERED DIDs</text>
    </g>

    <!-- TRANSACTIONS -->
    <g transform="translate(730, 100)">
        <text x="0" y="-20" font-size="12" fill="#aaaaaa">TRANSFERS</text>
        <text x="0" y="15" font-size="28" fill="#ffffff" font-weight="bold">26,158</text>
        <text x="0" y="35" font-size="10" fill="#777777">M2M SETTLEMENTS</text>
    </g>
  </g>

  <text x="425" y="185" font-family="'Consolas', 'Fira Code', monospace" font-size="10" fill="#aaaaaa" opacity="0.6" text-anchor="middle">AXIOMID PROJECTED TARGETS (ILLUSTRATIVE): 2026-07-03 16:18:40 UTC // SECURE_HANDSHAKE</text>
</svg>