<svg width="850" height="200" viewBox="0 0 850 200" xmlns="http://www.w3.org/2000/svg">
  <defs>
    <!-- Carbon Fiber Pattern -->
    <pattern id="carbonFiber" width="10" height="10" patternUnits="userSpaceOnUse">
        <rect width="10" height="10" fill="#050505"/>
        <path d="M0,0 L5,5 L10,0 L5,-5 Z M5,5 L10,10 L15,5 L10,0 Z M-5,5 L0,10 L5,5 L0,0 Z M0,10 L5,15 L10,10 L5,5 Z" fill="#0d0d0d"/>
    </pattern>
    <filter id="glassmorphism">
      <feGaussianBlur stdDeviation="3" result="blur" />
      <feColorMatrix type="matrix" values="1 0 0 0 0  0 1 0 0 0  0 0 1 0 0  0 0 0 18 -7" result="glow" />
      <feBlend in="SourceGraphic" in2="glow" mode="normal" />
    </filter>
    <filter id="textGlow">
      <feGaussianBlur stdDeviation="2" result="blur" />
      <feMerge>
        <feMergeNode in="blur"/>
        <feMergeNode in="SourceGraphic"/>
      </feMerge>
    </filter>
    <linearGradient id="neonBar" x1="0%" y1="0%" x2="100%" y2="0%">
        <stop offset="0%" stop-color="#111111"/>
        <stop offset="100%" stop-color="#39FF14"/>
    </linearGradient>
  </defs>

  <rect width="100%" height="100%" fill="url(#carbonFiber)" rx="12" stroke="#39FF14" stroke-width="1" stroke-opacity="0.3"/>
  <rect width="100%" height="100%" fill="#000000" opacity="0.6" rx="12" />
  <g><polygon points="106,89 114.6,94 114.6,104 106,109 97.4,104 97.4,94" fill="none" stroke="#39FF14" stroke-width="1" opacity="0.07120990781223248"/>
<polygon points="456,131 464.6,136 464.6,146 456,151 447.4,146 447.4,136" fill="none" stroke="#39FF14" stroke-width="1" opacity="0.07831271404745513"/>
<polygon points="272,21 280.6,26 280.6,36 272,41 263.4,36 263.4,26" fill="none" stroke="#39FF14" stroke-width="1" opacity="0.07633128183097401"/>
<polygon points="849,142 857.6,147 857.6,157 849,162 840.4,157 840.4,147" fill="none" stroke="#39FF14" stroke-width="1" opacity="0.03775355443536724"/>
<polygon points="237,89 245.6,94 245.6,104 237,109 228.4,104 228.4,94" fill="none" stroke="#39FF14" stroke-width="1" opacity="0.05047735311929452"/>
<polygon points="743,140 751.6,145 751.6,155 743,160 734.4,155 734.4,145" fill="none" stroke="#39FF14" stroke-width="1" opacity="0.0791821022169773"/>
<polygon points="162,160 170.6,165 170.6,175 162,180 153.4,175 153.4,165" fill="none" stroke="#39FF14" stroke-width="1" opacity="0.0397834486167501"/>
<polygon points="285,119 293.6,124 293.6,134 285,139 276.4,134 276.4,124" fill="none" stroke="#39FF14" stroke-width="1" opacity="0.07009201827372348"/>
<polygon points="168,168 176.6,173 176.6,183 168,188 159.4,183 159.4,173" fill="none" stroke="#39FF14" stroke-width="1" opacity="0.07735253180343712"/>
<polygon points="48,45 56.6,50 56.6,60 48,65 39.4,60 39.4,50" fill="none" stroke="#39FF14" stroke-width="1" opacity="0.05518172467752734"/>
<polygon points="4,148 12.6,153 12.6,163 4,168 -4.6,163 -4.6,153" fill="none" stroke="#39FF14" stroke-width="1" opacity="0.030937042134178954"/>
<polygon points="362,57 370.6,62 370.6,72 362,77 353.4,72 353.4,62" fill="none" stroke="#39FF14" stroke-width="1" opacity="0.07723701365881577"/>
<polygon points="653,142 661.6,147 661.6,157 653,162 644.4,157 644.4,147" fill="none" stroke="#39FF14" stroke-width="1" opacity="0.06069968981216754"/>
<polygon points="234,87 242.6,92 242.6,102 234,107 225.4,102 225.4,92" fill="none" stroke="#39FF14" stroke-width="1" opacity="0.05410263386600396"/>
<polygon points="661,70 669.6,75 669.6,85 661,90 652.4,85 652.4,75" fill="none" stroke="#39FF14" stroke-width="1" opacity="0.05194674537091609"/>
<polygon points="412,119 420.6,124 420.6,134 412,139 403.4,134 403.4,124" fill="none" stroke="#39FF14" stroke-width="1" opacity="0.02408672647696464"/>
<polygon points="635,3 643.6,8 643.6,18 635,23 626.4,18 626.4,8" fill="none" stroke="#39FF14" stroke-width="1" opacity="0.02511912490104072"/>
<polygon points="391,158 399.6,163 399.6,173 391,178 382.4,173 382.4,163" fill="none" stroke="#39FF14" stroke-width="1" opacity="0.07741780758091406"/>
<polygon points="91,4 99.6,9 99.6,19 91,24 82.4,19 82.4,9" fill="none" stroke="#39FF14" stroke-width="1" opacity="0.06772036941176998"/>
<polygon points="549,28 557.6,33 557.6,43 549,48 540.4,43 540.4,33" fill="none" stroke="#39FF14" stroke-width="1" opacity="0.06499677835401393"/>
<polygon points="490,99 498.6,104 498.6,114 490,119 481.4,114 481.4,104" fill="none" stroke="#39FF14" stroke-width="1" opacity="0.03759181980051519"/>
<polygon points="195,14 203.6,19 203.6,29 195,34 186.4,29 186.4,19" fill="none" stroke="#39FF14" stroke-width="1" opacity="0.05011486280925608"/>
<polygon points="847,144 855.6,149 855.6,159 847,164 838.4,159 838.4,149" fill="none" stroke="#39FF14" stroke-width="1" opacity="0.07399753354846199"/>
<polygon points="117,48 125.6,53 125.6,63 117,68 108.4,63 108.4,53" fill="none" stroke="#39FF14" stroke-width="1" opacity="0.05278759424036063"/>
<polygon points="280,165 288.6,170 288.6,180 280,185 271.4,180 271.4,170" fill="none" stroke="#39FF14" stroke-width="1" opacity="0.048352036653019966"/>
<polygon points="535,-4 543.6,1 543.6,11 535,16 526.4,11 526.4,1" fill="none" stroke="#39FF14" stroke-width="1" opacity="0.0633440404417602"/>
<polygon points="160,11 168.6,16 168.6,26 160,31 151.4,26 151.4,16" fill="none" stroke="#39FF14" stroke-width="1" opacity="0.06677668063042691"/>
<polygon points="152,21 160.6,26 160.6,36 152,41 143.4,36 143.4,26" fill="none" stroke="#39FF14" stroke-width="1" opacity="0.065874233240057"/>
<polygon points="632,29 640.6,34 640.6,44 632,49 623.4,44 623.4,34" fill="none" stroke="#39FF14" stroke-width="1" opacity="0.038727314260108794"/>
<polygon points="626,177 634.6,182 634.6,192 626,197 617.4,192 617.4,182" fill="none" stroke="#39FF14" stroke-width="1" opacity="0.07790106254720502"/>
</g>

  <!-- HUD Decorative elements -->
  <path d="M 20 20 L 40 20 L 50 30" fill="none" stroke="#39FF14" stroke-width="2" opacity="0.5"/>
  <path d="M 830 180 L 810 180 L 800 170" fill="none" stroke="#39FF14" stroke-width="2" opacity="0.5"/>
  <rect x="20" y="100" width="2" height="40" fill="#ffffff" opacity="0.4"/>
  <rect x="828" y="60" width="2" height="40" fill="#39FF14" opacity="0.6"/>

  <g font-family="'Consolas', 'Fira Code', monospace" text-anchor="middle">

    <!-- SYSTEM STATUS -->
    <g transform="translate(130, 100)">
        <circle cx="0" cy="0" r="45" fill="none" stroke="#111111" stroke-width="8" />
        <circle cx="0" cy="0" r="45" fill="none" stroke="#39FF14" stroke-width="2" stroke-dasharray="10 5">
            <animateTransform attributeName="transform" type="rotate" from="0" to="360" dur="10s" repeatCount="indefinite"/>
        </circle>
        <circle cx="0" cy="0" r="35" fill="#0d0d0d" />
        <circle cx="0" cy="0" r="6" fill="#39FF14" filter="url(#textGlow)">
            <animate attributeName="opacity" values="1;0.3;1" dur="2s" repeatCount="indefinite"/>
        </circle>
        <text x="0" y="-60" font-size="12" fill="#aaaaaa" letter-spacing="2">SYS.CORE</text>
        <text x="0" y="70" font-size="14" fill="#ffffff" font-weight="bold">ONLINE</text>
    </g>

    <!-- LIVE TRAFFIC -->
    <g transform="translate(330, 100)">
        <rect x="-60" y="-45" width="120" height="90" fill="#0a0a0a" rx="8" stroke="#39FF14" stroke-opacity="0.4" stroke-width="1"/>
        <text x="0" y="-20" font-size="12" fill="#aaaaaa">NETWORK LOAD</text>
        <text x="0" y="15" font-size="28" fill="#ffffff" font-weight="bold" filter="url(#textGlow)">5670</text>
        <text x="0" y="35" font-size="10" fill="#777777">ACTIVE SESSIONS</text>
    </g>

    <!-- ACTIVE AGENTS -->
    <g transform="translate(530, 100)">
        <rect x="-60" y="-45" width="120" height="90" fill="#0a0a0a" rx="8" stroke="#39FF14" stroke-opacity="0.4" stroke-width="1"/>
        <text x="0" y="-20" font-size="12" fill="#aaaaaa">SWARM ENTITIES</text>
        <text x="0" y="15" font-size="28" fill="#ffffff" font-weight="bold" filter="url(#textGlow)">125</text>
        <text x="0" y="35" font-size="10" fill="#777777">AUTONOMOUS</text>
    </g>

    <!-- UPTIME -->
    <g transform="translate(730, 100)">
        <path d="M -40 -35 L 40 -35 L 50 -25 L 50 35 L -40 35 L -50 25 Z" fill="#0a0a0a" stroke="#39FF14" stroke-opacity="0.4" stroke-width="1"/>
        <text x="0" y="-15" font-size="12" fill="#aaaaaa">CONTINUITY</text>
        <text x="0" y="15" font-size="24" fill="#ffffff" font-weight="bold">266<tspan font-size="14" fill="#777777">d</tspan></text>
        <rect x="-35" y="25" width="70" height="4" fill="url(#neonBar)" rx="2"/>
    </g>
  </g>

  <text x="425" y="185" font-family="'Consolas', 'Fira Code', monospace" font-size="10" fill="#aaaaaa" opacity="0.6" text-anchor="middle">LAST TELEMETRY PING: 2026-05-06 12:45:17 UTC // ENCRYPTED_TUNNEL</text>
</svg>