<svg width="850" height="200" viewBox="0 0 850 200" xmlns="http://www.w3.org/2000/svg">
  <defs>
    <pattern id="carbonFiber" width="10" height="10" patternUnits="userSpaceOnUse">
        <rect width="10" height="10" fill="#050505"/>
        <path d="M0,0 L5,5 L10,0 L5,-5 Z M5,5 L10,10 L15,5 L10,0 Z M-5,5 L0,10 L5,5 L0,0 Z M0,10 L5,15 L10,10 L5,5 Z" fill="#0d0d0d"/>
    </pattern>
    <filter id="textGlow">
      <feGaussianBlur stdDeviation="2" result="blur" />
      <feMerge>
        <feMergeNode in="blur"/>
        <feMergeNode in="SourceGraphic"/>
      </feMerge>
    </filter>
    <linearGradient id="neonBar" x1="0%" y1="0%" x2="100%" y2="0%">
        <stop offset="0%" stop-color="#111111"/>
        <stop offset="100%" stop-color="#39FF14"/>
    </linearGradient>
    <linearGradient id="scanlineGrad" x1="0%" y1="0%" x2="100%" y2="0%">
        <stop offset="0%" stop-color="#39FF14" stop-opacity="0"/>
        <stop offset="50%" stop-color="#39FF14" stop-opacity="0.18"/>
        <stop offset="100%" stop-color="#39FF14" stop-opacity="0"/>
    </linearGradient>
    <clipPath id="dashClip">
        <rect x="0" y="0" width="850" height="200" rx="12"/>
    </clipPath>
  </defs>

  <rect width="100%" height="100%" fill="url(#carbonFiber)" rx="12" stroke="#39FF14" stroke-width="1" stroke-opacity="0.3"/>
  <rect width="100%" height="100%" fill="#000000" opacity="0.6" rx="12" />
  <g><polygon points="709,161 717.6,166 717.6,176 709,181 700.4,176 700.4,166" fill="none" stroke="#39FF14" stroke-width="1" opacity="0.03258219171631624"/>
<polygon points="690,151 698.6,156 698.6,166 690,171 681.4,166 681.4,156" fill="none" stroke="#39FF14" stroke-width="1" opacity="0.04217302900233559"/>
<polygon points="705,131 713.6,136 713.6,146 705,151 696.4,146 696.4,136" fill="none" stroke="#39FF14" stroke-width="1" opacity="0.04212938450166173"/>
<polygon points="287,14 295.6,19 295.6,29 287,34 278.4,29 278.4,19" fill="none" stroke="#39FF14" stroke-width="1" opacity="0.060334457782032835"/>
<polygon points="184,43 192.6,48 192.6,58 184,63 175.4,58 175.4,48" fill="none" stroke="#39FF14" stroke-width="1" opacity="0.04890830944754273"/>
<polygon points="641,135 649.6,140 649.6,150 641,155 632.4,150 632.4,140" fill="none" stroke="#39FF14" stroke-width="1" opacity="0.0403890331985583"/>
<polygon points="787,161 795.6,166 795.6,176 787,181 778.4,176 778.4,166" fill="none" stroke="#39FF14" stroke-width="1" opacity="0.05591878386954807"/>
<polygon points="458,97 466.6,102 466.6,112 458,117 449.4,112 449.4,102" fill="none" stroke="#39FF14" stroke-width="1" opacity="0.02497760566066997"/>
<polygon points="107,129 115.6,134 115.6,144 107,149 98.4,144 98.4,134" fill="none" stroke="#39FF14" stroke-width="1" opacity="0.0430148434264456"/>
<polygon points="118,73 126.6,78 126.6,88 118,93 109.4,88 109.4,78" fill="none" stroke="#39FF14" stroke-width="1" opacity="0.03939061423581612"/>
<polygon points="387,7 395.6,12 395.6,22 387,27 378.4,22 378.4,12" fill="none" stroke="#39FF14" stroke-width="1" opacity="0.02548494163046551"/>
<polygon points="253,138 261.6,143 261.6,153 253,158 244.4,153 244.4,143" fill="none" stroke="#39FF14" stroke-width="1" opacity="0.07585257528981394"/>
<polygon points="46,126 54.6,131 54.6,141 46,146 37.4,141 37.4,131" fill="none" stroke="#39FF14" stroke-width="1" opacity="0.04269587172638431"/>
<polygon points="459,103 467.6,108 467.6,118 459,123 450.4,118 450.4,108" fill="none" stroke="#39FF14" stroke-width="1" opacity="0.034319835440507256"/>
<polygon points="732,83 740.6,88 740.6,98 732,103 723.4,98 723.4,88" fill="none" stroke="#39FF14" stroke-width="1" opacity="0.05014866162441636"/>
<polygon points="768,177 776.6,182 776.6,192 768,197 759.4,192 759.4,182" fill="none" stroke="#39FF14" stroke-width="1" opacity="0.07931010558392057"/>
<polygon points="297,127 305.6,132 305.6,142 297,147 288.4,142 288.4,132" fill="none" stroke="#39FF14" stroke-width="1" opacity="0.07291230730352694"/>
<polygon points="566,120 574.6,125 574.6,135 566,140 557.4,135 557.4,125" fill="none" stroke="#39FF14" stroke-width="1" opacity="0.026956464075061644"/>
<polygon points="432,71 440.6,76 440.6,86 432,91 423.4,86 423.4,76" fill="none" stroke="#39FF14" stroke-width="1" opacity="0.021783770692503767"/>
<polygon points="30,26 38.6,31 38.6,41 30,46 21.4,41 21.4,31" fill="none" stroke="#39FF14" stroke-width="1" opacity="0.028534940163679967"/>
<polygon points="632,101 640.6,106 640.6,116 632,121 623.4,116 623.4,106" fill="none" stroke="#39FF14" stroke-width="1" opacity="0.04218994166879943"/>
<polygon points="340,146 348.6,151 348.6,161 340,166 331.4,161 331.4,151" fill="none" stroke="#39FF14" stroke-width="1" opacity="0.05203112306068321"/>
<polygon points="468,190 476.6,195 476.6,205 468,210 459.4,205 459.4,195" fill="none" stroke="#39FF14" stroke-width="1" opacity="0.04729775903319135"/>
<polygon points="799,173 807.6,178 807.6,188 799,193 790.4,188 790.4,178" fill="none" stroke="#39FF14" stroke-width="1" opacity="0.06608152384247543"/>
<polygon points="543,74 551.6,79 551.6,89 543,94 534.4,89 534.4,79" fill="none" stroke="#39FF14" stroke-width="1" opacity="0.02049821877093795"/>
<polygon points="180,74 188.6,79 188.6,89 180,94 171.4,89 171.4,79" fill="none" stroke="#39FF14" stroke-width="1" opacity="0.06639125520554832"/>
<polygon points="341,150 349.6,155 349.6,165 341,170 332.4,165 332.4,155" fill="none" stroke="#39FF14" stroke-width="1" opacity="0.05960761106899916"/>
<polygon points="711,128 719.6,133 719.6,143 711,148 702.4,143 702.4,133" fill="none" stroke="#39FF14" stroke-width="1" opacity="0.04105777571656116"/>
<polygon points="575,21 583.6,26 583.6,36 575,41 566.4,36 566.4,26" fill="none" stroke="#39FF14" stroke-width="1" opacity="0.05704890191682048"/>
<polygon points="203,142 211.6,147 211.6,157 203,162 194.4,157 194.4,147" fill="none" stroke="#39FF14" stroke-width="1" opacity="0.03937095023806117"/>
</g>

  <!-- HUD Decorative elements -->
  <path d="M 20 20 L 40 20 L 50 30" fill="none" stroke="#39FF14" stroke-width="2" opacity="0.5"/>
  <path d="M 830 180 L 810 180 L 800 170" fill="none" stroke="#39FF14" stroke-width="2" opacity="0.5"/>

  <g clip-path="url(#dashClip)">
    <rect x="-160" y="0" width="160" height="200" fill="url(#scanlineGrad)">
      <animateTransform attributeName="transform" type="translate"
                        from="0 0" to="1010 0" dur="6s" repeatCount="indefinite"/>
    </rect>
  </g>

  <g font-family="'Consolas', 'Fira Code', monospace" text-anchor="middle">

    <!-- NETWORK STATUS -->
    <g transform="translate(130, 100)">
        <circle cx="0" cy="0" r="45" fill="none" stroke="#39FF14" stroke-width="2" stroke-dasharray="10 5">
            <animateTransform attributeName="transform" type="rotate" from="0" to="360" dur="10s" repeatCount="indefinite"/>
        </circle>
        <circle cx="0" cy="0" r="35" fill="#0d0d0d" />
        <text x="0" y="-60" font-size="12" fill="#aaaaaa" letter-spacing="2">ROOT.AUTH</text>
        <text x="0" y="70" font-size="14" fill="#ffffff" font-weight="bold">OPERATIONAL</text>
    </g>

    <!-- ACTIVE USERS -->
    <g transform="translate(330, 100)">
        <text x="0" y="-20" font-size="12" fill="#aaaaaa">CITIZENS</text>
        <text x="0" y="15" font-size="28" fill="#ffffff" font-weight="bold" filter="url(#textGlow)">13,675</text>
        <text x="0" y="35" font-size="10" fill="#777777">VERIFIED HUMANS</text>
    </g>

    <!-- REGISTERED AGENTS -->
    <g transform="translate(530, 100)">
        <text x="0" y="-20" font-size="12" fill="#aaaaaa">AGENTS</text>
        <text x="0" y="15" font-size="28" fill="#00d4ff" font-weight="bold" filter="url(#textGlow)">3,481</text>
        <text x="0" y="35" font-size="10" fill="#777777">REGISTERED DIDs</text>
    </g>

    <!-- TRANSACTIONS -->
    <g transform="translate(730, 100)">
        <text x="0" y="-20" font-size="12" fill="#aaaaaa">TRANSFERS</text>
        <text x="0" y="15" font-size="28" fill="#ffffff" font-weight="bold">35,974</text>
        <text x="0" y="35" font-size="10" fill="#777777">M2M SETTLEMENTS</text>
    </g>
  </g>

  <text x="425" y="185" font-family="'Consolas', 'Fira Code', monospace" font-size="10" fill="#aaaaaa" opacity="0.6" text-anchor="middle">AXIOMID PROJECTED TARGETS (ILLUSTRATIVE): 2026-07-17 21:41:41 UTC // SECURE_HANDSHAKE</text>
</svg>