<svg width="850" height="200" viewBox="0 0 850 200" xmlns="http://www.w3.org/2000/svg">
  <defs>
    <pattern id="carbonFiber" width="10" height="10" patternUnits="userSpaceOnUse">
        <rect width="10" height="10" fill="#050505"/>
        <path d="M0,0 L5,5 L10,0 L5,-5 Z M5,5 L10,10 L15,5 L10,0 Z M-5,5 L0,10 L5,5 L0,0 Z M0,10 L5,15 L10,10 L5,5 Z" fill="#0d0d0d"/>
    </pattern>
    <filter id="textGlow">
      <feGaussianBlur stdDeviation="2" result="blur" />
      <feMerge>
        <feMergeNode in="blur"/>
        <feMergeNode in="SourceGraphic"/>
      </feMerge>
    </filter>
    <linearGradient id="neonBar" x1="0%" y1="0%" x2="100%" y2="0%">
        <stop offset="0%" stop-color="#111111"/>
        <stop offset="100%" stop-color="#39FF14"/>
    </linearGradient>
    <linearGradient id="scanlineGrad" x1="0%" y1="0%" x2="100%" y2="0%">
        <stop offset="0%" stop-color="#39FF14" stop-opacity="0"/>
        <stop offset="50%" stop-color="#39FF14" stop-opacity="0.18"/>
        <stop offset="100%" stop-color="#39FF14" stop-opacity="0"/>
    </linearGradient>
    <clipPath id="dashClip">
        <rect x="0" y="0" width="850" height="200" rx="12"/>
    </clipPath>
  </defs>

  <rect width="100%" height="100%" fill="url(#carbonFiber)" rx="12" stroke="#39FF14" stroke-width="1" stroke-opacity="0.3"/>
  <rect width="100%" height="100%" fill="#000000" opacity="0.6" rx="12" />
  <g><polygon points="29,19 37.6,24 37.6,34 29,39 20.4,34 20.4,24" fill="none" stroke="#39FF14" stroke-width="1" opacity="0.045626247459851735"/>
<polygon points="462,131 470.6,136 470.6,146 462,151 453.4,146 453.4,136" fill="none" stroke="#39FF14" stroke-width="1" opacity="0.06715206360626143"/>
<polygon points="80,69 88.6,74 88.6,84 80,89 71.4,84 71.4,74" fill="none" stroke="#39FF14" stroke-width="1" opacity="0.05093330226295241"/>
<polygon points="794,-6 802.6,-1 802.6,9 794,14 785.4,9 785.4,-1" fill="none" stroke="#39FF14" stroke-width="1" opacity="0.03265243533999552"/>
<polygon points="692,111 700.6,116 700.6,126 692,131 683.4,126 683.4,116" fill="none" stroke="#39FF14" stroke-width="1" opacity="0.02920157991139733"/>
<polygon points="349,-3 357.6,2 357.6,12 349,17 340.4,12 340.4,2" fill="none" stroke="#39FF14" stroke-width="1" opacity="0.07820575811649809"/>
<polygon points="800,162 808.6,167 808.6,177 800,182 791.4,177 791.4,167" fill="none" stroke="#39FF14" stroke-width="1" opacity="0.027446101122614076"/>
<polygon points="316,31 324.6,36 324.6,46 316,51 307.4,46 307.4,36" fill="none" stroke="#39FF14" stroke-width="1" opacity="0.031896678687977235"/>
<polygon points="519,86 527.6,91 527.6,101 519,106 510.4,101 510.4,91" fill="none" stroke="#39FF14" stroke-width="1" opacity="0.05509727216989774"/>
<polygon points="394,116 402.6,121 402.6,131 394,136 385.4,131 385.4,121" fill="none" stroke="#39FF14" stroke-width="1" opacity="0.037706441574441835"/>
<polygon points="270,148 278.6,153 278.6,163 270,168 261.4,163 261.4,153" fill="none" stroke="#39FF14" stroke-width="1" opacity="0.035037087844701276"/>
<polygon points="548,150 556.6,155 556.6,165 548,170 539.4,165 539.4,155" fill="none" stroke="#39FF14" stroke-width="1" opacity="0.022167259775306748"/>
<polygon points="584,-7 592.6,-2 592.6,8 584,13 575.4,8 575.4,-2" fill="none" stroke="#39FF14" stroke-width="1" opacity="0.06125908595674209"/>
<polygon points="652,149 660.6,154 660.6,164 652,169 643.4,164 643.4,154" fill="none" stroke="#39FF14" stroke-width="1" opacity="0.04468515802042246"/>
<polygon points="70,59 78.6,64 78.6,74 70,79 61.4,74 61.4,64" fill="none" stroke="#39FF14" stroke-width="1" opacity="0.025303825107357854"/>
<polygon points="544,160 552.6,165 552.6,175 544,180 535.4,175 535.4,165" fill="none" stroke="#39FF14" stroke-width="1" opacity="0.043062052861471925"/>
<polygon points="168,130 176.6,135 176.6,145 168,150 159.4,145 159.4,135" fill="none" stroke="#39FF14" stroke-width="1" opacity="0.05554871389913636"/>
<polygon points="326,136 334.6,141 334.6,151 326,156 317.4,151 317.4,141" fill="none" stroke="#39FF14" stroke-width="1" opacity="0.07960750975232317"/>
<polygon points="127,143 135.6,148 135.6,158 127,163 118.4,158 118.4,148" fill="none" stroke="#39FF14" stroke-width="1" opacity="0.07599570171948693"/>
<polygon points="279,154 287.6,159 287.6,169 279,174 270.4,169 270.4,159" fill="none" stroke="#39FF14" stroke-width="1" opacity="0.056254160574339865"/>
<polygon points="312,-6 320.6,-1 320.6,9 312,14 303.4,9 303.4,-1" fill="none" stroke="#39FF14" stroke-width="1" opacity="0.0683100770793394"/>
<polygon points="442,34 450.6,39 450.6,49 442,54 433.4,49 433.4,39" fill="none" stroke="#39FF14" stroke-width="1" opacity="0.03146927321408466"/>
<polygon points="772,134 780.6,139 780.6,149 772,154 763.4,149 763.4,139" fill="none" stroke="#39FF14" stroke-width="1" opacity="0.0392519805810416"/>
<polygon points="785,-6 793.6,-1 793.6,9 785,14 776.4,9 776.4,-1" fill="none" stroke="#39FF14" stroke-width="1" opacity="0.027537351601916317"/>
<polygon points="319,77 327.6,82 327.6,92 319,97 310.4,92 310.4,82" fill="none" stroke="#39FF14" stroke-width="1" opacity="0.06428533415374268"/>
<polygon points="334,69 342.6,74 342.6,84 334,89 325.4,84 325.4,74" fill="none" stroke="#39FF14" stroke-width="1" opacity="0.06575432425233445"/>
<polygon points="682,186 690.6,191 690.6,201 682,206 673.4,201 673.4,191" fill="none" stroke="#39FF14" stroke-width="1" opacity="0.057477852500043114"/>
<polygon points="230,16 238.6,21 238.6,31 230,36 221.4,31 221.4,21" fill="none" stroke="#39FF14" stroke-width="1" opacity="0.055550911028788355"/>
<polygon points="192,122 200.6,127 200.6,137 192,142 183.4,137 183.4,127" fill="none" stroke="#39FF14" stroke-width="1" opacity="0.027780025927761902"/>
<polygon points="345,183 353.6,188 353.6,198 345,203 336.4,198 336.4,188" fill="none" stroke="#39FF14" stroke-width="1" opacity="0.025735148684607394"/>
</g>

  <!-- HUD Decorative elements -->
  <path d="M 20 20 L 40 20 L 50 30" fill="none" stroke="#39FF14" stroke-width="2" opacity="0.5"/>
  <path d="M 830 180 L 810 180 L 800 170" fill="none" stroke="#39FF14" stroke-width="2" opacity="0.5"/>

  <g clip-path="url(#dashClip)">
    <rect x="-160" y="0" width="160" height="200" fill="url(#scanlineGrad)">
      <animateTransform attributeName="transform" type="translate"
                        from="0 0" to="1010 0" dur="6s" repeatCount="indefinite"/>
    </rect>
  </g>

  <g font-family="'Consolas', 'Fira Code', monospace" text-anchor="middle">

    <!-- NETWORK STATUS -->
    <g transform="translate(130, 100)">
        <circle cx="0" cy="0" r="45" fill="none" stroke="#39FF14" stroke-width="2" stroke-dasharray="10 5">
            <animateTransform attributeName="transform" type="rotate" from="0" to="360" dur="10s" repeatCount="indefinite"/>
        </circle>
        <circle cx="0" cy="0" r="35" fill="#0d0d0d" />
        <text x="0" y="-60" font-size="12" fill="#aaaaaa" letter-spacing="2">ROOT.AUTH</text>
        <text x="0" y="70" font-size="14" fill="#ffffff" font-weight="bold">OPERATIONAL</text>
    </g>

    <!-- ACTIVE USERS -->
    <g transform="translate(330, 100)">
        <text x="0" y="-20" font-size="12" fill="#aaaaaa">CITIZENS</text>
        <text x="0" y="15" font-size="28" fill="#ffffff" font-weight="bold" filter="url(#textGlow)">12,729</text>
        <text x="0" y="35" font-size="10" fill="#777777">VERIFIED HUMANS</text>
    </g>

    <!-- REGISTERED AGENTS -->
    <g transform="translate(530, 100)">
        <text x="0" y="-20" font-size="12" fill="#aaaaaa">AGENTS</text>
        <text x="0" y="15" font-size="28" fill="#00d4ff" font-weight="bold" filter="url(#textGlow)">4,760</text>
        <text x="0" y="35" font-size="10" fill="#777777">REGISTERED DIDs</text>
    </g>

    <!-- TRANSACTIONS -->
    <g transform="translate(730, 100)">
        <text x="0" y="-20" font-size="12" fill="#aaaaaa">TRANSFERS</text>
        <text x="0" y="15" font-size="28" fill="#ffffff" font-weight="bold">29,052</text>
        <text x="0" y="35" font-size="10" fill="#777777">M2M SETTLEMENTS</text>
    </g>
  </g>

  <text x="425" y="185" font-family="'Consolas', 'Fira Code', monospace" font-size="10" fill="#aaaaaa" opacity="0.6" text-anchor="middle">AXIOMID PROJECTED TARGETS (ILLUSTRATIVE): 2026-07-03 13:42:35 UTC // SECURE_HANDSHAKE</text>
</svg>