<svg width="850" height="200" viewBox="0 0 850 200" xmlns="http://www.w3.org/2000/svg">
  <defs>
    <pattern id="carbonFiber" width="10" height="10" patternUnits="userSpaceOnUse">
        <rect width="10" height="10" fill="#050505"/>
        <path d="M0,0 L5,5 L10,0 L5,-5 Z M5,5 L10,10 L15,5 L10,0 Z M-5,5 L0,10 L5,5 L0,0 Z M0,10 L5,15 L10,10 L5,5 Z" fill="#0d0d0d"/>
    </pattern>
    <filter id="textGlow">
      <feGaussianBlur stdDeviation="2" result="blur" />
      <feMerge>
        <feMergeNode in="blur"/>
        <feMergeNode in="SourceGraphic"/>
      </feMerge>
    </filter>
    <linearGradient id="neonBar" x1="0%" y1="0%" x2="100%" y2="0%">
        <stop offset="0%" stop-color="#111111"/>
        <stop offset="100%" stop-color="#39FF14"/>
    </linearGradient>
    <linearGradient id="scanlineGrad" x1="0%" y1="0%" x2="100%" y2="0%">
        <stop offset="0%" stop-color="#39FF14" stop-opacity="0"/>
        <stop offset="50%" stop-color="#39FF14" stop-opacity="0.18"/>
        <stop offset="100%" stop-color="#39FF14" stop-opacity="0"/>
    </linearGradient>
    <clipPath id="dashClip">
        <rect x="0" y="0" width="850" height="200" rx="12"/>
    </clipPath>
  </defs>

  <rect width="100%" height="100%" fill="url(#carbonFiber)" rx="12" stroke="#39FF14" stroke-width="1" stroke-opacity="0.3"/>
  <rect width="100%" height="100%" fill="#000000" opacity="0.6" rx="12" />
  <g><polygon points="186,37 194.6,42 194.6,52 186,57 177.4,52 177.4,42" fill="none" stroke="#39FF14" stroke-width="1" opacity="0.0668031706327505"/>
<polygon points="593,190 601.6,195 601.6,205 593,210 584.4,205 584.4,195" fill="none" stroke="#39FF14" stroke-width="1" opacity="0.06612666775556704"/>
<polygon points="105,13 113.6,18 113.6,28 105,33 96.4,28 96.4,18" fill="none" stroke="#39FF14" stroke-width="1" opacity="0.03664246443851797"/>
<polygon points="508,187 516.6,192 516.6,202 508,207 499.4,202 499.4,192" fill="none" stroke="#39FF14" stroke-width="1" opacity="0.06158795802607077"/>
<polygon points="842,157 850.6,162 850.6,172 842,177 833.4,172 833.4,162" fill="none" stroke="#39FF14" stroke-width="1" opacity="0.03126823333400637"/>
<polygon points="557,127 565.6,132 565.6,142 557,147 548.4,142 548.4,132" fill="none" stroke="#39FF14" stroke-width="1" opacity="0.06894300998491963"/>
<polygon points="249,72 257.6,77 257.6,87 249,92 240.4,87 240.4,77" fill="none" stroke="#39FF14" stroke-width="1" opacity="0.023418644527221578"/>
<polygon points="226,157 234.6,162 234.6,172 226,177 217.4,172 217.4,162" fill="none" stroke="#39FF14" stroke-width="1" opacity="0.05092477772773836"/>
<polygon points="186,46 194.6,51 194.6,61 186,66 177.4,61 177.4,51" fill="none" stroke="#39FF14" stroke-width="1" opacity="0.06618996975605235"/>
<polygon points="47,175 55.6,180 55.6,190 47,195 38.4,190 38.4,180" fill="none" stroke="#39FF14" stroke-width="1" opacity="0.06359998646983026"/>
<polygon points="44,163 52.6,168 52.6,178 44,183 35.4,178 35.4,168" fill="none" stroke="#39FF14" stroke-width="1" opacity="0.06617547785416145"/>
<polygon points="10,113 18.6,118 18.6,128 10,133 1.4000000000000004,128 1.4000000000000004,118" fill="none" stroke="#39FF14" stroke-width="1" opacity="0.07835614277802219"/>
<polygon points="320,14 328.6,19 328.6,29 320,34 311.4,29 311.4,19" fill="none" stroke="#39FF14" stroke-width="1" opacity="0.04679167956013805"/>
<polygon points="94,61 102.6,66 102.6,76 94,81 85.4,76 85.4,66" fill="none" stroke="#39FF14" stroke-width="1" opacity="0.0640111037599049"/>
<polygon points="16,63 24.6,68 24.6,78 16,83 7.4,78 7.4,68" fill="none" stroke="#39FF14" stroke-width="1" opacity="0.06005055415513491"/>
<polygon points="1,77 9.6,82 9.6,92 1,97 -7.6,92 -7.6,82" fill="none" stroke="#39FF14" stroke-width="1" opacity="0.06032406487567624"/>
<polygon points="127,188 135.6,193 135.6,203 127,208 118.4,203 118.4,193" fill="none" stroke="#39FF14" stroke-width="1" opacity="0.07318717323757398"/>
<polygon points="558,179 566.6,184 566.6,194 558,199 549.4,194 549.4,184" fill="none" stroke="#39FF14" stroke-width="1" opacity="0.0426117539616966"/>
<polygon points="401,97 409.6,102 409.6,112 401,117 392.4,112 392.4,102" fill="none" stroke="#39FF14" stroke-width="1" opacity="0.07311292114269963"/>
<polygon points="627,60 635.6,65 635.6,75 627,80 618.4,75 618.4,65" fill="none" stroke="#39FF14" stroke-width="1" opacity="0.0259068077709564"/>
<polygon points="47,170 55.6,175 55.6,185 47,190 38.4,185 38.4,175" fill="none" stroke="#39FF14" stroke-width="1" opacity="0.04287223474653974"/>
<polygon points="154,132 162.6,137 162.6,147 154,152 145.4,147 145.4,137" fill="none" stroke="#39FF14" stroke-width="1" opacity="0.04127226683979203"/>
<polygon points="530,129 538.6,134 538.6,144 530,149 521.4,144 521.4,134" fill="none" stroke="#39FF14" stroke-width="1" opacity="0.067472872468042"/>
<polygon points="286,164 294.6,169 294.6,179 286,184 277.4,179 277.4,169" fill="none" stroke="#39FF14" stroke-width="1" opacity="0.03428607503979124"/>
<polygon points="803,11 811.6,16 811.6,26 803,31 794.4,26 794.4,16" fill="none" stroke="#39FF14" stroke-width="1" opacity="0.024085002853691913"/>
<polygon points="248,161 256.6,166 256.6,176 248,181 239.4,176 239.4,166" fill="none" stroke="#39FF14" stroke-width="1" opacity="0.021573131465332622"/>
<polygon points="227,63 235.6,68 235.6,78 227,83 218.4,78 218.4,68" fill="none" stroke="#39FF14" stroke-width="1" opacity="0.06608123063053771"/>
<polygon points="537,58 545.6,63 545.6,73 537,78 528.4,73 528.4,63" fill="none" stroke="#39FF14" stroke-width="1" opacity="0.02211403225051361"/>
<polygon points="562,178 570.6,183 570.6,193 562,198 553.4,193 553.4,183" fill="none" stroke="#39FF14" stroke-width="1" opacity="0.07537840457634438"/>
<polygon points="22,3 30.6,8 30.6,18 22,23 13.4,18 13.4,8" fill="none" stroke="#39FF14" stroke-width="1" opacity="0.047930754490577564"/>
</g>

  <!-- HUD Decorative elements -->
  <path d="M 20 20 L 40 20 L 50 30" fill="none" stroke="#39FF14" stroke-width="2" opacity="0.5"/>
  <path d="M 830 180 L 810 180 L 800 170" fill="none" stroke="#39FF14" stroke-width="2" opacity="0.5"/>

  <g clip-path="url(#dashClip)">
    <rect x="-160" y="0" width="160" height="200" fill="url(#scanlineGrad)">
      <animateTransform attributeName="transform" type="translate"
                        from="0 0" to="1010 0" dur="6s" repeatCount="indefinite"/>
    </rect>
  </g>

  <g font-family="'Consolas', 'Fira Code', monospace" text-anchor="middle">

    <!-- NETWORK STATUS -->
    <g transform="translate(130, 100)">
        <circle cx="0" cy="0" r="45" fill="none" stroke="#39FF14" stroke-width="2" stroke-dasharray="10 5">
            <animateTransform attributeName="transform" type="rotate" from="0" to="360" dur="10s" repeatCount="indefinite"/>
        </circle>
        <circle cx="0" cy="0" r="35" fill="#0d0d0d" />
        <text x="0" y="-60" font-size="12" fill="#aaaaaa" letter-spacing="2">ROOT.AUTH</text>
        <text x="0" y="70" font-size="14" fill="#ffffff" font-weight="bold">OPERATIONAL</text>
    </g>

    <!-- ACTIVE USERS -->
    <g transform="translate(330, 100)">
        <text x="0" y="-20" font-size="12" fill="#aaaaaa">CITIZENS</text>
        <text x="0" y="15" font-size="28" fill="#ffffff" font-weight="bold" filter="url(#textGlow)">14,721</text>
        <text x="0" y="35" font-size="10" fill="#777777">VERIFIED HUMANS</text>
    </g>

    <!-- REGISTERED AGENTS -->
    <g transform="translate(530, 100)">
        <text x="0" y="-20" font-size="12" fill="#aaaaaa">AGENTS</text>
        <text x="0" y="15" font-size="28" fill="#00d4ff" font-weight="bold" filter="url(#textGlow)">3,459</text>
        <text x="0" y="35" font-size="10" fill="#777777">REGISTERED DIDs</text>
    </g>

    <!-- TRANSACTIONS -->
    <g transform="translate(730, 100)">
        <text x="0" y="-20" font-size="12" fill="#aaaaaa">TRANSFERS</text>
        <text x="0" y="15" font-size="28" fill="#ffffff" font-weight="bold">26,280</text>
        <text x="0" y="35" font-size="10" fill="#777777">M2M SETTLEMENTS</text>
    </g>
  </g>

  <text x="425" y="185" font-family="'Consolas', 'Fira Code', monospace" font-size="10" fill="#aaaaaa" opacity="0.6" text-anchor="middle">AXIOMID PROJECTED TARGETS (ILLUSTRATIVE): 2026-07-20 05:59:35 UTC // SECURE_HANDSHAKE</text>
</svg>