<svg width="850" height="200" viewBox="0 0 850 200" xmlns="http://www.w3.org/2000/svg">
  <defs>
    <!-- Carbon Fiber Pattern -->
    <pattern id="carbonFiber" width="10" height="10" patternUnits="userSpaceOnUse">
        <rect width="10" height="10" fill="#050505"/>
        <path d="M0,0 L5,5 L10,0 L5,-5 Z M5,5 L10,10 L15,5 L10,0 Z M-5,5 L0,10 L5,5 L0,0 Z M0,10 L5,15 L10,10 L5,5 Z" fill="#0d0d0d"/>
    </pattern>
    <filter id="glassmorphism">
      <feGaussianBlur stdDeviation="3" result="blur" />
      <feColorMatrix type="matrix" values="1 0 0 0 0  0 1 0 0 0  0 0 1 0 0  0 0 0 18 -7" result="glow" />
      <feBlend in="SourceGraphic" in2="glow" mode="normal" />
    </filter>
    <filter id="textGlow">
      <feGaussianBlur stdDeviation="2" result="blur" />
      <feMerge>
        <feMergeNode in="blur"/>
        <feMergeNode in="SourceGraphic"/>
      </feMerge>
    </filter>
    <linearGradient id="neonBar" x1="0%" y1="0%" x2="100%" y2="0%">
        <stop offset="0%" stop-color="#111111"/>
        <stop offset="100%" stop-color="#39FF14"/>
    </linearGradient>
  </defs>

  <rect width="100%" height="100%" fill="url(#carbonFiber)" rx="12" stroke="#39FF14" stroke-width="1" stroke-opacity="0.3"/>
  <rect width="100%" height="100%" fill="#000000" opacity="0.6" rx="12" />
  <g><polygon points="364,45 372.6,50 372.6,60 364,65 355.4,60 355.4,50" fill="none" stroke="#39FF14" stroke-width="1" opacity="0.04303198004773517"/>
<polygon points="333,80 341.6,85 341.6,95 333,100 324.4,95 324.4,85" fill="none" stroke="#39FF14" stroke-width="1" opacity="0.040380610542082425"/>
<polygon points="346,126 354.6,131 354.6,141 346,146 337.4,141 337.4,131" fill="none" stroke="#39FF14" stroke-width="1" opacity="0.04546498153975156"/>
<polygon points="338,55 346.6,60 346.6,70 338,75 329.4,70 329.4,60" fill="none" stroke="#39FF14" stroke-width="1" opacity="0.05058908819222427"/>
<polygon points="661,175 669.6,180 669.6,190 661,195 652.4,190 652.4,180" fill="none" stroke="#39FF14" stroke-width="1" opacity="0.057883715063617364"/>
<polygon points="127,66 135.6,71 135.6,81 127,86 118.4,81 118.4,71" fill="none" stroke="#39FF14" stroke-width="1" opacity="0.0776786968174876"/>
<polygon points="754,0 762.6,5 762.6,15 754,20 745.4,15 745.4,5" fill="none" stroke="#39FF14" stroke-width="1" opacity="0.05930783424720973"/>
<polygon points="94,140 102.6,145 102.6,155 94,160 85.4,155 85.4,145" fill="none" stroke="#39FF14" stroke-width="1" opacity="0.07852303183090498"/>
<polygon points="588,28 596.6,33 596.6,43 588,48 579.4,43 579.4,33" fill="none" stroke="#39FF14" stroke-width="1" opacity="0.07278284947926496"/>
<polygon points="620,185 628.6,190 628.6,200 620,205 611.4,200 611.4,190" fill="none" stroke="#39FF14" stroke-width="1" opacity="0.057173061237948464"/>
<polygon points="790,133 798.6,138 798.6,148 790,153 781.4,148 781.4,138" fill="none" stroke="#39FF14" stroke-width="1" opacity="0.03169073498305244"/>
<polygon points="202,14 210.6,19 210.6,29 202,34 193.4,29 193.4,19" fill="none" stroke="#39FF14" stroke-width="1" opacity="0.029221995676177226"/>
<polygon points="1,81 9.6,86 9.6,96 1,101 -7.6,96 -7.6,86" fill="none" stroke="#39FF14" stroke-width="1" opacity="0.023113581965650366"/>
<polygon points="613,2 621.6,7 621.6,17 613,22 604.4,17 604.4,7" fill="none" stroke="#39FF14" stroke-width="1" opacity="0.045434221024295854"/>
<polygon points="150,97 158.6,102 158.6,112 150,117 141.4,112 141.4,102" fill="none" stroke="#39FF14" stroke-width="1" opacity="0.04693913370983523"/>
<polygon points="632,122 640.6,127 640.6,137 632,142 623.4,137 623.4,127" fill="none" stroke="#39FF14" stroke-width="1" opacity="0.07576004612335106"/>
<polygon points="445,85 453.6,90 453.6,100 445,105 436.4,100 436.4,90" fill="none" stroke="#39FF14" stroke-width="1" opacity="0.04252243623062277"/>
<polygon points="425,177 433.6,182 433.6,192 425,197 416.4,192 416.4,182" fill="none" stroke="#39FF14" stroke-width="1" opacity="0.05469942228288251"/>
<polygon points="281,149 289.6,154 289.6,164 281,169 272.4,164 272.4,154" fill="none" stroke="#39FF14" stroke-width="1" opacity="0.07038752869560183"/>
<polygon points="22,77 30.6,82 30.6,92 22,97 13.4,92 13.4,82" fill="none" stroke="#39FF14" stroke-width="1" opacity="0.027218348736365576"/>
<polygon points="654,144 662.6,149 662.6,159 654,164 645.4,159 645.4,149" fill="none" stroke="#39FF14" stroke-width="1" opacity="0.057127307237306746"/>
<polygon points="685,38 693.6,43 693.6,53 685,58 676.4,53 676.4,43" fill="none" stroke="#39FF14" stroke-width="1" opacity="0.0525806135466379"/>
<polygon points="75,58 83.6,63 83.6,73 75,78 66.4,73 66.4,63" fill="none" stroke="#39FF14" stroke-width="1" opacity="0.0415425142420706"/>
<polygon points="510,5 518.6,10 518.6,20 510,25 501.4,20 501.4,10" fill="none" stroke="#39FF14" stroke-width="1" opacity="0.07054047490717798"/>
<polygon points="135,146 143.6,151 143.6,161 135,166 126.4,161 126.4,151" fill="none" stroke="#39FF14" stroke-width="1" opacity="0.028635012723567575"/>
<polygon points="262,22 270.6,27 270.6,37 262,42 253.4,37 253.4,27" fill="none" stroke="#39FF14" stroke-width="1" opacity="0.04785398859975083"/>
<polygon points="772,-5 780.6,0 780.6,10 772,15 763.4,10 763.4,0" fill="none" stroke="#39FF14" stroke-width="1" opacity="0.0735055387680652"/>
<polygon points="546,104 554.6,109 554.6,119 546,124 537.4,119 537.4,109" fill="none" stroke="#39FF14" stroke-width="1" opacity="0.05368927455551532"/>
<polygon points="315,-5 323.6,0 323.6,10 315,15 306.4,10 306.4,0" fill="none" stroke="#39FF14" stroke-width="1" opacity="0.02640000493741296"/>
<polygon points="651,120 659.6,125 659.6,135 651,140 642.4,135 642.4,125" fill="none" stroke="#39FF14" stroke-width="1" opacity="0.0793934852954544"/>
</g>

  <!-- HUD Decorative elements -->
  <path d="M 20 20 L 40 20 L 50 30" fill="none" stroke="#39FF14" stroke-width="2" opacity="0.5"/>
  <path d="M 830 180 L 810 180 L 800 170" fill="none" stroke="#39FF14" stroke-width="2" opacity="0.5"/>
  <rect x="20" y="100" width="2" height="40" fill="#ffffff" opacity="0.4"/>
  <rect x="828" y="60" width="2" height="40" fill="#39FF14" opacity="0.6"/>

  <g font-family="'Consolas', 'Fira Code', monospace" text-anchor="middle">

    <!-- SYSTEM STATUS -->
    <g transform="translate(130, 100)">
        <circle cx="0" cy="0" r="45" fill="none" stroke="#111111" stroke-width="8" />
        <circle cx="0" cy="0" r="45" fill="none" stroke="#39FF14" stroke-width="2" stroke-dasharray="10 5">
            <animateTransform attributeName="transform" type="rotate" from="0" to="360" dur="10s" repeatCount="indefinite"/>
        </circle>
        <circle cx="0" cy="0" r="35" fill="#0d0d0d" />
        <circle cx="0" cy="0" r="6" fill="#39FF14" filter="url(#textGlow)">
            <animate attributeName="opacity" values="1;0.3;1" dur="2s" repeatCount="indefinite"/>
        </circle>
        <text x="0" y="-60" font-size="12" fill="#aaaaaa" letter-spacing="2">SYS.CORE</text>
        <text x="0" y="70" font-size="14" fill="#ffffff" font-weight="bold">ONLINE</text>
    </g>

    <!-- LIVE TRAFFIC -->
    <g transform="translate(330, 100)">
        <rect x="-60" y="-45" width="120" height="90" fill="#0a0a0a" rx="8" stroke="#39FF14" stroke-opacity="0.4" stroke-width="1"/>
        <text x="0" y="-20" font-size="12" fill="#aaaaaa">NETWORK LOAD</text>
        <text x="0" y="15" font-size="28" fill="#ffffff" font-weight="bold" filter="url(#textGlow)">5952</text>
        <text x="0" y="35" font-size="10" fill="#777777">ACTIVE SESSIONS</text>
    </g>

    <!-- ACTIVE AGENTS -->
    <g transform="translate(530, 100)">
        <rect x="-60" y="-45" width="120" height="90" fill="#0a0a0a" rx="8" stroke="#39FF14" stroke-opacity="0.4" stroke-width="1"/>
        <text x="0" y="-20" font-size="12" fill="#aaaaaa">SWARM ENTITIES</text>
        <text x="0" y="15" font-size="28" fill="#ffffff" font-weight="bold" filter="url(#textGlow)">172</text>
        <text x="0" y="35" font-size="10" fill="#777777">AUTONOMOUS</text>
    </g>

    <!-- UPTIME -->
    <g transform="translate(730, 100)">
        <path d="M -40 -35 L 40 -35 L 50 -25 L 50 35 L -40 35 L -50 25 Z" fill="#0a0a0a" stroke="#39FF14" stroke-opacity="0.4" stroke-width="1"/>
        <text x="0" y="-15" font-size="12" fill="#aaaaaa">CONTINUITY</text>
        <text x="0" y="15" font-size="24" fill="#ffffff" font-weight="bold">261<tspan font-size="14" fill="#777777">d</tspan></text>
        <rect x="-35" y="25" width="70" height="4" fill="url(#neonBar)" rx="2"/>
    </g>
  </g>

  <text x="425" y="185" font-family="'Consolas', 'Fira Code', monospace" font-size="10" fill="#aaaaaa" opacity="0.6" text-anchor="middle">LAST TELEMETRY PING: 2026-05-08 12:37:12 UTC // ENCRYPTED_TUNNEL</text>
</svg>