<svg width="850" height="200" viewBox="0 0 850 200" xmlns="http://www.w3.org/2000/svg">
  <defs>
    <pattern id="carbonFiber" width="10" height="10" patternUnits="userSpaceOnUse">
        <rect width="10" height="10" fill="#050505"/>
        <path d="M0,0 L5,5 L10,0 L5,-5 Z M5,5 L10,10 L15,5 L10,0 Z M-5,5 L0,10 L5,5 L0,0 Z M0,10 L5,15 L10,10 L5,5 Z" fill="#0d0d0d"/>
    </pattern>
    <filter id="textGlow">
      <feGaussianBlur stdDeviation="2" result="blur" />
      <feMerge>
        <feMergeNode in="blur"/>
        <feMergeNode in="SourceGraphic"/>
      </feMerge>
    </filter>
    <linearGradient id="neonBar" x1="0%" y1="0%" x2="100%" y2="0%">
        <stop offset="0%" stop-color="#111111"/>
        <stop offset="100%" stop-color="#39FF14"/>
    </linearGradient>
    <linearGradient id="scanlineGrad" x1="0%" y1="0%" x2="100%" y2="0%">
        <stop offset="0%" stop-color="#39FF14" stop-opacity="0"/>
        <stop offset="50%" stop-color="#39FF14" stop-opacity="0.18"/>
        <stop offset="100%" stop-color="#39FF14" stop-opacity="0"/>
    </linearGradient>
    <clipPath id="dashClip">
        <rect x="0" y="0" width="850" height="200" rx="12"/>
    </clipPath>
  </defs>

  <rect width="100%" height="100%" fill="url(#carbonFiber)" rx="12" stroke="#39FF14" stroke-width="1" stroke-opacity="0.3"/>
  <rect width="100%" height="100%" fill="#000000" opacity="0.6" rx="12" />
  <g><polygon points="464,126 472.6,131 472.6,141 464,146 455.4,141 455.4,131" fill="none" stroke="#39FF14" stroke-width="1" opacity="0.04888965449648923"/>
<polygon points="7,83 15.6,88 15.6,98 7,103 -1.5999999999999996,98 -1.5999999999999996,88" fill="none" stroke="#39FF14" stroke-width="1" opacity="0.07089060262174975"/>
<polygon points="701,119 709.6,124 709.6,134 701,139 692.4,134 692.4,124" fill="none" stroke="#39FF14" stroke-width="1" opacity="0.07506843534472461"/>
<polygon points="59,175 67.6,180 67.6,190 59,195 50.4,190 50.4,180" fill="none" stroke="#39FF14" stroke-width="1" opacity="0.07153519104830044"/>
<polygon points="136,150 144.6,155 144.6,165 136,170 127.4,165 127.4,155" fill="none" stroke="#39FF14" stroke-width="1" opacity="0.05290422712887623"/>
<polygon points="517,15 525.6,20 525.6,30 517,35 508.4,30 508.4,20" fill="none" stroke="#39FF14" stroke-width="1" opacity="0.06858655614177182"/>
<polygon points="712,99 720.6,104 720.6,114 712,119 703.4,114 703.4,104" fill="none" stroke="#39FF14" stroke-width="1" opacity="0.02786497024519169"/>
<polygon points="154,139 162.6,144 162.6,154 154,159 145.4,154 145.4,144" fill="none" stroke="#39FF14" stroke-width="1" opacity="0.045395415891856444"/>
<polygon points="412,10 420.6,15 420.6,25 412,30 403.4,25 403.4,15" fill="none" stroke="#39FF14" stroke-width="1" opacity="0.03030172051755247"/>
<polygon points="82,20 90.6,25 90.6,35 82,40 73.4,35 73.4,25" fill="none" stroke="#39FF14" stroke-width="1" opacity="0.04318331285844213"/>
<polygon points="401,56 409.6,61 409.6,71 401,76 392.4,71 392.4,61" fill="none" stroke="#39FF14" stroke-width="1" opacity="0.04721437749028981"/>
<polygon points="455,67 463.6,72 463.6,82 455,87 446.4,82 446.4,72" fill="none" stroke="#39FF14" stroke-width="1" opacity="0.06557607464959557"/>
<polygon points="232,29 240.6,34 240.6,44 232,49 223.4,44 223.4,34" fill="none" stroke="#39FF14" stroke-width="1" opacity="0.03517525522527495"/>
<polygon points="102,47 110.6,52 110.6,62 102,67 93.4,62 93.4,52" fill="none" stroke="#39FF14" stroke-width="1" opacity="0.06730405527288319"/>
<polygon points="417,38 425.6,43 425.6,53 417,58 408.4,53 408.4,43" fill="none" stroke="#39FF14" stroke-width="1" opacity="0.07548549615643299"/>
<polygon points="590,89 598.6,94 598.6,104 590,109 581.4,104 581.4,94" fill="none" stroke="#39FF14" stroke-width="1" opacity="0.04214761860685847"/>
<polygon points="506,134 514.6,139 514.6,149 506,154 497.4,149 497.4,139" fill="none" stroke="#39FF14" stroke-width="1" opacity="0.06648401078768719"/>
<polygon points="733,89 741.6,94 741.6,104 733,109 724.4,104 724.4,94" fill="none" stroke="#39FF14" stroke-width="1" opacity="0.05563953145939181"/>
<polygon points="750,146 758.6,151 758.6,161 750,166 741.4,161 741.4,151" fill="none" stroke="#39FF14" stroke-width="1" opacity="0.037156980205664464"/>
<polygon points="526,153 534.6,158 534.6,168 526,173 517.4,168 517.4,158" fill="none" stroke="#39FF14" stroke-width="1" opacity="0.04314200971478249"/>
<polygon points="474,123 482.6,128 482.6,138 474,143 465.4,138 465.4,128" fill="none" stroke="#39FF14" stroke-width="1" opacity="0.028643208873445087"/>
<polygon points="112,21 120.6,26 120.6,36 112,41 103.4,36 103.4,26" fill="none" stroke="#39FF14" stroke-width="1" opacity="0.06026699633928387"/>
<polygon points="284,164 292.6,169 292.6,179 284,184 275.4,179 275.4,169" fill="none" stroke="#39FF14" stroke-width="1" opacity="0.03894572453587709"/>
<polygon points="209,102 217.6,107 217.6,117 209,122 200.4,117 200.4,107" fill="none" stroke="#39FF14" stroke-width="1" opacity="0.05575640393198743"/>
<polygon points="615,94 623.6,99 623.6,109 615,114 606.4,109 606.4,99" fill="none" stroke="#39FF14" stroke-width="1" opacity="0.0725731560691287"/>
<polygon points="766,141 774.6,146 774.6,156 766,161 757.4,156 757.4,146" fill="none" stroke="#39FF14" stroke-width="1" opacity="0.03106782632402134"/>
<polygon points="74,169 82.6,174 82.6,184 74,189 65.4,184 65.4,174" fill="none" stroke="#39FF14" stroke-width="1" opacity="0.024578114733757497"/>
<polygon points="587,86 595.6,91 595.6,101 587,106 578.4,101 578.4,91" fill="none" stroke="#39FF14" stroke-width="1" opacity="0.03420014318009363"/>
<polygon points="505,146 513.6,151 513.6,161 505,166 496.4,161 496.4,151" fill="none" stroke="#39FF14" stroke-width="1" opacity="0.0654757792222049"/>
<polygon points="67,154 75.6,159 75.6,169 67,174 58.4,169 58.4,159" fill="none" stroke="#39FF14" stroke-width="1" opacity="0.043837603913677685"/>
</g>

  <!-- HUD Decorative elements -->
  <path d="M 20 20 L 40 20 L 50 30" fill="none" stroke="#39FF14" stroke-width="2" opacity="0.5"/>
  <path d="M 830 180 L 810 180 L 800 170" fill="none" stroke="#39FF14" stroke-width="2" opacity="0.5"/>

  <g clip-path="url(#dashClip)">
    <rect x="-160" y="0" width="160" height="200" fill="url(#scanlineGrad)">
      <animateTransform attributeName="transform" type="translate"
                        from="0 0" to="1010 0" dur="6s" repeatCount="indefinite"/>
    </rect>
  </g>

  <g font-family="'Consolas', 'Fira Code', monospace" text-anchor="middle">

    <!-- NETWORK STATUS -->
    <g transform="translate(130, 100)">
        <circle cx="0" cy="0" r="45" fill="none" stroke="#39FF14" stroke-width="2" stroke-dasharray="10 5">
            <animateTransform attributeName="transform" type="rotate" from="0" to="360" dur="10s" repeatCount="indefinite"/>
        </circle>
        <circle cx="0" cy="0" r="35" fill="#0d0d0d" />
        <text x="0" y="-60" font-size="12" fill="#aaaaaa" letter-spacing="2">ROOT.AUTH</text>
        <text x="0" y="70" font-size="14" fill="#ffffff" font-weight="bold">OPERATIONAL</text>
    </g>

    <!-- ACTIVE USERS -->
    <g transform="translate(330, 100)">
        <text x="0" y="-20" font-size="12" fill="#aaaaaa">CITIZENS</text>
        <text x="0" y="15" font-size="28" fill="#ffffff" font-weight="bold" filter="url(#textGlow)">12,685</text>
        <text x="0" y="35" font-size="10" fill="#777777">VERIFIED HUMANS</text>
    </g>

    <!-- REGISTERED AGENTS -->
    <g transform="translate(530, 100)">
        <text x="0" y="-20" font-size="12" fill="#aaaaaa">AGENTS</text>
        <text x="0" y="15" font-size="28" fill="#00d4ff" font-weight="bold" filter="url(#textGlow)">4,203</text>
        <text x="0" y="35" font-size="10" fill="#777777">REGISTERED DIDs</text>
    </g>

    <!-- TRANSACTIONS -->
    <g transform="translate(730, 100)">
        <text x="0" y="-20" font-size="12" fill="#aaaaaa">TRANSFERS</text>
        <text x="0" y="15" font-size="28" fill="#ffffff" font-weight="bold">30,943</text>
        <text x="0" y="35" font-size="10" fill="#777777">M2M SETTLEMENTS</text>
    </g>
  </g>

  <text x="425" y="185" font-family="'Consolas', 'Fira Code', monospace" font-size="10" fill="#aaaaaa" opacity="0.6" text-anchor="middle">AXIOMID PROJECTED TARGETS (ILLUSTRATIVE): 2026-07-11 21:39:32 UTC // SECURE_HANDSHAKE</text>
</svg>