<svg width="850" height="200" viewBox="0 0 850 200" xmlns="http://www.w3.org/2000/svg">
  <defs>
    <pattern id="carbonFiber" width="10" height="10" patternUnits="userSpaceOnUse">
        <rect width="10" height="10" fill="#050505"/>
        <path d="M0,0 L5,5 L10,0 L5,-5 Z M5,5 L10,10 L15,5 L10,0 Z M-5,5 L0,10 L5,5 L0,0 Z M0,10 L5,15 L10,10 L5,5 Z" fill="#0d0d0d"/>
    </pattern>
    <filter id="textGlow">
      <feGaussianBlur stdDeviation="2" result="blur" />
      <feMerge>
        <feMergeNode in="blur"/>
        <feMergeNode in="SourceGraphic"/>
      </feMerge>
    </filter>
    <linearGradient id="neonBar" x1="0%" y1="0%" x2="100%" y2="0%">
        <stop offset="0%" stop-color="#111111"/>
        <stop offset="100%" stop-color="#39FF14"/>
    </linearGradient>
    <linearGradient id="scanlineGrad" x1="0%" y1="0%" x2="100%" y2="0%">
        <stop offset="0%" stop-color="#39FF14" stop-opacity="0"/>
        <stop offset="50%" stop-color="#39FF14" stop-opacity="0.18"/>
        <stop offset="100%" stop-color="#39FF14" stop-opacity="0"/>
    </linearGradient>
    <clipPath id="dashClip">
        <rect x="0" y="0" width="850" height="200" rx="12"/>
    </clipPath>
  </defs>

  <rect width="100%" height="100%" fill="url(#carbonFiber)" rx="12" stroke="#39FF14" stroke-width="1" stroke-opacity="0.3"/>
  <rect width="100%" height="100%" fill="#000000" opacity="0.6" rx="12" />
  <g><polygon points="325,5 333.6,10 333.6,20 325,25 316.4,20 316.4,10" fill="none" stroke="#39FF14" stroke-width="1" opacity="0.05659449243621745"/>
<polygon points="537,107 545.6,112 545.6,122 537,127 528.4,122 528.4,112" fill="none" stroke="#39FF14" stroke-width="1" opacity="0.0706116562872537"/>
<polygon points="793,164 801.6,169 801.6,179 793,184 784.4,179 784.4,169" fill="none" stroke="#39FF14" stroke-width="1" opacity="0.035865114261074325"/>
<polygon points="721,0 729.6,5 729.6,15 721,20 712.4,15 712.4,5" fill="none" stroke="#39FF14" stroke-width="1" opacity="0.056321456555069344"/>
<polygon points="317,-4 325.6,1 325.6,11 317,16 308.4,11 308.4,1" fill="none" stroke="#39FF14" stroke-width="1" opacity="0.03399691537010088"/>
<polygon points="820,122 828.6,127 828.6,137 820,142 811.4,137 811.4,127" fill="none" stroke="#39FF14" stroke-width="1" opacity="0.04526714353298899"/>
<polygon points="385,82 393.6,87 393.6,97 385,102 376.4,97 376.4,87" fill="none" stroke="#39FF14" stroke-width="1" opacity="0.050908443538386444"/>
<polygon points="516,188 524.6,193 524.6,203 516,208 507.4,203 507.4,193" fill="none" stroke="#39FF14" stroke-width="1" opacity="0.03353968351721909"/>
<polygon points="34,161 42.6,166 42.6,176 34,181 25.4,176 25.4,166" fill="none" stroke="#39FF14" stroke-width="1" opacity="0.061191009173254846"/>
<polygon points="709,32 717.6,37 717.6,47 709,52 700.4,47 700.4,37" fill="none" stroke="#39FF14" stroke-width="1" opacity="0.04335579467591641"/>
<polygon points="557,167 565.6,172 565.6,182 557,187 548.4,182 548.4,172" fill="none" stroke="#39FF14" stroke-width="1" opacity="0.03867550937387121"/>
<polygon points="786,-8 794.6,-3 794.6,7 786,12 777.4,7 777.4,-3" fill="none" stroke="#39FF14" stroke-width="1" opacity="0.03707257882727813"/>
<polygon points="590,103 598.6,108 598.6,118 590,123 581.4,118 581.4,108" fill="none" stroke="#39FF14" stroke-width="1" opacity="0.07307115077329066"/>
<polygon points="717,187 725.6,192 725.6,202 717,207 708.4,202 708.4,192" fill="none" stroke="#39FF14" stroke-width="1" opacity="0.07945352271069145"/>
<polygon points="723,116 731.6,121 731.6,131 723,136 714.4,131 714.4,121" fill="none" stroke="#39FF14" stroke-width="1" opacity="0.05048526850810271"/>
<polygon points="69,123 77.6,128 77.6,138 69,143 60.4,138 60.4,128" fill="none" stroke="#39FF14" stroke-width="1" opacity="0.03595495475750898"/>
<polygon points="534,140 542.6,145 542.6,155 534,160 525.4,155 525.4,145" fill="none" stroke="#39FF14" stroke-width="1" opacity="0.05440505291400555"/>
<polygon points="205,-9 213.6,-4 213.6,6 205,11 196.4,6 196.4,-4" fill="none" stroke="#39FF14" stroke-width="1" opacity="0.029278993598554664"/>
<polygon points="97,159 105.6,164 105.6,174 97,179 88.4,174 88.4,164" fill="none" stroke="#39FF14" stroke-width="1" opacity="0.05908843529595656"/>
<polygon points="532,96 540.6,101 540.6,111 532,116 523.4,111 523.4,101" fill="none" stroke="#39FF14" stroke-width="1" opacity="0.04273533197640336"/>
<polygon points="472,46 480.6,51 480.6,61 472,66 463.4,61 463.4,51" fill="none" stroke="#39FF14" stroke-width="1" opacity="0.02069870594175615"/>
<polygon points="472,51 480.6,56 480.6,66 472,71 463.4,66 463.4,56" fill="none" stroke="#39FF14" stroke-width="1" opacity="0.07306433876733982"/>
<polygon points="69,185 77.6,190 77.6,200 69,205 60.4,200 60.4,190" fill="none" stroke="#39FF14" stroke-width="1" opacity="0.07999798209292598"/>
<polygon points="101,140 109.6,145 109.6,155 101,160 92.4,155 92.4,145" fill="none" stroke="#39FF14" stroke-width="1" opacity="0.029762321355162404"/>
<polygon points="812,35 820.6,40 820.6,50 812,55 803.4,50 803.4,40" fill="none" stroke="#39FF14" stroke-width="1" opacity="0.0404799153145079"/>
<polygon points="182,51 190.6,56 190.6,66 182,71 173.4,66 173.4,56" fill="none" stroke="#39FF14" stroke-width="1" opacity="0.04243650283337577"/>
<polygon points="333,137 341.6,142 341.6,152 333,157 324.4,152 324.4,142" fill="none" stroke="#39FF14" stroke-width="1" opacity="0.06192747496181003"/>
<polygon points="461,69 469.6,74 469.6,84 461,89 452.4,84 452.4,74" fill="none" stroke="#39FF14" stroke-width="1" opacity="0.028193566152257765"/>
<polygon points="715,129 723.6,134 723.6,144 715,149 706.4,144 706.4,134" fill="none" stroke="#39FF14" stroke-width="1" opacity="0.03041962418294531"/>
<polygon points="536,32 544.6,37 544.6,47 536,52 527.4,47 527.4,37" fill="none" stroke="#39FF14" stroke-width="1" opacity="0.05499933513441094"/>
</g>

  <!-- HUD Decorative elements -->
  <path d="M 20 20 L 40 20 L 50 30" fill="none" stroke="#39FF14" stroke-width="2" opacity="0.5"/>
  <path d="M 830 180 L 810 180 L 800 170" fill="none" stroke="#39FF14" stroke-width="2" opacity="0.5"/>

  <g clip-path="url(#dashClip)">
    <rect x="-160" y="0" width="160" height="200" fill="url(#scanlineGrad)">
      <animateTransform attributeName="transform" type="translate"
                        from="0 0" to="1010 0" dur="6s" repeatCount="indefinite"/>
    </rect>
  </g>

  <g font-family="'Consolas', 'Fira Code', monospace" text-anchor="middle">

    <!-- NETWORK STATUS -->
    <g transform="translate(130, 100)">
        <circle cx="0" cy="0" r="45" fill="none" stroke="#39FF14" stroke-width="2" stroke-dasharray="10 5">
            <animateTransform attributeName="transform" type="rotate" from="0" to="360" dur="10s" repeatCount="indefinite"/>
        </circle>
        <circle cx="0" cy="0" r="35" fill="#0d0d0d" />
        <text x="0" y="-60" font-size="12" fill="#aaaaaa" letter-spacing="2">ROOT.AUTH</text>
        <text x="0" y="70" font-size="14" fill="#ffffff" font-weight="bold">OPERATIONAL</text>
    </g>

    <!-- ACTIVE USERS -->
    <g transform="translate(330, 100)">
        <text x="0" y="-20" font-size="12" fill="#aaaaaa">CITIZENS</text>
        <text x="0" y="15" font-size="28" fill="#ffffff" font-weight="bold" filter="url(#textGlow)">14,029</text>
        <text x="0" y="35" font-size="10" fill="#777777">VERIFIED HUMANS</text>
    </g>

    <!-- REGISTERED AGENTS -->
    <g transform="translate(530, 100)">
        <text x="0" y="-20" font-size="12" fill="#aaaaaa">AGENTS</text>
        <text x="0" y="15" font-size="28" fill="#00d4ff" font-weight="bold" filter="url(#textGlow)">4,523</text>
        <text x="0" y="35" font-size="10" fill="#777777">REGISTERED DIDs</text>
    </g>

    <!-- TRANSACTIONS -->
    <g transform="translate(730, 100)">
        <text x="0" y="-20" font-size="12" fill="#aaaaaa">TRANSFERS</text>
        <text x="0" y="15" font-size="28" fill="#ffffff" font-weight="bold">32,266</text>
        <text x="0" y="35" font-size="10" fill="#777777">M2M SETTLEMENTS</text>
    </g>
  </g>

  <text x="425" y="185" font-family="'Consolas', 'Fira Code', monospace" font-size="10" fill="#aaaaaa" opacity="0.6" text-anchor="middle">AXIOMID PROJECTED TARGETS (ILLUSTRATIVE): 2026-06-22 10:51:33 UTC // SECURE_HANDSHAKE</text>
</svg>