<svg width="850" height="200" viewBox="0 0 850 200" xmlns="http://www.w3.org/2000/svg">
  <defs>
    <pattern id="carbonFiber" width="10" height="10" patternUnits="userSpaceOnUse">
        <rect width="10" height="10" fill="#050505"/>
        <path d="M0,0 L5,5 L10,0 L5,-5 Z M5,5 L10,10 L15,5 L10,0 Z M-5,5 L0,10 L5,5 L0,0 Z M0,10 L5,15 L10,10 L5,5 Z" fill="#0d0d0d"/>
    </pattern>
    <filter id="textGlow">
      <feGaussianBlur stdDeviation="2" result="blur" />
      <feMerge>
        <feMergeNode in="blur"/>
        <feMergeNode in="SourceGraphic"/>
      </feMerge>
    </filter>
    <linearGradient id="neonBar" x1="0%" y1="0%" x2="100%" y2="0%">
        <stop offset="0%" stop-color="#111111"/>
        <stop offset="100%" stop-color="#39FF14"/>
    </linearGradient>
    <linearGradient id="scanlineGrad" x1="0%" y1="0%" x2="100%" y2="0%">
        <stop offset="0%" stop-color="#39FF14" stop-opacity="0"/>
        <stop offset="50%" stop-color="#39FF14" stop-opacity="0.18"/>
        <stop offset="100%" stop-color="#39FF14" stop-opacity="0"/>
    </linearGradient>
    <clipPath id="dashClip">
        <rect x="0" y="0" width="850" height="200" rx="12"/>
    </clipPath>
  </defs>

  <rect width="100%" height="100%" fill="url(#carbonFiber)" rx="12" stroke="#39FF14" stroke-width="1" stroke-opacity="0.3"/>
  <rect width="100%" height="100%" fill="#000000" opacity="0.6" rx="12" />
  <g><polygon points="419,164 427.6,169 427.6,179 419,184 410.4,179 410.4,169" fill="none" stroke="#39FF14" stroke-width="1" opacity="0.06772610404823927"/>
<polygon points="537,148 545.6,153 545.6,163 537,168 528.4,163 528.4,153" fill="none" stroke="#39FF14" stroke-width="1" opacity="0.025000792047748525"/>
<polygon points="82,114 90.6,119 90.6,129 82,134 73.4,129 73.4,119" fill="none" stroke="#39FF14" stroke-width="1" opacity="0.0207721255086952"/>
<polygon points="704,189 712.6,194 712.6,204 704,209 695.4,204 695.4,194" fill="none" stroke="#39FF14" stroke-width="1" opacity="0.04977500724800014"/>
<polygon points="796,163 804.6,168 804.6,178 796,183 787.4,178 787.4,168" fill="none" stroke="#39FF14" stroke-width="1" opacity="0.0596230178802685"/>
<polygon points="817,149 825.6,154 825.6,164 817,169 808.4,164 808.4,154" fill="none" stroke="#39FF14" stroke-width="1" opacity="0.03115833993233043"/>
<polygon points="79,4 87.6,9 87.6,19 79,24 70.4,19 70.4,9" fill="none" stroke="#39FF14" stroke-width="1" opacity="0.06915392136230941"/>
<polygon points="157,20 165.6,25 165.6,35 157,40 148.4,35 148.4,25" fill="none" stroke="#39FF14" stroke-width="1" opacity="0.02646913335358247"/>
<polygon points="425,-5 433.6,0 433.6,10 425,15 416.4,10 416.4,0" fill="none" stroke="#39FF14" stroke-width="1" opacity="0.05951047965497194"/>
<polygon points="224,137 232.6,142 232.6,152 224,157 215.4,152 215.4,142" fill="none" stroke="#39FF14" stroke-width="1" opacity="0.049992596647193965"/>
<polygon points="34,188 42.6,193 42.6,203 34,208 25.4,203 25.4,193" fill="none" stroke="#39FF14" stroke-width="1" opacity="0.07192073725348337"/>
<polygon points="353,82 361.6,87 361.6,97 353,102 344.4,97 344.4,87" fill="none" stroke="#39FF14" stroke-width="1" opacity="0.05159013205035401"/>
<polygon points="163,177 171.6,182 171.6,192 163,197 154.4,192 154.4,182" fill="none" stroke="#39FF14" stroke-width="1" opacity="0.032197021542882606"/>
<polygon points="674,15 682.6,20 682.6,30 674,35 665.4,30 665.4,20" fill="none" stroke="#39FF14" stroke-width="1" opacity="0.06673134137689045"/>
<polygon points="538,95 546.6,100 546.6,110 538,115 529.4,110 529.4,100" fill="none" stroke="#39FF14" stroke-width="1" opacity="0.046573945808704546"/>
<polygon points="764,-9 772.6,-4 772.6,6 764,11 755.4,6 755.4,-4" fill="none" stroke="#39FF14" stroke-width="1" opacity="0.05103126060553183"/>
<polygon points="640,58 648.6,63 648.6,73 640,78 631.4,73 631.4,63" fill="none" stroke="#39FF14" stroke-width="1" opacity="0.02660133539235205"/>
<polygon points="325,149 333.6,154 333.6,164 325,169 316.4,164 316.4,154" fill="none" stroke="#39FF14" stroke-width="1" opacity="0.037879890073514354"/>
<polygon points="720,179 728.6,184 728.6,194 720,199 711.4,194 711.4,184" fill="none" stroke="#39FF14" stroke-width="1" opacity="0.03567023238892281"/>
<polygon points="714,165 722.6,170 722.6,180 714,185 705.4,180 705.4,170" fill="none" stroke="#39FF14" stroke-width="1" opacity="0.05278635919889978"/>
<polygon points="300,6 308.6,11 308.6,21 300,26 291.4,21 291.4,11" fill="none" stroke="#39FF14" stroke-width="1" opacity="0.07810403759940349"/>
<polygon points="317,68 325.6,73 325.6,83 317,88 308.4,83 308.4,73" fill="none" stroke="#39FF14" stroke-width="1" opacity="0.049586844689256115"/>
<polygon points="69,72 77.6,77 77.6,87 69,92 60.4,87 60.4,77" fill="none" stroke="#39FF14" stroke-width="1" opacity="0.044966493061925863"/>
<polygon points="497,87 505.6,92 505.6,102 497,107 488.4,102 488.4,92" fill="none" stroke="#39FF14" stroke-width="1" opacity="0.07350559157420138"/>
<polygon points="122,97 130.6,102 130.6,112 122,117 113.4,112 113.4,102" fill="none" stroke="#39FF14" stroke-width="1" opacity="0.05582460145625959"/>
<polygon points="331,20 339.6,25 339.6,35 331,40 322.4,35 322.4,25" fill="none" stroke="#39FF14" stroke-width="1" opacity="0.04687280956231897"/>
<polygon points="563,127 571.6,132 571.6,142 563,147 554.4,142 554.4,132" fill="none" stroke="#39FF14" stroke-width="1" opacity="0.03714157332529636"/>
<polygon points="587,179 595.6,184 595.6,194 587,199 578.4,194 578.4,184" fill="none" stroke="#39FF14" stroke-width="1" opacity="0.07850592770938747"/>
<polygon points="685,42 693.6,47 693.6,57 685,62 676.4,57 676.4,47" fill="none" stroke="#39FF14" stroke-width="1" opacity="0.07584881233931433"/>
<polygon points="187,101 195.6,106 195.6,116 187,121 178.4,116 178.4,106" fill="none" stroke="#39FF14" stroke-width="1" opacity="0.021563670624096025"/>
</g>

  <!-- HUD Decorative elements -->
  <path d="M 20 20 L 40 20 L 50 30" fill="none" stroke="#39FF14" stroke-width="2" opacity="0.5"/>
  <path d="M 830 180 L 810 180 L 800 170" fill="none" stroke="#39FF14" stroke-width="2" opacity="0.5"/>

  <g clip-path="url(#dashClip)">
    <rect x="-160" y="0" width="160" height="200" fill="url(#scanlineGrad)">
      <animateTransform attributeName="transform" type="translate"
                        from="0 0" to="1010 0" dur="6s" repeatCount="indefinite"/>
    </rect>
  </g>

  <g font-family="'Consolas', 'Fira Code', monospace" text-anchor="middle">

    <!-- NETWORK STATUS -->
    <g transform="translate(130, 100)">
        <circle cx="0" cy="0" r="45" fill="none" stroke="#39FF14" stroke-width="2" stroke-dasharray="10 5">
            <animateTransform attributeName="transform" type="rotate" from="0" to="360" dur="10s" repeatCount="indefinite"/>
        </circle>
        <circle cx="0" cy="0" r="35" fill="#0d0d0d" />
        <text x="0" y="-60" font-size="12" fill="#aaaaaa" letter-spacing="2">ROOT.AUTH</text>
        <text x="0" y="70" font-size="14" fill="#ffffff" font-weight="bold">OPERATIONAL</text>
    </g>

    <!-- ACTIVE USERS -->
    <g transform="translate(330, 100)">
        <text x="0" y="-20" font-size="12" fill="#aaaaaa">CITIZENS</text>
        <text x="0" y="15" font-size="28" fill="#ffffff" font-weight="bold" filter="url(#textGlow)">13,812</text>
        <text x="0" y="35" font-size="10" fill="#777777">VERIFIED HUMANS</text>
    </g>

    <!-- REGISTERED AGENTS -->
    <g transform="translate(530, 100)">
        <text x="0" y="-20" font-size="12" fill="#aaaaaa">AGENTS</text>
        <text x="0" y="15" font-size="28" fill="#00d4ff" font-weight="bold" filter="url(#textGlow)">4,200</text>
        <text x="0" y="35" font-size="10" fill="#777777">REGISTERED DIDs</text>
    </g>

    <!-- TRANSACTIONS -->
    <g transform="translate(730, 100)">
        <text x="0" y="-20" font-size="12" fill="#aaaaaa">TRANSFERS</text>
        <text x="0" y="15" font-size="28" fill="#ffffff" font-weight="bold">36,939</text>
        <text x="0" y="35" font-size="10" fill="#777777">M2M SETTLEMENTS</text>
    </g>
  </g>

  <text x="425" y="185" font-family="'Consolas', 'Fira Code', monospace" font-size="10" fill="#aaaaaa" opacity="0.6" text-anchor="middle">AXIOMID PROJECTED TARGETS (ILLUSTRATIVE): 2026-06-24 15:45:17 UTC // SECURE_HANDSHAKE</text>
</svg>