<svg width="850" height="200" viewBox="0 0 850 200" xmlns="http://www.w3.org/2000/svg">
  <defs>
    <pattern id="carbonFiber" width="10" height="10" patternUnits="userSpaceOnUse">
        <rect width="10" height="10" fill="#050505"/>
        <path d="M0,0 L5,5 L10,0 L5,-5 Z M5,5 L10,10 L15,5 L10,0 Z M-5,5 L0,10 L5,5 L0,0 Z M0,10 L5,15 L10,10 L5,5 Z" fill="#0d0d0d"/>
    </pattern>
    <filter id="textGlow">
      <feGaussianBlur stdDeviation="2" result="blur" />
      <feMerge>
        <feMergeNode in="blur"/>
        <feMergeNode in="SourceGraphic"/>
      </feMerge>
    </filter>
    <linearGradient id="neonBar" x1="0%" y1="0%" x2="100%" y2="0%">
        <stop offset="0%" stop-color="#111111"/>
        <stop offset="100%" stop-color="#39FF14"/>
    </linearGradient>
    <linearGradient id="scanlineGrad" x1="0%" y1="0%" x2="100%" y2="0%">
        <stop offset="0%" stop-color="#39FF14" stop-opacity="0"/>
        <stop offset="50%" stop-color="#39FF14" stop-opacity="0.18"/>
        <stop offset="100%" stop-color="#39FF14" stop-opacity="0"/>
    </linearGradient>
    <clipPath id="dashClip">
        <rect x="0" y="0" width="850" height="200" rx="12"/>
    </clipPath>
  </defs>

  <rect width="100%" height="100%" fill="url(#carbonFiber)" rx="12" stroke="#39FF14" stroke-width="1" stroke-opacity="0.3"/>
  <rect width="100%" height="100%" fill="#000000" opacity="0.6" rx="12" />
  <g><polygon points="232,94 240.6,99 240.6,109 232,114 223.4,109 223.4,99" fill="none" stroke="#39FF14" stroke-width="1" opacity="0.05098965976909789"/>
<polygon points="513,34 521.6,39 521.6,49 513,54 504.4,49 504.4,39" fill="none" stroke="#39FF14" stroke-width="1" opacity="0.070935469682783"/>
<polygon points="278,-3 286.6,2 286.6,12 278,17 269.4,12 269.4,2" fill="none" stroke="#39FF14" stroke-width="1" opacity="0.07689357662414817"/>
<polygon points="473,124 481.6,129 481.6,139 473,144 464.4,139 464.4,129" fill="none" stroke="#39FF14" stroke-width="1" opacity="0.0522450396733026"/>
<polygon points="651,93 659.6,98 659.6,108 651,113 642.4,108 642.4,98" fill="none" stroke="#39FF14" stroke-width="1" opacity="0.07654729025957042"/>
<polygon points="238,49 246.6,54 246.6,64 238,69 229.4,64 229.4,54" fill="none" stroke="#39FF14" stroke-width="1" opacity="0.038350018987962704"/>
<polygon points="563,28 571.6,33 571.6,43 563,48 554.4,43 554.4,33" fill="none" stroke="#39FF14" stroke-width="1" opacity="0.03930017061440516"/>
<polygon points="665,19 673.6,24 673.6,34 665,39 656.4,34 656.4,24" fill="none" stroke="#39FF14" stroke-width="1" opacity="0.07308937422015192"/>
<polygon points="180,160 188.6,165 188.6,175 180,180 171.4,175 171.4,165" fill="none" stroke="#39FF14" stroke-width="1" opacity="0.06095600058763431"/>
<polygon points="490,56 498.6,61 498.6,71 490,76 481.4,71 481.4,61" fill="none" stroke="#39FF14" stroke-width="1" opacity="0.048375773407489185"/>
<polygon points="434,37 442.6,42 442.6,52 434,57 425.4,52 425.4,42" fill="none" stroke="#39FF14" stroke-width="1" opacity="0.03741641325580322"/>
<polygon points="583,7 591.6,12 591.6,22 583,27 574.4,22 574.4,12" fill="none" stroke="#39FF14" stroke-width="1" opacity="0.03742089802681852"/>
<polygon points="407,131 415.6,136 415.6,146 407,151 398.4,146 398.4,136" fill="none" stroke="#39FF14" stroke-width="1" opacity="0.04631475335214781"/>
<polygon points="230,145 238.6,150 238.6,160 230,165 221.4,160 221.4,150" fill="none" stroke="#39FF14" stroke-width="1" opacity="0.04820747812754872"/>
<polygon points="750,174 758.6,179 758.6,189 750,194 741.4,189 741.4,179" fill="none" stroke="#39FF14" stroke-width="1" opacity="0.05465434465668435"/>
<polygon points="425,61 433.6,66 433.6,76 425,81 416.4,76 416.4,66" fill="none" stroke="#39FF14" stroke-width="1" opacity="0.02169585928877933"/>
<polygon points="436,18 444.6,23 444.6,33 436,38 427.4,33 427.4,23" fill="none" stroke="#39FF14" stroke-width="1" opacity="0.05266870919281107"/>
<polygon points="17,129 25.6,134 25.6,144 17,149 8.4,144 8.4,134" fill="none" stroke="#39FF14" stroke-width="1" opacity="0.048270493008858814"/>
<polygon points="75,124 83.6,129 83.6,139 75,144 66.4,139 66.4,129" fill="none" stroke="#39FF14" stroke-width="1" opacity="0.053254812091501805"/>
<polygon points="450,51 458.6,56 458.6,66 450,71 441.4,66 441.4,56" fill="none" stroke="#39FF14" stroke-width="1" opacity="0.04794045555203299"/>
<polygon points="593,-10 601.6,-5 601.6,5 593,10 584.4,5 584.4,-5" fill="none" stroke="#39FF14" stroke-width="1" opacity="0.06283584171341927"/>
<polygon points="61,10 69.6,15 69.6,25 61,30 52.4,25 52.4,15" fill="none" stroke="#39FF14" stroke-width="1" opacity="0.06062525617639469"/>
<polygon points="233,134 241.6,139 241.6,149 233,154 224.4,149 224.4,139" fill="none" stroke="#39FF14" stroke-width="1" opacity="0.07265350413832916"/>
<polygon points="381,44 389.6,49 389.6,59 381,64 372.4,59 372.4,49" fill="none" stroke="#39FF14" stroke-width="1" opacity="0.07104354971124129"/>
<polygon points="79,43 87.6,48 87.6,58 79,63 70.4,58 70.4,48" fill="none" stroke="#39FF14" stroke-width="1" opacity="0.023057559155099328"/>
<polygon points="674,188 682.6,193 682.6,203 674,208 665.4,203 665.4,193" fill="none" stroke="#39FF14" stroke-width="1" opacity="0.05365451706822151"/>
<polygon points="295,79 303.6,84 303.6,94 295,99 286.4,94 286.4,84" fill="none" stroke="#39FF14" stroke-width="1" opacity="0.026990737942623785"/>
<polygon points="18,2 26.6,7 26.6,17 18,22 9.4,17 9.4,7" fill="none" stroke="#39FF14" stroke-width="1" opacity="0.05382685280565383"/>
<polygon points="263,122 271.6,127 271.6,137 263,142 254.4,137 254.4,127" fill="none" stroke="#39FF14" stroke-width="1" opacity="0.0304905305959286"/>
<polygon points="120,35 128.6,40 128.6,50 120,55 111.4,50 111.4,40" fill="none" stroke="#39FF14" stroke-width="1" opacity="0.05379117866824139"/>
</g>

  <!-- HUD Decorative elements -->
  <path d="M 20 20 L 40 20 L 50 30" fill="none" stroke="#39FF14" stroke-width="2" opacity="0.5"/>
  <path d="M 830 180 L 810 180 L 800 170" fill="none" stroke="#39FF14" stroke-width="2" opacity="0.5"/>

  <g clip-path="url(#dashClip)">
    <rect x="-160" y="0" width="160" height="200" fill="url(#scanlineGrad)">
      <animateTransform attributeName="transform" type="translate"
                        from="0 0" to="1010 0" dur="6s" repeatCount="indefinite"/>
    </rect>
  </g>

  <g font-family="'Consolas', 'Fira Code', monospace" text-anchor="middle">

    <!-- NETWORK STATUS -->
    <g transform="translate(130, 100)">
        <circle cx="0" cy="0" r="45" fill="none" stroke="#39FF14" stroke-width="2" stroke-dasharray="10 5">
            <animateTransform attributeName="transform" type="rotate" from="0" to="360" dur="10s" repeatCount="indefinite"/>
        </circle>
        <circle cx="0" cy="0" r="35" fill="#0d0d0d" />
        <text x="0" y="-60" font-size="12" fill="#aaaaaa" letter-spacing="2">ROOT.AUTH</text>
        <text x="0" y="70" font-size="14" fill="#ffffff" font-weight="bold">OPERATIONAL</text>
    </g>

    <!-- ACTIVE USERS -->
    <g transform="translate(330, 100)">
        <text x="0" y="-20" font-size="12" fill="#aaaaaa">CITIZENS</text>
        <text x="0" y="15" font-size="28" fill="#ffffff" font-weight="bold" filter="url(#textGlow)">12,974</text>
        <text x="0" y="35" font-size="10" fill="#777777">VERIFIED HUMANS</text>
    </g>

    <!-- REGISTERED AGENTS -->
    <g transform="translate(530, 100)">
        <text x="0" y="-20" font-size="12" fill="#aaaaaa">AGENTS</text>
        <text x="0" y="15" font-size="28" fill="#00d4ff" font-weight="bold" filter="url(#textGlow)">3,212</text>
        <text x="0" y="35" font-size="10" fill="#777777">REGISTERED DIDs</text>
    </g>

    <!-- TRANSACTIONS -->
    <g transform="translate(730, 100)">
        <text x="0" y="-20" font-size="12" fill="#aaaaaa">TRANSFERS</text>
        <text x="0" y="15" font-size="28" fill="#ffffff" font-weight="bold">27,564</text>
        <text x="0" y="35" font-size="10" fill="#777777">M2M SETTLEMENTS</text>
    </g>
  </g>

  <text x="425" y="185" font-family="'Consolas', 'Fira Code', monospace" font-size="10" fill="#aaaaaa" opacity="0.6" text-anchor="middle">AXIOMID PROJECTED TARGETS (ILLUSTRATIVE): 2026-07-14 16:07:43 UTC // SECURE_HANDSHAKE</text>
</svg>