<svg width="850" height="200" viewBox="0 0 850 200" xmlns="http://www.w3.org/2000/svg">
  <defs>
    <pattern id="carbonFiber" width="10" height="10" patternUnits="userSpaceOnUse">
        <rect width="10" height="10" fill="#050505"/>
        <path d="M0,0 L5,5 L10,0 L5,-5 Z M5,5 L10,10 L15,5 L10,0 Z M-5,5 L0,10 L5,5 L0,0 Z M0,10 L5,15 L10,10 L5,5 Z" fill="#0d0d0d"/>
    </pattern>
    <filter id="textGlow">
      <feGaussianBlur stdDeviation="2" result="blur" />
      <feMerge>
        <feMergeNode in="blur"/>
        <feMergeNode in="SourceGraphic"/>
      </feMerge>
    </filter>
    <linearGradient id="neonBar" x1="0%" y1="0%" x2="100%" y2="0%">
        <stop offset="0%" stop-color="#111111"/>
        <stop offset="100%" stop-color="#39FF14"/>
    </linearGradient>
    <linearGradient id="scanlineGrad" x1="0%" y1="0%" x2="100%" y2="0%">
        <stop offset="0%" stop-color="#39FF14" stop-opacity="0"/>
        <stop offset="50%" stop-color="#39FF14" stop-opacity="0.18"/>
        <stop offset="100%" stop-color="#39FF14" stop-opacity="0"/>
    </linearGradient>
    <clipPath id="dashClip">
        <rect x="0" y="0" width="850" height="200" rx="12"/>
    </clipPath>
  </defs>

  <rect width="100%" height="100%" fill="url(#carbonFiber)" rx="12" stroke="#39FF14" stroke-width="1" stroke-opacity="0.3"/>
  <rect width="100%" height="100%" fill="#000000" opacity="0.6" rx="12" />
  <g><polygon points="464,147 472.6,152 472.6,162 464,167 455.4,162 455.4,152" fill="none" stroke="#39FF14" stroke-width="1" opacity="0.06299951424927049"/>
<polygon points="56,68 64.6,73 64.6,83 56,88 47.4,83 47.4,73" fill="none" stroke="#39FF14" stroke-width="1" opacity="0.04876766324467352"/>
<polygon points="749,18 757.6,23 757.6,33 749,38 740.4,33 740.4,23" fill="none" stroke="#39FF14" stroke-width="1" opacity="0.06117113463770156"/>
<polygon points="610,83 618.6,88 618.6,98 610,103 601.4,98 601.4,88" fill="none" stroke="#39FF14" stroke-width="1" opacity="0.07949074329570506"/>
<polygon points="387,110 395.6,115 395.6,125 387,130 378.4,125 378.4,115" fill="none" stroke="#39FF14" stroke-width="1" opacity="0.060483427741280474"/>
<polygon points="830,124 838.6,129 838.6,139 830,144 821.4,139 821.4,129" fill="none" stroke="#39FF14" stroke-width="1" opacity="0.07766645424554047"/>
<polygon points="812,51 820.6,56 820.6,66 812,71 803.4,66 803.4,56" fill="none" stroke="#39FF14" stroke-width="1" opacity="0.06782841415333099"/>
<polygon points="751,98 759.6,103 759.6,113 751,118 742.4,113 742.4,103" fill="none" stroke="#39FF14" stroke-width="1" opacity="0.0632751655807028"/>
<polygon points="536,82 544.6,87 544.6,97 536,102 527.4,97 527.4,87" fill="none" stroke="#39FF14" stroke-width="1" opacity="0.05931253817978972"/>
<polygon points="820,41 828.6,46 828.6,56 820,61 811.4,56 811.4,46" fill="none" stroke="#39FF14" stroke-width="1" opacity="0.07809536443144235"/>
<polygon points="168,16 176.6,21 176.6,31 168,36 159.4,31 159.4,21" fill="none" stroke="#39FF14" stroke-width="1" opacity="0.04332643527611267"/>
<polygon points="213,58 221.6,63 221.6,73 213,78 204.4,73 204.4,63" fill="none" stroke="#39FF14" stroke-width="1" opacity="0.07888452964532985"/>
<polygon points="443,156 451.6,161 451.6,171 443,176 434.4,171 434.4,161" fill="none" stroke="#39FF14" stroke-width="1" opacity="0.04613408891992302"/>
<polygon points="77,86 85.6,91 85.6,101 77,106 68.4,101 68.4,91" fill="none" stroke="#39FF14" stroke-width="1" opacity="0.055935721214212766"/>
<polygon points="605,17 613.6,22 613.6,32 605,37 596.4,32 596.4,22" fill="none" stroke="#39FF14" stroke-width="1" opacity="0.06850934825589801"/>
<polygon points="791,33 799.6,38 799.6,48 791,53 782.4,48 782.4,38" fill="none" stroke="#39FF14" stroke-width="1" opacity="0.06434945364367294"/>
<polygon points="733,162 741.6,167 741.6,177 733,182 724.4,177 724.4,167" fill="none" stroke="#39FF14" stroke-width="1" opacity="0.020589816225683576"/>
<polygon points="655,189 663.6,194 663.6,204 655,209 646.4,204 646.4,194" fill="none" stroke="#39FF14" stroke-width="1" opacity="0.04948733144207258"/>
<polygon points="315,119 323.6,124 323.6,134 315,139 306.4,134 306.4,124" fill="none" stroke="#39FF14" stroke-width="1" opacity="0.038763770748494304"/>
<polygon points="550,66 558.6,71 558.6,81 550,86 541.4,81 541.4,71" fill="none" stroke="#39FF14" stroke-width="1" opacity="0.06402658934601681"/>
<polygon points="705,159 713.6,164 713.6,174 705,179 696.4,174 696.4,164" fill="none" stroke="#39FF14" stroke-width="1" opacity="0.05213327052226163"/>
<polygon points="659,82 667.6,87 667.6,97 659,102 650.4,97 650.4,87" fill="none" stroke="#39FF14" stroke-width="1" opacity="0.05793801307088088"/>
<polygon points="25,153 33.6,158 33.6,168 25,173 16.4,168 16.4,158" fill="none" stroke="#39FF14" stroke-width="1" opacity="0.028524060875337875"/>
<polygon points="410,9 418.6,14 418.6,24 410,29 401.4,24 401.4,14" fill="none" stroke="#39FF14" stroke-width="1" opacity="0.04990201174483677"/>
<polygon points="356,31 364.6,36 364.6,46 356,51 347.4,46 347.4,36" fill="none" stroke="#39FF14" stroke-width="1" opacity="0.07944829905911316"/>
<polygon points="482,159 490.6,164 490.6,174 482,179 473.4,174 473.4,164" fill="none" stroke="#39FF14" stroke-width="1" opacity="0.020795717608278978"/>
<polygon points="121,158 129.6,163 129.6,173 121,178 112.4,173 112.4,163" fill="none" stroke="#39FF14" stroke-width="1" opacity="0.05065231049621628"/>
<polygon points="629,51 637.6,56 637.6,66 629,71 620.4,66 620.4,56" fill="none" stroke="#39FF14" stroke-width="1" opacity="0.032563779774027406"/>
<polygon points="25,42 33.6,47 33.6,57 25,62 16.4,57 16.4,47" fill="none" stroke="#39FF14" stroke-width="1" opacity="0.0542090081978613"/>
<polygon points="718,3 726.6,8 726.6,18 718,23 709.4,18 709.4,8" fill="none" stroke="#39FF14" stroke-width="1" opacity="0.044787550417012774"/>
</g>

  <!-- HUD Decorative elements -->
  <path d="M 20 20 L 40 20 L 50 30" fill="none" stroke="#39FF14" stroke-width="2" opacity="0.5"/>
  <path d="M 830 180 L 810 180 L 800 170" fill="none" stroke="#39FF14" stroke-width="2" opacity="0.5"/>

  <g clip-path="url(#dashClip)">
    <rect x="-160" y="0" width="160" height="200" fill="url(#scanlineGrad)">
      <animateTransform attributeName="transform" type="translate"
                        from="0 0" to="1010 0" dur="6s" repeatCount="indefinite"/>
    </rect>
  </g>

  <g font-family="'Consolas', 'Fira Code', monospace" text-anchor="middle">

    <!-- NETWORK STATUS -->
    <g transform="translate(130, 100)">
        <circle cx="0" cy="0" r="45" fill="none" stroke="#39FF14" stroke-width="2" stroke-dasharray="10 5">
            <animateTransform attributeName="transform" type="rotate" from="0" to="360" dur="10s" repeatCount="indefinite"/>
        </circle>
        <circle cx="0" cy="0" r="35" fill="#0d0d0d" />
        <text x="0" y="-60" font-size="12" fill="#aaaaaa" letter-spacing="2">ROOT.AUTH</text>
        <text x="0" y="70" font-size="14" fill="#ffffff" font-weight="bold">OPERATIONAL</text>
    </g>

    <!-- ACTIVE USERS -->
    <g transform="translate(330, 100)">
        <text x="0" y="-20" font-size="12" fill="#aaaaaa">CITIZENS</text>
        <text x="0" y="15" font-size="28" fill="#ffffff" font-weight="bold" filter="url(#textGlow)">14,637</text>
        <text x="0" y="35" font-size="10" fill="#777777">VERIFIED HUMANS</text>
    </g>

    <!-- REGISTERED AGENTS -->
    <g transform="translate(530, 100)">
        <text x="0" y="-20" font-size="12" fill="#aaaaaa">AGENTS</text>
        <text x="0" y="15" font-size="28" fill="#00d4ff" font-weight="bold" filter="url(#textGlow)">4,534</text>
        <text x="0" y="35" font-size="10" fill="#777777">REGISTERED DIDs</text>
    </g>

    <!-- TRANSACTIONS -->
    <g transform="translate(730, 100)">
        <text x="0" y="-20" font-size="12" fill="#aaaaaa">TRANSFERS</text>
        <text x="0" y="15" font-size="28" fill="#ffffff" font-weight="bold">33,922</text>
        <text x="0" y="35" font-size="10" fill="#777777">M2M SETTLEMENTS</text>
    </g>
  </g>

  <text x="425" y="185" font-family="'Consolas', 'Fira Code', monospace" font-size="10" fill="#aaaaaa" opacity="0.6" text-anchor="middle">AXIOMID PROJECTED TARGETS (ILLUSTRATIVE): 2026-07-02 19:09:09 UTC // SECURE_HANDSHAKE</text>
</svg>