<svg width="850" height="200" viewBox="0 0 850 200" xmlns="http://www.w3.org/2000/svg">
  <defs>
    <pattern id="carbonFiber" width="10" height="10" patternUnits="userSpaceOnUse">
        <rect width="10" height="10" fill="#050505"/>
        <path d="M0,0 L5,5 L10,0 L5,-5 Z M5,5 L10,10 L15,5 L10,0 Z M-5,5 L0,10 L5,5 L0,0 Z M0,10 L5,15 L10,10 L5,5 Z" fill="#0d0d0d"/>
    </pattern>
    <filter id="textGlow">
      <feGaussianBlur stdDeviation="2" result="blur" />
      <feMerge>
        <feMergeNode in="blur"/>
        <feMergeNode in="SourceGraphic"/>
      </feMerge>
    </filter>
    <linearGradient id="neonBar" x1="0%" y1="0%" x2="100%" y2="0%">
        <stop offset="0%" stop-color="#111111"/>
        <stop offset="100%" stop-color="#39FF14"/>
    </linearGradient>
    <linearGradient id="scanlineGrad" x1="0%" y1="0%" x2="100%" y2="0%">
        <stop offset="0%" stop-color="#39FF14" stop-opacity="0"/>
        <stop offset="50%" stop-color="#39FF14" stop-opacity="0.18"/>
        <stop offset="100%" stop-color="#39FF14" stop-opacity="0"/>
    </linearGradient>
    <clipPath id="dashClip">
        <rect x="0" y="0" width="850" height="200" rx="12"/>
    </clipPath>
  </defs>

  <rect width="100%" height="100%" fill="url(#carbonFiber)" rx="12" stroke="#39FF14" stroke-width="1" stroke-opacity="0.3"/>
  <rect width="100%" height="100%" fill="#000000" opacity="0.6" rx="12" />
  <g><polygon points="416,154 424.6,159 424.6,169 416,174 407.4,169 407.4,159" fill="none" stroke="#39FF14" stroke-width="1" opacity="0.06847900241191913"/>
<polygon points="435,24 443.6,29 443.6,39 435,44 426.4,39 426.4,29" fill="none" stroke="#39FF14" stroke-width="1" opacity="0.0755507482786449"/>
<polygon points="594,186 602.6,191 602.6,201 594,206 585.4,201 585.4,191" fill="none" stroke="#39FF14" stroke-width="1" opacity="0.04090774683726494"/>
<polygon points="74,154 82.6,159 82.6,169 74,174 65.4,169 65.4,159" fill="none" stroke="#39FF14" stroke-width="1" opacity="0.021522188738072285"/>
<polygon points="244,149 252.6,154 252.6,164 244,169 235.4,164 235.4,154" fill="none" stroke="#39FF14" stroke-width="1" opacity="0.03519062928363165"/>
<polygon points="250,178 258.6,183 258.6,193 250,198 241.4,193 241.4,183" fill="none" stroke="#39FF14" stroke-width="1" opacity="0.07546795855147104"/>
<polygon points="105,52 113.6,57 113.6,67 105,72 96.4,67 96.4,57" fill="none" stroke="#39FF14" stroke-width="1" opacity="0.04508377849822187"/>
<polygon points="825,19 833.6,24 833.6,34 825,39 816.4,34 816.4,24" fill="none" stroke="#39FF14" stroke-width="1" opacity="0.07944533273305124"/>
<polygon points="812,112 820.6,117 820.6,127 812,132 803.4,127 803.4,117" fill="none" stroke="#39FF14" stroke-width="1" opacity="0.02912632090895593"/>
<polygon points="384,102 392.6,107 392.6,117 384,122 375.4,117 375.4,107" fill="none" stroke="#39FF14" stroke-width="1" opacity="0.020731375702172185"/>
<polygon points="705,41 713.6,46 713.6,56 705,61 696.4,56 696.4,46" fill="none" stroke="#39FF14" stroke-width="1" opacity="0.04862455656641058"/>
<polygon points="88,134 96.6,139 96.6,149 88,154 79.4,149 79.4,139" fill="none" stroke="#39FF14" stroke-width="1" opacity="0.05425703019418497"/>
<polygon points="460,95 468.6,100 468.6,110 460,115 451.4,110 451.4,100" fill="none" stroke="#39FF14" stroke-width="1" opacity="0.029863315826436594"/>
<polygon points="56,32 64.6,37 64.6,47 56,52 47.4,47 47.4,37" fill="none" stroke="#39FF14" stroke-width="1" opacity="0.030285045539910335"/>
<polygon points="292,106 300.6,111 300.6,121 292,126 283.4,121 283.4,111" fill="none" stroke="#39FF14" stroke-width="1" opacity="0.051415601041350664"/>
<polygon points="179,139 187.6,144 187.6,154 179,159 170.4,154 170.4,144" fill="none" stroke="#39FF14" stroke-width="1" opacity="0.03857631772455728"/>
<polygon points="644,154 652.6,159 652.6,169 644,174 635.4,169 635.4,159" fill="none" stroke="#39FF14" stroke-width="1" opacity="0.07716720027787452"/>
<polygon points="659,127 667.6,132 667.6,142 659,147 650.4,142 650.4,132" fill="none" stroke="#39FF14" stroke-width="1" opacity="0.02218287673167526"/>
<polygon points="177,28 185.6,33 185.6,43 177,48 168.4,43 168.4,33" fill="none" stroke="#39FF14" stroke-width="1" opacity="0.050937247012764045"/>
<polygon points="789,175 797.6,180 797.6,190 789,195 780.4,190 780.4,180" fill="none" stroke="#39FF14" stroke-width="1" opacity="0.020955307074616975"/>
<polygon points="306,36 314.6,41 314.6,51 306,56 297.4,51 297.4,41" fill="none" stroke="#39FF14" stroke-width="1" opacity="0.070166955931829"/>
<polygon points="613,159 621.6,164 621.6,174 613,179 604.4,174 604.4,164" fill="none" stroke="#39FF14" stroke-width="1" opacity="0.021222480081982253"/>
<polygon points="629,77 637.6,82 637.6,92 629,97 620.4,92 620.4,82" fill="none" stroke="#39FF14" stroke-width="1" opacity="0.038366473409328125"/>
<polygon points="583,75 591.6,80 591.6,90 583,95 574.4,90 574.4,80" fill="none" stroke="#39FF14" stroke-width="1" opacity="0.04728048460651729"/>
<polygon points="819,168 827.6,173 827.6,183 819,188 810.4,183 810.4,173" fill="none" stroke="#39FF14" stroke-width="1" opacity="0.031643943278076334"/>
<polygon points="726,3 734.6,8 734.6,18 726,23 717.4,18 717.4,8" fill="none" stroke="#39FF14" stroke-width="1" opacity="0.049825347386525234"/>
<polygon points="371,123 379.6,128 379.6,138 371,143 362.4,138 362.4,128" fill="none" stroke="#39FF14" stroke-width="1" opacity="0.07742069397225317"/>
<polygon points="409,136 417.6,141 417.6,151 409,156 400.4,151 400.4,141" fill="none" stroke="#39FF14" stroke-width="1" opacity="0.07339875812042014"/>
<polygon points="244,17 252.6,22 252.6,32 244,37 235.4,32 235.4,22" fill="none" stroke="#39FF14" stroke-width="1" opacity="0.06339744399057189"/>
<polygon points="172,52 180.6,57 180.6,67 172,72 163.4,67 163.4,57" fill="none" stroke="#39FF14" stroke-width="1" opacity="0.0718137055513061"/>
</g>

  <!-- HUD Decorative elements -->
  <path d="M 20 20 L 40 20 L 50 30" fill="none" stroke="#39FF14" stroke-width="2" opacity="0.5"/>
  <path d="M 830 180 L 810 180 L 800 170" fill="none" stroke="#39FF14" stroke-width="2" opacity="0.5"/>

  <g clip-path="url(#dashClip)">
    <rect x="-160" y="0" width="160" height="200" fill="url(#scanlineGrad)">
      <animateTransform attributeName="transform" type="translate"
                        from="0 0" to="1010 0" dur="6s" repeatCount="indefinite"/>
    </rect>
  </g>

  <g font-family="'Consolas', 'Fira Code', monospace" text-anchor="middle">

    <!-- NETWORK STATUS -->
    <g transform="translate(130, 100)">
        <circle cx="0" cy="0" r="45" fill="none" stroke="#39FF14" stroke-width="2" stroke-dasharray="10 5">
            <animateTransform attributeName="transform" type="rotate" from="0" to="360" dur="10s" repeatCount="indefinite"/>
        </circle>
        <circle cx="0" cy="0" r="35" fill="#0d0d0d" />
        <text x="0" y="-60" font-size="12" fill="#aaaaaa" letter-spacing="2">ROOT.AUTH</text>
        <text x="0" y="70" font-size="14" fill="#ffffff" font-weight="bold">OPERATIONAL</text>
    </g>

    <!-- ACTIVE USERS -->
    <g transform="translate(330, 100)">
        <text x="0" y="-20" font-size="12" fill="#aaaaaa">CITIZENS</text>
        <text x="0" y="15" font-size="28" fill="#ffffff" font-weight="bold" filter="url(#textGlow)">13,757</text>
        <text x="0" y="35" font-size="10" fill="#777777">VERIFIED HUMANS</text>
    </g>

    <!-- REGISTERED AGENTS -->
    <g transform="translate(530, 100)">
        <text x="0" y="-20" font-size="12" fill="#aaaaaa">AGENTS</text>
        <text x="0" y="15" font-size="28" fill="#00d4ff" font-weight="bold" filter="url(#textGlow)">4,395</text>
        <text x="0" y="35" font-size="10" fill="#777777">REGISTERED DIDs</text>
    </g>

    <!-- TRANSACTIONS -->
    <g transform="translate(730, 100)">
        <text x="0" y="-20" font-size="12" fill="#aaaaaa">TRANSFERS</text>
        <text x="0" y="15" font-size="28" fill="#ffffff" font-weight="bold">40,689</text>
        <text x="0" y="35" font-size="10" fill="#777777">M2M SETTLEMENTS</text>
    </g>
  </g>

  <text x="425" y="185" font-family="'Consolas', 'Fira Code', monospace" font-size="10" fill="#aaaaaa" opacity="0.6" text-anchor="middle">AXIOMID PROJECTED TARGETS (ILLUSTRATIVE): 2026-07-15 01:24:04 UTC // SECURE_HANDSHAKE</text>
</svg>