<svg width="850" height="200" viewBox="0 0 850 200" xmlns="http://www.w3.org/2000/svg">
  <defs>
    <pattern id="carbonFiber" width="10" height="10" patternUnits="userSpaceOnUse">
        <rect width="10" height="10" fill="#050505"/>
        <path d="M0,0 L5,5 L10,0 L5,-5 Z M5,5 L10,10 L15,5 L10,0 Z M-5,5 L0,10 L5,5 L0,0 Z M0,10 L5,15 L10,10 L5,5 Z" fill="#0d0d0d"/>
    </pattern>
    <filter id="textGlow">
      <feGaussianBlur stdDeviation="2" result="blur" />
      <feMerge>
        <feMergeNode in="blur"/>
        <feMergeNode in="SourceGraphic"/>
      </feMerge>
    </filter>
    <linearGradient id="neonBar" x1="0%" y1="0%" x2="100%" y2="0%">
        <stop offset="0%" stop-color="#111111"/>
        <stop offset="100%" stop-color="#39FF14"/>
    </linearGradient>
    <linearGradient id="scanlineGrad" x1="0%" y1="0%" x2="100%" y2="0%">
        <stop offset="0%" stop-color="#39FF14" stop-opacity="0"/>
        <stop offset="50%" stop-color="#39FF14" stop-opacity="0.18"/>
        <stop offset="100%" stop-color="#39FF14" stop-opacity="0"/>
    </linearGradient>
    <clipPath id="dashClip">
        <rect x="0" y="0" width="850" height="200" rx="12"/>
    </clipPath>
  </defs>

  <rect width="100%" height="100%" fill="url(#carbonFiber)" rx="12" stroke="#39FF14" stroke-width="1" stroke-opacity="0.3"/>
  <rect width="100%" height="100%" fill="#000000" opacity="0.6" rx="12" />
  <g><polygon points="583,76 591.6,81 591.6,91 583,96 574.4,91 574.4,81" fill="none" stroke="#39FF14" stroke-width="1" opacity="0.02147678552533826"/>
<polygon points="345,9 353.6,14 353.6,24 345,29 336.4,24 336.4,14" fill="none" stroke="#39FF14" stroke-width="1" opacity="0.029840709274158408"/>
<polygon points="243,29 251.6,34 251.6,44 243,49 234.4,44 234.4,34" fill="none" stroke="#39FF14" stroke-width="1" opacity="0.05692470469021717"/>
<polygon points="519,7 527.6,12 527.6,22 519,27 510.4,22 510.4,12" fill="none" stroke="#39FF14" stroke-width="1" opacity="0.03050605671825414"/>
<polygon points="74,34 82.6,39 82.6,49 74,54 65.4,49 65.4,39" fill="none" stroke="#39FF14" stroke-width="1" opacity="0.02950467035613912"/>
<polygon points="227,-9 235.6,-4 235.6,6 227,11 218.4,6 218.4,-4" fill="none" stroke="#39FF14" stroke-width="1" opacity="0.049310036698720416"/>
<polygon points="738,162 746.6,167 746.6,177 738,182 729.4,177 729.4,167" fill="none" stroke="#39FF14" stroke-width="1" opacity="0.02485044708526838"/>
<polygon points="141,37 149.6,42 149.6,52 141,57 132.4,52 132.4,42" fill="none" stroke="#39FF14" stroke-width="1" opacity="0.032168658885026555"/>
<polygon points="449,49 457.6,54 457.6,64 449,69 440.4,64 440.4,54" fill="none" stroke="#39FF14" stroke-width="1" opacity="0.06186231806244784"/>
<polygon points="598,101 606.6,106 606.6,116 598,121 589.4,116 589.4,106" fill="none" stroke="#39FF14" stroke-width="1" opacity="0.044638639173884505"/>
<polygon points="19,6 27.6,11 27.6,21 19,26 10.4,21 10.4,11" fill="none" stroke="#39FF14" stroke-width="1" opacity="0.020477595922338755"/>
<polygon points="464,24 472.6,29 472.6,39 464,44 455.4,39 455.4,29" fill="none" stroke="#39FF14" stroke-width="1" opacity="0.044522361823060505"/>
<polygon points="441,184 449.6,189 449.6,199 441,204 432.4,199 432.4,189" fill="none" stroke="#39FF14" stroke-width="1" opacity="0.03571420850992516"/>
<polygon points="785,169 793.6,174 793.6,184 785,189 776.4,184 776.4,174" fill="none" stroke="#39FF14" stroke-width="1" opacity="0.07231431056031923"/>
<polygon points="672,120 680.6,125 680.6,135 672,140 663.4,135 663.4,125" fill="none" stroke="#39FF14" stroke-width="1" opacity="0.035446317442286567"/>
<polygon points="322,128 330.6,133 330.6,143 322,148 313.4,143 313.4,133" fill="none" stroke="#39FF14" stroke-width="1" opacity="0.020831783261119213"/>
<polygon points="489,83 497.6,88 497.6,98 489,103 480.4,98 480.4,88" fill="none" stroke="#39FF14" stroke-width="1" opacity="0.047118708932422884"/>
<polygon points="710,139 718.6,144 718.6,154 710,159 701.4,154 701.4,144" fill="none" stroke="#39FF14" stroke-width="1" opacity="0.06852094834751274"/>
<polygon points="775,13 783.6,18 783.6,28 775,33 766.4,28 766.4,18" fill="none" stroke="#39FF14" stroke-width="1" opacity="0.060540240973308804"/>
<polygon points="167,66 175.6,71 175.6,81 167,86 158.4,81 158.4,71" fill="none" stroke="#39FF14" stroke-width="1" opacity="0.05920364804567445"/>
<polygon points="486,43 494.6,48 494.6,58 486,63 477.4,58 477.4,48" fill="none" stroke="#39FF14" stroke-width="1" opacity="0.07665288304808247"/>
<polygon points="828,114 836.6,119 836.6,129 828,134 819.4,129 819.4,119" fill="none" stroke="#39FF14" stroke-width="1" opacity="0.062166445354882194"/>
<polygon points="104,-2 112.6,3 112.6,13 104,18 95.4,13 95.4,3" fill="none" stroke="#39FF14" stroke-width="1" opacity="0.03158554485318503"/>
<polygon points="640,3 648.6,8 648.6,18 640,23 631.4,18 631.4,8" fill="none" stroke="#39FF14" stroke-width="1" opacity="0.025854727508921968"/>
<polygon points="268,7 276.6,12 276.6,22 268,27 259.4,22 259.4,12" fill="none" stroke="#39FF14" stroke-width="1" opacity="0.05443260450859162"/>
<polygon points="91,121 99.6,126 99.6,136 91,141 82.4,136 82.4,126" fill="none" stroke="#39FF14" stroke-width="1" opacity="0.05822772569062257"/>
<polygon points="606,136 614.6,141 614.6,151 606,156 597.4,151 597.4,141" fill="none" stroke="#39FF14" stroke-width="1" opacity="0.04241277701457148"/>
<polygon points="678,92 686.6,97 686.6,107 678,112 669.4,107 669.4,97" fill="none" stroke="#39FF14" stroke-width="1" opacity="0.023260818438819636"/>
<polygon points="291,121 299.6,126 299.6,136 291,141 282.4,136 282.4,126" fill="none" stroke="#39FF14" stroke-width="1" opacity="0.025152749360170534"/>
<polygon points="21,147 29.6,152 29.6,162 21,167 12.4,162 12.4,152" fill="none" stroke="#39FF14" stroke-width="1" opacity="0.03218064312034817"/>
</g>

  <!-- HUD Decorative elements -->
  <path d="M 20 20 L 40 20 L 50 30" fill="none" stroke="#39FF14" stroke-width="2" opacity="0.5"/>
  <path d="M 830 180 L 810 180 L 800 170" fill="none" stroke="#39FF14" stroke-width="2" opacity="0.5"/>

  <g clip-path="url(#dashClip)">
    <rect x="-160" y="0" width="160" height="200" fill="url(#scanlineGrad)">
      <animateTransform attributeName="transform" type="translate"
                        from="0 0" to="1010 0" dur="6s" repeatCount="indefinite"/>
    </rect>
  </g>

  <g font-family="'Consolas', 'Fira Code', monospace" text-anchor="middle">

    <!-- NETWORK STATUS -->
    <g transform="translate(130, 100)">
        <circle cx="0" cy="0" r="45" fill="none" stroke="#39FF14" stroke-width="2" stroke-dasharray="10 5">
            <animateTransform attributeName="transform" type="rotate" from="0" to="360" dur="10s" repeatCount="indefinite"/>
        </circle>
        <circle cx="0" cy="0" r="35" fill="#0d0d0d" />
        <text x="0" y="-60" font-size="12" fill="#aaaaaa" letter-spacing="2">ROOT.AUTH</text>
        <text x="0" y="70" font-size="14" fill="#ffffff" font-weight="bold">OPERATIONAL</text>
    </g>

    <!-- ACTIVE USERS -->
    <g transform="translate(330, 100)">
        <text x="0" y="-20" font-size="12" fill="#aaaaaa">CITIZENS</text>
        <text x="0" y="15" font-size="28" fill="#ffffff" font-weight="bold" filter="url(#textGlow)">14,352</text>
        <text x="0" y="35" font-size="10" fill="#777777">VERIFIED HUMANS</text>
    </g>

    <!-- REGISTERED AGENTS -->
    <g transform="translate(530, 100)">
        <text x="0" y="-20" font-size="12" fill="#aaaaaa">AGENTS</text>
        <text x="0" y="15" font-size="28" fill="#00d4ff" font-weight="bold" filter="url(#textGlow)">3,940</text>
        <text x="0" y="35" font-size="10" fill="#777777">REGISTERED DIDs</text>
    </g>

    <!-- TRANSACTIONS -->
    <g transform="translate(730, 100)">
        <text x="0" y="-20" font-size="12" fill="#aaaaaa">TRANSFERS</text>
        <text x="0" y="15" font-size="28" fill="#ffffff" font-weight="bold">28,065</text>
        <text x="0" y="35" font-size="10" fill="#777777">M2M SETTLEMENTS</text>
    </g>
  </g>

  <text x="425" y="185" font-family="'Consolas', 'Fira Code', monospace" font-size="10" fill="#aaaaaa" opacity="0.6" text-anchor="middle">AXIOMID PROJECTED TARGETS (ILLUSTRATIVE): 2026-06-21 04:30:14 UTC // SECURE_HANDSHAKE</text>
</svg>