<svg width="850" height="200" viewBox="0 0 850 200" xmlns="http://www.w3.org/2000/svg">
  <defs>
    <!-- Carbon Fiber Pattern -->
    <pattern id="carbonFiber" width="10" height="10" patternUnits="userSpaceOnUse">
        <rect width="10" height="10" fill="#050505"/>
        <path d="M0,0 L5,5 L10,0 L5,-5 Z M5,5 L10,10 L15,5 L10,0 Z M-5,5 L0,10 L5,5 L0,0 Z M0,10 L5,15 L10,10 L5,5 Z" fill="#0d0d0d"/>
    </pattern>
    <filter id="glassmorphism">
      <feGaussianBlur stdDeviation="3" result="blur" />
      <feColorMatrix type="matrix" values="1 0 0 0 0  0 1 0 0 0  0 0 1 0 0  0 0 0 18 -7" result="glow" />
      <feBlend in="SourceGraphic" in2="glow" mode="normal" />
    </filter>
    <filter id="textGlow">
      <feGaussianBlur stdDeviation="2" result="blur" />
      <feMerge>
        <feMergeNode in="blur"/>
        <feMergeNode in="SourceGraphic"/>
      </feMerge>
    </filter>
    <linearGradient id="neonBar" x1="0%" y1="0%" x2="100%" y2="0%">
        <stop offset="0%" stop-color="#111111"/>
        <stop offset="100%" stop-color="#39FF14"/>
    </linearGradient>
  </defs>

  <rect width="100%" height="100%" fill="url(#carbonFiber)" rx="12" stroke="#39FF14" stroke-width="1" stroke-opacity="0.3"/>
  <rect width="100%" height="100%" fill="#000000" opacity="0.6" rx="12" />
  <g><polygon points="555,17 563.6,22 563.6,32 555,37 546.4,32 546.4,22" fill="none" stroke="#39FF14" stroke-width="1" opacity="0.06683856629937976"/>
<polygon points="653,15 661.6,20 661.6,30 653,35 644.4,30 644.4,20" fill="none" stroke="#39FF14" stroke-width="1" opacity="0.02785783499867537"/>
<polygon points="399,160 407.6,165 407.6,175 399,180 390.4,175 390.4,165" fill="none" stroke="#39FF14" stroke-width="1" opacity="0.05461657106048831"/>
<polygon points="438,106 446.6,111 446.6,121 438,126 429.4,121 429.4,111" fill="none" stroke="#39FF14" stroke-width="1" opacity="0.06933499048289321"/>
<polygon points="209,137 217.6,142 217.6,152 209,157 200.4,152 200.4,142" fill="none" stroke="#39FF14" stroke-width="1" opacity="0.027848803954346316"/>
<polygon points="8,170 16.6,175 16.6,185 8,190 -0.5999999999999996,185 -0.5999999999999996,175" fill="none" stroke="#39FF14" stroke-width="1" opacity="0.035929409635234014"/>
<polygon points="186,35 194.6,40 194.6,50 186,55 177.4,50 177.4,40" fill="none" stroke="#39FF14" stroke-width="1" opacity="0.0504100680107058"/>
<polygon points="533,178 541.6,183 541.6,193 533,198 524.4,193 524.4,183" fill="none" stroke="#39FF14" stroke-width="1" opacity="0.051687396533378935"/>
<polygon points="333,57 341.6,62 341.6,72 333,77 324.4,72 324.4,62" fill="none" stroke="#39FF14" stroke-width="1" opacity="0.03423160563998185"/>
<polygon points="500,190 508.6,195 508.6,205 500,210 491.4,205 491.4,195" fill="none" stroke="#39FF14" stroke-width="1" opacity="0.051080389878064146"/>
<polygon points="583,8 591.6,13 591.6,23 583,28 574.4,23 574.4,13" fill="none" stroke="#39FF14" stroke-width="1" opacity="0.06670288902672085"/>
<polygon points="134,22 142.6,27 142.6,37 134,42 125.4,37 125.4,27" fill="none" stroke="#39FF14" stroke-width="1" opacity="0.03496432871805891"/>
<polygon points="259,134 267.6,139 267.6,149 259,154 250.4,149 250.4,139" fill="none" stroke="#39FF14" stroke-width="1" opacity="0.03974470686275164"/>
<polygon points="798,7 806.6,12 806.6,22 798,27 789.4,22 789.4,12" fill="none" stroke="#39FF14" stroke-width="1" opacity="0.061834470404876454"/>
<polygon points="383,11 391.6,16 391.6,26 383,31 374.4,26 374.4,16" fill="none" stroke="#39FF14" stroke-width="1" opacity="0.03887244426079887"/>
<polygon points="843,112 851.6,117 851.6,127 843,132 834.4,127 834.4,117" fill="none" stroke="#39FF14" stroke-width="1" opacity="0.058969566523243075"/>
<polygon points="624,185 632.6,190 632.6,200 624,205 615.4,200 615.4,190" fill="none" stroke="#39FF14" stroke-width="1" opacity="0.06169930828983829"/>
<polygon points="748,98 756.6,103 756.6,113 748,118 739.4,113 739.4,103" fill="none" stroke="#39FF14" stroke-width="1" opacity="0.0200101659919665"/>
<polygon points="222,42 230.6,47 230.6,57 222,62 213.4,57 213.4,47" fill="none" stroke="#39FF14" stroke-width="1" opacity="0.035923556903605505"/>
<polygon points="306,8 314.6,13 314.6,23 306,28 297.4,23 297.4,13" fill="none" stroke="#39FF14" stroke-width="1" opacity="0.02604922727814615"/>
<polygon points="554,101 562.6,106 562.6,116 554,121 545.4,116 545.4,106" fill="none" stroke="#39FF14" stroke-width="1" opacity="0.042311858667521386"/>
<polygon points="798,153 806.6,158 806.6,168 798,173 789.4,168 789.4,158" fill="none" stroke="#39FF14" stroke-width="1" opacity="0.077549249496472"/>
<polygon points="700,-5 708.6,0 708.6,10 700,15 691.4,10 691.4,0" fill="none" stroke="#39FF14" stroke-width="1" opacity="0.030398795423060825"/>
<polygon points="531,160 539.6,165 539.6,175 531,180 522.4,175 522.4,165" fill="none" stroke="#39FF14" stroke-width="1" opacity="0.043618047638488464"/>
<polygon points="53,159 61.6,164 61.6,174 53,179 44.4,174 44.4,164" fill="none" stroke="#39FF14" stroke-width="1" opacity="0.04401211240184638"/>
<polygon points="384,83 392.6,88 392.6,98 384,103 375.4,98 375.4,88" fill="none" stroke="#39FF14" stroke-width="1" opacity="0.05407100968038156"/>
<polygon points="784,84 792.6,89 792.6,99 784,104 775.4,99 775.4,89" fill="none" stroke="#39FF14" stroke-width="1" opacity="0.06940341069178076"/>
<polygon points="527,8 535.6,13 535.6,23 527,28 518.4,23 518.4,13" fill="none" stroke="#39FF14" stroke-width="1" opacity="0.062073259696119126"/>
<polygon points="545,110 553.6,115 553.6,125 545,130 536.4,125 536.4,115" fill="none" stroke="#39FF14" stroke-width="1" opacity="0.028594536008765957"/>
<polygon points="789,121 797.6,126 797.6,136 789,141 780.4,136 780.4,126" fill="none" stroke="#39FF14" stroke-width="1" opacity="0.04171913166704839"/>
</g>

  <!-- HUD Decorative elements -->
  <path d="M 20 20 L 40 20 L 50 30" fill="none" stroke="#39FF14" stroke-width="2" opacity="0.5"/>
  <path d="M 830 180 L 810 180 L 800 170" fill="none" stroke="#39FF14" stroke-width="2" opacity="0.5"/>
  <rect x="20" y="100" width="2" height="40" fill="#ffffff" opacity="0.4"/>
  <rect x="828" y="60" width="2" height="40" fill="#39FF14" opacity="0.6"/>

  <g font-family="'Consolas', 'Fira Code', monospace" text-anchor="middle">

    <!-- SYSTEM STATUS -->
    <g transform="translate(130, 100)">
        <circle cx="0" cy="0" r="45" fill="none" stroke="#111111" stroke-width="8" />
        <circle cx="0" cy="0" r="45" fill="none" stroke="#39FF14" stroke-width="2" stroke-dasharray="10 5">
            <animateTransform attributeName="transform" type="rotate" from="0" to="360" dur="10s" repeatCount="indefinite"/>
        </circle>
        <circle cx="0" cy="0" r="35" fill="#0d0d0d" />
        <circle cx="0" cy="0" r="6" fill="#39FF14" filter="url(#textGlow)">
            <animate attributeName="opacity" values="1;0.3;1" dur="2s" repeatCount="indefinite"/>
        </circle>
        <text x="0" y="-60" font-size="12" fill="#aaaaaa" letter-spacing="2">SYS.CORE</text>
        <text x="0" y="70" font-size="14" fill="#ffffff" font-weight="bold">ONLINE</text>
    </g>

    <!-- LIVE TRAFFIC -->
    <g transform="translate(330, 100)">
        <rect x="-60" y="-45" width="120" height="90" fill="#0a0a0a" rx="8" stroke="#39FF14" stroke-opacity="0.4" stroke-width="1"/>
        <text x="0" y="-20" font-size="12" fill="#aaaaaa">NETWORK LOAD</text>
        <text x="0" y="15" font-size="28" fill="#ffffff" font-weight="bold" filter="url(#textGlow)">5362</text>
        <text x="0" y="35" font-size="10" fill="#777777">ACTIVE SESSIONS</text>
    </g>

    <!-- ACTIVE AGENTS -->
    <g transform="translate(530, 100)">
        <rect x="-60" y="-45" width="120" height="90" fill="#0a0a0a" rx="8" stroke="#39FF14" stroke-opacity="0.4" stroke-width="1"/>
        <text x="0" y="-20" font-size="12" fill="#aaaaaa">SWARM ENTITIES</text>
        <text x="0" y="15" font-size="28" fill="#ffffff" font-weight="bold" filter="url(#textGlow)">80</text>
        <text x="0" y="35" font-size="10" fill="#777777">AUTONOMOUS</text>
    </g>

    <!-- UPTIME -->
    <g transform="translate(730, 100)">
        <path d="M -40 -35 L 40 -35 L 50 -25 L 50 35 L -40 35 L -50 25 Z" fill="#0a0a0a" stroke="#39FF14" stroke-opacity="0.4" stroke-width="1"/>
        <text x="0" y="-15" font-size="12" fill="#aaaaaa">CONTINUITY</text>
        <text x="0" y="15" font-size="24" fill="#ffffff" font-weight="bold">332<tspan font-size="14" fill="#777777">d</tspan></text>
        <rect x="-35" y="25" width="70" height="4" fill="url(#neonBar)" rx="2"/>
    </g>
  </g>

  <text x="425" y="185" font-family="'Consolas', 'Fira Code', monospace" font-size="10" fill="#aaaaaa" opacity="0.6" text-anchor="middle">LAST TELEMETRY PING: 2026-04-26 18:19:47 UTC // ENCRYPTED_TUNNEL</text>
</svg>