<svg width="850" height="200" viewBox="0 0 850 200" xmlns="http://www.w3.org/2000/svg">
  <defs>
    <pattern id="carbonFiber" width="10" height="10" patternUnits="userSpaceOnUse">
        <rect width="10" height="10" fill="#050505"/>
        <path d="M0,0 L5,5 L10,0 L5,-5 Z M5,5 L10,10 L15,5 L10,0 Z M-5,5 L0,10 L5,5 L0,0 Z M0,10 L5,15 L10,10 L5,5 Z" fill="#0d0d0d"/>
    </pattern>
    <filter id="textGlow">
      <feGaussianBlur stdDeviation="2" result="blur" />
      <feMerge>
        <feMergeNode in="blur"/>
        <feMergeNode in="SourceGraphic"/>
      </feMerge>
    </filter>
    <linearGradient id="neonBar" x1="0%" y1="0%" x2="100%" y2="0%">
        <stop offset="0%" stop-color="#111111"/>
        <stop offset="100%" stop-color="#39FF14"/>
    </linearGradient>
    <linearGradient id="scanlineGrad" x1="0%" y1="0%" x2="100%" y2="0%">
        <stop offset="0%" stop-color="#39FF14" stop-opacity="0"/>
        <stop offset="50%" stop-color="#39FF14" stop-opacity="0.18"/>
        <stop offset="100%" stop-color="#39FF14" stop-opacity="0"/>
    </linearGradient>
    <clipPath id="dashClip">
        <rect x="0" y="0" width="850" height="200" rx="12"/>
    </clipPath>
  </defs>

  <rect width="100%" height="100%" fill="url(#carbonFiber)" rx="12" stroke="#39FF14" stroke-width="1" stroke-opacity="0.3"/>
  <rect width="100%" height="100%" fill="#000000" opacity="0.6" rx="12" />
  <g><polygon points="348,113 356.6,118 356.6,128 348,133 339.4,128 339.4,118" fill="none" stroke="#39FF14" stroke-width="1" opacity="0.05105254369742668"/>
<polygon points="87,35 95.6,40 95.6,50 87,55 78.4,50 78.4,40" fill="none" stroke="#39FF14" stroke-width="1" opacity="0.053094196636529895"/>
<polygon points="580,101 588.6,106 588.6,116 580,121 571.4,116 571.4,106" fill="none" stroke="#39FF14" stroke-width="1" opacity="0.04248985969408252"/>
<polygon points="353,74 361.6,79 361.6,89 353,94 344.4,89 344.4,79" fill="none" stroke="#39FF14" stroke-width="1" opacity="0.05412069301366412"/>
<polygon points="187,136 195.6,141 195.6,151 187,156 178.4,151 178.4,141" fill="none" stroke="#39FF14" stroke-width="1" opacity="0.04946148973253195"/>
<polygon points="236,104 244.6,109 244.6,119 236,124 227.4,119 227.4,109" fill="none" stroke="#39FF14" stroke-width="1" opacity="0.022414875616928797"/>
<polygon points="86,104 94.6,109 94.6,119 86,124 77.4,119 77.4,109" fill="none" stroke="#39FF14" stroke-width="1" opacity="0.056307135333073965"/>
<polygon points="156,67 164.6,72 164.6,82 156,87 147.4,82 147.4,72" fill="none" stroke="#39FF14" stroke-width="1" opacity="0.03943989838540178"/>
<polygon points="18,130 26.6,135 26.6,145 18,150 9.4,145 9.4,135" fill="none" stroke="#39FF14" stroke-width="1" opacity="0.03641550340528269"/>
<polygon points="520,104 528.6,109 528.6,119 520,124 511.4,119 511.4,109" fill="none" stroke="#39FF14" stroke-width="1" opacity="0.029227078018333824"/>
<polygon points="709,21 717.6,26 717.6,36 709,41 700.4,36 700.4,26" fill="none" stroke="#39FF14" stroke-width="1" opacity="0.052730089259218"/>
<polygon points="540,133 548.6,138 548.6,148 540,153 531.4,148 531.4,138" fill="none" stroke="#39FF14" stroke-width="1" opacity="0.042225982943943585"/>
<polygon points="813,175 821.6,180 821.6,190 813,195 804.4,190 804.4,180" fill="none" stroke="#39FF14" stroke-width="1" opacity="0.051097365715455124"/>
<polygon points="494,-4 502.6,1 502.6,11 494,16 485.4,11 485.4,1" fill="none" stroke="#39FF14" stroke-width="1" opacity="0.07184566245152575"/>
<polygon points="282,118 290.6,123 290.6,133 282,138 273.4,133 273.4,123" fill="none" stroke="#39FF14" stroke-width="1" opacity="0.05292793549398982"/>
<polygon points="810,34 818.6,39 818.6,49 810,54 801.4,49 801.4,39" fill="none" stroke="#39FF14" stroke-width="1" opacity="0.05422745287940341"/>
<polygon points="289,152 297.6,157 297.6,167 289,172 280.4,167 280.4,157" fill="none" stroke="#39FF14" stroke-width="1" opacity="0.02242034264084529"/>
<polygon points="451,153 459.6,158 459.6,168 451,173 442.4,168 442.4,158" fill="none" stroke="#39FF14" stroke-width="1" opacity="0.06458411684074594"/>
<polygon points="221,13 229.6,18 229.6,28 221,33 212.4,28 212.4,18" fill="none" stroke="#39FF14" stroke-width="1" opacity="0.07263128941354262"/>
<polygon points="711,114 719.6,119 719.6,129 711,134 702.4,129 702.4,119" fill="none" stroke="#39FF14" stroke-width="1" opacity="0.0283289096434427"/>
<polygon points="119,110 127.6,115 127.6,125 119,130 110.4,125 110.4,115" fill="none" stroke="#39FF14" stroke-width="1" opacity="0.024899041474165582"/>
<polygon points="535,2 543.6,7 543.6,17 535,22 526.4,17 526.4,7" fill="none" stroke="#39FF14" stroke-width="1" opacity="0.07859625802946857"/>
<polygon points="493,62 501.6,67 501.6,77 493,82 484.4,77 484.4,67" fill="none" stroke="#39FF14" stroke-width="1" opacity="0.03485200480182889"/>
<polygon points="667,43 675.6,48 675.6,58 667,63 658.4,58 658.4,48" fill="none" stroke="#39FF14" stroke-width="1" opacity="0.040008887423485615"/>
<polygon points="206,135 214.6,140 214.6,150 206,155 197.4,150 197.4,140" fill="none" stroke="#39FF14" stroke-width="1" opacity="0.04224203781912195"/>
<polygon points="828,16 836.6,21 836.6,31 828,36 819.4,31 819.4,21" fill="none" stroke="#39FF14" stroke-width="1" opacity="0.05345805991610246"/>
<polygon points="289,65 297.6,70 297.6,80 289,85 280.4,80 280.4,70" fill="none" stroke="#39FF14" stroke-width="1" opacity="0.06650474532883113"/>
<polygon points="763,88 771.6,93 771.6,103 763,108 754.4,103 754.4,93" fill="none" stroke="#39FF14" stroke-width="1" opacity="0.049575121671908674"/>
<polygon points="328,181 336.6,186 336.6,196 328,201 319.4,196 319.4,186" fill="none" stroke="#39FF14" stroke-width="1" opacity="0.057100226219022165"/>
<polygon points="361,-5 369.6,0 369.6,10 361,15 352.4,10 352.4,0" fill="none" stroke="#39FF14" stroke-width="1" opacity="0.042022603161997824"/>
</g>

  <!-- HUD Decorative elements -->
  <path d="M 20 20 L 40 20 L 50 30" fill="none" stroke="#39FF14" stroke-width="2" opacity="0.5"/>
  <path d="M 830 180 L 810 180 L 800 170" fill="none" stroke="#39FF14" stroke-width="2" opacity="0.5"/>

  <g clip-path="url(#dashClip)">
    <rect x="-160" y="0" width="160" height="200" fill="url(#scanlineGrad)">
      <animateTransform attributeName="transform" type="translate"
                        from="0 0" to="1010 0" dur="6s" repeatCount="indefinite"/>
    </rect>
  </g>

  <g font-family="'Consolas', 'Fira Code', monospace" text-anchor="middle">

    <!-- NETWORK STATUS -->
    <g transform="translate(130, 100)">
        <circle cx="0" cy="0" r="45" fill="none" stroke="#39FF14" stroke-width="2" stroke-dasharray="10 5">
            <animateTransform attributeName="transform" type="rotate" from="0" to="360" dur="10s" repeatCount="indefinite"/>
        </circle>
        <circle cx="0" cy="0" r="35" fill="#0d0d0d" />
        <text x="0" y="-60" font-size="12" fill="#aaaaaa" letter-spacing="2">ROOT.AUTH</text>
        <text x="0" y="70" font-size="14" fill="#ffffff" font-weight="bold">OPERATIONAL</text>
    </g>

    <!-- ACTIVE USERS -->
    <g transform="translate(330, 100)">
        <text x="0" y="-20" font-size="12" fill="#aaaaaa">CITIZENS</text>
        <text x="0" y="15" font-size="28" fill="#ffffff" font-weight="bold" filter="url(#textGlow)">13,322</text>
        <text x="0" y="35" font-size="10" fill="#777777">VERIFIED HUMANS</text>
    </g>

    <!-- REGISTERED AGENTS -->
    <g transform="translate(530, 100)">
        <text x="0" y="-20" font-size="12" fill="#aaaaaa">AGENTS</text>
        <text x="0" y="15" font-size="28" fill="#00d4ff" font-weight="bold" filter="url(#textGlow)">4,689</text>
        <text x="0" y="35" font-size="10" fill="#777777">REGISTERED DIDs</text>
    </g>

    <!-- TRANSACTIONS -->
    <g transform="translate(730, 100)">
        <text x="0" y="-20" font-size="12" fill="#aaaaaa">TRANSFERS</text>
        <text x="0" y="15" font-size="28" fill="#ffffff" font-weight="bold">28,646</text>
        <text x="0" y="35" font-size="10" fill="#777777">M2M SETTLEMENTS</text>
    </g>
  </g>

  <text x="425" y="185" font-family="'Consolas', 'Fira Code', monospace" font-size="10" fill="#aaaaaa" opacity="0.6" text-anchor="middle">AXIOMID PROJECTED TARGETS (ILLUSTRATIVE): 2026-06-19 18:33:13 UTC // SECURE_HANDSHAKE</text>
</svg>