<svg width="850" height="200" viewBox="0 0 850 200" xmlns="http://www.w3.org/2000/svg">
  <defs>
    <pattern id="carbonFiber" width="10" height="10" patternUnits="userSpaceOnUse">
        <rect width="10" height="10" fill="#050505"/>
        <path d="M0,0 L5,5 L10,0 L5,-5 Z M5,5 L10,10 L15,5 L10,0 Z M-5,5 L0,10 L5,5 L0,0 Z M0,10 L5,15 L10,10 L5,5 Z" fill="#0d0d0d"/>
    </pattern>
    <filter id="textGlow">
      <feGaussianBlur stdDeviation="2" result="blur" />
      <feMerge>
        <feMergeNode in="blur"/>
        <feMergeNode in="SourceGraphic"/>
      </feMerge>
    </filter>
    <linearGradient id="neonBar" x1="0%" y1="0%" x2="100%" y2="0%">
        <stop offset="0%" stop-color="#111111"/>
        <stop offset="100%" stop-color="#39FF14"/>
    </linearGradient>
    <linearGradient id="scanlineGrad" x1="0%" y1="0%" x2="100%" y2="0%">
        <stop offset="0%" stop-color="#39FF14" stop-opacity="0"/>
        <stop offset="50%" stop-color="#39FF14" stop-opacity="0.18"/>
        <stop offset="100%" stop-color="#39FF14" stop-opacity="0"/>
    </linearGradient>
    <clipPath id="dashClip">
        <rect x="0" y="0" width="850" height="200" rx="12"/>
    </clipPath>
  </defs>

  <rect width="100%" height="100%" fill="url(#carbonFiber)" rx="12" stroke="#39FF14" stroke-width="1" stroke-opacity="0.3"/>
  <rect width="100%" height="100%" fill="#000000" opacity="0.6" rx="12" />
  <g><polygon points="622,26 630.6,31 630.6,41 622,46 613.4,41 613.4,31" fill="none" stroke="#39FF14" stroke-width="1" opacity="0.04480102114040467"/>
<polygon points="775,38 783.6,43 783.6,53 775,58 766.4,53 766.4,43" fill="none" stroke="#39FF14" stroke-width="1" opacity="0.06370262617388117"/>
<polygon points="638,77 646.6,82 646.6,92 638,97 629.4,92 629.4,82" fill="none" stroke="#39FF14" stroke-width="1" opacity="0.07508808406459634"/>
<polygon points="578,12 586.6,17 586.6,27 578,32 569.4,27 569.4,17" fill="none" stroke="#39FF14" stroke-width="1" opacity="0.0208424918717372"/>
<polygon points="823,59 831.6,64 831.6,74 823,79 814.4,74 814.4,64" fill="none" stroke="#39FF14" stroke-width="1" opacity="0.07908914519783114"/>
<polygon points="438,155 446.6,160 446.6,170 438,175 429.4,170 429.4,160" fill="none" stroke="#39FF14" stroke-width="1" opacity="0.05687228512504784"/>
<polygon points="510,160 518.6,165 518.6,175 510,180 501.4,175 501.4,165" fill="none" stroke="#39FF14" stroke-width="1" opacity="0.02751841877071841"/>
<polygon points="186,97 194.6,102 194.6,112 186,117 177.4,112 177.4,102" fill="none" stroke="#39FF14" stroke-width="1" opacity="0.06443010951879444"/>
<polygon points="349,161 357.6,166 357.6,176 349,181 340.4,176 340.4,166" fill="none" stroke="#39FF14" stroke-width="1" opacity="0.05456699699687276"/>
<polygon points="10,-4 18.6,1 18.6,11 10,16 1.4000000000000004,11 1.4000000000000004,1" fill="none" stroke="#39FF14" stroke-width="1" opacity="0.06286485533038629"/>
<polygon points="749,1 757.6,6 757.6,16 749,21 740.4,16 740.4,6" fill="none" stroke="#39FF14" stroke-width="1" opacity="0.02843879950742778"/>
<polygon points="202,61 210.6,66 210.6,76 202,81 193.4,76 193.4,66" fill="none" stroke="#39FF14" stroke-width="1" opacity="0.033948306963520775"/>
<polygon points="56,98 64.6,103 64.6,113 56,118 47.4,113 47.4,103" fill="none" stroke="#39FF14" stroke-width="1" opacity="0.05346781927138454"/>
<polygon points="119,134 127.6,139 127.6,149 119,154 110.4,149 110.4,139" fill="none" stroke="#39FF14" stroke-width="1" opacity="0.024712042150416"/>
<polygon points="783,87 791.6,92 791.6,102 783,107 774.4,102 774.4,92" fill="none" stroke="#39FF14" stroke-width="1" opacity="0.028688558072304332"/>
<polygon points="100,35 108.6,40 108.6,50 100,55 91.4,50 91.4,40" fill="none" stroke="#39FF14" stroke-width="1" opacity="0.03542554679818599"/>
<polygon points="693,161 701.6,166 701.6,176 693,181 684.4,176 684.4,166" fill="none" stroke="#39FF14" stroke-width="1" opacity="0.03922639463201873"/>
<polygon points="413,141 421.6,146 421.6,156 413,161 404.4,156 404.4,146" fill="none" stroke="#39FF14" stroke-width="1" opacity="0.07319382687669206"/>
<polygon points="32,181 40.6,186 40.6,196 32,201 23.4,196 23.4,186" fill="none" stroke="#39FF14" stroke-width="1" opacity="0.049362879948581295"/>
<polygon points="324,44 332.6,49 332.6,59 324,64 315.4,59 315.4,49" fill="none" stroke="#39FF14" stroke-width="1" opacity="0.03585295850578767"/>
<polygon points="300,148 308.6,153 308.6,163 300,168 291.4,163 291.4,153" fill="none" stroke="#39FF14" stroke-width="1" opacity="0.07528809905805846"/>
<polygon points="755,88 763.6,93 763.6,103 755,108 746.4,103 746.4,93" fill="none" stroke="#39FF14" stroke-width="1" opacity="0.050388034629445515"/>
<polygon points="184,95 192.6,100 192.6,110 184,115 175.4,110 175.4,100" fill="none" stroke="#39FF14" stroke-width="1" opacity="0.045171567857987226"/>
<polygon points="135,68 143.6,73 143.6,83 135,88 126.4,83 126.4,73" fill="none" stroke="#39FF14" stroke-width="1" opacity="0.07694189648306969"/>
<polygon points="44,40 52.6,45 52.6,55 44,60 35.4,55 35.4,45" fill="none" stroke="#39FF14" stroke-width="1" opacity="0.029265598523596264"/>
<polygon points="221,154 229.6,159 229.6,169 221,174 212.4,169 212.4,159" fill="none" stroke="#39FF14" stroke-width="1" opacity="0.07165033907508273"/>
<polygon points="202,20 210.6,25 210.6,35 202,40 193.4,35 193.4,25" fill="none" stroke="#39FF14" stroke-width="1" opacity="0.02095754210194618"/>
<polygon points="351,172 359.6,177 359.6,187 351,192 342.4,187 342.4,177" fill="none" stroke="#39FF14" stroke-width="1" opacity="0.05676500021027833"/>
<polygon points="753,190 761.6,195 761.6,205 753,210 744.4,205 744.4,195" fill="none" stroke="#39FF14" stroke-width="1" opacity="0.05910179132901036"/>
<polygon points="131,114 139.6,119 139.6,129 131,134 122.4,129 122.4,119" fill="none" stroke="#39FF14" stroke-width="1" opacity="0.02103958832399059"/>
</g>

  <!-- HUD Decorative elements -->
  <path d="M 20 20 L 40 20 L 50 30" fill="none" stroke="#39FF14" stroke-width="2" opacity="0.5"/>
  <path d="M 830 180 L 810 180 L 800 170" fill="none" stroke="#39FF14" stroke-width="2" opacity="0.5"/>

  <g clip-path="url(#dashClip)">
    <rect x="-160" y="0" width="160" height="200" fill="url(#scanlineGrad)">
      <animateTransform attributeName="transform" type="translate"
                        from="0 0" to="1010 0" dur="6s" repeatCount="indefinite"/>
    </rect>
  </g>

  <g font-family="'Consolas', 'Fira Code', monospace" text-anchor="middle">

    <!-- NETWORK STATUS -->
    <g transform="translate(130, 100)">
        <circle cx="0" cy="0" r="45" fill="none" stroke="#39FF14" stroke-width="2" stroke-dasharray="10 5">
            <animateTransform attributeName="transform" type="rotate" from="0" to="360" dur="10s" repeatCount="indefinite"/>
        </circle>
        <circle cx="0" cy="0" r="35" fill="#0d0d0d" />
        <text x="0" y="-60" font-size="12" fill="#aaaaaa" letter-spacing="2">ROOT.AUTH</text>
        <text x="0" y="70" font-size="14" fill="#ffffff" font-weight="bold">OPERATIONAL</text>
    </g>

    <!-- ACTIVE USERS -->
    <g transform="translate(330, 100)">
        <text x="0" y="-20" font-size="12" fill="#aaaaaa">CITIZENS</text>
        <text x="0" y="15" font-size="28" fill="#ffffff" font-weight="bold" filter="url(#textGlow)">13,336</text>
        <text x="0" y="35" font-size="10" fill="#777777">VERIFIED HUMANS</text>
    </g>

    <!-- REGISTERED AGENTS -->
    <g transform="translate(530, 100)">
        <text x="0" y="-20" font-size="12" fill="#aaaaaa">AGENTS</text>
        <text x="0" y="15" font-size="28" fill="#00d4ff" font-weight="bold" filter="url(#textGlow)">3,145</text>
        <text x="0" y="35" font-size="10" fill="#777777">REGISTERED DIDs</text>
    </g>

    <!-- TRANSACTIONS -->
    <g transform="translate(730, 100)">
        <text x="0" y="-20" font-size="12" fill="#aaaaaa">TRANSFERS</text>
        <text x="0" y="15" font-size="28" fill="#ffffff" font-weight="bold">40,423</text>
        <text x="0" y="35" font-size="10" fill="#777777">M2M SETTLEMENTS</text>
    </g>
  </g>

  <text x="425" y="185" font-family="'Consolas', 'Fira Code', monospace" font-size="10" fill="#aaaaaa" opacity="0.6" text-anchor="middle">AXIOMID PROJECTED TARGETS (ILLUSTRATIVE): 2026-06-26 10:04:13 UTC // SECURE_HANDSHAKE</text>
</svg>