<svg width="850" height="200" viewBox="0 0 850 200" xmlns="http://www.w3.org/2000/svg">
  <defs>
    <pattern id="carbonFiber" width="10" height="10" patternUnits="userSpaceOnUse">
        <rect width="10" height="10" fill="#050505"/>
        <path d="M0,0 L5,5 L10,0 L5,-5 Z M5,5 L10,10 L15,5 L10,0 Z M-5,5 L0,10 L5,5 L0,0 Z M0,10 L5,15 L10,10 L5,5 Z" fill="#0d0d0d"/>
    </pattern>
    <filter id="textGlow">
      <feGaussianBlur stdDeviation="2" result="blur" />
      <feMerge>
        <feMergeNode in="blur"/>
        <feMergeNode in="SourceGraphic"/>
      </feMerge>
    </filter>
    <linearGradient id="neonBar" x1="0%" y1="0%" x2="100%" y2="0%">
        <stop offset="0%" stop-color="#111111"/>
        <stop offset="100%" stop-color="#39FF14"/>
    </linearGradient>
    <linearGradient id="scanlineGrad" x1="0%" y1="0%" x2="100%" y2="0%">
        <stop offset="0%" stop-color="#39FF14" stop-opacity="0"/>
        <stop offset="50%" stop-color="#39FF14" stop-opacity="0.18"/>
        <stop offset="100%" stop-color="#39FF14" stop-opacity="0"/>
    </linearGradient>
    <clipPath id="dashClip">
        <rect x="0" y="0" width="850" height="200" rx="12"/>
    </clipPath>
  </defs>

  <rect width="100%" height="100%" fill="url(#carbonFiber)" rx="12" stroke="#39FF14" stroke-width="1" stroke-opacity="0.3"/>
  <rect width="100%" height="100%" fill="#000000" opacity="0.6" rx="12" />
  <g><polygon points="326,46 334.6,51 334.6,61 326,66 317.4,61 317.4,51" fill="none" stroke="#39FF14" stroke-width="1" opacity="0.06403778129811488"/>
<polygon points="182,146 190.6,151 190.6,161 182,166 173.4,161 173.4,151" fill="none" stroke="#39FF14" stroke-width="1" opacity="0.07550421294841046"/>
<polygon points="203,183 211.6,188 211.6,198 203,203 194.4,198 194.4,188" fill="none" stroke="#39FF14" stroke-width="1" opacity="0.07815932369418997"/>
<polygon points="183,140 191.6,145 191.6,155 183,160 174.4,155 174.4,145" fill="none" stroke="#39FF14" stroke-width="1" opacity="0.06870908652363829"/>
<polygon points="532,139 540.6,144 540.6,154 532,159 523.4,154 523.4,144" fill="none" stroke="#39FF14" stroke-width="1" opacity="0.07840050112860264"/>
<polygon points="343,110 351.6,115 351.6,125 343,130 334.4,125 334.4,115" fill="none" stroke="#39FF14" stroke-width="1" opacity="0.03976630628715296"/>
<polygon points="110,2 118.6,7 118.6,17 110,22 101.4,17 101.4,7" fill="none" stroke="#39FF14" stroke-width="1" opacity="0.048284519116363264"/>
<polygon points="464,104 472.6,109 472.6,119 464,124 455.4,119 455.4,109" fill="none" stroke="#39FF14" stroke-width="1" opacity="0.028599125616279905"/>
<polygon points="590,160 598.6,165 598.6,175 590,180 581.4,175 581.4,165" fill="none" stroke="#39FF14" stroke-width="1" opacity="0.04639980462164696"/>
<polygon points="662,120 670.6,125 670.6,135 662,140 653.4,135 653.4,125" fill="none" stroke="#39FF14" stroke-width="1" opacity="0.07551648930447259"/>
<polygon points="713,178 721.6,183 721.6,193 713,198 704.4,193 704.4,183" fill="none" stroke="#39FF14" stroke-width="1" opacity="0.07172848227934576"/>
<polygon points="832,7 840.6,12 840.6,22 832,27 823.4,22 823.4,12" fill="none" stroke="#39FF14" stroke-width="1" opacity="0.035248117654069794"/>
<polygon points="415,117 423.6,122 423.6,132 415,137 406.4,132 406.4,122" fill="none" stroke="#39FF14" stroke-width="1" opacity="0.05339542839009896"/>
<polygon points="293,41 301.6,46 301.6,56 293,61 284.4,56 284.4,46" fill="none" stroke="#39FF14" stroke-width="1" opacity="0.022373837557931302"/>
<polygon points="491,37 499.6,42 499.6,52 491,57 482.4,52 482.4,42" fill="none" stroke="#39FF14" stroke-width="1" opacity="0.025238227738328445"/>
<polygon points="647,136 655.6,141 655.6,151 647,156 638.4,151 638.4,141" fill="none" stroke="#39FF14" stroke-width="1" opacity="0.07852723138174526"/>
<polygon points="134,44 142.6,49 142.6,59 134,64 125.4,59 125.4,49" fill="none" stroke="#39FF14" stroke-width="1" opacity="0.057775000850469285"/>
<polygon points="20,186 28.6,191 28.6,201 20,206 11.4,201 11.4,191" fill="none" stroke="#39FF14" stroke-width="1" opacity="0.06955465441588932"/>
<polygon points="238,125 246.6,130 246.6,140 238,145 229.4,140 229.4,130" fill="none" stroke="#39FF14" stroke-width="1" opacity="0.031407242319231865"/>
<polygon points="786,60 794.6,65 794.6,75 786,80 777.4,75 777.4,65" fill="none" stroke="#39FF14" stroke-width="1" opacity="0.053426112535777365"/>
<polygon points="206,10 214.6,15 214.6,25 206,30 197.4,25 197.4,15" fill="none" stroke="#39FF14" stroke-width="1" opacity="0.0350586884599588"/>
<polygon points="418,147 426.6,152 426.6,162 418,167 409.4,162 409.4,152" fill="none" stroke="#39FF14" stroke-width="1" opacity="0.06455261230895194"/>
<polygon points="101,117 109.6,122 109.6,132 101,137 92.4,132 92.4,122" fill="none" stroke="#39FF14" stroke-width="1" opacity="0.05132864763103594"/>
<polygon points="735,57 743.6,62 743.6,72 735,77 726.4,72 726.4,62" fill="none" stroke="#39FF14" stroke-width="1" opacity="0.04150147085322992"/>
<polygon points="136,87 144.6,92 144.6,102 136,107 127.4,102 127.4,92" fill="none" stroke="#39FF14" stroke-width="1" opacity="0.03232233587079504"/>
<polygon points="411,184 419.6,189 419.6,199 411,204 402.4,199 402.4,189" fill="none" stroke="#39FF14" stroke-width="1" opacity="0.05555800752829958"/>
<polygon points="379,46 387.6,51 387.6,61 379,66 370.4,61 370.4,51" fill="none" stroke="#39FF14" stroke-width="1" opacity="0.051971957644329256"/>
<polygon points="339,139 347.6,144 347.6,154 339,159 330.4,154 330.4,144" fill="none" stroke="#39FF14" stroke-width="1" opacity="0.04804106169704574"/>
<polygon points="221,27 229.6,32 229.6,42 221,47 212.4,42 212.4,32" fill="none" stroke="#39FF14" stroke-width="1" opacity="0.07898231005436124"/>
<polygon points="167,183 175.6,188 175.6,198 167,203 158.4,198 158.4,188" fill="none" stroke="#39FF14" stroke-width="1" opacity="0.07602738752280166"/>
</g>

  <!-- HUD Decorative elements -->
  <path d="M 20 20 L 40 20 L 50 30" fill="none" stroke="#39FF14" stroke-width="2" opacity="0.5"/>
  <path d="M 830 180 L 810 180 L 800 170" fill="none" stroke="#39FF14" stroke-width="2" opacity="0.5"/>

  <g clip-path="url(#dashClip)">
    <rect x="-160" y="0" width="160" height="200" fill="url(#scanlineGrad)">
      <animateTransform attributeName="transform" type="translate"
                        from="0 0" to="1010 0" dur="6s" repeatCount="indefinite"/>
    </rect>
  </g>

  <g font-family="'Consolas', 'Fira Code', monospace" text-anchor="middle">

    <!-- NETWORK STATUS -->
    <g transform="translate(130, 100)">
        <circle cx="0" cy="0" r="45" fill="none" stroke="#39FF14" stroke-width="2" stroke-dasharray="10 5">
            <animateTransform attributeName="transform" type="rotate" from="0" to="360" dur="10s" repeatCount="indefinite"/>
        </circle>
        <circle cx="0" cy="0" r="35" fill="#0d0d0d" />
        <text x="0" y="-60" font-size="12" fill="#aaaaaa" letter-spacing="2">ROOT.AUTH</text>
        <text x="0" y="70" font-size="14" fill="#ffffff" font-weight="bold">OPERATIONAL</text>
    </g>

    <!-- ACTIVE USERS -->
    <g transform="translate(330, 100)">
        <text x="0" y="-20" font-size="12" fill="#aaaaaa">CITIZENS</text>
        <text x="0" y="15" font-size="28" fill="#ffffff" font-weight="bold" filter="url(#textGlow)">12,868</text>
        <text x="0" y="35" font-size="10" fill="#777777">VERIFIED HUMANS</text>
    </g>

    <!-- REGISTERED AGENTS -->
    <g transform="translate(530, 100)">
        <text x="0" y="-20" font-size="12" fill="#aaaaaa">AGENTS</text>
        <text x="0" y="15" font-size="28" fill="#00d4ff" font-weight="bold" filter="url(#textGlow)">3,623</text>
        <text x="0" y="35" font-size="10" fill="#777777">REGISTERED DIDs</text>
    </g>

    <!-- TRANSACTIONS -->
    <g transform="translate(730, 100)">
        <text x="0" y="-20" font-size="12" fill="#aaaaaa">TRANSFERS</text>
        <text x="0" y="15" font-size="28" fill="#ffffff" font-weight="bold">25,264</text>
        <text x="0" y="35" font-size="10" fill="#777777">M2M SETTLEMENTS</text>
    </g>
  </g>

  <text x="425" y="185" font-family="'Consolas', 'Fira Code', monospace" font-size="10" fill="#aaaaaa" opacity="0.6" text-anchor="middle">AXIOMID PROJECTED TARGETS (ILLUSTRATIVE): 2026-06-29 04:29:43 UTC // SECURE_HANDSHAKE</text>
</svg>