<svg width="850" height="200" viewBox="0 0 850 200" xmlns="http://www.w3.org/2000/svg">
  <defs>
    <!-- Carbon Fiber Pattern -->
    <pattern id="carbonFiber" width="10" height="10" patternUnits="userSpaceOnUse">
        <rect width="10" height="10" fill="#050505"/>
        <path d="M0,0 L5,5 L10,0 L5,-5 Z M5,5 L10,10 L15,5 L10,0 Z M-5,5 L0,10 L5,5 L0,0 Z M0,10 L5,15 L10,10 L5,5 Z" fill="#0d0d0d"/>
    </pattern>
    <filter id="glassmorphism">
      <feGaussianBlur stdDeviation="3" result="blur" />
      <feColorMatrix type="matrix" values="1 0 0 0 0  0 1 0 0 0  0 0 1 0 0  0 0 0 18 -7" result="glow" />
      <feBlend in="SourceGraphic" in2="glow" mode="normal" />
    </filter>
    <filter id="textGlow">
      <feGaussianBlur stdDeviation="2" result="blur" />
      <feMerge>
        <feMergeNode in="blur"/>
        <feMergeNode in="SourceGraphic"/>
      </feMerge>
    </filter>
    <linearGradient id="neonBar" x1="0%" y1="0%" x2="100%" y2="0%">
        <stop offset="0%" stop-color="#111111"/>
        <stop offset="100%" stop-color="#39FF14"/>
    </linearGradient>
  </defs>

  <rect width="100%" height="100%" fill="url(#carbonFiber)" rx="12" stroke="#39FF14" stroke-width="1" stroke-opacity="0.3"/>
  <rect width="100%" height="100%" fill="#000000" opacity="0.6" rx="12" />
  <g><polygon points="786,121 794.6,126 794.6,136 786,141 777.4,136 777.4,126" fill="none" stroke="#39FF14" stroke-width="1" opacity="0.07170557235199056"/>
<polygon points="299,117 307.6,122 307.6,132 299,137 290.4,132 290.4,122" fill="none" stroke="#39FF14" stroke-width="1" opacity="0.04361888431813707"/>
<polygon points="145,12 153.6,17 153.6,27 145,32 136.4,27 136.4,17" fill="none" stroke="#39FF14" stroke-width="1" opacity="0.03898322212569793"/>
<polygon points="510,122 518.6,127 518.6,137 510,142 501.4,137 501.4,127" fill="none" stroke="#39FF14" stroke-width="1" opacity="0.02337885729652288"/>
<polygon points="7,36 15.6,41 15.6,51 7,56 -1.5999999999999996,51 -1.5999999999999996,41" fill="none" stroke="#39FF14" stroke-width="1" opacity="0.07278731711349629"/>
<polygon points="351,170 359.6,175 359.6,185 351,190 342.4,185 342.4,175" fill="none" stroke="#39FF14" stroke-width="1" opacity="0.062435118117016936"/>
<polygon points="64,37 72.6,42 72.6,52 64,57 55.4,52 55.4,42" fill="none" stroke="#39FF14" stroke-width="1" opacity="0.027874338061906555"/>
<polygon points="644,149 652.6,154 652.6,164 644,169 635.4,164 635.4,154" fill="none" stroke="#39FF14" stroke-width="1" opacity="0.05486032307116959"/>
<polygon points="468,158 476.6,163 476.6,173 468,178 459.4,173 459.4,163" fill="none" stroke="#39FF14" stroke-width="1" opacity="0.020921913947837524"/>
<polygon points="790,88 798.6,93 798.6,103 790,108 781.4,103 781.4,93" fill="none" stroke="#39FF14" stroke-width="1" opacity="0.034997377597314944"/>
<polygon points="353,183 361.6,188 361.6,198 353,203 344.4,198 344.4,188" fill="none" stroke="#39FF14" stroke-width="1" opacity="0.020672458702430733"/>
<polygon points="471,51 479.6,56 479.6,66 471,71 462.4,66 462.4,56" fill="none" stroke="#39FF14" stroke-width="1" opacity="0.0674839552962036"/>
<polygon points="518,19 526.6,24 526.6,34 518,39 509.4,34 509.4,24" fill="none" stroke="#39FF14" stroke-width="1" opacity="0.029462537851661433"/>
<polygon points="5,73 13.6,78 13.6,88 5,93 -3.5999999999999996,88 -3.5999999999999996,78" fill="none" stroke="#39FF14" stroke-width="1" opacity="0.05619809275848463"/>
<polygon points="182,3 190.6,8 190.6,18 182,23 173.4,18 173.4,8" fill="none" stroke="#39FF14" stroke-width="1" opacity="0.03324207401768467"/>
<polygon points="369,179 377.6,184 377.6,194 369,199 360.4,194 360.4,184" fill="none" stroke="#39FF14" stroke-width="1" opacity="0.05699751969387655"/>
<polygon points="529,109 537.6,114 537.6,124 529,129 520.4,124 520.4,114" fill="none" stroke="#39FF14" stroke-width="1" opacity="0.07682513858962982"/>
<polygon points="132,136 140.6,141 140.6,151 132,156 123.4,151 123.4,141" fill="none" stroke="#39FF14" stroke-width="1" opacity="0.06513082976176145"/>
<polygon points="612,178 620.6,183 620.6,193 612,198 603.4,193 603.4,183" fill="none" stroke="#39FF14" stroke-width="1" opacity="0.027880512937654662"/>
<polygon points="535,80 543.6,85 543.6,95 535,100 526.4,95 526.4,85" fill="none" stroke="#39FF14" stroke-width="1" opacity="0.05900686634644618"/>
<polygon points="74,2 82.6,7 82.6,17 74,22 65.4,17 65.4,7" fill="none" stroke="#39FF14" stroke-width="1" opacity="0.06411208582262165"/>
<polygon points="309,108 317.6,113 317.6,123 309,128 300.4,123 300.4,113" fill="none" stroke="#39FF14" stroke-width="1" opacity="0.06773867751424376"/>
<polygon points="646,125 654.6,130 654.6,140 646,145 637.4,140 637.4,130" fill="none" stroke="#39FF14" stroke-width="1" opacity="0.06520757023069425"/>
<polygon points="798,163 806.6,168 806.6,178 798,183 789.4,178 789.4,168" fill="none" stroke="#39FF14" stroke-width="1" opacity="0.04169518205169985"/>
<polygon points="334,37 342.6,42 342.6,52 334,57 325.4,52 325.4,42" fill="none" stroke="#39FF14" stroke-width="1" opacity="0.032734066910488455"/>
<polygon points="840,124 848.6,129 848.6,139 840,144 831.4,139 831.4,129" fill="none" stroke="#39FF14" stroke-width="1" opacity="0.05625687673066207"/>
<polygon points="23,135 31.6,140 31.6,150 23,155 14.4,150 14.4,140" fill="none" stroke="#39FF14" stroke-width="1" opacity="0.0772676315834023"/>
<polygon points="322,40 330.6,45 330.6,55 322,60 313.4,55 313.4,45" fill="none" stroke="#39FF14" stroke-width="1" opacity="0.039313240336870725"/>
<polygon points="443,158 451.6,163 451.6,173 443,178 434.4,173 434.4,163" fill="none" stroke="#39FF14" stroke-width="1" opacity="0.051861303599692585"/>
<polygon points="377,134 385.6,139 385.6,149 377,154 368.4,149 368.4,139" fill="none" stroke="#39FF14" stroke-width="1" opacity="0.028584109921982057"/>
</g>

  <!-- HUD Decorative elements -->
  <path d="M 20 20 L 40 20 L 50 30" fill="none" stroke="#39FF14" stroke-width="2" opacity="0.5"/>
  <path d="M 830 180 L 810 180 L 800 170" fill="none" stroke="#39FF14" stroke-width="2" opacity="0.5"/>
  <rect x="20" y="100" width="2" height="40" fill="#ffffff" opacity="0.4"/>
  <rect x="828" y="60" width="2" height="40" fill="#39FF14" opacity="0.6"/>

  <g font-family="'Consolas', 'Fira Code', monospace" text-anchor="middle">

    <!-- SYSTEM STATUS -->
    <g transform="translate(130, 100)">
        <circle cx="0" cy="0" r="45" fill="none" stroke="#111111" stroke-width="8" />
        <circle cx="0" cy="0" r="45" fill="none" stroke="#39FF14" stroke-width="2" stroke-dasharray="10 5">
            <animateTransform attributeName="transform" type="rotate" from="0" to="360" dur="10s" repeatCount="indefinite"/>
        </circle>
        <circle cx="0" cy="0" r="35" fill="#0d0d0d" />
        <circle cx="0" cy="0" r="6" fill="#39FF14" filter="url(#textGlow)">
            <animate attributeName="opacity" values="1;0.3;1" dur="2s" repeatCount="indefinite"/>
        </circle>
        <text x="0" y="-60" font-size="12" fill="#aaaaaa" letter-spacing="2">SYS.CORE</text>
        <text x="0" y="70" font-size="14" fill="#ffffff" font-weight="bold">ONLINE</text>
    </g>

    <!-- LIVE TRAFFIC -->
    <g transform="translate(330, 100)">
        <rect x="-60" y="-45" width="120" height="90" fill="#0a0a0a" rx="8" stroke="#39FF14" stroke-opacity="0.4" stroke-width="1"/>
        <text x="0" y="-20" font-size="12" fill="#aaaaaa">NETWORK LOAD</text>
        <text x="0" y="15" font-size="28" fill="#ffffff" font-weight="bold" filter="url(#textGlow)">4284</text>
        <text x="0" y="35" font-size="10" fill="#777777">ACTIVE SESSIONS</text>
    </g>

    <!-- ACTIVE AGENTS -->
    <g transform="translate(530, 100)">
        <rect x="-60" y="-45" width="120" height="90" fill="#0a0a0a" rx="8" stroke="#39FF14" stroke-opacity="0.4" stroke-width="1"/>
        <text x="0" y="-20" font-size="12" fill="#aaaaaa">SWARM ENTITIES</text>
        <text x="0" y="15" font-size="28" fill="#ffffff" font-weight="bold" filter="url(#textGlow)">97</text>
        <text x="0" y="35" font-size="10" fill="#777777">AUTONOMOUS</text>
    </g>

    <!-- UPTIME -->
    <g transform="translate(730, 100)">
        <path d="M -40 -35 L 40 -35 L 50 -25 L 50 35 L -40 35 L -50 25 Z" fill="#0a0a0a" stroke="#39FF14" stroke-opacity="0.4" stroke-width="1"/>
        <text x="0" y="-15" font-size="12" fill="#aaaaaa">CONTINUITY</text>
        <text x="0" y="15" font-size="24" fill="#ffffff" font-weight="bold">204<tspan font-size="14" fill="#777777">d</tspan></text>
        <rect x="-35" y="25" width="70" height="4" fill="url(#neonBar)" rx="2"/>
    </g>
  </g>

  <text x="425" y="185" font-family="'Consolas', 'Fira Code', monospace" font-size="10" fill="#aaaaaa" opacity="0.6" text-anchor="middle">LAST TELEMETRY PING: 2026-05-13 13:17:44 UTC // ENCRYPTED_TUNNEL</text>
</svg>