<svg width="850" height="200" viewBox="0 0 850 200" xmlns="http://www.w3.org/2000/svg">
  <defs>
    <!-- Carbon Fiber Pattern -->
    <pattern id="carbonFiber" width="10" height="10" patternUnits="userSpaceOnUse">
        <rect width="10" height="10" fill="#050505"/>
        <path d="M0,0 L5,5 L10,0 L5,-5 Z M5,5 L10,10 L15,5 L10,0 Z M-5,5 L0,10 L5,5 L0,0 Z M0,10 L5,15 L10,10 L5,5 Z" fill="#0d0d0d"/>
    </pattern>
    <filter id="glassmorphism">
      <feGaussianBlur stdDeviation="3" result="blur" />
      <feColorMatrix type="matrix" values="1 0 0 0 0  0 1 0 0 0  0 0 1 0 0  0 0 0 18 -7" result="glow" />
      <feBlend in="SourceGraphic" in2="glow" mode="normal" />
    </filter>
    <filter id="textGlow">
      <feGaussianBlur stdDeviation="2" result="blur" />
      <feMerge>
        <feMergeNode in="blur"/>
        <feMergeNode in="SourceGraphic"/>
      </feMerge>
    </filter>
    <linearGradient id="neonBar" x1="0%" y1="0%" x2="100%" y2="0%">
        <stop offset="0%" stop-color="#111111"/>
        <stop offset="100%" stop-color="#39FF14"/>
    </linearGradient>
  </defs>

  <rect width="100%" height="100%" fill="url(#carbonFiber)" rx="12" stroke="#39FF14" stroke-width="1" stroke-opacity="0.3"/>
  <rect width="100%" height="100%" fill="#000000" opacity="0.6" rx="12" />
  <g><polygon points="638,89 646.6,94 646.6,104 638,109 629.4,104 629.4,94" fill="none" stroke="#39FF14" stroke-width="1" opacity="0.04473384252725787"/>
<polygon points="711,38 719.6,43 719.6,53 711,58 702.4,53 702.4,43" fill="none" stroke="#39FF14" stroke-width="1" opacity="0.023576756852959777"/>
<polygon points="504,67 512.6,72 512.6,82 504,87 495.4,82 495.4,72" fill="none" stroke="#39FF14" stroke-width="1" opacity="0.03612732183115345"/>
<polygon points="188,32 196.6,37 196.6,47 188,52 179.4,47 179.4,37" fill="none" stroke="#39FF14" stroke-width="1" opacity="0.03817117287047129"/>
<polygon points="423,174 431.6,179 431.6,189 423,194 414.4,189 414.4,179" fill="none" stroke="#39FF14" stroke-width="1" opacity="0.02218171811562436"/>
<polygon points="686,104 694.6,109 694.6,119 686,124 677.4,119 677.4,109" fill="none" stroke="#39FF14" stroke-width="1" opacity="0.021945936648837976"/>
<polygon points="816,55 824.6,60 824.6,70 816,75 807.4,70 807.4,60" fill="none" stroke="#39FF14" stroke-width="1" opacity="0.058104272606729415"/>
<polygon points="480,87 488.6,92 488.6,102 480,107 471.4,102 471.4,92" fill="none" stroke="#39FF14" stroke-width="1" opacity="0.022478689688916285"/>
<polygon points="264,-2 272.6,3 272.6,13 264,18 255.4,13 255.4,3" fill="none" stroke="#39FF14" stroke-width="1" opacity="0.06646256279302379"/>
<polygon points="149,46 157.6,51 157.6,61 149,66 140.4,61 140.4,51" fill="none" stroke="#39FF14" stroke-width="1" opacity="0.07487001133353585"/>
<polygon points="509,7 517.6,12 517.6,22 509,27 500.4,22 500.4,12" fill="none" stroke="#39FF14" stroke-width="1" opacity="0.027441139315647605"/>
<polygon points="681,77 689.6,82 689.6,92 681,97 672.4,92 672.4,82" fill="none" stroke="#39FF14" stroke-width="1" opacity="0.07908795542607526"/>
<polygon points="813,16 821.6,21 821.6,31 813,36 804.4,31 804.4,21" fill="none" stroke="#39FF14" stroke-width="1" opacity="0.057884948582267184"/>
<polygon points="469,0 477.6,5 477.6,15 469,20 460.4,15 460.4,5" fill="none" stroke="#39FF14" stroke-width="1" opacity="0.04535351800575832"/>
<polygon points="826,53 834.6,58 834.6,68 826,73 817.4,68 817.4,58" fill="none" stroke="#39FF14" stroke-width="1" opacity="0.04251545462177721"/>
<polygon points="349,24 357.6,29 357.6,39 349,44 340.4,39 340.4,29" fill="none" stroke="#39FF14" stroke-width="1" opacity="0.032462679180445875"/>
<polygon points="252,131 260.6,136 260.6,146 252,151 243.4,146 243.4,136" fill="none" stroke="#39FF14" stroke-width="1" opacity="0.03563279137813633"/>
<polygon points="223,47 231.6,52 231.6,62 223,67 214.4,62 214.4,52" fill="none" stroke="#39FF14" stroke-width="1" opacity="0.06292780769887109"/>
<polygon points="273,51 281.6,56 281.6,66 273,71 264.4,66 264.4,56" fill="none" stroke="#39FF14" stroke-width="1" opacity="0.030886075659070596"/>
<polygon points="436,78 444.6,83 444.6,93 436,98 427.4,93 427.4,83" fill="none" stroke="#39FF14" stroke-width="1" opacity="0.056933490466986245"/>
<polygon points="65,117 73.6,122 73.6,132 65,137 56.4,132 56.4,122" fill="none" stroke="#39FF14" stroke-width="1" opacity="0.040897048179801415"/>
<polygon points="542,181 550.6,186 550.6,196 542,201 533.4,196 533.4,186" fill="none" stroke="#39FF14" stroke-width="1" opacity="0.07623623403736438"/>
<polygon points="597,74 605.6,79 605.6,89 597,94 588.4,89 588.4,79" fill="none" stroke="#39FF14" stroke-width="1" opacity="0.04509158983782161"/>
<polygon points="428,90 436.6,95 436.6,105 428,110 419.4,105 419.4,95" fill="none" stroke="#39FF14" stroke-width="1" opacity="0.07363618150965309"/>
<polygon points="579,4 587.6,9 587.6,19 579,24 570.4,19 570.4,9" fill="none" stroke="#39FF14" stroke-width="1" opacity="0.03190739388800938"/>
<polygon points="787,149 795.6,154 795.6,164 787,169 778.4,164 778.4,154" fill="none" stroke="#39FF14" stroke-width="1" opacity="0.02859789200638759"/>
<polygon points="202,45 210.6,50 210.6,60 202,65 193.4,60 193.4,50" fill="none" stroke="#39FF14" stroke-width="1" opacity="0.05030656654078097"/>
<polygon points="778,61 786.6,66 786.6,76 778,81 769.4,76 769.4,66" fill="none" stroke="#39FF14" stroke-width="1" opacity="0.06451800564341946"/>
<polygon points="353,116 361.6,121 361.6,131 353,136 344.4,131 344.4,121" fill="none" stroke="#39FF14" stroke-width="1" opacity="0.06177184085487439"/>
<polygon points="754,76 762.6,81 762.6,91 754,96 745.4,91 745.4,81" fill="none" stroke="#39FF14" stroke-width="1" opacity="0.047430489555697994"/>
</g>

  <!-- HUD Decorative elements -->
  <path d="M 20 20 L 40 20 L 50 30" fill="none" stroke="#39FF14" stroke-width="2" opacity="0.5"/>
  <path d="M 830 180 L 810 180 L 800 170" fill="none" stroke="#39FF14" stroke-width="2" opacity="0.5"/>
  <rect x="20" y="100" width="2" height="40" fill="#ffffff" opacity="0.4"/>
  <rect x="828" y="60" width="2" height="40" fill="#39FF14" opacity="0.6"/>

  <g font-family="'Consolas', 'Fira Code', monospace" text-anchor="middle">

    <!-- SYSTEM STATUS -->
    <g transform="translate(130, 100)">
        <circle cx="0" cy="0" r="45" fill="none" stroke="#111111" stroke-width="8" />
        <circle cx="0" cy="0" r="45" fill="none" stroke="#39FF14" stroke-width="2" stroke-dasharray="10 5">
            <animateTransform attributeName="transform" type="rotate" from="0" to="360" dur="10s" repeatCount="indefinite"/>
        </circle>
        <circle cx="0" cy="0" r="35" fill="#0d0d0d" />
        <circle cx="0" cy="0" r="6" fill="#39FF14" filter="url(#textGlow)">
            <animate attributeName="opacity" values="1;0.3;1" dur="2s" repeatCount="indefinite"/>
        </circle>
        <text x="0" y="-60" font-size="12" fill="#aaaaaa" letter-spacing="2">SYS.CORE</text>
        <text x="0" y="70" font-size="14" fill="#ffffff" font-weight="bold">ONLINE</text>
    </g>

    <!-- LIVE TRAFFIC -->
    <g transform="translate(330, 100)">
        <rect x="-60" y="-45" width="120" height="90" fill="#0a0a0a" rx="8" stroke="#39FF14" stroke-opacity="0.4" stroke-width="1"/>
        <text x="0" y="-20" font-size="12" fill="#aaaaaa">NETWORK LOAD</text>
        <text x="0" y="15" font-size="28" fill="#ffffff" font-weight="bold" filter="url(#textGlow)">5829</text>
        <text x="0" y="35" font-size="10" fill="#777777">ACTIVE SESSIONS</text>
    </g>

    <!-- ACTIVE AGENTS -->
    <g transform="translate(530, 100)">
        <rect x="-60" y="-45" width="120" height="90" fill="#0a0a0a" rx="8" stroke="#39FF14" stroke-opacity="0.4" stroke-width="1"/>
        <text x="0" y="-20" font-size="12" fill="#aaaaaa">SWARM ENTITIES</text>
        <text x="0" y="15" font-size="28" fill="#ffffff" font-weight="bold" filter="url(#textGlow)">89</text>
        <text x="0" y="35" font-size="10" fill="#777777">AUTONOMOUS</text>
    </g>

    <!-- UPTIME -->
    <g transform="translate(730, 100)">
        <path d="M -40 -35 L 40 -35 L 50 -25 L 50 35 L -40 35 L -50 25 Z" fill="#0a0a0a" stroke="#39FF14" stroke-opacity="0.4" stroke-width="1"/>
        <text x="0" y="-15" font-size="12" fill="#aaaaaa">CONTINUITY</text>
        <text x="0" y="15" font-size="24" fill="#ffffff" font-weight="bold">315<tspan font-size="14" fill="#777777">d</tspan></text>
        <rect x="-35" y="25" width="70" height="4" fill="url(#neonBar)" rx="2"/>
    </g>
  </g>

  <text x="425" y="185" font-family="'Consolas', 'Fira Code', monospace" font-size="10" fill="#aaaaaa" opacity="0.6" text-anchor="middle">LAST TELEMETRY PING: 2026-05-07 07:07:57 UTC // ENCRYPTED_TUNNEL</text>
</svg>