<svg width="850" height="200" viewBox="0 0 850 200" xmlns="http://www.w3.org/2000/svg">
  <defs>
    <!-- Carbon Fiber Pattern -->
    <pattern id="carbonFiber" width="10" height="10" patternUnits="userSpaceOnUse">
        <rect width="10" height="10" fill="#050505"/>
        <path d="M0,0 L5,5 L10,0 L5,-5 Z M5,5 L10,10 L15,5 L10,0 Z M-5,5 L0,10 L5,5 L0,0 Z M0,10 L5,15 L10,10 L5,5 Z" fill="#0d0d0d"/>
    </pattern>
    <filter id="glassmorphism">
      <feGaussianBlur stdDeviation="3" result="blur" />
      <feColorMatrix type="matrix" values="1 0 0 0 0  0 1 0 0 0  0 0 1 0 0  0 0 0 18 -7" result="glow" />
      <feBlend in="SourceGraphic" in2="glow" mode="normal" />
    </filter>
    <filter id="textGlow">
      <feGaussianBlur stdDeviation="2" result="blur" />
      <feMerge>
        <feMergeNode in="blur"/>
        <feMergeNode in="SourceGraphic"/>
      </feMerge>
    </filter>
    <linearGradient id="neonBar" x1="0%" y1="0%" x2="100%" y2="0%">
        <stop offset="0%" stop-color="#111111"/>
        <stop offset="100%" stop-color="#39FF14"/>
    </linearGradient>
  </defs>

  <rect width="100%" height="100%" fill="url(#carbonFiber)" rx="12" stroke="#39FF14" stroke-width="1" stroke-opacity="0.3"/>
  <rect width="100%" height="100%" fill="#000000" opacity="0.6" rx="12" />
  <g><polygon points="227,150 235.6,155 235.6,165 227,170 218.4,165 218.4,155" fill="none" stroke="#39FF14" stroke-width="1" opacity="0.05758567162401633"/>
<polygon points="254,31 262.6,36 262.6,46 254,51 245.4,46 245.4,36" fill="none" stroke="#39FF14" stroke-width="1" opacity="0.03316454959073945"/>
<polygon points="461,73 469.6,78 469.6,88 461,93 452.4,88 452.4,78" fill="none" stroke="#39FF14" stroke-width="1" opacity="0.04986439759178023"/>
<polygon points="279,143 287.6,148 287.6,158 279,163 270.4,158 270.4,148" fill="none" stroke="#39FF14" stroke-width="1" opacity="0.046087472900722015"/>
<polygon points="669,89 677.6,94 677.6,104 669,109 660.4,104 660.4,94" fill="none" stroke="#39FF14" stroke-width="1" opacity="0.0691305696598353"/>
<polygon points="448,24 456.6,29 456.6,39 448,44 439.4,39 439.4,29" fill="none" stroke="#39FF14" stroke-width="1" opacity="0.07916560693477405"/>
<polygon points="210,80 218.6,85 218.6,95 210,100 201.4,95 201.4,85" fill="none" stroke="#39FF14" stroke-width="1" opacity="0.059235299149339976"/>
<polygon points="804,71 812.6,76 812.6,86 804,91 795.4,86 795.4,76" fill="none" stroke="#39FF14" stroke-width="1" opacity="0.05961694524360445"/>
<polygon points="37,-4 45.6,1 45.6,11 37,16 28.4,11 28.4,1" fill="none" stroke="#39FF14" stroke-width="1" opacity="0.04622721269231843"/>
<polygon points="745,188 753.6,193 753.6,203 745,208 736.4,203 736.4,193" fill="none" stroke="#39FF14" stroke-width="1" opacity="0.05107505041718905"/>
<polygon points="356,145 364.6,150 364.6,160 356,165 347.4,160 347.4,150" fill="none" stroke="#39FF14" stroke-width="1" opacity="0.053033798193539275"/>
<polygon points="333,127 341.6,132 341.6,142 333,147 324.4,142 324.4,132" fill="none" stroke="#39FF14" stroke-width="1" opacity="0.04883417738572756"/>
<polygon points="508,180 516.6,185 516.6,195 508,200 499.4,195 499.4,185" fill="none" stroke="#39FF14" stroke-width="1" opacity="0.03247768955734606"/>
<polygon points="351,-7 359.6,-2 359.6,8 351,13 342.4,8 342.4,-2" fill="none" stroke="#39FF14" stroke-width="1" opacity="0.04311642806509415"/>
<polygon points="374,4 382.6,9 382.6,19 374,24 365.4,19 365.4,9" fill="none" stroke="#39FF14" stroke-width="1" opacity="0.06819225336470261"/>
<polygon points="356,161 364.6,166 364.6,176 356,181 347.4,176 347.4,166" fill="none" stroke="#39FF14" stroke-width="1" opacity="0.04760742191413799"/>
<polygon points="679,18 687.6,23 687.6,33 679,38 670.4,33 670.4,23" fill="none" stroke="#39FF14" stroke-width="1" opacity="0.03389847070470074"/>
<polygon points="18,117 26.6,122 26.6,132 18,137 9.4,132 9.4,122" fill="none" stroke="#39FF14" stroke-width="1" opacity="0.07296026279549095"/>
<polygon points="791,52 799.6,57 799.6,67 791,72 782.4,67 782.4,57" fill="none" stroke="#39FF14" stroke-width="1" opacity="0.022002863197053177"/>
<polygon points="53,184 61.6,189 61.6,199 53,204 44.4,199 44.4,189" fill="none" stroke="#39FF14" stroke-width="1" opacity="0.05569939091569326"/>
<polygon points="717,158 725.6,163 725.6,173 717,178 708.4,173 708.4,163" fill="none" stroke="#39FF14" stroke-width="1" opacity="0.07958784696854361"/>
<polygon points="650,105 658.6,110 658.6,120 650,125 641.4,120 641.4,110" fill="none" stroke="#39FF14" stroke-width="1" opacity="0.04320325486531193"/>
<polygon points="532,52 540.6,57 540.6,67 532,72 523.4,67 523.4,57" fill="none" stroke="#39FF14" stroke-width="1" opacity="0.020059384927691114"/>
<polygon points="71,17 79.6,22 79.6,32 71,37 62.4,32 62.4,22" fill="none" stroke="#39FF14" stroke-width="1" opacity="0.0766603404484265"/>
<polygon points="414,-5 422.6,0 422.6,10 414,15 405.4,10 405.4,0" fill="none" stroke="#39FF14" stroke-width="1" opacity="0.02029547978136093"/>
<polygon points="549,42 557.6,47 557.6,57 549,62 540.4,57 540.4,47" fill="none" stroke="#39FF14" stroke-width="1" opacity="0.052549784936245514"/>
<polygon points="44,79 52.6,84 52.6,94 44,99 35.4,94 35.4,84" fill="none" stroke="#39FF14" stroke-width="1" opacity="0.035932191926016085"/>
<polygon points="383,54 391.6,59 391.6,69 383,74 374.4,69 374.4,59" fill="none" stroke="#39FF14" stroke-width="1" opacity="0.07858355007309843"/>
<polygon points="362,37 370.6,42 370.6,52 362,57 353.4,52 353.4,42" fill="none" stroke="#39FF14" stroke-width="1" opacity="0.06052658374026626"/>
<polygon points="702,106 710.6,111 710.6,121 702,126 693.4,121 693.4,111" fill="none" stroke="#39FF14" stroke-width="1" opacity="0.053517117666734934"/>
</g>

  <!-- HUD Decorative elements -->
  <path d="M 20 20 L 40 20 L 50 30" fill="none" stroke="#39FF14" stroke-width="2" opacity="0.5"/>
  <path d="M 830 180 L 810 180 L 800 170" fill="none" stroke="#39FF14" stroke-width="2" opacity="0.5"/>
  <rect x="20" y="100" width="2" height="40" fill="#ffffff" opacity="0.4"/>
  <rect x="828" y="60" width="2" height="40" fill="#39FF14" opacity="0.6"/>

  <g font-family="'Consolas', 'Fira Code', monospace" text-anchor="middle">

    <!-- SYSTEM STATUS -->
    <g transform="translate(130, 100)">
        <circle cx="0" cy="0" r="45" fill="none" stroke="#111111" stroke-width="8" />
        <circle cx="0" cy="0" r="45" fill="none" stroke="#39FF14" stroke-width="2" stroke-dasharray="10 5">
            <animateTransform attributeName="transform" type="rotate" from="0" to="360" dur="10s" repeatCount="indefinite"/>
        </circle>
        <circle cx="0" cy="0" r="35" fill="#0d0d0d" />
        <circle cx="0" cy="0" r="6" fill="#39FF14" filter="url(#textGlow)">
            <animate attributeName="opacity" values="1;0.3;1" dur="2s" repeatCount="indefinite"/>
        </circle>
        <text x="0" y="-60" font-size="12" fill="#aaaaaa" letter-spacing="2">SYS.CORE</text>
        <text x="0" y="70" font-size="14" fill="#ffffff" font-weight="bold">ONLINE</text>
    </g>

    <!-- LIVE TRAFFIC -->
    <g transform="translate(330, 100)">
        <rect x="-60" y="-45" width="120" height="90" fill="#0a0a0a" rx="8" stroke="#39FF14" stroke-opacity="0.4" stroke-width="1"/>
        <text x="0" y="-20" font-size="12" fill="#aaaaaa">NETWORK LOAD</text>
        <text x="0" y="15" font-size="28" fill="#ffffff" font-weight="bold" filter="url(#textGlow)">4645</text>
        <text x="0" y="35" font-size="10" fill="#777777">ACTIVE SESSIONS</text>
    </g>

    <!-- ACTIVE AGENTS -->
    <g transform="translate(530, 100)">
        <rect x="-60" y="-45" width="120" height="90" fill="#0a0a0a" rx="8" stroke="#39FF14" stroke-opacity="0.4" stroke-width="1"/>
        <text x="0" y="-20" font-size="12" fill="#aaaaaa">SWARM ENTITIES</text>
        <text x="0" y="15" font-size="28" fill="#ffffff" font-weight="bold" filter="url(#textGlow)">146</text>
        <text x="0" y="35" font-size="10" fill="#777777">AUTONOMOUS</text>
    </g>

    <!-- UPTIME -->
    <g transform="translate(730, 100)">
        <path d="M -40 -35 L 40 -35 L 50 -25 L 50 35 L -40 35 L -50 25 Z" fill="#0a0a0a" stroke="#39FF14" stroke-opacity="0.4" stroke-width="1"/>
        <text x="0" y="-15" font-size="12" fill="#aaaaaa">CONTINUITY</text>
        <text x="0" y="15" font-size="24" fill="#ffffff" font-weight="bold">318<tspan font-size="14" fill="#777777">d</tspan></text>
        <rect x="-35" y="25" width="70" height="4" fill="url(#neonBar)" rx="2"/>
    </g>
  </g>

  <text x="425" y="185" font-family="'Consolas', 'Fira Code', monospace" font-size="10" fill="#aaaaaa" opacity="0.6" text-anchor="middle">LAST TELEMETRY PING: 2026-05-04 07:10:43 UTC // ENCRYPTED_TUNNEL</text>
</svg>