<svg width="850" height="200" viewBox="0 0 850 200" xmlns="http://www.w3.org/2000/svg">
  <defs>
    <pattern id="carbonFiber" width="10" height="10" patternUnits="userSpaceOnUse">
        <rect width="10" height="10" fill="#050505"/>
        <path d="M0,0 L5,5 L10,0 L5,-5 Z M5,5 L10,10 L15,5 L10,0 Z M-5,5 L0,10 L5,5 L0,0 Z M0,10 L5,15 L10,10 L5,5 Z" fill="#0d0d0d"/>
    </pattern>
    <filter id="textGlow">
      <feGaussianBlur stdDeviation="2" result="blur" />
      <feMerge>
        <feMergeNode in="blur"/>
        <feMergeNode in="SourceGraphic"/>
      </feMerge>
    </filter>
    <linearGradient id="neonBar" x1="0%" y1="0%" x2="100%" y2="0%">
        <stop offset="0%" stop-color="#111111"/>
        <stop offset="100%" stop-color="#39FF14"/>
    </linearGradient>
    <linearGradient id="scanlineGrad" x1="0%" y1="0%" x2="100%" y2="0%">
        <stop offset="0%" stop-color="#39FF14" stop-opacity="0"/>
        <stop offset="50%" stop-color="#39FF14" stop-opacity="0.18"/>
        <stop offset="100%" stop-color="#39FF14" stop-opacity="0"/>
    </linearGradient>
    <clipPath id="dashClip">
        <rect x="0" y="0" width="850" height="200" rx="12"/>
    </clipPath>
  </defs>

  <rect width="100%" height="100%" fill="url(#carbonFiber)" rx="12" stroke="#39FF14" stroke-width="1" stroke-opacity="0.3"/>
  <rect width="100%" height="100%" fill="#000000" opacity="0.6" rx="12" />
  <g><polygon points="112,84 120.6,89 120.6,99 112,104 103.4,99 103.4,89" fill="none" stroke="#39FF14" stroke-width="1" opacity="0.06937804206932978"/>
<polygon points="635,76 643.6,81 643.6,91 635,96 626.4,91 626.4,81" fill="none" stroke="#39FF14" stroke-width="1" opacity="0.06838285485938135"/>
<polygon points="208,84 216.6,89 216.6,99 208,104 199.4,99 199.4,89" fill="none" stroke="#39FF14" stroke-width="1" opacity="0.07781876746059649"/>
<polygon points="252,38 260.6,43 260.6,53 252,58 243.4,53 243.4,43" fill="none" stroke="#39FF14" stroke-width="1" opacity="0.06869620292472839"/>
<polygon points="560,72 568.6,77 568.6,87 560,92 551.4,87 551.4,77" fill="none" stroke="#39FF14" stroke-width="1" opacity="0.07781354926923456"/>
<polygon points="153,86 161.6,91 161.6,101 153,106 144.4,101 144.4,91" fill="none" stroke="#39FF14" stroke-width="1" opacity="0.07453698881577467"/>
<polygon points="13,20 21.6,25 21.6,35 13,40 4.4,35 4.4,25" fill="none" stroke="#39FF14" stroke-width="1" opacity="0.02715182663330791"/>
<polygon points="241,120 249.6,125 249.6,135 241,140 232.4,135 232.4,125" fill="none" stroke="#39FF14" stroke-width="1" opacity="0.06549859879973981"/>
<polygon points="359,74 367.6,79 367.6,89 359,94 350.4,89 350.4,79" fill="none" stroke="#39FF14" stroke-width="1" opacity="0.048973281241538436"/>
<polygon points="661,17 669.6,22 669.6,32 661,37 652.4,32 652.4,22" fill="none" stroke="#39FF14" stroke-width="1" opacity="0.07295994970340225"/>
<polygon points="426,28 434.6,33 434.6,43 426,48 417.4,43 417.4,33" fill="none" stroke="#39FF14" stroke-width="1" opacity="0.02848594954812157"/>
<polygon points="440,156 448.6,161 448.6,171 440,176 431.4,171 431.4,161" fill="none" stroke="#39FF14" stroke-width="1" opacity="0.027879846957015533"/>
<polygon points="267,160 275.6,165 275.6,175 267,180 258.4,175 258.4,165" fill="none" stroke="#39FF14" stroke-width="1" opacity="0.02702006968215889"/>
<polygon points="692,38 700.6,43 700.6,53 692,58 683.4,53 683.4,43" fill="none" stroke="#39FF14" stroke-width="1" opacity="0.0731792968311148"/>
<polygon points="756,54 764.6,59 764.6,69 756,74 747.4,69 747.4,59" fill="none" stroke="#39FF14" stroke-width="1" opacity="0.020841118396435602"/>
<polygon points="699,26 707.6,31 707.6,41 699,46 690.4,41 690.4,31" fill="none" stroke="#39FF14" stroke-width="1" opacity="0.03565089247226762"/>
<polygon points="697,51 705.6,56 705.6,66 697,71 688.4,66 688.4,56" fill="none" stroke="#39FF14" stroke-width="1" opacity="0.0602267407572535"/>
<polygon points="236,59 244.6,64 244.6,74 236,79 227.4,74 227.4,64" fill="none" stroke="#39FF14" stroke-width="1" opacity="0.07146722555850929"/>
<polygon points="369,105 377.6,110 377.6,120 369,125 360.4,120 360.4,110" fill="none" stroke="#39FF14" stroke-width="1" opacity="0.06847826356110175"/>
<polygon points="378,153 386.6,158 386.6,168 378,173 369.4,168 369.4,158" fill="none" stroke="#39FF14" stroke-width="1" opacity="0.04760941514893732"/>
<polygon points="690,107 698.6,112 698.6,122 690,127 681.4,122 681.4,112" fill="none" stroke="#39FF14" stroke-width="1" opacity="0.06770673145056025"/>
<polygon points="690,50 698.6,55 698.6,65 690,70 681.4,65 681.4,55" fill="none" stroke="#39FF14" stroke-width="1" opacity="0.06236075461049423"/>
<polygon points="272,-4 280.6,1 280.6,11 272,16 263.4,11 263.4,1" fill="none" stroke="#39FF14" stroke-width="1" opacity="0.06653386277720147"/>
<polygon points="86,20 94.6,25 94.6,35 86,40 77.4,35 77.4,25" fill="none" stroke="#39FF14" stroke-width="1" opacity="0.024718898936056454"/>
<polygon points="120,23 128.6,28 128.6,38 120,43 111.4,38 111.4,28" fill="none" stroke="#39FF14" stroke-width="1" opacity="0.059595216311330176"/>
<polygon points="689,153 697.6,158 697.6,168 689,173 680.4,168 680.4,158" fill="none" stroke="#39FF14" stroke-width="1" opacity="0.04918910468702271"/>
<polygon points="649,-8 657.6,-3 657.6,7 649,12 640.4,7 640.4,-3" fill="none" stroke="#39FF14" stroke-width="1" opacity="0.049229889073678444"/>
<polygon points="528,182 536.6,187 536.6,197 528,202 519.4,197 519.4,187" fill="none" stroke="#39FF14" stroke-width="1" opacity="0.0755860315705356"/>
<polygon points="468,82 476.6,87 476.6,97 468,102 459.4,97 459.4,87" fill="none" stroke="#39FF14" stroke-width="1" opacity="0.024911764636695914"/>
<polygon points="204,171 212.6,176 212.6,186 204,191 195.4,186 195.4,176" fill="none" stroke="#39FF14" stroke-width="1" opacity="0.059365749581203345"/>
</g>

  <!-- HUD Decorative elements -->
  <path d="M 20 20 L 40 20 L 50 30" fill="none" stroke="#39FF14" stroke-width="2" opacity="0.5"/>
  <path d="M 830 180 L 810 180 L 800 170" fill="none" stroke="#39FF14" stroke-width="2" opacity="0.5"/>

  <g clip-path="url(#dashClip)">
    <rect x="-160" y="0" width="160" height="200" fill="url(#scanlineGrad)">
      <animateTransform attributeName="transform" type="translate"
                        from="0 0" to="1010 0" dur="6s" repeatCount="indefinite"/>
    </rect>
  </g>

  <g font-family="'Consolas', 'Fira Code', monospace" text-anchor="middle">

    <!-- NETWORK STATUS -->
    <g transform="translate(130, 100)">
        <circle cx="0" cy="0" r="45" fill="none" stroke="#39FF14" stroke-width="2" stroke-dasharray="10 5">
            <animateTransform attributeName="transform" type="rotate" from="0" to="360" dur="10s" repeatCount="indefinite"/>
        </circle>
        <circle cx="0" cy="0" r="35" fill="#0d0d0d" />
        <text x="0" y="-60" font-size="12" fill="#aaaaaa" letter-spacing="2">ROOT.AUTH</text>
        <text x="0" y="70" font-size="14" fill="#ffffff" font-weight="bold">OPERATIONAL</text>
    </g>

    <!-- ACTIVE USERS -->
    <g transform="translate(330, 100)">
        <text x="0" y="-20" font-size="12" fill="#aaaaaa">CITIZENS</text>
        <text x="0" y="15" font-size="28" fill="#ffffff" font-weight="bold" filter="url(#textGlow)">14,326</text>
        <text x="0" y="35" font-size="10" fill="#777777">VERIFIED HUMANS</text>
    </g>

    <!-- REGISTERED AGENTS -->
    <g transform="translate(530, 100)">
        <text x="0" y="-20" font-size="12" fill="#aaaaaa">AGENTS</text>
        <text x="0" y="15" font-size="28" fill="#00d4ff" font-weight="bold" filter="url(#textGlow)">3,685</text>
        <text x="0" y="35" font-size="10" fill="#777777">REGISTERED DIDs</text>
    </g>

    <!-- TRANSACTIONS -->
    <g transform="translate(730, 100)">
        <text x="0" y="-20" font-size="12" fill="#aaaaaa">TRANSFERS</text>
        <text x="0" y="15" font-size="28" fill="#ffffff" font-weight="bold">28,245</text>
        <text x="0" y="35" font-size="10" fill="#777777">M2M SETTLEMENTS</text>
    </g>
  </g>

  <text x="425" y="185" font-family="'Consolas', 'Fira Code', monospace" font-size="10" fill="#aaaaaa" opacity="0.6" text-anchor="middle">AXIOMID PROJECTED TARGETS (ILLUSTRATIVE): 2026-07-19 15:46:21 UTC // SECURE_HANDSHAKE</text>
</svg>