<svg width="850" height="200" viewBox="0 0 850 200" xmlns="http://www.w3.org/2000/svg">
  <defs>
    <!-- Carbon Fiber Pattern -->
    <pattern id="carbonFiber" width="10" height="10" patternUnits="userSpaceOnUse">
        <rect width="10" height="10" fill="#050505"/>
        <path d="M0,0 L5,5 L10,0 L5,-5 Z M5,5 L10,10 L15,5 L10,0 Z M-5,5 L0,10 L5,5 L0,0 Z M0,10 L5,15 L10,10 L5,5 Z" fill="#0d0d0d"/>
    </pattern>
    <filter id="glassmorphism">
      <feGaussianBlur stdDeviation="3" result="blur" />
      <feColorMatrix type="matrix" values="1 0 0 0 0  0 1 0 0 0  0 0 1 0 0  0 0 0 18 -7" result="glow" />
      <feBlend in="SourceGraphic" in2="glow" mode="normal" />
    </filter>
    <filter id="textGlow">
      <feGaussianBlur stdDeviation="2" result="blur" />
      <feMerge>
        <feMergeNode in="blur"/>
        <feMergeNode in="SourceGraphic"/>
      </feMerge>
    </filter>
    <linearGradient id="neonBar" x1="0%" y1="0%" x2="100%" y2="0%">
        <stop offset="0%" stop-color="#111111"/>
        <stop offset="100%" stop-color="#39FF14"/>
    </linearGradient>
  </defs>

  <rect width="100%" height="100%" fill="url(#carbonFiber)" rx="12" stroke="#39FF14" stroke-width="1" stroke-opacity="0.3"/>
  <rect width="100%" height="100%" fill="#000000" opacity="0.6" rx="12" />
  <g><polygon points="131,187 139.6,192 139.6,202 131,207 122.4,202 122.4,192" fill="none" stroke="#39FF14" stroke-width="1" opacity="0.03311293011206799"/>
<polygon points="260,41 268.6,46 268.6,56 260,61 251.4,56 251.4,46" fill="none" stroke="#39FF14" stroke-width="1" opacity="0.025728325436707337"/>
<polygon points="204,145 212.6,150 212.6,160 204,165 195.4,160 195.4,150" fill="none" stroke="#39FF14" stroke-width="1" opacity="0.057453992459244735"/>
<polygon points="620,55 628.6,60 628.6,70 620,75 611.4,70 611.4,60" fill="none" stroke="#39FF14" stroke-width="1" opacity="0.024409451808789936"/>
<polygon points="759,79 767.6,84 767.6,94 759,99 750.4,94 750.4,84" fill="none" stroke="#39FF14" stroke-width="1" opacity="0.020068738864570185"/>
<polygon points="60,32 68.6,37 68.6,47 60,52 51.4,47 51.4,37" fill="none" stroke="#39FF14" stroke-width="1" opacity="0.06499138582465769"/>
<polygon points="405,-9 413.6,-4 413.6,6 405,11 396.4,6 396.4,-4" fill="none" stroke="#39FF14" stroke-width="1" opacity="0.06971457615605924"/>
<polygon points="797,179 805.6,184 805.6,194 797,199 788.4,194 788.4,184" fill="none" stroke="#39FF14" stroke-width="1" opacity="0.07841963280011971"/>
<polygon points="145,64 153.6,69 153.6,79 145,84 136.4,79 136.4,69" fill="none" stroke="#39FF14" stroke-width="1" opacity="0.022121111825118757"/>
<polygon points="168,172 176.6,177 176.6,187 168,192 159.4,187 159.4,177" fill="none" stroke="#39FF14" stroke-width="1" opacity="0.05299887101632755"/>
<polygon points="525,57 533.6,62 533.6,72 525,77 516.4,72 516.4,62" fill="none" stroke="#39FF14" stroke-width="1" opacity="0.057756839382457875"/>
<polygon points="83,116 91.6,121 91.6,131 83,136 74.4,131 74.4,121" fill="none" stroke="#39FF14" stroke-width="1" opacity="0.023397198597574144"/>
<polygon points="710,9 718.6,14 718.6,24 710,29 701.4,24 701.4,14" fill="none" stroke="#39FF14" stroke-width="1" opacity="0.05260057998185816"/>
<polygon points="695,150 703.6,155 703.6,165 695,170 686.4,165 686.4,155" fill="none" stroke="#39FF14" stroke-width="1" opacity="0.04870882250880058"/>
<polygon points="137,141 145.6,146 145.6,156 137,161 128.4,156 128.4,146" fill="none" stroke="#39FF14" stroke-width="1" opacity="0.03890501976778607"/>
<polygon points="522,121 530.6,126 530.6,136 522,141 513.4,136 513.4,126" fill="none" stroke="#39FF14" stroke-width="1" opacity="0.039989015005730266"/>
<polygon points="356,51 364.6,56 364.6,66 356,71 347.4,66 347.4,56" fill="none" stroke="#39FF14" stroke-width="1" opacity="0.03178575076295423"/>
<polygon points="825,59 833.6,64 833.6,74 825,79 816.4,74 816.4,64" fill="none" stroke="#39FF14" stroke-width="1" opacity="0.023655078371728058"/>
<polygon points="43,138 51.6,143 51.6,153 43,158 34.4,153 34.4,143" fill="none" stroke="#39FF14" stroke-width="1" opacity="0.06219391034928974"/>
<polygon points="156,80 164.6,85 164.6,95 156,100 147.4,95 147.4,85" fill="none" stroke="#39FF14" stroke-width="1" opacity="0.03047266435444266"/>
<polygon points="47,134 55.6,139 55.6,149 47,154 38.4,149 38.4,139" fill="none" stroke="#39FF14" stroke-width="1" opacity="0.0524400859460107"/>
<polygon points="413,128 421.6,133 421.6,143 413,148 404.4,143 404.4,133" fill="none" stroke="#39FF14" stroke-width="1" opacity="0.03301723299059192"/>
<polygon points="242,59 250.6,64 250.6,74 242,79 233.4,74 233.4,64" fill="none" stroke="#39FF14" stroke-width="1" opacity="0.033583567155858834"/>
<polygon points="20,37 28.6,42 28.6,52 20,57 11.4,52 11.4,42" fill="none" stroke="#39FF14" stroke-width="1" opacity="0.07463268472931393"/>
<polygon points="101,66 109.6,71 109.6,81 101,86 92.4,81 92.4,71" fill="none" stroke="#39FF14" stroke-width="1" opacity="0.03310220198470689"/>
<polygon points="696,187 704.6,192 704.6,202 696,207 687.4,202 687.4,192" fill="none" stroke="#39FF14" stroke-width="1" opacity="0.020897507251575277"/>
<polygon points="167,155 175.6,160 175.6,170 167,175 158.4,170 158.4,160" fill="none" stroke="#39FF14" stroke-width="1" opacity="0.065361996469168"/>
<polygon points="642,92 650.6,97 650.6,107 642,112 633.4,107 633.4,97" fill="none" stroke="#39FF14" stroke-width="1" opacity="0.060623226018685875"/>
<polygon points="447,13 455.6,18 455.6,28 447,33 438.4,28 438.4,18" fill="none" stroke="#39FF14" stroke-width="1" opacity="0.04418308807396068"/>
<polygon points="420,144 428.6,149 428.6,159 420,164 411.4,159 411.4,149" fill="none" stroke="#39FF14" stroke-width="1" opacity="0.031203917011515363"/>
</g>

  <!-- HUD Decorative elements -->
  <path d="M 20 20 L 40 20 L 50 30" fill="none" stroke="#39FF14" stroke-width="2" opacity="0.5"/>
  <path d="M 830 180 L 810 180 L 800 170" fill="none" stroke="#39FF14" stroke-width="2" opacity="0.5"/>
  <rect x="20" y="100" width="2" height="40" fill="#ffffff" opacity="0.4"/>
  <rect x="828" y="60" width="2" height="40" fill="#39FF14" opacity="0.6"/>

  <g font-family="'Consolas', 'Fira Code', monospace" text-anchor="middle">

    <!-- SYSTEM STATUS -->
    <g transform="translate(130, 100)">
        <circle cx="0" cy="0" r="45" fill="none" stroke="#111111" stroke-width="8" />
        <circle cx="0" cy="0" r="45" fill="none" stroke="#39FF14" stroke-width="2" stroke-dasharray="10 5">
            <animateTransform attributeName="transform" type="rotate" from="0" to="360" dur="10s" repeatCount="indefinite"/>
        </circle>
        <circle cx="0" cy="0" r="35" fill="#0d0d0d" />
        <circle cx="0" cy="0" r="6" fill="#39FF14" filter="url(#textGlow)">
            <animate attributeName="opacity" values="1;0.3;1" dur="2s" repeatCount="indefinite"/>
        </circle>
        <text x="0" y="-60" font-size="12" fill="#aaaaaa" letter-spacing="2">SYS.CORE</text>
        <text x="0" y="70" font-size="14" fill="#ffffff" font-weight="bold">ONLINE</text>
    </g>

    <!-- LIVE TRAFFIC -->
    <g transform="translate(330, 100)">
        <rect x="-60" y="-45" width="120" height="90" fill="#0a0a0a" rx="8" stroke="#39FF14" stroke-opacity="0.4" stroke-width="1"/>
        <text x="0" y="-20" font-size="12" fill="#aaaaaa">NETWORK LOAD</text>
        <text x="0" y="15" font-size="28" fill="#ffffff" font-weight="bold" filter="url(#textGlow)">7246</text>
        <text x="0" y="35" font-size="10" fill="#777777">ACTIVE SESSIONS</text>
    </g>

    <!-- ACTIVE AGENTS -->
    <g transform="translate(530, 100)">
        <rect x="-60" y="-45" width="120" height="90" fill="#0a0a0a" rx="8" stroke="#39FF14" stroke-opacity="0.4" stroke-width="1"/>
        <text x="0" y="-20" font-size="12" fill="#aaaaaa">SWARM ENTITIES</text>
        <text x="0" y="15" font-size="28" fill="#ffffff" font-weight="bold" filter="url(#textGlow)">129</text>
        <text x="0" y="35" font-size="10" fill="#777777">AUTONOMOUS</text>
    </g>

    <!-- UPTIME -->
    <g transform="translate(730, 100)">
        <path d="M -40 -35 L 40 -35 L 50 -25 L 50 35 L -40 35 L -50 25 Z" fill="#0a0a0a" stroke="#39FF14" stroke-opacity="0.4" stroke-width="1"/>
        <text x="0" y="-15" font-size="12" fill="#aaaaaa">CONTINUITY</text>
        <text x="0" y="15" font-size="24" fill="#ffffff" font-weight="bold">289<tspan font-size="14" fill="#777777">d</tspan></text>
        <rect x="-35" y="25" width="70" height="4" fill="url(#neonBar)" rx="2"/>
    </g>
  </g>

  <text x="425" y="185" font-family="'Consolas', 'Fira Code', monospace" font-size="10" fill="#aaaaaa" opacity="0.6" text-anchor="middle">LAST TELEMETRY PING: 2026-04-26 16:07:44 UTC // ENCRYPTED_TUNNEL</text>
</svg>