<svg width="850" height="200" viewBox="0 0 850 200" xmlns="http://www.w3.org/2000/svg">
  <defs>
    <pattern id="carbonFiber" width="10" height="10" patternUnits="userSpaceOnUse">
        <rect width="10" height="10" fill="#050505"/>
        <path d="M0,0 L5,5 L10,0 L5,-5 Z M5,5 L10,10 L15,5 L10,0 Z M-5,5 L0,10 L5,5 L0,0 Z M0,10 L5,15 L10,10 L5,5 Z" fill="#0d0d0d"/>
    </pattern>
    <filter id="textGlow">
      <feGaussianBlur stdDeviation="2" result="blur" />
      <feMerge>
        <feMergeNode in="blur"/>
        <feMergeNode in="SourceGraphic"/>
      </feMerge>
    </filter>
    <linearGradient id="neonBar" x1="0%" y1="0%" x2="100%" y2="0%">
        <stop offset="0%" stop-color="#111111"/>
        <stop offset="100%" stop-color="#39FF14"/>
    </linearGradient>
    <linearGradient id="scanlineGrad" x1="0%" y1="0%" x2="100%" y2="0%">
        <stop offset="0%" stop-color="#39FF14" stop-opacity="0"/>
        <stop offset="50%" stop-color="#39FF14" stop-opacity="0.18"/>
        <stop offset="100%" stop-color="#39FF14" stop-opacity="0"/>
    </linearGradient>
    <clipPath id="dashClip">
        <rect x="0" y="0" width="850" height="200" rx="12"/>
    </clipPath>
  </defs>

  <rect width="100%" height="100%" fill="url(#carbonFiber)" rx="12" stroke="#39FF14" stroke-width="1" stroke-opacity="0.3"/>
  <rect width="100%" height="100%" fill="#000000" opacity="0.6" rx="12" />
  <g><polygon points="403,51 411.6,56 411.6,66 403,71 394.4,66 394.4,56" fill="none" stroke="#39FF14" stroke-width="1" opacity="0.029270090740761624"/>
<polygon points="550,173 558.6,178 558.6,188 550,193 541.4,188 541.4,178" fill="none" stroke="#39FF14" stroke-width="1" opacity="0.04761142156799518"/>
<polygon points="284,109 292.6,114 292.6,124 284,129 275.4,124 275.4,114" fill="none" stroke="#39FF14" stroke-width="1" opacity="0.03421220097870869"/>
<polygon points="46,141 54.6,146 54.6,156 46,161 37.4,156 37.4,146" fill="none" stroke="#39FF14" stroke-width="1" opacity="0.027263555322435802"/>
<polygon points="354,110 362.6,115 362.6,125 354,130 345.4,125 345.4,115" fill="none" stroke="#39FF14" stroke-width="1" opacity="0.0537759439880002"/>
<polygon points="412,98 420.6,103 420.6,113 412,118 403.4,113 403.4,103" fill="none" stroke="#39FF14" stroke-width="1" opacity="0.04329165986873748"/>
<polygon points="545,83 553.6,88 553.6,98 545,103 536.4,98 536.4,88" fill="none" stroke="#39FF14" stroke-width="1" opacity="0.06511625673822137"/>
<polygon points="22,0 30.6,5 30.6,15 22,20 13.4,15 13.4,5" fill="none" stroke="#39FF14" stroke-width="1" opacity="0.07898909001391304"/>
<polygon points="147,-2 155.6,3 155.6,13 147,18 138.4,13 138.4,3" fill="none" stroke="#39FF14" stroke-width="1" opacity="0.03209541081514234"/>
<polygon points="602,169 610.6,174 610.6,184 602,189 593.4,184 593.4,174" fill="none" stroke="#39FF14" stroke-width="1" opacity="0.0695883742352559"/>
<polygon points="495,161 503.6,166 503.6,176 495,181 486.4,176 486.4,166" fill="none" stroke="#39FF14" stroke-width="1" opacity="0.03211261374702681"/>
<polygon points="652,105 660.6,110 660.6,120 652,125 643.4,120 643.4,110" fill="none" stroke="#39FF14" stroke-width="1" opacity="0.07113289537538282"/>
<polygon points="355,28 363.6,33 363.6,43 355,48 346.4,43 346.4,33" fill="none" stroke="#39FF14" stroke-width="1" opacity="0.02649139830036524"/>
<polygon points="478,84 486.6,89 486.6,99 478,104 469.4,99 469.4,89" fill="none" stroke="#39FF14" stroke-width="1" opacity="0.04581344443919981"/>
<polygon points="606,74 614.6,79 614.6,89 606,94 597.4,89 597.4,79" fill="none" stroke="#39FF14" stroke-width="1" opacity="0.05855044522756593"/>
<polygon points="455,115 463.6,120 463.6,130 455,135 446.4,130 446.4,120" fill="none" stroke="#39FF14" stroke-width="1" opacity="0.03354892931067997"/>
<polygon points="13,87 21.6,92 21.6,102 13,107 4.4,102 4.4,92" fill="none" stroke="#39FF14" stroke-width="1" opacity="0.07791343377701546"/>
<polygon points="643,158 651.6,163 651.6,173 643,178 634.4,173 634.4,163" fill="none" stroke="#39FF14" stroke-width="1" opacity="0.04189997203095558"/>
<polygon points="606,183 614.6,188 614.6,198 606,203 597.4,198 597.4,188" fill="none" stroke="#39FF14" stroke-width="1" opacity="0.06994354914336012"/>
<polygon points="405,181 413.6,186 413.6,196 405,201 396.4,196 396.4,186" fill="none" stroke="#39FF14" stroke-width="1" opacity="0.07460332163142253"/>
<polygon points="191,147 199.6,152 199.6,162 191,167 182.4,162 182.4,152" fill="none" stroke="#39FF14" stroke-width="1" opacity="0.03061810952600179"/>
<polygon points="419,39 427.6,44 427.6,54 419,59 410.4,54 410.4,44" fill="none" stroke="#39FF14" stroke-width="1" opacity="0.029760615815183012"/>
<polygon points="776,156 784.6,161 784.6,171 776,176 767.4,171 767.4,161" fill="none" stroke="#39FF14" stroke-width="1" opacity="0.03181245033295049"/>
<polygon points="786,3 794.6,8 794.6,18 786,23 777.4,18 777.4,8" fill="none" stroke="#39FF14" stroke-width="1" opacity="0.07898097504458401"/>
<polygon points="303,106 311.6,111 311.6,121 303,126 294.4,121 294.4,111" fill="none" stroke="#39FF14" stroke-width="1" opacity="0.045761253472689244"/>
<polygon points="317,97 325.6,102 325.6,112 317,117 308.4,112 308.4,102" fill="none" stroke="#39FF14" stroke-width="1" opacity="0.041514843182349534"/>
<polygon points="235,181 243.6,186 243.6,196 235,201 226.4,196 226.4,186" fill="none" stroke="#39FF14" stroke-width="1" opacity="0.0531916041090266"/>
<polygon points="339,88 347.6,93 347.6,103 339,108 330.4,103 330.4,93" fill="none" stroke="#39FF14" stroke-width="1" opacity="0.03426754517631486"/>
<polygon points="109,181 117.6,186 117.6,196 109,201 100.4,196 100.4,186" fill="none" stroke="#39FF14" stroke-width="1" opacity="0.06800188428823029"/>
<polygon points="287,5 295.6,10 295.6,20 287,25 278.4,20 278.4,10" fill="none" stroke="#39FF14" stroke-width="1" opacity="0.0565074926320694"/>
</g>

  <!-- HUD Decorative elements -->
  <path d="M 20 20 L 40 20 L 50 30" fill="none" stroke="#39FF14" stroke-width="2" opacity="0.5"/>
  <path d="M 830 180 L 810 180 L 800 170" fill="none" stroke="#39FF14" stroke-width="2" opacity="0.5"/>

  <g clip-path="url(#dashClip)">
    <rect x="-160" y="0" width="160" height="200" fill="url(#scanlineGrad)">
      <animateTransform attributeName="transform" type="translate"
                        from="0 0" to="1010 0" dur="6s" repeatCount="indefinite"/>
    </rect>
  </g>

  <g font-family="'Consolas', 'Fira Code', monospace" text-anchor="middle">

    <!-- NETWORK STATUS -->
    <g transform="translate(130, 100)">
        <circle cx="0" cy="0" r="45" fill="none" stroke="#39FF14" stroke-width="2" stroke-dasharray="10 5">
            <animateTransform attributeName="transform" type="rotate" from="0" to="360" dur="10s" repeatCount="indefinite"/>
        </circle>
        <circle cx="0" cy="0" r="35" fill="#0d0d0d" />
        <text x="0" y="-60" font-size="12" fill="#aaaaaa" letter-spacing="2">ROOT.AUTH</text>
        <text x="0" y="70" font-size="14" fill="#ffffff" font-weight="bold">OPERATIONAL</text>
    </g>

    <!-- ACTIVE USERS -->
    <g transform="translate(330, 100)">
        <text x="0" y="-20" font-size="12" fill="#aaaaaa">CITIZENS</text>
        <text x="0" y="15" font-size="28" fill="#ffffff" font-weight="bold" filter="url(#textGlow)">13,491</text>
        <text x="0" y="35" font-size="10" fill="#777777">VERIFIED HUMANS</text>
    </g>

    <!-- REGISTERED AGENTS -->
    <g transform="translate(530, 100)">
        <text x="0" y="-20" font-size="12" fill="#aaaaaa">AGENTS</text>
        <text x="0" y="15" font-size="28" fill="#00d4ff" font-weight="bold" filter="url(#textGlow)">4,586</text>
        <text x="0" y="35" font-size="10" fill="#777777">REGISTERED DIDs</text>
    </g>

    <!-- TRANSACTIONS -->
    <g transform="translate(730, 100)">
        <text x="0" y="-20" font-size="12" fill="#aaaaaa">TRANSFERS</text>
        <text x="0" y="15" font-size="28" fill="#ffffff" font-weight="bold">40,825</text>
        <text x="0" y="35" font-size="10" fill="#777777">M2M SETTLEMENTS</text>
    </g>
  </g>

  <text x="425" y="185" font-family="'Consolas', 'Fira Code', monospace" font-size="10" fill="#aaaaaa" opacity="0.6" text-anchor="middle">AXIOMID PROJECTED TARGETS (ILLUSTRATIVE): 2026-06-22 04:30:43 UTC // SECURE_HANDSHAKE</text>
</svg>