<svg width="850" height="200" viewBox="0 0 850 200" xmlns="http://www.w3.org/2000/svg">
  <defs>
    <pattern id="carbonFiber" width="10" height="10" patternUnits="userSpaceOnUse">
        <rect width="10" height="10" fill="#050505"/>
        <path d="M0,0 L5,5 L10,0 L5,-5 Z M5,5 L10,10 L15,5 L10,0 Z M-5,5 L0,10 L5,5 L0,0 Z M0,10 L5,15 L10,10 L5,5 Z" fill="#0d0d0d"/>
    </pattern>
    <filter id="textGlow">
      <feGaussianBlur stdDeviation="2" result="blur" />
      <feMerge>
        <feMergeNode in="blur"/>
        <feMergeNode in="SourceGraphic"/>
      </feMerge>
    </filter>
    <linearGradient id="neonBar" x1="0%" y1="0%" x2="100%" y2="0%">
        <stop offset="0%" stop-color="#111111"/>
        <stop offset="100%" stop-color="#39FF14"/>
    </linearGradient>
    <linearGradient id="scanlineGrad" x1="0%" y1="0%" x2="100%" y2="0%">
        <stop offset="0%" stop-color="#39FF14" stop-opacity="0"/>
        <stop offset="50%" stop-color="#39FF14" stop-opacity="0.18"/>
        <stop offset="100%" stop-color="#39FF14" stop-opacity="0"/>
    </linearGradient>
    <clipPath id="dashClip">
        <rect x="0" y="0" width="850" height="200" rx="12"/>
    </clipPath>
  </defs>

  <rect width="100%" height="100%" fill="url(#carbonFiber)" rx="12" stroke="#39FF14" stroke-width="1" stroke-opacity="0.3"/>
  <rect width="100%" height="100%" fill="#000000" opacity="0.6" rx="12" />
  <g><polygon points="581,74 589.6,79 589.6,89 581,94 572.4,89 572.4,79" fill="none" stroke="#39FF14" stroke-width="1" opacity="0.0561535325942719"/>
<polygon points="131,25 139.6,30 139.6,40 131,45 122.4,40 122.4,30" fill="none" stroke="#39FF14" stroke-width="1" opacity="0.029547948422673644"/>
<polygon points="377,98 385.6,103 385.6,113 377,118 368.4,113 368.4,103" fill="none" stroke="#39FF14" stroke-width="1" opacity="0.04058054594966678"/>
<polygon points="117,30 125.6,35 125.6,45 117,50 108.4,45 108.4,35" fill="none" stroke="#39FF14" stroke-width="1" opacity="0.07713378994289447"/>
<polygon points="368,52 376.6,57 376.6,67 368,72 359.4,67 359.4,57" fill="none" stroke="#39FF14" stroke-width="1" opacity="0.07508190168424207"/>
<polygon points="331,3 339.6,8 339.6,18 331,23 322.4,18 322.4,8" fill="none" stroke="#39FF14" stroke-width="1" opacity="0.020519813498892005"/>
<polygon points="62,189 70.6,194 70.6,204 62,209 53.4,204 53.4,194" fill="none" stroke="#39FF14" stroke-width="1" opacity="0.07248700666254654"/>
<polygon points="514,178 522.6,183 522.6,193 514,198 505.4,193 505.4,183" fill="none" stroke="#39FF14" stroke-width="1" opacity="0.025987621189382498"/>
<polygon points="797,49 805.6,54 805.6,64 797,69 788.4,64 788.4,54" fill="none" stroke="#39FF14" stroke-width="1" opacity="0.036057136824548475"/>
<polygon points="56,12 64.6,17 64.6,27 56,32 47.4,27 47.4,17" fill="none" stroke="#39FF14" stroke-width="1" opacity="0.06552103012121714"/>
<polygon points="225,135 233.6,140 233.6,150 225,155 216.4,150 216.4,140" fill="none" stroke="#39FF14" stroke-width="1" opacity="0.07405700107858254"/>
<polygon points="678,-7 686.6,-2 686.6,8 678,13 669.4,8 669.4,-2" fill="none" stroke="#39FF14" stroke-width="1" opacity="0.06754208332217226"/>
<polygon points="190,164 198.6,169 198.6,179 190,184 181.4,179 181.4,169" fill="none" stroke="#39FF14" stroke-width="1" opacity="0.04497370926913334"/>
<polygon points="208,-6 216.6,-1 216.6,9 208,14 199.4,9 199.4,-1" fill="none" stroke="#39FF14" stroke-width="1" opacity="0.06989451569462277"/>
<polygon points="490,-5 498.6,0 498.6,10 490,15 481.4,10 481.4,0" fill="none" stroke="#39FF14" stroke-width="1" opacity="0.02845850452808392"/>
<polygon points="387,40 395.6,45 395.6,55 387,60 378.4,55 378.4,45" fill="none" stroke="#39FF14" stroke-width="1" opacity="0.04208687493904144"/>
<polygon points="445,55 453.6,60 453.6,70 445,75 436.4,70 436.4,60" fill="none" stroke="#39FF14" stroke-width="1" opacity="0.04914498914860882"/>
<polygon points="124,167 132.6,172 132.6,182 124,187 115.4,182 115.4,172" fill="none" stroke="#39FF14" stroke-width="1" opacity="0.04600405039307358"/>
<polygon points="288,91 296.6,96 296.6,106 288,111 279.4,106 279.4,96" fill="none" stroke="#39FF14" stroke-width="1" opacity="0.06409127970430263"/>
<polygon points="291,174 299.6,179 299.6,189 291,194 282.4,189 282.4,179" fill="none" stroke="#39FF14" stroke-width="1" opacity="0.05693900033340418"/>
<polygon points="806,60 814.6,65 814.6,75 806,80 797.4,75 797.4,65" fill="none" stroke="#39FF14" stroke-width="1" opacity="0.06550962212596705"/>
<polygon points="399,161 407.6,166 407.6,176 399,181 390.4,176 390.4,166" fill="none" stroke="#39FF14" stroke-width="1" opacity="0.048684720585711765"/>
<polygon points="20,69 28.6,74 28.6,84 20,89 11.4,84 11.4,74" fill="none" stroke="#39FF14" stroke-width="1" opacity="0.06895006046852611"/>
<polygon points="559,172 567.6,177 567.6,187 559,192 550.4,187 550.4,177" fill="none" stroke="#39FF14" stroke-width="1" opacity="0.04045606423666655"/>
<polygon points="484,-4 492.6,1 492.6,11 484,16 475.4,11 475.4,1" fill="none" stroke="#39FF14" stroke-width="1" opacity="0.07629206710521426"/>
<polygon points="752,116 760.6,121 760.6,131 752,136 743.4,131 743.4,121" fill="none" stroke="#39FF14" stroke-width="1" opacity="0.06099164910419565"/>
<polygon points="229,58 237.6,63 237.6,73 229,78 220.4,73 220.4,63" fill="none" stroke="#39FF14" stroke-width="1" opacity="0.04831687097111889"/>
<polygon points="431,46 439.6,51 439.6,61 431,66 422.4,61 422.4,51" fill="none" stroke="#39FF14" stroke-width="1" opacity="0.05249550978731518"/>
<polygon points="272,135 280.6,140 280.6,150 272,155 263.4,150 263.4,140" fill="none" stroke="#39FF14" stroke-width="1" opacity="0.02795547153655873"/>
<polygon points="561,12 569.6,17 569.6,27 561,32 552.4,27 552.4,17" fill="none" stroke="#39FF14" stroke-width="1" opacity="0.07290975865681924"/>
</g>

  <!-- HUD Decorative elements -->
  <path d="M 20 20 L 40 20 L 50 30" fill="none" stroke="#39FF14" stroke-width="2" opacity="0.5"/>
  <path d="M 830 180 L 810 180 L 800 170" fill="none" stroke="#39FF14" stroke-width="2" opacity="0.5"/>

  <g clip-path="url(#dashClip)">
    <rect x="-160" y="0" width="160" height="200" fill="url(#scanlineGrad)">
      <animateTransform attributeName="transform" type="translate"
                        from="0 0" to="1010 0" dur="6s" repeatCount="indefinite"/>
    </rect>
  </g>

  <g font-family="'Consolas', 'Fira Code', monospace" text-anchor="middle">

    <!-- NETWORK STATUS -->
    <g transform="translate(130, 100)">
        <circle cx="0" cy="0" r="45" fill="none" stroke="#39FF14" stroke-width="2" stroke-dasharray="10 5">
            <animateTransform attributeName="transform" type="rotate" from="0" to="360" dur="10s" repeatCount="indefinite"/>
        </circle>
        <circle cx="0" cy="0" r="35" fill="#0d0d0d" />
        <text x="0" y="-60" font-size="12" fill="#aaaaaa" letter-spacing="2">ROOT.AUTH</text>
        <text x="0" y="70" font-size="14" fill="#ffffff" font-weight="bold">OPERATIONAL</text>
    </g>

    <!-- ACTIVE USERS -->
    <g transform="translate(330, 100)">
        <text x="0" y="-20" font-size="12" fill="#aaaaaa">CITIZENS</text>
        <text x="0" y="15" font-size="28" fill="#ffffff" font-weight="bold" filter="url(#textGlow)">13,501</text>
        <text x="0" y="35" font-size="10" fill="#777777">VERIFIED HUMANS</text>
    </g>

    <!-- REGISTERED AGENTS -->
    <g transform="translate(530, 100)">
        <text x="0" y="-20" font-size="12" fill="#aaaaaa">AGENTS</text>
        <text x="0" y="15" font-size="28" fill="#00d4ff" font-weight="bold" filter="url(#textGlow)">4,424</text>
        <text x="0" y="35" font-size="10" fill="#777777">REGISTERED DIDs</text>
    </g>

    <!-- TRANSACTIONS -->
    <g transform="translate(730, 100)">
        <text x="0" y="-20" font-size="12" fill="#aaaaaa">TRANSFERS</text>
        <text x="0" y="15" font-size="28" fill="#ffffff" font-weight="bold">34,350</text>
        <text x="0" y="35" font-size="10" fill="#777777">M2M SETTLEMENTS</text>
    </g>
  </g>

  <text x="425" y="185" font-family="'Consolas', 'Fira Code', monospace" font-size="10" fill="#aaaaaa" opacity="0.6" text-anchor="middle">AXIOMID PROJECTED TARGETS (ILLUSTRATIVE): 2026-07-20 02:01:29 UTC // SECURE_HANDSHAKE</text>
</svg>