<svg width="850" height="200" viewBox="0 0 850 200" xmlns="http://www.w3.org/2000/svg">
  <defs>
    <pattern id="carbonFiber" width="10" height="10" patternUnits="userSpaceOnUse">
        <rect width="10" height="10" fill="#050505"/>
        <path d="M0,0 L5,5 L10,0 L5,-5 Z M5,5 L10,10 L15,5 L10,0 Z M-5,5 L0,10 L5,5 L0,0 Z M0,10 L5,15 L10,10 L5,5 Z" fill="#0d0d0d"/>
    </pattern>
    <filter id="textGlow">
      <feGaussianBlur stdDeviation="2" result="blur" />
      <feMerge>
        <feMergeNode in="blur"/>
        <feMergeNode in="SourceGraphic"/>
      </feMerge>
    </filter>
    <linearGradient id="neonBar" x1="0%" y1="0%" x2="100%" y2="0%">
        <stop offset="0%" stop-color="#111111"/>
        <stop offset="100%" stop-color="#39FF14"/>
    </linearGradient>
    <linearGradient id="scanlineGrad" x1="0%" y1="0%" x2="100%" y2="0%">
        <stop offset="0%" stop-color="#39FF14" stop-opacity="0"/>
        <stop offset="50%" stop-color="#39FF14" stop-opacity="0.18"/>
        <stop offset="100%" stop-color="#39FF14" stop-opacity="0"/>
    </linearGradient>
    <clipPath id="dashClip">
        <rect x="0" y="0" width="850" height="200" rx="12"/>
    </clipPath>
  </defs>

  <rect width="100%" height="100%" fill="url(#carbonFiber)" rx="12" stroke="#39FF14" stroke-width="1" stroke-opacity="0.3"/>
  <rect width="100%" height="100%" fill="#000000" opacity="0.6" rx="12" />
  <g><polygon points="125,95 133.6,100 133.6,110 125,115 116.4,110 116.4,100" fill="none" stroke="#39FF14" stroke-width="1" opacity="0.07432943967762269"/>
<polygon points="10,164 18.6,169 18.6,179 10,184 1.4000000000000004,179 1.4000000000000004,169" fill="none" stroke="#39FF14" stroke-width="1" opacity="0.06726103117932476"/>
<polygon points="415,162 423.6,167 423.6,177 415,182 406.4,177 406.4,167" fill="none" stroke="#39FF14" stroke-width="1" opacity="0.06290687182561741"/>
<polygon points="700,95 708.6,100 708.6,110 700,115 691.4,110 691.4,100" fill="none" stroke="#39FF14" stroke-width="1" opacity="0.03729867640171702"/>
<polygon points="653,35 661.6,40 661.6,50 653,55 644.4,50 644.4,40" fill="none" stroke="#39FF14" stroke-width="1" opacity="0.05601480690692083"/>
<polygon points="242,103 250.6,108 250.6,118 242,123 233.4,118 233.4,108" fill="none" stroke="#39FF14" stroke-width="1" opacity="0.06271507301406602"/>
<polygon points="388,41 396.6,46 396.6,56 388,61 379.4,56 379.4,46" fill="none" stroke="#39FF14" stroke-width="1" opacity="0.06922163760975016"/>
<polygon points="768,3 776.6,8 776.6,18 768,23 759.4,18 759.4,8" fill="none" stroke="#39FF14" stroke-width="1" opacity="0.06374633597222329"/>
<polygon points="508,168 516.6,173 516.6,183 508,188 499.4,183 499.4,173" fill="none" stroke="#39FF14" stroke-width="1" opacity="0.03288888438726689"/>
<polygon points="754,93 762.6,98 762.6,108 754,113 745.4,108 745.4,98" fill="none" stroke="#39FF14" stroke-width="1" opacity="0.05818184768245448"/>
<polygon points="762,186 770.6,191 770.6,201 762,206 753.4,201 753.4,191" fill="none" stroke="#39FF14" stroke-width="1" opacity="0.054534735477373544"/>
<polygon points="700,24 708.6,29 708.6,39 700,44 691.4,39 691.4,29" fill="none" stroke="#39FF14" stroke-width="1" opacity="0.06453060031036532"/>
<polygon points="693,35 701.6,40 701.6,50 693,55 684.4,50 684.4,40" fill="none" stroke="#39FF14" stroke-width="1" opacity="0.05416360938865325"/>
<polygon points="23,188 31.6,193 31.6,203 23,208 14.4,203 14.4,193" fill="none" stroke="#39FF14" stroke-width="1" opacity="0.033342197593649134"/>
<polygon points="253,26 261.6,31 261.6,41 253,46 244.4,41 244.4,31" fill="none" stroke="#39FF14" stroke-width="1" opacity="0.03475984665706423"/>
<polygon points="633,164 641.6,169 641.6,179 633,184 624.4,179 624.4,169" fill="none" stroke="#39FF14" stroke-width="1" opacity="0.04897151348674472"/>
<polygon points="693,100 701.6,105 701.6,115 693,120 684.4,115 684.4,105" fill="none" stroke="#39FF14" stroke-width="1" opacity="0.02643395732838226"/>
<polygon points="802,160 810.6,165 810.6,175 802,180 793.4,175 793.4,165" fill="none" stroke="#39FF14" stroke-width="1" opacity="0.0683328136591932"/>
<polygon points="272,153 280.6,158 280.6,168 272,173 263.4,168 263.4,158" fill="none" stroke="#39FF14" stroke-width="1" opacity="0.05653212872808121"/>
<polygon points="499,86 507.6,91 507.6,101 499,106 490.4,101 490.4,91" fill="none" stroke="#39FF14" stroke-width="1" opacity="0.05562866491677598"/>
<polygon points="273,145 281.6,150 281.6,160 273,165 264.4,160 264.4,150" fill="none" stroke="#39FF14" stroke-width="1" opacity="0.026798401438374427"/>
<polygon points="844,81 852.6,86 852.6,96 844,101 835.4,96 835.4,86" fill="none" stroke="#39FF14" stroke-width="1" opacity="0.039467749040307795"/>
<polygon points="240,95 248.6,100 248.6,110 240,115 231.4,110 231.4,100" fill="none" stroke="#39FF14" stroke-width="1" opacity="0.03282966457211442"/>
<polygon points="646,84 654.6,89 654.6,99 646,104 637.4,99 637.4,89" fill="none" stroke="#39FF14" stroke-width="1" opacity="0.044870787527948014"/>
<polygon points="366,167 374.6,172 374.6,182 366,187 357.4,182 357.4,172" fill="none" stroke="#39FF14" stroke-width="1" opacity="0.03531093988467048"/>
<polygon points="387,55 395.6,60 395.6,70 387,75 378.4,70 378.4,60" fill="none" stroke="#39FF14" stroke-width="1" opacity="0.048159319863079475"/>
<polygon points="369,58 377.6,63 377.6,73 369,78 360.4,73 360.4,63" fill="none" stroke="#39FF14" stroke-width="1" opacity="0.0702435008916434"/>
<polygon points="523,174 531.6,179 531.6,189 523,194 514.4,189 514.4,179" fill="none" stroke="#39FF14" stroke-width="1" opacity="0.02366726181312776"/>
<polygon points="731,182 739.6,187 739.6,197 731,202 722.4,197 722.4,187" fill="none" stroke="#39FF14" stroke-width="1" opacity="0.051546961417344425"/>
<polygon points="199,123 207.6,128 207.6,138 199,143 190.4,138 190.4,128" fill="none" stroke="#39FF14" stroke-width="1" opacity="0.04319831052716708"/>
</g>

  <!-- HUD Decorative elements -->
  <path d="M 20 20 L 40 20 L 50 30" fill="none" stroke="#39FF14" stroke-width="2" opacity="0.5"/>
  <path d="M 830 180 L 810 180 L 800 170" fill="none" stroke="#39FF14" stroke-width="2" opacity="0.5"/>

  <g clip-path="url(#dashClip)">
    <rect x="-160" y="0" width="160" height="200" fill="url(#scanlineGrad)">
      <animateTransform attributeName="transform" type="translate"
                        from="0 0" to="1010 0" dur="6s" repeatCount="indefinite"/>
    </rect>
  </g>

  <g font-family="'Consolas', 'Fira Code', monospace" text-anchor="middle">

    <!-- NETWORK STATUS -->
    <g transform="translate(130, 100)">
        <circle cx="0" cy="0" r="45" fill="none" stroke="#39FF14" stroke-width="2" stroke-dasharray="10 5">
            <animateTransform attributeName="transform" type="rotate" from="0" to="360" dur="10s" repeatCount="indefinite"/>
        </circle>
        <circle cx="0" cy="0" r="35" fill="#0d0d0d" />
        <text x="0" y="-60" font-size="12" fill="#aaaaaa" letter-spacing="2">ROOT.AUTH</text>
        <text x="0" y="70" font-size="14" fill="#ffffff" font-weight="bold">OPERATIONAL</text>
    </g>

    <!-- ACTIVE USERS -->
    <g transform="translate(330, 100)">
        <text x="0" y="-20" font-size="12" fill="#aaaaaa">CITIZENS</text>
        <text x="0" y="15" font-size="28" fill="#ffffff" font-weight="bold" filter="url(#textGlow)">14,987</text>
        <text x="0" y="35" font-size="10" fill="#777777">VERIFIED HUMANS</text>
    </g>

    <!-- REGISTERED AGENTS -->
    <g transform="translate(530, 100)">
        <text x="0" y="-20" font-size="12" fill="#aaaaaa">AGENTS</text>
        <text x="0" y="15" font-size="28" fill="#00d4ff" font-weight="bold" filter="url(#textGlow)">3,885</text>
        <text x="0" y="35" font-size="10" fill="#777777">REGISTERED DIDs</text>
    </g>

    <!-- TRANSACTIONS -->
    <g transform="translate(730, 100)">
        <text x="0" y="-20" font-size="12" fill="#aaaaaa">TRANSFERS</text>
        <text x="0" y="15" font-size="28" fill="#ffffff" font-weight="bold">26,047</text>
        <text x="0" y="35" font-size="10" fill="#777777">M2M SETTLEMENTS</text>
    </g>
  </g>

  <text x="425" y="185" font-family="'Consolas', 'Fira Code', monospace" font-size="10" fill="#aaaaaa" opacity="0.6" text-anchor="middle">AXIOMID PROJECTED TARGETS (ILLUSTRATIVE): 2026-07-13 01:50:30 UTC // SECURE_HANDSHAKE</text>
</svg>