<svg width="850" height="200" viewBox="0 0 850 200" xmlns="http://www.w3.org/2000/svg">
  <defs>
    <pattern id="carbonFiber" width="10" height="10" patternUnits="userSpaceOnUse">
        <rect width="10" height="10" fill="#050505"/>
        <path d="M0,0 L5,5 L10,0 L5,-5 Z M5,5 L10,10 L15,5 L10,0 Z M-5,5 L0,10 L5,5 L0,0 Z M0,10 L5,15 L10,10 L5,5 Z" fill="#0d0d0d"/>
    </pattern>
    <filter id="textGlow">
      <feGaussianBlur stdDeviation="2" result="blur" />
      <feMerge>
        <feMergeNode in="blur"/>
        <feMergeNode in="SourceGraphic"/>
      </feMerge>
    </filter>
    <linearGradient id="neonBar" x1="0%" y1="0%" x2="100%" y2="0%">
        <stop offset="0%" stop-color="#111111"/>
        <stop offset="100%" stop-color="#39FF14"/>
    </linearGradient>
    <linearGradient id="scanlineGrad" x1="0%" y1="0%" x2="100%" y2="0%">
        <stop offset="0%" stop-color="#39FF14" stop-opacity="0"/>
        <stop offset="50%" stop-color="#39FF14" stop-opacity="0.18"/>
        <stop offset="100%" stop-color="#39FF14" stop-opacity="0"/>
    </linearGradient>
    <clipPath id="dashClip">
        <rect x="0" y="0" width="850" height="200" rx="12"/>
    </clipPath>
  </defs>

  <rect width="100%" height="100%" fill="url(#carbonFiber)" rx="12" stroke="#39FF14" stroke-width="1" stroke-opacity="0.3"/>
  <rect width="100%" height="100%" fill="#000000" opacity="0.6" rx="12" />
  <g><polygon points="48,82 56.6,87 56.6,97 48,102 39.4,97 39.4,87" fill="none" stroke="#39FF14" stroke-width="1" opacity="0.02759778201280951"/>
<polygon points="670,26 678.6,31 678.6,41 670,46 661.4,41 661.4,31" fill="none" stroke="#39FF14" stroke-width="1" opacity="0.036360779888301956"/>
<polygon points="194,98 202.6,103 202.6,113 194,118 185.4,113 185.4,103" fill="none" stroke="#39FF14" stroke-width="1" opacity="0.07969178614090594"/>
<polygon points="398,21 406.6,26 406.6,36 398,41 389.4,36 389.4,26" fill="none" stroke="#39FF14" stroke-width="1" opacity="0.06811381339263628"/>
<polygon points="584,189 592.6,194 592.6,204 584,209 575.4,204 575.4,194" fill="none" stroke="#39FF14" stroke-width="1" opacity="0.04064017321083506"/>
<polygon points="73,5 81.6,10 81.6,20 73,25 64.4,20 64.4,10" fill="none" stroke="#39FF14" stroke-width="1" opacity="0.0711559625953634"/>
<polygon points="13,116 21.6,121 21.6,131 13,136 4.4,131 4.4,121" fill="none" stroke="#39FF14" stroke-width="1" opacity="0.0645283545411809"/>
<polygon points="697,45 705.6,50 705.6,60 697,65 688.4,60 688.4,50" fill="none" stroke="#39FF14" stroke-width="1" opacity="0.04126716014882924"/>
<polygon points="292,63 300.6,68 300.6,78 292,83 283.4,78 283.4,68" fill="none" stroke="#39FF14" stroke-width="1" opacity="0.06537714828606328"/>
<polygon points="800,181 808.6,186 808.6,196 800,201 791.4,196 791.4,186" fill="none" stroke="#39FF14" stroke-width="1" opacity="0.06116914787151409"/>
<polygon points="412,22 420.6,27 420.6,37 412,42 403.4,37 403.4,27" fill="none" stroke="#39FF14" stroke-width="1" opacity="0.060235947140684865"/>
<polygon points="162,173 170.6,178 170.6,188 162,193 153.4,188 153.4,178" fill="none" stroke="#39FF14" stroke-width="1" opacity="0.0453027658170584"/>
<polygon points="312,146 320.6,151 320.6,161 312,166 303.4,161 303.4,151" fill="none" stroke="#39FF14" stroke-width="1" opacity="0.03214622324148078"/>
<polygon points="490,107 498.6,112 498.6,122 490,127 481.4,122 481.4,112" fill="none" stroke="#39FF14" stroke-width="1" opacity="0.027739161974265115"/>
<polygon points="266,31 274.6,36 274.6,46 266,51 257.4,46 257.4,36" fill="none" stroke="#39FF14" stroke-width="1" opacity="0.03209275099163657"/>
<polygon points="1,124 9.6,129 9.6,139 1,144 -7.6,139 -7.6,129" fill="none" stroke="#39FF14" stroke-width="1" opacity="0.06424910851339892"/>
<polygon points="784,81 792.6,86 792.6,96 784,101 775.4,96 775.4,86" fill="none" stroke="#39FF14" stroke-width="1" opacity="0.06232820402060639"/>
<polygon points="453,87 461.6,92 461.6,102 453,107 444.4,102 444.4,92" fill="none" stroke="#39FF14" stroke-width="1" opacity="0.031977699050770525"/>
<polygon points="49,165 57.6,170 57.6,180 49,185 40.4,180 40.4,170" fill="none" stroke="#39FF14" stroke-width="1" opacity="0.07743020516314769"/>
<polygon points="214,19 222.6,24 222.6,34 214,39 205.4,34 205.4,24" fill="none" stroke="#39FF14" stroke-width="1" opacity="0.044125045199841895"/>
<polygon points="748,188 756.6,193 756.6,203 748,208 739.4,203 739.4,193" fill="none" stroke="#39FF14" stroke-width="1" opacity="0.05674434355978261"/>
<polygon points="381,135 389.6,140 389.6,150 381,155 372.4,150 372.4,140" fill="none" stroke="#39FF14" stroke-width="1" opacity="0.07248693770155352"/>
<polygon points="817,65 825.6,70 825.6,80 817,85 808.4,80 808.4,70" fill="none" stroke="#39FF14" stroke-width="1" opacity="0.04704786266653742"/>
<polygon points="480,-9 488.6,-4 488.6,6 480,11 471.4,6 471.4,-4" fill="none" stroke="#39FF14" stroke-width="1" opacity="0.07687458065854363"/>
<polygon points="505,78 513.6,83 513.6,93 505,98 496.4,93 496.4,83" fill="none" stroke="#39FF14" stroke-width="1" opacity="0.06058458546295925"/>
<polygon points="703,171 711.6,176 711.6,186 703,191 694.4,186 694.4,176" fill="none" stroke="#39FF14" stroke-width="1" opacity="0.06285997791542912"/>
<polygon points="101,168 109.6,173 109.6,183 101,188 92.4,183 92.4,173" fill="none" stroke="#39FF14" stroke-width="1" opacity="0.06610658406994177"/>
<polygon points="542,113 550.6,118 550.6,128 542,133 533.4,128 533.4,118" fill="none" stroke="#39FF14" stroke-width="1" opacity="0.07492413293214822"/>
<polygon points="225,-1 233.6,4 233.6,14 225,19 216.4,14 216.4,4" fill="none" stroke="#39FF14" stroke-width="1" opacity="0.05145028837512951"/>
<polygon points="34,108 42.6,113 42.6,123 34,128 25.4,123 25.4,113" fill="none" stroke="#39FF14" stroke-width="1" opacity="0.05803249653519661"/>
</g>

  <!-- HUD Decorative elements -->
  <path d="M 20 20 L 40 20 L 50 30" fill="none" stroke="#39FF14" stroke-width="2" opacity="0.5"/>
  <path d="M 830 180 L 810 180 L 800 170" fill="none" stroke="#39FF14" stroke-width="2" opacity="0.5"/>

  <g clip-path="url(#dashClip)">
    <rect x="-160" y="0" width="160" height="200" fill="url(#scanlineGrad)">
      <animateTransform attributeName="transform" type="translate"
                        from="0 0" to="1010 0" dur="6s" repeatCount="indefinite"/>
    </rect>
  </g>

  <g font-family="'Consolas', 'Fira Code', monospace" text-anchor="middle">

    <!-- NETWORK STATUS -->
    <g transform="translate(130, 100)">
        <circle cx="0" cy="0" r="45" fill="none" stroke="#39FF14" stroke-width="2" stroke-dasharray="10 5">
            <animateTransform attributeName="transform" type="rotate" from="0" to="360" dur="10s" repeatCount="indefinite"/>
        </circle>
        <circle cx="0" cy="0" r="35" fill="#0d0d0d" />
        <text x="0" y="-60" font-size="12" fill="#aaaaaa" letter-spacing="2">ROOT.AUTH</text>
        <text x="0" y="70" font-size="14" fill="#ffffff" font-weight="bold">OPERATIONAL</text>
    </g>

    <!-- ACTIVE USERS -->
    <g transform="translate(330, 100)">
        <text x="0" y="-20" font-size="12" fill="#aaaaaa">CITIZENS</text>
        <text x="0" y="15" font-size="28" fill="#ffffff" font-weight="bold" filter="url(#textGlow)">14,746</text>
        <text x="0" y="35" font-size="10" fill="#777777">VERIFIED HUMANS</text>
    </g>

    <!-- REGISTERED AGENTS -->
    <g transform="translate(530, 100)">
        <text x="0" y="-20" font-size="12" fill="#aaaaaa">AGENTS</text>
        <text x="0" y="15" font-size="28" fill="#00d4ff" font-weight="bold" filter="url(#textGlow)">3,816</text>
        <text x="0" y="35" font-size="10" fill="#777777">REGISTERED DIDs</text>
    </g>

    <!-- TRANSACTIONS -->
    <g transform="translate(730, 100)">
        <text x="0" y="-20" font-size="12" fill="#aaaaaa">TRANSFERS</text>
        <text x="0" y="15" font-size="28" fill="#ffffff" font-weight="bold">35,897</text>
        <text x="0" y="35" font-size="10" fill="#777777">M2M SETTLEMENTS</text>
    </g>
  </g>

  <text x="425" y="185" font-family="'Consolas', 'Fira Code', monospace" font-size="10" fill="#aaaaaa" opacity="0.6" text-anchor="middle">AXIOMID PROJECTED TARGETS (ILLUSTRATIVE): 2026-06-20 00:31:21 UTC // SECURE_HANDSHAKE</text>
</svg>