<svg width="850" height="200" viewBox="0 0 850 200" xmlns="http://www.w3.org/2000/svg">
  <defs>
    <!-- Carbon Fiber Pattern -->
    <pattern id="carbonFiber" width="10" height="10" patternUnits="userSpaceOnUse">
        <rect width="10" height="10" fill="#050505"/>
        <path d="M0,0 L5,5 L10,0 L5,-5 Z M5,5 L10,10 L15,5 L10,0 Z M-5,5 L0,10 L5,5 L0,0 Z M0,10 L5,15 L10,10 L5,5 Z" fill="#0d0d0d"/>
    </pattern>
    <filter id="glassmorphism">
      <feGaussianBlur stdDeviation="3" result="blur" />
      <feColorMatrix type="matrix" values="1 0 0 0 0  0 1 0 0 0  0 0 1 0 0  0 0 0 18 -7" result="glow" />
      <feBlend in="SourceGraphic" in2="glow" mode="normal" />
    </filter>
    <filter id="textGlow">
      <feGaussianBlur stdDeviation="2" result="blur" />
      <feMerge>
        <feMergeNode in="blur"/>
        <feMergeNode in="SourceGraphic"/>
      </feMerge>
    </filter>
    <linearGradient id="neonBar" x1="0%" y1="0%" x2="100%" y2="0%">
        <stop offset="0%" stop-color="#111111"/>
        <stop offset="100%" stop-color="#39FF14"/>
    </linearGradient>
  </defs>

  <rect width="100%" height="100%" fill="url(#carbonFiber)" rx="12" stroke="#39FF14" stroke-width="1" stroke-opacity="0.3"/>
  <rect width="100%" height="100%" fill="#000000" opacity="0.6" rx="12" />
  <g><polygon points="352,-6 360.6,-1 360.6,9 352,14 343.4,9 343.4,-1" fill="none" stroke="#39FF14" stroke-width="1" opacity="0.06579634754927187"/>
<polygon points="179,90 187.6,95 187.6,105 179,110 170.4,105 170.4,95" fill="none" stroke="#39FF14" stroke-width="1" opacity="0.06067795812920149"/>
<polygon points="488,124 496.6,129 496.6,139 488,144 479.4,139 479.4,129" fill="none" stroke="#39FF14" stroke-width="1" opacity="0.02204511225787027"/>
<polygon points="414,96 422.6,101 422.6,111 414,116 405.4,111 405.4,101" fill="none" stroke="#39FF14" stroke-width="1" opacity="0.06463583050562832"/>
<polygon points="263,-9 271.6,-4 271.6,6 263,11 254.4,6 254.4,-4" fill="none" stroke="#39FF14" stroke-width="1" opacity="0.04355031200965799"/>
<polygon points="316,-6 324.6,-1 324.6,9 316,14 307.4,9 307.4,-1" fill="none" stroke="#39FF14" stroke-width="1" opacity="0.06128507269490745"/>
<polygon points="758,-3 766.6,2 766.6,12 758,17 749.4,12 749.4,2" fill="none" stroke="#39FF14" stroke-width="1" opacity="0.05156931552388698"/>
<polygon points="316,25 324.6,30 324.6,40 316,45 307.4,40 307.4,30" fill="none" stroke="#39FF14" stroke-width="1" opacity="0.050378682920166756"/>
<polygon points="309,135 317.6,140 317.6,150 309,155 300.4,150 300.4,140" fill="none" stroke="#39FF14" stroke-width="1" opacity="0.02242384575428741"/>
<polygon points="798,62 806.6,67 806.6,77 798,82 789.4,77 789.4,67" fill="none" stroke="#39FF14" stroke-width="1" opacity="0.02900131819098445"/>
<polygon points="325,186 333.6,191 333.6,201 325,206 316.4,201 316.4,191" fill="none" stroke="#39FF14" stroke-width="1" opacity="0.023957333402770384"/>
<polygon points="683,-2 691.6,3 691.6,13 683,18 674.4,13 674.4,3" fill="none" stroke="#39FF14" stroke-width="1" opacity="0.04441103211834602"/>
<polygon points="720,0 728.6,5 728.6,15 720,20 711.4,15 711.4,5" fill="none" stroke="#39FF14" stroke-width="1" opacity="0.06874507500272362"/>
<polygon points="575,-6 583.6,-1 583.6,9 575,14 566.4,9 566.4,-1" fill="none" stroke="#39FF14" stroke-width="1" opacity="0.0637069504972932"/>
<polygon points="44,13 52.6,18 52.6,28 44,33 35.4,28 35.4,18" fill="none" stroke="#39FF14" stroke-width="1" opacity="0.029577337094505156"/>
<polygon points="400,1 408.6,6 408.6,16 400,21 391.4,16 391.4,6" fill="none" stroke="#39FF14" stroke-width="1" opacity="0.06655236024417455"/>
<polygon points="67,163 75.6,168 75.6,178 67,183 58.4,178 58.4,168" fill="none" stroke="#39FF14" stroke-width="1" opacity="0.04314873277091906"/>
<polygon points="576,169 584.6,174 584.6,184 576,189 567.4,184 567.4,174" fill="none" stroke="#39FF14" stroke-width="1" opacity="0.03684082319279579"/>
<polygon points="312,179 320.6,184 320.6,194 312,199 303.4,194 303.4,184" fill="none" stroke="#39FF14" stroke-width="1" opacity="0.05479788744165204"/>
<polygon points="716,17 724.6,22 724.6,32 716,37 707.4,32 707.4,22" fill="none" stroke="#39FF14" stroke-width="1" opacity="0.055923248910109"/>
<polygon points="822,174 830.6,179 830.6,189 822,194 813.4,189 813.4,179" fill="none" stroke="#39FF14" stroke-width="1" opacity="0.05531921672933886"/>
<polygon points="9,80 17.6,85 17.6,95 9,100 0.40000000000000036,95 0.40000000000000036,85" fill="none" stroke="#39FF14" stroke-width="1" opacity="0.07733834491033281"/>
<polygon points="615,176 623.6,181 623.6,191 615,196 606.4,191 606.4,181" fill="none" stroke="#39FF14" stroke-width="1" opacity="0.05048513208129672"/>
<polygon points="304,135 312.6,140 312.6,150 304,155 295.4,150 295.4,140" fill="none" stroke="#39FF14" stroke-width="1" opacity="0.07629983140002362"/>
<polygon points="738,74 746.6,79 746.6,89 738,94 729.4,89 729.4,79" fill="none" stroke="#39FF14" stroke-width="1" opacity="0.047192595685110805"/>
<polygon points="568,108 576.6,113 576.6,123 568,128 559.4,123 559.4,113" fill="none" stroke="#39FF14" stroke-width="1" opacity="0.05695189856570691"/>
<polygon points="598,84 606.6,89 606.6,99 598,104 589.4,99 589.4,89" fill="none" stroke="#39FF14" stroke-width="1" opacity="0.07311612587655468"/>
<polygon points="808,46 816.6,51 816.6,61 808,66 799.4,61 799.4,51" fill="none" stroke="#39FF14" stroke-width="1" opacity="0.03367304180539159"/>
<polygon points="181,48 189.6,53 189.6,63 181,68 172.4,63 172.4,53" fill="none" stroke="#39FF14" stroke-width="1" opacity="0.0396473620815458"/>
<polygon points="132,136 140.6,141 140.6,151 132,156 123.4,151 123.4,141" fill="none" stroke="#39FF14" stroke-width="1" opacity="0.040024847045182714"/>
</g>

  <!-- HUD Decorative elements -->
  <path d="M 20 20 L 40 20 L 50 30" fill="none" stroke="#39FF14" stroke-width="2" opacity="0.5"/>
  <path d="M 830 180 L 810 180 L 800 170" fill="none" stroke="#39FF14" stroke-width="2" opacity="0.5"/>
  <rect x="20" y="100" width="2" height="40" fill="#ffffff" opacity="0.4"/>
  <rect x="828" y="60" width="2" height="40" fill="#39FF14" opacity="0.6"/>

  <g font-family="'Consolas', 'Fira Code', monospace" text-anchor="middle">

    <!-- SYSTEM STATUS -->
    <g transform="translate(130, 100)">
        <circle cx="0" cy="0" r="45" fill="none" stroke="#111111" stroke-width="8" />
        <circle cx="0" cy="0" r="45" fill="none" stroke="#39FF14" stroke-width="2" stroke-dasharray="10 5">
            <animateTransform attributeName="transform" type="rotate" from="0" to="360" dur="10s" repeatCount="indefinite"/>
        </circle>
        <circle cx="0" cy="0" r="35" fill="#0d0d0d" />
        <circle cx="0" cy="0" r="6" fill="#39FF14" filter="url(#textGlow)">
            <animate attributeName="opacity" values="1;0.3;1" dur="2s" repeatCount="indefinite"/>
        </circle>
        <text x="0" y="-60" font-size="12" fill="#aaaaaa" letter-spacing="2">SYS.CORE</text>
        <text x="0" y="70" font-size="14" fill="#ffffff" font-weight="bold">ONLINE</text>
    </g>

    <!-- LIVE TRAFFIC -->
    <g transform="translate(330, 100)">
        <rect x="-60" y="-45" width="120" height="90" fill="#0a0a0a" rx="8" stroke="#39FF14" stroke-opacity="0.4" stroke-width="1"/>
        <text x="0" y="-20" font-size="12" fill="#aaaaaa">NETWORK LOAD</text>
        <text x="0" y="15" font-size="28" fill="#ffffff" font-weight="bold" filter="url(#textGlow)">6683</text>
        <text x="0" y="35" font-size="10" fill="#777777">ACTIVE SESSIONS</text>
    </g>

    <!-- ACTIVE AGENTS -->
    <g transform="translate(530, 100)">
        <rect x="-60" y="-45" width="120" height="90" fill="#0a0a0a" rx="8" stroke="#39FF14" stroke-opacity="0.4" stroke-width="1"/>
        <text x="0" y="-20" font-size="12" fill="#aaaaaa">SWARM ENTITIES</text>
        <text x="0" y="15" font-size="28" fill="#ffffff" font-weight="bold" filter="url(#textGlow)">146</text>
        <text x="0" y="35" font-size="10" fill="#777777">AUTONOMOUS</text>
    </g>

    <!-- UPTIME -->
    <g transform="translate(730, 100)">
        <path d="M -40 -35 L 40 -35 L 50 -25 L 50 35 L -40 35 L -50 25 Z" fill="#0a0a0a" stroke="#39FF14" stroke-opacity="0.4" stroke-width="1"/>
        <text x="0" y="-15" font-size="12" fill="#aaaaaa">CONTINUITY</text>
        <text x="0" y="15" font-size="24" fill="#ffffff" font-weight="bold">293<tspan font-size="14" fill="#777777">d</tspan></text>
        <rect x="-35" y="25" width="70" height="4" fill="url(#neonBar)" rx="2"/>
    </g>
  </g>

  <text x="425" y="185" font-family="'Consolas', 'Fira Code', monospace" font-size="10" fill="#aaaaaa" opacity="0.6" text-anchor="middle">LAST TELEMETRY PING: 2026-05-08 00:50:35 UTC // ENCRYPTED_TUNNEL</text>
</svg>