<svg width="850" height="200" viewBox="0 0 850 200" xmlns="http://www.w3.org/2000/svg">
  <defs>
    <pattern id="carbonFiber" width="10" height="10" patternUnits="userSpaceOnUse">
        <rect width="10" height="10" fill="#050505"/>
        <path d="M0,0 L5,5 L10,0 L5,-5 Z M5,5 L10,10 L15,5 L10,0 Z M-5,5 L0,10 L5,5 L0,0 Z M0,10 L5,15 L10,10 L5,5 Z" fill="#0d0d0d"/>
    </pattern>
    <filter id="textGlow">
      <feGaussianBlur stdDeviation="2" result="blur" />
      <feMerge>
        <feMergeNode in="blur"/>
        <feMergeNode in="SourceGraphic"/>
      </feMerge>
    </filter>
    <linearGradient id="neonBar" x1="0%" y1="0%" x2="100%" y2="0%">
        <stop offset="0%" stop-color="#111111"/>
        <stop offset="100%" stop-color="#39FF14"/>
    </linearGradient>
    <linearGradient id="scanlineGrad" x1="0%" y1="0%" x2="100%" y2="0%">
        <stop offset="0%" stop-color="#39FF14" stop-opacity="0"/>
        <stop offset="50%" stop-color="#39FF14" stop-opacity="0.18"/>
        <stop offset="100%" stop-color="#39FF14" stop-opacity="0"/>
    </linearGradient>
    <clipPath id="dashClip">
        <rect x="0" y="0" width="850" height="200" rx="12"/>
    </clipPath>
  </defs>

  <rect width="100%" height="100%" fill="url(#carbonFiber)" rx="12" stroke="#39FF14" stroke-width="1" stroke-opacity="0.3"/>
  <rect width="100%" height="100%" fill="#000000" opacity="0.6" rx="12" />
  <g><polygon points="347,23 355.6,28 355.6,38 347,43 338.4,38 338.4,28" fill="none" stroke="#39FF14" stroke-width="1" opacity="0.06128185262988488"/>
<polygon points="703,19 711.6,24 711.6,34 703,39 694.4,34 694.4,24" fill="none" stroke="#39FF14" stroke-width="1" opacity="0.05559707271619528"/>
<polygon points="55,101 63.6,106 63.6,116 55,121 46.4,116 46.4,106" fill="none" stroke="#39FF14" stroke-width="1" opacity="0.04523178675549697"/>
<polygon points="246,29 254.6,34 254.6,44 246,49 237.4,44 237.4,34" fill="none" stroke="#39FF14" stroke-width="1" opacity="0.029660584413355524"/>
<polygon points="583,173 591.6,178 591.6,188 583,193 574.4,188 574.4,178" fill="none" stroke="#39FF14" stroke-width="1" opacity="0.06610262935569472"/>
<polygon points="189,-4 197.6,1 197.6,11 189,16 180.4,11 180.4,1" fill="none" stroke="#39FF14" stroke-width="1" opacity="0.022640484435394636"/>
<polygon points="474,57 482.6,62 482.6,72 474,77 465.4,72 465.4,62" fill="none" stroke="#39FF14" stroke-width="1" opacity="0.0596518556620067"/>
<polygon points="100,115 108.6,120 108.6,130 100,135 91.4,130 91.4,120" fill="none" stroke="#39FF14" stroke-width="1" opacity="0.03168632897096692"/>
<polygon points="162,58 170.6,63 170.6,73 162,78 153.4,73 153.4,63" fill="none" stroke="#39FF14" stroke-width="1" opacity="0.07480945458225066"/>
<polygon points="199,-9 207.6,-4 207.6,6 199,11 190.4,6 190.4,-4" fill="none" stroke="#39FF14" stroke-width="1" opacity="0.028966305471319398"/>
<polygon points="267,49 275.6,54 275.6,64 267,69 258.4,64 258.4,54" fill="none" stroke="#39FF14" stroke-width="1" opacity="0.0470746230748527"/>
<polygon points="776,51 784.6,56 784.6,66 776,71 767.4,66 767.4,56" fill="none" stroke="#39FF14" stroke-width="1" opacity="0.060776387981101646"/>
<polygon points="169,190 177.6,195 177.6,205 169,210 160.4,205 160.4,195" fill="none" stroke="#39FF14" stroke-width="1" opacity="0.07154670957186117"/>
<polygon points="659,182 667.6,187 667.6,197 659,202 650.4,197 650.4,187" fill="none" stroke="#39FF14" stroke-width="1" opacity="0.07148490873521307"/>
<polygon points="128,153 136.6,158 136.6,168 128,173 119.4,168 119.4,158" fill="none" stroke="#39FF14" stroke-width="1" opacity="0.07058486440874277"/>
<polygon points="287,106 295.6,111 295.6,121 287,126 278.4,121 278.4,111" fill="none" stroke="#39FF14" stroke-width="1" opacity="0.05515852333600445"/>
<polygon points="433,102 441.6,107 441.6,117 433,122 424.4,117 424.4,107" fill="none" stroke="#39FF14" stroke-width="1" opacity="0.05821178277795587"/>
<polygon points="231,7 239.6,12 239.6,22 231,27 222.4,22 222.4,12" fill="none" stroke="#39FF14" stroke-width="1" opacity="0.05410360276544797"/>
<polygon points="510,85 518.6,90 518.6,100 510,105 501.4,100 501.4,90" fill="none" stroke="#39FF14" stroke-width="1" opacity="0.07351123458761784"/>
<polygon points="50,87 58.6,92 58.6,102 50,107 41.4,102 41.4,92" fill="none" stroke="#39FF14" stroke-width="1" opacity="0.052248848833926484"/>
<polygon points="836,155 844.6,160 844.6,170 836,175 827.4,170 827.4,160" fill="none" stroke="#39FF14" stroke-width="1" opacity="0.04433473858431584"/>
<polygon points="542,86 550.6,91 550.6,101 542,106 533.4,101 533.4,91" fill="none" stroke="#39FF14" stroke-width="1" opacity="0.03827889378887888"/>
<polygon points="275,184 283.6,189 283.6,199 275,204 266.4,199 266.4,189" fill="none" stroke="#39FF14" stroke-width="1" opacity="0.04773055505624297"/>
<polygon points="359,27 367.6,32 367.6,42 359,47 350.4,42 350.4,32" fill="none" stroke="#39FF14" stroke-width="1" opacity="0.02483137627930684"/>
<polygon points="98,185 106.6,190 106.6,200 98,205 89.4,200 89.4,190" fill="none" stroke="#39FF14" stroke-width="1" opacity="0.0335307666253406"/>
<polygon points="181,11 189.6,16 189.6,26 181,31 172.4,26 172.4,16" fill="none" stroke="#39FF14" stroke-width="1" opacity="0.04208383639881401"/>
<polygon points="715,11 723.6,16 723.6,26 715,31 706.4,26 706.4,16" fill="none" stroke="#39FF14" stroke-width="1" opacity="0.052031673855965646"/>
<polygon points="663,130 671.6,135 671.6,145 663,150 654.4,145 654.4,135" fill="none" stroke="#39FF14" stroke-width="1" opacity="0.041501333230810025"/>
<polygon points="419,127 427.6,132 427.6,142 419,147 410.4,142 410.4,132" fill="none" stroke="#39FF14" stroke-width="1" opacity="0.059712871037840926"/>
<polygon points="752,67 760.6,72 760.6,82 752,87 743.4,82 743.4,72" fill="none" stroke="#39FF14" stroke-width="1" opacity="0.07548650202263454"/>
</g>

  <!-- HUD Decorative elements -->
  <path d="M 20 20 L 40 20 L 50 30" fill="none" stroke="#39FF14" stroke-width="2" opacity="0.5"/>
  <path d="M 830 180 L 810 180 L 800 170" fill="none" stroke="#39FF14" stroke-width="2" opacity="0.5"/>

  <g clip-path="url(#dashClip)">
    <rect x="-160" y="0" width="160" height="200" fill="url(#scanlineGrad)">
      <animateTransform attributeName="transform" type="translate"
                        from="0 0" to="1010 0" dur="6s" repeatCount="indefinite"/>
    </rect>
  </g>

  <g font-family="'Consolas', 'Fira Code', monospace" text-anchor="middle">

    <!-- NETWORK STATUS -->
    <g transform="translate(130, 100)">
        <circle cx="0" cy="0" r="45" fill="none" stroke="#39FF14" stroke-width="2" stroke-dasharray="10 5">
            <animateTransform attributeName="transform" type="rotate" from="0" to="360" dur="10s" repeatCount="indefinite"/>
        </circle>
        <circle cx="0" cy="0" r="35" fill="#0d0d0d" />
        <text x="0" y="-60" font-size="12" fill="#aaaaaa" letter-spacing="2">ROOT.AUTH</text>
        <text x="0" y="70" font-size="14" fill="#ffffff" font-weight="bold">OPERATIONAL</text>
    </g>

    <!-- ACTIVE USERS -->
    <g transform="translate(330, 100)">
        <text x="0" y="-20" font-size="12" fill="#aaaaaa">CITIZENS</text>
        <text x="0" y="15" font-size="28" fill="#ffffff" font-weight="bold" filter="url(#textGlow)">14,223</text>
        <text x="0" y="35" font-size="10" fill="#777777">VERIFIED HUMANS</text>
    </g>

    <!-- REGISTERED AGENTS -->
    <g transform="translate(530, 100)">
        <text x="0" y="-20" font-size="12" fill="#aaaaaa">AGENTS</text>
        <text x="0" y="15" font-size="28" fill="#00d4ff" font-weight="bold" filter="url(#textGlow)">3,832</text>
        <text x="0" y="35" font-size="10" fill="#777777">REGISTERED DIDs</text>
    </g>

    <!-- TRANSACTIONS -->
    <g transform="translate(730, 100)">
        <text x="0" y="-20" font-size="12" fill="#aaaaaa">TRANSFERS</text>
        <text x="0" y="15" font-size="28" fill="#ffffff" font-weight="bold">41,224</text>
        <text x="0" y="35" font-size="10" fill="#777777">M2M SETTLEMENTS</text>
    </g>
  </g>

  <text x="425" y="185" font-family="'Consolas', 'Fira Code', monospace" font-size="10" fill="#aaaaaa" opacity="0.6" text-anchor="middle">AXIOMID PROJECTED TARGETS (ILLUSTRATIVE): 2026-07-07 19:41:18 UTC // SECURE_HANDSHAKE</text>
</svg>