<svg width="850" height="200" viewBox="0 0 850 200" xmlns="http://www.w3.org/2000/svg">
  <defs>
    <pattern id="carbonFiber" width="10" height="10" patternUnits="userSpaceOnUse">
        <rect width="10" height="10" fill="#050505"/>
        <path d="M0,0 L5,5 L10,0 L5,-5 Z M5,5 L10,10 L15,5 L10,0 Z M-5,5 L0,10 L5,5 L0,0 Z M0,10 L5,15 L10,10 L5,5 Z" fill="#0d0d0d"/>
    </pattern>
    <filter id="textGlow">
      <feGaussianBlur stdDeviation="2" result="blur" />
      <feMerge>
        <feMergeNode in="blur"/>
        <feMergeNode in="SourceGraphic"/>
      </feMerge>
    </filter>
    <linearGradient id="neonBar" x1="0%" y1="0%" x2="100%" y2="0%">
        <stop offset="0%" stop-color="#111111"/>
        <stop offset="100%" stop-color="#39FF14"/>
    </linearGradient>
    <linearGradient id="scanlineGrad" x1="0%" y1="0%" x2="100%" y2="0%">
        <stop offset="0%" stop-color="#39FF14" stop-opacity="0"/>
        <stop offset="50%" stop-color="#39FF14" stop-opacity="0.18"/>
        <stop offset="100%" stop-color="#39FF14" stop-opacity="0"/>
    </linearGradient>
    <clipPath id="dashClip">
        <rect x="0" y="0" width="850" height="200" rx="12"/>
    </clipPath>
  </defs>

  <rect width="100%" height="100%" fill="url(#carbonFiber)" rx="12" stroke="#39FF14" stroke-width="1" stroke-opacity="0.3"/>
  <rect width="100%" height="100%" fill="#000000" opacity="0.6" rx="12" />
  <g><polygon points="611,110 619.6,115 619.6,125 611,130 602.4,125 602.4,115" fill="none" stroke="#39FF14" stroke-width="1" opacity="0.023610824619247663"/>
<polygon points="22,174 30.6,179 30.6,189 22,194 13.4,189 13.4,179" fill="none" stroke="#39FF14" stroke-width="1" opacity="0.027358254670973477"/>
<polygon points="64,7 72.6,12 72.6,22 64,27 55.4,22 55.4,12" fill="none" stroke="#39FF14" stroke-width="1" opacity="0.05344371118290189"/>
<polygon points="36,159 44.6,164 44.6,174 36,179 27.4,174 27.4,164" fill="none" stroke="#39FF14" stroke-width="1" opacity="0.02746887053522204"/>
<polygon points="165,93 173.6,98 173.6,108 165,113 156.4,108 156.4,98" fill="none" stroke="#39FF14" stroke-width="1" opacity="0.042887391119019944"/>
<polygon points="250,154 258.6,159 258.6,169 250,174 241.4,169 241.4,159" fill="none" stroke="#39FF14" stroke-width="1" opacity="0.035350439297068534"/>
<polygon points="446,143 454.6,148 454.6,158 446,163 437.4,158 437.4,148" fill="none" stroke="#39FF14" stroke-width="1" opacity="0.029760352238826816"/>
<polygon points="346,116 354.6,121 354.6,131 346,136 337.4,131 337.4,121" fill="none" stroke="#39FF14" stroke-width="1" opacity="0.04416854842906068"/>
<polygon points="266,26 274.6,31 274.6,41 266,46 257.4,41 257.4,31" fill="none" stroke="#39FF14" stroke-width="1" opacity="0.04349711767350884"/>
<polygon points="474,102 482.6,107 482.6,117 474,122 465.4,117 465.4,107" fill="none" stroke="#39FF14" stroke-width="1" opacity="0.060118610304180004"/>
<polygon points="586,6 594.6,11 594.6,21 586,26 577.4,21 577.4,11" fill="none" stroke="#39FF14" stroke-width="1" opacity="0.0279077400841256"/>
<polygon points="248,38 256.6,43 256.6,53 248,58 239.4,53 239.4,43" fill="none" stroke="#39FF14" stroke-width="1" opacity="0.025441386139970972"/>
<polygon points="623,150 631.6,155 631.6,165 623,170 614.4,165 614.4,155" fill="none" stroke="#39FF14" stroke-width="1" opacity="0.05380005682511485"/>
<polygon points="783,29 791.6,34 791.6,44 783,49 774.4,44 774.4,34" fill="none" stroke="#39FF14" stroke-width="1" opacity="0.07682745553708283"/>
<polygon points="752,158 760.6,163 760.6,173 752,178 743.4,173 743.4,163" fill="none" stroke="#39FF14" stroke-width="1" opacity="0.03990980514016465"/>
<polygon points="751,33 759.6,38 759.6,48 751,53 742.4,48 742.4,38" fill="none" stroke="#39FF14" stroke-width="1" opacity="0.07343476882872595"/>
<polygon points="798,60 806.6,65 806.6,75 798,80 789.4,75 789.4,65" fill="none" stroke="#39FF14" stroke-width="1" opacity="0.059724724946187954"/>
<polygon points="305,45 313.6,50 313.6,60 305,65 296.4,60 296.4,50" fill="none" stroke="#39FF14" stroke-width="1" opacity="0.035026285737786045"/>
<polygon points="93,114 101.6,119 101.6,129 93,134 84.4,129 84.4,119" fill="none" stroke="#39FF14" stroke-width="1" opacity="0.04945731811729867"/>
<polygon points="157,150 165.6,155 165.6,165 157,170 148.4,165 148.4,155" fill="none" stroke="#39FF14" stroke-width="1" opacity="0.04805326502935971"/>
<polygon points="260,83 268.6,88 268.6,98 260,103 251.4,98 251.4,88" fill="none" stroke="#39FF14" stroke-width="1" opacity="0.07347549260479393"/>
<polygon points="291,60 299.6,65 299.6,75 291,80 282.4,75 282.4,65" fill="none" stroke="#39FF14" stroke-width="1" opacity="0.020480770873245673"/>
<polygon points="705,-2 713.6,3 713.6,13 705,18 696.4,13 696.4,3" fill="none" stroke="#39FF14" stroke-width="1" opacity="0.044677548738062935"/>
<polygon points="842,167 850.6,172 850.6,182 842,187 833.4,182 833.4,172" fill="none" stroke="#39FF14" stroke-width="1" opacity="0.03477204303269882"/>
<polygon points="61,104 69.6,109 69.6,119 61,124 52.4,119 52.4,109" fill="none" stroke="#39FF14" stroke-width="1" opacity="0.07284986726479378"/>
<polygon points="168,146 176.6,151 176.6,161 168,166 159.4,161 159.4,151" fill="none" stroke="#39FF14" stroke-width="1" opacity="0.03119797586753016"/>
<polygon points="247,16 255.6,21 255.6,31 247,36 238.4,31 238.4,21" fill="none" stroke="#39FF14" stroke-width="1" opacity="0.07013403496258404"/>
<polygon points="765,133 773.6,138 773.6,148 765,153 756.4,148 756.4,138" fill="none" stroke="#39FF14" stroke-width="1" opacity="0.02144779086081896"/>
<polygon points="840,169 848.6,174 848.6,184 840,189 831.4,184 831.4,174" fill="none" stroke="#39FF14" stroke-width="1" opacity="0.07742828353324453"/>
<polygon points="846,81 854.6,86 854.6,96 846,101 837.4,96 837.4,86" fill="none" stroke="#39FF14" stroke-width="1" opacity="0.05089091857144601"/>
</g>

  <!-- HUD Decorative elements -->
  <path d="M 20 20 L 40 20 L 50 30" fill="none" stroke="#39FF14" stroke-width="2" opacity="0.5"/>
  <path d="M 830 180 L 810 180 L 800 170" fill="none" stroke="#39FF14" stroke-width="2" opacity="0.5"/>

  <g clip-path="url(#dashClip)">
    <rect x="-160" y="0" width="160" height="200" fill="url(#scanlineGrad)">
      <animateTransform attributeName="transform" type="translate"
                        from="0 0" to="1010 0" dur="6s" repeatCount="indefinite"/>
    </rect>
  </g>

  <g font-family="'Consolas', 'Fira Code', monospace" text-anchor="middle">

    <!-- NETWORK STATUS -->
    <g transform="translate(130, 100)">
        <circle cx="0" cy="0" r="45" fill="none" stroke="#39FF14" stroke-width="2" stroke-dasharray="10 5">
            <animateTransform attributeName="transform" type="rotate" from="0" to="360" dur="10s" repeatCount="indefinite"/>
        </circle>
        <circle cx="0" cy="0" r="35" fill="#0d0d0d" />
        <text x="0" y="-60" font-size="12" fill="#aaaaaa" letter-spacing="2">ROOT.AUTH</text>
        <text x="0" y="70" font-size="14" fill="#ffffff" font-weight="bold">OPERATIONAL</text>
    </g>

    <!-- ACTIVE USERS -->
    <g transform="translate(330, 100)">
        <text x="0" y="-20" font-size="12" fill="#aaaaaa">CITIZENS</text>
        <text x="0" y="15" font-size="28" fill="#ffffff" font-weight="bold" filter="url(#textGlow)">13,061</text>
        <text x="0" y="35" font-size="10" fill="#777777">VERIFIED HUMANS</text>
    </g>

    <!-- REGISTERED AGENTS -->
    <g transform="translate(530, 100)">
        <text x="0" y="-20" font-size="12" fill="#aaaaaa">AGENTS</text>
        <text x="0" y="15" font-size="28" fill="#00d4ff" font-weight="bold" filter="url(#textGlow)">3,243</text>
        <text x="0" y="35" font-size="10" fill="#777777">REGISTERED DIDs</text>
    </g>

    <!-- TRANSACTIONS -->
    <g transform="translate(730, 100)">
        <text x="0" y="-20" font-size="12" fill="#aaaaaa">TRANSFERS</text>
        <text x="0" y="15" font-size="28" fill="#ffffff" font-weight="bold">39,032</text>
        <text x="0" y="35" font-size="10" fill="#777777">M2M SETTLEMENTS</text>
    </g>
  </g>

  <text x="425" y="185" font-family="'Consolas', 'Fira Code', monospace" font-size="10" fill="#aaaaaa" opacity="0.6" text-anchor="middle">AXIOMID PROJECTED TARGETS (ILLUSTRATIVE): 2026-07-16 18:55:30 UTC // SECURE_HANDSHAKE</text>
</svg>