<svg width="850" height="200" viewBox="0 0 850 200" xmlns="http://www.w3.org/2000/svg">
  <defs>
    <pattern id="carbonFiber" width="10" height="10" patternUnits="userSpaceOnUse">
        <rect width="10" height="10" fill="#050505"/>
        <path d="M0,0 L5,5 L10,0 L5,-5 Z M5,5 L10,10 L15,5 L10,0 Z M-5,5 L0,10 L5,5 L0,0 Z M0,10 L5,15 L10,10 L5,5 Z" fill="#0d0d0d"/>
    </pattern>
    <filter id="textGlow">
      <feGaussianBlur stdDeviation="2" result="blur" />
      <feMerge>
        <feMergeNode in="blur"/>
        <feMergeNode in="SourceGraphic"/>
      </feMerge>
    </filter>
    <linearGradient id="neonBar" x1="0%" y1="0%" x2="100%" y2="0%">
        <stop offset="0%" stop-color="#111111"/>
        <stop offset="100%" stop-color="#39FF14"/>
    </linearGradient>
    <linearGradient id="scanlineGrad" x1="0%" y1="0%" x2="100%" y2="0%">
        <stop offset="0%" stop-color="#39FF14" stop-opacity="0"/>
        <stop offset="50%" stop-color="#39FF14" stop-opacity="0.18"/>
        <stop offset="100%" stop-color="#39FF14" stop-opacity="0"/>
    </linearGradient>
    <clipPath id="dashClip">
        <rect x="0" y="0" width="850" height="200" rx="12"/>
    </clipPath>
  </defs>

  <rect width="100%" height="100%" fill="url(#carbonFiber)" rx="12" stroke="#39FF14" stroke-width="1" stroke-opacity="0.3"/>
  <rect width="100%" height="100%" fill="#000000" opacity="0.6" rx="12" />
  <g><polygon points="787,177 795.6,182 795.6,192 787,197 778.4,192 778.4,182" fill="none" stroke="#39FF14" stroke-width="1" opacity="0.026834965621881236"/>
<polygon points="317,10 325.6,15 325.6,25 317,30 308.4,25 308.4,15" fill="none" stroke="#39FF14" stroke-width="1" opacity="0.06107733502329531"/>
<polygon points="776,53 784.6,58 784.6,68 776,73 767.4,68 767.4,58" fill="none" stroke="#39FF14" stroke-width="1" opacity="0.052437019440458005"/>
<polygon points="434,125 442.6,130 442.6,140 434,145 425.4,140 425.4,130" fill="none" stroke="#39FF14" stroke-width="1" opacity="0.04600030410935661"/>
<polygon points="109,147 117.6,152 117.6,162 109,167 100.4,162 100.4,152" fill="none" stroke="#39FF14" stroke-width="1" opacity="0.07599059343001154"/>
<polygon points="545,65 553.6,70 553.6,80 545,85 536.4,80 536.4,70" fill="none" stroke="#39FF14" stroke-width="1" opacity="0.04033433898325191"/>
<polygon points="158,62 166.6,67 166.6,77 158,82 149.4,77 149.4,67" fill="none" stroke="#39FF14" stroke-width="1" opacity="0.04720085286029263"/>
<polygon points="291,157 299.6,162 299.6,172 291,177 282.4,172 282.4,162" fill="none" stroke="#39FF14" stroke-width="1" opacity="0.024877396763874737"/>
<polygon points="399,36 407.6,41 407.6,51 399,56 390.4,51 390.4,41" fill="none" stroke="#39FF14" stroke-width="1" opacity="0.05843039434959166"/>
<polygon points="198,65 206.6,70 206.6,80 198,85 189.4,80 189.4,70" fill="none" stroke="#39FF14" stroke-width="1" opacity="0.0703361899078228"/>
<polygon points="645,127 653.6,132 653.6,142 645,147 636.4,142 636.4,132" fill="none" stroke="#39FF14" stroke-width="1" opacity="0.029322635383284"/>
<polygon points="743,28 751.6,33 751.6,43 743,48 734.4,43 734.4,33" fill="none" stroke="#39FF14" stroke-width="1" opacity="0.053508986834427424"/>
<polygon points="287,188 295.6,193 295.6,203 287,208 278.4,203 278.4,193" fill="none" stroke="#39FF14" stroke-width="1" opacity="0.05248584641471127"/>
<polygon points="86,22 94.6,27 94.6,37 86,42 77.4,37 77.4,27" fill="none" stroke="#39FF14" stroke-width="1" opacity="0.05033501302426162"/>
<polygon points="426,99 434.6,104 434.6,114 426,119 417.4,114 417.4,104" fill="none" stroke="#39FF14" stroke-width="1" opacity="0.0231267627413177"/>
<polygon points="714,82 722.6,87 722.6,97 714,102 705.4,97 705.4,87" fill="none" stroke="#39FF14" stroke-width="1" opacity="0.060925464047327765"/>
<polygon points="373,17 381.6,22 381.6,32 373,37 364.4,32 364.4,22" fill="none" stroke="#39FF14" stroke-width="1" opacity="0.05336603152630556"/>
<polygon points="502,24 510.6,29 510.6,39 502,44 493.4,39 493.4,29" fill="none" stroke="#39FF14" stroke-width="1" opacity="0.0591535826846316"/>
<polygon points="495,88 503.6,93 503.6,103 495,108 486.4,103 486.4,93" fill="none" stroke="#39FF14" stroke-width="1" opacity="0.071312389295318"/>
<polygon points="382,46 390.6,51 390.6,61 382,66 373.4,61 373.4,51" fill="none" stroke="#39FF14" stroke-width="1" opacity="0.07809528953403129"/>
<polygon points="420,158 428.6,163 428.6,173 420,178 411.4,173 411.4,163" fill="none" stroke="#39FF14" stroke-width="1" opacity="0.02411005748312817"/>
<polygon points="503,152 511.6,157 511.6,167 503,172 494.4,167 494.4,157" fill="none" stroke="#39FF14" stroke-width="1" opacity="0.0365855160437215"/>
<polygon points="381,74 389.6,79 389.6,89 381,94 372.4,89 372.4,79" fill="none" stroke="#39FF14" stroke-width="1" opacity="0.05500312469023384"/>
<polygon points="226,184 234.6,189 234.6,199 226,204 217.4,199 217.4,189" fill="none" stroke="#39FF14" stroke-width="1" opacity="0.056244946915877475"/>
<polygon points="246,135 254.6,140 254.6,150 246,155 237.4,150 237.4,140" fill="none" stroke="#39FF14" stroke-width="1" opacity="0.07160506086065085"/>
<polygon points="340,12 348.6,17 348.6,27 340,32 331.4,27 331.4,17" fill="none" stroke="#39FF14" stroke-width="1" opacity="0.03827969703847623"/>
<polygon points="545,109 553.6,114 553.6,124 545,129 536.4,124 536.4,114" fill="none" stroke="#39FF14" stroke-width="1" opacity="0.0371301505297183"/>
<polygon points="339,97 347.6,102 347.6,112 339,117 330.4,112 330.4,102" fill="none" stroke="#39FF14" stroke-width="1" opacity="0.04030572151037841"/>
<polygon points="125,66 133.6,71 133.6,81 125,86 116.4,81 116.4,71" fill="none" stroke="#39FF14" stroke-width="1" opacity="0.06932289900396844"/>
<polygon points="675,176 683.6,181 683.6,191 675,196 666.4,191 666.4,181" fill="none" stroke="#39FF14" stroke-width="1" opacity="0.0518879970176032"/>
</g>

  <!-- HUD Decorative elements -->
  <path d="M 20 20 L 40 20 L 50 30" fill="none" stroke="#39FF14" stroke-width="2" opacity="0.5"/>
  <path d="M 830 180 L 810 180 L 800 170" fill="none" stroke="#39FF14" stroke-width="2" opacity="0.5"/>

  <g clip-path="url(#dashClip)">
    <rect x="-160" y="0" width="160" height="200" fill="url(#scanlineGrad)">
      <animateTransform attributeName="transform" type="translate"
                        from="0 0" to="1010 0" dur="6s" repeatCount="indefinite"/>
    </rect>
  </g>

  <g font-family="'Consolas', 'Fira Code', monospace" text-anchor="middle">

    <!-- NETWORK STATUS -->
    <g transform="translate(130, 100)">
        <circle cx="0" cy="0" r="45" fill="none" stroke="#39FF14" stroke-width="2" stroke-dasharray="10 5">
            <animateTransform attributeName="transform" type="rotate" from="0" to="360" dur="10s" repeatCount="indefinite"/>
        </circle>
        <circle cx="0" cy="0" r="35" fill="#0d0d0d" />
        <text x="0" y="-60" font-size="12" fill="#aaaaaa" letter-spacing="2">ROOT.AUTH</text>
        <text x="0" y="70" font-size="14" fill="#ffffff" font-weight="bold">OPERATIONAL</text>
    </g>

    <!-- ACTIVE USERS -->
    <g transform="translate(330, 100)">
        <text x="0" y="-20" font-size="12" fill="#aaaaaa">CITIZENS</text>
        <text x="0" y="15" font-size="28" fill="#ffffff" font-weight="bold" filter="url(#textGlow)">15,085</text>
        <text x="0" y="35" font-size="10" fill="#777777">VERIFIED HUMANS</text>
    </g>

    <!-- REGISTERED AGENTS -->
    <g transform="translate(530, 100)">
        <text x="0" y="-20" font-size="12" fill="#aaaaaa">AGENTS</text>
        <text x="0" y="15" font-size="28" fill="#00d4ff" font-weight="bold" filter="url(#textGlow)">4,193</text>
        <text x="0" y="35" font-size="10" fill="#777777">REGISTERED DIDs</text>
    </g>

    <!-- TRANSACTIONS -->
    <g transform="translate(730, 100)">
        <text x="0" y="-20" font-size="12" fill="#aaaaaa">TRANSFERS</text>
        <text x="0" y="15" font-size="28" fill="#ffffff" font-weight="bold">30,121</text>
        <text x="0" y="35" font-size="10" fill="#777777">M2M SETTLEMENTS</text>
    </g>
  </g>

  <text x="425" y="185" font-family="'Consolas', 'Fira Code', monospace" font-size="10" fill="#aaaaaa" opacity="0.6" text-anchor="middle">AXIOMID PROJECTED TARGETS (ILLUSTRATIVE): 2026-06-28 04:29:08 UTC // SECURE_HANDSHAKE</text>
</svg>