<svg width="850" height="200" viewBox="0 0 850 200" xmlns="http://www.w3.org/2000/svg">
  <defs>
    <pattern id="carbonFiber" width="10" height="10" patternUnits="userSpaceOnUse">
        <rect width="10" height="10" fill="#050505"/>
        <path d="M0,0 L5,5 L10,0 L5,-5 Z M5,5 L10,10 L15,5 L10,0 Z M-5,5 L0,10 L5,5 L0,0 Z M0,10 L5,15 L10,10 L5,5 Z" fill="#0d0d0d"/>
    </pattern>
    <filter id="textGlow">
      <feGaussianBlur stdDeviation="2" result="blur" />
      <feMerge>
        <feMergeNode in="blur"/>
        <feMergeNode in="SourceGraphic"/>
      </feMerge>
    </filter>
    <linearGradient id="neonBar" x1="0%" y1="0%" x2="100%" y2="0%">
        <stop offset="0%" stop-color="#111111"/>
        <stop offset="100%" stop-color="#39FF14"/>
    </linearGradient>
    <linearGradient id="scanlineGrad" x1="0%" y1="0%" x2="100%" y2="0%">
        <stop offset="0%" stop-color="#39FF14" stop-opacity="0"/>
        <stop offset="50%" stop-color="#39FF14" stop-opacity="0.18"/>
        <stop offset="100%" stop-color="#39FF14" stop-opacity="0"/>
    </linearGradient>
    <clipPath id="dashClip">
        <rect x="0" y="0" width="850" height="200" rx="12"/>
    </clipPath>
  </defs>

  <rect width="100%" height="100%" fill="url(#carbonFiber)" rx="12" stroke="#39FF14" stroke-width="1" stroke-opacity="0.3"/>
  <rect width="100%" height="100%" fill="#000000" opacity="0.6" rx="12" />
  <g><polygon points="443,172 451.6,177 451.6,187 443,192 434.4,187 434.4,177" fill="none" stroke="#39FF14" stroke-width="1" opacity="0.07199250509680077"/>
<polygon points="5,81 13.6,86 13.6,96 5,101 -3.5999999999999996,96 -3.5999999999999996,86" fill="none" stroke="#39FF14" stroke-width="1" opacity="0.05656311397813907"/>
<polygon points="848,147 856.6,152 856.6,162 848,167 839.4,162 839.4,152" fill="none" stroke="#39FF14" stroke-width="1" opacity="0.04628703095360211"/>
<polygon points="429,132 437.6,137 437.6,147 429,152 420.4,147 420.4,137" fill="none" stroke="#39FF14" stroke-width="1" opacity="0.027142456453370035"/>
<polygon points="466,183 474.6,188 474.6,198 466,203 457.4,198 457.4,188" fill="none" stroke="#39FF14" stroke-width="1" opacity="0.0267583743653304"/>
<polygon points="539,58 547.6,63 547.6,73 539,78 530.4,73 530.4,63" fill="none" stroke="#39FF14" stroke-width="1" opacity="0.0334814725275651"/>
<polygon points="807,21 815.6,26 815.6,36 807,41 798.4,36 798.4,26" fill="none" stroke="#39FF14" stroke-width="1" opacity="0.029106756723905215"/>
<polygon points="621,99 629.6,104 629.6,114 621,119 612.4,114 612.4,104" fill="none" stroke="#39FF14" stroke-width="1" opacity="0.020931051220654803"/>
<polygon points="387,23 395.6,28 395.6,38 387,43 378.4,38 378.4,28" fill="none" stroke="#39FF14" stroke-width="1" opacity="0.04885899941856026"/>
<polygon points="453,156 461.6,161 461.6,171 453,176 444.4,171 444.4,161" fill="none" stroke="#39FF14" stroke-width="1" opacity="0.04988848584196744"/>
<polygon points="336,33 344.6,38 344.6,48 336,53 327.4,48 327.4,38" fill="none" stroke="#39FF14" stroke-width="1" opacity="0.027446298548576227"/>
<polygon points="680,184 688.6,189 688.6,199 680,204 671.4,199 671.4,189" fill="none" stroke="#39FF14" stroke-width="1" opacity="0.06997070973474134"/>
<polygon points="708,155 716.6,160 716.6,170 708,175 699.4,170 699.4,160" fill="none" stroke="#39FF14" stroke-width="1" opacity="0.022058311656014757"/>
<polygon points="28,24 36.6,29 36.6,39 28,44 19.4,39 19.4,29" fill="none" stroke="#39FF14" stroke-width="1" opacity="0.07443110869494542"/>
<polygon points="143,92 151.6,97 151.6,107 143,112 134.4,107 134.4,97" fill="none" stroke="#39FF14" stroke-width="1" opacity="0.05416296559277792"/>
<polygon points="361,75 369.6,80 369.6,90 361,95 352.4,90 352.4,80" fill="none" stroke="#39FF14" stroke-width="1" opacity="0.05990564126259321"/>
<polygon points="210,26 218.6,31 218.6,41 210,46 201.4,41 201.4,31" fill="none" stroke="#39FF14" stroke-width="1" opacity="0.06346971559021283"/>
<polygon points="302,58 310.6,63 310.6,73 302,78 293.4,73 293.4,63" fill="none" stroke="#39FF14" stroke-width="1" opacity="0.059925445141902484"/>
<polygon points="488,127 496.6,132 496.6,142 488,147 479.4,142 479.4,132" fill="none" stroke="#39FF14" stroke-width="1" opacity="0.07278325965326425"/>
<polygon points="465,150 473.6,155 473.6,165 465,170 456.4,165 456.4,155" fill="none" stroke="#39FF14" stroke-width="1" opacity="0.03685051190844746"/>
<polygon points="405,19 413.6,24 413.6,34 405,39 396.4,34 396.4,24" fill="none" stroke="#39FF14" stroke-width="1" opacity="0.043621809350703866"/>
<polygon points="350,123 358.6,128 358.6,138 350,143 341.4,138 341.4,128" fill="none" stroke="#39FF14" stroke-width="1" opacity="0.020793498875955718"/>
<polygon points="424,77 432.6,82 432.6,92 424,97 415.4,92 415.4,82" fill="none" stroke="#39FF14" stroke-width="1" opacity="0.07940202858190977"/>
<polygon points="703,58 711.6,63 711.6,73 703,78 694.4,73 694.4,63" fill="none" stroke="#39FF14" stroke-width="1" opacity="0.07527929197974938"/>
<polygon points="319,183 327.6,188 327.6,198 319,203 310.4,198 310.4,188" fill="none" stroke="#39FF14" stroke-width="1" opacity="0.037702466289233454"/>
<polygon points="425,125 433.6,130 433.6,140 425,145 416.4,140 416.4,130" fill="none" stroke="#39FF14" stroke-width="1" opacity="0.07637762735161958"/>
<polygon points="507,12 515.6,17 515.6,27 507,32 498.4,27 498.4,17" fill="none" stroke="#39FF14" stroke-width="1" opacity="0.05462832815251198"/>
<polygon points="790,54 798.6,59 798.6,69 790,74 781.4,69 781.4,59" fill="none" stroke="#39FF14" stroke-width="1" opacity="0.02194091992127736"/>
<polygon points="631,33 639.6,38 639.6,48 631,53 622.4,48 622.4,38" fill="none" stroke="#39FF14" stroke-width="1" opacity="0.021640856620691054"/>
<polygon points="290,6 298.6,11 298.6,21 290,26 281.4,21 281.4,11" fill="none" stroke="#39FF14" stroke-width="1" opacity="0.059246069100964194"/>
</g>

  <!-- HUD Decorative elements -->
  <path d="M 20 20 L 40 20 L 50 30" fill="none" stroke="#39FF14" stroke-width="2" opacity="0.5"/>
  <path d="M 830 180 L 810 180 L 800 170" fill="none" stroke="#39FF14" stroke-width="2" opacity="0.5"/>

  <g clip-path="url(#dashClip)">
    <rect x="-160" y="0" width="160" height="200" fill="url(#scanlineGrad)">
      <animateTransform attributeName="transform" type="translate"
                        from="0 0" to="1010 0" dur="6s" repeatCount="indefinite"/>
    </rect>
  </g>

  <g font-family="'Consolas', 'Fira Code', monospace" text-anchor="middle">

    <!-- NETWORK STATUS -->
    <g transform="translate(130, 100)">
        <circle cx="0" cy="0" r="45" fill="none" stroke="#39FF14" stroke-width="2" stroke-dasharray="10 5">
            <animateTransform attributeName="transform" type="rotate" from="0" to="360" dur="10s" repeatCount="indefinite"/>
        </circle>
        <circle cx="0" cy="0" r="35" fill="#0d0d0d" />
        <text x="0" y="-60" font-size="12" fill="#aaaaaa" letter-spacing="2">ROOT.AUTH</text>
        <text x="0" y="70" font-size="14" fill="#ffffff" font-weight="bold">OPERATIONAL</text>
    </g>

    <!-- ACTIVE USERS -->
    <g transform="translate(330, 100)">
        <text x="0" y="-20" font-size="12" fill="#aaaaaa">CITIZENS</text>
        <text x="0" y="15" font-size="28" fill="#ffffff" font-weight="bold" filter="url(#textGlow)">15,442</text>
        <text x="0" y="35" font-size="10" fill="#777777">VERIFIED HUMANS</text>
    </g>

    <!-- REGISTERED AGENTS -->
    <g transform="translate(530, 100)">
        <text x="0" y="-20" font-size="12" fill="#aaaaaa">AGENTS</text>
        <text x="0" y="15" font-size="28" fill="#00d4ff" font-weight="bold" filter="url(#textGlow)">3,246</text>
        <text x="0" y="35" font-size="10" fill="#777777">REGISTERED DIDs</text>
    </g>

    <!-- TRANSACTIONS -->
    <g transform="translate(730, 100)">
        <text x="0" y="-20" font-size="12" fill="#aaaaaa">TRANSFERS</text>
        <text x="0" y="15" font-size="28" fill="#ffffff" font-weight="bold">31,344</text>
        <text x="0" y="35" font-size="10" fill="#777777">M2M SETTLEMENTS</text>
    </g>
  </g>

  <text x="425" y="185" font-family="'Consolas', 'Fira Code', monospace" font-size="10" fill="#aaaaaa" opacity="0.6" text-anchor="middle">AXIOMID PROJECTED TARGETS (ILLUSTRATIVE): 2026-06-21 10:13:19 UTC // SECURE_HANDSHAKE</text>
</svg>