<svg width="850" height="200" viewBox="0 0 850 200" xmlns="http://www.w3.org/2000/svg">
  <defs>
    <pattern id="carbonFiber" width="10" height="10" patternUnits="userSpaceOnUse">
        <rect width="10" height="10" fill="#050505"/>
        <path d="M0,0 L5,5 L10,0 L5,-5 Z M5,5 L10,10 L15,5 L10,0 Z M-5,5 L0,10 L5,5 L0,0 Z M0,10 L5,15 L10,10 L5,5 Z" fill="#0d0d0d"/>
    </pattern>
    <filter id="textGlow">
      <feGaussianBlur stdDeviation="2" result="blur" />
      <feMerge>
        <feMergeNode in="blur"/>
        <feMergeNode in="SourceGraphic"/>
      </feMerge>
    </filter>
    <linearGradient id="neonBar" x1="0%" y1="0%" x2="100%" y2="0%">
        <stop offset="0%" stop-color="#111111"/>
        <stop offset="100%" stop-color="#39FF14"/>
    </linearGradient>
    <linearGradient id="scanlineGrad" x1="0%" y1="0%" x2="100%" y2="0%">
        <stop offset="0%" stop-color="#39FF14" stop-opacity="0"/>
        <stop offset="50%" stop-color="#39FF14" stop-opacity="0.18"/>
        <stop offset="100%" stop-color="#39FF14" stop-opacity="0"/>
    </linearGradient>
    <clipPath id="dashClip">
        <rect x="0" y="0" width="850" height="200" rx="12"/>
    </clipPath>
  </defs>

  <rect width="100%" height="100%" fill="url(#carbonFiber)" rx="12" stroke="#39FF14" stroke-width="1" stroke-opacity="0.3"/>
  <rect width="100%" height="100%" fill="#000000" opacity="0.6" rx="12" />
  <g><polygon points="58,70 66.6,75 66.6,85 58,90 49.4,85 49.4,75" fill="none" stroke="#39FF14" stroke-width="1" opacity="0.04898129783882342"/>
<polygon points="731,180 739.6,185 739.6,195 731,200 722.4,195 722.4,185" fill="none" stroke="#39FF14" stroke-width="1" opacity="0.028681794582999614"/>
<polygon points="153,102 161.6,107 161.6,117 153,122 144.4,117 144.4,107" fill="none" stroke="#39FF14" stroke-width="1" opacity="0.07798540700265243"/>
<polygon points="838,119 846.6,124 846.6,134 838,139 829.4,134 829.4,124" fill="none" stroke="#39FF14" stroke-width="1" opacity="0.03164723469009041"/>
<polygon points="128,106 136.6,111 136.6,121 128,126 119.4,121 119.4,111" fill="none" stroke="#39FF14" stroke-width="1" opacity="0.06584414151528295"/>
<polygon points="614,10 622.6,15 622.6,25 614,30 605.4,25 605.4,15" fill="none" stroke="#39FF14" stroke-width="1" opacity="0.03510262298013936"/>
<polygon points="111,76 119.6,81 119.6,91 111,96 102.4,91 102.4,81" fill="none" stroke="#39FF14" stroke-width="1" opacity="0.02458370502224197"/>
<polygon points="513,64 521.6,69 521.6,79 513,84 504.4,79 504.4,69" fill="none" stroke="#39FF14" stroke-width="1" opacity="0.06917159210312109"/>
<polygon points="762,179 770.6,184 770.6,194 762,199 753.4,194 753.4,184" fill="none" stroke="#39FF14" stroke-width="1" opacity="0.06315142148569858"/>
<polygon points="654,4 662.6,9 662.6,19 654,24 645.4,19 645.4,9" fill="none" stroke="#39FF14" stroke-width="1" opacity="0.07732698829708133"/>
<polygon points="286,73 294.6,78 294.6,88 286,93 277.4,88 277.4,78" fill="none" stroke="#39FF14" stroke-width="1" opacity="0.06110604911370156"/>
<polygon points="325,173 333.6,178 333.6,188 325,193 316.4,188 316.4,178" fill="none" stroke="#39FF14" stroke-width="1" opacity="0.04913779007987079"/>
<polygon points="717,61 725.6,66 725.6,76 717,81 708.4,76 708.4,66" fill="none" stroke="#39FF14" stroke-width="1" opacity="0.07761638889536869"/>
<polygon points="607,53 615.6,58 615.6,68 607,73 598.4,68 598.4,58" fill="none" stroke="#39FF14" stroke-width="1" opacity="0.033389896400772966"/>
<polygon points="80,19 88.6,24 88.6,34 80,39 71.4,34 71.4,24" fill="none" stroke="#39FF14" stroke-width="1" opacity="0.048166838873702496"/>
<polygon points="555,130 563.6,135 563.6,145 555,150 546.4,145 546.4,135" fill="none" stroke="#39FF14" stroke-width="1" opacity="0.061303137911360966"/>
<polygon points="230,-1 238.6,4 238.6,14 230,19 221.4,14 221.4,4" fill="none" stroke="#39FF14" stroke-width="1" opacity="0.04448247786231573"/>
<polygon points="74,59 82.6,64 82.6,74 74,79 65.4,74 65.4,64" fill="none" stroke="#39FF14" stroke-width="1" opacity="0.05276828895190039"/>
<polygon points="95,107 103.6,112 103.6,122 95,127 86.4,122 86.4,112" fill="none" stroke="#39FF14" stroke-width="1" opacity="0.0609698594841723"/>
<polygon points="205,160 213.6,165 213.6,175 205,180 196.4,175 196.4,165" fill="none" stroke="#39FF14" stroke-width="1" opacity="0.04383661766186013"/>
<polygon points="485,112 493.6,117 493.6,127 485,132 476.4,127 476.4,117" fill="none" stroke="#39FF14" stroke-width="1" opacity="0.027307933771729"/>
<polygon points="55,180 63.6,185 63.6,195 55,200 46.4,195 46.4,185" fill="none" stroke="#39FF14" stroke-width="1" opacity="0.07872958101162245"/>
<polygon points="810,125 818.6,130 818.6,140 810,145 801.4,140 801.4,130" fill="none" stroke="#39FF14" stroke-width="1" opacity="0.06800342021077908"/>
<polygon points="177,7 185.6,12 185.6,22 177,27 168.4,22 168.4,12" fill="none" stroke="#39FF14" stroke-width="1" opacity="0.03209549559306249"/>
<polygon points="174,131 182.6,136 182.6,146 174,151 165.4,146 165.4,136" fill="none" stroke="#39FF14" stroke-width="1" opacity="0.07284836092635961"/>
<polygon points="195,79 203.6,84 203.6,94 195,99 186.4,94 186.4,84" fill="none" stroke="#39FF14" stroke-width="1" opacity="0.026600110325362133"/>
<polygon points="746,31 754.6,36 754.6,46 746,51 737.4,46 737.4,36" fill="none" stroke="#39FF14" stroke-width="1" opacity="0.05042071679814043"/>
<polygon points="167,126 175.6,131 175.6,141 167,146 158.4,141 158.4,131" fill="none" stroke="#39FF14" stroke-width="1" opacity="0.03400768821733935"/>
<polygon points="560,81 568.6,86 568.6,96 560,101 551.4,96 551.4,86" fill="none" stroke="#39FF14" stroke-width="1" opacity="0.0360290124004149"/>
<polygon points="678,6 686.6,11 686.6,21 678,26 669.4,21 669.4,11" fill="none" stroke="#39FF14" stroke-width="1" opacity="0.05667195965887589"/>
</g>

  <!-- HUD Decorative elements -->
  <path d="M 20 20 L 40 20 L 50 30" fill="none" stroke="#39FF14" stroke-width="2" opacity="0.5"/>
  <path d="M 830 180 L 810 180 L 800 170" fill="none" stroke="#39FF14" stroke-width="2" opacity="0.5"/>

  <g clip-path="url(#dashClip)">
    <rect x="-160" y="0" width="160" height="200" fill="url(#scanlineGrad)">
      <animateTransform attributeName="transform" type="translate"
                        from="0 0" to="1010 0" dur="6s" repeatCount="indefinite"/>
    </rect>
  </g>

  <g font-family="'Consolas', 'Fira Code', monospace" text-anchor="middle">

    <!-- NETWORK STATUS -->
    <g transform="translate(130, 100)">
        <circle cx="0" cy="0" r="45" fill="none" stroke="#39FF14" stroke-width="2" stroke-dasharray="10 5">
            <animateTransform attributeName="transform" type="rotate" from="0" to="360" dur="10s" repeatCount="indefinite"/>
        </circle>
        <circle cx="0" cy="0" r="35" fill="#0d0d0d" />
        <text x="0" y="-60" font-size="12" fill="#aaaaaa" letter-spacing="2">ROOT.AUTH</text>
        <text x="0" y="70" font-size="14" fill="#ffffff" font-weight="bold">OPERATIONAL</text>
    </g>

    <!-- ACTIVE USERS -->
    <g transform="translate(330, 100)">
        <text x="0" y="-20" font-size="12" fill="#aaaaaa">CITIZENS</text>
        <text x="0" y="15" font-size="28" fill="#ffffff" font-weight="bold" filter="url(#textGlow)">14,681</text>
        <text x="0" y="35" font-size="10" fill="#777777">VERIFIED HUMANS</text>
    </g>

    <!-- REGISTERED AGENTS -->
    <g transform="translate(530, 100)">
        <text x="0" y="-20" font-size="12" fill="#aaaaaa">AGENTS</text>
        <text x="0" y="15" font-size="28" fill="#00d4ff" font-weight="bold" filter="url(#textGlow)">3,860</text>
        <text x="0" y="35" font-size="10" fill="#777777">REGISTERED DIDs</text>
    </g>

    <!-- TRANSACTIONS -->
    <g transform="translate(730, 100)">
        <text x="0" y="-20" font-size="12" fill="#aaaaaa">TRANSFERS</text>
        <text x="0" y="15" font-size="28" fill="#ffffff" font-weight="bold">35,728</text>
        <text x="0" y="35" font-size="10" fill="#777777">M2M SETTLEMENTS</text>
    </g>
  </g>

  <text x="425" y="185" font-family="'Consolas', 'Fira Code', monospace" font-size="10" fill="#aaaaaa" opacity="0.6" text-anchor="middle">AXIOMID PROJECTED TARGETS (ILLUSTRATIVE): 2026-07-21 05:40:29 UTC // SECURE_HANDSHAKE</text>
</svg>