<svg width="850" height="200" viewBox="0 0 850 200" xmlns="http://www.w3.org/2000/svg">
  <defs>
    <!-- Carbon Fiber Pattern -->
    <pattern id="carbonFiber" width="10" height="10" patternUnits="userSpaceOnUse">
        <rect width="10" height="10" fill="#050505"/>
        <path d="M0,0 L5,5 L10,0 L5,-5 Z M5,5 L10,10 L15,5 L10,0 Z M-5,5 L0,10 L5,5 L0,0 Z M0,10 L5,15 L10,10 L5,5 Z" fill="#0d0d0d"/>
    </pattern>
    <filter id="glassmorphism">
      <feGaussianBlur stdDeviation="3" result="blur" />
      <feColorMatrix type="matrix" values="1 0 0 0 0  0 1 0 0 0  0 0 1 0 0  0 0 0 18 -7" result="glow" />
      <feBlend in="SourceGraphic" in2="glow" mode="normal" />
    </filter>
    <filter id="textGlow">
      <feGaussianBlur stdDeviation="2" result="blur" />
      <feMerge>
        <feMergeNode in="blur"/>
        <feMergeNode in="SourceGraphic"/>
      </feMerge>
    </filter>
    <linearGradient id="neonBar" x1="0%" y1="0%" x2="100%" y2="0%">
        <stop offset="0%" stop-color="#111111"/>
        <stop offset="100%" stop-color="#39FF14"/>
    </linearGradient>
  </defs>

  <rect width="100%" height="100%" fill="url(#carbonFiber)" rx="12" stroke="#39FF14" stroke-width="1" stroke-opacity="0.3"/>
  <rect width="100%" height="100%" fill="#000000" opacity="0.6" rx="12" />
  <g><polygon points="391,93 399.6,98 399.6,108 391,113 382.4,108 382.4,98" fill="none" stroke="#39FF14" stroke-width="1" opacity="0.021933906885004427"/>
<polygon points="838,115 846.6,120 846.6,130 838,135 829.4,130 829.4,120" fill="none" stroke="#39FF14" stroke-width="1" opacity="0.0757401659394858"/>
<polygon points="167,76 175.6,81 175.6,91 167,96 158.4,91 158.4,81" fill="none" stroke="#39FF14" stroke-width="1" opacity="0.04961187283043345"/>
<polygon points="57,126 65.6,131 65.6,141 57,146 48.4,141 48.4,131" fill="none" stroke="#39FF14" stroke-width="1" opacity="0.07270593613720704"/>
<polygon points="551,115 559.6,120 559.6,130 551,135 542.4,130 542.4,120" fill="none" stroke="#39FF14" stroke-width="1" opacity="0.03127371757115057"/>
<polygon points="288,23 296.6,28 296.6,38 288,43 279.4,38 279.4,28" fill="none" stroke="#39FF14" stroke-width="1" opacity="0.06777551927271734"/>
<polygon points="379,154 387.6,159 387.6,169 379,174 370.4,169 370.4,159" fill="none" stroke="#39FF14" stroke-width="1" opacity="0.04582557221590771"/>
<polygon points="760,69 768.6,74 768.6,84 760,89 751.4,84 751.4,74" fill="none" stroke="#39FF14" stroke-width="1" opacity="0.052425644793779244"/>
<polygon points="183,27 191.6,32 191.6,42 183,47 174.4,42 174.4,32" fill="none" stroke="#39FF14" stroke-width="1" opacity="0.05899933265696472"/>
<polygon points="786,76 794.6,81 794.6,91 786,96 777.4,91 777.4,81" fill="none" stroke="#39FF14" stroke-width="1" opacity="0.025767901074766827"/>
<polygon points="256,74 264.6,79 264.6,89 256,94 247.4,89 247.4,79" fill="none" stroke="#39FF14" stroke-width="1" opacity="0.07006033199067353"/>
<polygon points="549,8 557.6,13 557.6,23 549,28 540.4,23 540.4,13" fill="none" stroke="#39FF14" stroke-width="1" opacity="0.029554016704940456"/>
<polygon points="840,65 848.6,70 848.6,80 840,85 831.4,80 831.4,70" fill="none" stroke="#39FF14" stroke-width="1" opacity="0.06531042407112743"/>
<polygon points="661,106 669.6,111 669.6,121 661,126 652.4,121 652.4,111" fill="none" stroke="#39FF14" stroke-width="1" opacity="0.045525869201663766"/>
<polygon points="422,189 430.6,194 430.6,204 422,209 413.4,204 413.4,194" fill="none" stroke="#39FF14" stroke-width="1" opacity="0.03754670680774656"/>
<polygon points="115,75 123.6,80 123.6,90 115,95 106.4,90 106.4,80" fill="none" stroke="#39FF14" stroke-width="1" opacity="0.07451332547322598"/>
<polygon points="775,133 783.6,138 783.6,148 775,153 766.4,148 766.4,138" fill="none" stroke="#39FF14" stroke-width="1" opacity="0.07213942396192265"/>
<polygon points="821,159 829.6,164 829.6,174 821,179 812.4,174 812.4,164" fill="none" stroke="#39FF14" stroke-width="1" opacity="0.07346934130349167"/>
<polygon points="70,54 78.6,59 78.6,69 70,74 61.4,69 61.4,59" fill="none" stroke="#39FF14" stroke-width="1" opacity="0.04826097471573984"/>
<polygon points="599,-4 607.6,1 607.6,11 599,16 590.4,11 590.4,1" fill="none" stroke="#39FF14" stroke-width="1" opacity="0.06356267756246327"/>
<polygon points="535,119 543.6,124 543.6,134 535,139 526.4,134 526.4,124" fill="none" stroke="#39FF14" stroke-width="1" opacity="0.0798347720950101"/>
<polygon points="785,31 793.6,36 793.6,46 785,51 776.4,46 776.4,36" fill="none" stroke="#39FF14" stroke-width="1" opacity="0.0456566002528727"/>
<polygon points="553,27 561.6,32 561.6,42 553,47 544.4,42 544.4,32" fill="none" stroke="#39FF14" stroke-width="1" opacity="0.032290623280174555"/>
<polygon points="761,76 769.6,81 769.6,91 761,96 752.4,91 752.4,81" fill="none" stroke="#39FF14" stroke-width="1" opacity="0.07277769588963201"/>
<polygon points="797,4 805.6,9 805.6,19 797,24 788.4,19 788.4,9" fill="none" stroke="#39FF14" stroke-width="1" opacity="0.0575263147442511"/>
<polygon points="528,111 536.6,116 536.6,126 528,131 519.4,126 519.4,116" fill="none" stroke="#39FF14" stroke-width="1" opacity="0.07328088762281285"/>
<polygon points="448,158 456.6,163 456.6,173 448,178 439.4,173 439.4,163" fill="none" stroke="#39FF14" stroke-width="1" opacity="0.07548083922607275"/>
<polygon points="347,74 355.6,79 355.6,89 347,94 338.4,89 338.4,79" fill="none" stroke="#39FF14" stroke-width="1" opacity="0.07383980609381353"/>
<polygon points="11,33 19.6,38 19.6,48 11,53 2.4000000000000004,48 2.4000000000000004,38" fill="none" stroke="#39FF14" stroke-width="1" opacity="0.07408757155834177"/>
<polygon points="605,13 613.6,18 613.6,28 605,33 596.4,28 596.4,18" fill="none" stroke="#39FF14" stroke-width="1" opacity="0.0781238113294404"/>
</g>

  <!-- HUD Decorative elements -->
  <path d="M 20 20 L 40 20 L 50 30" fill="none" stroke="#39FF14" stroke-width="2" opacity="0.5"/>
  <path d="M 830 180 L 810 180 L 800 170" fill="none" stroke="#39FF14" stroke-width="2" opacity="0.5"/>
  <rect x="20" y="100" width="2" height="40" fill="#ffffff" opacity="0.4"/>
  <rect x="828" y="60" width="2" height="40" fill="#39FF14" opacity="0.6"/>

  <g font-family="'Consolas', 'Fira Code', monospace" text-anchor="middle">

    <!-- SYSTEM STATUS -->
    <g transform="translate(130, 100)">
        <circle cx="0" cy="0" r="45" fill="none" stroke="#111111" stroke-width="8" />
        <circle cx="0" cy="0" r="45" fill="none" stroke="#39FF14" stroke-width="2" stroke-dasharray="10 5">
            <animateTransform attributeName="transform" type="rotate" from="0" to="360" dur="10s" repeatCount="indefinite"/>
        </circle>
        <circle cx="0" cy="0" r="35" fill="#0d0d0d" />
        <circle cx="0" cy="0" r="6" fill="#39FF14" filter="url(#textGlow)">
            <animate attributeName="opacity" values="1;0.3;1" dur="2s" repeatCount="indefinite"/>
        </circle>
        <text x="0" y="-60" font-size="12" fill="#aaaaaa" letter-spacing="2">SYS.CORE</text>
        <text x="0" y="70" font-size="14" fill="#ffffff" font-weight="bold">ONLINE</text>
    </g>

    <!-- LIVE TRAFFIC -->
    <g transform="translate(330, 100)">
        <rect x="-60" y="-45" width="120" height="90" fill="#0a0a0a" rx="8" stroke="#39FF14" stroke-opacity="0.4" stroke-width="1"/>
        <text x="0" y="-20" font-size="12" fill="#aaaaaa">NETWORK LOAD</text>
        <text x="0" y="15" font-size="28" fill="#ffffff" font-weight="bold" filter="url(#textGlow)">5816</text>
        <text x="0" y="35" font-size="10" fill="#777777">ACTIVE SESSIONS</text>
    </g>

    <!-- ACTIVE AGENTS -->
    <g transform="translate(530, 100)">
        <rect x="-60" y="-45" width="120" height="90" fill="#0a0a0a" rx="8" stroke="#39FF14" stroke-opacity="0.4" stroke-width="1"/>
        <text x="0" y="-20" font-size="12" fill="#aaaaaa">SWARM ENTITIES</text>
        <text x="0" y="15" font-size="28" fill="#ffffff" font-weight="bold" filter="url(#textGlow)">160</text>
        <text x="0" y="35" font-size="10" fill="#777777">AUTONOMOUS</text>
    </g>

    <!-- UPTIME -->
    <g transform="translate(730, 100)">
        <path d="M -40 -35 L 40 -35 L 50 -25 L 50 35 L -40 35 L -50 25 Z" fill="#0a0a0a" stroke="#39FF14" stroke-opacity="0.4" stroke-width="1"/>
        <text x="0" y="-15" font-size="12" fill="#aaaaaa">CONTINUITY</text>
        <text x="0" y="15" font-size="24" fill="#ffffff" font-weight="bold">259<tspan font-size="14" fill="#777777">d</tspan></text>
        <rect x="-35" y="25" width="70" height="4" fill="url(#neonBar)" rx="2"/>
    </g>
  </g>

  <text x="425" y="185" font-family="'Consolas', 'Fira Code', monospace" font-size="10" fill="#aaaaaa" opacity="0.6" text-anchor="middle">LAST TELEMETRY PING: 2026-04-26 17:29:15 UTC // ENCRYPTED_TUNNEL</text>
</svg>