<svg width="850" height="200" viewBox="0 0 850 200" xmlns="http://www.w3.org/2000/svg">
  <defs>
    <pattern id="carbonFiber" width="10" height="10" patternUnits="userSpaceOnUse">
        <rect width="10" height="10" fill="#050505"/>
        <path d="M0,0 L5,5 L10,0 L5,-5 Z M5,5 L10,10 L15,5 L10,0 Z M-5,5 L0,10 L5,5 L0,0 Z M0,10 L5,15 L10,10 L5,5 Z" fill="#0d0d0d"/>
    </pattern>
    <filter id="textGlow">
      <feGaussianBlur stdDeviation="2" result="blur" />
      <feMerge>
        <feMergeNode in="blur"/>
        <feMergeNode in="SourceGraphic"/>
      </feMerge>
    </filter>
    <linearGradient id="neonBar" x1="0%" y1="0%" x2="100%" y2="0%">
        <stop offset="0%" stop-color="#111111"/>
        <stop offset="100%" stop-color="#39FF14"/>
    </linearGradient>
    <linearGradient id="scanlineGrad" x1="0%" y1="0%" x2="100%" y2="0%">
        <stop offset="0%" stop-color="#39FF14" stop-opacity="0"/>
        <stop offset="50%" stop-color="#39FF14" stop-opacity="0.18"/>
        <stop offset="100%" stop-color="#39FF14" stop-opacity="0"/>
    </linearGradient>
    <clipPath id="dashClip">
        <rect x="0" y="0" width="850" height="200" rx="12"/>
    </clipPath>
  </defs>

  <rect width="100%" height="100%" fill="url(#carbonFiber)" rx="12" stroke="#39FF14" stroke-width="1" stroke-opacity="0.3"/>
  <rect width="100%" height="100%" fill="#000000" opacity="0.6" rx="12" />
  <g><polygon points="328,120 336.6,125 336.6,135 328,140 319.4,135 319.4,125" fill="none" stroke="#39FF14" stroke-width="1" opacity="0.06389663534275525"/>
<polygon points="521,54 529.6,59 529.6,69 521,74 512.4,69 512.4,59" fill="none" stroke="#39FF14" stroke-width="1" opacity="0.053364028542319045"/>
<polygon points="486,151 494.6,156 494.6,166 486,171 477.4,166 477.4,156" fill="none" stroke="#39FF14" stroke-width="1" opacity="0.07956867157438041"/>
<polygon points="403,173 411.6,178 411.6,188 403,193 394.4,188 394.4,178" fill="none" stroke="#39FF14" stroke-width="1" opacity="0.022436200224431525"/>
<polygon points="188,68 196.6,73 196.6,83 188,88 179.4,83 179.4,73" fill="none" stroke="#39FF14" stroke-width="1" opacity="0.055382587897220545"/>
<polygon points="121,105 129.6,110 129.6,120 121,125 112.4,120 112.4,110" fill="none" stroke="#39FF14" stroke-width="1" opacity="0.06771482358087673"/>
<polygon points="531,32 539.6,37 539.6,47 531,52 522.4,47 522.4,37" fill="none" stroke="#39FF14" stroke-width="1" opacity="0.02688279835320829"/>
<polygon points="241,97 249.6,102 249.6,112 241,117 232.4,112 232.4,102" fill="none" stroke="#39FF14" stroke-width="1" opacity="0.06355659531607244"/>
<polygon points="212,43 220.6,48 220.6,58 212,63 203.4,58 203.4,48" fill="none" stroke="#39FF14" stroke-width="1" opacity="0.04123659338537565"/>
<polygon points="210,10 218.6,15 218.6,25 210,30 201.4,25 201.4,15" fill="none" stroke="#39FF14" stroke-width="1" opacity="0.047322477080915804"/>
<polygon points="600,135 608.6,140 608.6,150 600,155 591.4,150 591.4,140" fill="none" stroke="#39FF14" stroke-width="1" opacity="0.028549820316474645"/>
<polygon points="592,166 600.6,171 600.6,181 592,186 583.4,181 583.4,171" fill="none" stroke="#39FF14" stroke-width="1" opacity="0.028849223880678367"/>
<polygon points="581,71 589.6,76 589.6,86 581,91 572.4,86 572.4,76" fill="none" stroke="#39FF14" stroke-width="1" opacity="0.07324916090729057"/>
<polygon points="375,98 383.6,103 383.6,113 375,118 366.4,113 366.4,103" fill="none" stroke="#39FF14" stroke-width="1" opacity="0.04110445234015229"/>
<polygon points="691,20 699.6,25 699.6,35 691,40 682.4,35 682.4,25" fill="none" stroke="#39FF14" stroke-width="1" opacity="0.023267946280051924"/>
<polygon points="702,32 710.6,37 710.6,47 702,52 693.4,47 693.4,37" fill="none" stroke="#39FF14" stroke-width="1" opacity="0.06688549924931995"/>
<polygon points="160,129 168.6,134 168.6,144 160,149 151.4,144 151.4,134" fill="none" stroke="#39FF14" stroke-width="1" opacity="0.0717563424727141"/>
<polygon points="805,141 813.6,146 813.6,156 805,161 796.4,156 796.4,146" fill="none" stroke="#39FF14" stroke-width="1" opacity="0.06272133926331137"/>
<polygon points="105,150 113.6,155 113.6,165 105,170 96.4,165 96.4,155" fill="none" stroke="#39FF14" stroke-width="1" opacity="0.07348774028682949"/>
<polygon points="720,58 728.6,63 728.6,73 720,78 711.4,73 711.4,63" fill="none" stroke="#39FF14" stroke-width="1" opacity="0.054271818032755104"/>
<polygon points="332,142 340.6,147 340.6,157 332,162 323.4,157 323.4,147" fill="none" stroke="#39FF14" stroke-width="1" opacity="0.07943933478874862"/>
<polygon points="583,51 591.6,56 591.6,66 583,71 574.4,66 574.4,56" fill="none" stroke="#39FF14" stroke-width="1" opacity="0.07286318620027091"/>
<polygon points="340,187 348.6,192 348.6,202 340,207 331.4,202 331.4,192" fill="none" stroke="#39FF14" stroke-width="1" opacity="0.0564260181217254"/>
<polygon points="785,168 793.6,173 793.6,183 785,188 776.4,183 776.4,173" fill="none" stroke="#39FF14" stroke-width="1" opacity="0.044286226588770496"/>
<polygon points="153,165 161.6,170 161.6,180 153,185 144.4,180 144.4,170" fill="none" stroke="#39FF14" stroke-width="1" opacity="0.04489844912642224"/>
<polygon points="798,5 806.6,10 806.6,20 798,25 789.4,20 789.4,10" fill="none" stroke="#39FF14" stroke-width="1" opacity="0.05652732300941561"/>
<polygon points="691,120 699.6,125 699.6,135 691,140 682.4,135 682.4,125" fill="none" stroke="#39FF14" stroke-width="1" opacity="0.06753639860130485"/>
<polygon points="526,115 534.6,120 534.6,130 526,135 517.4,130 517.4,120" fill="none" stroke="#39FF14" stroke-width="1" opacity="0.04417337514024586"/>
<polygon points="53,68 61.6,73 61.6,83 53,88 44.4,83 44.4,73" fill="none" stroke="#39FF14" stroke-width="1" opacity="0.057404788128706655"/>
<polygon points="399,114 407.6,119 407.6,129 399,134 390.4,129 390.4,119" fill="none" stroke="#39FF14" stroke-width="1" opacity="0.038864831152602156"/>
</g>

  <!-- HUD Decorative elements -->
  <path d="M 20 20 L 40 20 L 50 30" fill="none" stroke="#39FF14" stroke-width="2" opacity="0.5"/>
  <path d="M 830 180 L 810 180 L 800 170" fill="none" stroke="#39FF14" stroke-width="2" opacity="0.5"/>

  <g clip-path="url(#dashClip)">
    <rect x="-160" y="0" width="160" height="200" fill="url(#scanlineGrad)">
      <animateTransform attributeName="transform" type="translate"
                        from="0 0" to="1010 0" dur="6s" repeatCount="indefinite"/>
    </rect>
  </g>

  <g font-family="'Consolas', 'Fira Code', monospace" text-anchor="middle">

    <!-- NETWORK STATUS -->
    <g transform="translate(130, 100)">
        <circle cx="0" cy="0" r="45" fill="none" stroke="#39FF14" stroke-width="2" stroke-dasharray="10 5">
            <animateTransform attributeName="transform" type="rotate" from="0" to="360" dur="10s" repeatCount="indefinite"/>
        </circle>
        <circle cx="0" cy="0" r="35" fill="#0d0d0d" />
        <text x="0" y="-60" font-size="12" fill="#aaaaaa" letter-spacing="2">ROOT.AUTH</text>
        <text x="0" y="70" font-size="14" fill="#ffffff" font-weight="bold">OPERATIONAL</text>
    </g>

    <!-- ACTIVE USERS -->
    <g transform="translate(330, 100)">
        <text x="0" y="-20" font-size="12" fill="#aaaaaa">CITIZENS</text>
        <text x="0" y="15" font-size="28" fill="#ffffff" font-weight="bold" filter="url(#textGlow)">12,923</text>
        <text x="0" y="35" font-size="10" fill="#777777">VERIFIED HUMANS</text>
    </g>

    <!-- REGISTERED AGENTS -->
    <g transform="translate(530, 100)">
        <text x="0" y="-20" font-size="12" fill="#aaaaaa">AGENTS</text>
        <text x="0" y="15" font-size="28" fill="#00d4ff" font-weight="bold" filter="url(#textGlow)">3,872</text>
        <text x="0" y="35" font-size="10" fill="#777777">REGISTERED DIDs</text>
    </g>

    <!-- TRANSACTIONS -->
    <g transform="translate(730, 100)">
        <text x="0" y="-20" font-size="12" fill="#aaaaaa">TRANSFERS</text>
        <text x="0" y="15" font-size="28" fill="#ffffff" font-weight="bold">25,515</text>
        <text x="0" y="35" font-size="10" fill="#777777">M2M SETTLEMENTS</text>
    </g>
  </g>

  <text x="425" y="185" font-family="'Consolas', 'Fira Code', monospace" font-size="10" fill="#aaaaaa" opacity="0.6" text-anchor="middle">AXIOMID PROJECTED TARGETS (ILLUSTRATIVE): 2026-06-29 16:16:42 UTC // SECURE_HANDSHAKE</text>
</svg>