<svg width="850" height="200" viewBox="0 0 850 200" xmlns="http://www.w3.org/2000/svg">
  <defs>
    <pattern id="carbonFiber" width="10" height="10" patternUnits="userSpaceOnUse">
        <rect width="10" height="10" fill="#050505"/>
        <path d="M0,0 L5,5 L10,0 L5,-5 Z M5,5 L10,10 L15,5 L10,0 Z M-5,5 L0,10 L5,5 L0,0 Z M0,10 L5,15 L10,10 L5,5 Z" fill="#0d0d0d"/>
    </pattern>
    <filter id="textGlow">
      <feGaussianBlur stdDeviation="2" result="blur" />
      <feMerge>
        <feMergeNode in="blur"/>
        <feMergeNode in="SourceGraphic"/>
      </feMerge>
    </filter>
    <linearGradient id="neonBar" x1="0%" y1="0%" x2="100%" y2="0%">
        <stop offset="0%" stop-color="#111111"/>
        <stop offset="100%" stop-color="#39FF14"/>
    </linearGradient>
    <linearGradient id="scanlineGrad" x1="0%" y1="0%" x2="100%" y2="0%">
        <stop offset="0%" stop-color="#39FF14" stop-opacity="0"/>
        <stop offset="50%" stop-color="#39FF14" stop-opacity="0.18"/>
        <stop offset="100%" stop-color="#39FF14" stop-opacity="0"/>
    </linearGradient>
    <clipPath id="dashClip">
        <rect x="0" y="0" width="850" height="200" rx="12"/>
    </clipPath>
  </defs>

  <rect width="100%" height="100%" fill="url(#carbonFiber)" rx="12" stroke="#39FF14" stroke-width="1" stroke-opacity="0.3"/>
  <rect width="100%" height="100%" fill="#000000" opacity="0.6" rx="12" />
  <g><polygon points="705,-9 713.6,-4 713.6,6 705,11 696.4,6 696.4,-4" fill="none" stroke="#39FF14" stroke-width="1" opacity="0.06768394628007324"/>
<polygon points="387,160 395.6,165 395.6,175 387,180 378.4,175 378.4,165" fill="none" stroke="#39FF14" stroke-width="1" opacity="0.06956233441417804"/>
<polygon points="25,7 33.6,12 33.6,22 25,27 16.4,22 16.4,12" fill="none" stroke="#39FF14" stroke-width="1" opacity="0.07770438692626776"/>
<polygon points="463,104 471.6,109 471.6,119 463,124 454.4,119 454.4,109" fill="none" stroke="#39FF14" stroke-width="1" opacity="0.020507420725742243"/>
<polygon points="602,17 610.6,22 610.6,32 602,37 593.4,32 593.4,22" fill="none" stroke="#39FF14" stroke-width="1" opacity="0.07045846133585629"/>
<polygon points="776,43 784.6,48 784.6,58 776,63 767.4,58 767.4,48" fill="none" stroke="#39FF14" stroke-width="1" opacity="0.048706521969765534"/>
<polygon points="14,112 22.6,117 22.6,127 14,132 5.4,127 5.4,117" fill="none" stroke="#39FF14" stroke-width="1" opacity="0.036079289161804765"/>
<polygon points="124,22 132.6,27 132.6,37 124,42 115.4,37 115.4,27" fill="none" stroke="#39FF14" stroke-width="1" opacity="0.021755254692518662"/>
<polygon points="13,64 21.6,69 21.6,79 13,84 4.4,79 4.4,69" fill="none" stroke="#39FF14" stroke-width="1" opacity="0.03854807338162258"/>
<polygon points="331,66 339.6,71 339.6,81 331,86 322.4,81 322.4,71" fill="none" stroke="#39FF14" stroke-width="1" opacity="0.03286827375075685"/>
<polygon points="587,84 595.6,89 595.6,99 587,104 578.4,99 578.4,89" fill="none" stroke="#39FF14" stroke-width="1" opacity="0.06134018707339697"/>
<polygon points="782,103 790.6,108 790.6,118 782,123 773.4,118 773.4,108" fill="none" stroke="#39FF14" stroke-width="1" opacity="0.0729565731043417"/>
<polygon points="215,63 223.6,68 223.6,78 215,83 206.4,78 206.4,68" fill="none" stroke="#39FF14" stroke-width="1" opacity="0.07928972957527702"/>
<polygon points="197,166 205.6,171 205.6,181 197,186 188.4,181 188.4,171" fill="none" stroke="#39FF14" stroke-width="1" opacity="0.07556271135274534"/>
<polygon points="589,139 597.6,144 597.6,154 589,159 580.4,154 580.4,144" fill="none" stroke="#39FF14" stroke-width="1" opacity="0.05332911393956147"/>
<polygon points="724,-3 732.6,2 732.6,12 724,17 715.4,12 715.4,2" fill="none" stroke="#39FF14" stroke-width="1" opacity="0.07425670926312103"/>
<polygon points="99,175 107.6,180 107.6,190 99,195 90.4,190 90.4,180" fill="none" stroke="#39FF14" stroke-width="1" opacity="0.06875000314970994"/>
<polygon points="331,47 339.6,52 339.6,62 331,67 322.4,62 322.4,52" fill="none" stroke="#39FF14" stroke-width="1" opacity="0.03788655353223037"/>
<polygon points="727,173 735.6,178 735.6,188 727,193 718.4,188 718.4,178" fill="none" stroke="#39FF14" stroke-width="1" opacity="0.021249982860942724"/>
<polygon points="405,173 413.6,178 413.6,188 405,193 396.4,188 396.4,178" fill="none" stroke="#39FF14" stroke-width="1" opacity="0.04196243298204741"/>
<polygon points="604,151 612.6,156 612.6,166 604,171 595.4,166 595.4,156" fill="none" stroke="#39FF14" stroke-width="1" opacity="0.06674013928999167"/>
<polygon points="470,86 478.6,91 478.6,101 470,106 461.4,101 461.4,91" fill="none" stroke="#39FF14" stroke-width="1" opacity="0.05206553523973133"/>
<polygon points="629,15 637.6,20 637.6,30 629,35 620.4,30 620.4,20" fill="none" stroke="#39FF14" stroke-width="1" opacity="0.0220795852488911"/>
<polygon points="54,87 62.6,92 62.6,102 54,107 45.4,102 45.4,92" fill="none" stroke="#39FF14" stroke-width="1" opacity="0.02477541013147939"/>
<polygon points="272,95 280.6,100 280.6,110 272,115 263.4,110 263.4,100" fill="none" stroke="#39FF14" stroke-width="1" opacity="0.04691487152280533"/>
<polygon points="300,93 308.6,98 308.6,108 300,113 291.4,108 291.4,98" fill="none" stroke="#39FF14" stroke-width="1" opacity="0.04029374128375979"/>
<polygon points="543,186 551.6,191 551.6,201 543,206 534.4,201 534.4,191" fill="none" stroke="#39FF14" stroke-width="1" opacity="0.07173633910649686"/>
<polygon points="641,121 649.6,126 649.6,136 641,141 632.4,136 632.4,126" fill="none" stroke="#39FF14" stroke-width="1" opacity="0.042957904107293554"/>
<polygon points="99,166 107.6,171 107.6,181 99,186 90.4,181 90.4,171" fill="none" stroke="#39FF14" stroke-width="1" opacity="0.058497418250451835"/>
<polygon points="730,-9 738.6,-4 738.6,6 730,11 721.4,6 721.4,-4" fill="none" stroke="#39FF14" stroke-width="1" opacity="0.05715830621800842"/>
</g>

  <!-- HUD Decorative elements -->
  <path d="M 20 20 L 40 20 L 50 30" fill="none" stroke="#39FF14" stroke-width="2" opacity="0.5"/>
  <path d="M 830 180 L 810 180 L 800 170" fill="none" stroke="#39FF14" stroke-width="2" opacity="0.5"/>

  <g clip-path="url(#dashClip)">
    <rect x="-160" y="0" width="160" height="200" fill="url(#scanlineGrad)">
      <animateTransform attributeName="transform" type="translate"
                        from="0 0" to="1010 0" dur="6s" repeatCount="indefinite"/>
    </rect>
  </g>

  <g font-family="'Consolas', 'Fira Code', monospace" text-anchor="middle">

    <!-- NETWORK STATUS -->
    <g transform="translate(130, 100)">
        <circle cx="0" cy="0" r="45" fill="none" stroke="#39FF14" stroke-width="2" stroke-dasharray="10 5">
            <animateTransform attributeName="transform" type="rotate" from="0" to="360" dur="10s" repeatCount="indefinite"/>
        </circle>
        <circle cx="0" cy="0" r="35" fill="#0d0d0d" />
        <text x="0" y="-60" font-size="12" fill="#aaaaaa" letter-spacing="2">ROOT.AUTH</text>
        <text x="0" y="70" font-size="14" fill="#ffffff" font-weight="bold">OPERATIONAL</text>
    </g>

    <!-- ACTIVE USERS -->
    <g transform="translate(330, 100)">
        <text x="0" y="-20" font-size="12" fill="#aaaaaa">CITIZENS</text>
        <text x="0" y="15" font-size="28" fill="#ffffff" font-weight="bold" filter="url(#textGlow)">14,939</text>
        <text x="0" y="35" font-size="10" fill="#777777">VERIFIED HUMANS</text>
    </g>

    <!-- REGISTERED AGENTS -->
    <g transform="translate(530, 100)">
        <text x="0" y="-20" font-size="12" fill="#aaaaaa">AGENTS</text>
        <text x="0" y="15" font-size="28" fill="#00d4ff" font-weight="bold" filter="url(#textGlow)">4,488</text>
        <text x="0" y="35" font-size="10" fill="#777777">REGISTERED DIDs</text>
    </g>

    <!-- TRANSACTIONS -->
    <g transform="translate(730, 100)">
        <text x="0" y="-20" font-size="12" fill="#aaaaaa">TRANSFERS</text>
        <text x="0" y="15" font-size="28" fill="#ffffff" font-weight="bold">29,196</text>
        <text x="0" y="35" font-size="10" fill="#777777">M2M SETTLEMENTS</text>
    </g>
  </g>

  <text x="425" y="185" font-family="'Consolas', 'Fira Code', monospace" font-size="10" fill="#aaaaaa" opacity="0.6" text-anchor="middle">AXIOMID PROJECTED TARGETS (ILLUSTRATIVE): 2026-07-19 18:51:11 UTC // SECURE_HANDSHAKE</text>
</svg>