<svg width="850" height="200" viewBox="0 0 850 200" xmlns="http://www.w3.org/2000/svg">
  <defs>
    <!-- Carbon Fiber Pattern -->
    <pattern id="carbonFiber" width="10" height="10" patternUnits="userSpaceOnUse">
        <rect width="10" height="10" fill="#050505"/>
        <path d="M0,0 L5,5 L10,0 L5,-5 Z M5,5 L10,10 L15,5 L10,0 Z M-5,5 L0,10 L5,5 L0,0 Z M0,10 L5,15 L10,10 L5,5 Z" fill="#0d0d0d"/>
    </pattern>
    <filter id="glassmorphism">
      <feGaussianBlur stdDeviation="3" result="blur" />
      <feColorMatrix type="matrix" values="1 0 0 0 0  0 1 0 0 0  0 0 1 0 0  0 0 0 18 -7" result="glow" />
      <feBlend in="SourceGraphic" in2="glow" mode="normal" />
    </filter>
    <filter id="textGlow">
      <feGaussianBlur stdDeviation="2" result="blur" />
      <feMerge>
        <feMergeNode in="blur"/>
        <feMergeNode in="SourceGraphic"/>
      </feMerge>
    </filter>
    <linearGradient id="neonBar" x1="0%" y1="0%" x2="100%" y2="0%">
        <stop offset="0%" stop-color="#111111"/>
        <stop offset="100%" stop-color="#39FF14"/>
    </linearGradient>
  </defs>

  <rect width="100%" height="100%" fill="url(#carbonFiber)" rx="12" stroke="#39FF14" stroke-width="1" stroke-opacity="0.3"/>
  <rect width="100%" height="100%" fill="#000000" opacity="0.6" rx="12" />
  <g><polygon points="261,-8 269.6,-3 269.6,7 261,12 252.4,7 252.4,-3" fill="none" stroke="#39FF14" stroke-width="1" opacity="0.03334878515815095"/>
<polygon points="100,4 108.6,9 108.6,19 100,24 91.4,19 91.4,9" fill="none" stroke="#39FF14" stroke-width="1" opacity="0.024911889381509532"/>
<polygon points="792,25 800.6,30 800.6,40 792,45 783.4,40 783.4,30" fill="none" stroke="#39FF14" stroke-width="1" opacity="0.028765970897408705"/>
<polygon points="699,10 707.6,15 707.6,25 699,30 690.4,25 690.4,15" fill="none" stroke="#39FF14" stroke-width="1" opacity="0.03806046896370108"/>
<polygon points="415,59 423.6,64 423.6,74 415,79 406.4,74 406.4,64" fill="none" stroke="#39FF14" stroke-width="1" opacity="0.07700953706958474"/>
<polygon points="528,114 536.6,119 536.6,129 528,134 519.4,129 519.4,119" fill="none" stroke="#39FF14" stroke-width="1" opacity="0.04316786902056489"/>
<polygon points="603,90 611.6,95 611.6,105 603,110 594.4,105 594.4,95" fill="none" stroke="#39FF14" stroke-width="1" opacity="0.04790221327092409"/>
<polygon points="137,151 145.6,156 145.6,166 137,171 128.4,166 128.4,156" fill="none" stroke="#39FF14" stroke-width="1" opacity="0.04296716160486006"/>
<polygon points="266,177 274.6,182 274.6,192 266,197 257.4,192 257.4,182" fill="none" stroke="#39FF14" stroke-width="1" opacity="0.07839627262332115"/>
<polygon points="829,-6 837.6,-1 837.6,9 829,14 820.4,9 820.4,-1" fill="none" stroke="#39FF14" stroke-width="1" opacity="0.02109156036221976"/>
<polygon points="683,155 691.6,160 691.6,170 683,175 674.4,170 674.4,160" fill="none" stroke="#39FF14" stroke-width="1" opacity="0.052299486658005656"/>
<polygon points="786,107 794.6,112 794.6,122 786,127 777.4,122 777.4,112" fill="none" stroke="#39FF14" stroke-width="1" opacity="0.033449924038988665"/>
<polygon points="690,102 698.6,107 698.6,117 690,122 681.4,117 681.4,107" fill="none" stroke="#39FF14" stroke-width="1" opacity="0.03455901700010135"/>
<polygon points="461,39 469.6,44 469.6,54 461,59 452.4,54 452.4,44" fill="none" stroke="#39FF14" stroke-width="1" opacity="0.056075979925941294"/>
<polygon points="308,4 316.6,9 316.6,19 308,24 299.4,19 299.4,9" fill="none" stroke="#39FF14" stroke-width="1" opacity="0.02744335061535482"/>
<polygon points="675,132 683.6,137 683.6,147 675,152 666.4,147 666.4,137" fill="none" stroke="#39FF14" stroke-width="1" opacity="0.02853829687701477"/>
<polygon points="819,121 827.6,126 827.6,136 819,141 810.4,136 810.4,126" fill="none" stroke="#39FF14" stroke-width="1" opacity="0.0728213265786528"/>
<polygon points="212,78 220.6,83 220.6,93 212,98 203.4,93 203.4,83" fill="none" stroke="#39FF14" stroke-width="1" opacity="0.020396698866898703"/>
<polygon points="589,146 597.6,151 597.6,161 589,166 580.4,161 580.4,151" fill="none" stroke="#39FF14" stroke-width="1" opacity="0.07210300268880182"/>
<polygon points="195,73 203.6,78 203.6,88 195,93 186.4,88 186.4,78" fill="none" stroke="#39FF14" stroke-width="1" opacity="0.023381190907200675"/>
<polygon points="2,78 10.6,83 10.6,93 2,98 -6.6,93 -6.6,83" fill="none" stroke="#39FF14" stroke-width="1" opacity="0.025665927967455673"/>
<polygon points="759,12 767.6,17 767.6,27 759,32 750.4,27 750.4,17" fill="none" stroke="#39FF14" stroke-width="1" opacity="0.04144646751970098"/>
<polygon points="603,132 611.6,137 611.6,147 603,152 594.4,147 594.4,137" fill="none" stroke="#39FF14" stroke-width="1" opacity="0.04194096055216205"/>
<polygon points="677,39 685.6,44 685.6,54 677,59 668.4,54 668.4,44" fill="none" stroke="#39FF14" stroke-width="1" opacity="0.04966220769824487"/>
<polygon points="801,32 809.6,37 809.6,47 801,52 792.4,47 792.4,37" fill="none" stroke="#39FF14" stroke-width="1" opacity="0.0333090054281433"/>
<polygon points="780,144 788.6,149 788.6,159 780,164 771.4,159 771.4,149" fill="none" stroke="#39FF14" stroke-width="1" opacity="0.04880114855552668"/>
<polygon points="205,164 213.6,169 213.6,179 205,184 196.4,179 196.4,169" fill="none" stroke="#39FF14" stroke-width="1" opacity="0.07414506431562408"/>
<polygon points="161,130 169.6,135 169.6,145 161,150 152.4,145 152.4,135" fill="none" stroke="#39FF14" stroke-width="1" opacity="0.05986034179315765"/>
<polygon points="326,40 334.6,45 334.6,55 326,60 317.4,55 317.4,45" fill="none" stroke="#39FF14" stroke-width="1" opacity="0.04236656909833755"/>
<polygon points="586,153 594.6,158 594.6,168 586,173 577.4,168 577.4,158" fill="none" stroke="#39FF14" stroke-width="1" opacity="0.06662146036120356"/>
</g>

  <!-- HUD Decorative elements -->
  <path d="M 20 20 L 40 20 L 50 30" fill="none" stroke="#39FF14" stroke-width="2" opacity="0.5"/>
  <path d="M 830 180 L 810 180 L 800 170" fill="none" stroke="#39FF14" stroke-width="2" opacity="0.5"/>
  <rect x="20" y="100" width="2" height="40" fill="#ffffff" opacity="0.4"/>
  <rect x="828" y="60" width="2" height="40" fill="#39FF14" opacity="0.6"/>

  <g font-family="'Consolas', 'Fira Code', monospace" text-anchor="middle">

    <!-- SYSTEM STATUS -->
    <g transform="translate(130, 100)">
        <circle cx="0" cy="0" r="45" fill="none" stroke="#111111" stroke-width="8" />
        <circle cx="0" cy="0" r="45" fill="none" stroke="#39FF14" stroke-width="2" stroke-dasharray="10 5">
            <animateTransform attributeName="transform" type="rotate" from="0" to="360" dur="10s" repeatCount="indefinite"/>
        </circle>
        <circle cx="0" cy="0" r="35" fill="#0d0d0d" />
        <circle cx="0" cy="0" r="6" fill="#39FF14" filter="url(#textGlow)">
            <animate attributeName="opacity" values="1;0.3;1" dur="2s" repeatCount="indefinite"/>
        </circle>
        <text x="0" y="-60" font-size="12" fill="#aaaaaa" letter-spacing="2">SYS.CORE</text>
        <text x="0" y="70" font-size="14" fill="#ffffff" font-weight="bold">ONLINE</text>
    </g>

    <!-- LIVE TRAFFIC -->
    <g transform="translate(330, 100)">
        <rect x="-60" y="-45" width="120" height="90" fill="#0a0a0a" rx="8" stroke="#39FF14" stroke-opacity="0.4" stroke-width="1"/>
        <text x="0" y="-20" font-size="12" fill="#aaaaaa">NETWORK LOAD</text>
        <text x="0" y="15" font-size="28" fill="#ffffff" font-weight="bold" filter="url(#textGlow)">7987</text>
        <text x="0" y="35" font-size="10" fill="#777777">ACTIVE SESSIONS</text>
    </g>

    <!-- ACTIVE AGENTS -->
    <g transform="translate(530, 100)">
        <rect x="-60" y="-45" width="120" height="90" fill="#0a0a0a" rx="8" stroke="#39FF14" stroke-opacity="0.4" stroke-width="1"/>
        <text x="0" y="-20" font-size="12" fill="#aaaaaa">SWARM ENTITIES</text>
        <text x="0" y="15" font-size="28" fill="#ffffff" font-weight="bold" filter="url(#textGlow)">185</text>
        <text x="0" y="35" font-size="10" fill="#777777">AUTONOMOUS</text>
    </g>

    <!-- UPTIME -->
    <g transform="translate(730, 100)">
        <path d="M -40 -35 L 40 -35 L 50 -25 L 50 35 L -40 35 L -50 25 Z" fill="#0a0a0a" stroke="#39FF14" stroke-opacity="0.4" stroke-width="1"/>
        <text x="0" y="-15" font-size="12" fill="#aaaaaa">CONTINUITY</text>
        <text x="0" y="15" font-size="24" fill="#ffffff" font-weight="bold">226<tspan font-size="14" fill="#777777">d</tspan></text>
        <rect x="-35" y="25" width="70" height="4" fill="url(#neonBar)" rx="2"/>
    </g>
  </g>

  <text x="425" y="185" font-family="'Consolas', 'Fira Code', monospace" font-size="10" fill="#aaaaaa" opacity="0.6" text-anchor="middle">LAST TELEMETRY PING: 2026-05-02 06:45:47 UTC // ENCRYPTED_TUNNEL</text>
</svg>