<svg width="850" height="200" viewBox="0 0 850 200" xmlns="http://www.w3.org/2000/svg">
  <defs>
    <pattern id="carbonFiber" width="10" height="10" patternUnits="userSpaceOnUse">
        <rect width="10" height="10" fill="#050505"/>
        <path d="M0,0 L5,5 L10,0 L5,-5 Z M5,5 L10,10 L15,5 L10,0 Z M-5,5 L0,10 L5,5 L0,0 Z M0,10 L5,15 L10,10 L5,5 Z" fill="#0d0d0d"/>
    </pattern>
    <filter id="textGlow">
      <feGaussianBlur stdDeviation="2" result="blur" />
      <feMerge>
        <feMergeNode in="blur"/>
        <feMergeNode in="SourceGraphic"/>
      </feMerge>
    </filter>
    <linearGradient id="neonBar" x1="0%" y1="0%" x2="100%" y2="0%">
        <stop offset="0%" stop-color="#111111"/>
        <stop offset="100%" stop-color="#39FF14"/>
    </linearGradient>
    <linearGradient id="scanlineGrad" x1="0%" y1="0%" x2="100%" y2="0%">
        <stop offset="0%" stop-color="#39FF14" stop-opacity="0"/>
        <stop offset="50%" stop-color="#39FF14" stop-opacity="0.18"/>
        <stop offset="100%" stop-color="#39FF14" stop-opacity="0"/>
    </linearGradient>
    <clipPath id="dashClip">
        <rect x="0" y="0" width="850" height="200" rx="12"/>
    </clipPath>
  </defs>

  <rect width="100%" height="100%" fill="url(#carbonFiber)" rx="12" stroke="#39FF14" stroke-width="1" stroke-opacity="0.3"/>
  <rect width="100%" height="100%" fill="#000000" opacity="0.6" rx="12" />
  <g><polygon points="584,68 592.6,73 592.6,83 584,88 575.4,83 575.4,73" fill="none" stroke="#39FF14" stroke-width="1" opacity="0.07221583877282377"/>
<polygon points="279,25 287.6,30 287.6,40 279,45 270.4,40 270.4,30" fill="none" stroke="#39FF14" stroke-width="1" opacity="0.06628564229650516"/>
<polygon points="836,10 844.6,15 844.6,25 836,30 827.4,25 827.4,15" fill="none" stroke="#39FF14" stroke-width="1" opacity="0.044001086397677074"/>
<polygon points="543,39 551.6,44 551.6,54 543,59 534.4,54 534.4,44" fill="none" stroke="#39FF14" stroke-width="1" opacity="0.0720313403427179"/>
<polygon points="20,182 28.6,187 28.6,197 20,202 11.4,197 11.4,187" fill="none" stroke="#39FF14" stroke-width="1" opacity="0.0781677367200915"/>
<polygon points="252,5 260.6,10 260.6,20 252,25 243.4,20 243.4,10" fill="none" stroke="#39FF14" stroke-width="1" opacity="0.03175735736605276"/>
<polygon points="782,141 790.6,146 790.6,156 782,161 773.4,156 773.4,146" fill="none" stroke="#39FF14" stroke-width="1" opacity="0.03699623145069099"/>
<polygon points="151,125 159.6,130 159.6,140 151,145 142.4,140 142.4,130" fill="none" stroke="#39FF14" stroke-width="1" opacity="0.06120636512177996"/>
<polygon points="29,99 37.6,104 37.6,114 29,119 20.4,114 20.4,104" fill="none" stroke="#39FF14" stroke-width="1" opacity="0.07842514211459126"/>
<polygon points="85,158 93.6,163 93.6,173 85,178 76.4,173 76.4,163" fill="none" stroke="#39FF14" stroke-width="1" opacity="0.06725317470300059"/>
<polygon points="831,114 839.6,119 839.6,129 831,134 822.4,129 822.4,119" fill="none" stroke="#39FF14" stroke-width="1" opacity="0.06406431553086543"/>
<polygon points="417,161 425.6,166 425.6,176 417,181 408.4,176 408.4,166" fill="none" stroke="#39FF14" stroke-width="1" opacity="0.06431331485972842"/>
<polygon points="26,36 34.6,41 34.6,51 26,56 17.4,51 17.4,41" fill="none" stroke="#39FF14" stroke-width="1" opacity="0.038799625122054676"/>
<polygon points="314,153 322.6,158 322.6,168 314,173 305.4,168 305.4,158" fill="none" stroke="#39FF14" stroke-width="1" opacity="0.023540691396532875"/>
<polygon points="479,167 487.6,172 487.6,182 479,187 470.4,182 470.4,172" fill="none" stroke="#39FF14" stroke-width="1" opacity="0.02021660390670355"/>
<polygon points="343,-8 351.6,-3 351.6,7 343,12 334.4,7 334.4,-3" fill="none" stroke="#39FF14" stroke-width="1" opacity="0.024169797008044842"/>
<polygon points="794,60 802.6,65 802.6,75 794,80 785.4,75 785.4,65" fill="none" stroke="#39FF14" stroke-width="1" opacity="0.06552879351160729"/>
<polygon points="673,182 681.6,187 681.6,197 673,202 664.4,197 664.4,187" fill="none" stroke="#39FF14" stroke-width="1" opacity="0.03890999787245332"/>
<polygon points="610,176 618.6,181 618.6,191 610,196 601.4,191 601.4,181" fill="none" stroke="#39FF14" stroke-width="1" opacity="0.04739274302115609"/>
<polygon points="563,53 571.6,58 571.6,68 563,73 554.4,68 554.4,58" fill="none" stroke="#39FF14" stroke-width="1" opacity="0.03527622543149278"/>
<polygon points="667,149 675.6,154 675.6,164 667,169 658.4,164 658.4,154" fill="none" stroke="#39FF14" stroke-width="1" opacity="0.0654682182936893"/>
<polygon points="583,76 591.6,81 591.6,91 583,96 574.4,91 574.4,81" fill="none" stroke="#39FF14" stroke-width="1" opacity="0.038507688166541806"/>
<polygon points="99,168 107.6,173 107.6,183 99,188 90.4,183 90.4,173" fill="none" stroke="#39FF14" stroke-width="1" opacity="0.06156616779384255"/>
<polygon points="187,3 195.6,8 195.6,18 187,23 178.4,18 178.4,8" fill="none" stroke="#39FF14" stroke-width="1" opacity="0.05312794090462973"/>
<polygon points="645,3 653.6,8 653.6,18 645,23 636.4,18 636.4,8" fill="none" stroke="#39FF14" stroke-width="1" opacity="0.06945586856826648"/>
<polygon points="670,73 678.6,78 678.6,88 670,93 661.4,88 661.4,78" fill="none" stroke="#39FF14" stroke-width="1" opacity="0.06394513568032105"/>
<polygon points="470,53 478.6,58 478.6,68 470,73 461.4,68 461.4,58" fill="none" stroke="#39FF14" stroke-width="1" opacity="0.04258974504868443"/>
<polygon points="339,128 347.6,133 347.6,143 339,148 330.4,143 330.4,133" fill="none" stroke="#39FF14" stroke-width="1" opacity="0.07627348498869996"/>
<polygon points="88,177 96.6,182 96.6,192 88,197 79.4,192 79.4,182" fill="none" stroke="#39FF14" stroke-width="1" opacity="0.06269623728034568"/>
<polygon points="136,76 144.6,81 144.6,91 136,96 127.4,91 127.4,81" fill="none" stroke="#39FF14" stroke-width="1" opacity="0.04273288968670012"/>
</g>

  <!-- HUD Decorative elements -->
  <path d="M 20 20 L 40 20 L 50 30" fill="none" stroke="#39FF14" stroke-width="2" opacity="0.5"/>
  <path d="M 830 180 L 810 180 L 800 170" fill="none" stroke="#39FF14" stroke-width="2" opacity="0.5"/>

  <g clip-path="url(#dashClip)">
    <rect x="-160" y="0" width="160" height="200" fill="url(#scanlineGrad)">
      <animateTransform attributeName="transform" type="translate"
                        from="0 0" to="1010 0" dur="6s" repeatCount="indefinite"/>
    </rect>
  </g>

  <g font-family="'Consolas', 'Fira Code', monospace" text-anchor="middle">

    <!-- NETWORK STATUS -->
    <g transform="translate(130, 100)">
        <circle cx="0" cy="0" r="45" fill="none" stroke="#39FF14" stroke-width="2" stroke-dasharray="10 5">
            <animateTransform attributeName="transform" type="rotate" from="0" to="360" dur="10s" repeatCount="indefinite"/>
        </circle>
        <circle cx="0" cy="0" r="35" fill="#0d0d0d" />
        <text x="0" y="-60" font-size="12" fill="#aaaaaa" letter-spacing="2">ROOT.AUTH</text>
        <text x="0" y="70" font-size="14" fill="#ffffff" font-weight="bold">OPERATIONAL</text>
    </g>

    <!-- ACTIVE USERS -->
    <g transform="translate(330, 100)">
        <text x="0" y="-20" font-size="12" fill="#aaaaaa">CITIZENS</text>
        <text x="0" y="15" font-size="28" fill="#ffffff" font-weight="bold" filter="url(#textGlow)">13,512</text>
        <text x="0" y="35" font-size="10" fill="#777777">VERIFIED HUMANS</text>
    </g>

    <!-- REGISTERED AGENTS -->
    <g transform="translate(530, 100)">
        <text x="0" y="-20" font-size="12" fill="#aaaaaa">AGENTS</text>
        <text x="0" y="15" font-size="28" fill="#00d4ff" font-weight="bold" filter="url(#textGlow)">4,465</text>
        <text x="0" y="35" font-size="10" fill="#777777">REGISTERED DIDs</text>
    </g>

    <!-- TRANSACTIONS -->
    <g transform="translate(730, 100)">
        <text x="0" y="-20" font-size="12" fill="#aaaaaa">TRANSFERS</text>
        <text x="0" y="15" font-size="28" fill="#ffffff" font-weight="bold">41,692</text>
        <text x="0" y="35" font-size="10" fill="#777777">M2M SETTLEMENTS</text>
    </g>
  </g>

  <text x="425" y="185" font-family="'Consolas', 'Fira Code', monospace" font-size="10" fill="#aaaaaa" opacity="0.6" text-anchor="middle">AXIOMID PROJECTED TARGETS (ILLUSTRATIVE): 2026-07-13 17:06:30 UTC // SECURE_HANDSHAKE</text>
</svg>