<svg width="850" height="200" viewBox="0 0 850 200" xmlns="http://www.w3.org/2000/svg">
  <defs>
    <pattern id="carbonFiber" width="10" height="10" patternUnits="userSpaceOnUse">
        <rect width="10" height="10" fill="#050505"/>
        <path d="M0,0 L5,5 L10,0 L5,-5 Z M5,5 L10,10 L15,5 L10,0 Z M-5,5 L0,10 L5,5 L0,0 Z M0,10 L5,15 L10,10 L5,5 Z" fill="#0d0d0d"/>
    </pattern>
    <filter id="textGlow">
      <feGaussianBlur stdDeviation="2" result="blur" />
      <feMerge>
        <feMergeNode in="blur"/>
        <feMergeNode in="SourceGraphic"/>
      </feMerge>
    </filter>
    <linearGradient id="neonBar" x1="0%" y1="0%" x2="100%" y2="0%">
        <stop offset="0%" stop-color="#111111"/>
        <stop offset="100%" stop-color="#39FF14"/>
    </linearGradient>
    <linearGradient id="scanlineGrad" x1="0%" y1="0%" x2="100%" y2="0%">
        <stop offset="0%" stop-color="#39FF14" stop-opacity="0"/>
        <stop offset="50%" stop-color="#39FF14" stop-opacity="0.18"/>
        <stop offset="100%" stop-color="#39FF14" stop-opacity="0"/>
    </linearGradient>
    <clipPath id="dashClip">
        <rect x="0" y="0" width="850" height="200" rx="12"/>
    </clipPath>
  </defs>

  <rect width="100%" height="100%" fill="url(#carbonFiber)" rx="12" stroke="#39FF14" stroke-width="1" stroke-opacity="0.3"/>
  <rect width="100%" height="100%" fill="#000000" opacity="0.6" rx="12" />
  <g><polygon points="781,107 789.6,112 789.6,122 781,127 772.4,122 772.4,112" fill="none" stroke="#39FF14" stroke-width="1" opacity="0.07844482394371623"/>
<polygon points="508,85 516.6,90 516.6,100 508,105 499.4,100 499.4,90" fill="none" stroke="#39FF14" stroke-width="1" opacity="0.0372365932356849"/>
<polygon points="259,128 267.6,133 267.6,143 259,148 250.4,143 250.4,133" fill="none" stroke="#39FF14" stroke-width="1" opacity="0.0338978128771903"/>
<polygon points="167,136 175.6,141 175.6,151 167,156 158.4,151 158.4,141" fill="none" stroke="#39FF14" stroke-width="1" opacity="0.056564145540107524"/>
<polygon points="52,102 60.6,107 60.6,117 52,122 43.4,117 43.4,107" fill="none" stroke="#39FF14" stroke-width="1" opacity="0.06004922468262054"/>
<polygon points="358,101 366.6,106 366.6,116 358,121 349.4,116 349.4,106" fill="none" stroke="#39FF14" stroke-width="1" opacity="0.03676690487059656"/>
<polygon points="359,144 367.6,149 367.6,159 359,164 350.4,159 350.4,149" fill="none" stroke="#39FF14" stroke-width="1" opacity="0.05498388603790742"/>
<polygon points="461,68 469.6,73 469.6,83 461,88 452.4,83 452.4,73" fill="none" stroke="#39FF14" stroke-width="1" opacity="0.03185057656679867"/>
<polygon points="276,115 284.6,120 284.6,130 276,135 267.4,130 267.4,120" fill="none" stroke="#39FF14" stroke-width="1" opacity="0.04737133769201324"/>
<polygon points="818,112 826.6,117 826.6,127 818,132 809.4,127 809.4,117" fill="none" stroke="#39FF14" stroke-width="1" opacity="0.05761663940689099"/>
<polygon points="145,97 153.6,102 153.6,112 145,117 136.4,112 136.4,102" fill="none" stroke="#39FF14" stroke-width="1" opacity="0.07889575184961235"/>
<polygon points="807,186 815.6,191 815.6,201 807,206 798.4,201 798.4,191" fill="none" stroke="#39FF14" stroke-width="1" opacity="0.04981160936985138"/>
<polygon points="689,96 697.6,101 697.6,111 689,116 680.4,111 680.4,101" fill="none" stroke="#39FF14" stroke-width="1" opacity="0.04297398531570747"/>
<polygon points="515,152 523.6,157 523.6,167 515,172 506.4,167 506.4,157" fill="none" stroke="#39FF14" stroke-width="1" opacity="0.03499120514509692"/>
<polygon points="233,38 241.6,43 241.6,53 233,58 224.4,53 224.4,43" fill="none" stroke="#39FF14" stroke-width="1" opacity="0.03645707079732265"/>
<polygon points="173,155 181.6,160 181.6,170 173,175 164.4,170 164.4,160" fill="none" stroke="#39FF14" stroke-width="1" opacity="0.03163749134227893"/>
<polygon points="240,-1 248.6,4 248.6,14 240,19 231.4,14 231.4,4" fill="none" stroke="#39FF14" stroke-width="1" opacity="0.054122520557157064"/>
<polygon points="129,10 137.6,15 137.6,25 129,30 120.4,25 120.4,15" fill="none" stroke="#39FF14" stroke-width="1" opacity="0.07131553618667814"/>
<polygon points="762,163 770.6,168 770.6,178 762,183 753.4,178 753.4,168" fill="none" stroke="#39FF14" stroke-width="1" opacity="0.07735334556845361"/>
<polygon points="662,43 670.6,48 670.6,58 662,63 653.4,58 653.4,48" fill="none" stroke="#39FF14" stroke-width="1" opacity="0.06962228472380619"/>
<polygon points="416,77 424.6,82 424.6,92 416,97 407.4,92 407.4,82" fill="none" stroke="#39FF14" stroke-width="1" opacity="0.06840956611579704"/>
<polygon points="26,10 34.6,15 34.6,25 26,30 17.4,25 17.4,15" fill="none" stroke="#39FF14" stroke-width="1" opacity="0.04372477956199644"/>
<polygon points="479,48 487.6,53 487.6,63 479,68 470.4,63 470.4,53" fill="none" stroke="#39FF14" stroke-width="1" opacity="0.022440974029812558"/>
<polygon points="95,119 103.6,124 103.6,134 95,139 86.4,134 86.4,124" fill="none" stroke="#39FF14" stroke-width="1" opacity="0.06906062366165538"/>
<polygon points="778,131 786.6,136 786.6,146 778,151 769.4,146 769.4,136" fill="none" stroke="#39FF14" stroke-width="1" opacity="0.02767263531538315"/>
<polygon points="458,104 466.6,109 466.6,119 458,124 449.4,119 449.4,109" fill="none" stroke="#39FF14" stroke-width="1" opacity="0.07194406566308731"/>
<polygon points="823,132 831.6,137 831.6,147 823,152 814.4,147 814.4,137" fill="none" stroke="#39FF14" stroke-width="1" opacity="0.030788204468459375"/>
<polygon points="366,169 374.6,174 374.6,184 366,189 357.4,184 357.4,174" fill="none" stroke="#39FF14" stroke-width="1" opacity="0.040479731953088446"/>
<polygon points="236,62 244.6,67 244.6,77 236,82 227.4,77 227.4,67" fill="none" stroke="#39FF14" stroke-width="1" opacity="0.05273284921120838"/>
<polygon points="346,20 354.6,25 354.6,35 346,40 337.4,35 337.4,25" fill="none" stroke="#39FF14" stroke-width="1" opacity="0.02463349031952136"/>
</g>

  <!-- HUD Decorative elements -->
  <path d="M 20 20 L 40 20 L 50 30" fill="none" stroke="#39FF14" stroke-width="2" opacity="0.5"/>
  <path d="M 830 180 L 810 180 L 800 170" fill="none" stroke="#39FF14" stroke-width="2" opacity="0.5"/>

  <g clip-path="url(#dashClip)">
    <rect x="-160" y="0" width="160" height="200" fill="url(#scanlineGrad)">
      <animateTransform attributeName="transform" type="translate"
                        from="0 0" to="1010 0" dur="6s" repeatCount="indefinite"/>
    </rect>
  </g>

  <g font-family="'Consolas', 'Fira Code', monospace" text-anchor="middle">

    <!-- NETWORK STATUS -->
    <g transform="translate(130, 100)">
        <circle cx="0" cy="0" r="45" fill="none" stroke="#39FF14" stroke-width="2" stroke-dasharray="10 5">
            <animateTransform attributeName="transform" type="rotate" from="0" to="360" dur="10s" repeatCount="indefinite"/>
        </circle>
        <circle cx="0" cy="0" r="35" fill="#0d0d0d" />
        <text x="0" y="-60" font-size="12" fill="#aaaaaa" letter-spacing="2">ROOT.AUTH</text>
        <text x="0" y="70" font-size="14" fill="#ffffff" font-weight="bold">OPERATIONAL</text>
    </g>

    <!-- ACTIVE USERS -->
    <g transform="translate(330, 100)">
        <text x="0" y="-20" font-size="12" fill="#aaaaaa">CITIZENS</text>
        <text x="0" y="15" font-size="28" fill="#ffffff" font-weight="bold" filter="url(#textGlow)">14,424</text>
        <text x="0" y="35" font-size="10" fill="#777777">VERIFIED HUMANS</text>
    </g>

    <!-- REGISTERED AGENTS -->
    <g transform="translate(530, 100)">
        <text x="0" y="-20" font-size="12" fill="#aaaaaa">AGENTS</text>
        <text x="0" y="15" font-size="28" fill="#00d4ff" font-weight="bold" filter="url(#textGlow)">4,135</text>
        <text x="0" y="35" font-size="10" fill="#777777">REGISTERED DIDs</text>
    </g>

    <!-- TRANSACTIONS -->
    <g transform="translate(730, 100)">
        <text x="0" y="-20" font-size="12" fill="#aaaaaa">TRANSFERS</text>
        <text x="0" y="15" font-size="28" fill="#ffffff" font-weight="bold">40,535</text>
        <text x="0" y="35" font-size="10" fill="#777777">M2M SETTLEMENTS</text>
    </g>
  </g>

  <text x="425" y="185" font-family="'Consolas', 'Fira Code', monospace" font-size="10" fill="#aaaaaa" opacity="0.6" text-anchor="middle">AXIOMID PROJECTED TARGETS (ILLUSTRATIVE): 2026-07-19 01:45:21 UTC // SECURE_HANDSHAKE</text>
</svg>