<svg width="850" height="200" viewBox="0 0 850 200" xmlns="http://www.w3.org/2000/svg">
  <defs>
    <!-- Carbon Fiber Pattern -->
    <pattern id="carbonFiber" width="10" height="10" patternUnits="userSpaceOnUse">
        <rect width="10" height="10" fill="#050505"/>
        <path d="M0,0 L5,5 L10,0 L5,-5 Z M5,5 L10,10 L15,5 L10,0 Z M-5,5 L0,10 L5,5 L0,0 Z M0,10 L5,15 L10,10 L5,5 Z" fill="#0d0d0d"/>
    </pattern>
    <filter id="glassmorphism">
      <feGaussianBlur stdDeviation="3" result="blur" />
      <feColorMatrix type="matrix" values="1 0 0 0 0  0 1 0 0 0  0 0 1 0 0  0 0 0 18 -7" result="glow" />
      <feBlend in="SourceGraphic" in2="glow" mode="normal" />
    </filter>
    <filter id="textGlow">
      <feGaussianBlur stdDeviation="2" result="blur" />
      <feMerge>
        <feMergeNode in="blur"/>
        <feMergeNode in="SourceGraphic"/>
      </feMerge>
    </filter>
    <linearGradient id="neonBar" x1="0%" y1="0%" x2="100%" y2="0%">
        <stop offset="0%" stop-color="#111111"/>
        <stop offset="100%" stop-color="#39FF14"/>
    </linearGradient>
  </defs>

  <rect width="100%" height="100%" fill="url(#carbonFiber)" rx="12" stroke="#39FF14" stroke-width="1" stroke-opacity="0.3"/>
  <rect width="100%" height="100%" fill="#000000" opacity="0.6" rx="12" />
  <g><polygon points="498,129 506.6,134 506.6,144 498,149 489.4,144 489.4,134" fill="none" stroke="#39FF14" stroke-width="1" opacity="0.05819080883974567"/>
<polygon points="524,155 532.6,160 532.6,170 524,175 515.4,170 515.4,160" fill="none" stroke="#39FF14" stroke-width="1" opacity="0.07410546067759852"/>
<polygon points="453,161 461.6,166 461.6,176 453,181 444.4,176 444.4,166" fill="none" stroke="#39FF14" stroke-width="1" opacity="0.07549612769029017"/>
<polygon points="684,123 692.6,128 692.6,138 684,143 675.4,138 675.4,128" fill="none" stroke="#39FF14" stroke-width="1" opacity="0.07510733937357891"/>
<polygon points="238,99 246.6,104 246.6,114 238,119 229.4,114 229.4,104" fill="none" stroke="#39FF14" stroke-width="1" opacity="0.0781340288458768"/>
<polygon points="739,116 747.6,121 747.6,131 739,136 730.4,131 730.4,121" fill="none" stroke="#39FF14" stroke-width="1" opacity="0.07905967736299534"/>
<polygon points="570,190 578.6,195 578.6,205 570,210 561.4,205 561.4,195" fill="none" stroke="#39FF14" stroke-width="1" opacity="0.07432597011909003"/>
<polygon points="611,179 619.6,184 619.6,194 611,199 602.4,194 602.4,184" fill="none" stroke="#39FF14" stroke-width="1" opacity="0.07669922188756319"/>
<polygon points="801,111 809.6,116 809.6,126 801,131 792.4,126 792.4,116" fill="none" stroke="#39FF14" stroke-width="1" opacity="0.04229614248142484"/>
<polygon points="559,153 567.6,158 567.6,168 559,173 550.4,168 550.4,158" fill="none" stroke="#39FF14" stroke-width="1" opacity="0.06761784282058009"/>
<polygon points="410,16 418.6,21 418.6,31 410,36 401.4,31 401.4,21" fill="none" stroke="#39FF14" stroke-width="1" opacity="0.05279941116243178"/>
<polygon points="655,-4 663.6,1 663.6,11 655,16 646.4,11 646.4,1" fill="none" stroke="#39FF14" stroke-width="1" opacity="0.05708421072096931"/>
<polygon points="140,177 148.6,182 148.6,192 140,197 131.4,192 131.4,182" fill="none" stroke="#39FF14" stroke-width="1" opacity="0.06342243411634028"/>
<polygon points="170,188 178.6,193 178.6,203 170,208 161.4,203 161.4,193" fill="none" stroke="#39FF14" stroke-width="1" opacity="0.07680569327032452"/>
<polygon points="59,23 67.6,28 67.6,38 59,43 50.4,38 50.4,28" fill="none" stroke="#39FF14" stroke-width="1" opacity="0.0417021759538141"/>
<polygon points="600,113 608.6,118 608.6,128 600,133 591.4,128 591.4,118" fill="none" stroke="#39FF14" stroke-width="1" opacity="0.021048805473240877"/>
<polygon points="695,83 703.6,88 703.6,98 695,103 686.4,98 686.4,88" fill="none" stroke="#39FF14" stroke-width="1" opacity="0.07268943619600603"/>
<polygon points="598,116 606.6,121 606.6,131 598,136 589.4,131 589.4,121" fill="none" stroke="#39FF14" stroke-width="1" opacity="0.049539706834111"/>
<polygon points="402,45 410.6,50 410.6,60 402,65 393.4,60 393.4,50" fill="none" stroke="#39FF14" stroke-width="1" opacity="0.07177674925723893"/>
<polygon points="234,150 242.6,155 242.6,165 234,170 225.4,165 225.4,155" fill="none" stroke="#39FF14" stroke-width="1" opacity="0.07029283669259298"/>
<polygon points="714,40 722.6,45 722.6,55 714,60 705.4,55 705.4,45" fill="none" stroke="#39FF14" stroke-width="1" opacity="0.031762024422774884"/>
<polygon points="165,144 173.6,149 173.6,159 165,164 156.4,159 156.4,149" fill="none" stroke="#39FF14" stroke-width="1" opacity="0.023824845606532235"/>
<polygon points="712,98 720.6,103 720.6,113 712,118 703.4,113 703.4,103" fill="none" stroke="#39FF14" stroke-width="1" opacity="0.07306217093854277"/>
<polygon points="57,58 65.6,63 65.6,73 57,78 48.4,73 48.4,63" fill="none" stroke="#39FF14" stroke-width="1" opacity="0.027645987390387608"/>
<polygon points="522,141 530.6,146 530.6,156 522,161 513.4,156 513.4,146" fill="none" stroke="#39FF14" stroke-width="1" opacity="0.0399421682618027"/>
<polygon points="402,187 410.6,192 410.6,202 402,207 393.4,202 393.4,192" fill="none" stroke="#39FF14" stroke-width="1" opacity="0.06257141348609449"/>
<polygon points="749,141 757.6,146 757.6,156 749,161 740.4,156 740.4,146" fill="none" stroke="#39FF14" stroke-width="1" opacity="0.022392171655184555"/>
<polygon points="699,40 707.6,45 707.6,55 699,60 690.4,55 690.4,45" fill="none" stroke="#39FF14" stroke-width="1" opacity="0.03312572428264276"/>
<polygon points="701,182 709.6,187 709.6,197 701,202 692.4,197 692.4,187" fill="none" stroke="#39FF14" stroke-width="1" opacity="0.04794453726218259"/>
<polygon points="392,20 400.6,25 400.6,35 392,40 383.4,35 383.4,25" fill="none" stroke="#39FF14" stroke-width="1" opacity="0.03768605425304754"/>
</g>

  <!-- HUD Decorative elements -->
  <path d="M 20 20 L 40 20 L 50 30" fill="none" stroke="#39FF14" stroke-width="2" opacity="0.5"/>
  <path d="M 830 180 L 810 180 L 800 170" fill="none" stroke="#39FF14" stroke-width="2" opacity="0.5"/>
  <rect x="20" y="100" width="2" height="40" fill="#ffffff" opacity="0.4"/>
  <rect x="828" y="60" width="2" height="40" fill="#39FF14" opacity="0.6"/>

  <g font-family="'Consolas', 'Fira Code', monospace" text-anchor="middle">

    <!-- SYSTEM STATUS -->
    <g transform="translate(130, 100)">
        <circle cx="0" cy="0" r="45" fill="none" stroke="#111111" stroke-width="8" />
        <circle cx="0" cy="0" r="45" fill="none" stroke="#39FF14" stroke-width="2" stroke-dasharray="10 5">
            <animateTransform attributeName="transform" type="rotate" from="0" to="360" dur="10s" repeatCount="indefinite"/>
        </circle>
        <circle cx="0" cy="0" r="35" fill="#0d0d0d" />
        <circle cx="0" cy="0" r="6" fill="#39FF14" filter="url(#textGlow)">
            <animate attributeName="opacity" values="1;0.3;1" dur="2s" repeatCount="indefinite"/>
        </circle>
        <text x="0" y="-60" font-size="12" fill="#aaaaaa" letter-spacing="2">SYS.CORE</text>
        <text x="0" y="70" font-size="14" fill="#ffffff" font-weight="bold">ONLINE</text>
    </g>

    <!-- LIVE TRAFFIC -->
    <g transform="translate(330, 100)">
        <rect x="-60" y="-45" width="120" height="90" fill="#0a0a0a" rx="8" stroke="#39FF14" stroke-opacity="0.4" stroke-width="1"/>
        <text x="0" y="-20" font-size="12" fill="#aaaaaa">NETWORK LOAD</text>
        <text x="0" y="15" font-size="28" fill="#ffffff" font-weight="bold" filter="url(#textGlow)">7001</text>
        <text x="0" y="35" font-size="10" fill="#777777">ACTIVE SESSIONS</text>
    </g>

    <!-- ACTIVE AGENTS -->
    <g transform="translate(530, 100)">
        <rect x="-60" y="-45" width="120" height="90" fill="#0a0a0a" rx="8" stroke="#39FF14" stroke-opacity="0.4" stroke-width="1"/>
        <text x="0" y="-20" font-size="12" fill="#aaaaaa">SWARM ENTITIES</text>
        <text x="0" y="15" font-size="28" fill="#ffffff" font-weight="bold" filter="url(#textGlow)">187</text>
        <text x="0" y="35" font-size="10" fill="#777777">AUTONOMOUS</text>
    </g>

    <!-- UPTIME -->
    <g transform="translate(730, 100)">
        <path d="M -40 -35 L 40 -35 L 50 -25 L 50 35 L -40 35 L -50 25 Z" fill="#0a0a0a" stroke="#39FF14" stroke-opacity="0.4" stroke-width="1"/>
        <text x="0" y="-15" font-size="12" fill="#aaaaaa">CONTINUITY</text>
        <text x="0" y="15" font-size="24" fill="#ffffff" font-weight="bold">289<tspan font-size="14" fill="#777777">d</tspan></text>
        <rect x="-35" y="25" width="70" height="4" fill="url(#neonBar)" rx="2"/>
    </g>
  </g>

  <text x="425" y="185" font-family="'Consolas', 'Fira Code', monospace" font-size="10" fill="#aaaaaa" opacity="0.6" text-anchor="middle">LAST TELEMETRY PING: 2026-05-02 00:48:31 UTC // ENCRYPTED_TUNNEL</text>
</svg>