<svg width="850" height="200" viewBox="0 0 850 200" xmlns="http://www.w3.org/2000/svg">
  <defs>
    <pattern id="carbonFiber" width="10" height="10" patternUnits="userSpaceOnUse">
        <rect width="10" height="10" fill="#050505"/>
        <path d="M0,0 L5,5 L10,0 L5,-5 Z M5,5 L10,10 L15,5 L10,0 Z M-5,5 L0,10 L5,5 L0,0 Z M0,10 L5,15 L10,10 L5,5 Z" fill="#0d0d0d"/>
    </pattern>
    <filter id="textGlow">
      <feGaussianBlur stdDeviation="2" result="blur" />
      <feMerge>
        <feMergeNode in="blur"/>
        <feMergeNode in="SourceGraphic"/>
      </feMerge>
    </filter>
    <linearGradient id="neonBar" x1="0%" y1="0%" x2="100%" y2="0%">
        <stop offset="0%" stop-color="#111111"/>
        <stop offset="100%" stop-color="#39FF14"/>
    </linearGradient>
    <linearGradient id="scanlineGrad" x1="0%" y1="0%" x2="100%" y2="0%">
        <stop offset="0%" stop-color="#39FF14" stop-opacity="0"/>
        <stop offset="50%" stop-color="#39FF14" stop-opacity="0.18"/>
        <stop offset="100%" stop-color="#39FF14" stop-opacity="0"/>
    </linearGradient>
    <clipPath id="dashClip">
        <rect x="0" y="0" width="850" height="200" rx="12"/>
    </clipPath>
  </defs>

  <rect width="100%" height="100%" fill="url(#carbonFiber)" rx="12" stroke="#39FF14" stroke-width="1" stroke-opacity="0.3"/>
  <rect width="100%" height="100%" fill="#000000" opacity="0.6" rx="12" />
  <g><polygon points="728,173 736.6,178 736.6,188 728,193 719.4,188 719.4,178" fill="none" stroke="#39FF14" stroke-width="1" opacity="0.059651762627417004"/>
<polygon points="342,129 350.6,134 350.6,144 342,149 333.4,144 333.4,134" fill="none" stroke="#39FF14" stroke-width="1" opacity="0.03544505310559298"/>
<polygon points="359,45 367.6,50 367.6,60 359,65 350.4,60 350.4,50" fill="none" stroke="#39FF14" stroke-width="1" opacity="0.0542367358450062"/>
<polygon points="409,13 417.6,18 417.6,28 409,33 400.4,28 400.4,18" fill="none" stroke="#39FF14" stroke-width="1" opacity="0.05545658536570994"/>
<polygon points="731,51 739.6,56 739.6,66 731,71 722.4,66 722.4,56" fill="none" stroke="#39FF14" stroke-width="1" opacity="0.05991372220366979"/>
<polygon points="438,84 446.6,89 446.6,99 438,104 429.4,99 429.4,89" fill="none" stroke="#39FF14" stroke-width="1" opacity="0.06824748880526912"/>
<polygon points="573,110 581.6,115 581.6,125 573,130 564.4,125 564.4,115" fill="none" stroke="#39FF14" stroke-width="1" opacity="0.05735007668428409"/>
<polygon points="3,48 11.6,53 11.6,63 3,68 -5.6,63 -5.6,53" fill="none" stroke="#39FF14" stroke-width="1" opacity="0.021394883069820715"/>
<polygon points="428,-1 436.6,4 436.6,14 428,19 419.4,14 419.4,4" fill="none" stroke="#39FF14" stroke-width="1" opacity="0.06765318113432109"/>
<polygon points="722,187 730.6,192 730.6,202 722,207 713.4,202 713.4,192" fill="none" stroke="#39FF14" stroke-width="1" opacity="0.052587381107951414"/>
<polygon points="238,98 246.6,103 246.6,113 238,118 229.4,113 229.4,103" fill="none" stroke="#39FF14" stroke-width="1" opacity="0.057084608468196824"/>
<polygon points="752,1 760.6,6 760.6,16 752,21 743.4,16 743.4,6" fill="none" stroke="#39FF14" stroke-width="1" opacity="0.033246540387972326"/>
<polygon points="644,54 652.6,59 652.6,69 644,74 635.4,69 635.4,59" fill="none" stroke="#39FF14" stroke-width="1" opacity="0.05885652972124461"/>
<polygon points="604,125 612.6,130 612.6,140 604,145 595.4,140 595.4,130" fill="none" stroke="#39FF14" stroke-width="1" opacity="0.026883416092077887"/>
<polygon points="2,118 10.6,123 10.6,133 2,138 -6.6,133 -6.6,123" fill="none" stroke="#39FF14" stroke-width="1" opacity="0.0593741120710016"/>
<polygon points="581,54 589.6,59 589.6,69 581,74 572.4,69 572.4,59" fill="none" stroke="#39FF14" stroke-width="1" opacity="0.07028430914955755"/>
<polygon points="460,13 468.6,18 468.6,28 460,33 451.4,28 451.4,18" fill="none" stroke="#39FF14" stroke-width="1" opacity="0.06625162851742264"/>
<polygon points="130,73 138.6,78 138.6,88 130,93 121.4,88 121.4,78" fill="none" stroke="#39FF14" stroke-width="1" opacity="0.05158445920375987"/>
<polygon points="502,25 510.6,30 510.6,40 502,45 493.4,40 493.4,30" fill="none" stroke="#39FF14" stroke-width="1" opacity="0.057943744158184346"/>
<polygon points="299,56 307.6,61 307.6,71 299,76 290.4,71 290.4,61" fill="none" stroke="#39FF14" stroke-width="1" opacity="0.04288229292490174"/>
<polygon points="690,59 698.6,64 698.6,74 690,79 681.4,74 681.4,64" fill="none" stroke="#39FF14" stroke-width="1" opacity="0.03783500334338573"/>
<polygon points="364,189 372.6,194 372.6,204 364,209 355.4,204 355.4,194" fill="none" stroke="#39FF14" stroke-width="1" opacity="0.04803234825161537"/>
<polygon points="359,167 367.6,172 367.6,182 359,187 350.4,182 350.4,172" fill="none" stroke="#39FF14" stroke-width="1" opacity="0.027987395111308502"/>
<polygon points="49,115 57.6,120 57.6,130 49,135 40.4,130 40.4,120" fill="none" stroke="#39FF14" stroke-width="1" opacity="0.04805799311494516"/>
<polygon points="608,70 616.6,75 616.6,85 608,90 599.4,85 599.4,75" fill="none" stroke="#39FF14" stroke-width="1" opacity="0.05284308846790123"/>
<polygon points="363,90 371.6,95 371.6,105 363,110 354.4,105 354.4,95" fill="none" stroke="#39FF14" stroke-width="1" opacity="0.05754090692552688"/>
<polygon points="153,37 161.6,42 161.6,52 153,57 144.4,52 144.4,42" fill="none" stroke="#39FF14" stroke-width="1" opacity="0.03879032538387754"/>
<polygon points="370,46 378.6,51 378.6,61 370,66 361.4,61 361.4,51" fill="none" stroke="#39FF14" stroke-width="1" opacity="0.02250986780601559"/>
<polygon points="480,154 488.6,159 488.6,169 480,174 471.4,169 471.4,159" fill="none" stroke="#39FF14" stroke-width="1" opacity="0.03219067628859028"/>
<polygon points="326,-8 334.6,-3 334.6,7 326,12 317.4,7 317.4,-3" fill="none" stroke="#39FF14" stroke-width="1" opacity="0.05807464461495915"/>
</g>

  <!-- HUD Decorative elements -->
  <path d="M 20 20 L 40 20 L 50 30" fill="none" stroke="#39FF14" stroke-width="2" opacity="0.5"/>
  <path d="M 830 180 L 810 180 L 800 170" fill="none" stroke="#39FF14" stroke-width="2" opacity="0.5"/>

  <g clip-path="url(#dashClip)">
    <rect x="-160" y="0" width="160" height="200" fill="url(#scanlineGrad)">
      <animateTransform attributeName="transform" type="translate"
                        from="0 0" to="1010 0" dur="6s" repeatCount="indefinite"/>
    </rect>
  </g>

  <g font-family="'Consolas', 'Fira Code', monospace" text-anchor="middle">

    <!-- NETWORK STATUS -->
    <g transform="translate(130, 100)">
        <circle cx="0" cy="0" r="45" fill="none" stroke="#39FF14" stroke-width="2" stroke-dasharray="10 5">
            <animateTransform attributeName="transform" type="rotate" from="0" to="360" dur="10s" repeatCount="indefinite"/>
        </circle>
        <circle cx="0" cy="0" r="35" fill="#0d0d0d" />
        <text x="0" y="-60" font-size="12" fill="#aaaaaa" letter-spacing="2">ROOT.AUTH</text>
        <text x="0" y="70" font-size="14" fill="#ffffff" font-weight="bold">OPERATIONAL</text>
    </g>

    <!-- ACTIVE USERS -->
    <g transform="translate(330, 100)">
        <text x="0" y="-20" font-size="12" fill="#aaaaaa">CITIZENS</text>
        <text x="0" y="15" font-size="28" fill="#ffffff" font-weight="bold" filter="url(#textGlow)">13,330</text>
        <text x="0" y="35" font-size="10" fill="#777777">VERIFIED HUMANS</text>
    </g>

    <!-- REGISTERED AGENTS -->
    <g transform="translate(530, 100)">
        <text x="0" y="-20" font-size="12" fill="#aaaaaa">AGENTS</text>
        <text x="0" y="15" font-size="28" fill="#00d4ff" font-weight="bold" filter="url(#textGlow)">4,301</text>
        <text x="0" y="35" font-size="10" fill="#777777">REGISTERED DIDs</text>
    </g>

    <!-- TRANSACTIONS -->
    <g transform="translate(730, 100)">
        <text x="0" y="-20" font-size="12" fill="#aaaaaa">TRANSFERS</text>
        <text x="0" y="15" font-size="28" fill="#ffffff" font-weight="bold">41,328</text>
        <text x="0" y="35" font-size="10" fill="#777777">M2M SETTLEMENTS</text>
    </g>
  </g>

  <text x="425" y="185" font-family="'Consolas', 'Fira Code', monospace" font-size="10" fill="#aaaaaa" opacity="0.6" text-anchor="middle">AXIOMID PROJECTED TARGETS (ILLUSTRATIVE): 2026-07-11 07:39:48 UTC // SECURE_HANDSHAKE</text>
</svg>