<svg width="850" height="200" viewBox="0 0 850 200" xmlns="http://www.w3.org/2000/svg">
  <defs>
    <!-- Carbon Fiber Pattern -->
    <pattern id="carbonFiber" width="10" height="10" patternUnits="userSpaceOnUse">
        <rect width="10" height="10" fill="#050505"/>
        <path d="M0,0 L5,5 L10,0 L5,-5 Z M5,5 L10,10 L15,5 L10,0 Z M-5,5 L0,10 L5,5 L0,0 Z M0,10 L5,15 L10,10 L5,5 Z" fill="#0d0d0d"/>
    </pattern>
    <filter id="glassmorphism">
      <feGaussianBlur stdDeviation="3" result="blur" />
      <feColorMatrix type="matrix" values="1 0 0 0 0  0 1 0 0 0  0 0 1 0 0  0 0 0 18 -7" result="glow" />
      <feBlend in="SourceGraphic" in2="glow" mode="normal" />
    </filter>
    <filter id="textGlow">
      <feGaussianBlur stdDeviation="2" result="blur" />
      <feMerge>
        <feMergeNode in="blur"/>
        <feMergeNode in="SourceGraphic"/>
      </feMerge>
    </filter>
    <linearGradient id="neonBar" x1="0%" y1="0%" x2="100%" y2="0%">
        <stop offset="0%" stop-color="#111111"/>
        <stop offset="100%" stop-color="#39FF14"/>
    </linearGradient>
  </defs>

  <rect width="100%" height="100%" fill="url(#carbonFiber)" rx="12" stroke="#39FF14" stroke-width="1" stroke-opacity="0.3"/>
  <rect width="100%" height="100%" fill="#000000" opacity="0.6" rx="12" />
  <g><polygon points="36,70 44.6,75 44.6,85 36,90 27.4,85 27.4,75" fill="none" stroke="#39FF14" stroke-width="1" opacity="0.03220379023979529"/>
<polygon points="132,-7 140.6,-2 140.6,8 132,13 123.4,8 123.4,-2" fill="none" stroke="#39FF14" stroke-width="1" opacity="0.02211479470627951"/>
<polygon points="579,13 587.6,18 587.6,28 579,33 570.4,28 570.4,18" fill="none" stroke="#39FF14" stroke-width="1" opacity="0.06827104452971555"/>
<polygon points="218,62 226.6,67 226.6,77 218,82 209.4,77 209.4,67" fill="none" stroke="#39FF14" stroke-width="1" opacity="0.07017801787639637"/>
<polygon points="795,136 803.6,141 803.6,151 795,156 786.4,151 786.4,141" fill="none" stroke="#39FF14" stroke-width="1" opacity="0.029176943061407945"/>
<polygon points="287,169 295.6,174 295.6,184 287,189 278.4,184 278.4,174" fill="none" stroke="#39FF14" stroke-width="1" opacity="0.04545181575982395"/>
<polygon points="535,108 543.6,113 543.6,123 535,128 526.4,123 526.4,113" fill="none" stroke="#39FF14" stroke-width="1" opacity="0.03382240569206951"/>
<polygon points="639,178 647.6,183 647.6,193 639,198 630.4,193 630.4,183" fill="none" stroke="#39FF14" stroke-width="1" opacity="0.07333876873733634"/>
<polygon points="812,4 820.6,9 820.6,19 812,24 803.4,19 803.4,9" fill="none" stroke="#39FF14" stroke-width="1" opacity="0.0651321428758317"/>
<polygon points="418,84 426.6,89 426.6,99 418,104 409.4,99 409.4,89" fill="none" stroke="#39FF14" stroke-width="1" opacity="0.0684471705559761"/>
<polygon points="76,91 84.6,96 84.6,106 76,111 67.4,106 67.4,96" fill="none" stroke="#39FF14" stroke-width="1" opacity="0.06526461129493702"/>
<polygon points="285,14 293.6,19 293.6,29 285,34 276.4,29 276.4,19" fill="none" stroke="#39FF14" stroke-width="1" opacity="0.05131167747944902"/>
<polygon points="347,71 355.6,76 355.6,86 347,91 338.4,86 338.4,76" fill="none" stroke="#39FF14" stroke-width="1" opacity="0.024823618611591686"/>
<polygon points="489,26 497.6,31 497.6,41 489,46 480.4,41 480.4,31" fill="none" stroke="#39FF14" stroke-width="1" opacity="0.045933412708433125"/>
<polygon points="729,64 737.6,69 737.6,79 729,84 720.4,79 720.4,69" fill="none" stroke="#39FF14" stroke-width="1" opacity="0.027221370026494423"/>
<polygon points="155,188 163.6,193 163.6,203 155,208 146.4,203 146.4,193" fill="none" stroke="#39FF14" stroke-width="1" opacity="0.04572076291126784"/>
<polygon points="754,62 762.6,67 762.6,77 754,82 745.4,77 745.4,67" fill="none" stroke="#39FF14" stroke-width="1" opacity="0.06713655694461779"/>
<polygon points="489,71 497.6,76 497.6,86 489,91 480.4,86 480.4,76" fill="none" stroke="#39FF14" stroke-width="1" opacity="0.0647302046505778"/>
<polygon points="144,84 152.6,89 152.6,99 144,104 135.4,99 135.4,89" fill="none" stroke="#39FF14" stroke-width="1" opacity="0.027918916621015297"/>
<polygon points="641,155 649.6,160 649.6,170 641,175 632.4,170 632.4,160" fill="none" stroke="#39FF14" stroke-width="1" opacity="0.03624570197049823"/>
<polygon points="820,151 828.6,156 828.6,166 820,171 811.4,166 811.4,156" fill="none" stroke="#39FF14" stroke-width="1" opacity="0.061738638040213484"/>
<polygon points="81,126 89.6,131 89.6,141 81,146 72.4,141 72.4,131" fill="none" stroke="#39FF14" stroke-width="1" opacity="0.04288242525374803"/>
<polygon points="505,148 513.6,153 513.6,163 505,168 496.4,163 496.4,153" fill="none" stroke="#39FF14" stroke-width="1" opacity="0.040844474312721646"/>
<polygon points="439,183 447.6,188 447.6,198 439,203 430.4,198 430.4,188" fill="none" stroke="#39FF14" stroke-width="1" opacity="0.04779277562390265"/>
<polygon points="136,42 144.6,47 144.6,57 136,62 127.4,57 127.4,47" fill="none" stroke="#39FF14" stroke-width="1" opacity="0.053309576594775504"/>
<polygon points="550,0 558.6,5 558.6,15 550,20 541.4,15 541.4,5" fill="none" stroke="#39FF14" stroke-width="1" opacity="0.06442544187618135"/>
<polygon points="352,20 360.6,25 360.6,35 352,40 343.4,35 343.4,25" fill="none" stroke="#39FF14" stroke-width="1" opacity="0.07482533564849933"/>
<polygon points="704,15 712.6,20 712.6,30 704,35 695.4,30 695.4,20" fill="none" stroke="#39FF14" stroke-width="1" opacity="0.06638246555752339"/>
<polygon points="190,109 198.6,114 198.6,124 190,129 181.4,124 181.4,114" fill="none" stroke="#39FF14" stroke-width="1" opacity="0.07781150477123328"/>
<polygon points="734,37 742.6,42 742.6,52 734,57 725.4,52 725.4,42" fill="none" stroke="#39FF14" stroke-width="1" opacity="0.06723762830865106"/>
</g>

  <!-- HUD Decorative elements -->
  <path d="M 20 20 L 40 20 L 50 30" fill="none" stroke="#39FF14" stroke-width="2" opacity="0.5"/>
  <path d="M 830 180 L 810 180 L 800 170" fill="none" stroke="#39FF14" stroke-width="2" opacity="0.5"/>
  <rect x="20" y="100" width="2" height="40" fill="#ffffff" opacity="0.4"/>
  <rect x="828" y="60" width="2" height="40" fill="#39FF14" opacity="0.6"/>

  <g font-family="'Consolas', 'Fira Code', monospace" text-anchor="middle">

    <!-- SYSTEM STATUS -->
    <g transform="translate(130, 100)">
        <circle cx="0" cy="0" r="45" fill="none" stroke="#111111" stroke-width="8" />
        <circle cx="0" cy="0" r="45" fill="none" stroke="#39FF14" stroke-width="2" stroke-dasharray="10 5">
            <animateTransform attributeName="transform" type="rotate" from="0" to="360" dur="10s" repeatCount="indefinite"/>
        </circle>
        <circle cx="0" cy="0" r="35" fill="#0d0d0d" />
        <circle cx="0" cy="0" r="6" fill="#39FF14" filter="url(#textGlow)">
            <animate attributeName="opacity" values="1;0.3;1" dur="2s" repeatCount="indefinite"/>
        </circle>
        <text x="0" y="-60" font-size="12" fill="#aaaaaa" letter-spacing="2">SYS.CORE</text>
        <text x="0" y="70" font-size="14" fill="#ffffff" font-weight="bold">ONLINE</text>
    </g>

    <!-- LIVE TRAFFIC -->
    <g transform="translate(330, 100)">
        <rect x="-60" y="-45" width="120" height="90" fill="#0a0a0a" rx="8" stroke="#39FF14" stroke-opacity="0.4" stroke-width="1"/>
        <text x="0" y="-20" font-size="12" fill="#aaaaaa">NETWORK LOAD</text>
        <text x="0" y="15" font-size="28" fill="#ffffff" font-weight="bold" filter="url(#textGlow)">7124</text>
        <text x="0" y="35" font-size="10" fill="#777777">ACTIVE SESSIONS</text>
    </g>

    <!-- ACTIVE AGENTS -->
    <g transform="translate(530, 100)">
        <rect x="-60" y="-45" width="120" height="90" fill="#0a0a0a" rx="8" stroke="#39FF14" stroke-opacity="0.4" stroke-width="1"/>
        <text x="0" y="-20" font-size="12" fill="#aaaaaa">SWARM ENTITIES</text>
        <text x="0" y="15" font-size="28" fill="#ffffff" font-weight="bold" filter="url(#textGlow)">115</text>
        <text x="0" y="35" font-size="10" fill="#777777">AUTONOMOUS</text>
    </g>

    <!-- UPTIME -->
    <g transform="translate(730, 100)">
        <path d="M -40 -35 L 40 -35 L 50 -25 L 50 35 L -40 35 L -50 25 Z" fill="#0a0a0a" stroke="#39FF14" stroke-opacity="0.4" stroke-width="1"/>
        <text x="0" y="-15" font-size="12" fill="#aaaaaa">CONTINUITY</text>
        <text x="0" y="15" font-size="24" fill="#ffffff" font-weight="bold">230<tspan font-size="14" fill="#777777">d</tspan></text>
        <rect x="-35" y="25" width="70" height="4" fill="url(#neonBar)" rx="2"/>
    </g>
  </g>

  <text x="425" y="185" font-family="'Consolas', 'Fira Code', monospace" font-size="10" fill="#aaaaaa" opacity="0.6" text-anchor="middle">LAST TELEMETRY PING: 2026-05-13 12:38:54 UTC // ENCRYPTED_TUNNEL</text>
</svg>