<svg width="850" height="200" viewBox="0 0 850 200" xmlns="http://www.w3.org/2000/svg">
  <defs>
    <pattern id="carbonFiber" width="10" height="10" patternUnits="userSpaceOnUse">
        <rect width="10" height="10" fill="#050505"/>
        <path d="M0,0 L5,5 L10,0 L5,-5 Z M5,5 L10,10 L15,5 L10,0 Z M-5,5 L0,10 L5,5 L0,0 Z M0,10 L5,15 L10,10 L5,5 Z" fill="#0d0d0d"/>
    </pattern>
    <filter id="textGlow">
      <feGaussianBlur stdDeviation="2" result="blur" />
      <feMerge>
        <feMergeNode in="blur"/>
        <feMergeNode in="SourceGraphic"/>
      </feMerge>
    </filter>
    <linearGradient id="neonBar" x1="0%" y1="0%" x2="100%" y2="0%">
        <stop offset="0%" stop-color="#111111"/>
        <stop offset="100%" stop-color="#39FF14"/>
    </linearGradient>
    <linearGradient id="scanlineGrad" x1="0%" y1="0%" x2="100%" y2="0%">
        <stop offset="0%" stop-color="#39FF14" stop-opacity="0"/>
        <stop offset="50%" stop-color="#39FF14" stop-opacity="0.18"/>
        <stop offset="100%" stop-color="#39FF14" stop-opacity="0"/>
    </linearGradient>
    <clipPath id="dashClip">
        <rect x="0" y="0" width="850" height="200" rx="12"/>
    </clipPath>
  </defs>

  <rect width="100%" height="100%" fill="url(#carbonFiber)" rx="12" stroke="#39FF14" stroke-width="1" stroke-opacity="0.3"/>
  <rect width="100%" height="100%" fill="#000000" opacity="0.6" rx="12" />
  <g><polygon points="354,44 362.6,49 362.6,59 354,64 345.4,59 345.4,49" fill="none" stroke="#39FF14" stroke-width="1" opacity="0.06362770241282259"/>
<polygon points="115,21 123.6,26 123.6,36 115,41 106.4,36 106.4,26" fill="none" stroke="#39FF14" stroke-width="1" opacity="0.05239958435400881"/>
<polygon points="221,17 229.6,22 229.6,32 221,37 212.4,32 212.4,22" fill="none" stroke="#39FF14" stroke-width="1" opacity="0.023547045668941325"/>
<polygon points="409,61 417.6,66 417.6,76 409,81 400.4,76 400.4,66" fill="none" stroke="#39FF14" stroke-width="1" opacity="0.027662951640024337"/>
<polygon points="303,69 311.6,74 311.6,84 303,89 294.4,84 294.4,74" fill="none" stroke="#39FF14" stroke-width="1" opacity="0.021755499168022198"/>
<polygon points="782,19 790.6,24 790.6,34 782,39 773.4,34 773.4,24" fill="none" stroke="#39FF14" stroke-width="1" opacity="0.07628761913353065"/>
<polygon points="86,34 94.6,39 94.6,49 86,54 77.4,49 77.4,39" fill="none" stroke="#39FF14" stroke-width="1" opacity="0.047589076796920066"/>
<polygon points="247,60 255.6,65 255.6,75 247,80 238.4,75 238.4,65" fill="none" stroke="#39FF14" stroke-width="1" opacity="0.040744608315806355"/>
<polygon points="473,4 481.6,9 481.6,19 473,24 464.4,19 464.4,9" fill="none" stroke="#39FF14" stroke-width="1" opacity="0.079503107618116"/>
<polygon points="161,97 169.6,102 169.6,112 161,117 152.4,112 152.4,102" fill="none" stroke="#39FF14" stroke-width="1" opacity="0.026940601263520075"/>
<polygon points="105,78 113.6,83 113.6,93 105,98 96.4,93 96.4,83" fill="none" stroke="#39FF14" stroke-width="1" opacity="0.06204540074621531"/>
<polygon points="621,30 629.6,35 629.6,45 621,50 612.4,45 612.4,35" fill="none" stroke="#39FF14" stroke-width="1" opacity="0.05480885204532529"/>
<polygon points="831,183 839.6,188 839.6,198 831,203 822.4,198 822.4,188" fill="none" stroke="#39FF14" stroke-width="1" opacity="0.04402105794937522"/>
<polygon points="205,38 213.6,43 213.6,53 205,58 196.4,53 196.4,43" fill="none" stroke="#39FF14" stroke-width="1" opacity="0.07040224625062222"/>
<polygon points="165,58 173.6,63 173.6,73 165,78 156.4,73 156.4,63" fill="none" stroke="#39FF14" stroke-width="1" opacity="0.03508183857680205"/>
<polygon points="792,4 800.6,9 800.6,19 792,24 783.4,19 783.4,9" fill="none" stroke="#39FF14" stroke-width="1" opacity="0.07432011651620075"/>
<polygon points="382,29 390.6,34 390.6,44 382,49 373.4,44 373.4,34" fill="none" stroke="#39FF14" stroke-width="1" opacity="0.025169370892667582"/>
<polygon points="671,143 679.6,148 679.6,158 671,163 662.4,158 662.4,148" fill="none" stroke="#39FF14" stroke-width="1" opacity="0.03958749281132945"/>
<polygon points="145,74 153.6,79 153.6,89 145,94 136.4,89 136.4,79" fill="none" stroke="#39FF14" stroke-width="1" opacity="0.036594811852693636"/>
<polygon points="409,51 417.6,56 417.6,66 409,71 400.4,66 400.4,56" fill="none" stroke="#39FF14" stroke-width="1" opacity="0.026798765656378842"/>
<polygon points="324,165 332.6,170 332.6,180 324,185 315.4,180 315.4,170" fill="none" stroke="#39FF14" stroke-width="1" opacity="0.0747566696038395"/>
<polygon points="604,143 612.6,148 612.6,158 604,163 595.4,158 595.4,148" fill="none" stroke="#39FF14" stroke-width="1" opacity="0.06486971110776042"/>
<polygon points="188,167 196.6,172 196.6,182 188,187 179.4,182 179.4,172" fill="none" stroke="#39FF14" stroke-width="1" opacity="0.07095077891144774"/>
<polygon points="454,91 462.6,96 462.6,106 454,111 445.4,106 445.4,96" fill="none" stroke="#39FF14" stroke-width="1" opacity="0.06444601231143858"/>
<polygon points="480,78 488.6,83 488.6,93 480,98 471.4,93 471.4,83" fill="none" stroke="#39FF14" stroke-width="1" opacity="0.07381513559279088"/>
<polygon points="95,179 103.6,184 103.6,194 95,199 86.4,194 86.4,184" fill="none" stroke="#39FF14" stroke-width="1" opacity="0.046867752663048434"/>
<polygon points="246,105 254.6,110 254.6,120 246,125 237.4,120 237.4,110" fill="none" stroke="#39FF14" stroke-width="1" opacity="0.041620837717082214"/>
<polygon points="388,89 396.6,94 396.6,104 388,109 379.4,104 379.4,94" fill="none" stroke="#39FF14" stroke-width="1" opacity="0.0407116711978256"/>
<polygon points="829,118 837.6,123 837.6,133 829,138 820.4,133 820.4,123" fill="none" stroke="#39FF14" stroke-width="1" opacity="0.07247722876202466"/>
<polygon points="656,125 664.6,130 664.6,140 656,145 647.4,140 647.4,130" fill="none" stroke="#39FF14" stroke-width="1" opacity="0.035679081595020944"/>
</g>

  <!-- HUD Decorative elements -->
  <path d="M 20 20 L 40 20 L 50 30" fill="none" stroke="#39FF14" stroke-width="2" opacity="0.5"/>
  <path d="M 830 180 L 810 180 L 800 170" fill="none" stroke="#39FF14" stroke-width="2" opacity="0.5"/>

  <g clip-path="url(#dashClip)">
    <rect x="-160" y="0" width="160" height="200" fill="url(#scanlineGrad)">
      <animateTransform attributeName="transform" type="translate"
                        from="0 0" to="1010 0" dur="6s" repeatCount="indefinite"/>
    </rect>
  </g>

  <g font-family="'Consolas', 'Fira Code', monospace" text-anchor="middle">

    <!-- NETWORK STATUS -->
    <g transform="translate(130, 100)">
        <circle cx="0" cy="0" r="45" fill="none" stroke="#39FF14" stroke-width="2" stroke-dasharray="10 5">
            <animateTransform attributeName="transform" type="rotate" from="0" to="360" dur="10s" repeatCount="indefinite"/>
        </circle>
        <circle cx="0" cy="0" r="35" fill="#0d0d0d" />
        <text x="0" y="-60" font-size="12" fill="#aaaaaa" letter-spacing="2">ROOT.AUTH</text>
        <text x="0" y="70" font-size="14" fill="#ffffff" font-weight="bold">OPERATIONAL</text>
    </g>

    <!-- ACTIVE USERS -->
    <g transform="translate(330, 100)">
        <text x="0" y="-20" font-size="12" fill="#aaaaaa">CITIZENS</text>
        <text x="0" y="15" font-size="28" fill="#ffffff" font-weight="bold" filter="url(#textGlow)">12,939</text>
        <text x="0" y="35" font-size="10" fill="#777777">VERIFIED HUMANS</text>
    </g>

    <!-- REGISTERED AGENTS -->
    <g transform="translate(530, 100)">
        <text x="0" y="-20" font-size="12" fill="#aaaaaa">AGENTS</text>
        <text x="0" y="15" font-size="28" fill="#00d4ff" font-weight="bold" filter="url(#textGlow)">4,746</text>
        <text x="0" y="35" font-size="10" fill="#777777">REGISTERED DIDs</text>
    </g>

    <!-- TRANSACTIONS -->
    <g transform="translate(730, 100)">
        <text x="0" y="-20" font-size="12" fill="#aaaaaa">TRANSFERS</text>
        <text x="0" y="15" font-size="28" fill="#ffffff" font-weight="bold">26,041</text>
        <text x="0" y="35" font-size="10" fill="#777777">M2M SETTLEMENTS</text>
    </g>
  </g>

  <text x="425" y="185" font-family="'Consolas', 'Fira Code', monospace" font-size="10" fill="#aaaaaa" opacity="0.6" text-anchor="middle">AXIOMID PROJECTED TARGETS (ILLUSTRATIVE): 2026-07-22 09:50:11 UTC // SECURE_HANDSHAKE</text>
</svg>