<svg width="850" height="200" viewBox="0 0 850 200" xmlns="http://www.w3.org/2000/svg">
  <defs>
    <pattern id="carbonFiber" width="10" height="10" patternUnits="userSpaceOnUse">
        <rect width="10" height="10" fill="#050505"/>
        <path d="M0,0 L5,5 L10,0 L5,-5 Z M5,5 L10,10 L15,5 L10,0 Z M-5,5 L0,10 L5,5 L0,0 Z M0,10 L5,15 L10,10 L5,5 Z" fill="#0d0d0d"/>
    </pattern>
    <filter id="textGlow">
      <feGaussianBlur stdDeviation="2" result="blur" />
      <feMerge>
        <feMergeNode in="blur"/>
        <feMergeNode in="SourceGraphic"/>
      </feMerge>
    </filter>
    <linearGradient id="neonBar" x1="0%" y1="0%" x2="100%" y2="0%">
        <stop offset="0%" stop-color="#111111"/>
        <stop offset="100%" stop-color="#39FF14"/>
    </linearGradient>
    <linearGradient id="scanlineGrad" x1="0%" y1="0%" x2="100%" y2="0%">
        <stop offset="0%" stop-color="#39FF14" stop-opacity="0"/>
        <stop offset="50%" stop-color="#39FF14" stop-opacity="0.18"/>
        <stop offset="100%" stop-color="#39FF14" stop-opacity="0"/>
    </linearGradient>
    <clipPath id="dashClip">
        <rect x="0" y="0" width="850" height="200" rx="12"/>
    </clipPath>
  </defs>

  <rect width="100%" height="100%" fill="url(#carbonFiber)" rx="12" stroke="#39FF14" stroke-width="1" stroke-opacity="0.3"/>
  <rect width="100%" height="100%" fill="#000000" opacity="0.6" rx="12" />
  <g><polygon points="55,100 63.6,105 63.6,115 55,120 46.4,115 46.4,105" fill="none" stroke="#39FF14" stroke-width="1" opacity="0.0649296603478192"/>
<polygon points="169,84 177.6,89 177.6,99 169,104 160.4,99 160.4,89" fill="none" stroke="#39FF14" stroke-width="1" opacity="0.04952552202668887"/>
<polygon points="125,18 133.6,23 133.6,33 125,38 116.4,33 116.4,23" fill="none" stroke="#39FF14" stroke-width="1" opacity="0.04835713201606814"/>
<polygon points="172,43 180.6,48 180.6,58 172,63 163.4,58 163.4,48" fill="none" stroke="#39FF14" stroke-width="1" opacity="0.02059088124863031"/>
<polygon points="538,23 546.6,28 546.6,38 538,43 529.4,38 529.4,28" fill="none" stroke="#39FF14" stroke-width="1" opacity="0.022677039567383622"/>
<polygon points="158,62 166.6,67 166.6,77 158,82 149.4,77 149.4,67" fill="none" stroke="#39FF14" stroke-width="1" opacity="0.044010620217161206"/>
<polygon points="34,117 42.6,122 42.6,132 34,137 25.4,132 25.4,122" fill="none" stroke="#39FF14" stroke-width="1" opacity="0.055448658708923265"/>
<polygon points="226,35 234.6,40 234.6,50 226,55 217.4,50 217.4,40" fill="none" stroke="#39FF14" stroke-width="1" opacity="0.041743607186678654"/>
<polygon points="833,71 841.6,76 841.6,86 833,91 824.4,86 824.4,76" fill="none" stroke="#39FF14" stroke-width="1" opacity="0.06813541368645923"/>
<polygon points="746,109 754.6,114 754.6,124 746,129 737.4,124 737.4,114" fill="none" stroke="#39FF14" stroke-width="1" opacity="0.07449000984035443"/>
<polygon points="799,73 807.6,78 807.6,88 799,93 790.4,88 790.4,78" fill="none" stroke="#39FF14" stroke-width="1" opacity="0.04520131083726481"/>
<polygon points="535,92 543.6,97 543.6,107 535,112 526.4,107 526.4,97" fill="none" stroke="#39FF14" stroke-width="1" opacity="0.04694713189201496"/>
<polygon points="129,113 137.6,118 137.6,128 129,133 120.4,128 120.4,118" fill="none" stroke="#39FF14" stroke-width="1" opacity="0.044160001511298216"/>
<polygon points="302,50 310.6,55 310.6,65 302,70 293.4,65 293.4,55" fill="none" stroke="#39FF14" stroke-width="1" opacity="0.06736299964744706"/>
<polygon points="360,104 368.6,109 368.6,119 360,124 351.4,119 351.4,109" fill="none" stroke="#39FF14" stroke-width="1" opacity="0.05434071108645519"/>
<polygon points="301,91 309.6,96 309.6,106 301,111 292.4,106 292.4,96" fill="none" stroke="#39FF14" stroke-width="1" opacity="0.05960048059581004"/>
<polygon points="435,101 443.6,106 443.6,116 435,121 426.4,116 426.4,106" fill="none" stroke="#39FF14" stroke-width="1" opacity="0.03805664118412044"/>
<polygon points="517,182 525.6,187 525.6,197 517,202 508.4,197 508.4,187" fill="none" stroke="#39FF14" stroke-width="1" opacity="0.0528239787233559"/>
<polygon points="77,111 85.6,116 85.6,126 77,131 68.4,126 68.4,116" fill="none" stroke="#39FF14" stroke-width="1" opacity="0.03586458545498704"/>
<polygon points="611,-10 619.6,-5 619.6,5 611,10 602.4,5 602.4,-5" fill="none" stroke="#39FF14" stroke-width="1" opacity="0.07818582498962824"/>
<polygon points="93,55 101.6,60 101.6,70 93,75 84.4,70 84.4,60" fill="none" stroke="#39FF14" stroke-width="1" opacity="0.05754839872596726"/>
<polygon points="757,129 765.6,134 765.6,144 757,149 748.4,144 748.4,134" fill="none" stroke="#39FF14" stroke-width="1" opacity="0.06683134318473508"/>
<polygon points="594,81 602.6,86 602.6,96 594,101 585.4,96 585.4,86" fill="none" stroke="#39FF14" stroke-width="1" opacity="0.027791270330061082"/>
<polygon points="344,19 352.6,24 352.6,34 344,39 335.4,34 335.4,24" fill="none" stroke="#39FF14" stroke-width="1" opacity="0.02662288703515392"/>
<polygon points="543,136 551.6,141 551.6,151 543,156 534.4,151 534.4,141" fill="none" stroke="#39FF14" stroke-width="1" opacity="0.06604448151020123"/>
<polygon points="422,43 430.6,48 430.6,58 422,63 413.4,58 413.4,48" fill="none" stroke="#39FF14" stroke-width="1" opacity="0.02958109587136841"/>
<polygon points="825,137 833.6,142 833.6,152 825,157 816.4,152 816.4,142" fill="none" stroke="#39FF14" stroke-width="1" opacity="0.07389599693459613"/>
<polygon points="582,8 590.6,13 590.6,23 582,28 573.4,23 573.4,13" fill="none" stroke="#39FF14" stroke-width="1" opacity="0.06264597523035983"/>
<polygon points="505,31 513.6,36 513.6,46 505,51 496.4,46 496.4,36" fill="none" stroke="#39FF14" stroke-width="1" opacity="0.02329499712654235"/>
<polygon points="774,73 782.6,78 782.6,88 774,93 765.4,88 765.4,78" fill="none" stroke="#39FF14" stroke-width="1" opacity="0.07261411779290439"/>
</g>

  <!-- HUD Decorative elements -->
  <path d="M 20 20 L 40 20 L 50 30" fill="none" stroke="#39FF14" stroke-width="2" opacity="0.5"/>
  <path d="M 830 180 L 810 180 L 800 170" fill="none" stroke="#39FF14" stroke-width="2" opacity="0.5"/>

  <g clip-path="url(#dashClip)">
    <rect x="-160" y="0" width="160" height="200" fill="url(#scanlineGrad)">
      <animateTransform attributeName="transform" type="translate"
                        from="0 0" to="1010 0" dur="6s" repeatCount="indefinite"/>
    </rect>
  </g>

  <g font-family="'Consolas', 'Fira Code', monospace" text-anchor="middle">

    <!-- NETWORK STATUS -->
    <g transform="translate(130, 100)">
        <circle cx="0" cy="0" r="45" fill="none" stroke="#39FF14" stroke-width="2" stroke-dasharray="10 5">
            <animateTransform attributeName="transform" type="rotate" from="0" to="360" dur="10s" repeatCount="indefinite"/>
        </circle>
        <circle cx="0" cy="0" r="35" fill="#0d0d0d" />
        <text x="0" y="-60" font-size="12" fill="#aaaaaa" letter-spacing="2">ROOT.AUTH</text>
        <text x="0" y="70" font-size="14" fill="#ffffff" font-weight="bold">OPERATIONAL</text>
    </g>

    <!-- ACTIVE USERS -->
    <g transform="translate(330, 100)">
        <text x="0" y="-20" font-size="12" fill="#aaaaaa">CITIZENS</text>
        <text x="0" y="15" font-size="28" fill="#ffffff" font-weight="bold" filter="url(#textGlow)">14,457</text>
        <text x="0" y="35" font-size="10" fill="#777777">VERIFIED HUMANS</text>
    </g>

    <!-- REGISTERED AGENTS -->
    <g transform="translate(530, 100)">
        <text x="0" y="-20" font-size="12" fill="#aaaaaa">AGENTS</text>
        <text x="0" y="15" font-size="28" fill="#00d4ff" font-weight="bold" filter="url(#textGlow)">4,599</text>
        <text x="0" y="35" font-size="10" fill="#777777">REGISTERED DIDs</text>
    </g>

    <!-- TRANSACTIONS -->
    <g transform="translate(730, 100)">
        <text x="0" y="-20" font-size="12" fill="#aaaaaa">TRANSFERS</text>
        <text x="0" y="15" font-size="28" fill="#ffffff" font-weight="bold">38,744</text>
        <text x="0" y="35" font-size="10" fill="#777777">M2M SETTLEMENTS</text>
    </g>
  </g>

  <text x="425" y="185" font-family="'Consolas', 'Fira Code', monospace" font-size="10" fill="#aaaaaa" opacity="0.6" text-anchor="middle">AXIOMID PROJECTED TARGETS (ILLUSTRATIVE): 2026-07-21 08:07:19 UTC // SECURE_HANDSHAKE</text>
</svg>