<svg width="850" height="200" viewBox="0 0 850 200" xmlns="http://www.w3.org/2000/svg">
  <defs>
    <!-- Carbon Fiber Pattern -->
    <pattern id="carbonFiber" width="10" height="10" patternUnits="userSpaceOnUse">
        <rect width="10" height="10" fill="#050505"/>
        <path d="M0,0 L5,5 L10,0 L5,-5 Z M5,5 L10,10 L15,5 L10,0 Z M-5,5 L0,10 L5,5 L0,0 Z M0,10 L5,15 L10,10 L5,5 Z" fill="#0d0d0d"/>
    </pattern>
    <filter id="glassmorphism">
      <feGaussianBlur stdDeviation="3" result="blur" />
      <feColorMatrix type="matrix" values="1 0 0 0 0  0 1 0 0 0  0 0 1 0 0  0 0 0 18 -7" result="glow" />
      <feBlend in="SourceGraphic" in2="glow" mode="normal" />
    </filter>
    <filter id="textGlow">
      <feGaussianBlur stdDeviation="2" result="blur" />
      <feMerge>
        <feMergeNode in="blur"/>
        <feMergeNode in="SourceGraphic"/>
      </feMerge>
    </filter>
    <linearGradient id="neonBar" x1="0%" y1="0%" x2="100%" y2="0%">
        <stop offset="0%" stop-color="#111111"/>
        <stop offset="100%" stop-color="#39FF14"/>
    </linearGradient>
  </defs>

  <rect width="100%" height="100%" fill="url(#carbonFiber)" rx="12" stroke="#39FF14" stroke-width="1" stroke-opacity="0.3"/>
  <rect width="100%" height="100%" fill="#000000" opacity="0.6" rx="12" />
  <g><polygon points="541,36 549.6,41 549.6,51 541,56 532.4,51 532.4,41" fill="none" stroke="#39FF14" stroke-width="1" opacity="0.05999380805927121"/>
<polygon points="712,82 720.6,87 720.6,97 712,102 703.4,97 703.4,87" fill="none" stroke="#39FF14" stroke-width="1" opacity="0.04952397466896571"/>
<polygon points="451,112 459.6,117 459.6,127 451,132 442.4,127 442.4,117" fill="none" stroke="#39FF14" stroke-width="1" opacity="0.06688067365598699"/>
<polygon points="737,82 745.6,87 745.6,97 737,102 728.4,97 728.4,87" fill="none" stroke="#39FF14" stroke-width="1" opacity="0.035630365021691354"/>
<polygon points="160,1 168.6,6 168.6,16 160,21 151.4,16 151.4,6" fill="none" stroke="#39FF14" stroke-width="1" opacity="0.07070582758914484"/>
<polygon points="624,126 632.6,131 632.6,141 624,146 615.4,141 615.4,131" fill="none" stroke="#39FF14" stroke-width="1" opacity="0.06039592446688016"/>
<polygon points="218,41 226.6,46 226.6,56 218,61 209.4,56 209.4,46" fill="none" stroke="#39FF14" stroke-width="1" opacity="0.04873383966780484"/>
<polygon points="6,108 14.6,113 14.6,123 6,128 -2.5999999999999996,123 -2.5999999999999996,113" fill="none" stroke="#39FF14" stroke-width="1" opacity="0.0603186244767467"/>
<polygon points="783,56 791.6,61 791.6,71 783,76 774.4,71 774.4,61" fill="none" stroke="#39FF14" stroke-width="1" opacity="0.06418614351253608"/>
<polygon points="267,129 275.6,134 275.6,144 267,149 258.4,144 258.4,134" fill="none" stroke="#39FF14" stroke-width="1" opacity="0.03902597691924313"/>
<polygon points="402,34 410.6,39 410.6,49 402,54 393.4,49 393.4,39" fill="none" stroke="#39FF14" stroke-width="1" opacity="0.03070573954212892"/>
<polygon points="358,30 366.6,35 366.6,45 358,50 349.4,45 349.4,35" fill="none" stroke="#39FF14" stroke-width="1" opacity="0.03029887197025208"/>
<polygon points="666,57 674.6,62 674.6,72 666,77 657.4,72 657.4,62" fill="none" stroke="#39FF14" stroke-width="1" opacity="0.06493798198458514"/>
<polygon points="686,162 694.6,167 694.6,177 686,182 677.4,177 677.4,167" fill="none" stroke="#39FF14" stroke-width="1" opacity="0.05753803892424918"/>
<polygon points="39,11 47.6,16 47.6,26 39,31 30.4,26 30.4,16" fill="none" stroke="#39FF14" stroke-width="1" opacity="0.048610431761047394"/>
<polygon points="789,56 797.6,61 797.6,71 789,76 780.4,71 780.4,61" fill="none" stroke="#39FF14" stroke-width="1" opacity="0.05458441156481096"/>
<polygon points="557,26 565.6,31 565.6,41 557,46 548.4,41 548.4,31" fill="none" stroke="#39FF14" stroke-width="1" opacity="0.051314842467910085"/>
<polygon points="71,32 79.6,37 79.6,47 71,52 62.4,47 62.4,37" fill="none" stroke="#39FF14" stroke-width="1" opacity="0.07457356888660722"/>
<polygon points="786,160 794.6,165 794.6,175 786,180 777.4,175 777.4,165" fill="none" stroke="#39FF14" stroke-width="1" opacity="0.061898751382802014"/>
<polygon points="825,138 833.6,143 833.6,153 825,158 816.4,153 816.4,143" fill="none" stroke="#39FF14" stroke-width="1" opacity="0.05140490174630931"/>
<polygon points="132,181 140.6,186 140.6,196 132,201 123.4,196 123.4,186" fill="none" stroke="#39FF14" stroke-width="1" opacity="0.021649550412348756"/>
<polygon points="561,4 569.6,9 569.6,19 561,24 552.4,19 552.4,9" fill="none" stroke="#39FF14" stroke-width="1" opacity="0.0410998905669366"/>
<polygon points="293,63 301.6,68 301.6,78 293,83 284.4,78 284.4,68" fill="none" stroke="#39FF14" stroke-width="1" opacity="0.03340590740771996"/>
<polygon points="272,152 280.6,157 280.6,167 272,172 263.4,167 263.4,157" fill="none" stroke="#39FF14" stroke-width="1" opacity="0.07084876869363456"/>
<polygon points="434,183 442.6,188 442.6,198 434,203 425.4,198 425.4,188" fill="none" stroke="#39FF14" stroke-width="1" opacity="0.07553890645914317"/>
<polygon points="654,158 662.6,163 662.6,173 654,178 645.4,173 645.4,163" fill="none" stroke="#39FF14" stroke-width="1" opacity="0.06324559142522962"/>
<polygon points="545,57 553.6,62 553.6,72 545,77 536.4,72 536.4,62" fill="none" stroke="#39FF14" stroke-width="1" opacity="0.04519478048005084"/>
<polygon points="258,95 266.6,100 266.6,110 258,115 249.4,110 249.4,100" fill="none" stroke="#39FF14" stroke-width="1" opacity="0.07292241981478702"/>
<polygon points="660,90 668.6,95 668.6,105 660,110 651.4,105 651.4,95" fill="none" stroke="#39FF14" stroke-width="1" opacity="0.05827062336519567"/>
<polygon points="813,59 821.6,64 821.6,74 813,79 804.4,74 804.4,64" fill="none" stroke="#39FF14" stroke-width="1" opacity="0.06755690385135586"/>
</g>

  <!-- HUD Decorative elements -->
  <path d="M 20 20 L 40 20 L 50 30" fill="none" stroke="#39FF14" stroke-width="2" opacity="0.5"/>
  <path d="M 830 180 L 810 180 L 800 170" fill="none" stroke="#39FF14" stroke-width="2" opacity="0.5"/>
  <rect x="20" y="100" width="2" height="40" fill="#ffffff" opacity="0.4"/>
  <rect x="828" y="60" width="2" height="40" fill="#39FF14" opacity="0.6"/>

  <g font-family="'Consolas', 'Fira Code', monospace" text-anchor="middle">

    <!-- SYSTEM STATUS -->
    <g transform="translate(130, 100)">
        <circle cx="0" cy="0" r="45" fill="none" stroke="#111111" stroke-width="8" />
        <circle cx="0" cy="0" r="45" fill="none" stroke="#39FF14" stroke-width="2" stroke-dasharray="10 5">
            <animateTransform attributeName="transform" type="rotate" from="0" to="360" dur="10s" repeatCount="indefinite"/>
        </circle>
        <circle cx="0" cy="0" r="35" fill="#0d0d0d" />
        <circle cx="0" cy="0" r="6" fill="#39FF14" filter="url(#textGlow)">
            <animate attributeName="opacity" values="1;0.3;1" dur="2s" repeatCount="indefinite"/>
        </circle>
        <text x="0" y="-60" font-size="12" fill="#aaaaaa" letter-spacing="2">SYS.CORE</text>
        <text x="0" y="70" font-size="14" fill="#ffffff" font-weight="bold">ONLINE</text>
    </g>

    <!-- LIVE TRAFFIC -->
    <g transform="translate(330, 100)">
        <rect x="-60" y="-45" width="120" height="90" fill="#0a0a0a" rx="8" stroke="#39FF14" stroke-opacity="0.4" stroke-width="1"/>
        <text x="0" y="-20" font-size="12" fill="#aaaaaa">NETWORK LOAD</text>
        <text x="0" y="15" font-size="28" fill="#ffffff" font-weight="bold" filter="url(#textGlow)">4950</text>
        <text x="0" y="35" font-size="10" fill="#777777">ACTIVE SESSIONS</text>
    </g>

    <!-- ACTIVE AGENTS -->
    <g transform="translate(530, 100)">
        <rect x="-60" y="-45" width="120" height="90" fill="#0a0a0a" rx="8" stroke="#39FF14" stroke-opacity="0.4" stroke-width="1"/>
        <text x="0" y="-20" font-size="12" fill="#aaaaaa">SWARM ENTITIES</text>
        <text x="0" y="15" font-size="28" fill="#ffffff" font-weight="bold" filter="url(#textGlow)">156</text>
        <text x="0" y="35" font-size="10" fill="#777777">AUTONOMOUS</text>
    </g>

    <!-- UPTIME -->
    <g transform="translate(730, 100)">
        <path d="M -40 -35 L 40 -35 L 50 -25 L 50 35 L -40 35 L -50 25 Z" fill="#0a0a0a" stroke="#39FF14" stroke-opacity="0.4" stroke-width="1"/>
        <text x="0" y="-15" font-size="12" fill="#aaaaaa">CONTINUITY</text>
        <text x="0" y="15" font-size="24" fill="#ffffff" font-weight="bold">220<tspan font-size="14" fill="#777777">d</tspan></text>
        <rect x="-35" y="25" width="70" height="4" fill="url(#neonBar)" rx="2"/>
    </g>
  </g>

  <text x="425" y="185" font-family="'Consolas', 'Fira Code', monospace" font-size="10" fill="#aaaaaa" opacity="0.6" text-anchor="middle">LAST TELEMETRY PING: 2026-05-01 00:53:57 UTC // ENCRYPTED_TUNNEL</text>
</svg>