<svg width="850" height="200" viewBox="0 0 850 200" xmlns="http://www.w3.org/2000/svg">
  <defs>
    <pattern id="carbonFiber" width="10" height="10" patternUnits="userSpaceOnUse">
        <rect width="10" height="10" fill="#050505"/>
        <path d="M0,0 L5,5 L10,0 L5,-5 Z M5,5 L10,10 L15,5 L10,0 Z M-5,5 L0,10 L5,5 L0,0 Z M0,10 L5,15 L10,10 L5,5 Z" fill="#0d0d0d"/>
    </pattern>
    <filter id="textGlow">
      <feGaussianBlur stdDeviation="2" result="blur" />
      <feMerge>
        <feMergeNode in="blur"/>
        <feMergeNode in="SourceGraphic"/>
      </feMerge>
    </filter>
    <linearGradient id="neonBar" x1="0%" y1="0%" x2="100%" y2="0%">
        <stop offset="0%" stop-color="#111111"/>
        <stop offset="100%" stop-color="#39FF14"/>
    </linearGradient>
    <linearGradient id="scanlineGrad" x1="0%" y1="0%" x2="100%" y2="0%">
        <stop offset="0%" stop-color="#39FF14" stop-opacity="0"/>
        <stop offset="50%" stop-color="#39FF14" stop-opacity="0.18"/>
        <stop offset="100%" stop-color="#39FF14" stop-opacity="0"/>
    </linearGradient>
    <clipPath id="dashClip">
        <rect x="0" y="0" width="850" height="200" rx="12"/>
    </clipPath>
  </defs>

  <rect width="100%" height="100%" fill="url(#carbonFiber)" rx="12" stroke="#39FF14" stroke-width="1" stroke-opacity="0.3"/>
  <rect width="100%" height="100%" fill="#000000" opacity="0.6" rx="12" />
  <g><polygon points="0,148 8.6,153 8.6,163 0,168 -8.6,163 -8.6,153" fill="none" stroke="#39FF14" stroke-width="1" opacity="0.05687848727873039"/>
<polygon points="241,14 249.6,19 249.6,29 241,34 232.4,29 232.4,19" fill="none" stroke="#39FF14" stroke-width="1" opacity="0.0655043620439292"/>
<polygon points="533,34 541.6,39 541.6,49 533,54 524.4,49 524.4,39" fill="none" stroke="#39FF14" stroke-width="1" opacity="0.04665304578142784"/>
<polygon points="609,64 617.6,69 617.6,79 609,84 600.4,79 600.4,69" fill="none" stroke="#39FF14" stroke-width="1" opacity="0.06474804359163774"/>
<polygon points="824,71 832.6,76 832.6,86 824,91 815.4,86 815.4,76" fill="none" stroke="#39FF14" stroke-width="1" opacity="0.05583091950159319"/>
<polygon points="634,181 642.6,186 642.6,196 634,201 625.4,196 625.4,186" fill="none" stroke="#39FF14" stroke-width="1" opacity="0.04055440395913709"/>
<polygon points="735,134 743.6,139 743.6,149 735,154 726.4,149 726.4,139" fill="none" stroke="#39FF14" stroke-width="1" opacity="0.04213609487548831"/>
<polygon points="433,-10 441.6,-5 441.6,5 433,10 424.4,5 424.4,-5" fill="none" stroke="#39FF14" stroke-width="1" opacity="0.05125351654302687"/>
<polygon points="35,28 43.6,33 43.6,43 35,48 26.4,43 26.4,33" fill="none" stroke="#39FF14" stroke-width="1" opacity="0.023644479770879915"/>
<polygon points="245,89 253.6,94 253.6,104 245,109 236.4,104 236.4,94" fill="none" stroke="#39FF14" stroke-width="1" opacity="0.0498656163963386"/>
<polygon points="732,107 740.6,112 740.6,122 732,127 723.4,122 723.4,112" fill="none" stroke="#39FF14" stroke-width="1" opacity="0.05718217014055166"/>
<polygon points="113,27 121.6,32 121.6,42 113,47 104.4,42 104.4,32" fill="none" stroke="#39FF14" stroke-width="1" opacity="0.05938710643520084"/>
<polygon points="748,148 756.6,153 756.6,163 748,168 739.4,163 739.4,153" fill="none" stroke="#39FF14" stroke-width="1" opacity="0.04433922803338781"/>
<polygon points="88,65 96.6,70 96.6,80 88,85 79.4,80 79.4,70" fill="none" stroke="#39FF14" stroke-width="1" opacity="0.07709009922291259"/>
<polygon points="811,187 819.6,192 819.6,202 811,207 802.4,202 802.4,192" fill="none" stroke="#39FF14" stroke-width="1" opacity="0.02983816833648669"/>
<polygon points="118,83 126.6,88 126.6,98 118,103 109.4,98 109.4,88" fill="none" stroke="#39FF14" stroke-width="1" opacity="0.037483515763173623"/>
<polygon points="162,52 170.6,57 170.6,67 162,72 153.4,67 153.4,57" fill="none" stroke="#39FF14" stroke-width="1" opacity="0.05530252659024289"/>
<polygon points="814,-2 822.6,3 822.6,13 814,18 805.4,13 805.4,3" fill="none" stroke="#39FF14" stroke-width="1" opacity="0.06490348358601192"/>
<polygon points="412,74 420.6,79 420.6,89 412,94 403.4,89 403.4,79" fill="none" stroke="#39FF14" stroke-width="1" opacity="0.06430195223473993"/>
<polygon points="150,174 158.6,179 158.6,189 150,194 141.4,189 141.4,179" fill="none" stroke="#39FF14" stroke-width="1" opacity="0.047286386605378025"/>
<polygon points="132,181 140.6,186 140.6,196 132,201 123.4,196 123.4,186" fill="none" stroke="#39FF14" stroke-width="1" opacity="0.045172238990313"/>
<polygon points="408,28 416.6,33 416.6,43 408,48 399.4,43 399.4,33" fill="none" stroke="#39FF14" stroke-width="1" opacity="0.07603749407249584"/>
<polygon points="713,-3 721.6,2 721.6,12 713,17 704.4,12 704.4,2" fill="none" stroke="#39FF14" stroke-width="1" opacity="0.04131352653107237"/>
<polygon points="70,173 78.6,178 78.6,188 70,193 61.4,188 61.4,178" fill="none" stroke="#39FF14" stroke-width="1" opacity="0.02450342499468738"/>
<polygon points="690,183 698.6,188 698.6,198 690,203 681.4,198 681.4,188" fill="none" stroke="#39FF14" stroke-width="1" opacity="0.03760856122865892"/>
<polygon points="706,72 714.6,77 714.6,87 706,92 697.4,87 697.4,77" fill="none" stroke="#39FF14" stroke-width="1" opacity="0.038929200096299216"/>
<polygon points="230,51 238.6,56 238.6,66 230,71 221.4,66 221.4,56" fill="none" stroke="#39FF14" stroke-width="1" opacity="0.054427536846648666"/>
<polygon points="195,169 203.6,174 203.6,184 195,189 186.4,184 186.4,174" fill="none" stroke="#39FF14" stroke-width="1" opacity="0.06348947988819681"/>
<polygon points="125,4 133.6,9 133.6,19 125,24 116.4,19 116.4,9" fill="none" stroke="#39FF14" stroke-width="1" opacity="0.02325734393941848"/>
<polygon points="40,4 48.6,9 48.6,19 40,24 31.4,19 31.4,9" fill="none" stroke="#39FF14" stroke-width="1" opacity="0.04105129636799317"/>
</g>

  <!-- HUD Decorative elements -->
  <path d="M 20 20 L 40 20 L 50 30" fill="none" stroke="#39FF14" stroke-width="2" opacity="0.5"/>
  <path d="M 830 180 L 810 180 L 800 170" fill="none" stroke="#39FF14" stroke-width="2" opacity="0.5"/>

  <g clip-path="url(#dashClip)">
    <rect x="-160" y="0" width="160" height="200" fill="url(#scanlineGrad)">
      <animateTransform attributeName="transform" type="translate"
                        from="0 0" to="1010 0" dur="6s" repeatCount="indefinite"/>
    </rect>
  </g>

  <g font-family="'Consolas', 'Fira Code', monospace" text-anchor="middle">

    <!-- NETWORK STATUS -->
    <g transform="translate(130, 100)">
        <circle cx="0" cy="0" r="45" fill="none" stroke="#39FF14" stroke-width="2" stroke-dasharray="10 5">
            <animateTransform attributeName="transform" type="rotate" from="0" to="360" dur="10s" repeatCount="indefinite"/>
        </circle>
        <circle cx="0" cy="0" r="35" fill="#0d0d0d" />
        <text x="0" y="-60" font-size="12" fill="#aaaaaa" letter-spacing="2">ROOT.AUTH</text>
        <text x="0" y="70" font-size="14" fill="#ffffff" font-weight="bold">OPERATIONAL</text>
    </g>

    <!-- ACTIVE USERS -->
    <g transform="translate(330, 100)">
        <text x="0" y="-20" font-size="12" fill="#aaaaaa">CITIZENS</text>
        <text x="0" y="15" font-size="28" fill="#ffffff" font-weight="bold" filter="url(#textGlow)">13,622</text>
        <text x="0" y="35" font-size="10" fill="#777777">VERIFIED HUMANS</text>
    </g>

    <!-- REGISTERED AGENTS -->
    <g transform="translate(530, 100)">
        <text x="0" y="-20" font-size="12" fill="#aaaaaa">AGENTS</text>
        <text x="0" y="15" font-size="28" fill="#00d4ff" font-weight="bold" filter="url(#textGlow)">4,599</text>
        <text x="0" y="35" font-size="10" fill="#777777">REGISTERED DIDs</text>
    </g>

    <!-- TRANSACTIONS -->
    <g transform="translate(730, 100)">
        <text x="0" y="-20" font-size="12" fill="#aaaaaa">TRANSFERS</text>
        <text x="0" y="15" font-size="28" fill="#ffffff" font-weight="bold">38,119</text>
        <text x="0" y="35" font-size="10" fill="#777777">M2M SETTLEMENTS</text>
    </g>
  </g>

  <text x="425" y="185" font-family="'Consolas', 'Fira Code', monospace" font-size="10" fill="#aaaaaa" opacity="0.6" text-anchor="middle">AXIOMID PROJECTED TARGETS (ILLUSTRATIVE): 2026-07-18 01:28:25 UTC // SECURE_HANDSHAKE</text>
</svg>