<svg width="850" height="200" viewBox="0 0 850 200" xmlns="http://www.w3.org/2000/svg">
  <defs>
    <!-- Carbon Fiber Pattern -->
    <pattern id="carbonFiber" width="10" height="10" patternUnits="userSpaceOnUse">
        <rect width="10" height="10" fill="#050505"/>
        <path d="M0,0 L5,5 L10,0 L5,-5 Z M5,5 L10,10 L15,5 L10,0 Z M-5,5 L0,10 L5,5 L0,0 Z M0,10 L5,15 L10,10 L5,5 Z" fill="#0d0d0d"/>
    </pattern>
    <filter id="glassmorphism">
      <feGaussianBlur stdDeviation="3" result="blur" />
      <feColorMatrix type="matrix" values="1 0 0 0 0  0 1 0 0 0  0 0 1 0 0  0 0 0 18 -7" result="glow" />
      <feBlend in="SourceGraphic" in2="glow" mode="normal" />
    </filter>
    <filter id="textGlow">
      <feGaussianBlur stdDeviation="2" result="blur" />
      <feMerge>
        <feMergeNode in="blur"/>
        <feMergeNode in="SourceGraphic"/>
      </feMerge>
    </filter>
    <linearGradient id="neonBar" x1="0%" y1="0%" x2="100%" y2="0%">
        <stop offset="0%" stop-color="#111111"/>
        <stop offset="100%" stop-color="#39FF14"/>
    </linearGradient>
  </defs>

  <rect width="100%" height="100%" fill="url(#carbonFiber)" rx="12" stroke="#39FF14" stroke-width="1" stroke-opacity="0.3"/>
  <rect width="100%" height="100%" fill="#000000" opacity="0.6" rx="12" />
  <g><polygon points="624,4 632.6,9 632.6,19 624,24 615.4,19 615.4,9" fill="none" stroke="#39FF14" stroke-width="1" opacity="0.047308885673293444"/>
<polygon points="86,114 94.6,119 94.6,129 86,134 77.4,129 77.4,119" fill="none" stroke="#39FF14" stroke-width="1" opacity="0.045669802112718476"/>
<polygon points="786,109 794.6,114 794.6,124 786,129 777.4,124 777.4,114" fill="none" stroke="#39FF14" stroke-width="1" opacity="0.07958395471140871"/>
<polygon points="223,-7 231.6,-2 231.6,8 223,13 214.4,8 214.4,-2" fill="none" stroke="#39FF14" stroke-width="1" opacity="0.07386199971966068"/>
<polygon points="509,43 517.6,48 517.6,58 509,63 500.4,58 500.4,48" fill="none" stroke="#39FF14" stroke-width="1" opacity="0.03260982408660448"/>
<polygon points="811,15 819.6,20 819.6,30 811,35 802.4,30 802.4,20" fill="none" stroke="#39FF14" stroke-width="1" opacity="0.03875013722820422"/>
<polygon points="736,39 744.6,44 744.6,54 736,59 727.4,54 727.4,44" fill="none" stroke="#39FF14" stroke-width="1" opacity="0.07851929514236246"/>
<polygon points="320,51 328.6,56 328.6,66 320,71 311.4,66 311.4,56" fill="none" stroke="#39FF14" stroke-width="1" opacity="0.06255589393678819"/>
<polygon points="5,133 13.6,138 13.6,148 5,153 -3.5999999999999996,148 -3.5999999999999996,138" fill="none" stroke="#39FF14" stroke-width="1" opacity="0.0637061100913141"/>
<polygon points="328,168 336.6,173 336.6,183 328,188 319.4,183 319.4,173" fill="none" stroke="#39FF14" stroke-width="1" opacity="0.0353859195974933"/>
<polygon points="766,114 774.6,119 774.6,129 766,134 757.4,129 757.4,119" fill="none" stroke="#39FF14" stroke-width="1" opacity="0.07458611341421262"/>
<polygon points="423,147 431.6,152 431.6,162 423,167 414.4,162 414.4,152" fill="none" stroke="#39FF14" stroke-width="1" opacity="0.0362139014940098"/>
<polygon points="762,112 770.6,117 770.6,127 762,132 753.4,127 753.4,117" fill="none" stroke="#39FF14" stroke-width="1" opacity="0.07267858142700913"/>
<polygon points="469,162 477.6,167 477.6,177 469,182 460.4,177 460.4,167" fill="none" stroke="#39FF14" stroke-width="1" opacity="0.03437347218887834"/>
<polygon points="796,-4 804.6,1 804.6,11 796,16 787.4,11 787.4,1" fill="none" stroke="#39FF14" stroke-width="1" opacity="0.05490838364873041"/>
<polygon points="558,-8 566.6,-3 566.6,7 558,12 549.4,7 549.4,-3" fill="none" stroke="#39FF14" stroke-width="1" opacity="0.048733628044336286"/>
<polygon points="196,37 204.6,42 204.6,52 196,57 187.4,52 187.4,42" fill="none" stroke="#39FF14" stroke-width="1" opacity="0.05420535267182906"/>
<polygon points="536,160 544.6,165 544.6,175 536,180 527.4,175 527.4,165" fill="none" stroke="#39FF14" stroke-width="1" opacity="0.06711026520381025"/>
<polygon points="57,14 65.6,19 65.6,29 57,34 48.4,29 48.4,19" fill="none" stroke="#39FF14" stroke-width="1" opacity="0.04442383027331704"/>
<polygon points="77,13 85.6,18 85.6,28 77,33 68.4,28 68.4,18" fill="none" stroke="#39FF14" stroke-width="1" opacity="0.062057687025674726"/>
<polygon points="617,60 625.6,65 625.6,75 617,80 608.4,75 608.4,65" fill="none" stroke="#39FF14" stroke-width="1" opacity="0.031004292925676115"/>
<polygon points="658,114 666.6,119 666.6,129 658,134 649.4,129 649.4,119" fill="none" stroke="#39FF14" stroke-width="1" opacity="0.048514323932196256"/>
<polygon points="375,75 383.6,80 383.6,90 375,95 366.4,90 366.4,80" fill="none" stroke="#39FF14" stroke-width="1" opacity="0.07902818477844703"/>
<polygon points="805,105 813.6,110 813.6,120 805,125 796.4,120 796.4,110" fill="none" stroke="#39FF14" stroke-width="1" opacity="0.07295574295198422"/>
<polygon points="550,80 558.6,85 558.6,95 550,100 541.4,95 541.4,85" fill="none" stroke="#39FF14" stroke-width="1" opacity="0.07033983071637827"/>
<polygon points="703,80 711.6,85 711.6,95 703,100 694.4,95 694.4,85" fill="none" stroke="#39FF14" stroke-width="1" opacity="0.07948357885614543"/>
<polygon points="238,32 246.6,37 246.6,47 238,52 229.4,47 229.4,37" fill="none" stroke="#39FF14" stroke-width="1" opacity="0.06454687915605967"/>
<polygon points="542,159 550.6,164 550.6,174 542,179 533.4,174 533.4,164" fill="none" stroke="#39FF14" stroke-width="1" opacity="0.0430414029255872"/>
<polygon points="736,68 744.6,73 744.6,83 736,88 727.4,83 727.4,73" fill="none" stroke="#39FF14" stroke-width="1" opacity="0.038317304333806444"/>
<polygon points="585,190 593.6,195 593.6,205 585,210 576.4,205 576.4,195" fill="none" stroke="#39FF14" stroke-width="1" opacity="0.03705853857105607"/>
</g>

  <!-- HUD Decorative elements -->
  <path d="M 20 20 L 40 20 L 50 30" fill="none" stroke="#39FF14" stroke-width="2" opacity="0.5"/>
  <path d="M 830 180 L 810 180 L 800 170" fill="none" stroke="#39FF14" stroke-width="2" opacity="0.5"/>
  <rect x="20" y="100" width="2" height="40" fill="#ffffff" opacity="0.4"/>
  <rect x="828" y="60" width="2" height="40" fill="#39FF14" opacity="0.6"/>

  <g font-family="'Consolas', 'Fira Code', monospace" text-anchor="middle">

    <!-- SYSTEM STATUS -->
    <g transform="translate(130, 100)">
        <circle cx="0" cy="0" r="45" fill="none" stroke="#111111" stroke-width="8" />
        <circle cx="0" cy="0" r="45" fill="none" stroke="#39FF14" stroke-width="2" stroke-dasharray="10 5">
            <animateTransform attributeName="transform" type="rotate" from="0" to="360" dur="10s" repeatCount="indefinite"/>
        </circle>
        <circle cx="0" cy="0" r="35" fill="#0d0d0d" />
        <circle cx="0" cy="0" r="6" fill="#39FF14" filter="url(#textGlow)">
            <animate attributeName="opacity" values="1;0.3;1" dur="2s" repeatCount="indefinite"/>
        </circle>
        <text x="0" y="-60" font-size="12" fill="#aaaaaa" letter-spacing="2">SYS.CORE</text>
        <text x="0" y="70" font-size="14" fill="#ffffff" font-weight="bold">ONLINE</text>
    </g>

    <!-- LIVE TRAFFIC -->
    <g transform="translate(330, 100)">
        <rect x="-60" y="-45" width="120" height="90" fill="#0a0a0a" rx="8" stroke="#39FF14" stroke-opacity="0.4" stroke-width="1"/>
        <text x="0" y="-20" font-size="12" fill="#aaaaaa">NETWORK LOAD</text>
        <text x="0" y="15" font-size="28" fill="#ffffff" font-weight="bold" filter="url(#textGlow)">6053</text>
        <text x="0" y="35" font-size="10" fill="#777777">ACTIVE SESSIONS</text>
    </g>

    <!-- ACTIVE AGENTS -->
    <g transform="translate(530, 100)">
        <rect x="-60" y="-45" width="120" height="90" fill="#0a0a0a" rx="8" stroke="#39FF14" stroke-opacity="0.4" stroke-width="1"/>
        <text x="0" y="-20" font-size="12" fill="#aaaaaa">SWARM ENTITIES</text>
        <text x="0" y="15" font-size="28" fill="#ffffff" font-weight="bold" filter="url(#textGlow)">194</text>
        <text x="0" y="35" font-size="10" fill="#777777">AUTONOMOUS</text>
    </g>

    <!-- UPTIME -->
    <g transform="translate(730, 100)">
        <path d="M -40 -35 L 40 -35 L 50 -25 L 50 35 L -40 35 L -50 25 Z" fill="#0a0a0a" stroke="#39FF14" stroke-opacity="0.4" stroke-width="1"/>
        <text x="0" y="-15" font-size="12" fill="#aaaaaa">CONTINUITY</text>
        <text x="0" y="15" font-size="24" fill="#ffffff" font-weight="bold">338<tspan font-size="14" fill="#777777">d</tspan></text>
        <rect x="-35" y="25" width="70" height="4" fill="url(#neonBar)" rx="2"/>
    </g>
  </g>

  <text x="425" y="185" font-family="'Consolas', 'Fira Code', monospace" font-size="10" fill="#aaaaaa" opacity="0.6" text-anchor="middle">LAST TELEMETRY PING: 2026-05-13 04:18:52 UTC // ENCRYPTED_TUNNEL</text>
</svg>