<svg width="850" height="200" viewBox="0 0 850 200" xmlns="http://www.w3.org/2000/svg">
  <defs>
    <pattern id="carbonFiber" width="10" height="10" patternUnits="userSpaceOnUse">
        <rect width="10" height="10" fill="#050505"/>
        <path d="M0,0 L5,5 L10,0 L5,-5 Z M5,5 L10,10 L15,5 L10,0 Z M-5,5 L0,10 L5,5 L0,0 Z M0,10 L5,15 L10,10 L5,5 Z" fill="#0d0d0d"/>
    </pattern>
    <filter id="textGlow">
      <feGaussianBlur stdDeviation="2" result="blur" />
      <feMerge>
        <feMergeNode in="blur"/>
        <feMergeNode in="SourceGraphic"/>
      </feMerge>
    </filter>
    <linearGradient id="neonBar" x1="0%" y1="0%" x2="100%" y2="0%">
        <stop offset="0%" stop-color="#111111"/>
        <stop offset="100%" stop-color="#39FF14"/>
    </linearGradient>
    <linearGradient id="scanlineGrad" x1="0%" y1="0%" x2="100%" y2="0%">
        <stop offset="0%" stop-color="#39FF14" stop-opacity="0"/>
        <stop offset="50%" stop-color="#39FF14" stop-opacity="0.18"/>
        <stop offset="100%" stop-color="#39FF14" stop-opacity="0"/>
    </linearGradient>
    <clipPath id="dashClip">
        <rect x="0" y="0" width="850" height="200" rx="12"/>
    </clipPath>
  </defs>

  <rect width="100%" height="100%" fill="url(#carbonFiber)" rx="12" stroke="#39FF14" stroke-width="1" stroke-opacity="0.3"/>
  <rect width="100%" height="100%" fill="#000000" opacity="0.6" rx="12" />
  <g><polygon points="453,95 461.6,100 461.6,110 453,115 444.4,110 444.4,100" fill="none" stroke="#39FF14" stroke-width="1" opacity="0.06689787244539802"/>
<polygon points="748,123 756.6,128 756.6,138 748,143 739.4,138 739.4,128" fill="none" stroke="#39FF14" stroke-width="1" opacity="0.0356128104775508"/>
<polygon points="768,16 776.6,21 776.6,31 768,36 759.4,31 759.4,21" fill="none" stroke="#39FF14" stroke-width="1" opacity="0.07522981820008182"/>
<polygon points="14,34 22.6,39 22.6,49 14,54 5.4,49 5.4,39" fill="none" stroke="#39FF14" stroke-width="1" opacity="0.04775902843349854"/>
<polygon points="147,151 155.6,156 155.6,166 147,171 138.4,166 138.4,156" fill="none" stroke="#39FF14" stroke-width="1" opacity="0.054646990410950017"/>
<polygon points="750,154 758.6,159 758.6,169 750,174 741.4,169 741.4,159" fill="none" stroke="#39FF14" stroke-width="1" opacity="0.03981012270256584"/>
<polygon points="375,25 383.6,30 383.6,40 375,45 366.4,40 366.4,30" fill="none" stroke="#39FF14" stroke-width="1" opacity="0.043183644549363895"/>
<polygon points="176,17 184.6,22 184.6,32 176,37 167.4,32 167.4,22" fill="none" stroke="#39FF14" stroke-width="1" opacity="0.03742770732300043"/>
<polygon points="504,19 512.6,24 512.6,34 504,39 495.4,34 495.4,24" fill="none" stroke="#39FF14" stroke-width="1" opacity="0.06976117112041222"/>
<polygon points="354,97 362.6,102 362.6,112 354,117 345.4,112 345.4,102" fill="none" stroke="#39FF14" stroke-width="1" opacity="0.056886668466215665"/>
<polygon points="761,82 769.6,87 769.6,97 761,102 752.4,97 752.4,87" fill="none" stroke="#39FF14" stroke-width="1" opacity="0.05307508708159969"/>
<polygon points="781,136 789.6,141 789.6,151 781,156 772.4,151 772.4,141" fill="none" stroke="#39FF14" stroke-width="1" opacity="0.07303548155752712"/>
<polygon points="581,4 589.6,9 589.6,19 581,24 572.4,19 572.4,9" fill="none" stroke="#39FF14" stroke-width="1" opacity="0.033293193963167406"/>
<polygon points="220,79 228.6,84 228.6,94 220,99 211.4,94 211.4,84" fill="none" stroke="#39FF14" stroke-width="1" opacity="0.07470765559484567"/>
<polygon points="4,165 12.6,170 12.6,180 4,185 -4.6,180 -4.6,170" fill="none" stroke="#39FF14" stroke-width="1" opacity="0.05320444989336963"/>
<polygon points="16,108 24.6,113 24.6,123 16,128 7.4,123 7.4,113" fill="none" stroke="#39FF14" stroke-width="1" opacity="0.07465685958777914"/>
<polygon points="670,120 678.6,125 678.6,135 670,140 661.4,135 661.4,125" fill="none" stroke="#39FF14" stroke-width="1" opacity="0.07416974965415407"/>
<polygon points="382,84 390.6,89 390.6,99 382,104 373.4,99 373.4,89" fill="none" stroke="#39FF14" stroke-width="1" opacity="0.06058824311368126"/>
<polygon points="697,87 705.6,92 705.6,102 697,107 688.4,102 688.4,92" fill="none" stroke="#39FF14" stroke-width="1" opacity="0.04940223137727545"/>
<polygon points="673,117 681.6,122 681.6,132 673,137 664.4,132 664.4,122" fill="none" stroke="#39FF14" stroke-width="1" opacity="0.031489262718843794"/>
<polygon points="691,121 699.6,126 699.6,136 691,141 682.4,136 682.4,126" fill="none" stroke="#39FF14" stroke-width="1" opacity="0.021344602855691553"/>
<polygon points="74,125 82.6,130 82.6,140 74,145 65.4,140 65.4,130" fill="none" stroke="#39FF14" stroke-width="1" opacity="0.03891113427619869"/>
<polygon points="711,92 719.6,97 719.6,107 711,112 702.4,107 702.4,97" fill="none" stroke="#39FF14" stroke-width="1" opacity="0.031656665180865"/>
<polygon points="159,129 167.6,134 167.6,144 159,149 150.4,144 150.4,134" fill="none" stroke="#39FF14" stroke-width="1" opacity="0.06755234047817664"/>
<polygon points="599,151 607.6,156 607.6,166 599,171 590.4,166 590.4,156" fill="none" stroke="#39FF14" stroke-width="1" opacity="0.06021692702266031"/>
<polygon points="657,177 665.6,182 665.6,192 657,197 648.4,192 648.4,182" fill="none" stroke="#39FF14" stroke-width="1" opacity="0.0775559401058197"/>
<polygon points="784,155 792.6,160 792.6,170 784,175 775.4,170 775.4,160" fill="none" stroke="#39FF14" stroke-width="1" opacity="0.047298715375178116"/>
<polygon points="245,100 253.6,105 253.6,115 245,120 236.4,115 236.4,105" fill="none" stroke="#39FF14" stroke-width="1" opacity="0.022137300821205158"/>
<polygon points="207,40 215.6,45 215.6,55 207,60 198.4,55 198.4,45" fill="none" stroke="#39FF14" stroke-width="1" opacity="0.054559528822605605"/>
<polygon points="175,127 183.6,132 183.6,142 175,147 166.4,142 166.4,132" fill="none" stroke="#39FF14" stroke-width="1" opacity="0.06633257993150048"/>
</g>

  <!-- HUD Decorative elements -->
  <path d="M 20 20 L 40 20 L 50 30" fill="none" stroke="#39FF14" stroke-width="2" opacity="0.5"/>
  <path d="M 830 180 L 810 180 L 800 170" fill="none" stroke="#39FF14" stroke-width="2" opacity="0.5"/>

  <g clip-path="url(#dashClip)">
    <rect x="-160" y="0" width="160" height="200" fill="url(#scanlineGrad)">
      <animateTransform attributeName="transform" type="translate"
                        from="0 0" to="1010 0" dur="6s" repeatCount="indefinite"/>
    </rect>
  </g>

  <g font-family="'Consolas', 'Fira Code', monospace" text-anchor="middle">

    <!-- NETWORK STATUS -->
    <g transform="translate(130, 100)">
        <circle cx="0" cy="0" r="45" fill="none" stroke="#39FF14" stroke-width="2" stroke-dasharray="10 5">
            <animateTransform attributeName="transform" type="rotate" from="0" to="360" dur="10s" repeatCount="indefinite"/>
        </circle>
        <circle cx="0" cy="0" r="35" fill="#0d0d0d" />
        <text x="0" y="-60" font-size="12" fill="#aaaaaa" letter-spacing="2">ROOT.AUTH</text>
        <text x="0" y="70" font-size="14" fill="#ffffff" font-weight="bold">OPERATIONAL</text>
    </g>

    <!-- ACTIVE USERS -->
    <g transform="translate(330, 100)">
        <text x="0" y="-20" font-size="12" fill="#aaaaaa">CITIZENS</text>
        <text x="0" y="15" font-size="28" fill="#ffffff" font-weight="bold" filter="url(#textGlow)">12,634</text>
        <text x="0" y="35" font-size="10" fill="#777777">VERIFIED HUMANS</text>
    </g>

    <!-- REGISTERED AGENTS -->
    <g transform="translate(530, 100)">
        <text x="0" y="-20" font-size="12" fill="#aaaaaa">AGENTS</text>
        <text x="0" y="15" font-size="28" fill="#00d4ff" font-weight="bold" filter="url(#textGlow)">4,469</text>
        <text x="0" y="35" font-size="10" fill="#777777">REGISTERED DIDs</text>
    </g>

    <!-- TRANSACTIONS -->
    <g transform="translate(730, 100)">
        <text x="0" y="-20" font-size="12" fill="#aaaaaa">TRANSFERS</text>
        <text x="0" y="15" font-size="28" fill="#ffffff" font-weight="bold">41,928</text>
        <text x="0" y="35" font-size="10" fill="#777777">M2M SETTLEMENTS</text>
    </g>
  </g>

  <text x="425" y="185" font-family="'Consolas', 'Fira Code', monospace" font-size="10" fill="#aaaaaa" opacity="0.6" text-anchor="middle">AXIOMID PROJECTED TARGETS (ILLUSTRATIVE): 2026-07-15 05:22:02 UTC // SECURE_HANDSHAKE</text>
</svg>