<svg width="850" height="200" viewBox="0 0 850 200" xmlns="http://www.w3.org/2000/svg">
  <defs>
    <pattern id="carbonFiber" width="10" height="10" patternUnits="userSpaceOnUse">
        <rect width="10" height="10" fill="#050505"/>
        <path d="M0,0 L5,5 L10,0 L5,-5 Z M5,5 L10,10 L15,5 L10,0 Z M-5,5 L0,10 L5,5 L0,0 Z M0,10 L5,15 L10,10 L5,5 Z" fill="#0d0d0d"/>
    </pattern>
    <filter id="textGlow">
      <feGaussianBlur stdDeviation="2" result="blur" />
      <feMerge>
        <feMergeNode in="blur"/>
        <feMergeNode in="SourceGraphic"/>
      </feMerge>
    </filter>
    <linearGradient id="neonBar" x1="0%" y1="0%" x2="100%" y2="0%">
        <stop offset="0%" stop-color="#111111"/>
        <stop offset="100%" stop-color="#39FF14"/>
    </linearGradient>
    <linearGradient id="scanlineGrad" x1="0%" y1="0%" x2="100%" y2="0%">
        <stop offset="0%" stop-color="#39FF14" stop-opacity="0"/>
        <stop offset="50%" stop-color="#39FF14" stop-opacity="0.18"/>
        <stop offset="100%" stop-color="#39FF14" stop-opacity="0"/>
    </linearGradient>
    <clipPath id="dashClip">
        <rect x="0" y="0" width="850" height="200" rx="12"/>
    </clipPath>
  </defs>

  <rect width="100%" height="100%" fill="url(#carbonFiber)" rx="12" stroke="#39FF14" stroke-width="1" stroke-opacity="0.3"/>
  <rect width="100%" height="100%" fill="#000000" opacity="0.6" rx="12" />
  <g><polygon points="704,114 712.6,119 712.6,129 704,134 695.4,129 695.4,119" fill="none" stroke="#39FF14" stroke-width="1" opacity="0.04681720914053073"/>
<polygon points="244,20 252.6,25 252.6,35 244,40 235.4,35 235.4,25" fill="none" stroke="#39FF14" stroke-width="1" opacity="0.020161793451532125"/>
<polygon points="807,173 815.6,178 815.6,188 807,193 798.4,188 798.4,178" fill="none" stroke="#39FF14" stroke-width="1" opacity="0.028509909680446345"/>
<polygon points="244,90 252.6,95 252.6,105 244,110 235.4,105 235.4,95" fill="none" stroke="#39FF14" stroke-width="1" opacity="0.07914476452209201"/>
<polygon points="228,139 236.6,144 236.6,154 228,159 219.4,154 219.4,144" fill="none" stroke="#39FF14" stroke-width="1" opacity="0.02496828759820854"/>
<polygon points="638,11 646.6,16 646.6,26 638,31 629.4,26 629.4,16" fill="none" stroke="#39FF14" stroke-width="1" opacity="0.06041760316182712"/>
<polygon points="683,-5 691.6,0 691.6,10 683,15 674.4,10 674.4,0" fill="none" stroke="#39FF14" stroke-width="1" opacity="0.04317933264416307"/>
<polygon points="204,76 212.6,81 212.6,91 204,96 195.4,91 195.4,81" fill="none" stroke="#39FF14" stroke-width="1" opacity="0.0706402596000919"/>
<polygon points="111,61 119.6,66 119.6,76 111,81 102.4,76 102.4,66" fill="none" stroke="#39FF14" stroke-width="1" opacity="0.030307516451629813"/>
<polygon points="107,163 115.6,168 115.6,178 107,183 98.4,178 98.4,168" fill="none" stroke="#39FF14" stroke-width="1" opacity="0.04722587090486416"/>
<polygon points="707,37 715.6,42 715.6,52 707,57 698.4,52 698.4,42" fill="none" stroke="#39FF14" stroke-width="1" opacity="0.05435308489762965"/>
<polygon points="786,82 794.6,87 794.6,97 786,102 777.4,97 777.4,87" fill="none" stroke="#39FF14" stroke-width="1" opacity="0.02538878855801638"/>
<polygon points="232,40 240.6,45 240.6,55 232,60 223.4,55 223.4,45" fill="none" stroke="#39FF14" stroke-width="1" opacity="0.0744074236808304"/>
<polygon points="798,123 806.6,128 806.6,138 798,143 789.4,138 789.4,128" fill="none" stroke="#39FF14" stroke-width="1" opacity="0.07350337110888015"/>
<polygon points="432,4 440.6,9 440.6,19 432,24 423.4,19 423.4,9" fill="none" stroke="#39FF14" stroke-width="1" opacity="0.03363368682128407"/>
<polygon points="802,154 810.6,159 810.6,169 802,174 793.4,169 793.4,159" fill="none" stroke="#39FF14" stroke-width="1" opacity="0.06853530539047882"/>
<polygon points="776,70 784.6,75 784.6,85 776,90 767.4,85 767.4,75" fill="none" stroke="#39FF14" stroke-width="1" opacity="0.07096043858238386"/>
<polygon points="527,28 535.6,33 535.6,43 527,48 518.4,43 518.4,33" fill="none" stroke="#39FF14" stroke-width="1" opacity="0.020121233506383323"/>
<polygon points="502,179 510.6,184 510.6,194 502,199 493.4,194 493.4,184" fill="none" stroke="#39FF14" stroke-width="1" opacity="0.07881507286046265"/>
<polygon points="151,49 159.6,54 159.6,64 151,69 142.4,64 142.4,54" fill="none" stroke="#39FF14" stroke-width="1" opacity="0.046451320938215426"/>
<polygon points="657,19 665.6,24 665.6,34 657,39 648.4,34 648.4,24" fill="none" stroke="#39FF14" stroke-width="1" opacity="0.05125684636835137"/>
<polygon points="730,154 738.6,159 738.6,169 730,174 721.4,169 721.4,159" fill="none" stroke="#39FF14" stroke-width="1" opacity="0.07610312257228781"/>
<polygon points="31,187 39.6,192 39.6,202 31,207 22.4,202 22.4,192" fill="none" stroke="#39FF14" stroke-width="1" opacity="0.04464882833480832"/>
<polygon points="162,147 170.6,152 170.6,162 162,167 153.4,162 153.4,152" fill="none" stroke="#39FF14" stroke-width="1" opacity="0.04097515621875124"/>
<polygon points="577,80 585.6,85 585.6,95 577,100 568.4,95 568.4,85" fill="none" stroke="#39FF14" stroke-width="1" opacity="0.07369564173329407"/>
<polygon points="407,178 415.6,183 415.6,193 407,198 398.4,193 398.4,183" fill="none" stroke="#39FF14" stroke-width="1" opacity="0.02220572384318117"/>
<polygon points="599,81 607.6,86 607.6,96 599,101 590.4,96 590.4,86" fill="none" stroke="#39FF14" stroke-width="1" opacity="0.04310772402640067"/>
<polygon points="80,168 88.6,173 88.6,183 80,188 71.4,183 71.4,173" fill="none" stroke="#39FF14" stroke-width="1" opacity="0.05819803055066411"/>
<polygon points="61,115 69.6,120 69.6,130 61,135 52.4,130 52.4,120" fill="none" stroke="#39FF14" stroke-width="1" opacity="0.04299643443251787"/>
<polygon points="386,23 394.6,28 394.6,38 386,43 377.4,38 377.4,28" fill="none" stroke="#39FF14" stroke-width="1" opacity="0.04576947047804264"/>
</g>

  <!-- HUD Decorative elements -->
  <path d="M 20 20 L 40 20 L 50 30" fill="none" stroke="#39FF14" stroke-width="2" opacity="0.5"/>
  <path d="M 830 180 L 810 180 L 800 170" fill="none" stroke="#39FF14" stroke-width="2" opacity="0.5"/>

  <g clip-path="url(#dashClip)">
    <rect x="-160" y="0" width="160" height="200" fill="url(#scanlineGrad)">
      <animateTransform attributeName="transform" type="translate"
                        from="0 0" to="1010 0" dur="6s" repeatCount="indefinite"/>
    </rect>
  </g>

  <g font-family="'Consolas', 'Fira Code', monospace" text-anchor="middle">

    <!-- NETWORK STATUS -->
    <g transform="translate(130, 100)">
        <circle cx="0" cy="0" r="45" fill="none" stroke="#39FF14" stroke-width="2" stroke-dasharray="10 5">
            <animateTransform attributeName="transform" type="rotate" from="0" to="360" dur="10s" repeatCount="indefinite"/>
        </circle>
        <circle cx="0" cy="0" r="35" fill="#0d0d0d" />
        <text x="0" y="-60" font-size="12" fill="#aaaaaa" letter-spacing="2">ROOT.AUTH</text>
        <text x="0" y="70" font-size="14" fill="#ffffff" font-weight="bold">OPERATIONAL</text>
    </g>

    <!-- ACTIVE USERS -->
    <g transform="translate(330, 100)">
        <text x="0" y="-20" font-size="12" fill="#aaaaaa">CITIZENS</text>
        <text x="0" y="15" font-size="28" fill="#ffffff" font-weight="bold" filter="url(#textGlow)">14,659</text>
        <text x="0" y="35" font-size="10" fill="#777777">VERIFIED HUMANS</text>
    </g>

    <!-- REGISTERED AGENTS -->
    <g transform="translate(530, 100)">
        <text x="0" y="-20" font-size="12" fill="#aaaaaa">AGENTS</text>
        <text x="0" y="15" font-size="28" fill="#00d4ff" font-weight="bold" filter="url(#textGlow)">4,156</text>
        <text x="0" y="35" font-size="10" fill="#777777">REGISTERED DIDs</text>
    </g>

    <!-- TRANSACTIONS -->
    <g transform="translate(730, 100)">
        <text x="0" y="-20" font-size="12" fill="#aaaaaa">TRANSFERS</text>
        <text x="0" y="15" font-size="28" fill="#ffffff" font-weight="bold">28,876</text>
        <text x="0" y="35" font-size="10" fill="#777777">M2M SETTLEMENTS</text>
    </g>
  </g>

  <text x="425" y="185" font-family="'Consolas', 'Fira Code', monospace" font-size="10" fill="#aaaaaa" opacity="0.6" text-anchor="middle">AXIOMID PROJECTED TARGETS (ILLUSTRATIVE): 2026-07-09 22:13:12 UTC // SECURE_HANDSHAKE</text>
</svg>