<svg width="850" height="200" viewBox="0 0 850 200" xmlns="http://www.w3.org/2000/svg">
  <defs>
    <pattern id="carbonFiber" width="10" height="10" patternUnits="userSpaceOnUse">
        <rect width="10" height="10" fill="#050505"/>
        <path d="M0,0 L5,5 L10,0 L5,-5 Z M5,5 L10,10 L15,5 L10,0 Z M-5,5 L0,10 L5,5 L0,0 Z M0,10 L5,15 L10,10 L5,5 Z" fill="#0d0d0d"/>
    </pattern>
    <filter id="textGlow">
      <feGaussianBlur stdDeviation="2" result="blur" />
      <feMerge>
        <feMergeNode in="blur"/>
        <feMergeNode in="SourceGraphic"/>
      </feMerge>
    </filter>
    <linearGradient id="neonBar" x1="0%" y1="0%" x2="100%" y2="0%">
        <stop offset="0%" stop-color="#111111"/>
        <stop offset="100%" stop-color="#39FF14"/>
    </linearGradient>
    <linearGradient id="scanlineGrad" x1="0%" y1="0%" x2="100%" y2="0%">
        <stop offset="0%" stop-color="#39FF14" stop-opacity="0"/>
        <stop offset="50%" stop-color="#39FF14" stop-opacity="0.18"/>
        <stop offset="100%" stop-color="#39FF14" stop-opacity="0"/>
    </linearGradient>
    <clipPath id="dashClip">
        <rect x="0" y="0" width="850" height="200" rx="12"/>
    </clipPath>
  </defs>

  <rect width="100%" height="100%" fill="url(#carbonFiber)" rx="12" stroke="#39FF14" stroke-width="1" stroke-opacity="0.3"/>
  <rect width="100%" height="100%" fill="#000000" opacity="0.6" rx="12" />
  <g><polygon points="204,91 212.6,96 212.6,106 204,111 195.4,106 195.4,96" fill="none" stroke="#39FF14" stroke-width="1" opacity="0.0451219311933439"/>
<polygon points="3,73 11.6,78 11.6,88 3,93 -5.6,88 -5.6,78" fill="none" stroke="#39FF14" stroke-width="1" opacity="0.05134580698339347"/>
<polygon points="320,6 328.6,11 328.6,21 320,26 311.4,21 311.4,11" fill="none" stroke="#39FF14" stroke-width="1" opacity="0.0709759021479888"/>
<polygon points="672,87 680.6,92 680.6,102 672,107 663.4,102 663.4,92" fill="none" stroke="#39FF14" stroke-width="1" opacity="0.07937098223715795"/>
<polygon points="409,135 417.6,140 417.6,150 409,155 400.4,150 400.4,140" fill="none" stroke="#39FF14" stroke-width="1" opacity="0.029300462333693558"/>
<polygon points="548,78 556.6,83 556.6,93 548,98 539.4,93 539.4,83" fill="none" stroke="#39FF14" stroke-width="1" opacity="0.0488763066008486"/>
<polygon points="562,29 570.6,34 570.6,44 562,49 553.4,44 553.4,34" fill="none" stroke="#39FF14" stroke-width="1" opacity="0.055527043364561365"/>
<polygon points="616,57 624.6,62 624.6,72 616,77 607.4,72 607.4,62" fill="none" stroke="#39FF14" stroke-width="1" opacity="0.06520975877981305"/>
<polygon points="648,79 656.6,84 656.6,94 648,99 639.4,94 639.4,84" fill="none" stroke="#39FF14" stroke-width="1" opacity="0.07709930104944392"/>
<polygon points="844,60 852.6,65 852.6,75 844,80 835.4,75 835.4,65" fill="none" stroke="#39FF14" stroke-width="1" opacity="0.06146101106457594"/>
<polygon points="547,139 555.6,144 555.6,154 547,159 538.4,154 538.4,144" fill="none" stroke="#39FF14" stroke-width="1" opacity="0.06310292552449823"/>
<polygon points="364,65 372.6,70 372.6,80 364,85 355.4,80 355.4,70" fill="none" stroke="#39FF14" stroke-width="1" opacity="0.06677210632046342"/>
<polygon points="435,183 443.6,188 443.6,198 435,203 426.4,198 426.4,188" fill="none" stroke="#39FF14" stroke-width="1" opacity="0.056810324489859176"/>
<polygon points="427,92 435.6,97 435.6,107 427,112 418.4,107 418.4,97" fill="none" stroke="#39FF14" stroke-width="1" opacity="0.03608040861226139"/>
<polygon points="721,-2 729.6,3 729.6,13 721,18 712.4,13 712.4,3" fill="none" stroke="#39FF14" stroke-width="1" opacity="0.022713796188768943"/>
<polygon points="728,140 736.6,145 736.6,155 728,160 719.4,155 719.4,145" fill="none" stroke="#39FF14" stroke-width="1" opacity="0.042186209591523666"/>
<polygon points="226,55 234.6,60 234.6,70 226,75 217.4,70 217.4,60" fill="none" stroke="#39FF14" stroke-width="1" opacity="0.06640033024107865"/>
<polygon points="291,53 299.6,58 299.6,68 291,73 282.4,68 282.4,58" fill="none" stroke="#39FF14" stroke-width="1" opacity="0.038479820935646766"/>
<polygon points="660,9 668.6,14 668.6,24 660,29 651.4,24 651.4,14" fill="none" stroke="#39FF14" stroke-width="1" opacity="0.03174598635370011"/>
<polygon points="444,34 452.6,39 452.6,49 444,54 435.4,49 435.4,39" fill="none" stroke="#39FF14" stroke-width="1" opacity="0.04162084589835305"/>
<polygon points="819,-10 827.6,-5 827.6,5 819,10 810.4,5 810.4,-5" fill="none" stroke="#39FF14" stroke-width="1" opacity="0.04115613731093667"/>
<polygon points="531,88 539.6,93 539.6,103 531,108 522.4,103 522.4,93" fill="none" stroke="#39FF14" stroke-width="1" opacity="0.06464451202431283"/>
<polygon points="4,45 12.6,50 12.6,60 4,65 -4.6,60 -4.6,50" fill="none" stroke="#39FF14" stroke-width="1" opacity="0.06428357342222016"/>
<polygon points="841,13 849.6,18 849.6,28 841,33 832.4,28 832.4,18" fill="none" stroke="#39FF14" stroke-width="1" opacity="0.06674359480933711"/>
<polygon points="597,176 605.6,181 605.6,191 597,196 588.4,191 588.4,181" fill="none" stroke="#39FF14" stroke-width="1" opacity="0.02083232107468871"/>
<polygon points="193,181 201.6,186 201.6,196 193,201 184.4,196 184.4,186" fill="none" stroke="#39FF14" stroke-width="1" opacity="0.03142304987459211"/>
<polygon points="412,127 420.6,132 420.6,142 412,147 403.4,142 403.4,132" fill="none" stroke="#39FF14" stroke-width="1" opacity="0.05371479704931019"/>
<polygon points="499,113 507.6,118 507.6,128 499,133 490.4,128 490.4,118" fill="none" stroke="#39FF14" stroke-width="1" opacity="0.07592409750295905"/>
<polygon points="432,6 440.6,11 440.6,21 432,26 423.4,21 423.4,11" fill="none" stroke="#39FF14" stroke-width="1" opacity="0.07591885345950347"/>
<polygon points="838,109 846.6,114 846.6,124 838,129 829.4,124 829.4,114" fill="none" stroke="#39FF14" stroke-width="1" opacity="0.050838199653980974"/>
</g>

  <!-- HUD Decorative elements -->
  <path d="M 20 20 L 40 20 L 50 30" fill="none" stroke="#39FF14" stroke-width="2" opacity="0.5"/>
  <path d="M 830 180 L 810 180 L 800 170" fill="none" stroke="#39FF14" stroke-width="2" opacity="0.5"/>

  <g clip-path="url(#dashClip)">
    <rect x="-160" y="0" width="160" height="200" fill="url(#scanlineGrad)">
      <animateTransform attributeName="transform" type="translate"
                        from="0 0" to="1010 0" dur="6s" repeatCount="indefinite"/>
    </rect>
  </g>

  <g font-family="'Consolas', 'Fira Code', monospace" text-anchor="middle">

    <!-- NETWORK STATUS -->
    <g transform="translate(130, 100)">
        <circle cx="0" cy="0" r="45" fill="none" stroke="#39FF14" stroke-width="2" stroke-dasharray="10 5">
            <animateTransform attributeName="transform" type="rotate" from="0" to="360" dur="10s" repeatCount="indefinite"/>
        </circle>
        <circle cx="0" cy="0" r="35" fill="#0d0d0d" />
        <text x="0" y="-60" font-size="12" fill="#aaaaaa" letter-spacing="2">ROOT.AUTH</text>
        <text x="0" y="70" font-size="14" fill="#ffffff" font-weight="bold">OPERATIONAL</text>
    </g>

    <!-- ACTIVE USERS -->
    <g transform="translate(330, 100)">
        <text x="0" y="-20" font-size="12" fill="#aaaaaa">CITIZENS</text>
        <text x="0" y="15" font-size="28" fill="#ffffff" font-weight="bold" filter="url(#textGlow)">12,735</text>
        <text x="0" y="35" font-size="10" fill="#777777">VERIFIED HUMANS</text>
    </g>

    <!-- REGISTERED AGENTS -->
    <g transform="translate(530, 100)">
        <text x="0" y="-20" font-size="12" fill="#aaaaaa">AGENTS</text>
        <text x="0" y="15" font-size="28" fill="#00d4ff" font-weight="bold" filter="url(#textGlow)">4,210</text>
        <text x="0" y="35" font-size="10" fill="#777777">REGISTERED DIDs</text>
    </g>

    <!-- TRANSACTIONS -->
    <g transform="translate(730, 100)">
        <text x="0" y="-20" font-size="12" fill="#aaaaaa">TRANSFERS</text>
        <text x="0" y="15" font-size="28" fill="#ffffff" font-weight="bold">37,960</text>
        <text x="0" y="35" font-size="10" fill="#777777">M2M SETTLEMENTS</text>
    </g>
  </g>

  <text x="425" y="185" font-family="'Consolas', 'Fira Code', monospace" font-size="10" fill="#aaaaaa" opacity="0.6" text-anchor="middle">AXIOMID PROJECTED TARGETS (ILLUSTRATIVE): 2026-07-11 18:44:31 UTC // SECURE_HANDSHAKE</text>
</svg>