<svg width="850" height="200" viewBox="0 0 850 200" xmlns="http://www.w3.org/2000/svg">
  <defs>
    <!-- Carbon Fiber Pattern -->
    <pattern id="carbonFiber" width="10" height="10" patternUnits="userSpaceOnUse">
        <rect width="10" height="10" fill="#050505"/>
        <path d="M0,0 L5,5 L10,0 L5,-5 Z M5,5 L10,10 L15,5 L10,0 Z M-5,5 L0,10 L5,5 L0,0 Z M0,10 L5,15 L10,10 L5,5 Z" fill="#0d0d0d"/>
    </pattern>
    <filter id="glassmorphism">
      <feGaussianBlur stdDeviation="3" result="blur" />
      <feColorMatrix type="matrix" values="1 0 0 0 0  0 1 0 0 0  0 0 1 0 0  0 0 0 18 -7" result="glow" />
      <feBlend in="SourceGraphic" in2="glow" mode="normal" />
    </filter>
    <filter id="textGlow">
      <feGaussianBlur stdDeviation="2" result="blur" />
      <feMerge>
        <feMergeNode in="blur"/>
        <feMergeNode in="SourceGraphic"/>
      </feMerge>
    </filter>
    <linearGradient id="neonBar" x1="0%" y1="0%" x2="100%" y2="0%">
        <stop offset="0%" stop-color="#111111"/>
        <stop offset="100%" stop-color="#39FF14"/>
    </linearGradient>
  </defs>

  <rect width="100%" height="100%" fill="url(#carbonFiber)" rx="12" stroke="#39FF14" stroke-width="1" stroke-opacity="0.3"/>
  <rect width="100%" height="100%" fill="#000000" opacity="0.6" rx="12" />
  <g><polygon points="356,3 364.6,8 364.6,18 356,23 347.4,18 347.4,8" fill="none" stroke="#39FF14" stroke-width="1" opacity="0.04047886612355349"/>
<polygon points="221,84 229.6,89 229.6,99 221,104 212.4,99 212.4,89" fill="none" stroke="#39FF14" stroke-width="1" opacity="0.03878752586056822"/>
<polygon points="380,173 388.6,178 388.6,188 380,193 371.4,188 371.4,178" fill="none" stroke="#39FF14" stroke-width="1" opacity="0.07730260558736485"/>
<polygon points="246,84 254.6,89 254.6,99 246,104 237.4,99 237.4,89" fill="none" stroke="#39FF14" stroke-width="1" opacity="0.061350147448291065"/>
<polygon points="445,123 453.6,128 453.6,138 445,143 436.4,138 436.4,128" fill="none" stroke="#39FF14" stroke-width="1" opacity="0.07029581131022909"/>
<polygon points="313,20 321.6,25 321.6,35 313,40 304.4,35 304.4,25" fill="none" stroke="#39FF14" stroke-width="1" opacity="0.04251134055255977"/>
<polygon points="388,35 396.6,40 396.6,50 388,55 379.4,50 379.4,40" fill="none" stroke="#39FF14" stroke-width="1" opacity="0.02000896159417996"/>
<polygon points="671,81 679.6,86 679.6,96 671,101 662.4,96 662.4,86" fill="none" stroke="#39FF14" stroke-width="1" opacity="0.07094930591927329"/>
<polygon points="327,-6 335.6,-1 335.6,9 327,14 318.4,9 318.4,-1" fill="none" stroke="#39FF14" stroke-width="1" opacity="0.06547341038091889"/>
<polygon points="322,119 330.6,124 330.6,134 322,139 313.4,134 313.4,124" fill="none" stroke="#39FF14" stroke-width="1" opacity="0.05287340921422777"/>
<polygon points="372,146 380.6,151 380.6,161 372,166 363.4,161 363.4,151" fill="none" stroke="#39FF14" stroke-width="1" opacity="0.07109866586412321"/>
<polygon points="816,110 824.6,115 824.6,125 816,130 807.4,125 807.4,115" fill="none" stroke="#39FF14" stroke-width="1" opacity="0.04543383652099285"/>
<polygon points="99,190 107.6,195 107.6,205 99,210 90.4,205 90.4,195" fill="none" stroke="#39FF14" stroke-width="1" opacity="0.03151982914374644"/>
<polygon points="486,-2 494.6,3 494.6,13 486,18 477.4,13 477.4,3" fill="none" stroke="#39FF14" stroke-width="1" opacity="0.04807280208448113"/>
<polygon points="436,-5 444.6,0 444.6,10 436,15 427.4,10 427.4,0" fill="none" stroke="#39FF14" stroke-width="1" opacity="0.05813396815266482"/>
<polygon points="699,113 707.6,118 707.6,128 699,133 690.4,128 690.4,118" fill="none" stroke="#39FF14" stroke-width="1" opacity="0.06768645485577804"/>
<polygon points="223,58 231.6,63 231.6,73 223,78 214.4,73 214.4,63" fill="none" stroke="#39FF14" stroke-width="1" opacity="0.049510119406980246"/>
<polygon points="451,-5 459.6,0 459.6,10 451,15 442.4,10 442.4,0" fill="none" stroke="#39FF14" stroke-width="1" opacity="0.033834384314207315"/>
<polygon points="331,14 339.6,19 339.6,29 331,34 322.4,29 322.4,19" fill="none" stroke="#39FF14" stroke-width="1" opacity="0.05885026622956434"/>
<polygon points="218,169 226.6,174 226.6,184 218,189 209.4,184 209.4,174" fill="none" stroke="#39FF14" stroke-width="1" opacity="0.04783243272158963"/>
<polygon points="444,90 452.6,95 452.6,105 444,110 435.4,105 435.4,95" fill="none" stroke="#39FF14" stroke-width="1" opacity="0.027041751859010886"/>
<polygon points="586,127 594.6,132 594.6,142 586,147 577.4,142 577.4,132" fill="none" stroke="#39FF14" stroke-width="1" opacity="0.04913166871399595"/>
<polygon points="269,132 277.6,137 277.6,147 269,152 260.4,147 260.4,137" fill="none" stroke="#39FF14" stroke-width="1" opacity="0.061490114073050745"/>
<polygon points="712,54 720.6,59 720.6,69 712,74 703.4,69 703.4,59" fill="none" stroke="#39FF14" stroke-width="1" opacity="0.032425924167835664"/>
<polygon points="585,14 593.6,19 593.6,29 585,34 576.4,29 576.4,19" fill="none" stroke="#39FF14" stroke-width="1" opacity="0.03939269148209229"/>
<polygon points="708,103 716.6,108 716.6,118 708,123 699.4,118 699.4,108" fill="none" stroke="#39FF14" stroke-width="1" opacity="0.06210096196948757"/>
<polygon points="527,42 535.6,47 535.6,57 527,62 518.4,57 518.4,47" fill="none" stroke="#39FF14" stroke-width="1" opacity="0.03793130099511641"/>
<polygon points="750,9 758.6,14 758.6,24 750,29 741.4,24 741.4,14" fill="none" stroke="#39FF14" stroke-width="1" opacity="0.047823365985530115"/>
<polygon points="1,13 9.6,18 9.6,28 1,33 -7.6,28 -7.6,18" fill="none" stroke="#39FF14" stroke-width="1" opacity="0.036946601385744085"/>
<polygon points="842,17 850.6,22 850.6,32 842,37 833.4,32 833.4,22" fill="none" stroke="#39FF14" stroke-width="1" opacity="0.05651012431311919"/>
</g>

  <!-- HUD Decorative elements -->
  <path d="M 20 20 L 40 20 L 50 30" fill="none" stroke="#39FF14" stroke-width="2" opacity="0.5"/>
  <path d="M 830 180 L 810 180 L 800 170" fill="none" stroke="#39FF14" stroke-width="2" opacity="0.5"/>
  <rect x="20" y="100" width="2" height="40" fill="#ffffff" opacity="0.4"/>
  <rect x="828" y="60" width="2" height="40" fill="#39FF14" opacity="0.6"/>

  <g font-family="'Consolas', 'Fira Code', monospace" text-anchor="middle">

    <!-- SYSTEM STATUS -->
    <g transform="translate(130, 100)">
        <circle cx="0" cy="0" r="45" fill="none" stroke="#111111" stroke-width="8" />
        <circle cx="0" cy="0" r="45" fill="none" stroke="#39FF14" stroke-width="2" stroke-dasharray="10 5">
            <animateTransform attributeName="transform" type="rotate" from="0" to="360" dur="10s" repeatCount="indefinite"/>
        </circle>
        <circle cx="0" cy="0" r="35" fill="#0d0d0d" />
        <circle cx="0" cy="0" r="6" fill="#39FF14" filter="url(#textGlow)">
            <animate attributeName="opacity" values="1;0.3;1" dur="2s" repeatCount="indefinite"/>
        </circle>
        <text x="0" y="-60" font-size="12" fill="#aaaaaa" letter-spacing="2">SYS.CORE</text>
        <text x="0" y="70" font-size="14" fill="#ffffff" font-weight="bold">ONLINE</text>
    </g>

    <!-- LIVE TRAFFIC -->
    <g transform="translate(330, 100)">
        <rect x="-60" y="-45" width="120" height="90" fill="#0a0a0a" rx="8" stroke="#39FF14" stroke-opacity="0.4" stroke-width="1"/>
        <text x="0" y="-20" font-size="12" fill="#aaaaaa">NETWORK LOAD</text>
        <text x="0" y="15" font-size="28" fill="#ffffff" font-weight="bold" filter="url(#textGlow)">7435</text>
        <text x="0" y="35" font-size="10" fill="#777777">ACTIVE SESSIONS</text>
    </g>

    <!-- ACTIVE AGENTS -->
    <g transform="translate(530, 100)">
        <rect x="-60" y="-45" width="120" height="90" fill="#0a0a0a" rx="8" stroke="#39FF14" stroke-opacity="0.4" stroke-width="1"/>
        <text x="0" y="-20" font-size="12" fill="#aaaaaa">SWARM ENTITIES</text>
        <text x="0" y="15" font-size="28" fill="#ffffff" font-weight="bold" filter="url(#textGlow)">107</text>
        <text x="0" y="35" font-size="10" fill="#777777">AUTONOMOUS</text>
    </g>

    <!-- UPTIME -->
    <g transform="translate(730, 100)">
        <path d="M -40 -35 L 40 -35 L 50 -25 L 50 35 L -40 35 L -50 25 Z" fill="#0a0a0a" stroke="#39FF14" stroke-opacity="0.4" stroke-width="1"/>
        <text x="0" y="-15" font-size="12" fill="#aaaaaa">CONTINUITY</text>
        <text x="0" y="15" font-size="24" fill="#ffffff" font-weight="bold">310<tspan font-size="14" fill="#777777">d</tspan></text>
        <rect x="-35" y="25" width="70" height="4" fill="url(#neonBar)" rx="2"/>
    </g>
  </g>

  <text x="425" y="185" font-family="'Consolas', 'Fira Code', monospace" font-size="10" fill="#aaaaaa" opacity="0.6" text-anchor="middle">LAST TELEMETRY PING: 2026-04-29 12:45:47 UTC // ENCRYPTED_TUNNEL</text>
</svg>