<svg width="850" height="200" viewBox="0 0 850 200" xmlns="http://www.w3.org/2000/svg">
  <defs>
    <pattern id="carbonFiber" width="10" height="10" patternUnits="userSpaceOnUse">
        <rect width="10" height="10" fill="#050505"/>
        <path d="M0,0 L5,5 L10,0 L5,-5 Z M5,5 L10,10 L15,5 L10,0 Z M-5,5 L0,10 L5,5 L0,0 Z M0,10 L5,15 L10,10 L5,5 Z" fill="#0d0d0d"/>
    </pattern>
    <filter id="textGlow">
      <feGaussianBlur stdDeviation="2" result="blur" />
      <feMerge>
        <feMergeNode in="blur"/>
        <feMergeNode in="SourceGraphic"/>
      </feMerge>
    </filter>
    <linearGradient id="neonBar" x1="0%" y1="0%" x2="100%" y2="0%">
        <stop offset="0%" stop-color="#111111"/>
        <stop offset="100%" stop-color="#39FF14"/>
    </linearGradient>
    <linearGradient id="scanlineGrad" x1="0%" y1="0%" x2="100%" y2="0%">
        <stop offset="0%" stop-color="#39FF14" stop-opacity="0"/>
        <stop offset="50%" stop-color="#39FF14" stop-opacity="0.18"/>
        <stop offset="100%" stop-color="#39FF14" stop-opacity="0"/>
    </linearGradient>
    <clipPath id="dashClip">
        <rect x="0" y="0" width="850" height="200" rx="12"/>
    </clipPath>
  </defs>

  <rect width="100%" height="100%" fill="url(#carbonFiber)" rx="12" stroke="#39FF14" stroke-width="1" stroke-opacity="0.3"/>
  <rect width="100%" height="100%" fill="#000000" opacity="0.6" rx="12" />
  <g><polygon points="511,186 519.6,191 519.6,201 511,206 502.4,201 502.4,191" fill="none" stroke="#39FF14" stroke-width="1" opacity="0.035236411643203555"/>
<polygon points="787,114 795.6,119 795.6,129 787,134 778.4,129 778.4,119" fill="none" stroke="#39FF14" stroke-width="1" opacity="0.03308323731675175"/>
<polygon points="472,84 480.6,89 480.6,99 472,104 463.4,99 463.4,89" fill="none" stroke="#39FF14" stroke-width="1" opacity="0.05901600858926366"/>
<polygon points="345,94 353.6,99 353.6,109 345,114 336.4,109 336.4,99" fill="none" stroke="#39FF14" stroke-width="1" opacity="0.07631744774436289"/>
<polygon points="599,28 607.6,33 607.6,43 599,48 590.4,43 590.4,33" fill="none" stroke="#39FF14" stroke-width="1" opacity="0.02259928017458712"/>
<polygon points="363,33 371.6,38 371.6,48 363,53 354.4,48 354.4,38" fill="none" stroke="#39FF14" stroke-width="1" opacity="0.05731670906437951"/>
<polygon points="552,62 560.6,67 560.6,77 552,82 543.4,77 543.4,67" fill="none" stroke="#39FF14" stroke-width="1" opacity="0.03254972637709388"/>
<polygon points="797,134 805.6,139 805.6,149 797,154 788.4,149 788.4,139" fill="none" stroke="#39FF14" stroke-width="1" opacity="0.03279545542626558"/>
<polygon points="28,98 36.6,103 36.6,113 28,118 19.4,113 19.4,103" fill="none" stroke="#39FF14" stroke-width="1" opacity="0.07816084234644975"/>
<polygon points="812,139 820.6,144 820.6,154 812,159 803.4,154 803.4,144" fill="none" stroke="#39FF14" stroke-width="1" opacity="0.06438921740178172"/>
<polygon points="280,175 288.6,180 288.6,190 280,195 271.4,190 271.4,180" fill="none" stroke="#39FF14" stroke-width="1" opacity="0.04785250164983086"/>
<polygon points="397,112 405.6,117 405.6,127 397,132 388.4,127 388.4,117" fill="none" stroke="#39FF14" stroke-width="1" opacity="0.055087317702689015"/>
<polygon points="161,109 169.6,114 169.6,124 161,129 152.4,124 152.4,114" fill="none" stroke="#39FF14" stroke-width="1" opacity="0.03522297908918279"/>
<polygon points="427,139 435.6,144 435.6,154 427,159 418.4,154 418.4,144" fill="none" stroke="#39FF14" stroke-width="1" opacity="0.060379387251097136"/>
<polygon points="380,73 388.6,78 388.6,88 380,93 371.4,88 371.4,78" fill="none" stroke="#39FF14" stroke-width="1" opacity="0.05637123945669201"/>
<polygon points="736,2 744.6,7 744.6,17 736,22 727.4,17 727.4,7" fill="none" stroke="#39FF14" stroke-width="1" opacity="0.03458386479022069"/>
<polygon points="171,-7 179.6,-2 179.6,8 171,13 162.4,8 162.4,-2" fill="none" stroke="#39FF14" stroke-width="1" opacity="0.026922925398395844"/>
<polygon points="168,47 176.6,52 176.6,62 168,67 159.4,62 159.4,52" fill="none" stroke="#39FF14" stroke-width="1" opacity="0.05315204036142514"/>
<polygon points="745,28 753.6,33 753.6,43 745,48 736.4,43 736.4,33" fill="none" stroke="#39FF14" stroke-width="1" opacity="0.04524079703573608"/>
<polygon points="268,21 276.6,26 276.6,36 268,41 259.4,36 259.4,26" fill="none" stroke="#39FF14" stroke-width="1" opacity="0.04653540974028476"/>
<polygon points="777,183 785.6,188 785.6,198 777,203 768.4,198 768.4,188" fill="none" stroke="#39FF14" stroke-width="1" opacity="0.06008515618678714"/>
<polygon points="529,133 537.6,138 537.6,148 529,153 520.4,148 520.4,138" fill="none" stroke="#39FF14" stroke-width="1" opacity="0.054386155353094934"/>
<polygon points="61,40 69.6,45 69.6,55 61,60 52.4,55 52.4,45" fill="none" stroke="#39FF14" stroke-width="1" opacity="0.07593877185754132"/>
<polygon points="732,50 740.6,55 740.6,65 732,70 723.4,65 723.4,55" fill="none" stroke="#39FF14" stroke-width="1" opacity="0.06507115792477496"/>
<polygon points="468,159 476.6,164 476.6,174 468,179 459.4,174 459.4,164" fill="none" stroke="#39FF14" stroke-width="1" opacity="0.05497307866201162"/>
<polygon points="589,111 597.6,116 597.6,126 589,131 580.4,126 580.4,116" fill="none" stroke="#39FF14" stroke-width="1" opacity="0.029046103085277258"/>
<polygon points="100,57 108.6,62 108.6,72 100,77 91.4,72 91.4,62" fill="none" stroke="#39FF14" stroke-width="1" opacity="0.04226325022145261"/>
<polygon points="37,95 45.6,100 45.6,110 37,115 28.4,110 28.4,100" fill="none" stroke="#39FF14" stroke-width="1" opacity="0.07294847014243079"/>
<polygon points="47,95 55.6,100 55.6,110 47,115 38.4,110 38.4,100" fill="none" stroke="#39FF14" stroke-width="1" opacity="0.06484392841050798"/>
<polygon points="550,173 558.6,178 558.6,188 550,193 541.4,188 541.4,178" fill="none" stroke="#39FF14" stroke-width="1" opacity="0.05988463229457486"/>
</g>

  <!-- HUD Decorative elements -->
  <path d="M 20 20 L 40 20 L 50 30" fill="none" stroke="#39FF14" stroke-width="2" opacity="0.5"/>
  <path d="M 830 180 L 810 180 L 800 170" fill="none" stroke="#39FF14" stroke-width="2" opacity="0.5"/>

  <g clip-path="url(#dashClip)">
    <rect x="-160" y="0" width="160" height="200" fill="url(#scanlineGrad)">
      <animateTransform attributeName="transform" type="translate"
                        from="0 0" to="1010 0" dur="6s" repeatCount="indefinite"/>
    </rect>
  </g>

  <g font-family="'Consolas', 'Fira Code', monospace" text-anchor="middle">

    <!-- NETWORK STATUS -->
    <g transform="translate(130, 100)">
        <circle cx="0" cy="0" r="45" fill="none" stroke="#39FF14" stroke-width="2" stroke-dasharray="10 5">
            <animateTransform attributeName="transform" type="rotate" from="0" to="360" dur="10s" repeatCount="indefinite"/>
        </circle>
        <circle cx="0" cy="0" r="35" fill="#0d0d0d" />
        <text x="0" y="-60" font-size="12" fill="#aaaaaa" letter-spacing="2">ROOT.AUTH</text>
        <text x="0" y="70" font-size="14" fill="#ffffff" font-weight="bold">OPERATIONAL</text>
    </g>

    <!-- ACTIVE USERS -->
    <g transform="translate(330, 100)">
        <text x="0" y="-20" font-size="12" fill="#aaaaaa">CITIZENS</text>
        <text x="0" y="15" font-size="28" fill="#ffffff" font-weight="bold" filter="url(#textGlow)">15,058</text>
        <text x="0" y="35" font-size="10" fill="#777777">VERIFIED HUMANS</text>
    </g>

    <!-- REGISTERED AGENTS -->
    <g transform="translate(530, 100)">
        <text x="0" y="-20" font-size="12" fill="#aaaaaa">AGENTS</text>
        <text x="0" y="15" font-size="28" fill="#00d4ff" font-weight="bold" filter="url(#textGlow)">4,496</text>
        <text x="0" y="35" font-size="10" fill="#777777">REGISTERED DIDs</text>
    </g>

    <!-- TRANSACTIONS -->
    <g transform="translate(730, 100)">
        <text x="0" y="-20" font-size="12" fill="#aaaaaa">TRANSFERS</text>
        <text x="0" y="15" font-size="28" fill="#ffffff" font-weight="bold">38,870</text>
        <text x="0" y="35" font-size="10" fill="#777777">M2M SETTLEMENTS</text>
    </g>
  </g>

  <text x="425" y="185" font-family="'Consolas', 'Fira Code', monospace" font-size="10" fill="#aaaaaa" opacity="0.6" text-anchor="middle">AXIOMID PROJECTED TARGETS (ILLUSTRATIVE): 2026-06-28 00:29:39 UTC // SECURE_HANDSHAKE</text>
</svg>