<svg width="850" height="200" viewBox="0 0 850 200" xmlns="http://www.w3.org/2000/svg">
  <defs>
    <pattern id="carbonFiber" width="10" height="10" patternUnits="userSpaceOnUse">
        <rect width="10" height="10" fill="#050505"/>
        <path d="M0,0 L5,5 L10,0 L5,-5 Z M5,5 L10,10 L15,5 L10,0 Z M-5,5 L0,10 L5,5 L0,0 Z M0,10 L5,15 L10,10 L5,5 Z" fill="#0d0d0d"/>
    </pattern>
    <filter id="textGlow">
      <feGaussianBlur stdDeviation="2" result="blur" />
      <feMerge>
        <feMergeNode in="blur"/>
        <feMergeNode in="SourceGraphic"/>
      </feMerge>
    </filter>
    <linearGradient id="neonBar" x1="0%" y1="0%" x2="100%" y2="0%">
        <stop offset="0%" stop-color="#111111"/>
        <stop offset="100%" stop-color="#39FF14"/>
    </linearGradient>
    <linearGradient id="scanlineGrad" x1="0%" y1="0%" x2="100%" y2="0%">
        <stop offset="0%" stop-color="#39FF14" stop-opacity="0"/>
        <stop offset="50%" stop-color="#39FF14" stop-opacity="0.18"/>
        <stop offset="100%" stop-color="#39FF14" stop-opacity="0"/>
    </linearGradient>
    <clipPath id="dashClip">
        <rect x="0" y="0" width="850" height="200" rx="12"/>
    </clipPath>
  </defs>

  <rect width="100%" height="100%" fill="url(#carbonFiber)" rx="12" stroke="#39FF14" stroke-width="1" stroke-opacity="0.3"/>
  <rect width="100%" height="100%" fill="#000000" opacity="0.6" rx="12" />
  <g><polygon points="123,74 131.6,79 131.6,89 123,94 114.4,89 114.4,79" fill="none" stroke="#39FF14" stroke-width="1" opacity="0.02977546632136"/>
<polygon points="199,9 207.6,14 207.6,24 199,29 190.4,24 190.4,14" fill="none" stroke="#39FF14" stroke-width="1" opacity="0.04167150602813431"/>
<polygon points="649,15 657.6,20 657.6,30 649,35 640.4,30 640.4,20" fill="none" stroke="#39FF14" stroke-width="1" opacity="0.04255607148338296"/>
<polygon points="264,7 272.6,12 272.6,22 264,27 255.4,22 255.4,12" fill="none" stroke="#39FF14" stroke-width="1" opacity="0.021351007559995656"/>
<polygon points="218,122 226.6,127 226.6,137 218,142 209.4,137 209.4,127" fill="none" stroke="#39FF14" stroke-width="1" opacity="0.04385916794323383"/>
<polygon points="104,168 112.6,173 112.6,183 104,188 95.4,183 95.4,173" fill="none" stroke="#39FF14" stroke-width="1" opacity="0.0747377577705582"/>
<polygon points="763,-9 771.6,-4 771.6,6 763,11 754.4,6 754.4,-4" fill="none" stroke="#39FF14" stroke-width="1" opacity="0.04738029249887684"/>
<polygon points="478,151 486.6,156 486.6,166 478,171 469.4,166 469.4,156" fill="none" stroke="#39FF14" stroke-width="1" opacity="0.0790804258061875"/>
<polygon points="329,152 337.6,157 337.6,167 329,172 320.4,167 320.4,157" fill="none" stroke="#39FF14" stroke-width="1" opacity="0.07165195043258474"/>
<polygon points="812,147 820.6,152 820.6,162 812,167 803.4,162 803.4,152" fill="none" stroke="#39FF14" stroke-width="1" opacity="0.027120462319851324"/>
<polygon points="530,38 538.6,43 538.6,53 530,58 521.4,53 521.4,43" fill="none" stroke="#39FF14" stroke-width="1" opacity="0.028107058840937855"/>
<polygon points="555,76 563.6,81 563.6,91 555,96 546.4,91 546.4,81" fill="none" stroke="#39FF14" stroke-width="1" opacity="0.04146093447677057"/>
<polygon points="468,52 476.6,57 476.6,67 468,72 459.4,67 459.4,57" fill="none" stroke="#39FF14" stroke-width="1" opacity="0.041138085963208657"/>
<polygon points="340,179 348.6,184 348.6,194 340,199 331.4,194 331.4,184" fill="none" stroke="#39FF14" stroke-width="1" opacity="0.058305965517370564"/>
<polygon points="369,116 377.6,121 377.6,131 369,136 360.4,131 360.4,121" fill="none" stroke="#39FF14" stroke-width="1" opacity="0.020100511552845785"/>
<polygon points="689,136 697.6,141 697.6,151 689,156 680.4,151 680.4,141" fill="none" stroke="#39FF14" stroke-width="1" opacity="0.042362489201459755"/>
<polygon points="374,-8 382.6,-3 382.6,7 374,12 365.4,7 365.4,-3" fill="none" stroke="#39FF14" stroke-width="1" opacity="0.03272603281262368"/>
<polygon points="175,42 183.6,47 183.6,57 175,62 166.4,57 166.4,47" fill="none" stroke="#39FF14" stroke-width="1" opacity="0.07519452704073042"/>
<polygon points="338,89 346.6,94 346.6,104 338,109 329.4,104 329.4,94" fill="none" stroke="#39FF14" stroke-width="1" opacity="0.04548881044589378"/>
<polygon points="468,103 476.6,108 476.6,118 468,123 459.4,118 459.4,108" fill="none" stroke="#39FF14" stroke-width="1" opacity="0.03188911093038028"/>
<polygon points="565,159 573.6,164 573.6,174 565,179 556.4,174 556.4,164" fill="none" stroke="#39FF14" stroke-width="1" opacity="0.05566868616908359"/>
<polygon points="786,56 794.6,61 794.6,71 786,76 777.4,71 777.4,61" fill="none" stroke="#39FF14" stroke-width="1" opacity="0.05111378444447082"/>
<polygon points="673,19 681.6,24 681.6,34 673,39 664.4,34 664.4,24" fill="none" stroke="#39FF14" stroke-width="1" opacity="0.04386163007999695"/>
<polygon points="711,172 719.6,177 719.6,187 711,192 702.4,187 702.4,177" fill="none" stroke="#39FF14" stroke-width="1" opacity="0.06523647561470239"/>
<polygon points="310,90 318.6,95 318.6,105 310,110 301.4,105 301.4,95" fill="none" stroke="#39FF14" stroke-width="1" opacity="0.027829920509552585"/>
<polygon points="569,12 577.6,17 577.6,27 569,32 560.4,27 560.4,17" fill="none" stroke="#39FF14" stroke-width="1" opacity="0.026694774826876877"/>
<polygon points="474,91 482.6,96 482.6,106 474,111 465.4,106 465.4,96" fill="none" stroke="#39FF14" stroke-width="1" opacity="0.04086512492368069"/>
<polygon points="273,125 281.6,130 281.6,140 273,145 264.4,140 264.4,130" fill="none" stroke="#39FF14" stroke-width="1" opacity="0.04519658143278662"/>
<polygon points="86,7 94.6,12 94.6,22 86,27 77.4,22 77.4,12" fill="none" stroke="#39FF14" stroke-width="1" opacity="0.05478944303461809"/>
<polygon points="828,140 836.6,145 836.6,155 828,160 819.4,155 819.4,145" fill="none" stroke="#39FF14" stroke-width="1" opacity="0.05928768773939207"/>
</g>

  <!-- HUD Decorative elements -->
  <path d="M 20 20 L 40 20 L 50 30" fill="none" stroke="#39FF14" stroke-width="2" opacity="0.5"/>
  <path d="M 830 180 L 810 180 L 800 170" fill="none" stroke="#39FF14" stroke-width="2" opacity="0.5"/>

  <g clip-path="url(#dashClip)">
    <rect x="-160" y="0" width="160" height="200" fill="url(#scanlineGrad)">
      <animateTransform attributeName="transform" type="translate"
                        from="0 0" to="1010 0" dur="6s" repeatCount="indefinite"/>
    </rect>
  </g>

  <g font-family="'Consolas', 'Fira Code', monospace" text-anchor="middle">

    <!-- NETWORK STATUS -->
    <g transform="translate(130, 100)">
        <circle cx="0" cy="0" r="45" fill="none" stroke="#39FF14" stroke-width="2" stroke-dasharray="10 5">
            <animateTransform attributeName="transform" type="rotate" from="0" to="360" dur="10s" repeatCount="indefinite"/>
        </circle>
        <circle cx="0" cy="0" r="35" fill="#0d0d0d" />
        <text x="0" y="-60" font-size="12" fill="#aaaaaa" letter-spacing="2">ROOT.AUTH</text>
        <text x="0" y="70" font-size="14" fill="#ffffff" font-weight="bold">OPERATIONAL</text>
    </g>

    <!-- ACTIVE USERS -->
    <g transform="translate(330, 100)">
        <text x="0" y="-20" font-size="12" fill="#aaaaaa">CITIZENS</text>
        <text x="0" y="15" font-size="28" fill="#ffffff" font-weight="bold" filter="url(#textGlow)">13,247</text>
        <text x="0" y="35" font-size="10" fill="#777777">VERIFIED HUMANS</text>
    </g>

    <!-- REGISTERED AGENTS -->
    <g transform="translate(530, 100)">
        <text x="0" y="-20" font-size="12" fill="#aaaaaa">AGENTS</text>
        <text x="0" y="15" font-size="28" fill="#00d4ff" font-weight="bold" filter="url(#textGlow)">4,232</text>
        <text x="0" y="35" font-size="10" fill="#777777">REGISTERED DIDs</text>
    </g>

    <!-- TRANSACTIONS -->
    <g transform="translate(730, 100)">
        <text x="0" y="-20" font-size="12" fill="#aaaaaa">TRANSFERS</text>
        <text x="0" y="15" font-size="28" fill="#ffffff" font-weight="bold">28,156</text>
        <text x="0" y="35" font-size="10" fill="#777777">M2M SETTLEMENTS</text>
    </g>
  </g>

  <text x="425" y="185" font-family="'Consolas', 'Fira Code', monospace" font-size="10" fill="#aaaaaa" opacity="0.6" text-anchor="middle">AXIOMID PROJECTED TARGETS (ILLUSTRATIVE): 2026-07-05 19:01:36 UTC // SECURE_HANDSHAKE</text>
</svg>