<svg width="850" height="200" viewBox="0 0 850 200" xmlns="http://www.w3.org/2000/svg">
  <defs>
    <pattern id="carbonFiber" width="10" height="10" patternUnits="userSpaceOnUse">
        <rect width="10" height="10" fill="#050505"/>
        <path d="M0,0 L5,5 L10,0 L5,-5 Z M5,5 L10,10 L15,5 L10,0 Z M-5,5 L0,10 L5,5 L0,0 Z M0,10 L5,15 L10,10 L5,5 Z" fill="#0d0d0d"/>
    </pattern>
    <filter id="textGlow">
      <feGaussianBlur stdDeviation="2" result="blur" />
      <feMerge>
        <feMergeNode in="blur"/>
        <feMergeNode in="SourceGraphic"/>
      </feMerge>
    </filter>
    <linearGradient id="neonBar" x1="0%" y1="0%" x2="100%" y2="0%">
        <stop offset="0%" stop-color="#111111"/>
        <stop offset="100%" stop-color="#39FF14"/>
    </linearGradient>
    <linearGradient id="scanlineGrad" x1="0%" y1="0%" x2="100%" y2="0%">
        <stop offset="0%" stop-color="#39FF14" stop-opacity="0"/>
        <stop offset="50%" stop-color="#39FF14" stop-opacity="0.18"/>
        <stop offset="100%" stop-color="#39FF14" stop-opacity="0"/>
    </linearGradient>
    <clipPath id="dashClip">
        <rect x="0" y="0" width="850" height="200" rx="12"/>
    </clipPath>
  </defs>

  <rect width="100%" height="100%" fill="url(#carbonFiber)" rx="12" stroke="#39FF14" stroke-width="1" stroke-opacity="0.3"/>
  <rect width="100%" height="100%" fill="#000000" opacity="0.6" rx="12" />
  <g><polygon points="648,102 656.6,107 656.6,117 648,122 639.4,117 639.4,107" fill="none" stroke="#39FF14" stroke-width="1" opacity="0.021024920071465798"/>
<polygon points="546,61 554.6,66 554.6,76 546,81 537.4,76 537.4,66" fill="none" stroke="#39FF14" stroke-width="1" opacity="0.06648406149903088"/>
<polygon points="113,13 121.6,18 121.6,28 113,33 104.4,28 104.4,18" fill="none" stroke="#39FF14" stroke-width="1" opacity="0.06285526912766795"/>
<polygon points="109,182 117.6,187 117.6,197 109,202 100.4,197 100.4,187" fill="none" stroke="#39FF14" stroke-width="1" opacity="0.021159546925149483"/>
<polygon points="416,52 424.6,57 424.6,67 416,72 407.4,67 407.4,57" fill="none" stroke="#39FF14" stroke-width="1" opacity="0.04425243303501587"/>
<polygon points="46,28 54.6,33 54.6,43 46,48 37.4,43 37.4,33" fill="none" stroke="#39FF14" stroke-width="1" opacity="0.06925469795423803"/>
<polygon points="839,142 847.6,147 847.6,157 839,162 830.4,157 830.4,147" fill="none" stroke="#39FF14" stroke-width="1" opacity="0.03750818457021166"/>
<polygon points="732,64 740.6,69 740.6,79 732,84 723.4,79 723.4,69" fill="none" stroke="#39FF14" stroke-width="1" opacity="0.024331689388187312"/>
<polygon points="834,158 842.6,163 842.6,173 834,178 825.4,173 825.4,163" fill="none" stroke="#39FF14" stroke-width="1" opacity="0.033845567210846465"/>
<polygon points="108,44 116.6,49 116.6,59 108,64 99.4,59 99.4,49" fill="none" stroke="#39FF14" stroke-width="1" opacity="0.059429092083324905"/>
<polygon points="214,-7 222.6,-2 222.6,8 214,13 205.4,8 205.4,-2" fill="none" stroke="#39FF14" stroke-width="1" opacity="0.020031893579719955"/>
<polygon points="549,26 557.6,31 557.6,41 549,46 540.4,41 540.4,31" fill="none" stroke="#39FF14" stroke-width="1" opacity="0.05664669007329949"/>
<polygon points="367,130 375.6,135 375.6,145 367,150 358.4,145 358.4,135" fill="none" stroke="#39FF14" stroke-width="1" opacity="0.06644572629145645"/>
<polygon points="476,28 484.6,33 484.6,43 476,48 467.4,43 467.4,33" fill="none" stroke="#39FF14" stroke-width="1" opacity="0.056700712824873975"/>
<polygon points="462,15 470.6,20 470.6,30 462,35 453.4,30 453.4,20" fill="none" stroke="#39FF14" stroke-width="1" opacity="0.07810603363734016"/>
<polygon points="65,165 73.6,170 73.6,180 65,185 56.4,180 56.4,170" fill="none" stroke="#39FF14" stroke-width="1" opacity="0.06037456593103836"/>
<polygon points="80,182 88.6,187 88.6,197 80,202 71.4,197 71.4,187" fill="none" stroke="#39FF14" stroke-width="1" opacity="0.051488061222890735"/>
<polygon points="589,70 597.6,75 597.6,85 589,90 580.4,85 580.4,75" fill="none" stroke="#39FF14" stroke-width="1" opacity="0.02949763417139352"/>
<polygon points="513,149 521.6,154 521.6,164 513,169 504.4,164 504.4,154" fill="none" stroke="#39FF14" stroke-width="1" opacity="0.07968405132071522"/>
<polygon points="448,9 456.6,14 456.6,24 448,29 439.4,24 439.4,14" fill="none" stroke="#39FF14" stroke-width="1" opacity="0.0754674125033664"/>
<polygon points="160,127 168.6,132 168.6,142 160,147 151.4,142 151.4,132" fill="none" stroke="#39FF14" stroke-width="1" opacity="0.07026563511780638"/>
<polygon points="580,89 588.6,94 588.6,104 580,109 571.4,104 571.4,94" fill="none" stroke="#39FF14" stroke-width="1" opacity="0.07156332644624862"/>
<polygon points="524,183 532.6,188 532.6,198 524,203 515.4,198 515.4,188" fill="none" stroke="#39FF14" stroke-width="1" opacity="0.050058931833754094"/>
<polygon points="802,134 810.6,139 810.6,149 802,154 793.4,149 793.4,139" fill="none" stroke="#39FF14" stroke-width="1" opacity="0.05432783664949413"/>
<polygon points="276,96 284.6,101 284.6,111 276,116 267.4,111 267.4,101" fill="none" stroke="#39FF14" stroke-width="1" opacity="0.0778438779361936"/>
<polygon points="779,55 787.6,60 787.6,70 779,75 770.4,70 770.4,60" fill="none" stroke="#39FF14" stroke-width="1" opacity="0.021691180066654242"/>
<polygon points="174,121 182.6,126 182.6,136 174,141 165.4,136 165.4,126" fill="none" stroke="#39FF14" stroke-width="1" opacity="0.037401606624952496"/>
<polygon points="573,148 581.6,153 581.6,163 573,168 564.4,163 564.4,153" fill="none" stroke="#39FF14" stroke-width="1" opacity="0.06929242385094339"/>
<polygon points="475,146 483.6,151 483.6,161 475,166 466.4,161 466.4,151" fill="none" stroke="#39FF14" stroke-width="1" opacity="0.06219649889360461"/>
<polygon points="594,134 602.6,139 602.6,149 594,154 585.4,149 585.4,139" fill="none" stroke="#39FF14" stroke-width="1" opacity="0.06846440513698011"/>
</g>

  <!-- HUD Decorative elements -->
  <path d="M 20 20 L 40 20 L 50 30" fill="none" stroke="#39FF14" stroke-width="2" opacity="0.5"/>
  <path d="M 830 180 L 810 180 L 800 170" fill="none" stroke="#39FF14" stroke-width="2" opacity="0.5"/>

  <g clip-path="url(#dashClip)">
    <rect x="-160" y="0" width="160" height="200" fill="url(#scanlineGrad)">
      <animateTransform attributeName="transform" type="translate"
                        from="0 0" to="1010 0" dur="6s" repeatCount="indefinite"/>
    </rect>
  </g>

  <g font-family="'Consolas', 'Fira Code', monospace" text-anchor="middle">

    <!-- NETWORK STATUS -->
    <g transform="translate(130, 100)">
        <circle cx="0" cy="0" r="45" fill="none" stroke="#39FF14" stroke-width="2" stroke-dasharray="10 5">
            <animateTransform attributeName="transform" type="rotate" from="0" to="360" dur="10s" repeatCount="indefinite"/>
        </circle>
        <circle cx="0" cy="0" r="35" fill="#0d0d0d" />
        <text x="0" y="-60" font-size="12" fill="#aaaaaa" letter-spacing="2">ROOT.AUTH</text>
        <text x="0" y="70" font-size="14" fill="#ffffff" font-weight="bold">OPERATIONAL</text>
    </g>

    <!-- ACTIVE USERS -->
    <g transform="translate(330, 100)">
        <text x="0" y="-20" font-size="12" fill="#aaaaaa">CITIZENS</text>
        <text x="0" y="15" font-size="28" fill="#ffffff" font-weight="bold" filter="url(#textGlow)">14,487</text>
        <text x="0" y="35" font-size="10" fill="#777777">VERIFIED HUMANS</text>
    </g>

    <!-- REGISTERED AGENTS -->
    <g transform="translate(530, 100)">
        <text x="0" y="-20" font-size="12" fill="#aaaaaa">AGENTS</text>
        <text x="0" y="15" font-size="28" fill="#00d4ff" font-weight="bold" filter="url(#textGlow)">4,522</text>
        <text x="0" y="35" font-size="10" fill="#777777">REGISTERED DIDs</text>
    </g>

    <!-- TRANSACTIONS -->
    <g transform="translate(730, 100)">
        <text x="0" y="-20" font-size="12" fill="#aaaaaa">TRANSFERS</text>
        <text x="0" y="15" font-size="28" fill="#ffffff" font-weight="bold">25,374</text>
        <text x="0" y="35" font-size="10" fill="#777777">M2M SETTLEMENTS</text>
    </g>
  </g>

  <text x="425" y="185" font-family="'Consolas', 'Fira Code', monospace" font-size="10" fill="#aaaaaa" opacity="0.6" text-anchor="middle">AXIOMID PROJECTED TARGETS (ILLUSTRATIVE): 2026-06-30 07:13:00 UTC // SECURE_HANDSHAKE</text>
</svg>