<svg width="850" height="200" viewBox="0 0 850 200" xmlns="http://www.w3.org/2000/svg">
  <defs>
    <!-- Carbon Fiber Pattern -->
    <pattern id="carbonFiber" width="10" height="10" patternUnits="userSpaceOnUse">
        <rect width="10" height="10" fill="#050505"/>
        <path d="M0,0 L5,5 L10,0 L5,-5 Z M5,5 L10,10 L15,5 L10,0 Z M-5,5 L0,10 L5,5 L0,0 Z M0,10 L5,15 L10,10 L5,5 Z" fill="#0d0d0d"/>
    </pattern>
    <filter id="glassmorphism">
      <feGaussianBlur stdDeviation="3" result="blur" />
      <feColorMatrix type="matrix" values="1 0 0 0 0  0 1 0 0 0  0 0 1 0 0  0 0 0 18 -7" result="glow" />
      <feBlend in="SourceGraphic" in2="glow" mode="normal" />
    </filter>
    <filter id="textGlow">
      <feGaussianBlur stdDeviation="2" result="blur" />
      <feMerge>
        <feMergeNode in="blur"/>
        <feMergeNode in="SourceGraphic"/>
      </feMerge>
    </filter>
    <linearGradient id="neonBar" x1="0%" y1="0%" x2="100%" y2="0%">
        <stop offset="0%" stop-color="#111111"/>
        <stop offset="100%" stop-color="#39FF14"/>
    </linearGradient>
  </defs>

  <rect width="100%" height="100%" fill="url(#carbonFiber)" rx="12" stroke="#39FF14" stroke-width="1" stroke-opacity="0.3"/>
  <rect width="100%" height="100%" fill="#000000" opacity="0.6" rx="12" />
  <g><polygon points="702,183 710.6,188 710.6,198 702,203 693.4,198 693.4,188" fill="none" stroke="#39FF14" stroke-width="1" opacity="0.02289979069241607"/>
<polygon points="347,103 355.6,108 355.6,118 347,123 338.4,118 338.4,108" fill="none" stroke="#39FF14" stroke-width="1" opacity="0.07874294712768361"/>
<polygon points="247,104 255.6,109 255.6,119 247,124 238.4,119 238.4,109" fill="none" stroke="#39FF14" stroke-width="1" opacity="0.04916591198714327"/>
<polygon points="225,46 233.6,51 233.6,61 225,66 216.4,61 216.4,51" fill="none" stroke="#39FF14" stroke-width="1" opacity="0.04208280464292362"/>
<polygon points="311,144 319.6,149 319.6,159 311,164 302.4,159 302.4,149" fill="none" stroke="#39FF14" stroke-width="1" opacity="0.06622069632129828"/>
<polygon points="38,110 46.6,115 46.6,125 38,130 29.4,125 29.4,115" fill="none" stroke="#39FF14" stroke-width="1" opacity="0.07589886621281591"/>
<polygon points="31,54 39.6,59 39.6,69 31,74 22.4,69 22.4,59" fill="none" stroke="#39FF14" stroke-width="1" opacity="0.02560297530647379"/>
<polygon points="460,137 468.6,142 468.6,152 460,157 451.4,152 451.4,142" fill="none" stroke="#39FF14" stroke-width="1" opacity="0.050203354118399185"/>
<polygon points="562,60 570.6,65 570.6,75 562,80 553.4,75 553.4,65" fill="none" stroke="#39FF14" stroke-width="1" opacity="0.07698617911025629"/>
<polygon points="325,150 333.6,155 333.6,165 325,170 316.4,165 316.4,155" fill="none" stroke="#39FF14" stroke-width="1" opacity="0.058385575811585905"/>
<polygon points="565,-2 573.6,3 573.6,13 565,18 556.4,13 556.4,3" fill="none" stroke="#39FF14" stroke-width="1" opacity="0.05959328080639813"/>
<polygon points="135,70 143.6,75 143.6,85 135,90 126.4,85 126.4,75" fill="none" stroke="#39FF14" stroke-width="1" opacity="0.02676609222247918"/>
<polygon points="449,146 457.6,151 457.6,161 449,166 440.4,161 440.4,151" fill="none" stroke="#39FF14" stroke-width="1" opacity="0.03227045341210397"/>
<polygon points="156,125 164.6,130 164.6,140 156,145 147.4,140 147.4,130" fill="none" stroke="#39FF14" stroke-width="1" opacity="0.04420783622643722"/>
<polygon points="801,39 809.6,44 809.6,54 801,59 792.4,54 792.4,44" fill="none" stroke="#39FF14" stroke-width="1" opacity="0.024163510296013345"/>
<polygon points="645,44 653.6,49 653.6,59 645,64 636.4,59 636.4,49" fill="none" stroke="#39FF14" stroke-width="1" opacity="0.07384029676125094"/>
<polygon points="564,-1 572.6,4 572.6,14 564,19 555.4,14 555.4,4" fill="none" stroke="#39FF14" stroke-width="1" opacity="0.06864753626799489"/>
<polygon points="144,70 152.6,75 152.6,85 144,90 135.4,85 135.4,75" fill="none" stroke="#39FF14" stroke-width="1" opacity="0.07792630319852252"/>
<polygon points="251,75 259.6,80 259.6,90 251,95 242.4,90 242.4,80" fill="none" stroke="#39FF14" stroke-width="1" opacity="0.024423638843301287"/>
<polygon points="747,183 755.6,188 755.6,198 747,203 738.4,198 738.4,188" fill="none" stroke="#39FF14" stroke-width="1" opacity="0.051388072028938414"/>
<polygon points="293,18 301.6,23 301.6,33 293,38 284.4,33 284.4,23" fill="none" stroke="#39FF14" stroke-width="1" opacity="0.07417924147950528"/>
<polygon points="158,144 166.6,149 166.6,159 158,164 149.4,159 149.4,149" fill="none" stroke="#39FF14" stroke-width="1" opacity="0.032578061220075255"/>
<polygon points="233,188 241.6,193 241.6,203 233,208 224.4,203 224.4,193" fill="none" stroke="#39FF14" stroke-width="1" opacity="0.03609821543160404"/>
<polygon points="95,95 103.6,100 103.6,110 95,115 86.4,110 86.4,100" fill="none" stroke="#39FF14" stroke-width="1" opacity="0.028460164679376627"/>
<polygon points="260,118 268.6,123 268.6,133 260,138 251.4,133 251.4,123" fill="none" stroke="#39FF14" stroke-width="1" opacity="0.03515501642357022"/>
<polygon points="595,136 603.6,141 603.6,151 595,156 586.4,151 586.4,141" fill="none" stroke="#39FF14" stroke-width="1" opacity="0.06532777996104172"/>
<polygon points="376,42 384.6,47 384.6,57 376,62 367.4,57 367.4,47" fill="none" stroke="#39FF14" stroke-width="1" opacity="0.0580067521252271"/>
<polygon points="21,154 29.6,159 29.6,169 21,174 12.4,169 12.4,159" fill="none" stroke="#39FF14" stroke-width="1" opacity="0.05673638425878162"/>
<polygon points="467,25 475.6,30 475.6,40 467,45 458.4,40 458.4,30" fill="none" stroke="#39FF14" stroke-width="1" opacity="0.06329530054998903"/>
<polygon points="134,25 142.6,30 142.6,40 134,45 125.4,40 125.4,30" fill="none" stroke="#39FF14" stroke-width="1" opacity="0.035531107200599196"/>
</g>

  <!-- HUD Decorative elements -->
  <path d="M 20 20 L 40 20 L 50 30" fill="none" stroke="#39FF14" stroke-width="2" opacity="0.5"/>
  <path d="M 830 180 L 810 180 L 800 170" fill="none" stroke="#39FF14" stroke-width="2" opacity="0.5"/>
  <rect x="20" y="100" width="2" height="40" fill="#ffffff" opacity="0.4"/>
  <rect x="828" y="60" width="2" height="40" fill="#39FF14" opacity="0.6"/>

  <g font-family="'Consolas', 'Fira Code', monospace" text-anchor="middle">

    <!-- SYSTEM STATUS -->
    <g transform="translate(130, 100)">
        <circle cx="0" cy="0" r="45" fill="none" stroke="#111111" stroke-width="8" />
        <circle cx="0" cy="0" r="45" fill="none" stroke="#39FF14" stroke-width="2" stroke-dasharray="10 5">
            <animateTransform attributeName="transform" type="rotate" from="0" to="360" dur="10s" repeatCount="indefinite"/>
        </circle>
        <circle cx="0" cy="0" r="35" fill="#0d0d0d" />
        <circle cx="0" cy="0" r="6" fill="#39FF14" filter="url(#textGlow)">
            <animate attributeName="opacity" values="1;0.3;1" dur="2s" repeatCount="indefinite"/>
        </circle>
        <text x="0" y="-60" font-size="12" fill="#aaaaaa" letter-spacing="2">SYS.CORE</text>
        <text x="0" y="70" font-size="14" fill="#ffffff" font-weight="bold">ONLINE</text>
    </g>

    <!-- LIVE TRAFFIC -->
    <g transform="translate(330, 100)">
        <rect x="-60" y="-45" width="120" height="90" fill="#0a0a0a" rx="8" stroke="#39FF14" stroke-opacity="0.4" stroke-width="1"/>
        <text x="0" y="-20" font-size="12" fill="#aaaaaa">NETWORK LOAD</text>
        <text x="0" y="15" font-size="28" fill="#ffffff" font-weight="bold" filter="url(#textGlow)">7424</text>
        <text x="0" y="35" font-size="10" fill="#777777">ACTIVE SESSIONS</text>
    </g>

    <!-- ACTIVE AGENTS -->
    <g transform="translate(530, 100)">
        <rect x="-60" y="-45" width="120" height="90" fill="#0a0a0a" rx="8" stroke="#39FF14" stroke-opacity="0.4" stroke-width="1"/>
        <text x="0" y="-20" font-size="12" fill="#aaaaaa">SWARM ENTITIES</text>
        <text x="0" y="15" font-size="28" fill="#ffffff" font-weight="bold" filter="url(#textGlow)">191</text>
        <text x="0" y="35" font-size="10" fill="#777777">AUTONOMOUS</text>
    </g>

    <!-- UPTIME -->
    <g transform="translate(730, 100)">
        <path d="M -40 -35 L 40 -35 L 50 -25 L 50 35 L -40 35 L -50 25 Z" fill="#0a0a0a" stroke="#39FF14" stroke-opacity="0.4" stroke-width="1"/>
        <text x="0" y="-15" font-size="12" fill="#aaaaaa">CONTINUITY</text>
        <text x="0" y="15" font-size="24" fill="#ffffff" font-weight="bold">354<tspan font-size="14" fill="#777777">d</tspan></text>
        <rect x="-35" y="25" width="70" height="4" fill="url(#neonBar)" rx="2"/>
    </g>
  </g>

  <text x="425" y="185" font-family="'Consolas', 'Fira Code', monospace" font-size="10" fill="#aaaaaa" opacity="0.6" text-anchor="middle">LAST TELEMETRY PING: 2026-04-27 07:01:56 UTC // ENCRYPTED_TUNNEL</text>
</svg>