<svg width="850" height="200" viewBox="0 0 850 200" xmlns="http://www.w3.org/2000/svg">
  <defs>
    <pattern id="carbonFiber" width="10" height="10" patternUnits="userSpaceOnUse">
        <rect width="10" height="10" fill="#050505"/>
        <path d="M0,0 L5,5 L10,0 L5,-5 Z M5,5 L10,10 L15,5 L10,0 Z M-5,5 L0,10 L5,5 L0,0 Z M0,10 L5,15 L10,10 L5,5 Z" fill="#0d0d0d"/>
    </pattern>
    <filter id="textGlow">
      <feGaussianBlur stdDeviation="2" result="blur" />
      <feMerge>
        <feMergeNode in="blur"/>
        <feMergeNode in="SourceGraphic"/>
      </feMerge>
    </filter>
    <linearGradient id="neonBar" x1="0%" y1="0%" x2="100%" y2="0%">
        <stop offset="0%" stop-color="#111111"/>
        <stop offset="100%" stop-color="#39FF14"/>
    </linearGradient>
    <linearGradient id="scanlineGrad" x1="0%" y1="0%" x2="100%" y2="0%">
        <stop offset="0%" stop-color="#39FF14" stop-opacity="0"/>
        <stop offset="50%" stop-color="#39FF14" stop-opacity="0.18"/>
        <stop offset="100%" stop-color="#39FF14" stop-opacity="0"/>
    </linearGradient>
    <clipPath id="dashClip">
        <rect x="0" y="0" width="850" height="200" rx="12"/>
    </clipPath>
  </defs>

  <rect width="100%" height="100%" fill="url(#carbonFiber)" rx="12" stroke="#39FF14" stroke-width="1" stroke-opacity="0.3"/>
  <rect width="100%" height="100%" fill="#000000" opacity="0.6" rx="12" />
  <g><polygon points="64,90 72.6,95 72.6,105 64,110 55.4,105 55.4,95" fill="none" stroke="#39FF14" stroke-width="1" opacity="0.03027275469880964"/>
<polygon points="768,81 776.6,86 776.6,96 768,101 759.4,96 759.4,86" fill="none" stroke="#39FF14" stroke-width="1" opacity="0.05779861223477581"/>
<polygon points="278,94 286.6,99 286.6,109 278,114 269.4,109 269.4,99" fill="none" stroke="#39FF14" stroke-width="1" opacity="0.047008151626718314"/>
<polygon points="101,161 109.6,166 109.6,176 101,181 92.4,176 92.4,166" fill="none" stroke="#39FF14" stroke-width="1" opacity="0.07318170316450613"/>
<polygon points="173,45 181.6,50 181.6,60 173,65 164.4,60 164.4,50" fill="none" stroke="#39FF14" stroke-width="1" opacity="0.05721822483274089"/>
<polygon points="364,184 372.6,189 372.6,199 364,204 355.4,199 355.4,189" fill="none" stroke="#39FF14" stroke-width="1" opacity="0.07816591077476465"/>
<polygon points="234,145 242.6,150 242.6,160 234,165 225.4,160 225.4,150" fill="none" stroke="#39FF14" stroke-width="1" opacity="0.06283555239777643"/>
<polygon points="439,57 447.6,62 447.6,72 439,77 430.4,72 430.4,62" fill="none" stroke="#39FF14" stroke-width="1" opacity="0.060765439102521024"/>
<polygon points="457,82 465.6,87 465.6,97 457,102 448.4,97 448.4,87" fill="none" stroke="#39FF14" stroke-width="1" opacity="0.038442112058623606"/>
<polygon points="442,33 450.6,38 450.6,48 442,53 433.4,48 433.4,38" fill="none" stroke="#39FF14" stroke-width="1" opacity="0.029991839660639202"/>
<polygon points="55,157 63.6,162 63.6,172 55,177 46.4,172 46.4,162" fill="none" stroke="#39FF14" stroke-width="1" opacity="0.04272270804577839"/>
<polygon points="124,25 132.6,30 132.6,40 124,45 115.4,40 115.4,30" fill="none" stroke="#39FF14" stroke-width="1" opacity="0.03470622540586397"/>
<polygon points="106,131 114.6,136 114.6,146 106,151 97.4,146 97.4,136" fill="none" stroke="#39FF14" stroke-width="1" opacity="0.048827268639773554"/>
<polygon points="806,6 814.6,11 814.6,21 806,26 797.4,21 797.4,11" fill="none" stroke="#39FF14" stroke-width="1" opacity="0.04880799212200356"/>
<polygon points="38,17 46.6,22 46.6,32 38,37 29.4,32 29.4,22" fill="none" stroke="#39FF14" stroke-width="1" opacity="0.02545790599647652"/>
<polygon points="235,33 243.6,38 243.6,48 235,53 226.4,48 226.4,38" fill="none" stroke="#39FF14" stroke-width="1" opacity="0.027763115363000072"/>
<polygon points="678,23 686.6,28 686.6,38 678,43 669.4,38 669.4,28" fill="none" stroke="#39FF14" stroke-width="1" opacity="0.053737102347825694"/>
<polygon points="25,166 33.6,171 33.6,181 25,186 16.4,181 16.4,171" fill="none" stroke="#39FF14" stroke-width="1" opacity="0.020204511659713403"/>
<polygon points="88,174 96.6,179 96.6,189 88,194 79.4,189 79.4,179" fill="none" stroke="#39FF14" stroke-width="1" opacity="0.07086895804294735"/>
<polygon points="84,148 92.6,153 92.6,163 84,168 75.4,163 75.4,153" fill="none" stroke="#39FF14" stroke-width="1" opacity="0.0498456626298758"/>
<polygon points="545,39 553.6,44 553.6,54 545,59 536.4,54 536.4,44" fill="none" stroke="#39FF14" stroke-width="1" opacity="0.06981226840293817"/>
<polygon points="124,110 132.6,115 132.6,125 124,130 115.4,125 115.4,115" fill="none" stroke="#39FF14" stroke-width="1" opacity="0.05811225659969871"/>
<polygon points="569,162 577.6,167 577.6,177 569,182 560.4,177 560.4,167" fill="none" stroke="#39FF14" stroke-width="1" opacity="0.043647970241569155"/>
<polygon points="413,29 421.6,34 421.6,44 413,49 404.4,44 404.4,34" fill="none" stroke="#39FF14" stroke-width="1" opacity="0.02645522809767573"/>
<polygon points="289,140 297.6,145 297.6,155 289,160 280.4,155 280.4,145" fill="none" stroke="#39FF14" stroke-width="1" opacity="0.02663571285268017"/>
<polygon points="407,90 415.6,95 415.6,105 407,110 398.4,105 398.4,95" fill="none" stroke="#39FF14" stroke-width="1" opacity="0.043754149227752344"/>
<polygon points="126,130 134.6,135 134.6,145 126,150 117.4,145 117.4,135" fill="none" stroke="#39FF14" stroke-width="1" opacity="0.04146200596215824"/>
<polygon points="665,76 673.6,81 673.6,91 665,96 656.4,91 656.4,81" fill="none" stroke="#39FF14" stroke-width="1" opacity="0.061232498449757394"/>
<polygon points="807,55 815.6,60 815.6,70 807,75 798.4,70 798.4,60" fill="none" stroke="#39FF14" stroke-width="1" opacity="0.049442960697268196"/>
<polygon points="16,153 24.6,158 24.6,168 16,173 7.4,168 7.4,158" fill="none" stroke="#39FF14" stroke-width="1" opacity="0.0671980322529123"/>
</g>

  <!-- HUD Decorative elements -->
  <path d="M 20 20 L 40 20 L 50 30" fill="none" stroke="#39FF14" stroke-width="2" opacity="0.5"/>
  <path d="M 830 180 L 810 180 L 800 170" fill="none" stroke="#39FF14" stroke-width="2" opacity="0.5"/>

  <g clip-path="url(#dashClip)">
    <rect x="-160" y="0" width="160" height="200" fill="url(#scanlineGrad)">
      <animateTransform attributeName="transform" type="translate"
                        from="0 0" to="1010 0" dur="6s" repeatCount="indefinite"/>
    </rect>
  </g>

  <g font-family="'Consolas', 'Fira Code', monospace" text-anchor="middle">

    <!-- NETWORK STATUS -->
    <g transform="translate(130, 100)">
        <circle cx="0" cy="0" r="45" fill="none" stroke="#39FF14" stroke-width="2" stroke-dasharray="10 5">
            <animateTransform attributeName="transform" type="rotate" from="0" to="360" dur="10s" repeatCount="indefinite"/>
        </circle>
        <circle cx="0" cy="0" r="35" fill="#0d0d0d" />
        <text x="0" y="-60" font-size="12" fill="#aaaaaa" letter-spacing="2">ROOT.AUTH</text>
        <text x="0" y="70" font-size="14" fill="#ffffff" font-weight="bold">OPERATIONAL</text>
    </g>

    <!-- ACTIVE USERS -->
    <g transform="translate(330, 100)">
        <text x="0" y="-20" font-size="12" fill="#aaaaaa">CITIZENS</text>
        <text x="0" y="15" font-size="28" fill="#ffffff" font-weight="bold" filter="url(#textGlow)">13,974</text>
        <text x="0" y="35" font-size="10" fill="#777777">VERIFIED HUMANS</text>
    </g>

    <!-- REGISTERED AGENTS -->
    <g transform="translate(530, 100)">
        <text x="0" y="-20" font-size="12" fill="#aaaaaa">AGENTS</text>
        <text x="0" y="15" font-size="28" fill="#00d4ff" font-weight="bold" filter="url(#textGlow)">3,173</text>
        <text x="0" y="35" font-size="10" fill="#777777">REGISTERED DIDs</text>
    </g>

    <!-- TRANSACTIONS -->
    <g transform="translate(730, 100)">
        <text x="0" y="-20" font-size="12" fill="#aaaaaa">TRANSFERS</text>
        <text x="0" y="15" font-size="28" fill="#ffffff" font-weight="bold">33,088</text>
        <text x="0" y="35" font-size="10" fill="#777777">M2M SETTLEMENTS</text>
    </g>
  </g>

  <text x="425" y="185" font-family="'Consolas', 'Fira Code', monospace" font-size="10" fill="#aaaaaa" opacity="0.6" text-anchor="middle">AXIOMID PROJECTED TARGETS (ILLUSTRATIVE): 2026-07-16 13:20:09 UTC // SECURE_HANDSHAKE</text>
</svg>