<svg width="850" height="200" viewBox="0 0 850 200" xmlns="http://www.w3.org/2000/svg">
  <defs>
    <!-- Carbon Fiber Pattern -->
    <pattern id="carbonFiber" width="10" height="10" patternUnits="userSpaceOnUse">
        <rect width="10" height="10" fill="#050505"/>
        <path d="M0,0 L5,5 L10,0 L5,-5 Z M5,5 L10,10 L15,5 L10,0 Z M-5,5 L0,10 L5,5 L0,0 Z M0,10 L5,15 L10,10 L5,5 Z" fill="#0d0d0d"/>
    </pattern>
    <filter id="glassmorphism">
      <feGaussianBlur stdDeviation="3" result="blur" />
      <feColorMatrix type="matrix" values="1 0 0 0 0  0 1 0 0 0  0 0 1 0 0  0 0 0 18 -7" result="glow" />
      <feBlend in="SourceGraphic" in2="glow" mode="normal" />
    </filter>
    <filter id="textGlow">
      <feGaussianBlur stdDeviation="2" result="blur" />
      <feMerge>
        <feMergeNode in="blur"/>
        <feMergeNode in="SourceGraphic"/>
      </feMerge>
    </filter>
    <linearGradient id="neonBar" x1="0%" y1="0%" x2="100%" y2="0%">
        <stop offset="0%" stop-color="#111111"/>
        <stop offset="100%" stop-color="#39FF14"/>
    </linearGradient>
  </defs>

  <rect width="100%" height="100%" fill="url(#carbonFiber)" rx="12" stroke="#39FF14" stroke-width="1" stroke-opacity="0.3"/>
  <rect width="100%" height="100%" fill="#000000" opacity="0.6" rx="12" />
  <g><polygon points="181,109 189.6,114 189.6,124 181,129 172.4,124 172.4,114" fill="none" stroke="#39FF14" stroke-width="1" opacity="0.047407349121182704"/>
<polygon points="124,55 132.6,60 132.6,70 124,75 115.4,70 115.4,60" fill="none" stroke="#39FF14" stroke-width="1" opacity="0.03764244551930822"/>
<polygon points="203,130 211.6,135 211.6,145 203,150 194.4,145 194.4,135" fill="none" stroke="#39FF14" stroke-width="1" opacity="0.02152175586686416"/>
<polygon points="807,177 815.6,182 815.6,192 807,197 798.4,192 798.4,182" fill="none" stroke="#39FF14" stroke-width="1" opacity="0.06650041526386387"/>
<polygon points="370,26 378.6,31 378.6,41 370,46 361.4,41 361.4,31" fill="none" stroke="#39FF14" stroke-width="1" opacity="0.034069228635185266"/>
<polygon points="200,122 208.6,127 208.6,137 200,142 191.4,137 191.4,127" fill="none" stroke="#39FF14" stroke-width="1" opacity="0.036153268087831335"/>
<polygon points="821,70 829.6,75 829.6,85 821,90 812.4,85 812.4,75" fill="none" stroke="#39FF14" stroke-width="1" opacity="0.04532633263699677"/>
<polygon points="205,178 213.6,183 213.6,193 205,198 196.4,193 196.4,183" fill="none" stroke="#39FF14" stroke-width="1" opacity="0.07211417503704244"/>
<polygon points="157,22 165.6,27 165.6,37 157,42 148.4,37 148.4,27" fill="none" stroke="#39FF14" stroke-width="1" opacity="0.07637017050869992"/>
<polygon points="407,26 415.6,31 415.6,41 407,46 398.4,41 398.4,31" fill="none" stroke="#39FF14" stroke-width="1" opacity="0.055793548837379484"/>
<polygon points="825,97 833.6,102 833.6,112 825,117 816.4,112 816.4,102" fill="none" stroke="#39FF14" stroke-width="1" opacity="0.037620184732423755"/>
<polygon points="233,13 241.6,18 241.6,28 233,33 224.4,28 224.4,18" fill="none" stroke="#39FF14" stroke-width="1" opacity="0.06707601152384766"/>
<polygon points="166,178 174.6,183 174.6,193 166,198 157.4,193 157.4,183" fill="none" stroke="#39FF14" stroke-width="1" opacity="0.04055801471606544"/>
<polygon points="843,182 851.6,187 851.6,197 843,202 834.4,197 834.4,187" fill="none" stroke="#39FF14" stroke-width="1" opacity="0.053533678485715344"/>
<polygon points="836,166 844.6,171 844.6,181 836,186 827.4,181 827.4,171" fill="none" stroke="#39FF14" stroke-width="1" opacity="0.02705244645625205"/>
<polygon points="724,7 732.6,12 732.6,22 724,27 715.4,22 715.4,12" fill="none" stroke="#39FF14" stroke-width="1" opacity="0.07092675326221426"/>
<polygon points="532,131 540.6,136 540.6,146 532,151 523.4,146 523.4,136" fill="none" stroke="#39FF14" stroke-width="1" opacity="0.028443995006200908"/>
<polygon points="659,83 667.6,88 667.6,98 659,103 650.4,98 650.4,88" fill="none" stroke="#39FF14" stroke-width="1" opacity="0.024042284476094404"/>
<polygon points="769,16 777.6,21 777.6,31 769,36 760.4,31 760.4,21" fill="none" stroke="#39FF14" stroke-width="1" opacity="0.07054554576773477"/>
<polygon points="659,29 667.6,34 667.6,44 659,49 650.4,44 650.4,34" fill="none" stroke="#39FF14" stroke-width="1" opacity="0.05928843748817696"/>
<polygon points="228,-4 236.6,1 236.6,11 228,16 219.4,11 219.4,1" fill="none" stroke="#39FF14" stroke-width="1" opacity="0.024461273650378652"/>
<polygon points="572,-7 580.6,-2 580.6,8 572,13 563.4,8 563.4,-2" fill="none" stroke="#39FF14" stroke-width="1" opacity="0.03133076682353457"/>
<polygon points="246,63 254.6,68 254.6,78 246,83 237.4,78 237.4,68" fill="none" stroke="#39FF14" stroke-width="1" opacity="0.04516154948152927"/>
<polygon points="75,7 83.6,12 83.6,22 75,27 66.4,22 66.4,12" fill="none" stroke="#39FF14" stroke-width="1" opacity="0.040705118468777925"/>
<polygon points="650,150 658.6,155 658.6,165 650,170 641.4,165 641.4,155" fill="none" stroke="#39FF14" stroke-width="1" opacity="0.07134853424177807"/>
<polygon points="423,58 431.6,63 431.6,73 423,78 414.4,73 414.4,63" fill="none" stroke="#39FF14" stroke-width="1" opacity="0.0647366265512592"/>
<polygon points="546,74 554.6,79 554.6,89 546,94 537.4,89 537.4,79" fill="none" stroke="#39FF14" stroke-width="1" opacity="0.032981904707911694"/>
<polygon points="668,21 676.6,26 676.6,36 668,41 659.4,36 659.4,26" fill="none" stroke="#39FF14" stroke-width="1" opacity="0.03918567188663613"/>
<polygon points="92,183 100.6,188 100.6,198 92,203 83.4,198 83.4,188" fill="none" stroke="#39FF14" stroke-width="1" opacity="0.0694398353333966"/>
<polygon points="65,134 73.6,139 73.6,149 65,154 56.4,149 56.4,139" fill="none" stroke="#39FF14" stroke-width="1" opacity="0.05036969039506137"/>
</g>

  <!-- HUD Decorative elements -->
  <path d="M 20 20 L 40 20 L 50 30" fill="none" stroke="#39FF14" stroke-width="2" opacity="0.5"/>
  <path d="M 830 180 L 810 180 L 800 170" fill="none" stroke="#39FF14" stroke-width="2" opacity="0.5"/>
  <rect x="20" y="100" width="2" height="40" fill="#ffffff" opacity="0.4"/>
  <rect x="828" y="60" width="2" height="40" fill="#39FF14" opacity="0.6"/>

  <g font-family="'Consolas', 'Fira Code', monospace" text-anchor="middle">

    <!-- SYSTEM STATUS -->
    <g transform="translate(130, 100)">
        <circle cx="0" cy="0" r="45" fill="none" stroke="#111111" stroke-width="8" />
        <circle cx="0" cy="0" r="45" fill="none" stroke="#39FF14" stroke-width="2" stroke-dasharray="10 5">
            <animateTransform attributeName="transform" type="rotate" from="0" to="360" dur="10s" repeatCount="indefinite"/>
        </circle>
        <circle cx="0" cy="0" r="35" fill="#0d0d0d" />
        <circle cx="0" cy="0" r="6" fill="#39FF14" filter="url(#textGlow)">
            <animate attributeName="opacity" values="1;0.3;1" dur="2s" repeatCount="indefinite"/>
        </circle>
        <text x="0" y="-60" font-size="12" fill="#aaaaaa" letter-spacing="2">SYS.CORE</text>
        <text x="0" y="70" font-size="14" fill="#ffffff" font-weight="bold">ONLINE</text>
    </g>

    <!-- LIVE TRAFFIC -->
    <g transform="translate(330, 100)">
        <rect x="-60" y="-45" width="120" height="90" fill="#0a0a0a" rx="8" stroke="#39FF14" stroke-opacity="0.4" stroke-width="1"/>
        <text x="0" y="-20" font-size="12" fill="#aaaaaa">NETWORK LOAD</text>
        <text x="0" y="15" font-size="28" fill="#ffffff" font-weight="bold" filter="url(#textGlow)">4438</text>
        <text x="0" y="35" font-size="10" fill="#777777">ACTIVE SESSIONS</text>
    </g>

    <!-- ACTIVE AGENTS -->
    <g transform="translate(530, 100)">
        <rect x="-60" y="-45" width="120" height="90" fill="#0a0a0a" rx="8" stroke="#39FF14" stroke-opacity="0.4" stroke-width="1"/>
        <text x="0" y="-20" font-size="12" fill="#aaaaaa">SWARM ENTITIES</text>
        <text x="0" y="15" font-size="28" fill="#ffffff" font-weight="bold" filter="url(#textGlow)">126</text>
        <text x="0" y="35" font-size="10" fill="#777777">AUTONOMOUS</text>
    </g>

    <!-- UPTIME -->
    <g transform="translate(730, 100)">
        <path d="M -40 -35 L 40 -35 L 50 -25 L 50 35 L -40 35 L -50 25 Z" fill="#0a0a0a" stroke="#39FF14" stroke-opacity="0.4" stroke-width="1"/>
        <text x="0" y="-15" font-size="12" fill="#aaaaaa">CONTINUITY</text>
        <text x="0" y="15" font-size="24" fill="#ffffff" font-weight="bold">230<tspan font-size="14" fill="#777777">d</tspan></text>
        <rect x="-35" y="25" width="70" height="4" fill="url(#neonBar)" rx="2"/>
    </g>
  </g>

  <text x="425" y="185" font-family="'Consolas', 'Fira Code', monospace" font-size="10" fill="#aaaaaa" opacity="0.6" text-anchor="middle">LAST TELEMETRY PING: 2026-04-30 06:59:36 UTC // ENCRYPTED_TUNNEL</text>
</svg>