<svg width="850" height="200" viewBox="0 0 850 200" xmlns="http://www.w3.org/2000/svg">
  <defs>
    <pattern id="carbonFiber" width="10" height="10" patternUnits="userSpaceOnUse">
        <rect width="10" height="10" fill="#050505"/>
        <path d="M0,0 L5,5 L10,0 L5,-5 Z M5,5 L10,10 L15,5 L10,0 Z M-5,5 L0,10 L5,5 L0,0 Z M0,10 L5,15 L10,10 L5,5 Z" fill="#0d0d0d"/>
    </pattern>
    <filter id="textGlow">
      <feGaussianBlur stdDeviation="2" result="blur" />
      <feMerge>
        <feMergeNode in="blur"/>
        <feMergeNode in="SourceGraphic"/>
      </feMerge>
    </filter>
    <linearGradient id="neonBar" x1="0%" y1="0%" x2="100%" y2="0%">
        <stop offset="0%" stop-color="#111111"/>
        <stop offset="100%" stop-color="#39FF14"/>
    </linearGradient>
    <linearGradient id="scanlineGrad" x1="0%" y1="0%" x2="100%" y2="0%">
        <stop offset="0%" stop-color="#39FF14" stop-opacity="0"/>
        <stop offset="50%" stop-color="#39FF14" stop-opacity="0.18"/>
        <stop offset="100%" stop-color="#39FF14" stop-opacity="0"/>
    </linearGradient>
    <clipPath id="dashClip">
        <rect x="0" y="0" width="850" height="200" rx="12"/>
    </clipPath>
  </defs>

  <rect width="100%" height="100%" fill="url(#carbonFiber)" rx="12" stroke="#39FF14" stroke-width="1" stroke-opacity="0.3"/>
  <rect width="100%" height="100%" fill="#000000" opacity="0.6" rx="12" />
  <g><polygon points="200,186 208.6,191 208.6,201 200,206 191.4,201 191.4,191" fill="none" stroke="#39FF14" stroke-width="1" opacity="0.06872188410442982"/>
<polygon points="608,87 616.6,92 616.6,102 608,107 599.4,102 599.4,92" fill="none" stroke="#39FF14" stroke-width="1" opacity="0.0651153846235694"/>
<polygon points="130,93 138.6,98 138.6,108 130,113 121.4,108 121.4,98" fill="none" stroke="#39FF14" stroke-width="1" opacity="0.047439008251036766"/>
<polygon points="510,123 518.6,128 518.6,138 510,143 501.4,138 501.4,128" fill="none" stroke="#39FF14" stroke-width="1" opacity="0.04108757760453494"/>
<polygon points="334,103 342.6,108 342.6,118 334,123 325.4,118 325.4,108" fill="none" stroke="#39FF14" stroke-width="1" opacity="0.0671706883182243"/>
<polygon points="545,134 553.6,139 553.6,149 545,154 536.4,149 536.4,139" fill="none" stroke="#39FF14" stroke-width="1" opacity="0.04700672459074231"/>
<polygon points="84,188 92.6,193 92.6,203 84,208 75.4,203 75.4,193" fill="none" stroke="#39FF14" stroke-width="1" opacity="0.028931621487056122"/>
<polygon points="214,169 222.6,174 222.6,184 214,189 205.4,184 205.4,174" fill="none" stroke="#39FF14" stroke-width="1" opacity="0.0561232689017602"/>
<polygon points="158,56 166.6,61 166.6,71 158,76 149.4,71 149.4,61" fill="none" stroke="#39FF14" stroke-width="1" opacity="0.05737199869313042"/>
<polygon points="338,132 346.6,137 346.6,147 338,152 329.4,147 329.4,137" fill="none" stroke="#39FF14" stroke-width="1" opacity="0.05032651165279647"/>
<polygon points="230,189 238.6,194 238.6,204 230,209 221.4,204 221.4,194" fill="none" stroke="#39FF14" stroke-width="1" opacity="0.041790699208285716"/>
<polygon points="391,111 399.6,116 399.6,126 391,131 382.4,126 382.4,116" fill="none" stroke="#39FF14" stroke-width="1" opacity="0.05731502405916271"/>
<polygon points="323,73 331.6,78 331.6,88 323,93 314.4,88 314.4,78" fill="none" stroke="#39FF14" stroke-width="1" opacity="0.04869499214371461"/>
<polygon points="600,90 608.6,95 608.6,105 600,110 591.4,105 591.4,95" fill="none" stroke="#39FF14" stroke-width="1" opacity="0.05709466769234903"/>
<polygon points="690,119 698.6,124 698.6,134 690,139 681.4,134 681.4,124" fill="none" stroke="#39FF14" stroke-width="1" opacity="0.04643636341165075"/>
<polygon points="692,115 700.6,120 700.6,130 692,135 683.4,130 683.4,120" fill="none" stroke="#39FF14" stroke-width="1" opacity="0.04339531190527801"/>
<polygon points="780,64 788.6,69 788.6,79 780,84 771.4,79 771.4,69" fill="none" stroke="#39FF14" stroke-width="1" opacity="0.04328642847051889"/>
<polygon points="170,127 178.6,132 178.6,142 170,147 161.4,142 161.4,132" fill="none" stroke="#39FF14" stroke-width="1" opacity="0.07391847824682522"/>
<polygon points="747,172 755.6,177 755.6,187 747,192 738.4,187 738.4,177" fill="none" stroke="#39FF14" stroke-width="1" opacity="0.07379251645830419"/>
<polygon points="312,190 320.6,195 320.6,205 312,210 303.4,205 303.4,195" fill="none" stroke="#39FF14" stroke-width="1" opacity="0.020349118809315715"/>
<polygon points="237,5 245.6,10 245.6,20 237,25 228.4,20 228.4,10" fill="none" stroke="#39FF14" stroke-width="1" opacity="0.034684251294179125"/>
<polygon points="202,163 210.6,168 210.6,178 202,183 193.4,178 193.4,168" fill="none" stroke="#39FF14" stroke-width="1" opacity="0.040889854702877565"/>
<polygon points="714,34 722.6,39 722.6,49 714,54 705.4,49 705.4,39" fill="none" stroke="#39FF14" stroke-width="1" opacity="0.05939106787762778"/>
<polygon points="65,172 73.6,177 73.6,187 65,192 56.4,187 56.4,177" fill="none" stroke="#39FF14" stroke-width="1" opacity="0.03530841561369828"/>
<polygon points="37,24 45.6,29 45.6,39 37,44 28.4,39 28.4,29" fill="none" stroke="#39FF14" stroke-width="1" opacity="0.046850934118022325"/>
<polygon points="698,138 706.6,143 706.6,153 698,158 689.4,153 689.4,143" fill="none" stroke="#39FF14" stroke-width="1" opacity="0.05034947942753398"/>
<polygon points="805,-5 813.6,0 813.6,10 805,15 796.4,10 796.4,0" fill="none" stroke="#39FF14" stroke-width="1" opacity="0.06786519586329272"/>
<polygon points="768,65 776.6,70 776.6,80 768,85 759.4,80 759.4,70" fill="none" stroke="#39FF14" stroke-width="1" opacity="0.04452298102224614"/>
<polygon points="488,0 496.6,5 496.6,15 488,20 479.4,15 479.4,5" fill="none" stroke="#39FF14" stroke-width="1" opacity="0.023554942433456082"/>
<polygon points="90,100 98.6,105 98.6,115 90,120 81.4,115 81.4,105" fill="none" stroke="#39FF14" stroke-width="1" opacity="0.024047994193867245"/>
</g>

  <!-- HUD Decorative elements -->
  <path d="M 20 20 L 40 20 L 50 30" fill="none" stroke="#39FF14" stroke-width="2" opacity="0.5"/>
  <path d="M 830 180 L 810 180 L 800 170" fill="none" stroke="#39FF14" stroke-width="2" opacity="0.5"/>

  <g clip-path="url(#dashClip)">
    <rect x="-160" y="0" width="160" height="200" fill="url(#scanlineGrad)">
      <animateTransform attributeName="transform" type="translate"
                        from="0 0" to="1010 0" dur="6s" repeatCount="indefinite"/>
    </rect>
  </g>

  <g font-family="'Consolas', 'Fira Code', monospace" text-anchor="middle">

    <!-- NETWORK STATUS -->
    <g transform="translate(130, 100)">
        <circle cx="0" cy="0" r="45" fill="none" stroke="#39FF14" stroke-width="2" stroke-dasharray="10 5">
            <animateTransform attributeName="transform" type="rotate" from="0" to="360" dur="10s" repeatCount="indefinite"/>
        </circle>
        <circle cx="0" cy="0" r="35" fill="#0d0d0d" />
        <text x="0" y="-60" font-size="12" fill="#aaaaaa" letter-spacing="2">ROOT.AUTH</text>
        <text x="0" y="70" font-size="14" fill="#ffffff" font-weight="bold">OPERATIONAL</text>
    </g>

    <!-- ACTIVE USERS -->
    <g transform="translate(330, 100)">
        <text x="0" y="-20" font-size="12" fill="#aaaaaa">CITIZENS</text>
        <text x="0" y="15" font-size="28" fill="#ffffff" font-weight="bold" filter="url(#textGlow)">12,833</text>
        <text x="0" y="35" font-size="10" fill="#777777">VERIFIED HUMANS</text>
    </g>

    <!-- REGISTERED AGENTS -->
    <g transform="translate(530, 100)">
        <text x="0" y="-20" font-size="12" fill="#aaaaaa">AGENTS</text>
        <text x="0" y="15" font-size="28" fill="#00d4ff" font-weight="bold" filter="url(#textGlow)">3,423</text>
        <text x="0" y="35" font-size="10" fill="#777777">REGISTERED DIDs</text>
    </g>

    <!-- TRANSACTIONS -->
    <g transform="translate(730, 100)">
        <text x="0" y="-20" font-size="12" fill="#aaaaaa">TRANSFERS</text>
        <text x="0" y="15" font-size="28" fill="#ffffff" font-weight="bold">34,016</text>
        <text x="0" y="35" font-size="10" fill="#777777">M2M SETTLEMENTS</text>
    </g>
  </g>

  <text x="425" y="185" font-family="'Consolas', 'Fira Code', monospace" font-size="10" fill="#aaaaaa" opacity="0.6" text-anchor="middle">AXIOMID PROJECTED TARGETS (ILLUSTRATIVE): 2026-07-22 05:39:32 UTC // SECURE_HANDSHAKE</text>
</svg>