<svg width="850" height="200" viewBox="0 0 850 200" xmlns="http://www.w3.org/2000/svg">
  <defs>
    <pattern id="carbonFiber" width="10" height="10" patternUnits="userSpaceOnUse">
        <rect width="10" height="10" fill="#050505"/>
        <path d="M0,0 L5,5 L10,0 L5,-5 Z M5,5 L10,10 L15,5 L10,0 Z M-5,5 L0,10 L5,5 L0,0 Z M0,10 L5,15 L10,10 L5,5 Z" fill="#0d0d0d"/>
    </pattern>
    <filter id="textGlow">
      <feGaussianBlur stdDeviation="2" result="blur" />
      <feMerge>
        <feMergeNode in="blur"/>
        <feMergeNode in="SourceGraphic"/>
      </feMerge>
    </filter>
    <linearGradient id="neonBar" x1="0%" y1="0%" x2="100%" y2="0%">
        <stop offset="0%" stop-color="#111111"/>
        <stop offset="100%" stop-color="#39FF14"/>
    </linearGradient>
    <linearGradient id="scanlineGrad" x1="0%" y1="0%" x2="100%" y2="0%">
        <stop offset="0%" stop-color="#39FF14" stop-opacity="0"/>
        <stop offset="50%" stop-color="#39FF14" stop-opacity="0.18"/>
        <stop offset="100%" stop-color="#39FF14" stop-opacity="0"/>
    </linearGradient>
    <clipPath id="dashClip">
        <rect x="0" y="0" width="850" height="200" rx="12"/>
    </clipPath>
  </defs>

  <rect width="100%" height="100%" fill="url(#carbonFiber)" rx="12" stroke="#39FF14" stroke-width="1" stroke-opacity="0.3"/>
  <rect width="100%" height="100%" fill="#000000" opacity="0.6" rx="12" />
  <g><polygon points="125,42 133.6,47 133.6,57 125,62 116.4,57 116.4,47" fill="none" stroke="#39FF14" stroke-width="1" opacity="0.06480232168967"/>
<polygon points="274,54 282.6,59 282.6,69 274,74 265.4,69 265.4,59" fill="none" stroke="#39FF14" stroke-width="1" opacity="0.03000830892892431"/>
<polygon points="799,61 807.6,66 807.6,76 799,81 790.4,76 790.4,66" fill="none" stroke="#39FF14" stroke-width="1" opacity="0.063181087167584"/>
<polygon points="123,56 131.6,61 131.6,71 123,76 114.4,71 114.4,61" fill="none" stroke="#39FF14" stroke-width="1" opacity="0.04194087261569842"/>
<polygon points="723,181 731.6,186 731.6,196 723,201 714.4,196 714.4,186" fill="none" stroke="#39FF14" stroke-width="1" opacity="0.041842051246948356"/>
<polygon points="51,140 59.6,145 59.6,155 51,160 42.4,155 42.4,145" fill="none" stroke="#39FF14" stroke-width="1" opacity="0.06443007721791731"/>
<polygon points="260,61 268.6,66 268.6,76 260,81 251.4,76 251.4,66" fill="none" stroke="#39FF14" stroke-width="1" opacity="0.04310332587358999"/>
<polygon points="66,156 74.6,161 74.6,171 66,176 57.4,171 57.4,161" fill="none" stroke="#39FF14" stroke-width="1" opacity="0.029533186030928672"/>
<polygon points="90,107 98.6,112 98.6,122 90,127 81.4,122 81.4,112" fill="none" stroke="#39FF14" stroke-width="1" opacity="0.04836583751711023"/>
<polygon points="752,12 760.6,17 760.6,27 752,32 743.4,27 743.4,17" fill="none" stroke="#39FF14" stroke-width="1" opacity="0.07526748140986975"/>
<polygon points="373,46 381.6,51 381.6,61 373,66 364.4,61 364.4,51" fill="none" stroke="#39FF14" stroke-width="1" opacity="0.03290563742799317"/>
<polygon points="421,64 429.6,69 429.6,79 421,84 412.4,79 412.4,69" fill="none" stroke="#39FF14" stroke-width="1" opacity="0.07315441284022743"/>
<polygon points="481,23 489.6,28 489.6,38 481,43 472.4,38 472.4,28" fill="none" stroke="#39FF14" stroke-width="1" opacity="0.06713511868394269"/>
<polygon points="802,106 810.6,111 810.6,121 802,126 793.4,121 793.4,111" fill="none" stroke="#39FF14" stroke-width="1" opacity="0.07375982163519881"/>
<polygon points="593,66 601.6,71 601.6,81 593,86 584.4,81 584.4,71" fill="none" stroke="#39FF14" stroke-width="1" opacity="0.0446001211019649"/>
<polygon points="514,130 522.6,135 522.6,145 514,150 505.4,145 505.4,135" fill="none" stroke="#39FF14" stroke-width="1" opacity="0.05011115528530093"/>
<polygon points="308,74 316.6,79 316.6,89 308,94 299.4,89 299.4,79" fill="none" stroke="#39FF14" stroke-width="1" opacity="0.02086737710302294"/>
<polygon points="454,42 462.6,47 462.6,57 454,62 445.4,57 445.4,47" fill="none" stroke="#39FF14" stroke-width="1" opacity="0.07999203899324943"/>
<polygon points="560,54 568.6,59 568.6,69 560,74 551.4,69 551.4,59" fill="none" stroke="#39FF14" stroke-width="1" opacity="0.06450989135415834"/>
<polygon points="670,108 678.6,113 678.6,123 670,128 661.4,123 661.4,113" fill="none" stroke="#39FF14" stroke-width="1" opacity="0.02265908249889601"/>
<polygon points="756,103 764.6,108 764.6,118 756,123 747.4,118 747.4,108" fill="none" stroke="#39FF14" stroke-width="1" opacity="0.03996360642568451"/>
<polygon points="398,45 406.6,50 406.6,60 398,65 389.4,60 389.4,50" fill="none" stroke="#39FF14" stroke-width="1" opacity="0.03409673895631959"/>
<polygon points="109,158 117.6,163 117.6,173 109,178 100.4,173 100.4,163" fill="none" stroke="#39FF14" stroke-width="1" opacity="0.07665859847849713"/>
<polygon points="15,111 23.6,116 23.6,126 15,131 6.4,126 6.4,116" fill="none" stroke="#39FF14" stroke-width="1" opacity="0.026308913842455164"/>
<polygon points="697,-4 705.6,1 705.6,11 697,16 688.4,11 688.4,1" fill="none" stroke="#39FF14" stroke-width="1" opacity="0.024402194495807487"/>
<polygon points="600,114 608.6,119 608.6,129 600,134 591.4,129 591.4,119" fill="none" stroke="#39FF14" stroke-width="1" opacity="0.049672174285561706"/>
<polygon points="361,175 369.6,180 369.6,190 361,195 352.4,190 352.4,180" fill="none" stroke="#39FF14" stroke-width="1" opacity="0.04599141630194471"/>
<polygon points="723,-10 731.6,-5 731.6,5 723,10 714.4,5 714.4,-5" fill="none" stroke="#39FF14" stroke-width="1" opacity="0.039977212854133706"/>
<polygon points="347,128 355.6,133 355.6,143 347,148 338.4,143 338.4,133" fill="none" stroke="#39FF14" stroke-width="1" opacity="0.07384666622522659"/>
<polygon points="191,46 199.6,51 199.6,61 191,66 182.4,61 182.4,51" fill="none" stroke="#39FF14" stroke-width="1" opacity="0.07099068082421625"/>
</g>

  <!-- HUD Decorative elements -->
  <path d="M 20 20 L 40 20 L 50 30" fill="none" stroke="#39FF14" stroke-width="2" opacity="0.5"/>
  <path d="M 830 180 L 810 180 L 800 170" fill="none" stroke="#39FF14" stroke-width="2" opacity="0.5"/>

  <g clip-path="url(#dashClip)">
    <rect x="-160" y="0" width="160" height="200" fill="url(#scanlineGrad)">
      <animateTransform attributeName="transform" type="translate"
                        from="0 0" to="1010 0" dur="6s" repeatCount="indefinite"/>
    </rect>
  </g>

  <g font-family="'Consolas', 'Fira Code', monospace" text-anchor="middle">

    <!-- NETWORK STATUS -->
    <g transform="translate(130, 100)">
        <circle cx="0" cy="0" r="45" fill="none" stroke="#39FF14" stroke-width="2" stroke-dasharray="10 5">
            <animateTransform attributeName="transform" type="rotate" from="0" to="360" dur="10s" repeatCount="indefinite"/>
        </circle>
        <circle cx="0" cy="0" r="35" fill="#0d0d0d" />
        <text x="0" y="-60" font-size="12" fill="#aaaaaa" letter-spacing="2">ROOT.AUTH</text>
        <text x="0" y="70" font-size="14" fill="#ffffff" font-weight="bold">OPERATIONAL</text>
    </g>

    <!-- ACTIVE USERS -->
    <g transform="translate(330, 100)">
        <text x="0" y="-20" font-size="12" fill="#aaaaaa">CITIZENS</text>
        <text x="0" y="15" font-size="28" fill="#ffffff" font-weight="bold" filter="url(#textGlow)">15,086</text>
        <text x="0" y="35" font-size="10" fill="#777777">VERIFIED HUMANS</text>
    </g>

    <!-- REGISTERED AGENTS -->
    <g transform="translate(530, 100)">
        <text x="0" y="-20" font-size="12" fill="#aaaaaa">AGENTS</text>
        <text x="0" y="15" font-size="28" fill="#00d4ff" font-weight="bold" filter="url(#textGlow)">4,663</text>
        <text x="0" y="35" font-size="10" fill="#777777">REGISTERED DIDs</text>
    </g>

    <!-- TRANSACTIONS -->
    <g transform="translate(730, 100)">
        <text x="0" y="-20" font-size="12" fill="#aaaaaa">TRANSFERS</text>
        <text x="0" y="15" font-size="28" fill="#ffffff" font-weight="bold">29,798</text>
        <text x="0" y="35" font-size="10" fill="#777777">M2M SETTLEMENTS</text>
    </g>
  </g>

  <text x="425" y="185" font-family="'Consolas', 'Fira Code', monospace" font-size="10" fill="#aaaaaa" opacity="0.6" text-anchor="middle">AXIOMID PROJECTED TARGETS (ILLUSTRATIVE): 2026-07-17 01:47:30 UTC // SECURE_HANDSHAKE</text>
</svg>