<svg width="850" height="200" viewBox="0 0 850 200" xmlns="http://www.w3.org/2000/svg">
  <defs>
    <!-- Carbon Fiber Pattern -->
    <pattern id="carbonFiber" width="10" height="10" patternUnits="userSpaceOnUse">
        <rect width="10" height="10" fill="#050505"/>
        <path d="M0,0 L5,5 L10,0 L5,-5 Z M5,5 L10,10 L15,5 L10,0 Z M-5,5 L0,10 L5,5 L0,0 Z M0,10 L5,15 L10,10 L5,5 Z" fill="#0d0d0d"/>
    </pattern>
    <filter id="glassmorphism">
      <feGaussianBlur stdDeviation="3" result="blur" />
      <feColorMatrix type="matrix" values="1 0 0 0 0  0 1 0 0 0  0 0 1 0 0  0 0 0 18 -7" result="glow" />
      <feBlend in="SourceGraphic" in2="glow" mode="normal" />
    </filter>
    <filter id="textGlow">
      <feGaussianBlur stdDeviation="2" result="blur" />
      <feMerge>
        <feMergeNode in="blur"/>
        <feMergeNode in="SourceGraphic"/>
      </feMerge>
    </filter>
    <linearGradient id="neonBar" x1="0%" y1="0%" x2="100%" y2="0%">
        <stop offset="0%" stop-color="#111111"/>
        <stop offset="100%" stop-color="#39FF14"/>
    </linearGradient>
  </defs>

  <rect width="100%" height="100%" fill="url(#carbonFiber)" rx="12" stroke="#39FF14" stroke-width="1" stroke-opacity="0.3"/>
  <rect width="100%" height="100%" fill="#000000" opacity="0.6" rx="12" />
  <g><polygon points="9,175 17.6,180 17.6,190 9,195 0.40000000000000036,190 0.40000000000000036,180" fill="none" stroke="#39FF14" stroke-width="1" opacity="0.02851086419163682"/>
<polygon points="208,179 216.6,184 216.6,194 208,199 199.4,194 199.4,184" fill="none" stroke="#39FF14" stroke-width="1" opacity="0.06122237043154978"/>
<polygon points="236,184 244.6,189 244.6,199 236,204 227.4,199 227.4,189" fill="none" stroke="#39FF14" stroke-width="1" opacity="0.05317744512441201"/>
<polygon points="790,74 798.6,79 798.6,89 790,94 781.4,89 781.4,79" fill="none" stroke="#39FF14" stroke-width="1" opacity="0.0728914213212467"/>
<polygon points="238,168 246.6,173 246.6,183 238,188 229.4,183 229.4,173" fill="none" stroke="#39FF14" stroke-width="1" opacity="0.025556846434381993"/>
<polygon points="148,122 156.6,127 156.6,137 148,142 139.4,137 139.4,127" fill="none" stroke="#39FF14" stroke-width="1" opacity="0.054641980905845156"/>
<polygon points="502,188 510.6,193 510.6,203 502,208 493.4,203 493.4,193" fill="none" stroke="#39FF14" stroke-width="1" opacity="0.03164660299628062"/>
<polygon points="440,69 448.6,74 448.6,84 440,89 431.4,84 431.4,74" fill="none" stroke="#39FF14" stroke-width="1" opacity="0.07082450664330175"/>
<polygon points="148,10 156.6,15 156.6,25 148,30 139.4,25 139.4,15" fill="none" stroke="#39FF14" stroke-width="1" opacity="0.042383357493136646"/>
<polygon points="490,158 498.6,163 498.6,173 490,178 481.4,173 481.4,163" fill="none" stroke="#39FF14" stroke-width="1" opacity="0.033548270367812244"/>
<polygon points="490,62 498.6,67 498.6,77 490,82 481.4,77 481.4,67" fill="none" stroke="#39FF14" stroke-width="1" opacity="0.04380144017956787"/>
<polygon points="602,178 610.6,183 610.6,193 602,198 593.4,193 593.4,183" fill="none" stroke="#39FF14" stroke-width="1" opacity="0.03683714894743807"/>
<polygon points="558,132 566.6,137 566.6,147 558,152 549.4,147 549.4,137" fill="none" stroke="#39FF14" stroke-width="1" opacity="0.058815468953112265"/>
<polygon points="185,145 193.6,150 193.6,160 185,165 176.4,160 176.4,150" fill="none" stroke="#39FF14" stroke-width="1" opacity="0.06456548597998377"/>
<polygon points="803,98 811.6,103 811.6,113 803,118 794.4,113 794.4,103" fill="none" stroke="#39FF14" stroke-width="1" opacity="0.0696626000516867"/>
<polygon points="299,145 307.6,150 307.6,160 299,165 290.4,160 290.4,150" fill="none" stroke="#39FF14" stroke-width="1" opacity="0.07223199251128293"/>
<polygon points="384,21 392.6,26 392.6,36 384,41 375.4,36 375.4,26" fill="none" stroke="#39FF14" stroke-width="1" opacity="0.03232272059227774"/>
<polygon points="470,188 478.6,193 478.6,203 470,208 461.4,203 461.4,193" fill="none" stroke="#39FF14" stroke-width="1" opacity="0.04774138710798349"/>
<polygon points="311,-8 319.6,-3 319.6,7 311,12 302.4,7 302.4,-3" fill="none" stroke="#39FF14" stroke-width="1" opacity="0.06012394011906404"/>
<polygon points="304,108 312.6,113 312.6,123 304,128 295.4,123 295.4,113" fill="none" stroke="#39FF14" stroke-width="1" opacity="0.03750169257555736"/>
<polygon points="269,101 277.6,106 277.6,116 269,121 260.4,116 260.4,106" fill="none" stroke="#39FF14" stroke-width="1" opacity="0.07163941265434812"/>
<polygon points="185,20 193.6,25 193.6,35 185,40 176.4,35 176.4,25" fill="none" stroke="#39FF14" stroke-width="1" opacity="0.06572230597814215"/>
<polygon points="688,171 696.6,176 696.6,186 688,191 679.4,186 679.4,176" fill="none" stroke="#39FF14" stroke-width="1" opacity="0.06623734700498377"/>
<polygon points="830,11 838.6,16 838.6,26 830,31 821.4,26 821.4,16" fill="none" stroke="#39FF14" stroke-width="1" opacity="0.06606020258992955"/>
<polygon points="227,62 235.6,67 235.6,77 227,82 218.4,77 218.4,67" fill="none" stroke="#39FF14" stroke-width="1" opacity="0.058524495894952955"/>
<polygon points="568,69 576.6,74 576.6,84 568,89 559.4,84 559.4,74" fill="none" stroke="#39FF14" stroke-width="1" opacity="0.0682550053949175"/>
<polygon points="346,137 354.6,142 354.6,152 346,157 337.4,152 337.4,142" fill="none" stroke="#39FF14" stroke-width="1" opacity="0.026991263617340805"/>
<polygon points="591,-5 599.6,0 599.6,10 591,15 582.4,10 582.4,0" fill="none" stroke="#39FF14" stroke-width="1" opacity="0.0775816357337184"/>
<polygon points="81,81 89.6,86 89.6,96 81,101 72.4,96 72.4,86" fill="none" stroke="#39FF14" stroke-width="1" opacity="0.04183533772280741"/>
<polygon points="117,129 125.6,134 125.6,144 117,149 108.4,144 108.4,134" fill="none" stroke="#39FF14" stroke-width="1" opacity="0.031434998082330974"/>
</g>

  <!-- HUD Decorative elements -->
  <path d="M 20 20 L 40 20 L 50 30" fill="none" stroke="#39FF14" stroke-width="2" opacity="0.5"/>
  <path d="M 830 180 L 810 180 L 800 170" fill="none" stroke="#39FF14" stroke-width="2" opacity="0.5"/>
  <rect x="20" y="100" width="2" height="40" fill="#ffffff" opacity="0.4"/>
  <rect x="828" y="60" width="2" height="40" fill="#39FF14" opacity="0.6"/>

  <g font-family="'Consolas', 'Fira Code', monospace" text-anchor="middle">

    <!-- SYSTEM STATUS -->
    <g transform="translate(130, 100)">
        <circle cx="0" cy="0" r="45" fill="none" stroke="#111111" stroke-width="8" />
        <circle cx="0" cy="0" r="45" fill="none" stroke="#39FF14" stroke-width="2" stroke-dasharray="10 5">
            <animateTransform attributeName="transform" type="rotate" from="0" to="360" dur="10s" repeatCount="indefinite"/>
        </circle>
        <circle cx="0" cy="0" r="35" fill="#0d0d0d" />
        <circle cx="0" cy="0" r="6" fill="#39FF14" filter="url(#textGlow)">
            <animate attributeName="opacity" values="1;0.3;1" dur="2s" repeatCount="indefinite"/>
        </circle>
        <text x="0" y="-60" font-size="12" fill="#aaaaaa" letter-spacing="2">SYS.CORE</text>
        <text x="0" y="70" font-size="14" fill="#ffffff" font-weight="bold">ONLINE</text>
    </g>

    <!-- LIVE TRAFFIC -->
    <g transform="translate(330, 100)">
        <rect x="-60" y="-45" width="120" height="90" fill="#0a0a0a" rx="8" stroke="#39FF14" stroke-opacity="0.4" stroke-width="1"/>
        <text x="0" y="-20" font-size="12" fill="#aaaaaa">NETWORK LOAD</text>
        <text x="0" y="15" font-size="28" fill="#ffffff" font-weight="bold" filter="url(#textGlow)">7568</text>
        <text x="0" y="35" font-size="10" fill="#777777">ACTIVE SESSIONS</text>
    </g>

    <!-- ACTIVE AGENTS -->
    <g transform="translate(530, 100)">
        <rect x="-60" y="-45" width="120" height="90" fill="#0a0a0a" rx="8" stroke="#39FF14" stroke-opacity="0.4" stroke-width="1"/>
        <text x="0" y="-20" font-size="12" fill="#aaaaaa">SWARM ENTITIES</text>
        <text x="0" y="15" font-size="28" fill="#ffffff" font-weight="bold" filter="url(#textGlow)">91</text>
        <text x="0" y="35" font-size="10" fill="#777777">AUTONOMOUS</text>
    </g>

    <!-- UPTIME -->
    <g transform="translate(730, 100)">
        <path d="M -40 -35 L 40 -35 L 50 -25 L 50 35 L -40 35 L -50 25 Z" fill="#0a0a0a" stroke="#39FF14" stroke-opacity="0.4" stroke-width="1"/>
        <text x="0" y="-15" font-size="12" fill="#aaaaaa">CONTINUITY</text>
        <text x="0" y="15" font-size="24" fill="#ffffff" font-weight="bold">270<tspan font-size="14" fill="#777777">d</tspan></text>
        <rect x="-35" y="25" width="70" height="4" fill="url(#neonBar)" rx="2"/>
    </g>
  </g>

  <text x="425" y="185" font-family="'Consolas', 'Fira Code', monospace" font-size="10" fill="#aaaaaa" opacity="0.6" text-anchor="middle">LAST TELEMETRY PING: 2026-05-04 18:39:16 UTC // ENCRYPTED_TUNNEL</text>
</svg>