<svg width="850" height="200" viewBox="0 0 850 200" xmlns="http://www.w3.org/2000/svg">
  <defs>
    <!-- Carbon Fiber Pattern -->
    <pattern id="carbonFiber" width="10" height="10" patternUnits="userSpaceOnUse">
        <rect width="10" height="10" fill="#050505"/>
        <path d="M0,0 L5,5 L10,0 L5,-5 Z M5,5 L10,10 L15,5 L10,0 Z M-5,5 L0,10 L5,5 L0,0 Z M0,10 L5,15 L10,10 L5,5 Z" fill="#0d0d0d"/>
    </pattern>
    <filter id="glassmorphism">
      <feGaussianBlur stdDeviation="3" result="blur" />
      <feColorMatrix type="matrix" values="1 0 0 0 0  0 1 0 0 0  0 0 1 0 0  0 0 0 18 -7" result="glow" />
      <feBlend in="SourceGraphic" in2="glow" mode="normal" />
    </filter>
    <filter id="textGlow">
      <feGaussianBlur stdDeviation="2" result="blur" />
      <feMerge>
        <feMergeNode in="blur"/>
        <feMergeNode in="SourceGraphic"/>
      </feMerge>
    </filter>
    <linearGradient id="neonBar" x1="0%" y1="0%" x2="100%" y2="0%">
        <stop offset="0%" stop-color="#111111"/>
        <stop offset="100%" stop-color="#39FF14"/>
    </linearGradient>
  </defs>

  <rect width="100%" height="100%" fill="url(#carbonFiber)" rx="12" stroke="#39FF14" stroke-width="1" stroke-opacity="0.3"/>
  <rect width="100%" height="100%" fill="#000000" opacity="0.6" rx="12" />
  <g><polygon points="29,46 37.6,51 37.6,61 29,66 20.4,61 20.4,51" fill="none" stroke="#39FF14" stroke-width="1" opacity="0.07112350239427337"/>
<polygon points="534,131 542.6,136 542.6,146 534,151 525.4,146 525.4,136" fill="none" stroke="#39FF14" stroke-width="1" opacity="0.023006202060380662"/>
<polygon points="152,84 160.6,89 160.6,99 152,104 143.4,99 143.4,89" fill="none" stroke="#39FF14" stroke-width="1" opacity="0.05684417160372279"/>
<polygon points="761,23 769.6,28 769.6,38 761,43 752.4,38 752.4,28" fill="none" stroke="#39FF14" stroke-width="1" opacity="0.03880386517094233"/>
<polygon points="198,24 206.6,29 206.6,39 198,44 189.4,39 189.4,29" fill="none" stroke="#39FF14" stroke-width="1" opacity="0.026950123174589384"/>
<polygon points="80,77 88.6,82 88.6,92 80,97 71.4,92 71.4,82" fill="none" stroke="#39FF14" stroke-width="1" opacity="0.0372946008043302"/>
<polygon points="730,87 738.6,92 738.6,102 730,107 721.4,102 721.4,92" fill="none" stroke="#39FF14" stroke-width="1" opacity="0.056998470566255344"/>
<polygon points="678,175 686.6,180 686.6,190 678,195 669.4,190 669.4,180" fill="none" stroke="#39FF14" stroke-width="1" opacity="0.07426337363391401"/>
<polygon points="425,28 433.6,33 433.6,43 425,48 416.4,43 416.4,33" fill="none" stroke="#39FF14" stroke-width="1" opacity="0.05129606407341439"/>
<polygon points="318,88 326.6,93 326.6,103 318,108 309.4,103 309.4,93" fill="none" stroke="#39FF14" stroke-width="1" opacity="0.05271273743326045"/>
<polygon points="289,125 297.6,130 297.6,140 289,145 280.4,140 280.4,130" fill="none" stroke="#39FF14" stroke-width="1" opacity="0.04481189479207667"/>
<polygon points="294,140 302.6,145 302.6,155 294,160 285.4,155 285.4,145" fill="none" stroke="#39FF14" stroke-width="1" opacity="0.07687847957568829"/>
<polygon points="597,145 605.6,150 605.6,160 597,165 588.4,160 588.4,150" fill="none" stroke="#39FF14" stroke-width="1" opacity="0.05167335940994745"/>
<polygon points="763,100 771.6,105 771.6,115 763,120 754.4,115 754.4,105" fill="none" stroke="#39FF14" stroke-width="1" opacity="0.04610277535136667"/>
<polygon points="98,22 106.6,27 106.6,37 98,42 89.4,37 89.4,27" fill="none" stroke="#39FF14" stroke-width="1" opacity="0.06543187890473147"/>
<polygon points="80,73 88.6,78 88.6,88 80,93 71.4,88 71.4,78" fill="none" stroke="#39FF14" stroke-width="1" opacity="0.023955477581861496"/>
<polygon points="522,185 530.6,190 530.6,200 522,205 513.4,200 513.4,190" fill="none" stroke="#39FF14" stroke-width="1" opacity="0.03393744292394843"/>
<polygon points="331,9 339.6,14 339.6,24 331,29 322.4,24 322.4,14" fill="none" stroke="#39FF14" stroke-width="1" opacity="0.05204927586366197"/>
<polygon points="699,82 707.6,87 707.6,97 699,102 690.4,97 690.4,87" fill="none" stroke="#39FF14" stroke-width="1" opacity="0.04476839239531839"/>
<polygon points="363,140 371.6,145 371.6,155 363,160 354.4,155 354.4,145" fill="none" stroke="#39FF14" stroke-width="1" opacity="0.04622153007730035"/>
<polygon points="102,176 110.6,181 110.6,191 102,196 93.4,191 93.4,181" fill="none" stroke="#39FF14" stroke-width="1" opacity="0.07378190078971197"/>
<polygon points="129,180 137.6,185 137.6,195 129,200 120.4,195 120.4,185" fill="none" stroke="#39FF14" stroke-width="1" opacity="0.07115354933808023"/>
<polygon points="0,11 8.6,16 8.6,26 0,31 -8.6,26 -8.6,16" fill="none" stroke="#39FF14" stroke-width="1" opacity="0.06209696460101745"/>
<polygon points="19,23 27.6,28 27.6,38 19,43 10.4,38 10.4,28" fill="none" stroke="#39FF14" stroke-width="1" opacity="0.045710513690619445"/>
<polygon points="804,38 812.6,43 812.6,53 804,58 795.4,53 795.4,43" fill="none" stroke="#39FF14" stroke-width="1" opacity="0.03320554580081292"/>
<polygon points="309,28 317.6,33 317.6,43 309,48 300.4,43 300.4,33" fill="none" stroke="#39FF14" stroke-width="1" opacity="0.03984505887217539"/>
<polygon points="646,92 654.6,97 654.6,107 646,112 637.4,107 637.4,97" fill="none" stroke="#39FF14" stroke-width="1" opacity="0.05653838416457156"/>
<polygon points="636,117 644.6,122 644.6,132 636,137 627.4,132 627.4,122" fill="none" stroke="#39FF14" stroke-width="1" opacity="0.07998598605066347"/>
<polygon points="288,31 296.6,36 296.6,46 288,51 279.4,46 279.4,36" fill="none" stroke="#39FF14" stroke-width="1" opacity="0.042477104074774535"/>
<polygon points="35,153 43.6,158 43.6,168 35,173 26.4,168 26.4,158" fill="none" stroke="#39FF14" stroke-width="1" opacity="0.02610758788257393"/>
</g>

  <!-- HUD Decorative elements -->
  <path d="M 20 20 L 40 20 L 50 30" fill="none" stroke="#39FF14" stroke-width="2" opacity="0.5"/>
  <path d="M 830 180 L 810 180 L 800 170" fill="none" stroke="#39FF14" stroke-width="2" opacity="0.5"/>
  <rect x="20" y="100" width="2" height="40" fill="#ffffff" opacity="0.4"/>
  <rect x="828" y="60" width="2" height="40" fill="#39FF14" opacity="0.6"/>

  <g font-family="'Consolas', 'Fira Code', monospace" text-anchor="middle">

    <!-- SYSTEM STATUS -->
    <g transform="translate(130, 100)">
        <circle cx="0" cy="0" r="45" fill="none" stroke="#111111" stroke-width="8" />
        <circle cx="0" cy="0" r="45" fill="none" stroke="#39FF14" stroke-width="2" stroke-dasharray="10 5">
            <animateTransform attributeName="transform" type="rotate" from="0" to="360" dur="10s" repeatCount="indefinite"/>
        </circle>
        <circle cx="0" cy="0" r="35" fill="#0d0d0d" />
        <circle cx="0" cy="0" r="6" fill="#39FF14" filter="url(#textGlow)">
            <animate attributeName="opacity" values="1;0.3;1" dur="2s" repeatCount="indefinite"/>
        </circle>
        <text x="0" y="-60" font-size="12" fill="#aaaaaa" letter-spacing="2">SYS.CORE</text>
        <text x="0" y="70" font-size="14" fill="#ffffff" font-weight="bold">ONLINE</text>
    </g>

    <!-- LIVE TRAFFIC -->
    <g transform="translate(330, 100)">
        <rect x="-60" y="-45" width="120" height="90" fill="#0a0a0a" rx="8" stroke="#39FF14" stroke-opacity="0.4" stroke-width="1"/>
        <text x="0" y="-20" font-size="12" fill="#aaaaaa">NETWORK LOAD</text>
        <text x="0" y="15" font-size="28" fill="#ffffff" font-weight="bold" filter="url(#textGlow)">5723</text>
        <text x="0" y="35" font-size="10" fill="#777777">ACTIVE SESSIONS</text>
    </g>

    <!-- ACTIVE AGENTS -->
    <g transform="translate(530, 100)">
        <rect x="-60" y="-45" width="120" height="90" fill="#0a0a0a" rx="8" stroke="#39FF14" stroke-opacity="0.4" stroke-width="1"/>
        <text x="0" y="-20" font-size="12" fill="#aaaaaa">SWARM ENTITIES</text>
        <text x="0" y="15" font-size="28" fill="#ffffff" font-weight="bold" filter="url(#textGlow)">131</text>
        <text x="0" y="35" font-size="10" fill="#777777">AUTONOMOUS</text>
    </g>

    <!-- UPTIME -->
    <g transform="translate(730, 100)">
        <path d="M -40 -35 L 40 -35 L 50 -25 L 50 35 L -40 35 L -50 25 Z" fill="#0a0a0a" stroke="#39FF14" stroke-opacity="0.4" stroke-width="1"/>
        <text x="0" y="-15" font-size="12" fill="#aaaaaa">CONTINUITY</text>
        <text x="0" y="15" font-size="24" fill="#ffffff" font-weight="bold">395<tspan font-size="14" fill="#777777">d</tspan></text>
        <rect x="-35" y="25" width="70" height="4" fill="url(#neonBar)" rx="2"/>
    </g>
  </g>

  <text x="425" y="185" font-family="'Consolas', 'Fira Code', monospace" font-size="10" fill="#aaaaaa" opacity="0.6" text-anchor="middle">LAST TELEMETRY PING: 2026-05-13 01:44:34 UTC // ENCRYPTED_TUNNEL</text>
</svg>