<svg width="850" height="200" viewBox="0 0 850 200" xmlns="http://www.w3.org/2000/svg">
  <defs>
    <!-- Carbon Fiber Pattern -->
    <pattern id="carbonFiber" width="10" height="10" patternUnits="userSpaceOnUse">
        <rect width="10" height="10" fill="#050505"/>
        <path d="M0,0 L5,5 L10,0 L5,-5 Z M5,5 L10,10 L15,5 L10,0 Z M-5,5 L0,10 L5,5 L0,0 Z M0,10 L5,15 L10,10 L5,5 Z" fill="#0d0d0d"/>
    </pattern>
    <filter id="glassmorphism">
      <feGaussianBlur stdDeviation="3" result="blur" />
      <feColorMatrix type="matrix" values="1 0 0 0 0  0 1 0 0 0  0 0 1 0 0  0 0 0 18 -7" result="glow" />
      <feBlend in="SourceGraphic" in2="glow" mode="normal" />
    </filter>
    <filter id="textGlow">
      <feGaussianBlur stdDeviation="2" result="blur" />
      <feMerge>
        <feMergeNode in="blur"/>
        <feMergeNode in="SourceGraphic"/>
      </feMerge>
    </filter>
    <linearGradient id="neonBar" x1="0%" y1="0%" x2="100%" y2="0%">
        <stop offset="0%" stop-color="#111111"/>
        <stop offset="100%" stop-color="#39FF14"/>
    </linearGradient>
  </defs>

  <rect width="100%" height="100%" fill="url(#carbonFiber)" rx="12" stroke="#39FF14" stroke-width="1" stroke-opacity="0.3"/>
  <rect width="100%" height="100%" fill="#000000" opacity="0.6" rx="12" />
  <g><polygon points="611,38 619.6,43 619.6,53 611,58 602.4,53 602.4,43" fill="none" stroke="#39FF14" stroke-width="1" opacity="0.07460679239379116"/>
<polygon points="725,98 733.6,103 733.6,113 725,118 716.4,113 716.4,103" fill="none" stroke="#39FF14" stroke-width="1" opacity="0.03101843500255836"/>
<polygon points="276,2 284.6,7 284.6,17 276,22 267.4,17 267.4,7" fill="none" stroke="#39FF14" stroke-width="1" opacity="0.059521998781793165"/>
<polygon points="522,107 530.6,112 530.6,122 522,127 513.4,122 513.4,112" fill="none" stroke="#39FF14" stroke-width="1" opacity="0.046457148942511475"/>
<polygon points="138,38 146.6,43 146.6,53 138,58 129.4,53 129.4,43" fill="none" stroke="#39FF14" stroke-width="1" opacity="0.05262425468158963"/>
<polygon points="170,183 178.6,188 178.6,198 170,203 161.4,198 161.4,188" fill="none" stroke="#39FF14" stroke-width="1" opacity="0.05456716339935101"/>
<polygon points="71,35 79.6,40 79.6,50 71,55 62.4,50 62.4,40" fill="none" stroke="#39FF14" stroke-width="1" opacity="0.03816794484699928"/>
<polygon points="728,64 736.6,69 736.6,79 728,84 719.4,79 719.4,69" fill="none" stroke="#39FF14" stroke-width="1" opacity="0.026259345708096335"/>
<polygon points="267,162 275.6,167 275.6,177 267,182 258.4,177 258.4,167" fill="none" stroke="#39FF14" stroke-width="1" opacity="0.04901580271343557"/>
<polygon points="848,0 856.6,5 856.6,15 848,20 839.4,15 839.4,5" fill="none" stroke="#39FF14" stroke-width="1" opacity="0.04539634182773521"/>
<polygon points="767,19 775.6,24 775.6,34 767,39 758.4,34 758.4,24" fill="none" stroke="#39FF14" stroke-width="1" opacity="0.06367458485022481"/>
<polygon points="754,7 762.6,12 762.6,22 754,27 745.4,22 745.4,12" fill="none" stroke="#39FF14" stroke-width="1" opacity="0.07669423343124065"/>
<polygon points="626,104 634.6,109 634.6,119 626,124 617.4,119 617.4,109" fill="none" stroke="#39FF14" stroke-width="1" opacity="0.048033609038553006"/>
<polygon points="95,171 103.6,176 103.6,186 95,191 86.4,186 86.4,176" fill="none" stroke="#39FF14" stroke-width="1" opacity="0.05559786588117799"/>
<polygon points="376,53 384.6,58 384.6,68 376,73 367.4,68 367.4,58" fill="none" stroke="#39FF14" stroke-width="1" opacity="0.07875878299292319"/>
<polygon points="823,0 831.6,5 831.6,15 823,20 814.4,15 814.4,5" fill="none" stroke="#39FF14" stroke-width="1" opacity="0.046363375713158364"/>
<polygon points="783,36 791.6,41 791.6,51 783,56 774.4,51 774.4,41" fill="none" stroke="#39FF14" stroke-width="1" opacity="0.04106870891878399"/>
<polygon points="591,92 599.6,97 599.6,107 591,112 582.4,107 582.4,97" fill="none" stroke="#39FF14" stroke-width="1" opacity="0.040493885492339586"/>
<polygon points="728,170 736.6,175 736.6,185 728,190 719.4,185 719.4,175" fill="none" stroke="#39FF14" stroke-width="1" opacity="0.03344068044074223"/>
<polygon points="252,82 260.6,87 260.6,97 252,102 243.4,97 243.4,87" fill="none" stroke="#39FF14" stroke-width="1" opacity="0.02312050494643148"/>
<polygon points="392,139 400.6,144 400.6,154 392,159 383.4,154 383.4,144" fill="none" stroke="#39FF14" stroke-width="1" opacity="0.031958483257929986"/>
<polygon points="126,183 134.6,188 134.6,198 126,203 117.4,198 117.4,188" fill="none" stroke="#39FF14" stroke-width="1" opacity="0.02550185706674493"/>
<polygon points="783,154 791.6,159 791.6,169 783,174 774.4,169 774.4,159" fill="none" stroke="#39FF14" stroke-width="1" opacity="0.05925163792300861"/>
<polygon points="228,-6 236.6,-1 236.6,9 228,14 219.4,9 219.4,-1" fill="none" stroke="#39FF14" stroke-width="1" opacity="0.06672097773068897"/>
<polygon points="375,106 383.6,111 383.6,121 375,126 366.4,121 366.4,111" fill="none" stroke="#39FF14" stroke-width="1" opacity="0.07970077738382828"/>
<polygon points="8,-5 16.6,0 16.6,10 8,15 -0.5999999999999996,10 -0.5999999999999996,0" fill="none" stroke="#39FF14" stroke-width="1" opacity="0.049458197246270375"/>
<polygon points="294,142 302.6,147 302.6,157 294,162 285.4,157 285.4,147" fill="none" stroke="#39FF14" stroke-width="1" opacity="0.055522507761851886"/>
<polygon points="128,-9 136.6,-4 136.6,6 128,11 119.4,6 119.4,-4" fill="none" stroke="#39FF14" stroke-width="1" opacity="0.024708320761966777"/>
<polygon points="442,106 450.6,111 450.6,121 442,126 433.4,121 433.4,111" fill="none" stroke="#39FF14" stroke-width="1" opacity="0.06534776892970526"/>
<polygon points="91,147 99.6,152 99.6,162 91,167 82.4,162 82.4,152" fill="none" stroke="#39FF14" stroke-width="1" opacity="0.024047989332411694"/>
</g>

  <!-- HUD Decorative elements -->
  <path d="M 20 20 L 40 20 L 50 30" fill="none" stroke="#39FF14" stroke-width="2" opacity="0.5"/>
  <path d="M 830 180 L 810 180 L 800 170" fill="none" stroke="#39FF14" stroke-width="2" opacity="0.5"/>
  <rect x="20" y="100" width="2" height="40" fill="#ffffff" opacity="0.4"/>
  <rect x="828" y="60" width="2" height="40" fill="#39FF14" opacity="0.6"/>

  <g font-family="'Consolas', 'Fira Code', monospace" text-anchor="middle">

    <!-- SYSTEM STATUS -->
    <g transform="translate(130, 100)">
        <circle cx="0" cy="0" r="45" fill="none" stroke="#111111" stroke-width="8" />
        <circle cx="0" cy="0" r="45" fill="none" stroke="#39FF14" stroke-width="2" stroke-dasharray="10 5">
            <animateTransform attributeName="transform" type="rotate" from="0" to="360" dur="10s" repeatCount="indefinite"/>
        </circle>
        <circle cx="0" cy="0" r="35" fill="#0d0d0d" />
        <circle cx="0" cy="0" r="6" fill="#39FF14" filter="url(#textGlow)">
            <animate attributeName="opacity" values="1;0.3;1" dur="2s" repeatCount="indefinite"/>
        </circle>
        <text x="0" y="-60" font-size="12" fill="#aaaaaa" letter-spacing="2">SYS.CORE</text>
        <text x="0" y="70" font-size="14" fill="#ffffff" font-weight="bold">ONLINE</text>
    </g>

    <!-- LIVE TRAFFIC -->
    <g transform="translate(330, 100)">
        <rect x="-60" y="-45" width="120" height="90" fill="#0a0a0a" rx="8" stroke="#39FF14" stroke-opacity="0.4" stroke-width="1"/>
        <text x="0" y="-20" font-size="12" fill="#aaaaaa">NETWORK LOAD</text>
        <text x="0" y="15" font-size="28" fill="#ffffff" font-weight="bold" filter="url(#textGlow)">4810</text>
        <text x="0" y="35" font-size="10" fill="#777777">ACTIVE SESSIONS</text>
    </g>

    <!-- ACTIVE AGENTS -->
    <g transform="translate(530, 100)">
        <rect x="-60" y="-45" width="120" height="90" fill="#0a0a0a" rx="8" stroke="#39FF14" stroke-opacity="0.4" stroke-width="1"/>
        <text x="0" y="-20" font-size="12" fill="#aaaaaa">SWARM ENTITIES</text>
        <text x="0" y="15" font-size="28" fill="#ffffff" font-weight="bold" filter="url(#textGlow)">143</text>
        <text x="0" y="35" font-size="10" fill="#777777">AUTONOMOUS</text>
    </g>

    <!-- UPTIME -->
    <g transform="translate(730, 100)">
        <path d="M -40 -35 L 40 -35 L 50 -25 L 50 35 L -40 35 L -50 25 Z" fill="#0a0a0a" stroke="#39FF14" stroke-opacity="0.4" stroke-width="1"/>
        <text x="0" y="-15" font-size="12" fill="#aaaaaa">CONTINUITY</text>
        <text x="0" y="15" font-size="24" fill="#ffffff" font-weight="bold">246<tspan font-size="14" fill="#777777">d</tspan></text>
        <rect x="-35" y="25" width="70" height="4" fill="url(#neonBar)" rx="2"/>
    </g>
  </g>

  <text x="425" y="185" font-family="'Consolas', 'Fira Code', monospace" font-size="10" fill="#aaaaaa" opacity="0.6" text-anchor="middle">LAST TELEMETRY PING: 2026-04-29 13:08:49 UTC // ENCRYPTED_TUNNEL</text>
</svg>