<svg width="850" height="200" viewBox="0 0 850 200" xmlns="http://www.w3.org/2000/svg">
  <defs>
    <pattern id="carbonFiber" width="10" height="10" patternUnits="userSpaceOnUse">
        <rect width="10" height="10" fill="#050505"/>
        <path d="M0,0 L5,5 L10,0 L5,-5 Z M5,5 L10,10 L15,5 L10,0 Z M-5,5 L0,10 L5,5 L0,0 Z M0,10 L5,15 L10,10 L5,5 Z" fill="#0d0d0d"/>
    </pattern>
    <filter id="textGlow">
      <feGaussianBlur stdDeviation="2" result="blur" />
      <feMerge>
        <feMergeNode in="blur"/>
        <feMergeNode in="SourceGraphic"/>
      </feMerge>
    </filter>
    <linearGradient id="neonBar" x1="0%" y1="0%" x2="100%" y2="0%">
        <stop offset="0%" stop-color="#111111"/>
        <stop offset="100%" stop-color="#39FF14"/>
    </linearGradient>
    <linearGradient id="scanlineGrad" x1="0%" y1="0%" x2="100%" y2="0%">
        <stop offset="0%" stop-color="#39FF14" stop-opacity="0"/>
        <stop offset="50%" stop-color="#39FF14" stop-opacity="0.18"/>
        <stop offset="100%" stop-color="#39FF14" stop-opacity="0"/>
    </linearGradient>
    <clipPath id="dashClip">
        <rect x="0" y="0" width="850" height="200" rx="12"/>
    </clipPath>
  </defs>

  <rect width="100%" height="100%" fill="url(#carbonFiber)" rx="12" stroke="#39FF14" stroke-width="1" stroke-opacity="0.3"/>
  <rect width="100%" height="100%" fill="#000000" opacity="0.6" rx="12" />
  <g><polygon points="334,0 342.6,5 342.6,15 334,20 325.4,15 325.4,5" fill="none" stroke="#39FF14" stroke-width="1" opacity="0.03404850733247455"/>
<polygon points="148,66 156.6,71 156.6,81 148,86 139.4,81 139.4,71" fill="none" stroke="#39FF14" stroke-width="1" opacity="0.03136973535852779"/>
<polygon points="240,164 248.6,169 248.6,179 240,184 231.4,179 231.4,169" fill="none" stroke="#39FF14" stroke-width="1" opacity="0.07813614609540513"/>
<polygon points="522,145 530.6,150 530.6,160 522,165 513.4,160 513.4,150" fill="none" stroke="#39FF14" stroke-width="1" opacity="0.06084204878454587"/>
<polygon points="725,-4 733.6,1 733.6,11 725,16 716.4,11 716.4,1" fill="none" stroke="#39FF14" stroke-width="1" opacity="0.03970938643636468"/>
<polygon points="698,129 706.6,134 706.6,144 698,149 689.4,144 689.4,134" fill="none" stroke="#39FF14" stroke-width="1" opacity="0.04330244941767284"/>
<polygon points="833,98 841.6,103 841.6,113 833,118 824.4,113 824.4,103" fill="none" stroke="#39FF14" stroke-width="1" opacity="0.047464276817644285"/>
<polygon points="763,147 771.6,152 771.6,162 763,167 754.4,162 754.4,152" fill="none" stroke="#39FF14" stroke-width="1" opacity="0.03863888083681213"/>
<polygon points="612,146 620.6,151 620.6,161 612,166 603.4,161 603.4,151" fill="none" stroke="#39FF14" stroke-width="1" opacity="0.049184718630214924"/>
<polygon points="279,67 287.6,72 287.6,82 279,87 270.4,82 270.4,72" fill="none" stroke="#39FF14" stroke-width="1" opacity="0.07873106839256137"/>
<polygon points="781,43 789.6,48 789.6,58 781,63 772.4,58 772.4,48" fill="none" stroke="#39FF14" stroke-width="1" opacity="0.06108398968613986"/>
<polygon points="243,3 251.6,8 251.6,18 243,23 234.4,18 234.4,8" fill="none" stroke="#39FF14" stroke-width="1" opacity="0.06398634291237834"/>
<polygon points="67,102 75.6,107 75.6,117 67,122 58.4,117 58.4,107" fill="none" stroke="#39FF14" stroke-width="1" opacity="0.07906698260813648"/>
<polygon points="814,126 822.6,131 822.6,141 814,146 805.4,141 805.4,131" fill="none" stroke="#39FF14" stroke-width="1" opacity="0.06768454875200063"/>
<polygon points="651,156 659.6,161 659.6,171 651,176 642.4,171 642.4,161" fill="none" stroke="#39FF14" stroke-width="1" opacity="0.07993919891641381"/>
<polygon points="832,103 840.6,108 840.6,118 832,123 823.4,118 823.4,108" fill="none" stroke="#39FF14" stroke-width="1" opacity="0.042504921518297004"/>
<polygon points="52,119 60.6,124 60.6,134 52,139 43.4,134 43.4,124" fill="none" stroke="#39FF14" stroke-width="1" opacity="0.05884397161567785"/>
<polygon points="184,2 192.6,7 192.6,17 184,22 175.4,17 175.4,7" fill="none" stroke="#39FF14" stroke-width="1" opacity="0.023864657785302588"/>
<polygon points="39,90 47.6,95 47.6,105 39,110 30.4,105 30.4,95" fill="none" stroke="#39FF14" stroke-width="1" opacity="0.037078836024078736"/>
<polygon points="313,36 321.6,41 321.6,51 313,56 304.4,51 304.4,41" fill="none" stroke="#39FF14" stroke-width="1" opacity="0.04609982436836895"/>
<polygon points="329,172 337.6,177 337.6,187 329,192 320.4,187 320.4,177" fill="none" stroke="#39FF14" stroke-width="1" opacity="0.06552890767499998"/>
<polygon points="562,141 570.6,146 570.6,156 562,161 553.4,156 553.4,146" fill="none" stroke="#39FF14" stroke-width="1" opacity="0.06572258033759966"/>
<polygon points="582,7 590.6,12 590.6,22 582,27 573.4,22 573.4,12" fill="none" stroke="#39FF14" stroke-width="1" opacity="0.03675622685936482"/>
<polygon points="296,102 304.6,107 304.6,117 296,122 287.4,117 287.4,107" fill="none" stroke="#39FF14" stroke-width="1" opacity="0.073756342885767"/>
<polygon points="704,74 712.6,79 712.6,89 704,94 695.4,89 695.4,79" fill="none" stroke="#39FF14" stroke-width="1" opacity="0.0645670554952186"/>
<polygon points="669,119 677.6,124 677.6,134 669,139 660.4,134 660.4,124" fill="none" stroke="#39FF14" stroke-width="1" opacity="0.039320333833449496"/>
<polygon points="540,-7 548.6,-2 548.6,8 540,13 531.4,8 531.4,-2" fill="none" stroke="#39FF14" stroke-width="1" opacity="0.023518572248285435"/>
<polygon points="775,66 783.6,71 783.6,81 775,86 766.4,81 766.4,71" fill="none" stroke="#39FF14" stroke-width="1" opacity="0.058603862710115015"/>
<polygon points="239,94 247.6,99 247.6,109 239,114 230.4,109 230.4,99" fill="none" stroke="#39FF14" stroke-width="1" opacity="0.0358279666182754"/>
<polygon points="252,101 260.6,106 260.6,116 252,121 243.4,116 243.4,106" fill="none" stroke="#39FF14" stroke-width="1" opacity="0.046522333628428475"/>
</g>

  <!-- HUD Decorative elements -->
  <path d="M 20 20 L 40 20 L 50 30" fill="none" stroke="#39FF14" stroke-width="2" opacity="0.5"/>
  <path d="M 830 180 L 810 180 L 800 170" fill="none" stroke="#39FF14" stroke-width="2" opacity="0.5"/>

  <g clip-path="url(#dashClip)">
    <rect x="-160" y="0" width="160" height="200" fill="url(#scanlineGrad)">
      <animateTransform attributeName="transform" type="translate"
                        from="0 0" to="1010 0" dur="6s" repeatCount="indefinite"/>
    </rect>
  </g>

  <g font-family="'Consolas', 'Fira Code', monospace" text-anchor="middle">

    <!-- NETWORK STATUS -->
    <g transform="translate(130, 100)">
        <circle cx="0" cy="0" r="45" fill="none" stroke="#39FF14" stroke-width="2" stroke-dasharray="10 5">
            <animateTransform attributeName="transform" type="rotate" from="0" to="360" dur="10s" repeatCount="indefinite"/>
        </circle>
        <circle cx="0" cy="0" r="35" fill="#0d0d0d" />
        <text x="0" y="-60" font-size="12" fill="#aaaaaa" letter-spacing="2">ROOT.AUTH</text>
        <text x="0" y="70" font-size="14" fill="#ffffff" font-weight="bold">OPERATIONAL</text>
    </g>

    <!-- ACTIVE USERS -->
    <g transform="translate(330, 100)">
        <text x="0" y="-20" font-size="12" fill="#aaaaaa">CITIZENS</text>
        <text x="0" y="15" font-size="28" fill="#ffffff" font-weight="bold" filter="url(#textGlow)">12,811</text>
        <text x="0" y="35" font-size="10" fill="#777777">VERIFIED HUMANS</text>
    </g>

    <!-- REGISTERED AGENTS -->
    <g transform="translate(530, 100)">
        <text x="0" y="-20" font-size="12" fill="#aaaaaa">AGENTS</text>
        <text x="0" y="15" font-size="28" fill="#00d4ff" font-weight="bold" filter="url(#textGlow)">3,252</text>
        <text x="0" y="35" font-size="10" fill="#777777">REGISTERED DIDs</text>
    </g>

    <!-- TRANSACTIONS -->
    <g transform="translate(730, 100)">
        <text x="0" y="-20" font-size="12" fill="#aaaaaa">TRANSFERS</text>
        <text x="0" y="15" font-size="28" fill="#ffffff" font-weight="bold">39,754</text>
        <text x="0" y="35" font-size="10" fill="#777777">M2M SETTLEMENTS</text>
    </g>
  </g>

  <text x="425" y="185" font-family="'Consolas', 'Fira Code', monospace" font-size="10" fill="#aaaaaa" opacity="0.6" text-anchor="middle">AXIOMID PROJECTED TARGETS (ILLUSTRATIVE): 2026-07-12 07:59:27 UTC // SECURE_HANDSHAKE</text>
</svg>