<svg width="850" height="200" viewBox="0 0 850 200" xmlns="http://www.w3.org/2000/svg">
  <defs>
    <pattern id="carbonFiber" width="10" height="10" patternUnits="userSpaceOnUse">
        <rect width="10" height="10" fill="#050505"/>
        <path d="M0,0 L5,5 L10,0 L5,-5 Z M5,5 L10,10 L15,5 L10,0 Z M-5,5 L0,10 L5,5 L0,0 Z M0,10 L5,15 L10,10 L5,5 Z" fill="#0d0d0d"/>
    </pattern>
    <filter id="textGlow">
      <feGaussianBlur stdDeviation="2" result="blur" />
      <feMerge>
        <feMergeNode in="blur"/>
        <feMergeNode in="SourceGraphic"/>
      </feMerge>
    </filter>
    <linearGradient id="neonBar" x1="0%" y1="0%" x2="100%" y2="0%">
        <stop offset="0%" stop-color="#111111"/>
        <stop offset="100%" stop-color="#39FF14"/>
    </linearGradient>
    <linearGradient id="scanlineGrad" x1="0%" y1="0%" x2="100%" y2="0%">
        <stop offset="0%" stop-color="#39FF14" stop-opacity="0"/>
        <stop offset="50%" stop-color="#39FF14" stop-opacity="0.18"/>
        <stop offset="100%" stop-color="#39FF14" stop-opacity="0"/>
    </linearGradient>
    <clipPath id="dashClip">
        <rect x="0" y="0" width="850" height="200" rx="12"/>
    </clipPath>
  </defs>

  <rect width="100%" height="100%" fill="url(#carbonFiber)" rx="12" stroke="#39FF14" stroke-width="1" stroke-opacity="0.3"/>
  <rect width="100%" height="100%" fill="#000000" opacity="0.6" rx="12" />
  <g><polygon points="762,137 770.6,142 770.6,152 762,157 753.4,152 753.4,142" fill="none" stroke="#39FF14" stroke-width="1" opacity="0.05293357842445484"/>
<polygon points="48,13 56.6,18 56.6,28 48,33 39.4,28 39.4,18" fill="none" stroke="#39FF14" stroke-width="1" opacity="0.07770840447783268"/>
<polygon points="262,121 270.6,126 270.6,136 262,141 253.4,136 253.4,126" fill="none" stroke="#39FF14" stroke-width="1" opacity="0.05627016056506065"/>
<polygon points="158,51 166.6,56 166.6,66 158,71 149.4,66 149.4,56" fill="none" stroke="#39FF14" stroke-width="1" opacity="0.05690356253200192"/>
<polygon points="762,146 770.6,151 770.6,161 762,166 753.4,161 753.4,151" fill="none" stroke="#39FF14" stroke-width="1" opacity="0.04059243107052675"/>
<polygon points="12,98 20.6,103 20.6,113 12,118 3.4000000000000004,113 3.4000000000000004,103" fill="none" stroke="#39FF14" stroke-width="1" opacity="0.030698754592645837"/>
<polygon points="292,0 300.6,5 300.6,15 292,20 283.4,15 283.4,5" fill="none" stroke="#39FF14" stroke-width="1" opacity="0.026870782630154952"/>
<polygon points="388,41 396.6,46 396.6,56 388,61 379.4,56 379.4,46" fill="none" stroke="#39FF14" stroke-width="1" opacity="0.0558979209873014"/>
<polygon points="414,75 422.6,80 422.6,90 414,95 405.4,90 405.4,80" fill="none" stroke="#39FF14" stroke-width="1" opacity="0.07595511795669867"/>
<polygon points="359,29 367.6,34 367.6,44 359,49 350.4,44 350.4,34" fill="none" stroke="#39FF14" stroke-width="1" opacity="0.028251401167599763"/>
<polygon points="11,10 19.6,15 19.6,25 11,30 2.4000000000000004,25 2.4000000000000004,15" fill="none" stroke="#39FF14" stroke-width="1" opacity="0.023776699718802537"/>
<polygon points="313,157 321.6,162 321.6,172 313,177 304.4,172 304.4,162" fill="none" stroke="#39FF14" stroke-width="1" opacity="0.03959650119012195"/>
<polygon points="655,57 663.6,62 663.6,72 655,77 646.4,72 646.4,62" fill="none" stroke="#39FF14" stroke-width="1" opacity="0.052394823222488465"/>
<polygon points="447,107 455.6,112 455.6,122 447,127 438.4,122 438.4,112" fill="none" stroke="#39FF14" stroke-width="1" opacity="0.076318055369205"/>
<polygon points="333,-6 341.6,-1 341.6,9 333,14 324.4,9 324.4,-1" fill="none" stroke="#39FF14" stroke-width="1" opacity="0.05758574952290413"/>
<polygon points="756,165 764.6,170 764.6,180 756,185 747.4,180 747.4,170" fill="none" stroke="#39FF14" stroke-width="1" opacity="0.051815639941588276"/>
<polygon points="838,181 846.6,186 846.6,196 838,201 829.4,196 829.4,186" fill="none" stroke="#39FF14" stroke-width="1" opacity="0.02848856004389127"/>
<polygon points="671,22 679.6,27 679.6,37 671,42 662.4,37 662.4,27" fill="none" stroke="#39FF14" stroke-width="1" opacity="0.04634612650179812"/>
<polygon points="410,157 418.6,162 418.6,172 410,177 401.4,172 401.4,162" fill="none" stroke="#39FF14" stroke-width="1" opacity="0.05498102663465772"/>
<polygon points="589,183 597.6,188 597.6,198 589,203 580.4,198 580.4,188" fill="none" stroke="#39FF14" stroke-width="1" opacity="0.04113965214820847"/>
<polygon points="406,78 414.6,83 414.6,93 406,98 397.4,93 397.4,83" fill="none" stroke="#39FF14" stroke-width="1" opacity="0.06895346960863578"/>
<polygon points="352,146 360.6,151 360.6,161 352,166 343.4,161 343.4,151" fill="none" stroke="#39FF14" stroke-width="1" opacity="0.05811860833149278"/>
<polygon points="467,125 475.6,130 475.6,140 467,145 458.4,140 458.4,130" fill="none" stroke="#39FF14" stroke-width="1" opacity="0.05337010855366997"/>
<polygon points="686,173 694.6,178 694.6,188 686,193 677.4,188 677.4,178" fill="none" stroke="#39FF14" stroke-width="1" opacity="0.054813602267872324"/>
<polygon points="90,143 98.6,148 98.6,158 90,163 81.4,158 81.4,148" fill="none" stroke="#39FF14" stroke-width="1" opacity="0.07901376357202673"/>
<polygon points="466,158 474.6,163 474.6,173 466,178 457.4,173 457.4,163" fill="none" stroke="#39FF14" stroke-width="1" opacity="0.027393593884457175"/>
<polygon points="457,141 465.6,146 465.6,156 457,161 448.4,156 448.4,146" fill="none" stroke="#39FF14" stroke-width="1" opacity="0.02831451350256603"/>
<polygon points="287,-5 295.6,0 295.6,10 287,15 278.4,10 278.4,0" fill="none" stroke="#39FF14" stroke-width="1" opacity="0.03899125422725566"/>
<polygon points="280,64 288.6,69 288.6,79 280,84 271.4,79 271.4,69" fill="none" stroke="#39FF14" stroke-width="1" opacity="0.07949593313421097"/>
<polygon points="38,187 46.6,192 46.6,202 38,207 29.4,202 29.4,192" fill="none" stroke="#39FF14" stroke-width="1" opacity="0.023811419985082464"/>
</g>

  <!-- HUD Decorative elements -->
  <path d="M 20 20 L 40 20 L 50 30" fill="none" stroke="#39FF14" stroke-width="2" opacity="0.5"/>
  <path d="M 830 180 L 810 180 L 800 170" fill="none" stroke="#39FF14" stroke-width="2" opacity="0.5"/>

  <g clip-path="url(#dashClip)">
    <rect x="-160" y="0" width="160" height="200" fill="url(#scanlineGrad)">
      <animateTransform attributeName="transform" type="translate"
                        from="0 0" to="1010 0" dur="6s" repeatCount="indefinite"/>
    </rect>
  </g>

  <g font-family="'Consolas', 'Fira Code', monospace" text-anchor="middle">

    <!-- NETWORK STATUS -->
    <g transform="translate(130, 100)">
        <circle cx="0" cy="0" r="45" fill="none" stroke="#39FF14" stroke-width="2" stroke-dasharray="10 5">
            <animateTransform attributeName="transform" type="rotate" from="0" to="360" dur="10s" repeatCount="indefinite"/>
        </circle>
        <circle cx="0" cy="0" r="35" fill="#0d0d0d" />
        <text x="0" y="-60" font-size="12" fill="#aaaaaa" letter-spacing="2">ROOT.AUTH</text>
        <text x="0" y="70" font-size="14" fill="#ffffff" font-weight="bold">OPERATIONAL</text>
    </g>

    <!-- ACTIVE USERS -->
    <g transform="translate(330, 100)">
        <text x="0" y="-20" font-size="12" fill="#aaaaaa">CITIZENS</text>
        <text x="0" y="15" font-size="28" fill="#ffffff" font-weight="bold" filter="url(#textGlow)">15,213</text>
        <text x="0" y="35" font-size="10" fill="#777777">VERIFIED HUMANS</text>
    </g>

    <!-- REGISTERED AGENTS -->
    <g transform="translate(530, 100)">
        <text x="0" y="-20" font-size="12" fill="#aaaaaa">AGENTS</text>
        <text x="0" y="15" font-size="28" fill="#00d4ff" font-weight="bold" filter="url(#textGlow)">3,113</text>
        <text x="0" y="35" font-size="10" fill="#777777">REGISTERED DIDs</text>
    </g>

    <!-- TRANSACTIONS -->
    <g transform="translate(730, 100)">
        <text x="0" y="-20" font-size="12" fill="#aaaaaa">TRANSFERS</text>
        <text x="0" y="15" font-size="28" fill="#ffffff" font-weight="bold">27,773</text>
        <text x="0" y="35" font-size="10" fill="#777777">M2M SETTLEMENTS</text>
    </g>
  </g>

  <text x="425" y="185" font-family="'Consolas', 'Fira Code', monospace" font-size="10" fill="#aaaaaa" opacity="0.6" text-anchor="middle">AXIOMID PROJECTED TARGETS (ILLUSTRATIVE): 2026-07-16 05:30:53 UTC // SECURE_HANDSHAKE</text>
</svg>