<svg width="850" height="200" viewBox="0 0 850 200" xmlns="http://www.w3.org/2000/svg">
  <defs>
    <pattern id="carbonFiber" width="10" height="10" patternUnits="userSpaceOnUse">
        <rect width="10" height="10" fill="#050505"/>
        <path d="M0,0 L5,5 L10,0 L5,-5 Z M5,5 L10,10 L15,5 L10,0 Z M-5,5 L0,10 L5,5 L0,0 Z M0,10 L5,15 L10,10 L5,5 Z" fill="#0d0d0d"/>
    </pattern>
    <filter id="textGlow">
      <feGaussianBlur stdDeviation="2" result="blur" />
      <feMerge>
        <feMergeNode in="blur"/>
        <feMergeNode in="SourceGraphic"/>
      </feMerge>
    </filter>
    <linearGradient id="neonBar" x1="0%" y1="0%" x2="100%" y2="0%">
        <stop offset="0%" stop-color="#111111"/>
        <stop offset="100%" stop-color="#39FF14"/>
    </linearGradient>
    <linearGradient id="scanlineGrad" x1="0%" y1="0%" x2="100%" y2="0%">
        <stop offset="0%" stop-color="#39FF14" stop-opacity="0"/>
        <stop offset="50%" stop-color="#39FF14" stop-opacity="0.18"/>
        <stop offset="100%" stop-color="#39FF14" stop-opacity="0"/>
    </linearGradient>
    <clipPath id="dashClip">
        <rect x="0" y="0" width="850" height="200" rx="12"/>
    </clipPath>
  </defs>

  <rect width="100%" height="100%" fill="url(#carbonFiber)" rx="12" stroke="#39FF14" stroke-width="1" stroke-opacity="0.3"/>
  <rect width="100%" height="100%" fill="#000000" opacity="0.6" rx="12" />
  <g><polygon points="122,185 130.6,190 130.6,200 122,205 113.4,200 113.4,190" fill="none" stroke="#39FF14" stroke-width="1" opacity="0.06604612428198733"/>
<polygon points="449,86 457.6,91 457.6,101 449,106 440.4,101 440.4,91" fill="none" stroke="#39FF14" stroke-width="1" opacity="0.0603195553300014"/>
<polygon points="474,97 482.6,102 482.6,112 474,117 465.4,112 465.4,102" fill="none" stroke="#39FF14" stroke-width="1" opacity="0.07891739884410442"/>
<polygon points="216,48 224.6,53 224.6,63 216,68 207.4,63 207.4,53" fill="none" stroke="#39FF14" stroke-width="1" opacity="0.07371045799173653"/>
<polygon points="592,42 600.6,47 600.6,57 592,62 583.4,57 583.4,47" fill="none" stroke="#39FF14" stroke-width="1" opacity="0.06130816994324231"/>
<polygon points="212,15 220.6,20 220.6,30 212,35 203.4,30 203.4,20" fill="none" stroke="#39FF14" stroke-width="1" opacity="0.06080022629504585"/>
<polygon points="268,-8 276.6,-3 276.6,7 268,12 259.4,7 259.4,-3" fill="none" stroke="#39FF14" stroke-width="1" opacity="0.06585700349702253"/>
<polygon points="112,175 120.6,180 120.6,190 112,195 103.4,190 103.4,180" fill="none" stroke="#39FF14" stroke-width="1" opacity="0.023160916407110408"/>
<polygon points="311,84 319.6,89 319.6,99 311,104 302.4,99 302.4,89" fill="none" stroke="#39FF14" stroke-width="1" opacity="0.06502310211467015"/>
<polygon points="209,85 217.6,90 217.6,100 209,105 200.4,100 200.4,90" fill="none" stroke="#39FF14" stroke-width="1" opacity="0.04066934910466028"/>
<polygon points="253,148 261.6,153 261.6,163 253,168 244.4,163 244.4,153" fill="none" stroke="#39FF14" stroke-width="1" opacity="0.0363013927476876"/>
<polygon points="823,71 831.6,76 831.6,86 823,91 814.4,86 814.4,76" fill="none" stroke="#39FF14" stroke-width="1" opacity="0.047699211239056336"/>
<polygon points="682,13 690.6,18 690.6,28 682,33 673.4,28 673.4,18" fill="none" stroke="#39FF14" stroke-width="1" opacity="0.03587035217336701"/>
<polygon points="429,47 437.6,52 437.6,62 429,67 420.4,62 420.4,52" fill="none" stroke="#39FF14" stroke-width="1" opacity="0.03563348318443288"/>
<polygon points="317,-1 325.6,4 325.6,14 317,19 308.4,14 308.4,4" fill="none" stroke="#39FF14" stroke-width="1" opacity="0.039536460831835235"/>
<polygon points="814,166 822.6,171 822.6,181 814,186 805.4,181 805.4,171" fill="none" stroke="#39FF14" stroke-width="1" opacity="0.06494541730751448"/>
<polygon points="377,86 385.6,91 385.6,101 377,106 368.4,101 368.4,91" fill="none" stroke="#39FF14" stroke-width="1" opacity="0.02869729347619821"/>
<polygon points="310,6 318.6,11 318.6,21 310,26 301.4,21 301.4,11" fill="none" stroke="#39FF14" stroke-width="1" opacity="0.061366497437828085"/>
<polygon points="823,161 831.6,166 831.6,176 823,181 814.4,176 814.4,166" fill="none" stroke="#39FF14" stroke-width="1" opacity="0.07068944424712591"/>
<polygon points="356,95 364.6,100 364.6,110 356,115 347.4,110 347.4,100" fill="none" stroke="#39FF14" stroke-width="1" opacity="0.036866238371907493"/>
<polygon points="613,177 621.6,182 621.6,192 613,197 604.4,192 604.4,182" fill="none" stroke="#39FF14" stroke-width="1" opacity="0.047298824102509206"/>
<polygon points="257,139 265.6,144 265.6,154 257,159 248.4,154 248.4,144" fill="none" stroke="#39FF14" stroke-width="1" opacity="0.02882013853507781"/>
<polygon points="611,-8 619.6,-3 619.6,7 611,12 602.4,7 602.4,-3" fill="none" stroke="#39FF14" stroke-width="1" opacity="0.05757724853006796"/>
<polygon points="654,65 662.6,70 662.6,80 654,85 645.4,80 645.4,70" fill="none" stroke="#39FF14" stroke-width="1" opacity="0.049689645744359745"/>
<polygon points="447,81 455.6,86 455.6,96 447,101 438.4,96 438.4,86" fill="none" stroke="#39FF14" stroke-width="1" opacity="0.039858305779093106"/>
<polygon points="724,179 732.6,184 732.6,194 724,199 715.4,194 715.4,184" fill="none" stroke="#39FF14" stroke-width="1" opacity="0.05095464724389824"/>
<polygon points="64,10 72.6,15 72.6,25 64,30 55.4,25 55.4,15" fill="none" stroke="#39FF14" stroke-width="1" opacity="0.07748583729992159"/>
<polygon points="13,124 21.6,129 21.6,139 13,144 4.4,139 4.4,129" fill="none" stroke="#39FF14" stroke-width="1" opacity="0.02168912767029571"/>
<polygon points="468,110 476.6,115 476.6,125 468,130 459.4,125 459.4,115" fill="none" stroke="#39FF14" stroke-width="1" opacity="0.07924386870832903"/>
<polygon points="514,62 522.6,67 522.6,77 514,82 505.4,77 505.4,67" fill="none" stroke="#39FF14" stroke-width="1" opacity="0.06038462457166195"/>
</g>

  <!-- HUD Decorative elements -->
  <path d="M 20 20 L 40 20 L 50 30" fill="none" stroke="#39FF14" stroke-width="2" opacity="0.5"/>
  <path d="M 830 180 L 810 180 L 800 170" fill="none" stroke="#39FF14" stroke-width="2" opacity="0.5"/>

  <g clip-path="url(#dashClip)">
    <rect x="-160" y="0" width="160" height="200" fill="url(#scanlineGrad)">
      <animateTransform attributeName="transform" type="translate"
                        from="0 0" to="1010 0" dur="6s" repeatCount="indefinite"/>
    </rect>
  </g>

  <g font-family="'Consolas', 'Fira Code', monospace" text-anchor="middle">

    <!-- NETWORK STATUS -->
    <g transform="translate(130, 100)">
        <circle cx="0" cy="0" r="45" fill="none" stroke="#39FF14" stroke-width="2" stroke-dasharray="10 5">
            <animateTransform attributeName="transform" type="rotate" from="0" to="360" dur="10s" repeatCount="indefinite"/>
        </circle>
        <circle cx="0" cy="0" r="35" fill="#0d0d0d" />
        <text x="0" y="-60" font-size="12" fill="#aaaaaa" letter-spacing="2">ROOT.AUTH</text>
        <text x="0" y="70" font-size="14" fill="#ffffff" font-weight="bold">OPERATIONAL</text>
    </g>

    <!-- ACTIVE USERS -->
    <g transform="translate(330, 100)">
        <text x="0" y="-20" font-size="12" fill="#aaaaaa">CITIZENS</text>
        <text x="0" y="15" font-size="28" fill="#ffffff" font-weight="bold" filter="url(#textGlow)">12,434</text>
        <text x="0" y="35" font-size="10" fill="#777777">VERIFIED HUMANS</text>
    </g>

    <!-- REGISTERED AGENTS -->
    <g transform="translate(530, 100)">
        <text x="0" y="-20" font-size="12" fill="#aaaaaa">AGENTS</text>
        <text x="0" y="15" font-size="28" fill="#00d4ff" font-weight="bold" filter="url(#textGlow)">3,583</text>
        <text x="0" y="35" font-size="10" fill="#777777">REGISTERED DIDs</text>
    </g>

    <!-- TRANSACTIONS -->
    <g transform="translate(730, 100)">
        <text x="0" y="-20" font-size="12" fill="#aaaaaa">TRANSFERS</text>
        <text x="0" y="15" font-size="28" fill="#ffffff" font-weight="bold">39,117</text>
        <text x="0" y="35" font-size="10" fill="#777777">M2M SETTLEMENTS</text>
    </g>
  </g>

  <text x="425" y="185" font-family="'Consolas', 'Fira Code', monospace" font-size="10" fill="#aaaaaa" opacity="0.6" text-anchor="middle">AXIOMID PROJECTED TARGETS (ILLUSTRATIVE): 2026-07-09 19:22:31 UTC // SECURE_HANDSHAKE</text>
</svg>