<svg width="850" height="200" viewBox="0 0 850 200" xmlns="http://www.w3.org/2000/svg">
  <defs>
    <pattern id="carbonFiber" width="10" height="10" patternUnits="userSpaceOnUse">
        <rect width="10" height="10" fill="#050505"/>
        <path d="M0,0 L5,5 L10,0 L5,-5 Z M5,5 L10,10 L15,5 L10,0 Z M-5,5 L0,10 L5,5 L0,0 Z M0,10 L5,15 L10,10 L5,5 Z" fill="#0d0d0d"/>
    </pattern>
    <filter id="textGlow">
      <feGaussianBlur stdDeviation="2" result="blur" />
      <feMerge>
        <feMergeNode in="blur"/>
        <feMergeNode in="SourceGraphic"/>
      </feMerge>
    </filter>
    <linearGradient id="neonBar" x1="0%" y1="0%" x2="100%" y2="0%">
        <stop offset="0%" stop-color="#111111"/>
        <stop offset="100%" stop-color="#39FF14"/>
    </linearGradient>
    <linearGradient id="scanlineGrad" x1="0%" y1="0%" x2="100%" y2="0%">
        <stop offset="0%" stop-color="#39FF14" stop-opacity="0"/>
        <stop offset="50%" stop-color="#39FF14" stop-opacity="0.18"/>
        <stop offset="100%" stop-color="#39FF14" stop-opacity="0"/>
    </linearGradient>
    <clipPath id="dashClip">
        <rect x="0" y="0" width="850" height="200" rx="12"/>
    </clipPath>
  </defs>

  <rect width="100%" height="100%" fill="url(#carbonFiber)" rx="12" stroke="#39FF14" stroke-width="1" stroke-opacity="0.3"/>
  <rect width="100%" height="100%" fill="#000000" opacity="0.6" rx="12" />
  <g><polygon points="342,97 350.6,102 350.6,112 342,117 333.4,112 333.4,102" fill="none" stroke="#39FF14" stroke-width="1" opacity="0.06656566778110498"/>
<polygon points="168,37 176.6,42 176.6,52 168,57 159.4,52 159.4,42" fill="none" stroke="#39FF14" stroke-width="1" opacity="0.05417351380642625"/>
<polygon points="810,190 818.6,195 818.6,205 810,210 801.4,205 801.4,195" fill="none" stroke="#39FF14" stroke-width="1" opacity="0.032881141781384175"/>
<polygon points="775,18 783.6,23 783.6,33 775,38 766.4,33 766.4,23" fill="none" stroke="#39FF14" stroke-width="1" opacity="0.056420849067452386"/>
<polygon points="353,99 361.6,104 361.6,114 353,119 344.4,114 344.4,104" fill="none" stroke="#39FF14" stroke-width="1" opacity="0.029776134522100484"/>
<polygon points="124,177 132.6,182 132.6,192 124,197 115.4,192 115.4,182" fill="none" stroke="#39FF14" stroke-width="1" opacity="0.04800163775147892"/>
<polygon points="663,182 671.6,187 671.6,197 663,202 654.4,197 654.4,187" fill="none" stroke="#39FF14" stroke-width="1" opacity="0.059648378240064845"/>
<polygon points="336,21 344.6,26 344.6,36 336,41 327.4,36 327.4,26" fill="none" stroke="#39FF14" stroke-width="1" opacity="0.04656690264871351"/>
<polygon points="443,53 451.6,58 451.6,68 443,73 434.4,68 434.4,58" fill="none" stroke="#39FF14" stroke-width="1" opacity="0.04371589381331428"/>
<polygon points="632,-1 640.6,4 640.6,14 632,19 623.4,14 623.4,4" fill="none" stroke="#39FF14" stroke-width="1" opacity="0.07563641389117394"/>
<polygon points="227,93 235.6,98 235.6,108 227,113 218.4,108 218.4,98" fill="none" stroke="#39FF14" stroke-width="1" opacity="0.03808222868200902"/>
<polygon points="331,43 339.6,48 339.6,58 331,63 322.4,58 322.4,48" fill="none" stroke="#39FF14" stroke-width="1" opacity="0.07187741191313195"/>
<polygon points="103,76 111.6,81 111.6,91 103,96 94.4,91 94.4,81" fill="none" stroke="#39FF14" stroke-width="1" opacity="0.07123273464788438"/>
<polygon points="711,113 719.6,118 719.6,128 711,133 702.4,128 702.4,118" fill="none" stroke="#39FF14" stroke-width="1" opacity="0.022805196021143087"/>
<polygon points="353,166 361.6,171 361.6,181 353,186 344.4,181 344.4,171" fill="none" stroke="#39FF14" stroke-width="1" opacity="0.03650231432061939"/>
<polygon points="701,44 709.6,49 709.6,59 701,64 692.4,59 692.4,49" fill="none" stroke="#39FF14" stroke-width="1" opacity="0.05843897631425915"/>
<polygon points="748,27 756.6,32 756.6,42 748,47 739.4,42 739.4,32" fill="none" stroke="#39FF14" stroke-width="1" opacity="0.03453925547207775"/>
<polygon points="471,-4 479.6,1 479.6,11 471,16 462.4,11 462.4,1" fill="none" stroke="#39FF14" stroke-width="1" opacity="0.04320920566793786"/>
<polygon points="368,65 376.6,70 376.6,80 368,85 359.4,80 359.4,70" fill="none" stroke="#39FF14" stroke-width="1" opacity="0.061801354682449336"/>
<polygon points="708,117 716.6,122 716.6,132 708,137 699.4,132 699.4,122" fill="none" stroke="#39FF14" stroke-width="1" opacity="0.06646826560656904"/>
<polygon points="8,-1 16.6,4 16.6,14 8,19 -0.5999999999999996,14 -0.5999999999999996,4" fill="none" stroke="#39FF14" stroke-width="1" opacity="0.07496177645983564"/>
<polygon points="7,39 15.6,44 15.6,54 7,59 -1.5999999999999996,54 -1.5999999999999996,44" fill="none" stroke="#39FF14" stroke-width="1" opacity="0.05730107758922881"/>
<polygon points="239,53 247.6,58 247.6,68 239,73 230.4,68 230.4,58" fill="none" stroke="#39FF14" stroke-width="1" opacity="0.03660338587094292"/>
<polygon points="352,112 360.6,117 360.6,127 352,132 343.4,127 343.4,117" fill="none" stroke="#39FF14" stroke-width="1" opacity="0.04962371298568947"/>
<polygon points="694,105 702.6,110 702.6,120 694,125 685.4,120 685.4,110" fill="none" stroke="#39FF14" stroke-width="1" opacity="0.06381513456260311"/>
<polygon points="328,69 336.6,74 336.6,84 328,89 319.4,84 319.4,74" fill="none" stroke="#39FF14" stroke-width="1" opacity="0.030475985439892272"/>
<polygon points="829,23 837.6,28 837.6,38 829,43 820.4,38 820.4,28" fill="none" stroke="#39FF14" stroke-width="1" opacity="0.07360767962204516"/>
<polygon points="172,51 180.6,56 180.6,66 172,71 163.4,66 163.4,56" fill="none" stroke="#39FF14" stroke-width="1" opacity="0.04116202622741223"/>
<polygon points="514,135 522.6,140 522.6,150 514,155 505.4,150 505.4,140" fill="none" stroke="#39FF14" stroke-width="1" opacity="0.055457413470380384"/>
<polygon points="553,182 561.6,187 561.6,197 553,202 544.4,197 544.4,187" fill="none" stroke="#39FF14" stroke-width="1" opacity="0.07902429132426793"/>
</g>

  <!-- HUD Decorative elements -->
  <path d="M 20 20 L 40 20 L 50 30" fill="none" stroke="#39FF14" stroke-width="2" opacity="0.5"/>
  <path d="M 830 180 L 810 180 L 800 170" fill="none" stroke="#39FF14" stroke-width="2" opacity="0.5"/>

  <g clip-path="url(#dashClip)">
    <rect x="-160" y="0" width="160" height="200" fill="url(#scanlineGrad)">
      <animateTransform attributeName="transform" type="translate"
                        from="0 0" to="1010 0" dur="6s" repeatCount="indefinite"/>
    </rect>
  </g>

  <g font-family="'Consolas', 'Fira Code', monospace" text-anchor="middle">

    <!-- NETWORK STATUS -->
    <g transform="translate(130, 100)">
        <circle cx="0" cy="0" r="45" fill="none" stroke="#39FF14" stroke-width="2" stroke-dasharray="10 5">
            <animateTransform attributeName="transform" type="rotate" from="0" to="360" dur="10s" repeatCount="indefinite"/>
        </circle>
        <circle cx="0" cy="0" r="35" fill="#0d0d0d" />
        <text x="0" y="-60" font-size="12" fill="#aaaaaa" letter-spacing="2">ROOT.AUTH</text>
        <text x="0" y="70" font-size="14" fill="#ffffff" font-weight="bold">OPERATIONAL</text>
    </g>

    <!-- ACTIVE USERS -->
    <g transform="translate(330, 100)">
        <text x="0" y="-20" font-size="12" fill="#aaaaaa">CITIZENS</text>
        <text x="0" y="15" font-size="28" fill="#ffffff" font-weight="bold" filter="url(#textGlow)">14,282</text>
        <text x="0" y="35" font-size="10" fill="#777777">VERIFIED HUMANS</text>
    </g>

    <!-- REGISTERED AGENTS -->
    <g transform="translate(530, 100)">
        <text x="0" y="-20" font-size="12" fill="#aaaaaa">AGENTS</text>
        <text x="0" y="15" font-size="28" fill="#00d4ff" font-weight="bold" filter="url(#textGlow)">3,215</text>
        <text x="0" y="35" font-size="10" fill="#777777">REGISTERED DIDs</text>
    </g>

    <!-- TRANSACTIONS -->
    <g transform="translate(730, 100)">
        <text x="0" y="-20" font-size="12" fill="#aaaaaa">TRANSFERS</text>
        <text x="0" y="15" font-size="28" fill="#ffffff" font-weight="bold">26,277</text>
        <text x="0" y="35" font-size="10" fill="#777777">M2M SETTLEMENTS</text>
    </g>
  </g>

  <text x="425" y="185" font-family="'Consolas', 'Fira Code', monospace" font-size="10" fill="#aaaaaa" opacity="0.6" text-anchor="middle">AXIOMID PROJECTED TARGETS (ILLUSTRATIVE): 2026-06-25 00:31:22 UTC // SECURE_HANDSHAKE</text>
</svg>