<svg width="850" height="200" viewBox="0 0 850 200" xmlns="http://www.w3.org/2000/svg">
  <defs>
    <pattern id="carbonFiber" width="10" height="10" patternUnits="userSpaceOnUse">
        <rect width="10" height="10" fill="#050505"/>
        <path d="M0,0 L5,5 L10,0 L5,-5 Z M5,5 L10,10 L15,5 L10,0 Z M-5,5 L0,10 L5,5 L0,0 Z M0,10 L5,15 L10,10 L5,5 Z" fill="#0d0d0d"/>
    </pattern>
    <filter id="textGlow">
      <feGaussianBlur stdDeviation="2" result="blur" />
      <feMerge>
        <feMergeNode in="blur"/>
        <feMergeNode in="SourceGraphic"/>
      </feMerge>
    </filter>
    <linearGradient id="neonBar" x1="0%" y1="0%" x2="100%" y2="0%">
        <stop offset="0%" stop-color="#111111"/>
        <stop offset="100%" stop-color="#39FF14"/>
    </linearGradient>
    <linearGradient id="scanlineGrad" x1="0%" y1="0%" x2="100%" y2="0%">
        <stop offset="0%" stop-color="#39FF14" stop-opacity="0"/>
        <stop offset="50%" stop-color="#39FF14" stop-opacity="0.18"/>
        <stop offset="100%" stop-color="#39FF14" stop-opacity="0"/>
    </linearGradient>
    <clipPath id="dashClip">
        <rect x="0" y="0" width="850" height="200" rx="12"/>
    </clipPath>
  </defs>

  <rect width="100%" height="100%" fill="url(#carbonFiber)" rx="12" stroke="#39FF14" stroke-width="1" stroke-opacity="0.3"/>
  <rect width="100%" height="100%" fill="#000000" opacity="0.6" rx="12" />
  <g><polygon points="344,171 352.6,176 352.6,186 344,191 335.4,186 335.4,176" fill="none" stroke="#39FF14" stroke-width="1" opacity="0.0411690004271056"/>
<polygon points="783,163 791.6,168 791.6,178 783,183 774.4,178 774.4,168" fill="none" stroke="#39FF14" stroke-width="1" opacity="0.07662620328762458"/>
<polygon points="764,176 772.6,181 772.6,191 764,196 755.4,191 755.4,181" fill="none" stroke="#39FF14" stroke-width="1" opacity="0.06215204185801765"/>
<polygon points="166,175 174.6,180 174.6,190 166,195 157.4,190 157.4,180" fill="none" stroke="#39FF14" stroke-width="1" opacity="0.03134992091744549"/>
<polygon points="632,-6 640.6,-1 640.6,9 632,14 623.4,9 623.4,-1" fill="none" stroke="#39FF14" stroke-width="1" opacity="0.0488169088480126"/>
<polygon points="126,111 134.6,116 134.6,126 126,131 117.4,126 117.4,116" fill="none" stroke="#39FF14" stroke-width="1" opacity="0.06218169120242073"/>
<polygon points="243,18 251.6,23 251.6,33 243,38 234.4,33 234.4,23" fill="none" stroke="#39FF14" stroke-width="1" opacity="0.04590019896959727"/>
<polygon points="425,31 433.6,36 433.6,46 425,51 416.4,46 416.4,36" fill="none" stroke="#39FF14" stroke-width="1" opacity="0.05425777979875371"/>
<polygon points="389,44 397.6,49 397.6,59 389,64 380.4,59 380.4,49" fill="none" stroke="#39FF14" stroke-width="1" opacity="0.07299887334362186"/>
<polygon points="133,39 141.6,44 141.6,54 133,59 124.4,54 124.4,44" fill="none" stroke="#39FF14" stroke-width="1" opacity="0.05063193320522369"/>
<polygon points="430,46 438.6,51 438.6,61 430,66 421.4,61 421.4,51" fill="none" stroke="#39FF14" stroke-width="1" opacity="0.02663743728883753"/>
<polygon points="472,150 480.6,155 480.6,165 472,170 463.4,165 463.4,155" fill="none" stroke="#39FF14" stroke-width="1" opacity="0.07260420805933555"/>
<polygon points="693,121 701.6,126 701.6,136 693,141 684.4,136 684.4,126" fill="none" stroke="#39FF14" stroke-width="1" opacity="0.06625770427839543"/>
<polygon points="324,106 332.6,111 332.6,121 324,126 315.4,121 315.4,111" fill="none" stroke="#39FF14" stroke-width="1" opacity="0.0706622345045519"/>
<polygon points="505,165 513.6,170 513.6,180 505,185 496.4,180 496.4,170" fill="none" stroke="#39FF14" stroke-width="1" opacity="0.02042203569656649"/>
<polygon points="256,10 264.6,15 264.6,25 256,30 247.4,25 247.4,15" fill="none" stroke="#39FF14" stroke-width="1" opacity="0.022430235809628697"/>
<polygon points="808,153 816.6,158 816.6,168 808,173 799.4,168 799.4,158" fill="none" stroke="#39FF14" stroke-width="1" opacity="0.02900210245252103"/>
<polygon points="813,151 821.6,156 821.6,166 813,171 804.4,166 804.4,156" fill="none" stroke="#39FF14" stroke-width="1" opacity="0.0740398090481101"/>
<polygon points="231,-8 239.6,-3 239.6,7 231,12 222.4,7 222.4,-3" fill="none" stroke="#39FF14" stroke-width="1" opacity="0.06409908934519096"/>
<polygon points="365,2 373.6,7 373.6,17 365,22 356.4,17 356.4,7" fill="none" stroke="#39FF14" stroke-width="1" opacity="0.03698336784874714"/>
<polygon points="797,170 805.6,175 805.6,185 797,190 788.4,185 788.4,175" fill="none" stroke="#39FF14" stroke-width="1" opacity="0.06350684545514362"/>
<polygon points="597,12 605.6,17 605.6,27 597,32 588.4,27 588.4,17" fill="none" stroke="#39FF14" stroke-width="1" opacity="0.02305777787275588"/>
<polygon points="589,131 597.6,136 597.6,146 589,151 580.4,146 580.4,136" fill="none" stroke="#39FF14" stroke-width="1" opacity="0.04049436343693083"/>
<polygon points="550,122 558.6,127 558.6,137 550,142 541.4,137 541.4,127" fill="none" stroke="#39FF14" stroke-width="1" opacity="0.024782456616342957"/>
<polygon points="734,17 742.6,22 742.6,32 734,37 725.4,32 725.4,22" fill="none" stroke="#39FF14" stroke-width="1" opacity="0.04975102925071172"/>
<polygon points="331,109 339.6,114 339.6,124 331,129 322.4,124 322.4,114" fill="none" stroke="#39FF14" stroke-width="1" opacity="0.064441526842313"/>
<polygon points="106,180 114.6,185 114.6,195 106,200 97.4,195 97.4,185" fill="none" stroke="#39FF14" stroke-width="1" opacity="0.029899260049663732"/>
<polygon points="31,-7 39.6,-2 39.6,8 31,13 22.4,8 22.4,-2" fill="none" stroke="#39FF14" stroke-width="1" opacity="0.07479240009851604"/>
<polygon points="91,182 99.6,187 99.6,197 91,202 82.4,197 82.4,187" fill="none" stroke="#39FF14" stroke-width="1" opacity="0.07686560886562158"/>
<polygon points="611,58 619.6,63 619.6,73 611,78 602.4,73 602.4,63" fill="none" stroke="#39FF14" stroke-width="1" opacity="0.07972618736777967"/>
</g>

  <!-- HUD Decorative elements -->
  <path d="M 20 20 L 40 20 L 50 30" fill="none" stroke="#39FF14" stroke-width="2" opacity="0.5"/>
  <path d="M 830 180 L 810 180 L 800 170" fill="none" stroke="#39FF14" stroke-width="2" opacity="0.5"/>

  <g clip-path="url(#dashClip)">
    <rect x="-160" y="0" width="160" height="200" fill="url(#scanlineGrad)">
      <animateTransform attributeName="transform" type="translate"
                        from="0 0" to="1010 0" dur="6s" repeatCount="indefinite"/>
    </rect>
  </g>

  <g font-family="'Consolas', 'Fira Code', monospace" text-anchor="middle">

    <!-- NETWORK STATUS -->
    <g transform="translate(130, 100)">
        <circle cx="0" cy="0" r="45" fill="none" stroke="#39FF14" stroke-width="2" stroke-dasharray="10 5">
            <animateTransform attributeName="transform" type="rotate" from="0" to="360" dur="10s" repeatCount="indefinite"/>
        </circle>
        <circle cx="0" cy="0" r="35" fill="#0d0d0d" />
        <text x="0" y="-60" font-size="12" fill="#aaaaaa" letter-spacing="2">ROOT.AUTH</text>
        <text x="0" y="70" font-size="14" fill="#ffffff" font-weight="bold">OPERATIONAL</text>
    </g>

    <!-- ACTIVE USERS -->
    <g transform="translate(330, 100)">
        <text x="0" y="-20" font-size="12" fill="#aaaaaa">CITIZENS</text>
        <text x="0" y="15" font-size="28" fill="#ffffff" font-weight="bold" filter="url(#textGlow)">15,437</text>
        <text x="0" y="35" font-size="10" fill="#777777">VERIFIED HUMANS</text>
    </g>

    <!-- REGISTERED AGENTS -->
    <g transform="translate(530, 100)">
        <text x="0" y="-20" font-size="12" fill="#aaaaaa">AGENTS</text>
        <text x="0" y="15" font-size="28" fill="#00d4ff" font-weight="bold" filter="url(#textGlow)">3,878</text>
        <text x="0" y="35" font-size="10" fill="#777777">REGISTERED DIDs</text>
    </g>

    <!-- TRANSACTIONS -->
    <g transform="translate(730, 100)">
        <text x="0" y="-20" font-size="12" fill="#aaaaaa">TRANSFERS</text>
        <text x="0" y="15" font-size="28" fill="#ffffff" font-weight="bold">33,323</text>
        <text x="0" y="35" font-size="10" fill="#777777">M2M SETTLEMENTS</text>
    </g>
  </g>

  <text x="425" y="185" font-family="'Consolas', 'Fira Code', monospace" font-size="10" fill="#aaaaaa" opacity="0.6" text-anchor="middle">AXIOMID PROJECTED TARGETS (ILLUSTRATIVE): 2026-06-21 15:33:04 UTC // SECURE_HANDSHAKE</text>
</svg>