<svg width="850" height="200" viewBox="0 0 850 200" xmlns="http://www.w3.org/2000/svg">
  <defs>
    <pattern id="carbonFiber" width="10" height="10" patternUnits="userSpaceOnUse">
        <rect width="10" height="10" fill="#050505"/>
        <path d="M0,0 L5,5 L10,0 L5,-5 Z M5,5 L10,10 L15,5 L10,0 Z M-5,5 L0,10 L5,5 L0,0 Z M0,10 L5,15 L10,10 L5,5 Z" fill="#0d0d0d"/>
    </pattern>
    <filter id="textGlow">
      <feGaussianBlur stdDeviation="2" result="blur" />
      <feMerge>
        <feMergeNode in="blur"/>
        <feMergeNode in="SourceGraphic"/>
      </feMerge>
    </filter>
    <linearGradient id="neonBar" x1="0%" y1="0%" x2="100%" y2="0%">
        <stop offset="0%" stop-color="#111111"/>
        <stop offset="100%" stop-color="#39FF14"/>
    </linearGradient>
    <linearGradient id="scanlineGrad" x1="0%" y1="0%" x2="100%" y2="0%">
        <stop offset="0%" stop-color="#39FF14" stop-opacity="0"/>
        <stop offset="50%" stop-color="#39FF14" stop-opacity="0.18"/>
        <stop offset="100%" stop-color="#39FF14" stop-opacity="0"/>
    </linearGradient>
    <clipPath id="dashClip">
        <rect x="0" y="0" width="850" height="200" rx="12"/>
    </clipPath>
  </defs>

  <rect width="100%" height="100%" fill="url(#carbonFiber)" rx="12" stroke="#39FF14" stroke-width="1" stroke-opacity="0.3"/>
  <rect width="100%" height="100%" fill="#000000" opacity="0.6" rx="12" />
  <g><polygon points="506,28 514.6,33 514.6,43 506,48 497.4,43 497.4,33" fill="none" stroke="#39FF14" stroke-width="1" opacity="0.056687479181182"/>
<polygon points="38,32 46.6,37 46.6,47 38,52 29.4,47 29.4,37" fill="none" stroke="#39FF14" stroke-width="1" opacity="0.030054295628807126"/>
<polygon points="59,74 67.6,79 67.6,89 59,94 50.4,89 50.4,79" fill="none" stroke="#39FF14" stroke-width="1" opacity="0.030890122841363513"/>
<polygon points="177,113 185.6,118 185.6,128 177,133 168.4,128 168.4,118" fill="none" stroke="#39FF14" stroke-width="1" opacity="0.03838827623579821"/>
<polygon points="398,65 406.6,70 406.6,80 398,85 389.4,80 389.4,70" fill="none" stroke="#39FF14" stroke-width="1" opacity="0.05252598557270925"/>
<polygon points="803,45 811.6,50 811.6,60 803,65 794.4,60 794.4,50" fill="none" stroke="#39FF14" stroke-width="1" opacity="0.031082295706180374"/>
<polygon points="117,123 125.6,128 125.6,138 117,143 108.4,138 108.4,128" fill="none" stroke="#39FF14" stroke-width="1" opacity="0.041215789331672976"/>
<polygon points="278,176 286.6,181 286.6,191 278,196 269.4,191 269.4,181" fill="none" stroke="#39FF14" stroke-width="1" opacity="0.03946815334026396"/>
<polygon points="666,80 674.6,85 674.6,95 666,100 657.4,95 657.4,85" fill="none" stroke="#39FF14" stroke-width="1" opacity="0.0472930590308788"/>
<polygon points="176,1 184.6,6 184.6,16 176,21 167.4,16 167.4,6" fill="none" stroke="#39FF14" stroke-width="1" opacity="0.05754550567006492"/>
<polygon points="63,16 71.6,21 71.6,31 63,36 54.4,31 54.4,21" fill="none" stroke="#39FF14" stroke-width="1" opacity="0.034536720704631874"/>
<polygon points="604,61 612.6,66 612.6,76 604,81 595.4,76 595.4,66" fill="none" stroke="#39FF14" stroke-width="1" opacity="0.04504621682822209"/>
<polygon points="514,63 522.6,68 522.6,78 514,83 505.4,78 505.4,68" fill="none" stroke="#39FF14" stroke-width="1" opacity="0.03395072669811385"/>
<polygon points="564,176 572.6,181 572.6,191 564,196 555.4,191 555.4,181" fill="none" stroke="#39FF14" stroke-width="1" opacity="0.05175450483074778"/>
<polygon points="475,33 483.6,38 483.6,48 475,53 466.4,48 466.4,38" fill="none" stroke="#39FF14" stroke-width="1" opacity="0.05748208109128884"/>
<polygon points="189,1 197.6,6 197.6,16 189,21 180.4,16 180.4,6" fill="none" stroke="#39FF14" stroke-width="1" opacity="0.03447953884752667"/>
<polygon points="185,-9 193.6,-4 193.6,6 185,11 176.4,6 176.4,-4" fill="none" stroke="#39FF14" stroke-width="1" opacity="0.05453540968522991"/>
<polygon points="363,91 371.6,96 371.6,106 363,111 354.4,106 354.4,96" fill="none" stroke="#39FF14" stroke-width="1" opacity="0.05674701737329188"/>
<polygon points="633,180 641.6,185 641.6,195 633,200 624.4,195 624.4,185" fill="none" stroke="#39FF14" stroke-width="1" opacity="0.036208639362551455"/>
<polygon points="363,25 371.6,30 371.6,40 363,45 354.4,40 354.4,30" fill="none" stroke="#39FF14" stroke-width="1" opacity="0.02093342551823413"/>
<polygon points="753,109 761.6,114 761.6,124 753,129 744.4,124 744.4,114" fill="none" stroke="#39FF14" stroke-width="1" opacity="0.07189781935623113"/>
<polygon points="408,7 416.6,12 416.6,22 408,27 399.4,22 399.4,12" fill="none" stroke="#39FF14" stroke-width="1" opacity="0.07449122688689261"/>
<polygon points="835,113 843.6,118 843.6,128 835,133 826.4,128 826.4,118" fill="none" stroke="#39FF14" stroke-width="1" opacity="0.027630816140063578"/>
<polygon points="591,46 599.6,51 599.6,61 591,66 582.4,61 582.4,51" fill="none" stroke="#39FF14" stroke-width="1" opacity="0.040226015895105965"/>
<polygon points="645,161 653.6,166 653.6,176 645,181 636.4,176 636.4,166" fill="none" stroke="#39FF14" stroke-width="1" opacity="0.020399789918656756"/>
<polygon points="526,51 534.6,56 534.6,66 526,71 517.4,66 517.4,56" fill="none" stroke="#39FF14" stroke-width="1" opacity="0.04560773071174168"/>
<polygon points="588,56 596.6,61 596.6,71 588,76 579.4,71 579.4,61" fill="none" stroke="#39FF14" stroke-width="1" opacity="0.026252506583040014"/>
<polygon points="381,186 389.6,191 389.6,201 381,206 372.4,201 372.4,191" fill="none" stroke="#39FF14" stroke-width="1" opacity="0.049825443282019065"/>
<polygon points="450,15 458.6,20 458.6,30 450,35 441.4,30 441.4,20" fill="none" stroke="#39FF14" stroke-width="1" opacity="0.03404887221534328"/>
<polygon points="809,66 817.6,71 817.6,81 809,86 800.4,81 800.4,71" fill="none" stroke="#39FF14" stroke-width="1" opacity="0.02306535439673415"/>
</g>

  <!-- HUD Decorative elements -->
  <path d="M 20 20 L 40 20 L 50 30" fill="none" stroke="#39FF14" stroke-width="2" opacity="0.5"/>
  <path d="M 830 180 L 810 180 L 800 170" fill="none" stroke="#39FF14" stroke-width="2" opacity="0.5"/>

  <g clip-path="url(#dashClip)">
    <rect x="-160" y="0" width="160" height="200" fill="url(#scanlineGrad)">
      <animateTransform attributeName="transform" type="translate"
                        from="0 0" to="1010 0" dur="6s" repeatCount="indefinite"/>
    </rect>
  </g>

  <g font-family="'Consolas', 'Fira Code', monospace" text-anchor="middle">

    <!-- NETWORK STATUS -->
    <g transform="translate(130, 100)">
        <circle cx="0" cy="0" r="45" fill="none" stroke="#39FF14" stroke-width="2" stroke-dasharray="10 5">
            <animateTransform attributeName="transform" type="rotate" from="0" to="360" dur="10s" repeatCount="indefinite"/>
        </circle>
        <circle cx="0" cy="0" r="35" fill="#0d0d0d" />
        <text x="0" y="-60" font-size="12" fill="#aaaaaa" letter-spacing="2">ROOT.AUTH</text>
        <text x="0" y="70" font-size="14" fill="#ffffff" font-weight="bold">OPERATIONAL</text>
    </g>

    <!-- ACTIVE USERS -->
    <g transform="translate(330, 100)">
        <text x="0" y="-20" font-size="12" fill="#aaaaaa">CITIZENS</text>
        <text x="0" y="15" font-size="28" fill="#ffffff" font-weight="bold" filter="url(#textGlow)">13,430</text>
        <text x="0" y="35" font-size="10" fill="#777777">VERIFIED HUMANS</text>
    </g>

    <!-- REGISTERED AGENTS -->
    <g transform="translate(530, 100)">
        <text x="0" y="-20" font-size="12" fill="#aaaaaa">AGENTS</text>
        <text x="0" y="15" font-size="28" fill="#00d4ff" font-weight="bold" filter="url(#textGlow)">3,777</text>
        <text x="0" y="35" font-size="10" fill="#777777">REGISTERED DIDs</text>
    </g>

    <!-- TRANSACTIONS -->
    <g transform="translate(730, 100)">
        <text x="0" y="-20" font-size="12" fill="#aaaaaa">TRANSFERS</text>
        <text x="0" y="15" font-size="28" fill="#ffffff" font-weight="bold">29,184</text>
        <text x="0" y="35" font-size="10" fill="#777777">M2M SETTLEMENTS</text>
    </g>
  </g>

  <text x="425" y="185" font-family="'Consolas', 'Fira Code', monospace" font-size="10" fill="#aaaaaa" opacity="0.6" text-anchor="middle">AXIOMID PROJECTED TARGETS (ILLUSTRATIVE): 2026-07-12 10:17:42 UTC // SECURE_HANDSHAKE</text>
</svg>