<svg width="850" height="200" viewBox="0 0 850 200" xmlns="http://www.w3.org/2000/svg">
  <defs>
    <pattern id="carbonFiber" width="10" height="10" patternUnits="userSpaceOnUse">
        <rect width="10" height="10" fill="#050505"/>
        <path d="M0,0 L5,5 L10,0 L5,-5 Z M5,5 L10,10 L15,5 L10,0 Z M-5,5 L0,10 L5,5 L0,0 Z M0,10 L5,15 L10,10 L5,5 Z" fill="#0d0d0d"/>
    </pattern>
    <filter id="textGlow">
      <feGaussianBlur stdDeviation="2" result="blur" />
      <feMerge>
        <feMergeNode in="blur"/>
        <feMergeNode in="SourceGraphic"/>
      </feMerge>
    </filter>
    <linearGradient id="neonBar" x1="0%" y1="0%" x2="100%" y2="0%">
        <stop offset="0%" stop-color="#111111"/>
        <stop offset="100%" stop-color="#39FF14"/>
    </linearGradient>
    <linearGradient id="scanlineGrad" x1="0%" y1="0%" x2="100%" y2="0%">
        <stop offset="0%" stop-color="#39FF14" stop-opacity="0"/>
        <stop offset="50%" stop-color="#39FF14" stop-opacity="0.18"/>
        <stop offset="100%" stop-color="#39FF14" stop-opacity="0"/>
    </linearGradient>
    <clipPath id="dashClip">
        <rect x="0" y="0" width="850" height="200" rx="12"/>
    </clipPath>
  </defs>

  <rect width="100%" height="100%" fill="url(#carbonFiber)" rx="12" stroke="#39FF14" stroke-width="1" stroke-opacity="0.3"/>
  <rect width="100%" height="100%" fill="#000000" opacity="0.6" rx="12" />
  <g><polygon points="78,12 86.6,17 86.6,27 78,32 69.4,27 69.4,17" fill="none" stroke="#39FF14" stroke-width="1" opacity="0.05604286814812129"/>
<polygon points="152,108 160.6,113 160.6,123 152,128 143.4,123 143.4,113" fill="none" stroke="#39FF14" stroke-width="1" opacity="0.03914686207141713"/>
<polygon points="750,141 758.6,146 758.6,156 750,161 741.4,156 741.4,146" fill="none" stroke="#39FF14" stroke-width="1" opacity="0.02902652149789712"/>
<polygon points="193,174 201.6,179 201.6,189 193,194 184.4,189 184.4,179" fill="none" stroke="#39FF14" stroke-width="1" opacity="0.038093991852134856"/>
<polygon points="25,143 33.6,148 33.6,158 25,163 16.4,158 16.4,148" fill="none" stroke="#39FF14" stroke-width="1" opacity="0.05005119823974609"/>
<polygon points="106,93 114.6,98 114.6,108 106,113 97.4,108 97.4,98" fill="none" stroke="#39FF14" stroke-width="1" opacity="0.06029520166878759"/>
<polygon points="545,69 553.6,74 553.6,84 545,89 536.4,84 536.4,74" fill="none" stroke="#39FF14" stroke-width="1" opacity="0.0695428604145956"/>
<polygon points="82,130 90.6,135 90.6,145 82,150 73.4,145 73.4,135" fill="none" stroke="#39FF14" stroke-width="1" opacity="0.07719467178866378"/>
<polygon points="92,98 100.6,103 100.6,113 92,118 83.4,113 83.4,103" fill="none" stroke="#39FF14" stroke-width="1" opacity="0.037111847306667625"/>
<polygon points="639,90 647.6,95 647.6,105 639,110 630.4,105 630.4,95" fill="none" stroke="#39FF14" stroke-width="1" opacity="0.07919300292478434"/>
<polygon points="357,-2 365.6,3 365.6,13 357,18 348.4,13 348.4,3" fill="none" stroke="#39FF14" stroke-width="1" opacity="0.050901410365515126"/>
<polygon points="36,139 44.6,144 44.6,154 36,159 27.4,154 27.4,144" fill="none" stroke="#39FF14" stroke-width="1" opacity="0.06726269199307784"/>
<polygon points="428,5 436.6,10 436.6,20 428,25 419.4,20 419.4,10" fill="none" stroke="#39FF14" stroke-width="1" opacity="0.039444512317826"/>
<polygon points="102,36 110.6,41 110.6,51 102,56 93.4,51 93.4,41" fill="none" stroke="#39FF14" stroke-width="1" opacity="0.06808179201550785"/>
<polygon points="824,52 832.6,57 832.6,67 824,72 815.4,67 815.4,57" fill="none" stroke="#39FF14" stroke-width="1" opacity="0.07200233290988962"/>
<polygon points="263,-9 271.6,-4 271.6,6 263,11 254.4,6 254.4,-4" fill="none" stroke="#39FF14" stroke-width="1" opacity="0.022175264692170356"/>
<polygon points="384,170 392.6,175 392.6,185 384,190 375.4,185 375.4,175" fill="none" stroke="#39FF14" stroke-width="1" opacity="0.055783410276208686"/>
<polygon points="51,1 59.6,6 59.6,16 51,21 42.4,16 42.4,6" fill="none" stroke="#39FF14" stroke-width="1" opacity="0.059022863523563035"/>
<polygon points="386,74 394.6,79 394.6,89 386,94 377.4,89 377.4,79" fill="none" stroke="#39FF14" stroke-width="1" opacity="0.03607947293714925"/>
<polygon points="588,133 596.6,138 596.6,148 588,153 579.4,148 579.4,138" fill="none" stroke="#39FF14" stroke-width="1" opacity="0.07810175848849912"/>
<polygon points="203,101 211.6,106 211.6,116 203,121 194.4,116 194.4,106" fill="none" stroke="#39FF14" stroke-width="1" opacity="0.022881266932709345"/>
<polygon points="674,106 682.6,111 682.6,121 674,126 665.4,121 665.4,111" fill="none" stroke="#39FF14" stroke-width="1" opacity="0.05782367848125386"/>
<polygon points="371,181 379.6,186 379.6,196 371,201 362.4,196 362.4,186" fill="none" stroke="#39FF14" stroke-width="1" opacity="0.06532144248003753"/>
<polygon points="400,184 408.6,189 408.6,199 400,204 391.4,199 391.4,189" fill="none" stroke="#39FF14" stroke-width="1" opacity="0.04887880183790189"/>
<polygon points="127,63 135.6,68 135.6,78 127,83 118.4,78 118.4,68" fill="none" stroke="#39FF14" stroke-width="1" opacity="0.07110506441813007"/>
<polygon points="408,142 416.6,147 416.6,157 408,162 399.4,157 399.4,147" fill="none" stroke="#39FF14" stroke-width="1" opacity="0.07469472234462028"/>
<polygon points="190,50 198.6,55 198.6,65 190,70 181.4,65 181.4,55" fill="none" stroke="#39FF14" stroke-width="1" opacity="0.03527113338074503"/>
<polygon points="382,116 390.6,121 390.6,131 382,136 373.4,131 373.4,121" fill="none" stroke="#39FF14" stroke-width="1" opacity="0.06187148365938279"/>
<polygon points="28,152 36.6,157 36.6,167 28,172 19.4,167 19.4,157" fill="none" stroke="#39FF14" stroke-width="1" opacity="0.02937920647376073"/>
<polygon points="226,119 234.6,124 234.6,134 226,139 217.4,134 217.4,124" fill="none" stroke="#39FF14" stroke-width="1" opacity="0.0732840793360365"/>
</g>

  <!-- HUD Decorative elements -->
  <path d="M 20 20 L 40 20 L 50 30" fill="none" stroke="#39FF14" stroke-width="2" opacity="0.5"/>
  <path d="M 830 180 L 810 180 L 800 170" fill="none" stroke="#39FF14" stroke-width="2" opacity="0.5"/>

  <g clip-path="url(#dashClip)">
    <rect x="-160" y="0" width="160" height="200" fill="url(#scanlineGrad)">
      <animateTransform attributeName="transform" type="translate"
                        from="0 0" to="1010 0" dur="6s" repeatCount="indefinite"/>
    </rect>
  </g>

  <g font-family="'Consolas', 'Fira Code', monospace" text-anchor="middle">

    <!-- NETWORK STATUS -->
    <g transform="translate(130, 100)">
        <circle cx="0" cy="0" r="45" fill="none" stroke="#39FF14" stroke-width="2" stroke-dasharray="10 5">
            <animateTransform attributeName="transform" type="rotate" from="0" to="360" dur="10s" repeatCount="indefinite"/>
        </circle>
        <circle cx="0" cy="0" r="35" fill="#0d0d0d" />
        <text x="0" y="-60" font-size="12" fill="#aaaaaa" letter-spacing="2">ROOT.AUTH</text>
        <text x="0" y="70" font-size="14" fill="#ffffff" font-weight="bold">OPERATIONAL</text>
    </g>

    <!-- ACTIVE USERS -->
    <g transform="translate(330, 100)">
        <text x="0" y="-20" font-size="12" fill="#aaaaaa">CITIZENS</text>
        <text x="0" y="15" font-size="28" fill="#ffffff" font-weight="bold" filter="url(#textGlow)">15,496</text>
        <text x="0" y="35" font-size="10" fill="#777777">VERIFIED HUMANS</text>
    </g>

    <!-- REGISTERED AGENTS -->
    <g transform="translate(530, 100)">
        <text x="0" y="-20" font-size="12" fill="#aaaaaa">AGENTS</text>
        <text x="0" y="15" font-size="28" fill="#00d4ff" font-weight="bold" filter="url(#textGlow)">3,638</text>
        <text x="0" y="35" font-size="10" fill="#777777">REGISTERED DIDs</text>
    </g>

    <!-- TRANSACTIONS -->
    <g transform="translate(730, 100)">
        <text x="0" y="-20" font-size="12" fill="#aaaaaa">TRANSFERS</text>
        <text x="0" y="15" font-size="28" fill="#ffffff" font-weight="bold">26,708</text>
        <text x="0" y="35" font-size="10" fill="#777777">M2M SETTLEMENTS</text>
    </g>
  </g>

  <text x="425" y="185" font-family="'Consolas', 'Fira Code', monospace" font-size="10" fill="#aaaaaa" opacity="0.6" text-anchor="middle">AXIOMID PROJECTED TARGETS (ILLUSTRATIVE): 2026-06-26 12:38:41 UTC // SECURE_HANDSHAKE</text>
</svg>