<svg width="850" height="200" viewBox="0 0 850 200" xmlns="http://www.w3.org/2000/svg">
  <defs>
    <pattern id="carbonFiber" width="10" height="10" patternUnits="userSpaceOnUse">
        <rect width="10" height="10" fill="#050505"/>
        <path d="M0,0 L5,5 L10,0 L5,-5 Z M5,5 L10,10 L15,5 L10,0 Z M-5,5 L0,10 L5,5 L0,0 Z M0,10 L5,15 L10,10 L5,5 Z" fill="#0d0d0d"/>
    </pattern>
    <filter id="textGlow">
      <feGaussianBlur stdDeviation="2" result="blur" />
      <feMerge>
        <feMergeNode in="blur"/>
        <feMergeNode in="SourceGraphic"/>
      </feMerge>
    </filter>
    <linearGradient id="neonBar" x1="0%" y1="0%" x2="100%" y2="0%">
        <stop offset="0%" stop-color="#111111"/>
        <stop offset="100%" stop-color="#39FF14"/>
    </linearGradient>
    <linearGradient id="scanlineGrad" x1="0%" y1="0%" x2="100%" y2="0%">
        <stop offset="0%" stop-color="#39FF14" stop-opacity="0"/>
        <stop offset="50%" stop-color="#39FF14" stop-opacity="0.18"/>
        <stop offset="100%" stop-color="#39FF14" stop-opacity="0"/>
    </linearGradient>
    <clipPath id="dashClip">
        <rect x="0" y="0" width="850" height="200" rx="12"/>
    </clipPath>
  </defs>

  <rect width="100%" height="100%" fill="url(#carbonFiber)" rx="12" stroke="#39FF14" stroke-width="1" stroke-opacity="0.3"/>
  <rect width="100%" height="100%" fill="#000000" opacity="0.6" rx="12" />
  <g><polygon points="585,107 593.6,112 593.6,122 585,127 576.4,122 576.4,112" fill="none" stroke="#39FF14" stroke-width="1" opacity="0.047941662078984815"/>
<polygon points="493,65 501.6,70 501.6,80 493,85 484.4,80 484.4,70" fill="none" stroke="#39FF14" stroke-width="1" opacity="0.05850243230780726"/>
<polygon points="471,12 479.6,17 479.6,27 471,32 462.4,27 462.4,17" fill="none" stroke="#39FF14" stroke-width="1" opacity="0.05889840175094073"/>
<polygon points="196,147 204.6,152 204.6,162 196,167 187.4,162 187.4,152" fill="none" stroke="#39FF14" stroke-width="1" opacity="0.03828721966243794"/>
<polygon points="117,58 125.6,63 125.6,73 117,78 108.4,73 108.4,63" fill="none" stroke="#39FF14" stroke-width="1" opacity="0.02320037414751944"/>
<polygon points="406,58 414.6,63 414.6,73 406,78 397.4,73 397.4,63" fill="none" stroke="#39FF14" stroke-width="1" opacity="0.026586180520106473"/>
<polygon points="496,133 504.6,138 504.6,148 496,153 487.4,148 487.4,138" fill="none" stroke="#39FF14" stroke-width="1" opacity="0.05032701886002902"/>
<polygon points="792,-6 800.6,-1 800.6,9 792,14 783.4,9 783.4,-1" fill="none" stroke="#39FF14" stroke-width="1" opacity="0.059764427693466224"/>
<polygon points="198,189 206.6,194 206.6,204 198,209 189.4,204 189.4,194" fill="none" stroke="#39FF14" stroke-width="1" opacity="0.025527614693203207"/>
<polygon points="842,187 850.6,192 850.6,202 842,207 833.4,202 833.4,192" fill="none" stroke="#39FF14" stroke-width="1" opacity="0.07902228362013915"/>
<polygon points="541,186 549.6,191 549.6,201 541,206 532.4,201 532.4,191" fill="none" stroke="#39FF14" stroke-width="1" opacity="0.04175434910579131"/>
<polygon points="347,130 355.6,135 355.6,145 347,150 338.4,145 338.4,135" fill="none" stroke="#39FF14" stroke-width="1" opacity="0.04757830943062785"/>
<polygon points="141,117 149.6,122 149.6,132 141,137 132.4,132 132.4,122" fill="none" stroke="#39FF14" stroke-width="1" opacity="0.062100520556491345"/>
<polygon points="17,131 25.6,136 25.6,146 17,151 8.4,146 8.4,136" fill="none" stroke="#39FF14" stroke-width="1" opacity="0.04571853094470206"/>
<polygon points="405,127 413.6,132 413.6,142 405,147 396.4,142 396.4,132" fill="none" stroke="#39FF14" stroke-width="1" opacity="0.027385025834768005"/>
<polygon points="798,98 806.6,103 806.6,113 798,118 789.4,113 789.4,103" fill="none" stroke="#39FF14" stroke-width="1" opacity="0.0644442145081396"/>
<polygon points="118,9 126.6,14 126.6,24 118,29 109.4,24 109.4,14" fill="none" stroke="#39FF14" stroke-width="1" opacity="0.066673941681371"/>
<polygon points="267,122 275.6,127 275.6,137 267,142 258.4,137 258.4,127" fill="none" stroke="#39FF14" stroke-width="1" opacity="0.06936143269508373"/>
<polygon points="792,29 800.6,34 800.6,44 792,49 783.4,44 783.4,34" fill="none" stroke="#39FF14" stroke-width="1" opacity="0.05466122327198222"/>
<polygon points="549,138 557.6,143 557.6,153 549,158 540.4,153 540.4,143" fill="none" stroke="#39FF14" stroke-width="1" opacity="0.021963426589145147"/>
<polygon points="535,29 543.6,34 543.6,44 535,49 526.4,44 526.4,34" fill="none" stroke="#39FF14" stroke-width="1" opacity="0.0716835237249829"/>
<polygon points="469,138 477.6,143 477.6,153 469,158 460.4,153 460.4,143" fill="none" stroke="#39FF14" stroke-width="1" opacity="0.03540494998451589"/>
<polygon points="263,127 271.6,132 271.6,142 263,147 254.4,142 254.4,132" fill="none" stroke="#39FF14" stroke-width="1" opacity="0.034662475814703234"/>
<polygon points="404,125 412.6,130 412.6,140 404,145 395.4,140 395.4,130" fill="none" stroke="#39FF14" stroke-width="1" opacity="0.03721918006562934"/>
<polygon points="558,93 566.6,98 566.6,108 558,113 549.4,108 549.4,98" fill="none" stroke="#39FF14" stroke-width="1" opacity="0.04554709919973547"/>
<polygon points="12,140 20.6,145 20.6,155 12,160 3.4000000000000004,155 3.4000000000000004,145" fill="none" stroke="#39FF14" stroke-width="1" opacity="0.048048766641266755"/>
<polygon points="464,-1 472.6,4 472.6,14 464,19 455.4,14 455.4,4" fill="none" stroke="#39FF14" stroke-width="1" opacity="0.06004744437554439"/>
<polygon points="636,124 644.6,129 644.6,139 636,144 627.4,139 627.4,129" fill="none" stroke="#39FF14" stroke-width="1" opacity="0.024507133836197972"/>
<polygon points="187,168 195.6,173 195.6,183 187,188 178.4,183 178.4,173" fill="none" stroke="#39FF14" stroke-width="1" opacity="0.020620003860436508"/>
<polygon points="613,19 621.6,24 621.6,34 613,39 604.4,34 604.4,24" fill="none" stroke="#39FF14" stroke-width="1" opacity="0.027738906656740087"/>
</g>

  <!-- HUD Decorative elements -->
  <path d="M 20 20 L 40 20 L 50 30" fill="none" stroke="#39FF14" stroke-width="2" opacity="0.5"/>
  <path d="M 830 180 L 810 180 L 800 170" fill="none" stroke="#39FF14" stroke-width="2" opacity="0.5"/>

  <g clip-path="url(#dashClip)">
    <rect x="-160" y="0" width="160" height="200" fill="url(#scanlineGrad)">
      <animateTransform attributeName="transform" type="translate"
                        from="0 0" to="1010 0" dur="6s" repeatCount="indefinite"/>
    </rect>
  </g>

  <g font-family="'Consolas', 'Fira Code', monospace" text-anchor="middle">

    <!-- NETWORK STATUS -->
    <g transform="translate(130, 100)">
        <circle cx="0" cy="0" r="45" fill="none" stroke="#39FF14" stroke-width="2" stroke-dasharray="10 5">
            <animateTransform attributeName="transform" type="rotate" from="0" to="360" dur="10s" repeatCount="indefinite"/>
        </circle>
        <circle cx="0" cy="0" r="35" fill="#0d0d0d" />
        <text x="0" y="-60" font-size="12" fill="#aaaaaa" letter-spacing="2">ROOT.AUTH</text>
        <text x="0" y="70" font-size="14" fill="#ffffff" font-weight="bold">OPERATIONAL</text>
    </g>

    <!-- ACTIVE USERS -->
    <g transform="translate(330, 100)">
        <text x="0" y="-20" font-size="12" fill="#aaaaaa">CITIZENS</text>
        <text x="0" y="15" font-size="28" fill="#ffffff" font-weight="bold" filter="url(#textGlow)">12,523</text>
        <text x="0" y="35" font-size="10" fill="#777777">VERIFIED HUMANS</text>
    </g>

    <!-- REGISTERED AGENTS -->
    <g transform="translate(530, 100)">
        <text x="0" y="-20" font-size="12" fill="#aaaaaa">AGENTS</text>
        <text x="0" y="15" font-size="28" fill="#00d4ff" font-weight="bold" filter="url(#textGlow)">3,148</text>
        <text x="0" y="35" font-size="10" fill="#777777">REGISTERED DIDs</text>
    </g>

    <!-- TRANSACTIONS -->
    <g transform="translate(730, 100)">
        <text x="0" y="-20" font-size="12" fill="#aaaaaa">TRANSFERS</text>
        <text x="0" y="15" font-size="28" fill="#ffffff" font-weight="bold">25,516</text>
        <text x="0" y="35" font-size="10" fill="#777777">M2M SETTLEMENTS</text>
    </g>
  </g>

  <text x="425" y="185" font-family="'Consolas', 'Fira Code', monospace" font-size="10" fill="#aaaaaa" opacity="0.6" text-anchor="middle">AXIOMID PROJECTED TARGETS (ILLUSTRATIVE): 2026-06-28 09:59:24 UTC // SECURE_HANDSHAKE</text>
</svg>