<svg width="850" height="200" viewBox="0 0 850 200" xmlns="http://www.w3.org/2000/svg">
  <defs>
    <pattern id="carbonFiber" width="10" height="10" patternUnits="userSpaceOnUse">
        <rect width="10" height="10" fill="#050505"/>
        <path d="M0,0 L5,5 L10,0 L5,-5 Z M5,5 L10,10 L15,5 L10,0 Z M-5,5 L0,10 L5,5 L0,0 Z M0,10 L5,15 L10,10 L5,5 Z" fill="#0d0d0d"/>
    </pattern>
    <filter id="textGlow">
      <feGaussianBlur stdDeviation="2" result="blur" />
      <feMerge>
        <feMergeNode in="blur"/>
        <feMergeNode in="SourceGraphic"/>
      </feMerge>
    </filter>
    <linearGradient id="neonBar" x1="0%" y1="0%" x2="100%" y2="0%">
        <stop offset="0%" stop-color="#111111"/>
        <stop offset="100%" stop-color="#39FF14"/>
    </linearGradient>
    <linearGradient id="scanlineGrad" x1="0%" y1="0%" x2="100%" y2="0%">
        <stop offset="0%" stop-color="#39FF14" stop-opacity="0"/>
        <stop offset="50%" stop-color="#39FF14" stop-opacity="0.18"/>
        <stop offset="100%" stop-color="#39FF14" stop-opacity="0"/>
    </linearGradient>
    <clipPath id="dashClip">
        <rect x="0" y="0" width="850" height="200" rx="12"/>
    </clipPath>
  </defs>

  <rect width="100%" height="100%" fill="url(#carbonFiber)" rx="12" stroke="#39FF14" stroke-width="1" stroke-opacity="0.3"/>
  <rect width="100%" height="100%" fill="#000000" opacity="0.6" rx="12" />
  <g><polygon points="507,189 515.6,194 515.6,204 507,209 498.4,204 498.4,194" fill="none" stroke="#39FF14" stroke-width="1" opacity="0.05342261770329186"/>
<polygon points="506,132 514.6,137 514.6,147 506,152 497.4,147 497.4,137" fill="none" stroke="#39FF14" stroke-width="1" opacity="0.03469729266485539"/>
<polygon points="228,153 236.6,158 236.6,168 228,173 219.4,168 219.4,158" fill="none" stroke="#39FF14" stroke-width="1" opacity="0.04293437354085152"/>
<polygon points="763,18 771.6,23 771.6,33 763,38 754.4,33 754.4,23" fill="none" stroke="#39FF14" stroke-width="1" opacity="0.03963799717912947"/>
<polygon points="177,157 185.6,162 185.6,172 177,177 168.4,172 168.4,162" fill="none" stroke="#39FF14" stroke-width="1" opacity="0.021429326800088914"/>
<polygon points="234,162 242.6,167 242.6,177 234,182 225.4,177 225.4,167" fill="none" stroke="#39FF14" stroke-width="1" opacity="0.03573238342614955"/>
<polygon points="726,89 734.6,94 734.6,104 726,109 717.4,104 717.4,94" fill="none" stroke="#39FF14" stroke-width="1" opacity="0.05510310886046281"/>
<polygon points="211,8 219.6,13 219.6,23 211,28 202.4,23 202.4,13" fill="none" stroke="#39FF14" stroke-width="1" opacity="0.020766785154172022"/>
<polygon points="835,140 843.6,145 843.6,155 835,160 826.4,155 826.4,145" fill="none" stroke="#39FF14" stroke-width="1" opacity="0.0409959344969693"/>
<polygon points="602,28 610.6,33 610.6,43 602,48 593.4,43 593.4,33" fill="none" stroke="#39FF14" stroke-width="1" opacity="0.03680938398523891"/>
<polygon points="222,147 230.6,152 230.6,162 222,167 213.4,162 213.4,152" fill="none" stroke="#39FF14" stroke-width="1" opacity="0.05344549024023609"/>
<polygon points="353,175 361.6,180 361.6,190 353,195 344.4,190 344.4,180" fill="none" stroke="#39FF14" stroke-width="1" opacity="0.06645707593040298"/>
<polygon points="393,31 401.6,36 401.6,46 393,51 384.4,46 384.4,36" fill="none" stroke="#39FF14" stroke-width="1" opacity="0.06091860016101369"/>
<polygon points="290,106 298.6,111 298.6,121 290,126 281.4,121 281.4,111" fill="none" stroke="#39FF14" stroke-width="1" opacity="0.06913266222939624"/>
<polygon points="441,134 449.6,139 449.6,149 441,154 432.4,149 432.4,139" fill="none" stroke="#39FF14" stroke-width="1" opacity="0.07604745700010704"/>
<polygon points="137,60 145.6,65 145.6,75 137,80 128.4,75 128.4,65" fill="none" stroke="#39FF14" stroke-width="1" opacity="0.07897278551541473"/>
<polygon points="547,4 555.6,9 555.6,19 547,24 538.4,19 538.4,9" fill="none" stroke="#39FF14" stroke-width="1" opacity="0.06760498695067432"/>
<polygon points="773,9 781.6,14 781.6,24 773,29 764.4,24 764.4,14" fill="none" stroke="#39FF14" stroke-width="1" opacity="0.04892710169663671"/>
<polygon points="351,-10 359.6,-5 359.6,5 351,10 342.4,5 342.4,-5" fill="none" stroke="#39FF14" stroke-width="1" opacity="0.06183340914904088"/>
<polygon points="232,23 240.6,28 240.6,38 232,43 223.4,38 223.4,28" fill="none" stroke="#39FF14" stroke-width="1" opacity="0.047143445264825626"/>
<polygon points="69,72 77.6,77 77.6,87 69,92 60.4,87 60.4,77" fill="none" stroke="#39FF14" stroke-width="1" opacity="0.07063268644325875"/>
<polygon points="736,22 744.6,27 744.6,37 736,42 727.4,37 727.4,27" fill="none" stroke="#39FF14" stroke-width="1" opacity="0.07196296063683198"/>
<polygon points="598,120 606.6,125 606.6,135 598,140 589.4,135 589.4,125" fill="none" stroke="#39FF14" stroke-width="1" opacity="0.07142173423973502"/>
<polygon points="723,160 731.6,165 731.6,175 723,180 714.4,175 714.4,165" fill="none" stroke="#39FF14" stroke-width="1" opacity="0.030875683355038055"/>
<polygon points="310,113 318.6,118 318.6,128 310,133 301.4,128 301.4,118" fill="none" stroke="#39FF14" stroke-width="1" opacity="0.02466255361262029"/>
<polygon points="96,189 104.6,194 104.6,204 96,209 87.4,204 87.4,194" fill="none" stroke="#39FF14" stroke-width="1" opacity="0.06876845039633561"/>
<polygon points="162,59 170.6,64 170.6,74 162,79 153.4,74 153.4,64" fill="none" stroke="#39FF14" stroke-width="1" opacity="0.057617145311339574"/>
<polygon points="295,64 303.6,69 303.6,79 295,84 286.4,79 286.4,69" fill="none" stroke="#39FF14" stroke-width="1" opacity="0.07512673124231141"/>
<polygon points="579,152 587.6,157 587.6,167 579,172 570.4,167 570.4,157" fill="none" stroke="#39FF14" stroke-width="1" opacity="0.027649401554767812"/>
<polygon points="443,153 451.6,158 451.6,168 443,173 434.4,168 434.4,158" fill="none" stroke="#39FF14" stroke-width="1" opacity="0.025044836734406547"/>
</g>

  <!-- HUD Decorative elements -->
  <path d="M 20 20 L 40 20 L 50 30" fill="none" stroke="#39FF14" stroke-width="2" opacity="0.5"/>
  <path d="M 830 180 L 810 180 L 800 170" fill="none" stroke="#39FF14" stroke-width="2" opacity="0.5"/>

  <g clip-path="url(#dashClip)">
    <rect x="-160" y="0" width="160" height="200" fill="url(#scanlineGrad)">
      <animateTransform attributeName="transform" type="translate"
                        from="0 0" to="1010 0" dur="6s" repeatCount="indefinite"/>
    </rect>
  </g>

  <g font-family="'Consolas', 'Fira Code', monospace" text-anchor="middle">

    <!-- NETWORK STATUS -->
    <g transform="translate(130, 100)">
        <circle cx="0" cy="0" r="45" fill="none" stroke="#39FF14" stroke-width="2" stroke-dasharray="10 5">
            <animateTransform attributeName="transform" type="rotate" from="0" to="360" dur="10s" repeatCount="indefinite"/>
        </circle>
        <circle cx="0" cy="0" r="35" fill="#0d0d0d" />
        <text x="0" y="-60" font-size="12" fill="#aaaaaa" letter-spacing="2">ROOT.AUTH</text>
        <text x="0" y="70" font-size="14" fill="#ffffff" font-weight="bold">OPERATIONAL</text>
    </g>

    <!-- ACTIVE USERS -->
    <g transform="translate(330, 100)">
        <text x="0" y="-20" font-size="12" fill="#aaaaaa">CITIZENS</text>
        <text x="0" y="15" font-size="28" fill="#ffffff" font-weight="bold" filter="url(#textGlow)">15,411</text>
        <text x="0" y="35" font-size="10" fill="#777777">VERIFIED HUMANS</text>
    </g>

    <!-- REGISTERED AGENTS -->
    <g transform="translate(530, 100)">
        <text x="0" y="-20" font-size="12" fill="#aaaaaa">AGENTS</text>
        <text x="0" y="15" font-size="28" fill="#00d4ff" font-weight="bold" filter="url(#textGlow)">4,720</text>
        <text x="0" y="35" font-size="10" fill="#777777">REGISTERED DIDs</text>
    </g>

    <!-- TRANSACTIONS -->
    <g transform="translate(730, 100)">
        <text x="0" y="-20" font-size="12" fill="#aaaaaa">TRANSFERS</text>
        <text x="0" y="15" font-size="28" fill="#ffffff" font-weight="bold">37,641</text>
        <text x="0" y="35" font-size="10" fill="#777777">M2M SETTLEMENTS</text>
    </g>
  </g>

  <text x="425" y="185" font-family="'Consolas', 'Fira Code', monospace" font-size="10" fill="#aaaaaa" opacity="0.6" text-anchor="middle">AXIOMID PROJECTED TARGETS (ILLUSTRATIVE): 2026-07-01 18:36:25 UTC // SECURE_HANDSHAKE</text>
</svg>