<svg width="850" height="200" viewBox="0 0 850 200" xmlns="http://www.w3.org/2000/svg">
  <defs>
    <pattern id="carbonFiber" width="10" height="10" patternUnits="userSpaceOnUse">
        <rect width="10" height="10" fill="#050505"/>
        <path d="M0,0 L5,5 L10,0 L5,-5 Z M5,5 L10,10 L15,5 L10,0 Z M-5,5 L0,10 L5,5 L0,0 Z M0,10 L5,15 L10,10 L5,5 Z" fill="#0d0d0d"/>
    </pattern>
    <filter id="textGlow">
      <feGaussianBlur stdDeviation="2" result="blur" />
      <feMerge>
        <feMergeNode in="blur"/>
        <feMergeNode in="SourceGraphic"/>
      </feMerge>
    </filter>
    <linearGradient id="neonBar" x1="0%" y1="0%" x2="100%" y2="0%">
        <stop offset="0%" stop-color="#111111"/>
        <stop offset="100%" stop-color="#39FF14"/>
    </linearGradient>
    <linearGradient id="scanlineGrad" x1="0%" y1="0%" x2="100%" y2="0%">
        <stop offset="0%" stop-color="#39FF14" stop-opacity="0"/>
        <stop offset="50%" stop-color="#39FF14" stop-opacity="0.18"/>
        <stop offset="100%" stop-color="#39FF14" stop-opacity="0"/>
    </linearGradient>
    <clipPath id="dashClip">
        <rect x="0" y="0" width="850" height="200" rx="12"/>
    </clipPath>
  </defs>

  <rect width="100%" height="100%" fill="url(#carbonFiber)" rx="12" stroke="#39FF14" stroke-width="1" stroke-opacity="0.3"/>
  <rect width="100%" height="100%" fill="#000000" opacity="0.6" rx="12" />
  <g><polygon points="385,111 393.6,116 393.6,126 385,131 376.4,126 376.4,116" fill="none" stroke="#39FF14" stroke-width="1" opacity="0.05799114230840101"/>
<polygon points="506,76 514.6,81 514.6,91 506,96 497.4,91 497.4,81" fill="none" stroke="#39FF14" stroke-width="1" opacity="0.026118660460123604"/>
<polygon points="14,35 22.6,40 22.6,50 14,55 5.4,50 5.4,40" fill="none" stroke="#39FF14" stroke-width="1" opacity="0.0502165061663537"/>
<polygon points="229,119 237.6,124 237.6,134 229,139 220.4,134 220.4,124" fill="none" stroke="#39FF14" stroke-width="1" opacity="0.04896793437450655"/>
<polygon points="646,34 654.6,39 654.6,49 646,54 637.4,49 637.4,39" fill="none" stroke="#39FF14" stroke-width="1" opacity="0.05305068049744811"/>
<polygon points="255,120 263.6,125 263.6,135 255,140 246.4,135 246.4,125" fill="none" stroke="#39FF14" stroke-width="1" opacity="0.05952229407873415"/>
<polygon points="744,175 752.6,180 752.6,190 744,195 735.4,190 735.4,180" fill="none" stroke="#39FF14" stroke-width="1" opacity="0.06773282386744463"/>
<polygon points="395,110 403.6,115 403.6,125 395,130 386.4,125 386.4,115" fill="none" stroke="#39FF14" stroke-width="1" opacity="0.07551503709891806"/>
<polygon points="28,8 36.6,13 36.6,23 28,28 19.4,23 19.4,13" fill="none" stroke="#39FF14" stroke-width="1" opacity="0.06256634603173025"/>
<polygon points="31,108 39.6,113 39.6,123 31,128 22.4,123 22.4,113" fill="none" stroke="#39FF14" stroke-width="1" opacity="0.04546043890596849"/>
<polygon points="335,129 343.6,134 343.6,144 335,149 326.4,144 326.4,134" fill="none" stroke="#39FF14" stroke-width="1" opacity="0.06799732274217911"/>
<polygon points="154,186 162.6,191 162.6,201 154,206 145.4,201 145.4,191" fill="none" stroke="#39FF14" stroke-width="1" opacity="0.06026732640473291"/>
<polygon points="334,153 342.6,158 342.6,168 334,173 325.4,168 325.4,158" fill="none" stroke="#39FF14" stroke-width="1" opacity="0.03214230453305435"/>
<polygon points="225,180 233.6,185 233.6,195 225,200 216.4,195 216.4,185" fill="none" stroke="#39FF14" stroke-width="1" opacity="0.021485470438899826"/>
<polygon points="528,28 536.6,33 536.6,43 528,48 519.4,43 519.4,33" fill="none" stroke="#39FF14" stroke-width="1" opacity="0.07363576695579499"/>
<polygon points="519,119 527.6,124 527.6,134 519,139 510.4,134 510.4,124" fill="none" stroke="#39FF14" stroke-width="1" opacity="0.06803700474609736"/>
<polygon points="514,11 522.6,16 522.6,26 514,31 505.4,26 505.4,16" fill="none" stroke="#39FF14" stroke-width="1" opacity="0.05238012850346373"/>
<polygon points="802,97 810.6,102 810.6,112 802,117 793.4,112 793.4,102" fill="none" stroke="#39FF14" stroke-width="1" opacity="0.049967180673618834"/>
<polygon points="463,118 471.6,123 471.6,133 463,138 454.4,133 454.4,123" fill="none" stroke="#39FF14" stroke-width="1" opacity="0.05430670216414027"/>
<polygon points="813,106 821.6,111 821.6,121 813,126 804.4,121 804.4,111" fill="none" stroke="#39FF14" stroke-width="1" opacity="0.07804107064784561"/>
<polygon points="793,156 801.6,161 801.6,171 793,176 784.4,171 784.4,161" fill="none" stroke="#39FF14" stroke-width="1" opacity="0.05317197536476806"/>
<polygon points="88,185 96.6,190 96.6,200 88,205 79.4,200 79.4,190" fill="none" stroke="#39FF14" stroke-width="1" opacity="0.07546825580445722"/>
<polygon points="578,81 586.6,86 586.6,96 578,101 569.4,96 569.4,86" fill="none" stroke="#39FF14" stroke-width="1" opacity="0.02695827932353924"/>
<polygon points="568,155 576.6,160 576.6,170 568,175 559.4,170 559.4,160" fill="none" stroke="#39FF14" stroke-width="1" opacity="0.07299652848601677"/>
<polygon points="695,20 703.6,25 703.6,35 695,40 686.4,35 686.4,25" fill="none" stroke="#39FF14" stroke-width="1" opacity="0.046871717806977964"/>
<polygon points="338,37 346.6,42 346.6,52 338,57 329.4,52 329.4,42" fill="none" stroke="#39FF14" stroke-width="1" opacity="0.043857016324021704"/>
<polygon points="548,84 556.6,89 556.6,99 548,104 539.4,99 539.4,89" fill="none" stroke="#39FF14" stroke-width="1" opacity="0.06363485744138994"/>
<polygon points="415,100 423.6,105 423.6,115 415,120 406.4,115 406.4,105" fill="none" stroke="#39FF14" stroke-width="1" opacity="0.04400213107786456"/>
<polygon points="590,16 598.6,21 598.6,31 590,36 581.4,31 581.4,21" fill="none" stroke="#39FF14" stroke-width="1" opacity="0.06155213305798446"/>
<polygon points="97,188 105.6,193 105.6,203 97,208 88.4,203 88.4,193" fill="none" stroke="#39FF14" stroke-width="1" opacity="0.023015890346000316"/>
</g>

  <!-- HUD Decorative elements -->
  <path d="M 20 20 L 40 20 L 50 30" fill="none" stroke="#39FF14" stroke-width="2" opacity="0.5"/>
  <path d="M 830 180 L 810 180 L 800 170" fill="none" stroke="#39FF14" stroke-width="2" opacity="0.5"/>

  <g clip-path="url(#dashClip)">
    <rect x="-160" y="0" width="160" height="200" fill="url(#scanlineGrad)">
      <animateTransform attributeName="transform" type="translate"
                        from="0 0" to="1010 0" dur="6s" repeatCount="indefinite"/>
    </rect>
  </g>

  <g font-family="'Consolas', 'Fira Code', monospace" text-anchor="middle">

    <!-- NETWORK STATUS -->
    <g transform="translate(130, 100)">
        <circle cx="0" cy="0" r="45" fill="none" stroke="#39FF14" stroke-width="2" stroke-dasharray="10 5">
            <animateTransform attributeName="transform" type="rotate" from="0" to="360" dur="10s" repeatCount="indefinite"/>
        </circle>
        <circle cx="0" cy="0" r="35" fill="#0d0d0d" />
        <text x="0" y="-60" font-size="12" fill="#aaaaaa" letter-spacing="2">ROOT.AUTH</text>
        <text x="0" y="70" font-size="14" fill="#ffffff" font-weight="bold">OPERATIONAL</text>
    </g>

    <!-- ACTIVE USERS -->
    <g transform="translate(330, 100)">
        <text x="0" y="-20" font-size="12" fill="#aaaaaa">CITIZENS</text>
        <text x="0" y="15" font-size="28" fill="#ffffff" font-weight="bold" filter="url(#textGlow)">12,631</text>
        <text x="0" y="35" font-size="10" fill="#777777">VERIFIED HUMANS</text>
    </g>

    <!-- REGISTERED AGENTS -->
    <g transform="translate(530, 100)">
        <text x="0" y="-20" font-size="12" fill="#aaaaaa">AGENTS</text>
        <text x="0" y="15" font-size="28" fill="#00d4ff" font-weight="bold" filter="url(#textGlow)">4,598</text>
        <text x="0" y="35" font-size="10" fill="#777777">REGISTERED DIDs</text>
    </g>

    <!-- TRANSACTIONS -->
    <g transform="translate(730, 100)">
        <text x="0" y="-20" font-size="12" fill="#aaaaaa">TRANSFERS</text>
        <text x="0" y="15" font-size="28" fill="#ffffff" font-weight="bold">31,586</text>
        <text x="0" y="35" font-size="10" fill="#777777">M2M SETTLEMENTS</text>
    </g>
  </g>

  <text x="425" y="185" font-family="'Consolas', 'Fira Code', monospace" font-size="10" fill="#aaaaaa" opacity="0.6" text-anchor="middle">AXIOMID PROJECTED TARGETS (ILLUSTRATIVE): 2026-06-19 04:30:15 UTC // SECURE_HANDSHAKE</text>
</svg>