<svg width="850" height="200" viewBox="0 0 850 200" xmlns="http://www.w3.org/2000/svg">
  <defs>
    <pattern id="carbonFiber" width="10" height="10" patternUnits="userSpaceOnUse">
        <rect width="10" height="10" fill="#050505"/>
        <path d="M0,0 L5,5 L10,0 L5,-5 Z M5,5 L10,10 L15,5 L10,0 Z M-5,5 L0,10 L5,5 L0,0 Z M0,10 L5,15 L10,10 L5,5 Z" fill="#0d0d0d"/>
    </pattern>
    <filter id="textGlow">
      <feGaussianBlur stdDeviation="2" result="blur" />
      <feMerge>
        <feMergeNode in="blur"/>
        <feMergeNode in="SourceGraphic"/>
      </feMerge>
    </filter>
    <linearGradient id="neonBar" x1="0%" y1="0%" x2="100%" y2="0%">
        <stop offset="0%" stop-color="#111111"/>
        <stop offset="100%" stop-color="#39FF14"/>
    </linearGradient>
    <linearGradient id="scanlineGrad" x1="0%" y1="0%" x2="100%" y2="0%">
        <stop offset="0%" stop-color="#39FF14" stop-opacity="0"/>
        <stop offset="50%" stop-color="#39FF14" stop-opacity="0.18"/>
        <stop offset="100%" stop-color="#39FF14" stop-opacity="0"/>
    </linearGradient>
    <clipPath id="dashClip">
        <rect x="0" y="0" width="850" height="200" rx="12"/>
    </clipPath>
  </defs>

  <rect width="100%" height="100%" fill="url(#carbonFiber)" rx="12" stroke="#39FF14" stroke-width="1" stroke-opacity="0.3"/>
  <rect width="100%" height="100%" fill="#000000" opacity="0.6" rx="12" />
  <g><polygon points="198,162 206.6,167 206.6,177 198,182 189.4,177 189.4,167" fill="none" stroke="#39FF14" stroke-width="1" opacity="0.0536315045385526"/>
<polygon points="661,101 669.6,106 669.6,116 661,121 652.4,116 652.4,106" fill="none" stroke="#39FF14" stroke-width="1" opacity="0.029896611271277455"/>
<polygon points="684,149 692.6,154 692.6,164 684,169 675.4,164 675.4,154" fill="none" stroke="#39FF14" stroke-width="1" opacity="0.0367498911641318"/>
<polygon points="400,60 408.6,65 408.6,75 400,80 391.4,75 391.4,65" fill="none" stroke="#39FF14" stroke-width="1" opacity="0.058691893072672724"/>
<polygon points="369,171 377.6,176 377.6,186 369,191 360.4,186 360.4,176" fill="none" stroke="#39FF14" stroke-width="1" opacity="0.05636110480041122"/>
<polygon points="500,69 508.6,74 508.6,84 500,89 491.4,84 491.4,74" fill="none" stroke="#39FF14" stroke-width="1" opacity="0.05815821830843419"/>
<polygon points="397,135 405.6,140 405.6,150 397,155 388.4,150 388.4,140" fill="none" stroke="#39FF14" stroke-width="1" opacity="0.05499387082376331"/>
<polygon points="7,-1 15.6,4 15.6,14 7,19 -1.5999999999999996,14 -1.5999999999999996,4" fill="none" stroke="#39FF14" stroke-width="1" opacity="0.05541622270169501"/>
<polygon points="197,-1 205.6,4 205.6,14 197,19 188.4,14 188.4,4" fill="none" stroke="#39FF14" stroke-width="1" opacity="0.05501001927918753"/>
<polygon points="125,122 133.6,127 133.6,137 125,142 116.4,137 116.4,127" fill="none" stroke="#39FF14" stroke-width="1" opacity="0.07685977501854395"/>
<polygon points="478,8 486.6,13 486.6,23 478,28 469.4,23 469.4,13" fill="none" stroke="#39FF14" stroke-width="1" opacity="0.027824088730555727"/>
<polygon points="657,146 665.6,151 665.6,161 657,166 648.4,161 648.4,151" fill="none" stroke="#39FF14" stroke-width="1" opacity="0.032004340795901434"/>
<polygon points="525,23 533.6,28 533.6,38 525,43 516.4,38 516.4,28" fill="none" stroke="#39FF14" stroke-width="1" opacity="0.03028064132301608"/>
<polygon points="328,172 336.6,177 336.6,187 328,192 319.4,187 319.4,177" fill="none" stroke="#39FF14" stroke-width="1" opacity="0.0306477273292788"/>
<polygon points="281,71 289.6,76 289.6,86 281,91 272.4,86 272.4,76" fill="none" stroke="#39FF14" stroke-width="1" opacity="0.06778405008108579"/>
<polygon points="817,69 825.6,74 825.6,84 817,89 808.4,84 808.4,74" fill="none" stroke="#39FF14" stroke-width="1" opacity="0.05532608765665813"/>
<polygon points="583,79 591.6,84 591.6,94 583,99 574.4,94 574.4,84" fill="none" stroke="#39FF14" stroke-width="1" opacity="0.022566737206519825"/>
<polygon points="837,119 845.6,124 845.6,134 837,139 828.4,134 828.4,124" fill="none" stroke="#39FF14" stroke-width="1" opacity="0.07859131821112315"/>
<polygon points="460,90 468.6,95 468.6,105 460,110 451.4,105 451.4,95" fill="none" stroke="#39FF14" stroke-width="1" opacity="0.031705984711189454"/>
<polygon points="125,15 133.6,20 133.6,30 125,35 116.4,30 116.4,20" fill="none" stroke="#39FF14" stroke-width="1" opacity="0.046994849199571476"/>
<polygon points="155,135 163.6,140 163.6,150 155,155 146.4,150 146.4,140" fill="none" stroke="#39FF14" stroke-width="1" opacity="0.05898629835000685"/>
<polygon points="780,1 788.6,6 788.6,16 780,21 771.4,16 771.4,6" fill="none" stroke="#39FF14" stroke-width="1" opacity="0.0722921773168607"/>
<polygon points="196,163 204.6,168 204.6,178 196,183 187.4,178 187.4,168" fill="none" stroke="#39FF14" stroke-width="1" opacity="0.03225183294583685"/>
<polygon points="101,24 109.6,29 109.6,39 101,44 92.4,39 92.4,29" fill="none" stroke="#39FF14" stroke-width="1" opacity="0.05083375934817993"/>
<polygon points="514,182 522.6,187 522.6,197 514,202 505.4,197 505.4,187" fill="none" stroke="#39FF14" stroke-width="1" opacity="0.02876020069359614"/>
<polygon points="722,123 730.6,128 730.6,138 722,143 713.4,138 713.4,128" fill="none" stroke="#39FF14" stroke-width="1" opacity="0.031155709234773815"/>
<polygon points="241,31 249.6,36 249.6,46 241,51 232.4,46 232.4,36" fill="none" stroke="#39FF14" stroke-width="1" opacity="0.0287494423859849"/>
<polygon points="348,61 356.6,66 356.6,76 348,81 339.4,76 339.4,66" fill="none" stroke="#39FF14" stroke-width="1" opacity="0.04717939840459551"/>
<polygon points="203,90 211.6,95 211.6,105 203,110 194.4,105 194.4,95" fill="none" stroke="#39FF14" stroke-width="1" opacity="0.03907251073749634"/>
<polygon points="552,88 560.6,93 560.6,103 552,108 543.4,103 543.4,93" fill="none" stroke="#39FF14" stroke-width="1" opacity="0.07462370903515643"/>
</g>

  <!-- HUD Decorative elements -->
  <path d="M 20 20 L 40 20 L 50 30" fill="none" stroke="#39FF14" stroke-width="2" opacity="0.5"/>
  <path d="M 830 180 L 810 180 L 800 170" fill="none" stroke="#39FF14" stroke-width="2" opacity="0.5"/>

  <g clip-path="url(#dashClip)">
    <rect x="-160" y="0" width="160" height="200" fill="url(#scanlineGrad)">
      <animateTransform attributeName="transform" type="translate"
                        from="0 0" to="1010 0" dur="6s" repeatCount="indefinite"/>
    </rect>
  </g>

  <g font-family="'Consolas', 'Fira Code', monospace" text-anchor="middle">

    <!-- NETWORK STATUS -->
    <g transform="translate(130, 100)">
        <circle cx="0" cy="0" r="45" fill="none" stroke="#39FF14" stroke-width="2" stroke-dasharray="10 5">
            <animateTransform attributeName="transform" type="rotate" from="0" to="360" dur="10s" repeatCount="indefinite"/>
        </circle>
        <circle cx="0" cy="0" r="35" fill="#0d0d0d" />
        <text x="0" y="-60" font-size="12" fill="#aaaaaa" letter-spacing="2">ROOT.AUTH</text>
        <text x="0" y="70" font-size="14" fill="#ffffff" font-weight="bold">OPERATIONAL</text>
    </g>

    <!-- ACTIVE USERS -->
    <g transform="translate(330, 100)">
        <text x="0" y="-20" font-size="12" fill="#aaaaaa">CITIZENS</text>
        <text x="0" y="15" font-size="28" fill="#ffffff" font-weight="bold" filter="url(#textGlow)">14,132</text>
        <text x="0" y="35" font-size="10" fill="#777777">VERIFIED HUMANS</text>
    </g>

    <!-- REGISTERED AGENTS -->
    <g transform="translate(530, 100)">
        <text x="0" y="-20" font-size="12" fill="#aaaaaa">AGENTS</text>
        <text x="0" y="15" font-size="28" fill="#00d4ff" font-weight="bold" filter="url(#textGlow)">4,066</text>
        <text x="0" y="35" font-size="10" fill="#777777">REGISTERED DIDs</text>
    </g>

    <!-- TRANSACTIONS -->
    <g transform="translate(730, 100)">
        <text x="0" y="-20" font-size="12" fill="#aaaaaa">TRANSFERS</text>
        <text x="0" y="15" font-size="28" fill="#ffffff" font-weight="bold">26,479</text>
        <text x="0" y="35" font-size="10" fill="#777777">M2M SETTLEMENTS</text>
    </g>
  </g>

  <text x="425" y="185" font-family="'Consolas', 'Fira Code', monospace" font-size="10" fill="#aaaaaa" opacity="0.6" text-anchor="middle">AXIOMID PROJECTED TARGETS (ILLUSTRATIVE): 2026-06-25 10:02:41 UTC // SECURE_HANDSHAKE</text>
</svg>