<svg width="850" height="200" viewBox="0 0 850 200" xmlns="http://www.w3.org/2000/svg">
  <defs>
    <pattern id="carbonFiber" width="10" height="10" patternUnits="userSpaceOnUse">
        <rect width="10" height="10" fill="#050505"/>
        <path d="M0,0 L5,5 L10,0 L5,-5 Z M5,5 L10,10 L15,5 L10,0 Z M-5,5 L0,10 L5,5 L0,0 Z M0,10 L5,15 L10,10 L5,5 Z" fill="#0d0d0d"/>
    </pattern>
    <filter id="textGlow">
      <feGaussianBlur stdDeviation="2" result="blur" />
      <feMerge>
        <feMergeNode in="blur"/>
        <feMergeNode in="SourceGraphic"/>
      </feMerge>
    </filter>
    <linearGradient id="neonBar" x1="0%" y1="0%" x2="100%" y2="0%">
        <stop offset="0%" stop-color="#111111"/>
        <stop offset="100%" stop-color="#39FF14"/>
    </linearGradient>
    <linearGradient id="scanlineGrad" x1="0%" y1="0%" x2="100%" y2="0%">
        <stop offset="0%" stop-color="#39FF14" stop-opacity="0"/>
        <stop offset="50%" stop-color="#39FF14" stop-opacity="0.18"/>
        <stop offset="100%" stop-color="#39FF14" stop-opacity="0"/>
    </linearGradient>
    <clipPath id="dashClip">
        <rect x="0" y="0" width="850" height="200" rx="12"/>
    </clipPath>
  </defs>

  <rect width="100%" height="100%" fill="url(#carbonFiber)" rx="12" stroke="#39FF14" stroke-width="1" stroke-opacity="0.3"/>
  <rect width="100%" height="100%" fill="#000000" opacity="0.6" rx="12" />
  <g><polygon points="659,86 667.6,91 667.6,101 659,106 650.4,101 650.4,91" fill="none" stroke="#39FF14" stroke-width="1" opacity="0.04126478328510282"/>
<polygon points="154,69 162.6,74 162.6,84 154,89 145.4,84 145.4,74" fill="none" stroke="#39FF14" stroke-width="1" opacity="0.056923764284670414"/>
<polygon points="496,170 504.6,175 504.6,185 496,190 487.4,185 487.4,175" fill="none" stroke="#39FF14" stroke-width="1" opacity="0.025705299707536367"/>
<polygon points="601,29 609.6,34 609.6,44 601,49 592.4,44 592.4,34" fill="none" stroke="#39FF14" stroke-width="1" opacity="0.025374681714228464"/>
<polygon points="508,83 516.6,88 516.6,98 508,103 499.4,98 499.4,88" fill="none" stroke="#39FF14" stroke-width="1" opacity="0.06199460079045907"/>
<polygon points="839,71 847.6,76 847.6,86 839,91 830.4,86 830.4,76" fill="none" stroke="#39FF14" stroke-width="1" opacity="0.02908980212278791"/>
<polygon points="617,64 625.6,69 625.6,79 617,84 608.4,79 608.4,69" fill="none" stroke="#39FF14" stroke-width="1" opacity="0.04096726862257478"/>
<polygon points="672,80 680.6,85 680.6,95 672,100 663.4,95 663.4,85" fill="none" stroke="#39FF14" stroke-width="1" opacity="0.025980265989681617"/>
<polygon points="381,140 389.6,145 389.6,155 381,160 372.4,155 372.4,145" fill="none" stroke="#39FF14" stroke-width="1" opacity="0.06830927127947606"/>
<polygon points="503,148 511.6,153 511.6,163 503,168 494.4,163 494.4,153" fill="none" stroke="#39FF14" stroke-width="1" opacity="0.06311755441742098"/>
<polygon points="25,127 33.6,132 33.6,142 25,147 16.4,142 16.4,132" fill="none" stroke="#39FF14" stroke-width="1" opacity="0.05635514535767497"/>
<polygon points="291,115 299.6,120 299.6,130 291,135 282.4,130 282.4,120" fill="none" stroke="#39FF14" stroke-width="1" opacity="0.032912974694752406"/>
<polygon points="213,-6 221.6,-1 221.6,9 213,14 204.4,9 204.4,-1" fill="none" stroke="#39FF14" stroke-width="1" opacity="0.02326977895188391"/>
<polygon points="350,118 358.6,123 358.6,133 350,138 341.4,133 341.4,123" fill="none" stroke="#39FF14" stroke-width="1" opacity="0.05110169476321922"/>
<polygon points="201,158 209.6,163 209.6,173 201,178 192.4,173 192.4,163" fill="none" stroke="#39FF14" stroke-width="1" opacity="0.07791213867837798"/>
<polygon points="285,59 293.6,64 293.6,74 285,79 276.4,74 276.4,64" fill="none" stroke="#39FF14" stroke-width="1" opacity="0.030038473291561382"/>
<polygon points="497,116 505.6,121 505.6,131 497,136 488.4,131 488.4,121" fill="none" stroke="#39FF14" stroke-width="1" opacity="0.057865776313596795"/>
<polygon points="261,112 269.6,117 269.6,127 261,132 252.4,127 252.4,117" fill="none" stroke="#39FF14" stroke-width="1" opacity="0.07567990604766181"/>
<polygon points="561,182 569.6,187 569.6,197 561,202 552.4,197 552.4,187" fill="none" stroke="#39FF14" stroke-width="1" opacity="0.03769388785097351"/>
<polygon points="728,20 736.6,25 736.6,35 728,40 719.4,35 719.4,25" fill="none" stroke="#39FF14" stroke-width="1" opacity="0.02140195991314684"/>
<polygon points="396,147 404.6,152 404.6,162 396,167 387.4,162 387.4,152" fill="none" stroke="#39FF14" stroke-width="1" opacity="0.0641417151906679"/>
<polygon points="157,61 165.6,66 165.6,76 157,81 148.4,76 148.4,66" fill="none" stroke="#39FF14" stroke-width="1" opacity="0.07469086579663527"/>
<polygon points="71,23 79.6,28 79.6,38 71,43 62.4,38 62.4,28" fill="none" stroke="#39FF14" stroke-width="1" opacity="0.06756844957121552"/>
<polygon points="533,123 541.6,128 541.6,138 533,143 524.4,138 524.4,128" fill="none" stroke="#39FF14" stroke-width="1" opacity="0.035991207515848986"/>
<polygon points="139,34 147.6,39 147.6,49 139,54 130.4,49 130.4,39" fill="none" stroke="#39FF14" stroke-width="1" opacity="0.034717812797531084"/>
<polygon points="527,51 535.6,56 535.6,66 527,71 518.4,66 518.4,56" fill="none" stroke="#39FF14" stroke-width="1" opacity="0.021176766332125542"/>
<polygon points="518,4 526.6,9 526.6,19 518,24 509.4,19 509.4,9" fill="none" stroke="#39FF14" stroke-width="1" opacity="0.07039233397073047"/>
<polygon points="103,26 111.6,31 111.6,41 103,46 94.4,41 94.4,31" fill="none" stroke="#39FF14" stroke-width="1" opacity="0.06688280027264079"/>
<polygon points="148,46 156.6,51 156.6,61 148,66 139.4,61 139.4,51" fill="none" stroke="#39FF14" stroke-width="1" opacity="0.0629841049318431"/>
<polygon points="566,187 574.6,192 574.6,202 566,207 557.4,202 557.4,192" fill="none" stroke="#39FF14" stroke-width="1" opacity="0.042257774974124765"/>
</g>

  <!-- HUD Decorative elements -->
  <path d="M 20 20 L 40 20 L 50 30" fill="none" stroke="#39FF14" stroke-width="2" opacity="0.5"/>
  <path d="M 830 180 L 810 180 L 800 170" fill="none" stroke="#39FF14" stroke-width="2" opacity="0.5"/>

  <g clip-path="url(#dashClip)">
    <rect x="-160" y="0" width="160" height="200" fill="url(#scanlineGrad)">
      <animateTransform attributeName="transform" type="translate"
                        from="0 0" to="1010 0" dur="6s" repeatCount="indefinite"/>
    </rect>
  </g>

  <g font-family="'Consolas', 'Fira Code', monospace" text-anchor="middle">

    <!-- NETWORK STATUS -->
    <g transform="translate(130, 100)">
        <circle cx="0" cy="0" r="45" fill="none" stroke="#39FF14" stroke-width="2" stroke-dasharray="10 5">
            <animateTransform attributeName="transform" type="rotate" from="0" to="360" dur="10s" repeatCount="indefinite"/>
        </circle>
        <circle cx="0" cy="0" r="35" fill="#0d0d0d" />
        <text x="0" y="-60" font-size="12" fill="#aaaaaa" letter-spacing="2">ROOT.AUTH</text>
        <text x="0" y="70" font-size="14" fill="#ffffff" font-weight="bold">OPERATIONAL</text>
    </g>

    <!-- ACTIVE USERS -->
    <g transform="translate(330, 100)">
        <text x="0" y="-20" font-size="12" fill="#aaaaaa">CITIZENS</text>
        <text x="0" y="15" font-size="28" fill="#ffffff" font-weight="bold" filter="url(#textGlow)">14,336</text>
        <text x="0" y="35" font-size="10" fill="#777777">VERIFIED HUMANS</text>
    </g>

    <!-- REGISTERED AGENTS -->
    <g transform="translate(530, 100)">
        <text x="0" y="-20" font-size="12" fill="#aaaaaa">AGENTS</text>
        <text x="0" y="15" font-size="28" fill="#00d4ff" font-weight="bold" filter="url(#textGlow)">4,062</text>
        <text x="0" y="35" font-size="10" fill="#777777">REGISTERED DIDs</text>
    </g>

    <!-- TRANSACTIONS -->
    <g transform="translate(730, 100)">
        <text x="0" y="-20" font-size="12" fill="#aaaaaa">TRANSFERS</text>
        <text x="0" y="15" font-size="28" fill="#ffffff" font-weight="bold">34,407</text>
        <text x="0" y="35" font-size="10" fill="#777777">M2M SETTLEMENTS</text>
    </g>
  </g>

  <text x="425" y="185" font-family="'Consolas', 'Fira Code', monospace" font-size="10" fill="#aaaaaa" opacity="0.6" text-anchor="middle">AXIOMID PROJECTED TARGETS (ILLUSTRATIVE): 2026-07-03 11:26:02 UTC // SECURE_HANDSHAKE</text>
</svg>