<svg width="850" height="200" viewBox="0 0 850 200" xmlns="http://www.w3.org/2000/svg">
  <defs>
    <pattern id="carbonFiber" width="10" height="10" patternUnits="userSpaceOnUse">
        <rect width="10" height="10" fill="#050505"/>
        <path d="M0,0 L5,5 L10,0 L5,-5 Z M5,5 L10,10 L15,5 L10,0 Z M-5,5 L0,10 L5,5 L0,0 Z M0,10 L5,15 L10,10 L5,5 Z" fill="#0d0d0d"/>
    </pattern>
    <filter id="textGlow">
      <feGaussianBlur stdDeviation="2" result="blur" />
      <feMerge>
        <feMergeNode in="blur"/>
        <feMergeNode in="SourceGraphic"/>
      </feMerge>
    </filter>
    <linearGradient id="neonBar" x1="0%" y1="0%" x2="100%" y2="0%">
        <stop offset="0%" stop-color="#111111"/>
        <stop offset="100%" stop-color="#39FF14"/>
    </linearGradient>
    <linearGradient id="scanlineGrad" x1="0%" y1="0%" x2="100%" y2="0%">
        <stop offset="0%" stop-color="#39FF14" stop-opacity="0"/>
        <stop offset="50%" stop-color="#39FF14" stop-opacity="0.18"/>
        <stop offset="100%" stop-color="#39FF14" stop-opacity="0"/>
    </linearGradient>
    <clipPath id="dashClip">
        <rect x="0" y="0" width="850" height="200" rx="12"/>
    </clipPath>
  </defs>

  <rect width="100%" height="100%" fill="url(#carbonFiber)" rx="12" stroke="#39FF14" stroke-width="1" stroke-opacity="0.3"/>
  <rect width="100%" height="100%" fill="#000000" opacity="0.6" rx="12" />
  <g><polygon points="361,189 369.6,194 369.6,204 361,209 352.4,204 352.4,194" fill="none" stroke="#39FF14" stroke-width="1" opacity="0.05044474343441613"/>
<polygon points="4,101 12.6,106 12.6,116 4,121 -4.6,116 -4.6,106" fill="none" stroke="#39FF14" stroke-width="1" opacity="0.04230701566625178"/>
<polygon points="108,142 116.6,147 116.6,157 108,162 99.4,157 99.4,147" fill="none" stroke="#39FF14" stroke-width="1" opacity="0.07278824814846577"/>
<polygon points="441,138 449.6,143 449.6,153 441,158 432.4,153 432.4,143" fill="none" stroke="#39FF14" stroke-width="1" opacity="0.04309155581877969"/>
<polygon points="689,63 697.6,68 697.6,78 689,83 680.4,78 680.4,68" fill="none" stroke="#39FF14" stroke-width="1" opacity="0.030128567180095774"/>
<polygon points="262,178 270.6,183 270.6,193 262,198 253.4,193 253.4,183" fill="none" stroke="#39FF14" stroke-width="1" opacity="0.06091670769032921"/>
<polygon points="586,-5 594.6,0 594.6,10 586,15 577.4,10 577.4,0" fill="none" stroke="#39FF14" stroke-width="1" opacity="0.07023639063274763"/>
<polygon points="182,67 190.6,72 190.6,82 182,87 173.4,82 173.4,72" fill="none" stroke="#39FF14" stroke-width="1" opacity="0.026113108975978454"/>
<polygon points="222,38 230.6,43 230.6,53 222,58 213.4,53 213.4,43" fill="none" stroke="#39FF14" stroke-width="1" opacity="0.03841988870206909"/>
<polygon points="521,82 529.6,87 529.6,97 521,102 512.4,97 512.4,87" fill="none" stroke="#39FF14" stroke-width="1" opacity="0.03015869444926474"/>
<polygon points="586,100 594.6,105 594.6,115 586,120 577.4,115 577.4,105" fill="none" stroke="#39FF14" stroke-width="1" opacity="0.06725887766574504"/>
<polygon points="173,10 181.6,15 181.6,25 173,30 164.4,25 164.4,15" fill="none" stroke="#39FF14" stroke-width="1" opacity="0.04180676531225362"/>
<polygon points="259,82 267.6,87 267.6,97 259,102 250.4,97 250.4,87" fill="none" stroke="#39FF14" stroke-width="1" opacity="0.07722241339134796"/>
<polygon points="225,59 233.6,64 233.6,74 225,79 216.4,74 216.4,64" fill="none" stroke="#39FF14" stroke-width="1" opacity="0.07677996744454854"/>
<polygon points="156,86 164.6,91 164.6,101 156,106 147.4,101 147.4,91" fill="none" stroke="#39FF14" stroke-width="1" opacity="0.028826657304637168"/>
<polygon points="106,133 114.6,138 114.6,148 106,153 97.4,148 97.4,138" fill="none" stroke="#39FF14" stroke-width="1" opacity="0.059858943158183436"/>
<polygon points="248,96 256.6,101 256.6,111 248,116 239.4,111 239.4,101" fill="none" stroke="#39FF14" stroke-width="1" opacity="0.021462393909593182"/>
<polygon points="2,87 10.6,92 10.6,102 2,107 -6.6,102 -6.6,92" fill="none" stroke="#39FF14" stroke-width="1" opacity="0.07481490108086335"/>
<polygon points="66,116 74.6,121 74.6,131 66,136 57.4,131 57.4,121" fill="none" stroke="#39FF14" stroke-width="1" opacity="0.07174255999114819"/>
<polygon points="736,71 744.6,76 744.6,86 736,91 727.4,86 727.4,76" fill="none" stroke="#39FF14" stroke-width="1" opacity="0.02296728963695598"/>
<polygon points="765,23 773.6,28 773.6,38 765,43 756.4,38 756.4,28" fill="none" stroke="#39FF14" stroke-width="1" opacity="0.021180944897563902"/>
<polygon points="249,66 257.6,71 257.6,81 249,86 240.4,81 240.4,71" fill="none" stroke="#39FF14" stroke-width="1" opacity="0.04647859247694816"/>
<polygon points="192,187 200.6,192 200.6,202 192,207 183.4,202 183.4,192" fill="none" stroke="#39FF14" stroke-width="1" opacity="0.06299267033652797"/>
<polygon points="337,151 345.6,156 345.6,166 337,171 328.4,166 328.4,156" fill="none" stroke="#39FF14" stroke-width="1" opacity="0.02875283169212041"/>
<polygon points="221,98 229.6,103 229.6,113 221,118 212.4,113 212.4,103" fill="none" stroke="#39FF14" stroke-width="1" opacity="0.07928940716605994"/>
<polygon points="71,173 79.6,178 79.6,188 71,193 62.4,188 62.4,178" fill="none" stroke="#39FF14" stroke-width="1" opacity="0.05853354224616572"/>
<polygon points="668,107 676.6,112 676.6,122 668,127 659.4,122 659.4,112" fill="none" stroke="#39FF14" stroke-width="1" opacity="0.0587083069952711"/>
<polygon points="654,106 662.6,111 662.6,121 654,126 645.4,121 645.4,111" fill="none" stroke="#39FF14" stroke-width="1" opacity="0.04767523461100967"/>
<polygon points="652,65 660.6,70 660.6,80 652,85 643.4,80 643.4,70" fill="none" stroke="#39FF14" stroke-width="1" opacity="0.03895132902481705"/>
<polygon points="550,9 558.6,14 558.6,24 550,29 541.4,24 541.4,14" fill="none" stroke="#39FF14" stroke-width="1" opacity="0.026893298657109904"/>
</g>

  <!-- HUD Decorative elements -->
  <path d="M 20 20 L 40 20 L 50 30" fill="none" stroke="#39FF14" stroke-width="2" opacity="0.5"/>
  <path d="M 830 180 L 810 180 L 800 170" fill="none" stroke="#39FF14" stroke-width="2" opacity="0.5"/>

  <g clip-path="url(#dashClip)">
    <rect x="-160" y="0" width="160" height="200" fill="url(#scanlineGrad)">
      <animateTransform attributeName="transform" type="translate"
                        from="0 0" to="1010 0" dur="6s" repeatCount="indefinite"/>
    </rect>
  </g>

  <g font-family="'Consolas', 'Fira Code', monospace" text-anchor="middle">

    <!-- NETWORK STATUS -->
    <g transform="translate(130, 100)">
        <circle cx="0" cy="0" r="45" fill="none" stroke="#39FF14" stroke-width="2" stroke-dasharray="10 5">
            <animateTransform attributeName="transform" type="rotate" from="0" to="360" dur="10s" repeatCount="indefinite"/>
        </circle>
        <circle cx="0" cy="0" r="35" fill="#0d0d0d" />
        <text x="0" y="-60" font-size="12" fill="#aaaaaa" letter-spacing="2">ROOT.AUTH</text>
        <text x="0" y="70" font-size="14" fill="#ffffff" font-weight="bold">OPERATIONAL</text>
    </g>

    <!-- ACTIVE USERS -->
    <g transform="translate(330, 100)">
        <text x="0" y="-20" font-size="12" fill="#aaaaaa">CITIZENS</text>
        <text x="0" y="15" font-size="28" fill="#ffffff" font-weight="bold" filter="url(#textGlow)">12,463</text>
        <text x="0" y="35" font-size="10" fill="#777777">VERIFIED HUMANS</text>
    </g>

    <!-- REGISTERED AGENTS -->
    <g transform="translate(530, 100)">
        <text x="0" y="-20" font-size="12" fill="#aaaaaa">AGENTS</text>
        <text x="0" y="15" font-size="28" fill="#00d4ff" font-weight="bold" filter="url(#textGlow)">3,476</text>
        <text x="0" y="35" font-size="10" fill="#777777">REGISTERED DIDs</text>
    </g>

    <!-- TRANSACTIONS -->
    <g transform="translate(730, 100)">
        <text x="0" y="-20" font-size="12" fill="#aaaaaa">TRANSFERS</text>
        <text x="0" y="15" font-size="28" fill="#ffffff" font-weight="bold">31,835</text>
        <text x="0" y="35" font-size="10" fill="#777777">M2M SETTLEMENTS</text>
    </g>
  </g>

  <text x="425" y="185" font-family="'Consolas', 'Fira Code', monospace" font-size="10" fill="#aaaaaa" opacity="0.6" text-anchor="middle">AXIOMID PROJECTED TARGETS (ILLUSTRATIVE): 2026-07-14 10:28:55 UTC // SECURE_HANDSHAKE</text>
</svg>