<svg width="850" height="200" viewBox="0 0 850 200" xmlns="http://www.w3.org/2000/svg">
  <defs>
    <pattern id="carbonFiber" width="10" height="10" patternUnits="userSpaceOnUse">
        <rect width="10" height="10" fill="#050505"/>
        <path d="M0,0 L5,5 L10,0 L5,-5 Z M5,5 L10,10 L15,5 L10,0 Z M-5,5 L0,10 L5,5 L0,0 Z M0,10 L5,15 L10,10 L5,5 Z" fill="#0d0d0d"/>
    </pattern>
    <filter id="textGlow">
      <feGaussianBlur stdDeviation="2" result="blur" />
      <feMerge>
        <feMergeNode in="blur"/>
        <feMergeNode in="SourceGraphic"/>
      </feMerge>
    </filter>
    <linearGradient id="neonBar" x1="0%" y1="0%" x2="100%" y2="0%">
        <stop offset="0%" stop-color="#111111"/>
        <stop offset="100%" stop-color="#39FF14"/>
    </linearGradient>
    <linearGradient id="scanlineGrad" x1="0%" y1="0%" x2="100%" y2="0%">
        <stop offset="0%" stop-color="#39FF14" stop-opacity="0"/>
        <stop offset="50%" stop-color="#39FF14" stop-opacity="0.18"/>
        <stop offset="100%" stop-color="#39FF14" stop-opacity="0"/>
    </linearGradient>
    <clipPath id="dashClip">
        <rect x="0" y="0" width="850" height="200" rx="12"/>
    </clipPath>
  </defs>

  <rect width="100%" height="100%" fill="url(#carbonFiber)" rx="12" stroke="#39FF14" stroke-width="1" stroke-opacity="0.3"/>
  <rect width="100%" height="100%" fill="#000000" opacity="0.6" rx="12" />
  <g><polygon points="516,19 524.6,24 524.6,34 516,39 507.4,34 507.4,24" fill="none" stroke="#39FF14" stroke-width="1" opacity="0.07109246989929935"/>
<polygon points="638,19 646.6,24 646.6,34 638,39 629.4,34 629.4,24" fill="none" stroke="#39FF14" stroke-width="1" opacity="0.022869497179620456"/>
<polygon points="153,129 161.6,134 161.6,144 153,149 144.4,144 144.4,134" fill="none" stroke="#39FF14" stroke-width="1" opacity="0.029726779569436552"/>
<polygon points="655,128 663.6,133 663.6,143 655,148 646.4,143 646.4,133" fill="none" stroke="#39FF14" stroke-width="1" opacity="0.054757279696821926"/>
<polygon points="58,146 66.6,151 66.6,161 58,166 49.4,161 49.4,151" fill="none" stroke="#39FF14" stroke-width="1" opacity="0.039923627439458965"/>
<polygon points="625,-4 633.6,1 633.6,11 625,16 616.4,11 616.4,1" fill="none" stroke="#39FF14" stroke-width="1" opacity="0.0502299377223579"/>
<polygon points="634,117 642.6,122 642.6,132 634,137 625.4,132 625.4,122" fill="none" stroke="#39FF14" stroke-width="1" opacity="0.05038117793586071"/>
<polygon points="742,17 750.6,22 750.6,32 742,37 733.4,32 733.4,22" fill="none" stroke="#39FF14" stroke-width="1" opacity="0.026318553107906567"/>
<polygon points="601,182 609.6,187 609.6,197 601,202 592.4,197 592.4,187" fill="none" stroke="#39FF14" stroke-width="1" opacity="0.025727613297170396"/>
<polygon points="800,9 808.6,14 808.6,24 800,29 791.4,24 791.4,14" fill="none" stroke="#39FF14" stroke-width="1" opacity="0.040240814382375714"/>
<polygon points="332,68 340.6,73 340.6,83 332,88 323.4,83 323.4,73" fill="none" stroke="#39FF14" stroke-width="1" opacity="0.06444128302336061"/>
<polygon points="124,164 132.6,169 132.6,179 124,184 115.4,179 115.4,169" fill="none" stroke="#39FF14" stroke-width="1" opacity="0.07892265950893157"/>
<polygon points="402,102 410.6,107 410.6,117 402,122 393.4,117 393.4,107" fill="none" stroke="#39FF14" stroke-width="1" opacity="0.042697346939144606"/>
<polygon points="667,39 675.6,44 675.6,54 667,59 658.4,54 658.4,44" fill="none" stroke="#39FF14" stroke-width="1" opacity="0.06507327158324101"/>
<polygon points="784,-9 792.6,-4 792.6,6 784,11 775.4,6 775.4,-4" fill="none" stroke="#39FF14" stroke-width="1" opacity="0.05464085170455357"/>
<polygon points="771,69 779.6,74 779.6,84 771,89 762.4,84 762.4,74" fill="none" stroke="#39FF14" stroke-width="1" opacity="0.029756654342918985"/>
<polygon points="304,29 312.6,34 312.6,44 304,49 295.4,44 295.4,34" fill="none" stroke="#39FF14" stroke-width="1" opacity="0.030954260977987567"/>
<polygon points="264,25 272.6,30 272.6,40 264,45 255.4,40 255.4,30" fill="none" stroke="#39FF14" stroke-width="1" opacity="0.07021321636155967"/>
<polygon points="193,75 201.6,80 201.6,90 193,95 184.4,90 184.4,80" fill="none" stroke="#39FF14" stroke-width="1" opacity="0.06318056498936261"/>
<polygon points="135,179 143.6,184 143.6,194 135,199 126.4,194 126.4,184" fill="none" stroke="#39FF14" stroke-width="1" opacity="0.06813971753978365"/>
<polygon points="172,97 180.6,102 180.6,112 172,117 163.4,112 163.4,102" fill="none" stroke="#39FF14" stroke-width="1" opacity="0.044006753045979306"/>
<polygon points="190,153 198.6,158 198.6,168 190,173 181.4,168 181.4,158" fill="none" stroke="#39FF14" stroke-width="1" opacity="0.043419347201869025"/>
<polygon points="165,45 173.6,50 173.6,60 165,65 156.4,60 156.4,50" fill="none" stroke="#39FF14" stroke-width="1" opacity="0.05514700101634727"/>
<polygon points="586,49 594.6,54 594.6,64 586,69 577.4,64 577.4,54" fill="none" stroke="#39FF14" stroke-width="1" opacity="0.038020858113624045"/>
<polygon points="182,84 190.6,89 190.6,99 182,104 173.4,99 173.4,89" fill="none" stroke="#39FF14" stroke-width="1" opacity="0.07004538676441502"/>
<polygon points="614,84 622.6,89 622.6,99 614,104 605.4,99 605.4,89" fill="none" stroke="#39FF14" stroke-width="1" opacity="0.05327739197197988"/>
<polygon points="573,188 581.6,193 581.6,203 573,208 564.4,203 564.4,193" fill="none" stroke="#39FF14" stroke-width="1" opacity="0.055366807732661075"/>
<polygon points="94,168 102.6,173 102.6,183 94,188 85.4,183 85.4,173" fill="none" stroke="#39FF14" stroke-width="1" opacity="0.051160832788770066"/>
<polygon points="747,142 755.6,147 755.6,157 747,162 738.4,157 738.4,147" fill="none" stroke="#39FF14" stroke-width="1" opacity="0.027040487899510458"/>
<polygon points="437,74 445.6,79 445.6,89 437,94 428.4,89 428.4,79" fill="none" stroke="#39FF14" stroke-width="1" opacity="0.04474547406117941"/>
</g>

  <!-- HUD Decorative elements -->
  <path d="M 20 20 L 40 20 L 50 30" fill="none" stroke="#39FF14" stroke-width="2" opacity="0.5"/>
  <path d="M 830 180 L 810 180 L 800 170" fill="none" stroke="#39FF14" stroke-width="2" opacity="0.5"/>

  <g clip-path="url(#dashClip)">
    <rect x="-160" y="0" width="160" height="200" fill="url(#scanlineGrad)">
      <animateTransform attributeName="transform" type="translate"
                        from="0 0" to="1010 0" dur="6s" repeatCount="indefinite"/>
    </rect>
  </g>

  <g font-family="'Consolas', 'Fira Code', monospace" text-anchor="middle">

    <!-- NETWORK STATUS -->
    <g transform="translate(130, 100)">
        <circle cx="0" cy="0" r="45" fill="none" stroke="#39FF14" stroke-width="2" stroke-dasharray="10 5">
            <animateTransform attributeName="transform" type="rotate" from="0" to="360" dur="10s" repeatCount="indefinite"/>
        </circle>
        <circle cx="0" cy="0" r="35" fill="#0d0d0d" />
        <text x="0" y="-60" font-size="12" fill="#aaaaaa" letter-spacing="2">ROOT.AUTH</text>
        <text x="0" y="70" font-size="14" fill="#ffffff" font-weight="bold">OPERATIONAL</text>
    </g>

    <!-- ACTIVE USERS -->
    <g transform="translate(330, 100)">
        <text x="0" y="-20" font-size="12" fill="#aaaaaa">CITIZENS</text>
        <text x="0" y="15" font-size="28" fill="#ffffff" font-weight="bold" filter="url(#textGlow)">15,344</text>
        <text x="0" y="35" font-size="10" fill="#777777">VERIFIED HUMANS</text>
    </g>

    <!-- REGISTERED AGENTS -->
    <g transform="translate(530, 100)">
        <text x="0" y="-20" font-size="12" fill="#aaaaaa">AGENTS</text>
        <text x="0" y="15" font-size="28" fill="#00d4ff" font-weight="bold" filter="url(#textGlow)">3,158</text>
        <text x="0" y="35" font-size="10" fill="#777777">REGISTERED DIDs</text>
    </g>

    <!-- TRANSACTIONS -->
    <g transform="translate(730, 100)">
        <text x="0" y="-20" font-size="12" fill="#aaaaaa">TRANSFERS</text>
        <text x="0" y="15" font-size="28" fill="#ffffff" font-weight="bold">35,058</text>
        <text x="0" y="35" font-size="10" fill="#777777">M2M SETTLEMENTS</text>
    </g>
  </g>

  <text x="425" y="185" font-family="'Consolas', 'Fira Code', monospace" font-size="10" fill="#aaaaaa" opacity="0.6" text-anchor="middle">AXIOMID PROJECTED TARGETS (ILLUSTRATIVE): 2026-07-19 21:41:02 UTC // SECURE_HANDSHAKE</text>
</svg>