<svg width="850" height="200" viewBox="0 0 850 200" xmlns="http://www.w3.org/2000/svg">
  <defs>
    <pattern id="carbonFiber" width="10" height="10" patternUnits="userSpaceOnUse">
        <rect width="10" height="10" fill="#050505"/>
        <path d="M0,0 L5,5 L10,0 L5,-5 Z M5,5 L10,10 L15,5 L10,0 Z M-5,5 L0,10 L5,5 L0,0 Z M0,10 L5,15 L10,10 L5,5 Z" fill="#0d0d0d"/>
    </pattern>
    <filter id="textGlow">
      <feGaussianBlur stdDeviation="2" result="blur" />
      <feMerge>
        <feMergeNode in="blur"/>
        <feMergeNode in="SourceGraphic"/>
      </feMerge>
    </filter>
    <linearGradient id="neonBar" x1="0%" y1="0%" x2="100%" y2="0%">
        <stop offset="0%" stop-color="#111111"/>
        <stop offset="100%" stop-color="#39FF14"/>
    </linearGradient>
    <linearGradient id="scanlineGrad" x1="0%" y1="0%" x2="100%" y2="0%">
        <stop offset="0%" stop-color="#39FF14" stop-opacity="0"/>
        <stop offset="50%" stop-color="#39FF14" stop-opacity="0.18"/>
        <stop offset="100%" stop-color="#39FF14" stop-opacity="0"/>
    </linearGradient>
    <clipPath id="dashClip">
        <rect x="0" y="0" width="850" height="200" rx="12"/>
    </clipPath>
  </defs>

  <rect width="100%" height="100%" fill="url(#carbonFiber)" rx="12" stroke="#39FF14" stroke-width="1" stroke-opacity="0.3"/>
  <rect width="100%" height="100%" fill="#000000" opacity="0.6" rx="12" />
  <g><polygon points="26,-3 34.6,2 34.6,12 26,17 17.4,12 17.4,2" fill="none" stroke="#39FF14" stroke-width="1" opacity="0.029427828038254444"/>
<polygon points="217,186 225.6,191 225.6,201 217,206 208.4,201 208.4,191" fill="none" stroke="#39FF14" stroke-width="1" opacity="0.06685634419844386"/>
<polygon points="94,28 102.6,33 102.6,43 94,48 85.4,43 85.4,33" fill="none" stroke="#39FF14" stroke-width="1" opacity="0.07051040749001232"/>
<polygon points="528,66 536.6,71 536.6,81 528,86 519.4,81 519.4,71" fill="none" stroke="#39FF14" stroke-width="1" opacity="0.042598215023523525"/>
<polygon points="354,102 362.6,107 362.6,117 354,122 345.4,117 345.4,107" fill="none" stroke="#39FF14" stroke-width="1" opacity="0.020438787297391327"/>
<polygon points="3,86 11.6,91 11.6,101 3,106 -5.6,101 -5.6,91" fill="none" stroke="#39FF14" stroke-width="1" opacity="0.06959505048817013"/>
<polygon points="336,155 344.6,160 344.6,170 336,175 327.4,170 327.4,160" fill="none" stroke="#39FF14" stroke-width="1" opacity="0.033782895274144104"/>
<polygon points="782,183 790.6,188 790.6,198 782,203 773.4,198 773.4,188" fill="none" stroke="#39FF14" stroke-width="1" opacity="0.07837562868657555"/>
<polygon points="779,4 787.6,9 787.6,19 779,24 770.4,19 770.4,9" fill="none" stroke="#39FF14" stroke-width="1" opacity="0.050720441400998115"/>
<polygon points="346,107 354.6,112 354.6,122 346,127 337.4,122 337.4,112" fill="none" stroke="#39FF14" stroke-width="1" opacity="0.028631563307996592"/>
<polygon points="212,118 220.6,123 220.6,133 212,138 203.4,133 203.4,123" fill="none" stroke="#39FF14" stroke-width="1" opacity="0.02839288979545397"/>
<polygon points="388,113 396.6,118 396.6,128 388,133 379.4,128 379.4,118" fill="none" stroke="#39FF14" stroke-width="1" opacity="0.021008886405553248"/>
<polygon points="289,190 297.6,195 297.6,205 289,210 280.4,205 280.4,195" fill="none" stroke="#39FF14" stroke-width="1" opacity="0.059445090414723914"/>
<polygon points="403,67 411.6,72 411.6,82 403,87 394.4,82 394.4,72" fill="none" stroke="#39FF14" stroke-width="1" opacity="0.054185573894291864"/>
<polygon points="380,176 388.6,181 388.6,191 380,196 371.4,191 371.4,181" fill="none" stroke="#39FF14" stroke-width="1" opacity="0.056378808968900726"/>
<polygon points="627,51 635.6,56 635.6,66 627,71 618.4,66 618.4,56" fill="none" stroke="#39FF14" stroke-width="1" opacity="0.041598337802234604"/>
<polygon points="229,116 237.6,121 237.6,131 229,136 220.4,131 220.4,121" fill="none" stroke="#39FF14" stroke-width="1" opacity="0.06972951542820992"/>
<polygon points="164,-6 172.6,-1 172.6,9 164,14 155.4,9 155.4,-1" fill="none" stroke="#39FF14" stroke-width="1" opacity="0.0366439620517204"/>
<polygon points="812,91 820.6,96 820.6,106 812,111 803.4,106 803.4,96" fill="none" stroke="#39FF14" stroke-width="1" opacity="0.04315135570677617"/>
<polygon points="93,182 101.6,187 101.6,197 93,202 84.4,197 84.4,187" fill="none" stroke="#39FF14" stroke-width="1" opacity="0.048021750910459654"/>
<polygon points="528,131 536.6,136 536.6,146 528,151 519.4,146 519.4,136" fill="none" stroke="#39FF14" stroke-width="1" opacity="0.0785536461658749"/>
<polygon points="270,30 278.6,35 278.6,45 270,50 261.4,45 261.4,35" fill="none" stroke="#39FF14" stroke-width="1" opacity="0.030362210953823396"/>
<polygon points="165,90 173.6,95 173.6,105 165,110 156.4,105 156.4,95" fill="none" stroke="#39FF14" stroke-width="1" opacity="0.034798776432336746"/>
<polygon points="56,66 64.6,71 64.6,81 56,86 47.4,81 47.4,71" fill="none" stroke="#39FF14" stroke-width="1" opacity="0.04368082496816719"/>
<polygon points="176,90 184.6,95 184.6,105 176,110 167.4,105 167.4,95" fill="none" stroke="#39FF14" stroke-width="1" opacity="0.030089890708072345"/>
<polygon points="304,151 312.6,156 312.6,166 304,171 295.4,166 295.4,156" fill="none" stroke="#39FF14" stroke-width="1" opacity="0.05650812721444018"/>
<polygon points="169,183 177.6,188 177.6,198 169,203 160.4,198 160.4,188" fill="none" stroke="#39FF14" stroke-width="1" opacity="0.042794976539632754"/>
<polygon points="695,11 703.6,16 703.6,26 695,31 686.4,26 686.4,16" fill="none" stroke="#39FF14" stroke-width="1" opacity="0.04937312001217331"/>
<polygon points="563,90 571.6,95 571.6,105 563,110 554.4,105 554.4,95" fill="none" stroke="#39FF14" stroke-width="1" opacity="0.055011655528308806"/>
<polygon points="435,177 443.6,182 443.6,192 435,197 426.4,192 426.4,182" fill="none" stroke="#39FF14" stroke-width="1" opacity="0.07975781296091101"/>
</g>

  <!-- HUD Decorative elements -->
  <path d="M 20 20 L 40 20 L 50 30" fill="none" stroke="#39FF14" stroke-width="2" opacity="0.5"/>
  <path d="M 830 180 L 810 180 L 800 170" fill="none" stroke="#39FF14" stroke-width="2" opacity="0.5"/>

  <g clip-path="url(#dashClip)">
    <rect x="-160" y="0" width="160" height="200" fill="url(#scanlineGrad)">
      <animateTransform attributeName="transform" type="translate"
                        from="0 0" to="1010 0" dur="6s" repeatCount="indefinite"/>
    </rect>
  </g>

  <g font-family="'Consolas', 'Fira Code', monospace" text-anchor="middle">

    <!-- NETWORK STATUS -->
    <g transform="translate(130, 100)">
        <circle cx="0" cy="0" r="45" fill="none" stroke="#39FF14" stroke-width="2" stroke-dasharray="10 5">
            <animateTransform attributeName="transform" type="rotate" from="0" to="360" dur="10s" repeatCount="indefinite"/>
        </circle>
        <circle cx="0" cy="0" r="35" fill="#0d0d0d" />
        <text x="0" y="-60" font-size="12" fill="#aaaaaa" letter-spacing="2">ROOT.AUTH</text>
        <text x="0" y="70" font-size="14" fill="#ffffff" font-weight="bold">OPERATIONAL</text>
    </g>

    <!-- ACTIVE USERS -->
    <g transform="translate(330, 100)">
        <text x="0" y="-20" font-size="12" fill="#aaaaaa">CITIZENS</text>
        <text x="0" y="15" font-size="28" fill="#ffffff" font-weight="bold" filter="url(#textGlow)">14,266</text>
        <text x="0" y="35" font-size="10" fill="#777777">VERIFIED HUMANS</text>
    </g>

    <!-- REGISTERED AGENTS -->
    <g transform="translate(530, 100)">
        <text x="0" y="-20" font-size="12" fill="#aaaaaa">AGENTS</text>
        <text x="0" y="15" font-size="28" fill="#00d4ff" font-weight="bold" filter="url(#textGlow)">4,331</text>
        <text x="0" y="35" font-size="10" fill="#777777">REGISTERED DIDs</text>
    </g>

    <!-- TRANSACTIONS -->
    <g transform="translate(730, 100)">
        <text x="0" y="-20" font-size="12" fill="#aaaaaa">TRANSFERS</text>
        <text x="0" y="15" font-size="28" fill="#ffffff" font-weight="bold">28,441</text>
        <text x="0" y="35" font-size="10" fill="#777777">M2M SETTLEMENTS</text>
    </g>
  </g>

  <text x="425" y="185" font-family="'Consolas', 'Fira Code', monospace" font-size="10" fill="#aaaaaa" opacity="0.6" text-anchor="middle">AXIOMID PROJECTED TARGETS (ILLUSTRATIVE): 2026-07-13 14:05:12 UTC // SECURE_HANDSHAKE</text>
</svg>