<svg width="850" height="200" viewBox="0 0 850 200" xmlns="http://www.w3.org/2000/svg">
  <defs>
    <pattern id="carbonFiber" width="10" height="10" patternUnits="userSpaceOnUse">
        <rect width="10" height="10" fill="#050505"/>
        <path d="M0,0 L5,5 L10,0 L5,-5 Z M5,5 L10,10 L15,5 L10,0 Z M-5,5 L0,10 L5,5 L0,0 Z M0,10 L5,15 L10,10 L5,5 Z" fill="#0d0d0d"/>
    </pattern>
    <filter id="textGlow">
      <feGaussianBlur stdDeviation="2" result="blur" />
      <feMerge>
        <feMergeNode in="blur"/>
        <feMergeNode in="SourceGraphic"/>
      </feMerge>
    </filter>
    <linearGradient id="neonBar" x1="0%" y1="0%" x2="100%" y2="0%">
        <stop offset="0%" stop-color="#111111"/>
        <stop offset="100%" stop-color="#39FF14"/>
    </linearGradient>
    <linearGradient id="scanlineGrad" x1="0%" y1="0%" x2="100%" y2="0%">
        <stop offset="0%" stop-color="#39FF14" stop-opacity="0"/>
        <stop offset="50%" stop-color="#39FF14" stop-opacity="0.18"/>
        <stop offset="100%" stop-color="#39FF14" stop-opacity="0"/>
    </linearGradient>
    <clipPath id="dashClip">
        <rect x="0" y="0" width="850" height="200" rx="12"/>
    </clipPath>
  </defs>

  <rect width="100%" height="100%" fill="url(#carbonFiber)" rx="12" stroke="#39FF14" stroke-width="1" stroke-opacity="0.3"/>
  <rect width="100%" height="100%" fill="#000000" opacity="0.6" rx="12" />
  <g><polygon points="57,107 65.6,112 65.6,122 57,127 48.4,122 48.4,112" fill="none" stroke="#39FF14" stroke-width="1" opacity="0.0364253009165412"/>
<polygon points="645,7 653.6,12 653.6,22 645,27 636.4,22 636.4,12" fill="none" stroke="#39FF14" stroke-width="1" opacity="0.06862801906344995"/>
<polygon points="253,188 261.6,193 261.6,203 253,208 244.4,203 244.4,193" fill="none" stroke="#39FF14" stroke-width="1" opacity="0.07973746000769456"/>
<polygon points="279,72 287.6,77 287.6,87 279,92 270.4,87 270.4,77" fill="none" stroke="#39FF14" stroke-width="1" opacity="0.06953326632726402"/>
<polygon points="672,0 680.6,5 680.6,15 672,20 663.4,15 663.4,5" fill="none" stroke="#39FF14" stroke-width="1" opacity="0.04188992338427346"/>
<polygon points="292,21 300.6,26 300.6,36 292,41 283.4,36 283.4,26" fill="none" stroke="#39FF14" stroke-width="1" opacity="0.06751520793564028"/>
<polygon points="8,-5 16.6,0 16.6,10 8,15 -0.5999999999999996,10 -0.5999999999999996,0" fill="none" stroke="#39FF14" stroke-width="1" opacity="0.07892826046872099"/>
<polygon points="27,117 35.6,122 35.6,132 27,137 18.4,132 18.4,122" fill="none" stroke="#39FF14" stroke-width="1" opacity="0.04925697291718972"/>
<polygon points="399,180 407.6,185 407.6,195 399,200 390.4,195 390.4,185" fill="none" stroke="#39FF14" stroke-width="1" opacity="0.058633260688747496"/>
<polygon points="622,126 630.6,131 630.6,141 622,146 613.4,141 613.4,131" fill="none" stroke="#39FF14" stroke-width="1" opacity="0.04699919746695018"/>
<polygon points="160,107 168.6,112 168.6,122 160,127 151.4,122 151.4,112" fill="none" stroke="#39FF14" stroke-width="1" opacity="0.04762358164522597"/>
<polygon points="602,65 610.6,70 610.6,80 602,85 593.4,80 593.4,70" fill="none" stroke="#39FF14" stroke-width="1" opacity="0.07979273492483056"/>
<polygon points="356,152 364.6,157 364.6,167 356,172 347.4,167 347.4,157" fill="none" stroke="#39FF14" stroke-width="1" opacity="0.042393118134068764"/>
<polygon points="704,2 712.6,7 712.6,17 704,22 695.4,17 695.4,7" fill="none" stroke="#39FF14" stroke-width="1" opacity="0.02144566974423142"/>
<polygon points="620,84 628.6,89 628.6,99 620,104 611.4,99 611.4,89" fill="none" stroke="#39FF14" stroke-width="1" opacity="0.07664456869290548"/>
<polygon points="352,153 360.6,158 360.6,168 352,173 343.4,168 343.4,158" fill="none" stroke="#39FF14" stroke-width="1" opacity="0.0315428168168264"/>
<polygon points="596,146 604.6,151 604.6,161 596,166 587.4,161 587.4,151" fill="none" stroke="#39FF14" stroke-width="1" opacity="0.031479118373464496"/>
<polygon points="518,48 526.6,53 526.6,63 518,68 509.4,63 509.4,53" fill="none" stroke="#39FF14" stroke-width="1" opacity="0.0751702976109705"/>
<polygon points="657,1 665.6,6 665.6,16 657,21 648.4,16 648.4,6" fill="none" stroke="#39FF14" stroke-width="1" opacity="0.05148594819750994"/>
<polygon points="128,169 136.6,174 136.6,184 128,189 119.4,184 119.4,174" fill="none" stroke="#39FF14" stroke-width="1" opacity="0.07840657651757901"/>
<polygon points="412,113 420.6,118 420.6,128 412,133 403.4,128 403.4,118" fill="none" stroke="#39FF14" stroke-width="1" opacity="0.04191372193384789"/>
<polygon points="802,90 810.6,95 810.6,105 802,110 793.4,105 793.4,95" fill="none" stroke="#39FF14" stroke-width="1" opacity="0.021725017403392097"/>
<polygon points="377,116 385.6,121 385.6,131 377,136 368.4,131 368.4,121" fill="none" stroke="#39FF14" stroke-width="1" opacity="0.06482332005441578"/>
<polygon points="452,168 460.6,173 460.6,183 452,188 443.4,183 443.4,173" fill="none" stroke="#39FF14" stroke-width="1" opacity="0.06050602557165553"/>
<polygon points="453,182 461.6,187 461.6,197 453,202 444.4,197 444.4,187" fill="none" stroke="#39FF14" stroke-width="1" opacity="0.07635505085577089"/>
<polygon points="668,158 676.6,163 676.6,173 668,178 659.4,173 659.4,163" fill="none" stroke="#39FF14" stroke-width="1" opacity="0.0779267741285461"/>
<polygon points="460,4 468.6,9 468.6,19 460,24 451.4,19 451.4,9" fill="none" stroke="#39FF14" stroke-width="1" opacity="0.0315813665946293"/>
<polygon points="669,14 677.6,19 677.6,29 669,34 660.4,29 660.4,19" fill="none" stroke="#39FF14" stroke-width="1" opacity="0.03266515379503317"/>
<polygon points="270,162 278.6,167 278.6,177 270,182 261.4,177 261.4,167" fill="none" stroke="#39FF14" stroke-width="1" opacity="0.03554862140347926"/>
<polygon points="8,82 16.6,87 16.6,97 8,102 -0.5999999999999996,97 -0.5999999999999996,87" fill="none" stroke="#39FF14" stroke-width="1" opacity="0.05765790360065097"/>
</g>

  <!-- HUD Decorative elements -->
  <path d="M 20 20 L 40 20 L 50 30" fill="none" stroke="#39FF14" stroke-width="2" opacity="0.5"/>
  <path d="M 830 180 L 810 180 L 800 170" fill="none" stroke="#39FF14" stroke-width="2" opacity="0.5"/>

  <g clip-path="url(#dashClip)">
    <rect x="-160" y="0" width="160" height="200" fill="url(#scanlineGrad)">
      <animateTransform attributeName="transform" type="translate"
                        from="0 0" to="1010 0" dur="6s" repeatCount="indefinite"/>
    </rect>
  </g>

  <g font-family="'Consolas', 'Fira Code', monospace" text-anchor="middle">

    <!-- NETWORK STATUS -->
    <g transform="translate(130, 100)">
        <circle cx="0" cy="0" r="45" fill="none" stroke="#39FF14" stroke-width="2" stroke-dasharray="10 5">
            <animateTransform attributeName="transform" type="rotate" from="0" to="360" dur="10s" repeatCount="indefinite"/>
        </circle>
        <circle cx="0" cy="0" r="35" fill="#0d0d0d" />
        <text x="0" y="-60" font-size="12" fill="#aaaaaa" letter-spacing="2">ROOT.AUTH</text>
        <text x="0" y="70" font-size="14" fill="#ffffff" font-weight="bold">OPERATIONAL</text>
    </g>

    <!-- ACTIVE USERS -->
    <g transform="translate(330, 100)">
        <text x="0" y="-20" font-size="12" fill="#aaaaaa">CITIZENS</text>
        <text x="0" y="15" font-size="28" fill="#ffffff" font-weight="bold" filter="url(#textGlow)">15,195</text>
        <text x="0" y="35" font-size="10" fill="#777777">VERIFIED HUMANS</text>
    </g>

    <!-- REGISTERED AGENTS -->
    <g transform="translate(530, 100)">
        <text x="0" y="-20" font-size="12" fill="#aaaaaa">AGENTS</text>
        <text x="0" y="15" font-size="28" fill="#00d4ff" font-weight="bold" filter="url(#textGlow)">3,801</text>
        <text x="0" y="35" font-size="10" fill="#777777">REGISTERED DIDs</text>
    </g>

    <!-- TRANSACTIONS -->
    <g transform="translate(730, 100)">
        <text x="0" y="-20" font-size="12" fill="#aaaaaa">TRANSFERS</text>
        <text x="0" y="15" font-size="28" fill="#ffffff" font-weight="bold">39,703</text>
        <text x="0" y="35" font-size="10" fill="#777777">M2M SETTLEMENTS</text>
    </g>
  </g>

  <text x="425" y="185" font-family="'Consolas', 'Fira Code', monospace" font-size="10" fill="#aaaaaa" opacity="0.6" text-anchor="middle">AXIOMID PROJECTED TARGETS (ILLUSTRATIVE): 2026-07-17 10:29:29 UTC // SECURE_HANDSHAKE</text>
</svg>