<svg width="850" height="200" viewBox="0 0 850 200" xmlns="http://www.w3.org/2000/svg">
  <defs>
    <pattern id="carbonFiber" width="10" height="10" patternUnits="userSpaceOnUse">
        <rect width="10" height="10" fill="#050505"/>
        <path d="M0,0 L5,5 L10,0 L5,-5 Z M5,5 L10,10 L15,5 L10,0 Z M-5,5 L0,10 L5,5 L0,0 Z M0,10 L5,15 L10,10 L5,5 Z" fill="#0d0d0d"/>
    </pattern>
    <filter id="textGlow">
      <feGaussianBlur stdDeviation="2" result="blur" />
      <feMerge>
        <feMergeNode in="blur"/>
        <feMergeNode in="SourceGraphic"/>
      </feMerge>
    </filter>
    <linearGradient id="neonBar" x1="0%" y1="0%" x2="100%" y2="0%">
        <stop offset="0%" stop-color="#111111"/>
        <stop offset="100%" stop-color="#39FF14"/>
    </linearGradient>
    <linearGradient id="scanlineGrad" x1="0%" y1="0%" x2="100%" y2="0%">
        <stop offset="0%" stop-color="#39FF14" stop-opacity="0"/>
        <stop offset="50%" stop-color="#39FF14" stop-opacity="0.18"/>
        <stop offset="100%" stop-color="#39FF14" stop-opacity="0"/>
    </linearGradient>
    <clipPath id="dashClip">
        <rect x="0" y="0" width="850" height="200" rx="12"/>
    </clipPath>
  </defs>

  <rect width="100%" height="100%" fill="url(#carbonFiber)" rx="12" stroke="#39FF14" stroke-width="1" stroke-opacity="0.3"/>
  <rect width="100%" height="100%" fill="#000000" opacity="0.6" rx="12" />
  <g><polygon points="222,84 230.6,89 230.6,99 222,104 213.4,99 213.4,89" fill="none" stroke="#39FF14" stroke-width="1" opacity="0.028224801762429516"/>
<polygon points="792,102 800.6,107 800.6,117 792,122 783.4,117 783.4,107" fill="none" stroke="#39FF14" stroke-width="1" opacity="0.04631569115524753"/>
<polygon points="496,113 504.6,118 504.6,128 496,133 487.4,128 487.4,118" fill="none" stroke="#39FF14" stroke-width="1" opacity="0.023836602374030166"/>
<polygon points="117,25 125.6,30 125.6,40 117,45 108.4,40 108.4,30" fill="none" stroke="#39FF14" stroke-width="1" opacity="0.05887973858871917"/>
<polygon points="422,181 430.6,186 430.6,196 422,201 413.4,196 413.4,186" fill="none" stroke="#39FF14" stroke-width="1" opacity="0.06997880919943993"/>
<polygon points="381,104 389.6,109 389.6,119 381,124 372.4,119 372.4,109" fill="none" stroke="#39FF14" stroke-width="1" opacity="0.04177459890248622"/>
<polygon points="619,18 627.6,23 627.6,33 619,38 610.4,33 610.4,23" fill="none" stroke="#39FF14" stroke-width="1" opacity="0.0755705987147349"/>
<polygon points="137,187 145.6,192 145.6,202 137,207 128.4,202 128.4,192" fill="none" stroke="#39FF14" stroke-width="1" opacity="0.06305174333020788"/>
<polygon points="137,93 145.6,98 145.6,108 137,113 128.4,108 128.4,98" fill="none" stroke="#39FF14" stroke-width="1" opacity="0.033540988955230853"/>
<polygon points="78,102 86.6,107 86.6,117 78,122 69.4,117 69.4,107" fill="none" stroke="#39FF14" stroke-width="1" opacity="0.025721609059447766"/>
<polygon points="194,146 202.6,151 202.6,161 194,166 185.4,161 185.4,151" fill="none" stroke="#39FF14" stroke-width="1" opacity="0.0487389446811628"/>
<polygon points="28,54 36.6,59 36.6,69 28,74 19.4,69 19.4,59" fill="none" stroke="#39FF14" stroke-width="1" opacity="0.02757961449172576"/>
<polygon points="230,61 238.6,66 238.6,76 230,81 221.4,76 221.4,66" fill="none" stroke="#39FF14" stroke-width="1" opacity="0.023154716895901224"/>
<polygon points="625,8 633.6,13 633.6,23 625,28 616.4,23 616.4,13" fill="none" stroke="#39FF14" stroke-width="1" opacity="0.052793033179645066"/>
<polygon points="203,114 211.6,119 211.6,129 203,134 194.4,129 194.4,119" fill="none" stroke="#39FF14" stroke-width="1" opacity="0.06238921841495394"/>
<polygon points="804,55 812.6,60 812.6,70 804,75 795.4,70 795.4,60" fill="none" stroke="#39FF14" stroke-width="1" opacity="0.05364842266921206"/>
<polygon points="427,155 435.6,160 435.6,170 427,175 418.4,170 418.4,160" fill="none" stroke="#39FF14" stroke-width="1" opacity="0.04748366356099472"/>
<polygon points="768,188 776.6,193 776.6,203 768,208 759.4,203 759.4,193" fill="none" stroke="#39FF14" stroke-width="1" opacity="0.04353558123639541"/>
<polygon points="108,125 116.6,130 116.6,140 108,145 99.4,140 99.4,130" fill="none" stroke="#39FF14" stroke-width="1" opacity="0.06265127604073494"/>
<polygon points="170,147 178.6,152 178.6,162 170,167 161.4,162 161.4,152" fill="none" stroke="#39FF14" stroke-width="1" opacity="0.04711484065360068"/>
<polygon points="333,-4 341.6,1 341.6,11 333,16 324.4,11 324.4,1" fill="none" stroke="#39FF14" stroke-width="1" opacity="0.06178700985948192"/>
<polygon points="533,-5 541.6,0 541.6,10 533,15 524.4,10 524.4,0" fill="none" stroke="#39FF14" stroke-width="1" opacity="0.050331202763951255"/>
<polygon points="802,174 810.6,179 810.6,189 802,194 793.4,189 793.4,179" fill="none" stroke="#39FF14" stroke-width="1" opacity="0.06326179373081227"/>
<polygon points="294,130 302.6,135 302.6,145 294,150 285.4,145 285.4,135" fill="none" stroke="#39FF14" stroke-width="1" opacity="0.061335406853944105"/>
<polygon points="836,177 844.6,182 844.6,192 836,197 827.4,192 827.4,182" fill="none" stroke="#39FF14" stroke-width="1" opacity="0.04774846030392513"/>
<polygon points="651,117 659.6,122 659.6,132 651,137 642.4,132 642.4,122" fill="none" stroke="#39FF14" stroke-width="1" opacity="0.06150961079756673"/>
<polygon points="551,75 559.6,80 559.6,90 551,95 542.4,90 542.4,80" fill="none" stroke="#39FF14" stroke-width="1" opacity="0.05287222719808145"/>
<polygon points="325,96 333.6,101 333.6,111 325,116 316.4,111 316.4,101" fill="none" stroke="#39FF14" stroke-width="1" opacity="0.07075795240036249"/>
<polygon points="292,98 300.6,103 300.6,113 292,118 283.4,113 283.4,103" fill="none" stroke="#39FF14" stroke-width="1" opacity="0.03851254634461988"/>
<polygon points="441,165 449.6,170 449.6,180 441,185 432.4,180 432.4,170" fill="none" stroke="#39FF14" stroke-width="1" opacity="0.0757185930000601"/>
</g>

  <!-- HUD Decorative elements -->
  <path d="M 20 20 L 40 20 L 50 30" fill="none" stroke="#39FF14" stroke-width="2" opacity="0.5"/>
  <path d="M 830 180 L 810 180 L 800 170" fill="none" stroke="#39FF14" stroke-width="2" opacity="0.5"/>

  <g clip-path="url(#dashClip)">
    <rect x="-160" y="0" width="160" height="200" fill="url(#scanlineGrad)">
      <animateTransform attributeName="transform" type="translate"
                        from="0 0" to="1010 0" dur="6s" repeatCount="indefinite"/>
    </rect>
  </g>

  <g font-family="'Consolas', 'Fira Code', monospace" text-anchor="middle">

    <!-- NETWORK STATUS -->
    <g transform="translate(130, 100)">
        <circle cx="0" cy="0" r="45" fill="none" stroke="#39FF14" stroke-width="2" stroke-dasharray="10 5">
            <animateTransform attributeName="transform" type="rotate" from="0" to="360" dur="10s" repeatCount="indefinite"/>
        </circle>
        <circle cx="0" cy="0" r="35" fill="#0d0d0d" />
        <text x="0" y="-60" font-size="12" fill="#aaaaaa" letter-spacing="2">ROOT.AUTH</text>
        <text x="0" y="70" font-size="14" fill="#ffffff" font-weight="bold">OPERATIONAL</text>
    </g>

    <!-- ACTIVE USERS -->
    <g transform="translate(330, 100)">
        <text x="0" y="-20" font-size="12" fill="#aaaaaa">CITIZENS</text>
        <text x="0" y="15" font-size="28" fill="#ffffff" font-weight="bold" filter="url(#textGlow)">13,892</text>
        <text x="0" y="35" font-size="10" fill="#777777">VERIFIED HUMANS</text>
    </g>

    <!-- REGISTERED AGENTS -->
    <g transform="translate(530, 100)">
        <text x="0" y="-20" font-size="12" fill="#aaaaaa">AGENTS</text>
        <text x="0" y="15" font-size="28" fill="#00d4ff" font-weight="bold" filter="url(#textGlow)">3,523</text>
        <text x="0" y="35" font-size="10" fill="#777777">REGISTERED DIDs</text>
    </g>

    <!-- TRANSACTIONS -->
    <g transform="translate(730, 100)">
        <text x="0" y="-20" font-size="12" fill="#aaaaaa">TRANSFERS</text>
        <text x="0" y="15" font-size="28" fill="#ffffff" font-weight="bold">39,470</text>
        <text x="0" y="35" font-size="10" fill="#777777">M2M SETTLEMENTS</text>
    </g>
  </g>

  <text x="425" y="185" font-family="'Consolas', 'Fira Code', monospace" font-size="10" fill="#aaaaaa" opacity="0.6" text-anchor="middle">AXIOMID PROJECTED TARGETS (ILLUSTRATIVE): 2026-06-22 19:03:56 UTC // SECURE_HANDSHAKE</text>
</svg>