<svg width="850" height="200" viewBox="0 0 850 200" xmlns="http://www.w3.org/2000/svg">
  <defs>
    <pattern id="carbonFiber" width="10" height="10" patternUnits="userSpaceOnUse">
        <rect width="10" height="10" fill="#050505"/>
        <path d="M0,0 L5,5 L10,0 L5,-5 Z M5,5 L10,10 L15,5 L10,0 Z M-5,5 L0,10 L5,5 L0,0 Z M0,10 L5,15 L10,10 L5,5 Z" fill="#0d0d0d"/>
    </pattern>
    <filter id="textGlow">
      <feGaussianBlur stdDeviation="2" result="blur" />
      <feMerge>
        <feMergeNode in="blur"/>
        <feMergeNode in="SourceGraphic"/>
      </feMerge>
    </filter>
    <linearGradient id="neonBar" x1="0%" y1="0%" x2="100%" y2="0%">
        <stop offset="0%" stop-color="#111111"/>
        <stop offset="100%" stop-color="#39FF14"/>
    </linearGradient>
    <linearGradient id="scanlineGrad" x1="0%" y1="0%" x2="100%" y2="0%">
        <stop offset="0%" stop-color="#39FF14" stop-opacity="0"/>
        <stop offset="50%" stop-color="#39FF14" stop-opacity="0.18"/>
        <stop offset="100%" stop-color="#39FF14" stop-opacity="0"/>
    </linearGradient>
    <clipPath id="dashClip">
        <rect x="0" y="0" width="850" height="200" rx="12"/>
    </clipPath>
  </defs>

  <rect width="100%" height="100%" fill="url(#carbonFiber)" rx="12" stroke="#39FF14" stroke-width="1" stroke-opacity="0.3"/>
  <rect width="100%" height="100%" fill="#000000" opacity="0.6" rx="12" />
  <g><polygon points="26,135 34.6,140 34.6,150 26,155 17.4,150 17.4,140" fill="none" stroke="#39FF14" stroke-width="1" opacity="0.027772517667376394"/>
<polygon points="608,47 616.6,52 616.6,62 608,67 599.4,62 599.4,52" fill="none" stroke="#39FF14" stroke-width="1" opacity="0.029445011571314305"/>
<polygon points="109,52 117.6,57 117.6,67 109,72 100.4,67 100.4,57" fill="none" stroke="#39FF14" stroke-width="1" opacity="0.021086121584614717"/>
<polygon points="137,139 145.6,144 145.6,154 137,159 128.4,154 128.4,144" fill="none" stroke="#39FF14" stroke-width="1" opacity="0.036883566993368117"/>
<polygon points="305,24 313.6,29 313.6,39 305,44 296.4,39 296.4,29" fill="none" stroke="#39FF14" stroke-width="1" opacity="0.07937061000108879"/>
<polygon points="155,169 163.6,174 163.6,184 155,189 146.4,184 146.4,174" fill="none" stroke="#39FF14" stroke-width="1" opacity="0.04377814225728916"/>
<polygon points="329,25 337.6,30 337.6,40 329,45 320.4,40 320.4,30" fill="none" stroke="#39FF14" stroke-width="1" opacity="0.06318780828439517"/>
<polygon points="640,182 648.6,187 648.6,197 640,202 631.4,197 631.4,187" fill="none" stroke="#39FF14" stroke-width="1" opacity="0.029779596585543834"/>
<polygon points="293,130 301.6,135 301.6,145 293,150 284.4,145 284.4,135" fill="none" stroke="#39FF14" stroke-width="1" opacity="0.06441449340339783"/>
<polygon points="795,26 803.6,31 803.6,41 795,46 786.4,41 786.4,31" fill="none" stroke="#39FF14" stroke-width="1" opacity="0.038205299165720984"/>
<polygon points="585,170 593.6,175 593.6,185 585,190 576.4,185 576.4,175" fill="none" stroke="#39FF14" stroke-width="1" opacity="0.05170814405411346"/>
<polygon points="42,135 50.6,140 50.6,150 42,155 33.4,150 33.4,140" fill="none" stroke="#39FF14" stroke-width="1" opacity="0.06580949097889609"/>
<polygon points="376,29 384.6,34 384.6,44 376,49 367.4,44 367.4,34" fill="none" stroke="#39FF14" stroke-width="1" opacity="0.0362938394874615"/>
<polygon points="366,97 374.6,102 374.6,112 366,117 357.4,112 357.4,102" fill="none" stroke="#39FF14" stroke-width="1" opacity="0.03277010455747829"/>
<polygon points="207,69 215.6,74 215.6,84 207,89 198.4,84 198.4,74" fill="none" stroke="#39FF14" stroke-width="1" opacity="0.04072674258748422"/>
<polygon points="615,26 623.6,31 623.6,41 615,46 606.4,41 606.4,31" fill="none" stroke="#39FF14" stroke-width="1" opacity="0.05395930458877929"/>
<polygon points="310,144 318.6,149 318.6,159 310,164 301.4,159 301.4,149" fill="none" stroke="#39FF14" stroke-width="1" opacity="0.06945692280123818"/>
<polygon points="305,164 313.6,169 313.6,179 305,184 296.4,179 296.4,169" fill="none" stroke="#39FF14" stroke-width="1" opacity="0.0562650753562451"/>
<polygon points="592,120 600.6,125 600.6,135 592,140 583.4,135 583.4,125" fill="none" stroke="#39FF14" stroke-width="1" opacity="0.02507066590131617"/>
<polygon points="204,164 212.6,169 212.6,179 204,184 195.4,179 195.4,169" fill="none" stroke="#39FF14" stroke-width="1" opacity="0.022722660643330762"/>
<polygon points="809,118 817.6,123 817.6,133 809,138 800.4,133 800.4,123" fill="none" stroke="#39FF14" stroke-width="1" opacity="0.04726930728042504"/>
<polygon points="82,71 90.6,76 90.6,86 82,91 73.4,86 73.4,76" fill="none" stroke="#39FF14" stroke-width="1" opacity="0.07401269246050707"/>
<polygon points="382,79 390.6,84 390.6,94 382,99 373.4,94 373.4,84" fill="none" stroke="#39FF14" stroke-width="1" opacity="0.059676528048076175"/>
<polygon points="353,175 361.6,180 361.6,190 353,195 344.4,190 344.4,180" fill="none" stroke="#39FF14" stroke-width="1" opacity="0.06343135923465695"/>
<polygon points="648,38 656.6,43 656.6,53 648,58 639.4,53 639.4,43" fill="none" stroke="#39FF14" stroke-width="1" opacity="0.027597308582898904"/>
<polygon points="8,52 16.6,57 16.6,67 8,72 -0.5999999999999996,67 -0.5999999999999996,57" fill="none" stroke="#39FF14" stroke-width="1" opacity="0.036161804068545494"/>
<polygon points="440,188 448.6,193 448.6,203 440,208 431.4,203 431.4,193" fill="none" stroke="#39FF14" stroke-width="1" opacity="0.07044316409348995"/>
<polygon points="294,108 302.6,113 302.6,123 294,128 285.4,123 285.4,113" fill="none" stroke="#39FF14" stroke-width="1" opacity="0.06022657222463826"/>
<polygon points="476,30 484.6,35 484.6,45 476,50 467.4,45 467.4,35" fill="none" stroke="#39FF14" stroke-width="1" opacity="0.0314106439888029"/>
<polygon points="282,126 290.6,131 290.6,141 282,146 273.4,141 273.4,131" fill="none" stroke="#39FF14" stroke-width="1" opacity="0.021947495843042498"/>
</g>

  <!-- HUD Decorative elements -->
  <path d="M 20 20 L 40 20 L 50 30" fill="none" stroke="#39FF14" stroke-width="2" opacity="0.5"/>
  <path d="M 830 180 L 810 180 L 800 170" fill="none" stroke="#39FF14" stroke-width="2" opacity="0.5"/>

  <g clip-path="url(#dashClip)">
    <rect x="-160" y="0" width="160" height="200" fill="url(#scanlineGrad)">
      <animateTransform attributeName="transform" type="translate"
                        from="0 0" to="1010 0" dur="6s" repeatCount="indefinite"/>
    </rect>
  </g>

  <g font-family="'Consolas', 'Fira Code', monospace" text-anchor="middle">

    <!-- NETWORK STATUS -->
    <g transform="translate(130, 100)">
        <circle cx="0" cy="0" r="45" fill="none" stroke="#39FF14" stroke-width="2" stroke-dasharray="10 5">
            <animateTransform attributeName="transform" type="rotate" from="0" to="360" dur="10s" repeatCount="indefinite"/>
        </circle>
        <circle cx="0" cy="0" r="35" fill="#0d0d0d" />
        <text x="0" y="-60" font-size="12" fill="#aaaaaa" letter-spacing="2">ROOT.AUTH</text>
        <text x="0" y="70" font-size="14" fill="#ffffff" font-weight="bold">OPERATIONAL</text>
    </g>

    <!-- ACTIVE USERS -->
    <g transform="translate(330, 100)">
        <text x="0" y="-20" font-size="12" fill="#aaaaaa">CITIZENS</text>
        <text x="0" y="15" font-size="28" fill="#ffffff" font-weight="bold" filter="url(#textGlow)">15,023</text>
        <text x="0" y="35" font-size="10" fill="#777777">VERIFIED HUMANS</text>
    </g>

    <!-- REGISTERED AGENTS -->
    <g transform="translate(530, 100)">
        <text x="0" y="-20" font-size="12" fill="#aaaaaa">AGENTS</text>
        <text x="0" y="15" font-size="28" fill="#00d4ff" font-weight="bold" filter="url(#textGlow)">4,295</text>
        <text x="0" y="35" font-size="10" fill="#777777">REGISTERED DIDs</text>
    </g>

    <!-- TRANSACTIONS -->
    <g transform="translate(730, 100)">
        <text x="0" y="-20" font-size="12" fill="#aaaaaa">TRANSFERS</text>
        <text x="0" y="15" font-size="28" fill="#ffffff" font-weight="bold">31,914</text>
        <text x="0" y="35" font-size="10" fill="#777777">M2M SETTLEMENTS</text>
    </g>
  </g>

  <text x="425" y="185" font-family="'Consolas', 'Fira Code', monospace" font-size="10" fill="#aaaaaa" opacity="0.6" text-anchor="middle">AXIOMID PROJECTED TARGETS (ILLUSTRATIVE): 2026-07-07 22:04:19 UTC // SECURE_HANDSHAKE</text>
</svg>