<svg width="850" height="200" viewBox="0 0 850 200" xmlns="http://www.w3.org/2000/svg">
  <defs>
    <pattern id="carbonFiber" width="10" height="10" patternUnits="userSpaceOnUse">
        <rect width="10" height="10" fill="#050505"/>
        <path d="M0,0 L5,5 L10,0 L5,-5 Z M5,5 L10,10 L15,5 L10,0 Z M-5,5 L0,10 L5,5 L0,0 Z M0,10 L5,15 L10,10 L5,5 Z" fill="#0d0d0d"/>
    </pattern>
    <filter id="textGlow">
      <feGaussianBlur stdDeviation="2" result="blur" />
      <feMerge>
        <feMergeNode in="blur"/>
        <feMergeNode in="SourceGraphic"/>
      </feMerge>
    </filter>
    <linearGradient id="neonBar" x1="0%" y1="0%" x2="100%" y2="0%">
        <stop offset="0%" stop-color="#111111"/>
        <stop offset="100%" stop-color="#39FF14"/>
    </linearGradient>
    <linearGradient id="scanlineGrad" x1="0%" y1="0%" x2="100%" y2="0%">
        <stop offset="0%" stop-color="#39FF14" stop-opacity="0"/>
        <stop offset="50%" stop-color="#39FF14" stop-opacity="0.18"/>
        <stop offset="100%" stop-color="#39FF14" stop-opacity="0"/>
    </linearGradient>
    <clipPath id="dashClip">
        <rect x="0" y="0" width="850" height="200" rx="12"/>
    </clipPath>
  </defs>

  <rect width="100%" height="100%" fill="url(#carbonFiber)" rx="12" stroke="#39FF14" stroke-width="1" stroke-opacity="0.3"/>
  <rect width="100%" height="100%" fill="#000000" opacity="0.6" rx="12" />
  <g><polygon points="645,39 653.6,44 653.6,54 645,59 636.4,54 636.4,44" fill="none" stroke="#39FF14" stroke-width="1" opacity="0.03305341726182478"/>
<polygon points="110,64 118.6,69 118.6,79 110,84 101.4,79 101.4,69" fill="none" stroke="#39FF14" stroke-width="1" opacity="0.07099600612614014"/>
<polygon points="77,107 85.6,112 85.6,122 77,127 68.4,122 68.4,112" fill="none" stroke="#39FF14" stroke-width="1" opacity="0.04563586908497154"/>
<polygon points="140,100 148.6,105 148.6,115 140,120 131.4,115 131.4,105" fill="none" stroke="#39FF14" stroke-width="1" opacity="0.02415203973300891"/>
<polygon points="421,109 429.6,114 429.6,124 421,129 412.4,124 412.4,114" fill="none" stroke="#39FF14" stroke-width="1" opacity="0.021241856306624358"/>
<polygon points="609,92 617.6,97 617.6,107 609,112 600.4,107 600.4,97" fill="none" stroke="#39FF14" stroke-width="1" opacity="0.04452398811368515"/>
<polygon points="241,28 249.6,33 249.6,43 241,48 232.4,43 232.4,33" fill="none" stroke="#39FF14" stroke-width="1" opacity="0.07087149250796193"/>
<polygon points="380,130 388.6,135 388.6,145 380,150 371.4,145 371.4,135" fill="none" stroke="#39FF14" stroke-width="1" opacity="0.05982682398186086"/>
<polygon points="228,118 236.6,123 236.6,133 228,138 219.4,133 219.4,123" fill="none" stroke="#39FF14" stroke-width="1" opacity="0.03718301843873121"/>
<polygon points="184,94 192.6,99 192.6,109 184,114 175.4,109 175.4,99" fill="none" stroke="#39FF14" stroke-width="1" opacity="0.07672581623617927"/>
<polygon points="59,94 67.6,99 67.6,109 59,114 50.4,109 50.4,99" fill="none" stroke="#39FF14" stroke-width="1" opacity="0.027990601247676678"/>
<polygon points="529,181 537.6,186 537.6,196 529,201 520.4,196 520.4,186" fill="none" stroke="#39FF14" stroke-width="1" opacity="0.0703520804622999"/>
<polygon points="279,76 287.6,81 287.6,91 279,96 270.4,91 270.4,81" fill="none" stroke="#39FF14" stroke-width="1" opacity="0.046299075747756095"/>
<polygon points="353,154 361.6,159 361.6,169 353,174 344.4,169 344.4,159" fill="none" stroke="#39FF14" stroke-width="1" opacity="0.023016621817712843"/>
<polygon points="784,159 792.6,164 792.6,174 784,179 775.4,174 775.4,164" fill="none" stroke="#39FF14" stroke-width="1" opacity="0.021777228173092137"/>
<polygon points="86,56 94.6,61 94.6,71 86,76 77.4,71 77.4,61" fill="none" stroke="#39FF14" stroke-width="1" opacity="0.07834307533167115"/>
<polygon points="13,-7 21.6,-2 21.6,8 13,13 4.4,8 4.4,-2" fill="none" stroke="#39FF14" stroke-width="1" opacity="0.041953091515259396"/>
<polygon points="255,60 263.6,65 263.6,75 255,80 246.4,75 246.4,65" fill="none" stroke="#39FF14" stroke-width="1" opacity="0.057150304636538876"/>
<polygon points="475,62 483.6,67 483.6,77 475,82 466.4,77 466.4,67" fill="none" stroke="#39FF14" stroke-width="1" opacity="0.07199520804257027"/>
<polygon points="437,156 445.6,161 445.6,171 437,176 428.4,171 428.4,161" fill="none" stroke="#39FF14" stroke-width="1" opacity="0.059680136285286595"/>
<polygon points="297,112 305.6,117 305.6,127 297,132 288.4,127 288.4,117" fill="none" stroke="#39FF14" stroke-width="1" opacity="0.05704817806049016"/>
<polygon points="513,80 521.6,85 521.6,95 513,100 504.4,95 504.4,85" fill="none" stroke="#39FF14" stroke-width="1" opacity="0.061910347951826816"/>
<polygon points="797,75 805.6,80 805.6,90 797,95 788.4,90 788.4,80" fill="none" stroke="#39FF14" stroke-width="1" opacity="0.027124592525392458"/>
<polygon points="552,116 560.6,121 560.6,131 552,136 543.4,131 543.4,121" fill="none" stroke="#39FF14" stroke-width="1" opacity="0.04848460023169229"/>
<polygon points="673,136 681.6,141 681.6,151 673,156 664.4,151 664.4,141" fill="none" stroke="#39FF14" stroke-width="1" opacity="0.05494579289530431"/>
<polygon points="147,70 155.6,75 155.6,85 147,90 138.4,85 138.4,75" fill="none" stroke="#39FF14" stroke-width="1" opacity="0.05158949670263116"/>
<polygon points="585,175 593.6,180 593.6,190 585,195 576.4,190 576.4,180" fill="none" stroke="#39FF14" stroke-width="1" opacity="0.031500624242483725"/>
<polygon points="273,110 281.6,115 281.6,125 273,130 264.4,125 264.4,115" fill="none" stroke="#39FF14" stroke-width="1" opacity="0.06569208789185499"/>
<polygon points="694,98 702.6,103 702.6,113 694,118 685.4,113 685.4,103" fill="none" stroke="#39FF14" stroke-width="1" opacity="0.023363427643388165"/>
<polygon points="71,97 79.6,102 79.6,112 71,117 62.4,112 62.4,102" fill="none" stroke="#39FF14" stroke-width="1" opacity="0.06432543526068467"/>
</g>

  <!-- HUD Decorative elements -->
  <path d="M 20 20 L 40 20 L 50 30" fill="none" stroke="#39FF14" stroke-width="2" opacity="0.5"/>
  <path d="M 830 180 L 810 180 L 800 170" fill="none" stroke="#39FF14" stroke-width="2" opacity="0.5"/>

  <g clip-path="url(#dashClip)">
    <rect x="-160" y="0" width="160" height="200" fill="url(#scanlineGrad)">
      <animateTransform attributeName="transform" type="translate"
                        from="0 0" to="1010 0" dur="6s" repeatCount="indefinite"/>
    </rect>
  </g>

  <g font-family="'Consolas', 'Fira Code', monospace" text-anchor="middle">

    <!-- NETWORK STATUS -->
    <g transform="translate(130, 100)">
        <circle cx="0" cy="0" r="45" fill="none" stroke="#39FF14" stroke-width="2" stroke-dasharray="10 5">
            <animateTransform attributeName="transform" type="rotate" from="0" to="360" dur="10s" repeatCount="indefinite"/>
        </circle>
        <circle cx="0" cy="0" r="35" fill="#0d0d0d" />
        <text x="0" y="-60" font-size="12" fill="#aaaaaa" letter-spacing="2">ROOT.AUTH</text>
        <text x="0" y="70" font-size="14" fill="#ffffff" font-weight="bold">OPERATIONAL</text>
    </g>

    <!-- ACTIVE USERS -->
    <g transform="translate(330, 100)">
        <text x="0" y="-20" font-size="12" fill="#aaaaaa">CITIZENS</text>
        <text x="0" y="15" font-size="28" fill="#ffffff" font-weight="bold" filter="url(#textGlow)">15,108</text>
        <text x="0" y="35" font-size="10" fill="#777777">VERIFIED HUMANS</text>
    </g>

    <!-- REGISTERED AGENTS -->
    <g transform="translate(530, 100)">
        <text x="0" y="-20" font-size="12" fill="#aaaaaa">AGENTS</text>
        <text x="0" y="15" font-size="28" fill="#00d4ff" font-weight="bold" filter="url(#textGlow)">3,506</text>
        <text x="0" y="35" font-size="10" fill="#777777">REGISTERED DIDs</text>
    </g>

    <!-- TRANSACTIONS -->
    <g transform="translate(730, 100)">
        <text x="0" y="-20" font-size="12" fill="#aaaaaa">TRANSFERS</text>
        <text x="0" y="15" font-size="28" fill="#ffffff" font-weight="bold">40,186</text>
        <text x="0" y="35" font-size="10" fill="#777777">M2M SETTLEMENTS</text>
    </g>
  </g>

  <text x="425" y="185" font-family="'Consolas', 'Fira Code', monospace" font-size="10" fill="#aaaaaa" opacity="0.6" text-anchor="middle">AXIOMID PROJECTED TARGETS (ILLUSTRATIVE): 2026-07-23 08:11:44 UTC // SECURE_HANDSHAKE</text>
</svg>