<svg width="850" height="200" viewBox="0 0 850 200" xmlns="http://www.w3.org/2000/svg">
  <defs>
    <pattern id="carbonFiber" width="10" height="10" patternUnits="userSpaceOnUse">
        <rect width="10" height="10" fill="#050505"/>
        <path d="M0,0 L5,5 L10,0 L5,-5 Z M5,5 L10,10 L15,5 L10,0 Z M-5,5 L0,10 L5,5 L0,0 Z M0,10 L5,15 L10,10 L5,5 Z" fill="#0d0d0d"/>
    </pattern>
    <filter id="textGlow">
      <feGaussianBlur stdDeviation="2" result="blur" />
      <feMerge>
        <feMergeNode in="blur"/>
        <feMergeNode in="SourceGraphic"/>
      </feMerge>
    </filter>
    <linearGradient id="neonBar" x1="0%" y1="0%" x2="100%" y2="0%">
        <stop offset="0%" stop-color="#111111"/>
        <stop offset="100%" stop-color="#39FF14"/>
    </linearGradient>
    <linearGradient id="scanlineGrad" x1="0%" y1="0%" x2="100%" y2="0%">
        <stop offset="0%" stop-color="#39FF14" stop-opacity="0"/>
        <stop offset="50%" stop-color="#39FF14" stop-opacity="0.18"/>
        <stop offset="100%" stop-color="#39FF14" stop-opacity="0"/>
    </linearGradient>
    <clipPath id="dashClip">
        <rect x="0" y="0" width="850" height="200" rx="12"/>
    </clipPath>
  </defs>

  <rect width="100%" height="100%" fill="url(#carbonFiber)" rx="12" stroke="#39FF14" stroke-width="1" stroke-opacity="0.3"/>
  <rect width="100%" height="100%" fill="#000000" opacity="0.6" rx="12" />
  <g><polygon points="52,126 60.6,131 60.6,141 52,146 43.4,141 43.4,131" fill="none" stroke="#39FF14" stroke-width="1" opacity="0.0711858034465266"/>
<polygon points="90,81 98.6,86 98.6,96 90,101 81.4,96 81.4,86" fill="none" stroke="#39FF14" stroke-width="1" opacity="0.022943568838355723"/>
<polygon points="281,153 289.6,158 289.6,168 281,173 272.4,168 272.4,158" fill="none" stroke="#39FF14" stroke-width="1" opacity="0.03080471204287178"/>
<polygon points="486,7 494.6,12 494.6,22 486,27 477.4,22 477.4,12" fill="none" stroke="#39FF14" stroke-width="1" opacity="0.05543190691382387"/>
<polygon points="11,120 19.6,125 19.6,135 11,140 2.4000000000000004,135 2.4000000000000004,125" fill="none" stroke="#39FF14" stroke-width="1" opacity="0.024585481307538834"/>
<polygon points="169,7 177.6,12 177.6,22 169,27 160.4,22 160.4,12" fill="none" stroke="#39FF14" stroke-width="1" opacity="0.04457044771767929"/>
<polygon points="374,42 382.6,47 382.6,57 374,62 365.4,57 365.4,47" fill="none" stroke="#39FF14" stroke-width="1" opacity="0.02710583402584898"/>
<polygon points="584,188 592.6,193 592.6,203 584,208 575.4,203 575.4,193" fill="none" stroke="#39FF14" stroke-width="1" opacity="0.03917282614993882"/>
<polygon points="44,22 52.6,27 52.6,37 44,42 35.4,37 35.4,27" fill="none" stroke="#39FF14" stroke-width="1" opacity="0.03755707973310354"/>
<polygon points="84,100 92.6,105 92.6,115 84,120 75.4,115 75.4,105" fill="none" stroke="#39FF14" stroke-width="1" opacity="0.06533542908689366"/>
<polygon points="518,52 526.6,57 526.6,67 518,72 509.4,67 509.4,57" fill="none" stroke="#39FF14" stroke-width="1" opacity="0.06665485227996755"/>
<polygon points="446,119 454.6,124 454.6,134 446,139 437.4,134 437.4,124" fill="none" stroke="#39FF14" stroke-width="1" opacity="0.024742286348513953"/>
<polygon points="266,21 274.6,26 274.6,36 266,41 257.4,36 257.4,26" fill="none" stroke="#39FF14" stroke-width="1" opacity="0.062121422735220935"/>
<polygon points="530,186 538.6,191 538.6,201 530,206 521.4,201 521.4,191" fill="none" stroke="#39FF14" stroke-width="1" opacity="0.05529816357378245"/>
<polygon points="228,93 236.6,98 236.6,108 228,113 219.4,108 219.4,98" fill="none" stroke="#39FF14" stroke-width="1" opacity="0.06615608994498501"/>
<polygon points="530,80 538.6,85 538.6,95 530,100 521.4,95 521.4,85" fill="none" stroke="#39FF14" stroke-width="1" opacity="0.031037281367408798"/>
<polygon points="472,26 480.6,31 480.6,41 472,46 463.4,41 463.4,31" fill="none" stroke="#39FF14" stroke-width="1" opacity="0.04462444390337725"/>
<polygon points="208,49 216.6,54 216.6,64 208,69 199.4,64 199.4,54" fill="none" stroke="#39FF14" stroke-width="1" opacity="0.030510059298144963"/>
<polygon points="466,139 474.6,144 474.6,154 466,159 457.4,154 457.4,144" fill="none" stroke="#39FF14" stroke-width="1" opacity="0.06406281689539513"/>
<polygon points="14,4 22.6,9 22.6,19 14,24 5.4,19 5.4,9" fill="none" stroke="#39FF14" stroke-width="1" opacity="0.04796598099135281"/>
<polygon points="423,99 431.6,104 431.6,114 423,119 414.4,114 414.4,104" fill="none" stroke="#39FF14" stroke-width="1" opacity="0.06768514383151125"/>
<polygon points="583,38 591.6,43 591.6,53 583,58 574.4,53 574.4,43" fill="none" stroke="#39FF14" stroke-width="1" opacity="0.041666384356430844"/>
<polygon points="208,35 216.6,40 216.6,50 208,55 199.4,50 199.4,40" fill="none" stroke="#39FF14" stroke-width="1" opacity="0.05445958209721105"/>
<polygon points="380,134 388.6,139 388.6,149 380,154 371.4,149 371.4,139" fill="none" stroke="#39FF14" stroke-width="1" opacity="0.0715892636815753"/>
<polygon points="609,147 617.6,152 617.6,162 609,167 600.4,162 600.4,152" fill="none" stroke="#39FF14" stroke-width="1" opacity="0.029174276234732104"/>
<polygon points="45,46 53.6,51 53.6,61 45,66 36.4,61 36.4,51" fill="none" stroke="#39FF14" stroke-width="1" opacity="0.03658319581898725"/>
<polygon points="583,94 591.6,99 591.6,109 583,114 574.4,109 574.4,99" fill="none" stroke="#39FF14" stroke-width="1" opacity="0.048976042067789945"/>
<polygon points="458,136 466.6,141 466.6,151 458,156 449.4,151 449.4,141" fill="none" stroke="#39FF14" stroke-width="1" opacity="0.02746686644881898"/>
<polygon points="794,88 802.6,93 802.6,103 794,108 785.4,103 785.4,93" fill="none" stroke="#39FF14" stroke-width="1" opacity="0.03080175785543423"/>
<polygon points="242,39 250.6,44 250.6,54 242,59 233.4,54 233.4,44" fill="none" stroke="#39FF14" stroke-width="1" opacity="0.0480213429676885"/>
</g>

  <!-- HUD Decorative elements -->
  <path d="M 20 20 L 40 20 L 50 30" fill="none" stroke="#39FF14" stroke-width="2" opacity="0.5"/>
  <path d="M 830 180 L 810 180 L 800 170" fill="none" stroke="#39FF14" stroke-width="2" opacity="0.5"/>

  <g clip-path="url(#dashClip)">
    <rect x="-160" y="0" width="160" height="200" fill="url(#scanlineGrad)">
      <animateTransform attributeName="transform" type="translate"
                        from="0 0" to="1010 0" dur="6s" repeatCount="indefinite"/>
    </rect>
  </g>

  <g font-family="'Consolas', 'Fira Code', monospace" text-anchor="middle">

    <!-- NETWORK STATUS -->
    <g transform="translate(130, 100)">
        <circle cx="0" cy="0" r="45" fill="none" stroke="#39FF14" stroke-width="2" stroke-dasharray="10 5">
            <animateTransform attributeName="transform" type="rotate" from="0" to="360" dur="10s" repeatCount="indefinite"/>
        </circle>
        <circle cx="0" cy="0" r="35" fill="#0d0d0d" />
        <text x="0" y="-60" font-size="12" fill="#aaaaaa" letter-spacing="2">ROOT.AUTH</text>
        <text x="0" y="70" font-size="14" fill="#ffffff" font-weight="bold">OPERATIONAL</text>
    </g>

    <!-- ACTIVE USERS -->
    <g transform="translate(330, 100)">
        <text x="0" y="-20" font-size="12" fill="#aaaaaa">CITIZENS</text>
        <text x="0" y="15" font-size="28" fill="#ffffff" font-weight="bold" filter="url(#textGlow)">13,530</text>
        <text x="0" y="35" font-size="10" fill="#777777">VERIFIED HUMANS</text>
    </g>

    <!-- REGISTERED AGENTS -->
    <g transform="translate(530, 100)">
        <text x="0" y="-20" font-size="12" fill="#aaaaaa">AGENTS</text>
        <text x="0" y="15" font-size="28" fill="#00d4ff" font-weight="bold" filter="url(#textGlow)">4,188</text>
        <text x="0" y="35" font-size="10" fill="#777777">REGISTERED DIDs</text>
    </g>

    <!-- TRANSACTIONS -->
    <g transform="translate(730, 100)">
        <text x="0" y="-20" font-size="12" fill="#aaaaaa">TRANSFERS</text>
        <text x="0" y="15" font-size="28" fill="#ffffff" font-weight="bold">28,773</text>
        <text x="0" y="35" font-size="10" fill="#777777">M2M SETTLEMENTS</text>
    </g>
  </g>

  <text x="425" y="185" font-family="'Consolas', 'Fira Code', monospace" font-size="10" fill="#aaaaaa" opacity="0.6" text-anchor="middle">AXIOMID PROJECTED TARGETS (ILLUSTRATIVE): 2026-07-10 01:57:14 UTC // SECURE_HANDSHAKE</text>
</svg>