<svg width="850" height="200" viewBox="0 0 850 200" xmlns="http://www.w3.org/2000/svg">
  <defs>
    <pattern id="carbonFiber" width="10" height="10" patternUnits="userSpaceOnUse">
        <rect width="10" height="10" fill="#050505"/>
        <path d="M0,0 L5,5 L10,0 L5,-5 Z M5,5 L10,10 L15,5 L10,0 Z M-5,5 L0,10 L5,5 L0,0 Z M0,10 L5,15 L10,10 L5,5 Z" fill="#0d0d0d"/>
    </pattern>
    <filter id="textGlow">
      <feGaussianBlur stdDeviation="2" result="blur" />
      <feMerge>
        <feMergeNode in="blur"/>
        <feMergeNode in="SourceGraphic"/>
      </feMerge>
    </filter>
    <linearGradient id="neonBar" x1="0%" y1="0%" x2="100%" y2="0%">
        <stop offset="0%" stop-color="#111111"/>
        <stop offset="100%" stop-color="#39FF14"/>
    </linearGradient>
    <linearGradient id="scanlineGrad" x1="0%" y1="0%" x2="100%" y2="0%">
        <stop offset="0%" stop-color="#39FF14" stop-opacity="0"/>
        <stop offset="50%" stop-color="#39FF14" stop-opacity="0.18"/>
        <stop offset="100%" stop-color="#39FF14" stop-opacity="0"/>
    </linearGradient>
    <clipPath id="dashClip">
        <rect x="0" y="0" width="850" height="200" rx="12"/>
    </clipPath>
  </defs>

  <rect width="100%" height="100%" fill="url(#carbonFiber)" rx="12" stroke="#39FF14" stroke-width="1" stroke-opacity="0.3"/>
  <rect width="100%" height="100%" fill="#000000" opacity="0.6" rx="12" />
  <g><polygon points="114,60 122.6,65 122.6,75 114,80 105.4,75 105.4,65" fill="none" stroke="#39FF14" stroke-width="1" opacity="0.05270588476654299"/>
<polygon points="349,-6 357.6,-1 357.6,9 349,14 340.4,9 340.4,-1" fill="none" stroke="#39FF14" stroke-width="1" opacity="0.03471072361060762"/>
<polygon points="96,66 104.6,71 104.6,81 96,86 87.4,81 87.4,71" fill="none" stroke="#39FF14" stroke-width="1" opacity="0.023833722291428033"/>
<polygon points="79,63 87.6,68 87.6,78 79,83 70.4,78 70.4,68" fill="none" stroke="#39FF14" stroke-width="1" opacity="0.05651911649945235"/>
<polygon points="225,54 233.6,59 233.6,69 225,74 216.4,69 216.4,59" fill="none" stroke="#39FF14" stroke-width="1" opacity="0.07356424522109316"/>
<polygon points="746,167 754.6,172 754.6,182 746,187 737.4,182 737.4,172" fill="none" stroke="#39FF14" stroke-width="1" opacity="0.02091654358331075"/>
<polygon points="757,99 765.6,104 765.6,114 757,119 748.4,114 748.4,104" fill="none" stroke="#39FF14" stroke-width="1" opacity="0.027320940993286386"/>
<polygon points="827,107 835.6,112 835.6,122 827,127 818.4,122 818.4,112" fill="none" stroke="#39FF14" stroke-width="1" opacity="0.039956419527201366"/>
<polygon points="718,164 726.6,169 726.6,179 718,184 709.4,179 709.4,169" fill="none" stroke="#39FF14" stroke-width="1" opacity="0.0523189571525781"/>
<polygon points="541,104 549.6,109 549.6,119 541,124 532.4,119 532.4,109" fill="none" stroke="#39FF14" stroke-width="1" opacity="0.03148680055986535"/>
<polygon points="782,125 790.6,130 790.6,140 782,145 773.4,140 773.4,130" fill="none" stroke="#39FF14" stroke-width="1" opacity="0.06788406204783352"/>
<polygon points="640,51 648.6,56 648.6,66 640,71 631.4,66 631.4,56" fill="none" stroke="#39FF14" stroke-width="1" opacity="0.07346897971998051"/>
<polygon points="538,186 546.6,191 546.6,201 538,206 529.4,201 529.4,191" fill="none" stroke="#39FF14" stroke-width="1" opacity="0.0474628992990646"/>
<polygon points="506,123 514.6,128 514.6,138 506,143 497.4,138 497.4,128" fill="none" stroke="#39FF14" stroke-width="1" opacity="0.06479829336965667"/>
<polygon points="561,-4 569.6,1 569.6,11 561,16 552.4,11 552.4,1" fill="none" stroke="#39FF14" stroke-width="1" opacity="0.07902663145017241"/>
<polygon points="601,119 609.6,124 609.6,134 601,139 592.4,134 592.4,124" fill="none" stroke="#39FF14" stroke-width="1" opacity="0.07171048076331148"/>
<polygon points="211,94 219.6,99 219.6,109 211,114 202.4,109 202.4,99" fill="none" stroke="#39FF14" stroke-width="1" opacity="0.04867864443068684"/>
<polygon points="634,5 642.6,10 642.6,20 634,25 625.4,20 625.4,10" fill="none" stroke="#39FF14" stroke-width="1" opacity="0.060096295599351465"/>
<polygon points="328,92 336.6,97 336.6,107 328,112 319.4,107 319.4,97" fill="none" stroke="#39FF14" stroke-width="1" opacity="0.07429351524583289"/>
<polygon points="454,96 462.6,101 462.6,111 454,116 445.4,111 445.4,101" fill="none" stroke="#39FF14" stroke-width="1" opacity="0.048881746910282686"/>
<polygon points="772,11 780.6,16 780.6,26 772,31 763.4,26 763.4,16" fill="none" stroke="#39FF14" stroke-width="1" opacity="0.06101325165023985"/>
<polygon points="660,19 668.6,24 668.6,34 660,39 651.4,34 651.4,24" fill="none" stroke="#39FF14" stroke-width="1" opacity="0.038065794733424196"/>
<polygon points="763,27 771.6,32 771.6,42 763,47 754.4,42 754.4,32" fill="none" stroke="#39FF14" stroke-width="1" opacity="0.05971051202616816"/>
<polygon points="329,136 337.6,141 337.6,151 329,156 320.4,151 320.4,141" fill="none" stroke="#39FF14" stroke-width="1" opacity="0.07103153369644599"/>
<polygon points="808,161 816.6,166 816.6,176 808,181 799.4,176 799.4,166" fill="none" stroke="#39FF14" stroke-width="1" opacity="0.03931888230296127"/>
<polygon points="768,102 776.6,107 776.6,117 768,122 759.4,117 759.4,107" fill="none" stroke="#39FF14" stroke-width="1" opacity="0.06129933650627739"/>
<polygon points="325,6 333.6,11 333.6,21 325,26 316.4,21 316.4,11" fill="none" stroke="#39FF14" stroke-width="1" opacity="0.0528015285461058"/>
<polygon points="332,35 340.6,40 340.6,50 332,55 323.4,50 323.4,40" fill="none" stroke="#39FF14" stroke-width="1" opacity="0.03506083726579578"/>
<polygon points="658,124 666.6,129 666.6,139 658,144 649.4,139 649.4,129" fill="none" stroke="#39FF14" stroke-width="1" opacity="0.022056774811986663"/>
<polygon points="476,-2 484.6,3 484.6,13 476,18 467.4,13 467.4,3" fill="none" stroke="#39FF14" stroke-width="1" opacity="0.07100981425606487"/>
</g>

  <!-- HUD Decorative elements -->
  <path d="M 20 20 L 40 20 L 50 30" fill="none" stroke="#39FF14" stroke-width="2" opacity="0.5"/>
  <path d="M 830 180 L 810 180 L 800 170" fill="none" stroke="#39FF14" stroke-width="2" opacity="0.5"/>

  <g clip-path="url(#dashClip)">
    <rect x="-160" y="0" width="160" height="200" fill="url(#scanlineGrad)">
      <animateTransform attributeName="transform" type="translate"
                        from="0 0" to="1010 0" dur="6s" repeatCount="indefinite"/>
    </rect>
  </g>

  <g font-family="'Consolas', 'Fira Code', monospace" text-anchor="middle">

    <!-- NETWORK STATUS -->
    <g transform="translate(130, 100)">
        <circle cx="0" cy="0" r="45" fill="none" stroke="#39FF14" stroke-width="2" stroke-dasharray="10 5">
            <animateTransform attributeName="transform" type="rotate" from="0" to="360" dur="10s" repeatCount="indefinite"/>
        </circle>
        <circle cx="0" cy="0" r="35" fill="#0d0d0d" />
        <text x="0" y="-60" font-size="12" fill="#aaaaaa" letter-spacing="2">ROOT.AUTH</text>
        <text x="0" y="70" font-size="14" fill="#ffffff" font-weight="bold">OPERATIONAL</text>
    </g>

    <!-- ACTIVE USERS -->
    <g transform="translate(330, 100)">
        <text x="0" y="-20" font-size="12" fill="#aaaaaa">CITIZENS</text>
        <text x="0" y="15" font-size="28" fill="#ffffff" font-weight="bold" filter="url(#textGlow)">15,062</text>
        <text x="0" y="35" font-size="10" fill="#777777">VERIFIED HUMANS</text>
    </g>

    <!-- REGISTERED AGENTS -->
    <g transform="translate(530, 100)">
        <text x="0" y="-20" font-size="12" fill="#aaaaaa">AGENTS</text>
        <text x="0" y="15" font-size="28" fill="#00d4ff" font-weight="bold" filter="url(#textGlow)">4,136</text>
        <text x="0" y="35" font-size="10" fill="#777777">REGISTERED DIDs</text>
    </g>

    <!-- TRANSACTIONS -->
    <g transform="translate(730, 100)">
        <text x="0" y="-20" font-size="12" fill="#aaaaaa">TRANSFERS</text>
        <text x="0" y="15" font-size="28" fill="#ffffff" font-weight="bold">25,381</text>
        <text x="0" y="35" font-size="10" fill="#777777">M2M SETTLEMENTS</text>
    </g>
  </g>

  <text x="425" y="185" font-family="'Consolas', 'Fira Code', monospace" font-size="10" fill="#aaaaaa" opacity="0.6" text-anchor="middle">AXIOMID PROJECTED TARGETS (ILLUSTRATIVE): 2026-07-24 05:40:18 UTC // SECURE_HANDSHAKE</text>
</svg>