<svg width="850" height="200" viewBox="0 0 850 200" xmlns="http://www.w3.org/2000/svg">
  <defs>
    <pattern id="carbonFiber" width="10" height="10" patternUnits="userSpaceOnUse">
        <rect width="10" height="10" fill="#050505"/>
        <path d="M0,0 L5,5 L10,0 L5,-5 Z M5,5 L10,10 L15,5 L10,0 Z M-5,5 L0,10 L5,5 L0,0 Z M0,10 L5,15 L10,10 L5,5 Z" fill="#0d0d0d"/>
    </pattern>
    <filter id="textGlow">
      <feGaussianBlur stdDeviation="2" result="blur" />
      <feMerge>
        <feMergeNode in="blur"/>
        <feMergeNode in="SourceGraphic"/>
      </feMerge>
    </filter>
    <linearGradient id="neonBar" x1="0%" y1="0%" x2="100%" y2="0%">
        <stop offset="0%" stop-color="#111111"/>
        <stop offset="100%" stop-color="#39FF14"/>
    </linearGradient>
    <linearGradient id="scanlineGrad" x1="0%" y1="0%" x2="100%" y2="0%">
        <stop offset="0%" stop-color="#39FF14" stop-opacity="0"/>
        <stop offset="50%" stop-color="#39FF14" stop-opacity="0.18"/>
        <stop offset="100%" stop-color="#39FF14" stop-opacity="0"/>
    </linearGradient>
    <clipPath id="dashClip">
        <rect x="0" y="0" width="850" height="200" rx="12"/>
    </clipPath>
  </defs>

  <rect width="100%" height="100%" fill="url(#carbonFiber)" rx="12" stroke="#39FF14" stroke-width="1" stroke-opacity="0.3"/>
  <rect width="100%" height="100%" fill="#000000" opacity="0.6" rx="12" />
  <g><polygon points="834,13 842.6,18 842.6,28 834,33 825.4,28 825.4,18" fill="none" stroke="#39FF14" stroke-width="1" opacity="0.04791798038065673"/>
<polygon points="1,74 9.6,79 9.6,89 1,94 -7.6,89 -7.6,79" fill="none" stroke="#39FF14" stroke-width="1" opacity="0.05531878939734983"/>
<polygon points="112,71 120.6,76 120.6,86 112,91 103.4,86 103.4,76" fill="none" stroke="#39FF14" stroke-width="1" opacity="0.04667082361197199"/>
<polygon points="579,120 587.6,125 587.6,135 579,140 570.4,135 570.4,125" fill="none" stroke="#39FF14" stroke-width="1" opacity="0.06855785734704255"/>
<polygon points="646,-6 654.6,-1 654.6,9 646,14 637.4,9 637.4,-1" fill="none" stroke="#39FF14" stroke-width="1" opacity="0.05375614663752053"/>
<polygon points="171,4 179.6,9 179.6,19 171,24 162.4,19 162.4,9" fill="none" stroke="#39FF14" stroke-width="1" opacity="0.06487033606673555"/>
<polygon points="67,79 75.6,84 75.6,94 67,99 58.4,94 58.4,84" fill="none" stroke="#39FF14" stroke-width="1" opacity="0.06449566921805398"/>
<polygon points="158,84 166.6,89 166.6,99 158,104 149.4,99 149.4,89" fill="none" stroke="#39FF14" stroke-width="1" opacity="0.05245189629729746"/>
<polygon points="414,128 422.6,133 422.6,143 414,148 405.4,143 405.4,133" fill="none" stroke="#39FF14" stroke-width="1" opacity="0.07299948667343893"/>
<polygon points="303,82 311.6,87 311.6,97 303,102 294.4,97 294.4,87" fill="none" stroke="#39FF14" stroke-width="1" opacity="0.0312782316710744"/>
<polygon points="458,162 466.6,167 466.6,177 458,182 449.4,177 449.4,167" fill="none" stroke="#39FF14" stroke-width="1" opacity="0.0785160931755018"/>
<polygon points="318,104 326.6,109 326.6,119 318,124 309.4,119 309.4,109" fill="none" stroke="#39FF14" stroke-width="1" opacity="0.05074940718506682"/>
<polygon points="116,48 124.6,53 124.6,63 116,68 107.4,63 107.4,53" fill="none" stroke="#39FF14" stroke-width="1" opacity="0.058365148361426145"/>
<polygon points="164,95 172.6,100 172.6,110 164,115 155.4,110 155.4,100" fill="none" stroke="#39FF14" stroke-width="1" opacity="0.06901071837292401"/>
<polygon points="435,75 443.6,80 443.6,90 435,95 426.4,90 426.4,80" fill="none" stroke="#39FF14" stroke-width="1" opacity="0.02192623237042278"/>
<polygon points="264,185 272.6,190 272.6,200 264,205 255.4,200 255.4,190" fill="none" stroke="#39FF14" stroke-width="1" opacity="0.07267938430545572"/>
<polygon points="431,135 439.6,140 439.6,150 431,155 422.4,150 422.4,140" fill="none" stroke="#39FF14" stroke-width="1" opacity="0.07057365812977784"/>
<polygon points="350,30 358.6,35 358.6,45 350,50 341.4,45 341.4,35" fill="none" stroke="#39FF14" stroke-width="1" opacity="0.0476995276076631"/>
<polygon points="491,91 499.6,96 499.6,106 491,111 482.4,106 482.4,96" fill="none" stroke="#39FF14" stroke-width="1" opacity="0.043819236274961836"/>
<polygon points="130,29 138.6,34 138.6,44 130,49 121.4,44 121.4,34" fill="none" stroke="#39FF14" stroke-width="1" opacity="0.046599861091693444"/>
<polygon points="610,39 618.6,44 618.6,54 610,59 601.4,54 601.4,44" fill="none" stroke="#39FF14" stroke-width="1" opacity="0.05482941564299815"/>
<polygon points="737,21 745.6,26 745.6,36 737,41 728.4,36 728.4,26" fill="none" stroke="#39FF14" stroke-width="1" opacity="0.0611176807954428"/>
<polygon points="833,-1 841.6,4 841.6,14 833,19 824.4,14 824.4,4" fill="none" stroke="#39FF14" stroke-width="1" opacity="0.07913858043253945"/>
<polygon points="831,125 839.6,130 839.6,140 831,145 822.4,140 822.4,130" fill="none" stroke="#39FF14" stroke-width="1" opacity="0.07839741901738582"/>
<polygon points="556,55 564.6,60 564.6,70 556,75 547.4,70 547.4,60" fill="none" stroke="#39FF14" stroke-width="1" opacity="0.026035254776699344"/>
<polygon points="402,90 410.6,95 410.6,105 402,110 393.4,105 393.4,95" fill="none" stroke="#39FF14" stroke-width="1" opacity="0.07435906371690967"/>
<polygon points="500,-5 508.6,0 508.6,10 500,15 491.4,10 491.4,0" fill="none" stroke="#39FF14" stroke-width="1" opacity="0.029792077910373048"/>
<polygon points="729,100 737.6,105 737.6,115 729,120 720.4,115 720.4,105" fill="none" stroke="#39FF14" stroke-width="1" opacity="0.029734706593244443"/>
<polygon points="593,122 601.6,127 601.6,137 593,142 584.4,137 584.4,127" fill="none" stroke="#39FF14" stroke-width="1" opacity="0.0775543526626243"/>
<polygon points="666,-2 674.6,3 674.6,13 666,18 657.4,13 657.4,3" fill="none" stroke="#39FF14" stroke-width="1" opacity="0.04650959115450197"/>
</g>

  <!-- HUD Decorative elements -->
  <path d="M 20 20 L 40 20 L 50 30" fill="none" stroke="#39FF14" stroke-width="2" opacity="0.5"/>
  <path d="M 830 180 L 810 180 L 800 170" fill="none" stroke="#39FF14" stroke-width="2" opacity="0.5"/>

  <g clip-path="url(#dashClip)">
    <rect x="-160" y="0" width="160" height="200" fill="url(#scanlineGrad)">
      <animateTransform attributeName="transform" type="translate"
                        from="0 0" to="1010 0" dur="6s" repeatCount="indefinite"/>
    </rect>
  </g>

  <g font-family="'Consolas', 'Fira Code', monospace" text-anchor="middle">

    <!-- NETWORK STATUS -->
    <g transform="translate(130, 100)">
        <circle cx="0" cy="0" r="45" fill="none" stroke="#39FF14" stroke-width="2" stroke-dasharray="10 5">
            <animateTransform attributeName="transform" type="rotate" from="0" to="360" dur="10s" repeatCount="indefinite"/>
        </circle>
        <circle cx="0" cy="0" r="35" fill="#0d0d0d" />
        <text x="0" y="-60" font-size="12" fill="#aaaaaa" letter-spacing="2">ROOT.AUTH</text>
        <text x="0" y="70" font-size="14" fill="#ffffff" font-weight="bold">OPERATIONAL</text>
    </g>

    <!-- ACTIVE USERS -->
    <g transform="translate(330, 100)">
        <text x="0" y="-20" font-size="12" fill="#aaaaaa">CITIZENS</text>
        <text x="0" y="15" font-size="28" fill="#ffffff" font-weight="bold" filter="url(#textGlow)">12,693</text>
        <text x="0" y="35" font-size="10" fill="#777777">VERIFIED HUMANS</text>
    </g>

    <!-- REGISTERED AGENTS -->
    <g transform="translate(530, 100)">
        <text x="0" y="-20" font-size="12" fill="#aaaaaa">AGENTS</text>
        <text x="0" y="15" font-size="28" fill="#00d4ff" font-weight="bold" filter="url(#textGlow)">3,861</text>
        <text x="0" y="35" font-size="10" fill="#777777">REGISTERED DIDs</text>
    </g>

    <!-- TRANSACTIONS -->
    <g transform="translate(730, 100)">
        <text x="0" y="-20" font-size="12" fill="#aaaaaa">TRANSFERS</text>
        <text x="0" y="15" font-size="28" fill="#ffffff" font-weight="bold">35,903</text>
        <text x="0" y="35" font-size="10" fill="#777777">M2M SETTLEMENTS</text>
    </g>
  </g>

  <text x="425" y="185" font-family="'Consolas', 'Fira Code', monospace" font-size="10" fill="#aaaaaa" opacity="0.6" text-anchor="middle">AXIOMID PROJECTED TARGETS (ILLUSTRATIVE): 2026-07-16 10:49:00 UTC // SECURE_HANDSHAKE</text>
</svg>