<svg width="850" height="200" viewBox="0 0 850 200" xmlns="http://www.w3.org/2000/svg">
  <defs>
    <!-- Carbon Fiber Pattern -->
    <pattern id="carbonFiber" width="10" height="10" patternUnits="userSpaceOnUse">
        <rect width="10" height="10" fill="#050505"/>
        <path d="M0,0 L5,5 L10,0 L5,-5 Z M5,5 L10,10 L15,5 L10,0 Z M-5,5 L0,10 L5,5 L0,0 Z M0,10 L5,15 L10,10 L5,5 Z" fill="#0d0d0d"/>
    </pattern>
    <filter id="glassmorphism">
      <feGaussianBlur stdDeviation="3" result="blur" />
      <feColorMatrix type="matrix" values="1 0 0 0 0  0 1 0 0 0  0 0 1 0 0  0 0 0 18 -7" result="glow" />
      <feBlend in="SourceGraphic" in2="glow" mode="normal" />
    </filter>
    <filter id="textGlow">
      <feGaussianBlur stdDeviation="2" result="blur" />
      <feMerge>
        <feMergeNode in="blur"/>
        <feMergeNode in="SourceGraphic"/>
      </feMerge>
    </filter>
    <linearGradient id="neonBar" x1="0%" y1="0%" x2="100%" y2="0%">
        <stop offset="0%" stop-color="#111111"/>
        <stop offset="100%" stop-color="#39FF14"/>
    </linearGradient>
  </defs>

  <rect width="100%" height="100%" fill="url(#carbonFiber)" rx="12" stroke="#39FF14" stroke-width="1" stroke-opacity="0.3"/>
  <rect width="100%" height="100%" fill="#000000" opacity="0.6" rx="12" />
  <g><polygon points="102,-10 110.6,-5 110.6,5 102,10 93.4,5 93.4,-5" fill="none" stroke="#39FF14" stroke-width="1" opacity="0.04631080161327215"/>
<polygon points="467,57 475.6,62 475.6,72 467,77 458.4,72 458.4,62" fill="none" stroke="#39FF14" stroke-width="1" opacity="0.020544293427234336"/>
<polygon points="539,155 547.6,160 547.6,170 539,175 530.4,170 530.4,160" fill="none" stroke="#39FF14" stroke-width="1" opacity="0.07871058208160811"/>
<polygon points="590,136 598.6,141 598.6,151 590,156 581.4,151 581.4,141" fill="none" stroke="#39FF14" stroke-width="1" opacity="0.031108773428386485"/>
<polygon points="3,52 11.6,57 11.6,67 3,72 -5.6,67 -5.6,57" fill="none" stroke="#39FF14" stroke-width="1" opacity="0.05127749027640796"/>
<polygon points="695,177 703.6,182 703.6,192 695,197 686.4,192 686.4,182" fill="none" stroke="#39FF14" stroke-width="1" opacity="0.07439649300275458"/>
<polygon points="513,132 521.6,137 521.6,147 513,152 504.4,147 504.4,137" fill="none" stroke="#39FF14" stroke-width="1" opacity="0.06721603703792173"/>
<polygon points="835,108 843.6,113 843.6,123 835,128 826.4,123 826.4,113" fill="none" stroke="#39FF14" stroke-width="1" opacity="0.03979163693280284"/>
<polygon points="714,5 722.6,10 722.6,20 714,25 705.4,20 705.4,10" fill="none" stroke="#39FF14" stroke-width="1" opacity="0.021251315407064708"/>
<polygon points="690,156 698.6,161 698.6,171 690,176 681.4,171 681.4,161" fill="none" stroke="#39FF14" stroke-width="1" opacity="0.028496306008705397"/>
<polygon points="389,159 397.6,164 397.6,174 389,179 380.4,174 380.4,164" fill="none" stroke="#39FF14" stroke-width="1" opacity="0.06560296739248321"/>
<polygon points="333,36 341.6,41 341.6,51 333,56 324.4,51 324.4,41" fill="none" stroke="#39FF14" stroke-width="1" opacity="0.02240368606204792"/>
<polygon points="43,152 51.6,157 51.6,167 43,172 34.4,167 34.4,157" fill="none" stroke="#39FF14" stroke-width="1" opacity="0.021419787754052785"/>
<polygon points="415,21 423.6,26 423.6,36 415,41 406.4,36 406.4,26" fill="none" stroke="#39FF14" stroke-width="1" opacity="0.04030837909659095"/>
<polygon points="568,128 576.6,133 576.6,143 568,148 559.4,143 559.4,133" fill="none" stroke="#39FF14" stroke-width="1" opacity="0.04410363741122704"/>
<polygon points="748,80 756.6,85 756.6,95 748,100 739.4,95 739.4,85" fill="none" stroke="#39FF14" stroke-width="1" opacity="0.07958104755320163"/>
<polygon points="432,36 440.6,41 440.6,51 432,56 423.4,51 423.4,41" fill="none" stroke="#39FF14" stroke-width="1" opacity="0.03084135560782362"/>
<polygon points="595,35 603.6,40 603.6,50 595,55 586.4,50 586.4,40" fill="none" stroke="#39FF14" stroke-width="1" opacity="0.06398927744684409"/>
<polygon points="559,162 567.6,167 567.6,177 559,182 550.4,177 550.4,167" fill="none" stroke="#39FF14" stroke-width="1" opacity="0.022352111769193633"/>
<polygon points="675,85 683.6,90 683.6,100 675,105 666.4,100 666.4,90" fill="none" stroke="#39FF14" stroke-width="1" opacity="0.04503791286494718"/>
<polygon points="459,138 467.6,143 467.6,153 459,158 450.4,153 450.4,143" fill="none" stroke="#39FF14" stroke-width="1" opacity="0.04926346666994838"/>
<polygon points="743,182 751.6,187 751.6,197 743,202 734.4,197 734.4,187" fill="none" stroke="#39FF14" stroke-width="1" opacity="0.02637824485220998"/>
<polygon points="98,187 106.6,192 106.6,202 98,207 89.4,202 89.4,192" fill="none" stroke="#39FF14" stroke-width="1" opacity="0.02867577485558262"/>
<polygon points="361,23 369.6,28 369.6,38 361,43 352.4,38 352.4,28" fill="none" stroke="#39FF14" stroke-width="1" opacity="0.07004128512598992"/>
<polygon points="164,48 172.6,53 172.6,63 164,68 155.4,63 155.4,53" fill="none" stroke="#39FF14" stroke-width="1" opacity="0.050381090053414346"/>
<polygon points="291,22 299.6,27 299.6,37 291,42 282.4,37 282.4,27" fill="none" stroke="#39FF14" stroke-width="1" opacity="0.04600304464308966"/>
<polygon points="44,22 52.6,27 52.6,37 44,42 35.4,37 35.4,27" fill="none" stroke="#39FF14" stroke-width="1" opacity="0.052486694119342536"/>
<polygon points="371,42 379.6,47 379.6,57 371,62 362.4,57 362.4,47" fill="none" stroke="#39FF14" stroke-width="1" opacity="0.0631769041036086"/>
<polygon points="10,125 18.6,130 18.6,140 10,145 1.4000000000000004,140 1.4000000000000004,130" fill="none" stroke="#39FF14" stroke-width="1" opacity="0.07559567212598958"/>
<polygon points="17,143 25.6,148 25.6,158 17,163 8.4,158 8.4,148" fill="none" stroke="#39FF14" stroke-width="1" opacity="0.054547821947196234"/>
</g>

  <!-- HUD Decorative elements -->
  <path d="M 20 20 L 40 20 L 50 30" fill="none" stroke="#39FF14" stroke-width="2" opacity="0.5"/>
  <path d="M 830 180 L 810 180 L 800 170" fill="none" stroke="#39FF14" stroke-width="2" opacity="0.5"/>
  <rect x="20" y="100" width="2" height="40" fill="#ffffff" opacity="0.4"/>
  <rect x="828" y="60" width="2" height="40" fill="#39FF14" opacity="0.6"/>

  <g font-family="'Consolas', 'Fira Code', monospace" text-anchor="middle">

    <!-- SYSTEM STATUS -->
    <g transform="translate(130, 100)">
        <circle cx="0" cy="0" r="45" fill="none" stroke="#111111" stroke-width="8" />
        <circle cx="0" cy="0" r="45" fill="none" stroke="#39FF14" stroke-width="2" stroke-dasharray="10 5">
            <animateTransform attributeName="transform" type="rotate" from="0" to="360" dur="10s" repeatCount="indefinite"/>
        </circle>
        <circle cx="0" cy="0" r="35" fill="#0d0d0d" />
        <circle cx="0" cy="0" r="6" fill="#39FF14" filter="url(#textGlow)">
            <animate attributeName="opacity" values="1;0.3;1" dur="2s" repeatCount="indefinite"/>
        </circle>
        <text x="0" y="-60" font-size="12" fill="#aaaaaa" letter-spacing="2">SYS.CORE</text>
        <text x="0" y="70" font-size="14" fill="#ffffff" font-weight="bold">ONLINE</text>
    </g>

    <!-- LIVE TRAFFIC -->
    <g transform="translate(330, 100)">
        <rect x="-60" y="-45" width="120" height="90" fill="#0a0a0a" rx="8" stroke="#39FF14" stroke-opacity="0.4" stroke-width="1"/>
        <text x="0" y="-20" font-size="12" fill="#aaaaaa">NETWORK LOAD</text>
        <text x="0" y="15" font-size="28" fill="#ffffff" font-weight="bold" filter="url(#textGlow)">7624</text>
        <text x="0" y="35" font-size="10" fill="#777777">ACTIVE SESSIONS</text>
    </g>

    <!-- ACTIVE AGENTS -->
    <g transform="translate(530, 100)">
        <rect x="-60" y="-45" width="120" height="90" fill="#0a0a0a" rx="8" stroke="#39FF14" stroke-opacity="0.4" stroke-width="1"/>
        <text x="0" y="-20" font-size="12" fill="#aaaaaa">SWARM ENTITIES</text>
        <text x="0" y="15" font-size="28" fill="#ffffff" font-weight="bold" filter="url(#textGlow)">178</text>
        <text x="0" y="35" font-size="10" fill="#777777">AUTONOMOUS</text>
    </g>

    <!-- UPTIME -->
    <g transform="translate(730, 100)">
        <path d="M -40 -35 L 40 -35 L 50 -25 L 50 35 L -40 35 L -50 25 Z" fill="#0a0a0a" stroke="#39FF14" stroke-opacity="0.4" stroke-width="1"/>
        <text x="0" y="-15" font-size="12" fill="#aaaaaa">CONTINUITY</text>
        <text x="0" y="15" font-size="24" fill="#ffffff" font-weight="bold">350<tspan font-size="14" fill="#777777">d</tspan></text>
        <rect x="-35" y="25" width="70" height="4" fill="url(#neonBar)" rx="2"/>
    </g>
  </g>

  <text x="425" y="185" font-family="'Consolas', 'Fira Code', monospace" font-size="10" fill="#aaaaaa" opacity="0.6" text-anchor="middle">LAST TELEMETRY PING: 2026-05-02 12:24:29 UTC // ENCRYPTED_TUNNEL</text>
</svg>