<svg width="850" height="200" viewBox="0 0 850 200" xmlns="http://www.w3.org/2000/svg">
  <defs>
    <pattern id="carbonFiber" width="10" height="10" patternUnits="userSpaceOnUse">
        <rect width="10" height="10" fill="#050505"/>
        <path d="M0,0 L5,5 L10,0 L5,-5 Z M5,5 L10,10 L15,5 L10,0 Z M-5,5 L0,10 L5,5 L0,0 Z M0,10 L5,15 L10,10 L5,5 Z" fill="#0d0d0d"/>
    </pattern>
    <filter id="textGlow">
      <feGaussianBlur stdDeviation="2" result="blur" />
      <feMerge>
        <feMergeNode in="blur"/>
        <feMergeNode in="SourceGraphic"/>
      </feMerge>
    </filter>
    <linearGradient id="neonBar" x1="0%" y1="0%" x2="100%" y2="0%">
        <stop offset="0%" stop-color="#111111"/>
        <stop offset="100%" stop-color="#39FF14"/>
    </linearGradient>
    <linearGradient id="scanlineGrad" x1="0%" y1="0%" x2="100%" y2="0%">
        <stop offset="0%" stop-color="#39FF14" stop-opacity="0"/>
        <stop offset="50%" stop-color="#39FF14" stop-opacity="0.18"/>
        <stop offset="100%" stop-color="#39FF14" stop-opacity="0"/>
    </linearGradient>
    <clipPath id="dashClip">
        <rect x="0" y="0" width="850" height="200" rx="12"/>
    </clipPath>
  </defs>

  <rect width="100%" height="100%" fill="url(#carbonFiber)" rx="12" stroke="#39FF14" stroke-width="1" stroke-opacity="0.3"/>
  <rect width="100%" height="100%" fill="#000000" opacity="0.6" rx="12" />
  <g><polygon points="158,84 166.6,89 166.6,99 158,104 149.4,99 149.4,89" fill="none" stroke="#39FF14" stroke-width="1" opacity="0.07527091481639768"/>
<polygon points="241,0 249.6,5 249.6,15 241,20 232.4,15 232.4,5" fill="none" stroke="#39FF14" stroke-width="1" opacity="0.07419402916128881"/>
<polygon points="335,181 343.6,186 343.6,196 335,201 326.4,196 326.4,186" fill="none" stroke="#39FF14" stroke-width="1" opacity="0.04743253336354693"/>
<polygon points="237,100 245.6,105 245.6,115 237,120 228.4,115 228.4,105" fill="none" stroke="#39FF14" stroke-width="1" opacity="0.023270840391578146"/>
<polygon points="432,81 440.6,86 440.6,96 432,101 423.4,96 423.4,86" fill="none" stroke="#39FF14" stroke-width="1" opacity="0.03879110930759189"/>
<polygon points="657,69 665.6,74 665.6,84 657,89 648.4,84 648.4,74" fill="none" stroke="#39FF14" stroke-width="1" opacity="0.05027590095271027"/>
<polygon points="573,0 581.6,5 581.6,15 573,20 564.4,15 564.4,5" fill="none" stroke="#39FF14" stroke-width="1" opacity="0.07381064627385726"/>
<polygon points="6,14 14.6,19 14.6,29 6,34 -2.5999999999999996,29 -2.5999999999999996,19" fill="none" stroke="#39FF14" stroke-width="1" opacity="0.026787269862377516"/>
<polygon points="152,55 160.6,60 160.6,70 152,75 143.4,70 143.4,60" fill="none" stroke="#39FF14" stroke-width="1" opacity="0.04426633477186683"/>
<polygon points="519,57 527.6,62 527.6,72 519,77 510.4,72 510.4,62" fill="none" stroke="#39FF14" stroke-width="1" opacity="0.0759439533455027"/>
<polygon points="540,76 548.6,81 548.6,91 540,96 531.4,91 531.4,81" fill="none" stroke="#39FF14" stroke-width="1" opacity="0.03217122043770063"/>
<polygon points="813,50 821.6,55 821.6,65 813,70 804.4,65 804.4,55" fill="none" stroke="#39FF14" stroke-width="1" opacity="0.044969616743825186"/>
<polygon points="418,62 426.6,67 426.6,77 418,82 409.4,77 409.4,67" fill="none" stroke="#39FF14" stroke-width="1" opacity="0.04171295334245578"/>
<polygon points="450,67 458.6,72 458.6,82 450,87 441.4,82 441.4,72" fill="none" stroke="#39FF14" stroke-width="1" opacity="0.07808293006764026"/>
<polygon points="310,124 318.6,129 318.6,139 310,144 301.4,139 301.4,129" fill="none" stroke="#39FF14" stroke-width="1" opacity="0.05816437498616377"/>
<polygon points="575,-10 583.6,-5 583.6,5 575,10 566.4,5 566.4,-5" fill="none" stroke="#39FF14" stroke-width="1" opacity="0.07923398336972293"/>
<polygon points="198,57 206.6,62 206.6,72 198,77 189.4,72 189.4,62" fill="none" stroke="#39FF14" stroke-width="1" opacity="0.06387120094921327"/>
<polygon points="671,173 679.6,178 679.6,188 671,193 662.4,188 662.4,178" fill="none" stroke="#39FF14" stroke-width="1" opacity="0.0554486031857597"/>
<polygon points="34,-1 42.6,4 42.6,14 34,19 25.4,14 25.4,4" fill="none" stroke="#39FF14" stroke-width="1" opacity="0.05888887832170489"/>
<polygon points="455,136 463.6,141 463.6,151 455,156 446.4,151 446.4,141" fill="none" stroke="#39FF14" stroke-width="1" opacity="0.061084978247162136"/>
<polygon points="668,165 676.6,170 676.6,180 668,185 659.4,180 659.4,170" fill="none" stroke="#39FF14" stroke-width="1" opacity="0.038571681306236824"/>
<polygon points="89,102 97.6,107 97.6,117 89,122 80.4,117 80.4,107" fill="none" stroke="#39FF14" stroke-width="1" opacity="0.026810336422922694"/>
<polygon points="805,25 813.6,30 813.6,40 805,45 796.4,40 796.4,30" fill="none" stroke="#39FF14" stroke-width="1" opacity="0.021597041705721166"/>
<polygon points="760,187 768.6,192 768.6,202 760,207 751.4,202 751.4,192" fill="none" stroke="#39FF14" stroke-width="1" opacity="0.0792688087092798"/>
<polygon points="10,136 18.6,141 18.6,151 10,156 1.4000000000000004,151 1.4000000000000004,141" fill="none" stroke="#39FF14" stroke-width="1" opacity="0.05065792941593246"/>
<polygon points="313,71 321.6,76 321.6,86 313,91 304.4,86 304.4,76" fill="none" stroke="#39FF14" stroke-width="1" opacity="0.041528314153378446"/>
<polygon points="305,185 313.6,190 313.6,200 305,205 296.4,200 296.4,190" fill="none" stroke="#39FF14" stroke-width="1" opacity="0.0789275502776291"/>
<polygon points="70,148 78.6,153 78.6,163 70,168 61.4,163 61.4,153" fill="none" stroke="#39FF14" stroke-width="1" opacity="0.04018430005966693"/>
<polygon points="621,113 629.6,118 629.6,128 621,133 612.4,128 612.4,118" fill="none" stroke="#39FF14" stroke-width="1" opacity="0.04817088358566093"/>
<polygon points="766,-1 774.6,4 774.6,14 766,19 757.4,14 757.4,4" fill="none" stroke="#39FF14" stroke-width="1" opacity="0.02362681452826032"/>
</g>

  <!-- HUD Decorative elements -->
  <path d="M 20 20 L 40 20 L 50 30" fill="none" stroke="#39FF14" stroke-width="2" opacity="0.5"/>
  <path d="M 830 180 L 810 180 L 800 170" fill="none" stroke="#39FF14" stroke-width="2" opacity="0.5"/>

  <g clip-path="url(#dashClip)">
    <rect x="-160" y="0" width="160" height="200" fill="url(#scanlineGrad)">
      <animateTransform attributeName="transform" type="translate"
                        from="0 0" to="1010 0" dur="6s" repeatCount="indefinite"/>
    </rect>
  </g>

  <g font-family="'Consolas', 'Fira Code', monospace" text-anchor="middle">

    <!-- NETWORK STATUS -->
    <g transform="translate(130, 100)">
        <circle cx="0" cy="0" r="45" fill="none" stroke="#39FF14" stroke-width="2" stroke-dasharray="10 5">
            <animateTransform attributeName="transform" type="rotate" from="0" to="360" dur="10s" repeatCount="indefinite"/>
        </circle>
        <circle cx="0" cy="0" r="35" fill="#0d0d0d" />
        <text x="0" y="-60" font-size="12" fill="#aaaaaa" letter-spacing="2">ROOT.AUTH</text>
        <text x="0" y="70" font-size="14" fill="#ffffff" font-weight="bold">OPERATIONAL</text>
    </g>

    <!-- ACTIVE USERS -->
    <g transform="translate(330, 100)">
        <text x="0" y="-20" font-size="12" fill="#aaaaaa">CITIZENS</text>
        <text x="0" y="15" font-size="28" fill="#ffffff" font-weight="bold" filter="url(#textGlow)">13,768</text>
        <text x="0" y="35" font-size="10" fill="#777777">VERIFIED HUMANS</text>
    </g>

    <!-- REGISTERED AGENTS -->
    <g transform="translate(530, 100)">
        <text x="0" y="-20" font-size="12" fill="#aaaaaa">AGENTS</text>
        <text x="0" y="15" font-size="28" fill="#00d4ff" font-weight="bold" filter="url(#textGlow)">4,283</text>
        <text x="0" y="35" font-size="10" fill="#777777">REGISTERED DIDs</text>
    </g>

    <!-- TRANSACTIONS -->
    <g transform="translate(730, 100)">
        <text x="0" y="-20" font-size="12" fill="#aaaaaa">TRANSFERS</text>
        <text x="0" y="15" font-size="28" fill="#ffffff" font-weight="bold">34,712</text>
        <text x="0" y="35" font-size="10" fill="#777777">M2M SETTLEMENTS</text>
    </g>
  </g>

  <text x="425" y="185" font-family="'Consolas', 'Fira Code', monospace" font-size="10" fill="#aaaaaa" opacity="0.6" text-anchor="middle">AXIOMID PROJECTED TARGETS (ILLUSTRATIVE): 2026-07-22 13:21:26 UTC // SECURE_HANDSHAKE</text>
</svg>