<svg width="850" height="200" viewBox="0 0 850 200" xmlns="http://www.w3.org/2000/svg">
  <defs>
    <pattern id="carbonFiber" width="10" height="10" patternUnits="userSpaceOnUse">
        <rect width="10" height="10" fill="#050505"/>
        <path d="M0,0 L5,5 L10,0 L5,-5 Z M5,5 L10,10 L15,5 L10,0 Z M-5,5 L0,10 L5,5 L0,0 Z M0,10 L5,15 L10,10 L5,5 Z" fill="#0d0d0d"/>
    </pattern>
    <filter id="textGlow">
      <feGaussianBlur stdDeviation="2" result="blur" />
      <feMerge>
        <feMergeNode in="blur"/>
        <feMergeNode in="SourceGraphic"/>
      </feMerge>
    </filter>
    <linearGradient id="neonBar" x1="0%" y1="0%" x2="100%" y2="0%">
        <stop offset="0%" stop-color="#111111"/>
        <stop offset="100%" stop-color="#39FF14"/>
    </linearGradient>
    <linearGradient id="scanlineGrad" x1="0%" y1="0%" x2="100%" y2="0%">
        <stop offset="0%" stop-color="#39FF14" stop-opacity="0"/>
        <stop offset="50%" stop-color="#39FF14" stop-opacity="0.18"/>
        <stop offset="100%" stop-color="#39FF14" stop-opacity="0"/>
    </linearGradient>
    <clipPath id="dashClip">
        <rect x="0" y="0" width="850" height="200" rx="12"/>
    </clipPath>
  </defs>

  <rect width="100%" height="100%" fill="url(#carbonFiber)" rx="12" stroke="#39FF14" stroke-width="1" stroke-opacity="0.3"/>
  <rect width="100%" height="100%" fill="#000000" opacity="0.6" rx="12" />
  <g><polygon points="679,67 687.6,72 687.6,82 679,87 670.4,82 670.4,72" fill="none" stroke="#39FF14" stroke-width="1" opacity="0.07987046303401281"/>
<polygon points="324,158 332.6,163 332.6,173 324,178 315.4,173 315.4,163" fill="none" stroke="#39FF14" stroke-width="1" opacity="0.023456410685434005"/>
<polygon points="623,122 631.6,127 631.6,137 623,142 614.4,137 614.4,127" fill="none" stroke="#39FF14" stroke-width="1" opacity="0.045499971065639716"/>
<polygon points="749,121 757.6,126 757.6,136 749,141 740.4,136 740.4,126" fill="none" stroke="#39FF14" stroke-width="1" opacity="0.07849456421922205"/>
<polygon points="677,133 685.6,138 685.6,148 677,153 668.4,148 668.4,138" fill="none" stroke="#39FF14" stroke-width="1" opacity="0.05287027858803971"/>
<polygon points="463,183 471.6,188 471.6,198 463,203 454.4,198 454.4,188" fill="none" stroke="#39FF14" stroke-width="1" opacity="0.034240401406022275"/>
<polygon points="29,-10 37.6,-5 37.6,5 29,10 20.4,5 20.4,-5" fill="none" stroke="#39FF14" stroke-width="1" opacity="0.045542563075703035"/>
<polygon points="170,99 178.6,104 178.6,114 170,119 161.4,114 161.4,104" fill="none" stroke="#39FF14" stroke-width="1" opacity="0.037420478233747514"/>
<polygon points="492,106 500.6,111 500.6,121 492,126 483.4,121 483.4,111" fill="none" stroke="#39FF14" stroke-width="1" opacity="0.04218202168114607"/>
<polygon points="193,12 201.6,17 201.6,27 193,32 184.4,27 184.4,17" fill="none" stroke="#39FF14" stroke-width="1" opacity="0.0693842635608502"/>
<polygon points="135,33 143.6,38 143.6,48 135,53 126.4,48 126.4,38" fill="none" stroke="#39FF14" stroke-width="1" opacity="0.042162161975547716"/>
<polygon points="706,11 714.6,16 714.6,26 706,31 697.4,26 697.4,16" fill="none" stroke="#39FF14" stroke-width="1" opacity="0.06658958840183146"/>
<polygon points="197,146 205.6,151 205.6,161 197,166 188.4,161 188.4,151" fill="none" stroke="#39FF14" stroke-width="1" opacity="0.05283537180766673"/>
<polygon points="543,76 551.6,81 551.6,91 543,96 534.4,91 534.4,81" fill="none" stroke="#39FF14" stroke-width="1" opacity="0.059565456050124296"/>
<polygon points="345,74 353.6,79 353.6,89 345,94 336.4,89 336.4,79" fill="none" stroke="#39FF14" stroke-width="1" opacity="0.0789080197153417"/>
<polygon points="54,-6 62.6,-1 62.6,9 54,14 45.4,9 45.4,-1" fill="none" stroke="#39FF14" stroke-width="1" opacity="0.025135009198402034"/>
<polygon points="729,7 737.6,12 737.6,22 729,27 720.4,22 720.4,12" fill="none" stroke="#39FF14" stroke-width="1" opacity="0.04566331305023175"/>
<polygon points="298,137 306.6,142 306.6,152 298,157 289.4,152 289.4,142" fill="none" stroke="#39FF14" stroke-width="1" opacity="0.05148278551826034"/>
<polygon points="260,71 268.6,76 268.6,86 260,91 251.4,86 251.4,76" fill="none" stroke="#39FF14" stroke-width="1" opacity="0.06976979272453174"/>
<polygon points="166,97 174.6,102 174.6,112 166,117 157.4,112 157.4,102" fill="none" stroke="#39FF14" stroke-width="1" opacity="0.07422991199855188"/>
<polygon points="324,93 332.6,98 332.6,108 324,113 315.4,108 315.4,98" fill="none" stroke="#39FF14" stroke-width="1" opacity="0.049842190414671625"/>
<polygon points="0,169 8.6,174 8.6,184 0,189 -8.6,184 -8.6,174" fill="none" stroke="#39FF14" stroke-width="1" opacity="0.02433108670005316"/>
<polygon points="15,172 23.6,177 23.6,187 15,192 6.4,187 6.4,177" fill="none" stroke="#39FF14" stroke-width="1" opacity="0.07237650552686682"/>
<polygon points="400,23 408.6,28 408.6,38 400,43 391.4,38 391.4,28" fill="none" stroke="#39FF14" stroke-width="1" opacity="0.06232434189137501"/>
<polygon points="473,109 481.6,114 481.6,124 473,129 464.4,124 464.4,114" fill="none" stroke="#39FF14" stroke-width="1" opacity="0.07391008384346746"/>
<polygon points="638,18 646.6,23 646.6,33 638,38 629.4,33 629.4,23" fill="none" stroke="#39FF14" stroke-width="1" opacity="0.023613423197009546"/>
<polygon points="433,51 441.6,56 441.6,66 433,71 424.4,66 424.4,56" fill="none" stroke="#39FF14" stroke-width="1" opacity="0.03226538503827448"/>
<polygon points="518,113 526.6,118 526.6,128 518,133 509.4,128 509.4,118" fill="none" stroke="#39FF14" stroke-width="1" opacity="0.05668047594955131"/>
<polygon points="442,94 450.6,99 450.6,109 442,114 433.4,109 433.4,99" fill="none" stroke="#39FF14" stroke-width="1" opacity="0.031404197031930293"/>
<polygon points="764,18 772.6,23 772.6,33 764,38 755.4,33 755.4,23" fill="none" stroke="#39FF14" stroke-width="1" opacity="0.03110988365641902"/>
</g>

  <!-- HUD Decorative elements -->
  <path d="M 20 20 L 40 20 L 50 30" fill="none" stroke="#39FF14" stroke-width="2" opacity="0.5"/>
  <path d="M 830 180 L 810 180 L 800 170" fill="none" stroke="#39FF14" stroke-width="2" opacity="0.5"/>

  <g clip-path="url(#dashClip)">
    <rect x="-160" y="0" width="160" height="200" fill="url(#scanlineGrad)">
      <animateTransform attributeName="transform" type="translate"
                        from="0 0" to="1010 0" dur="6s" repeatCount="indefinite"/>
    </rect>
  </g>

  <g font-family="'Consolas', 'Fira Code', monospace" text-anchor="middle">

    <!-- NETWORK STATUS -->
    <g transform="translate(130, 100)">
        <circle cx="0" cy="0" r="45" fill="none" stroke="#39FF14" stroke-width="2" stroke-dasharray="10 5">
            <animateTransform attributeName="transform" type="rotate" from="0" to="360" dur="10s" repeatCount="indefinite"/>
        </circle>
        <circle cx="0" cy="0" r="35" fill="#0d0d0d" />
        <text x="0" y="-60" font-size="12" fill="#aaaaaa" letter-spacing="2">ROOT.AUTH</text>
        <text x="0" y="70" font-size="14" fill="#ffffff" font-weight="bold">OPERATIONAL</text>
    </g>

    <!-- ACTIVE USERS -->
    <g transform="translate(330, 100)">
        <text x="0" y="-20" font-size="12" fill="#aaaaaa">CITIZENS</text>
        <text x="0" y="15" font-size="28" fill="#ffffff" font-weight="bold" filter="url(#textGlow)">14,209</text>
        <text x="0" y="35" font-size="10" fill="#777777">VERIFIED HUMANS</text>
    </g>

    <!-- REGISTERED AGENTS -->
    <g transform="translate(530, 100)">
        <text x="0" y="-20" font-size="12" fill="#aaaaaa">AGENTS</text>
        <text x="0" y="15" font-size="28" fill="#00d4ff" font-weight="bold" filter="url(#textGlow)">4,655</text>
        <text x="0" y="35" font-size="10" fill="#777777">REGISTERED DIDs</text>
    </g>

    <!-- TRANSACTIONS -->
    <g transform="translate(730, 100)">
        <text x="0" y="-20" font-size="12" fill="#aaaaaa">TRANSFERS</text>
        <text x="0" y="15" font-size="28" fill="#ffffff" font-weight="bold">37,763</text>
        <text x="0" y="35" font-size="10" fill="#777777">M2M SETTLEMENTS</text>
    </g>
  </g>

  <text x="425" y="185" font-family="'Consolas', 'Fira Code', monospace" font-size="10" fill="#aaaaaa" opacity="0.6" text-anchor="middle">AXIOMID PROJECTED TARGETS (ILLUSTRATIVE): 2026-07-08 19:07:14 UTC // SECURE_HANDSHAKE</text>
</svg>