<svg width="850" height="200" viewBox="0 0 850 200" xmlns="http://www.w3.org/2000/svg">
  <defs>
    <pattern id="carbonFiber" width="10" height="10" patternUnits="userSpaceOnUse">
        <rect width="10" height="10" fill="#050505"/>
        <path d="M0,0 L5,5 L10,0 L5,-5 Z M5,5 L10,10 L15,5 L10,0 Z M-5,5 L0,10 L5,5 L0,0 Z M0,10 L5,15 L10,10 L5,5 Z" fill="#0d0d0d"/>
    </pattern>
    <filter id="textGlow">
      <feGaussianBlur stdDeviation="2" result="blur" />
      <feMerge>
        <feMergeNode in="blur"/>
        <feMergeNode in="SourceGraphic"/>
      </feMerge>
    </filter>
    <linearGradient id="neonBar" x1="0%" y1="0%" x2="100%" y2="0%">
        <stop offset="0%" stop-color="#111111"/>
        <stop offset="100%" stop-color="#39FF14"/>
    </linearGradient>
    <linearGradient id="scanlineGrad" x1="0%" y1="0%" x2="100%" y2="0%">
        <stop offset="0%" stop-color="#39FF14" stop-opacity="0"/>
        <stop offset="50%" stop-color="#39FF14" stop-opacity="0.18"/>
        <stop offset="100%" stop-color="#39FF14" stop-opacity="0"/>
    </linearGradient>
    <clipPath id="dashClip">
        <rect x="0" y="0" width="850" height="200" rx="12"/>
    </clipPath>
  </defs>

  <rect width="100%" height="100%" fill="url(#carbonFiber)" rx="12" stroke="#39FF14" stroke-width="1" stroke-opacity="0.3"/>
  <rect width="100%" height="100%" fill="#000000" opacity="0.6" rx="12" />
  <g><polygon points="775,184 783.6,189 783.6,199 775,204 766.4,199 766.4,189" fill="none" stroke="#39FF14" stroke-width="1" opacity="0.04536019601075859"/>
<polygon points="13,47 21.6,52 21.6,62 13,67 4.4,62 4.4,52" fill="none" stroke="#39FF14" stroke-width="1" opacity="0.07014479687032807"/>
<polygon points="571,186 579.6,191 579.6,201 571,206 562.4,201 562.4,191" fill="none" stroke="#39FF14" stroke-width="1" opacity="0.05324478187629428"/>
<polygon points="682,133 690.6,138 690.6,148 682,153 673.4,148 673.4,138" fill="none" stroke="#39FF14" stroke-width="1" opacity="0.03959456419983424"/>
<polygon points="290,116 298.6,121 298.6,131 290,136 281.4,131 281.4,121" fill="none" stroke="#39FF14" stroke-width="1" opacity="0.04187749966621894"/>
<polygon points="26,58 34.6,63 34.6,73 26,78 17.4,73 17.4,63" fill="none" stroke="#39FF14" stroke-width="1" opacity="0.07254409075614678"/>
<polygon points="246,76 254.6,81 254.6,91 246,96 237.4,91 237.4,81" fill="none" stroke="#39FF14" stroke-width="1" opacity="0.07052845422264238"/>
<polygon points="516,47 524.6,52 524.6,62 516,67 507.4,62 507.4,52" fill="none" stroke="#39FF14" stroke-width="1" opacity="0.04154037594570423"/>
<polygon points="275,92 283.6,97 283.6,107 275,112 266.4,107 266.4,97" fill="none" stroke="#39FF14" stroke-width="1" opacity="0.06078291451546225"/>
<polygon points="318,116 326.6,121 326.6,131 318,136 309.4,131 309.4,121" fill="none" stroke="#39FF14" stroke-width="1" opacity="0.021644721278878103"/>
<polygon points="495,114 503.6,119 503.6,129 495,134 486.4,129 486.4,119" fill="none" stroke="#39FF14" stroke-width="1" opacity="0.05711467045547905"/>
<polygon points="780,41 788.6,46 788.6,56 780,61 771.4,56 771.4,46" fill="none" stroke="#39FF14" stroke-width="1" opacity="0.02100449926948727"/>
<polygon points="344,31 352.6,36 352.6,46 344,51 335.4,46 335.4,36" fill="none" stroke="#39FF14" stroke-width="1" opacity="0.06449436235696075"/>
<polygon points="676,56 684.6,61 684.6,71 676,76 667.4,71 667.4,61" fill="none" stroke="#39FF14" stroke-width="1" opacity="0.04455057954097767"/>
<polygon points="212,121 220.6,126 220.6,136 212,141 203.4,136 203.4,126" fill="none" stroke="#39FF14" stroke-width="1" opacity="0.05281533853197541"/>
<polygon points="813,141 821.6,146 821.6,156 813,161 804.4,156 804.4,146" fill="none" stroke="#39FF14" stroke-width="1" opacity="0.04235916911933951"/>
<polygon points="796,126 804.6,131 804.6,141 796,146 787.4,141 787.4,131" fill="none" stroke="#39FF14" stroke-width="1" opacity="0.038466654685999656"/>
<polygon points="454,82 462.6,87 462.6,97 454,102 445.4,97 445.4,87" fill="none" stroke="#39FF14" stroke-width="1" opacity="0.06036453327918566"/>
<polygon points="221,171 229.6,176 229.6,186 221,191 212.4,186 212.4,176" fill="none" stroke="#39FF14" stroke-width="1" opacity="0.07181435100394498"/>
<polygon points="218,3 226.6,8 226.6,18 218,23 209.4,18 209.4,8" fill="none" stroke="#39FF14" stroke-width="1" opacity="0.04968654083724773"/>
<polygon points="436,113 444.6,118 444.6,128 436,133 427.4,128 427.4,118" fill="none" stroke="#39FF14" stroke-width="1" opacity="0.06161165809251609"/>
<polygon points="52,35 60.6,40 60.6,50 52,55 43.4,50 43.4,40" fill="none" stroke="#39FF14" stroke-width="1" opacity="0.04936643671736113"/>
<polygon points="604,19 612.6,24 612.6,34 604,39 595.4,34 595.4,24" fill="none" stroke="#39FF14" stroke-width="1" opacity="0.0620368362919622"/>
<polygon points="609,136 617.6,141 617.6,151 609,156 600.4,151 600.4,141" fill="none" stroke="#39FF14" stroke-width="1" opacity="0.04540192842371998"/>
<polygon points="839,178 847.6,183 847.6,193 839,198 830.4,193 830.4,183" fill="none" stroke="#39FF14" stroke-width="1" opacity="0.026633407580341367"/>
<polygon points="807,129 815.6,134 815.6,144 807,149 798.4,144 798.4,134" fill="none" stroke="#39FF14" stroke-width="1" opacity="0.03695957559029296"/>
<polygon points="228,25 236.6,30 236.6,40 228,45 219.4,40 219.4,30" fill="none" stroke="#39FF14" stroke-width="1" opacity="0.06358915207015824"/>
<polygon points="97,35 105.6,40 105.6,50 97,55 88.4,50 88.4,40" fill="none" stroke="#39FF14" stroke-width="1" opacity="0.03484552993878488"/>
<polygon points="838,104 846.6,109 846.6,119 838,124 829.4,119 829.4,109" fill="none" stroke="#39FF14" stroke-width="1" opacity="0.03769498054529842"/>
<polygon points="82,73 90.6,78 90.6,88 82,93 73.4,88 73.4,78" fill="none" stroke="#39FF14" stroke-width="1" opacity="0.053374413615559946"/>
</g>

  <!-- HUD Decorative elements -->
  <path d="M 20 20 L 40 20 L 50 30" fill="none" stroke="#39FF14" stroke-width="2" opacity="0.5"/>
  <path d="M 830 180 L 810 180 L 800 170" fill="none" stroke="#39FF14" stroke-width="2" opacity="0.5"/>

  <g clip-path="url(#dashClip)">
    <rect x="-160" y="0" width="160" height="200" fill="url(#scanlineGrad)">
      <animateTransform attributeName="transform" type="translate"
                        from="0 0" to="1010 0" dur="6s" repeatCount="indefinite"/>
    </rect>
  </g>

  <g font-family="'Consolas', 'Fira Code', monospace" text-anchor="middle">

    <!-- NETWORK STATUS -->
    <g transform="translate(130, 100)">
        <circle cx="0" cy="0" r="45" fill="none" stroke="#39FF14" stroke-width="2" stroke-dasharray="10 5">
            <animateTransform attributeName="transform" type="rotate" from="0" to="360" dur="10s" repeatCount="indefinite"/>
        </circle>
        <circle cx="0" cy="0" r="35" fill="#0d0d0d" />
        <text x="0" y="-60" font-size="12" fill="#aaaaaa" letter-spacing="2">ROOT.AUTH</text>
        <text x="0" y="70" font-size="14" fill="#ffffff" font-weight="bold">OPERATIONAL</text>
    </g>

    <!-- ACTIVE USERS -->
    <g transform="translate(330, 100)">
        <text x="0" y="-20" font-size="12" fill="#aaaaaa">CITIZENS</text>
        <text x="0" y="15" font-size="28" fill="#ffffff" font-weight="bold" filter="url(#textGlow)">12,722</text>
        <text x="0" y="35" font-size="10" fill="#777777">VERIFIED HUMANS</text>
    </g>

    <!-- REGISTERED AGENTS -->
    <g transform="translate(530, 100)">
        <text x="0" y="-20" font-size="12" fill="#aaaaaa">AGENTS</text>
        <text x="0" y="15" font-size="28" fill="#00d4ff" font-weight="bold" filter="url(#textGlow)">3,471</text>
        <text x="0" y="35" font-size="10" fill="#777777">REGISTERED DIDs</text>
    </g>

    <!-- TRANSACTIONS -->
    <g transform="translate(730, 100)">
        <text x="0" y="-20" font-size="12" fill="#aaaaaa">TRANSFERS</text>
        <text x="0" y="15" font-size="28" fill="#ffffff" font-weight="bold">37,535</text>
        <text x="0" y="35" font-size="10" fill="#777777">M2M SETTLEMENTS</text>
    </g>
  </g>

  <text x="425" y="185" font-family="'Consolas', 'Fira Code', monospace" font-size="10" fill="#aaaaaa" opacity="0.6" text-anchor="middle">AXIOMID PROJECTED TARGETS (ILLUSTRATIVE): 2026-07-13 21:44:34 UTC // SECURE_HANDSHAKE</text>
</svg>