<svg width="850" height="200" viewBox="0 0 850 200" xmlns="http://www.w3.org/2000/svg">
  <defs>
    <pattern id="carbonFiber" width="10" height="10" patternUnits="userSpaceOnUse">
        <rect width="10" height="10" fill="#050505"/>
        <path d="M0,0 L5,5 L10,0 L5,-5 Z M5,5 L10,10 L15,5 L10,0 Z M-5,5 L0,10 L5,5 L0,0 Z M0,10 L5,15 L10,10 L5,5 Z" fill="#0d0d0d"/>
    </pattern>
    <filter id="textGlow">
      <feGaussianBlur stdDeviation="2" result="blur" />
      <feMerge>
        <feMergeNode in="blur"/>
        <feMergeNode in="SourceGraphic"/>
      </feMerge>
    </filter>
    <linearGradient id="neonBar" x1="0%" y1="0%" x2="100%" y2="0%">
        <stop offset="0%" stop-color="#111111"/>
        <stop offset="100%" stop-color="#39FF14"/>
    </linearGradient>
    <linearGradient id="scanlineGrad" x1="0%" y1="0%" x2="100%" y2="0%">
        <stop offset="0%" stop-color="#39FF14" stop-opacity="0"/>
        <stop offset="50%" stop-color="#39FF14" stop-opacity="0.18"/>
        <stop offset="100%" stop-color="#39FF14" stop-opacity="0"/>
    </linearGradient>
    <clipPath id="dashClip">
        <rect x="0" y="0" width="850" height="200" rx="12"/>
    </clipPath>
  </defs>

  <rect width="100%" height="100%" fill="url(#carbonFiber)" rx="12" stroke="#39FF14" stroke-width="1" stroke-opacity="0.3"/>
  <rect width="100%" height="100%" fill="#000000" opacity="0.6" rx="12" />
  <g><polygon points="618,31 626.6,36 626.6,46 618,51 609.4,46 609.4,36" fill="none" stroke="#39FF14" stroke-width="1" opacity="0.07666755422551065"/>
<polygon points="296,91 304.6,96 304.6,106 296,111 287.4,106 287.4,96" fill="none" stroke="#39FF14" stroke-width="1" opacity="0.025204392398406567"/>
<polygon points="232,179 240.6,184 240.6,194 232,199 223.4,194 223.4,184" fill="none" stroke="#39FF14" stroke-width="1" opacity="0.07936395917079399"/>
<polygon points="3,177 11.6,182 11.6,192 3,197 -5.6,192 -5.6,182" fill="none" stroke="#39FF14" stroke-width="1" opacity="0.06569396962033854"/>
<polygon points="73,-10 81.6,-5 81.6,5 73,10 64.4,5 64.4,-5" fill="none" stroke="#39FF14" stroke-width="1" opacity="0.04383923658107704"/>
<polygon points="616,116 624.6,121 624.6,131 616,136 607.4,131 607.4,121" fill="none" stroke="#39FF14" stroke-width="1" opacity="0.07669445090297079"/>
<polygon points="145,-4 153.6,1 153.6,11 145,16 136.4,11 136.4,1" fill="none" stroke="#39FF14" stroke-width="1" opacity="0.06506501112047314"/>
<polygon points="840,103 848.6,108 848.6,118 840,123 831.4,118 831.4,108" fill="none" stroke="#39FF14" stroke-width="1" opacity="0.06816385525565796"/>
<polygon points="693,159 701.6,164 701.6,174 693,179 684.4,174 684.4,164" fill="none" stroke="#39FF14" stroke-width="1" opacity="0.042408481077930826"/>
<polygon points="107,187 115.6,192 115.6,202 107,207 98.4,202 98.4,192" fill="none" stroke="#39FF14" stroke-width="1" opacity="0.02973138612423172"/>
<polygon points="264,93 272.6,98 272.6,108 264,113 255.4,108 255.4,98" fill="none" stroke="#39FF14" stroke-width="1" opacity="0.06724601963852454"/>
<polygon points="24,109 32.6,114 32.6,124 24,129 15.4,124 15.4,114" fill="none" stroke="#39FF14" stroke-width="1" opacity="0.054123296806181415"/>
<polygon points="609,21 617.6,26 617.6,36 609,41 600.4,36 600.4,26" fill="none" stroke="#39FF14" stroke-width="1" opacity="0.06898974904134693"/>
<polygon points="781,37 789.6,42 789.6,52 781,57 772.4,52 772.4,42" fill="none" stroke="#39FF14" stroke-width="1" opacity="0.028029844700785712"/>
<polygon points="328,123 336.6,128 336.6,138 328,143 319.4,138 319.4,128" fill="none" stroke="#39FF14" stroke-width="1" opacity="0.03356582103140779"/>
<polygon points="717,95 725.6,100 725.6,110 717,115 708.4,110 708.4,100" fill="none" stroke="#39FF14" stroke-width="1" opacity="0.048838900350500696"/>
<polygon points="15,23 23.6,28 23.6,38 15,43 6.4,38 6.4,28" fill="none" stroke="#39FF14" stroke-width="1" opacity="0.06940012445733243"/>
<polygon points="160,17 168.6,22 168.6,32 160,37 151.4,32 151.4,22" fill="none" stroke="#39FF14" stroke-width="1" opacity="0.04971043290428178"/>
<polygon points="60,17 68.6,22 68.6,32 60,37 51.4,32 51.4,22" fill="none" stroke="#39FF14" stroke-width="1" opacity="0.02347077674928118"/>
<polygon points="454,-5 462.6,0 462.6,10 454,15 445.4,10 445.4,0" fill="none" stroke="#39FF14" stroke-width="1" opacity="0.027607135927350198"/>
<polygon points="622,164 630.6,169 630.6,179 622,184 613.4,179 613.4,169" fill="none" stroke="#39FF14" stroke-width="1" opacity="0.04074514051260699"/>
<polygon points="671,56 679.6,61 679.6,71 671,76 662.4,71 662.4,61" fill="none" stroke="#39FF14" stroke-width="1" opacity="0.02269440835430173"/>
<polygon points="514,144 522.6,149 522.6,159 514,164 505.4,159 505.4,149" fill="none" stroke="#39FF14" stroke-width="1" opacity="0.05238114816663077"/>
<polygon points="295,16 303.6,21 303.6,31 295,36 286.4,31 286.4,21" fill="none" stroke="#39FF14" stroke-width="1" opacity="0.043098565259759095"/>
<polygon points="575,7 583.6,12 583.6,22 575,27 566.4,22 566.4,12" fill="none" stroke="#39FF14" stroke-width="1" opacity="0.07037086297159117"/>
<polygon points="643,132 651.6,137 651.6,147 643,152 634.4,147 634.4,137" fill="none" stroke="#39FF14" stroke-width="1" opacity="0.05346435639144691"/>
<polygon points="557,37 565.6,42 565.6,52 557,57 548.4,52 548.4,42" fill="none" stroke="#39FF14" stroke-width="1" opacity="0.04072660077903361"/>
<polygon points="813,172 821.6,177 821.6,187 813,192 804.4,187 804.4,177" fill="none" stroke="#39FF14" stroke-width="1" opacity="0.06558024525171685"/>
<polygon points="223,89 231.6,94 231.6,104 223,109 214.4,104 214.4,94" fill="none" stroke="#39FF14" stroke-width="1" opacity="0.06744508251078937"/>
<polygon points="259,37 267.6,42 267.6,52 259,57 250.4,52 250.4,42" fill="none" stroke="#39FF14" stroke-width="1" opacity="0.0634090996615187"/>
</g>

  <!-- HUD Decorative elements -->
  <path d="M 20 20 L 40 20 L 50 30" fill="none" stroke="#39FF14" stroke-width="2" opacity="0.5"/>
  <path d="M 830 180 L 810 180 L 800 170" fill="none" stroke="#39FF14" stroke-width="2" opacity="0.5"/>

  <g clip-path="url(#dashClip)">
    <rect x="-160" y="0" width="160" height="200" fill="url(#scanlineGrad)">
      <animateTransform attributeName="transform" type="translate"
                        from="0 0" to="1010 0" dur="6s" repeatCount="indefinite"/>
    </rect>
  </g>

  <g font-family="'Consolas', 'Fira Code', monospace" text-anchor="middle">

    <!-- NETWORK STATUS -->
    <g transform="translate(130, 100)">
        <circle cx="0" cy="0" r="45" fill="none" stroke="#39FF14" stroke-width="2" stroke-dasharray="10 5">
            <animateTransform attributeName="transform" type="rotate" from="0" to="360" dur="10s" repeatCount="indefinite"/>
        </circle>
        <circle cx="0" cy="0" r="35" fill="#0d0d0d" />
        <text x="0" y="-60" font-size="12" fill="#aaaaaa" letter-spacing="2">ROOT.AUTH</text>
        <text x="0" y="70" font-size="14" fill="#ffffff" font-weight="bold">OPERATIONAL</text>
    </g>

    <!-- ACTIVE USERS -->
    <g transform="translate(330, 100)">
        <text x="0" y="-20" font-size="12" fill="#aaaaaa">CITIZENS</text>
        <text x="0" y="15" font-size="28" fill="#ffffff" font-weight="bold" filter="url(#textGlow)">12,521</text>
        <text x="0" y="35" font-size="10" fill="#777777">VERIFIED HUMANS</text>
    </g>

    <!-- REGISTERED AGENTS -->
    <g transform="translate(530, 100)">
        <text x="0" y="-20" font-size="12" fill="#aaaaaa">AGENTS</text>
        <text x="0" y="15" font-size="28" fill="#00d4ff" font-weight="bold" filter="url(#textGlow)">4,032</text>
        <text x="0" y="35" font-size="10" fill="#777777">REGISTERED DIDs</text>
    </g>

    <!-- TRANSACTIONS -->
    <g transform="translate(730, 100)">
        <text x="0" y="-20" font-size="12" fill="#aaaaaa">TRANSFERS</text>
        <text x="0" y="15" font-size="28" fill="#ffffff" font-weight="bold">31,041</text>
        <text x="0" y="35" font-size="10" fill="#777777">M2M SETTLEMENTS</text>
    </g>
  </g>

  <text x="425" y="185" font-family="'Consolas', 'Fira Code', monospace" font-size="10" fill="#aaaaaa" opacity="0.6" text-anchor="middle">AXIOMID PROJECTED TARGETS (ILLUSTRATIVE): 2026-06-26 21:27:36 UTC // SECURE_HANDSHAKE</text>
</svg>