<svg width="850" height="200" viewBox="0 0 850 200" xmlns="http://www.w3.org/2000/svg">
  <defs>
    <pattern id="carbonFiber" width="10" height="10" patternUnits="userSpaceOnUse">
        <rect width="10" height="10" fill="#050505"/>
        <path d="M0,0 L5,5 L10,0 L5,-5 Z M5,5 L10,10 L15,5 L10,0 Z M-5,5 L0,10 L5,5 L0,0 Z M0,10 L5,15 L10,10 L5,5 Z" fill="#0d0d0d"/>
    </pattern>
    <filter id="textGlow">
      <feGaussianBlur stdDeviation="2" result="blur" />
      <feMerge>
        <feMergeNode in="blur"/>
        <feMergeNode in="SourceGraphic"/>
      </feMerge>
    </filter>
    <linearGradient id="neonBar" x1="0%" y1="0%" x2="100%" y2="0%">
        <stop offset="0%" stop-color="#111111"/>
        <stop offset="100%" stop-color="#39FF14"/>
    </linearGradient>
    <linearGradient id="scanlineGrad" x1="0%" y1="0%" x2="100%" y2="0%">
        <stop offset="0%" stop-color="#39FF14" stop-opacity="0"/>
        <stop offset="50%" stop-color="#39FF14" stop-opacity="0.18"/>
        <stop offset="100%" stop-color="#39FF14" stop-opacity="0"/>
    </linearGradient>
    <clipPath id="dashClip">
        <rect x="0" y="0" width="850" height="200" rx="12"/>
    </clipPath>
  </defs>

  <rect width="100%" height="100%" fill="url(#carbonFiber)" rx="12" stroke="#39FF14" stroke-width="1" stroke-opacity="0.3"/>
  <rect width="100%" height="100%" fill="#000000" opacity="0.6" rx="12" />
  <g><polygon points="162,8 170.6,13 170.6,23 162,28 153.4,23 153.4,13" fill="none" stroke="#39FF14" stroke-width="1" opacity="0.07849522317728602"/>
<polygon points="434,156 442.6,161 442.6,171 434,176 425.4,171 425.4,161" fill="none" stroke="#39FF14" stroke-width="1" opacity="0.046713659985710615"/>
<polygon points="291,169 299.6,174 299.6,184 291,189 282.4,184 282.4,174" fill="none" stroke="#39FF14" stroke-width="1" opacity="0.027658200166113787"/>
<polygon points="685,152 693.6,157 693.6,167 685,172 676.4,167 676.4,157" fill="none" stroke="#39FF14" stroke-width="1" opacity="0.03848739474396403"/>
<polygon points="188,39 196.6,44 196.6,54 188,59 179.4,54 179.4,44" fill="none" stroke="#39FF14" stroke-width="1" opacity="0.06213222585330554"/>
<polygon points="740,144 748.6,149 748.6,159 740,164 731.4,159 731.4,149" fill="none" stroke="#39FF14" stroke-width="1" opacity="0.06828192621018461"/>
<polygon points="607,-6 615.6,-1 615.6,9 607,14 598.4,9 598.4,-1" fill="none" stroke="#39FF14" stroke-width="1" opacity="0.06849368560723214"/>
<polygon points="564,137 572.6,142 572.6,152 564,157 555.4,152 555.4,142" fill="none" stroke="#39FF14" stroke-width="1" opacity="0.07482239526816464"/>
<polygon points="253,163 261.6,168 261.6,178 253,183 244.4,178 244.4,168" fill="none" stroke="#39FF14" stroke-width="1" opacity="0.07830260235707165"/>
<polygon points="668,99 676.6,104 676.6,114 668,119 659.4,114 659.4,104" fill="none" stroke="#39FF14" stroke-width="1" opacity="0.07230162211700307"/>
<polygon points="848,160 856.6,165 856.6,175 848,180 839.4,175 839.4,165" fill="none" stroke="#39FF14" stroke-width="1" opacity="0.029331821058345253"/>
<polygon points="696,186 704.6,191 704.6,201 696,206 687.4,201 687.4,191" fill="none" stroke="#39FF14" stroke-width="1" opacity="0.045755631473160696"/>
<polygon points="176,8 184.6,13 184.6,23 176,28 167.4,23 167.4,13" fill="none" stroke="#39FF14" stroke-width="1" opacity="0.039848671645530215"/>
<polygon points="5,107 13.6,112 13.6,122 5,127 -3.5999999999999996,122 -3.5999999999999996,112" fill="none" stroke="#39FF14" stroke-width="1" opacity="0.027411396931144517"/>
<polygon points="849,17 857.6,22 857.6,32 849,37 840.4,32 840.4,22" fill="none" stroke="#39FF14" stroke-width="1" opacity="0.058643970549317775"/>
<polygon points="616,83 624.6,88 624.6,98 616,103 607.4,98 607.4,88" fill="none" stroke="#39FF14" stroke-width="1" opacity="0.03856908376737661"/>
<polygon points="38,115 46.6,120 46.6,130 38,135 29.4,130 29.4,120" fill="none" stroke="#39FF14" stroke-width="1" opacity="0.07188959398675365"/>
<polygon points="785,87 793.6,92 793.6,102 785,107 776.4,102 776.4,92" fill="none" stroke="#39FF14" stroke-width="1" opacity="0.07736030644096292"/>
<polygon points="406,116 414.6,121 414.6,131 406,136 397.4,131 397.4,121" fill="none" stroke="#39FF14" stroke-width="1" opacity="0.06470817151802896"/>
<polygon points="391,-8 399.6,-3 399.6,7 391,12 382.4,7 382.4,-3" fill="none" stroke="#39FF14" stroke-width="1" opacity="0.034193142138535026"/>
<polygon points="727,187 735.6,192 735.6,202 727,207 718.4,202 718.4,192" fill="none" stroke="#39FF14" stroke-width="1" opacity="0.06895235147169892"/>
<polygon points="281,30 289.6,35 289.6,45 281,50 272.4,45 272.4,35" fill="none" stroke="#39FF14" stroke-width="1" opacity="0.048119242330549934"/>
<polygon points="815,136 823.6,141 823.6,151 815,156 806.4,151 806.4,141" fill="none" stroke="#39FF14" stroke-width="1" opacity="0.07237651455255364"/>
<polygon points="367,84 375.6,89 375.6,99 367,104 358.4,99 358.4,89" fill="none" stroke="#39FF14" stroke-width="1" opacity="0.05249596633536721"/>
<polygon points="753,82 761.6,87 761.6,97 753,102 744.4,97 744.4,87" fill="none" stroke="#39FF14" stroke-width="1" opacity="0.03759554827480942"/>
<polygon points="613,11 621.6,16 621.6,26 613,31 604.4,26 604.4,16" fill="none" stroke="#39FF14" stroke-width="1" opacity="0.06131413366091121"/>
<polygon points="401,93 409.6,98 409.6,108 401,113 392.4,108 392.4,98" fill="none" stroke="#39FF14" stroke-width="1" opacity="0.02824744132657308"/>
<polygon points="383,45 391.6,50 391.6,60 383,65 374.4,60 374.4,50" fill="none" stroke="#39FF14" stroke-width="1" opacity="0.03931708751129274"/>
<polygon points="322,65 330.6,70 330.6,80 322,85 313.4,80 313.4,70" fill="none" stroke="#39FF14" stroke-width="1" opacity="0.06370079736521021"/>
<polygon points="832,139 840.6,144 840.6,154 832,159 823.4,154 823.4,144" fill="none" stroke="#39FF14" stroke-width="1" opacity="0.06111108676569156"/>
</g>

  <!-- HUD Decorative elements -->
  <path d="M 20 20 L 40 20 L 50 30" fill="none" stroke="#39FF14" stroke-width="2" opacity="0.5"/>
  <path d="M 830 180 L 810 180 L 800 170" fill="none" stroke="#39FF14" stroke-width="2" opacity="0.5"/>

  <g clip-path="url(#dashClip)">
    <rect x="-160" y="0" width="160" height="200" fill="url(#scanlineGrad)">
      <animateTransform attributeName="transform" type="translate"
                        from="0 0" to="1010 0" dur="6s" repeatCount="indefinite"/>
    </rect>
  </g>

  <g font-family="'Consolas', 'Fira Code', monospace" text-anchor="middle">

    <!-- NETWORK STATUS -->
    <g transform="translate(130, 100)">
        <circle cx="0" cy="0" r="45" fill="none" stroke="#39FF14" stroke-width="2" stroke-dasharray="10 5">
            <animateTransform attributeName="transform" type="rotate" from="0" to="360" dur="10s" repeatCount="indefinite"/>
        </circle>
        <circle cx="0" cy="0" r="35" fill="#0d0d0d" />
        <text x="0" y="-60" font-size="12" fill="#aaaaaa" letter-spacing="2">ROOT.AUTH</text>
        <text x="0" y="70" font-size="14" fill="#ffffff" font-weight="bold">OPERATIONAL</text>
    </g>

    <!-- ACTIVE USERS -->
    <g transform="translate(330, 100)">
        <text x="0" y="-20" font-size="12" fill="#aaaaaa">CITIZENS</text>
        <text x="0" y="15" font-size="28" fill="#ffffff" font-weight="bold" filter="url(#textGlow)">14,521</text>
        <text x="0" y="35" font-size="10" fill="#777777">VERIFIED HUMANS</text>
    </g>

    <!-- REGISTERED AGENTS -->
    <g transform="translate(530, 100)">
        <text x="0" y="-20" font-size="12" fill="#aaaaaa">AGENTS</text>
        <text x="0" y="15" font-size="28" fill="#00d4ff" font-weight="bold" filter="url(#textGlow)">3,565</text>
        <text x="0" y="35" font-size="10" fill="#777777">REGISTERED DIDs</text>
    </g>

    <!-- TRANSACTIONS -->
    <g transform="translate(730, 100)">
        <text x="0" y="-20" font-size="12" fill="#aaaaaa">TRANSFERS</text>
        <text x="0" y="15" font-size="28" fill="#ffffff" font-weight="bold">29,537</text>
        <text x="0" y="35" font-size="10" fill="#777777">M2M SETTLEMENTS</text>
    </g>
  </g>

  <text x="425" y="185" font-family="'Consolas', 'Fira Code', monospace" font-size="10" fill="#aaaaaa" opacity="0.6" text-anchor="middle">AXIOMID PROJECTED TARGETS (ILLUSTRATIVE): 2026-07-24 21:55:44 UTC // SECURE_HANDSHAKE</text>
</svg>