<svg width="850" height="200" viewBox="0 0 850 200" xmlns="http://www.w3.org/2000/svg">
  <defs>
    <pattern id="carbonFiber" width="10" height="10" patternUnits="userSpaceOnUse">
        <rect width="10" height="10" fill="#050505"/>
        <path d="M0,0 L5,5 L10,0 L5,-5 Z M5,5 L10,10 L15,5 L10,0 Z M-5,5 L0,10 L5,5 L0,0 Z M0,10 L5,15 L10,10 L5,5 Z" fill="#0d0d0d"/>
    </pattern>
    <filter id="textGlow">
      <feGaussianBlur stdDeviation="2" result="blur" />
      <feMerge>
        <feMergeNode in="blur"/>
        <feMergeNode in="SourceGraphic"/>
      </feMerge>
    </filter>
    <linearGradient id="neonBar" x1="0%" y1="0%" x2="100%" y2="0%">
        <stop offset="0%" stop-color="#111111"/>
        <stop offset="100%" stop-color="#39FF14"/>
    </linearGradient>
    <linearGradient id="scanlineGrad" x1="0%" y1="0%" x2="100%" y2="0%">
        <stop offset="0%" stop-color="#39FF14" stop-opacity="0"/>
        <stop offset="50%" stop-color="#39FF14" stop-opacity="0.18"/>
        <stop offset="100%" stop-color="#39FF14" stop-opacity="0"/>
    </linearGradient>
    <clipPath id="dashClip">
        <rect x="0" y="0" width="850" height="200" rx="12"/>
    </clipPath>
  </defs>

  <rect width="100%" height="100%" fill="url(#carbonFiber)" rx="12" stroke="#39FF14" stroke-width="1" stroke-opacity="0.3"/>
  <rect width="100%" height="100%" fill="#000000" opacity="0.6" rx="12" />
  <g><polygon points="164,50 172.6,55 172.6,65 164,70 155.4,65 155.4,55" fill="none" stroke="#39FF14" stroke-width="1" opacity="0.07942488528404612"/>
<polygon points="61,186 69.6,191 69.6,201 61,206 52.4,201 52.4,191" fill="none" stroke="#39FF14" stroke-width="1" opacity="0.024195492898535058"/>
<polygon points="154,159 162.6,164 162.6,174 154,179 145.4,174 145.4,164" fill="none" stroke="#39FF14" stroke-width="1" opacity="0.05571208228228805"/>
<polygon points="333,33 341.6,38 341.6,48 333,53 324.4,48 324.4,38" fill="none" stroke="#39FF14" stroke-width="1" opacity="0.050855154009564585"/>
<polygon points="609,129 617.6,134 617.6,144 609,149 600.4,144 600.4,134" fill="none" stroke="#39FF14" stroke-width="1" opacity="0.024427228016919617"/>
<polygon points="302,187 310.6,192 310.6,202 302,207 293.4,202 293.4,192" fill="none" stroke="#39FF14" stroke-width="1" opacity="0.06210918981615156"/>
<polygon points="74,67 82.6,72 82.6,82 74,87 65.4,82 65.4,72" fill="none" stroke="#39FF14" stroke-width="1" opacity="0.022768480640181204"/>
<polygon points="776,53 784.6,58 784.6,68 776,73 767.4,68 767.4,58" fill="none" stroke="#39FF14" stroke-width="1" opacity="0.03432758678465548"/>
<polygon points="589,116 597.6,121 597.6,131 589,136 580.4,131 580.4,121" fill="none" stroke="#39FF14" stroke-width="1" opacity="0.02672637884110847"/>
<polygon points="591,80 599.6,85 599.6,95 591,100 582.4,95 582.4,85" fill="none" stroke="#39FF14" stroke-width="1" opacity="0.025068453670338723"/>
<polygon points="765,94 773.6,99 773.6,109 765,114 756.4,109 756.4,99" fill="none" stroke="#39FF14" stroke-width="1" opacity="0.05270328619640775"/>
<polygon points="131,11 139.6,16 139.6,26 131,31 122.4,26 122.4,16" fill="none" stroke="#39FF14" stroke-width="1" opacity="0.03824886805247857"/>
<polygon points="159,183 167.6,188 167.6,198 159,203 150.4,198 150.4,188" fill="none" stroke="#39FF14" stroke-width="1" opacity="0.0728010440507359"/>
<polygon points="561,5 569.6,10 569.6,20 561,25 552.4,20 552.4,10" fill="none" stroke="#39FF14" stroke-width="1" opacity="0.028768683582836102"/>
<polygon points="501,7 509.6,12 509.6,22 501,27 492.4,22 492.4,12" fill="none" stroke="#39FF14" stroke-width="1" opacity="0.06766823393310112"/>
<polygon points="662,94 670.6,99 670.6,109 662,114 653.4,109 653.4,99" fill="none" stroke="#39FF14" stroke-width="1" opacity="0.0627500096307409"/>
<polygon points="777,-6 785.6,-1 785.6,9 777,14 768.4,9 768.4,-1" fill="none" stroke="#39FF14" stroke-width="1" opacity="0.04619449245335824"/>
<polygon points="18,66 26.6,71 26.6,81 18,86 9.4,81 9.4,71" fill="none" stroke="#39FF14" stroke-width="1" opacity="0.037757937350801477"/>
<polygon points="79,163 87.6,168 87.6,178 79,183 70.4,178 70.4,168" fill="none" stroke="#39FF14" stroke-width="1" opacity="0.06377594648548007"/>
<polygon points="247,111 255.6,116 255.6,126 247,131 238.4,126 238.4,116" fill="none" stroke="#39FF14" stroke-width="1" opacity="0.0267467786067419"/>
<polygon points="641,71 649.6,76 649.6,86 641,91 632.4,86 632.4,76" fill="none" stroke="#39FF14" stroke-width="1" opacity="0.05184892222064649"/>
<polygon points="644,117 652.6,122 652.6,132 644,137 635.4,132 635.4,122" fill="none" stroke="#39FF14" stroke-width="1" opacity="0.026332940495141455"/>
<polygon points="12,162 20.6,167 20.6,177 12,182 3.4000000000000004,177 3.4000000000000004,167" fill="none" stroke="#39FF14" stroke-width="1" opacity="0.07754901580793123"/>
<polygon points="238,107 246.6,112 246.6,122 238,127 229.4,122 229.4,112" fill="none" stroke="#39FF14" stroke-width="1" opacity="0.027084777607491877"/>
<polygon points="847,2 855.6,7 855.6,17 847,22 838.4,17 838.4,7" fill="none" stroke="#39FF14" stroke-width="1" opacity="0.06470468665829235"/>
<polygon points="464,117 472.6,122 472.6,132 464,137 455.4,132 455.4,122" fill="none" stroke="#39FF14" stroke-width="1" opacity="0.06428135665793398"/>
<polygon points="272,174 280.6,179 280.6,189 272,194 263.4,189 263.4,179" fill="none" stroke="#39FF14" stroke-width="1" opacity="0.026764783576366698"/>
<polygon points="390,39 398.6,44 398.6,54 390,59 381.4,54 381.4,44" fill="none" stroke="#39FF14" stroke-width="1" opacity="0.055231449774420696"/>
<polygon points="440,90 448.6,95 448.6,105 440,110 431.4,105 431.4,95" fill="none" stroke="#39FF14" stroke-width="1" opacity="0.030378371626779227"/>
<polygon points="842,93 850.6,98 850.6,108 842,113 833.4,108 833.4,98" fill="none" stroke="#39FF14" stroke-width="1" opacity="0.07380457118779392"/>
</g>

  <!-- HUD Decorative elements -->
  <path d="M 20 20 L 40 20 L 50 30" fill="none" stroke="#39FF14" stroke-width="2" opacity="0.5"/>
  <path d="M 830 180 L 810 180 L 800 170" fill="none" stroke="#39FF14" stroke-width="2" opacity="0.5"/>

  <g clip-path="url(#dashClip)">
    <rect x="-160" y="0" width="160" height="200" fill="url(#scanlineGrad)">
      <animateTransform attributeName="transform" type="translate"
                        from="0 0" to="1010 0" dur="6s" repeatCount="indefinite"/>
    </rect>
  </g>

  <g font-family="'Consolas', 'Fira Code', monospace" text-anchor="middle">

    <!-- NETWORK STATUS -->
    <g transform="translate(130, 100)">
        <circle cx="0" cy="0" r="45" fill="none" stroke="#39FF14" stroke-width="2" stroke-dasharray="10 5">
            <animateTransform attributeName="transform" type="rotate" from="0" to="360" dur="10s" repeatCount="indefinite"/>
        </circle>
        <circle cx="0" cy="0" r="35" fill="#0d0d0d" />
        <text x="0" y="-60" font-size="12" fill="#aaaaaa" letter-spacing="2">ROOT.AUTH</text>
        <text x="0" y="70" font-size="14" fill="#ffffff" font-weight="bold">OPERATIONAL</text>
    </g>

    <!-- ACTIVE USERS -->
    <g transform="translate(330, 100)">
        <text x="0" y="-20" font-size="12" fill="#aaaaaa">CITIZENS</text>
        <text x="0" y="15" font-size="28" fill="#ffffff" font-weight="bold" filter="url(#textGlow)">12,726</text>
        <text x="0" y="35" font-size="10" fill="#777777">VERIFIED HUMANS</text>
    </g>

    <!-- REGISTERED AGENTS -->
    <g transform="translate(530, 100)">
        <text x="0" y="-20" font-size="12" fill="#aaaaaa">AGENTS</text>
        <text x="0" y="15" font-size="28" fill="#00d4ff" font-weight="bold" filter="url(#textGlow)">4,789</text>
        <text x="0" y="35" font-size="10" fill="#777777">REGISTERED DIDs</text>
    </g>

    <!-- TRANSACTIONS -->
    <g transform="translate(730, 100)">
        <text x="0" y="-20" font-size="12" fill="#aaaaaa">TRANSFERS</text>
        <text x="0" y="15" font-size="28" fill="#ffffff" font-weight="bold">31,973</text>
        <text x="0" y="35" font-size="10" fill="#777777">M2M SETTLEMENTS</text>
    </g>
  </g>

  <text x="425" y="185" font-family="'Consolas', 'Fira Code', monospace" font-size="10" fill="#aaaaaa" opacity="0.6" text-anchor="middle">AXIOMID PROJECTED TARGETS (ILLUSTRATIVE): 2026-06-24 12:40:16 UTC // SECURE_HANDSHAKE</text>
</svg>