<svg width="850" height="200" viewBox="0 0 850 200" xmlns="http://www.w3.org/2000/svg">
  <defs>
    <pattern id="carbonFiber" width="10" height="10" patternUnits="userSpaceOnUse">
        <rect width="10" height="10" fill="#050505"/>
        <path d="M0,0 L5,5 L10,0 L5,-5 Z M5,5 L10,10 L15,5 L10,0 Z M-5,5 L0,10 L5,5 L0,0 Z M0,10 L5,15 L10,10 L5,5 Z" fill="#0d0d0d"/>
    </pattern>
    <filter id="textGlow">
      <feGaussianBlur stdDeviation="2" result="blur" />
      <feMerge>
        <feMergeNode in="blur"/>
        <feMergeNode in="SourceGraphic"/>
      </feMerge>
    </filter>
    <linearGradient id="neonBar" x1="0%" y1="0%" x2="100%" y2="0%">
        <stop offset="0%" stop-color="#111111"/>
        <stop offset="100%" stop-color="#39FF14"/>
    </linearGradient>
    <linearGradient id="scanlineGrad" x1="0%" y1="0%" x2="100%" y2="0%">
        <stop offset="0%" stop-color="#39FF14" stop-opacity="0"/>
        <stop offset="50%" stop-color="#39FF14" stop-opacity="0.18"/>
        <stop offset="100%" stop-color="#39FF14" stop-opacity="0"/>
    </linearGradient>
    <clipPath id="dashClip">
        <rect x="0" y="0" width="850" height="200" rx="12"/>
    </clipPath>
  </defs>

  <rect width="100%" height="100%" fill="url(#carbonFiber)" rx="12" stroke="#39FF14" stroke-width="1" stroke-opacity="0.3"/>
  <rect width="100%" height="100%" fill="#000000" opacity="0.6" rx="12" />
  <g><polygon points="263,42 271.6,47 271.6,57 263,62 254.4,57 254.4,47" fill="none" stroke="#39FF14" stroke-width="1" opacity="0.057884394407659176"/>
<polygon points="147,27 155.6,32 155.6,42 147,47 138.4,42 138.4,32" fill="none" stroke="#39FF14" stroke-width="1" opacity="0.03757567580589996"/>
<polygon points="87,27 95.6,32 95.6,42 87,47 78.4,42 78.4,32" fill="none" stroke="#39FF14" stroke-width="1" opacity="0.06083395908755601"/>
<polygon points="384,73 392.6,78 392.6,88 384,93 375.4,88 375.4,78" fill="none" stroke="#39FF14" stroke-width="1" opacity="0.06341802332055407"/>
<polygon points="502,22 510.6,27 510.6,37 502,42 493.4,37 493.4,27" fill="none" stroke="#39FF14" stroke-width="1" opacity="0.06444171618502062"/>
<polygon points="484,9 492.6,14 492.6,24 484,29 475.4,24 475.4,14" fill="none" stroke="#39FF14" stroke-width="1" opacity="0.022501897876651255"/>
<polygon points="577,52 585.6,57 585.6,67 577,72 568.4,67 568.4,57" fill="none" stroke="#39FF14" stroke-width="1" opacity="0.055429083846260954"/>
<polygon points="236,125 244.6,130 244.6,140 236,145 227.4,140 227.4,130" fill="none" stroke="#39FF14" stroke-width="1" opacity="0.023227246698846883"/>
<polygon points="780,76 788.6,81 788.6,91 780,96 771.4,91 771.4,81" fill="none" stroke="#39FF14" stroke-width="1" opacity="0.041198673034376104"/>
<polygon points="323,100 331.6,105 331.6,115 323,120 314.4,115 314.4,105" fill="none" stroke="#39FF14" stroke-width="1" opacity="0.04792581359502994"/>
<polygon points="536,181 544.6,186 544.6,196 536,201 527.4,196 527.4,186" fill="none" stroke="#39FF14" stroke-width="1" opacity="0.04135328230475973"/>
<polygon points="447,68 455.6,73 455.6,83 447,88 438.4,83 438.4,73" fill="none" stroke="#39FF14" stroke-width="1" opacity="0.06604761731109071"/>
<polygon points="657,151 665.6,156 665.6,166 657,171 648.4,166 648.4,156" fill="none" stroke="#39FF14" stroke-width="1" opacity="0.048238525420544104"/>
<polygon points="28,81 36.6,86 36.6,96 28,101 19.4,96 19.4,86" fill="none" stroke="#39FF14" stroke-width="1" opacity="0.06460666433337561"/>
<polygon points="57,-9 65.6,-4 65.6,6 57,11 48.4,6 48.4,-4" fill="none" stroke="#39FF14" stroke-width="1" opacity="0.0706530461040806"/>
<polygon points="407,18 415.6,23 415.6,33 407,38 398.4,33 398.4,23" fill="none" stroke="#39FF14" stroke-width="1" opacity="0.07686142648524401"/>
<polygon points="393,107 401.6,112 401.6,122 393,127 384.4,122 384.4,112" fill="none" stroke="#39FF14" stroke-width="1" opacity="0.02692143163216005"/>
<polygon points="187,84 195.6,89 195.6,99 187,104 178.4,99 178.4,89" fill="none" stroke="#39FF14" stroke-width="1" opacity="0.021820921452511088"/>
<polygon points="184,164 192.6,169 192.6,179 184,184 175.4,179 175.4,169" fill="none" stroke="#39FF14" stroke-width="1" opacity="0.022249006052312198"/>
<polygon points="399,8 407.6,13 407.6,23 399,28 390.4,23 390.4,13" fill="none" stroke="#39FF14" stroke-width="1" opacity="0.04827835649918271"/>
<polygon points="27,42 35.6,47 35.6,57 27,62 18.4,57 18.4,47" fill="none" stroke="#39FF14" stroke-width="1" opacity="0.03123299324725707"/>
<polygon points="842,117 850.6,122 850.6,132 842,137 833.4,132 833.4,122" fill="none" stroke="#39FF14" stroke-width="1" opacity="0.07132202144607168"/>
<polygon points="124,116 132.6,121 132.6,131 124,136 115.4,131 115.4,121" fill="none" stroke="#39FF14" stroke-width="1" opacity="0.07045761252896125"/>
<polygon points="393,176 401.6,181 401.6,191 393,196 384.4,191 384.4,181" fill="none" stroke="#39FF14" stroke-width="1" opacity="0.07969234913212048"/>
<polygon points="628,28 636.6,33 636.6,43 628,48 619.4,43 619.4,33" fill="none" stroke="#39FF14" stroke-width="1" opacity="0.027401145640041945"/>
<polygon points="160,158 168.6,163 168.6,173 160,178 151.4,173 151.4,163" fill="none" stroke="#39FF14" stroke-width="1" opacity="0.032183239721762166"/>
<polygon points="95,180 103.6,185 103.6,195 95,200 86.4,195 86.4,185" fill="none" stroke="#39FF14" stroke-width="1" opacity="0.03082233595053076"/>
<polygon points="3,9 11.6,14 11.6,24 3,29 -5.6,24 -5.6,14" fill="none" stroke="#39FF14" stroke-width="1" opacity="0.023109715190454277"/>
<polygon points="6,76 14.6,81 14.6,91 6,96 -2.5999999999999996,91 -2.5999999999999996,81" fill="none" stroke="#39FF14" stroke-width="1" opacity="0.03707310414816138"/>
<polygon points="296,70 304.6,75 304.6,85 296,90 287.4,85 287.4,75" fill="none" stroke="#39FF14" stroke-width="1" opacity="0.030016822202865195"/>
</g>

  <!-- HUD Decorative elements -->
  <path d="M 20 20 L 40 20 L 50 30" fill="none" stroke="#39FF14" stroke-width="2" opacity="0.5"/>
  <path d="M 830 180 L 810 180 L 800 170" fill="none" stroke="#39FF14" stroke-width="2" opacity="0.5"/>

  <g clip-path="url(#dashClip)">
    <rect x="-160" y="0" width="160" height="200" fill="url(#scanlineGrad)">
      <animateTransform attributeName="transform" type="translate"
                        from="0 0" to="1010 0" dur="6s" repeatCount="indefinite"/>
    </rect>
  </g>

  <g font-family="'Consolas', 'Fira Code', monospace" text-anchor="middle">

    <!-- NETWORK STATUS -->
    <g transform="translate(130, 100)">
        <circle cx="0" cy="0" r="45" fill="none" stroke="#39FF14" stroke-width="2" stroke-dasharray="10 5">
            <animateTransform attributeName="transform" type="rotate" from="0" to="360" dur="10s" repeatCount="indefinite"/>
        </circle>
        <circle cx="0" cy="0" r="35" fill="#0d0d0d" />
        <text x="0" y="-60" font-size="12" fill="#aaaaaa" letter-spacing="2">ROOT.AUTH</text>
        <text x="0" y="70" font-size="14" fill="#ffffff" font-weight="bold">OPERATIONAL</text>
    </g>

    <!-- ACTIVE USERS -->
    <g transform="translate(330, 100)">
        <text x="0" y="-20" font-size="12" fill="#aaaaaa">CITIZENS</text>
        <text x="0" y="15" font-size="28" fill="#ffffff" font-weight="bold" filter="url(#textGlow)">15,143</text>
        <text x="0" y="35" font-size="10" fill="#777777">VERIFIED HUMANS</text>
    </g>

    <!-- REGISTERED AGENTS -->
    <g transform="translate(530, 100)">
        <text x="0" y="-20" font-size="12" fill="#aaaaaa">AGENTS</text>
        <text x="0" y="15" font-size="28" fill="#00d4ff" font-weight="bold" filter="url(#textGlow)">4,574</text>
        <text x="0" y="35" font-size="10" fill="#777777">REGISTERED DIDs</text>
    </g>

    <!-- TRANSACTIONS -->
    <g transform="translate(730, 100)">
        <text x="0" y="-20" font-size="12" fill="#aaaaaa">TRANSFERS</text>
        <text x="0" y="15" font-size="28" fill="#ffffff" font-weight="bold">36,963</text>
        <text x="0" y="35" font-size="10" fill="#777777">M2M SETTLEMENTS</text>
    </g>
  </g>

  <text x="425" y="185" font-family="'Consolas', 'Fira Code', monospace" font-size="10" fill="#aaaaaa" opacity="0.6" text-anchor="middle">AXIOMID PROJECTED TARGETS (ILLUSTRATIVE): 2026-07-16 01:44:28 UTC // SECURE_HANDSHAKE</text>
</svg>