<svg width="850" height="200" viewBox="0 0 850 200" xmlns="http://www.w3.org/2000/svg">
  <defs>
    <pattern id="carbonFiber" width="10" height="10" patternUnits="userSpaceOnUse">
        <rect width="10" height="10" fill="#050505"/>
        <path d="M0,0 L5,5 L10,0 L5,-5 Z M5,5 L10,10 L15,5 L10,0 Z M-5,5 L0,10 L5,5 L0,0 Z M0,10 L5,15 L10,10 L5,5 Z" fill="#0d0d0d"/>
    </pattern>
    <filter id="textGlow">
      <feGaussianBlur stdDeviation="2" result="blur" />
      <feMerge>
        <feMergeNode in="blur"/>
        <feMergeNode in="SourceGraphic"/>
      </feMerge>
    </filter>
    <linearGradient id="neonBar" x1="0%" y1="0%" x2="100%" y2="0%">
        <stop offset="0%" stop-color="#111111"/>
        <stop offset="100%" stop-color="#39FF14"/>
    </linearGradient>
    <linearGradient id="scanlineGrad" x1="0%" y1="0%" x2="100%" y2="0%">
        <stop offset="0%" stop-color="#39FF14" stop-opacity="0"/>
        <stop offset="50%" stop-color="#39FF14" stop-opacity="0.18"/>
        <stop offset="100%" stop-color="#39FF14" stop-opacity="0"/>
    </linearGradient>
    <clipPath id="dashClip">
        <rect x="0" y="0" width="850" height="200" rx="12"/>
    </clipPath>
  </defs>

  <rect width="100%" height="100%" fill="url(#carbonFiber)" rx="12" stroke="#39FF14" stroke-width="1" stroke-opacity="0.3"/>
  <rect width="100%" height="100%" fill="#000000" opacity="0.6" rx="12" />
  <g><polygon points="260,168 268.6,173 268.6,183 260,188 251.4,183 251.4,173" fill="none" stroke="#39FF14" stroke-width="1" opacity="0.020403261453661857"/>
<polygon points="40,27 48.6,32 48.6,42 40,47 31.4,42 31.4,32" fill="none" stroke="#39FF14" stroke-width="1" opacity="0.05467972241237523"/>
<polygon points="194,63 202.6,68 202.6,78 194,83 185.4,78 185.4,68" fill="none" stroke="#39FF14" stroke-width="1" opacity="0.05696038652873933"/>
<polygon points="656,27 664.6,32 664.6,42 656,47 647.4,42 647.4,32" fill="none" stroke="#39FF14" stroke-width="1" opacity="0.051438116761241354"/>
<polygon points="281,45 289.6,50 289.6,60 281,65 272.4,60 272.4,50" fill="none" stroke="#39FF14" stroke-width="1" opacity="0.059031526625330316"/>
<polygon points="602,31 610.6,36 610.6,46 602,51 593.4,46 593.4,36" fill="none" stroke="#39FF14" stroke-width="1" opacity="0.03614865673041369"/>
<polygon points="702,94 710.6,99 710.6,109 702,114 693.4,109 693.4,99" fill="none" stroke="#39FF14" stroke-width="1" opacity="0.060764199440542815"/>
<polygon points="260,60 268.6,65 268.6,75 260,80 251.4,75 251.4,65" fill="none" stroke="#39FF14" stroke-width="1" opacity="0.021854874723532022"/>
<polygon points="604,90 612.6,95 612.6,105 604,110 595.4,105 595.4,95" fill="none" stroke="#39FF14" stroke-width="1" opacity="0.045603292162369136"/>
<polygon points="10,178 18.6,183 18.6,193 10,198 1.4000000000000004,193 1.4000000000000004,183" fill="none" stroke="#39FF14" stroke-width="1" opacity="0.07749877660924274"/>
<polygon points="302,43 310.6,48 310.6,58 302,63 293.4,58 293.4,48" fill="none" stroke="#39FF14" stroke-width="1" opacity="0.020430253114844657"/>
<polygon points="598,146 606.6,151 606.6,161 598,166 589.4,161 589.4,151" fill="none" stroke="#39FF14" stroke-width="1" opacity="0.04503659017823494"/>
<polygon points="322,111 330.6,116 330.6,126 322,131 313.4,126 313.4,116" fill="none" stroke="#39FF14" stroke-width="1" opacity="0.036612187174977946"/>
<polygon points="326,-6 334.6,-1 334.6,9 326,14 317.4,9 317.4,-1" fill="none" stroke="#39FF14" stroke-width="1" opacity="0.03389133741792871"/>
<polygon points="465,74 473.6,79 473.6,89 465,94 456.4,89 456.4,79" fill="none" stroke="#39FF14" stroke-width="1" opacity="0.06555734869132358"/>
<polygon points="124,58 132.6,63 132.6,73 124,78 115.4,73 115.4,63" fill="none" stroke="#39FF14" stroke-width="1" opacity="0.06068173644179933"/>
<polygon points="842,156 850.6,161 850.6,171 842,176 833.4,171 833.4,161" fill="none" stroke="#39FF14" stroke-width="1" opacity="0.023408249231527893"/>
<polygon points="361,-9 369.6,-4 369.6,6 361,11 352.4,6 352.4,-4" fill="none" stroke="#39FF14" stroke-width="1" opacity="0.06711978567724824"/>
<polygon points="835,9 843.6,14 843.6,24 835,29 826.4,24 826.4,14" fill="none" stroke="#39FF14" stroke-width="1" opacity="0.07485560499381334"/>
<polygon points="307,70 315.6,75 315.6,85 307,90 298.4,85 298.4,75" fill="none" stroke="#39FF14" stroke-width="1" opacity="0.03382763387959539"/>
<polygon points="529,163 537.6,168 537.6,178 529,183 520.4,178 520.4,168" fill="none" stroke="#39FF14" stroke-width="1" opacity="0.04825131506014935"/>
<polygon points="696,24 704.6,29 704.6,39 696,44 687.4,39 687.4,29" fill="none" stroke="#39FF14" stroke-width="1" opacity="0.06033199917660474"/>
<polygon points="27,112 35.6,117 35.6,127 27,132 18.4,127 18.4,117" fill="none" stroke="#39FF14" stroke-width="1" opacity="0.06447032734459537"/>
<polygon points="315,53 323.6,58 323.6,68 315,73 306.4,68 306.4,58" fill="none" stroke="#39FF14" stroke-width="1" opacity="0.030826355770694952"/>
<polygon points="116,124 124.6,129 124.6,139 116,144 107.4,139 107.4,129" fill="none" stroke="#39FF14" stroke-width="1" opacity="0.07312047815245568"/>
<polygon points="292,180 300.6,185 300.6,195 292,200 283.4,195 283.4,185" fill="none" stroke="#39FF14" stroke-width="1" opacity="0.0656301631310267"/>
<polygon points="66,74 74.6,79 74.6,89 66,94 57.4,89 57.4,79" fill="none" stroke="#39FF14" stroke-width="1" opacity="0.07300455630748796"/>
<polygon points="318,16 326.6,21 326.6,31 318,36 309.4,31 309.4,21" fill="none" stroke="#39FF14" stroke-width="1" opacity="0.07787426007704484"/>
<polygon points="379,134 387.6,139 387.6,149 379,154 370.4,149 370.4,139" fill="none" stroke="#39FF14" stroke-width="1" opacity="0.048369694938882546"/>
<polygon points="407,147 415.6,152 415.6,162 407,167 398.4,162 398.4,152" fill="none" stroke="#39FF14" stroke-width="1" opacity="0.03713726922480795"/>
</g>

  <!-- HUD Decorative elements -->
  <path d="M 20 20 L 40 20 L 50 30" fill="none" stroke="#39FF14" stroke-width="2" opacity="0.5"/>
  <path d="M 830 180 L 810 180 L 800 170" fill="none" stroke="#39FF14" stroke-width="2" opacity="0.5"/>

  <g clip-path="url(#dashClip)">
    <rect x="-160" y="0" width="160" height="200" fill="url(#scanlineGrad)">
      <animateTransform attributeName="transform" type="translate"
                        from="0 0" to="1010 0" dur="6s" repeatCount="indefinite"/>
    </rect>
  </g>

  <g font-family="'Consolas', 'Fira Code', monospace" text-anchor="middle">

    <!-- NETWORK STATUS -->
    <g transform="translate(130, 100)">
        <circle cx="0" cy="0" r="45" fill="none" stroke="#39FF14" stroke-width="2" stroke-dasharray="10 5">
            <animateTransform attributeName="transform" type="rotate" from="0" to="360" dur="10s" repeatCount="indefinite"/>
        </circle>
        <circle cx="0" cy="0" r="35" fill="#0d0d0d" />
        <text x="0" y="-60" font-size="12" fill="#aaaaaa" letter-spacing="2">ROOT.AUTH</text>
        <text x="0" y="70" font-size="14" fill="#ffffff" font-weight="bold">OPERATIONAL</text>
    </g>

    <!-- ACTIVE USERS -->
    <g transform="translate(330, 100)">
        <text x="0" y="-20" font-size="12" fill="#aaaaaa">CITIZENS</text>
        <text x="0" y="15" font-size="28" fill="#ffffff" font-weight="bold" filter="url(#textGlow)">15,490</text>
        <text x="0" y="35" font-size="10" fill="#777777">VERIFIED HUMANS</text>
    </g>

    <!-- REGISTERED AGENTS -->
    <g transform="translate(530, 100)">
        <text x="0" y="-20" font-size="12" fill="#aaaaaa">AGENTS</text>
        <text x="0" y="15" font-size="28" fill="#00d4ff" font-weight="bold" filter="url(#textGlow)">4,171</text>
        <text x="0" y="35" font-size="10" fill="#777777">REGISTERED DIDs</text>
    </g>

    <!-- TRANSACTIONS -->
    <g transform="translate(730, 100)">
        <text x="0" y="-20" font-size="12" fill="#aaaaaa">TRANSFERS</text>
        <text x="0" y="15" font-size="28" fill="#ffffff" font-weight="bold">27,975</text>
        <text x="0" y="35" font-size="10" fill="#777777">M2M SETTLEMENTS</text>
    </g>
  </g>

  <text x="425" y="185" font-family="'Consolas', 'Fira Code', monospace" font-size="10" fill="#aaaaaa" opacity="0.6" text-anchor="middle">AXIOMID PROJECTED TARGETS (ILLUSTRATIVE): 2026-06-30 21:33:01 UTC // SECURE_HANDSHAKE</text>
</svg>