<svg width="850" height="200" viewBox="0 0 850 200" xmlns="http://www.w3.org/2000/svg">
  <defs>
    <pattern id="carbonFiber" width="10" height="10" patternUnits="userSpaceOnUse">
        <rect width="10" height="10" fill="#050505"/>
        <path d="M0,0 L5,5 L10,0 L5,-5 Z M5,5 L10,10 L15,5 L10,0 Z M-5,5 L0,10 L5,5 L0,0 Z M0,10 L5,15 L10,10 L5,5 Z" fill="#0d0d0d"/>
    </pattern>
    <filter id="textGlow">
      <feGaussianBlur stdDeviation="2" result="blur" />
      <feMerge>
        <feMergeNode in="blur"/>
        <feMergeNode in="SourceGraphic"/>
      </feMerge>
    </filter>
    <linearGradient id="neonBar" x1="0%" y1="0%" x2="100%" y2="0%">
        <stop offset="0%" stop-color="#111111"/>
        <stop offset="100%" stop-color="#39FF14"/>
    </linearGradient>
    <linearGradient id="scanlineGrad" x1="0%" y1="0%" x2="100%" y2="0%">
        <stop offset="0%" stop-color="#39FF14" stop-opacity="0"/>
        <stop offset="50%" stop-color="#39FF14" stop-opacity="0.18"/>
        <stop offset="100%" stop-color="#39FF14" stop-opacity="0"/>
    </linearGradient>
    <clipPath id="dashClip">
        <rect x="0" y="0" width="850" height="200" rx="12"/>
    </clipPath>
  </defs>

  <rect width="100%" height="100%" fill="url(#carbonFiber)" rx="12" stroke="#39FF14" stroke-width="1" stroke-opacity="0.3"/>
  <rect width="100%" height="100%" fill="#000000" opacity="0.6" rx="12" />
  <g><polygon points="647,96 655.6,101 655.6,111 647,116 638.4,111 638.4,101" fill="none" stroke="#39FF14" stroke-width="1" opacity="0.049567015096594405"/>
<polygon points="827,170 835.6,175 835.6,185 827,190 818.4,185 818.4,175" fill="none" stroke="#39FF14" stroke-width="1" opacity="0.07516955812327354"/>
<polygon points="713,94 721.6,99 721.6,109 713,114 704.4,109 704.4,99" fill="none" stroke="#39FF14" stroke-width="1" opacity="0.06159257831037132"/>
<polygon points="91,144 99.6,149 99.6,159 91,164 82.4,159 82.4,149" fill="none" stroke="#39FF14" stroke-width="1" opacity="0.023435898474864856"/>
<polygon points="395,151 403.6,156 403.6,166 395,171 386.4,166 386.4,156" fill="none" stroke="#39FF14" stroke-width="1" opacity="0.07812559474881905"/>
<polygon points="523,135 531.6,140 531.6,150 523,155 514.4,150 514.4,140" fill="none" stroke="#39FF14" stroke-width="1" opacity="0.07474851403437748"/>
<polygon points="396,60 404.6,65 404.6,75 396,80 387.4,75 387.4,65" fill="none" stroke="#39FF14" stroke-width="1" opacity="0.07523676290394511"/>
<polygon points="781,180 789.6,185 789.6,195 781,200 772.4,195 772.4,185" fill="none" stroke="#39FF14" stroke-width="1" opacity="0.043264355115051285"/>
<polygon points="565,99 573.6,104 573.6,114 565,119 556.4,114 556.4,104" fill="none" stroke="#39FF14" stroke-width="1" opacity="0.024981608290964477"/>
<polygon points="531,13 539.6,18 539.6,28 531,33 522.4,28 522.4,18" fill="none" stroke="#39FF14" stroke-width="1" opacity="0.07228834141950481"/>
<polygon points="766,86 774.6,91 774.6,101 766,106 757.4,101 757.4,91" fill="none" stroke="#39FF14" stroke-width="1" opacity="0.06654484966818128"/>
<polygon points="384,73 392.6,78 392.6,88 384,93 375.4,88 375.4,78" fill="none" stroke="#39FF14" stroke-width="1" opacity="0.02017385484485633"/>
<polygon points="534,166 542.6,171 542.6,181 534,186 525.4,181 525.4,171" fill="none" stroke="#39FF14" stroke-width="1" opacity="0.040659785505574274"/>
<polygon points="600,43 608.6,48 608.6,58 600,63 591.4,58 591.4,48" fill="none" stroke="#39FF14" stroke-width="1" opacity="0.02674709775886662"/>
<polygon points="59,77 67.6,82 67.6,92 59,97 50.4,92 50.4,82" fill="none" stroke="#39FF14" stroke-width="1" opacity="0.05028505980555509"/>
<polygon points="354,29 362.6,34 362.6,44 354,49 345.4,44 345.4,34" fill="none" stroke="#39FF14" stroke-width="1" opacity="0.020058505234993296"/>
<polygon points="349,91 357.6,96 357.6,106 349,111 340.4,106 340.4,96" fill="none" stroke="#39FF14" stroke-width="1" opacity="0.040628522825290274"/>
<polygon points="586,50 594.6,55 594.6,65 586,70 577.4,65 577.4,55" fill="none" stroke="#39FF14" stroke-width="1" opacity="0.06528703746631105"/>
<polygon points="452,42 460.6,47 460.6,57 452,62 443.4,57 443.4,47" fill="none" stroke="#39FF14" stroke-width="1" opacity="0.07648556018672231"/>
<polygon points="521,-1 529.6,4 529.6,14 521,19 512.4,14 512.4,4" fill="none" stroke="#39FF14" stroke-width="1" opacity="0.056038984652985735"/>
<polygon points="757,188 765.6,193 765.6,203 757,208 748.4,203 748.4,193" fill="none" stroke="#39FF14" stroke-width="1" opacity="0.051603614134181505"/>
<polygon points="248,164 256.6,169 256.6,179 248,184 239.4,179 239.4,169" fill="none" stroke="#39FF14" stroke-width="1" opacity="0.02957593110718364"/>
<polygon points="219,136 227.6,141 227.6,151 219,156 210.4,151 210.4,141" fill="none" stroke="#39FF14" stroke-width="1" opacity="0.062311962456878256"/>
<polygon points="832,-4 840.6,1 840.6,11 832,16 823.4,11 823.4,1" fill="none" stroke="#39FF14" stroke-width="1" opacity="0.07176644783402378"/>
<polygon points="23,93 31.6,98 31.6,108 23,113 14.4,108 14.4,98" fill="none" stroke="#39FF14" stroke-width="1" opacity="0.06614832180643027"/>
<polygon points="31,185 39.6,190 39.6,200 31,205 22.4,200 22.4,190" fill="none" stroke="#39FF14" stroke-width="1" opacity="0.050138816128673436"/>
<polygon points="426,50 434.6,55 434.6,65 426,70 417.4,65 417.4,55" fill="none" stroke="#39FF14" stroke-width="1" opacity="0.06168913998820098"/>
<polygon points="177,166 185.6,171 185.6,181 177,186 168.4,181 168.4,171" fill="none" stroke="#39FF14" stroke-width="1" opacity="0.050444372382432406"/>
<polygon points="765,32 773.6,37 773.6,47 765,52 756.4,47 756.4,37" fill="none" stroke="#39FF14" stroke-width="1" opacity="0.059541887416467876"/>
<polygon points="156,119 164.6,124 164.6,134 156,139 147.4,134 147.4,124" fill="none" stroke="#39FF14" stroke-width="1" opacity="0.041069447695772685"/>
</g>

  <!-- HUD Decorative elements -->
  <path d="M 20 20 L 40 20 L 50 30" fill="none" stroke="#39FF14" stroke-width="2" opacity="0.5"/>
  <path d="M 830 180 L 810 180 L 800 170" fill="none" stroke="#39FF14" stroke-width="2" opacity="0.5"/>

  <g clip-path="url(#dashClip)">
    <rect x="-160" y="0" width="160" height="200" fill="url(#scanlineGrad)">
      <animateTransform attributeName="transform" type="translate"
                        from="0 0" to="1010 0" dur="6s" repeatCount="indefinite"/>
    </rect>
  </g>

  <g font-family="'Consolas', 'Fira Code', monospace" text-anchor="middle">

    <!-- NETWORK STATUS -->
    <g transform="translate(130, 100)">
        <circle cx="0" cy="0" r="45" fill="none" stroke="#39FF14" stroke-width="2" stroke-dasharray="10 5">
            <animateTransform attributeName="transform" type="rotate" from="0" to="360" dur="10s" repeatCount="indefinite"/>
        </circle>
        <circle cx="0" cy="0" r="35" fill="#0d0d0d" />
        <text x="0" y="-60" font-size="12" fill="#aaaaaa" letter-spacing="2">ROOT.AUTH</text>
        <text x="0" y="70" font-size="14" fill="#ffffff" font-weight="bold">OPERATIONAL</text>
    </g>

    <!-- ACTIVE USERS -->
    <g transform="translate(330, 100)">
        <text x="0" y="-20" font-size="12" fill="#aaaaaa">CITIZENS</text>
        <text x="0" y="15" font-size="28" fill="#ffffff" font-weight="bold" filter="url(#textGlow)">14,462</text>
        <text x="0" y="35" font-size="10" fill="#777777">VERIFIED HUMANS</text>
    </g>

    <!-- REGISTERED AGENTS -->
    <g transform="translate(530, 100)">
        <text x="0" y="-20" font-size="12" fill="#aaaaaa">AGENTS</text>
        <text x="0" y="15" font-size="28" fill="#00d4ff" font-weight="bold" filter="url(#textGlow)">4,569</text>
        <text x="0" y="35" font-size="10" fill="#777777">REGISTERED DIDs</text>
    </g>

    <!-- TRANSACTIONS -->
    <g transform="translate(730, 100)">
        <text x="0" y="-20" font-size="12" fill="#aaaaaa">TRANSFERS</text>
        <text x="0" y="15" font-size="28" fill="#ffffff" font-weight="bold">31,221</text>
        <text x="0" y="35" font-size="10" fill="#777777">M2M SETTLEMENTS</text>
    </g>
  </g>

  <text x="425" y="185" font-family="'Consolas', 'Fira Code', monospace" font-size="10" fill="#aaaaaa" opacity="0.6" text-anchor="middle">AXIOMID PROJECTED TARGETS (ILLUSTRATIVE): 2026-06-25 21:30:54 UTC // SECURE_HANDSHAKE</text>
</svg>